<svg xmlns="http://www.w3.org/2000/svg" viewBox="0 0 34.8 33.02"><defs><style>.cls-1{fill:#b32d27;fill-rule:evenodd;}</style></defs><title>8_r_u</title><g id="Layer_2" data-name="Layer 2"><g id="Layer_1-2" data-name="Layer 1"><path class="cls-1" d="M2.78,6.59l-.39,1.7c.6,1.21.07.93,1.3,1.73.32.2,2,1.05,2,1.06,1.42,1.22.11,2.33,3.38,2.9,2.1.37,2.24-1.69,2.91-2.86.27-.47,3-.88,3-3.21a6.22,6.22,0,0,0-.78-2.06c-.49-.72-1.42-.51-2.1-.94s-.76-1.48-.92-1.76A4.73,4.73,0,0,0,9.27,2.07H8.13c-1.12,0-2,1.79-2.42,2.7s-.8.65-1.32.8a5.17,5.17,0,0,0-1.61,1m4-2.07c0-.37.26-.61.41-1.06l1.69-.64c.67.35,1.72.91,1.72,1.89V4.9c0,.87-.36.56-.38,1.69,1.77,0,.48-.87,3.44-.19.07.83.38.83.38,1.32A1.87,1.87,0,0,1,12.14,9.6h-.38c-.7,0-.67-.22-1.46-.32L11,10.73c-.67,1.39.1,1-1.33,2.18l-1.53-.14L8,12.91,6.8,10.74l.56-1.32C6.35,9.5,6,10,5.26,10H5.07c-.42,0-1.26-1-1.38-1.47A2.94,2.94,0,0,1,4.31,6.4c1.09.23.62-.19,1.33-.19s.73.54,1.91.57c0-1.13-.76-1.33-.76-2.26"/><path class="cls-1" d="M19.13,7.91c.71,3,1,1.61,2.1,3.2h.95c.75,1.09,1,3,2.87,3h1c.76,0,.94-.39,1.72-.56.33-3.94,3.82-1.73,3.82-5.46V7.91c0-1.78-1.87-2.12-2.91-2.78-1.33-.85-.19-2.87-3-2.87S23.3,4.11,22.34,5.05c-1.13,1.12-1.74.11-3.21,2.86m7.93-1.5.28.56c4.2-2,4.86,3.2,1.15,3.2a3.3,3.3,0,0,1-1.34-.38c0,1.26.38,1.4.38,1.88a1.9,1.9,0,0,1-1.91,1.7c-1.19,0-2.1-.58-2.1-1.7,0-.77.36-.89.38-1.88a3.08,3.08,0,0,1-1.53.38H21.8c-.55,0-1.72-1.4-1.72-1.88,0-.69.23-.67.38-1.32.68-.06,1.14-.38,1.53-.38a4,4,0,0,1,1.75.59l.55-.4c-.11-.15-1-1.29-1-1.32a2,2,0,0,1,2.1-2.07c.43,0,1.21.45,1.84.57Z"/><path class="cls-1" d="M19.32,1.88c-.13-.55-.29-.94-1-.94s-.74.54-.95.94c.15.29,1.14,1.47,1.14,1.51,0,.88-.95,1.71-.95,2.26v.19a1.07,1.07,0,0,0,.19.75c-1.8,3.36.95,5.53.95,6.78,0,.36-.58.38-.86.66a3.46,3.46,0,0,0-.47,1c.14.22.44.76.76.76,1.22,0,1.15-.94,2.1-.94,1.22,0,1.8.85,2.74,1.06a12.91,12.91,0,0,0,3.38.07h.19a1.14,1.14,0,0,1,.76.18c.74-.38,1.25-.35,2-.69.32-.15,1.53-1,1.65-1,.82,0,.58,1.13,1.53,1.13h.19c.47,0,1-.85,1-.94,0-1.12-1.34-1-1.34-1.51,0-1.06,1.48-2.23,1.41-5S32.54,4.79,32.12,3c.48-.12,1-.36,1-.94V1.88c0-.67-.6-1.31-1-1.31-1.07,0-.8,1.13-1.34,1.13C29.54,1.7,27.58,0,25.2.34a18.58,18.58,0,0,0-3.13.49c-1.18.34-1.48,1-2.75,1m9.55,12.81c-1.15,0-4.16.67-5.08.5a33.18,33.18,0,0,1-3.66-2c-1.95-1.61-2.18-6-.88-8.69.79-1.63,5.55-3.64,8-2.82A12.13,12.13,0,0,1,31,3.52a12.21,12.21,0,0,1,1.66,4V9c0,3.53-2.72,4-3.82,5.65"/><path class="cls-1" d="M3.16,1.51c-.41,0-.65-.94-1.34-.94-.33,0-1.34.67-1.34.94,0,.53,1,1.26,1.34,1.5A10.39,10.39,0,0,0,.51,7.93L0,8.52l2,4.8-.92.43v1.13c0,.47.79.94,1.14.94.69,0,.93-.94,1.34-.94.14,0,2,.84,2.42,1a14.85,14.85,0,0,0,3.09.36c2.65.4,3-1.1,5-1.55.41.21,1,.75,1.34.75h.38c.54,0,.74-.43,1-.75-.39-1.65-1.14-.9-.89-2.18a14.28,14.28,0,0,1,1.08-2.72c0-3.95.13-3.75-1.34-6.78.31-.45,1-.84,1-1.31,0-.91-.36-1-1-1.35L14,1.69l-.16-.18A9.2,9.2,0,0,0,8.7,0C7,0,3.59,1.51,3.16,1.51m1.34.75c.75.34,2.6-.94,4.2-.94,4.05,0,7.35,2.53,7.46,6.22.15,4.88-3.29,5.76-6.31,7.34l-.76-.39a2.65,2.65,0,0,1-1,.2,6.21,6.21,0,0,1-4.55-2.11A9.39,9.39,0,0,1,2.2,10.73a14.76,14.76,0,0,0-1-2.26l.41-.54c0-4.29,1.48-3.68,2.84-5.67"/><path class="cls-1" d="M26.2,30.91a3.8,3.8,0,0,0,2.24-.8c1.29-1.05.6-.88,1.12-2.1.35-.84,2.94-.44,2.94-3.31a3.07,3.07,0,0,0-3-3.24l-.42-.34c.43-2-2.24-3.35-3.94-2.38-1,.55-1.06,1.41-1.55,2.24-.61,1-1.33.91-2.32,1.48-1.46.84-.79,4.61.62,5,2.14.58,1.22-.37,2.18,1.61a10.86,10.86,0,0,0,2.15,1.84m2.29-9.41-.58,1.66,2.87-.35c.71,1.05,1.19.69,1.34,2.45a4,4,0,0,1-2.48,1.13c-.4,0-.85-.32-1.53-.38,0,1.08.57,1.1.57,1.89,0,1.42-1.54,1.53-2.42,2l-2.13-2,.16-.16c.23-.44,1.18-1.49.51-1.81,0,0-1.86.59-2,.68-.76-.39-1.53-.54-1.53-1.7v-.37a1.84,1.84,0,0,1,1.91-1.7c.82,0,1.07.4,1.72.57,0,0,.19-.35.19-.38,0-1.34-.76-.54-.76-1.88,0-.74,1.05-1.38,1.52-1.7,3.09.71,1.7.69,2.68,2.08"/><path class="cls-1" d="M21.42,17.73c-1.26,0-.73-.75-1.72-.75-.49,0-1.15.4-1.15.94l.1.46,1.24,1.23c-1.33,2-1.53,2.21-1.73,5.28s1.92,4.47,1.92,4.89V30c0,1-1.34.57-1.34,1.51,0,.61.55.72,1.06,1L21,31.45l-.15-.16A43.18,43.18,0,0,0,26.2,33l2.48-.23a18.57,18.57,0,0,1,3.25-1.31c.44,0,.73.71,1.53,1.12.59-.3.95-.41.95-1.31V31.1c0-.67-.69-.65-1.14-1.32a13.54,13.54,0,0,0,1.53-5.65,9.67,9.67,0,0,0-1.91-4.89c1.33-.89,1.5-.27,1.33-2.26-2.72-.63-1.83.75-2.67.75s-1.14-.88-2-1.07c-1-.23-2.12.06-3.14-.1-2.79-.45-3.83,1.17-5,1.17m5.73,13.93c-4.72,0-7.72-3.07-8-6.62-.37-4.92,3.21-6.81,7-7.69v.38c4.32-1,7.64,3.54,7.64,7.15a8.77,8.77,0,0,1-2,4.6,7.06,7.06,0,0,1-4.48,2.18Z"/></g></g></svg>