<svg xmlns="http://www.w3.org/2000/svg" viewBox="0 0 34.8 33.02"><defs><style>.cls-1{fill:#b32d27;fill-rule:evenodd;}</style></defs><title>8_r_d</title><g id="Layer_2" data-name="Layer 2"><g id="Layer_1-2" data-name="Layer 1"><path class="cls-1" d="M2.78,26.43a5.18,5.18,0,0,0,1.61,1c.52.15.85-.2,1.32.79S7,31,8.13,31H9.27a4.62,4.62,0,0,0,1.94-1.08c.16-.27.35-1.39.92-1.75s1.61-.23,2.1-.94A6.31,6.31,0,0,0,15,25.12c0-2.34-2.78-2.74-3-3.22-.67-1.16-.81-3.23-2.91-2.86-3.27.58-2,1.69-3.38,2.91,0,0-1.66.85-2,1.06-1.23.8-.7.51-1.3,1.73l.39,1.69m4,2.08c0-.94.74-1.14.76-2.26-1.18,0-1.27.56-1.91.56s-.24-.42-1.33-.19a2.93,2.93,0,0,1-.62-2.11c.12-.42,1-1.46,1.38-1.46h.19c.78,0,1.09.48,2.1.56L6.8,22.29,8,20.12l.17.14,1.53-.14c1.43,1.14.66.79,1.33,2.17l-.69,1.46c.79-.1.76-.33,1.46-.33h.38a1.88,1.88,0,0,1,1.91,1.88c0,.5-.31.49-.38,1.32-3,.68-1.67-.15-3.44-.19,0,1.13.38.83.38,1.7v.19c0,1-1,1.53-1.72,1.88L7.2,29.56c-.15-.44-.41-.69-.41-1"/><path class="cls-1" d="M19.13,25.12c1.47,2.74,2.08,1.73,3.21,2.85,1,.94.47,2.79,3.28,2.79s1.69-2,3-2.86c1-.67,2.91-1,2.91-2.78v-.19c0-3.74-3.49-1.53-3.82-5.46-.78-.18-1-.57-1.72-.57h-1c-1.84,0-2.12,1.92-2.87,3h-.95c-1.08,1.6-1.39.19-2.1,3.21m8.14,3.94a18.89,18.89,0,0,1-1.84.57,2,2,0,0,1-2.1-2.07s.85-1.16,1-1.31l-.55-.41a4,4,0,0,1-1.75.59c-.39,0-.85-.32-1.53-.37-.15-.66-.38-.64-.38-1.32,0-.49,1.17-1.88,1.72-1.88h.57a3.08,3.08,0,0,1,1.53.37c0-1-.38-1.11-.38-1.88,0-1.11.91-1.7,2.1-1.7a1.9,1.9,0,0,1,1.91,1.7c0,.49-.38.62-.38,1.88a3.46,3.46,0,0,1,1.34-.37c3.71,0,3.05,5.18-1.15,3.2l-.28.55Z"/><path class="cls-1" d="M19.32,31.14c1.27,0,1.57.72,2.75,1a18.59,18.59,0,0,0,3.13.5c2.38.37,4.34-1.36,5.58-1.36.54,0,.27,1.13,1.34,1.13.36,0,1-.65,1-1.32V31c0-.57-.48-.81-1-.94.42-1.77,1.54-2.4,1.6-5.12s-1.41-4-1.41-5.05c0-.5,1.34-.38,1.34-1.5,0-.1-.49-.94-1-.94H32.5c-.95,0-.71,1.13-1.53,1.13-.12,0-1.33-.85-1.65-1-.73-.34-1.24-.31-2-.69a1.14,1.14,0,0,1-.76.19h-.19a12.88,12.88,0,0,0-3.38.06c-.94.21-1.52,1.07-2.74,1.07-.95,0-.88-.94-2.1-.94-.32,0-.62.54-.76.75a3.64,3.64,0,0,0,.47,1c.28.27.86.29.86.66,0,1.24-2.75,3.42-.95,6.77a1.08,1.08,0,0,0-.19.76v.19c0,.55.95,1.38.95,2.25,0,0-1,1.22-1.14,1.51.21.41.33.94.95.94s.83-.38,1-.94m9.55-12.8C30,20,32.69,20.46,32.69,24v1.5a12.12,12.12,0,0,1-1.66,4,12.14,12.14,0,0,1-3.81,1.9c-2.42.82-7.18-1.19-8-2.83-1.3-2.69-1.07-7.07.88-8.68a31.68,31.68,0,0,1,3.66-2.06c.92-.17,3.93.51,5.08.51"/><path class="cls-1" d="M3.16,31.52C3.59,31.52,7,33,8.7,33a9.28,9.28,0,0,0,5.16-1.5l.16-.19,1.54,1.34c.61-.33,1-.43,1-1.34,0-.48-.64-.87-1-1.32,1.47-3,1.34-2.82,1.34-6.78a14.18,14.18,0,0,1-1.08-2.71c-.25-1.28.5-.54.89-2.18-.22-.32-.42-.76-1-.76h-.38c-.31,0-.93.54-1.34.76-2-.45-2.35-2-5-1.55A14.2,14.2,0,0,0,6,17.15c-.46.16-2.28,1-2.42,1-.41,0-.65-.94-1.34-.94-.35,0-1.14.46-1.14.94v1.13L2,19.7,0,24.51l.51.58A10.36,10.36,0,0,0,1.82,30c-.37.24-1.34,1-1.34,1.51,0,.27,1,.94,1.34.94.69,0,.93-.94,1.34-.94m1.34-.76c-1.36-2-2.87-1.37-2.84-5.67l-.41-.54a14.76,14.76,0,0,0,1-2.26,10,10,0,0,1,1.38-1.85,6.2,6.2,0,0,1,4.55-2.1,2.65,2.65,0,0,1,1,.2l.76-.39c3,1.58,6.46,2.45,6.31,7.34-.11,3.69-3.41,6.22-7.46,6.22-1.6,0-3.45-1.29-4.2-.95"/><path class="cls-1" d="M26.2,2.11A10.93,10.93,0,0,0,24.05,4c-1,2,0,1-2.18,1.61-1.41.38-2.08,4.16-.62,5,1,.57,1.71.43,2.32,1.47.49.83.59,1.69,1.55,2.24,1.7,1,4.37-.39,3.94-2.37l.42-.34a3.07,3.07,0,0,0,3-3.24c0-2.88-2.59-2.48-2.94-3.31-.52-1.22.17-1-1.12-2.11a3.8,3.8,0,0,0-2.24-.8m2.29,9.42c-1,1.38.41,1.36-2.68,2.07-.47-.32-1.52-.95-1.52-1.69,0-1.35.76-.54.76-1.89,0,0-.19-.37-.19-.37-.65.17-.9.56-1.72.56a1.83,1.83,0,0,1-1.91-1.69V8.14c0-1.15.77-1.3,1.53-1.69.18.08,2,.67,2,.67.67-.32-.28-1.36-.51-1.8l-.16-.16,2.13-2.05c.88.49,2.42.59,2.42,2,0,.78-.55.81-.57,1.88.68-.06,1.13-.38,1.53-.38a4,4,0,0,1,2.48,1.13c-.15,1.77-.63,1.41-1.34,2.45l-2.87-.34.58,1.66"/><path class="cls-1" d="M21.42,15.3c1.18,0,2.22,1.61,5,1.17,1-.17,2.14.12,3.14-.11.84-.19,1.17-1.06,2-1.06s-.05,1.37,2.67.75c.17-2,0-1.38-1.33-2.26a9.71,9.71,0,0,0,1.91-4.9,13.62,13.62,0,0,0-1.53-5.65c.45-.66,1.14-.64,1.14-1.31V1.74c0-.91-.36-1-.95-1.32-.8.41-1.09,1.13-1.53,1.13A18.61,18.61,0,0,1,28.68.23L26.2,0a43.25,43.25,0,0,0-5.35,1.74L21,1.57,19.8.5c-.51.32-1.06.44-1.06,1.05,0,.94,1.34.46,1.34,1.51v.18c0,.43-2.1,1.88-1.92,4.89s.4,3.32,1.73,5.28l-1.24,1.24-.1.46c0,.53.66.94,1.15.94,1,0,.46-.75,1.72-.75M27.34,1.36a7.11,7.11,0,0,1,4.48,2.18,8.81,8.81,0,0,1,2,4.6c0,3.61-3.32,8.15-7.64,7.16v.37c-3.82-.87-7.4-2.77-7-7.68.26-3.56,3.26-6.63,8-6.63Z"/></g></g></svg>