<?xml version="1.0" standalone="no"?>
<!DOCTYPE svg PUBLIC "-//W3C//DTD SVG 1.1//EN" "http://www.w3.org/Graphics/SVG/1.1/DTD/svg11.dtd" >
<svg>
<metadata>
Created by FontForge 20090914 at Thu Jul 26 15:26:21 2018
 By www-data
Copyright (c) Dieter Steffmann (latin) A.Gophmann (cyr.), 1998. All rights reserved.
</metadata>
<defs>
<font id="ElizabetaModern" horiz-adv-x="772" >
  <font-face 
    font-family="Elizabeta Modern"
    font-weight="400"
    font-stretch="normal"
    units-per-em="1000"
    panose-1="2 0 4 0 0 0 0 0 0 0"
    ascent="800"
    descent="-200"
    x-height="803.998"
    cap-height="792"
    bbox="-23.1319 -234.001 1415 1097.53"
    underline-thickness="18"
    underline-position="-109"
    unicode-range="U+0020-U+2122"
  />
<missing-glyph horiz-adv-x="500" 
d="M63 0h375v1026h-375v-1026zM125 63v901h250v-901h-250z" />
    <glyph glyph-name=".notdef" horiz-adv-x="500" 
d="M63 0h375v1026h-375v-1026zM125 63v901h250v-901h-250z" />
    <glyph glyph-name="space" unicode=" " horiz-adv-x="500" 
 />
    <glyph glyph-name="exclam" unicode="!" horiz-adv-x="268" 
d="M248 700c0 -54.667 -10.667 -139.333 -32 -254c-25.333 -133.333 -51 -200 -77 -200c-27.333 0 -55 66 -83 198c-24 114 -36 198.333 -36 253c0 41.333 9.66699 70 29 86c16.667 14 46.667 21 90 21c40 0 68.167 -7.66699 84.5 -23s24.5 -42.333 24.5 -81zM213 71.001
c0 -20 -7.83398 -36.833 -23.501 -50.5s-33.5 -20.5 -53.5 -20.5s-37.5 7.33301 -52.5 22s-22.5 32 -22.5 52s7.83301 36.667 23.5 50s33.834 20 54.501 20c20 0 37.333 -7.16699 52 -21.5s22 -31.5 22 -51.5z" />
    <glyph glyph-name="quotedbl" unicode="&#x22;" horiz-adv-x="415" 
d="M402 761c0 -36.667 -16.333 -70.332 -49 -100.999c-32.667 -31.333 -66.667 -47 -102 -47c-3.33301 3.33301 -5 6.66602 -5 9.99902c0 1.33301 6 8.66602 18 21.999c12 12.667 18 25.667 18 39c0 1.33301 -9.33301 12.333 -28 33s-28 40.334 -28 59.001
c0 20.667 8 37.5 24 50.5s34.667 19.5 56 19.5c64 0 96 -28.333 96 -85zM190 761.002c0 -36.667 -16.333 -70.3311 -49 -100.998c-32.667 -31.333 -66.667 -47 -102 -47c-3.33301 3.33301 -5 6.66602 -5 9.99902c0 1.33301 5.66699 8.66602 17 21.999
c12 12.667 18 25.667 18 39c0 2 -9.33301 13.333 -28 34c-18 20.667 -27 40 -27 58c0 20.667 8 37.5 24 50.5s34.667 19.5 56 19.5c64 0 96 -28.333 96 -85z" />
    <glyph glyph-name="numbersign" unicode="#" horiz-adv-x="567" 
d="M542 376h-101l-14 -85h102l-17 -110h-102l-33 -204h-116l33 204h-72l-32 -204h-116l33 204h-102l17 110h102l14 85h-102l17 110h102l33 206h115l-32 -206h71l33 206h116l-33 -206h102zM253 376l-13 -85h71l14 85h-72z" />
    <glyph glyph-name="dollar" unicode="$" horiz-adv-x="645" 
d="M639 217c0 -72 -28.668 -127.668 -86.001 -167.001c-51.333 -33.333 -114.333 -50 -189 -50l-17 -22c0 -15.333 -1 -25.333 -3 -30c-4 -8.66699 -12.333 -13 -25 -13c-16.667 0 -27 10.667 -31 32c-4 20.667 -7.33301 31 -10 31c-69.333 0 -127.333 10 -174 30
c-64.667 28 -97 72 -97 132c0 46.667 15.333 82.334 46 107.001c27.333 22.667 65.333 34 114 34c49.333 0 78.666 -10 87.999 -30c-9.33301 -11.333 -18 -20 -26 -26c-22 -18 -35 -29.333 -39 -34c-9.33301 -13.333 -14 -30.333 -14 -51c0 -30.667 12 -54.334 36 -71.001
c20.667 -14.667 47.334 -22 80.001 -22s58.667 13 78 39c18 24 27 52.667 27 86c0 40 -17.333 77.333 -52 112c-15.333 15.333 -49 41.333 -101 78l-83 56c-27.333 18.667 -41.333 28.667 -42 30c-64.667 50 -97 109.333 -97 178c0 56.667 30 98.667 90 126
c44 20 98.667 30 164 30c3.33301 4.66699 8 18.667 14 42c4 17.333 14.333 26 31 26c15.333 0 23.333 -11.333 24 -34s4.33398 -35 11.001 -37c14 -4 35.333 -6 64 -6c7.33301 0 16.333 0.166992 27 0.5s23.334 0.833008 38.001 1.5s27.167 1.16699 37.5 1.5
s19.166 0.5 26.499 0.5c12.667 0 22.667 -16 30 -48c5.33301 -24.667 8 -46 8 -64c0 -17.333 -5.66699 -34.666 -17 -51.999c-8.66699 0 -23 9 -43 27c-27.333 24 -48 40.333 -62 49c-29.333 18 -60.333 27 -93 27c-25.333 0 -48 -4.66699 -68 -14
c-24 -11.333 -36 -29 -36 -53c0 -34 32 -73.333 96 -118l71 -50l42 -30c34.667 -26 56.667 -43 66 -51c64 -61.333 96 -129 96 -203z" />
    <glyph glyph-name="percent" unicode="%" horiz-adv-x="694" 
d="M356 634c0 -55.333 -12.668 -102.666 -38.001 -141.999c-29.333 -46 -70.333 -69 -123 -69c-59.333 0 -104 24 -134 72c-25.333 40.667 -38 92 -38 154c0 49.333 16 87.666 48 114.999c30.667 25.333 71.334 38 122.001 38c108.667 0 163 -56 163 -168zM668.999 770
l-28.001 -8l-573 -754c-10 -4.66699 -16.333 -7 -19 -7l-24 2l-2 18l318 419c180 236 277.333 358.667 292 368c2.66699 0.666992 6.33398 1 11.001 1c17.333 0 26 -9.33301 26 -28c0 -5.33301 -0.333008 -9 -1 -11zM670.998 214
c0 -55.333 -12.668 -102.666 -38.001 -141.999c-29.333 -46 -70.333 -69 -123 -69c-59.333 0 -104 24 -134 72c-25.333 40.667 -38 92 -38 154c0 49.333 16 87.666 48 114.999c30.667 25.333 71.334 38 122.001 38c108.667 0 163 -56 163 -168zM241.997 638
c0 84.667 -17.667 127 -53 127c-32 0 -48 -42.667 -48 -128c0 -38 3.33301 -72.667 10 -104c10 -48.667 25.333 -73 46 -73c30 0 45 59.333 45 178zM556.997 218c0 84 -17.667 126 -53 126c-32 0 -48 -42.333 -48 -127c0 -38 3.33301 -72.667 10 -104
c10 -49.333 25.333 -74 46 -74c30 0 45 59.667 45 179z" />
    <glyph glyph-name="ampersand" unicode="&#x26;" horiz-adv-x="820" 
d="M817 25l-4.99902 -16.0029l-16 -9c-52 -0.666992 -91 -1 -117 -1h-41c-40 0 -64 1.33301 -72 4l-32.5 23.5l-29.5 22.5c-19.333 -7.33301 -39 -14.333 -59 -21s-39.667 -13.667 -59 -21c-47.333 -16 -88 -24 -122 -24c-73.333 0 -135.333 23 -186 69
c-50 46.667 -75 106.334 -75 179.001c0 82.667 57 167 171 253c0 6 -21.667 42.333 -65 109c-42.667 66.667 -64 110.334 -64 131.001c0 46 84.667 69 254 69c20 0 45.333 -0.5 76 -1.5l109 -3.5c14.667 -0.666992 26.167 -6.5 34.5 -17.5s12.5 -24.167 12.5 -39.5
c0 -24.667 -21.667 -55 -65 -91c-54 -45.333 -84 -72.333 -90 -81c21.333 -47.333 56.666 -101.666 105.999 -162.999l43 -50l87 -99c35.333 28 53 66.333 53 115c0 22 -5.66699 41.667 -17 59c-13.333 20 -30.333 30 -51 30c-16 0 -35.667 -11.667 -59 -35l-26 22
c-5.33301 19.333 -8 33.666 -8 42.999c0 34.667 11.333 65.334 34 92.001c23.333 27.333 51.333 41 84 41c42.667 0 76 -19.333 100 -58c20.667 -32.667 31 -71.667 31 -117c0 -74 -31.667 -154.667 -95 -242l2 -19c56.667 -68 108 -115.667 154 -143zM393.001 686.997
c0 11.333 -4.66699 21.333 -14 30s-19.666 13 -30.999 13c-12.667 0 -23.667 -4.66699 -33 -14s-14 -20.333 -14 -33c0 -9.33301 4 -22.333 12 -39c9.33301 -19.333 17 -29 23 -29c11.333 0 23.666 9 36.999 27c13.333 18.667 20 33.667 20 45zM440.001 123.997
l-205.001 279c-9.33301 1.33301 -17.666 -11.667 -24.999 -39c-5.33301 -22.667 -8 -40.667 -8 -54c0 -56.667 23.333 -104 70 -142c43.333 -36.667 94 -55 152 -55c12 0 17.333 3.66699 16 11z" />
    <glyph glyph-name="quotesingle" unicode="'" horiz-adv-x="183" 
d="M180 759c0 -36.667 -16.333 -70.3311 -49 -100.998c-32.667 -31.333 -66.667 -47 -102 -47c-3.33301 3.33301 -5 6.66602 -5 9.99902c0 1.33301 5.66699 8.66602 17 21.999c12 12.667 18 25.667 18 39c0 2 -9.33301 13.333 -28 34c-18 20.667 -27 40 -27 58
c0 20.667 8 37.5 24 50.5s34.667 19.5 56 19.5c64 0 96 -28.333 96 -85z" />
    <glyph glyph-name="parenleft" unicode="(" horiz-adv-x="228" 
d="M227 15l-9.00098 -11.998c-67.333 25.333 -121.666 81.666 -162.999 168.999c-36 76 -54 154.333 -54 235c0 79.333 18 157.666 54 234.999c42.667 90 97 145.333 163 166l6 -5c-6.66699 -14 -11.667 -23.667 -15 -29c-67.333 -107.333 -101 -226.333 -101 -357
c0 -152.667 39.667 -286.667 119 -402z" />
    <glyph glyph-name="parenright" unicode=")" horiz-adv-x="309" 
d="M267 407c0 -81.333 -17.666 -160.002 -52.999 -236.002c-40.667 -86.667 -95.334 -142.667 -164.001 -168l-9 12c79.333 115.333 119 249.333 119 402c0 130.667 -33.667 249.667 -101 357c-7.33301 12.667 -12.333 22 -15 28l7 6
c67.333 -21.333 121.333 -76.666 162 -165.999c36 -77.333 54 -155.666 54 -234.999z" />
    <glyph glyph-name="asterisk" unicode="*" horiz-adv-x="441" 
d="M403 504c0 -11.333 -6.33496 -23.334 -19.002 -36.001c-12 -13.333 -23.333 -20 -34 -20c-20 0 -41 18.667 -63 56c-21.333 38 -38 57.333 -50 58c-1.33301 -3.33301 -2.66602 -6 -3.99902 -8s-2.33301 -3.66699 -3 -5c0 -10 8 -29 24 -57s24 -48 24 -60
c0 -31.333 -19.667 -47 -59 -47c-36 0 -54 15.333 -54 46c0 12.667 8.33301 33.334 25 62.001c17.333 29.333 26 51 26 65l-13 10c-7.33301 -5.33301 -24 -28.333 -50 -69c-20 -32.667 -41.667 -49 -65 -49c-8.66699 0 -18.667 8.66699 -30 26
c-10.667 17.333 -16 31.333 -16 42c0 20 10.667 33.667 32 41c8.66699 2.66699 31 5 67 7c28 0.666992 47 5 57 13c-1.33301 17.333 -17 26 -47 26c-5.33301 0 -13 -0.5 -23 -1.5s-17.667 -1.5 -23 -1.5c-12.667 0 -26 2.66699 -40 8c-17.333 7.33301 -26 16 -26 26
c0 14.667 5.33301 31.334 16 50.001c12 22 24.333 33 37 33c20.667 0 41 -15.667 61 -47c24.667 -40 41 -62.667 49 -68c11.333 0 17 2.33301 17 7c0 14.667 -10 38.667 -30 72c-19.333 34.667 -29 57 -29 67c0 15.333 9.66699 27.666 29 36.999c14 6.66699 30.667 10 50 10
c24 0 36 -18.667 36 -56c0 -15.333 -7 -36.333 -21 -63c-14 -27.333 -21 -48.333 -21 -63l11 -5l14 5c10.667 17.333 19 31.333 25 42l12 21c18.667 26.667 36.667 40 54 40c15.333 0 28 -7 38 -21s15 -29 15 -45c0 -18.667 -10 -32 -30 -40
c-12 -4.66699 -33.333 -8 -64 -10c-28 -2 -47 -4.66699 -57 -8l-2 -7l6 -11c5.33301 -2.66699 12.833 -4.83398 22.5 -6.50098s21.834 -3.16699 36.501 -4.5c29.333 -2 50 -6 62 -12c18 -9.33301 27 -25.666 27 -48.999z" />
    <glyph glyph-name="plus" unicode="+" horiz-adv-x="567" 
d="M336 519v-132h133v-107h-133v-131h-107v131h-131v107h131v132h107z" />
    <glyph glyph-name="comma" unicode="," horiz-adv-x="190" 
d="M180 62c0 -32 -14.668 -64.6689 -44.001 -98.002s-59.666 -50 -90.999 -50c-10.667 0 -16 4.33301 -16 13c0 6.66699 5.66699 16.667 17 30c12 12.667 18 22.334 18 29.001c0 7.33301 -9 19.666 -27 36.999c-18 16.667 -27 33.334 -27 50.001
c0 21.333 8.66699 38.333 26 51s37 19 59 19c10.667 0 21.167 -2.16699 31.5 -6.5s19.5 -10.166 27.5 -17.499s14.333 -16 19 -26s7 -20.333 7 -31z" />
    <glyph glyph-name="hyphen" unicode="-" horiz-adv-x="519" 
d="M504 417c0 -22.667 -7 -47.332 -21 -73.999s-30.667 -43.667 -50 -51c-11.333 -4.66699 -35.333 -7 -72 -7c-17.333 0 -43.333 1 -78 3c-17.333 1.33301 -32.5 2.33301 -45.5 3s-23.833 1 -32.5 1c-68 0 -126.333 -5 -175 -15c-6.66699 7.33301 -12 14.666 -16 21.999
c17.333 72 40 113.333 68 124c10.667 4 78.334 6 203.001 6c11.333 0 25.166 0.5 41.499 1.5l56.5 3.5c44 4 77 6 99 6c14.667 0 22 -7.66699 22 -23z" />
    <glyph glyph-name="period" unicode="." horiz-adv-x="178" 
d="M171 79c0 -10.667 -2.16699 -20.834 -6.5 -30.501s-10.166 -18 -17.499 -25s-15.833 -12.667 -25.5 -17s-19.834 -6.5 -30.501 -6.5s-21 2 -31 6s-18.833 9.5 -26.5 16.5s-13.834 15.167 -18.501 24.5s-7 19.333 -7 30s2.16699 20.834 6.5 30.501s10.166 18 17.499 25
s15.833 12.667 25.5 17s19.834 6.5 30.501 6.5s21 -2 31 -6s18.833 -9.5 26.5 -16.5s13.834 -15.167 18.501 -24.5s7 -19.333 7 -30z" />
    <glyph glyph-name="slash" unicode="/" horiz-adv-x="286" 
d="M274 786c0 -12.667 -33.333 -142.335 -100 -389.002c-66 -248 -102 -376 -108 -384s-17.333 -12 -34 -12l-4.5 0.5c-3 0.333008 -7.16699 0.833008 -12.5 1.5l-2 8c0 10.667 7.66699 46.667 23 108c20.667 80.667 43.5 165.334 68.5 254.001l82.5 280
c12 38.667 22 69.834 30 93.501s14.333 40.167 19 49.5c14 4 23.333 6 28 6c6.66699 0 10 -5.33301 10 -16z" />
    <glyph glyph-name="zero" unicode="0" horiz-adv-x="684" 
d="M685 472c0 -110 -30.001 -212.333 -90.001 -307c-70 -110 -156 -165 -258 -165c-104 0 -189 56 -255 168c-54.667 92.667 -82 196 -82 310c0 217.333 114.333 326 343 326c110.667 0 195.334 -27.833 254.001 -83.5s88 -138.5 88 -248.5zM336.999 75
c46 0 76.334 48.333 91.001 145c2 14 4 37.167 6 69.5s3.66699 73.833 5 124.5c0.666992 10.667 1 17.667 1 21c0 4 0 4.66699 0 2c0 80.667 -3 138 -9 172c-14 80 -44.333 120 -91 120c-48.667 0 -80.334 -35.333 -95.001 -106c-6 -31.333 -9 -86 -9 -164
c0 -42 1.16699 -81 3.5 -117s5.83301 -70 10.5 -102c16.667 -110 45.667 -165 87 -165z" />
    <glyph glyph-name="one" unicode="1" horiz-adv-x="684" 
d="M498 23c0 -15.333 -21.333 -22.999 -64 -22.999h-197c-26 0 -39 9 -39 27l25 40c16.667 26.667 25 51.667 25 75c0.666992 72 1 126.667 1 164v62c0 157.333 -8 247.666 -24 270.999c-3.33301 4.66699 -7 9.16699 -11 13.5l-12 13.5c-11.333 13.333 -17 22 -17 26
c0 12 35 33.667 105 65c67.333 30.667 111.333 46 132 46c14 0 22.667 -17 26 -51l-1 1v-5v-605c0 -24.667 8.33301 -50.334 25 -77.001c17.333 -27.333 26 -41.666 26 -42.999z" />
    <glyph glyph-name="two" unicode="2" horiz-adv-x="684" 
d="M622 657c0 -62 -30.6689 -121.665 -92.002 -178.998c-29.333 -23.333 -51.333 -40.333 -66 -51l-120 -87c-77.333 -55.333 -127 -104.333 -149 -147c8.66699 -3.33301 19 -5 31 -5c11.333 0 25.333 0.166992 42 0.5s36.334 0.833008 59.001 1.5
c44.667 2 78.334 3 101.001 3c21.333 0 49 6.33301 83 19c36.667 13.333 58 20 64 20l26 -15c0 -34.667 -9.66699 -77.334 -29 -128.001c-23.333 -59.333 -49 -89 -77 -89h-391c-21.333 0 -32 21.667 -32 65c0 50.667 15 100.667 45 150c6.66699 10 18 25.333 34 46l63 79
l54 67c14 17.333 24.333 29.666 31 36.999c53.333 67.333 80 125.333 80 174c0 27.333 -4.33301 51 -13 71c-10.667 26.667 -28 40 -52 40c-19.333 0 -35.333 -9.33301 -48 -28c-13.333 -18.667 -20 -37.334 -20 -56.001c0 -19.333 11.333 -40.333 34 -63
s34 -36.334 34 -41.001c0 -20 -28.667 -30 -86 -30c-42 0 -80.333 15 -115 45c-34.667 30.667 -52 66.667 -52 108c0 56.667 22.333 96.334 67 119.001c32 16 79.667 24 143 24h19c8 0 17.333 -0.333008 28 -1s20 -1 28 -1h20c81.333 0 138 -6 170 -18
c57.333 -21.333 86 -64.666 86 -129.999z" />
    <glyph glyph-name="three" unicode="3" horiz-adv-x="684" 
d="M599 348c0 -59.333 -27.999 -116.329 -83.999 -170.996c-49.333 -48.667 -111.333 -88.334 -186 -119.001c-71.333 -30 -135.666 -45 -192.999 -45c-18 0 -32 1.33301 -42 4l-9 14l5 9l63.5 39.5l50.5 31.5c50 32 86.333 63 109 93c31.333 39.333 47 83.666 47 132.999
c0 38.667 -12.333 66 -37 82c-12.667 8.66699 -35.334 16 -68.001 22c-24.667 4.66699 -37 11.667 -37 21c0 7.33301 27 28 81 62c55.333 35.333 84.333 61.666 87 78.999c-3.33301 10 -45.666 15 -126.999 15c-38.667 0 -72.334 -11.667 -101.001 -35
c-12.667 -10.667 -21.334 -16.334 -26.001 -17.001l-21 11c-0.666992 9.33301 -1 17 -1 23v11c0 33.333 6.66699 70.666 20 111.999c17.333 51.333 39 77 65 77h367l30 -22c-3.33301 -47.333 -19.666 -92.666 -48.999 -135.999c-18.667 -28 -46.334 -59 -83.001 -93
c-29.333 -27.333 -44.666 -43.333 -45.999 -48l3 -2c49.333 -2 90.666 -15.333 123.999 -40c38.667 -28 58 -65 58 -111z" />
    <glyph glyph-name="four" unicode="4" horiz-adv-x="684" 
d="M623 344c0 -20 -5.16797 -37.998 -15.501 -53.998s-24.833 -25.667 -43.5 -29c-24 -5.33301 -36 -25 -36 -59c0 3.33301 0.333008 0.666016 1 -8.00098s1.66699 -23 3 -43c1.33301 -33.333 9.33301 -61 24 -83c16.667 -24.667 25 -38.334 25 -41.001
c0 -7.33301 -5.16699 -13.666 -15.5 -18.999s-19.833 -8 -28.5 -8h-198c-38.667 0 -58 9.33301 -58 28l1 1l2 4c30 64.667 45 119.667 45 165c0 44.667 -29.333 67 -88 67c-6.66699 0 -14.5 -0.333008 -23.5 -1s-19.833 -1.66699 -32.5 -3c-25.333 -2 -44 -3 -56 -3
c-46 0 -69 15.667 -69 47c0 62 19.333 124.333 58 187c18.667 32 54.334 78.667 107.001 140c38.667 44.667 58 75.667 58 93c0 5.33301 -2.16699 13.333 -6.5 24s-6.5 19 -6.5 25c0 18.667 20 28 60 28h260c18 0 27 -9 27 -27c0 -38.667 -26.667 -76.667 -80 -114
c-12 -9.33301 -56 -34.333 -132 -75c-61.333 -33.333 -104.333 -57.333 -129 -72c-79.333 -47.333 -119 -96 -119 -146c0 -18 7.66699 -27 23 -27h126c16 0 24 18 24 54v68c0 25.333 26.667 53.666 80 84.999c36.667 22 75.667 40 117 54l7 -8
c0 -9.33301 -0.166992 -21 -0.5 -35s-0.833008 -30.667 -1.5 -50c-0.666992 -18.667 -1 -35 -1 -49v-35v-44c0 -15.333 8.66699 -23 26 -23c4.66699 0 11.5 0.666992 20.5 2s15.833 2 20.5 2c16.667 0 25 -6 25 -18z" />
    <glyph glyph-name="five" unicode="5" horiz-adv-x="684" 
d="M576 783c0 -77.333 -24.665 -127.669 -73.998 -151.002c-26 -12.667 -83 -19 -171 -19c-34 0 -58 -2.66699 -72 -8c-22.667 -8.66699 -34 -28 -34 -58c0 -18 2.66699 -29.667 8 -35c19.333 1.33301 36 2.33301 50 3s25.667 1 35 1c64.667 0 118.334 -11.667 161.001 -35
c52 -29.333 78 -74 78 -134c0 -52 -25 -106 -75 -162c-44.667 -50.667 -101 -93.667 -169 -129c-67.333 -35.333 -126 -53 -176 -53c-8.66699 0 -18.667 6.66699 -30 20c1.33301 8 21.333 23.333 60 46c46 28.667 80.333 56 103 82c36.667 40.667 55 87.667 55 141
c0 59.333 -17.333 99.333 -52 120c-19.333 6.66699 -37.166 12.334 -53.499 17.001s-31.166 8.33398 -44.499 11.001c-34.667 6.66699 -52 22.334 -52 47.001c0 39.333 7 94.666 21 165.999c17.333 86 35.666 131.333 54.999 136c28.667 8 68.667 12 120 12
c17.333 0 44.666 -1 81.999 -3c18.667 -0.666992 34.667 -1.16699 48 -1.5s24.666 -0.5 33.999 -0.5c7.33301 0 17.666 1.83301 30.999 5.5s23.666 5.5 30.999 5.5c20.667 0 31 -8 31 -24z" />
    <glyph glyph-name="six" unicode="6" horiz-adv-x="684" 
d="M621 279c0 -74 -22.999 -138.331 -68.999 -192.998c-48 -57.333 -108.333 -86 -181 -86c-98.667 0 -176.334 44 -233.001 132c-50 76.667 -75 166.667 -75 270c0 110.667 43.667 205.667 131 285c84.667 76.667 183 114.667 295 114h6l19 -12
c-1.33301 -5.33301 -10.333 -16.333 -27 -33c-5.33301 -5.33301 -16.333 -15.333 -33 -30c-49.333 -43.333 -86.333 -87.333 -111 -132c-40 -71.333 -60 -153.333 -60 -246c0 -56 5.33301 -108.667 16 -158c16.667 -76.667 41.667 -115 75 -115c53.333 0 80 40 80 120
c0 28.667 -5.66699 57 -17 85c-14.667 34.667 -34.667 52 -60 52c-9.33301 0 -19.333 -5.33301 -30 -16c-11.333 -10.667 -20 -16.334 -26 -17.001l-18 12c0 49.333 14 91.666 42 126.999c30 38.667 69 58 117 58c52 0 92.667 -24 122 -72c24.667 -40.667 37 -89 37 -145z
" />
    <glyph glyph-name="seven" unicode="7" horiz-adv-x="684" 
d="M601 728c0 -36 -19.3369 -85.3359 -58.0039 -148.003l-46 -75l-27 -46l-24 -40.5c-6 -9.66699 -9.66699 -16.167 -11 -19.5c-38.667 -77.333 -58 -154.333 -58 -231c0 -6.66699 0.333008 -15.167 1 -25.5s1.66699 -22.166 3 -35.499l3.5 -35.5
c1 -10.333 1.5 -18.833 1.5 -25.5c0 -23.333 -8 -38 -24 -44c-8 -2 -26 -3 -54 -3h-18c-4 0 -9 -0.166992 -15 -0.5s-12.333 -0.666016 -19 -0.999023s-13 -0.666016 -19 -0.999023s-11 -0.5 -15 -0.5c-84 0 -126 19.333 -126 58c0 70.667 30.333 146.667 91 228
c32 44 89 106.333 171 187c62.667 61.333 95.334 102.333 98.001 123l-12 6c-11.333 -1.33301 -22.666 -2.33301 -33.999 -3s-22.666 -1 -33.999 -1c-7.33301 0 -16.166 0.166992 -26.499 0.5s-22.5 0.833008 -36.5 1.5c-27.333 2 -48 3 -62 3
c-16.667 0 -40 -5.33301 -70 -16c-31.333 -10 -54 -15 -68 -15c-20 0 -30 11.333 -30 34c0 34.667 7.66699 73 23 115c20 50.667 44.333 76 73 76l391 -1c20.667 0 31 -21.333 31 -64z" />
    <glyph glyph-name="eight" unicode="8" horiz-adv-x="684" 
d="M631 200c0 -134 -91.999 -201 -275.999 -201c-201.333 0 -302 61 -302 183c0 34 7 64 21 90c10.667 20.667 30 45 58 73l33 34l45 46l-2 11c-43.333 40 -73.333 71.667 -90 95c-30 40 -45 79.667 -45 119c0 102.667 89 154 267 154c57.333 0 107 -8.66699 149 -26
c56 -23.333 84 -60.333 84 -111c0 -38.667 -13.333 -72.334 -40 -101.001c-6 -7.33301 -34.667 -31.333 -86 -72l-2 -13l78.5 -76c20.333 -20.667 35.166 -36.667 44.499 -48c42 -53.333 63 -105.666 63 -156.999zM413.001 657c0 17.333 -6.66602 30.834 -19.999 40.501
s-29 14.5 -47 14.5c-5.33301 0 -10.833 -1.66699 -16.5 -5s-10.834 -7.5 -15.501 -12.5s-8.5 -10.333 -11.5 -16s-4.5 -11.167 -4.5 -16.5c0 -14.667 7.66699 -33.334 23 -56.001c16 -22 31.333 -33 46 -33c30.667 22.667 46 50.667 46 84zM393.002 176.001
c0 26 -8.33496 55.333 -25.002 88c-19.333 37.333 -39.666 57 -60.999 59c-39.333 -29.333 -59 -72.333 -59 -129c0 -76 24 -114 72 -114c24.667 0 43.334 10.333 56.001 31c11.333 17.333 17 39 17 65z" />
    <glyph glyph-name="nine" unicode="9" horiz-adv-x="684" 
d="M636 519c0 -136.667 -52.6709 -257.667 -158.004 -363c-101.333 -101.333 -217 -152 -347 -152h-16c-8 0 -18.667 0.333008 -32 1l-11 19l19 18c98.667 23.333 176.667 80 234 170c54 82.667 81 176.667 81 282c0 50.667 -6 96 -18 136c-16.667 58.667 -44 88 -82 88
c-16.667 0 -33 -8 -49 -24c-15.333 -15.333 -23 -31.333 -23 -48c0 -42 4.66699 -79 14 -111c12.667 -48 34.334 -72 65.001 -72c6.66699 0 16.667 3 30 9c12.667 6.66699 21.667 10 27 10c8.66699 0 13 -10.667 13 -32c0 -24 -16 -47 -48 -69
c-31.333 -22 -59.666 -33 -84.999 -33c-31.333 0 -59.5 5 -84.5 15s-46.167 24 -63.5 42s-30.666 39.833 -39.999 65.5s-14 54.5 -14 86.5c0 85.333 27.333 149 82 191c48.667 38 117 57 205 57c96.667 0 170.334 -23.333 221.001 -70c53.333 -49.333 80 -121.333 80 -216z
" />
    <glyph glyph-name="colon" unicode=":" horiz-adv-x="186" 
d="M174 494c0 -21.333 -8 -39.666 -24 -54.999s-34.667 -23 -56 -23c-22 0 -41.333 7.33301 -58 22s-25 33 -25 55c0 21.333 8 39.666 24 54.999s34.667 23 56 23c22 0 41.333 -7.33301 58 -22s25 -33 25 -55zM174 79c0 -10.667 -2.16797 -20.834 -6.50098 -30.501
s-10.166 -18 -17.499 -25s-15.833 -12.667 -25.5 -17s-19.834 -6.5 -30.501 -6.5c-22 0 -41.333 7.33301 -58 22s-25 33 -25 55c0 10.667 2.16699 20.834 6.5 30.501s10.166 18 17.499 25s15.833 12.667 25.5 17s19.834 6.5 30.501 6.5s21 -2 31 -6s18.833 -9.5 26.5 -16.5
s13.834 -15.167 18.501 -24.5s7 -19.333 7 -30z" />
    <glyph glyph-name="semicolon" unicode=";" horiz-adv-x="210" 
d="M182 494c0 -21.333 -7.83203 -39.666 -23.499 -54.999s-34.167 -23 -55.5 -23c-22.667 0 -42.334 7.33301 -59.001 22s-25 33 -25 55c0 21.333 8 39.666 24 54.999s35 23 57 23c10.667 0 21 -2 31 -6s18.667 -9.5 26 -16.5s13.333 -15.167 18 -24.5s7 -19.333 7 -30z
M191.001 62c0 -32 -14.6689 -64.668 -44.002 -98.001s-59.666 -50 -90.999 -50c-10.667 0 -16 4.33301 -16 13c0 4.66699 5.66699 14.334 17 29.001c11.333 13.333 17 23.333 17 30c0 7.33301 -9 19.666 -27 36.999c-18 16.667 -27 33.334 -27 50.001
c0 21.333 8.66699 38.333 26 51s37 19 59 19c22.667 0 42.334 -8.33301 59.001 -25c18 -16 27 -34.667 27 -56z" />
    <glyph glyph-name="less" unicode="&#x3c;" horiz-adv-x="500" 
d="M466 582v-86l-341 -159l341 -158v-86l-433 207v75z" />
    <glyph glyph-name="equal" unicode="=" horiz-adv-x="567" 
d="M89 447h389v-97h-389v97zM89 316h389v-97h-389v97z" />
    <glyph glyph-name="greater" unicode="&#x3e;" horiz-adv-x="500" 
d="M34 93v86l341 158l-341 159v86l433 -207v-75z" />
    <glyph glyph-name="question" unicode="?" horiz-adv-x="558" 
d="M557 669c0 -50 -16.332 -95.333 -48.999 -136c-18 -23.333 -53.667 -57 -107 -101c-26.667 -21.333 -48.834 -40.5 -66.501 -57.5s-30.834 -31.833 -39.501 -44.5c-8 -19.333 -14.5 -36.333 -19.5 -51s-8.16699 -27.334 -9.5 -38.001l-8 -2c-12 0 -21 11.667 -27 35
c-4 16 -6 33 -6 51c0 36.667 16.667 92.334 50 167.001c33.333 76 50 128 50 156c0 57.333 -23 86 -69 86c-19.333 0 -34.666 -9.66699 -45.999 -29c-9.33301 -16.667 -14 -35 -14 -55c0 -25.333 10.333 -49.333 31 -72s31 -35 31 -37c-18 -18 -45 -27 -81 -27
c-46 0 -86.667 16.333 -122 49c-36 32.667 -54 72 -54 118c0 81.333 84 122 252 122h83c68.667 0 118 -5.66699 148 -17c48.667 -18.667 73 -57.667 73 -117zM339.001 71c0 -47.333 -27.667 -71 -83 -71c-52.667 0 -79 23.667 -79 71c0 20 6.83301 37.167 20.5 51.5
s30.5 21.5 50.5 21.5c60.667 0 91 -24.333 91 -73z" />
    <glyph glyph-name="at" unicode="@" horiz-adv-x="633" 
d="M460 100c-28.667 0 -59.3301 19.001 -91.9971 57.001c-23.333 -12.667 -50.666 -34.667 -81.999 -66c-77.333 23.333 -116 63.666 -116 120.999c0 46 22.333 90.333 67 133c10.667 -1.33301 19.5 -2.5 26.5 -3.5s12.5 -1.5 16.5 -1.5c23.333 0 45.666 5.66699 66.999 17
c0 18.667 -0.333008 29 -1 31c-2.66699 10.667 -10.334 16 -23.001 16c-7.33301 0 -22 -8 -44 -24c-21.333 -15.333 -36.666 -23 -45.999 -23c-8 0 -16.667 4.5 -26 13.5s-14 17.5 -14 25.5c0 18 5.33301 30.333 16 37c4.66699 2.66699 8 4 10 4c28 0 52 3.66699 72 11
c3.33301 1.33301 10.5 5 21.5 11s25.833 14.667 44.5 26l19.5 1.5c4.33301 0.333008 6.83301 0.5 7.5 0.5c8.66699 0 15.667 -2.66699 21 -8c6.66699 -15.333 16.667 -25.333 30 -30c12.667 -18.667 19 -37.667 19 -57v-199c0 -10.667 7.33301 -16 22 -16
c16 0 29.667 13.667 41 41c8.66699 21.333 13 42.333 13 63c0 58.667 -18 114.667 -54 168c-44.667 66.667 -104 100 -178 100c-53.333 0 -98.333 -25 -135 -75c-34 -46 -51 -96 -51 -150c0 -62 16.667 -118.667 50 -170c34.667 -54 81 -90 139 -108
c37.333 -11.333 83.666 -17 138.999 -17c-38.667 -20 -63.334 -32.333 -74.001 -37c-40 -17.333 -66.333 -26 -79 -26c-6.66699 0 -19 2 -37 6c-62 15.333 -115.667 49 -161 101c-54.667 62.667 -82 133 -82 211c0 100 36 184 108 252c63.333 59.333 130.666 89 201.999 89
c87.333 0 160 -30.667 218 -92c58.667 -60.667 88 -134.667 88 -222c0 -60 -12 -108.333 -36 -145c-28 -44 -70.333 -66 -127 -66zM347.004 304.001l-29 -16.502c-8 -4.33301 -13.667 -8.16602 -17 -11.499c-16 -13.333 -24 -28.666 -24 -45.999
c0 -8.66699 2.66699 -19 8 -31c6 -12.667 13.667 -19 23 -19c10.667 0 23.667 6 39 18v106z" />
    <glyph glyph-name="A" unicode="A" horiz-adv-x="801" 
d="M782 80c0 -40.667 -17.666 -65.9961 -52.999 -75.9961c-8.66699 -2.66699 -44.334 -4 -107.001 -4c-17.333 0 -34 0.5 -50 1.5s-31.667 2.83301 -47 5.5l-10 19v2c-0.666992 6.66699 6.33301 19.334 21 38.001c15.333 19.333 23 32.666 23 39.999
c0 65.333 -20.333 159.333 -61 282l-10 3c-37.333 -58 -72.333 -87.333 -105 -88l-23 15c0.666992 7.33301 1.33398 13.666 2.00098 18.999s1.33398 10 2.00098 14c0.666992 -0.666992 0.666992 -1.33398 0 -2.00098c0 18 -7.16699 31.667 -21.5 41s-30.833 14 -49.5 14
c-58 0 -102.667 -37.667 -134 -113c-23.333 -58 -35 -121.333 -35 -190c0 -10 5.66699 -24.333 17 -43c12 -18 18 -28.333 18 -31c0 -18 -26 -27 -78 -27c-23.333 0 -39.333 4.5 -48 13.5s-13 25.167 -13 48.5c0 50.667 19 131 57 241c6 17.333 16.667 46 32 86l60 156
c34.667 88 52 140.333 52 157c0 6 -4.66699 17.333 -14 34s-14 27.667 -14 33c0 15.333 13.667 24.166 41 26.499s71.666 3.5 132.999 3.5h37c15.333 0 32.666 -0.333008 51.999 -1s36.333 -1 51 -1h37h42c12 0 21.667 0.333008 29 1l21 -16c0 -8.66699 -4 -21 -12 -37
c-7.33301 -16 -11 -28 -11 -36c0 -24.667 14.667 -80 44 -166c48.667 -140.667 74.667 -217.334 78 -230.001c31.333 -102 47 -179.667 47 -233zM437.001 560.004c0 17.333 -9.66602 42.668 -28.999 76.001c-21.333 35.333 -39.333 53 -54 53
c-20.667 0 -46.334 -26 -77.001 -78c-29.333 -49.333 -44 -85.333 -44 -108c0 -6.66699 2.66699 -9.33398 8 -8.00098c40 42.667 79 64 117 64c7.33301 0 19 -2.66699 35 -8c17.333 -5.33301 29.333 -8 36 -8c5.33301 0 8 5.66699 8 17z" />
    <glyph glyph-name="B" unicode="B" horiz-adv-x="773" 
d="M734 196c0 -62.667 -22.668 -111.668 -68.001 -147.001c-40.667 -32.667 -93.334 -49 -158.001 -49h-406l-22 20c-2.66699 28.667 -4.5 61.667 -5.5 99s-1.5 79.333 -1.5 126s1 117 3 211s3 164.333 3 211c0 17.333 -13.333 53.666 -40 108.999l2 10l17 11
c44.667 -2 92 -3 142 -3l344 3c46.667 0.666992 84.834 -12.166 114.501 -38.499s44.5 -62.5 44.5 -108.5s-15.667 -86.667 -47 -122c-8 -9.33301 -20.667 -21 -38 -35s-39.333 -30.667 -66 -50l27 -20.5c8.66699 -6.33301 17.334 -12.166 26.001 -17.499
c86 -56 129 -125.667 129 -209zM466.999 601.999c0 28.667 -5.66602 53.666 -16.999 74.999c-12.667 26.667 -32.334 40 -59.001 40c-68.667 0 -103 -52 -103 -156c0 -28 3.33301 -44 10 -48c6.66699 -3.33301 14.834 -7.16602 24.501 -11.499s21.167 -8.83301 34.5 -13.5
c28 -9.33301 47.333 -14 58 -14c15.333 0 28.666 17.667 39.999 53c8 26.667 12 51.667 12 75zM499 217.998c0 49.333 -21.667 95.666 -65 138.999s-90 65 -140 65c-7.33301 0 -11 -18.333 -11 -55v-177c0 -29.333 6 -55.333 18 -78c14.667 -28 35.334 -42 62.001 -42
c39.333 0 71.666 14.667 96.999 44c26 28.667 39 63.334 39 104.001z" />
    <glyph glyph-name="C" unicode="C" horiz-adv-x="697" 
d="M684 688c0 -48 -17.3291 -90.665 -51.9961 -127.998c-35.333 -37.333 -76 -56 -122 -56c-17.333 0 -36 4.33301 -56 13c-25.333 10 -38 21.333 -38 34c0 10.667 6.66699 19.667 20 27c11.333 6.66699 20.166 11.667 26.499 15l11.5 6c13.333 11.333 20 27 20 47
c0 12 -2.5 23.167 -7.5 33.5s-11.833 19.166 -20.5 26.499s-18.667 13 -30 17s-23.333 6 -36 6c-54 0 -93.333 -31.333 -118 -94c-17.333 -46 -26 -100.333 -26 -163c0 -116 20 -208.333 60 -277c50 -86.667 129 -130 237 -130c10 0 25 1 45 3
c10.667 1.33301 19.667 2.33301 27 3s13.666 1 18.999 1c3.33301 0 8.16602 -2.33301 14.499 -7s9.5 -8.66699 9.5 -12c0 -17.333 -33.333 -31 -100 -41c-49.333 -8 -92.333 -12 -129 -12c-130 0 -234.667 48.667 -314 146c-74 90.667 -111 202.667 -111 336
c0 97.333 21.333 172.666 64 225.999c47.333 59.333 117.666 89 210.999 89h275c80 0 120 -36.333 120 -109z" />
    <glyph glyph-name="D" unicode="D" horiz-adv-x="786" 
d="M768 485c0 -134 -40 -247.001 -120 -339.001c-83.333 -96 -191 -144.667 -323 -146l-215 -1c-21.333 0 -36 10.667 -44 32c-4.66699 10.667 -7.66699 30.334 -9 59.001c-0.666992 8.66699 -1.16699 17.5 -1.5 26.5s-0.5 18.167 -0.5 27.5c0 38.667 2 97.667 6 177
c4 78.667 6 137.667 6 177c0 132 -16.333 221.333 -49 268c2 16.667 10.333 27 25 31c6.66699 1.33301 21 2 43 2h473c70 0 124 -36.667 162 -110c31.333 -59.333 47 -127.333 47 -204zM525 451.999c0 68 -8 126.666 -24 175.999c-24 72 -62.667 108 -116 108
c-37.333 0 -65.333 -15 -84 -45c-16.667 -25.333 -25 -57.666 -25 -96.999l-3 -429c0 -18 3.66699 -38 11 -60c8.66699 -26.667 20.667 -40 36 -40c58 0 108.667 52 152 156c35.333 86 53 163 53 231z" />
    <glyph glyph-name="E" unicode="E" horiz-adv-x="667" 
d="M649 211c0 -36 -9.66602 -78.001 -28.999 -126.001c-22.667 -56.667 -49 -85 -79 -85h-476c-30.667 0 -46 10.667 -46 32c0 8 5.33301 19.333 16 34c14.667 20 22.667 31.333 24 34c9.33301 22 14 47.333 14 76l-1 457c0 29.333 -4.33301 52.333 -13 69
c-0.666992 1.33301 -2.83398 4.5 -6.50098 9.5l-15.5 21.5c-10.667 13.333 -16 24 -16 32c0 18.667 17.333 28 52 28c28.667 0 64.167 0.5 106.5 1.5l149.5 3.5c114 4 199.333 6 256 6c14.667 0 26 -18 34 -54c2.66699 -12.667 4.66699 -25 6 -37s2 -24 2 -36
c0 -30.667 -8.33301 -46 -25 -46c-7.33301 0 -19.666 8.33301 -36.999 25c-22.667 22 -42.667 37.667 -60 47c-29.333 16.667 -63 25 -101 25c-53.333 0 -88.333 -18 -105 -54c-10.667 -22 -16 -63.667 -16 -125c0 -14 3.33301 -24.333 10 -31c10.667 30 31.667 54 63 72
c28.667 16.667 60 25 94 25c28 0 53.333 -13.333 76 -40c23.333 -26.667 35 -53.667 35 -81c0 -18.667 -3.33301 -36 -10 -52s-15.834 -29.667 -27.501 -41s-25.5 -20.333 -41.5 -27s-33.333 -10 -52 -10l-5 11c7.33301 16.667 11 29.667 11 39c0 10.667 -6 22.667 -18 36
c-11.333 13.333 -22.333 20 -33 20c-72 0 -108 -72 -108 -216c0 -60 2.33301 -98 7 -114c10.667 -40.667 38 -61 82 -61c46 0 89.333 14.333 130 43c23.333 16.667 50.333 43.334 81 80.001c24 28.667 39.333 43 46 43c5.33301 0 11 -4.33301 17 -13s9 -15.667 9 -21z" />
    <glyph glyph-name="F" unicode="F" horiz-adv-x="640" 
d="M625 664c0 -26 -9.99805 -38.998 -29.998 -38.998c-8 0 -19.333 8.33301 -34 25c-18.667 20 -37 35 -55 45c-30.667 16.667 -68 25 -112 25c-54 0 -89.333 -18.333 -106 -55c-10.667 -22 -16 -64.333 -16 -127c0 -12 2.66699 -22.667 8 -32c3.33301 0 12 9.33301 26 28
c17.333 23.333 33.666 40.666 48.999 51.999c23.333 18.667 49 28 77 28c35.333 0 65.666 -12.667 90.999 -38c24.667 -24.667 37 -55.334 37 -92.001c0 -29.333 -12 -59 -36 -89c-23.333 -30 -49.333 -45 -78 -45l-26 20c0 4.66699 2 11.834 6 21.501s6 17.5 6 23.5
c0 13.333 -5.5 24.666 -16.5 33.999s-23.167 14 -36.5 14c-71.333 0 -107 -60 -107 -180v-138c0 -26.667 7.66699 -53.334 23 -80.001l23 -40c-12.667 -16.667 -23.667 -25 -33 -25h-223c-8.66699 0 -17.667 2.33301 -27 7c-12.667 4.66699 -19 10.667 -19 18
c0 0.666992 7.66699 15.334 23 44.001s23 54 23 76v458c0 36 -4 65.667 -12 89c-2 5.33301 -8.66699 17.666 -20 36.999c-9.33301 16.667 -14 28.334 -14 35.001c0 18.667 78 28 234 28c6.66699 0 15 -0.166992 25 -0.5s21.667 -0.833008 35 -1.5s25 -1 35 -1h26
c22 0 55 2 99 6s77 6 99 6c20 0 35 -18.667 45 -56c7.33301 -27.333 11 -54.333 11 -81z" />
    <glyph glyph-name="G" unicode="G" horiz-adv-x="720" 
d="M703 53c0 -18.667 -33.668 -33 -101.001 -43c-23.333 -3.33301 -45.333 -5.83301 -66 -7.5s-40.667 -2.5 -60 -2.5c-147.333 0 -260.666 40.667 -339.999 122s-119 196 -119 344c0 80 16 151.667 48 215c40 78.667 96 118 168 118l296 -1c26.667 -0.666992 47 -1 61 -1
c14.667 0 22.667 -0.333008 24 -1c18 -4.66699 32 -23 42 -55c8.66699 -24 13 -48.333 13 -73c0 -28.667 -7.33301 -43 -22 -43c-10.667 0 -28.334 10.333 -53.001 31c-32 26 -50.333 40.333 -55 43c-31.333 17.333 -67.666 26 -108.999 26
c-117.333 0 -176 -91.667 -176 -275c0 -74 14.333 -148.667 43 -224c37.333 -97.333 85.333 -146 144 -146c24.667 0 37 38 37 114c0 107.333 -14.667 195 -44 263c-10 22.667 -15 34.667 -15 36c0 21.333 32 32 96 32c59.333 0 100.333 -7.33301 123 -22
c30.667 -18.667 46 -56 46 -112c0 -18 -1 -45.333 -3 -82c-2 -37.333 -3 -64.666 -3 -81.999c0 -20 4 -49.333 12 -88c8.66699 -36.667 13 -65.334 13 -86.001z" />
    <glyph glyph-name="H" unicode="H" 
d="M748 20c0 -13.333 -26 -20 -78 -20h3h-101h-64c-33.333 -0 -50 6.33301 -50 19l20 45c13.333 30 20 55.333 20 76v366l-21 13c-46.667 0 -91.667 -20.333 -135 -61c-43.333 -40 -65 -82.667 -65 -128v-159c0 -19.333 6.33301 -45.666 19 -78.999s19 -56.333 19 -69
c0 -5.33301 -3.83301 -10.5 -11.5 -15.5s-14.167 -7.5 -19.5 -7.5h-201c-38.667 0 -58 8.66699 -58 26c0 -9.33301 0.666992 -14 2 -14c2.66699 0 6.33398 9.33301 11.001 28c1.33301 6.66699 3 14.334 5 23.001l7 30c8.66699 42.667 15.167 77.834 19.5 105.501
s6.5 48.167 6.5 61.5v227c0 106.667 -6.66699 183 -20 229c-0.666992 4 -6.33398 14.333 -17.001 31c-9.33301 16.667 -14 26.667 -14 30c0 6 3.5 11.833 10.5 17.5s13.5 8.5 19.5 8.5h232c19.333 0 29 -10 29 -30c0 -6 -6 -19.333 -18 -40
c-11.333 -20.667 -17 -38.334 -17 -53.001v-98l15 -19c22.667 0.666992 59.667 7.66699 111 21c58 14.667 87 27.334 87 38.001c0 21.333 -7 50.666 -21 87.999c-14 36.667 -21 58.667 -21 66c0 18.667 15.333 28 46 28h189c39.333 0 59 -9.66699 59 -29
c0 5.33301 -0.666992 9.33301 -2 12c-0.666992 -0.666992 -1.16699 -1.33398 -1.5 -2.00098s-0.833008 -1.33398 -1.5 -2.00098c-5.33301 -11.333 -12.333 -39.333 -21 -84c-9.33301 -45.333 -14 -74 -14 -86v-410c0 -26 7 -61.333 21 -106c14 -45.333 21 -71 21 -77z" />
    <glyph glyph-name="I" unicode="I" horiz-adv-x="351" 
d="M331 25c0 -5.33301 -4.5 -10.832 -13.5 -16.499s-16.5 -8.5 -22.5 -8.5h-236c-6.66699 0 -14.667 3 -24 9s-14 12 -14 18l23 60c5.33301 14 8.33301 22 9 24c10.667 32 16 61.333 16 88v446c0 28.667 -7.66699 57.667 -23 87s-23 45.333 -23 48c0 16 14.667 24 44 24h220
c28 0 42 -9.66699 42 -29c0 -2.66699 -8 -17.334 -24 -44.001c-15.333 -27.333 -23 -56 -23 -86l-1 -448c0 -32.667 4.33301 -62 13 -88c2 -7.33301 9 -22.333 21 -45c10.667 -20.667 16 -33.667 16 -39z" />
    <glyph glyph-name="J" unicode="J" horiz-adv-x="391" 
d="M376 780c0 -2.66699 -5.33203 -12.667 -15.999 -30c-12.667 -22.667 -19.334 -34.667 -20.001 -36c-8 -19.333 -12 -47 -12 -83v-56c0 -22 0.333008 -48 1 -78s1.16699 -56 1.5 -78s0.5 -40.667 0.5 -56c0 -38 -1 -72 -3 -102
c-5.33301 -68 -39.666 -139.333 -102.999 -214c-64 -75.333 -129 -119.333 -195 -132l-12 4l-4 9l18 36c5.33301 10.667 10.666 19.667 15.999 27c54 78 81 168 81 270v364c0 52.667 -11 95.667 -33 129c-8 12 -12 21 -12 27c0 15.333 12.667 23 38 23h219
c23.333 0 35 -8 35 -24z" />
    <glyph glyph-name="K" unicode="K" horiz-adv-x="755" 
d="M740 5l-15.001 -11.0049c-66.667 0 -155.334 57 -266.001 171c-22.667 24 -49 58 -79 102l-69 108c-6 9.33301 -11 14 -15 14c-15.333 0 -23 -33.333 -23 -100c0 -82 5 -145 15 -189c0.666992 -5.33301 6.33398 -18.666 17.001 -39.999c10 -19.333 15 -31.666 15 -36.999
c0 -4.66699 -2.83301 -9.66699 -8.5 -15s-10.834 -8 -15.501 -8h-194c-26 0 -40 14 -42 42c-0.666992 8.66699 -1.16699 19.834 -1.5 33.501s-0.5 29.834 -0.5 48.501c0 31.333 1 78 3 140c2 62.667 3 109.667 3 141c0 64.667 -0.166992 115.5 -0.5 152.5
s-0.833008 61.167 -1.5 72.5s-3.16699 24.333 -7.5 39s-10.166 30.667 -17.499 48c-14.667 35.333 -22 54 -22 56c0 17.333 14.667 26 44 26h216c28.667 0 43 -8.66699 43 -26c-20.667 -38.667 -31.334 -58.667 -32.001 -60c-8.66699 -20 -13 -42.333 -13 -67v-151
c0 -18 4 -27 12 -27c26.667 0 70.334 28.667 131.001 86c60.667 58 91 100.667 91 128c0 14.667 -7.33301 32.334 -22 53.001c-14 20.667 -21 34 -21 40c0 7.33301 4.16699 13.333 12.5 18s16.5 7 24.5 7h170c6.66699 0 13 -2.5 19 -7.5s9 -10.833 9 -17.5
c0 -28 -17.333 -60.667 -52 -98c-7.33301 -8 -19.166 -19.5 -35.499 -34.5l-62.5 -56.5c-34.667 -30.667 -52 -51 -52 -61c0 -52 31.333 -140.667 94 -266c28 -54.667 54.167 -103.167 78.5 -145.5s47.833 -78.5 70.5 -108.5z" />
    <glyph glyph-name="L" unicode="L" horiz-adv-x="650" 
d="M649 119c0 -17.333 -2.99902 -33.167 -8.99902 -47.5s-14.333 -26.833 -25 -37.5s-23.334 -19 -38.001 -25s-30.334 -9 -47.001 -9h-474c-26 0 -39 7 -39 21c0 9.33301 6.33301 31 19 65c13.333 36.667 20 65.334 20 86.001c0 47.333 -1 117.666 -3 210.999
c-2 94 -3 164.667 -3 212c0 30.667 -5 62 -15 94l-12 30.5l-23 58.5c0 17.333 17 26 51 26h218c26.667 0 40 -8.33301 40 -25l-25 -40c-16 -27.333 -24 -51.666 -24 -72.999l-1 -379c0 -149.333 34.333 -224 103 -224c22.667 0 42.5 7.83301 59.5 23.5
s25.5 34.834 25.5 57.501c0 19.333 -13.667 41.666 -41 66.999l-41 38c0 15.333 12.667 28.666 38 39.999c20 8.66699 40 13 60 13c46.667 0 89.334 -18.667 128.001 -56c38.667 -36.667 58 -79 58 -127z" />
    <glyph glyph-name="M" unicode="M" horiz-adv-x="866" 
d="M843 95c0 -36.667 -7.83203 -61.6689 -23.499 -75.002s-42.5 -20 -80.5 -20h-134l-38 27c0 8.66699 8 22.667 24 42c16.667 19.333 25 38.666 25 57.999c0 48 -6 123 -18 225c-12.667 116 -26 184 -40 204c-14 -9.33301 -32.667 -41 -56 -95l-42 -92
c-10.667 -22.667 -18 -37.667 -22 -45c-24.667 -46.667 -48 -70 -70 -70c-25.333 0 -56 35 -92 105l-29.5 56l-20.5 40c-28.667 54.667 -50.667 89.334 -66 104.001c-10.667 -17.333 -18.334 -92.333 -23.001 -225c-4 -91.333 -6 -172.666 -6 -243.999
c0 -8 6.33301 -19.667 19 -35c13.333 -15.333 20 -27 20 -35c0 -14.667 -22.667 -22 -68 -22c-29.333 0 -49.666 4.83301 -60.999 14.5s-17 28.834 -17 57.501c0 34 2.66699 75.667 8 125s13.333 107.333 24 174c22 132.667 33 232.334 33 299.001
c0 18.667 -7.66699 40.667 -23 66c-14.667 24.667 -22 40.667 -22 48c0 16 11 24 33 24h135c34.667 0 67.667 -22 99 -66c5.33301 -9.33301 9.83301 -17.5 13.5 -24.5l9.5 -18.5l42 -81c22.667 -44 43 -66 61 -66c12.667 0 29.667 22.667 51 68l37 81
c12.667 27.333 19.667 42 21 44c27.333 45.333 54.666 68 81.999 68h140c25.333 0 38 -8 38 -24c0 -4 -6.66699 -16.667 -20 -38c-12.667 -20.667 -19 -40.334 -19 -59.001c0 -64 12.667 -163.333 38 -298s38 -233.667 38 -297z" />
    <glyph glyph-name="N" unicode="N" horiz-adv-x="745" 
d="M736 509v-178.994v-24c0 -8.66699 0.333008 -19.334 1 -32.001c0.666992 -12 1.16699 -22.5 1.5 -31.5s0.5 -16.833 0.5 -23.5c0 -147.333 -28 -221 -84 -221c-35.333 0 -53 9 -53 27c0 8 6.33301 21.333 19 40c13.333 19.333 20 33.666 20 42.999
c0 33.333 -71.667 121.666 -215 264.999c-136.667 136.667 -227 216 -271 238c-7.33301 -10.667 -11 -65.334 -11 -164.001c0 -154 7.33301 -260.333 22 -319c2.66699 -10 12.667 -30 30 -60c17.333 -29.333 26 -45.333 26 -48c0 -16 -22.333 -24 -67 -24
c-66 0 -99 52 -99 156c0 -4 0.333008 1.16699 1 15.5s1.66699 38.5 3 72.5c3.33301 98 5.33301 170.333 6 217c2.66699 46 4.5 85.333 5.5 118s1.5 58.667 1.5 78c0 31.333 -10.667 57 -32 77c-20.667 20 -31 35 -31 45c0 18.667 15 28 45 28h155
c33.333 0 80.333 -25.667 141 -77c14 -12.667 34.167 -32 60.5 -58l98.5 -99c32 -32.667 59.167 -59 81.5 -79s40.166 -34.333 53.499 -43c5.33301 4 8 13 8 27c0 108.667 -11.667 187 -35 235c-1.33301 2 -4.16602 5.83301 -8.49902 11.5l-17.5 22.5
c-12.667 16.667 -19 28 -19 34c0 18.667 25.333 28 76 28c60.667 0 91 -59.333 91 -178c0 -6.66699 -0.166992 -14.834 -0.5 -24.501s-0.833008 -21.167 -1.5 -34.5s-1.16699 -24.833 -1.5 -34.5s-0.5 -17.834 -0.5 -24.501z" />
    <glyph glyph-name="O" unicode="O" horiz-adv-x="800" 
d="M782 480c0 -124.667 -31.333 -232.668 -94 -324.001c-71.333 -104 -166.333 -156 -285 -156c-116.667 0 -211.334 48 -284.001 144c-66.667 86.667 -100 190.334 -100 311.001c0 133.333 31.333 226.333 94 279c56.667 46.667 153.334 70 290.001 70
c132.667 0 226.667 -20 282 -60c64.667 -46.667 97 -134.667 97 -264zM543 443.999c0 79.333 -6.00098 140.667 -18.001 184c-21.333 74 -61.666 111 -120.999 111c-100 0 -150 -96 -150 -288c0 -44 1.83301 -84.667 5.5 -122s9.16699 -71.333 16.5 -102
c24 -102 65.667 -153 125 -153c52 0 90.667 50.667 116 152c8.66699 34.667 15.167 70 19.5 106s6.5 73.333 6.5 112z" />
    <glyph glyph-name="P" unicode="P" horiz-adv-x="747" 
d="M704 633c0 -71.333 -31.665 -130.666 -94.998 -177.999c-57.333 -44 -123 -66 -197 -66c-20 0 -42.333 3 -67 9c-33.333 8 -50 18 -50 30c0 11.333 8 17.666 24 18.999l-3 -1h40c32.667 0 58.667 13 78 39c17.333 23.333 26 52.333 26 87c0 37.333 -5.66699 70 -17 98
c-15.333 37.333 -39.333 56 -72 56c-46 0 -77.333 -22 -94 -66c-10.667 -27.333 -16 -69 -16 -125l1 -227c0 -30 0.166992 -54 0.5 -72s0.833008 -30.667 1.5 -38c1.33301 -24.667 3.66602 -46.167 6.99902 -64.5s7.33301 -33.166 12 -44.499
c0.666992 -2.66699 7.33398 -14 20.001 -34c10.667 -14.667 16 -25.334 16 -32.001l-29 -23h-180c-24.667 -0 -40.334 11.333 -47.001 34c-4 12.667 -6 34 -6 64v514c0 38 -4.33301 66.667 -13 86c-0.666992 1.33301 -2.83398 5.33301 -6.50098 12l-15.5 27
c-10.667 17.333 -16 29.333 -16 36c0 14 13 21.667 39 23l224 6c38 0.666992 75.333 1.16699 112 1.5s74 0.5 112 0.5c140.667 0 211 -57 211 -171z" />
    <glyph glyph-name="Q" unicode="Q" horiz-adv-x="819" 
d="M801 486c0 -97.333 -14.6689 -180 -44.002 -248c-32 -72 -85 -137 -159 -195c1.33301 -20 12.333 -40.333 33 -61c22 -22 42.667 -33 62 -33c8 0 17.667 5 29 15c12.667 10.667 22.334 16.334 29.001 17.001c12.667 -12.667 19 -32 19 -58c0 -28 -16.333 -50.333 -49 -67
c-27.333 -15.333 -56 -23 -86 -23c-78 0 -130.667 39.667 -158 119c-11.333 32 -18.333 48 -21 48h-28c-126.667 0 -224.667 46.667 -294 140c-64 86.667 -96 195.667 -96 327c0 133.333 31 224.666 93 273.999c54 42 150 63 288 63c132.667 0 226.334 -19.333 281.001 -58
c67.333 -47.333 101 -134 101 -260zM558.998 435c0 204.667 -45 307.001 -135 307.001c-65.333 0 -109.333 -41 -132 -123c-12.667 -44.667 -19 -112.334 -19 -203.001c0 -106.667 17.333 -196.667 52 -270c4 3.33301 7.5 6.66602 10.5 9.99902s5.5 6.33301 7.5 9l17 18.5
c4.66699 5 8.66699 8.16699 12 9.5c9.33301 5.33301 23 8 41 8c19.333 0 37 -5 53 -15l29.5 -17.5c7.66699 -4.33301 13.167 -7.16602 16.5 -8.49902c14.667 28.667 26.667 73.334 36 134.001c3.33301 25.333 6 49.666 8 72.999s3 46 3 68zM442.998 97.001
c0 6 -6.33301 13.332 -19 21.999c-12.667 9.33301 -21.667 14 -27 14c-7.33301 0 -14 -2.66699 -20 -8s-9 -11.666 -9 -18.999c0 -9.33301 5.33301 -17 16 -23c8.66699 -4.66699 18 -7 28 -7c20.667 0 31 7 31 21z" />
    <glyph glyph-name="R" unicode="R" horiz-adv-x="844" 
d="M811 26l-19.999 -14c-56 0 -124.667 28.667 -206 86c-60.667 42.667 -114.334 91.334 -161.001 146.001c-61.333 71.333 -92 133.666 -92 186.999c0 35.333 13 53 39 53c3.33301 0 7.66602 -0.666992 12.999 -2s10.833 -3 16.5 -5s11.167 -3.66699 16.5 -5
s9.66602 -2 12.999 -2c24.667 0 44.334 12.333 59.001 37c12.667 20.667 19 44 19 70c0 38 -8.66699 71.333 -26 100c-20 32.667 -48.333 49 -85 49c-46 0 -77.333 -23 -94 -69c-10 -28 -15 -70.667 -15 -128c0 -63.333 1.5 -126.166 4.5 -188.499
s7.16699 -124.833 12.5 -187.5c3.33301 -26.667 12.666 -53.667 27.999 -81c16 -28 24 -44.333 24 -49c0 -15.333 -15.667 -23 -47 -23h-109c-42.667 0 -68.667 2.33301 -78 7c-20 8.66699 -30 30 -30 64c0 33.333 -1 94 -3 182l-6.5 223.5
c-1.66699 57.667 -3.16699 98.834 -4.5 123.501c-0.666992 19.333 -8.66699 49.666 -24 90.999c-7.33301 19.333 -12.666 34.333 -15.999 45s-5.33301 16.667 -6 18l33 27c26.667 0 59.834 1 99.501 3s86.5 4.66699 140.5 8c106.667 8 187 12 241 12
c140 0 210 -51.667 210 -155c0 -40.667 -15.667 -78.667 -47 -114c-14.667 -16.667 -43.667 -41.334 -87 -74.001c-31.333 -24 -47 -42.667 -47 -56c0 -36 22 -87 66 -153c10 -14.667 24 -33.5 42 -56.5l65 -82.5c39.333 -49.333 60 -78.333 62 -87z" />
    <glyph glyph-name="S" unicode="S" horiz-adv-x="608" 
d="M608 225c0 -150 -104.668 -225.002 -314.001 -225.002c-76 0 -138 9.33301 -186 28c-72 26.667 -108 70.667 -108 132c0 48 16.333 85 49 111c30 24 69.667 36 119 36c36.667 0 63.334 -10.333 80.001 -31c0 -7.33301 -7.33301 -15.333 -22 -24
c-20.667 -12 -34 -21.333 -40 -28c-14.667 -14.667 -22 -33.667 -22 -57c0 -28.667 12.333 -51.334 37 -68.001c22 -16 47.667 -24 77 -24c31.333 0 56.333 12.333 75 37c19.333 25.333 29 53.333 29 84c0 41.333 -20.667 80.666 -62 117.999
c-5.33301 4.66699 -17.333 13.834 -36 27.501l-77 54.5l-78.5 53c-17.667 12 -27.167 18.667 -28.5 20c-66 46.667 -99 96.667 -99 150c0 68.667 22.333 117.334 67 146.001c35.333 22.667 89.666 34 162.999 34c18.667 0 47 -1 85 -3s66.333 -3 85 -3c12 0 30 2 54 6
c24.667 4 43 6 55 6c17.333 0 30.666 -20.667 39.999 -62c6.66699 -27.333 10 -54.666 10 -81.999c0 -4 -2.16699 -9.5 -6.5 -16.5s-8.16602 -10.5 -11.499 -10.5c-11.333 0 -25.666 8.66699 -42.999 26c-24 24.667 -42.333 41 -55 49c-27.333 17.333 -58.333 26 -93 26
c-24.667 0 -47 -4.66699 -67 -14c-24 -11.333 -36 -28.666 -36 -51.999c0 -28.667 31 -65.334 93 -110.001l70.5 -51l45.5 -34c28.667 -23.333 48 -39.666 58 -48.999c62 -63.333 93 -130 93 -200z" />
    <glyph glyph-name="T" unicode="T" horiz-adv-x="719" 
d="M705 630c0 -42.667 -7.66797 -63.999 -23.001 -63.999c-7.33301 0 -18 11.667 -32 35c-18.667 31.333 -35 53.333 -49 66c-26.667 23.333 -57.334 35 -92.001 35c-26.667 0 -40 -19.667 -40 -59v-470c0 -32.667 14.667 -76.667 44 -132l5 -10l3 -4
c0.666992 -0.666992 1 -1.33398 1 -2.00098c0 -6 -4.66699 -11.667 -14 -17s-17.333 -8 -24 -8h-233c-15.333 0 -26.666 5.66699 -33.999 17c4 10.667 8 20.667 12 30s7.66699 18.333 11 27c16 36.667 24 70.334 24 101.001l-1 468c0 7.33301 -6.66699 18.666 -20 33.999
s-24 23 -32 23c-33.333 0 -61.666 -11.667 -84.999 -35c-8.66699 -8.66699 -24 -30 -46 -64c-15.333 -23.333 -29.333 -35 -42 -35c-16 0 -24 21.333 -24 64c0 33.333 6.66699 67 20 101c16.667 42.667 39 64 67 64h530c23.333 0 42.333 -22.333 57 -67
c11.333 -36 17 -68.667 17 -98z" />
    <glyph glyph-name="U" unicode="U" horiz-adv-x="841" 
d="M807 40l-15.001 -19.001c-9.33301 -0.666992 -32 -2 -68 -4s-85.333 -5 -148 -9c-44 -2.66699 -84 -4.66699 -120 -6s-68.333 -2 -97 -2c-94.667 0 -171.667 27.333 -231 82c-62.667 56 -94 130.667 -94 224c0 44.667 11 109.667 33 195c22.667 86.667 34 147.667 34 183
c0 26.667 -9.66699 51.667 -29 75l19 35c21.333 2.66699 47.5 4.66699 78.5 6s67.5 2 109.5 2h30l29 -21c0 -41.333 -9.66699 -105.333 -29 -192s-29 -150.667 -29 -192c0 -220 63.333 -330 190 -330c50.667 0 76 45.333 76 136c0 5.33301 -0.166992 11.833 -0.5 19.5
s-0.833008 16.834 -1.5 27.501s-1 19.667 -1 27v20v87c0 26 -0.333008 49.333 -1 70c-4 159.333 -29.667 261 -77 305c0 32 29 48 87 48c6.66699 0 16.5 -0.333008 29.5 -1s22.5 -1 28.5 -1l97 -1c28.667 -16.667 43 -83 43 -199c0 -9.33301 -0.166992 -21 -0.5 -35
s-0.833008 -30.667 -1.5 -50s-1.16699 -36 -1.5 -50s-0.5 -25.667 -0.5 -35c0 -108 1 -176 3 -204c6.66699 -96 25.334 -157 56.001 -183z" />
    <glyph glyph-name="V" unicode="V" horiz-adv-x="735" 
d="M717 769c0 -57.333 -33.332 -183.666 -99.999 -378.999c-70 -206 -119.333 -328 -148 -366c-12 -16 -40 -24 -84 -24h-62c-19.333 1.33301 -35.333 12 -48 32l-38 78.5c-10.667 22.333 -19.334 41.833 -26.001 58.5l-40.5 98.5l-46.5 118.5
c-70.667 186 -106 303.667 -106 353c0 44.667 27 67 81 67h26c5.33301 -0.666992 10 -1 14 -1h12h87c46 0 69 -10 69 -30c0 -8 -7.66699 -20.667 -23 -38c-14.667 -16.667 -22 -30 -22 -40c0 -52.667 22.333 -142 67 -268c34.667 -100 70.667 -189.333 108 -268l6 -3l10 6
c84 178.667 126 336.667 126 474c0 25.333 -2.33301 43.666 -7 54.999c-4 12.667 -14 28.667 -30 48c-13.333 16 -22.333 29 -27 39v2c-0.666992 8 5.33301 14.333 18 19c11.333 3.33301 21 5 29 5h65c60 0 90 -12.333 90 -37z" />
    <glyph glyph-name="W" unicode="W" horiz-adv-x="970" 
d="M949 711c0 -75.333 -22.3369 -191.331 -67.0039 -347.998c-23.333 -82.667 -44.666 -151.5 -63.999 -206.5s-37.333 -96.833 -54 -125.5c-10.667 -20.667 -37 -31 -79 -31c-49.333 0 -84 3.33301 -104 10c-12.667 16 -27.334 51.667 -44.001 107
c-6.66699 19.333 -13 39 -19 59l-18 60l-12 6l-22.5 -57c-6.33301 -16.667 -11.166 -30.667 -14.499 -42c-14.667 -44.667 -28.334 -76.334 -41.001 -95.001c-22 -32 -50.667 -48 -86 -48h-69c-24.667 0.666992 -57 57.667 -97 171c-16.667 47.333 -32.667 98.833 -48 154.5
s-30.666 116.167 -45.999 181.5c-28.667 120.667 -43 200.334 -43 239.001c0 42 35 63 105 63h-3c30 -2 53.333 -3 70 -3l83 -3l24 -30c-1.33301 -9.33301 -9.66602 -25.333 -24.999 -48s-23 -39.334 -23 -50.001c0 -68.667 14.333 -152.334 43 -251.001l34 -116l39 -133
l13 -8c11.333 22 25.333 58.667 42 110c19.333 56.667 29 92.667 29 108c0 40.667 -10.333 99 -31 175s-31 134.333 -31 175c0 50 27 75 81 75c-2.66699 0 1.83301 -0.333008 13.5 -1s30.167 -1.66699 55.5 -3c51.333 -2 85 -5 101 -9c12 -14 18.333 -28.333 19 -43
c-25.333 -19.333 -38 -47.333 -38 -84c0 -67.333 12.333 -149 37 -245l24 -86.5l45 -155.5l11 -10l5 2c24 60 44 126.667 60 200c17.333 80.667 26 149.667 26 207c0 38 -6.66699 73 -20 105c-3.33301 8.66699 -8.16602 18 -14.499 28s-13.833 20.667 -22.5 32
c-13.333 18.667 -20 30 -20 34l0.5 3.5l1.5 10.5c26.667 8 69.334 12 128.001 12c28.667 0 47.667 -9.66699 57 -29c6 -12 9 -34.333 9 -67z" />
    <glyph glyph-name="X" unicode="X" horiz-adv-x="812" 
d="M792 49l-14.0029 -35.002c-11.333 -9.33301 -36.666 -14 -75.999 -14h-191l-25 17l-4 15c0 6.66699 4.66699 16.667 14 30c10 12.667 15 22 15 28c0 40.667 -61 120.667 -183 240l-14 -2c-14.667 -12.667 -29.5 -27.667 -44.5 -45s-30.5 -37 -46.5 -59
c-38 -52 -57 -91 -57 -117c0 -10 6.33301 -23.333 19 -40s19 -29 19 -37c0 -20.667 -25.333 -31 -76 -31h-24c-13.333 0 -32.666 0.333008 -57.999 1l-21 22c0 44 18 93 54 147c6.66699 10 18.334 25.5 35.001 46.5l66 79.5l42 49l46 54c-3.33301 8.66699 -14 24 -32 46
l-16.5 19l-21.5 24c-118.667 128.667 -178 216.334 -178 263.001c0 20 8.66699 37 26 51c56 2 140.333 3 253 3l17 -23c0 -9.33301 -3.33301 -21 -10 -35c-6 -15.333 -9 -26.666 -9 -33.999c0 -14.667 18.333 -43.334 55 -86.001c36.667 -42 62 -63.667 76 -65
c21.333 6.66699 51.666 30.667 90.999 72s59 72.333 59 93c0 4 -0.833008 8.83301 -2.5 14.5s-3.5 11.5 -5.5 17.5s-3.83301 11.833 -5.5 17.5s-2.5 10.5 -2.5 14.5l17 14c19.333 1.33301 36.333 2.33301 51 3s27.334 1 38.001 1c28.667 0 52 -2.33301 70 -7
c10.667 -12 16.667 -25 18 -39c-9.33301 -14.667 -26.166 -34 -50.499 -58s-56.5 -53.333 -96.5 -88c-74 -63.333 -115.667 -106.666 -125 -129.999l175 -214c77.333 -94 121.666 -168.333 132.999 -223z" />
    <glyph glyph-name="Y" unicode="Y" horiz-adv-x="737" 
d="M717 774c0 -4.66699 -20.6699 -42.3311 -62.0029 -112.998c-25.333 -43.333 -47.666 -83.333 -66.999 -120s-35.666 -70.667 -48.999 -102c-42 -99.333 -63 -186 -63 -260c0 -22.667 8 -55.334 24 -98.001c4.66699 -13.333 8.66699 -24.166 12 -32.499s6 -14.5 8 -18.5
c2 -3.33301 3.33301 -5 4 -5s0.666992 0.333008 0 1l-3 -15l-16 -11h-265l-21 19c0 -8 0.666992 -12 2 -12c3.33301 0 10 19.667 20 59c15.333 60 23 100 23 120c0 76.667 -21 160 -63 250c-7.33301 15.333 -15.666 31.666 -24.999 48.999l-31 55l-22.5 37.5l-39.5 63.5
c-42 66.667 -63 110.667 -63 132s15.333 32 46 32h211c4.66699 0 11.167 0.333008 19.5 1s14.833 1 19.5 1c25.333 0 38 -10.667 38 -32c0 -8.66699 -4.66699 -23 -14 -43c-8.66699 -17.333 -13 -31.333 -13 -42c0 -8.66699 34.667 -98.334 104 -269.001l16 -5l32.5 67.5
l33.5 75.5c30.667 71.333 46 118.333 46 141c0 26.667 -8 49 -24 67l8 27l13 8l68 1.5c15.333 0.333008 23.666 0.5 24.999 0.5c9.33301 0 18.333 -0.5 27 -1.5s17.334 -2.16699 26.001 -3.5z" />
    <glyph glyph-name="Z" unicode="Z" horiz-adv-x="698" 
d="M683 127c0 -22.667 -3.33301 -44.0039 -10 -64.0039c-8 -26 -19.667 -42.667 -35 -50c-24 -10.667 -107.667 -16 -251 -16h-46c-17.333 0 -37.333 0.333008 -60 1c-25.333 0.666992 -46.833 1.16699 -64.5 1.5s-31.5 0.5 -41.5 0.5h-142c-11.333 8 -17 20.667 -17 38
c0 60.667 33.333 143.334 100 248.001c24.667 38.667 55 82 91 130l49 63.5l48 63.5c69.333 91.333 105.333 148.666 108 171.999l-5 9l-12 5h2c-38 0 -69.167 -0.5 -93.5 -1.5s-42.166 -2.16699 -53.499 -3.5c-58 -9.33301 -100.333 -30.666 -127 -63.999l-16 -22l-16 -22
c-15.333 -17.333 -30.333 -26 -45 -26c-12.667 12.667 -19 30.334 -19 53.001c0 33.333 4.33301 63 13 89c11.333 35.333 27.666 59.333 48.999 72c25.333 -2.66699 54.666 -4.5 87.999 -5.5s70.333 -1.5 111 -1.5c19.333 0 43 0.166992 71 0.5s61 0.833008 99 1.5
c74.667 2 131.334 3 170.001 3c2.66699 0 5.83398 -1 9.50098 -3s7.16699 -4.33301 10.5 -7s6.16602 -5.66699 8.49902 -9s3.5 -6 3.5 -8c0 -64.667 -29.667 -137.667 -89 -219l-103 -134l-74 -95c-71.333 -93.333 -116.333 -172.666 -135 -237.999l10 -16
c31.333 -0.666992 55 -1 71 -1h27c40.667 0 69 3.33301 85 10c28.667 10.667 43 32.334 43 65.001c0 19.333 -7.33301 36.333 -22 51c-6 6 -19.333 15.667 -40 29c-14.667 8.66699 -22 16 -22 22c0 16 13.333 28.333 40 37c18.667 6 38.667 9 60 9c48 0 88.667 -16 122 -48
s50 -72 50 -120z" />
    <glyph glyph-name="bracketleft" unicode="[" horiz-adv-x="378" 
d="M165 684c7.33301 2.66699 41.6602 3.99902 102.993 3.99902c30.667 0 46 -11.667 46 -35c0 -21.333 -13 -32 -39 -32c-5.33301 0 -13.666 1.16699 -24.999 3.5s-19.666 3.5 -24.999 3.5c-19.333 0 -29 -11.333 -29 -34c0 -2.66699 0.166992 -6.16699 0.5 -10.5
s0.833008 -10.166 1.5 -17.499l11 -118c2.66699 -28.667 4.66699 -55.167 6 -79.5s2 -46.166 2 -65.499c0 -21.333 -1.5 -51.833 -4.5 -91.5s-7.16699 -88.834 -12.5 -147.501c-3.33301 -34 -5.83301 -62.333 -7.5 -85s-2.5 -39.667 -2.5 -51c0 -38 14.667 -57 44 -57
c4.66699 0 11.834 0.666992 21.501 2s16.834 2 21.501 2c30 0 45 -11.667 45 -35c0 -22 -14 -33 -42 -33c-5.33301 0 -13.166 0.5 -23.499 1.5s-18.166 1.5 -23.499 1.5c-10 0 -25.333 -1 -46 -3c-10 -1.33301 -18.667 -2.33301 -26 -3s-13.666 -1 -18.999 -1
c-57.333 0 -86 27.667 -86 83c0 43.333 4 108 12 194c8 86.667 12 151.667 12 195c0 10.667 -0.5 27.167 -1.5 49.5s-2.83301 51.5 -5.5 87.5l-14 212v6c-0.666992 36.667 20 55 62 55h8c4 0 8.66699 -0.333008 14 -1h22z" />
    <glyph glyph-name="backslash" unicode="\" horiz-adv-x="286" 
d="M13 786c0 -11.333 33.001 -141.002 99.001 -389.002c67.333 -248.667 103.666 -376.667 108.999 -384c6 -8 17.333 -12 34 -12l4.5 0.5c3 0.333008 7.16699 0.833008 12.5 1.5l2 8c0 10.667 -7.66699 46.667 -23 108c-20.667 80.667 -43.5 165.334 -68.5 254.001
l-82.5 280c-12 38.667 -22 69.834 -30 93.501s-14.333 40.167 -19 49.5c-14 4 -23.333 6 -28 6c-6.66699 0 -10 -5.33301 -10 -16z" />
    <glyph glyph-name="bracketright" unicode="]" horiz-adv-x="378" 
d="M211 -192l1.00391 0.999023c0 -0.666992 -1 -1 -3 -1l-9 -1c-28 -1.33301 -48.333 -2.33301 -61 -3c-13.333 -0.666992 -22.666 -1 -27.999 -1c-4.66699 0 -5.33398 0 -2.00098 0c-30 0 -45 11.667 -45 35c0 22 13 33 39 33c5.33301 0 13.666 -1.16699 24.999 -3.5
s19.666 -3.5 24.999 -3.5c19.333 0 29 11.333 29 34c0 10.667 -4 58.667 -12 144c-2.66699 28.667 -4.66699 55 -6 79s-2 46 -2 66c0 24.667 1.33301 56.834 4 96.501s6.66699 86.834 12 141.501c3.33301 34.667 5.83301 63.5 7.5 86.5s2.5 40.5 2.5 52.5
c0 38 -14.333 57 -43 57c-4.66699 0 -12 -0.666992 -22 -2s-17.333 -2 -22 -2c-29.333 0 -44 11.333 -44 34c0 22 13.667 33 41 33c3.33301 0 8.66602 -0.333008 15.999 -1s12.666 -1 15.999 -1c12 0 29.667 1 53 3c11.333 1.33301 21.5 2.33301 30.5 3s16.5 1 22.5 1
c57.333 0 86 -27.667 86 -83c0 -44 -4 -109.333 -12 -196c-3.33301 -44 -6 -82.167 -8 -114.5s-3 -59.166 -3 -80.499c0 -18.667 0.833008 -41.834 2.5 -69.501s4.16699 -60.5 7.5 -98.5s5.83301 -70.833 7.5 -98.5s2.5 -50.834 2.5 -69.501c0 -35.333 -10 -57 -30 -65
c-9.33301 -4 -35.333 -6 -78 -6z" />
    <glyph glyph-name="asciicircum" unicode="^" horiz-adv-x="327" 
d="M224 563h80l-99 145h-104l-99 -145h80l71 68z" />
    <glyph glyph-name="grave" unicode="`" horiz-adv-x="500" 
d="M448 720c-16.667 6.66699 -42.334 24 -77.001 52c-38.667 30.667 -58 51 -58 61c0 4 2.33301 8.33301 7 13h-174c24.667 -10.667 54.334 -26.667 89.001 -48l126 -78h87z" />
    <glyph glyph-name="a" unicode="a" horiz-adv-x="801" 
d="M782 80c0 -40.667 -17.666 -65.9961 -52.999 -75.9961c-8.66699 -2.66699 -44.334 -4 -107.001 -4c-17.333 0 -34 0.5 -50 1.5s-31.667 2.83301 -47 5.5l-10 19v2c-0.666992 6.66699 6.33301 19.334 21 38.001c15.333 19.333 23 32.666 23 39.999
c0 65.333 -20.333 159.333 -61 282l-10 3c-37.333 -58 -72.333 -87.333 -105 -88l-23 15c0.666992 7.33301 1.33398 13.666 2.00098 18.999s1.33398 10 2.00098 14c0.666992 -0.666992 0.666992 -1.33398 0 -2.00098c0 18 -7.16699 31.667 -21.5 41s-30.833 14 -49.5 14
c-58 0 -102.667 -37.667 -134 -113c-23.333 -58 -35 -121.333 -35 -190c0 -10 5.66699 -24.333 17 -43c12 -18 18 -28.333 18 -31c0 -18 -26 -27 -78 -27c-23.333 0 -39.333 4.5 -48 13.5s-13 25.167 -13 48.5c0 50.667 19 131 57 241c6 17.333 16.667 46 32 86l60 156
c34.667 88 52 140.333 52 157c0 6 -4.66699 17.333 -14 34s-14 27.667 -14 33c0 15.333 13.667 24.166 41 26.499s71.666 3.5 132.999 3.5h37c15.333 0 32.666 -0.333008 51.999 -1s36.333 -1 51 -1h37h42c12 0 21.667 0.333008 29 1l21 -16c0 -8.66699 -4 -21 -12 -37
c-7.33301 -16 -11 -28 -11 -36c0 -24.667 14.667 -80 44 -166c48.667 -140.667 74.667 -217.334 78 -230.001c31.333 -102 47 -179.667 47 -233zM437.001 560.004c0 17.333 -9.66602 42.668 -28.999 76.001c-21.333 35.333 -39.333 53 -54 53
c-20.667 0 -46.334 -26 -77.001 -78c-29.333 -49.333 -44 -85.333 -44 -108c0 -6.66699 2.66699 -9.33398 8 -8.00098c40 42.667 79 64 117 64c7.33301 0 19 -2.66699 35 -8c17.333 -5.33301 29.333 -8 36 -8c5.33301 0 8 5.66699 8 17z" />
    <glyph glyph-name="b" unicode="b" horiz-adv-x="773" 
d="M734 196c0 -62.667 -22.668 -111.668 -68.001 -147.001c-40.667 -32.667 -93.334 -49 -158.001 -49h-406l-22 20c-2.66699 28.667 -4.5 61.667 -5.5 99s-1.5 79.333 -1.5 126s1 117 3 211s3 164.333 3 211c0 17.333 -13.333 53.666 -40 108.999l2 10l17 11
c44.667 -2 92 -3 142 -3l344 3c46.667 0.666992 84.834 -12.166 114.501 -38.499s44.5 -62.5 44.5 -108.5s-15.667 -86.667 -47 -122c-8 -9.33301 -20.667 -21 -38 -35s-39.333 -30.667 -66 -50l27 -20.5c8.66699 -6.33301 17.334 -12.166 26.001 -17.499
c86 -56 129 -125.667 129 -209zM466.999 601.999c0 28.667 -5.66602 53.666 -16.999 74.999c-12.667 26.667 -32.334 40 -59.001 40c-68.667 0 -103 -52 -103 -156c0 -28 3.33301 -44 10 -48c6.66699 -3.33301 14.834 -7.16602 24.501 -11.499s21.167 -8.83301 34.5 -13.5
c28 -9.33301 47.333 -14 58 -14c15.333 0 28.666 17.667 39.999 53c8 26.667 12 51.667 12 75zM499 217.998c0 49.333 -21.667 95.666 -65 138.999s-90 65 -140 65c-7.33301 0 -11 -18.333 -11 -55v-177c0 -29.333 6 -55.333 18 -78c14.667 -28 35.334 -42 62.001 -42
c39.333 0 71.666 14.667 96.999 44c26 28.667 39 63.334 39 104.001z" />
    <glyph glyph-name="c" unicode="c" horiz-adv-x="697" 
d="M684 688c0 -48 -17.3291 -90.665 -51.9961 -127.998c-35.333 -37.333 -76 -56 -122 -56c-17.333 0 -36 4.33301 -56 13c-25.333 10 -38 21.333 -38 34c0 10.667 6.66699 19.667 20 27c11.333 6.66699 20.166 11.667 26.499 15l11.5 6c13.333 11.333 20 27 20 47
c0 12 -2.5 23.167 -7.5 33.5s-11.833 19.166 -20.5 26.499s-18.667 13 -30 17s-23.333 6 -36 6c-54 0 -93.333 -31.333 -118 -94c-17.333 -46 -26 -100.333 -26 -163c0 -116 20 -208.333 60 -277c50 -86.667 129 -130 237 -130c10 0 25 1 45 3
c10.667 1.33301 19.667 2.33301 27 3s13.666 1 18.999 1c3.33301 0 8.16602 -2.33301 14.499 -7s9.5 -8.66699 9.5 -12c0 -17.333 -33.333 -31 -100 -41c-49.333 -8 -92.333 -12 -129 -12c-130 0 -234.667 48.667 -314 146c-74 90.667 -111 202.667 -111 336
c0 97.333 21.333 172.666 64 225.999c47.333 59.333 117.666 89 210.999 89h275c80 0 120 -36.333 120 -109z" />
    <glyph glyph-name="d" unicode="d" horiz-adv-x="786" 
d="M768 485c0 -134 -40 -247.001 -120 -339.001c-83.333 -96 -191 -144.667 -323 -146l-215 -1c-21.333 0 -36 10.667 -44 32c-4.66699 10.667 -7.66699 30.334 -9 59.001c-0.666992 8.66699 -1.16699 17.5 -1.5 26.5s-0.5 18.167 -0.5 27.5c0 38.667 2 97.667 6 177
c4 78.667 6 137.667 6 177c0 132 -16.333 221.333 -49 268c2 16.667 10.333 27 25 31c6.66699 1.33301 21 2 43 2h473c70 0 124 -36.667 162 -110c31.333 -59.333 47 -127.333 47 -204zM525 451.999c0 68 -8 126.666 -24 175.999c-24 72 -62.667 108 -116 108
c-37.333 0 -65.333 -15 -84 -45c-16.667 -25.333 -25 -57.666 -25 -96.999l-3 -429c0 -18 3.66699 -38 11 -60c8.66699 -26.667 20.667 -40 36 -40c58 0 108.667 52 152 156c35.333 86 53 163 53 231z" />
    <glyph glyph-name="e" unicode="e" horiz-adv-x="667" 
d="M649 211c0 -35.333 -9.66211 -77.335 -28.9951 -126.002c-22.667 -56.667 -49 -85 -79 -85h-476c-30.667 0 -46 10.667 -46 32c0 8 5.33301 19.333 16 34c15.333 20 23.333 31.333 24 34c9.33301 22.667 14 48 14 76l-1 457c0 29.333 -4.33301 52.333 -13 69
c-0.666992 1.33301 -2.83398 4.5 -6.50098 9.5l-15.5 21.5c-10.667 12.667 -16 23.334 -16 32.001c0 18.667 17.333 28 52 28c28.667 0 64 0.5 106 1.5l150 3.5c114 4 199.333 6 256 6c14.667 0 26 -18 34 -54c2.66699 -12.667 4.66699 -25 6 -37s2 -24 2 -36
c0 -30.667 -8.33301 -46 -25 -46c-8 0 -20.333 8.33301 -37 25c-24 22.667 -44 38.334 -60 47.001c-28.667 16.667 -62.334 25 -101.001 25c-53.333 0 -88.333 -18 -105 -54c-10.667 -21.333 -16 -63 -16 -125c0 -14 3.33301 -24.333 10 -31c10.667 30 31.667 54 63 72
c28.667 16.667 60 25 94 25c14 0 27.5 -3.83301 40.5 -11.5s24.833 -17.5 35.5 -29.5s19.167 -25.167 25.5 -39.5s9.5 -27.833 9.5 -40.5c0 -18.667 -3.33301 -36 -10 -52s-15.834 -29.667 -27.501 -41s-25.5 -20.333 -41.5 -27s-33.333 -10 -52 -10l-5 11
c7.33301 7.33301 11.166 16.333 11.499 27s-1.83398 21 -6.50098 31s-11 18.667 -19 26s-16.667 11 -26 11c-72 0 -108 -72 -108 -216c0 -61.333 2.33301 -99.333 7 -114c10.667 -40.667 38 -61 82 -61c46 0 89.333 14.333 130 43c11.333 8.66699 23.833 19.5 37.5 32.5
s28.167 28.833 43.5 47.5c24 28.667 39.333 43 46 43c5.33301 0 11 -4.33301 17 -13s9 -15.667 9 -21z" />
    <glyph glyph-name="f" unicode="f" horiz-adv-x="640" 
d="M625 664c0 -26 -9.99805 -38.998 -29.998 -38.998c-8 0 -19.333 8.33301 -34 25c-18.667 20 -37 35 -55 45c-30.667 16.667 -68 25 -112 25c-54 0 -89.333 -18.333 -106 -55c-10.667 -22 -16 -64.333 -16 -127c0 -12 2.66699 -22.667 8 -32c3.33301 0 12 9.33301 26 28
c17.333 23.333 33.666 40.666 48.999 51.999c23.333 18.667 49 28 77 28c35.333 0 65.666 -12.667 90.999 -38c24.667 -24.667 37 -55.334 37 -92.001c0 -29.333 -12 -59 -36 -89c-23.333 -30 -49.333 -45 -78 -45l-26 20c0 4.66699 2 11.834 6 21.501s6 17.5 6 23.5
c0 13.333 -5.5 24.666 -16.5 33.999s-23.167 14 -36.5 14c-71.333 0 -107 -60 -107 -180v-138c0 -26.667 7.66699 -53.334 23 -80.001l23 -40c-12.667 -16.667 -23.667 -25 -33 -25h-223c-8.66699 0 -17.667 2.33301 -27 7c-12.667 4.66699 -19 10.667 -19 18
c0 0.666992 7.66699 15.334 23 44.001s23 54 23 76v458c0 36 -4 65.667 -12 89c-2 5.33301 -8.66699 17.666 -20 36.999c-9.33301 16.667 -14 28.334 -14 35.001c0 18.667 78 28 234 28c6.66699 0 15 -0.166992 25 -0.5s21.667 -0.833008 35 -1.5s25 -1 35 -1h26
c22 0 55 2 99 6s77 6 99 6c20 0 35 -18.667 45 -56c7.33301 -27.333 11 -54.333 11 -81z" />
    <glyph glyph-name="g" unicode="g" horiz-adv-x="720" 
d="M703 53c0 -18.667 -33.668 -33 -101.001 -43c-23.333 -3.33301 -45.333 -5.83301 -66 -7.5s-40.667 -2.5 -60 -2.5c-147.333 0 -260.666 40.667 -339.999 122s-119 196 -119 344c0 80 16 151.667 48 215c40 78.667 96 118 168 118l296 -1c26.667 -0.666992 47 -1 61 -1
c14.667 0 22.667 -0.333008 24 -1c18 -4.66699 32 -23 42 -55c8.66699 -24 13 -48.333 13 -73c0 -28.667 -7.33301 -43 -22 -43c-10.667 0 -28.334 10.333 -53.001 31c-32 26 -50.333 40.333 -55 43c-31.333 17.333 -67.666 26 -108.999 26
c-117.333 0 -176 -91.667 -176 -275c0 -74 14.333 -148.667 43 -224c37.333 -97.333 85.333 -146 144 -146c24.667 0 37 38 37 114c0 107.333 -14.667 195 -44 263c-10 22.667 -15 34.667 -15 36c0 21.333 32 32 96 32c59.333 0 100.333 -7.33301 123 -22
c30.667 -18.667 46 -56 46 -112c0 -18 -1 -45.333 -3 -82c-2 -37.333 -3 -64.666 -3 -81.999c0 -20 4 -49.333 12 -88c8.66699 -36.667 13 -65.334 13 -86.001z" />
    <glyph glyph-name="h" unicode="h" 
d="M748 20c0 -13.333 -26 -20 -78 -20h3h-101h-64c-33.333 -0 -50 6.33301 -50 19l20 45c13.333 30 20 55.333 20 76v366l-21 13c-46.667 0 -91.667 -20.333 -135 -61c-43.333 -40 -65 -82.667 -65 -128v-159c0 -19.333 6.33301 -45.666 19 -78.999s19 -56.333 19 -69
c0 -5.33301 -3.83301 -10.5 -11.5 -15.5s-14.167 -7.5 -19.5 -7.5h-201c-38.667 0 -58 8.66699 -58 26c0 -9.33301 0.666992 -14 2 -14c2.66699 0 6.33398 9.33301 11.001 28c1.33301 6.66699 3 14.334 5 23.001l7 30c8.66699 42.667 15.167 77.834 19.5 105.501
s6.5 48.167 6.5 61.5v227c0 106.667 -6.66699 183 -20 229c-0.666992 4 -6.33398 14.333 -17.001 31c-9.33301 16.667 -14 26.667 -14 30c0 6 3.5 11.833 10.5 17.5s13.5 8.5 19.5 8.5h232c19.333 0 29 -10 29 -30c0 -6 -6 -19.333 -18 -40
c-11.333 -20.667 -17 -38.334 -17 -53.001v-98l15 -19c22.667 0.666992 59.667 7.66699 111 21c58 14.667 87 27.334 87 38.001c0 21.333 -7 50.666 -21 87.999c-14 36.667 -21 58.667 -21 66c0 18.667 15.333 28 46 28h189c39.333 0 59 -9.66699 59 -29
c0 5.33301 -0.666992 9.33301 -2 12c-0.666992 -0.666992 -1.16699 -1.33398 -1.5 -2.00098s-0.833008 -1.33398 -1.5 -2.00098c-5.33301 -11.333 -12.333 -39.333 -21 -84c-9.33301 -45.333 -14 -74 -14 -86v-410c0 -26 7 -61.333 21 -106c14 -45.333 21 -71 21 -77z" />
    <glyph glyph-name="i" unicode="i" horiz-adv-x="351" 
d="M331 25c0 -5.33301 -4.5 -10.832 -13.5 -16.499s-16.5 -8.5 -22.5 -8.5h-236c-6.66699 0 -14.667 3 -24 9s-14 12 -14 18l23 60c5.33301 14 8.33301 22 9 24c10.667 32 16 61.333 16 88v446c0 28.667 -7.66699 57.667 -23 87s-23 45.333 -23 48c0 16 14.667 24 44 24h220
c28 0 42 -9.66699 42 -29c0 -2.66699 -8 -17.334 -24 -44.001c-15.333 -27.333 -23 -56 -23 -86l-1 -448c0 -32.667 4.33301 -62 13 -88c2 -7.33301 9 -22.333 21 -45c10.667 -20.667 16 -33.667 16 -39z" />
    <glyph glyph-name="j" unicode="j" horiz-adv-x="391" 
d="M376 780c0 -2.66699 -5.33203 -12.667 -15.999 -30c-12.667 -22.667 -19.334 -34.667 -20.001 -36c-8 -19.333 -12 -47 -12 -83v-56c0 -22 0.333008 -48 1 -78s1.16699 -56 1.5 -78s0.5 -40.667 0.5 -56c0 -38 -1 -72 -3 -102
c-5.33301 -68 -39.666 -139.333 -102.999 -214c-64 -75.333 -129 -119.333 -195 -132l-12 4l-4 9l18 36c5.33301 10.667 10.666 19.667 15.999 27c54 78 81 168 81 270v364c0 52.667 -11 95.667 -33 129c-8 12 -12 21 -12 27c0 15.333 12.667 23 38 23h219
c23.333 0 35 -8 35 -24z" />
    <glyph glyph-name="k" unicode="k" horiz-adv-x="755" 
d="M740 5l-15.001 -11.0049c-66.667 0 -155.334 57 -266.001 171c-22.667 24 -49 58 -79 102l-69 108c-6 9.33301 -11 14 -15 14c-15.333 0 -23 -33.333 -23 -100c0 -82 5 -145 15 -189c0.666992 -5.33301 6.33398 -18.666 17.001 -39.999c10 -19.333 15 -31.666 15 -36.999
c0 -4.66699 -2.83301 -9.66699 -8.5 -15s-10.834 -8 -15.501 -8h-194c-26 0 -40 14 -42 42c-0.666992 8.66699 -1.16699 19.834 -1.5 33.501s-0.5 29.834 -0.5 48.501c0 31.333 1 78 3 140c2 62.667 3 109.667 3 141c0 64.667 -0.166992 115.5 -0.5 152.5
s-0.833008 61.167 -1.5 72.5s-3.16699 24.333 -7.5 39s-10.166 30.667 -17.499 48c-14.667 35.333 -22 54 -22 56c0 17.333 14.667 26 44 26h216c28.667 0 43 -8.66699 43 -26c-20.667 -38.667 -31.334 -58.667 -32.001 -60c-8.66699 -20 -13 -42.333 -13 -67v-151
c0 -18 4 -27 12 -27c26.667 0 70.334 28.667 131.001 86c60.667 58 91 100.667 91 128c0 14.667 -7.33301 32.334 -22 53.001c-14 20.667 -21 34 -21 40c0 7.33301 4.16699 13.333 12.5 18s16.5 7 24.5 7h170c6.66699 0 13 -2.5 19 -7.5s9 -10.833 9 -17.5
c0 -28 -17.333 -60.667 -52 -98c-7.33301 -8 -19.166 -19.5 -35.499 -34.5l-62.5 -56.5c-34.667 -30.667 -52 -51 -52 -61c0 -52 31.333 -140.667 94 -266c28 -54.667 54.167 -103.167 78.5 -145.5s47.833 -78.5 70.5 -108.5z" />
    <glyph glyph-name="l" unicode="l" horiz-adv-x="650" 
d="M649 119c0 -17.333 -2.99902 -33.167 -8.99902 -47.5s-14.333 -26.833 -25 -37.5s-23.334 -19 -38.001 -25s-30.334 -9 -47.001 -9h-474c-26 0 -39 7 -39 21c0 9.33301 6.33301 31 19 65c13.333 36.667 20 65.334 20 86.001c0 47.333 -1 117.666 -3 210.999
c-2 94 -3 164.667 -3 212c0 30.667 -5 62 -15 94l-12 30.5l-23 58.5c0 17.333 17 26 51 26h218c26.667 0 40 -8.33301 40 -25l-25 -40c-16 -27.333 -24 -51.666 -24 -72.999l-1 -379c0 -149.333 34.333 -224 103 -224c22.667 0 42.5 7.83301 59.5 23.5
s25.5 34.834 25.5 57.501c0 19.333 -13.667 41.666 -41 66.999l-41 38c0 15.333 12.667 28.666 38 39.999c20 8.66699 40 13 60 13c46.667 0 89.334 -18.667 128.001 -56c38.667 -36.667 58 -79 58 -127z" />
    <glyph glyph-name="m" unicode="m" horiz-adv-x="866" 
d="M843 95c0 -36.667 -7.83203 -61.6689 -23.499 -75.002s-42.5 -20 -80.5 -20h-134l-38 27c0 8.66699 8 22.667 24 42c16.667 19.333 25 38.666 25 57.999c0 48 -6 123 -18 225c-12.667 116 -26 184 -40 204c-14 -9.33301 -32.667 -41 -56 -95l-42 -92
c-10.667 -22.667 -18 -37.667 -22 -45c-24.667 -46.667 -48 -70 -70 -70c-25.333 0 -56 35 -92 105l-29.5 56l-20.5 40c-28.667 54.667 -50.667 89.334 -66 104.001c-10.667 -17.333 -18.334 -92.333 -23.001 -225c-4 -91.333 -6 -172.666 -6 -243.999
c0 -8 6.33301 -19.667 19 -35c13.333 -15.333 20 -27 20 -35c0 -14.667 -22.667 -22 -68 -22c-29.333 0 -49.666 4.83301 -60.999 14.5s-17 28.834 -17 57.501c0 34 2.66699 75.667 8 125s13.333 107.333 24 174c22 132.667 33 232.334 33 299.001
c0 18.667 -7.66699 40.667 -23 66c-14.667 24.667 -22 40.667 -22 48c0 16 11 24 33 24h135c34.667 0 67.667 -22 99 -66c5.33301 -9.33301 9.83301 -17.5 13.5 -24.5l9.5 -18.5l42 -81c22.667 -44 43 -66 61 -66c12.667 0 29.667 22.667 51 68l37 81
c12.667 27.333 19.667 42 21 44c27.333 45.333 54.666 68 81.999 68h140c25.333 0 38 -8 38 -24c0 -4 -6.66699 -16.667 -20 -38c-12.667 -20.667 -19 -40.334 -19 -59.001c0 -64 12.667 -163.333 38 -298s38 -233.667 38 -297z" />
    <glyph glyph-name="n" unicode="n" horiz-adv-x="745" 
d="M736 509v-178.994v-24c0 -8.66699 0.333008 -19.334 1 -32.001c0.666992 -12 1.16699 -22.5 1.5 -31.5s0.5 -16.833 0.5 -23.5c0 -147.333 -28 -221 -84 -221c-35.333 0 -53 9 -53 27c0 8 6.33301 21.333 19 40c13.333 19.333 20 33.666 20 42.999
c0 33.333 -71.667 121.666 -215 264.999c-136.667 136.667 -227 216 -271 238c-7.33301 -10.667 -11 -65.334 -11 -164.001c0 -154 7.33301 -260.333 22 -319c2.66699 -10 12.667 -30 30 -60c17.333 -29.333 26 -45.333 26 -48c0 -16 -22.333 -24 -67 -24
c-66 0 -99 52 -99 156c0 -4 0.333008 1.16699 1 15.5s1.66699 38.5 3 72.5c3.33301 98 5.33301 170.333 6 217c2.66699 46 4.5 85.333 5.5 118s1.5 58.667 1.5 78c0 31.333 -10.667 57 -32 77c-20.667 20 -31 35 -31 45c0 18.667 15 28 45 28h155
c33.333 0 80.333 -25.667 141 -77c14 -12.667 34.167 -32 60.5 -58l98.5 -99c32 -32.667 59.167 -59 81.5 -79s40.166 -34.333 53.499 -43c5.33301 4 8 13 8 27c0 108.667 -11.667 187 -35 235c-1.33301 2 -4.16602 5.83301 -8.49902 11.5l-17.5 22.5
c-12.667 16.667 -19 28 -19 34c0 18.667 25.333 28 76 28c60.667 0 91 -59.333 91 -178c0 -6.66699 -0.166992 -14.834 -0.5 -24.501s-0.833008 -21.167 -1.5 -34.5s-1.16699 -24.833 -1.5 -34.5s-0.5 -17.834 -0.5 -24.501z" />
    <glyph glyph-name="o" unicode="o" horiz-adv-x="800" 
d="M782 480c0 -124.667 -31.333 -232.668 -94 -324.001c-71.333 -104 -166.333 -156 -285 -156c-116.667 0 -211.334 48 -284.001 144c-66.667 86.667 -100 190.334 -100 311.001c0 133.333 31.333 226.333 94 279c56.667 46.667 153.334 70 290.001 70
c132.667 0 226.667 -20 282 -60c64.667 -46.667 97 -134.667 97 -264zM543 443.999c0 79.333 -6.00098 140.667 -18.001 184c-21.333 74 -61.666 111 -120.999 111c-100 0 -150 -96 -150 -288c0 -44 1.83301 -84.667 5.5 -122s9.16699 -71.333 16.5 -102
c24 -102 65.667 -153 125 -153c52 0 90.667 50.667 116 152c8.66699 34.667 15.167 70 19.5 106s6.5 73.333 6.5 112z" />
    <glyph glyph-name="p" unicode="p" horiz-adv-x="747" 
d="M704 633c0 -71.333 -31.665 -130.666 -94.998 -177.999c-57.333 -44 -123 -66 -197 -66c-20 0 -42.333 3 -67 9c-33.333 8 -50 18 -50 30c0 11.333 8 17.666 24 18.999l-3 -1h40c32.667 0 58.667 13 78 39c17.333 23.333 26 52.333 26 87c0 37.333 -5.66699 70 -17 98
c-15.333 37.333 -39.333 56 -72 56c-46 0 -77.333 -22 -94 -66c-10.667 -27.333 -16 -69 -16 -125l1 -227c0 -30 0.166992 -54 0.5 -72s0.833008 -30.667 1.5 -38c1.33301 -24.667 3.66602 -46.167 6.99902 -64.5s7.33301 -33.166 12 -44.499
c0.666992 -2.66699 7.33398 -14 20.001 -34c10.667 -14.667 16 -25.334 16 -32.001l-29 -23h-180c-24.667 -0 -40.334 11.333 -47.001 34c-4 12.667 -6 34 -6 64v514c0 38 -4.33301 66.667 -13 86c-0.666992 1.33301 -2.83398 5.33301 -6.50098 12l-15.5 27
c-10.667 17.333 -16 29.333 -16 36c0 14 13 21.667 39 23l224 6c38 0.666992 75.333 1.16699 112 1.5s74 0.5 112 0.5c140.667 0 211 -57 211 -171z" />
    <glyph glyph-name="q" unicode="q" horiz-adv-x="819" 
d="M801 486c0 -97.333 -14.6689 -180 -44.002 -248c-32 -72 -85 -137 -159 -195c1.33301 -20 12.333 -40.333 33 -61c22 -22 42.667 -33 62 -33c8 0 17.667 5 29 15c12.667 10.667 22.334 16.334 29.001 17.001c12.667 -12.667 19 -32 19 -58c0 -28 -16.333 -50.333 -49 -67
c-27.333 -15.333 -56 -23 -86 -23c-78 0 -130.667 39.667 -158 119c-11.333 32 -18.333 48 -21 48h-28c-126.667 0 -224.667 46.667 -294 140c-64 86.667 -96 195.667 -96 327c0 133.333 31 224.666 93 273.999c54 42 150 63 288 63c132.667 0 226.334 -19.333 281.001 -58
c67.333 -47.333 101 -134 101 -260zM558.998 435c0 204.667 -45 307.001 -135 307.001c-65.333 0 -109.333 -41 -132 -123c-12.667 -44.667 -19 -112.334 -19 -203.001c0 -106.667 17.333 -196.667 52 -270c4 3.33301 7.5 6.66602 10.5 9.99902s5.5 6.33301 7.5 9l17 18.5
c4.66699 5 8.66699 8.16699 12 9.5c9.33301 5.33301 23 8 41 8c19.333 0 37 -5 53 -15l29.5 -17.5c7.66699 -4.33301 13.167 -7.16602 16.5 -8.49902c14.667 28.667 26.667 73.334 36 134.001c3.33301 25.333 6 49.666 8 72.999s3 46 3 68zM442.998 97.001
c0 6 -6.33301 13.332 -19 21.999c-12.667 9.33301 -21.667 14 -27 14c-7.33301 0 -14 -2.66699 -20 -8s-9 -11.666 -9 -18.999c0 -9.33301 5.33301 -17 16 -23c8.66699 -4.66699 18 -7 28 -7c20.667 0 31 7 31 21z" />
    <glyph glyph-name="r" unicode="r" horiz-adv-x="844" 
d="M811 26l-19.999 -14c-56 0 -124.667 28.667 -206 86c-60.667 42.667 -114.334 91.334 -161.001 146.001c-61.333 71.333 -92 133.666 -92 186.999c0 35.333 13 53 39 53c3.33301 0 7.66602 -0.666992 12.999 -2s10.833 -3 16.5 -5s11.167 -3.66699 16.5 -5
s9.66602 -2 12.999 -2c24.667 0 44.334 12.333 59.001 37c12.667 20.667 19 44 19 70c0 38 -8.66699 71.333 -26 100c-20 32.667 -48.333 49 -85 49c-46 0 -77.333 -23 -94 -69c-10 -28 -15 -70.667 -15 -128c0 -63.333 1.5 -126.166 4.5 -188.499
s7.16699 -124.833 12.5 -187.5c3.33301 -26.667 12.666 -53.667 27.999 -81c16 -28 24 -44.333 24 -49c0 -15.333 -15.667 -23 -47 -23h-109c-42.667 0 -68.667 2.33301 -78 7c-20 8.66699 -30 30 -30 64c0 33.333 -1 94 -3 182l-6.5 223.5
c-1.66699 57.667 -3.16699 98.834 -4.5 123.501c-0.666992 19.333 -8.66699 49.666 -24 90.999c-7.33301 19.333 -12.666 34.333 -15.999 45s-5.33301 16.667 -6 18l33 27c26.667 0 59.834 1 99.501 3s86.5 4.66699 140.5 8c106.667 8 187 12 241 12
c140 0 210 -51.667 210 -155c0 -40.667 -15.667 -78.667 -47 -114c-14.667 -16.667 -43.667 -41.334 -87 -74.001c-31.333 -24 -47 -42.667 -47 -56c0 -36 22 -87 66 -153c10 -14.667 24 -33.5 42 -56.5l65 -82.5c39.333 -49.333 60 -78.333 62 -87z" />
    <glyph glyph-name="s" unicode="s" horiz-adv-x="608" 
d="M608 225c0 -150 -104.668 -225.002 -314.001 -225.002c-76 0 -138 9.33301 -186 28c-72 26.667 -108 70.667 -108 132c0 48 16.333 85 49 111c30 24 69.667 36 119 36c36.667 0 63.334 -10.333 80.001 -31c0 -7.33301 -7.33301 -15.333 -22 -24
c-20.667 -12 -34 -21.333 -40 -28c-14.667 -14.667 -22 -33.667 -22 -57c0 -28.667 12.333 -51.334 37 -68.001c22 -16 47.667 -24 77 -24c31.333 0 56.333 12.333 75 37c19.333 25.333 29 53.333 29 84c0 41.333 -20.667 80.666 -62 117.999
c-5.33301 4.66699 -17.333 13.834 -36 27.501l-77 54.5l-78.5 53c-17.667 12 -27.167 18.667 -28.5 20c-66 46.667 -99 96.667 -99 150c0 68.667 22.333 117.334 67 146.001c35.333 22.667 89.666 34 162.999 34c18.667 0 47 -1 85 -3s66.333 -3 85 -3c12 0 30 2 54 6
c24.667 4 43 6 55 6c17.333 0 30.666 -20.667 39.999 -62c6.66699 -27.333 10 -54.666 10 -81.999c0 -4 -2.16699 -9.5 -6.5 -16.5s-8.16602 -10.5 -11.499 -10.5c-11.333 0 -25.666 8.66699 -42.999 26c-24 24.667 -42.333 41 -55 49c-27.333 17.333 -58.333 26 -93 26
c-24.667 0 -47 -4.66699 -67 -14c-24 -11.333 -36 -28.666 -36 -51.999c0 -28.667 31 -65.334 93 -110.001l70.5 -51l45.5 -34c28.667 -23.333 48 -39.666 58 -48.999c62 -63.333 93 -130 93 -200z" />
    <glyph glyph-name="t" unicode="t" horiz-adv-x="719" 
d="M705 630c0 -42.667 -7.66797 -63.999 -23.001 -63.999c-7.33301 0 -18 11.667 -32 35c-18.667 31.333 -35 53.333 -49 66c-26.667 23.333 -57.334 35 -92.001 35c-26.667 0 -40 -19.667 -40 -59v-470c0 -32.667 14.667 -76.667 44 -132l5 -10l3 -4
c0.666992 -0.666992 1 -1.33398 1 -2.00098v0c0 -6 -4.66699 -11.667 -14 -17s-17.333 -8 -24 -8h-233c-15.333 0 -26.666 5.66699 -33.999 17c4 10.667 8 20.667 12 30s7.66699 18.333 11 27c16 36.667 24 70.334 24 101.001l-1 468c0 7.33301 -6.66699 18.666 -20 33.999
s-24 23 -32 23c-33.333 0 -61.666 -11.667 -84.999 -35c-8.66699 -8.66699 -24 -30 -46 -64c-15.333 -23.333 -29.333 -35 -42 -35c-16 0 -24 21.333 -24 64c0 33.333 6.66699 67 20 101c16.667 42.667 39 64 67 64h530c23.333 0 42.333 -22.333 57 -67
c11.333 -36 17 -68.667 17 -98z" />
    <glyph glyph-name="u" unicode="u" horiz-adv-x="841" 
d="M807 40l-15.001 -19.001c-9.33301 -0.666992 -32 -2 -68 -4s-85.333 -5 -148 -9c-44 -2.66699 -84 -4.66699 -120 -6s-68.333 -2 -97 -2c-94.667 0 -171.667 27.333 -231 82c-62.667 56 -94 130.667 -94 224c0 44.667 11 109.667 33 195c22.667 86.667 34 147.667 34 183
c0 26.667 -9.66699 51.667 -29 75l19 35c21.333 2.66699 47.5 4.66699 78.5 6s67.5 2 109.5 2h30l29 -21c0 -41.333 -9.66699 -105.333 -29 -192s-29 -150.667 -29 -192c0 -220 63.333 -330 190 -330c50.667 0 76 45.333 76 136c0 5.33301 -0.166992 11.833 -0.5 19.5
s-0.833008 16.834 -1.5 27.501s-1 19.667 -1 27v20v87c0 26 -0.333008 49.333 -1 70c-4 159.333 -29.667 261 -77 305c0 32 29 48 87 48c6.66699 0 16.5 -0.333008 29.5 -1s22.5 -1 28.5 -1l97 -1c28.667 -16.667 43 -83 43 -199c0 -9.33301 -0.166992 -21 -0.5 -35
s-0.833008 -30.667 -1.5 -50s-1.16699 -36 -1.5 -50s-0.5 -25.667 -0.5 -35c0 -108 1 -176 3 -204c6.66699 -96 25.334 -157 56.001 -183z" />
    <glyph glyph-name="v" unicode="v" horiz-adv-x="735" 
d="M717 769c0 -57.333 -33.332 -183.666 -99.999 -378.999c-70 -206 -119.333 -328 -148 -366c-12 -16 -40 -24 -84 -24h-62c-19.333 1.33301 -35.333 12 -48 32l-38 78.5c-10.667 22.333 -19.334 41.833 -26.001 58.5l-40.5 98.5l-46.5 118.5
c-70.667 186 -106 303.667 -106 353c0 44.667 27 67 81 67h26c5.33301 -0.666992 10 -1 14 -1h12h87c46 0 69 -10 69 -30c0 -8 -7.66699 -20.667 -23 -38c-14.667 -16.667 -22 -30 -22 -40c0 -52.667 22.333 -142 67 -268c34.667 -100 70.667 -189.333 108 -268l6 -3l10 6
c84 178.667 126 336.667 126 474c0 25.333 -2.33301 43.666 -7 54.999c-4 12.667 -14 28.667 -30 48c-13.333 16 -22.333 29 -27 39v2c-0.666992 8 5.33301 14.333 18 19c11.333 3.33301 21 5 29 5h65c60 0 90 -12.333 90 -37z" />
    <glyph glyph-name="w" unicode="w" horiz-adv-x="970" 
d="M949 711c0 -75.333 -22.3369 -191.331 -67.0039 -347.998c-23.333 -82.667 -44.666 -151.5 -63.999 -206.5s-37.333 -96.833 -54 -125.5c-10.667 -20.667 -37 -31 -79 -31c-49.333 0 -84 3.33301 -104 10c-12.667 16 -27.334 51.667 -44.001 107
c-6.66699 19.333 -13 39 -19 59l-18 60l-12 6l-22.5 -57c-6.33301 -16.667 -11.166 -30.667 -14.499 -42c-14.667 -44.667 -28.334 -76.334 -41.001 -95.001c-22 -32 -50.667 -48 -86 -48h-69c-24.667 0.666992 -57 57.667 -97 171c-16.667 47.333 -32.667 98.833 -48 154.5
s-30.666 116.167 -45.999 181.5c-28.667 120.667 -43 200.334 -43 239.001c0 42 35 63 105 63h-3c30 -2 53.333 -3 70 -3l83 -3l24 -30c-1.33301 -9.33301 -9.66602 -25.333 -24.999 -48s-23 -39.334 -23 -50.001c0 -68.667 14.333 -152.334 43 -251.001l34 -116l39 -133
l13 -8c11.333 22 25.333 58.667 42 110c19.333 56.667 29 92.667 29 108c0 40.667 -10.333 99 -31 175s-31 134.333 -31 175c0 50 27 75 81 75c-2.66699 0 1.83301 -0.333008 13.5 -1s30.167 -1.66699 55.5 -3c51.333 -2 85 -5 101 -9c12 -14 18.333 -28.333 19 -43
c-25.333 -19.333 -38 -47.333 -38 -84c0 -67.333 12.333 -149 37 -245l24 -86.5l45 -155.5l11 -10l5 2c24 60 44 126.667 60 200c17.333 80.667 26 149.667 26 207c0 38 -6.66699 73 -20 105c-3.33301 8.66699 -8.16602 18 -14.499 28s-13.833 20.667 -22.5 32
c-13.333 18.667 -20 30 -20 34l0.5 3.5l1.5 10.5c26.667 8 69.334 12 128.001 12c28.667 0 47.667 -9.66699 57 -29c6 -12 9 -34.333 9 -67z" />
    <glyph glyph-name="x" unicode="x" horiz-adv-x="812" 
d="M792 49l-14.0029 -35.002c-11.333 -9.33301 -36.666 -14 -75.999 -14h-191l-25 17l-4 15c0 6.66699 4.66699 16.667 14 30c10 12.667 15 22 15 28c0 40.667 -61 120.667 -183 240l-14 -2c-14.667 -12.667 -29.5 -27.667 -44.5 -45s-30.5 -37 -46.5 -59
c-38 -52 -57 -91 -57 -117c0 -10 6.33301 -23.333 19 -40s19 -29 19 -37c0 -20.667 -25.333 -31 -76 -31h-24c-13.333 0 -32.666 0.333008 -57.999 1l-21 22c0 44 18 93 54 147c6.66699 10 18.334 25.5 35.001 46.5l66 79.5l42 49l46 54c-3.33301 8.66699 -14 24 -32 46
l-16.5 19l-21.5 24c-118.667 128.667 -178 216.334 -178 263.001c0 20 8.66699 37 26 51c56 2 140.333 3 253 3l17 -23c0 -9.33301 -3.33301 -21 -10 -35c-6 -15.333 -9 -26.666 -9 -33.999c0 -14.667 18.333 -43.334 55 -86.001c36.667 -42 62 -63.667 76 -65
c21.333 6.66699 51.666 30.667 90.999 72s59 72.333 59 93c0 4 -0.833008 8.83301 -2.5 14.5s-3.5 11.5 -5.5 17.5s-3.83301 11.833 -5.5 17.5s-2.5 10.5 -2.5 14.5l17 14c19.333 1.33301 36.333 2.33301 51 3s27.334 1 38.001 1c28.667 0 52 -2.33301 70 -7
c10.667 -12 16.667 -25 18 -39c-9.33301 -14.667 -26.166 -34 -50.499 -58s-56.5 -53.333 -96.5 -88c-74 -63.333 -115.667 -106.666 -125 -129.999l175 -214c77.333 -94 121.666 -168.333 132.999 -223z" />
    <glyph glyph-name="y" unicode="y" horiz-adv-x="737" 
d="M717 774c0 -4.66699 -20.6699 -42.3311 -62.0029 -112.998c-25.333 -43.333 -47.666 -83.333 -66.999 -120s-35.666 -70.667 -48.999 -102c-42 -99.333 -63 -186 -63 -260c0 -22.667 8 -55.334 24 -98.001c4.66699 -13.333 8.66699 -24.166 12 -32.499s6 -14.5 8 -18.5
c2 -3.33301 3.33301 -5 4 -5s0.666992 0.333008 0 1l-3 -15l-16 -11h-265l-21 19c0 -8 0.666992 -12 2 -12c3.33301 0 10 19.667 20 59c15.333 60 23 100 23 120c0 76.667 -21 160 -63 250c-7.33301 15.333 -15.666 31.666 -24.999 48.999l-31 55l-22.5 37.5l-39.5 63.5
c-42 66.667 -63 110.667 -63 132s15.333 32 46 32h211c4.66699 0 11.167 0.333008 19.5 1s14.833 1 19.5 1c25.333 0 38 -10.667 38 -32c0 -8.66699 -4.66699 -23 -14 -43c-8.66699 -17.333 -13 -31.333 -13 -42c0 -8.66699 34.667 -98.334 104 -269.001l16 -5l32.5 67.5
l33.5 75.5c30.667 71.333 46 118.333 46 141c0 26.667 -8 49 -24 67l8 27l13 8l68 1.5c15.333 0.333008 23.666 0.5 24.999 0.5c9.33301 0 18.333 -0.5 27 -1.5s17.334 -2.16699 26.001 -3.5z" />
    <glyph glyph-name="z" unicode="z" horiz-adv-x="698" 
d="M683 127c0 -22.667 -3.33301 -44.0039 -10 -64.0039c-8 -26 -19.667 -42.667 -35 -50c-24 -10.667 -107.667 -16 -251 -16h-46c-17.333 0 -37.333 0.333008 -60 1c-25.333 0.666992 -46.833 1.16699 -64.5 1.5s-31.5 0.5 -41.5 0.5h-142c-11.333 8 -17 20.667 -17 38
c0 60.667 33.333 143.334 100 248.001c24.667 38.667 55 82 91 130l49 63.5l48 63.5c69.333 91.333 105.333 148.666 108 171.999l-5 9l-12 5h2c-38 0 -69.167 -0.5 -93.5 -1.5s-42.166 -2.16699 -53.499 -3.5c-58 -9.33301 -100.333 -30.666 -127 -63.999l-16 -22l-16 -22
c-15.333 -17.333 -30.333 -26 -45 -26c-12.667 12.667 -19 30.334 -19 53.001c0 33.333 4.33301 63 13 89c11.333 35.333 27.666 59.333 48.999 72c25.333 -2.66699 54.666 -4.5 87.999 -5.5s70.333 -1.5 111 -1.5c19.333 0 43 0.166992 71 0.5s61 0.833008 99 1.5
c74.667 2 131.334 3 170.001 3c2.66699 0 5.83398 -1 9.50098 -3s7.16699 -4.33301 10.5 -7s6.16602 -5.66699 8.49902 -9s3.5 -6 3.5 -8c0 -64.667 -29.667 -137.667 -89 -219l-103 -134l-74 -95c-71.333 -93.333 -116.333 -172.666 -135 -237.999l10 -16
c31.333 -0.666992 55 -1 71 -1h27c40.667 0 69 3.33301 85 10c28.667 10.667 43 32.334 43 65.001c0 19.333 -7.33301 36.333 -22 51c-6 6 -19.333 15.667 -40 29c-14.667 8.66699 -22 16 -22 22c0 16 13.333 28.333 40 37c18.667 6 38.667 9 60 9c48 0 88.667 -16 122 -48
s50 -72 50 -120z" />
    <glyph glyph-name="braceleft" unicode="{" horiz-adv-x="378" 
d="M268 -197c-105.333 0 -158.001 53.332 -158.001 159.999v158c0 26.667 -9.66699 49.667 -29 69c-18.667 19.333 -28 39 -28 59c0 17.333 9.33301 35.333 28 54c19.333 20.667 29 42 29 64v169c0 101.333 53.667 152 161 152c36 0 54 -18.667 54 -56
c0 -20 -6.66699 -33.667 -20 -41c-2.66699 -1.33301 -7.66699 -3.16602 -15 -5.49902s-17.666 -4.83301 -30.999 -7.5c-19.333 -4 -29 -24.667 -29 -62v-154c0 -53.333 -15.667 -92.666 -47 -117.999c31.333 -25.333 47 -65 47 -119v-147c0 -12 0.5 -21.833 1.5 -29.5
s2.83301 -13.834 5.5 -18.501s6.5 -8.33398 11.5 -11.001s11.5 -5 19.5 -7c10 -2.66699 18.167 -5.16699 24.5 -7.5s10.833 -4.16602 13.5 -5.49902c12.667 -8.66699 19 -22.667 19 -42c0 -36 -19 -54 -57 -54z" />
    <glyph glyph-name="bar" unicode="|" horiz-adv-x="500" 
d="M177 -180v862h147v-862h-147z" />
    <glyph glyph-name="braceright" unicode="}" horiz-adv-x="378" 
d="M325 241c0 -23.333 -9.66895 -41.668 -29.002 -55.001c-18.667 -12 -28 -33 -28 -63v-167c0 -102 -53.667 -153 -161 -153c-36 0 -54 19 -54 57c0 18 6 31.667 18 41c6.66699 4.66699 18.667 8.33398 36 11.001c14 2.66699 24 7 30 13c7.33301 9.33301 11 26.333 11 51
v152c0 53.333 15.667 92.666 47 117.999c-31.333 24 -47 63.333 -47 118v150c0 24.667 -2 40.667 -6 48c-3.33301 6 -13.666 11.667 -30.999 17c-18 4.66699 -31 9.33398 -39 14.001c-12.667 8.66699 -19 22.334 -19 41.001c0 36 19 54 57 54c105.333 0 158 -53 158 -159
v-160c0 -10 0.333008 -18.333 1 -25s2.33398 -12.834 5.00098 -18.501s6.5 -11 11.5 -16s11.833 -10.5 20.5 -16.5c12.667 -8.66699 19 -26 19 -52z" />
    <glyph glyph-name="asciitilde" unicode="~" horiz-adv-x="600" 
d="M105 168c30.667 40 59.999 60 87.999 60c23.333 0 58.666 -10 105.999 -30c46.667 -20 84 -30 112 -30c51.333 0 91.333 28.333 120 85l-36 85c-31.333 -40 -60.666 -60 -87.999 -60c-24 0 -59.333 10 -106 30c-47.333 20 -84.666 30 -111.999 30
c-51.333 0 -91.333 -28.333 -120 -85z" />
    <glyph glyph-name="nonbreakingspace" unicode="&#xa0;" horiz-adv-x="1000" 
 />
    <glyph glyph-name="exclamdown" unicode="&#xa1;" horiz-adv-x="268" 
d="M20 104c0 54.667 10.667 139.333 32 254c25.333 133.333 51 200 77 200c27.333 0 55 -66 83 -198c24 -114 36 -198.333 36 -253c0 -41.333 -9.16699 -69.5 -27.5 -84.5s-48.833 -22.5 -91.5 -22.5c-40 0 -68.167 7.66699 -84.5 23s-24.5 42.333 -24.5 81zM55 732.999
c0 20 7.83398 36.833 23.501 50.5s33.5 20.5 53.5 20.5s37.5 -7.33301 52.5 -22s22.5 -32 22.5 -52s-7.83301 -36.667 -23.5 -50s-33.834 -20 -54.501 -20c-20 0 -37.333 7.16699 -52 21.5s-22 31.5 -22 51.5z" />
    <glyph glyph-name="cent" unicode="&#xa2;" horiz-adv-x="661" 
d="M679 675c0 -48 -19.3311 -87.999 -57.998 -119.999c-36 -30 -78.667 -45 -128 -45c-54 0 -87.667 10.667 -101 32c0.666992 13.333 15 28.333 43 45c27.333 17.333 41 39.333 41 66c0 48 -26.333 72 -79 72c-60.667 0 -108 -38.333 -142 -115
c-26 -59.333 -39 -124 -39 -194c0 -225.333 82.333 -338 247 -338c13.333 0 36 1.83301 68 5.5s73.333 9.16699 124 16.5l5 -13l-4 -13c-30 -28 -69.667 -45 -119 -51c-70 -8.66699 -111.667 -15.667 -125 -21c-7.33301 -2 -13 -16.667 -17 -44c-4 -28 -12 -42 -24 -42
c-2.66699 0 -6.33398 0.833008 -11.001 2.5s-8.33398 2.5 -11.001 2.5c-5.33301 7.33301 -8 16.333 -8 27l1 -13v42c0 11.333 -6 19.666 -18 24.999c-14 6.66699 -32.667 13.667 -56 21c-4 1.33301 -10.833 3.16602 -20.5 5.49902s-22.167 5.16602 -37.5 8.49902
c-26.667 6.66699 -50.167 14 -70.5 22s-37.166 17.333 -50.499 28c-30 22.667 -55.333 58.334 -76 107.001c-19.333 50 -29 101.333 -29 154c0 47.333 10.333 106 31 176l28.5 85l28.5 84c1.33301 4.66699 -3 16.667 -13 36c-10 20.667 -15 34.334 -15 41.001
c0 7.33301 5.66699 16.666 17 27.999c4.66699 0.666992 9.33398 1 14.001 1h15c9.33301 0 21.333 -0.333008 36 -1s31.667 -1.66699 51 -3s36.333 -2.33301 51 -3s26.667 -1 36 -1c25.333 0 44.666 1 57.999 3c6.66699 10 10.667 24.667 12 44
c1.33301 13.333 2.16602 23.833 2.49902 31.5s0.833008 12.5 1.5 14.5l24 7l30 -22c-1.33301 -39.333 4.33398 -63.666 17.001 -72.999l81.5 1.5c18.333 0.333008 28.166 0.5 29.499 0.5c46 0 82.667 -9 110 -27c32.667 -20.667 49 -52.667 49 -96z" />
    <glyph glyph-name="sterling" unicode="&#xa3;" horiz-adv-x="554" 
d="M563 137c0 -42.667 -14.668 -75.998 -44.001 -99.998c-27.333 -22 -62.666 -33 -105.999 -33c-48 0 -107.667 23.667 -179 71c-42 -31.333 -64.333 -47.333 -67 -48c-29.333 -18 -55 -27 -77 -27c-64.667 0 -97 32.333 -97 97c0 65.333 53.333 107 160 125l7 16
c-13.333 72 -31.333 116.333 -54 133c-9.33301 0 -23.333 -1 -42 -3c-9.33301 -0.666992 -17.5 -1.16699 -24.5 -1.5s-12.833 -0.5 -17.5 -0.5c-2.66699 0.666992 -5 1.16699 -7 1.5s-4.33301 0.833008 -7 1.5c-7.33301 13.333 -11 24.666 -11 33.999
c0 21.333 9 36.666 27 45.999c5.33301 2.66699 10.333 5 15 7s9.66699 4.33301 15 7c-23.333 54 -35.333 82 -36 84c-11.333 32.667 -17 62.334 -17 89.001c0 70.667 41.667 119.667 125 147c50 16 121 24 213 24h20c8 0 17.667 -0.333008 29 -1s21 -1 29 -1h20h27
c15.333 0 27.666 -17.667 36.999 -53c8 -31.333 12 -62.333 12 -93l-19 -26c-6.66699 0.666992 -29 16.667 -67 48c-37.333 31.333 -69.666 47 -96.999 47c-32.667 0 -57.334 -12.333 -74.001 -37c-14.667 -20.667 -22 -48 -22 -82c0 -13.333 8.66699 -57.333 26 -132
l23 -12c38.667 6 68 9 88 9l15.5 -5c4.33301 -1.33301 8.16602 -2.33301 11.499 -3c0 -32.667 -12.667 -55.667 -38 -69c-14.667 -7.33301 -41.667 -14 -81 -20c-7.33301 -10.667 -11 -22.667 -11 -36c0 -3.33301 0.333008 -8.83301 1 -16.5s1 -13.5 1 -17.5
c0 -4.66699 -0.5 -10.334 -1.5 -17.001l-3.5 -24c-3.33301 -18.667 -5 -31.667 -5 -39c0 -2.66699 2 -9 6 -19c6.66699 -4.66699 31.334 -10.667 74.001 -18c37.333 -6.66699 64 -10 80 -10c42.667 0 69 12.333 79 37c2.66699 8.66699 7.33398 13 14.001 13
c14.667 0 27 -12.333 37 -37c8.66699 -19.333 13 -38 13 -56zM147.999 113.002c0 7.33301 -0.332031 11.333 -0.999023 12c-2.66699 2.66699 -13.334 4 -32.001 4c-34 0 -51 -12.667 -51 -38c0 -15.333 12.667 -23 38 -23c30.667 14.667 46 29.667 46 45z" />
    <glyph glyph-name="currency" unicode="&#xa4;" horiz-adv-x="592" 
d="M36 151l59.001 -58.998l56 56c34.667 -30.667 83 -46 145 -46c62.667 0 111.667 15.667 147 47l54 -56l58 58l-54 54c31.333 37.333 47 85.666 47 144.999c0 63.333 -15.667 110.666 -47 141.999l55 56l-64 64l-57 -55c-32.667 27.333 -79 41 -139 41
c-60.667 0 -108.334 -14.333 -143.001 -43l-55 55l-61 -61l54 -54c-30.667 -34.667 -46 -83 -46 -145c0 -60 15.333 -108.333 46 -145zM438.001 350.002c0 -41.333 -13.333 -76.333 -40 -105s-60.667 -43 -102 -43s-75.333 14.333 -102 43c-26 28.667 -39 63.667 -39 105
c0 40.667 13 75.667 39 105c26.667 28.667 60.667 43 102 43s75.333 -14.333 102 -43s40 -63.667 40 -105z" />
    <glyph glyph-name="brokenbar" unicode="&#xa6;" horiz-adv-x="500" 
d="M184 311h133v374h-133v-374zM184 -184h133v355h-133v-355z" />
    <glyph glyph-name="section" unicode="&#xa7;" horiz-adv-x="507" 
d="M472 30c0 -44 -29.998 -78.333 -89.998 -103c-38.667 -15.333 -69.334 -29.166 -92.001 -41.499s-37.667 -22.833 -45 -31.5c-22.667 22.667 -52.334 41.667 -89.001 57c-34 14.667 -68 22 -102 22l-9 -1.5c-6 -1 -15 -2.16699 -27 -3.5c30.667 42.667 46 74 46 94
c82 0 167.333 -31.333 256 -94c11.333 0 21.5 6 30.5 18s13.5 24 13.5 36c0 16.667 -29.667 36.667 -89 60l-67 26c-19.333 7.33301 -35.333 13.666 -48 18.999c-30.667 12 -48 19.333 -52 22c-60 32.667 -90 72 -90 118s39.333 84.333 118 115
c-28 11.333 -53.333 27.666 -76 48.999c-26.667 24.667 -40 50.334 -40 77.001c0 30 12.333 56 37 78c18 14.667 44 29.334 78 44.001c24 10.667 55.333 22.334 94 35.001l16 13c64 -46 126 -69 186 -69c-30.667 -30.667 -46 -62.334 -46 -95.001
c-7.33301 3.33301 -14 6.5 -20 9.5s-10.667 5.16699 -14 6.5c-5.33301 1.33301 -10.5 2.16602 -15.5 2.49902s-9.5 0.833008 -13.5 1.5c-28 5.33301 -52.333 13.333 -73 24c-25.333 13.333 -53 35.333 -83 66c-28.667 -4 -43 -20 -43 -48c0 -38 30 -67 90 -87l98.5 -32.5
l69.5 -22.5c6 -1.33301 15.667 -6.33301 29 -15c41.333 -25.333 62 -58.333 62 -99c0 -36 -10.333 -63 -31 -81c-12 -10 -39 -23.667 -81 -41c74.667 -18 112 -60.667 112 -128zM364.002 220c0 19.333 -30 42.668 -90 70.001l-110 49c-27.333 -11.333 -41 -27 -41 -47
c0 -38.667 63.333 -79.334 190 -122.001c34 4 51 20.667 51 50z" />
    <glyph glyph-name="copyright" unicode="&#xa9;" horiz-adv-x="716" 
d="M356 -26c-102 0 -187.001 34 -255.001 102s-102 153 -102 255c0 101.333 34.333 186.333 103 255c69.333 69.333 154 104 254 104c100.667 0 185.667 -34.667 255 -104s104 -154.333 104 -255c0 -101.333 -34.333 -186.333 -103 -255
c-69.333 -68 -154.666 -102 -255.999 -102zM355.999 612c-78.667 0 -145.333 -27.334 -200 -82.001c-54 -54 -81 -120.333 -81 -199c0 -80 26.667 -147.333 80 -202c53.333 -53.333 120.333 -80 201 -80c78.667 0 145 27.333 199 82c54.667 54.667 82 121.334 82 200.001
c0 80 -27 146.667 -81 200c-53.333 54 -120 81 -200 81zM386 420.999l-54 42.999c-3.33301 0 -6.5 -0.166992 -9.5 -0.5s-6.16699 -0.833008 -9.5 -1.5c-17.333 -44.667 -26 -89.667 -26 -135c0 -104 28.333 -156 85 -156c16 0 30.667 4.16699 44 12.5s20 20.166 20 35.499
c0 8.66699 -9.33301 22.334 -28 41.001c18.667 24 38.667 36 60 36c37.333 0 56 -19.667 56 -59c0 -37.333 -16.333 -66.333 -49 -87c-28 -18 -61.667 -27 -101 -27c-140.667 0 -211 62 -211 186c0 64.667 28.333 131.334 85 200.001c68.667 -1.33301 117 4 145 16l14.5 7.5
l10.5 5.5c44 -34 90 -62.333 138 -85l-144 -101c-34.667 0 -52 13 -52 39c0 16.667 8.66699 26.667 26 30z" />
    <glyph glyph-name="guillemotleft" unicode="&#xab;" horiz-adv-x="439" 
d="M231 439c-46.667 -108 -70 -168.667 -70 -182c0 -12 23.333 -72 70 -180h-122l-79 181l79 181h122zM422 439l-66 -157c-2 -5.33301 -3 -13.333 -3 -24c0 -10 23 -70.333 69 -181h-122l-80 181l80 181h122z" />
    <glyph glyph-name="logicalnot" unicode="&#xac;" horiz-adv-x="500" 
d="M354 -17h130v316h-468v-121h338v-195z" />
    <glyph glyph-name="minus" unicode="&#xad;" horiz-adv-x="519" 
d="M504 417c0 -22.667 -7 -47.332 -21 -73.999s-30.667 -43.667 -50 -51c-11.333 -4.66699 -35.333 -7 -72 -7c-17.333 0 -43.333 1 -78 3c-17.333 1.33301 -32.5 2.33301 -45.5 3s-23.833 1 -32.5 1c-68 0 -126.333 -5 -175 -15c-6.66699 7.33301 -12 14.666 -16 21.999
c17.333 72 40 113.333 68 124c10.667 4 78.334 6 203.001 6c11.333 0 25.166 0.5 41.499 1.5l56.5 3.5c44 4 77 6 99 6c14.667 0 22 -7.66699 22 -23z" />
    <glyph glyph-name="registered" unicode="&#xae;" horiz-adv-x="740" 
d="M362 -26c-102 0 -187.334 34 -256.001 102s-103 153 -103 255c0 100.667 34.667 185.667 104 255s154.333 104 255 104s185.667 -34.667 255 -104s104 -154.333 104 -255c0 -101.333 -34.333 -186.333 -103 -255c-69.333 -68 -154.666 -102 -255.999 -102zM361.999 612
c-78.667 0 -145.333 -27.334 -200 -82.001c-54 -54 -81 -120.333 -81 -199c0 -80 26.667 -147.333 80 -202c53.333 -53.333 120.333 -80 201 -80c78.667 0 145 27.333 199 82c54.667 54.667 82 121.334 82 200.001c0 80 -27 146.667 -81 200c-53.333 54 -120 81 -200 81z
M449 299.999c0.666992 -24 7.66797 -48 21.001 -72c15.333 -27.333 34 -41 56 -41c7.33301 0 12.666 1 15.999 3l12 18l24 -12c0 -25.333 -7.83301 -45.166 -23.5 -59.499s-36.167 -21.5 -61.5 -21.5c-97.333 0 -155.333 66.333 -174 199l-9 6v-149l13 -38h-155l15 39v335
l-16 34c12.667 -2.66699 22 -4.5 28 -5.5l9 -1.5c28 0 54.833 0.5 80.5 1.5s50.167 2.83301 73.5 5.5c11.333 1.33301 19.5 2.33301 24.5 3s6.83301 1 5.5 1h15c41.333 0 76 -10 104 -30c32 -23.333 48 -54.333 48 -93c0 -30.667 -10 -56.834 -30 -78.501
s-45.333 -36.167 -76 -43.5zM311.001 412.999c24 -3.33301 38.334 -6.33301 43.001 -9c8.66699 -5.33301 16.667 -17.333 24 -36c-19.333 0 -30 -3.66699 -32 -11c3.33301 -9.33301 12 -14 26 -14c16.667 0 30.5 7 41.5 21s16.5 29.667 16.5 47c0 16.667 -5 33 -15 49
c-11.333 19.333 -24.333 29 -39 29c-2.66699 0 -24.334 -1 -65.001 -3v-73z" />
    <glyph glyph-name="degree" unicode="&#xb0;" horiz-adv-x="333" 
d="M167 674c37.333 0 69.665 -13.002 96.998 -39.002s41 -58 41 -96c0 -37.333 -13.667 -69.666 -41 -96.999c-27.333 -26 -59.666 -39 -96.999 -39c-39.333 0 -72.333 13 -99 39c-26 26 -39 58.667 -39 98c0 38.667 13.333 70.334 40 95.001c26.667 26 59.334 39 98.001 39
zM166.999 610.998c-20 0 -37.499 -6.83398 -52.499 -20.501s-22.5 -30.5 -22.5 -50.5c0 -21.333 7.16699 -39 21.5 -53s32.166 -21 53.499 -21c20.667 0 38.167 7 52.5 21s21.5 31.333 21.5 52s-7.16699 37.834 -21.5 51.501s-31.833 20.5 -52.5 20.5z" />
    <glyph glyph-name="plusminus" unicode="&#xb1;" horiz-adv-x="512" 
d="M487 263h-197v-122h-68v122h-197v68h197v122h68v-122h197v-68zM487 19h-462v68h462v-68z" />
    <glyph glyph-name="mu1" unicode="&#xb5;" horiz-adv-x="1454" 
d="M1390 562c0 19.333 -6.16797 36.168 -18.501 50.501s-27.833 21.5 -46.5 21.5h-148c-24.667 0 -37 11.667 -37 35v131h-57v-131c0 -58.667 38.667 -88 116 -88c5.33301 0 11.833 0.166992 19.5 0.5s16.834 0.833008 27.501 1.5s20 1.16699 28 1.5s14.667 0.5 20 0.5
c27.333 0 41 -6.33301 41 -19c0 -14 -13.333 -21 -40 -21c-5.33301 0 -12 0.166992 -20 0.5s-17.667 0.833008 -29 1.5c-21.333 2 -37.333 3 -48 3c-76.667 0 -115 -32 -115 -96v-322c0 -46.667 24 -75.334 72 -86.001v56c-12.667 8 -19 22 -19 42v302c0 30 11.667 45 35 45
h146c19.333 0 36.333 7 51 21s22 30.667 22 50zM1003 136.002l0.00292969 94c0 28 -8.83301 49.667 -26.5 65s-40.834 23 -69.501 23h-246c-27.333 0 -41 12.333 -41 37v95c0 28.667 13.667 43 41 43h244c15.333 0 29.666 -7 42.999 -21h50
c-8.66699 50.667 -38.334 76 -89.001 76h-246c-30 0 -53.833 -9.5 -71.5 -28.5s-26.5 -43.5 -26.5 -73.5v-89c0 -28 8.33301 -50.333 25 -67s39 -25 67 -25h250c30 0 45 -15 45 -45v-76c0 -30 -20.333 -45 -61 -45h-250c-14.667 0 -22 7 -22 21c0 12 6.66699 18 20 18h270
v53h-279c-20 0 -35.833 -7 -47.5 -21s-17.5 -31.333 -17.5 -52c0 -20 6.66699 -36.667 20 -50s30 -20 50 -20h282c26 0 46.833 8.16699 62.5 24.5s23.5 37.5 23.5 63.5zM422.002 42.002c20 0 37.165 7.33301 51.498 22s21.5 32 21.5 52l1 684h-56l2 -682
c0 -4 -2 -8.5 -6 -13.5s-8 -7.5 -12 -7.5c-12.667 0 -19 7 -19 21v151c0 29.333 -10.333 54.333 -31 75l-179 177c-12.667 12.667 -30 19 -52 19c-20.667 0 -39 -6 -55 -18c-18 -13.333 -27 -30 -27 -50v-330c0 -64 29.333 -96 88 -96h82c42 0 67.667 24 77 72h-53
c-8 -10 -16.333 -17 -25 -21h-81c-23.333 0 -35 14.333 -35 43v310c0 5.33301 2.66699 16 8 32c4.66699 4 10.334 6 17.001 6c8.66699 0 17.667 -4.66699 27 -14l95 -93c56.667 -56 85.667 -87 87 -93c0.666992 -11.333 1.16699 -21.333 1.5 -30s0.5 -15.667 0.5 -21v-118
c0 -20.667 6.83301 -38.667 20.5 -54s30.834 -23 51.501 -23zM11 -38.998v839h1404v-839h-1404z" />
    <glyph glyph-name="paragraph" unicode="&#xb6;" horiz-adv-x="566" 
d="M264 237c-22 -4 -39.666 -6.00391 -52.999 -6.00391c-58 0 -105 21.667 -141 65c-34 40 -51 89.667 -51 149c0 148 99.667 222 299 222h231c-12 -17.333 -19.667 -36.666 -23 -57.999c-0.666992 -1.33301 -1.33398 -7.16602 -2.00098 -17.499l-3 -44.5l-37 -514
c-2 -27.333 -3 -43 -3 -47c0 -17.333 4.33301 -34.333 13 -51h-76v598h-42v-598h-76c4.66699 16.667 7 31.334 7 44.001v15c0 6.66699 -0.333008 15 -1 25l-11 333c10 18.667 15 35.667 15 51c0 23.333 -7.33301 42.5 -22 57.5s-33.667 22.5 -57 22.5s-42 -7.66699 -56 -23
s-21 -34.666 -21 -57.999c0 -24 7.16699 -43.5 21.5 -58.5s33.5 -22.5 57.5 -22.5c14 0 28.667 5 44 15z" />
    <glyph glyph-name="periodcentered" unicode="&#xb7;" horiz-adv-x="190" 
d="M33 297h124v-124h-124v124z" />
    <glyph glyph-name="guillemotright" unicode="&#xbb;" horiz-adv-x="439" 
d="M222 77c46 110.667 69 171.333 69 182c0 10 -23 70 -69 180h121l79 -181l-79 -181h-121zM30 76.999c46.667 111.333 70 171.333 70 180c0 10 -23.333 70.667 -70 182h122l80 -181l-80 -181h-122z" />
    <glyph glyph-name="afii10023" unicode="&#x401;" horiz-adv-x="667" 
d="M649 211c0 -36 -9.66504 -78.001 -28.998 -126.001c-22.667 -56.667 -49 -85 -79 -85h-476c-30.667 0 -46 10.667 -46 32c0 8 5.33301 19.333 16 34c14.667 20 22.667 31.333 24 34c9.33301 22 14 47.333 14 76l-1 461c0 29.333 -4.33301 52.333 -13 69
c-0.666992 1.33301 -2.83398 4.5 -6.50098 9.5l-15.5 21.5c-10.667 13.333 -16 24 -16 32c0 18.667 17.333 28 52 28c28.667 0 64.167 -0.166992 106.5 -0.5s92.166 0.166992 149.499 1.5c114 4 199.333 6 256 6c14.667 0 26 -18 34 -54c2.66699 -12.667 4.66699 -25 6 -37
s2 -24 2 -36c0 -30.667 -8.33301 -46 -25 -46c-7.33301 0 -19.666 8.33301 -36.999 25c-22.667 22 -42.667 37.667 -60 47c-29.333 16.667 -63 25 -101 25c-53.333 0 -88.333 -18 -105 -54c-10.667 -22 -16 -63.667 -16 -125c0 -14 3.33301 -24.333 10 -31
c10.667 30 31.667 54 63 72c28.667 16.667 60 25 94 25c28 0 53.333 -13.333 76 -40c23.333 -26.667 35 -53.667 35 -81c0 -18.667 -3.33301 -36 -10 -52s-15.834 -29.667 -27.501 -41s-25.5 -20.333 -41.5 -27s-33.333 -10 -52 -10l-5 11c7.33301 16.667 11 29.667 11 39
c0 10.667 -6 22.667 -18 36c-11.333 13.333 -22.333 20 -33 20c-72 0 -108 -72 -108 -216c0 -60 2.33301 -98 7 -114c10.667 -40.667 38 -61 82 -61c46 0 89.333 14.333 130 43c23.333 16.667 50.333 43.334 81 80.001c24 28.667 39.333 43 46 43
c5.33301 0 11 -4.33301 17 -13s9 -15.667 9 -21zM543.002 919.999c0 -10.667 -2.16699 -20.834 -6.5 -30.501s-10.166 -18 -17.499 -25s-15.833 -12.667 -25.5 -17s-19.834 -6.5 -30.501 -6.5s-21 2 -31 6s-18.833 9.5 -26.5 16.5s-13.834 15.167 -18.501 24.5
s-7 19.333 -7 30s2.16699 20.834 6.5 30.501s10.166 18 17.499 25s15.833 12.667 25.5 17s19.834 6.5 30.501 6.5s21 -2 31 -6s18.833 -9.5 26.5 -16.5s13.834 -15.167 18.501 -24.5s7 -19.333 7 -30zM313.002 919.999c0 -10.667 -2.16699 -20.834 -6.5 -30.501
s-10.166 -18 -17.499 -25s-15.833 -12.667 -25.5 -17s-19.834 -6.5 -30.501 -6.5s-21 2 -31 6s-18.833 9.5 -26.5 16.5s-13.834 15.167 -18.501 24.5s-7 19.333 -7 30s2.16699 20.834 6.5 30.501s10.166 18 17.499 25s15.833 12.667 25.5 17s19.834 6.5 30.501 6.5
s21 -2 31 -6s18.833 -9.5 26.5 -16.5s13.834 -15.167 18.501 -24.5s7 -19.333 7 -30z" />
    <glyph glyph-name="afii10053" unicode="&#x404;" horiz-adv-x="697" 
d="M262 424c2.66699 7.33301 7.16895 16.4922 13.502 27.4922s13.5 22 21.5 33s16.333 21.167 25 30.5s17 16.333 25 21c20 12 41.833 19 65.5 21s45.834 -1 66.501 -9s38 -21 52 -39s21 -41 21 -69c0 -18.667 -3.33301 -36 -10 -52s-15.834 -29.667 -27.501 -41
s-25.5 -20.333 -41.5 -27s-33.333 -10 -52 -10c6 10 8.83301 21.167 8.5 33.5s-2.83301 23.833 -7.5 34.5s-11.167 19.667 -19.5 27s-17.166 11 -26.499 11c-12.667 0 -24.5 -3.16699 -35.5 -9.5s-20.667 -15.166 -29 -26.499s-14.666 -24.666 -18.999 -39.999
s-6.16602 -32 -5.49902 -50c0.666992 -23.333 5.66699 -46.166 15 -68.499s21.333 -42.666 36 -60.999s31.667 -34.166 51 -47.499s39.333 -23 60 -29c30.667 -8 63 -12 97 -12h102c3.33301 0 8.16602 -2.33301 14.499 -7s9.5 -8.66699 9.5 -12
c0 -17.333 -33.333 -31 -100 -41c-49.333 -8 -92.333 -12 -129 -12c-130 0 -234.667 48.667 -314 146c-74 90.667 -111 202.667 -111 336c0 98 21.333 173.333 64 226c47.333 59.333 117.666 89 210.999 89h249c13.333 -0.666992 25 -1 35 -1h26
c15.333 0 23.333 -0.333008 24 -1c10 2 18.667 -1.83301 26 -11.5s13 -22.167 17 -37.5s6.83301 -32.5 8.5 -51.5s1.83398 -36.5 0.500977 -52.5s-3.83301 -29.5 -7.5 -40.5s-8.5 -16.5 -14.5 -16.5c-16.667 0 -30.834 3.66699 -42.501 11s-22.334 16.333 -32.001 27
s-19.334 22.334 -29.001 35.001s-20.834 24.334 -33.501 35.001s-27.5 19.334 -44.5 26.001s-37.833 10 -62.5 10c-28 -0.666992 -53 -8.5 -75 -23.5s-39.333 -38.5 -52 -70.5c-8.66699 -23.333 -16.167 -52.333 -22.5 -87s-6.83301 -76 -1.5 -124z" />
    <glyph glyph-name="uni0406" unicode="&#x406;" horiz-adv-x="351" 
d="M331 25c0 -5.33301 -4.5 -10.832 -13.5 -16.499s-16.5 -8.5 -22.5 -8.5h-236c-6.66699 0 -14.667 3 -24 9s-14 12 -14 18l23 60c5.33301 14 8.33301 22 9 24c10.667 32 16 61.333 16 88v446c0 28.667 -7.66699 57.667 -23 87s-23 45.333 -23 48c0 16 14.667 24 44 24h220
c28 0 42 -9.66699 42 -29c0 -2.66699 -8 -17.334 -24 -44.001c-15.333 -27.333 -23 -56 -23 -86l-1 -448c0 -32.667 4.33301 -62 13 -88c2 -7.33301 9 -22.333 21 -45c10.667 -20.667 16 -33.667 16 -39z" />
    <glyph glyph-name="afii10056" unicode="&#x407;" horiz-adv-x="351" 
d="M331 25c0 -5.33301 -4.5 -10.832 -13.5 -16.499s-16.5 -8.5 -22.5 -8.5h-236c-6.66699 0 -14.667 3 -24 9s-14 12 -14 18l23 60c5.33301 14 8.33301 22 9 24c10.667 32 16 61.333 16 88v446c0 28.667 -7.66699 57.667 -23 87s-23 45.333 -23 48c0 16 14.667 24 44 24h220
c28 0 42 -9.66699 42 -29c0 -2.66699 -8 -17.334 -24 -44.001c-15.333 -27.333 -23 -56 -23 -86l-1 -448c0 -32.667 4.33301 -62 13 -88c2 -7.33301 9 -22.333 21 -45c10.667 -20.667 16 -33.667 16 -39zM379 909.001c0 -10.667 -2.16699 -20.834 -6.5 -30.501
s-10.166 -18 -17.499 -25s-15.833 -12.667 -25.5 -17s-19.834 -6.5 -30.501 -6.5s-21 2 -31 6s-18.833 9.5 -26.5 16.5s-13.834 15.167 -18.501 24.5s-7 19.333 -7 30s2.16699 20.834 6.5 30.501s10.166 18 17.499 25s15.833 12.667 25.5 17s19.834 6.5 30.501 6.5
s21 -2 31 -6s18.833 -9.5 26.5 -16.5s13.834 -15.167 18.501 -24.5s7 -19.333 7 -30zM149 909.001c0 -10.667 -2.16797 -20.833 -6.50098 -30.5s-10.166 -18 -17.499 -25s-15.833 -12.667 -25.5 -17s-19.834 -6.5 -30.501 -6.5s-21 2 -31 6s-18.667 9.5 -26 16.5
s-13.333 15.167 -18 24.5s-7 19.333 -7 30c0 21.333 7.83301 39.833 23.5 55.5s34.167 23.5 55.5 23.5c10.667 0 21 -2 31 -6s18.833 -9.5 26.5 -16.5s13.834 -15.167 18.501 -24.5s7 -19.333 7 -30z" />
    <glyph glyph-name="afii10057" unicode="&#x408;" horiz-adv-x="391" 
d="M370 780c0 -2.66699 -5.33203 -12.667 -15.999 -30c-12.667 -22.667 -19.334 -34.667 -20.001 -36c-8 -19.333 -12 -47 -12 -83v-56c0 -22 0.333008 -48 1 -78s1.16699 -56 1.5 -78s0.5 -40.667 0.5 -56c0 -38 -1 -72 -3 -102
c-5.33301 -68 -39.666 -139.333 -102.999 -214c-64 -75.333 -129 -119.333 -195 -132l-12 4l-4 9l18 36c5.33301 10.667 10.666 19.667 15.999 27c54 78 81 168 81 270v364c0 52.667 -11 95.667 -33 129c-8 12 -12 21 -12 27c0 15.333 12.667 23 38 23h219
c23.333 0 35 -8 35 -24z" />
    <glyph glyph-name="afii10062" unicode="&#x40e;" horiz-adv-x="789" 
d="M479 195c-11.333 -24 -26.168 -49.667 -44.501 -77s-39 -51.5 -62 -72.5s-48 -36.5 -75 -46.5s-54.833 -9.66699 -83.5 1c-40.667 14.667 -67.334 39.667 -80.001 75c-12 31.333 -9.33301 68.333 8 111c11.333 30 28.666 48.667 51.999 56c8 0 13 -1.5 15 -4.5
s3 -7.5 3 -13.5v-21.5c0 -8.33301 2.33301 -17.5 7 -27.5c6 -14 14.333 -25 25 -33s22.334 -12.5 35.001 -13.5s26 2.16699 40 9.5s28 19.333 42 36c-13.333 32 -31 67 -53 105s-45.833 76.667 -71.5 116l-78 117l-71.5 108c-21.333 33.333 -38.666 63 -51.999 89
s-20 46 -20 60c0 21.333 16 32 48 32h212c4.66699 0 11.334 0.333008 20.001 1s15.334 1 20.001 1c26.667 0 40 -10.667 40 -32c0 -8.66699 -5 -23 -15 -43c-4.66699 -8.66699 -8.5 -16.334 -11.5 -23.001s-3.5 -12.667 -1.5 -18c10.667 -28 29.334 -67.333 56.001 -118
s59.667 -110 99 -178l47.5 99.5c14.333 30.333 24.166 52.166 29.499 65.499c8 22.667 13.833 41.834 17.5 57.501s6 29 7 40s1.5 20 1.5 27v19.5c0.666992 10.667 -1.5 21.667 -6.5 33s-9 21.833 -12 31.5s-3.16699 17.834 -0.5 24.501s11.667 10.667 27 12
c51.333 1.33301 90.666 2 117.999 2s45.5 -2.16699 54.5 -6.5s10.5 -11.333 4.5 -21s-16.333 -23.5 -31 -41.5c-15.333 -18 -33 -48 -53 -90l-64 -141l-70.5 -160c-24.333 -54.667 -48.5 -104 -72.5 -148zM395.998 878c-31.333 -0.666992 -61.6699 1.50195 -91.0029 6.50195
s-55.666 12.5 -78.999 22.5s-42 22.5 -56 37.5s-21 32.5 -21 52.5c0 26 5.16699 46.333 15.5 61s22.833 25 37.5 31s30.334 8.83301 47.001 8.5s31.334 -2.5 44.001 -6.5s22 -8.83301 28 -14.5s5.66699 -10.834 -1 -15.501c-9.33301 -5.33301 -16 -13.166 -20 -23.499
s-5.5 -21.166 -4.5 -32.499s4.5 -21.833 10.5 -31.5s14.667 -16.167 26 -19.5c20 -7.33301 41.333 -11 64 -11c23.333 0 45 3.66699 65 11c11.333 3.33301 20 9.83301 26 19.5s9.5 20.167 10.5 31.5s-0.5 22.166 -4.5 32.499s-10.667 18.166 -20 23.499
c-4.66699 3.33301 -3.66699 7.66602 3 12.999s16.334 9.83301 29.001 13.5s27 6 43 7s31.167 -1.5 45.5 -7.5s26.333 -16 36 -30s14.5 -34 14.5 -60c0 -20 -7 -37.5 -21 -52.5s-32.667 -27.5 -56 -37.5s-49.833 -17.5 -79.5 -22.5s-59.834 -7.16699 -90.501 -6.5h-1z" />
    <glyph glyph-name="afii10017" unicode="&#x410;" horiz-adv-x="801" 
d="M782 80c0 -40.667 -17.667 -65.9971 -53 -75.9971c-8 -2.66699 -43.667 -4 -107 -4c-17.333 0 -34 0.5 -50 1.5s-31.667 2.83301 -47 5.5l-10 19v2c-0.666992 6.66699 6.33301 19.334 21 38.001c15.333 19.333 23 32.666 23 39.999c0 66 -20.333 160 -61 282l-10 3
c-36.667 -57.333 -71.667 -86.666 -105 -87.999l-23 15c0.666992 7.33301 1.33398 13.666 2.00098 18.999s1.33398 10 2.00098 14c0.666992 -0.666992 0.666992 -1.33398 0 -2.00098c0 18 -7.16699 31.667 -21.5 41s-30.833 14 -49.5 14c-58 0 -102.667 -37.667 -134 -113
c-23.333 -58.667 -35 -122 -35 -190c0 -9.33301 5.66699 -23.666 17 -42.999c12 -18 18 -28.333 18 -31c0 -18 -26 -27 -78 -27c-23.333 0 -39.333 4.5 -48 13.5s-13 25.167 -13 48.5c0 50.667 19 131 57 241c6 17.333 16.667 45.833 32 85.5l60 156.5
c34.667 87.333 52 139.666 52 156.999c0 5.33301 -4.66699 16.666 -14 33.999s-14 28.333 -14 33c0 15.333 13.667 24.166 41 26.499s71.666 3.5 132.999 3.5h37c15.333 0 32.666 -0.333008 51.999 -1s36.333 -1 51 -1h37h42h16.5c5 0 9.16699 0.333008 12.5 1l21 -16
c0 -8.66699 -4 -21 -12 -37c-7.33301 -16.667 -11 -28.667 -11 -36c0 -24 14.667 -79.333 44 -166c49.333 -142 75.333 -218.667 78 -230c31.333 -103.333 47 -181 47 -233zM437 560.003c0 17.333 -9.66602 42.668 -28.999 76.001c-21.333 35.333 -39.333 53 -54 53
c-20.667 0 -46.334 -26 -77.001 -78c-29.333 -49.333 -44 -85.333 -44 -108c0 -6.66699 2.66699 -9.33398 8 -8.00098c40 42.667 79 64 117 64c6 0 17.667 -2.66699 35 -8c18 -5.33301 30 -8 36 -8c5.33301 0 8 5.66699 8 17z" />
    <glyph glyph-name="afii10018" unicode="&#x411;" horiz-adv-x="744" 
d="M482 218c0 49.333 -21.667 95.666 -65 138.999s-90 65 -140 65c-7.33301 0 -11 -18.333 -11 -55v-177c0 -29.333 6 -55.333 18 -78c14.667 -28 35.334 -42 62.001 -42c39.333 0 71.666 14.667 96.999 44c26 28.667 39 63.334 39 104.001zM472 795
c23.333 2.66699 45.1641 4.33301 65.4971 5s36.166 1 47.499 1c21.333 0 37 -25 47 -75c4 -18 7 -37.833 9 -59.5s3 -41.5 3 -59.5c0 -34.667 -10.667 -52 -32 -52c-8.66699 0 -20.334 11.333 -35.001 34c-13.333 17.333 -25.5 33.833 -36.5 49.5
s-22.833 29.334 -35.5 41.001s-27.5 21 -44.5 28s-38.5 11.167 -64.5 12.5c-54 0 -89.333 -18.333 -106 -55c-2 -3.33301 -4.66699 -11.833 -8 -25.5s-6.16602 -28.334 -8.49902 -44.001s-3.16602 -30.334 -2.49902 -44.001s4.33398 -22.5 11.001 -26.5
c28 -16 58.333 -29.333 91 -40l97 -32c32 -10.667 63 -22.167 93 -34.5s56.333 -28.166 79 -47.499s40.834 -43 54.501 -71s20.5 -62.667 20.5 -104c0 -62.667 -22.667 -111.667 -68 -147c-40.667 -32.667 -93.334 -49 -158.001 -49h-406l-22 20
c-2.66699 28.667 -4.5 61.667 -5.5 99s-1.5 79.333 -1.5 126s1 117 3 211c0.666992 23.333 1 42 1 56v35c0 9.33301 -0.166992 18 -0.5 26s-0.5 18 -0.5 30c0 18 -0.166992 35.333 -0.5 52s-2.5 30.667 -6.5 42c-2 5.33301 -8.66699 17.666 -20 36.999
c-9.33301 17.333 -14 29 -14 35c0 9.33301 19.333 15.5 58 18.5s97.334 4.5 176.001 4.5c4 0 9.83301 -0.166992 17.5 -0.5s15.834 -0.666016 24.501 -0.999023l27 -1c9.33301 -0.333008 18 -0.5 26 -0.5h26c22 0 55 2 99 6z" />
    <glyph glyph-name="afii10019" unicode="&#x412;" horiz-adv-x="740" 
d="M714 196c0 -62.667 -22.668 -111.668 -68.001 -147.001c-40.667 -32.667 -93.334 -49 -158.001 -49h-406l-22 20c-2.66699 28.667 -4.5 61.667 -5.5 99s-1.5 79.333 -1.5 126s1 117 3 211s3 164.333 3 211c0 17.333 -13.333 53.666 -40 108.999l2 10l17 11
c44.667 -2 92 -3 142 -3l344 3c46.667 0.666992 84.834 -12.166 114.501 -38.499s44.5 -62.5 44.5 -108.5s-15.667 -86.667 -47 -122c-8 -9.33301 -20.667 -21 -38 -35s-39.333 -30.667 -66 -50l27 -20.5c8.66699 -6.33301 17.334 -12.166 26.001 -17.499
c86 -56 129 -125.667 129 -209zM446.999 601.999c0 28.667 -5.66602 53.666 -16.999 74.999c-12.667 26.667 -32.334 40 -59.001 40c-68.667 0 -103 -52 -103 -156c0 -28 3.33301 -44 10 -48c6.66699 -3.33301 14.834 -7.16602 24.501 -11.499s21.167 -8.83301 34.5 -13.5
c28 -9.33301 47.333 -14 58 -14c15.333 0 28.666 17.667 39.999 53c8 26.667 12 51.667 12 75zM479 217.998c0 49.333 -21.667 95.666 -65 138.999s-90 65 -140 65c-7.33301 0 -11 -18.333 -11 -55v-177c0 -29.333 6 -55.333 18 -78c14.667 -28 35.334 -42 62.001 -42
c39.333 0 71.666 14.667 96.999 44c26 28.667 39 63.334 39 104.001z" />
    <glyph glyph-name="afii10020" unicode="&#x413;" horiz-adv-x="640" 
d="M271 538v-393.001c0 -26.667 7.66699 -53.334 23 -80.001s19.833 -44.167 13.5 -52.5s-14.166 -12.5 -23.499 -12.5h-223c-8.66699 0 -17.667 2.33301 -27 7c-12.667 4.66699 -19 10.667 -19 18c0 0.666992 7.66699 15.334 23 44.001s23 54 23 76v466
c0 36 -4 65.667 -12 89c-2 5.33301 -8.66699 17.666 -20 36.999c-9.33301 16.667 -14 28.334 -14 35.001c0 18.667 78 25.334 234 20.001c6.66699 0 15 -0.166992 25 -0.5s21.667 -0.833008 35 -1.5s25 -1 35 -1h26c22 0 55 2 99 6s77 6 99 6c20 0 36.667 -18.667 50 -56
c7.33301 -40 11 -79.667 11 -119c0 -38 -10.333 -57 -31 -57c-8.66699 0 -20.334 12.333 -35.001 37c-19.333 29.333 -38.333 51.333 -57 66c-32 24 -69.667 40 -113 48c-54 0 -89.333 -18.333 -106 -55c-10.667 -22 -16 -64.333 -16 -127z" />
    <glyph glyph-name="afii10021" unicode="&#x414;" horiz-adv-x="880" 
d="M145 0c-12 0 -30.3311 -11.666 -54.998 -34.999c-9.33301 -9.33301 -25.333 -30.333 -48 -63c-16 -23.333 -30.667 -35 -44 -35c-10 0 -16.333 6.16699 -19 18.5s-2.83398 27.833 -0.500977 46.5s6.66602 38.834 12.999 60.501s13.833 41.834 22.5 60.501
s18 34.167 28 46.5s19.667 18.5 29 18.5c12.667 4.66699 22.667 7.5 30 8.5s13.166 3.33301 17.499 7s8.16602 10.167 11.499 19.5s7.66602 25 12.999 47c6 26 12 54.333 18 85s11.5 62.167 16.5 94.5s9.66699 64 14 95s8 59.667 11 86s5.33301 48.833 7 67.5s2.5 32 2.5 40
c-1.33301 9.33301 -3.83301 19.166 -7.5 29.499s-10.167 21.5 -19.5 33.5s-16.166 22 -20.499 30s-7.16602 13.667 -8.49902 17c-2 15.333 8 23.666 30 24.999h376l140 1c25.333 0 37.666 -8 36.999 -24c0 -2 -1.83301 -6.16699 -5.5 -12.5l-15.5 -25.5
c-14 -20.667 -21.333 -40.334 -22 -59.001c-0.666992 -12.667 -0.5 -30.334 0.5 -53.001s2.5 -48.167 4.5 -76.5s4.33301 -58.666 7 -90.999s5.5 -65 8.5 -98l9 -97c3 -31.667 6.16699 -60.834 9.5 -87.501c1.33301 -14 3.33301 -25.333 6 -34s6.5 -15.167 11.5 -19.5
s11.167 -7.33301 18.5 -9s16.666 -2.5 27.999 -2.5c7.33301 0 14.833 -6 22.5 -18s14.667 -27.167 21 -45.5s11.5 -38.166 15.5 -59.499s6.33301 -41 7 -59s-0.833008 -33 -4.5 -45s-10.167 -18 -19.5 -18c-7.33301 0 -17.666 11.667 -30.999 35
c-9.33301 15.333 -17.666 28.5 -24.999 39.5s-14.666 19.833 -21.999 26.5c-25.333 22.667 -55.333 32 -90 28l-528 1v0zM514.002 385.001c-1.33301 48.667 -2.16602 90.002 -2.49902 124.002s-1.16602 62.167 -2.49902 84.5s-3.5 39.666 -6.5 51.999
s-8.16699 21.5 -15.5 27.5s-17 9.66699 -29 11s-27.333 2 -46 2s-33.834 -0.833008 -45.501 -2.5s-21.334 -6.33398 -29.001 -14.001s-13.834 -19.5 -18.501 -35.5s-9.66699 -38.333 -15 -67c-12 -63.333 -23 -128 -33 -194s-21.667 -134.667 -35 -206
c-1.33301 -5.33301 -2.16602 -11 -2.49902 -17s0.5 -11.667 2.5 -17s6 -9.83301 12 -13.5s15 -5.5 27 -5.5c25.333 0 55.5 -0.166992 90.5 -0.5s70.167 -0.166016 105.5 0.500977c20.667 0.666992 33.667 5.5 39 14.5s8.66602 23.5 9.99902 43.5
c2 24 1.83301 52.667 -0.5 86s-4.16602 75.666 -5.49902 126.999z" />
    <glyph glyph-name="afii10022" unicode="&#x415;" horiz-adv-x="667" 
d="M649 211c0 -36 -9.66602 -78.001 -28.999 -126.001c-22.667 -56.667 -49 -85 -79 -85h-476c-30.667 0 -46 10.667 -46 32c0 8 5.33301 19.333 16 34c14.667 20 22.667 31.333 24 34c9.33301 22 14 47.333 14 76l-1 457c0 29.333 -4.33301 52.333 -13 69
c-0.666992 1.33301 -2.83398 4.5 -6.50098 9.5l-15.5 21.5c-10.667 13.333 -16 24 -16 32c0 18.667 17.333 28 52 28c28.667 0 64.167 0.5 106.5 1.5l149.5 3.5c114 4 199.333 6 256 6c14.667 0 26 -18 34 -54c2.66699 -12.667 4.66699 -25 6 -37s2 -24 2 -36
c0 -30.667 -8.33301 -46 -25 -46c-7.33301 0 -19.666 8.33301 -36.999 25c-22.667 22 -42.667 37.667 -60 47c-29.333 16.667 -63 25 -101 25c-53.333 0 -88.333 -18 -105 -54c-10.667 -22 -16 -63.667 -16 -125c0 -14 3.33301 -24.333 10 -31c10.667 30 31.667 54 63 72
c28.667 16.667 60 25 94 25c28 0 53.333 -13.333 76 -40c23.333 -26.667 35 -53.667 35 -81c0 -18.667 -3.33301 -36 -10 -52s-15.834 -29.667 -27.501 -41s-25.5 -20.333 -41.5 -27s-33.333 -10 -52 -10l-5 11c7.33301 16.667 11 29.667 11 39c0 10.667 -6 22.667 -18 36
c-11.333 13.333 -22.333 20 -33 20c-72 0 -108 -72 -108 -216c0 -60 2.33301 -98 7 -114c10.667 -40.667 38 -61 82 -61c46 0 89.333 14.333 130 43c23.333 16.667 50.333 43.334 81 80.001c24 28.667 39.333 43 46 43c5.33301 0 11 -4.33301 17 -13s9 -15.667 9 -21z" />
    <glyph glyph-name="afii10024" unicode="&#x416;" horiz-adv-x="1148" 
d="M657 799c28.667 0 43 -8.66699 43 -26c-20.667 -38.667 -31.334 -58.667 -32.001 -60c-8.66699 -20 -13 -42.333 -13 -67v-151c0 -18 4 -27 12 -27c26.667 0 70.334 28.667 131.001 86c60.667 58 91 100.667 91 128c0 14.667 -7.33301 32.334 -22 53.001
c-14 20.667 -21 34 -21 40c0 7.33301 4.16699 13.333 12.5 18s16.5 7 24.5 7h170c6.66699 0 13 -2.5 19 -7.5s9 -10.833 9 -17.5c0 -28 -17.333 -60.667 -52 -98c-7.33301 -8 -19.166 -19.5 -35.499 -34.5l-62.5 -56.5c-34.667 -30.667 -52 -51 -52 -61
c0 -52 31.333 -140.667 94 -266c28 -54.667 54.167 -103.167 78.5 -145.5s47.833 -78.5 70.5 -108.5l-15 -11c-66.667 0 -155.334 57 -266.001 171c-22.667 24 -49 58 -79 102l-69 108c-6 9.33301 -11 14 -15 14c-15.333 0 -23 -33.333 -23 -100c0 -82 5 -145 15 -189
c0.666992 -5.33301 6.33398 -18.666 17.001 -39.999c10 -19.333 15 -31.666 15 -36.999c0 -4.66699 -2.83301 -9.66699 -8.5 -15s-10.834 -8 -15.501 -8h-226c-4.66699 0 -9.83398 2.66699 -15.501 8s-8.5 10.333 -8.5 15c0 5.33301 5 17.666 15 36.999
c10.667 21.333 16.334 34.666 17.001 39.999c10 44 15 107 15 189c0 66.667 -7.66699 100 -23 100c-4 0 -9 -4.66699 -15 -14l-69 -108c-30 -44 -56.333 -78 -79 -102c-110.667 -114 -199.334 -171 -266.001 -171l-15 11c22.667 30 46.167 66.167 70.5 108.5
s50.5 90.833 78.5 145.5c62.667 125.333 94 214 94 266c0 10 -17.333 30.333 -52 61l-62.5 56.5c-16.333 15 -28.166 26.5 -35.499 34.5c-34.667 37.333 -52 70 -52 98c0 6.66699 3 12.5 9 17.5s12.333 7.5 19 7.5h170c8 0 16.167 -2.33301 24.5 -7s12.5 -10.667 12.5 -18
c0 -6 -7 -19.333 -21 -40c-14.667 -20.667 -22 -38.334 -22 -53.001c0 -27.333 30.333 -70 91 -128c60.667 -57.333 104.334 -86 131.001 -86c8 0 12 9 12 27v151c0 24.667 -4.33301 47 -13 67c-0.666992 1.33301 -11.334 21.333 -32.001 60c0 17.333 14.333 26 43 26h184z
" />
    <glyph glyph-name="afii10025" unicode="&#x417;" horiz-adv-x="654" 
d="M414 196c0 36.667 -3.51367 67.6641 -10.5137 92.9971s-18 46.5 -33 63.5s-34.167 30.5 -57.5 40.5s-51.666 18 -84.999 24c-19.333 4 -30.666 8.5 -33.999 13.5s-1.16602 10.667 6.50098 17s19.5 12.833 35.5 19.5s33.667 13.667 53 21c23.333 5.33301 42.333 15 57 29
s25 30.167 31 48.5s7.66699 37.5 5 57.5s-9.66699 38.333 -21 55s-26.833 30.334 -46.5 41.001s-43.834 16 -72.501 16c-17.333 0 -32.166 -3.5 -44.499 -10.5s-26.166 -16.5 -41.499 -28.5c-7.33301 -5.33301 -16.166 -13.5 -26.499 -24.5s-22.5 -25.167 -36.5 -42.5
c-19.333 -23.333 -35.666 -35 -48.999 -35c-2 0 -4.16699 1.33301 -6.5 4s-4.5 6 -6.5 10s-3.66699 8.16699 -5 12.5s-2 7.83301 -2 10.5c0 18.667 0.833008 37.334 2.5 56.001s4.5 37.334 8.5 56.001c2.66699 14 6.33398 25.167 11.001 33.5s9.5 14.5 14.5 18.5
s10.167 6.66699 15.5 8s10 2 14 2c11.333 0 29.666 -2 54.999 -6c24 -4 42 -6 54 -6c9.33301 0 19.833 0.166992 31.5 0.5s27.167 1.16602 46.5 2.49902c38 2 66 3 84 3c36.667 0 68.334 -3.33301 95.001 -10s49.334 -14.667 68.001 -24s32.834 -23.166 42.501 -41.499
s15.167 -38.333 16.5 -60s-1.66699 -44.167 -9 -67.5s-18.333 -45 -33 -65s-33.167 -37 -55.5 -51s-48.166 -22.667 -77.499 -26c36 -0.666992 68.333 -8.66699 97 -24s53 -34.333 73 -57s35.333 -47.334 46 -74.001s16 -51.334 16 -74.001c0 -150 -104.667 -225 -314 -225
c-38 0 -75.167 2.33301 -111.5 7s-66.5 11.667 -90.5 21c-30.667 11.333 -54.334 26.333 -71.001 45s-27.667 38.834 -33 60.501s-5.16602 43.5 0.500977 65.5s15.834 41.833 30.501 59.5s33.334 32.167 56.001 43.5s48.334 17 77.001 17
c36.667 0 63.334 -10.333 80.001 -31c0 -7.33301 -7.33301 -15.333 -22 -24c-14.667 -8 -27.5 -19 -38.5 -33s-18.333 -28.667 -22 -44s-3 -30.833 2 -46.5s16.167 -29.5 33.5 -41.5c10.667 -8 23.834 -14.167 39.501 -18.5s31.5 -6.16602 47.5 -5.49902s31.167 4 45.5 10
s26.166 15 35.499 27c19.333 25.333 29 53.333 29 84z" />
    <glyph glyph-name="afii10026" unicode="&#x418;" 
d="M277 171c-0.666992 -18 5.66602 -44.332 18.999 -78.999c12.667 -32 19 -55 19 -69c0 -5.33301 -3.83301 -10.5 -11.5 -15.5s-14.167 -7.5 -19.5 -7.5h-201c-38.667 0 -58 8.66699 -58 26c0 -9.33301 0.666992 -14 2 -14c2.66699 0 6.33398 9.33301 11.001 28
c1.33301 6.66699 3 14.334 5 23.001l7 30c8.66699 42.667 15.167 77.834 19.5 105.501s6.5 48.167 6.5 61.5v227c0 105.333 -6.66699 181.666 -20 228.999c-0.666992 2 -2.33398 5.5 -5.00098 10.5s-6.66699 11.833 -12 20.5c-9.33301 17.333 -14 27.333 -14 30
c0 6 3.5 11.833 10.5 17.5s13.5 8.5 19.5 8.5h232c19.333 0 29 -10 29 -30c0 -6 -6 -19.333 -18 -40c-11.333 -21.333 -17 -39 -17 -53v-115c0 -17.333 1.66699 -30.333 5 -39s7.83301 -14.5 13.5 -17.5s12.167 -3.83301 19.5 -2.5s15.333 3.66602 24 6.99902
c16 6 33 14 51 24s34.667 20.167 50 30.5s27.666 20.5 36.999 30.5s13.666 18 12.999 24c-1.33301 10.667 -3.33301 23.334 -6 38.001s-7.66699 31.334 -15 50.001c-14 36.667 -21 58.667 -21 66c0 18.667 15.333 28 46 28h189c39.333 0 59 -9.66699 59 -29
c0 4 -0.666992 8 -2 12c-0.666992 -0.666992 -1.16699 -1.33398 -1.5 -2.00098s-0.833008 -1.33398 -1.5 -2.00098c-5.33301 -11.333 -12.333 -39.333 -21 -84c-9.33301 -46.667 -14 -75.334 -14 -86.001v-410c0 -26 7 -61.333 21 -106c14 -45.333 21 -71 21 -77
c0 -13.333 -26 -20 -78 -20h3h-101h-64c-33.333 -0 -50 6.33301 -50 19c26.667 59.333 40 99.666 40 120.999v223c-0.666992 18.667 -2.5 33 -5.5 43s-6.83301 17 -11.5 21s-10.167 5.66699 -16.5 5s-12.833 -2 -19.5 -4c-10.667 -3.33301 -22.167 -7.83301 -34.5 -13.5
s-24.666 -12 -36.999 -19s-24.166 -14.333 -35.499 -22s-21.333 -14.834 -30 -21.501c-4.66699 -4 -9 -8.16699 -13 -12.5s-7.33301 -10.166 -10 -17.499s-4.66699 -16.666 -6 -27.999s-1.66602 -26.333 -0.999023 -45z" />
    <glyph glyph-name="afii10027" unicode="&#x419;" 
d="M386 878c-31.333 -0.666992 -61.6699 1.50195 -91.0029 6.50195s-55.666 12.5 -78.999 22.5s-42 22.5 -56 37.5s-21 32.5 -21 52.5c0 26 5.16699 46.333 15.5 61s22.833 25 37.5 31s30.334 8.83301 47.001 8.5s31.334 -2.5 44.001 -6.5s22 -8.83301 28 -14.5
s5.66699 -10.834 -1 -15.501c-9.33301 -5.33301 -16 -13.166 -20 -23.499s-5.5 -21.166 -4.5 -32.499s4.5 -21.833 10.5 -31.5s14.667 -16.167 26 -19.5c20 -7.33301 41.333 -11 64 -11c23.333 0 45 3.66699 65 11c11.333 3.33301 20 9.83301 26 19.5s9.5 20.167 10.5 31.5
s-0.5 22.166 -4.5 32.499s-10.667 18.166 -20 23.499c-4.66699 3.33301 -3.66699 7.66602 3 12.999s16.334 9.83301 29.001 13.5s27 6 43 7s31.167 -1.5 45.5 -7.5s26.333 -16 36 -30s14.5 -34 14.5 -60c0 -20 -7 -37.5 -21 -52.5s-32.667 -27.5 -56 -37.5
s-49.833 -17.5 -79.5 -22.5s-59.834 -7.16699 -90.501 -6.5h-1zM276.996 171.002c-0.666992 -18 5.66602 -44.332 18.999 -78.999c12.667 -32 19 -55 19 -69c0 -5.33301 -3.83301 -10.5 -11.5 -15.5s-14.167 -7.5 -19.5 -7.5h-201c-38.667 0 -58 8.66699 -58 26
c0 -9.33301 0.666992 -14 2 -14c2.66699 0 6.33398 9.33301 11.001 28c1.33301 6.66699 3 14.334 5 23.001l7 30c8.66699 42.667 15.167 77.834 19.5 105.501s6.5 48.167 6.5 61.5v227c0 105.333 -6.66699 181.666 -20 228.999c-0.666992 2 -2.33398 5.5 -5.00098 10.5
s-6.66699 11.833 -12 20.5c-9.33301 17.333 -14 27.333 -14 30c0 6 3.5 11.833 10.5 17.5s13.5 8.5 19.5 8.5h232c19.333 0 29 -10 29 -30c0 -6 -6 -19.333 -18 -40c-11.333 -21.333 -17 -39 -17 -53v-115c0 -17.333 1.66699 -30.333 5 -39s7.83301 -14.5 13.5 -17.5
s12.167 -3.83301 19.5 -2.5s15.333 3.66602 24 6.99902c16 6 33 14 51 24s34.667 20.167 50 30.5s27.666 20.5 36.999 30.5s13.666 18 12.999 24c-1.33301 10.667 -3.33301 23.334 -6 38.001s-7.66699 31.334 -15 50.001c-14 36.667 -21 58.667 -21 66
c0 18.667 15.333 28 46 28h189c39.333 0 59 -9.66699 59 -29c0 4 -0.666992 8 -2 12c-0.666992 -0.666992 -1.16699 -1.33398 -1.5 -2.00098s-0.833008 -1.33398 -1.5 -2.00098c-5.33301 -11.333 -12.333 -39.333 -21 -84c-9.33301 -46.667 -14 -75.334 -14 -86.001v-410
c0 -26 7 -61.333 21 -106c14 -45.333 21 -71 21 -77c0 -13.333 -26 -20 -78 -20h3h-101h-64c-33.333 0 -50 6.33301 -50 19c26.667 59.333 40 99.666 40 120.999v223c-0.666992 18.667 -2.5 33 -5.5 43s-6.83301 17 -11.5 21s-10.167 5.66699 -16.5 5s-12.833 -2 -19.5 -4
c-10.667 -3.33301 -22.167 -7.83301 -34.5 -13.5s-24.666 -12 -36.999 -19s-24.166 -14.333 -35.499 -22s-21.333 -14.834 -30 -21.501c-4.66699 -4 -9 -8.16699 -13 -12.5s-7.33301 -10.166 -10 -17.499s-4.66699 -16.666 -6 -27.999s-1.66602 -26.333 -0.999023 -45z" />
    <glyph glyph-name="afii10028" unicode="&#x41a;" horiz-adv-x="755" 
d="M740 5l-15.001 -11.0049c-66.667 0 -155.334 57 -266.001 171c-22.667 24 -49 58 -79 102l-69 108c-6 9.33301 -11 14 -15 14c-15.333 0 -23 -33.333 -23 -100c0 -82 5 -145 15 -189c0.666992 -5.33301 6.33398 -18.666 17.001 -39.999c10 -19.333 15 -31.666 15 -36.999
c0 -4.66699 -2.83301 -9.66699 -8.5 -15s-10.834 -8 -15.501 -8h-194c-26 0 -40 14 -42 42c-0.666992 8.66699 -1.16699 19.834 -1.5 33.501s-0.5 29.834 -0.5 48.501c0 31.333 1 78 3 140c2 62.667 3 109.667 3 141c0 64.667 -0.166992 115.5 -0.5 152.5
s-0.833008 61.167 -1.5 72.5s-3.16699 24.333 -7.5 39s-10.166 30.667 -17.499 48c-14.667 35.333 -22 54 -22 56c0 17.333 14.667 26 44 26h216c28.667 0 43 -8.66699 43 -26c-20.667 -38.667 -31.334 -58.667 -32.001 -60c-8.66699 -20 -13 -42.333 -13 -67v-151
c0 -18 4 -27 12 -27c26.667 0 70.334 28.667 131.001 86c60.667 58 91 100.667 91 128c0 14.667 -7.33301 32.334 -22 53.001c-14 20.667 -21 34 -21 40c0 7.33301 4.16699 13.333 12.5 18s16.5 7 24.5 7h170c6.66699 0 13 -2.5 19 -7.5s9 -10.833 9 -17.5
c0 -28 -17.333 -60.667 -52 -98c-7.33301 -8 -19.166 -19.5 -35.499 -34.5l-62.5 -56.5c-34.667 -30.667 -52 -51 -52 -61c0 -52 31.333 -140.667 94 -266c28 -54.667 54.167 -103.167 78.5 -145.5s47.833 -78.5 70.5 -108.5z" />
    <glyph glyph-name="afii10029" unicode="&#x41b;" horiz-adv-x="801" 
d="M164 291c-23.333 -58.667 -34.9961 -121.996 -34.9961 -189.996c0 -16.667 4.16699 -31.334 12.5 -44.001s14 -23.167 17 -31.5s-0.333008 -14.666 -10 -18.999s-32.167 -6.5 -67.5 -6.5c-23.333 0 -39.333 4.5 -48 13.5s-13 25.167 -13 48.5c0 50.667 19 131 57 241
c6 17.333 16.667 45.833 32 85.5l60 156.5c34.667 87.333 52 139.666 52 156.999c0 5.33301 -4.66699 16.666 -14 33.999s-14 28.333 -14 33c0 15.333 13.667 24.166 41 26.499s71.666 3.5 132.999 3.5h37c15.333 0 32.666 -0.333008 51.999 -1s36.333 -1 51 -1h37h42h16.5
c5 0 9.16699 0.333008 12.5 1l21 -16c0 -8.66699 -4 -21 -12 -37c-7.33301 -16.667 -11 -28.667 -11 -36c0 -24 14.667 -79.333 44 -166c49.333 -142 75.333 -218.667 78 -230c31.333 -103.333 47 -181 47 -233c0 -40.667 -17.667 -66 -53 -76
c-8 -2.66699 -43.667 -4 -107 -4c-17.333 0 -34 0.5 -50 1.5s-31.667 2.83301 -47 5.5l-10 19v2c-0.666992 6.66699 6.33301 19.334 21 38.001c15.333 19.333 23 32.666 23 39.999c0 66 -20.333 160 -61 282c0 2.66699 -1.83301 10 -5.5 22s-8.33398 26.167 -14.001 42.5
l-18.5 53.5c-6.66699 19.333 -13.334 37.666 -20.001 54.999l-18.5 46.5c-5.66699 13.667 -10.167 23.167 -13.5 28.5c-21.333 35.333 -39.333 53 -54 53c-20.667 0 -46.334 -26 -77.001 -78c-7.33301 -12 -15.666 -29 -24.999 -51s-19 -47.167 -29 -75.5s-20 -59 -30 -92
s-19.667 -66.833 -29 -101.5z" />
    <glyph glyph-name="afii10030" unicode="&#x41c;" horiz-adv-x="866" 
d="M843 95c0 -36.667 -7.83203 -61.6689 -23.499 -75.002s-42.5 -20 -80.5 -20h-134l-38 27c0 8.66699 8 22.667 24 42c16.667 19.333 25 38.666 25 57.999c0 48 -6 123 -18 225c-12.667 116 -26 184 -40 204c-14 -9.33301 -32.667 -41 -56 -95l-42 -92
c-10.667 -22.667 -18 -37.667 -22 -45c-24.667 -46.667 -48 -70 -70 -70c-25.333 0 -56 35 -92 105l-29.5 56l-20.5 40c-28.667 54.667 -50.667 89.334 -66 104.001c-10.667 -17.333 -18.334 -92.333 -23.001 -225c-4 -91.333 -6 -172.666 -6 -243.999
c0 -8 6.33301 -19.667 19 -35c13.333 -15.333 20 -27 20 -35c0 -14.667 -22.667 -22 -68 -22c-29.333 0 -49.666 4.83301 -60.999 14.5s-17 28.834 -17 57.501c0 34 2.66699 75.667 8 125s13.333 107.333 24 174c22 132.667 33 232.334 33 299.001
c0 18.667 -7.66699 40.667 -23 66c-14.667 24.667 -22 40.667 -22 48c0 16 11 24 33 24h135c34.667 0 67.667 -22 99 -66c5.33301 -9.33301 9.83301 -17.5 13.5 -24.5l9.5 -18.5l42 -81c22.667 -44 43 -66 61 -66c12.667 0 29.667 22.667 51 68l37 81
c12.667 27.333 19.667 42 21 44c27.333 45.333 54.666 68 81.999 68h140c25.333 0 38 -8 38 -24c0 -4 -6.66699 -16.667 -20 -38c-12.667 -20.667 -19 -40.334 -19 -59.001c0 -64 12.667 -163.333 38 -298s38 -233.667 38 -297z" />
    <glyph glyph-name="afii10031" unicode="&#x41d;" 
d="M499 622c-3.33301 21.333 -12.001 50.667 -26.001 88c-14 36.667 -21 58.667 -21 66c0 18.667 15.333 28 46 28h189c30.667 0 49.334 -6 56.001 -18l-1 -1c0 -0.666992 -0.333008 -1.33398 -1 -2.00098c-5.33301 -11.333 -12.333 -39.333 -21 -84
c-9.33301 -45.333 -14 -74 -14 -86v-410c0 -26 7 -61.333 21 -106c14 -45.333 21 -71 21 -77c0 -13.333 -25 -20 -75 -20h-164c-33.333 0 -50 6.33301 -50 19c26.667 60 40 100.333 40 121v231c-32 -46.667 -62.667 -70.667 -92 -72l-21 14
c0.666992 7.33301 1.33398 13.333 2.00098 18s1.33398 8.66699 2.00098 12v1v1c-0.666992 20 -7.33398 34.667 -20.001 44s-26.167 13.166 -40.5 11.499s-27.166 -8.83398 -38.499 -21.501s-16 -30.667 -14 -54v-154c0 -19.333 6.33301 -45.666 19 -78.999
s19 -56.333 19 -69c0 -5.33301 -3.83301 -10.5 -11.5 -15.5s-14.167 -7.5 -19.5 -7.5h-201c-28 0 -46 4.33301 -54 13c2 3.33301 5 12.333 9 27c1.33301 6.66699 3 14.334 5 23.001l7 30c8.66699 42.667 15.167 77.834 19.5 105.501s6.5 48.167 6.5 61.5v227
c0 106.667 -6.66699 183 -20 229c-0.666992 4 -6.33398 14.333 -17.001 31c-9.33301 16.667 -14 26.667 -14 30c0 6 3.5 11.833 10.5 17.5s13.5 8.5 19.5 8.5h232c19.333 0 29 -10 29 -30c0 -6 -6 -19.333 -18 -40c-11.333 -20.667 -17 -38.334 -17 -53.001v-98v-17.5
c0 -10.333 0.166992 -21.333 0.5 -33s0.666016 -22.334 0.999023 -32.001s1.16602 -14.5 2.49902 -14.5h1c36.667 36.667 73.334 57.834 110.001 63.501s71 -3.16602 103 -26.499v100zM24.999 23.001c0 -7.33301 0.666016 -10.999 1.99902 -10.999
c0.666992 0 1.33398 0.333008 2.00098 1c-2.66699 3.33301 -4 6.66602 -4 9.99902zM745.998 775.002c0 5.33301 -0.666992 9.33301 -2 12l-1 -1c2 -3.33301 3 -7 3 -11z" />
    <glyph glyph-name="afii10032" unicode="&#x41e;" horiz-adv-x="800" 
d="M782 480c0 -124.667 -31.333 -232.668 -94 -324.001c-71.333 -104 -166.333 -156 -285 -156c-116.667 0 -211.334 48 -284.001 144c-66.667 86.667 -100 190.334 -100 311.001c0 133.333 31.333 226.333 94 279c56.667 46.667 153.334 70 290.001 70
c132.667 0 226.667 -20 282 -60c64.667 -46.667 97 -134.667 97 -264zM543 443.999c0 79.333 -6.00098 140.667 -18.001 184c-21.333 74 -61.666 111 -120.999 111c-100 0 -150 -96 -150 -288c0 -44 1.83301 -84.667 5.5 -122s9.16699 -71.333 16.5 -102
c24 -102 65.667 -153 125 -153c52 0 90.667 50.667 116 152c8.66699 34.667 15.167 70 19.5 106s6.5 73.333 6.5 112z" />
    <glyph glyph-name="afii10033" unicode="&#x41f;" horiz-adv-x="769" 
d="M364 789h58.998c10 0 21.667 0.333008 35 1s25 1.16699 35 1.5s18.333 0.5 25 0.5c156 5.33301 234 -1.33398 234 -20.001c0 -6.66699 -4.66699 -18.334 -14 -35.001c-11.333 -19.333 -18 -31.666 -20 -36.999c-8 -23.333 -12 -53 -12 -89v-466
c0 -22 7.66699 -47.333 23 -76s23 -43.334 23 -44.001c0 -7.33301 -6.33301 -13.333 -19 -18c-9.33301 -4.66699 -18.333 -7 -27 -7h-223c-9.33301 0 -17.166 4.16699 -23.499 12.5s-1.83301 25.833 13.5 52.5s23 53.334 23 80.001v393c0 62.667 -5.33301 105 -16 127
c-16.667 36.667 -47.667 55 -93 55c-48 0 -80.333 -18.333 -97 -55c-10.667 -22 -16 -64.333 -16 -127v-393c0 -26.667 7.66699 -53.334 23 -80.001s19.833 -44.167 13.5 -52.5s-14.166 -12.5 -23.499 -12.5h-223c-8.66699 0 -17.667 2.33301 -27 7
c-12.667 4.66699 -19 10.667 -19 18c0 0.666992 7.66699 15.334 23 44.001s23 54 23 76v466c0 36 -4 65.667 -12 89c-2 5.33301 -8.66699 17.666 -20 36.999c-9.33301 16.667 -14 28.334 -14 35.001c0 18.667 78 25.334 234 20.001c6.66699 0 15 -0.166992 25 -0.5
s21.667 -0.833008 35 -1.5s25 -1 35 -1h17z" />
    <glyph glyph-name="afii10034" unicode="&#x420;" horiz-adv-x="722" 
d="M271 802l112.001 -0.000976562c36.667 0 74 -0.333008 112 -1c140.667 -2 210 -60 208 -174c-0.666992 -71.333 -33 -130.333 -97 -177c-58 -42.667 -124 -63.667 -198 -63c-20 0 -42.333 3.33301 -67 10c-33.333 8.66699 -49.666 19 -48.999 31c0 11.333 8 17.333 24 18
l-3 -1h40c32.667 -0.666992 58.667 12 78 38c18 22.667 27.333 51.334 28 86.001c0 37.333 -5.33301 70.333 -16 99c-14.667 37.333 -38.334 56.333 -71.001 57c-46 0 -77.667 -21.667 -95 -65c-10.667 -27.333 -16 -69 -16 -125l1 -227c0 -30 0.166992 -54 0.5 -72
s0.833008 -30.667 1.5 -38c1.33301 -24.667 3.66602 -46.167 6.99902 -64.5s7.33301 -33.166 12 -44.499c0.666992 -2.66699 7.33398 -14 20.001 -34c10.667 -14.667 16 -25.334 16 -32.001l-29 -23h-180c-24.667 -0 -40.334 11.333 -47.001 34c-4 12.667 -6 34 -6 64v518
c0 38 -4.33301 66.667 -13 86c-0.666992 1.33301 -2.83398 5.33301 -6.50098 12l-15.5 27c-10.667 17.333 -16 29.333 -16 36c0 14 13 21.667 39 23c98.667 0 173.334 0.666992 224.001 2h2z" />
    <glyph glyph-name="afii10035" unicode="&#x421;" horiz-adv-x="697" 
d="M683 688c0 -48 -17.3291 -90.665 -51.9961 -127.998c-35.333 -37.333 -76 -56 -122 -56c-17.333 0 -36 4.33301 -56 13c-25.333 10 -38 21.333 -38 34c0 10.667 6.66699 19.667 20 27c11.333 6.66699 20.166 11.667 26.499 15l11.5 6c13.333 11.333 20 27 20 47
c0 12 -2.5 23.167 -7.5 33.5s-11.833 19.166 -20.5 26.499s-18.667 13 -30 17s-23.333 6 -36 6c-54 0 -93.333 -31.333 -118 -94c-17.333 -46 -26 -100.333 -26 -163c0 -116 20 -208.333 60 -277c50 -86.667 129 -130 237 -130c10 0 25 1 45 3
c10.667 1.33301 19.667 2.33301 27 3s13.666 1 18.999 1c3.33301 0 8.16602 -2.33301 14.499 -7s9.5 -8.66699 9.5 -12c0 -17.333 -33.333 -31 -100 -41c-49.333 -8 -92.333 -12 -129 -12c-130 0 -234.667 48.667 -314 146c-74 90.667 -111 202.667 -111 336
c0 97.333 21.333 172.666 64 225.999c47.333 59.333 117.666 89 210.999 89h275c80 0 120 -36.333 120 -109z" />
    <glyph glyph-name="afii10036" unicode="&#x422;" horiz-adv-x="719" 
d="M705 630c0 -42.667 -7.66797 -63.999 -23.001 -63.999c-7.33301 0 -18 11.667 -32 35c-18.667 31.333 -35 53.333 -49 66c-26.667 23.333 -57.334 35 -92.001 35c-26.667 0 -40 -19.667 -40 -59v-470c0 -32.667 14.667 -76.667 44 -132l5 -10l3 -4
c0.666992 -0.666992 1 -1.33398 1 -2.00098c0 -6 -4.66699 -11.667 -14 -17s-17.333 -8 -24 -8h-233c-15.333 0 -26.666 5.66699 -33.999 17c4 10.667 8 20.667 12 30s7.66699 18.333 11 27c16 36.667 24 70.334 24 101.001l-1 468c0 7.33301 -6.66699 18.666 -20 33.999
s-24 23 -32 23c-33.333 0 -61.666 -11.667 -84.999 -35c-8.66699 -8.66699 -24 -30 -46 -64c-15.333 -23.333 -29.333 -35 -42 -35c-16 0 -24 21.333 -24 64c0 33.333 6.66699 67 20 101c16.667 42.667 39 64 67 64h530c23.333 0 42.333 -22.333 57 -67
c11.333 -36 17 -68.667 17 -98z" />
    <glyph glyph-name="afii10037" unicode="&#x423;" horiz-adv-x="803" 
d="M490 195c-11.333 -24 -26.168 -49.667 -44.501 -77s-39 -51.5 -62 -72.5s-48 -36.5 -75 -46.5s-54.833 -9.66699 -83.5 1c-40.667 14.667 -67.334 39.667 -80.001 75c-12 31.333 -9.33301 68.333 8 111c11.333 30 28.666 48.667 51.999 56c8 0 13 -1.5 15 -4.5
s3 -7.5 3 -13.5v-21.5c0 -8.33301 2.33301 -17.5 7 -27.5c6 -14 14.333 -25 25 -33s22.334 -12.5 35.001 -13.5s26 2.16699 40 9.5s28 19.333 42 36c-13.333 32 -31 67 -53 105s-45.833 76.667 -71.5 116l-78 117l-71.5 108c-21.333 33.333 -38.666 63 -51.999 89
s-20 46 -20 60c0 21.333 16 32 48 32h212c4.66699 0 11.334 0.333008 20.001 1s15.334 1 20.001 1c26.667 0 40 -10.667 40 -32c0 -8.66699 -5 -23 -15 -43c-4.66699 -8.66699 -8.5 -16.334 -11.5 -23.001s-3.5 -12.667 -1.5 -18c10.667 -28 29.334 -67.333 56.001 -118
s59.667 -110 99 -178l47.5 99.5c14.333 30.333 24.166 52.166 29.499 65.499c8 22.667 13.833 41.834 17.5 57.501s6 29 7 40s1.5 20 1.5 27v19.5c0.666992 10.667 -1.5 21.667 -6.5 33s-9 21.833 -12 31.5s-3.16699 17.834 -0.5 24.501s11.667 10.667 27 12
c51.333 1.33301 90.666 2 117.999 2s45.5 -2.16699 54.5 -6.5s10.5 -11.333 4.5 -21s-16.333 -23.5 -31 -41.5c-15.333 -18 -33 -48 -53 -90l-64 -141l-70.5 -160c-24.333 -54.667 -48.5 -104 -72.5 -148z" />
    <glyph glyph-name="afii10038" unicode="&#x424;" horiz-adv-x="1092" 
d="M427 -1c-6 0 -13.502 2.83203 -22.502 8.49902s-13.5 11.167 -13.5 16.5s5.33301 18.333 16 39c12 22.667 19 37.667 21 45c8.66699 25.333 13 54.666 13 87.999l-1 383c-41.333 10.667 -74.333 11 -99 1s-43.834 -26.5 -57.501 -49.5s-22.5 -50.5 -26.5 -82.5
s-5.33301 -65 -4 -99c1.33301 -22.667 5.16602 -44.167 11.499 -64.5s15.833 -37.333 28.5 -51s28.667 -23.167 48 -28.5s43 -4.66602 71 2.00098l-2 2c7.33301 0 12.833 -2 16.5 -6s6.16699 -9 7.5 -15c-0.666992 -7.33301 -5.66699 -14.166 -15 -20.499
s-20.333 -11.833 -33 -16.5s-25.167 -8.33398 -37.5 -11.001s-21.833 -3.66699 -28.5 -3c-51.333 -4 -96.166 0.333008 -134.499 13s-70 31.334 -95 56.001s-43.167 54.5 -54.5 89.5s-15.666 72.833 -12.999 113.5c-2 43.333 3.16699 80 15.5 110s29.5 54.667 51.5 74
s47.5 33.666 76.5 42.999s59.167 15 90.5 17s62.833 1.16699 94.5 -2.5s61.167 -9.16699 88.5 -16.5v6c0 15.333 -2 30.833 -6 46.5s-9.66699 30.167 -17 43.5c-16 26.667 -24 41.334 -24 44.001c0 19.333 14 29 42 29h220c28 0 42 -9.66699 42 -29
c0 -2.66699 -8 -17.334 -24 -44.001c-7.33301 -13.333 -13 -27.833 -17 -43.5s-6 -31.167 -6 -46.5v-6c26.667 7.33301 55.834 12.833 87.501 16.5s63.334 4.5 95.001 2.5s61.834 -7.66699 90.501 -17s54 -23.666 76 -42.999s39.167 -44 51.5 -74s17.833 -66.667 16.5 -110
c0.666992 -39.333 -5.5 -76.5 -18.5 -111.5s-32.333 -65.167 -58 -90.5s-57.167 -44.5 -94.5 -57.5s-79.333 -17.167 -126 -12.5c-6.66699 -0.666992 -16.167 0.333008 -28.5 3s-24.833 6.33398 -37.5 11.001s-23.667 10.167 -33 16.5s-14.333 13.166 -15 20.499
c1.33301 6 3.83301 11 7.5 15s9.16699 6 16.5 6l-2 -2c28 -6.66699 51.667 -7.33398 71 -2.00098s35.333 14.833 48 28.5s22.167 30.667 28.5 51s10.166 41.833 11.499 64.5c0.666992 34 -1 67 -5 99s-12.667 59.5 -26 82.5s-32.5 39.5 -57.5 49.5s-57.833 9.66699 -98.5 -1
l-1 -383c0 -33.333 4.33301 -62.666 13 -87.999c2 -7.33301 9 -22.333 21 -45c10.667 -20.667 16 -33.667 16 -39s-4.5 -10.833 -13.5 -16.5s-16.5 -8.5 -22.5 -8.5h-236z" />
    <glyph glyph-name="afii10039" unicode="&#x425;" horiz-adv-x="812" 
d="M792 49l-14.0029 -35.002c-11.333 -9.33301 -36.666 -14 -75.999 -14h-191l-25 17l-4 15c0 6.66699 4.66699 16.667 14 30c10 12.667 15 22 15 28c0 40.667 -61 120.667 -183 240l-14 -2c-14.667 -12.667 -29.5 -27.667 -44.5 -45s-30.5 -37 -46.5 -59
c-38 -52 -57 -91 -57 -117c0 -10 6.33301 -23.333 19 -40s19 -29 19 -37c0 -20.667 -25.333 -31 -76 -31h-24c-13.333 0 -32.666 0.333008 -57.999 1l-21 22c0 44 18 93 54 147c6.66699 10 18.334 25.5 35.001 46.5l66 79.5l42 49l46 54c-3.33301 8.66699 -14 24 -32 46
l-16.5 19l-21.5 24c-118.667 128.667 -178 216.334 -178 263.001c0 20 8.66699 37 26 51c56 2 140.333 3 253 3l17 -23c0 -9.33301 -3.33301 -21 -10 -35c-6 -15.333 -9 -26.666 -9 -33.999c0 -14.667 18.333 -43.334 55 -86.001c36.667 -42 62 -63.667 76 -65
c21.333 6.66699 51.666 30.667 90.999 72s59 72.333 59 93c0 4 -0.833008 8.83301 -2.5 14.5s-3.5 11.5 -5.5 17.5s-3.83301 11.833 -5.5 17.5s-2.5 10.5 -2.5 14.5l17 14c19.333 1.33301 36.333 2.33301 51 3s27.334 1 38.001 1c28.667 0 52 -2.33301 70 -7
c10.667 -12 16.667 -25 18 -39c-9.33301 -14.667 -26.166 -34 -50.499 -58s-56.5 -53.333 -96.5 -88c-74 -63.333 -115.667 -106.666 -125 -129.999l175 -214c77.333 -94 121.666 -168.333 132.999 -223z" />
    <glyph glyph-name="afii10040" unicode="&#x426;" horiz-adv-x="902" 
d="M581 1l0.000976562 1.99902c-3.33301 -0.666992 -6.66602 -1 -9.99902 -1h-10c-44 -2.66699 -84 -3.66699 -120 -3s-68.333 1 -97 1c-95.333 0 -172.333 27.333 -231 82c-62.667 56 -94 130.667 -94 224c0 44.667 11 109.667 33 195c22.667 86 34 147 34 183
c0 26.667 -9.66699 51.667 -29 75l19 35c21.333 2.66699 47.5 4.66699 78.5 6s67.5 2 109.5 2h30l29 -21c0 -39.333 -9.66699 -103.333 -29 -192s-29 -152.667 -29 -192c0 -220 63.333 -330 190 -330c50.667 0 76 45.333 76 136c0 6.66699 -0.5 17.667 -1.5 33
s-1.5 29 -1.5 41v107v37c0 11.333 -0.333008 22.333 -1 33c-4 159.333 -29.667 261 -77 305c0 32 29 48 87 48c6.66699 0 16.5 -0.333008 29.5 -1s22.5 -1 28.5 -1l97 -1c28.667 -16.667 43 -83 43 -199c0 -7.33301 -0.166992 -19 -0.5 -35s-0.833008 -32.667 -1.5 -50
s-1.16699 -34 -1.5 -50s-0.5 -27.667 -0.5 -35c0 -108 1 -176 3 -204c2 -30.667 5.16699 -58.5 9.5 -83.5s10.166 -45.833 17.499 -62.5c38 2 62 1.66699 72 -1c14 -5.33301 26 -18.333 36 -39c8.66699 -16 14 -34 16 -54c4.66699 -41.333 -5.33301 -77.333 -30 -108
c-25.333 -31.333 -58.666 -49.666 -99.999 -54.999c-18 -2 -36 -1.33301 -54 2c-24.667 4 -37.334 13 -38.001 27c-0.666992 4.66699 4.66602 11.667 15.999 21c8.66699 7.33301 15.5 13.333 20.5 18s8.83301 8.66699 11.5 12c10.667 12.667 15 27.667 13 45
c-3.33301 28.667 -18.333 45.667 -45 51c-15.333 4 -40 3.66699 -74 -1c-0.666992 0 -3 -0.166992 -7 -0.5s-9.66699 -0.833008 -17 -1.5z" />
    <glyph glyph-name="afii10041" unicode="&#x427;" horiz-adv-x="777" 
d="M495 199l-0.999023 86.001c-22 -6.66699 -50.167 -11.667 -84.5 -15s-70.5 -3.66602 -108.5 -0.999023s-75.5 9.33398 -112.5 20.001s-69.167 26.667 -96.5 48s-47.5 49 -60.5 83s-14.5 75.667 -4.5 125c6.66699 28 12.667 55.167 18 81.5s8 46.166 8 59.499
c0 12.667 -3.83301 24.334 -11.5 35.001s-14.334 20.5 -20.001 29.5s-8 17.333 -7 25s10.5 15.167 28.5 22.5c21.333 2.66699 47.5 4.66699 78.5 6s67.5 2 109.5 2h30c11.333 0.666992 19 -2.83301 23 -10.5s5.5 -18.5 4.5 -32.5s-3.66699 -30.333 -8 -49l-13.5 -61
c-14 -59.333 -19.667 -109.166 -17 -149.499s11.667 -73 27 -98s35.833 -43 61.5 -54s54.5 -16.5 86.5 -16.5c50.667 0 76 45.333 76 136c-2 79.333 -9.5 141.666 -22.5 186.999s-31.167 79 -54.5 101c0 32 29 48 87 48c6.66699 0 16.5 -0.333008 29.5 -1s22.5 -1 28.5 -1
l97 -1c14 0 24.167 -4.83301 30.5 -14.5s10.333 -23.334 12 -41.001s2.16699 -38.834 1.5 -63.501s-1 -51.334 -1 -80.001c0 -7.33301 -0.166992 -19 -0.5 -35s-0.833008 -32.667 -1.5 -50s-1.16699 -34 -1.5 -50s-0.5 -27.667 -0.5 -35c0 -108 1 -176 3 -204
c0 -55.333 4.33301 -96 13 -122c2 -7.33301 9 -22.333 21 -45c10.667 -20.667 16 -33.667 16 -39s-4.5 -10.833 -13.5 -16.5s-16.5 -8.5 -22.5 -8.5h-237c-6.66699 0 -14.667 3 -24 9s-14 12 -14 18l23 60c5.33301 14 8.33301 22 9 24c10.667 32 16 61.333 16 88z" />
    <glyph glyph-name="afii10042" unicode="&#x428;" horiz-adv-x="1220" 
d="M1155 1c-2.66699 -0.666992 -13.1641 -1.15918 -31.4971 -1.49219s-41.5 -0.5 -69.5 -0.5h-95c-35.333 0 -71.333 0.166992 -108 0.5l-108 1c-35.333 0.333008 -67.166 0.666016 -95.499 0.999023s-51.833 0.5 -70.5 0.5h-32c-44 -2.66699 -81.333 -3.66699 -112 -3
s-60.334 1 -89.001 1c-95.333 0 -172.333 27.333 -231 82c-62.667 56 -94 130.667 -94 224c0 44.667 11 109.667 33 195l28 111.5c7.33301 30.333 9.33301 54.166 6 71.499c-2 11.333 -7.33301 22.833 -16 34.5s-15.834 22.5 -21.501 32.5s-7.33398 18.667 -5.00098 26
s13.166 13 32.499 17c21.333 2.66699 47.5 4.66699 78.5 6s67.5 2 109.5 2h30c14 0.666992 22.833 -6 26.5 -20s4.33398 -31.667 2.00098 -53s-6.5 -44.5 -12.5 -69.5s-11.333 -48.5 -16 -70.5c-19.333 -88.667 -29 -152.667 -29 -192c0 -110 13.167 -192.5 39.5 -247.5
s71.166 -82.5 134.499 -82.5c50.667 0 76 45.333 76 136c0 6.66699 -0.5 17.667 -1.5 33s-1.5 29 -1.5 41v107v26.5v48v58.5v57.5c0 17.667 -0.166992 33.167 -0.5 46.5s-0.5 21.666 -0.5 24.999c0 28.667 -7.66699 57.667 -23 87s-23 45.333 -23 48c0 16 14.667 24 44 24
h214c28 0 42 -9.66699 42 -29c0 -2.66699 -8 -17.334 -24 -44.001c-15.333 -27.333 -23 -56 -23 -86c0 -18 -0.166992 -40.667 -0.5 -68s-0.666016 -56.5 -0.999023 -87.5l-1 -94.5c-0.333008 -32 -0.5 -61.167 -0.5 -87.5v-67.5v-35c0 -90.667 26.333 -136 79 -136h62
c25.333 0 45.666 11.833 60.999 35.5s23 58.5 23 104.5c0 6.66699 0.333008 16.167 1 28.5s1 24.5 1 36.5v107v37c0 11.333 -0.333008 22.333 -1 33c-4 159.333 -29.667 261 -77 305c0 32 29 48 87 48c6.66699 0 16.5 -0.333008 29.5 -1s22.5 -1 28.5 -1l97 -1
c12.667 0 22 -4.83301 28 -14.5s10.167 -23.334 12.5 -41.001s3.33301 -38.834 3 -63.501s-0.5 -51.334 -0.5 -80.001c0 -7.33301 -0.166992 -19 -0.5 -35s-0.833008 -32.667 -1.5 -50s-1.16699 -34 -1.5 -50s-0.5 -27.667 -0.5 -35c0 -27.333 0.166992 -55.5 0.5 -84.5
s0.666016 -56.5 0.999023 -82.5s0.833008 -48.667 1.5 -68s1.33398 -32.333 2.00098 -39c0 -30 7.66699 -58.333 23 -85c16 -26.667 24 -41.334 24 -44.001c0 -19.333 -14 -29 -42 -29z" />
    <glyph glyph-name="afii10043" unicode="&#x429;" horiz-adv-x="1321" 
d="M294 589c-19.333 -88.667 -28.9961 -152.664 -28.9961 -191.997c0 -110 13.167 -192.5 39.5 -247.5s71.166 -82.5 134.499 -82.5c50.667 0 76 45.333 76 136c0 6.66699 -0.5 17.667 -1.5 33s-1.5 29 -1.5 41v107v26.5v48v58.5v57.5c0 17.667 -0.166992 33.167 -0.5 46.5
s-0.5 21.666 -0.5 24.999c0 28.667 -7.66699 57.667 -23 87s-23 45.333 -23 48c0 16 14.667 24 44 24h214c28 0 42 -9.66699 42 -29c0 -2.66699 -8 -17.334 -24 -44.001c-15.333 -27.333 -23 -56 -23 -86c0 -18 -0.166992 -40.667 -0.5 -68s-0.666016 -56.5 -0.999023 -87.5
l-1 -94.5c-0.333008 -32 -0.5 -61.167 -0.5 -87.5v-67.5v-35c0 -90.667 26.333 -136 79 -136h62c25.333 0 45.666 11.833 60.999 35.5s23 58.5 23 104.5c0 6.66699 0.333008 16.167 1 28.5s1 24.5 1 36.5v107v37c0 11.333 -0.333008 22.333 -1 33
c-4 159.333 -29.667 261 -77 305c0 32 29 48 87 48c6.66699 0 16.5 -0.333008 29.5 -1s22.5 -1 28.5 -1l97 -1c28.667 -16.667 43 -83 43 -199c0 -7.33301 -0.166992 -19 -0.5 -35s-0.833008 -32.667 -1.5 -50s-1.16699 -34 -1.5 -50s-0.5 -27.667 -0.5 -35
c0 -108 1 -176 3 -204c2 -30.667 5.16699 -58.5 9.5 -83.5s10.166 -45.833 17.499 -62.5c38 2 62 1.66699 72 -1c14 -5.33301 26 -18.333 36 -39c8.66699 -16 14 -34 16 -54c4.66699 -41.333 -5.33301 -77.333 -30 -108c-25.333 -31.333 -58.666 -49.666 -99.999 -54.999
c-18 -2 -36 -1.33301 -54 2c-24.667 4 -37.334 13 -38.001 27c-0.666992 4.66699 4.66602 11.667 15.999 21c8.66699 7.33301 15.5 13.333 20.5 18s8.83301 8.66699 11.5 12c10.667 12.667 15 27.667 13 45c-3.33301 28.667 -18.333 45.667 -45 51
c-15.333 4 -40 3.66699 -74 -1c-2 -0.666992 -14.167 -1 -36.5 -1h-82c-32.333 0 -67.333 0.166992 -105 0.5s-73 0.666016 -106 0.999023s-61.167 0.666016 -84.5 0.999023s-36.666 0.5 -39.999 0.5c-3.33301 -0.666992 -6.66602 -1 -9.99902 -1h-10
c-44 -2.66699 -81.333 -3.66699 -112 -3s-60.334 1 -89.001 1c-95.333 -0 -172.333 27.333 -231 82c-62.667 56 -94 130.667 -94 224c0 44.667 11 109.667 33 195c22.667 86 34 147 34 183c-2 11.333 -7.33301 22.833 -16 34.5s-15.834 22.5 -21.501 32.5
s-7.33398 18.667 -5.00098 26s13.166 13 32.499 17c21.333 2.66699 47.5 4.66699 78.5 6s67.5 2 109.5 2h30c14 0.666992 22.833 -6 26.5 -20s4.33398 -31.667 2.00098 -53s-6.5 -44.5 -12.5 -69.5s-11.333 -48.5 -16 -70.5z" />
    <glyph glyph-name="afii10044" unicode="&#x42a;" horiz-adv-x="924" 
d="M668 218c0 30.667 -6.16699 56.8311 -18.5 78.498s-28.333 40.334 -48 56.001s-41.667 29 -66 40s-48.5 20.833 -72.5 29.5c-7.33301 2 -11 -16.333 -11 -55v-177c0 -29.333 6 -55.333 18 -78c14.667 -28 35.334 -42 62.001 -42c39.333 0 71.666 14.667 96.999 44
c26 28.667 39 63.334 39 104.001zM473 803.997c28 0 42.001 -9.66797 42.001 -29.001c0 -2.66699 -8 -17.334 -24 -44.001c-15.333 -27.333 -23 -56 -23 -86c-2 -3.33301 -3.33301 -11.166 -4 -23.499s-0.833984 -25.333 -0.500977 -39s1.16602 -26.167 2.49902 -37.5
s3.33301 -17.666 6 -18.999c27.333 -16.667 57.166 -30.5 89.499 -41.5l96 -32.5c31.667 -10.667 62.334 -22.167 92.001 -34.5s55.834 -28 78.501 -47s40.834 -42.5 54.501 -70.5s20.5 -62.667 20.5 -104c0 -62.667 -22.667 -111.667 -68 -147
c-40.667 -32.667 -93.334 -49 -158.001 -49h-404c-9.33301 -1.33301 -16.333 1.83398 -21 9.50098s-7.83398 18 -9.50098 31s-2.33398 28 -2.00098 45s1.33301 34.833 3 53.5s3.16699 37.167 4.5 55.5s2 35.166 2 50.499c0 46.667 1 117 3 211
c0.666992 46.667 0.833984 85 0.500977 115s-0.5 56.667 -0.5 80c0 39.333 -14 59 -42 59c-34 0 -64.667 -11.667 -92 -35c-13.333 -12 -29.666 -34 -48.999 -66c-14 -23.333 -24.667 -35 -32 -35c-15.333 0 -23 21.333 -23 64c0 28 5.66699 60.667 17 98
c14.667 44.667 33.667 67 57 67z" />
    <glyph glyph-name="afii10045" unicode="&#x42b;" horiz-adv-x="1059" 
d="M472 218c0 30.667 -6.16699 56.8311 -18.5 78.498s-28.333 40.334 -48 56.001s-41.667 29 -66 40s-48.5 20.833 -72.5 29.5c-7.33301 2 -11 -16.333 -11 -55v-177c0 -29.333 6 -55.333 18 -78c14.667 -28 35.334 -42 62.001 -42c39.333 0 71.666 14.667 96.999 44
c26 28.667 39 63.334 39 104.001zM57 602.997c1.33301 56.667 -5.66406 99.666 -20.9971 128.999s-23 45.333 -23 48c0 16 14.667 24 44 24h220c28 0 42 -9.66699 42 -29c0 -2.66699 -8 -17.334 -24 -44.001c-15.333 -27.333 -23 -56 -23 -86
c-2 -3.33301 -3.33301 -11.166 -4 -23.499s-0.833984 -25.333 -0.500977 -39s1.16602 -26.167 2.49902 -37.5s3.33301 -17.666 6 -18.999c27.333 -16.667 57.166 -30.5 89.499 -41.5l96 -32.5c31.667 -10.667 62.334 -22.167 92.001 -34.5s55.834 -28 78.501 -47
s40.834 -42.5 54.501 -70.5s20.5 -62.667 20.5 -104c0 -62.667 -22.667 -111.667 -68 -147c-40.667 -32.667 -93.334 -49 -158.001 -49h-404c-9.33301 -1.33301 -16.333 1.83398 -21 9.50098s-7.83398 18 -9.50098 31s-2.33398 28 -2.00098 45s1.33301 34.833 3 53.5
s3.16699 37.167 4.5 55.5s2 35.166 2 50.499c0 46.667 1 117 3 211c0.666992 23.333 1 42 1 56v35c0 9.33301 -0.166992 18 -0.5 26s-0.5 18 -0.5 30zM1035 24.9961c0 -5.33301 -4.5 -10.832 -13.5 -16.499s-16.5 -8.5 -22.5 -8.5h-236c-6.66699 0 -14.667 3 -24 9
s-14 12 -14 18l23 60c5.33301 14 8.33301 22 9 24c10.667 32 16 61.333 16 88v446c0 28.667 -7.66699 57.667 -23 87s-23 45.333 -23 48c0 16 14.667 24 44 24h220c28 0 42 -9.66699 42 -29c0 -2.66699 -8 -17.334 -24 -44.001c-15.333 -27.333 -23 -56 -23 -86l-1 -448
c0 -32.667 4.33301 -62 13 -88c2 -7.33301 9 -22.333 21 -45c10.667 -20.667 16 -33.667 16 -39z" />
    <glyph glyph-name="afii10046" unicode="&#x42c;" horiz-adv-x="726" 
d="M472 218c0 30.667 -6.16699 56.8311 -18.5 78.498s-28.333 40.334 -48 56.001s-41.667 29 -66 40s-48.5 20.833 -72.5 29.5c-7.33301 2 -11 -16.333 -11 -55v-177c0 -29.333 6 -55.333 18 -78c14.667 -28 35.334 -42 62.001 -42c39.333 0 71.666 14.667 96.999 44
c26 28.667 39 63.334 39 104.001zM57 602.997c1.33301 56.667 -5.66406 99.666 -20.9971 128.999s-23 45.333 -23 48c0 16 14.667 24 44 24h220c28 0 42 -9.66699 42 -29c0 -2.66699 -8 -17.334 -24 -44.001c-15.333 -27.333 -23 -56 -23 -86
c-2 -3.33301 -3.33301 -11.166 -4 -23.499s-0.833984 -25.333 -0.500977 -39s1.16602 -26.167 2.49902 -37.5s3.33301 -17.666 6 -18.999c27.333 -16.667 57.166 -30.5 89.499 -41.5l96 -32.5c31.667 -10.667 62.334 -22.167 92.001 -34.5s55.834 -28 78.501 -47
s40.834 -42.5 54.501 -70.5s20.5 -62.667 20.5 -104c0 -62.667 -22.667 -111.667 -68 -147c-40.667 -32.667 -93.334 -49 -158.001 -49h-404c-9.33301 -1.33301 -16.333 1.83398 -21 9.50098s-7.83398 18 -9.50098 31s-2.33398 28 -2.00098 45s1.33301 34.833 3 53.5
s3.16699 37.167 4.5 55.5s2 35.166 2 50.499c0 46.667 1 117 3 211c0.666992 23.333 1 42 1 56v35c0 9.33301 -0.166992 18 -0.5 26s-0.5 18 -0.5 30z" />
    <glyph glyph-name="afii10047" unicode="&#x42d;" horiz-adv-x="697" 
d="M432 424c5.33301 48 4.83496 89.3408 -1.49805 124.008s-13.833 63.667 -22.5 87c-12.667 32 -30 55.5 -52 70.5s-47 22.833 -75 23.5c-24.667 0 -45.5 -3.33301 -62.5 -10s-31.833 -15.334 -44.5 -26.001s-23.834 -22.334 -33.501 -35.001
s-19.334 -24.334 -29.001 -35.001s-20.334 -19.667 -32.001 -27s-25.834 -11 -42.501 -11c-6 0 -10.833 5.5 -14.5 16.5s-6.16699 24.5 -7.5 40.5s-1.16602 33.5 0.500977 52.5s4.5 36.167 8.5 51.5s9.66699 27.833 17 37.5s16 13.5 26 11.5
c0.666992 0.666992 8.66699 1 24 1h26c10 0 21.667 0.333008 35 1h249c93.333 0 163.666 -29.667 210.999 -89c42.667 -52.667 64 -128 64 -226c0 -133.333 -37 -245.333 -111 -336c-79.333 -97.333 -184 -146 -314 -146c-37.333 0 -80.333 4 -129 12
c-66.667 10 -100 23.667 -100 41c0 3.33301 3.16699 7.33301 9.5 12s11.166 7 14.499 7h102c34 0 66.333 4 97 12c20.667 6 40.667 15.667 60 29s36.333 29.166 51 47.499s26.667 38.666 36 60.999s14.333 45.166 15 68.499c0.666992 18 -1.16602 34.667 -5.49902 50
s-10.666 28.666 -18.999 39.999s-18 20.166 -29 26.499s-22.833 9.5 -35.5 9.5c-9.33301 0 -18.166 -3.66699 -26.499 -11s-14.833 -16.333 -19.5 -27s-7.16699 -22.167 -7.5 -34.5s2.5 -23.5 8.5 -33.5c-18.667 0 -36 3.33301 -52 10s-29.833 15.667 -41.5 27
s-20.834 25 -27.501 41s-10 33.333 -10 52c0 28 7 51 21 69s31.333 31 52 39s42.834 11 66.501 9s45.5 -9 65.5 -21c8 -4.66699 16.333 -11.667 25 -21s17 -19.5 25 -30.5s15.167 -22 21.5 -33s10.833 -20.167 13.5 -27.5z" />
    <glyph glyph-name="afii10048" unicode="&#x42e;" horiz-adv-x="1160" 
d="M285 486c13.333 15.333 27.667 26.3301 43 32.9971s30.666 9.33398 45.999 8.00098c10 94.667 40.333 163.334 91 206.001c56.667 46.667 153.334 70 290.001 70c132.667 0 226.667 -20 282 -60c64.667 -46.667 97 -134.667 97 -264
c0 -125.333 -31.333 -233.333 -94 -324c-71.333 -104 -166.333 -156 -285 -156c-53.333 0 -101.666 10.333 -144.999 31s-80.666 48.667 -111.999 84s-56.5 76.333 -75.5 123s-30.833 96 -35.5 148c-1.33301 3.33301 -6.16602 6.83301 -14.499 10.5s-18.333 4.5 -30 2.5
s-23.5 -8.5 -35.5 -19.5s-22 -29.5 -30 -55.5v-152c0 -20.667 6.33301 -47 19 -79s19 -55 19 -69c0 -5.33301 -3.83301 -10.5 -11.5 -15.5s-14.167 -7.5 -19.5 -7.5h-201c-28 0 -46 4.33301 -54 13c2 2.66699 5 11.667 9 27c1.33301 6.66699 3 14.334 5 23.001l7 30
c8.66699 42.667 15.167 77.834 19.5 105.501s6.5 48.167 6.5 61.5v227c0 105.333 -6.66699 181.666 -20 228.999c-0.666992 2 -2.33398 5.5 -5.00098 10.5s-6.66699 11.833 -12 20.5c-9.33301 17.333 -14 27.333 -14 30c0 6 3.5 11.833 10.5 17.5s13.5 8.5 19.5 8.5h232
c19.333 0 29 -10 29 -30c0 -6 -6 -19.333 -18 -40c-11.333 -21.333 -17 -39 -17 -53v-98v-17.5c0 -10.333 0.166992 -21.333 0.5 -33s0.666016 -22.167 0.999023 -31.5s1.16602 -14 2.49902 -14zM895.001 442.997c0 79.333 -6.00098 140.667 -18.001 184
c-21.333 74 -61.666 111 -120.999 111c-100 0 -150 -96 -150 -288c0 -44 1.83301 -84.667 5.5 -122s9.16699 -71.333 16.5 -102c24 -102 65.667 -153 125 -153c52 0 90.667 50.667 116 152c8.66699 34.667 15.167 70 19.5 106s6.5 73.333 6.5 112zM25 22.998
c0 -7.33301 0.666016 -11 1.99902 -11c0.666992 0 1.33398 0.333008 2.00098 1c-2.66699 2.66699 -4 6 -4 10z" />
    <glyph glyph-name="afii10049" unicode="&#x42f;" horiz-adv-x="761" 
d="M10 -2c0.666992 3.33301 6 12.5 16 27.5s24.333 35.167 43 60.5c32.667 46 59.334 84.833 80.001 116.5s37 59 49 82s20.333 43.167 25 60.5s7 34.333 7 51c0 7.33301 -3.83301 15.333 -11.5 24s-20.5 19 -38.5 31c-30 20.667 -54.167 39.167 -72.5 55.5
s-32.5 31.833 -42.5 46.5s-16.833 29.667 -20.5 45s-5.5 32.333 -5.5 51c-0.666992 40.667 6.5 71.5 21.5 92.5s38 36 69 45s70 13.833 117 14.5s102.167 1 165.5 1h75.5h86c29 0 56.667 0.333008 83 1s48.5 1.66699 66.5 3c16.667 -14 25 -27.5 25 -40.5s-3 -29.5 -9 -49.5
c-6 -16 -10.333 -29.667 -13 -41s-4.66699 -21.333 -6 -30s-2 -17.167 -2 -25.5v-27.5c0 -10 0.166992 -28.333 0.5 -55s0.833008 -57.834 1.5 -93.501s1.33398 -73.5 2.00098 -113.5l2 -114.5c0.666992 -36.333 1.16699 -68.5 1.5 -96.5s0.5 -48 0.5 -60
s-0.833008 -21.667 -2.5 -29s-5.83398 -13.166 -12.501 -17.499s-17.167 -7.33301 -31.5 -9s-33.833 -3.16699 -58.5 -4.5l-109 2c-15.333 0 -27 1.33301 -35 4s-12 7.66699 -12 15l6.5 14c4.33301 9.33301 9.33301 20.833 15 34.5s11 28.167 16 43.5
s7.83301 29.666 8.5 42.999c0 6 0.333008 19 1 39s1.16699 41.167 1.5 63.5s0.666016 43.5 0.999023 63.5s0.5 33 0.5 39c0 66 -1.16699 122.333 -3.5 169s-7.33301 84.834 -15 114.501s-19 51.334 -34 65.001s-34.833 20.5 -59.5 20.5c-36 0 -63.833 -12.833 -83.5 -38.5
s-29.5 -59.5 -29.5 -101.5c0 -14.667 2 -29 6 -43s9.66699 -26.333 17 -37s15.833 -19.334 25.5 -26.001s20.167 -10 31.5 -10c2.66699 0 6.66699 0.333008 12 1s11 1.5 17 2.5l17.5 3c5.66699 1 10.5 1.5 14.5 1.5c27.333 0 41 -19.667 41 -59
c0 -28.667 -8 -59.334 -24 -92.001s-36.833 -65 -62.5 -97s-54.667 -62.667 -87 -92s-64.833 -55.333 -97.5 -78s-64 -41.167 -94 -55.5s-55.333 -22.166 -76 -23.499l-21 14v0z" />
    <glyph glyph-name="afii10065" unicode="&#x430;" horiz-adv-x="801" 
d="M782 80c0 -40.667 -17.667 -65.9971 -53 -75.9971c-8 -2.66699 -43.667 -4 -107 -4c-17.333 0 -34 0.5 -50 1.5s-31.667 2.83301 -47 5.5l-10 19v2c-0.666992 6.66699 6.33301 19.334 21 38.001c15.333 19.333 23 32.666 23 39.999c0 66 -20.333 160 -61 282l-10 3
c-36.667 -57.333 -71.667 -86.666 -105 -87.999l-23 15c0.666992 7.33301 1.33398 13.666 2.00098 18.999s1.33398 10 2.00098 14c0.666992 -0.666992 0.666992 -1.33398 0 -2.00098c0 18 -7.16699 31.667 -21.5 41s-30.833 14 -49.5 14c-58 0 -102.667 -37.667 -134 -113
c-23.333 -58.667 -35 -122 -35 -190c0 -9.33301 5.66699 -23.666 17 -42.999c12 -18 18 -28.333 18 -31c0 -18 -26 -27 -78 -27c-23.333 0 -39.333 4.5 -48 13.5s-13 25.167 -13 48.5c0 50.667 19 131 57 241c6 17.333 16.667 45.833 32 85.5l60 156.5
c34.667 87.333 52 139.666 52 156.999c0 5.33301 -4.66699 16.666 -14 33.999s-14 28.333 -14 33c0 15.333 13.667 24.166 41 26.499s71.666 3.5 132.999 3.5h37c15.333 0 32.666 -0.333008 51.999 -1s36.333 -1 51 -1h37h42h16.5c5 0 9.16699 0.333008 12.5 1l21 -16
c0 -8.66699 -4 -21 -12 -37c-7.33301 -16.667 -11 -28.667 -11 -36c0 -24 14.667 -79.333 44 -166c49.333 -142 75.333 -218.667 78 -230c31.333 -103.333 47 -181 47 -233zM437 560.003c0 17.333 -9.66602 42.668 -28.999 76.001c-21.333 35.333 -39.333 53 -54 53
c-20.667 0 -46.334 -26 -77.001 -78c-29.333 -49.333 -44 -85.333 -44 -108c0 -6.66699 2.66699 -9.33398 8 -8.00098c40 42.667 79 64 117 64c6 0 17.667 -2.66699 35 -8c18 -5.33301 30 -8 36 -8c5.33301 0 8 5.66699 8 17z" />
    <glyph glyph-name="afii10066" unicode="&#x431;" horiz-adv-x="744" 
d="M482 218c0 49.333 -21.667 95.666 -65 138.999s-90 65 -140 65c-7.33301 0 -11 -18.333 -11 -55v-177c0 -29.333 6 -55.333 18 -78c14.667 -28 35.334 -42 62.001 -42c39.333 0 71.666 14.667 96.999 44c26 28.667 39 63.334 39 104.001zM472 795
c23.333 2.66699 45.1641 4.33301 65.4971 5s36.166 1 47.499 1c21.333 0 37 -25 47 -75c4 -18 7 -37.833 9 -59.5s3 -41.5 3 -59.5c0 -34.667 -10.667 -52 -32 -52c-8.66699 0 -20.334 11.333 -35.001 34c-13.333 17.333 -25.5 33.833 -36.5 49.5
s-22.833 29.334 -35.5 41.001s-27.5 21 -44.5 28s-38.5 11.167 -64.5 12.5c-54 0 -89.333 -18.333 -106 -55c-2 -3.33301 -4.66699 -11.833 -8 -25.5s-6.16602 -28.334 -8.49902 -44.001s-3.16602 -30.334 -2.49902 -44.001s4.33398 -22.5 11.001 -26.5
c28 -16 58.333 -29.333 91 -40l97 -32c32 -10.667 63 -22.167 93 -34.5s56.333 -28.166 79 -47.499s40.834 -43 54.501 -71s20.5 -62.667 20.5 -104c0 -62.667 -22.667 -111.667 -68 -147c-40.667 -32.667 -93.334 -49 -158.001 -49h-406l-22 20
c-2.66699 28.667 -4.5 61.667 -5.5 99s-1.5 79.333 -1.5 126s1 117 3 211c0.666992 23.333 1 42 1 56v35c0 9.33301 -0.166992 18 -0.5 26s-0.5 18 -0.5 30c0 18 -0.166992 35.333 -0.5 52s-2.5 30.667 -6.5 42c-2 5.33301 -8.66699 17.666 -20 36.999
c-9.33301 17.333 -14 29 -14 35c0 9.33301 19.333 15.5 58 18.5s97.334 4.5 176.001 4.5c4 0 9.83301 -0.166992 17.5 -0.5s15.834 -0.666016 24.501 -0.999023l27 -1c9.33301 -0.333008 18 -0.5 26 -0.5h26c22 0 55 2 99 6z" />
    <glyph glyph-name="afii10067" unicode="&#x432;" horiz-adv-x="740" 
d="M714 196c0 -62.667 -22.668 -111.668 -68.001 -147.001c-40.667 -32.667 -93.334 -49 -158.001 -49h-406l-22 20c-2.66699 28.667 -4.5 61.667 -5.5 99s-1.5 79.333 -1.5 126s1 117 3 211s3 164.333 3 211c0 17.333 -13.333 53.666 -40 108.999l2 10l17 11
c44.667 -2 92 -3 142 -3l344 3c46.667 0.666992 84.834 -12.166 114.501 -38.499s44.5 -62.5 44.5 -108.5s-15.667 -86.667 -47 -122c-8 -9.33301 -20.667 -21 -38 -35s-39.333 -30.667 -66 -50l27 -20.5c8.66699 -6.33301 17.334 -12.166 26.001 -17.499
c86 -56 129 -125.667 129 -209zM446.999 601.999c0 28.667 -5.66602 53.666 -16.999 74.999c-12.667 26.667 -32.334 40 -59.001 40c-68.667 0 -103 -52 -103 -156c0 -28 3.33301 -44 10 -48c6.66699 -3.33301 14.834 -7.16602 24.501 -11.499s21.167 -8.83301 34.5 -13.5
c28 -9.33301 47.333 -14 58 -14c15.333 0 28.666 17.667 39.999 53c8 26.667 12 51.667 12 75zM479 217.998c0 49.333 -21.667 95.666 -65 138.999s-90 65 -140 65c-7.33301 0 -11 -18.333 -11 -55v-177c0 -29.333 6 -55.333 18 -78c14.667 -28 35.334 -42 62.001 -42
c39.333 0 71.666 14.667 96.999 44c26 28.667 39 63.334 39 104.001z" />
    <glyph glyph-name="afii10068" unicode="&#x433;" horiz-adv-x="640" 
d="M271 538v-393.001c0 -26.667 7.66699 -53.334 23 -80.001s19.833 -44.167 13.5 -52.5s-14.166 -12.5 -23.499 -12.5h-223c-8.66699 0 -17.667 2.33301 -27 7c-12.667 4.66699 -19 10.667 -19 18c0 0.666992 7.66699 15.334 23 44.001s23 54 23 76v466
c0 36 -4 65.667 -12 89c-2 5.33301 -8.66699 17.666 -20 36.999c-9.33301 16.667 -14 28.334 -14 35.001c0 18.667 78 25.334 234 20.001c6.66699 0 15 -0.166992 25 -0.5s21.667 -0.833008 35 -1.5s25 -1 35 -1h26c22 0 55 2 99 6s77 6 99 6c20 0 36.667 -18.667 50 -56
c7.33301 -40 11 -79.667 11 -119c0 -38 -10.333 -57 -31 -57c-8.66699 0 -20.334 12.333 -35.001 37c-19.333 29.333 -38.333 51.333 -57 66c-32 24 -69.667 40 -113 48c-54 0 -89.333 -18.333 -106 -55c-10.667 -22 -16 -64.333 -16 -127z" />
    <glyph glyph-name="afii10069" unicode="&#x434;" horiz-adv-x="880" 
d="M145 0c-12 0 -30.3311 -11.666 -54.998 -34.999c-9.33301 -9.33301 -25.333 -30.333 -48 -63c-16 -23.333 -30.667 -35 -44 -35c-10 0 -16.333 6.16699 -19 18.5s-2.83398 27.833 -0.500977 46.5s6.66602 38.834 12.999 60.501s13.833 41.834 22.5 60.501
s18 34.167 28 46.5s19.667 18.5 29 18.5c12.667 4.66699 22.667 7.5 30 8.5s13.166 3.33301 17.499 7s8.16602 10.167 11.499 19.5s7.66602 25 12.999 47c6 26 12 54.333 18 85s11.5 62.167 16.5 94.5s9.66699 64 14 95s8 59.667 11 86s5.33301 48.833 7 67.5s2.5 32 2.5 40
c-1.33301 9.33301 -3.83301 19.166 -7.5 29.499s-10.167 21.5 -19.5 33.5s-16.166 22 -20.499 30s-7.16602 13.667 -8.49902 17c-2 15.333 8 23.666 30 24.999h376l140 1c25.333 0 37.666 -8 36.999 -24c0 -2 -1.83301 -6.16699 -5.5 -12.5l-15.5 -25.5
c-14 -20.667 -21.333 -40.334 -22 -59.001c-0.666992 -12.667 -0.5 -30.334 0.5 -53.001s2.5 -48.167 4.5 -76.5s4.33301 -58.666 7 -90.999s5.5 -65 8.5 -98l9 -97c3 -31.667 6.16699 -60.834 9.5 -87.501c1.33301 -14 3.33301 -25.333 6 -34s6.5 -15.167 11.5 -19.5
s11.167 -7.33301 18.5 -9s16.666 -2.5 27.999 -2.5c7.33301 0 14.833 -6 22.5 -18s14.667 -27.167 21 -45.5s11.5 -38.166 15.5 -59.499s6.33301 -41 7 -59s-0.833008 -33 -4.5 -45s-10.167 -18 -19.5 -18c-7.33301 0 -17.666 11.667 -30.999 35
c-9.33301 15.333 -17.666 28.5 -24.999 39.5s-14.666 19.833 -21.999 26.5c-25.333 22.667 -55.333 32 -90 28l-528 1v0zM514.002 385.001c-1.33301 48.667 -2.16602 90.002 -2.49902 124.002s-1.16602 62.167 -2.49902 84.5s-3.5 39.666 -6.5 51.999
s-8.16699 21.5 -15.5 27.5s-17 9.66699 -29 11s-27.333 2 -46 2s-33.834 -0.833008 -45.501 -2.5s-21.334 -6.33398 -29.001 -14.001s-13.834 -19.5 -18.501 -35.5s-9.66699 -38.333 -15 -67c-12 -63.333 -23 -128 -33 -194s-21.667 -134.667 -35 -206
c-1.33301 -5.33301 -2.16602 -11 -2.49902 -17s0.5 -11.667 2.5 -17s6 -9.83301 12 -13.5s15 -5.5 27 -5.5c25.333 0 55.5 -0.166992 90.5 -0.5s70.167 -0.166016 105.5 0.500977c20.667 0.666992 33.667 5.5 39 14.5s8.66602 23.5 9.99902 43.5
c2 24 1.83301 52.667 -0.5 86s-4.16602 75.666 -5.49902 126.999z" />
    <glyph glyph-name="afii10070" unicode="&#x435;" horiz-adv-x="667" 
d="M649 211c0 -36 -9.66602 -78.001 -28.999 -126.001c-22.667 -56.667 -49 -85 -79 -85h-476c-30.667 0 -46 10.667 -46 32c0 8 5.33301 19.333 16 34c14.667 20 22.667 31.333 24 34c9.33301 22 14 47.333 14 76l-1 457c0 29.333 -4.33301 52.333 -13 69
c-0.666992 1.33301 -2.83398 4.5 -6.50098 9.5l-15.5 21.5c-10.667 13.333 -16 24 -16 32c0 18.667 17.333 28 52 28c28.667 0 64.167 0.5 106.5 1.5l149.5 3.5c114 4 199.333 6 256 6c14.667 0 26 -18 34 -54c2.66699 -12.667 4.66699 -25 6 -37s2 -24 2 -36
c0 -30.667 -8.33301 -46 -25 -46c-7.33301 0 -19.666 8.33301 -36.999 25c-22.667 22 -42.667 37.667 -60 47c-29.333 16.667 -63 25 -101 25c-53.333 0 -88.333 -18 -105 -54c-10.667 -22 -16 -63.667 -16 -125c0 -14 3.33301 -24.333 10 -31c10.667 30 31.667 54 63 72
c28.667 16.667 60 25 94 25c28 0 53.333 -13.333 76 -40c23.333 -26.667 35 -53.667 35 -81c0 -18.667 -3.33301 -36 -10 -52s-15.834 -29.667 -27.501 -41s-25.5 -20.333 -41.5 -27s-33.333 -10 -52 -10l-5 11c7.33301 16.667 11 29.667 11 39c0 10.667 -6 22.667 -18 36
c-11.333 13.333 -22.333 20 -33 20c-72 0 -108 -72 -108 -216c0 -60 2.33301 -98 7 -114c10.667 -40.667 38 -61 82 -61c46 0 89.333 14.333 130 43c23.333 16.667 50.333 43.334 81 80.001c24 28.667 39.333 43 46 43c5.33301 0 11 -4.33301 17 -13s9 -15.667 9 -21z" />
    <glyph glyph-name="afii10072" unicode="&#x436;" horiz-adv-x="1148" 
d="M657 799c28.667 0 43 -8.66699 43 -26c-20.667 -38.667 -31.334 -58.667 -32.001 -60c-8.66699 -20 -13 -42.333 -13 -67v-151c0 -18 4 -27 12 -27c26.667 0 70.334 28.667 131.001 86c60.667 58 91 100.667 91 128c0 14.667 -7.33301 32.334 -22 53.001
c-14 20.667 -21 34 -21 40c0 7.33301 4.16699 13.333 12.5 18s16.5 7 24.5 7h170c6.66699 0 13 -2.5 19 -7.5s9 -10.833 9 -17.5c0 -28 -17.333 -60.667 -52 -98c-7.33301 -8 -19.166 -19.5 -35.499 -34.5l-62.5 -56.5c-34.667 -30.667 -52 -51 -52 -61
c0 -52 31.333 -140.667 94 -266c28 -54.667 54.167 -103.167 78.5 -145.5s47.833 -78.5 70.5 -108.5l-15 -11c-66.667 0 -155.334 57 -266.001 171c-22.667 24 -49 58 -79 102l-69 108c-6 9.33301 -11 14 -15 14c-15.333 0 -23 -33.333 -23 -100c0 -82 5 -145 15 -189
c0.666992 -5.33301 6.33398 -18.666 17.001 -39.999c10 -19.333 15 -31.666 15 -36.999c0 -4.66699 -2.83301 -9.66699 -8.5 -15s-10.834 -8 -15.501 -8h-226c-4.66699 0 -9.83398 2.66699 -15.501 8s-8.5 10.333 -8.5 15c0 5.33301 5 17.666 15 36.999
c10.667 21.333 16.334 34.666 17.001 39.999c10 44 15 107 15 189c0 66.667 -7.66699 100 -23 100c-4 0 -9 -4.66699 -15 -14l-69 -108c-30 -44 -56.333 -78 -79 -102c-110.667 -114 -199.334 -171 -266.001 -171l-15 11c22.667 30 46.167 66.167 70.5 108.5
s50.5 90.833 78.5 145.5c62.667 125.333 94 214 94 266c0 10 -17.333 30.333 -52 61l-62.5 56.5c-16.333 15 -28.166 26.5 -35.499 34.5c-34.667 37.333 -52 70 -52 98c0 6.66699 3 12.5 9 17.5s12.333 7.5 19 7.5h170c8 0 16.167 -2.33301 24.5 -7s12.5 -10.667 12.5 -18
c0 -6 -7 -19.333 -21 -40c-14.667 -20.667 -22 -38.334 -22 -53.001c0 -27.333 30.333 -70 91 -128c60.667 -57.333 104.334 -86 131.001 -86c8 0 12 9 12 27v151c0 24.667 -4.33301 47 -13 67c-0.666992 1.33301 -11.334 21.333 -32.001 60c0 17.333 14.333 26 43 26h184z
" />
    <glyph glyph-name="afii10073" unicode="&#x437;" horiz-adv-x="654" 
d="M414 196c0 36.667 -3.51367 67.6641 -10.5137 92.9971s-18 46.5 -33 63.5s-34.167 30.5 -57.5 40.5s-51.666 18 -84.999 24c-19.333 4 -30.666 8.5 -33.999 13.5s-1.16602 10.667 6.50098 17s19.5 12.833 35.5 19.5s33.667 13.667 53 21c23.333 5.33301 42.333 15 57 29
s25 30.167 31 48.5s7.66699 37.5 5 57.5s-9.66699 38.333 -21 55s-26.833 30.334 -46.5 41.001s-43.834 16 -72.501 16c-17.333 0 -32.166 -3.5 -44.499 -10.5s-26.166 -16.5 -41.499 -28.5c-7.33301 -5.33301 -16.166 -13.5 -26.499 -24.5s-22.5 -25.167 -36.5 -42.5
c-19.333 -23.333 -35.666 -35 -48.999 -35c-2 0 -4.16699 1.33301 -6.5 4s-4.5 6 -6.5 10s-3.66699 8.16699 -5 12.5s-2 7.83301 -2 10.5c0 18.667 0.833008 37.334 2.5 56.001s4.5 37.334 8.5 56.001c2.66699 14 6.33398 25.167 11.001 33.5s9.5 14.5 14.5 18.5
s10.167 6.66699 15.5 8s10 2 14 2c11.333 0 29.666 -2 54.999 -6c24 -4 42 -6 54 -6c9.33301 0 19.833 0.166992 31.5 0.5s27.167 1.16602 46.5 2.49902c38 2 66 3 84 3c36.667 0 68.334 -3.33301 95.001 -10s49.334 -14.667 68.001 -24s32.834 -23.166 42.501 -41.499
s15.167 -38.333 16.5 -60s-1.66699 -44.167 -9 -67.5s-18.333 -45 -33 -65s-33.167 -37 -55.5 -51s-48.166 -22.667 -77.499 -26c36 -0.666992 68.333 -8.66699 97 -24s53 -34.333 73 -57s35.333 -47.334 46 -74.001s16 -51.334 16 -74.001c0 -150 -104.667 -225 -314 -225
c-38 0 -75.167 2.33301 -111.5 7s-66.5 11.667 -90.5 21c-30.667 11.333 -54.334 26.333 -71.001 45s-27.667 38.834 -33 60.501s-5.16602 43.5 0.500977 65.5s15.834 41.833 30.501 59.5s33.334 32.167 56.001 43.5s48.334 17 77.001 17
c36.667 0 63.334 -10.333 80.001 -31c0 -7.33301 -7.33301 -15.333 -22 -24c-14.667 -8 -27.5 -19 -38.5 -33s-18.333 -28.667 -22 -44s-3 -30.833 2 -46.5s16.167 -29.5 33.5 -41.5c10.667 -8 23.834 -14.167 39.501 -18.5s31.5 -6.16602 47.5 -5.49902s31.167 4 45.5 10
s26.166 15 35.499 27c19.333 25.333 29 53.333 29 84z" />
    <glyph glyph-name="afii10074" unicode="&#x438;" 
d="M277 171c-0.666992 -18 5.66602 -44.332 18.999 -78.999c12.667 -32 19 -55 19 -69c0 -5.33301 -3.83301 -10.5 -11.5 -15.5s-14.167 -7.5 -19.5 -7.5h-201c-38.667 0 -58 8.66699 -58 26c0 -9.33301 0.666992 -14 2 -14c2.66699 0 6.33398 9.33301 11.001 28
c1.33301 6.66699 3 14.334 5 23.001l7 30c8.66699 42.667 15.167 77.834 19.5 105.501s6.5 48.167 6.5 61.5v227c0 105.333 -6.66699 181.666 -20 228.999c-0.666992 2 -2.33398 5.5 -5.00098 10.5s-6.66699 11.833 -12 20.5c-9.33301 17.333 -14 27.333 -14 30
c0 6 3.5 11.833 10.5 17.5s13.5 8.5 19.5 8.5h232c19.333 0 29 -10 29 -30c0 -6 -6 -19.333 -18 -40c-11.333 -21.333 -17 -39 -17 -53v-115c0 -17.333 1.66699 -30.333 5 -39s7.83301 -14.5 13.5 -17.5s12.167 -3.83301 19.5 -2.5s15.333 3.66602 24 6.99902
c16 6 33 14 51 24s34.667 20.167 50 30.5s27.666 20.5 36.999 30.5s13.666 18 12.999 24c-1.33301 10.667 -3.33301 23.334 -6 38.001s-7.66699 31.334 -15 50.001c-14 36.667 -21 58.667 -21 66c0 18.667 15.333 28 46 28h189c39.333 0 59 -9.66699 59 -29
c0 4 -0.666992 8 -2 12c-0.666992 -0.666992 -1.16699 -1.33398 -1.5 -2.00098s-0.833008 -1.33398 -1.5 -2.00098c-5.33301 -11.333 -12.333 -39.333 -21 -84c-9.33301 -46.667 -14 -75.334 -14 -86.001v-410c0 -26 7 -61.333 21 -106c14 -45.333 21 -71 21 -77
c0 -13.333 -26 -20 -78 -20h3h-101h-64c-33.333 -0 -50 6.33301 -50 19c26.667 59.333 40 99.666 40 120.999v223c-0.666992 18.667 -2.5 33 -5.5 43s-6.83301 17 -11.5 21s-10.167 5.66699 -16.5 5s-12.833 -2 -19.5 -4c-10.667 -3.33301 -22.167 -7.83301 -34.5 -13.5
s-24.666 -12 -36.999 -19s-24.166 -14.333 -35.499 -22s-21.333 -14.834 -30 -21.501c-4.66699 -4 -9 -8.16699 -13 -12.5s-7.33301 -10.166 -10 -17.499s-4.66699 -16.666 -6 -27.999s-1.66602 -26.333 -0.999023 -45z" />
    <glyph glyph-name="afii10075" unicode="&#x439;" 
d="M386 878c-31.333 -0.666992 -61.6699 1.50195 -91.0029 6.50195s-55.666 12.5 -78.999 22.5s-42 22.5 -56 37.5s-21 32.5 -21 52.5c0 26 5.16699 46.333 15.5 61s22.833 25 37.5 31s30.334 8.83301 47.001 8.5s31.334 -2.5 44.001 -6.5s22 -8.83301 28 -14.5
s5.66699 -10.834 -1 -15.501c-9.33301 -5.33301 -16 -13.166 -20 -23.499s-5.5 -21.166 -4.5 -32.499s4.5 -21.833 10.5 -31.5s14.667 -16.167 26 -19.5c20 -7.33301 41.333 -11 64 -11c23.333 0 45 3.66699 65 11c11.333 3.33301 20 9.83301 26 19.5s9.5 20.167 10.5 31.5
s-0.5 22.166 -4.5 32.499s-10.667 18.166 -20 23.499c-4.66699 3.33301 -3.66699 7.66602 3 12.999s16.334 9.83301 29.001 13.5s27 6 43 7s31.167 -1.5 45.5 -7.5s26.333 -16 36 -30s14.5 -34 14.5 -60c0 -20 -7 -37.5 -21 -52.5s-32.667 -27.5 -56 -37.5
s-49.833 -17.5 -79.5 -22.5s-59.834 -7.16699 -90.501 -6.5h-1zM276.996 171.002c-0.666992 -18 5.66602 -44.332 18.999 -78.999c12.667 -32 19 -55 19 -69c0 -5.33301 -3.83301 -10.5 -11.5 -15.5s-14.167 -7.5 -19.5 -7.5h-201c-38.667 0 -58 8.66699 -58 26
c0 -9.33301 0.666992 -14 2 -14c2.66699 0 6.33398 9.33301 11.001 28c1.33301 6.66699 3 14.334 5 23.001l7 30c8.66699 42.667 15.167 77.834 19.5 105.501s6.5 48.167 6.5 61.5v227c0 105.333 -6.66699 181.666 -20 228.999c-0.666992 2 -2.33398 5.5 -5.00098 10.5
s-6.66699 11.833 -12 20.5c-9.33301 17.333 -14 27.333 -14 30c0 6 3.5 11.833 10.5 17.5s13.5 8.5 19.5 8.5h232c19.333 0 29 -10 29 -30c0 -6 -6 -19.333 -18 -40c-11.333 -21.333 -17 -39 -17 -53v-115c0 -17.333 1.66699 -30.333 5 -39s7.83301 -14.5 13.5 -17.5
s12.167 -3.83301 19.5 -2.5s15.333 3.66602 24 6.99902c16 6 33 14 51 24s34.667 20.167 50 30.5s27.666 20.5 36.999 30.5s13.666 18 12.999 24c-1.33301 10.667 -3.33301 23.334 -6 38.001s-7.66699 31.334 -15 50.001c-14 36.667 -21 58.667 -21 66
c0 18.667 15.333 28 46 28h189c39.333 0 59 -9.66699 59 -29c0 4 -0.666992 8 -2 12c-0.666992 -0.666992 -1.16699 -1.33398 -1.5 -2.00098s-0.833008 -1.33398 -1.5 -2.00098c-5.33301 -11.333 -12.333 -39.333 -21 -84c-9.33301 -46.667 -14 -75.334 -14 -86.001v-410
c0 -26 7 -61.333 21 -106c14 -45.333 21 -71 21 -77c0 -13.333 -26 -20 -78 -20h3h-101h-64c-33.333 0 -50 6.33301 -50 19c26.667 59.333 40 99.666 40 120.999v223c-0.666992 18.667 -2.5 33 -5.5 43s-6.83301 17 -11.5 21s-10.167 5.66699 -16.5 5s-12.833 -2 -19.5 -4
c-10.667 -3.33301 -22.167 -7.83301 -34.5 -13.5s-24.666 -12 -36.999 -19s-24.166 -14.333 -35.499 -22s-21.333 -14.834 -30 -21.501c-4.66699 -4 -9 -8.16699 -13 -12.5s-7.33301 -10.166 -10 -17.499s-4.66699 -16.666 -6 -27.999s-1.66602 -26.333 -0.999023 -45z" />
    <glyph glyph-name="afii10076" unicode="&#x43a;" horiz-adv-x="755" 
d="M740 5l-15.001 -11.0049c-66.667 0 -155.334 57 -266.001 171c-22.667 24 -49 58 -79 102l-69 108c-6 9.33301 -11 14 -15 14c-15.333 0 -23 -33.333 -23 -100c0 -82 5 -145 15 -189c0.666992 -5.33301 6.33398 -18.666 17.001 -39.999c10 -19.333 15 -31.666 15 -36.999
c0 -4.66699 -2.83301 -9.66699 -8.5 -15s-10.834 -8 -15.501 -8h-194c-26 0 -40 14 -42 42c-0.666992 8.66699 -1.16699 19.834 -1.5 33.501s-0.5 29.834 -0.5 48.501c0 31.333 1 78 3 140c2 62.667 3 109.667 3 141c0 64.667 -0.166992 115.5 -0.5 152.5
s-0.833008 61.167 -1.5 72.5s-3.16699 24.333 -7.5 39s-10.166 30.667 -17.499 48c-14.667 35.333 -22 54 -22 56c0 17.333 14.667 26 44 26h216c28.667 0 43 -8.66699 43 -26c-20.667 -38.667 -31.334 -58.667 -32.001 -60c-8.66699 -20 -13 -42.333 -13 -67v-151
c0 -18 4 -27 12 -27c26.667 0 70.334 28.667 131.001 86c60.667 58 91 100.667 91 128c0 14.667 -7.33301 32.334 -22 53.001c-14 20.667 -21 34 -21 40c0 7.33301 4.16699 13.333 12.5 18s16.5 7 24.5 7h170c6.66699 0 13 -2.5 19 -7.5s9 -10.833 9 -17.5
c0 -28 -17.333 -60.667 -52 -98c-7.33301 -8 -19.166 -19.5 -35.499 -34.5l-62.5 -56.5c-34.667 -30.667 -52 -51 -52 -61c0 -52 31.333 -140.667 94 -266c28 -54.667 54.167 -103.167 78.5 -145.5s47.833 -78.5 70.5 -108.5z" />
    <glyph glyph-name="afii10077" unicode="&#x43b;" horiz-adv-x="801" 
d="M164 291c-23.333 -58.667 -34.9961 -121.996 -34.9961 -189.996c0 -16.667 4.16699 -31.334 12.5 -44.001s14 -23.167 17 -31.5s-0.333008 -14.666 -10 -18.999s-32.167 -6.5 -67.5 -6.5c-23.333 0 -39.333 4.5 -48 13.5s-13 25.167 -13 48.5c0 50.667 19 131 57 241
c6 17.333 16.667 45.833 32 85.5l60 156.5c34.667 87.333 52 139.666 52 156.999c0 5.33301 -4.66699 16.666 -14 33.999s-14 28.333 -14 33c0 15.333 13.667 24.166 41 26.499s71.666 3.5 132.999 3.5h37c15.333 0 32.666 -0.333008 51.999 -1s36.333 -1 51 -1h37h42h16.5
c5 0 9.16699 0.333008 12.5 1l21 -16c0 -8.66699 -4 -21 -12 -37c-7.33301 -16.667 -11 -28.667 -11 -36c0 -24 14.667 -79.333 44 -166c49.333 -142 75.333 -218.667 78 -230c31.333 -103.333 47 -181 47 -233c0 -40.667 -17.667 -66 -53 -76
c-8 -2.66699 -43.667 -4 -107 -4c-17.333 0 -34 0.5 -50 1.5s-31.667 2.83301 -47 5.5l-10 19v2c-0.666992 6.66699 6.33301 19.334 21 38.001c15.333 19.333 23 32.666 23 39.999c0 66 -20.333 160 -61 282c0 2.66699 -1.83301 10 -5.5 22s-8.33398 26.167 -14.001 42.5
l-18.5 53.5c-6.66699 19.333 -13.334 37.666 -20.001 54.999l-18.5 46.5c-5.66699 13.667 -10.167 23.167 -13.5 28.5c-21.333 35.333 -39.333 53 -54 53c-20.667 0 -46.334 -26 -77.001 -78c-7.33301 -12 -15.666 -29 -24.999 -51s-19 -47.167 -29 -75.5s-20 -59 -30 -92
s-19.667 -66.833 -29 -101.5z" />
    <glyph glyph-name="afii10078" unicode="&#x43c;" horiz-adv-x="866" 
d="M843 95c0 -36.667 -7.83203 -61.6689 -23.499 -75.002s-42.5 -20 -80.5 -20h-134l-38 27c0 8.66699 8 22.667 24 42c16.667 19.333 25 38.666 25 57.999c0 48 -6 123 -18 225c-12.667 116 -26 184 -40 204c-14 -9.33301 -32.667 -41 -56 -95l-42 -92
c-10.667 -22.667 -18 -37.667 -22 -45c-24.667 -46.667 -48 -70 -70 -70c-25.333 0 -56 35 -92 105l-29.5 56l-20.5 40c-28.667 54.667 -50.667 89.334 -66 104.001c-10.667 -17.333 -18.334 -92.333 -23.001 -225c-4 -91.333 -6 -172.666 -6 -243.999
c0 -8 6.33301 -19.667 19 -35c13.333 -15.333 20 -27 20 -35c0 -14.667 -22.667 -22 -68 -22c-29.333 0 -49.666 4.83301 -60.999 14.5s-17 28.834 -17 57.501c0 34 2.66699 75.667 8 125s13.333 107.333 24 174c22 132.667 33 232.334 33 299.001
c0 18.667 -7.66699 40.667 -23 66c-14.667 24.667 -22 40.667 -22 48c0 16 11 24 33 24h135c34.667 0 67.667 -22 99 -66c5.33301 -9.33301 9.83301 -17.5 13.5 -24.5l9.5 -18.5l42 -81c22.667 -44 43 -66 61 -66c12.667 0 29.667 22.667 51 68l37 81
c12.667 27.333 19.667 42 21 44c27.333 45.333 54.666 68 81.999 68h140c25.333 0 38 -8 38 -24c0 -4 -6.66699 -16.667 -20 -38c-12.667 -20.667 -19 -40.334 -19 -59.001c0 -64 12.667 -163.333 38 -298s38 -233.667 38 -297z" />
    <glyph glyph-name="afii10079" unicode="&#x43d;" 
d="M499 622c-3.33301 21.333 -12.001 50.667 -26.001 88c-14 36.667 -21 58.667 -21 66c0 18.667 15.333 28 46 28h189c30.667 0 49.334 -6 56.001 -18l-1 -1c0 -0.666992 -0.333008 -1.33398 -1 -2.00098c-5.33301 -11.333 -12.333 -39.333 -21 -84
c-9.33301 -45.333 -14 -74 -14 -86v-410c0 -26 7 -61.333 21 -106c14 -45.333 21 -71 21 -77c0 -13.333 -25 -20 -75 -20h-164c-33.333 0 -50 6.33301 -50 19c26.667 60 40 100.333 40 121v231c-32 -46.667 -62.667 -70.667 -92 -72l-21 14
c0.666992 7.33301 1.33398 13.333 2.00098 18s1.33398 8.66699 2.00098 12v1v1c-0.666992 20 -7.33398 34.667 -20.001 44s-26.167 13.166 -40.5 11.499s-27.166 -8.83398 -38.499 -21.501s-16 -30.667 -14 -54v-154c0 -19.333 6.33301 -45.666 19 -78.999
s19 -56.333 19 -69c0 -5.33301 -3.83301 -10.5 -11.5 -15.5s-14.167 -7.5 -19.5 -7.5h-201c-28 0 -46 4.33301 -54 13c2 3.33301 5 12.333 9 27c1.33301 6.66699 3 14.334 5 23.001l7 30c8.66699 42.667 15.167 77.834 19.5 105.501s6.5 48.167 6.5 61.5v227
c0 106.667 -6.66699 183 -20 229c-0.666992 4 -6.33398 14.333 -17.001 31c-9.33301 16.667 -14 26.667 -14 30c0 6 3.5 11.833 10.5 17.5s13.5 8.5 19.5 8.5h232c19.333 0 29 -10 29 -30c0 -6 -6 -19.333 -18 -40c-11.333 -20.667 -17 -38.334 -17 -53.001v-98v-17.5
c0 -10.333 0.166992 -21.333 0.5 -33s0.666016 -22.334 0.999023 -32.001s1.16602 -14.5 2.49902 -14.5h1c36.667 36.667 73.334 57.834 110.001 63.501s71 -3.16602 103 -26.499v100zM24.999 23.001c0 -7.33301 0.666016 -10.999 1.99902 -10.999
c0.666992 0 1.33398 0.333008 2.00098 1c-2.66699 3.33301 -4 6.66602 -4 9.99902zM745.998 775.002c0 5.33301 -0.666992 9.33301 -2 12l-1 -1c2 -3.33301 3 -7 3 -11z" />
    <glyph glyph-name="afii10080" unicode="&#x43e;" horiz-adv-x="800" 
d="M782 480c0 -124.667 -31.333 -232.668 -94 -324.001c-71.333 -104 -166.333 -156 -285 -156c-116.667 0 -211.334 48 -284.001 144c-66.667 86.667 -100 190.334 -100 311.001c0 133.333 31.333 226.333 94 279c56.667 46.667 153.334 70 290.001 70
c132.667 0 226.667 -20 282 -60c64.667 -46.667 97 -134.667 97 -264zM543 443.999c0 79.333 -6.00098 140.667 -18.001 184c-21.333 74 -61.666 111 -120.999 111c-100 0 -150 -96 -150 -288c0 -44 1.83301 -84.667 5.5 -122s9.16699 -71.333 16.5 -102
c24 -102 65.667 -153 125 -153c52 0 90.667 50.667 116 152c8.66699 34.667 15.167 70 19.5 106s6.5 73.333 6.5 112z" />
    <glyph glyph-name="afii10081" unicode="&#x43f;" horiz-adv-x="769" 
d="M364 789h58.998c10 0 21.667 0.333008 35 1s25 1.16699 35 1.5s18.333 0.5 25 0.5c156 5.33301 234 -1.33398 234 -20.001c0 -6.66699 -4.66699 -18.334 -14 -35.001c-11.333 -19.333 -18 -31.666 -20 -36.999c-8 -23.333 -12 -53 -12 -89v-466
c0 -22 7.66699 -47.333 23 -76s23 -43.334 23 -44.001c0 -7.33301 -6.33301 -13.333 -19 -18c-9.33301 -4.66699 -18.333 -7 -27 -7h-223c-9.33301 0 -17.166 4.16699 -23.499 12.5s-1.83301 25.833 13.5 52.5s23 53.334 23 80.001v393c0 62.667 -5.33301 105 -16 127
c-16.667 36.667 -47.667 55 -93 55c-48 0 -80.333 -18.333 -97 -55c-10.667 -22 -16 -64.333 -16 -127v-393c0 -26.667 7.66699 -53.334 23 -80.001s19.833 -44.167 13.5 -52.5s-14.166 -12.5 -23.499 -12.5h-223c-8.66699 0 -17.667 2.33301 -27 7
c-12.667 4.66699 -19 10.667 -19 18c0 0.666992 7.66699 15.334 23 44.001s23 54 23 76v466c0 36 -4 65.667 -12 89c-2 5.33301 -8.66699 17.666 -20 36.999c-9.33301 16.667 -14 28.334 -14 35.001c0 18.667 78 25.334 234 20.001c6.66699 0 15 -0.166992 25 -0.5
s21.667 -0.833008 35 -1.5s25 -1 35 -1h17z" />
    <glyph glyph-name="afii10082" unicode="&#x440;" horiz-adv-x="722" 
d="M271 802l112.001 -0.000976562c36.667 0 74 -0.333008 112 -1c140.667 -2 210 -60 208 -174c-0.666992 -71.333 -33 -130.333 -97 -177c-58 -42.667 -124 -63.667 -198 -63c-20 0 -42.333 3.33301 -67 10c-33.333 8.66699 -49.666 19 -48.999 31c0 11.333 8 17.333 24 18
l-3 -1h40c32.667 -0.666992 58.667 12 78 38c18 22.667 27.333 51.334 28 86.001c0 37.333 -5.33301 70.333 -16 99c-14.667 37.333 -38.334 56.333 -71.001 57c-46 0 -77.667 -21.667 -95 -65c-10.667 -27.333 -16 -69 -16 -125l1 -227c0 -30 0.166992 -54 0.5 -72
s0.833008 -30.667 1.5 -38c1.33301 -24.667 3.66602 -46.167 6.99902 -64.5s7.33301 -33.166 12 -44.499c0.666992 -2.66699 7.33398 -14 20.001 -34c10.667 -14.667 16 -25.334 16 -32.001l-29 -23h-180c-24.667 -0 -40.334 11.333 -47.001 34c-4 12.667 -6 34 -6 64v518
c0 38 -4.33301 66.667 -13 86c-0.666992 1.33301 -2.83398 5.33301 -6.50098 12l-15.5 27c-10.667 17.333 -16 29.333 -16 36c0 14 13 21.667 39 23c98.667 0 173.334 0.666992 224.001 2h2z" />
    <glyph glyph-name="afii10083" unicode="&#x441;" horiz-adv-x="697" 
d="M683 688c0 -48 -17.3291 -90.665 -51.9961 -127.998c-35.333 -37.333 -76 -56 -122 -56c-17.333 0 -36 4.33301 -56 13c-25.333 10 -38 21.333 -38 34c0 10.667 6.66699 19.667 20 27c11.333 6.66699 20.166 11.667 26.499 15l11.5 6c13.333 11.333 20 27 20 47
c0 12 -2.5 23.167 -7.5 33.5s-11.833 19.166 -20.5 26.499s-18.667 13 -30 17s-23.333 6 -36 6c-54 0 -93.333 -31.333 -118 -94c-17.333 -46 -26 -100.333 -26 -163c0 -116 20 -208.333 60 -277c50 -86.667 129 -130 237 -130c10 0 25 1 45 3
c10.667 1.33301 19.667 2.33301 27 3s13.666 1 18.999 1c3.33301 0 8.16602 -2.33301 14.499 -7s9.5 -8.66699 9.5 -12c0 -17.333 -33.333 -31 -100 -41c-49.333 -8 -92.333 -12 -129 -12c-130 0 -234.667 48.667 -314 146c-74 90.667 -111 202.667 -111 336
c0 97.333 21.333 172.666 64 225.999c47.333 59.333 117.666 89 210.999 89h275c80 0 120 -36.333 120 -109z" />
    <glyph glyph-name="afii10084" unicode="&#x442;" horiz-adv-x="719" 
d="M705 630c0 -42.667 -7.66797 -63.999 -23.001 -63.999c-7.33301 0 -18 11.667 -32 35c-18.667 31.333 -35 53.333 -49 66c-26.667 23.333 -57.334 35 -92.001 35c-26.667 0 -40 -19.667 -40 -59v-470c0 -32.667 14.667 -76.667 44 -132l5 -10l3 -4
c0.666992 -0.666992 1 -1.33398 1 -2.00098c0 -6 -4.66699 -11.667 -14 -17s-17.333 -8 -24 -8h-233c-15.333 0 -26.666 5.66699 -33.999 17c4 10.667 8 20.667 12 30s7.66699 18.333 11 27c16 36.667 24 70.334 24 101.001l-1 468c0 7.33301 -6.66699 18.666 -20 33.999
s-24 23 -32 23c-33.333 0 -61.666 -11.667 -84.999 -35c-8.66699 -8.66699 -24 -30 -46 -64c-15.333 -23.333 -29.333 -35 -42 -35c-16 0 -24 21.333 -24 64c0 33.333 6.66699 67 20 101c16.667 42.667 39 64 67 64h530c23.333 0 42.333 -22.333 57 -67
c11.333 -36 17 -68.667 17 -98z" />
    <glyph glyph-name="afii10085" unicode="&#x443;" horiz-adv-x="803" 
d="M490 195c-11.333 -24 -26.168 -49.667 -44.501 -77s-39 -51.5 -62 -72.5s-48 -36.5 -75 -46.5s-54.833 -9.66699 -83.5 1c-40.667 14.667 -67.334 39.667 -80.001 75c-12 31.333 -9.33301 68.333 8 111c11.333 30 28.666 48.667 51.999 56c8 0 13 -1.5 15 -4.5
s3 -7.5 3 -13.5v-21.5c0 -8.33301 2.33301 -17.5 7 -27.5c6 -14 14.333 -25 25 -33s22.334 -12.5 35.001 -13.5s26 2.16699 40 9.5s28 19.333 42 36c-13.333 32 -31 67 -53 105s-45.833 76.667 -71.5 116l-78 117l-71.5 108c-21.333 33.333 -38.666 63 -51.999 89
s-20 46 -20 60c0 21.333 16 32 48 32h212c4.66699 0 11.334 0.333008 20.001 1s15.334 1 20.001 1c26.667 0 40 -10.667 40 -32c0 -8.66699 -5 -23 -15 -43c-4.66699 -8.66699 -8.5 -16.334 -11.5 -23.001s-3.5 -12.667 -1.5 -18c10.667 -28 29.334 -67.333 56.001 -118
s59.667 -110 99 -178l47.5 99.5c14.333 30.333 24.166 52.166 29.499 65.499c8 22.667 13.833 41.834 17.5 57.501s6 29 7 40s1.5 20 1.5 27v19.5c0.666992 10.667 -1.5 21.667 -6.5 33s-9 21.833 -12 31.5s-3.16699 17.834 -0.5 24.501s11.667 10.667 27 12
c51.333 1.33301 90.666 2 117.999 2s45.5 -2.16699 54.5 -6.5s10.5 -11.333 4.5 -21s-16.333 -23.5 -31 -41.5c-15.333 -18 -33 -48 -53 -90l-64 -141l-70.5 -160c-24.333 -54.667 -48.5 -104 -72.5 -148z" />
    <glyph glyph-name="afii10086" unicode="&#x444;" horiz-adv-x="1092" 
d="M427 -1c-6 0 -13.502 2.83203 -22.502 8.49902s-13.5 11.167 -13.5 16.5s5.33301 18.333 16 39c12 22.667 19 37.667 21 45c8.66699 25.333 13 54.666 13 87.999l-1 383c-41.333 10.667 -74.333 11 -99 1s-43.834 -26.5 -57.501 -49.5s-22.5 -50.5 -26.5 -82.5
s-5.33301 -65 -4 -99c1.33301 -22.667 5.16602 -44.167 11.499 -64.5s15.833 -37.333 28.5 -51s28.667 -23.167 48 -28.5s43 -4.66602 71 2.00098l-2 2c7.33301 0 12.833 -2 16.5 -6s6.16699 -9 7.5 -15c-0.666992 -7.33301 -5.66699 -14.166 -15 -20.499
s-20.333 -11.833 -33 -16.5s-25.167 -8.33398 -37.5 -11.001s-21.833 -3.66699 -28.5 -3c-51.333 -4 -96.166 0.333008 -134.499 13s-70 31.334 -95 56.001s-43.167 54.5 -54.5 89.5s-15.666 72.833 -12.999 113.5c-2 43.333 3.16699 80 15.5 110s29.5 54.667 51.5 74
s47.5 33.666 76.5 42.999s59.167 15 90.5 17s62.833 1.16699 94.5 -2.5s61.167 -9.16699 88.5 -16.5v6c0 15.333 -2 30.833 -6 46.5s-9.66699 30.167 -17 43.5c-16 26.667 -24 41.334 -24 44.001c0 19.333 14 29 42 29h220c28 0 42 -9.66699 42 -29
c0 -2.66699 -8 -17.334 -24 -44.001c-7.33301 -13.333 -13 -27.833 -17 -43.5s-6 -31.167 -6 -46.5v-6c26.667 7.33301 55.834 12.833 87.501 16.5s63.334 4.5 95.001 2.5s61.834 -7.66699 90.501 -17s54 -23.666 76 -42.999s39.167 -44 51.5 -74s17.833 -66.667 16.5 -110
c0.666992 -39.333 -5.5 -76.5 -18.5 -111.5s-32.333 -65.167 -58 -90.5s-57.167 -44.5 -94.5 -57.5s-79.333 -17.167 -126 -12.5c-6.66699 -0.666992 -16.167 0.333008 -28.5 3s-24.833 6.33398 -37.5 11.001s-23.667 10.167 -33 16.5s-14.333 13.166 -15 20.499
c1.33301 6 3.83301 11 7.5 15s9.16699 6 16.5 6l-2 -2c28 -6.66699 51.667 -7.33398 71 -2.00098s35.333 14.833 48 28.5s22.167 30.667 28.5 51s10.166 41.833 11.499 64.5c0.666992 34 -1 67 -5 99s-12.667 59.5 -26 82.5s-32.5 39.5 -57.5 49.5s-57.833 9.66699 -98.5 -1
l-1 -383c0 -33.333 4.33301 -62.666 13 -87.999c2 -7.33301 9 -22.333 21 -45c10.667 -20.667 16 -33.667 16 -39s-4.5 -10.833 -13.5 -16.5s-16.5 -8.5 -22.5 -8.5h-236z" />
    <glyph glyph-name="afii10087" unicode="&#x445;" horiz-adv-x="812" 
d="M792 49l-14.0029 -35.002c-11.333 -9.33301 -36.666 -14 -75.999 -14h-191l-25 17l-4 15c0 6.66699 4.66699 16.667 14 30c10 12.667 15 22 15 28c0 40.667 -61 120.667 -183 240l-14 -2c-14.667 -12.667 -29.5 -27.667 -44.5 -45s-30.5 -37 -46.5 -59
c-38 -52 -57 -91 -57 -117c0 -10 6.33301 -23.333 19 -40s19 -29 19 -37c0 -20.667 -25.333 -31 -76 -31h-24c-13.333 0 -32.666 0.333008 -57.999 1l-21 22c0 44 18 93 54 147c6.66699 10 18.334 25.5 35.001 46.5l66 79.5l42 49l46 54c-3.33301 8.66699 -14 24 -32 46
l-16.5 19l-21.5 24c-118.667 128.667 -178 216.334 -178 263.001c0 20 8.66699 37 26 51c56 2 140.333 3 253 3l17 -23c0 -9.33301 -3.33301 -21 -10 -35c-6 -15.333 -9 -26.666 -9 -33.999c0 -14.667 18.333 -43.334 55 -86.001c36.667 -42 62 -63.667 76 -65
c21.333 6.66699 51.666 30.667 90.999 72s59 72.333 59 93c0 4 -0.833008 8.83301 -2.5 14.5s-3.5 11.5 -5.5 17.5s-3.83301 11.833 -5.5 17.5s-2.5 10.5 -2.5 14.5l17 14c19.333 1.33301 36.333 2.33301 51 3s27.334 1 38.001 1c28.667 0 52 -2.33301 70 -7
c10.667 -12 16.667 -25 18 -39c-9.33301 -14.667 -26.166 -34 -50.499 -58s-56.5 -53.333 -96.5 -88c-74 -63.333 -115.667 -106.666 -125 -129.999l175 -214c77.333 -94 121.666 -168.333 132.999 -223z" />
    <glyph glyph-name="afii10088" unicode="&#x446;" horiz-adv-x="902" 
d="M581 1l0.000976562 1.99902c-3.33301 -0.666992 -6.66602 -1 -9.99902 -1h-10c-44 -2.66699 -84 -3.66699 -120 -3s-68.333 1 -97 1c-95.333 0 -172.333 27.333 -231 82c-62.667 56 -94 130.667 -94 224c0 44.667 11 109.667 33 195c22.667 86 34 147 34 183
c0 26.667 -9.66699 51.667 -29 75l19 35c21.333 2.66699 47.5 4.66699 78.5 6s67.5 2 109.5 2h30l29 -21c0 -39.333 -9.66699 -103.333 -29 -192s-29 -152.667 -29 -192c0 -220 63.333 -330 190 -330c50.667 0 76 45.333 76 136c0 6.66699 -0.5 17.667 -1.5 33
s-1.5 29 -1.5 41v107v37c0 11.333 -0.333008 22.333 -1 33c-4 159.333 -29.667 261 -77 305c0 32 29 48 87 48c6.66699 0 16.5 -0.333008 29.5 -1s22.5 -1 28.5 -1l97 -1c28.667 -16.667 43 -83 43 -199c0 -7.33301 -0.166992 -19 -0.5 -35s-0.833008 -32.667 -1.5 -50
s-1.16699 -34 -1.5 -50s-0.5 -27.667 -0.5 -35c0 -108 1 -176 3 -204c2 -30.667 5.16699 -58.5 9.5 -83.5s10.166 -45.833 17.499 -62.5c38 2 62 1.66699 72 -1c14 -5.33301 26 -18.333 36 -39c8.66699 -16 14 -34 16 -54c4.66699 -41.333 -5.33301 -77.333 -30 -108
c-25.333 -31.333 -58.666 -49.666 -99.999 -54.999c-18 -2 -36 -1.33301 -54 2c-24.667 4 -37.334 13 -38.001 27c-0.666992 4.66699 4.66602 11.667 15.999 21c8.66699 7.33301 15.5 13.333 20.5 18s8.83301 8.66699 11.5 12c10.667 12.667 15 27.667 13 45
c-3.33301 28.667 -18.333 45.667 -45 51c-15.333 4 -40 3.66699 -74 -1c-0.666992 0 -3 -0.166992 -7 -0.5s-9.66699 -0.833008 -17 -1.5z" />
    <glyph glyph-name="afii10089" unicode="&#x447;" horiz-adv-x="777" 
d="M495 199l-0.999023 86.001c-22 -6.66699 -50.167 -11.667 -84.5 -15s-70.5 -3.66602 -108.5 -0.999023s-75.5 9.33398 -112.5 20.001s-69.167 26.667 -96.5 48s-47.5 49 -60.5 83s-14.5 75.667 -4.5 125c6.66699 28 12.667 55.167 18 81.5s8 46.166 8 59.499
c0 12.667 -3.83301 24.334 -11.5 35.001s-14.334 20.5 -20.001 29.5s-8 17.333 -7 25s10.5 15.167 28.5 22.5c21.333 2.66699 47.5 4.66699 78.5 6s67.5 2 109.5 2h30c11.333 0.666992 19 -2.83301 23 -10.5s5.5 -18.5 4.5 -32.5s-3.66699 -30.333 -8 -49l-13.5 -61
c-14 -59.333 -19.667 -109.166 -17 -149.499s11.667 -73 27 -98s35.833 -43 61.5 -54s54.5 -16.5 86.5 -16.5c50.667 0 76 45.333 76 136c-2 79.333 -9.5 141.666 -22.5 186.999s-31.167 79 -54.5 101c0 32 29 48 87 48c6.66699 0 16.5 -0.333008 29.5 -1s22.5 -1 28.5 -1
l97 -1c14 0 24.167 -4.83301 30.5 -14.5s10.333 -23.334 12 -41.001s2.16699 -38.834 1.5 -63.501s-1 -51.334 -1 -80.001c0 -7.33301 -0.166992 -19 -0.5 -35s-0.833008 -32.667 -1.5 -50s-1.16699 -34 -1.5 -50s-0.5 -27.667 -0.5 -35c0 -108 1 -176 3 -204
c0 -55.333 4.33301 -96 13 -122c2 -7.33301 9 -22.333 21 -45c10.667 -20.667 16 -33.667 16 -39s-4.5 -10.833 -13.5 -16.5s-16.5 -8.5 -22.5 -8.5h-237c-6.66699 0 -14.667 3 -24 9s-14 12 -14 18l23 60c5.33301 14 8.33301 22 9 24c10.667 32 16 61.333 16 88z" />
    <glyph glyph-name="afii10090" unicode="&#x448;" horiz-adv-x="1220" 
d="M1155 1c-2.66699 -0.666992 -13.1641 -1.15918 -31.4971 -1.49219s-41.5 -0.5 -69.5 -0.5h-95c-35.333 0 -71.333 0.166992 -108 0.5l-108 1c-35.333 0.333008 -67.166 0.666016 -95.499 0.999023s-51.833 0.5 -70.5 0.5h-32c-44 -2.66699 -81.333 -3.66699 -112 -3
s-60.334 1 -89.001 1c-95.333 0 -172.333 27.333 -231 82c-62.667 56 -94 130.667 -94 224c0 44.667 11 109.667 33 195l28 111.5c7.33301 30.333 9.33301 54.166 6 71.499c-2 11.333 -7.33301 22.833 -16 34.5s-15.834 22.5 -21.501 32.5s-7.33398 18.667 -5.00098 26
s13.166 13 32.499 17c21.333 2.66699 47.5 4.66699 78.5 6s67.5 2 109.5 2h30c14 0.666992 22.833 -6 26.5 -20s4.33398 -31.667 2.00098 -53s-6.5 -44.5 -12.5 -69.5s-11.333 -48.5 -16 -70.5c-19.333 -88.667 -29 -152.667 -29 -192c0 -110 13.167 -192.5 39.5 -247.5
s71.166 -82.5 134.499 -82.5c50.667 0 76 45.333 76 136c0 6.66699 -0.5 17.667 -1.5 33s-1.5 29 -1.5 41v107v26.5v48v58.5v57.5c0 17.667 -0.166992 33.167 -0.5 46.5s-0.5 21.666 -0.5 24.999c0 28.667 -7.66699 57.667 -23 87s-23 45.333 -23 48c0 16 14.667 24 44 24
h214c28 0 42 -9.66699 42 -29c0 -2.66699 -8 -17.334 -24 -44.001c-15.333 -27.333 -23 -56 -23 -86c0 -18 -0.166992 -40.667 -0.5 -68s-0.666016 -56.5 -0.999023 -87.5l-1 -94.5c-0.333008 -32 -0.5 -61.167 -0.5 -87.5v-67.5v-35c0 -90.667 26.333 -136 79 -136h62
c25.333 0 45.666 11.833 60.999 35.5s23 58.5 23 104.5c0 6.66699 0.333008 16.167 1 28.5s1 24.5 1 36.5v107v37c0 11.333 -0.333008 22.333 -1 33c-4 159.333 -29.667 261 -77 305c0 32 29 48 87 48c6.66699 0 16.5 -0.333008 29.5 -1s22.5 -1 28.5 -1l97 -1
c12.667 0 22 -4.83301 28 -14.5s10.167 -23.334 12.5 -41.001s3.33301 -38.834 3 -63.501s-0.5 -51.334 -0.5 -80.001c0 -7.33301 -0.166992 -19 -0.5 -35s-0.833008 -32.667 -1.5 -50s-1.16699 -34 -1.5 -50s-0.5 -27.667 -0.5 -35c0 -27.333 0.166992 -55.5 0.5 -84.5
s0.666016 -56.5 0.999023 -82.5s0.833008 -48.667 1.5 -68s1.33398 -32.333 2.00098 -39c0 -30 7.66699 -58.333 23 -85c16 -26.667 24 -41.334 24 -44.001c0 -19.333 -14 -29 -42 -29z" />
    <glyph glyph-name="afii10091" unicode="&#x449;" horiz-adv-x="1321" 
d="M294 589c-19.333 -88.667 -28.9961 -152.664 -28.9961 -191.997c0 -110 13.167 -192.5 39.5 -247.5s71.166 -82.5 134.499 -82.5c50.667 0 76 45.333 76 136c0 6.66699 -0.5 17.667 -1.5 33s-1.5 29 -1.5 41v107v26.5v48v58.5v57.5c0 17.667 -0.166992 33.167 -0.5 46.5
s-0.5 21.666 -0.5 24.999c0 28.667 -7.66699 57.667 -23 87s-23 45.333 -23 48c0 16 14.667 24 44 24h214c28 0 42 -9.66699 42 -29c0 -2.66699 -8 -17.334 -24 -44.001c-15.333 -27.333 -23 -56 -23 -86c0 -18 -0.166992 -40.667 -0.5 -68s-0.666016 -56.5 -0.999023 -87.5
l-1 -94.5c-0.333008 -32 -0.5 -61.167 -0.5 -87.5v-67.5v-35c0 -90.667 26.333 -136 79 -136h62c25.333 0 45.666 11.833 60.999 35.5s23 58.5 23 104.5c0 6.66699 0.333008 16.167 1 28.5s1 24.5 1 36.5v107v37c0 11.333 -0.333008 22.333 -1 33
c-4 159.333 -29.667 261 -77 305c0 32 29 48 87 48c6.66699 0 16.5 -0.333008 29.5 -1s22.5 -1 28.5 -1l97 -1c28.667 -16.667 43 -83 43 -199c0 -7.33301 -0.166992 -19 -0.5 -35s-0.833008 -32.667 -1.5 -50s-1.16699 -34 -1.5 -50s-0.5 -27.667 -0.5 -35
c0 -108 1 -176 3 -204c2 -30.667 5.16699 -58.5 9.5 -83.5s10.166 -45.833 17.499 -62.5c38 2 62 1.66699 72 -1c14 -5.33301 26 -18.333 36 -39c8.66699 -16 14 -34 16 -54c4.66699 -41.333 -5.33301 -77.333 -30 -108c-25.333 -31.333 -58.666 -49.666 -99.999 -54.999
c-18 -2 -36 -1.33301 -54 2c-24.667 4 -37.334 13 -38.001 27c-0.666992 4.66699 4.66602 11.667 15.999 21c8.66699 7.33301 15.5 13.333 20.5 18s8.83301 8.66699 11.5 12c10.667 12.667 15 27.667 13 45c-3.33301 28.667 -18.333 45.667 -45 51
c-15.333 4 -40 3.66699 -74 -1c-2 -0.666992 -14.167 -1 -36.5 -1h-82c-32.333 0 -67.333 0.166992 -105 0.5s-73 0.666016 -106 0.999023s-61.167 0.666016 -84.5 0.999023s-36.666 0.5 -39.999 0.5c-3.33301 -0.666992 -6.66602 -1 -9.99902 -1h-10
c-44 -2.66699 -81.333 -3.66699 -112 -3s-60.334 1 -89.001 1c-95.333 -0 -172.333 27.333 -231 82c-62.667 56 -94 130.667 -94 224c0 44.667 11 109.667 33 195c22.667 86 34 147 34 183c-2 11.333 -7.33301 22.833 -16 34.5s-15.834 22.5 -21.501 32.5
s-7.33398 18.667 -5.00098 26s13.166 13 32.499 17c21.333 2.66699 47.5 4.66699 78.5 6s67.5 2 109.5 2h30c14 0.666992 22.833 -6 26.5 -20s4.33398 -31.667 2.00098 -53s-6.5 -44.5 -12.5 -69.5s-11.333 -48.5 -16 -70.5z" />
    <glyph glyph-name="afii10092" unicode="&#x44a;" horiz-adv-x="924" 
d="M668 218c0 30.667 -6.16699 56.8311 -18.5 78.498s-28.333 40.334 -48 56.001s-41.667 29 -66 40s-48.5 20.833 -72.5 29.5c-7.33301 2 -11 -16.333 -11 -55v-177c0 -29.333 6 -55.333 18 -78c14.667 -28 35.334 -42 62.001 -42c39.333 0 71.666 14.667 96.999 44
c26 28.667 39 63.334 39 104.001zM473 803.997c28 0 42.001 -9.66797 42.001 -29.001c0 -2.66699 -8 -17.334 -24 -44.001c-15.333 -27.333 -23 -56 -23 -86c-2 -3.33301 -3.33301 -11.166 -4 -23.499s-0.833984 -25.333 -0.500977 -39s1.16602 -26.167 2.49902 -37.5
s3.33301 -17.666 6 -18.999c27.333 -16.667 57.166 -30.5 89.499 -41.5l96 -32.5c31.667 -10.667 62.334 -22.167 92.001 -34.5s55.834 -28 78.501 -47s40.834 -42.5 54.501 -70.5s20.5 -62.667 20.5 -104c0 -62.667 -22.667 -111.667 -68 -147
c-40.667 -32.667 -93.334 -49 -158.001 -49h-404c-9.33301 -1.33301 -16.333 1.83398 -21 9.50098s-7.83398 18 -9.50098 31s-2.33398 28 -2.00098 45s1.33301 34.833 3 53.5s3.16699 37.167 4.5 55.5s2 35.166 2 50.499c0 46.667 1 117 3 211
c0.666992 46.667 0.833984 85 0.500977 115s-0.5 56.667 -0.5 80c0 39.333 -14 59 -42 59c-34 0 -64.667 -11.667 -92 -35c-13.333 -12 -29.666 -34 -48.999 -66c-14 -23.333 -24.667 -35 -32 -35c-15.333 0 -23 21.333 -23 64c0 28 5.66699 60.667 17 98
c14.667 44.667 33.667 67 57 67z" />
    <glyph glyph-name="afii10093" unicode="&#x44b;" horiz-adv-x="1059" 
d="M472 218c0 30.667 -6.16699 56.8311 -18.5 78.498s-28.333 40.334 -48 56.001s-41.667 29 -66 40s-48.5 20.833 -72.5 29.5c-7.33301 2 -11 -16.333 -11 -55v-177c0 -29.333 6 -55.333 18 -78c14.667 -28 35.334 -42 62.001 -42c39.333 0 71.666 14.667 96.999 44
c26 28.667 39 63.334 39 104.001zM57 602.997c1.33301 56.667 -5.66406 99.666 -20.9971 128.999s-23 45.333 -23 48c0 16 14.667 24 44 24h220c28 0 42 -9.66699 42 -29c0 -2.66699 -8 -17.334 -24 -44.001c-15.333 -27.333 -23 -56 -23 -86
c-2 -3.33301 -3.33301 -11.166 -4 -23.499s-0.833984 -25.333 -0.500977 -39s1.16602 -26.167 2.49902 -37.5s3.33301 -17.666 6 -18.999c27.333 -16.667 57.166 -30.5 89.499 -41.5l96 -32.5c31.667 -10.667 62.334 -22.167 92.001 -34.5s55.834 -28 78.501 -47
s40.834 -42.5 54.501 -70.5s20.5 -62.667 20.5 -104c0 -62.667 -22.667 -111.667 -68 -147c-40.667 -32.667 -93.334 -49 -158.001 -49h-404c-9.33301 -1.33301 -16.333 1.83398 -21 9.50098s-7.83398 18 -9.50098 31s-2.33398 28 -2.00098 45s1.33301 34.833 3 53.5
s3.16699 37.167 4.5 55.5s2 35.166 2 50.499c0 46.667 1 117 3 211c0.666992 23.333 1 42 1 56v35c0 9.33301 -0.166992 18 -0.5 26s-0.5 18 -0.5 30zM1035 24.9961c0 -5.33301 -4.5 -10.832 -13.5 -16.499s-16.5 -8.5 -22.5 -8.5h-236c-6.66699 0 -14.667 3 -24 9
s-14 12 -14 18l23 60c5.33301 14 8.33301 22 9 24c10.667 32 16 61.333 16 88v446c0 28.667 -7.66699 57.667 -23 87s-23 45.333 -23 48c0 16 14.667 24 44 24h220c28 0 42 -9.66699 42 -29c0 -2.66699 -8 -17.334 -24 -44.001c-15.333 -27.333 -23 -56 -23 -86l-1 -448
c0 -32.667 4.33301 -62 13 -88c2 -7.33301 9 -22.333 21 -45c10.667 -20.667 16 -33.667 16 -39z" />
    <glyph glyph-name="afii10094" unicode="&#x44c;" horiz-adv-x="726" 
d="M472 218c0 30.667 -6.16699 56.8311 -18.5 78.498s-28.333 40.334 -48 56.001s-41.667 29 -66 40s-48.5 20.833 -72.5 29.5c-7.33301 2 -11 -16.333 -11 -55v-177c0 -29.333 6 -55.333 18 -78c14.667 -28 35.334 -42 62.001 -42c39.333 0 71.666 14.667 96.999 44
c26 28.667 39 63.334 39 104.001zM57 602.997c1.33301 56.667 -5.66406 99.666 -20.9971 128.999s-23 45.333 -23 48c0 16 14.667 24 44 24h220c28 0 42 -9.66699 42 -29c0 -2.66699 -8 -17.334 -24 -44.001c-15.333 -27.333 -23 -56 -23 -86
c-2 -3.33301 -3.33301 -11.166 -4 -23.499s-0.833984 -25.333 -0.500977 -39s1.16602 -26.167 2.49902 -37.5s3.33301 -17.666 6 -18.999c27.333 -16.667 57.166 -30.5 89.499 -41.5l96 -32.5c31.667 -10.667 62.334 -22.167 92.001 -34.5s55.834 -28 78.501 -47
s40.834 -42.5 54.501 -70.5s20.5 -62.667 20.5 -104c0 -62.667 -22.667 -111.667 -68 -147c-40.667 -32.667 -93.334 -49 -158.001 -49h-404c-9.33301 -1.33301 -16.333 1.83398 -21 9.50098s-7.83398 18 -9.50098 31s-2.33398 28 -2.00098 45s1.33301 34.833 3 53.5
s3.16699 37.167 4.5 55.5s2 35.166 2 50.499c0 46.667 1 117 3 211c0.666992 23.333 1 42 1 56v35c0 9.33301 -0.166992 18 -0.5 26s-0.5 18 -0.5 30z" />
    <glyph glyph-name="afii10095" unicode="&#x44d;" horiz-adv-x="697" 
d="M432 424c5.33301 48 4.83496 89.3408 -1.49805 124.008s-13.833 63.667 -22.5 87c-12.667 32 -30 55.5 -52 70.5s-47 22.833 -75 23.5c-24.667 0 -45.5 -3.33301 -62.5 -10s-31.833 -15.334 -44.5 -26.001s-23.834 -22.334 -33.501 -35.001
s-19.334 -24.334 -29.001 -35.001s-20.334 -19.667 -32.001 -27s-25.834 -11 -42.501 -11c-6 0 -10.833 5.5 -14.5 16.5s-6.16699 24.5 -7.5 40.5s-1.16602 33.5 0.500977 52.5s4.5 36.167 8.5 51.5s9.66699 27.833 17 37.5s16 13.5 26 11.5
c0.666992 0.666992 8.66699 1 24 1h26c10 0 21.667 0.333008 35 1h249c93.333 0 163.666 -29.667 210.999 -89c42.667 -52.667 64 -128 64 -226c0 -133.333 -37 -245.333 -111 -336c-79.333 -97.333 -184 -146 -314 -146c-37.333 0 -80.333 4 -129 12
c-66.667 10 -100 23.667 -100 41c0 3.33301 3.16699 7.33301 9.5 12s11.166 7 14.499 7h102c34 0 66.333 4 97 12c20.667 6 40.667 15.667 60 29s36.333 29.166 51 47.499s26.667 38.666 36 60.999s14.333 45.166 15 68.499c0.666992 18 -1.16602 34.667 -5.49902 50
s-10.666 28.666 -18.999 39.999s-18 20.166 -29 26.499s-22.833 9.5 -35.5 9.5c-9.33301 0 -18.166 -3.66699 -26.499 -11s-14.833 -16.333 -19.5 -27s-7.16699 -22.167 -7.5 -34.5s2.5 -23.5 8.5 -33.5c-18.667 0 -36 3.33301 -52 10s-29.833 15.667 -41.5 27
s-20.834 25 -27.501 41s-10 33.333 -10 52c0 28 7 51 21 69s31.333 31 52 39s42.834 11 66.501 9s45.5 -9 65.5 -21c8 -4.66699 16.333 -11.667 25 -21s17 -19.5 25 -30.5s15.167 -22 21.5 -33s10.833 -20.167 13.5 -27.5z" />
    <glyph glyph-name="afii10096" unicode="&#x44e;" horiz-adv-x="1160" 
d="M285 486c13.333 15.333 27.667 26.3301 43 32.9971s30.666 9.33398 45.999 8.00098c10 94.667 40.333 163.334 91 206.001c56.667 46.667 153.334 70 290.001 70c132.667 0 226.667 -20 282 -60c64.667 -46.667 97 -134.667 97 -264
c0 -125.333 -31.333 -233.333 -94 -324c-71.333 -104 -166.333 -156 -285 -156c-53.333 0 -101.666 10.333 -144.999 31s-80.666 48.667 -111.999 84s-56.5 76.333 -75.5 123s-30.833 96 -35.5 148c-1.33301 3.33301 -6.16602 6.83301 -14.499 10.5s-18.333 4.5 -30 2.5
s-23.5 -8.5 -35.5 -19.5s-22 -29.5 -30 -55.5v-152c0 -20.667 6.33301 -47 19 -79s19 -55 19 -69c0 -5.33301 -3.83301 -10.5 -11.5 -15.5s-14.167 -7.5 -19.5 -7.5h-201c-28 0 -46 4.33301 -54 13c2 2.66699 5 11.667 9 27c1.33301 6.66699 3 14.334 5 23.001l7 30
c8.66699 42.667 15.167 77.834 19.5 105.501s6.5 48.167 6.5 61.5v227c0 105.333 -6.66699 181.666 -20 228.999c-0.666992 2 -2.33398 5.5 -5.00098 10.5s-6.66699 11.833 -12 20.5c-9.33301 17.333 -14 27.333 -14 30c0 6 3.5 11.833 10.5 17.5s13.5 8.5 19.5 8.5h232
c19.333 0 29 -10 29 -30c0 -6 -6 -19.333 -18 -40c-11.333 -21.333 -17 -39 -17 -53v-98v-17.5c0 -10.333 0.166992 -21.333 0.5 -33s0.666016 -22.167 0.999023 -31.5s1.16602 -14 2.49902 -14zM895.001 442.997c0 79.333 -6.00098 140.667 -18.001 184
c-21.333 74 -61.666 111 -120.999 111c-100 0 -150 -96 -150 -288c0 -44 1.83301 -84.667 5.5 -122s9.16699 -71.333 16.5 -102c24 -102 65.667 -153 125 -153c52 0 90.667 50.667 116 152c8.66699 34.667 15.167 70 19.5 106s6.5 73.333 6.5 112zM25 22.998
c0 -7.33301 0.666016 -11 1.99902 -11c0.666992 0 1.33398 0.333008 2.00098 1c-2.66699 2.66699 -4 6 -4 10z" />
    <glyph glyph-name="afii10097" unicode="&#x44f;" horiz-adv-x="761" 
d="M10 -2c0.666992 3.33301 6 12.5 16 27.5s24.333 35.167 43 60.5c32.667 46 59.334 84.833 80.001 116.5s37 59 49 82s20.333 43.167 25 60.5s7 34.333 7 51c0 7.33301 -3.83301 15.333 -11.5 24s-20.5 19 -38.5 31c-30 20.667 -54.167 39.167 -72.5 55.5
s-32.5 31.833 -42.5 46.5s-16.833 29.667 -20.5 45s-5.5 32.333 -5.5 51c-0.666992 40.667 6.5 71.5 21.5 92.5s38 36 69 45s70 13.833 117 14.5s102.167 1 165.5 1h75.5h86c29 0 56.667 0.333008 83 1s48.5 1.66699 66.5 3c16.667 -14 25 -27.5 25 -40.5s-3 -29.5 -9 -49.5
c-6 -16 -10.333 -29.667 -13 -41s-4.66699 -21.333 -6 -30s-2 -17.167 -2 -25.5v-27.5c0 -10 0.166992 -28.333 0.5 -55s0.833008 -57.834 1.5 -93.501s1.33398 -73.5 2.00098 -113.5l2 -114.5c0.666992 -36.333 1.16699 -68.5 1.5 -96.5s0.5 -48 0.5 -60
s-0.833008 -21.667 -2.5 -29s-5.83398 -13.166 -12.501 -17.499s-17.167 -7.33301 -31.5 -9s-33.833 -3.16699 -58.5 -4.5l-109 2c-15.333 0 -27 1.33301 -35 4s-12 7.66699 -12 15l6.5 14c4.33301 9.33301 9.33301 20.833 15 34.5s11 28.167 16 43.5
s7.83301 29.666 8.5 42.999c0 6 0.333008 19 1 39s1.16699 41.167 1.5 63.5s0.666016 43.5 0.999023 63.5s0.5 33 0.5 39c0 66 -1.16699 122.333 -3.5 169s-7.33301 84.834 -15 114.501s-19 51.334 -34 65.001s-34.833 20.5 -59.5 20.5c-36 0 -63.833 -12.833 -83.5 -38.5
s-29.5 -59.5 -29.5 -101.5c0 -14.667 2 -29 6 -43s9.66699 -26.333 17 -37s15.833 -19.334 25.5 -26.001s20.167 -10 31.5 -10c2.66699 0 6.66699 0.333008 12 1s11 1.5 17 2.5l17.5 3c5.66699 1 10.5 1.5 14.5 1.5c27.333 0 41 -19.667 41 -59
c0 -28.667 -8 -59.334 -24 -92.001s-36.833 -65 -62.5 -97s-54.667 -62.667 -87 -92s-64.833 -55.333 -97.5 -78s-64 -41.167 -94 -55.5s-55.333 -22.166 -76 -23.499l-21 14v0z" />
    <glyph glyph-name="afii10071" unicode="&#x451;" horiz-adv-x="667" 
d="M649 211c0 -36 -9.66504 -78.001 -28.998 -126.001c-22.667 -56.667 -49 -85 -79 -85h-476c-30.667 0 -46 10.667 -46 32c0 8 5.33301 19.333 16 34c14.667 20 22.667 31.333 24 34c9.33301 22 14 47.333 14 76l-1 461c0 29.333 -4.33301 52.333 -13 69
c-0.666992 1.33301 -2.83398 4.5 -6.50098 9.5l-15.5 21.5c-10.667 13.333 -16 24 -16 32c0 18.667 17.333 28 52 28c28.667 0 64.167 -0.166992 106.5 -0.5s92.166 0.166992 149.499 1.5c114 4 199.333 6 256 6c14.667 0 26 -18 34 -54c2.66699 -12.667 4.66699 -25 6 -37
s2 -24 2 -36c0 -30.667 -8.33301 -46 -25 -46c-7.33301 0 -19.666 8.33301 -36.999 25c-22.667 22 -42.667 37.667 -60 47c-29.333 16.667 -63 25 -101 25c-53.333 0 -88.333 -18 -105 -54c-10.667 -22 -16 -63.667 -16 -125c0 -14 3.33301 -24.333 10 -31
c10.667 30 31.667 54 63 72c28.667 16.667 60 25 94 25c28 0 53.333 -13.333 76 -40c23.333 -26.667 35 -53.667 35 -81c0 -18.667 -3.33301 -36 -10 -52s-15.834 -29.667 -27.501 -41s-25.5 -20.333 -41.5 -27s-33.333 -10 -52 -10l-5 11c7.33301 16.667 11 29.667 11 39
c0 10.667 -6 22.667 -18 36c-11.333 13.333 -22.333 20 -33 20c-72 0 -108 -72 -108 -216c0 -60 2.33301 -98 7 -114c10.667 -40.667 38 -61 82 -61c46 0 89.333 14.333 130 43c23.333 16.667 50.333 43.334 81 80.001c24 28.667 39.333 43 46 43
c5.33301 0 11 -4.33301 17 -13s9 -15.667 9 -21zM543.002 919.999c0 -10.667 -2.16699 -20.834 -6.5 -30.501s-10.166 -18 -17.499 -25s-15.833 -12.667 -25.5 -17s-19.834 -6.5 -30.501 -6.5s-21 2 -31 6s-18.833 9.5 -26.5 16.5s-13.834 15.167 -18.501 24.5
s-7 19.333 -7 30s2.16699 20.834 6.5 30.501s10.166 18 17.499 25s15.833 12.667 25.5 17s19.834 6.5 30.501 6.5s21 -2 31 -6s18.833 -9.5 26.5 -16.5s13.834 -15.167 18.501 -24.5s7 -19.333 7 -30zM313.002 919.999c0 -10.667 -2.16699 -20.834 -6.5 -30.501
s-10.166 -18 -17.499 -25s-15.833 -12.667 -25.5 -17s-19.834 -6.5 -30.501 -6.5s-21 2 -31 6s-18.833 9.5 -26.5 16.5s-13.834 15.167 -18.501 24.5s-7 19.333 -7 30s2.16699 20.834 6.5 30.501s10.166 18 17.499 25s15.833 12.667 25.5 17s19.834 6.5 30.501 6.5
s21 -2 31 -6s18.833 -9.5 26.5 -16.5s13.834 -15.167 18.501 -24.5s7 -19.333 7 -30z" />
    <glyph glyph-name="afii10101" unicode="&#x454;" horiz-adv-x="697" 
d="M262 424c2.66699 7.33301 7.16895 16.4922 13.502 27.4922s13.5 22 21.5 33s16.333 21.167 25 30.5s17 16.333 25 21c20 12 41.833 19 65.5 21s45.834 -1 66.501 -9s38 -21 52 -39s21 -41 21 -69c0 -18.667 -3.33301 -36 -10 -52s-15.834 -29.667 -27.501 -41
s-25.5 -20.333 -41.5 -27s-33.333 -10 -52 -10c6 10 8.83301 21.167 8.5 33.5s-2.83301 23.833 -7.5 34.5s-11.167 19.667 -19.5 27s-17.166 11 -26.499 11c-12.667 0 -24.5 -3.16699 -35.5 -9.5s-20.667 -15.166 -29 -26.499s-14.666 -24.666 -18.999 -39.999
s-6.16602 -32 -5.49902 -50c0.666992 -23.333 5.66699 -46.166 15 -68.499s21.333 -42.666 36 -60.999s31.667 -34.166 51 -47.499s39.333 -23 60 -29c30.667 -8 63 -12 97 -12h102c3.33301 0 8.16602 -2.33301 14.499 -7s9.5 -8.66699 9.5 -12
c0 -17.333 -33.333 -31 -100 -41c-49.333 -8 -92.333 -12 -129 -12c-130 0 -234.667 48.667 -314 146c-74 90.667 -111 202.667 -111 336c0 98 21.333 173.333 64 226c47.333 59.333 117.666 89 210.999 89h249c13.333 -0.666992 25 -1 35 -1h26
c15.333 0 23.333 -0.333008 24 -1c10 2 18.667 -1.83301 26 -11.5s13 -22.167 17 -37.5s6.83301 -32.5 8.5 -51.5s1.83398 -36.5 0.500977 -52.5s-3.83301 -29.5 -7.5 -40.5s-8.5 -16.5 -14.5 -16.5c-16.667 0 -30.834 3.66699 -42.501 11s-22.334 16.333 -32.001 27
s-19.334 22.334 -29.001 35.001s-20.834 24.334 -33.501 35.001s-27.5 19.334 -44.5 26.001s-37.833 10 -62.5 10c-28 -0.666992 -53 -8.5 -75 -23.5s-39.333 -38.5 -52 -70.5c-8.66699 -23.333 -16.167 -52.333 -22.5 -87s-6.83301 -76 -1.5 -124z" />
    </font>
</defs>
</svg>
