<svg xmlns="http://www.w3.org/2000/svg" viewBox="0 0 10.76 18.6"><defs><style>.cls-1{fill:#623c25;}</style></defs><title>12_d</title><g id="Layer_2" data-name="Layer 2"><g id="Layer_1-2" data-name="Layer 1"><path class="cls-1" d="M10.72,17.08h0v.22H9.64l-.66,0H8.72l-1,.05-.32,0H7.08l-.46,0H6.29l-.07,0-.32,0-1.32,0H4.26l-1.91,0A11.23,11.23,0,0,0,0,17.37V17A4.78,4.78,0,0,1,.66,17,9.25,9.25,0,0,0,2,17c1,0,1.87.1,2.88,0L5.83,17,6,17l1.24,0L8.39,17l2.34-.08v0h0Zm-.89.74-.92,0-.26,0H6.16l-.27,0-1.44,0c-.36.16-.14,0-.39,0h-.6l-.32,0-2,0L0,17.7v.89l2.21-.07,6.11,0H8.7l0,.08.18-.17v.1l.59,0,1.24,0v-.82C10.51,17.63,10,17.82,9.83,17.82Zm.89-.07h0v.85h0v-.92h0ZM0,0V12.37H3.76l-3.21,0H0v0H10.76V0ZM10.73,15.89l0-.05v-.27h0Zm0,1.07v.13l0,0V17l0,0Zm0-1,0,0v.59L9.09,15.34c-.63-.1-1-.92-1.5-.94L5,16.27a25.26,25.26,0,0,0-2.68-1.9,2,2,0,0,1-1.12.81,6.06,6.06,0,0,1-1.19,1V14.63L2.13,13l.39-.09A27.06,27.06,0,0,0,5,14.7c.17,0,.19-.1.27-.23l.26.09c0-.34.7-.74,1-.93a7.91,7.91,0,0,1,1.09-.77H7.7a6.48,6.48,0,0,1,1.65,1.05,9.41,9.41,0,0,1,1.38,1v.62h0ZM1.85,13.76l-.25.08-.15-.24-.06.08.2.3.26-.06Z"/></g></g></svg>