<svg xmlns="http://www.w3.org/2000/svg" viewBox="0 0 16.99 10.76"><defs><style>.cls-1{fill:#623c25;}</style></defs><title>12_r</title><g id="Layer_2" data-name="Layer 2"><g id="Layer_1-2" data-name="Layer 1"><path class="cls-1" d="M15.66,0h.12l0,0h-.11Zm.58,0H17V0h-.75Zm.35,0H16.3c-.09.21.06.75.06.89l0,.92V4.6l0,.27,0,1.44c.13.36,0,.14,0,.39v.92l0,2,0,1.17H17l-.06-2.21,0-6.11V2.06L17,2l-.14-.18h.08l0-.6L17,0ZM14.52,0h.26l0,0h-.22ZM0,0V10.76H11.91V7l0,3.2v.56h0V0ZM12.94,4.28a9.32,9.32,0,0,1-.63-1.09V3.05a6.84,6.84,0,0,1,.86-1.65A9.48,9.48,0,0,1,14,0h.5v0h.29l0,0h.49l-.94,1.64c-.07.63-.75,1-.76,1.5l1.53,2.6a24.43,24.43,0,0,0-1.55,2.68,2.08,2.08,0,0,1,.66,1.12A6.69,6.69,0,0,1,15,10.76H13.76L12.4,8.63l-.07-.39c.1-.07,1.48-2.4,1.48-2.48s-.08-.2-.18-.27l.07-.26C13.42,5.21,13.09,4.53,12.94,4.28Zm.24,4.62h-.13l.06.26-.19.15.06.06.25-.2ZM15.64,0l.06,2.34,0,1.18,0,1.24,0,.14.06.91c0,1,0,1.93,0,2.89a10.74,10.74,0,0,1,0,1.37c0,.07-.05.38-.05.66H16a12.86,12.86,0,0,1-.06-2.35V6.17l0-1.31V4.14l0-.46V3l0-1V1.78l0-.66V0h-.3Z"/></g></g></svg>