<svg xmlns="http://www.w3.org/2000/svg" viewBox="0 0 17 18.63"><defs><style>.cls-1{fill:#623c25;}</style></defs><title>12_r_d</title><g id="Layer_2" data-name="Layer 2"><g id="Layer_1-2" data-name="Layer 1"><path class="cls-1" d="M8.55,12.46H0V0H11.91V3.76L12,.55V0h0V12.46H8.55ZM0,16.18V14.59a18.44,18.44,0,0,1,2.36-1.68h.12c.11,0,2.18,1.81,2.34,1.81a27.53,27.53,0,0,0,2.25-1.79l.36.08,2.25,1.91v.88l-.06.48H9.54a4.91,4.91,0,0,1-1.26-1.09,1.85,1.85,0,0,1-1-.79,23,23,0,0,0-2.43,1.87L2.47,14.43C2,14.44,0,16.18,0,16.18Zm9.62.1,0,.22.26-.23c.12,0,1.6-1.51,1.78-1.51,0,0,1.56.77,1.76.87S15,16.7,15,16.25a4.46,4.46,0,0,1-.24-.43c-.07-.18-.1-.36-.17-.51-.18-.42-.17-.48-.33-.93a15.62,15.62,0,0,0-.72-1.89l.43-.56-.07,0c.33,0,1.05-.75,1.07-1.06h-.28a.61.61,0,0,1,.12-.09h-.26v0l-1,.06a5.52,5.52,0,0,0-.78.72c-.15.25-.58.52-.58.7s1,1.9,1.12,2.22l0,.08-2-1.2a8.44,8.44,0,0,0-1,.93c-.84.74-.47.25-.57,1.15l0,.37v.47Zm4.9-5.57v0H14a9,9,0,0,1-.85-1.38,6.66,6.66,0,0,1-.86-1.65V7.57a7.93,7.93,0,0,1,.63-1.09c.15-.25.48-.93.76-1l-.07-.26c.1-.08.19-.1.18-.27s-1.38-2.41-1.48-2.48l.07-.39L13.76,0H15a6.69,6.69,0,0,1-.82,1.19,2.12,2.12,0,0,1-.66,1.12A24.43,24.43,0,0,0,15.1,5l-1.53,2.6c0,.54.69.87.76,1.5l.94,1.64h-.49l0,0ZM13.23,1.59,13,1.39l-.06.06.19.15-.06.25h.13ZM15.66,0c0,.28.05.59.05.66a10.74,10.74,0,0,1,0,1.37c0,1,.08,1.87,0,2.88l-.06.92,0,.14,0,1.24,0,1.18-.06,2.34h.3V9.64l0-.66V8.72l0-1V7.08l0-.46V5.9l0-1.32V2.35A12.86,12.86,0,0,1,16,0Zm0,10.73h.11c0,.06.1.15.09.18v.53a1.06,1.06,0,0,1-.09.4l.12.14,0,.46c0,.14-.09.83-.09.83l0,3.83a.27.27,0,0,1-.27.3l-2.35,0h-.49a27.34,27.34,0,0,1-3-.13V17h0a18,18,0,0,1,2.09,0l3.62,0,.08-1,0-3.13v-2l.16-.15Zm-6,6.46,0,0v.06a.66.66,0,0,0-.25.11c-.13-.21-1.73-.13-2.21-.12l-1.73,0H5.2l-1.2,0-.29,0-.06,0h-.3l-.42,0-.3,0-.29,0-.9-.06H1.2l-.59,0H0v-.36L1.74,17,2.81,17l1.13,0,.12,0L4.9,17a22.77,22.77,0,0,0,2.62,0,7.61,7.61,0,0,0,1.24,0,2,2,0,0,1,.92,0S9.63,17.08,9.63,17.19Zm7.3-15L17,0h-.73l0,1.17,0,2v.92c0,.25.11,0,0,.39l0,1.44,0,.27V8.91l0,.92c0,.14-.15.68-.06.89H17l0-1.24,0-.59h-.08L17,8.72l-.06,0V8.32ZM8.55,12.46h0Zm7.75-1.73H17v2.71l0,.38L17,14v.78l0,.83,0,.61,0,2.44-2.79-.09h-.64l-.78.06H12.6l-.71-.08h-.14l-1.35.05H9.69V18c0-.22,0-.13,0-.15v-.17l3.85.05H14.6l1.58,0V12.82l0-1.53v-.07c0-.28,0-.33.1-.38v-.12h.06ZM9.63,17.8a.21.21,0,0,0,0,.08v.68l-2.33-.08-5.54,0H1.45v.07l-.16-.16v.1l-.53,0-.74,0v-.8c.18,0,.36.08.43.08l.84,0,.23,0H3.77l.24,0,1.31,0c.32.16.12,0,.36,0h.53l.3,0,1.79,0,1.37,0h0v0h0Z"/></g></g></svg>