<svg xmlns="http://www.w3.org/2000/svg" viewBox="0 0 10.76 18.6"><defs><style>.cls-1{fill:#623c25;}</style></defs><title>12_u</title><g id="Layer_2" data-name="Layer 2"><g id="Layer_1-2" data-name="Layer 1"><path class="cls-1" d="M10.72,1.65h0v0L8.39,1.58l-1.18,0L6,1.59l-.14.06-.92-.07c-1-.07-1.92,0-2.88,0a9.25,9.25,0,0,0-1.37,0A4.78,4.78,0,0,1,0,1.63v-.4a11.23,11.23,0,0,0,2.35.08l1.91,0h.32l1.32,0,.32,0,.07,0h.33l.46,0h.33l.32,0,1,.05H9l.66,0h1.09v.22h0Zm0-.8V0L9.49.07,8.9.1V.2L8.72,0l0,.08H8.32L2.21.08,0,0V.9l1.17,0,2,0,.32,0h.6c.25,0,0-.14.39,0l1.44,0,.27,0H8.65l.26,0,.92,0C10,.78,10.51,1,10.72.85Zm0,.07h0V0h0V.85h0Zm0,17.68V6.15H0v0H.55l3.21,0H0V18.6ZM10.73,3h0V2.76l0,0Zm0-1.4,0,0V1.49l0,0v.13Zm0,1.4h0v.62a9.41,9.41,0,0,1-1.38,1,6.48,6.48,0,0,1-1.65,1H7.57A7.91,7.91,0,0,1,6.48,5c-.25-.19-.93-.59-1-.93l-.26.09C5.19,4,5.17,3.9,5,3.9A27.06,27.06,0,0,0,2.52,5.72l-.39-.09L0,4V2.41a6.06,6.06,0,0,1,1.19,1,2,2,0,0,1,1.12.81A25.26,25.26,0,0,0,5,2.33L7.59,4.2c.54,0,.87-.84,1.5-.94l1.64-1.14v.59l0,0ZM1.85,4.68l-.26-.06-.2.3L1.45,5l.15-.24.25.08Z"/></g></g></svg>