<svg xmlns="http://www.w3.org/2000/svg" viewBox="0 0 28.83 11.08"><defs><style>.cls-1,.cls-2{fill:#7f6841;}.cls-2{fill-rule:evenodd;}</style></defs><title>2_med_h</title><g id="Layer_2" data-name="Layer 2"><g id="Layer_1-2" data-name="Layer 1"><path class="cls-1" d="M13.93,2.61C12.21,1.83,9.7,1.43,3.67,1.39c.87.47,1.91,1,2.94,1.68l3,1.86.49.3L9,5.93,6,4.1A57.32,57.32,0,0,0,1,1.34l-.4-.19V.21H1.2c9.23-.06,11.91.5,14,1.74a8.8,8.8,0,0,0-1.3.67M25.69,9.86c-.94-.5-1.93-1.06-2.91-1.63-1.32-.78-2.62-1.58-3.75-2.3l1.1-.69c1,.63,2.09,1.3,3.2,2,1.65,1,3.34,1.89,4.74,2.55V11c-.6,0-4.19.07-7.39,0a13.72,13.72,0,0,1-4.28-.74A11.84,11.84,0,0,1,14,9.1l0,0c.31-.17.57-.34.8-.48l.33-.21a9.43,9.43,0,0,0,1.64.77,12.45,12.45,0,0,0,3.94.68c1.73,0,3.57,0,5,0"/><path class="cls-1" d="M6.35,8.22c-1,.58-2,1.14-2.92,1.64,1.42,0,3.26,0,5,0a12.45,12.45,0,0,0,3.94-.68A10.49,10.49,0,0,0,14.5,8.08l.56-.35C16.79,6.64,21,4,22.51,3.07c1-.64,2.07-1.21,2.94-1.68-9,.07-10.15.91-12.54,2.63l-.76.53c-1.37,1-3.55,2.36-5.8,3.67M.75,9.88C2.2,9.21,4,8.23,5.8,7.18,8,5.89,10.17,4.51,11.53,3.56L12.28,3c2.79-2,4-2.9,15.64-2.83h.46v1l-.23.11A57.32,57.32,0,0,0,23.08,4.1c-1.76,1.08-5.79,3.61-7.44,4.65l-.56.35a11.84,11.84,0,0,1-2.36,1.18A13.47,13.47,0,0,1,8.44,11c-2.52.06-5.28,0-6.63,0H.43V10Z"/><path class="cls-2" d="M.16,2.88l0,3.73.07,4.47H6l3.91,0H20.27l.37,0c.77,0,2.67-.1,4.28-.1,1.17,0,3.91.2,3.91-.22V.32c0-.25-.13-.32-.56-.32C24,0,17.9.05,12.83.1,11,.12,8,.09,6.33.1,4.94.11,4.7.21,3.17.21,2.14.22,0-.08,0,.43V1.92Zm8.77,7.31.12-.06-7.77,0c-.14-3,0-6,0-9H9.9L18.77,1h0l1.67,0h7.28a74.33,74.33,0,0,1,0,9.16H16Z"/></g></g></svg>