<svg xmlns="http://www.w3.org/2000/svg" viewBox="0 0 30.03 32.19"><defs><style>.cls-1{fill:#7f6841;fill-rule:evenodd;}</style></defs><title>3_r_u</title><g id="Layer_2" data-name="Layer 2"><g id="Layer_1-2" data-name="Layer 1"><path class="cls-1" d="M24.89,16.1l-3.6,0-4.32,0v3.24l0,2.19v5.84l0,.21c0,.43.1,1.5.1,2.4,0,.66-.2,2.2.21,2.2H27.35c.24,0,.31-.08.31-.32,0-2.37-.05-5.82-.1-8.67,0-1,0-2.69,0-3.64,0-.79-.1-.92-.11-1.78,0-.57.29-1.78-.2-1.78H25.81Zm1.74,5.23.11,6.16h-.21c-.11-1.34-1.46-2.45-2.05-3.34.24-.37.8-.81,1.17-1.32.24-.33.82-1.38,1-1.5m-2.87,3.44c.54,0,1.75,2.1,2,2.63A6.76,6.76,0,0,1,26.44,29c.07.35.21,1.93.3,2.1-1.33.29-2.93-1.37-3.45-2.34a5.61,5.61,0,0,1-.63-2.19,6.55,6.55,0,0,1,1.1-1.84m2.87-7.83c0,2.72-1,5.47-2.77,6.69a4.53,4.53,0,0,1-1.24-2.3c0-1.72,2.25-4.34,4-4.39M23.24,31.31l-.92,0-2.48-.08v-.13a4.13,4.13,0,0,0,2.26-2.82h.21c.2.9,1.25,2.61,2.05,2.82v.17ZM20,16.94h4.53c-.57.79-1.87,1.53-2.16,2.82h-.21c-.27-1.17-2-2.49-2.16-2.82M17.9,18.2V17.05a3.94,3.94,0,0,1,2.67,1.56c.28.41.64.85.89,1.29s.26,1.34.48,1.76l-1.37,2.07A9,9,0,0,1,17.9,18.2m2.67,6.57a8,8,0,0,1,1.15,1.66c.22.59-.32,1.72-.53,2.21a4.08,4.08,0,0,1-3.29,2.5v-.41c0-2.27,1.12-4.91,2.67-6M17.83,21c.34.29,1.16,2.8,2.06,3.06l-2,3Z"/><path class="cls-1" d="M14.59.15c0,3,.15,5.56.15,8.62v4.31c0,2.07-.51,2.92,1,2.92h4.75l.74,0,1.64,0,1-.14h.89l1.93,0,3.26,0V5.08L29.89,2V0h-1L16.37.21l-.29.1L15.19.15Zm5.48,1.24h1.05l.45,0,1.34.13h.59l1-.16v.31a4.46,4.46,0,0,0-2.11,2.49Zm1.65,4.3-1.49,1.7c-1.55-.78-1.78-.63-2.93-2C17,4.91,15.59,2.51,16,1.75c.47-.93,3.43.69,3.66.86a7.06,7.06,0,0,1,2.08,3.08m2.82,1.7a7.53,7.53,0,0,1-1.63-1.54c.45-2,2.8-4.47,5.19-4.47h.6a6.1,6.1,0,0,1-1.19,3.86c-.39.58-2.17,2.15-3,2.15m1.72.37L28.7,5.69l0,4.43ZM15.94,10.48c.08-.4.17-.39.13-.79l-.14-1.53V5.53l2.64,2.65L18.48,8Zm7.11,0c.22-.33,1.37-1.84,1.79-1.84H25c1.61,0,3.86,3.22,3.86,5.38,0,1.26-3-.12-3.5-.52a5.85,5.85,0,0,1-2.29-3m-7,4.31-.15-.46c.42-1.86.18-2.31,1.4-3.63a6.67,6.67,0,0,1,2.9-2.06c.21.31,1.49,1.56,1.49,1.69a4.68,4.68,0,0,1-1.87,3.14c-1.72,1.3-1.63.8-3.77,1.32m6.38-2.62,2.38,2.47-4.72,0Z"/><path class="cls-1" d="M.09,5l0,3.73,0,4.48H3.24l2.13,0h5.68l.2,0c.42,0,1.46-.11,2.34-.11.63,0,2.13.21,2.13-.21V2.47c0-.25-.08-.32-.31-.32-2.3,0-5.65.05-8.42.1-1,0-2.61,0-3.54,0-.76,0-.89.11-1.72.11-.56,0-1.73-.3-1.73.21V4.06ZM5.17,3.21l6-.1v.21c-1.3.11-2.37,1.52-3.24,2.13-.36-.25-.79-.84-1.28-1.22-.33-.25-1.34-.85-1.46-1m3.35,3c0-.57,2-1.82,2.55-2.12a6.67,6.67,0,0,1,1.59-.67c.34-.07,1.87-.22,2-.3.28,1.37-1.33,3-2.28,3.57a5.14,5.14,0,0,1-2.12.65A6.39,6.39,0,0,1,8.52,6.2m-7.61-3c2.64,0,5.31,1,6.49,2.88A4.29,4.29,0,0,1,5.17,7.37C3.5,7.37,1,5,.91,3.21m14,3.52.05,1-.08,2.56H14.7A4.14,4.14,0,0,0,12,7.9V7.69c.88-.22,2.53-1.31,2.74-2.13h.17ZM.91,10.14V5.45C1.67,6,2.4,7.38,3.65,7.69V7.9C2.51,8.18,1.23,10,.91,10.14m1.22,2.13H1A4.15,4.15,0,0,1,2.53,9.5c.4-.29.83-.66,1.26-.92s1.3-.27,1.7-.5l2,1.42a8.56,8.56,0,0,1-5.37,2.77M8.52,9.5a7.78,7.78,0,0,1,1.6-1.2c.58-.22,1.67.34,2.15.56a4.19,4.19,0,0,1,2.43,3.41h-.41A7.36,7.36,0,0,1,8.52,9.5M4.87,12.34c.27-.35,2.71-1.2,3-2.14l2.92,2Z"/></g></g></svg>