<svg xmlns="http://www.w3.org/2000/svg" viewBox="0 0 29.86 32.08"><defs><style>.cls-1{fill:#7f6841;fill-rule:evenodd;}</style></defs><title>3_r_d</title><g id="Layer_2" data-name="Layer 2"><g id="Layer_1-2" data-name="Layer 1"><path class="cls-1" d="M24.72.09l-3.6,0L16.8.11V3.34l0,2.19v5.85l0,.21c0,.43.1,1.49.1,2.4,0,.66-.19,2.19.21,2.19H27.18c.24,0,.31-.07.31-.31,0-2.37,0-5.82-.1-8.67,0-1,0-2.69,0-3.65,0-.78-.11-.91-.11-1.77,0-.58.28-1.78-.21-1.78H25.64Zm1.75,5.24.1,6.16h-.21C26.25,10.15,24.9,9,24.31,8.14c.24-.37.8-.81,1.17-1.31a17,17,0,0,1,1-1.5M23.59,8.77c.55,0,1.75,2.1,2,2.63A6.83,6.83,0,0,1,26.27,13c.07.35.22,1.92.3,2.1-1.33.28-2.93-1.37-3.45-2.35a5.56,5.56,0,0,1-.63-2.18,6.55,6.55,0,0,1,1.1-1.84M26.47.94c0,2.71-1,5.46-2.78,6.68a4.45,4.45,0,0,1-1.23-2.29c0-1.73,2.24-4.34,4-4.39m-3.4,14.37-.92,0-2.47-.08v-.13a4.13,4.13,0,0,0,2.26-2.82h.21c.2.9,1.25,2.6,2.05,2.82v.17ZM19.78.94h4.53c-.57.78-1.87,1.53-2.16,2.82h-.21c-.27-1.17-2-2.49-2.16-2.82M17.73,2.19V1A4,4,0,0,1,20.4,2.61c.28.41.64.85.89,1.29s.26,1.34.48,1.76L20.4,7.73a9.09,9.09,0,0,1-2.67-5.54M20.4,8.77a8,8,0,0,1,1.15,1.65c.22.6-.32,1.72-.53,2.21a4.09,4.09,0,0,1-3.29,2.51v-.42c0-2.26,1.13-4.9,2.67-6M17.66,5c.34.28,1.16,2.79,2.06,3.06l-2,3Z"/><path class="cls-1" d="M14.42,16.23c0,2.95.15,5.56.15,8.62v4.31c0,2.07-.51,2.92,1,2.92h4.75l.74,0,1.64,0,1-.14h.89l1.93,0,3.26,0V21.16l-.14-3.08v-2h-1l-12.47.21-.29.1L15,16.23Zm5.48,1.24H21l.44,0,1.34.13h.59l1-.16v.31a4.46,4.46,0,0,0-2.11,2.49Zm1.65,4.3-1.49,1.7c-1.55-.78-1.78-.64-2.93-2-.35-.44-1.7-2.85-1.32-3.6.47-.93,3.43.69,3.66.86a7.06,7.06,0,0,1,2.08,3.08m2.82,1.7a7.53,7.53,0,0,1-1.63-1.54c.45-2,2.8-4.47,5.19-4.47h.6a6.05,6.05,0,0,1-1.19,3.85c-.39.59-2.17,2.16-3,2.16m1.72.37,2.44-2.07,0,4.43ZM15.77,26.56c.08-.4.17-.4.13-.79l-.14-1.54V21.61l2.64,2.65-.1-.16Zm7.12,0c.21-.33,1.36-1.84,1.78-1.84h.15c1.6,0,3.85,3.22,3.85,5.38,0,1.26-3-.12-3.5-.52a5.79,5.79,0,0,1-2.28-3m-7,4.31-.15-.46c.42-1.86.18-2.32,1.4-3.63a6.73,6.73,0,0,1,2.9-2.06c.21.31,1.49,1.56,1.49,1.69a4.68,4.68,0,0,1-1.87,3.14c-1.72,1.3-1.63.8-3.77,1.32m6.38-2.62,2.38,2.47-4.72,0Z"/><path class="cls-1" d="M.09,21.54l0,3.73,0,4.47H3.24l2.13,0h5.68l.2,0c.42,0,1.46-.1,2.34-.1.63,0,2.13.2,2.13-.22V19c0-.25-.07-.32-.31-.32-2.3,0-5.65.05-8.42.1-1,0-2.61,0-3.54,0-.76,0-.89.11-1.72.12-.56,0-1.73-.3-1.73.21v1.49Zm5.08-1.81,6-.11v.21C9.85,20,8.78,21.35,7.91,22c-.36-.25-.79-.83-1.28-1.21-.33-.25-1.34-.85-1.46-1m3.35,3c0-.57,2-1.82,2.55-2.11a6.28,6.28,0,0,1,1.59-.67c.34-.07,1.87-.22,2-.31.28,1.38-1.33,3-2.28,3.57a5.16,5.16,0,0,1-2.12.66,6.41,6.41,0,0,1-1.78-1.14m-7.61-3c2.64,0,5.31,1,6.49,2.87a4.29,4.29,0,0,1-2.23,1.28C3.5,23.88,1,21.56.91,19.73m14,3.51.05,1-.08,2.56H14.7A4.07,4.07,0,0,0,12,24.42V24.2c.88-.21,2.53-1.3,2.74-2.13h.17ZM.91,26.65V22c.76.59,1.49,1.94,2.74,2.24v.22c-1.14.27-2.42,2.11-2.74,2.23m1.22,2.13H1A4.2,4.2,0,0,1,2.53,26c.4-.29.83-.66,1.26-.92s1.3-.27,1.7-.49L7.5,26a8.56,8.56,0,0,1-5.37,2.77M8.52,26a7.74,7.74,0,0,1,1.6-1.19c.58-.22,1.67.33,2.15.55a4.19,4.19,0,0,1,2.43,3.41h-.4A7.37,7.37,0,0,1,8.52,26M4.87,28.85c.27-.35,2.71-1.2,3-2.13l2.92,2Z"/></g></g></svg>