<svg xmlns="http://www.w3.org/2000/svg" viewBox="0 0 10.69 16.21"><defs><style>.cls-1{fill:#7f6841;fill-rule:evenodd;}</style></defs><title>2_sm_v</title><g id="Layer_2" data-name="Layer 2"><g id="Layer_1-2" data-name="Layer 1"><path class="cls-1" d="M7.91.09,4.32.07,0,.1V3.35L0,5.54V11.4l0,.21c0,.43.1,1.5.1,2.4,0,.66-.2,2.2.21,2.2H10.38c.24,0,.31-.07.31-.31,0-2.38,0-5.84-.1-8.69,0-1,0-2.69,0-3.65,0-.78-.1-.92-.11-1.78,0-.58.29-1.78-.2-1.78H8.84ZM9.66,5.33l.11,6.17H9.56C9.45,10.16,8.1,9.05,7.5,8.16c.25-.37.81-.81,1.18-1.32.24-.34.82-1.38,1-1.51M6.78,8.78c.55,0,1.76,2.11,2,2.64a6.85,6.85,0,0,1,.65,1.64c.07.35.21,1.93.3,2.1-1.33.29-2.93-1.37-3.45-2.34a5.65,5.65,0,0,1-.63-2.2A6.78,6.78,0,0,1,6.78,8.78M9.66.94c0,2.72-1,5.47-2.77,6.69a4.45,4.45,0,0,1-1.24-2.3C5.65,3.61,7.9,1,9.66.94M6.27,15.33l-.92.05-2.48-.09v-.13a4.13,4.13,0,0,0,2.26-2.82h.21c.2.9,1.25,2.61,2.05,2.82v.17ZM3,.94H7.5c-.56.79-1.86,1.53-2.15,2.82H5.14C4.87,2.59,3.1,1.27,3,.94M.93,2.2V1A4,4,0,0,1,3.6,2.61c.28.41.64.85.89,1.3S4.74,5.24,5,5.67L3.6,7.74A9.09,9.09,0,0,1,.93,2.2M3.6,8.78a8.73,8.73,0,0,1,1.15,1.66c.22.6-.32,1.73-.54,2.21A4,4,0,0,1,.93,15.16v-.42c0-2.26,1.12-4.9,2.67-6M.86,5C1.2,5.3,2,7.82,2.92,8.08l-2,3Z"/></g></g></svg>