<svg xmlns="http://www.w3.org/2000/svg" viewBox="0 0 30.19 31.74"><defs><style>.cls-1{fill:#7f6841;fill-rule:evenodd;}</style></defs><title>3_l_d</title><g id="Layer_2" data-name="Layer 2"><g id="Layer_1-2" data-name="Layer 1"><path class="cls-1" d="M10.35.09l-3.6,0L2.43.1V3.35l0,2.19V11.4l0,.21c0,.43.1,1.5.1,2.4,0,.66-.2,2.2.21,2.2H12.81c.24,0,.31-.07.31-.31,0-2.38,0-5.84-.1-8.69,0-1,0-2.69,0-3.65,0-.78-.1-.92-.11-1.78,0-.58.29-1.78-.2-1.78H11.27Zm1.74,5.24.11,6.17H12c-.11-1.34-1.46-2.45-2.05-3.34.24-.37.8-.81,1.17-1.32.24-.34.82-1.38,1-1.51M9.22,8.78c.54,0,1.75,2.11,2,2.64a6.45,6.45,0,0,1,.65,1.64c.07.35.21,1.93.3,2.1-1.33.29-2.93-1.37-3.45-2.34a5.65,5.65,0,0,1-.63-2.2,6.55,6.55,0,0,1,1.1-1.84M12.09.94c0,2.72-1,5.47-2.77,6.69a4.45,4.45,0,0,1-1.24-2.3c0-1.72,2.25-4.34,4-4.39M8.7,15.33l-.92.05L5.3,15.29v-.13a4.13,4.13,0,0,0,2.26-2.82h.21C8,13.24,9,15,9.83,15.16v.17ZM5.41.94H9.94c-.57.79-1.87,1.53-2.16,2.82H7.57C7.3,2.59,5.53,1.27,5.41.94M3.36,2.2V1A4,4,0,0,1,6,2.61c.28.41.64.85.89,1.3s.26,1.33.48,1.76L6,7.74A9.09,9.09,0,0,1,3.36,2.2M6,8.78a8.29,8.29,0,0,1,1.15,1.66c.22.6-.32,1.73-.53,2.21a4.07,4.07,0,0,1-3.29,2.51v-.42c0-2.26,1.13-4.9,2.67-6M3.29,5c.34.28,1.16,2.8,2.06,3.06l-2,3Z"/><path class="cls-1" d="M0,15.89c0,2.95.15,5.56.15,8.62v4.31c0,2.07-.51,2.92,1,2.92H5.94l.74,0,1.63,0,1-.14h.89l1.93,0,3.27,0V20.82l-.15-3.08v-2h-1L1.78,16l-.29.1L.6,15.89Zm5.48,1.24h1l.45,0,1.33.13h.6l1-.15v.31a4.48,4.48,0,0,0-2.12,2.49Zm1.65,4.3L5.64,23.12c-1.55-.77-1.78-.63-2.93-2-.36-.43-1.71-2.84-1.32-3.6.47-.93,3.42.7,3.66.87a7.08,7.08,0,0,1,2.08,3.08M10,23.12a7.29,7.29,0,0,1-1.64-1.53c.45-2,2.81-4.47,5.2-4.47h.59A6.05,6.05,0,0,1,12.92,21c-.4.59-2.18,2.15-3,2.15m1.72.38,2.43-2.07,0,4.43ZM1.35,26.22c.07-.4.17-.4.13-.79l-.14-1.54V21.27L4,23.92l-.11-.16Zm7.11,0c.22-.34,1.36-1.84,1.78-1.84h.15c1.61,0,3.86,3.22,3.86,5.38,0,1.26-3-.12-3.51-.52a5.79,5.79,0,0,1-2.28-3m-7,4.31-.15-.46c.41-1.86.18-2.32,1.4-3.63a6.67,6.67,0,0,1,2.9-2.06c.21.31,1.49,1.56,1.49,1.69a4.7,4.7,0,0,1-1.87,3.14c-1.73,1.3-1.63.8-3.77,1.32m6.37-2.63,2.38,2.48-4.71,0Z"/><path class="cls-1" d="M14.56,21.2l0,3.73,0,4.47h3.15l2.13,0h5.67l.21,0c.41,0,1.45-.1,2.33-.1.64,0,2.13.2,2.13-.22V18.64c0-.25-.07-.32-.31-.32-2.3,0-5.65.05-8.42.1-1,0-2.61,0-3.54,0-.76,0-.89.11-1.72.12-.56,0-1.73-.3-1.73.21v1.49Zm5.08-1.81,6-.11v.21c-1.3.12-2.38,1.52-3.25,2.13-.36-.25-.79-.83-1.28-1.21-.32-.26-1.34-.85-1.46-1m3.35,3c0-.57,2-1.82,2.55-2.11a6.35,6.35,0,0,1,1.6-.67c.33-.07,1.86-.23,2-.31.28,1.38-1.33,3-2.27,3.57a5.41,5.41,0,0,1-2.13.66A6.41,6.41,0,0,1,23,22.37m-7.61-3c2.64,0,5.31,1,6.49,2.87a4.25,4.25,0,0,1-2.23,1.28c-1.67,0-4.21-2.32-4.26-4.15m14,3.51,0,1-.08,2.56h-.13a4.11,4.11,0,0,0-2.73-2.35v-.21c.87-.21,2.52-1.3,2.73-2.13h.17Zm-14,3.41V21.62c.77.59,1.49,1.93,2.74,2.24v.21c-1.14.28-2.42,2.12-2.74,2.24m1.22,2.13H15.49A4.19,4.19,0,0,1,17,25.67c.4-.29.83-.66,1.26-.92s1.3-.27,1.71-.5l2,1.42a8.62,8.62,0,0,1-5.38,2.77M23,25.67a8,8,0,0,1,1.6-1.19c.58-.23,1.68.33,2.15.55a4.19,4.19,0,0,1,2.43,3.41h-.4A7.37,7.37,0,0,1,23,25.67m-3.65,2.84c.27-.35,2.71-1.2,3-2.13l2.91,2Z"/></g></g></svg>