<svg xmlns="http://www.w3.org/2000/svg" viewBox="0 0 30.04 32.12"><defs><style>.cls-1{fill:#7f6841;fill-rule:evenodd;}</style></defs><title>2_l_u_1</title><g id="Layer_2" data-name="Layer 2"><g id="Layer_1-2" data-name="Layer 1"><path class="cls-1" d="M10.35,16l-3.6,0L2.43,16v3.25l0,2.19v5.86l0,.21c0,.43.1,1.49.1,2.4,0,.66-.2,2.2.21,2.2H12.81c.24,0,.31-.07.31-.32,0-2.37,0-5.83-.1-8.68,0-1,0-2.69,0-3.65,0-.79-.1-.92-.11-1.78,0-.58.29-1.78-.2-1.78H11.27Zm1.74,5.24.11,6.17H12c-.11-1.34-1.46-2.45-2.05-3.34.24-.37.8-.81,1.17-1.32.24-.34.82-1.38,1-1.51M9.22,24.69c.54,0,1.75,2.11,2,2.64A6.45,6.45,0,0,1,11.9,29c.07.35.21,1.93.3,2.1-1.33.29-2.93-1.37-3.45-2.35a5.56,5.56,0,0,1-.63-2.19,6.55,6.55,0,0,1,1.1-1.84m2.87-7.84c0,2.72-1,5.47-2.77,6.69a4.45,4.45,0,0,1-1.24-2.3c0-1.72,2.25-4.34,4-4.39M8.7,31.24l-.92,0L5.3,31.2v-.13a4.13,4.13,0,0,0,2.26-2.82h.21c.2.9,1.25,2.61,2.05,2.82v.17ZM5.41,16.85H9.94c-.57.78-1.87,1.53-2.16,2.82H7.57c-.27-1.17-2-2.49-2.16-2.82M3.36,18.11V17A4,4,0,0,1,6,18.52c.28.41.64.85.89,1.3s.26,1.33.48,1.76L6,23.65a9.09,9.09,0,0,1-2.67-5.54M6,24.69a8.29,8.29,0,0,1,1.15,1.66c.22.59-.32,1.72-.53,2.21a4.09,4.09,0,0,1-3.29,2.51v-.42c0-2.26,1.13-4.9,2.67-6M3.29,20.93c.34.28,1.16,2.8,2.06,3.06l-2,3Z"/><path class="cls-1" d="M0,.15c0,3,.15,5.56.15,8.62v4.31c0,2.07-.51,2.92,1,2.92H5.94l.74,0,1.63,0,1-.14h.89l1.93,0,3.27,0V5.08L15.29,2V0h-1L1.78.21l-.29.1L.6.15ZM5.48,1.39h1l.45,0,1.33.13h.6l1-.16v.31A4.51,4.51,0,0,0,7.83,4.18Zm1.65,4.3L5.64,7.39c-1.55-.78-1.78-.63-2.93-2C2.35,4.91,1,2.51,1.39,1.75c.47-.93,3.42.69,3.66.86A7.14,7.14,0,0,1,7.13,5.69M10,7.39A7.34,7.34,0,0,1,8.31,5.85c.45-2,2.81-4.47,5.2-4.47h.59a6.1,6.1,0,0,1-1.18,3.86c-.4.58-2.18,2.15-3,2.15m1.72.37L14.1,5.69l0,4.43ZM1.35,10.48c.07-.4.17-.4.13-.79L1.34,8.16V5.53L4,8.18,3.88,8Zm7.11,0c.22-.33,1.36-1.84,1.78-1.84h.15c1.61,0,3.86,3.22,3.86,5.38,0,1.26-3-.12-3.51-.52a5.79,5.79,0,0,1-2.28-3m-7,4.31-.15-.46c.41-1.86.18-2.31,1.4-3.63a6.67,6.67,0,0,1,2.9-2.06c.21.31,1.49,1.56,1.49,1.69a4.68,4.68,0,0,1-1.87,3.14c-1.73,1.3-1.63.8-3.77,1.32m6.37-2.62,2.38,2.47-4.71,0Z"/><path class="cls-1" d="M14.42,4.93l0,3.73,0,4.47h3.14l2.13,0h5.68l.2,0c.42,0,1.46-.1,2.33-.1.64,0,2.13.2,2.13-.22V2.37c0-.25-.07-.32-.3-.32-2.3,0-5.65.05-8.42.1-1,0-2.61,0-3.54,0-.76,0-.89.11-1.72.12-.56,0-1.73-.3-1.73.21V4ZM19.5,3.12l6-.11v.21c-1.3.12-2.37,1.52-3.24,2.13-.36-.25-.79-.83-1.28-1.21-.33-.26-1.34-.85-1.46-1m3.35,3c0-.57,2-1.82,2.55-2.11A6.28,6.28,0,0,1,27,3.32c.34-.07,1.87-.23,2-.31.28,1.38-1.33,3-2.28,3.57a5.37,5.37,0,0,1-2.12.66A6.41,6.41,0,0,1,22.85,6.1m-7.61-3c2.64,0,5.31,1,6.49,2.87A4.33,4.33,0,0,1,19.5,7.27c-1.67,0-4.21-2.32-4.26-4.15m14,3.51,0,1-.08,2.56H29A4.13,4.13,0,0,0,26.29,7.8V7.59c.88-.21,2.53-1.3,2.74-2.13h.17ZM15.24,10V5.35C16,5.94,16.73,7.28,18,7.59V7.8c-1.14.28-2.42,2.12-2.74,2.24m1.22,2.13H15.34A4.2,4.2,0,0,1,16.86,9.4c.4-.29.83-.66,1.26-.92s1.29-.27,1.7-.5l2,1.42a8.56,8.56,0,0,1-5.37,2.77M22.85,9.4a7.74,7.74,0,0,1,1.6-1.19c.58-.23,1.67.33,2.15.55A4.19,4.19,0,0,1,29,12.17h-.41A7.36,7.36,0,0,1,22.85,9.4M19.2,12.24c.27-.35,2.71-1.2,3-2.13l2.92,2Z"/></g></g></svg>