<svg xmlns="http://www.w3.org/2000/svg" viewBox="0 0 41.75 11.08"><defs><style>.cls-1,.cls-2{fill:#7f6841;}.cls-2{fill-rule:evenodd;}</style></defs><title>2_lg_h</title><g id="Layer_2" data-name="Layer 2"><g id="Layer_1-2" data-name="Layer 1"><path class="cls-1" d="M20.32,2.61c-2.54-.78-6.23-1.18-15.1-1.22,1.28.47,2.81,1,4.33,1.68l4.39,1.86.72.3-1.61.7C11.54,5.29,10,4.63,8.7,4.1,5,2.54,1.25,1.34,1.24,1.34L.66,1.15V.21h.92C15.16.14,19.1.7,22.22,1.94a16.16,16.16,0,0,0-1.9.67m17.3,7.25c-1.39-.5-2.85-1.06-4.29-1.63-1.94-.78-3.86-1.58-5.51-2.3l1.62-.69c1.45.63,3.06,1.3,4.7,2,2.44,1,4.92,1.89,7,2.55V11c-.88,0-6.15.07-10.87,0a29,29,0,0,1-6.3-.74A21.59,21.59,0,0,1,20.48,9.1l-.08,0c.46-.17.84-.34,1.17-.48l.49-.21a17.5,17.5,0,0,0,2.42.77,26.12,26.12,0,0,0,5.79.68c2.55,0,5.26,0,7.35,0"/><path class="cls-1" d="M9.15,8.22c-1.44.58-2.9,1.14-4.29,1.64,2.09,0,4.8,0,7.35,0A26.12,26.12,0,0,0,18,9.15a18.94,18.94,0,0,0,3.15-1.07L22,7.73c2.55-1.09,8.76-3.75,11-4.66,1.52-.64,3-1.21,4.33-1.68C24.07,1.46,22.33,2.3,18.82,4l-1.12.53c-2,1-5.24,2.36-8.55,3.67M.93,9.88c2.13-.67,4.8-1.65,7.42-2.7,3.26-1.29,6.44-2.67,8.43-3.62L17.88,3C22,1,23.83.13,40.9.2h.68v1l-.34.11S37.5,2.54,33.78,4.1c-2.6,1.08-8.52,3.61-11,4.65L22,9.1a21.59,21.59,0,0,1-3.46,1.18,28.44,28.44,0,0,1-6.3.73c-3.71.06-7.78,0-9.77,0h-2V10Z"/><path class="cls-2" d="M.2,2.88.15,6.61l.08,4.47H13.81l4.77,0H31.3l.46,0c.93,0,3.25-.1,5.22-.1,1.43,0,4.77.2,4.77-.22V.32c0-.25-.16-.32-.68-.32C35.91,0,28.4.05,22.21.1c-2.21,0-5.85,0-7.94,0-1.7,0-2,.11-3.86.11C9.16.22,0-.08,0,.43V1.92Zm17.24,7.31.16-.06-16.53,0c-.17-3,0-6,0-9H18.64L29.46,1h0l2,0h9.29c.47,3.79,0,7,0,9.16H26.07Z"/></g></g></svg>