<svg xmlns="http://www.w3.org/2000/svg" viewBox="0 0 10.69 29.73"><defs><style>.cls-1,.cls-2{fill:#7f6841;}.cls-2{fill-rule:evenodd;}</style></defs><title>2_lg_v</title><g id="Layer_2" data-name="Layer 2"><g id="Layer_1-2" data-name="Layer 1"><path class="cls-1" d="M8.17,14.37C8.92,12.59,9.31,10,9.35,3.78c-.45.91-1,2-1.62,3-.28.49-1,1.7-1.8,3.08l-.29.5L5,9.28l1.77-3C8.24,3.62,9.39,1,9.4,1L9.58.59h.91v.65c.06,9.52-.48,12.28-1.67,14.47a9.26,9.26,0,0,0-.65-1.34m-7,12.13c.48-1,1-2,1.58-3,.74-1.36,1.52-2.7,2.21-3.86l.67,1.14c-.61,1-1.25,2.15-1.88,3.29C2.82,25.77,1.93,27.51,1.3,29H.06c0-.62-.07-4.31,0-7.62a14.73,14.73,0,0,1,.71-4.42,12.39,12.39,0,0,1,1.14-2.42l0-.06c.17.32.33.59.46.82l.2.34a11,11,0,0,0-.74,1.7,13.62,13.62,0,0,0-.65,4.06c0,1.79,0,3.69,0,5.15"/><path class="cls-1" d="M2.76,6.55c-.56-1-1.1-2-1.58-3,0,1.46,0,3.36,0,5.15a13.62,13.62,0,0,0,.65,4.06,11.58,11.58,0,0,0,1,2.2l.35.59c1,1.78,3.61,6.14,4.49,7.68.61,1.06,1.17,2.13,1.62,3C9.29,17,8.47,15.79,6.82,13.32c-.17-.24-.34-.5-.52-.78-.92-1.42-2.27-3.67-3.54-6M1.16.78C1.8,2.27,2.75,4.14,3.76,6,5,8.26,6.35,10.49,7.25,11.89c.18.27.35.53.52.77,1.93,2.88,2.8,4.18,2.72,16.14v.48h-1L9.4,29s-1.16-2.63-2.66-5.23c-1-1.82-3.48-6-4.49-7.67l-.34-.59A12.31,12.31,0,0,1,.78,13.12,14.66,14.66,0,0,1,.07,8.71C0,6.11,0,3.26.05,1.86V1.23h0V.45H1Z"/><path class="cls-2" d="M7.91.17,4.32.13,0,.19V6.14l0,4V20.91l0,.38c0,.79.1,2.75.1,4.42,0,1.2-.2,4,.21,4H10.38c.24,0,.31-.13.31-.57,0-4.36,0-10.7-.1-15.93,0-1.87,0-4.94,0-6.7,0-1.44-.1-1.68-.11-3.26,0-1.06.29-3.27-.2-3.27H8.84Zm-7,9a.53.53,0,0,1,.06.13l0-8c2.86-.14,5.75,0,8.72,0v8.91l.08,9.15v0l0,1.72h0l0,7.51a65.67,65.67,0,0,1-8.84,0V16.49Z"/></g></g></svg>