<svg xmlns="http://www.w3.org/2000/svg" viewBox="0 0 15.71 11.08"><defs><style>.cls-1{fill:#7f6841;fill-rule:evenodd;}</style></defs><title>2_sm_h</title><g id="Layer_2" data-name="Layer 2"><g id="Layer_1-2" data-name="Layer 1"><path class="cls-1" d="M.09,2.88l0,3.73,0,4.47H3.24l2.13,0h5.68l.2,0c.42,0,1.46-.1,2.34-.1.63,0,2.12.2,2.12-.22V.32c0-.25-.07-.32-.3-.32C13.11,0,9.76.05,7,.1c-1,0-2.61,0-3.54,0-.76,0-.89.11-1.72.11C1.17.22,0-.08,0,.43V1.92ZM5.17,1.07l6-.11v.21c-1.3.12-2.37,1.52-3.24,2.13-.36-.25-.79-.84-1.28-1.21-.32-.26-1.34-.85-1.46-1m3.35,3c0-.57,2-1.82,2.55-2.12a6.65,6.65,0,0,1,1.59-.66C13,1.2,14.53,1,14.7,1c.28,1.38-1.33,3-2.28,3.57a5.32,5.32,0,0,1-2.12.66A6.41,6.41,0,0,1,8.52,4.05m-7.61-3c2.64,0,5.31,1,6.49,2.87A4.29,4.29,0,0,1,5.17,5.22C3.5,5.22,1,2.9.91,1.07m14,3.51.05,1L14.83,8.1H14.7A4.13,4.13,0,0,0,12,5.75V5.54c.88-.21,2.53-1.3,2.74-2.13h.17ZM.91,8V3.3c.76.59,1.49,1.93,2.74,2.24v.21C2.51,6,1.23,7.87.91,8m1.22,2.13H1A4.2,4.2,0,0,1,2.53,7.35c.4-.29.83-.66,1.26-.92s1.3-.27,1.71-.5l2,1.42a8.56,8.56,0,0,1-5.37,2.77M8.52,7.35a7.74,7.74,0,0,1,1.6-1.19c.58-.23,1.67.33,2.15.55a4.19,4.19,0,0,1,2.43,3.41h-.4A7.37,7.37,0,0,1,8.52,7.35M4.87,10.19c.27-.35,2.71-1.2,3-2.13l2.92,2Z"/></g></g></svg>