<svg xmlns="http://www.w3.org/2000/svg" width="565.438" height="399.406" viewBox="0 0 565.438 399.406"><defs><style>.cls-1{fill:#071017;fill-rule:evenodd}</style></defs><path class="cls-1" d="M555.462-.006a3.1 3.1 0 0 1-2.671 2.831c-1.885.518-3.792.952-5.7 1.365a29.192 29.192 0 0 0-12.824 5.858 39.959 39.959 0 0 0-7.508 8.153 9.844 9.844 0 0 1-6.31 4.52c-.46.128-.918.265-1.368.41.852-4.529-4.661-8.211-2.758-12.771-5.73 2.818-8.211 5.03-9.576 9.783-.98 3.405-.419 6.741 1.221 8.714-.2.158-.409.308-.6.472-1.884-2.334-2.548-6.1-1.452-9.907a15.054 15.054 0 0 1 1.923-4.3 6.923 6.923 0 0 1-1.931-5.229c-5.365 5.076-7.346 8.367-7.218 14.08.094 4.306 2.047 7.951 4.742 9.441-.171.218-.342.441-.51.662a10.715 10.715 0 0 0-6.372-3.307c-4.882-.785-7.96 5.607-12.878 4.215 3.454 5.345 5.936 7.543 10.815 8.331a12.754 12.754 0 0 0 2.111.152 2.782 2.782 0 0 1-2.623.573c3.757 6.009 8.155 11.15 14.189 14.722a21.553 21.553 0 0 0 11.463 3.3c6.7-.113 11.46-4.065 15.378-9.518a16.677 16.677 0 0 0 2.07-3.852 11.2 11.2 0 0 1 3.352-5.142c1.409-1.01 3.465-1.363 5.853-1.452a16.576 16.576 0 0 0 4.313-.72c6.424-1.956 11.421-5 13.683-11.3a21.581 21.581 0 0 0 .563-11.912c-1.446-6.864-4.9-12.683-9.379-18.172zm-42.56 56.138a.342.342 0 0 1-.643.235c-.743-1.97-1.554-3.471-3.851-3.338a18.539 18.539 0 0 1-4.423-.085c-3.207-.583-4.582-2.464-3.166-5.565a.342.342 0 0 1 .623.28c-2.342 5.134 3.969 4.709 7.2 4.68 2.473-.026 3.443 1.643 4.258 3.793zm12.858-.169c-.2-.387.442-.623.647-.238 2.242 4.275 3.062-1.533 1.238-1.991-1.5-.371-3.162 1.959-4 2.908a12.913 12.913 0 0 1-3.647 3.258 3.531 3.531 0 0 1-5.126-3.605 2.907 2.907 0 0 1 5.326-1.3.344.344 0 0 1-.559.4c-1.609-2.14-4.257-.678-4.13 1.767a3.02 3.02 0 0 0 2.476 2.5 3.773 3.773 0 0 0 2.763-1.076c1.806-1.384 4.144-5.867 6.841-5.546 3.262.391 1.232 8.749-1.829 2.922zm-7.885-3.2c-6.954 1-13.686-6.01-13.686-6.01s4.75-7.12 11.706-8.118 13.479 4.517 13.479 4.517-4.541 8.618-11.5 9.611zm.966-21.19c-.155 1.685-.7 3.011-1.213 2.968s-.8-1.451-.639-3.135a12.356 12.356 0 0 1 1.283-3.785 12.26 12.26 0 0 1 .569 3.952zm5.557-.325c.645 2.107.647 3.972 0 4.168s-1.68-1.347-2.325-3.455a16.031 16.031 0 0 1-.314-5.187 15.973 15.973 0 0 1 2.634 4.474zm8.85 3.938c-.869.623-3.226-1.187-5.267-4.036s-3.115-7.665-3.115-7.665 4.214 2.566 6.255 5.416 3 5.662 2.127 6.285zm2.746-8.523c-.392.545-2.158-.057-3.943-1.343a15.969 15.969 0 0 1-3.39-3.936 15.971 15.971 0 0 1 4.811 1.965c1.784 1.292 2.914 2.77 2.522 3.314zm-1.408-8.312c1.643.392 2.879 1.119 2.76 1.615s-1.556.589-3.2.194a12.249 12.249 0 0 1-3.561-1.808 12.369 12.369 0 0 1 4 0zm8.644 14.876s-3.114-7.953.063-14.219 11.452-8.471 11.452-8.471 4.464 8.631 1.285 14.894-12.8 7.8-12.8 7.8zm18.8-3.44a12.715 12.715 0 0 1-4.258 2.405c-1.166.491-3.91 1.318-4.038 2.855-.155 1.872 5.607 2.969 2.282-.535-.3-.314.131-.849.432-.53 4.536 4.771-4.033 4-3.352.789.561-2.661 5.56-3.428 7.45-4.691a3.782 3.782 0 0 0 1.907-2.275 3.012 3.012 0 0 0-1.572-3.147c-2.275-.91-4.512 1.127-3.007 3.342a.342.342 0 0 1-.555.4 2.908 2.908 0 0 1 2.947-4.623 3.531 3.531 0 0 1 1.764 6.013zm-1.52-16.844a31.177 31.177 0 0 1-1.446 4.5c-.708 2.014.535 3.214 2.029 4.441a.344.344 0 0 1-.435.532c-1.724-1.421-3.107-2.951-2.221-5.251 1.173-3.047 3.42-8.881-2.113-8.324a.342.342 0 0 1-.065-.681c1.258-.126 3.056-.156 3.814 1.11a5.173 5.173 0 0 1 .437 3.678zm-69.49 30.512a11.116 11.116 0 0 1-6.365.751c-4.879-.787-7.361-2.985-10.816-8.329 4.919 1.39 8-5 12.877-4.211a12.125 12.125 0 0 1 2.753.78c-1.823 1.206-3.456 2.165-5.4 1.615l-2.619-.742 1.473 2.285c2.544 3.939 4.728 6.479 8.1 7.851zm-13.922-15.761l-1.72-.566 1.674-.711c5.44-2.3 8.953-3.07 13.626-1.081.209.405.437.811.7 1.23a11.739 11.739 0 0 0 3.081 3.33 12.409 12.409 0 0 0-4.089 1.953 13.051 13.051 0 0 0-1.449-.7c-2.7-1.1-5.352.374-7.988 1.267-.854-2.092-1.716-4.019-3.835-4.718zm14.161-2.11a32.58 32.58 0 0 0-.581-.248c-1.883-3.647-1.714-6.888-.134-12.4 1.516 3.2 5.268 3.26 8.3 4.4a15.252 15.252 0 0 0-1.321 7.014 14 14 0 0 0 1.467 6.017 12.962 12.962 0 0 0-2.155-.537 4.936 4.936 0 0 0-.62-.068 11.825 11.825 0 0 0-4.952-4.172zm63.681 355.61a.665.665 0 0 0 .2-.824.828.828 0 0 0-.969-.13c-2.482.51-4.2-.48-5.441-2.61a67.183 67.183 0 0 1-3.123-6.9c-2.474-5.695-6.087-10.375-11.471-13.509 1.261-.558 4.819-.64 5.416-.272 1.808 1.115 3.172-1.336 2.427-2.8a15.424 15.424 0 0 0-3.985-4.939 6.925 6.925 0 0 0-1.512-.869c-1.674-.812-1.564.136-.408-1.294 2.7-3.348 3.236-7.875 2.4-11.965a1.84 1.84 0 0 0-.275-.662 1.785 1.785 0 0 0-.7-.178c-4.169-.247-8.571.934-11.5 4.084-1.252 1.346-.3 1.319-1.341-.221a6.849 6.849 0 0 0-1.074-1.369 15.405 15.405 0 0 0-5.459-3.236c-1.561-.528-3.793 1.171-2.427 2.8.446.535.876 4.068.5 5.395-3.87-4.876-9.019-7.782-15.012-9.416a66.3 66.3 0 0 1-7.281-2.1c-2.282-.916-3.508-2.478-3.363-5.011a.825.825 0 0 0-.267-.94.659.659 0 0 0-.784.319c-7.438 7.486-13.55 15.746-14.067 26.762-.388 8.209 3.065 14.75 9.581 19.745a19.9 19.9 0 0 0 9.7 3.873 10.209 10.209 0 0 1 9.627 8.334 19.954 19.954 0 0 0 5.224 9.043c5.876 5.733 12.845 8.213 20.913 6.652 10.828-2.09 18.128-9.322 24.471-17.756zm-13.928-6.563a10.827 10.827 0 0 1 1.3 6.957 4.189 4.189 0 0 1-.908 2.178 2.358 2.358 0 0 1-1.3.83 1.243 1.243 0 0 1-1.378-.571 1.342 1.342 0 0 1 .078-1.474 23.028 23.028 0 0 0 1.417-2.244 6.507 6.507 0 0 0 .427-5.377 7.59 7.59 0 0 0-1.395-2.336 4.553 4.553 0 0 1-.181-.224 7 7 0 0 1 1.942 2.261zm-6.029-5.473a9.6 9.6 0 0 1 3.364 5.825 3.464 3.464 0 0 1-.325 2.408 1.747 1.747 0 0 1-1 .868 1.059 1.059 0 0 1-1.147-.334 1.146 1.146 0 0 1-.211-1.265 8.747 8.747 0 0 0 .628-3.424 5.719 5.719 0 0 0-2.783-4.855c-.153-.107-.312-.2-.468-.3a5.737 5.737 0 0 1 1.946 1.074zm-7.517-3.268a7.439 7.439 0 0 1 4.588 2.932 2.6 2.6 0 0 1 .632 2.045 1.819 1.819 0 0 1-.222.59.922.922 0 0 1-.962.42.959.959 0 0 1-.733-.822 13.43 13.43 0 0 0-.454-1.966 4.661 4.661 0 0 0-4.339-3.217l-.117-.008c0-.033 0-.064.007-.1a12.673 12.673 0 0 1 1.6.123zm-4.725.14a6.392 6.392 0 0 1 3.087 1.337 2.136 2.136 0 0 1 .9 1.6.846.846 0 0 1-.649.927.9.9 0 0 1-.959-.6 9.029 9.029 0 0 0-.836-1.453 3.862 3.862 0 0 0-3.856-1.584l-.379.045a4.691 4.691 0 0 1 2.7-.274zm10.68-30.159a6.941 6.941 0 0 1 4.012 3.473 3.219 3.219 0 0 1-1.062 1.357 2.761 2.761 0 1 1-4.14-3.584 3.156 3.156 0 0 1 1.19-1.246zm-2.648 3.357a3.305 3.305 0 0 0 3.717 3.217 3.309 3.309 0 0 1 .684 1.208 3.079 3.079 0 0 1-1.294.483 6.953 6.953 0 0 1-4.694-4.063 3.087 3.087 0 0 1 .294-1.349 3.273 3.273 0 0 1 1.293.5zm-1.466 5.449a3.7 3.7 0 0 1-.944-2.089 1.01 1.01 0 0 1 .367-.769.946.946 0 0 1 .886.141 15.478 15.478 0 0 1 .8 1.434 15.99 15.99 0 0 1 1.533.587.949.949 0 0 1 .267.858 1.008 1.008 0 0 1-.709.472 3.707 3.707 0 0 1-2.2-.634zm.78 2.171a2.715 2.715 0 0 1-1.114.354 2.166 2.166 0 0 1-2.117-1.833 2.705 2.705 0 0 1 .191-1.153 2.644 2.644 0 0 1 1.034.482 3.224 3.224 0 0 1 .466.858 3.144 3.144 0 0 1 .913.335 2.674 2.674 0 0 1 .627.957zm-20.975 7.384a4.636 4.636 0 0 1 .115 2.713c0-.128-.006-.255-.007-.384a3.868 3.868 0 0 0-2.12-3.59 8.873 8.873 0 0 0-1.557-.618.894.894 0 0 1-.735-.864.85.85 0 0 1 .826-.775 2.109 2.109 0 0 1 1.712.66 6.314 6.314 0 0 1 1.766 2.858zm-.535-4.694a12.964 12.964 0 0 1 .351 1.566c-.03 0-.063.013-.1.021l-.025-.114a4.671 4.671 0 0 0-3.809-3.836 13.475 13.475 0 0 0-2.008-.165.96.96 0 0 1-.918-.608.917.917 0 0 1 .279-1.012 1.77 1.77 0 0 1 .551-.3 2.6 2.6 0 0 1 2.114.332 7.441 7.441 0 0 1 3.56 4.12zm-2.97-5.2c-.118-.138-.233-.284-.358-.418a5.734 5.734 0 0 0-5.2-2.064 8.762 8.762 0 0 0-3.3 1.112 1.145 1.145 0 0 1-1.282-.022 1.059 1.059 0 0 1-.5-1.089 1.752 1.752 0 0 1 .718-1.122 3.485 3.485 0 0 1 2.336-.666 9.606 9.606 0 0 1 6.246 2.5 5.806 5.806 0 0 1 1.34 1.774zm-14.694-7.242a10.806 10.806 0 0 1 7.071.287 7.015 7.015 0 0 1 2.517 1.6c-.084-.045-.168-.1-.248-.147a7.586 7.586 0 0 0-2.511-1.045 6.509 6.509 0 0 0-5.261 1.192 21.973 21.973 0 0 0-2.017 1.725 1.34 1.34 0 0 1-1.451.285 1.239 1.239 0 0 1-.76-1.279 2.364 2.364 0 0 1 .635-1.405 4.2 4.2 0 0 1 2.025-1.211zm-6.709 2.118a7.668 7.668 0 0 1 3.66-3.308 4.629 4.629 0 0 1 2.132-.437c-.046.012-.092.024-.141.033a4.742 4.742 0 0 0-3.462 2.574 6.889 6.889 0 0 0-.642 3.082.905.905 0 0 1-1.348.885 1.522 1.522 0 0 1-.544-.719 2.494 2.494 0 0 1 .345-2.11zm-2.24 13.04a3.831 3.831 0 0 1-2.882-3.95c.119-2.094 1.652-3.793 4.171-4.592.514-.161 1.049-.25 1.55-.365a29.145 29.145 0 0 0-3.224 1.656 3.682 3.682 0 0 0-1.6 4.4 2.937 2.937 0 0 0 2.575 2.166 2.836 2.836 0 0 0 2.849-1.486 2.144 2.144 0 0 0-1.5-3.236 1.528 1.528 0 0 0-1.122.2 2.445 2.445 0 0 0-.755 1.36 1.242 1.242 0 0 0 .7 1.006 4.458 4.458 0 0 0 1.611-.322 1.139 1.139 0 0 1-1.518.9 1.622 1.622 0 0 1-1.323-1.889 2.129 2.129 0 0 1 2.3-1.792 2.775 2.775 0 0 1 2.284 3.916 3.719 3.719 0 0 1-4.117 2.034zm3.472 7.862a2.12 2.12 0 0 1-.592-3.725 2.508 2.508 0 0 1 1.612-.353 1.071 1.071 0 0 1 .918 1.281 1 1 0 0 1-.991.979 3.575 3.575 0 0 0 .52-1.153.927.927 0 0 0-.648-.66 2.089 2.089 0 0 0-1.278.507 1.323 1.323 0 0 0-.134 1.772 1.73 1.73 0 0 0 2.009.684 2.327 2.327 0 0 0 .733-4.144 3 3 0 0 0-3.81.094 22.894 22.894 0 0 0-2.189 2.243c.82-3.247 4.221-4.74 6.513-3.062a3.131 3.131 0 0 1 .963 4.046 2.938 2.938 0 0 1-3.629 1.493zm2.687-16.011c.236-1.348.8-1.772 2.082-1.466a22.667 22.667 0 0 1 10.121 4.923 10.66 10.66 0 0 1 3.764 6.242c.755 3.6-.231 6.923-1.787 10.128a.922.922 0 0 1-1.63.172c-2.751-2.593-5.993-4.582-8.658-7.309a13.711 13.711 0 0 1-3.892-12.69zm2.985 22.354a3.153 3.153 0 0 1-3.1-1.972 3.213 3.213 0 0 1 .923-3.582 4.29 4.29 0 0 1 5.671.213 4.669 4.669 0 0 0-5.557.915 1.971 1.971 0 0 0-.194 2.424 2.215 2.215 0 0 0 2.15 1.188 1.608 1.608 0 0 0 1.686-1.685 1.563 1.563 0 0 0-1.944-1.4 3.358 3.358 0 0 0-.462.165c.956-1.056 1.88-1.078 2.6-.192a2.206 2.206 0 0 1 .409 2.356 2.442 2.442 0 0 1-2.186 1.574zm5.73 2.984a2.52 2.52 0 0 1-2.125-2.637 1.848 1.848 0 0 1 2.946-1.437 2.154 2.154 0 0 1 .687 1.252.939.939 0 0 1-.84 1.088.855.855 0 0 1-1.049-.577 3.093 3.093 0 0 0 1.082.14.819.819 0 0 0 .388-.7 1.818 1.818 0 0 0-.733-.936 1.144 1.144 0 0 0-1.5.334 1.515 1.515 0 0 0-.076 1.847 1.956 1.956 0 0 0 1.939.929 1.985 1.985 0 0 0 1.677-1.367 2.6 2.6 0 0 0-1-3.147 19.332 19.332 0 0 0-2.4-1.25c2.895-.143 4.967 2.308 4.133 4.638a2.731 2.731 0 0 1-3.119 1.826zm11.054-6.689c.021-.08.052-.151.077-.227a3.088 3.088 0 0 0 .057-2.1 4.245 4.245 0 0 0-1.632-2.06.65.65 0 0 1 .531-1.185 1.49 1.49 0 0 1 .918.681 4.815 4.815 0 0 1 .669 3.15 4 4 0 0 1-.612 1.829.214.214 0 0 1-.008-.09zm13.109-7.93a9.079 9.079 0 0 1-1.451 1.124 9.068 9.068 0 0 1 .9-1.6 6.335 6.335 0 0 1 2.141-1.919 6.407 6.407 0 0 1-1.593 2.392zm4.055.407a1.061 1.061 0 0 1 1.346-.728c-.2.148-.285.2-.363.265a1.124 1.124 0 0 0-.266 1.632 1.1 1.1 0 0 0 1.585.161 1.544 1.544 0 0 0 .744-1.745 1.41 1.41 0 0 0-1.41-1.23 6.185 6.185 0 0 0-2.122.62 5.955 5.955 0 0 0-1.2 1.122c.246-.547.4-.9.557-1.246a.219.219 0 0 1-.023.021v.006a7.572 7.572 0 0 1-4.155 2.352c.391-.22.6-.349.808-.453a7.4 7.4 0 0 0 4.295-6.173 7.39 7.39 0 0 0-5.494 5.135c-.076.223-.174.444-.336.862a7.573 7.573 0 0 1 1.733-4.449v-.006c0-.011.009-.017.014-.029-.32.205-.646.408-1.152.731a5.812 5.812 0 0 0 .938-1.351 6.164 6.164 0 0 0 .309-2.188 1.409 1.409 0 0 0-1.418-1.219 1.542 1.542 0 0 0-1.621.987 1.1 1.1 0 0 0 .386 1.544 1.12 1.12 0 0 0 1.577-.5c.055-.087.092-.179.211-.4a1.062 1.062 0 0 1-.528 1.437 1.546 1.546 0 0 1-1.918-.388 1.973 1.973 0 0 1 1.115-3.137 2.189 2.189 0 0 1 2.354.7 2.752 2.752 0 0 1 .184 3.014c-.143.255-.294.506-.437.76l.006-.006a.112.112 0 0 1-.023.032 10 10 0 0 1 4.794-2.352 9.959 9.959 0 0 1-1.645 5.078c.013-.009.021-.018.032-.024l-.006.006c.229-.18.459-.363.69-.541a2.755 2.755 0 0 1 3.009-.25 2.191 2.191 0 0 1 1.034 2.229 1.972 1.972 0 0 1-2.947 1.551 1.54 1.54 0 0 1-.653-1.838zm-8.294 12.765a3.091 3.091 0 0 0-2.068.356c-.072.036-.14.074-.213.109a.179.179 0 0 1-.088 0 4.011 4.011 0 0 1 1.722-.867 4.787 4.787 0 0 1 3.211.213 1.485 1.485 0 0 1 .808.808.652.652 0 0 1-1.1.7 4.258 4.258 0 0 0-2.275-1.318zm-6.727 11.556a1.956 1.956 0 0 0 1.2 1.785 1.514 1.514 0 0 0 1.818-.34 1.146 1.146 0 0 0 .115-1.536 1.819 1.819 0 0 0-1.031-.591.819.819 0 0 0-.64.484 3.094 3.094 0 0 0 .293 1.052.856.856 0 0 1-.721-.956.938.938 0 0 1 .957-.987 2.155 2.155 0 0 1 1.337.5 1.848 1.848 0 0 1-1 3.122 2.521 2.521 0 0 1-2.915-1.726 2.731 2.731 0 0 1 1.361-3.348c2.187-1.159 4.908.54 5.183 3.426a19.448 19.448 0 0 0-1.581-2.2 2.6 2.6 0 0 0-3.259-.545 1.985 1.985 0 0 0-1.113 1.856zm5.58 8.833a3.153 3.153 0 0 1-2.4-2.783 2.441 2.441 0 0 1 1.244-2.388 2.2 2.2 0 0 1 2.39.067c.978.583 1.092 1.5.181 2.6a3.051 3.051 0 0 0 .1-.483 1.566 1.566 0 0 0-1.667-1.723 1.608 1.608 0 0 0-1.427 1.91 2.219 2.219 0 0 0 1.479 1.958 1.977 1.977 0 0 0 2.376-.54 4.677 4.677 0 0 0 .11-5.63 4.3 4.3 0 0 1 1.021 5.584 3.212 3.212 0 0 1-3.41 1.425zm-1.436-12.586a.925.925 0 0 1-.066-1.641c2.952-2 6.1-3.448 9.77-3.216a10.641 10.641 0 0 1 6.717 2.83 22.657 22.657 0 0 1 6.323 9.312c.486 1.227.147 1.844-1.153 2.27a13.712 13.712 0 0 1-13.117-2.034c-3.08-2.246-5.514-5.17-8.474-7.521zm9.131 17.964a22.983 22.983 0 0 0 1.907-2.487 3 3 0 0 0-.453-3.785 2.328 2.328 0 0 0-4 1.319 1.727 1.727 0 0 0 .965 1.891 1.324 1.324 0 0 0 1.735-.387 2.1 2.1 0 0 0 .318-1.337.924.924 0 0 0-.745-.547 3.557 3.557 0 0 0-1.067.68 1 1 0 0 1 .827-1.121 1.071 1.071 0 0 1 1.4.725 2.516 2.516 0 0 1-.118 1.646 2.121 2.121 0 0 1-3.772-.052 2.939 2.939 0 0 1 .958-3.806 3.126 3.126 0 0 1 4.14.377c1.989 2.027 1 5.608-2.1 6.884zm9.6 1.141a3.831 3.831 0 0 1-4.321-2.287 3.717 3.717 0 0 1 1.423-4.366 2.775 2.775 0 0 1 4.2 1.7 2.129 2.129 0 0 1-1.439 2.535 1.63 1.63 0 0 1-2.065-1.038 1.14 1.14 0 0 1 .672-1.631 4.52 4.52 0 0 0-.085 1.643 1.234 1.234 0 0 0 1.094.549 2.425 2.425 0 0 0 1.237-.942 1.525 1.525 0 0 0 .034-1.139 2.144 2.144 0 0 0-3.418-1.025 2.843 2.843 0 0 0-1.062 3.033 2.944 2.944 0 0 0 2.513 2.238 3.683 3.683 0 0 0 4.123-2.214 29.534 29.534 0 0 0 1.181-3.426c-.045.509-.054 1.049-.142 1.584-.43 2.607-1.892 4.367-3.948 4.786zm8.263-6.372a2.484 2.484 0 0 1-2.037.641 1.5 1.5 0 0 1-.792-.433.908.908 0 0 1 .68-1.464 6.847 6.847 0 0 0 2.962-1.073 4.755 4.755 0 0 0 2.053-3.8 1.355 1.355 0 0 1 .01-.142 4.621 4.621 0 0 1-.126 2.172 7.674 7.674 0 0 1-2.75 4.1zM17.835 165.551a4.935 4.935 0 0 1-4.39-.248 1.867 1.867 0 0 0 .3-.769 3.418 3.418 0 0 0 .345.227 3.67 3.67 0 0 0 1.606.5 5.15 5.15 0 0 0 4.574-2.512c.236-.373.425-.739.608-1.089.129-.249.258-.5.4-.738a6.687 6.687 0 0 1 6.225-3.449 6.342 6.342 0 0 1 5.8 3.6 4.363 4.363 0 0 0-.773 1 1.817 1.817 0 0 0-.565-.167h-.036l-.02-.186a4.7 4.7 0 0 0-4.205-4.12 4.825 4.825 0 0 0-4.874 3.6 4.648 4.648 0 0 0-.132 1.041 1.8 1.8 0 0 0-1.256-.219 1.824 1.824 0 0 0-1.361 1.126 3.977 3.977 0 0 1-2.249 2.4zm61.477 4.282a3.719 3.719 0 0 1-1.683.249 4.938 4.938 0 0 1-3.8-2.555 11.923 11.923 0 0 1-.813-1.9c-.057-.165-.118-.33-.179-.5a6.609 6.609 0 0 0-5.459-4.528 6.335 6.335 0 0 0-6.375 2.465c-.043.048-.082.1-.124.147a4.186 4.186 0 0 1 .683 1.184 1.732 1.732 0 0 1 .544-.063c0-.012.006-.02.006-.028a4.513 4.513 0 0 1 3.491-3.517 4.146 4.146 0 0 1 4.693 1.93 6.552 6.552 0 0 1 .661 3.4 1.8 1.8 0 0 1 1.423-.121 1.821 1.821 0 0 1 1.193 1.278c.715 2.762 2.388 3.088 2.938 3.2a9.243 9.243 0 0 0 3.337-.073 1.815 1.815 0 0 1-.136-.757 3.674 3.674 0 0 1-.4.193zM49.037 157.94a4.686 4.686 0 0 1 1.449-3.951 7.37 7.37 0 0 1 1.075-.81 1.767 1.767 0 0 1-.627-.382c-.18.209-.361.423-.546.639-.387.457-.779.921-1.175 1.4a1.822 1.822 0 0 1-1.548.665 1.818 1.818 0 0 1-1.423-.888c-.328-.546-.689-1.085-1.067-1.655-.147-.22-.3-.443-.448-.667a1.823 1.823 0 0 1-.812.291c.145.1.278.193.4.285a4.339 4.339 0 0 1 .955 5.888 4.25 4.25 0 0 1-1.582 1.316 1.815 1.815 0 0 1 .946.933 1.836 1.836 0 0 1-.041 1.573c-.281.559-.415 1.067.582 2.112a9.291 9.291 0 0 1 1.606 2.3 8.756 8.756 0 0 1 1.881-1.854c1.193-.872 1.166-1.333.833-2.119a1.83 1.83 0 0 1 .22-1.819 1.793 1.793 0 0 1 .814-.615 3.708 3.708 0 0 1-1.49-2.642zm44.468 12.418a1.827 1.827 0 0 1-1.936 1.685 1.727 1.727 0 0 1-.538-.113c-1.89-.708-3.8-.575-6.387.468-.375.147-.74.327-1.106.5a11.579 11.579 0 0 1-2.768 1.048 15.314 15.314 0 0 1-1.824.245c.32.155.639.317.959.468a3.054 3.054 0 0 0 3.823-.444 52.966 52.966 0 0 1-1.155 10.72 1.836 1.836 0 0 0 1.077-.849c-.131 1.432-.3 1.658-.936 2.244-.186.175-.41.4-.644.641a39.13 39.13 0 0 1-.594 1.915 1.8 1.8 0 0 0 1.158-.232 2.848 2.848 0 0 1-1.77 1.917c-.238.6-.5 1.2-.772 1.788a3.033 3.033 0 0 0 1.305.305 4.178 4.178 0 0 1-1.941 1c-.069.136-.138.275-.207.407a21.44 21.44 0 0 1-8.011 8.723 18.847 18.847 0 0 1-17.812 1.19 17.751 17.751 0 0 1-3.7-2.547c-1.858-1.463-3.639-2.516-5.343-2.649a11.052 11.052 0 0 0-5.81 1.78 17.828 17.828 0 0 1-4.042 1.945 18.732 18.732 0 0 1-11.948-.649c.011.06.018.119.033.176-.046-.071-.087-.145-.132-.215a20.713 20.713 0 0 1-11.722-12.562c-1.317-.746-2.225-1.212-2.32-1.6a2.414 2.414 0 0 0 1.689-.276 32.753 32.753 0 0 1-.381-1.367c-.817-.641-1.829-1.182-1.91-2.511a1.87 1.87 0 0 0 1.438.394c-.1-.481-.175-.966-.25-1.447-.338-.473-.654-.93-.91-1.255-.529-.673-.666-.926-.578-2.363a2.023 2.023 0 0 0 1.2 1.133 51.83 51.83 0 0 1 .467-11.561 3.044 3.044 0 0 0 3.7 1.029c.207-.058.408-.125.616-.188a11.924 11.924 0 0 1-3.4-1.685c-2.175-1.5-4.032-2.534-6.036-2.69a7 7 0 0 0-1.923.121 1.829 1.829 0 0 1-1.252-3.388 8.3 8.3 0 0 1 4.881-1.087 16.721 16.721 0 0 1 4.649 1.233 5.677 5.677 0 0 1 3.6-3.9 1.818 1.818 0 0 1 1.971.423 1.845 1.845 0 0 1 .376 1.991 3.981 3.981 0 0 0-.372 1.328 1.657 1.657 0 0 0 1.177-.83c.151-.231.29-.506.441-.8.174-.328.344-.656.536-.97a10.332 10.332 0 0 1 9.4-5.194 10.982 10.982 0 0 1 2.8.4 5.351 5.351 0 0 1-1.7-4.648c.219-1.468 1.192-3.323 4.569-3.813a7.755 7.755 0 0 1 .814-.066c.153-.007.309-.015.46-.034.312-.047.628-.085.939-.127a15.961 15.961 0 0 0 2.226-.384.469.469 0 0 0 .236-.127.7.7 0 0 0-.042-.462c-.051-.145-.107-.287-.168-.448l-.13-.333a1.832 1.832 0 0 1 1.4-2.459 4.69 4.69 0 0 1 1.125-.058 3.959 3.959 0 0 1 2.712 1.388 4.855 4.855 0 0 1 1.402-1.007 1.818 1.818 0 0 1 2.106.341 1.841 1.841 0 0 1 .339 2.117c-1.186 2.387-.338 4 1.336 6.524.7-.816 1.348-1.609 1.918-2.423a4.19 4.19 0 0 0 .608-3.691 1.825 1.825 0 0 1 3.175-1.65 7.286 7.286 0 0 1 .565.816 3.967 3.967 0 0 1 2.8-1.1 4.133 4.133 0 0 1 1.575.5 1.819 1.819 0 0 1 .968 1.314 1.847 1.847 0 0 1-.462 1.569 1.211 1.211 0 0 0-.374.594 1.311 1.311 0 0 0 .564.432 6.992 6.992 0 0 0 1.329.484c.382.1.766.185 1.154.274a17.283 17.283 0 0 1 2.07.546 4.524 4.524 0 0 1 1.757 7.884 6.308 6.308 0 0 1-.969.76 10.681 10.681 0 0 1 3.31.065 10.265 10.265 0 0 1 8.266 6.853c.068.182.135.367.2.557a9.254 9.254 0 0 0 .549 1.321 1.376 1.376 0 0 0 .874.712 3.159 3.159 0 0 0-.166-1.022 1.9 1.9 0 0 1 .39-1.749 1.871 1.871 0 0 1 2.4-.56 5.543 5.543 0 0 1 2.872 4.343 16.43 16.43 0 0 1 4.749-.5 8.337 8.337 0 0 1 4.536 1.73 1.83 1.83 0 0 1 .85 1.69zm-74.982-3.114a5.77 5.77 0 0 0 3.255-3.425c2.031 2.2 3.471 2.659 5.115 1.672a2.231 2.231 0 0 0 .971-3.042 2.583 2.583 0 0 0-.406.447 1.457 1.457 0 0 1-2.02.807 1.632 1.632 0 0 1-.83-2.08 2.989 2.989 0 0 1 2.968-2.2 2.882 2.882 0 0 1 2.529 2.53 3.761 3.761 0 0 1-1.759 3.832c.54-.009 1.081.006 1.622.036a9.258 9.258 0 0 0 1.776-2.1c.262.711.463 1.339.72 1.943.066.154.141.3.215.448.559.09 1.113.193 1.659.3a3.14 3.14 0 0 1 .353-4.134c.9-.769.618-1.357.221-2.077a8.166 8.166 0 0 0-7.374-4.56 8.5 8.5 0 0 0-7.812 4.322c-.358.584-.626 1.222-1 1.8-.926 1.45-2.607 2.072-3.72 1.42-.963-.573-1.091-1.735-.3-3.616-2.184.862-2.725 2.545-2.772 4.7-3.341-1.127-6.556-3.084-10.135-1.06 3.643-.735 6.545.914 9.354 2.854 2.268 1.57 4.661 2.289 7.364 1.182zm6.111 34.318a8.6 8.6 0 0 0-.5-1.957c-1.27-2.5-2.5-5.042-3.972-7.425-1.735-2.8-3.752-5.426-5.569-8.176a13.539 13.539 0 0 1-2.472-6.468 4.793 4.793 0 0 1 1.025-3.635 1.424 1.424 0 0 0 1.122.743 1.447 1.447 0 0 0 .225-2.886 1.423 1.423 0 0 0-1.468 1.044 6.883 6.883 0 0 0-1.866 5.349c.012.35.025.975.033 1.325v.177a2.443 2.443 0 0 1-1.642-1.286c-.089 1.437.049 1.687.581 2.364.509.647 1.265 1.816 1.934 2.6a2.511 2.511 0 0 1-2.215-.294c.12 1.956 2.246 2.208 2.822 3.578a2.781 2.781 0 0 1-2.22.576c.243.992 5.851 2.5 10.028 8 1.564 1.984 2.778 4.244 4.15 6.379zm11.9-11.162s-1.425-8.375-7.316-12.075-14.017-1.311-14.017-1.311.631 9.655 6.521 13.349 14.808.036 14.808.036zm16.356-9.117a3.1 3.1 0 0 0-2.331-2.354 4.562 4.562 0 0 0-3.521.47 6.089 6.089 0 0 0-.722-5.013h-.063a1.075 1.075 0 0 1-.111-.021 6.366 6.366 0 0 0-1.49 4.8c-.5-.267-.894-.513-1.309-.686a3.788 3.788 0 0 0-4.253.841 1.609 1.609 0 0 0-.436 1.786 1.216 1.216 0 0 0 1.763.588c.482-.323 1.013-.717.34-1.408a.819.819 0 0 1 .19-.728 4.2 4.2 0 0 1 1.8-.487 2.86 2.86 0 0 1 2.355 1.651c.1.929.183 1.806.275 2.7-.8-.561-1.445-1.061-2.147-1.472a1.084 1.084 0 0 0-.913-.061 1.722 1.722 0 0 0-.23 1.147 1.083 1.083 0 0 0 .767.492 2.086 2.086 0 0 1 1.939 1.539 2.784 2.784 0 0 0-3.631-.224 2.314 2.314 0 0 0-.947 2.535 1.652 1.652 0 0 0 1.541 1.383 1.943 1.943 0 0 0-.094-.314c-.509-1.078-.277-2 .593-2.353a1.553 1.553 0 0 1 2.1 1.237 8.856 8.856 0 0 1 .157 2.747 18.757 18.757 0 0 1-.694 2.742l2.29.179c-.1-.475-.155-.722-.206-.969a6.647 6.647 0 0 1 .466-4.671 1.565 1.565 0 0 1 2.249-.755 1.536 1.536 0 0 1 .3 2.274c-.076.117-.159.232-.265.384a1.8 1.8 0 0 0 1.888-2.225 3.492 3.492 0 0 0-.987-1.764 2.91 2.91 0 0 0-3.306-.218 2.379 2.379 0 0 1 2.317-1.071c.828.044.828-.548.808-1.1a.625.625 0 0 0-.993-.591c-.8.341-1.573.736-2.481 1.163.258-.952.51-1.889.77-2.858a3.441 3.441 0 0 1 .6-.577 2.651 2.651 0 0 1 3.3.136c.318.335.568.676.029 1.077a.718.718 0 0 0-.164.606 1.232 1.232 0 0 0 1.487.925 1.274 1.274 0 0 0 .974-1.478zm-10.098-12.169c.362.166.726.308 1.087.438a5.8 5.8 0 0 0-1.337-2.328 7.13 7.13 0 0 1-.527-.6 5.526 5.526 0 0 1-1.006 1.741c.6.238 1.192.485 1.784.754zm7.648.6c.562-.16 1.128-.3 1.7-.428a5.228 5.228 0 0 1-.684-1.713c-.2.177-.418.356-.658.53a5.357 5.357 0 0 0-1.608 1.894c.412-.077.829-.166 1.249-.283zm3.673-.824c.4-.071.791-.131 1.19-.185a2.281 2.281 0 0 1-.748-.941 1.785 1.785 0 0 1 .374-2.595 1.781 1.781 0 0 1 2.725.915 1.38 1.38 0 0 0 .572-.877 7.418 7.418 0 0 0-1.037-2.179c-.146.011-.287.024-.433.036.558-.494 1.1-1 1.667-1.486 1.611-1.384 2.046-3.206 1.1-4.656a4.121 4.121 0 0 0-5.166-1.615 3.025 3.025 0 0 0-.858.75 1.8 1.8 0 0 1-1.039 3.351 1.736 1.736 0 0 1-.7-.208.11.11 0 0 1-.038-.011c-.03-.018-.047-.043-.077-.06a1.963 1.963 0 0 1-.28-.223c-.014-.016-.029-.025-.043-.042a1.781 1.781 0 0 1-.51-1.393c0-.031.013-.062.016-.1a2.8 2.8 0 0 1 .876-2.018 5.206 5.206 0 0 1 5.291-1.032c1.9.575 3.408 1.627 3.677 3.825a.694.694 0 0 0 .409.47c.323-.794.647-1.592.932-2.288a12.96 12.96 0 0 0 2.353-1.479c1.822-1.777 1.3-4-1.088-4.839-1-.349-2.077-.5-3.106-.787a8.989 8.989 0 0 1-1.675-.613c-1.8-.917-2.055-2.45-.7-3.914-.965-.491-1.341-.438-2.459.436a2.824 2.824 0 0 0-1.166 3.185c.9 2.729 3.311 2.509 5.13 2.482a11.233 11.233 0 0 0 .763 2.644 1.694 1.694 0 0 0 1.164.1 1.8 1.8 0 1 1 3.37-.707 1.814 1.814 0 0 1-.453 1.051 2.417 2.417 0 0 1-2.448.834 12.964 12.964 0 0 1-3.057-1.262c-2.009-1.09-3.989-2.194-6.473-2 .616-2.548 2.08-5 .1-7.465a5.991 5.991 0 0 1-.872 5.24c-1.051 1.507-2.309 2.864-3.6 4.442-1.955-3.282-4.937-6.068-2.775-10.411-1.667.839-1.874 2.1-1.307 7.5-2.8-.639-5.263.527-7.788 1.4a7.477 7.477 0 0 1-2.132.395 2.324 2.324 0 0 1-2.08-.97 1.784 1.784 0 0 1-.472-1.359 1.483 1.483 0 0 1 .033-.185c.007-.039.01-.074.021-.113a1.742 1.742 0 0 1 .067-.21c.014-.031.023-.057.034-.087a1.792 1.792 0 1 1 3.061 1.819 1.622 1.622 0 0 0 1.145.081 5.4 5.4 0 0 0 .775-2.564c.621.1 1.233.214 1.855.3a3.8 3.8 0 0 0 3.512-1.13 2.641 2.641 0 0 0 .4-3.228c-.561-1.02-1.269-2.067-2.875-1.8.126.339.231.591.321.849a2.124 2.124 0 0 1-1.428 2.937 26 26 0 0 1-3.4.558c-.423.062-.855.043-1.274.1-1.888.273-2.834 1-3.028 2.274a3.744 3.744 0 0 0 2.173 3.747c.226.108.464.209.566.256.2.957.379 1.8.554 2.651 1.276-2.991 3.549-3.936 6.383-3.566a6.991 6.991 0 0 1 3.072 1.416 2.464 2.464 0 0 1 .9 2.565v.035a1.79 1.79 0 0 1-1.773 1.654h-.196a.527.527 0 0 1-.126-.034 1.8 1.8 0 0 1-.221-3.477 2.677 2.677 0 0 0-1.712-1.291 4.151 4.151 0 0 0-4.6 1.446c-1.836 2.764.5 4.393 1.963 6.332-1.043.4-2.123.779-1.838 2.081a1.758 1.758 0 0 0 .584.821 1.792 1.792 0 1 1 2.41 2.361 3.731 3.731 0 0 1-.661.466c.4.118.794.242 1.186.371a3.638 3.638 0 0 0 1-4.42c-.6-1.33-1.316-2.606-1.9-3.938a3.785 3.785 0 0 1-.135-3.587 3.582 3.582 0 0 1 1.419-.807 3.242 3.242 0 0 1 .156 1.451c-1.32 2.8-.314 4.784 2.733 5.229.162.025.321.085.57.151-.845 1.667-.262 3 .887 4.207a7.934 7.934 0 0 1 2.041 4.136c.22.041.435.081.656.106.182.007.371 0 .559 0a7.512 7.512 0 0 1 2.618-3.582c1.438-1.052 2.283-2.328 1.438-4.32 1.6.2 2.955.023 3.875-1.322a2.918 2.918 0 0 0 .435-3.017 3.412 3.412 0 0 1-.078-1.564 1.027 1.027 0 0 1 .761-.14 2.585 2.585 0 0 1 .927 1.4 8.166 8.166 0 0 1-.82 3.039 39.441 39.441 0 0 1-2.326 3.389 3.783 3.783 0 0 0 .168 4.809zm13.849 25.076c6.388-2.742 8.509-12.179 8.509-12.179s-7.663-3.613-14.051-.875-9.1 10.8-9.1 10.8 8.243 5 14.639 2.258zm9.58-17.293a1.445 1.445 0 0 0-.224 2.881 1.422 1.422 0 0 0 1.223-.559 4.811 4.811 0 0 1 .45 3.749 13.535 13.535 0 0 1-3.444 6.008c-2.22 2.435-4.621 4.719-6.768 7.215-1.829 2.125-3.436 4.443-5.078 6.72a9 9 0 0 0-.8 1.856c1.691-1.9 3.24-3.941 5.092-5.66 4.981-4.778 10.752-5.4 11.145-6.341a2.769 2.769 0 0 1-2.1-.917c.778-1.265 2.92-1.184 3.343-3.1a2.513 2.513 0 0 1-2.239-.053c.783-.668 1.715-1.706 2.317-2.267.627-.587.805-.812.937-2.245a2.433 2.433 0 0 1-1.818 1.016s.016-.1.03-.175c.062-.344.173-.959.239-1.3a6.888 6.888 0 0 0-1.019-5.574 1.423 1.423 0 0 0-1.285-1.254zm14.122-6.458c-3.2-2.536-6.634-1.176-10.134-.515.215-2.05.045-3.895-1.926-5a.643.643 0 0 0-.145.2c.5 1.718.214 2.819-.83 3.239a2.786 2.786 0 0 1-3.214-1.514 15.111 15.111 0 0 1-.872-2.144 8.416 8.416 0 0 0-6.865-5.689 8.135 8.135 0 0 0-8.088 3.113c-.592.726-1.121 1.352-.2 2.388a2.849 2.849 0 0 1 .036 3.5 3.987 3.987 0 0 1-.415.564 41.998 41.998 0 0 1 1.632-.045c.473-.658.889-1.394 1.394-2.147a6.469 6.469 0 0 0 1.429 2.26q.768.072 1.52.19a3.8 3.8 0 0 1-1.107-3.884 2.7 2.7 0 0 1 2.133-2.159 2.284 2.284 0 0 1 2.681 1.032 5.094 5.094 0 0 1 .429 2.611 1.519 1.519 0 0 1-1.214.838 8.709 8.709 0 0 1-1.946-1.308 1.857 1.857 0 0 0 .367 2.653 3.289 3.289 0 0 0 1.045.721c.249.066.5.125.747.195 1.043.1 2.247-.413 3.689-1.584.606 2.35 1.984 4.07 4.353 4.532a11.137 11.137 0 0 0 4.255-.111 21.027 21.027 0 0 0 3.55-1.458 10.3 10.3 0 0 1 7.7-.478zm0 0"/></svg>