<svg xmlns="http://www.w3.org/2000/svg" width="1089.75" height="338.09" viewBox="0 0 1089.75 338.09"><defs><style>.cls-1{fill:#fff;fill-rule:evenodd}</style></defs><path class="cls-1" d="M720.31 158.411a.8.8 0 0 0-.33-1.446c-1.4-.229-2.06-.974-2.39-2.723-.45-2.323-.78-4.682-1.06-6.71-.87-6.4-2.74-11.529-5.77-15.805a47.6 47.6 0 0 0-8.96-9.629 10.633 10.633 0 0 1-4.4-7.278 47.263 47.263 0 0 0-4.36-12.4c-2.37-4.674-6.04-8.714-11.3-12.462-1.67-1.188-3.6-2.58-5.45-4.056-1.39-1.11-1.74-2.043-1.3-3.39a.8.8 0 0 0-1.13-.957c-8.49 4.431-14.45 9.338-18.75 15.438a25.832 25.832 0 0 0-5.04 13.452 23.173 23.173 0 0 0 8.48 20.063 17.059 17.059 0 0 0 3.99 2.288c.28.125.55.248.82.374 2.68 1.266 4.48 2.627 5.34 4.049.83 1.381 1.16 3.444 1.02 6.5-.01.293-.02.59-.04.892a16.907 16.907 0 0 0 .17 4.6 24.457 24.457 0 0 0 2.94 7.529 23.607 23.607 0 0 0 10.87 9.309 25.75 25.75 0 0 0 14.26 1.785c7.4-.965 14.51-3.956 22.39-9.415zm-8.31 3.167c-.34.176-.68.353-1.02.517a7.431 7.431 0 0 1-1.23-1.465 14.235 14.235 0 0 1-1.07-2.875.3.3 0 0 1-.04-.04.159.159 0 0 1 .03.006.021.021 0 0 1-.01-.021.13.13 0 0 1 .01.023 1.219 1.219 0 0 1 .49.179 5.914 5.914 0 0 0 4.26 1.565 3.265 3.265 0 0 1 1.64.422c-.66.39-1.32.771-1.97 1.124a1.147 1.147 0 0 0-.15-.107 13.931 13.931 0 0 1-4.22-3.108 8.718 8.718 0 0 0 3.28 3.78zm-14.42 4.681c.16-.471.31-.948.43-1.444a17.365 17.365 0 0 0 .46-6.04c.75-.026 1.5-.092 2.22-.185.03.1.07.194.1.295a13.236 13.236 0 0 1 .49 6.7c-1.18.266-2.37.5-3.57.654-.04.009-.09.013-.13.018zm-26.23-23.475c0-.32 0-.625-.01-.924a30.345 30.345 0 0 1 9 2.754q1.11.549 2.13 1.166c.21.732.45 1.5.74 2.286a28.942 28.942 0 0 0-7.15-4.007 23.633 23.633 0 0 0-4.71-1.275zm-5.33-15.4a28.949 28.949 0 0 0-.21-8.136c.56.623 1.12 1.188 1.67 1.7.04.785.06 1.576.03 2.389a30.4 30.4 0 0 1-1.75 9.282c-.27-.149-.53-.3-.82-.446a23.131 23.131 0 0 0 1.08-4.794zm-9.6-29.469c.7-.995 1.46-1.945 2.26-2.872a13.17 13.17 0 0 1 5.71 3.556c.07.072.14.147.21.218q-.63.889-1.2 1.881a17.367 17.367 0 0 0-5.55-2.4c-.5-.122-1-.212-1.49-.292l.06-.1zm11.84-11.018a1.134 1.134 0 0 0-.03-.179c.62-.41 1.26-.814 1.91-1.219a3.272 3.272 0 0 1-.39 1.651 5.894 5.894 0 0 0-.59 4.5 1.193 1.193 0 0 1-.07.514.194.194 0 0 1 .01.024c0-.007-.01-.011-.01-.018a.031.031 0 0 1-.01.027.123.123 0 0 0-.02-.056 13.915 13.915 0 0 1-2.04-2.282 7.277 7.277 0 0 1-.73-1.776c.31-.225.62-.444.94-.664a8.637 8.637 0 0 0 1.81 4.674 14.076 14.076 0 0 1-.78-5.192zm4.06 1.4a15.487 15.487 0 0 0 .65 5.7.694.694 0 0 0 .15-.055l.24-.4a17.37 17.37 0 0 1 3.86-4.9c.49.364.97.725 1.45 1.075a14.215 14.215 0 0 0-4.36 7.262 27.816 27.816 0 0 0-3.53-3.574c-.13-.422-.25-.848-.36-1.273-.82-3.422.32-6.022 3.05-7.284a3.887 3.887 0 0 0 .24.529 4.553 4.553 0 0 0-1.39 2.922zm16.7 42.612a2.118 2.118 0 0 1 1.08-.029 2.444 2.444 0 0 1-.05 1.161 2.855 2.855 0 0 1-1.32.161 2.735 2.735 0 0 1 .29-1.293zm-2.94 1.083a.961.961 0 0 1 .1-1.44.875.875 0 0 1 1.46.117 3.282 3.282 0 0 1 .21 1.233c-.79.586-1.33.608-1.77.09zm5.34-.925a.956.956 0 0 1 .87.105 2.607 2.607 0 0 1 .05 1.142 2.894 2.894 0 0 1-1.04-.463.837.837 0 0 1 .12-.784zm-11.02.111c.52-.564 1.08-1.162 1.63-1.76.51-.555 1.19-.5 2.14.224-1.18 1.536-2.3 1.959-3.77 1.536zm1.36-2.264c-.79.209-1.58.425-2.32.626.31-1.5 1.21-2.295 3.11-2.625.2 1.176-.06 1.8-.79 2zm2.46-7.831a2.12 2.12 0 0 1-.53.95 2.871 2.871 0 0 1-1.28-.347 2.81 2.81 0 0 1 .75-1.086 2.307 2.307 0 0 1 1.06.483zm-.3-1.509a2.758 2.758 0 0 1 .07-1.132 2.445 2.445 0 0 1 .99.573.95.95 0 0 1-.32.822.826.826 0 0 1-.74-.263zm-1.65 3.031a3.168 3.168 0 0 1 .99.758.877.877 0 0 1-.58 1.349.964.964 0 0 1-1.32-.581c-.25-.631.02-1.1.91-1.526zm4.32-10.334c-1.8 3.094-3.44 6.3-4.96 9.54-1.68 3.575-3.33 7.168-5.19 10.651l-.02.016c3.94-.025 7.89.183 11.84.36 3.58.156 7.17.2 10.75.041a9.173 9.173 0 0 0 7.5-3.906.123.123 0 0 0 .03-.044c.27.307.53.623.79.942a11.157 11.157 0 0 1-6.84 4.69 35.287 35.287 0 0 1-10.53.441c-5.37-.351-10.73-.953-16.12-.965l.02-.017c2.49-4.78 4.46-9.807 6.64-14.727a35.346 35.346 0 0 1 5.29-9.108 11.175 11.175 0 0 1 7.31-3.877c.16.377.31.756.46 1.135a.069.069 0 0 0-.02 0 9.2 9.2 0 0 0-6.95 4.825zm22.27 41.169a15.309 15.309 0 0 0 4.74 3.223 4.568 4.568 0 0 0 3.27.12 3.5 3.5 0 0 0 .34.451c-2.39 1.847-5.23 1.648-7.88-.674-.32-.28-.63-.575-.93-.874a28.57 28.57 0 0 0-1.52-4.817 14.152 14.152 0 0 0 8.44-.493c.09.586.18 1.177.28 1.781a17.553 17.553 0 0 1-6.16 1.154 4.356 4.356 0 0 0-.47.027.363.363 0 0 0-.11.1zm-16.24 4.657a28.091 28.091 0 0 1 .93 3.333 4.078 4.078 0 0 1 .08 1 42.239 42.239 0 0 0-2.3-4.8 12.368 12.368 0 0 0 1.29.477zm-2.03-2.642a12.687 12.687 0 0 1-4.19-4.383 27.169 27.169 0 0 1-3.25-9.927c2.2-.539 9.66-1.984 15.26 1.429a16.189 16.189 0 0 1 5.32 5.574 26.944 26.944 0 0 1 2.98 7.33c-2.29.836-10.49 3.406-16.12-.023zm-20.09-19.4l.03-.016a43.584 43.584 0 0 0 5.92-15.474c.14-.777.25-1.556.34-2.336.25-.461.49-.944.73-1.443a44.285 44.285 0 0 1-6.11 18.718l-.03.017a44.118 44.118 0 0 1 19.37 3.277 23.37 23.37 0 0 0-1.6-.025c-.72-.276-1.46-.533-2.2-.768a43.426 43.426 0 0 0-16.45-1.95zm-5.9-21.064a12.693 12.693 0 0 1-1.94-5.745c-.41-6.574 5.68-12.637 7.48-14.283a26.913 26.913 0 0 1 5.11 6.051 16.149 16.149 0 0 1 2.46 7.292c.41 6.542-4.34 12.483-5.83 14.184a27.115 27.115 0 0 1-7.28-7.5zm-3.32-8.8a10.093 10.093 0 0 0-.18 1.347 42.334 42.334 0 0 0-3.17-4.244 3.681 3.681 0 0 1 .84.542 27.049 27.049 0 0 1 2.51 2.355zm23.05-2.732c2.54-.335 3.47-2.391 2.06-4.563a4.527 4.527 0 0 0-7.39.06 7.041 7.041 0 0 0-1.26 3.362c-.11-.257-.25-.514-.38-.774a10.923 10.923 0 0 1 .37-1.4 5.2 5.2 0 0 1 5.73-3.573 4.431 4.431 0 0 1 3.86 4.094 2.532 2.532 0 0 1-2.99 2.792zm-5.65 15.116a10.882 10.882 0 0 1-.56-3.234 18.817 18.817 0 0 0 .97-3.506c.43-.726.88-1.444 1.36-2.132a8.6 8.6 0 0 0 1.33-7.43 9.519 9.519 0 0 1 .39 10.685c-1.26 1.867-2.64 3.635-2.89 5.986a11.363 11.363 0 0 1 .9-5.846 9.084 9.084 0 0 0-1.5 5.477zm26.94 27.8a13.7 13.7 0 0 1-1.36-.314c-.16-.233-.33-.466-.5-.688a7.03 7.03 0 0 0 3.51.425 4.527 4.527 0 0 0 3.49-6.514c-1.27-2.254-3.52-2.386-5-.292a2.528 2.528 0 0 1 3.86-1.355 4.427 4.427 0 0 1 1.83 5.323 5.2 5.2 0 0 1-5.83 3.415zm0-4.575a8.58 8.58 0 0 0-7.19-2.284c-.81.109-1.64.17-2.46.211a18.884 18.884 0 0 0-3.66-.792 11.026 11.026 0 0 1-2.55-1.98 8.995 8.995 0 0 0 5.54 1.224 11.329 11.329 0 0 1-5.59-1.923c2.2.866 4.4.473 6.63.23a9.5 9.5 0 0 1 9.28 5.314zm9.22 5.29a6.363 6.363 0 0 1-4.71 2.776 9.41 9.41 0 0 1-3.93-.5c-.18-.37-.37-.745-.58-1.122a8.358 8.358 0 0 0 2.6.112 16.836 16.836 0 0 0 6.24-2.17c.07-.04.14-.081.22-.122.06.339.11.679.16 1.022zm-3.55-11.426c.12.225.23.46.35.687a3.417 3.417 0 0 1-.35-.687zm-21.8-36.012c.02.035.05.069.07.1-.02-.035-.05-.067-.07-.1zm-7.5-7.236a16.791 16.791 0 0 0-4.82 4.517 8.141 8.141 0 0 0-1.11 2.386c-.24-.357-.48-.7-.72-1.031a9.169 9.169 0 0 1 1.39-3.753 6.377 6.377 0 0 1 4.6-2.882c.29.21.58.424.85.634-.06.043-.13.087-.19.129zm-13.2 1.612c-.16.154-.35.331-.55.532-.6-.81-1.2-1.624-1.78-2.451-.62-.9-1.26-1.8-1.88-2.719.26-.2.51-.412.77-.613 1.11 1.77 2.27 3.518 3.44 5.251zm-.78.676l.03.046c-.05.05-.1.108-.16.16a16.909 16.909 0 0 0-5.81-3.375c.3-.285.61-.563.93-.843a17.744 17.744 0 0 1 5.01 4.012zm-.86.971c-.23.251-.47.524-.72.806a20.655 20.655 0 0 0-6.29-3.049c.29-.309.59-.612.89-.915a21.514 21.514 0 0 1 6.12 3.158zm1.99 30.473c.25-1.06.47-2.128.67-3.191.55.421 1 .742 1.31.956a52.581 52.581 0 0 1-2.2 7.274c-.36.938-.76 1.848-1.18 2.739-.3-.227-.62-.448-.95-.67a40.7 40.7 0 0 0 2.35-7.108zm5.35-4.332a29.39 29.39 0 0 0 1.73-2.572c-.18.949-.37 1.9-.6 2.847a48.626 48.626 0 0 1-5.62 14.211 8.288 8.288 0 0 0-.81-1.048 45.112 45.112 0 0 0 5.3-13.438zm10.73 16.211c.93.244 1.86.507 2.76.787a28.518 28.518 0 0 0-3.07.341 45.177 45.177 0 0 0-14.27-1.554 8.2 8.2 0 0 0-.58-1.2 48.676 48.676 0 0 1 15.16 1.623zm-11.17 1.707a52.988 52.988 0 0 1 7.49 1.446c.04.377.12.922.24 1.6-1.04-.32-2.1-.62-3.16-.9a40.8 40.8 0 0 0-7.34-1.218c-.04-.4-.08-.792-.14-1.155.96.045 1.93.111 2.91.225zm29.56 18.337q.555-.129 1.05-.266a21.474 21.474 0 0 1-.04 6.885q-.615.2-1.23.371a20.281 20.281 0 0 0 .22-6.99zm2.07-.557c.07-.022.15-.043.22-.067.01.023.01.044.02.063a17.474 17.474 0 0 1 1.22 6.287c-.39.154-.78.3-1.17.437a17.109 17.109 0 0 0-.29-6.72zm1.82 2.567c-.46-.9-.9-1.8-1.34-2.713.27-.091.51-.173.73-.25.99 1.848 1.99 3.687 3.04 5.494-.3.142-.6.267-.9.4-.52-.97-1.02-1.956-1.53-2.931zm-47.92-30.786c-.06-.044-.1-.09-.16-.135-.02-.394-.05-.784-.09-1.178-.4-3.778-1.15-7.52-1.73-11.281-.11-.718-.11-1.453-.16-2.179l.31-.024c3.47 5.3 5.31 10.837 5.11 16.693a14.467 14.467 0 0 1-3.28-1.9zm11.67 15.81c5.27 2.548 9.31 6.749 12.38 12.274-.05.088-.11.176-.16.268-.62-.381-1.28-.724-1.86-1.155-3.06-2.255-6.02-4.666-9.18-6.78-.32-.213-.64-.409-.97-.606-.01-.08-.04-.157-.05-.234a14.658 14.658 0 0 1-.16-3.767zm-2.19-52.962c-.01-.013-.01-.034-.02-.051.02.025.03.048.05.074v.006a.269.269 0 0 1-.03-.029zm39.61 65.59c.02.023.03.049.05.075a.173.173 0 0 1-.04-.043c0-.012-.01-.023-.01-.034zM70.307 328.41a.8.8 0 0 0-.322-1.44c-1.4-.23-2.06-.98-2.4-2.73-.447-2.32-.779-4.68-1.058-6.71-.866-6.4-2.74-11.53-5.774-15.8a47.442 47.442 0 0 0-8.953-9.63 10.64 10.64 0 0 1-4.4-7.28 47.422 47.422 0 0 0-4.361-12.4c-2.374-4.68-6.04-8.72-11.307-12.47-1.665-1.18-3.6-2.58-5.447-4.05-1.39-1.11-1.739-2.04-1.3-3.39a.8.8 0 0 0-1.129-.96c-8.494 4.43-14.451 9.34-18.748 15.44A25.788 25.788 0 0 0 .06 280.44a23.166 23.166 0 0 0 8.481 20.06 16.836 16.836 0 0 0 4 2.29c.276.13.546.25.813.38 2.683 1.26 4.481 2.62 5.34 4.04.834 1.39 1.161 3.45 1.027 6.5-.009.29-.026.59-.044.89a17.093 17.093 0 0 0 .167 4.6 24.7 24.7 0 0 0 2.942 7.53 23.612 23.612 0 0 0 10.871 9.31 25.808 25.808 0 0 0 14.259 1.79c7.4-.97 14.515-3.96 22.388-9.42zm-8.3 3.17c-.344.17-.683.35-1.022.51a7.067 7.067 0 0 1-1.231-1.46 13.967 13.967 0 0 1-1.072-2.87.567.567 0 0 0-.039-.05.036.036 0 0 0 .028.01.176.176 0 0 1-.009-.02.121.121 0 0 0 .014.02 1.324 1.324 0 0 1 .486.18 5.911 5.911 0 0 0 4.257 1.57 3.235 3.235 0 0 1 1.639.42c-.661.39-1.315.77-1.966 1.12-.045-.03-.092-.07-.147-.1a14.066 14.066 0 0 1-4.228-3.11 8.71 8.71 0 0 0 3.29 3.78zm-14.427 4.68c.161-.47.31-.95.43-1.44a17.335 17.335 0 0 0 .458-6.05c.758-.02 1.5-.09 2.22-.18.033.1.071.19.1.29a13.232 13.232 0 0 1 .5 6.71c-1.187.26-2.375.5-3.571.65-.045.01-.088.01-.135.02zm-26.232-23.48c0-.32 0-.62-.007-.92a30.44 30.44 0 0 1 9 2.75c.744.37 1.449.76 2.135 1.17.2.73.448 1.5.739 2.29a28.779 28.779 0 0 0-7.149-4.01 24.114 24.114 0 0 0-4.715-1.28zm-5.327-15.4a29.125 29.125 0 0 0-.212-8.14c.559.63 1.123 1.19 1.672 1.71.042.78.06 1.57.033 2.39a30.26 30.26 0 0 1-1.752 9.28c-.267-.15-.534-.3-.816-.45a23.457 23.457 0 0 0 1.075-4.79zm-9.6-29.47c.7-.99 1.462-1.94 2.258-2.87a13.178 13.178 0 0 1 5.711 3.55c.07.08.134.15.2.22-.416.6-.82 1.22-1.2 1.88a17.45 17.45 0 0 0-5.547-2.39c-.5-.12-1-.21-1.493-.29a.867.867 0 0 1 .066-.1zm11.833-11.02a.8.8 0 0 0-.027-.18c.618-.41 1.257-.81 1.91-1.21a3.242 3.242 0 0 1-.387 1.65 5.89 5.89 0 0 0-.6 4.49 1.208 1.208 0 0 1-.067.52.039.039 0 0 1 .015.02c0-.01-.012-.01-.016-.02 0 .01 0 .02-.006.03l-.021-.06a13.771 13.771 0 0 1-2.043-2.28 7.438 7.438 0 0 1-.727-1.77c.306-.23.615-.45.934-.67a8.576 8.576 0 0 0 1.817 4.67 14.089 14.089 0 0 1-.787-5.19zm4.065 1.4a15.446 15.446 0 0 0 .65 5.7.433.433 0 0 0 .145-.06c.083-.13.168-.26.24-.4a17.694 17.694 0 0 1 3.863-4.9q.734.555 1.447 1.08a14.148 14.148 0 0 0-4.351 7.26 28.219 28.219 0 0 0-3.531-3.57c-.132-.42-.257-.85-.36-1.27-.82-3.43.315-6.03 3.045-7.29a3.6 3.6 0 0 0 .242.53 4.553 4.553 0 0 0-1.39 2.92zm16.695 42.61a2.162 2.162 0 0 1 1.089-.03 2.45 2.45 0 0 1-.059 1.17 2.859 2.859 0 0 1-1.314.16 2.959 2.959 0 0 1 .284-1.3zm-2.939 1.09a.965.965 0 0 1 .1-1.44.881.881 0 0 1 1.464.11 3.144 3.144 0 0 1 .207 1.24c-.788.58-1.331.61-1.771.09zm5.34-.93a.949.949 0 0 1 .873.11 2.494 2.494 0 0 1 .048 1.14 3.087 3.087 0 0 1-1.035-.46.832.832 0 0 1 .114-.79zm-11.019.11c.52-.56 1.079-1.16 1.632-1.76.512-.55 1.193-.49 2.14.23-1.177 1.53-2.3 1.96-3.772 1.53zm1.364-2.26c-.789.21-1.578.42-2.317.63.3-1.51 1.2-2.3 3.109-2.63.2 1.18-.062 1.8-.792 2zm2.459-7.83a2.148 2.148 0 0 1-.532.95 2.878 2.878 0 0 1-1.28-.35 2.694 2.694 0 0 1 .755-1.08 2.308 2.308 0 0 1 1.057.48zm-.3-1.51a2.8 2.8 0 0 1 .072-1.13 2.438 2.438 0 0 1 .988.57.95.95 0 0 1-.318.82.814.814 0 0 1-.742-.26zm-1.652 3.03a3.1 3.1 0 0 1 .991.76.877.877 0 0 1-.575 1.35.967.967 0 0 1-1.321-.58c-.253-.63.018-1.1.9-1.53zm4.321-10.33c-1.8 3.09-3.435 6.3-4.961 9.54-1.678 3.57-3.328 7.16-5.186 10.65l-.026.01c3.946-.02 7.893.19 11.844.36 3.578.16 7.174.2 10.75.04a9.193 9.193 0 0 0 7.5-3.9.429.429 0 0 0 .029-.05c.267.31.53.63.787.95a11.182 11.182 0 0 1-6.844 4.69 35.714 35.714 0 0 1-10.523.44c-5.376-.35-10.735-.96-16.127-.97l.028-.01c2.489-4.79 4.452-9.81 6.639-14.73a35.254 35.254 0 0 1 5.286-9.11 11.219 11.219 0 0 1 7.307-3.88c.159.38.316.76.467 1.14h-.021a9.179 9.179 0 0 0-6.953 4.83zm22.268 41.16a15.375 15.375 0 0 0 4.739 3.23 4.579 4.579 0 0 0 3.27.12 4.056 4.056 0 0 0 .345.45c-2.391 1.85-5.23 1.65-7.886-.68-.319-.28-.625-.57-.929-.87a27.649 27.649 0 0 0-1.521-4.82 14.165 14.165 0 0 0 8.447-.49c.084.59.178 1.18.278 1.78a17.706 17.706 0 0 1-6.161 1.16 3.641 3.641 0 0 0-.467.02.647.647 0 0 0-.115.1zm-16.242 4.66a26.542 26.542 0 0 1 .93 3.34 3.744 3.744 0 0 1 .087.99 41.985 41.985 0 0 0-2.3-4.8 12.461 12.461 0 0 0 1.284.47zm-2.028-2.64a12.68 12.68 0 0 1-4.184-4.38 27.358 27.358 0 0 1-3.257-9.93c2.2-.54 9.659-1.98 15.269 1.43a16.166 16.166 0 0 1 5.313 5.57 27.3 27.3 0 0 1 2.985 7.33c-2.3.84-10.493 3.41-16.126-.02zM20.5 306.05l.027-.02a43.458 43.458 0 0 0 5.92-15.47c.141-.78.253-1.56.347-2.34q.375-.69.722-1.44a44.214 44.214 0 0 1-6.1 18.72l-.028.01a44.086 44.086 0 0 1 19.364 3.28c-.546-.03-1.081-.03-1.6-.02-.722-.28-1.456-.54-2.2-.77a43.361 43.361 0 0 0-16.45-1.95zm-5.9-21.07a12.665 12.665 0 0 1-1.937-5.74c-.416-6.57 5.675-12.64 7.481-14.28a27.091 27.091 0 0 1 5.1 6.05 16.019 16.019 0 0 1 2.462 7.29c.414 6.54-4.335 12.48-5.83 14.18a27.048 27.048 0 0 1-7.277-7.5zm-3.324-8.8a12.32 12.32 0 0 0-.18 1.35 42.406 42.406 0 0 0-3.161-4.25 3.893 3.893 0 0 1 .838.55 26.289 26.289 0 0 1 2.5 2.35zm23.051-2.73c2.539-.34 3.469-2.39 2.065-4.56a4.521 4.521 0 0 0-7.391.06 6.931 6.931 0 0 0-1.258 3.36c-.117-.26-.25-.51-.38-.77a12.474 12.474 0 0 1 .362-1.4 5.207 5.207 0 0 1 5.733-3.58 4.449 4.449 0 0 1 3.864 4.1 2.537 2.537 0 0 1-3 2.79zm-5.645 15.12a10.8 10.8 0 0 1-.56-3.24 19.515 19.515 0 0 0 .969-3.5c.426-.73.876-1.45 1.358-2.14a8.576 8.576 0 0 0 1.326-7.43 9.508 9.508 0 0 1 .39 10.69c-1.258 1.87-2.631 3.63-2.886 5.98a11.365 11.365 0 0 1 .9-5.84 9.04 9.04 0 0 0-1.5 5.48zm26.94 27.79a11.04 11.04 0 0 1-1.359-.31c-.164-.23-.328-.47-.5-.69a7.026 7.026 0 0 0 3.5.43 4.532 4.532 0 0 0 3.491-6.52c-1.27-2.25-3.518-2.38-5-.29a2.53 2.53 0 0 1 3.863-1.35 4.43 4.43 0 0 1 1.828 5.32 5.2 5.2 0 0 1-5.83 3.41zm0-4.57a8.584 8.584 0 0 0-7.192-2.28c-.813.11-1.637.17-2.46.21a19.372 19.372 0 0 0-3.657-.8 10.893 10.893 0 0 1-2.558-1.97 9.039 9.039 0 0 0 5.545 1.22 11.386 11.386 0 0 1-5.594-1.92c2.2.86 4.4.47 6.638.23a9.495 9.495 0 0 1 9.278 5.31zm9.218 5.29a6.385 6.385 0 0 1-4.713 2.78 9.559 9.559 0 0 1-3.929-.5c-.179-.37-.374-.74-.579-1.12a8.585 8.585 0 0 0 2.6.11 16.751 16.751 0 0 0 6.239-2.17c.072-.04.147-.08.223-.12.059.34.114.68.163 1.02zm-3.549-11.43c.123.23.232.46.347.69a3.43 3.43 0 0 1-.347-.69zm-21.807-36.01c.026.04.051.07.077.11-.026-.04-.055-.07-.077-.11zm-7.491-7.23a16.58 16.58 0 0 0-4.822 4.51 8.156 8.156 0 0 0-1.113 2.39c-.239-.36-.483-.7-.723-1.03a9.276 9.276 0 0 1 1.393-3.75 6.377 6.377 0 0 1 4.6-2.89c.287.21.574.43.852.64a1.683 1.683 0 0 0-.19.13zm-13.2 1.61c-.166.15-.355.33-.557.53-.6-.81-1.2-1.62-1.772-2.45-.627-.9-1.268-1.8-1.886-2.72.261-.2.508-.41.774-.61a187.72 187.72 0 0 0 3.441 5.25zm-.789.67a.249.249 0 0 0 .037.05c-.051.05-.1.11-.158.16a16.841 16.841 0 0 0-5.815-3.37c.306-.29.616-.57.934-.85a17.757 17.757 0 0 1 5 4.01zm-.852.97q-.353.39-.724.81a20.653 20.653 0 0 0-6.293-3.05c.292-.31.591-.61.895-.91a21.746 21.746 0 0 1 6.122 3.15zm1.991 30.48c.247-1.06.468-2.13.667-3.19.546.42 1 .74 1.306.95a53.435 53.435 0 0 1-2.193 7.28 47.38 47.38 0 0 1-1.183 2.74c-.3-.23-.616-.45-.951-.67a41.3 41.3 0 0 0 2.354-7.11zm5.344-4.33a28.785 28.785 0 0 0 1.733-2.58c-.177.95-.374 1.9-.6 2.85A48.667 48.667 0 0 1 20 306.29a8.4 8.4 0 0 0-.808-1.05 45.1 45.1 0 0 0 5.3-13.43zm10.734 16.21c.93.24 1.854.5 2.761.78-1.146.07-2.191.2-3.073.34a45.351 45.351 0 0 0-14.273-1.55 7.554 7.554 0 0 0-.574-1.2 48.911 48.911 0 0 1 15.159 1.63zm-11.17 1.7a52.28 52.28 0 0 1 7.491 1.45c.04.38.116.92.239 1.6q-1.569-.48-3.166-.9a40.85 40.85 0 0 0-7.341-1.22c-.034-.4-.077-.79-.137-1.15.965.04 1.933.11 2.914.22zm29.561 18.34q.552-.12 1.051-.27a21.557 21.557 0 0 1-.047 6.89c-.408.13-.816.26-1.224.37a20.556 20.556 0 0 0 .22-6.99zm2.069-.56l.215-.06q.014.03.024.06a17.626 17.626 0 0 1 1.221 6.29c-.39.15-.782.29-1.174.43a17.016 17.016 0 0 0-.286-6.72zm1.819 2.57a94.77 94.77 0 0 1-1.343-2.71c.269-.09.511-.17.728-.25.99 1.85 2 3.69 3.047 5.49-.3.14-.6.27-.9.4-.522-.97-1.023-1.95-1.53-2.93zM9.577 299.29l-.155-.14c-.024-.39-.049-.78-.091-1.18-.4-3.78-1.156-7.52-1.735-11.28-.106-.72-.1-1.45-.155-2.18.1-.01.209-.01.312-.02 3.467 5.3 5.311 10.83 5.111 16.69a14.419 14.419 0 0 1-3.287-1.89zm11.676 15.81c5.269 2.54 9.307 6.74 12.381 12.27-.057.09-.113.18-.166.27-.622-.38-1.275-.73-1.859-1.16-3.061-2.25-6.021-4.66-9.18-6.78-.32-.21-.644-.41-.967-.6-.017-.08-.041-.16-.055-.24a14.438 14.438 0 0 1-.154-3.76zm-2.192-52.97a.474.474 0 0 1-.021-.05c.019.03.033.05.049.08a.244.244 0 0 1-.027-.03zm39.612 65.59c.014.03.03.05.041.08a.1.1 0 0 0-.035-.04.1.1 0 0 0-.011-.04zM1079.28 216.367a3.1 3.1 0 0 1-2.61 2.891c-1.87.559-3.77 1.035-5.66 1.491a29.23 29.23 0 0 0-12.7 6.141 40.072 40.072 0 0 0-7.32 8.318 9.812 9.812 0 0 1-6.21 4.66c-.46.138-.91.286-1.36.44.75-4.546-4.84-8.105-3.04-12.706-5.66 2.944-8.1 5.211-9.35 9.994-.91 3.426-.27 6.748 1.41 8.684-.2.162-.4.317-.59.485-1.93-2.291-2.68-6.044-1.67-9.872a15.18 15.18 0 0 1 1.83-4.339 6.921 6.921 0 0 1-2.05-5.185c-5.25 5.195-7.16 8.529-6.9 14.237.19 4.3 2.22 7.9 4.95 9.334-.17.22-.33.45-.5.67a10.708 10.708 0 0 0-6.44-3.161c-4.9-.677-7.83 5.781-12.78 4.5 3.57 5.27 6.1 7.41 11 8.09a12.578 12.578 0 0 0 2.11.1 2.766 2.766 0 0 1-2.61.63c3.89 5.93 8.4 10.97 14.51 14.41a21.6 21.6 0 0 0 11.54 3.04c6.69-.26 11.36-4.32 15.16-9.86a16.644 16.644 0 0 0 1.98-3.9 11.166 11.166 0 0 1 3.24-5.21c1.39-1.04 3.43-1.44 5.82-1.58a16.709 16.709 0 0 0 4.29-.82c6.38-2.1 11.31-5.25 13.43-11.6a21.571 21.571 0 0 0 .3-11.921c-1.6-6.831-5.18-12.571-9.78-17.96zm-41.3 57.073a.344.344 0 0 1-.64.25c-.79-1.96-1.63-3.44-3.92-3.25a18.757 18.757 0 0 1-4.43.01c-3.22-.51-4.64-2.36-3.29-5.49a.341.341 0 0 1 .63.26c-2.23 5.19 4.07 4.62 7.31 4.52 2.47-.08 3.47 1.57 4.34 3.7zm12.85-.46c-.21-.38.43-.63.64-.25 2.34 4.23 3.03-1.6 1.19-2.02-1.51-.33-3.12 2.03-3.93 3a12.936 12.936 0 0 1-3.58 3.34 3.53 3.53 0 0 1-5.2-3.49 2.908 2.908 0 0 1 5.3-1.42.343.343 0 0 1-.55.41c-1.66-2.1-4.28-.58-4.09 1.86a3.017 3.017 0 0 0 2.53 2.45 3.836 3.836 0 0 0 2.74-1.14c1.77-1.43 4.01-5.96 6.71-5.7 3.27.32 1.43 8.72-1.76 2.96zm-7.96-3.02c-6.93 1.15-13.81-5.71-13.81-5.71s4.59-7.22 11.52-8.37 13.58 4.21 13.58 4.21-4.35 8.72-11.29 9.87zm.5-21.21c-.12 1.69-.63 3.03-1.15 3s-.83-1.44-.71-3.125a12.361 12.361 0 0 1 1.2-3.813 12.175 12.175 0 0 1 .66 3.938zm5.55-.448c.69 2.088.73 3.958.09 4.168s-1.71-1.31-2.4-3.4a16.251 16.251 0 0 1-.43-5.179 15.889 15.889 0 0 1 2.74 4.414zm8.93 3.738c-.85.64-3.25-1.11-5.35-3.915s-3.29-7.594-3.29-7.594 4.27 2.471 6.38 5.275 3.12 5.594 2.26 6.234zm2.56-8.58c-.38.553-2.16-.009-3.97-1.255a15.855 15.855 0 0 1-3.48-3.859 15.913 15.913 0 0 1 4.85 1.858c1.81 1.251 2.98 2.7 2.6 3.256zm-1.6-8.278c1.66.355 2.91 1.054 2.8 1.553s-1.54.623-3.2.265a12.3 12.3 0 0 1-3.6-1.728 12.349 12.349 0 0 1 4-.09zm8.98 14.678s-3.29-7.88-.26-14.215 11.27-8.724 11.27-8.724 4.65 8.529 1.61 14.862-12.62 8.077-12.62 8.077zm18.72-3.855a12.78 12.78 0 0 1-4.21 2.5c-1.15.516-3.88 1.406-3.97 2.946-.11 1.87 5.67 2.84 2.27-.59-.3-.31.11-.85.42-.54 4.64 4.67-3.94 4.09-3.33.87.5-2.677 5.48-3.555 7.34-4.859a3.806 3.806 0 0 0 1.86-2.318 3.007 3.007 0 0 0-1.65-3.11c-2.29-.86-4.48 1.226-2.93 3.407a.339.339 0 0 1-.54.41 2.907 2.907 0 0 1 2.84-4.688 3.531 3.531 0 0 1 1.9 5.973zm-1.9-16.806a30.937 30.937 0 0 1-1.34 4.526c-.67 2.029.6 3.2 2.12 4.395a.343.343 0 0 1-.42.541c-1.75-1.382-3.17-2.881-2.34-5.2 1.11-3.072 3.23-8.955-2.29-8.275a.342.342 0 0 1-.08-.679c1.25-.154 3.05-.224 3.83 1.025a5.178 5.178 0 0 1 .52 3.668zm-68.79 32.051a11.033 11.033 0 0 1-6.35.89c-4.89-.67-7.42-2.82-11-8.08 4.95 1.28 7.89-5.181 12.78-4.5a12.175 12.175 0 0 1 2.77.719c-1.79 1.25-3.4 2.24-5.36 1.73l-2.64-.68 1.53 2.25c2.63 3.88 4.87 6.37 8.27 7.67zm-14.27-15.446l-1.73-.527 1.65-.749c5.39-2.424 8.89-3.267 13.6-1.384.22.4.46.8.73 1.215a11.757 11.757 0 0 0 3.15 3.261 12.418 12.418 0 0 0-4.04 2.042 13.354 13.354 0 0 0-1.46-.671c-2.73-1.038-5.35.494-7.96 1.449-.9-2.077-1.81-3.985-3.94-4.636zm14.11-2.424c-.2-.084-.39-.158-.59-.236-1.96-3.6-1.86-6.848-.41-12.4 1.59 3.167 5.34 3.142 8.39 4.211a15.4 15.4 0 0 0-1.16 7.042 14.024 14.024 0 0 0 1.6 5.982 12.976 12.976 0 0 0-2.17-.489 5.188 5.188 0 0 0-.62-.054 11.753 11.753 0 0 0-5.04-4.06zM787.47 14.067a4.933 4.933 0 0 1-3.16-3.057 1.923 1.923 0 0 0 .73-.387 3.681 3.681 0 0 0 1 1.826 5.14 5.14 0 0 0 5.1 1.089c.42-.128.8-.282 1.17-.427.26-.1.52-.208.79-.3a6.681 6.681 0 0 1 6.96 1.458 6.323 6.323 0 0 1 2.04 6.517 4.308 4.308 0 0 0-1.23.251 1.944 1.944 0 0 0-.32-.5l-.03-.025c.04-.052.07-.1.11-.154a4.709 4.709 0 0 0-.49-5.867 4.822 4.822 0 0 0-6.04-.461 4.543 4.543 0 0 0-.78.7 1.8 1.8 0 0 0-.81-.987 1.834 1.834 0 0 0-1.77-.037 3.971 3.971 0 0 1-3.27.35zM831.2 57.49a3.709 3.709 0 0 1-1.44-.911 4.977 4.977 0 0 1-1.21-4.418 13.131 13.131 0 0 1 .63-1.971c.07-.163.13-.328.19-.493a6.606 6.606 0 0 0-1.17-7 6.337 6.337 0 0 0-6.44-2.3c-.06.009-.12.022-.19.03a4.252 4.252 0 0 1-.25 1.341 1.838 1.838 0 0 1 .45.308.062.062 0 0 0 .02-.017 4.51 4.51 0 0 1 4.94-.38 4.138 4.138 0 0 1 2.29 4.528 6.449 6.449 0 0 1-1.72 3 1.8 1.8 0 0 1 .89.49 2.269 2.269 0 0 1 .27.349 1.836 1.836 0 0 1 .07 1.747c-1.27 2.557-.22 3.9.13 4.34a9.128 9.128 0 0 0 2.57 2.126 1.931 1.931 0 0 1 .39-.662 3.652 3.652 0 0 1-.42-.114zM816.06 28.7a4.685 4.685 0 0 1 3.68-2.043 7.393 7.393 0 0 1 1.34.09 1.9 1.9 0 0 1-.23-.7l-.83.128c-.59.093-1.19.187-1.8.293a1.831 1.831 0 0 1-1.61-.508 1.824 1.824 0 0 1-.5-1.6c.11-.628.19-1.272.28-1.95l.09-.8a1.834 1.834 0 0 1-.8-.31c.05.168.08.328.12.48a4.341 4.341 0 0 1-3.13 5.08 4.258 4.258 0 0 1-2.06-.038 1.788 1.788 0 0 1 .11 1.325 1.838 1.838 0 0 1-1.06 1.164c-.58.238-1.01.535-.94 1.978a9.327 9.327 0 0 1-.28 2.787 8.742 8.742 0 0 1 2.63-.173c1.47.12 1.75-.247 2.01-1.059a1.839 1.839 0 0 1 1.36-1.234 1.806 1.806 0 0 1 1.02.067 3.718 3.718 0 0 1 .6-2.974zm25.53 38.464a1.819 1.819 0 0 1-2.56.009 1.787 1.787 0 0 1-.34-.436c-.96-1.772-2.49-2.918-5.13-3.821-.39-.134-.78-.236-1.17-.343a11.619 11.619 0 0 1-2.78-1.016 15.1 15.1 0 0 1-1.54-1.006c.14.326.28.657.42.98.58 1.266 1.43 2.294 3.18 2.164a52.922 52.922 0 0 1-7.88 7.358 1.835 1.835 0 0 0 1.37.061c-1.03 1-1.31 1.056-2.17 1.087-.26.011-.57.035-.91.064-.55.368-1.12.72-1.7 1.061a1.786 1.786 0 0 0 1.03.581 2.844 2.844 0 0 1-2.59.295c-.58.3-1.16.579-1.76.848a3.113 3.113 0 0 0 .79 1.084 4.2 4.2 0 0 1-2.12-.516c-.14.058-.28.118-.42.173a21.443 21.443 0 0 1-11.77 1.365 18.842 18.842 0 0 1-14.25-10.741 17.5 17.5 0 0 1-1.14-4.344c-.45-2.321-1.11-4.282-2.31-5.5a11.029 11.029 0 0 0-5.56-2.451 17.69 17.69 0 0 1-4.33-1.17 18.749 18.749 0 0 1-8.62-8.3c-.03.053-.06.1-.09.155.01-.084.03-.166.04-.249a20.691 20.691 0 0 1-.66-17.17c-.51-1.425-.9-2.372-.72-2.724a2.424 2.424 0 0 0 1.46.895c.2-.434.4-.863.61-1.284-.2-1.02-.62-2.091.19-3.149a1.887 1.887 0 0 0 .83 1.238c.25-.426.5-.845.76-1.259.05-.579.11-1.131.13-1.544.04-.855.1-1.136 1.11-2.166a2.035 2.035 0 0 0 .17 1.642 51.383 51.383 0 0 1 7.91-8.445 3.04 3.04 0 0 0 2.13 3.2c.19.091.39.172.59.26a11.726 11.726 0 0 1-1.48-3.5c-.66-2.559-1.39-4.553-2.81-5.981a6.919 6.919 0 0 0-1.53-1.165 1.807 1.807 0 0 1-.81-2.228 1.826 1.826 0 0 1 2.07-1.154 8.314 8.314 0 0 1 4.41 2.367 16.669 16.669 0 0 1 2.71 3.972 5.69 5.69 0 0 1 5.28-.593 1.808 1.808 0 0 1 1.21 1.609 1.849 1.849 0 0 1-1.02 1.752 4.1 4.1 0 0 0-1.15.762 1.671 1.671 0 0 0 1.44.141c.26-.076.55-.194.86-.318.34-.135.68-.271 1.04-.384a10.32 10.32 0 0 1 10.5 2.213 10.858 10.858 0 0 1 1.86 2.137 5.369 5.369 0 0 1 1.75-4.631c1.13-.968 3.08-1.736 5.95.1a6.477 6.477 0 0 1 .66.482c.12.094.25.191.37.274.27.168.53.346.8.518a15.584 15.584 0 0 0 1.93 1.164.468.468 0 0 0 .26.058.674.674 0 0 0 .27-.377c.06-.143.11-.287.17-.449l.12-.337a1.8 1.8 0 0 1 1.11-1.1 1.833 1.833 0 0 1 1.56.159 5.006 5.006 0 0 1 .89.691 3.963 3.963 0 0 1 1.14 2.823 4.851 4.851 0 0 1 1.72.145 1.824 1.824 0 0 1 1.37 1.634 1.846 1.846 0 0 1-1.13 1.824c-2.46 1.032-2.87 2.807-3.25 5.811 1.06-.163 2.07-.337 3.03-.58a4.21 4.21 0 0 0 2.88-2.4 1.825 1.825 0 0 1 3.48.826 6.157 6.157 0 0 1-.11.988 3.947 3.947 0 0 1 2.84.994 4.215 4.215 0 0 1 .87 1.41 1.841 1.841 0 0 1-1.51 2.513 1.2 1.2 0 0 0-.67.205 1.328 1.328 0 0 0 .15.695 6.97 6.97 0 0 0 .69 1.235c.22.329.46.642.69.963a17.074 17.074 0 0 1 1.21 1.766 4.525 4.525 0 0 1-3.82 7.115 6.266 6.266 0 0 1-1.23-.059 10.731 10.731 0 0 1 2.46 2.213 10.27 10.27 0 0 1 1.78 10.59c-.07.182-.14.366-.21.554a8.43 8.43 0 0 0-.45 1.358 1.348 1.348 0 0 0 .2 1.111 3.536 3.536 0 0 0 .54-.882 2.01 2.01 0 0 1 3.62.075 5.546 5.546 0 0 1-.67 5.164 16.408 16.408 0 0 1 3.92 2.725 8.352 8.352 0 0 1 2.31 4.275 1.836 1.836 0 0 1-.47 1.834zm-54.71-51.366a5.759 5.759 0 0 0 4.7-.464c.1 3 .89 4.281 2.78 4.609 1.33.226 2.15-.257 2.73-1.668a2.579 2.579 0 0 0-.6.072 1.458 1.458 0 0 1-2.06-.708 1.63 1.63 0 0 1 .73-2.117 3 3 0 0 1 3.69.274 2.892 2.892 0 0 1 .26 3.568 3.77 3.77 0 0 1-3.84 1.751c.41.345.81.711 1.2 1.087a9.243 9.243 0 0 0 2.72-.429c-.26.709-.52 1.315-.72 1.941-.05.16-.09.32-.13.48.36.434.71.873 1.06 1.313a3.132 3.132 0 0 1 2.96-2.9c1.19.006 1.36-.623 1.53-1.428a8.176 8.176 0 0 0-2.6-8.27 8.5 8.5 0 0 0-8.74-1.836c-.65.208-1.27.516-1.93.713-1.65.492-3.33-.136-3.74-1.357-.36-1.063.31-2.026 2.13-2.933-2.21-.775-3.72.145-5.17 1.745-1.79-3.037-2.94-6.619-6.97-7.427 3.23 1.825 4.35 4.97 5.21 8.275.69 2.67 2.03 4.778 4.8 5.707zm-17.8 29.967a8.784 8.784 0 0 0 .9-1.807c.67-2.725 1.4-5.449 1.84-8.216.52-3.251.71-6.559 1.13-9.828a13.581 13.581 0 0 1 2.36-6.511 4.793 4.793 0 0 1 3.15-2.081 1.4 1.4 0 0 0 .37 1.295 1.445 1.445 0 0 0 2.05-2.037 1.42 1.42 0 0 0-1.79-.169 6.884 6.884 0 0 0-4.91 2.829c-.22.273-.62.754-.84 1.024a4.24 4.24 0 0 0-.11.135 2.43 2.43 0 0 1-.41-2.046c-1 1.03-1.06 1.309-1.1 2.169-.04.822-.23 2.2-.24 3.23a2.52 2.52 0 0 1-1.48-1.67c-1.19 1.559.26 3.138-.2 4.552a2.794 2.794 0 0 1-2.06-1.015c-.46.91 2.79 5.719 2.36 12.605-.11 2.525-.67 5.028-1.02 7.541zm16.29-.673s4.4-7.268 2.36-13.917-9.75-10.154-9.75-10.154-5.83 7.72-3.79 14.366 11.18 9.705 11.18 9.705zm18.34 3.791a3.093 3.093 0 0 0-.22-3.306 4.565 4.565 0 0 0-2.98-1.945 6.064 6.064 0 0 0 2.73-4.266.291.291 0 0 0-.05-.039.71.71 0 0 0-.07-.089 6.37 6.37 0 0 0-4.26 2.655c-.2-.53-.34-.973-.54-1.375a3.787 3.787 0 0 0-3.77-2.143 1.616 1.616 0 0 0-1.5 1.066 1.221 1.221 0 0 0 .95 1.6c.58.07 1.24.119 1.18-.844a.817.817 0 0 1 .62-.427 4.167 4.167 0 0 1 1.68.811 2.844 2.844 0 0 1 .71 2.788c-.54.766-1.05 1.487-1.56 2.22-.24-.95-.4-1.747-.66-2.517a1.087 1.087 0 0 0-.65-.643 1.754 1.754 0 0 0-.93.718 1.117 1.117 0 0 0 .26.873 2.079 2.079 0 0 1 .46 2.432 2.775 2.775 0 0 0-2.6-2.543 2.311 2.311 0 0 0-2.37 1.3 1.644 1.644 0 0 0 .26 2.054 2.034 2.034 0 0 0 .14-.3c.32-1.149 1.09-1.693 1.98-1.394a1.552 1.552 0 0 1 .78 2.307 8.833 8.833 0 0 1-1.68 2.181 18.716 18.716 0 0 1-2.31 1.622l1.61 1.632c.24-.427.36-.648.48-.868a6.648 6.648 0 0 1 3.41-3.231 1.562 1.562 0 0 1 2.19.9 1.533 1.533 0 0 1-1.26 1.915c-.13.038-.27.071-.45.117a1.8 1.8 0 0 0 2.88-.45 3.511 3.511 0 0 0 .41-1.98 2.919 2.919 0 0 0-2.36-2.327 2.377 2.377 0 0 1 2.45.7c.6.576.99.127 1.33-.3a.623.623 0 0 0-.36-1.1c-.83-.263-1.68-.472-2.64-.742.81-.552 1.62-1.1 2.45-1.66a3.427 3.427 0 0 1 .83-.042 2.648 2.648 0 0 1 2.41 2.261c.02.461-.01.883-.68.833a.7.7 0 0 0-.52.352 1.23 1.23 0 0 0 .52 1.672 1.271 1.271 0 0 0 1.7-.482zm.32-15.807c.16.362.35.707.53 1.042a5.724 5.724 0 0 0 .51-2.636c-.01-.279-.01-.55 0-.8a5.563 5.563 0 0 1-1.9.66c.3.571.58 1.147.86 1.737zm5.4 5.45c.53.246 1.05.51 1.56.788a5.058 5.058 0 0 1 .61-1.743c-.27 0-.55 0-.85-.029a5.3 5.3 0 0 0-2.45.382c.36.211.73.416 1.13.6zm3.31 1.777c.35.205.69.418 1.03.638a2.334 2.334 0 0 1 .04-1.2 1.852 1.852 0 0 1 .53-1.213 1.8 1.8 0 0 1 1.45-.507h.01a1.774 1.774 0 0 1 1.46 2.474 1.382 1.382 0 0 0 1.01-.29 7.467 7.467 0 0 0 .64-2.327c-.12-.087-.23-.169-.35-.255.74-.009 1.49-.04 2.23-.035 2.13 0 3.65-1.09 3.88-2.8a4.128 4.128 0 0 0-2.86-4.6 3.038 3.038 0 0 0-1.14.006 1.8 1.8 0 0 1-2.97 1.857 1.819 1.819 0 0 1-.4-.614.062.062 0 0 0-.02-.033.329.329 0 0 0-.02-.1 2.148 2.148 0 0 1-.06-.351c0-.022-.01-.038-.01-.06a1.77 1.77 0 0 1 .53-1.387c.02-.022.05-.039.07-.063a2.81 2.81 0 0 1 1.98-.955 5.2 5.2 0 0 1 4.68 2.677c1.06 1.674 1.52 3.458.29 5.3a.674.674 0 0 0 0 .624c.76-.39 1.53-.782 2.2-1.123a12.987 12.987 0 0 0 2.75.419c2.54-.154 3.6-2.18 2.34-4.374-.53-.92-1.25-1.739-1.84-2.626a9.362 9.362 0 0 1-.87-1.558c-.76-1.868.05-3.2 2.04-3.417-.41-1-.73-1.207-2.15-1.277a2.813 2.813 0 0 0-2.96 1.648c-1.11 2.654.86 4.064 2.26 5.232a10.741 10.741 0 0 0-1.15 2.5 1.652 1.652 0 0 0 .81.835 1.8 1.8 0 1 1 3.01 1.669 1.765 1.765 0 0 1-1.03.5 2.406 2.406 0 0 1-2.39-.969 12.713 12.713 0 0 1-1.49-2.953c-.81-2.138-1.59-4.267-3.6-5.74 2.14-1.526 4.84-2.422 4.96-5.587a6 6 0 0 1-4.09 3.4c-1.78.453-3.62.658-5.63 1.009.67-3.762.23-7.819 4.71-9.693-1.81-.454-2.79.366-5.89 4.82-1.71-2.317-4.33-3.042-6.81-4.03a7.4 7.4 0 0 1-1.87-1.095 2.3 2.3 0 0 1-.94-2.093 1.78 1.78 0 0 1 .53-1.337c.04-.044.1-.08.14-.118a1.13 1.13 0 0 0 .09-.072 1.923 1.923 0 0 1 .19-.115c.03-.015.06-.028.09-.044a1.787 1.787 0 0 1 2.01 2.9 1.751 1.751 0 0 1-.89.481 1.642 1.642 0 0 0 .82.81 5.448 5.448 0 0 0 2.26-1.434c.4.484.79.968 1.21 1.441a3.784 3.784 0 0 0 3.39 1.44 2.647 2.647 0 0 0 2.42-2.178c.24-1.14.39-2.395-1-3.243-.13.339-.21.6-.31.853a2.126 2.126 0 0 1-3 1.289 25.844 25.844 0 0 1-2.94-1.8c-.36-.23-.67-.527-1.03-.754-1.61-1.027-2.8-1.1-3.78-.257a3.735 3.735 0 0 0-.8 4.256c.1.229.21.461.26.563-.48.857-.89 1.612-1.32 2.369 2.92-1.43 5.26-.659 7.17 1.473a6.989 6.989 0 0 1 1.39 3.08 2.459 2.459 0 0 1-.99 2.528.048.048 0 0 0-.02.027 1.8 1.8 0 0 1-2.43.093 2.156 2.156 0 0 1-.09-.08.166.166 0 0 1-.03-.019c-.01-.014-.03-.025-.04-.038a1.287 1.287 0 0 1-.08-.109 1.8 1.8 0 0 1 2.11-2.775 2.682 2.682 0 0 0-.45-2.1 4.156 4.156 0 0 0-4.43-1.913c-3.2.892-2.49 3.652-2.65 6.075-1.05-.378-2.12-.8-2.75.374a1.817 1.817 0 0 0-.1 1 1.793 1.793 0 1 1 .28 3.361 3.617 3.617 0 0 1-.8-.079c.22.348.44.7.65 1.056a3.637 3.637 0 0 0 3.65-2.689c.42-1.4.71-2.832 1.14-4.222a3.78 3.78 0 0 1 2.24-2.8 3.576 3.576 0 0 1 1.6.316 3.206 3.206 0 0 1-.83 1.2c-2.83 1.259-3.36 3.415-1.35 5.744.11.124.19.274.34.487-1.73.709-2.16 2.1-2.08 3.763a7.973 7.973 0 0 1-1.16 4.465 6.6 6.6 0 0 0 .43.508c.13.124.28.241.42.363a7.517 7.517 0 0 1 4.32-1c1.78.143 3.25-.27 3.91-2.329 1.09 1.2 2.23 1.948 3.8 1.533a2.906 2.906 0 0 0 2.3-2 3.353 3.353 0 0 1 .97-1.234 1.01 1.01 0 0 1 .66.391 2.585 2.585 0 0 1-.21 1.663 8.1 8.1 0 0 1-2.61 1.765 39.6 39.6 0 0 1-3.97 1.044 3.786 3.786 0 0 0-3.02 3.75zm-5.9 28.036c6.62 2.1 14.4-3.656 14.4-3.656s-3.44-7.743-10.07-9.845-13.94 2.224-13.94 2.224 2.98 9.168 9.61 11.277zm18.55-6.827a1.444 1.444 0 0 0-2.05 2.034 1.419 1.419 0 0 0 1.29.377 4.832 4.832 0 0 1-2.11 3.131 13.527 13.527 0 0 1-6.54 2.3c-3.27.393-6.58.552-9.83 1.038-2.78.412-5.51 1.116-8.24 1.766a9.407 9.407 0 0 0-1.82.884c2.52-.33 5.03-.864 7.56-.954 6.89-.361 11.67 2.938 12.58 2.485a2.792 2.792 0 0 1-1-2.069c1.42-.449 2.99 1.012 4.56-.16a2.513 2.513 0 0 1-1.66-1.5c1.03.006 2.41-.17 3.23-.2.86-.034 1.14-.088 2.18-1.087a2.428 2.428 0 0 1-2.04-.419s.08-.066.14-.113c.27-.22.76-.613 1.03-.831a6.863 6.863 0 0 0 2.87-4.884 1.433 1.433 0 0 0-.15-1.789zm14.91 4.343c-.77-4.014-4.25-5.226-7.34-7.014 1.51-1.411 2.58-2.918 1.82-5.047a.655.655 0 0 0-.24.057c-.75 1.624-1.68 2.272-2.75 1.909a2.8 2.8 0 0 1-1.45-3.246 15.744 15.744 0 0 1 .75-2.192 8.425 8.425 0 0 0-1.48-8.793 8.136 8.136 0 0 0-8.16-2.931c-.92.163-1.73.291-1.71 1.678a2.848 2.848 0 0 1-2.26 2.671 4 4 0 0 1-.68.156q.645.5 1.26 1.032c.79-.188 1.59-.473 2.46-.713a6.431 6.431 0 0 0-.39 2.644c.35.371.7.751 1.02 1.137a3.825 3.825 0 0 1 1.7-3.663 2.709 2.709 0 0 1 3.03-.24 2.277 2.277 0 0 1 1.35 2.534 4.969 4.969 0 0 1-1.38 2.256 1.5 1.5 0 0 1-1.46-.159 8.446 8.446 0 0 1-.63-2.263 1.852 1.852 0 0 0-1.45 2.247 3.151 3.151 0 0 0 .32 1.229c.14.213.29.42.43.636.72.76 1.97 1.156 3.83 1.212-1.08 2.174-1.16 4.376.33 6.275a11.2 11.2 0 0 0 3.3 2.7 20.886 20.886 0 0 0 3.63 1.217 10.3 10.3 0 0 1 6.15 4.674zM217.838 235.07a5.393 5.393 0 0 1 .972.3c-.395.077-.78.33-.552.787a.857.857 0 0 0 1.294.157c1.067-.754-1.2-1.5-1.714-1.559-.2-.023-.2.3 0 .319zm1.416.516c.184.113.294.234.223.347a.606.606 0 0 1-.886.147c-.287-.349.318-.431.538-.424a.132.132 0 0 0 .125-.07zm5-3.571c.757.758-.69 2.083-1.412 2.185-.138.018-.2-.191-.059-.21a1.968 1.968 0 0 0 1.322-1.093.61.61 0 0 0-.181-.862.657.657 0 0 0-.734-.012c-.262.237.193.459.358.5a.111.111 0 0 1-.059.214c-.338-.085-.789-.432-.494-.812a.889.889 0 0 1 1.259.093zm-24.75 10.427c1.169-1.272.467-3.233-.644-4.232-1.572-1.415-3.734-1.209-5.5-.316a8.313 8.313 0 0 0-3.5 3.506c1.338-.8 2.825-.214 3.794 1.193a.31.31 0 0 1-.5.369c-.883-1.282-2.283-1.9-3.5-.633a.977.977 0 0 1-.247.345 4.719 4.719 0 0 0 1.342 5.519c.294.264-.083.75-.381.485-4.848-4.285.282-12.427 6.111-12.112 3.083.163 5.676 3.9 3.315 6.467-2.675 2.9-7.08-3.032-2.852-4.225.377-.109.616.458.231.568-3.255.917.107 5.479 2.331 3.066zm23.1-9.514a1.626 1.626 0 0 1-.162-2.7.528.528 0 1 1 .593.867c-.114.085-.223-.11-.11-.191.42-.311-.012-.769-.435-.431a1.5 1.5 0 0 0-.47.769 1.448 1.448 0 0 0 .7 1.5c.118.082 0 .272-.113.19zm48.131 10.522a3 3 0 0 0-1.251-2.14c-.027-.051-.055-.105-.086-.16a2.886 2.886 0 0 0-1.268-2.273 6.9 6.9 0 0 0-2.3-1.259 70.026 70.026 0 0 1-8.665-5.254c-.31-.257-.619-.5-.934-.738a2.984 2.984 0 0 0-.506-.311 2.872 2.872 0 0 0-.438-.373 23.643 23.643 0 0 0-13.741-4.38 25.287 25.287 0 0 0-4.037.331 2.839 2.839 0 0 0-.733.224 3.058 3.058 0 0 0-.749.059c-.78.175-1.545.385-2.31.638-1.785-2.27-4.848-3.382-6.633-3.863a6.554 6.554 0 0 0-1.538-.23c-.121 0-.235.008-.282.012a8 8 0 0 0-1.443.249c-1.742.47-4.774 1.578-6.551 3.839a26.294 26.294 0 0 0-2.314-.637 2.96 2.96 0 0 0-.746-.059 3 3 0 0 0-.733-.224 25.3 25.3 0 0 0-4.036-.331 23.636 23.636 0 0 0-13.74 4.38 2.832 2.832 0 0 0-.444.377 3.038 3.038 0 0 0-.506.31c-.309.238-.619.478-.854.68a69.914 69.914 0 0 1-8.743 5.309 7.182 7.182 0 0 0-2.527 1.445 2.933 2.933 0 0 0-1.015 2.037l-.125.232a2.98 2.98 0 0 0-1.245 2.122c-.247 2.445.907 4.92 3.433 7.357a1.973 1.973 0 0 0 .329.27 3.232 3.232 0 0 0 .294.31c.393.34.817.7 1.287 1.06a2.964 2.964 0 0 0-.474 1.78 11.9 11.9 0 0 0 .462 2.5 2.638 2.638 0 0 0 .264.63 2.788 2.788 0 0 0 .152.63 16.166 16.166 0 0 0 3.926 5.98 2.661 2.661 0 0 0 .514.39 2.96 2.96 0 0 0 .467.5 18.9 18.9 0 0 0 4.507 2.74 2.734 2.734 0 0 0 .93.23 3.042 3.042 0 0 0 .862.46 30.75 30.75 0 0 0 9.257 1.43h.028a1.7 1.7 0 0 0 .227-.01c.482-.03 11.728-.95 17.917-8.22.1 0 .181-.01.271-.01a2.793 2.793 0 0 0 .5-.03l.1.01h.019a3.321 3.321 0 0 0 .632.01h.2c6.186 7.29 17.443 8.2 17.918 8.23.074.01.145.01.274.02a31.081 31.081 0 0 0 9.249-1.44 3.145 3.145 0 0 0 .856-.45 3 3 0 0 0 .933-.24 18.816 18.816 0 0 0 4.507-2.74 2.742 2.742 0 0 0 .471-.5 2.353 2.353 0 0 0 .509-.39 16.158 16.158 0 0 0 3.928-5.98 2.631 2.631 0 0 0 .148-.63 2.7 2.7 0 0 0 .267-.63 12.123 12.123 0 0 0 .462-2.5 2.89 2.89 0 0 0-.474-1.77c.471-.37.894-.72 1.286-1.07a2.61 2.61 0 0 0 .3-.31 2.362 2.362 0 0 0 .329-.27c2.518-2.438 3.671-4.914 3.424-7.359zm-37.752-12.209a21.356 21.356 0 0 1 3.7-1.174l-1.22 2.056c-.686-.486-1.976-1.143-1.933-.1a.849.849 0 0 0 .918.917c.506-.1.47-.56.29-.917a6.593 6.593 0 0 1 .564.369l-2.984 5.029a.7.7 0 0 0-.166-.086c-.7-.21-1.121.7-1.188 1.228a3.25 3.25 0 0 1-1.031-1.527.161.161 0 0 0-.31.085 4.2 4.2 0 0 0 1.663 2.037l-.334.567c-.768-.221-2-.066-1.831.917a.742.742 0 0 0 .977.521l-1.043 1.764a3.547 3.547 0 0 1-.335-.361.159.159 0 0 0 .177-.055 1.282 1.282 0 0 0 .063-1.158c-.2-.435-.726-.105-.866.183-.268.541.235 1.208.776 1.7l-1.255 2.114-.71-3.988.349-.575c.054-.008.114 0 .172-.012.886-.179 1.828-1.053 1.283-1.993a.811.811 0 0 0-.146-.183l3.095-5.149c.522.579 1.22 1.088 1.456.28a.835.835 0 0 0-.573-1.158.449.449 0 0 0-.474.194zm1.329.715c.141.167.447.692-.008.684a.6.6 0 0 1-.428-.785c.044-.125.208-.113.412-.039a.129.129 0 0 0 .024.14zm-2.158 5.743l-.686 1.154a1.548 1.548 0 0 1-.279-.128.146.146 0 0 0 .091-.124c.028-.264.5-1.259.874-.9zm-1.376 2.312l-.188.324a.988.988 0 0 0-.165-.355.22.22 0 0 0-.051-.026 2.4 2.4 0 0 1 .4.057zm-.632.133c.621.843-.9 1.006-.714.187a.705.705 0 0 1 .757-.385.133.133 0 0 0-.043.2zm-1.529 2.207a.091.091 0 0 0-.012.055c-.035-.051-.075-.1-.106-.152a.934.934 0 0 1-.145-.439c-.008-.1.2-.49.325-.3a.929.929 0 0 1-.062.832zm-.416-3.078h-.043l.243-.4a1.229 1.229 0 0 1-.173 1.158 1.316 1.316 0 0 1-.772.412l.513-.851a1.871 1.871 0 0 0 .318-.011c.2-.035.118-.343-.086-.308zm4.15-5.724c-.078-.2-.2-.8.227-.641a.6.6 0 0 1 .154.879c-.087.1-.236.039-.409-.094a.133.133 0 0 0 .028-.144zm-.38-.2c-.052-.059-.1-.12-.15-.179l.212-.353a.989.989 0 0 0-.062.532zm-13.031-.52l.212.349c-.051.063-.1.12-.149.179a.941.941 0 0 0-.063-.528zm-.949-1.582l.918 1.531a.439.439 0 0 0-.475-.194.839.839 0 0 0-.573 1.158c.239.808.938.3 1.455-.285l3.095 5.154a.858.858 0 0 0-.144.183c-.546.936.395 1.81 1.282 1.993.059.011.117 0 .177.011l.345.575-.71 3.987-1.255-2.114c.541-.489 1.043-1.158.776-1.7-.141-.291-.671-.617-.866-.182a1.273 1.273 0 0 0 .062 1.154.154.154 0 0 0 .177.055 4.315 4.315 0 0 1-.33.361l-1.047-1.761a.747.747 0 0 0 .977-.524c.165-.983-1.063-1.139-1.833-.913l-.333-.567a4.209 4.209 0 0 0 1.664-2.037.161.161 0 0 0-.31-.085 3.269 3.269 0 0 1-1.036 1.527c-.067-.528-.491-1.442-1.185-1.228a.483.483 0 0 0-.164.086l-2.986-5.029a5.566 5.566 0 0 1 .566-.369c-.181.357-.22.812.286.913a.842.842 0 0 0 .918-.913c.047-1.05-1.243-.389-1.934.093l-1.216-2.052a21.825 21.825 0 0 1 3.7 1.17zm.659 2.452c-.173.135-.322.2-.408.1a.6.6 0 0 1 .157-.882c.427-.152.306.443.224.645a.125.125 0 0 0 .027.14zm4.036 5.888a1.8 1.8 0 0 0 .318.01l.514.852a1.287 1.287 0 0 1-.769-.412 1.221 1.221 0 0 1-.173-1.158l.24.4h-.043c-.2-.035-.291.272-.087.308zm-.388 1.938c.121-.194.329.2.325.3a.962.962 0 0 1-.149.435c-.032.05-.071.1-.106.151a.083.083 0 0 0-.011-.05.923.923 0 0 1-.059-.836zm-1.515-1.569a.708.708 0 0 1 .758.381c.188.819-1.338.656-.714-.187a.125.125 0 0 0-.044-.194zm-.183 0a.144.144 0 0 0-.052.03.98.98 0 0 0-.164.35l-.189-.319a2.882 2.882 0 0 1 .4-.061zm-1.1-1.1l-.687-1.158c.377-.353.848.642.875.9a.152.152 0 0 0 .094.124 1.49 1.49 0 0 1-.282.132zm-2.82-7.041c.2-.07.368-.086.415.039a.6.6 0 0 1-.431.785c-.455.008-.149-.517 0-.681a.13.13 0 0 0 .019-.143zm-30.929 16.861c-2.082-2.008-2.667-3.653-2.537-4.931a1.85 1.85 0 0 0 .243.746c.753 1.267 2.016.222 2.667-.567.287-.35-.215-.852-.5-.5-2.276 2.763-1.981-1.9-.4-1.445 2.973.851 1.636 4.8.533 6.7zm6.9 8.894a20.552 20.552 0 0 1-.655 4.28 13.32 13.32 0 0 1-3.208-4.9 10.094 10.094 0 0 1 1.471-1.57c1.862-1.5 2.455.89 2.392 2.19zm32.839 2.9l33.477 1.36a20.231 20.231 0 0 1-.655-4.27c-.062-1.29.529-3.68 2.4-2.19a10.437 10.437 0 0 1 1.467 1.58 13.129 13.129 0 0 1-3.209 4.88zm3.907-7.78a9.37 9.37 0 0 1-.357 1.87c-1.557-1.64-3.633-3.42-4.919-.55-.588 1.31-.259 3.02-.055 4.37a21.038 21.038 0 0 0 .616 2.83 15.671 15.671 0 0 1-3.789 2.3c2.146-2.44 3.346-5.77.584-8.08a3.263 3.263 0 0 0-.451-.31 2.987 2.987 0 0 0-.726-.42 1.308 1.308 0 0 0-.537-.1 2.858 2.858 0 0 0-2.459.35c-1.239.94-.377 3.07.545 3.88 1.648 1.46 3.758-.01 4.044-1.67a4.5 4.5 0 0 1 .326 2.21 7.319 7.319 0 0 1-2.872 4.73 27.159 27.159 0 0 1 25.153 2.65s-11.06-.82-16.34-7.79a2.484 2.484 0 0 0-1.891-.47v.02c-.051-.01-.1 0-.149-.01-.051.01-.1 0-.149.01v-.02a3.868 3.868 0 0 0-.482 0v.01a3.885 3.885 0 0 0-.483 0v.02a.747.747 0 0 0-.149-.01.767.767 0 0 0-.149.01v-.02a2.48 2.48 0 0 0-1.89.47c-5.28 6.97-16.341 7.79-16.341 7.79a27.821 27.821 0 0 1-8.332-1.27 7.388 7.388 0 0 1-2.871-4.74 4.509 4.509 0 0 1 .326-2.21c.286 1.66 2.4 3.13 4.043 1.67.922-.81 1.786-2.94.546-3.88a2.887 2.887 0 0 0-2.455-.36 1.512 1.512 0 0 0-.538.11 3.45 3.45 0 0 0-.73.41 3.535 3.535 0 0 0-.447.33c-2.765 2.3-1.564 5.63.581 8.07a15.651 15.651 0 0 1-3.789-2.3 21.152 21.152 0 0 0 .616-2.84c.2-1.34.533-3.05-.055-4.36-1.287-2.87-3.361-1.08-4.919.55a9.462 9.462 0 0 1-.357-1.87c1.872-2.8-.628-3.91-.628-3.91-.435-.34-.819-.661-1.18-.98a.053.053 0 0 1 .015-.015c1.072-1.773 1.942-4.221 1.1-6.238a2.76 2.76 0 0 0-2.813-1.624 4.282 4.282 0 0 1 1.385-.828c2-.567 9.689-5.771 9.689-5.771.305-.252.608-.489.91-.718 3.444.279 5.8 4.453 9.1 5.292 2.448.622 5.621-1.041 5.767-3.777a4.666 4.666 0 0 0-3.809-4.558c-2.53-.424-3.569 1.5-3.468 3.761a.414.414 0 0 0 .828 0c-.121-2.716 2.04-3.99 4.217-2.106a3.34 3.34 0 0 1-1.373 5.926c-4.072.96-6.664-4.076-10.418-5.148a20.83 20.83 0 0 1 15.572-3.553l10.888 18.354 1.244-6.991-6.154-10.251c.611-2.506 4.295-3.731 5.644-4.1a4.305 4.305 0 0 1 .879-.139v-.008a4.128 4.128 0 0 1 .878.135c1.349.366 5.032 1.59 5.645 4.1l-6.155 10.246 1.243 6.992 10.889-18.351a20.812 20.812 0 0 1 15.572 3.549c-3.75 1.076-6.347 6.108-10.417 5.149a3.338 3.338 0 0 1-1.373-5.923c2.177-1.884 4.338-.61 4.216 2.107-.024.528.8.524.828 0 .1-2.266-.938-4.185-3.468-3.766a4.678 4.678 0 0 0-3.808 4.562c.144 2.736 3.318 4.4 5.765 3.773 3.3-.838 5.657-5.013 9.1-5.292.3.233.6.47.91.723 0 0 7.691 5.2 9.688 5.767a4.243 4.243 0 0 1 1.384.831 2.749 2.749 0 0 0-2.812 1.624c-.843 2.014.028 4.466 1.1 6.234a.06.06 0 0 0 .016.016 25.52 25.52 0 0 1-1.185.981m-10.288 9.74c-.055.01-.105.03-.165.04-1.451.24-2.95-2.15-1.651-3.13a1.226 1.226 0 0 1 .588-.23 2.442 2.442 0 0 0-.521 1.01c-.306 1.26.686 1.99 1.749 2.31zm.224-3.07c.184.07.36.15.506.22h.011c.047.04.09.06.142.1a1.37 1.37 0 0 1 .144 2.19.036.036 0 0 1-.027-.01c-2.652-.24-2.043-2.69-.776-2.5zm-53.929.76a2.419 2.419 0 0 0-.522-1 1.3 1.3 0 0 1 .588.22c1.3.99-.2 3.38-1.648 3.14a.983.983 0 0 1-.168-.05c1.063-.31 2.055-1.05 1.75-2.31zm-2.75 1.75c-.012 0-.016.01-.028.01a1.371 1.371 0 0 1 .149-2.19 1.05 1.05 0 0 1 .142-.09.018.018 0 0 1 .008-.01c.144-.07.317-.14.506-.22 1.267-.19 1.874 2.26-.777 2.5zm68.457-10.652c-1.1-1.9-2.44-5.844.534-6.7 1.581-.455 1.875 4.212-.4 1.446-.29-.354-.792.151-.506.5.652.789 1.914 1.83 2.667.563a1.88 1.88 0 0 0 .244-.742c.128 1.275-.456 2.923-2.539 4.931zm-37.282-17.6a.528.528 0 1 1 .592-.867 1.624 1.624 0 0 1-.164 2.7c-.114.086-.228-.109-.11-.187a1.459 1.459 0 0 0 .7-1.5 1.5 1.5 0 0 0-.471-.769c-.424-.342-.854.12-.435.431.114.081 0 .272-.11.191zm-1.22.925a.889.889 0 0 1 1.259-.094c.3.378-.157.727-.494.808a.109.109 0 0 1-.058-.21c.168-.042.619-.259.356-.5a.658.658 0 0 0-.73.008.613.613 0 0 0-.183.866 1.985 1.985 0 0 0 1.321 1.093c.142.019.082.229-.058.21-.718-.1-2.17-1.431-1.413-2.184zm4.707 4.29a.856.856 0 0 0 1.295-.156c.228-.454-.157-.707-.554-.784a5.3 5.3 0 0 1 .973-.3c.2-.024.208-.346 0-.322-.514.057-2.781.808-1.714 1.558zm.961-.229a.6.6 0 0 1-.886-.144c-.071-.113.039-.233.224-.351a.125.125 0 0 0 .125.071c.22-.008.827.074.537.424zm-12.049 12.069s-3.373-6.789-10.222-6.789-14.571 6.789-14.571 6.789 4.027 5.382 10.876 5.382 13.917-5.382 13.917-5.382zm-10.222-3.816a8.246 8.246 0 0 1 6.02 3.02c-2.389 1.407-6.157 3.218-9.715 3.218a10.662 10.662 0 0 1-6.3-2.169c2.562-1.78 6.531-4.069 10-4.069zm20.53 3.8s7.072 5.393 13.916 5.393 10.877-5.393 10.877-5.393-7.727-6.786-14.572-6.786-10.221 6.786-10.221 6.786zm13.916 2.423c-3.545 0-7.327-1.817-9.724-3.228a8.21 8.21 0 0 1 6.029-3.011c3.467 0 7.445 2.3 10.01 4.076a10.619 10.619 0 0 1-6.315 2.163zm3.256 10.84c-1.832 2.74-6.107 3.11-8.774 1.49-3.315-2.01-5.5-5.76-9.873-5.18-.636.08-.628-.91 0-.99 3.926-.52 6.1 2.08 8.9 4.29 2.078 1.64 5.012 2.71 7.487 1.1 1.605-1.05 3.2-3.41.726-4.74-.831-.45-3.922-1.16-3.067 1.04a2.447 2.447 0 0 0 1.428 1.47.494.494 0 0 1-.5.85c-1.087-.59-2.276-1.72-1.953-3.11a2.193 2.193 0 0 1 2.055-1.84c3.141.02 5.42 2.87 3.573 5.62zm12.782-12.704c-.3.26-.673-.226-.379-.486a4.725 4.725 0 0 0 1.341-5.522 1.068 1.068 0 0 1-.248-.342c-1.219-1.271-2.619-.649-3.5.633a.309.309 0 0 1-.494-.369c.969-1.411 2.451-2 3.793-1.2a8.337 8.337 0 0 0-3.5-3.5c-1.769-.894-3.93-1.1-5.5.319-1.109 1-1.811 2.961-.642 4.232 2.224 2.413 5.585-2.149 2.329-3.066-.384-.113-.148-.677.232-.571 4.229 1.192-.176 7.127-2.851 4.224-2.362-2.561.235-6.3 3.314-6.467 5.832-.311 10.959 7.831 6.11 12.117zm-38.791 9.039c-4.374-.58-6.559 3.17-9.873 5.18-2.668 1.62-6.943 1.25-8.775-1.49s.436-5.61 3.578-5.62a2.194 2.194 0 0 1 2.051 1.84c.321 1.39-.863 2.51-1.95 3.11a.5.5 0 0 1-.505-.85 2.452 2.452 0 0 0 1.431-1.47c.851-2.2-2.239-1.49-3.071-1.04-2.475 1.33-.874 3.69.729 4.73 2.475 1.62 5.4.55 7.484-1.09 2.8-2.21 4.978-4.81 8.9-4.29.627.08.634 1.07 0 .99zm0 0"/></svg>