<?xml version="1.0" encoding="utf-8"?>
<!-- Generator: Adobe Illustrator 17.0.0, SVG Export Plug-In . SVG Version: 6.00 Build 0)  -->
<!DOCTYPE svg PUBLIC "-//W3C//DTD SVG 1.1//EN" "http://www.w3.org/Graphics/SVG/1.1/DTD/svg11.dtd" [
	<!ENTITY ns_extend "http://ns.adobe.com/Extensibility/1.0/">
	<!ENTITY ns_ai "http://ns.adobe.com/AdobeIllustrator/10.0/">
	<!ENTITY ns_graphs "http://ns.adobe.com/Graphs/1.0/">
	<!ENTITY ns_vars "http://ns.adobe.com/Variables/1.0/">
	<!ENTITY ns_imrep "http://ns.adobe.com/ImageReplacement/1.0/">
	<!ENTITY ns_sfw "http://ns.adobe.com/SaveForWeb/1.0/">
	<!ENTITY ns_custom "http://ns.adobe.com/GenericCustomNamespace/1.0/">
	<!ENTITY ns_adobe_xpath "http://ns.adobe.com/XPath/1.0/">
]>
<svg version="1.1" id="Dom_Elite_Tattoo" xmlns:x="&ns_extend;" xmlns:i="&ns_ai;" xmlns:graph="&ns_graphs;"
	 xmlns="http://www.w3.org/2000/svg" xmlns:xlink="http://www.w3.org/1999/xlink" x="0px" y="0px" width="179px" height="131.094px"
	 viewBox="0 0 179 131.094" style="enable-background:new 0 0 179 131.094;" xml:space="preserve">
<metadata>
	<x:xmpmeta  xmlns:x="adobe:ns:meta/" x:xmptk="Adobe XMP Core 5.6-c138 79.159824, 2016/09/14-01:09:01        ">
		<rdf:RDF  xmlns:rdf="http://www.w3.org/1999/02/22-rdf-syntax-ns#">
			<rdf:Description  rdf:about=""></rdf:Description>
		</rdf:RDF>
	</x:xmpmeta>
	<sfw  xmlns="&ns_sfw;">
		<slices></slices>
		<sliceSourceBounds  height="131.096" width="179" x="2632" y="1464.951" bottomLeftOrigin="true"></sliceSourceBounds>
	</sfw>
</metadata>
<rect id="bg" style="fill:none;" width="179" height="131.094"/>
<path id="text" style="fill:#FFFFFF;" d="M10.385,130.882c0.509,0.058,1.021,0.086,1.533,0.084c4.136,0,5.522-2,6.4-3.276
	c0.948-1.765,1.412-3.75,1.343-5.753c0-0.252,0-0.5-0.021-0.735c0.39-0.171,0.699-0.487,0.861-0.881
	c-0.262-0.42-0.596-0.789-0.987-1.092c-0.231-2.457-1.574-5.438-6.383-6.215c-0.839-0.105-1.679,0.1-2.54,0
	c-0.609,0.084-0.357,0.945-0.21,0.861c0.366,0.025,0.734-0.003,1.092-0.084c0.083,0.64,0.125,1.285,0.126,1.931
	c0,1.134-0.1,2.289-0.084,3.633c-0.546,0.63-0.525,0.5-1.071,1.071c-0.693,0.545,0.672,1.007,1.029,1.28
	c0.048,2.782-0.057,5.565-0.315,8.336c-0.28-0.098-0.59-0.061-0.84,0.1C10.184,130.379,10.211,130.673,10.385,130.882z
	 M13.303,113.875c2.835,0.5,4.41,3.863,4.347,5.711c-0.438,0.095-0.777,0.442-0.861,0.882c0.257,0.334,0.553,0.636,0.882,0.9
	c0.021,0.252,0.021,0.588,0.021,0.987c0,1.6-0.189,4.073-1.176,5.438c-0.756,1.05-2.583,2.31-3.318,1.953
	c0-2.52,0-5.375,0.105-8.126c0.472-0.225,0.829-0.635,0.987-1.133c-0.441-0.283-0.802-0.673-1.05-1.134
	c-0.042-0.672-0.063-1.26-0.063-1.827c0-1.132,0.063-2.203,0.123-3.651H13.303z M31.278,119.375c0.147-2.541-1.679-6.7-4.514-6.635
	c-3.485,0.084-3.863,4.388-4.556,6.7c-0.168,0.252-0.882,0.735-1.05,0.945c-0.147,0.189,0.861,0.965,1.05,1.091
	c-0.042,3.4,1.281,9.743,4.892,9.617c2.94-0.105,3.9-6.656,4.241-9.449c0.358-0.306,0.688-0.643,0.987-1.007
	c-0.275-0.478-0.63-0.904-1.05-1.261V119.375z M27,130.336c-2.414-0.21-2.288-6.215-2.645-8.882
	c0.042-0.126,1.112-0.651,0.965-1.049c-0.188-0.231-0.713-0.651-1.049-0.987c0.189-1.407,0.861-5.732,2.54-5.858
	c2.961-0.21,3.863,4.955,3.884,5.753c-0.451,0.351-0.86,0.754-1.217,1.2c0.249,0.46,0.61,0.85,1.05,1.133
	C30.187,124.352,29.578,130.546,27,130.336z M41.741,113.749c-0.609,1.742-1.343,5.69-2.372,7.474
	c-1.386-2.519-1.659-5.081-2.646-7.474c0.308,0.014,0.617,0.007,0.924-0.021c0.378-0.273,0.336-0.441,0.273-0.546
	c-0.554-0.146-1.127-0.21-1.7-0.189c-1.469,0-3.233,0.189-3.338,0.126c-0.084,0.252-0.189,0.315,0.147,0.588
	c0.321,0.091,0.654,0.127,0.987,0.105c0.084,1.092,0.126,1.826,0.126,2.645c0,0.714-0.042,1.512-0.126,2.688
	c-0.285,0.459-0.623,0.881-1.008,1.26c0.082,0.552,0.461,1.014,0.987,1.2c0.063,1.008,0.084,2.268,0.084,3.549
	c0,1.742-0.042,3.569-0.063,5c-0.35-0.047-0.706,0.004-1.029,0.147c-0.315,0.42-0.105,0.294-0.084,0.525
	c0.555,0.093,1.117,0.142,1.68,0.147c0.407-0.001,0.814-0.029,1.217-0.084c0.154-0.13,0.19-0.353,0.084-0.525
	c-0.359-0.105-0.723-0.189-1.091-0.252c-0.042-0.882-0.063-1.89-0.063-2.961c0-1.994,0.063-4.115,0.084-5.522
	c0.491-0.209,0.882-0.6,1.091-1.091c-0.192-0.522-0.535-0.975-0.986-1.3c0.042-1.323,0.042-3.339,0.042-4.388
	c0.776,2.771,3.275,8.545,3.506,10.33c0.284,0.131,0.61,0.139,0.9,0.021c0.689-3.106,1.601-6.159,2.729-9.134
	c-0.084,0.861-0.1,1.974-0.1,3.213c0,2.561,0.1,5.669,0.1,8.1c0,1.113-0.021,2.079-0.084,2.814c-0.5,0.021-0.861,0.105-1.05,0.105
	c-0.145,0.142-0.148,0.374-0.006,0.519c0.002,0.002,0.004,0.004,0.006,0.006c0.294,0.021,1.911,0.126,3.129,0.126
	c0.8,0,1.449-0.042,1.407-0.21c0.003-0.16-0.034-0.319-0.105-0.462c-0.418-0.11-0.853-0.139-1.281-0.084
	c-0.063-1.008-0.063-2.331-0.063-3.717v-4.955c0.497-0.284,0.921-0.679,1.239-1.154c-0.292-0.46-0.661-0.866-1.092-1.2
	c0-0.735-0.084-1.764-0.084-3.276c0-0.65,0.021-1.427,0.063-2.267c0.282,0.087,0.584,0.08,0.861-0.021
	c0.189-0.021,0.105-0.336,0.105-0.525c-0.458-0.071-0.922-0.105-1.386-0.1c-1.176,0-2.541,0.126-3.233,0.147
	c-0.152,0.161-0.145,0.414,0.016,0.565c0.008,0.008,0.017,0.015,0.026,0.023c0.385,0.082,0.782,0.094,1.172,0.035H41.741z
	 M54.258,121.37c-0.042,1.323-0.021,7.79-0.147,8.567c-0.042,0.273-1.112-0.126-1.448,0.273c-0.147,0.021-0.042,0.567,0.105,0.609
	c0.546,0,1.133-0.021,1.742-0.021c2.73,0,6.026,0.084,7.937,0.147c0.462,0.021,0.609-0.042,0.672-0.483
	c-0.273-0.567-0.126-1.869-0.462-2.478c-0.203-0.17-0.493-0.187-0.714-0.042c0.021,0.252,0.021,0.462,0.021,0.63
	c-0.016,0.481-0.081,0.96-0.194,1.428c-0.377,0.042-0.755,0.063-1.134,0.063c-1.218,0-2.435-0.168-3.611-0.168
	c-0.21,0-0.441,0-0.651,0.021c-0.063-1.134-0.084-2.268-0.084-3.4c0-1.721,0.063-3.443,0.105-5.144
	c0.144-0.425,0.455-0.774,0.861-0.965c0.882-0.021,1.134-0.1,1.554-0.1c0.275,0.005,0.548,0.033,0.818,0.084
	c-0.105,0.388-0.083,0.8,0.063,1.175c0.5,0.1,0.714,0.21,0.945-0.189c-0.021-0.21-0.021-0.42-0.021-0.63
	c0-0.566,0.042-1.091,0.042-1.616c0-0.273-0.021-0.567-0.042-0.84c-0.275-0.22-0.677-0.176-0.897,0.099
	c-0.018,0.022-0.034,0.045-0.048,0.069c0.042,0.294,0,0.525,0.021,1.008c-0.86-0.126-1.805,0.126-2.582,0.021
	c-0.306-0.204-0.558-0.478-0.735-0.8c0-1.029-0.042-1.89-0.042-3.045c0-0.587,0-1.238,0.042-2.015
	c0.525-0.021,1.05-0.042,1.554-0.042c1.259,0,2.435,0.063,3.737,0.063c-0.084,0.336-0.021,1.344-0.084,1.7
	c0.217,0.227,0.57,0.255,0.819,0.063c0.098-0.576,0.147-1.158,0.147-1.742c-0.021-0.42,0.189-0.651-0.231-0.861
	c-0.557,0.126-1.13,0.168-1.7,0.126c-1.071,0-2.288-0.021-3.443-0.021c-1.008,0-1.953,0.021-2.667,0.084
	c-0.588,0.042-1.931,0-1.847,0.42c0.028,0.231,0.237,0.396,0.468,0.368c0.019-0.002,0.038-0.006,0.057-0.011
	c0.355-0.074,0.722-0.059,1.07,0.042c0.021,1.092,0.063,2.1,0.063,3c0.016,0.702-0.027,1.405-0.126,2.1
	c-0.105,0.546-1.511,0.882-1.175,1.365c0.335,0.312,0.859,0.71,1.237,1.088H54.258z M65.178,113.77
	c0.07,0.459,0.105,0.922,0.105,1.386c0,0.524-0.042,1.049-0.042,1.994c0,0.5,0,1.134,0.042,1.953
	c-0.546,0.225-1.008,0.614-1.323,1.113c-0.063,0.252,1.218,0.881,1.218,1.175c0,2.058-0.084,5.081-0.084,7.559v1.176
	c-0.393-0.048-0.791,0.033-1.134,0.231c-0.146,0.207-0.097,0.493,0.109,0.64c0.005,0.004,0.011,0.008,0.017,0.011
	c0.4-0.021,0.924-0.021,1.512-0.021c1.2,0,2.667,0.021,4.01,0.021c1.827,0,3.4-0.063,3.612-0.315
	c0.079-0.244,0.108-0.501,0.084-0.756c0-0.9-0.126-2.331-0.084-2.667c0.042-0.294-0.882-0.252-0.861,0.1
	c0,0.231-0.021,0.42-0.021,0.609c0.028,0.696-0.021,1.394-0.147,2.079c-0.349-0.035-0.699-0.049-1.05-0.042
	c-0.882,0-1.785,0.084-2.6,0.084c-0.509,0.011-1.018-0.045-1.512-0.168c0-1.176-0.021-2.751-0.021-4.325s0.021-3.15,0.063-4.305
	c0.435-0.306,0.83-0.665,1.176-1.07c-0.25-0.502-0.63-0.927-1.1-1.232c-0.021-0.294-0.021-0.588-0.021-0.924
	c0-1.323,0.126-2.939,0.105-4.3c0.252,0,0.567-0.042,0.9-0.063c0.159-0.168,0.215-0.409,0.147-0.63
	c-0.679-0.12-1.368-0.176-2.058-0.168c-0.669-0.005-1.337,0.037-2,0.126c-0.193,0.124-0.249,0.38-0.126,0.573
	c0.008,0.012,0.016,0.024,0.026,0.036c0.336,0.124,0.697,0.165,1.053,0.12L65.178,113.77z M78.578,113.077
	c-0.48-0.121-0.975-0.17-1.47-0.147c-0.945,0-2.037,0.084-2.646,0.1c-0.567,0.042-0.315,0.441-0.105,0.714
	c0.372,0.006,0.744,0.034,1.113,0.084c-0.042,0.651-0.042,1.218-0.042,1.805c0,0.882,0.021,1.806,0.021,3.087
	c-0.474,0.347-0.892,0.765-1.239,1.239c-0.063,0.357,0.966,0.525,1.26,1.133c-0.021,0.882-0.021,1.785-0.021,2.709v2.939
	c0,1.176,0,2.289-0.021,3.276c-0.335-0.058-0.679-0.044-1.008,0.042c-0.189,0.147-0.168,0.8,0.126,0.819
	c0.777,0.042,1.428,0.063,2.016,0.063c0.596,0.002,1.192-0.026,1.785-0.084c0.19-0.243,0.207-0.579,0.042-0.84
	c-0.315-0.12-0.657-0.15-0.987-0.084v-2.625c0-2.2,0-4.556,0.021-6.278c0.414-0.366,0.781-0.782,1.092-1.238
	c-0.261-0.421-0.603-0.785-1.008-1.071c0-0.651,0.042-3.905,0.126-5c0.344,0.037,0.692,0.016,1.029-0.063
	c0.098-0.193,0.062-0.427-0.091-0.58H78.578z M89.706,113.266c0.189-0.189-1.826-0.378-2.729-0.315
	c-0.735,0.063-1.806,0.084-2.9,0.084c-1.385,0-2.813-0.021-3.674-0.042c-0.316-0.056-0.641,0.02-0.9,0.21
	c0,0.084,0.042,2.372,0.042,2.876c0.168,0.188,0.456,0.205,0.644,0.037c0.026-0.023,0.05-0.05,0.07-0.079
	c0.021-0.147,0.042-0.609,0.042-1.112s-0.021-1.029-0.021-1.3c0.391,0.043,0.783,0.064,1.176,0.063c0.315,0,0.63-0.021,0.945-0.021
	c0.372-0.002,0.743,0.019,1.112,0.063c0.071,0.451,0.092,0.909,0.063,1.365c0,1.175-0.021,2.855-0.021,3.863v0.63
	c-0.505,0.194-0.932,0.548-1.217,1.008c0.147,0.5,0.8,0.671,1.238,1.112c0.083,0.422,0.111,0.852,0.084,1.281
	c0,2-0.189,5.711-0.273,7.118c-0.443-0.034-0.89,0.001-1.322,0.105c-0.166,0.226-0.118,0.543,0.108,0.709
	c0.013,0.009,0.026,0.018,0.039,0.026c0.231-0.021,0.483-0.042,0.776-0.042c0.672,0,1.491,0.063,2.184,0.063
	c0.508,0.042,1.019-0.037,1.491-0.231c0.068-0.186,0.052-0.393-0.042-0.567c-0.39-0.109-0.798-0.138-1.2-0.084
	c0-0.882,0.042-3.8,0.042-5.963c0.044-0.827,0.016-1.656-0.084-2.478c0.457-0.27,0.856-0.626,1.176-1.049
	c-0.291-0.428-0.68-0.781-1.134-1.029c0.032-0.342,0.046-0.686,0.042-1.029c0-0.735-0.021-1.722-0.021-2.625
	c-0.097-0.738-0.032-1.489,0.189-2.2c0.357-0.021,0.819-0.021,1.281-0.021c0.722-0.017,1.445,0.016,2.162,0.1
	c-0.069,0.683-0.09,1.371-0.063,2.057c0.162,0.104,0.36,0.135,0.546,0.084c0.176-0.38,0.242-0.802,0.189-1.217
	c-0.005-0.694-0.068-1.408-0.046-1.45L89.706,113.266z M92.06,121.366c-0.042,1.323-0.021,7.79-0.147,8.567
	c-0.042,0.273-1.113-0.126-1.449,0.273c-0.147,0.021-0.042,0.567,0.105,0.609c0.546,0,1.134-0.021,1.743-0.021
	c2.729,0,6.026,0.084,7.936,0.147c0.462,0.021,0.609-0.042,0.672-0.483c-0.273-0.567-0.126-1.869-0.462-2.478
	c-0.203-0.17-0.493-0.187-0.714-0.042c0.021,0.252,0.021,0.462,0.021,0.63c-0.014,0.481-0.077,0.96-0.189,1.428
	c-0.376,0.042-0.754,0.063-1.133,0.063c-1.218,0-2.436-0.168-3.612-0.168c-0.21,0-0.441,0-0.651,0.021
	c-0.063-1.134-0.084-2.268-0.084-3.4c0-1.721,0.063-3.443,0.1-5.144c0.144-0.425,0.455-0.774,0.861-0.965
	c0.882-0.021,1.134-0.1,1.554-0.1c0.275,0.005,0.549,0.033,0.819,0.084c-0.105,0.388-0.083,0.8,0.063,1.175
	c0.5,0.1,0.714,0.21,0.945-0.189c-0.021-0.21-0.021-0.42-0.021-0.63c0-0.566,0.042-1.091,0.042-1.616
	c0-0.273-0.021-0.567-0.042-0.84c-0.275-0.22-0.677-0.176-0.897,0.099c-0.018,0.022-0.034,0.045-0.048,0.069
	c0.042,0.294,0,0.525,0.021,1.008c-0.861-0.126-1.806,0.126-2.583,0.021c-0.306-0.204-0.558-0.478-0.735-0.8
	c0-1.029-0.042-1.89-0.042-3.045c0-0.587,0-1.238,0.042-2.015c0.525-0.021,1.05-0.042,1.554-0.042c1.26,0,2.436,0.063,3.737,0.063
	c-0.084,0.336-0.021,1.344-0.084,1.7c0.217,0.227,0.57,0.255,0.819,0.063c0.098-0.576,0.147-1.158,0.147-1.742
	c-0.021-0.42,0.189-0.651-0.231-0.861c-0.557,0.126-1.13,0.169-1.7,0.126c-1.071,0-2.289-0.021-3.444-0.021
	c-1.008,0-1.952,0.021-2.666,0.084c-0.588,0.042-1.932,0-1.848,0.42c0.028,0.231,0.237,0.396,0.468,0.368
	c0.019-0.002,0.038-0.006,0.057-0.011c0.355-0.074,0.723-0.059,1.071,0.042c0.021,1.092,0.063,2.1,0.063,3
	c0.016,0.702-0.027,1.405-0.126,2.1c-0.105,0.546-1.512,0.882-1.176,1.365c0.334,0.316,0.859,0.714,1.237,1.092L92.06,121.366z
	 M118.266,113.266c0.189-0.189-1.827-0.378-2.73-0.315c-0.734,0.063-1.8,0.084-2.9,0.084c-1.386,0-2.814-0.021-3.674-0.042
	c-0.316-0.056-0.641,0.02-0.9,0.21c0,0.084,0.042,2.372,0.042,2.876c0.168,0.188,0.456,0.205,0.644,0.037
	c0.026-0.023,0.05-0.05,0.07-0.079c0.021-0.147,0.042-0.609,0.042-1.112s-0.021-1.029-0.021-1.3c0.39,0.043,0.782,0.064,1.175,0.063
	c0.315,0,0.63-0.021,0.945-0.021c0.372-0.002,0.744,0.019,1.113,0.063c0.071,0.451,0.092,0.909,0.063,1.365
	c0,1.175-0.021,2.855-0.021,3.863v0.63c-0.505,0.194-0.933,0.548-1.218,1.008c0.147,0.5,0.8,0.671,1.239,1.112
	c0.083,0.422,0.111,0.852,0.084,1.281c0,2-0.189,5.711-0.273,7.118c-0.444-0.034-0.89,0.001-1.323,0.105
	c-0.166,0.226-0.118,0.543,0.108,0.709c0.013,0.009,0.026,0.018,0.039,0.026c0.231-0.021,0.483-0.042,0.777-0.042
	c0.672,0,1.491,0.063,2.184,0.063c0.508,0.042,1.019-0.037,1.49-0.231c0.068-0.186,0.052-0.393-0.042-0.567
	c-0.39-0.109-0.798-0.138-1.2-0.084c0-0.882,0.042-3.8,0.042-5.963c0.044-0.827,0.016-1.656-0.084-2.478
	c0.457-0.27,0.856-0.626,1.176-1.049c-0.291-0.428-0.68-0.781-1.134-1.029c0.032-0.342,0.046-0.686,0.042-1.029
	c0-0.735-0.021-1.722-0.021-2.625c-0.097-0.738-0.032-1.489,0.189-2.2c0.357-0.021,0.819-0.021,1.28-0.021
	c0.722-0.017,1.445,0.016,2.163,0.1c-0.069,0.683-0.09,1.371-0.063,2.057c0.162,0.104,0.36,0.135,0.546,0.084
	c0.176-0.38,0.242-0.802,0.189-1.217c-0.004-0.694-0.066-1.408-0.045-1.45L118.266,113.266z M124.587,119.124
	c-0.321-1.812-0.735-3.606-1.239-5.375c0.231-0.126,0.819,0.126,1.113-0.315c0.036-0.278-0.159-0.533-0.438-0.57
	c-0.05-0.007-0.101-0.006-0.15,0.003c-0.398,0.135-0.82,0.185-1.238,0.147c-0.882,0-1.953-0.084-2.184-0.063
	c-0.462,0.462-0.189,0.588-0.084,0.735c0.306,0.046,0.615,0.067,0.924,0.063c-0.559,1.856-1.015,3.742-1.365,5.648
	c-0.882,0.714-1.638,0.693-1.68,1.155c0.414,0.379,0.787,0.801,1.113,1.259c-0.756,2.94-1.239,5.669-2.1,8.189
	c-0.229,0.042-0.464,0.042-0.693,0c-0.378,0.231-0.273,0.462-0.168,0.777c0.483,0.021,0.84,0.042,1.176,0.042h0.626
	c0.357,0,0.735,0,1.26,0.042c0.2-0.19,0.308-0.459,0.294-0.735c-0.448-0.173-0.931-0.231-1.407-0.168
	c0.441-2.5,1.2-5.963,1.764-8.042c0.241-0.29,0.459-0.599,0.651-0.924c0.366-0.117,0.749-0.174,1.134-0.168
	c0.211-0.008,0.422,0.006,0.63,0.042c0.218,0.217,0.422,0.449,0.609,0.693c0.23,2.184,0.713,5.669,0.986,8.462
	c-0.344-0.062-0.697,0.014-0.986,0.21c-0.137,0.188-0.137,0.442,0,0.63c0.285-0.037,0.573-0.051,0.86-0.042
	c0.693,0,1.491,0.063,2.205,0.063c0.388,0.013,0.776-0.023,1.155-0.105c0.4,0.042,0.4-0.525,0.063-0.861
	c-0.291-0.059-0.589-0.066-0.882-0.021c-0.462-2.478-1.176-6.047-1.512-8.609c0.336-0.567,1.176-0.671,0.8-1.259
	c-0.435-0.272-0.851-0.573-1.244-0.903H124.587z M122.74,120.132c-0.559-0.07-1.125-0.056-1.68,0.042
	c-0.229-0.048-0.414-0.217-0.483-0.441c0.42-1.785,0.63-2.583,1.386-5.018c0.308,2.057,0.014,0.105,0.77,5.417L122.74,120.132z
	 M136.746,113.266c0.189-0.189-1.827-0.378-2.73-0.315c-0.735,0.063-1.805,0.084-2.9,0.084c-1.386,0-2.814-0.021-3.675-0.042
	c-0.316-0.057-0.642,0.019-0.9,0.21c0,0.084,0.042,2.372,0.042,2.876c0.167,0.188,0.455,0.205,0.642,0.037
	c0.027-0.024,0.05-0.05,0.071-0.079c0.021-0.147,0.042-0.609,0.042-1.112s-0.021-1.029-0.021-1.3
	c0.391,0.043,0.783,0.064,1.176,0.063c0.315,0,0.63-0.021,0.945-0.021c0.372-0.002,0.744,0.019,1.113,0.063
	c0.071,0.451,0.092,0.909,0.063,1.365c0,1.175-0.021,2.855-0.021,3.863v0.63c-0.505,0.194-0.933,0.548-1.218,1.008
	c0.147,0.5,0.8,0.671,1.239,1.112c0.083,0.422,0.111,0.852,0.084,1.281c0,2-0.189,5.711-0.273,7.118
	c-0.444-0.034-0.89,0.001-1.323,0.105c-0.166,0.226-0.118,0.543,0.108,0.709c0.013,0.009,0.026,0.018,0.039,0.026
	c0.231-0.021,0.483-0.042,0.777-0.042c0.672,0,1.491,0.063,2.184,0.063c0.508,0.042,1.019-0.037,1.49-0.231
	c0.068-0.186,0.052-0.393-0.042-0.567c-0.39-0.109-0.798-0.138-1.2-0.084c0-0.882,0.041-3.8,0.041-5.963
	c0.043-0.827,0.016-1.656-0.083-2.478c0.456-0.27,0.855-0.626,1.175-1.049c-0.291-0.428-0.679-0.781-1.133-1.029
	c0.02-0.168,0.041-0.546,0.041-1.029c0-0.735-0.021-1.722-0.021-2.625c-0.097-0.738-0.032-1.489,0.189-2.2
	c0.357-0.021,0.819-0.021,1.281-0.021c0.722-0.017,1.445,0.016,2.163,0.1c-0.069,0.683-0.09,1.371-0.063,2.057
	c0.162,0.104,0.36,0.135,0.546,0.084c0.176-0.38,0.242-0.802,0.189-1.217c-0.002-0.694-0.065-1.408-0.044-1.45L136.746,113.266z
	 M147.771,113.266c0.189-0.189-1.827-0.378-2.73-0.315c-0.735,0.063-1.806,0.084-2.9,0.084c-1.386,0-2.814-0.021-3.675-0.042
	c-0.316-0.056-0.641,0.02-0.9,0.21c0,0.084,0.042,2.372,0.042,2.876c0.168,0.188,0.456,0.205,0.644,0.037
	c0.026-0.023,0.05-0.05,0.07-0.079c0.021-0.147,0.042-0.609,0.042-1.112s-0.021-1.029-0.021-1.3
	c0.391,0.043,0.783,0.064,1.176,0.063c0.315,0,0.63-0.021,0.945-0.021c0.372-0.002,0.744,0.019,1.113,0.063
	c0.071,0.451,0.092,0.909,0.063,1.365c0,1.175-0.021,2.855-0.021,3.863v0.63c-0.505,0.194-0.933,0.548-1.218,1.008
	c0.147,0.5,0.8,0.671,1.239,1.112c0.083,0.422,0.111,0.852,0.084,1.281c0,2-0.189,5.711-0.273,7.118
	c-0.444-0.034-0.89,0.001-1.323,0.105c-0.166,0.226-0.118,0.543,0.108,0.709c0.013,0.009,0.026,0.018,0.039,0.026
	c0.231-0.021,0.483-0.042,0.777-0.042c0.672,0,1.491,0.063,2.183,0.063c0.508,0.042,1.019-0.037,1.491-0.231
	c0.068-0.186,0.052-0.393-0.042-0.567c-0.39-0.109-0.798-0.138-1.2-0.084c0-0.882,0.042-3.8,0.042-5.963
	c0.044-0.827,0.016-1.656-0.084-2.478c0.457-0.27,0.856-0.626,1.176-1.049c-0.291-0.428-0.68-0.781-1.134-1.029
	c0.032-0.342,0.046-0.686,0.042-1.029c0-0.735-0.021-1.722-0.021-2.625c-0.097-0.738-0.032-1.489,0.189-2.2
	c0.357-0.021,0.819-0.021,1.281-0.021c0.722-0.017,1.445,0.016,2.163,0.1c-0.069,0.683-0.09,1.371-0.063,2.057
	c0.162,0.104,0.36,0.135,0.546,0.084c0.176-0.38,0.242-0.802,0.189-1.217c-0.004-0.694-0.067-1.408-0.046-1.45L147.771,113.266z
	 M156.926,119.376c0.147-2.541-1.679-6.7-4.514-6.635c-3.485,0.084-3.863,4.388-4.556,6.7c-0.168,0.252-0.882,0.735-1.05,0.945
	c-0.147,0.189,0.861,0.965,1.05,1.091c-0.042,3.4,1.281,9.743,4.892,9.617c2.94-0.105,3.906-6.656,4.241-9.449
	c0.358-0.306,0.688-0.643,0.987-1.007c-0.277-0.479-0.635-0.906-1.057-1.262L156.926,119.376z M152.643,130.336
	c-2.414-0.21-2.288-6.215-2.645-8.882c0.042-0.126,1.113-0.651,0.966-1.049c-0.189-0.231-0.714-0.651-1.05-0.987
	c0.189-1.407,0.861-5.732,2.54-5.858c2.961-0.21,3.864,4.955,3.885,5.753c-0.452,0.351-0.86,0.754-1.218,1.2
	c0.249,0.46,0.61,0.85,1.05,1.133c-0.343,2.706-0.952,8.9-3.535,8.69H152.643z M168.875,119.376c0.147-2.541-1.68-6.7-4.514-6.635
	c-3.485,0.084-3.863,4.388-4.556,6.7c-0.168,0.252-0.882,0.735-1.05,0.945c-0.147,0.189,0.861,0.965,1.05,1.091
	c-0.042,3.4,1.281,9.743,4.892,9.617c2.939-0.105,3.9-6.656,4.241-9.449c0.358-0.306,0.688-0.643,0.987-1.007
	c-0.277-0.479-0.635-0.906-1.057-1.262L168.875,119.376z M164.592,130.336c-2.415-0.21-2.289-6.215-2.646-8.882
	c0.042-0.126,1.113-0.651,0.966-1.049c-0.189-0.231-0.714-0.651-1.05-0.987c0.189-1.407,0.861-5.732,2.541-5.858
	c2.96-0.21,3.863,4.955,3.884,5.753c-0.452,0.351-0.86,0.754-1.218,1.2c0.249,0.46,0.61,0.85,1.05,1.133
	c-0.343,2.706-0.952,8.9-3.534,8.69H164.592z"/>
<g id="logo">
	<circle style="fill:#FFCC00;" cx="155.131" cy="76.951" r="1.252"/>
	<circle style="fill:#FFCC00;" cx="145.554" cy="76.951" r="1.252"/>
	<circle style="fill:#FFCC00;" cx="33.196" cy="76.951" r="1.252"/>
	<circle style="fill:#FFCC00;" cx="23.618" cy="76.951" r="1.25"/>
	<circle style="fill:#FFCC00;" cx="115.049" cy="92.053" r="2.567"/>
	<circle style="fill:#FFCC00;" cx="114.619" cy="100.201" r="2.06"/>
	<circle style="fill:#FFCC00;" cx="63.951" cy="92.053" r="2.572"/>
	<circle style="fill:#FFCC00;" cx="64.381" cy="100.201" r="2.061"/>
	<path style="fill:#FFCC00;" d="M178.822,56.734c-0.109-1.04-0.289-2.111-0.535-3.183c-0.513-2.228-1.275-4.282-2.267-6.104
		c-1.173-2.146-2.611-3.894-4.276-5.198c-0.997-0.775-2.034-1.368-3.085-1.761c-0.566-0.213-1.15-0.376-1.743-0.488v-9.863h-21.653
		c-0.076-0.091-0.155-0.183-0.241-0.28c-0.096-0.097-0.191-0.197-0.285-0.297c-0.203-0.214-0.406-0.428-0.629-0.626
		c-0.105-0.09-0.208-0.182-0.31-0.275c-0.217-0.195-0.434-0.391-0.666-0.56c-0.11-0.081-0.22-0.166-0.329-0.25
		c-0.228-0.177-0.456-0.353-0.694-0.501c-0.116-0.073-0.23-0.151-0.345-0.228c-0.234-0.158-0.469-0.315-0.71-0.446
		c-0.119-0.067-0.236-0.135-0.354-0.204c-0.239-0.14-0.479-0.279-0.731-0.404l-0.741-0.372c-0.134-0.068-0.267-0.135-0.38-0.181
		l-0.722-0.318c-0.096-0.69-0.203-1.371-0.327-2.036c0.902-0.029,1.626-0.766,1.626-1.677c0-0.929-0.752-1.682-1.679-1.682
		c-0.243,0-0.473,0.054-0.681,0.147c-0.567-2.069-1.288-3.996-2.161-5.764c-0.521-1.034-1.069-1.969-1.647-2.83
		c0.665-0.378,1.119-1.086,1.119-1.907c0-1.216-0.983-2.201-2.197-2.201c-0.685,0-1.29,0.321-1.692,0.814
		c-1.348-1.308-2.846-2.437-4.488-3.339c-1.242-0.667-2.579-1.205-3.981-1.618c0.123-0.275,0.196-0.578,0.196-0.899
		c0-1.216-0.984-2.201-2.197-2.201c-1.213,0-2.197,0.985-2.197,2.201c0,0.026,0.007,0.05,0.008,0.076
		c-0.871-0.092-1.755-0.144-2.65-0.144c-0.351,0-0.698,0.007-1.046,0.021c-2.142,0.101-4.286,0.48-6.409,1.125
		c0.066-0.21,0.112-0.429,0.112-0.661c0-1.216-0.983-2.201-2.197-2.201s-2.197,0.985-2.197,2.201c0,0.79,0.419,1.477,1.042,1.865
		c-0.259,0.113-0.518,0.223-0.776,0.344c-1.909,0.889-3.753,2.005-5.512,3.318c0.018-0.115,0.035-0.23,0.035-0.35
		c0-1.216-0.983-2.201-2.197-2.201s-2.197,0.985-2.197,2.201c0,1.184,0.935,2.142,2.105,2.191c-1.712,1.543-3.189,3.231-4.269,4.913
		c-1.258,1.966-1.65,3.435-1.768,4.116c-0.061,0.263-0.08,0.501-0.096,0.695c-0.025,0.207-0.032,0.391-0.023,0.532l0.009,0.388
		l0.006,0.007c-0.101-0.006-0.201-0.015-0.304-0.015c-0.11,0-0.218,0.008-0.326,0.017l0.028-0.01l0.008-0.371
		c0.01-0.157,0.003-0.342-0.022-0.542c-0.016-0.193-0.036-0.434-0.093-0.682c-0.122-0.702-0.514-2.172-1.771-4.136
		c-1.082-1.686-2.564-3.379-4.284-4.925c1.109-0.112,1.977-1.038,1.977-2.178c0-1.216-0.983-2.201-2.197-2.201
		s-2.197,0.985-2.197,2.201c0,0.083,0.015,0.161,0.024,0.241c-1.713-1.263-3.504-2.346-5.357-3.209
		c-0.284-0.134-0.57-0.256-0.856-0.38c0.589-0.395,0.978-1.067,0.978-1.83c0-1.216-0.983-2.201-2.197-2.201S71.02,1.401,71.02,2.617
		c0,0.216,0.041,0.42,0.098,0.616c-2.073-0.616-4.164-0.982-6.255-1.08c-0.345-0.014-0.692-0.021-1.043-0.021
		c-0.945,0-1.877,0.054-2.795,0.156c0.001-0.03,0.009-0.058,0.009-0.089C61.035,0.985,60.052,0,58.838,0s-2.197,0.985-2.197,2.201
		c0,0.335,0.081,0.649,0.214,0.933c-1.358,0.409-2.653,0.938-3.86,1.586c-1.672,0.919-3.197,2.074-4.564,3.415
		c-0.4-0.538-1.035-0.891-1.756-0.891c-1.213,0-2.197,0.985-2.197,2.201c0,0.864,0.502,1.605,1.226,1.965
		c-0.564,0.846-1.102,1.761-1.612,2.774c-0.882,1.786-1.61,3.734-2.18,5.828c-0.24-0.132-0.511-0.214-0.804-0.214
		c-0.927,0-1.679,0.753-1.679,1.682s0.751,1.682,1.679,1.682c0.031,0,0.06-0.007,0.091-0.009c-0.125,0.667-0.231,1.349-0.327,2.04
		l-0.714,0.315c-0.121,0.05-0.254,0.117-0.388,0.185l-0.739,0.371c-0.253,0.125-0.491,0.264-0.73,0.402
		c-0.119,0.069-0.237,0.138-0.355,0.204c-0.243,0.133-0.478,0.29-0.711,0.447c-0.116,0.077-0.23,0.155-0.343,0.227
		c-0.242,0.15-0.47,0.327-0.698,0.503c-0.108,0.085-0.218,0.169-0.327,0.25c-0.232,0.17-0.449,0.365-0.666,0.561
		c-0.103,0.093-0.205,0.185-0.315,0.28c-0.218,0.194-0.421,0.408-0.624,0.622c-0.095,0.1-0.189,0.2-0.299,0.311
		c-0.077,0.087-0.154,0.176-0.228,0.266H12.082v9.863c-0.593,0.112-1.177,0.276-1.742,0.488c-1.052,0.393-2.089,0.986-3.086,1.762
		c-1.666,1.304-3.104,3.053-4.276,5.198c-0.99,1.822-1.753,3.875-2.266,6.104c-0.245,1.065-0.425,2.136-0.536,3.183
		C0.06,57.827,0.004,58.854,0,59.967c0.003,1.035,0.067,2.195,0.176,3.182c0.111,1.047,0.291,2.118,0.536,3.183
		c0.513,2.229,1.275,4.282,2.267,6.104c1.171,2.144,2.609,3.893,4.276,5.198c0.997,0.775,2.034,1.368,3.085,1.761
		c0.566,0.213,1.15,0.376,1.743,0.488v10.842H32.99c0.882,0.728,1.758,1.468,2.637,2.211c1.749,1.477,3.557,3.005,5.43,4.451
		c1.595,1.232,3.193,2.314,4.752,3.219c1.596,0.93,3.352,1.75,5.22,2.438c3.119,1.147,6.626,1.937,11.033,2.487
		c3.933,0.495,7.839,0.676,11.141,0.787l0.049-0.739c-0.005,0-0.009-0.001-0.014-0.001c0,0-0.001,0-0.001,0
		c-3.255-0.328-7.098-0.763-10.944-1.51c-4.226-0.815-7.541-1.795-10.435-3.086c-0.821-0.362-1.629-0.762-2.403-1.19
		c-0.746-0.407-1.492-0.862-2.281-1.388c-1.427-0.961-2.814-2.044-4.242-3.309c-1.699-1.501-3.385-3.128-5.015-4.703
		c-1.004-0.97-2.014-1.944-3.048-2.912l-0.521-0.461h-5.115c0.016-0.223-0.009-0.473-0.036-0.731
		c-0.025-0.243-0.052-0.494-0.041-0.701c0.126-2.217,0.642-3.741,1.098-5.086c0.469-1.388,0.874-2.586,0.696-4.097
		c-0.051-0.429-0.389-2.066-1.029-3.201c0.01,0.006,0.015,0.017,0.026,0.022c0.695,0.329,1.955,0.899,2.581,1.026
		c0.129,0.026,0.256,0.055,0.382,0.084c0.437,0.099,0.89,0.201,1.411,0.201c0.28,0,0.553-0.029,0.835-0.088
		c0.639-0.134,1.321-0.435,2.043-0.754c0.47-0.207,0.956-0.421,1.472-0.611c0.771-0.283,1.202-0.32,1.492-0.32
		c0.182,0,0.346,0.016,0.555,0.035c0.296,0.027,0.75,0.222,1.247,0.534l0.128,0.068h0.106c0.158,0,0.304-0.085,0.383-0.224
		l0.105-0.258l-0.111-0.186c-0.352-0.586-1.112-1.66-2.254-2.272c-1.374-0.737-2.504-1.065-3.664-1.065
		c-0.695,0-1.403,0.117-2.231,0.369c-1.622,0.494-3.732,1.942-4.564,2.542c-0.151,0.109-0.23,0.285-0.219,0.47
		c-0.167-0.225-0.35-0.413-0.55-0.538c0.419-0.121,0.888-0.363,1.251-0.762c0.472-0.52,0.682-1.2,0.61-1.968
		c-0.126-1.324-0.981-1.781-1.653-1.939c0.958-0.202,2.883-0.846,4.384-2.882c1.012-1.373,1.522-2.996,1.923-4.546
		c0.115-0.446,0.197-0.84,0.271-1.198c0.199-0.966,0.332-1.604,0.924-2.285c0.181-0.209,1.148-1.251,2.343-1.251l0.104,0.003
		c0.543,0.027,0.936,0.266,1.195,0.424c0.173,0.105,0.298,0.181,0.452,0.181l0.207-0.015l0.111-0.129
		c0.176-0.207,0.085-0.488,0.056-0.58c-0.275-0.853-1.667-2.656-3.779-3.164c-0.022-0.005-0.545-0.129-1.266-0.129
		c-0.846,0-2.065,0.171-3.071,0.987c-0.212,0.172-0.392,0.355-0.546,0.536c0.236-1.06,0.383-2.519-0.212-4.152
		c-0.395-1.083-0.764-2.965-1.155-4.958c-0.927-4.721-1.559-7.614-2.841-7.614c-1.282,0-1.915,2.893-2.84,7.615
		c-0.391,1.993-0.76,3.875-1.155,4.958c-0.595,1.632-0.448,3.091-0.212,4.151c-0.154-0.182-0.334-0.365-0.546-0.536
		c-1.006-0.816-2.226-0.987-3.072-0.987c-0.724,0-1.244,0.124-1.265,0.129c-2.112,0.508-3.504,2.311-3.779,3.164
		c-0.03,0.092-0.121,0.374,0.055,0.58l0.147,0.145h0.171c0.155,0,0.28-0.076,0.452-0.181c0.26-0.158,0.652-0.396,1.196-0.424
		l0.104-0.003c1.189,0,2.161,1.042,2.343,1.251c0.593,0.681,0.724,1.32,0.924,2.286c0.074,0.358,0.155,0.752,0.27,1.197
		c0.401,1.55,0.911,3.173,1.923,4.546c1.408,1.91,3.43,2.656,4.641,2.888c-0.668,0.164-1.503,0.625-1.627,1.932
		c-0.073,0.767,0.138,1.447,0.609,1.968c0.355,0.391,0.811,0.629,1.223,0.753c-0.233,0.141-0.443,0.366-0.632,0.639
		c0.007-0.028,0.026-0.05,0.028-0.079c0.017-0.191-0.066-0.372-0.221-0.483c-0.83-0.599-2.937-2.046-4.564-2.542
		c-0.827-0.252-1.536-0.369-2.231-0.369c-1.159,0-2.289,0.329-3.664,1.065c-1.144,0.614-1.903,1.687-2.253,2.271l-0.114,0.255
		l0.105,0.189c0.079,0.139,0.225,0.225,0.384,0.225l0.144-0.011l0.09-0.057c0.496-0.312,0.951-0.507,1.288-0.538
		c0.434-0.04,0.749-0.173,2.006,0.288c0.516,0.189,1.002,0.404,1.472,0.611c0.723,0.319,1.405,0.62,2.044,0.754
		c0.282,0.059,0.556,0.088,0.835,0.088c0.522,0,0.974-0.102,1.411-0.201c0.126-0.029,0.253-0.057,0.382-0.083
		c0.629-0.128,1.887-0.698,2.58-1.026c0.043-0.02,0.07-0.058,0.105-0.088c-0.664,1.138-1.012,2.83-1.063,3.268
		c-0.178,1.511,0.227,2.709,0.696,4.097c0.455,1.345,0.971,2.87,1.098,5.086c0.011,0.206-0.015,0.458-0.041,0.701
		c-0.027,0.258-0.052,0.508-0.036,0.731h-12.04v-10.66l-1.848-0.004c-1.53-0.003-3.052-0.571-4.405-1.645
		c-1.265-0.987-2.376-2.35-3.303-4.051c-0.829-1.524-1.471-3.26-1.907-5.157c-0.213-0.929-0.369-1.856-0.463-2.755
		c-0.104-0.983-0.15-1.83-0.156-2.829c0.005-0.938,0.059-1.9,0.156-2.783c0.094-0.9,0.25-1.827,0.463-2.755
		c0.436-1.898,1.078-3.634,1.907-5.158c0.927-1.701,2.039-3.064,3.306-4.053c1.35-1.072,2.872-1.64,4.402-1.643l1.848-0.004v-9.68
		H35.47l0.615-0.731c0.09-0.106,0.176-0.213,0.262-0.321c0.12-0.149,0.239-0.298,0.35-0.424c0.095-0.094,0.186-0.19,0.277-0.286
		c0.135-0.143,0.27-0.286,0.412-0.411c0.1-0.084,0.196-0.171,0.292-0.258c0.149-0.135,0.297-0.271,0.463-0.39
		c0.106-0.076,0.208-0.156,0.311-0.236c0.16-0.126,0.321-0.252,0.502-0.363c0.114-0.071,0.223-0.146,0.334-0.22
		c0.171-0.115,0.342-0.232,0.531-0.333c0.116-0.064,0.23-0.131,0.345-0.198c0.094-0.055,0.19-0.104,0.285-0.157
		c-0.054,0.937-0.087,1.887-0.101,2.851c-0.661,0.005-1.217,0.515-1.261,1.186c-0.046,0.703,0.485,1.311,1.188,1.358
		c0.032,0.002,0.063-0.003,0.095-0.003c0.037,1.513,0.106,3.053,0.245,4.664l0.093,0.947c0.071,0.734,0.142,1.466,0.238,2.17
		l0.154,1.221l0.297,1.863c0.425,2.345,0.859,4.244,1.365,5.971c1.044,3.688,2.474,7.306,4.25,10.753
		c1.572,3.043,3.435,5.973,5.539,8.71c3.931,5.094,7.831,8.367,10.212,10.112c-0.766,0.293-1.313,1.031-1.313,1.899
		c0,1.123,0.912,2.037,2.033,2.037c1.122,0,2.033-0.914,2.033-2.037c0-0.019-0.005-0.036-0.005-0.054
		c0.709,0.432,1.316,0.77,1.764,1.003c0.447,0.235,0.795,0.4,1.027,0.502l0.318,0.146c3.583,6.312,8.229,11.275,13.9,14.816
		c0.267,0.167,0.547,0.345,0.836,0.529c1.921,1.227,4.311,2.753,6.144,2.753c1.833,0,4.224-1.527,6.145-2.753
		c0.289-0.185,0.568-0.363,0.835-0.529c0.647-0.404,1.278-0.832,1.898-1.273c0.187-0.133,0.369-0.272,0.553-0.408
		c0.441-0.326,0.876-0.66,1.304-1.004c0.191-0.154,0.38-0.309,0.568-0.466c0.45-0.377,0.89-0.766,1.324-1.165
		c0.133-0.123,0.27-0.241,0.401-0.365c0.575-0.543,1.137-1.103,1.683-1.685c0.004-0.005,0.009-0.01,0.013-0.014
		c0.533-0.568,1.049-1.16,1.554-1.765c0.112-0.134,0.221-0.272,0.332-0.409c0.409-0.502,0.808-1.016,1.198-1.542
		c0.106-0.143,0.213-0.286,0.317-0.431c0.44-0.609,0.87-1.233,1.285-1.875c0.031-0.048,0.064-0.095,0.096-0.143
		c0.474-0.736,0.932-1.493,1.373-2.271l0.312-0.144c0.238-0.105,0.586-0.27,1.031-0.504c0.448-0.233,1.056-0.571,1.766-1.004
		c0,0.018-0.005,0.036-0.005,0.054c0,1.123,0.912,2.037,2.033,2.037c1.121,0,2.033-0.914,2.033-2.037
		c0-0.868-0.547-1.606-1.312-1.899c2.383-1.747,6.281-5.019,10.213-10.113c2.104-2.737,3.967-5.668,5.538-8.71
		c1.776-3.446,3.206-7.064,4.248-10.749c0.507-1.73,0.942-3.629,1.368-5.98l0.256-1.544l0.193-1.531
		c0.099-0.717,0.171-1.458,0.242-2.201l0.091-0.927c0.139-1.609,0.208-3.149,0.245-4.662c0.677-0.071,1.184-0.663,1.139-1.349
		c-0.041-0.622-0.521-1.109-1.117-1.181c-0.013-0.966-0.046-1.918-0.101-2.857c0.095,0.053,0.19,0.102,0.285,0.157
		c0.115,0.067,0.229,0.134,0.348,0.2c0.185,0.1,0.355,0.216,0.527,0.332c0.111,0.075,0.221,0.149,0.338,0.222
		c0.177,0.108,0.336,0.234,0.496,0.359c0.103,0.081,0.208,0.162,0.314,0.239c0.164,0.119,0.311,0.253,0.459,0.387
		c0.097,0.088,0.194,0.177,0.289,0.256c0.149,0.131,0.283,0.274,0.418,0.417c0.091,0.096,0.182,0.192,0.26,0.268
		c0.127,0.143,0.247,0.292,0.366,0.442c0.087,0.108,0.173,0.215,0.262,0.321l0.615,0.731h19.688v9.68l1.848,0.004
		c1.529,0.003,3.052,0.571,4.405,1.645c1.264,0.987,2.376,2.35,3.303,4.051c0.828,1.522,1.47,3.257,1.908,5.158
		c0.213,0.929,0.368,1.856,0.463,2.757c0.097,0.884,0.15,1.846,0.155,2.777c-0.006,1.008-0.052,1.855-0.155,2.833
		c-0.095,0.899-0.25,1.826-0.463,2.755c-0.438,1.9-1.08,3.636-1.908,5.158c-0.927,1.701-2.039,3.064-3.306,4.053
		c-1.351,1.072-2.873,1.64-4.402,1.643l-1.848,0.004v10.66h-12.047c0.016-0.223-0.009-0.473-0.036-0.731
		c-0.025-0.243-0.052-0.494-0.041-0.701c0.126-2.217,0.642-3.741,1.098-5.086c0.469-1.388,0.874-2.586,0.696-4.097
		c-0.051-0.429-0.389-2.066-1.029-3.201c0.01,0.006,0.016,0.017,0.026,0.022c0.695,0.329,1.955,0.899,2.581,1.026
		c0.129,0.026,0.256,0.055,0.382,0.084c0.437,0.099,0.889,0.201,1.411,0.201c0.28,0,0.553-0.029,0.835-0.088
		c0.639-0.134,1.321-0.435,2.043-0.754c0.47-0.207,0.956-0.421,1.472-0.611c0.771-0.283,1.202-0.32,1.492-0.32
		c0.182,0,0.346,0.016,0.555,0.035c0.295,0.027,0.75,0.222,1.247,0.534l0.128,0.068h0.106c0.158,0,0.304-0.085,0.383-0.224
		l0.106-0.258l-0.111-0.186c-0.352-0.586-1.112-1.66-2.254-2.272c-1.375-0.737-2.504-1.065-3.664-1.065
		c-0.695,0-1.403,0.117-2.231,0.369c-1.622,0.494-3.732,1.942-4.564,2.542c-0.152,0.109-0.23,0.285-0.219,0.47
		c-0.167-0.225-0.35-0.413-0.55-0.538c0.42-0.121,0.888-0.363,1.251-0.762c0.472-0.52,0.682-1.2,0.61-1.968
		c-0.126-1.324-0.981-1.781-1.653-1.939c0.957-0.202,2.883-0.846,4.384-2.882c1.012-1.373,1.522-2.996,1.923-4.546
		c0.115-0.446,0.197-0.84,0.27-1.198c0.199-0.966,0.332-1.604,0.924-2.285c0.182-0.209,1.148-1.251,2.343-1.251l0.104,0.003
		c0.543,0.027,0.936,0.266,1.195,0.424c0.173,0.105,0.298,0.181,0.452,0.181l0.207-0.015l0.111-0.129
		c0.176-0.207,0.085-0.488,0.056-0.58c-0.275-0.853-1.666-2.656-3.779-3.164c-0.021-0.005-0.545-0.129-1.266-0.129
		c-0.846,0-2.065,0.171-3.071,0.987c-0.212,0.172-0.393,0.355-0.546,0.536c0.236-1.06,0.383-2.519-0.212-4.152
		c-0.395-1.083-0.764-2.965-1.155-4.958c-0.927-4.721-1.559-7.614-2.841-7.614c-1.283,0-1.915,2.893-2.841,7.615
		c-0.391,1.993-0.76,3.875-1.155,4.958c-0.595,1.632-0.448,3.091-0.213,4.151c-0.154-0.182-0.334-0.365-0.546-0.536
		c-1.006-0.816-2.226-0.987-3.072-0.987c-0.724,0-1.244,0.124-1.265,0.129c-2.112,0.508-3.504,2.311-3.779,3.164
		c-0.03,0.092-0.121,0.374,0.056,0.58l0.147,0.145h0.17c0.155,0,0.28-0.076,0.452-0.181c0.26-0.158,0.653-0.396,1.196-0.424
		l0.104-0.003c1.189,0,2.161,1.042,2.343,1.251c0.592,0.681,0.724,1.32,0.924,2.286c0.074,0.358,0.156,0.752,0.27,1.197
		c0.401,1.55,0.911,3.173,1.923,4.546c1.408,1.91,3.43,2.656,4.641,2.888c-0.668,0.164-1.502,0.625-1.627,1.932
		c-0.073,0.767,0.138,1.447,0.609,1.968c0.355,0.391,0.811,0.629,1.223,0.753c-0.233,0.141-0.443,0.366-0.632,0.639
		c0.007-0.028,0.026-0.05,0.028-0.079c0.018-0.191-0.066-0.372-0.221-0.483c-0.83-0.599-2.938-2.046-4.564-2.542
		c-0.827-0.252-1.536-0.369-2.231-0.369c-1.159,0-2.289,0.329-3.664,1.065c-1.144,0.614-1.903,1.687-2.253,2.271l-0.114,0.255
		l0.105,0.189c0.079,0.139,0.226,0.225,0.384,0.225l0.144-0.011l0.09-0.057c0.496-0.312,0.951-0.507,1.288-0.538
		c0.434-0.04,0.749-0.173,2.006,0.288c0.516,0.189,1.002,0.404,1.472,0.611c0.723,0.319,1.405,0.62,2.043,0.754
		c0.283,0.059,0.556,0.088,0.835,0.088c0.522,0,0.974-0.102,1.411-0.201c0.126-0.029,0.253-0.057,0.382-0.083
		c0.629-0.128,1.887-0.698,2.58-1.026c0.043-0.02,0.07-0.058,0.105-0.088c-0.664,1.138-1.012,2.83-1.063,3.268
		c-0.178,1.511,0.227,2.709,0.696,4.097c0.455,1.345,0.971,2.87,1.098,5.086c0.011,0.206-0.015,0.458-0.041,0.701
		c-0.027,0.258-0.052,0.508-0.036,0.731h-5.108l-0.528,0.469c-1.03,0.964-2.042,1.94-3.049,2.913
		c-1.627,1.571-3.31,3.196-5.006,4.694c-1.431,1.267-2.818,2.349-4.24,3.308c-0.787,0.526-1.533,0.98-2.284,1.39
		c-0.77,0.425-1.577,0.825-2.403,1.189c-2.893,1.29-6.208,2.27-10.434,3.085c-3.844,0.747-7.688,1.182-10.944,1.51l-0.001,0
		c-0.005,0-0.009,0.001-0.014,0.001l0.049,0.739c3.303-0.111,7.209-0.292,11.14-0.787c4.409-0.55,7.915-1.34,11.035-2.487
		c1.867-0.688,3.623-1.508,5.22-2.438c1.559-0.904,3.157-1.987,4.752-3.218c1.873-1.447,3.682-2.975,5.43-4.452
		c0.879-0.743,1.755-1.483,2.637-2.211h20.909V79.883c0.593-0.112,1.177-0.276,1.742-0.488c1.051-0.394,2.089-0.986,3.086-1.762
		c1.664-1.303,3.102-3.052,4.276-5.198c0.991-1.821,1.753-3.875,2.266-6.104c0.246-1.072,0.426-2.143,0.535-3.181
		c0.109-0.993,0.174-2.153,0.177-3.186C178.995,58.852,178.939,57.825,178.822,56.734z M27.761,66.107
		c-0.144-0.177-0.307-0.379-0.498-0.603c-1.457-1.711-1.307-2.392-0.813-4.648c0.145-0.664,0.31-1.417,0.472-2.36
		c0.07-0.412,0.144-0.873,0.22-1.357c0.267-1.683,0.892-5.622,1.486-5.781c0.602,0.159,1.228,4.099,1.494,5.781
		c0.077,0.484,0.15,0.945,0.22,1.357c0.162,0.943,0.327,1.696,0.472,2.36c0.493,2.256,0.643,2.937-0.814,4.648
		c-0.22,0.258-0.4,0.485-0.555,0.681c-0.396,0.498-0.579,0.719-0.767,0.735h0l-0.038,0.004
		C28.426,66.917,28.216,66.668,27.761,66.107z M89.449,30.015c0,0-0.647,0.043-0.705,0.119c-0.649,0.836-0.744,1.668-1.158,2.941
		c-1.351,4.157-1.315,4.95-1.061,5.606c0.189,0.49,1.732,2.417,2.975,2.417c1.243,0,2.785-1.927,2.975-2.417
		c0.254-0.656,0.29-1.449-1.061-5.606c-0.414-1.273-0.509-2.105-1.158-2.941c-0.059-0.076-0.705-0.119-0.705-0.119
		c2.063,0,3.92-1.363,4.508-3.316c0.039-0.13,3.794,0.388,5.657,0.984c2.772,0.886,4.06,2.712,4.054,5.748
		c-0.001,0.483-0.126,2.934-2.544,3.72c-1.726,0.561-4.158-0.075-4.836-1.766c-0.222-0.555-0.219-1.448,0.105-2.109
		c-0.01,0.091-0.027,0.179-0.027,0.272c0,1.374,1.116,2.492,2.487,2.492s2.486-1.118,2.486-2.492c0-1.374-1.115-2.491-2.486-2.491
		c-0.3,0-0.584,0.062-0.85,0.16c-0.577,0.065-1.754,0.639-1.766,0.648l-0.15,0.1c-0.607,0.397-2.03,1.328-1.579,3.371
		c0.215,0.973,0.536,1.528,0.795,1.973c0.34,0.586,0.564,0.972,0.458,2.059c-0.125,1.286-1.197,2.448-3.276,3.552
		c-1.159,0.616-1.697,1.852-2.129,2.845c-0.308,0.707-0.599,1.376-0.954,1.376s-0.646-0.668-0.954-1.376
		c-0.432-0.993-0.97-2.229-2.13-2.845c-2.08-1.104-3.151-2.266-3.276-3.552c-0.106-1.087,0.118-1.474,0.457-2.059
		c0.259-0.445,0.58-1,0.795-1.972c0.45-2.043-0.972-2.973-1.58-3.371l-0.15-0.1c-0.011-0.008-1.185-0.579-1.763-0.647
		c-0.267-0.099-0.552-0.161-0.853-0.161c-1.371,0-2.487,1.118-2.487,2.491c0,1.374,1.116,2.492,2.487,2.492s2.486-1.118,2.486-2.492
		c0-0.093-0.017-0.182-0.027-0.272c0.324,0.662,0.327,1.554,0.105,2.109c-0.678,1.692-3.113,2.329-4.837,1.766
		c-2.416-0.786-2.543-3.237-2.543-3.721c-0.006-3.035,1.282-4.862,4.054-5.748c1.863-0.596,5.633-1.058,5.683-0.903
		C85.581,28.69,87.415,30.015,89.449,30.015z M111.792,56.547c-0.322,1.46-1.604,5.235-4.466,6.73
		c-1.055,0.551-2.164,0.82-3.39,0.82c-1.319,0-2.579-0.303-3.796-0.597c-1.101-0.265-2.14-0.515-3.126-0.515
		c-0.323,0-0.621,0.026-0.906,0.08c0.718-1.182,4.677-4.933,7.78-6.014C106.345,56.195,109.063,56.023,111.792,56.547z
		 M111.211,43.615c0-1.073,0.866-1.945,1.931-1.945c1.065,0,1.932,0.872,1.932,1.945c0,1.073-0.866,1.945-1.932,1.945
		C112.077,45.56,111.211,44.688,111.211,43.615z M105.438,83.36v0.004V83.36L105.438,83.36z M109.454,44.593
		c-0.731-0.23-1.49-0.422-2.272-0.553c0.538-0.402,0.891-1.041,0.891-1.765c0-1.216-0.983-2.205-2.193-2.205
		s-2.193,0.989-2.193,2.205c0,0.609,0.246,1.16,0.644,1.56c-0.785,0.026-1.583,0.121-2.388,0.3c0.155-0.302,0.25-0.639,0.25-1.001
		c0-1.216-0.984-2.206-2.193-2.206c-1.209,0-2.193,0.989-2.193,2.206c0,0.867,0.504,1.611,1.23,1.971
		c-1.237,0.535-2.214,1.096-2.654,1.351c-0.207,0.12-0.394,0.245-0.591,0.367c0.118-0.215,0.192-0.459,0.192-0.722
		c0-0.829-0.671-1.504-1.496-1.504c-0.825,0-1.496,0.675-1.496,1.504s0.671,1.504,1.496,1.504c0.052,0,0.1-0.01,0.15-0.015
		c-2.273,1.62-3.833,3.379-4.978,4.834c-0.054-0.003-0.105-0.016-0.16-0.016c-0.055,0-0.106,0.013-0.16,0.016
		c-1.146-1.455-2.706-3.214-4.978-4.834c0.05,0.005,0.099,0.015,0.151,0.015c0.825,0,1.497-0.675,1.497-1.504
		s-0.671-1.504-1.497-1.504c-0.824,0-1.496,0.675-1.496,1.504c0,0.263,0.073,0.507,0.192,0.722
		c-0.197-0.123-0.385-0.248-0.592-0.368c-0.441-0.255-1.418-0.816-2.654-1.351c0.726-0.36,1.23-1.105,1.23-1.972
		c0-1.216-0.983-2.206-2.193-2.206s-2.194,0.989-2.194,2.206c0,0.362,0.095,0.699,0.25,1.001c-0.805-0.18-1.603-0.274-2.388-0.3
		c0.398-0.399,0.644-0.951,0.644-1.56c0-1.216-0.983-2.205-2.193-2.205c-1.209,0-2.193,0.989-2.193,2.205
		c0,0.724,0.353,1.362,0.89,1.764c-0.783,0.132-1.541,0.323-2.272,0.553c-1.527-3.583-1.868-7.475-0.542-10.501
		c0.403-0.919,1.682-2.65,2.685-3.632l0.175-0.18c0.473-0.49,1.729-1.792,3.332-2.925c1.283-0.906,2.737-1.669,4.318-2.291
		c1.962-0.662,3.852-1.068,5.531-1.316c-0.187,0.511-0.294,1.061-0.294,1.637c0,0.203,0.017,0.401,0.043,0.597
		c-0.271,0.027-3.828,0.389-5.732,0.997c-3.081,0.985-4.575,3.097-4.569,6.456c0.001,0.573,0.154,3.48,3.055,4.424
		c2.04,0.665,4.901-0.074,5.752-2.195c0.246-0.614,0.292-1.488,0.059-2.262c0.304,0.41,0.491,0.973,0.314,1.776
		c-0.19,0.86-0.467,1.338-0.712,1.76c-0.367,0.633-0.684,1.179-0.555,2.504c0.152,1.552,1.352,2.905,3.667,4.135
		c0.931,0.494,1.392,1.553,1.798,2.487c0.408,0.936,0.793,1.82,1.633,1.82s1.225-0.884,1.632-1.82
		c0.406-0.934,0.867-1.992,1.798-2.487c2.315-1.23,3.515-2.583,3.667-4.135c0.129-1.325-0.188-1.871-0.555-2.504
		c-0.245-0.422-0.522-0.9-0.712-1.76c-0.178-0.803,0.01-1.366,0.314-1.776c-0.234,0.774-0.187,1.649,0.059,2.263
		c0.85,2.121,3.713,2.859,5.751,2.195c2.904-0.945,3.055-3.852,3.055-4.424c0.007-3.359-1.488-5.47-4.568-6.456
		c-1.905-0.609-5.462-0.97-5.732-0.997c0.025-0.195,0.043-0.393,0.043-0.597c0-0.576-0.107-1.126-0.294-1.637
		c0.299,0.045,0.598,0.09,0.909,0.145c0.089,0.016,0.179,0.032,0.27,0.049c0.886,0.164,1.815,0.371,2.773,0.638
		c0.026,0.007,0.052,0.015,0.077,0.022c0.494,0.139,0.995,0.292,1.5,0.462l0,0c1.582,0.622,3.036,1.385,4.319,2.291
		c1.603,1.133,2.859,2.435,3.332,2.925l0.175,0.18c1.003,0.982,2.282,2.713,2.684,3.632
		C111.322,37.117,110.982,41.009,109.454,44.593z M91.326,54.98c0,1.009-0.819,1.83-1.827,1.83s-1.827-0.821-1.827-1.83
		c0-1.009,0.82-1.83,1.827-1.83S91.326,53.971,91.326,54.98z M71.673,63.277c-2.862-1.495-4.144-5.27-4.466-6.73
		c2.729-0.524,5.447-0.353,7.903,0.504c3.104,1.082,7.063,4.832,7.78,6.014c-0.284-0.054-0.582-0.08-0.905-0.08
		c-0.987,0-2.026,0.25-3.126,0.516c-1.218,0.293-2.478,0.597-3.797,0.597C73.836,64.096,72.728,63.828,71.673,63.277z M73.562,83.36
		v0.004V83.36L73.562,83.36z M65.857,45.56c-1.064,0-1.931-0.872-1.931-1.945c0-1.073,0.866-1.945,1.931-1.945
		c1.065,0,1.932,0.872,1.932,1.945C67.788,44.688,66.922,45.56,65.857,45.56z M73.775,22.24c-0.288-0.614-0.762-1.022-1.374-1.181
		c-1.989-0.516-3.49-0.23-4.392,0.823c-0.404,0.472-0.673,1.09-0.799,1.816c-0.323-1.459-0.428-3.466,0.653-5.066
		c1.043-1.545,2.835-2.139,4.279-2.485c0.639-0.153,1.314-0.23,2.009-0.23c5.988,0,12.034,5.696,12.235,5.887
		c-0.372,0.326-0.698,0.702-0.955,1.128c-1.648,0.26-5.136,1.043-5.136,1.043c-2.691,0.746-5.105,1.826-7.226,3.218
		c0.187-0.23,0.369-0.485,0.517-0.8C74.112,25.276,74.326,23.417,73.775,22.24z M106.599,21.06
		c-0.612,0.159-1.087,0.567-1.374,1.182c-0.551,1.177-0.337,3.035,0.188,4.151c0.148,0.315,0.33,0.57,0.517,0.8
		c-2.121-1.391-4.536-2.472-7.227-3.218l-0.017,0.055c0,0-0.001,0-0.001,0c-0.418-0.125-0.83-0.237-1.238-0.341
		c-0.058-0.015-0.115-0.028-0.172-0.043c-0.346-0.086-0.688-0.166-1.025-0.238c-0.083-0.018-0.166-0.036-0.248-0.053
		c-0.312-0.065-0.618-0.123-0.92-0.177c-0.086-0.015-0.172-0.032-0.257-0.047c-0.292-0.05-0.853-0.131-1.251-0.188
		c-0.258-0.43-0.579-0.816-0.955-1.145c0.3-0.284,6.285-5.881,12.228-5.881c0.694,0,1.37,0.078,2.009,0.23
		c1.445,0.345,3.237,0.94,4.28,2.485c1.08,1.599,0.975,3.605,0.652,5.065c-0.126-0.725-0.395-1.343-0.799-1.815
		C110.088,20.83,108.584,20.543,106.599,21.06z M43.416,27.089c0.642-4.604,1.796-8.33,3.531-11.394
		c1.875-3.385,4.636-6.118,7.778-7.696c2.888-1.5,6.281-2.264,10.083-2.272c1.549,0.01,3.219,0.205,4.831,0.563
		c1.528,0.331,3.023,0.784,4.443,1.345c2.633,1.05,5.063,2.376,7.226,3.943c1.79,1.273,3.423,2.752,4.717,4.274
		c0.52,0.629,0.982,1.27,1.367,1.893c0.385,0.682,0.614,1.157,0.751,1.563c0.083,0.197,0.129,0.379,0.18,0.578
		c0.046,0.153,0.074,0.285,0.087,0.407l0.015,0.056c-0.156-0.218-0.312-0.415-0.468-0.627C81.04,10.261,74.334,7.415,65.031,9.953
		l0,0.001c-0.349,0.086-0.689,0.189-1.018,0.305c-5.64,1.855-9.823,5.967-12.056,11.548c-0.523,0.15-2.115,0.645-3.071,1.373
		c-1.986,1.51-3.197,3.211-3.864,4.371c-0.846,1.474-1.478,2.979-1.958,4.443C43.114,30.288,43.228,28.655,43.416,27.089z
		 M44.42,48.582c-0.587-2.992-0.909-5.956-1.122-8.448c0.436-1.915,1.286-4.173,2.818-6.743c1.121-1.882,2.377-3.067,2.388-3.077
		c0.593-0.55,1.274-1.105,1.772-1.5c-0.129,1.289-0.177,2.622-0.138,3.994c0.039,1.365,0.13,2.934,0.308,4.625
		c-0.744,0.731-4.43,4.512-5.549,8.601C44.662,46.894,44.51,47.745,44.42,48.582z M56.852,61.083c-3.664,0-7.766-1.493-9.282-2.1
		c-0.213-0.519-0.42-1.04-0.617-1.564c-0.312-1.952-0.323-4.243,0.384-6.717c0.921-3.225,2.703-5.496,4.167-6.922
		c1.402,6,4.161,12.305,9.49,16.318C59.938,60.739,58.562,61.083,56.852,61.083z M61.858,48.905
		c-0.013,0.086-0.025,0.172-0.038,0.258c-0.28,1.892-0.446,3.726-0.524,5.495c-0.001,0.018-0.002,0.039-0.003,0.057
		c-0.008,0.21-0.017,0.475-0.023,0.78c-0.038,1.349-0.016,2.648,0.039,3.91c-0.412-0.315-0.814-0.639-1.195-0.982l0.03-0.017
		c-0.041-0.072-4.073-7.229-4.944-11.691c-1.406-7.207,4.448-12.36,4.508-12.411l0.291-0.251l-0.261-0.282
		c-0.042-0.045-4.172-4.566-4.026-9.818c0.139-5.022,2.183-7.922,4.371-10.308c0.843-0.918,2.337-2.039,4.197-2.693
		c0.309-0.1,0.625-0.195,0.947-0.282c0.01-0.003,0.019-0.004,0.029-0.007l0.002,0.007c8.816-2.405,15.331,0.416,21.933,9.261
		c0.238,0.323,0.477,0.641,0.716,0.979c-0.271,0.097-0.534,0.209-0.78,0.352c-0.719-1.352-5.569-7.192-10.384-8.81
		c-1.406-0.472-2.794-0.711-4.126-0.711c-3,0-5.806,1.247-7.9,3.511c-1.966,2.125-3.123,4.963-2.951,7.231
		c0.305,4.003,2.533,7.207,5.185,7.453c0.168,0.016,0.337,0.023,0.506,0.023c0.967,0,1.992-0.254,2.959-0.711
		c-0.199,0.18-0.403,0.354-0.595,0.541c-4.378,4.262-6.063,9.602-6.242,10.197c-0.232,0.778-0.426,1.619-0.615,2.626
		c-0.461,2.023-0.779,4.095-1.092,6.208c-0.016,0.013-0.034,0.027-0.05,0.04L61.858,48.905z M116.513,64.34
		c-0.257,1.88-0.591,3.607-0.957,5.157c-0.016,0.068-0.032,0.135-0.048,0.202c-0.057,0.237-0.115,0.47-0.173,0.699
		c-0.038,0.147-0.076,0.291-0.114,0.434c-0.042,0.16-0.084,0.321-0.127,0.475c-0.085,0.308-0.17,0.609-0.255,0.898
		c-0.196,0.662-0.403,1.31-0.614,1.953c-1.13,2.671-2.039,5.043-2.675,6.778c-0.001,0.002-0.003,0.005-0.004,0.007
		c-0.25,0.531-0.507,1.051-0.769,1.565c-0.129,0.253-0.263,0.5-0.395,0.749c-0.168,0.316-0.338,0.63-0.512,0.939
		c-0.139,0.249-0.279,0.497-0.422,0.741c-0.198,0.34-0.401,0.674-0.606,1.005c-0.13,0.21-0.258,0.424-0.39,0.631
		c-0.295,0.462-0.597,0.914-0.906,1.36c-0.14,0.202-0.283,0.399-0.426,0.598c-0.218,0.304-0.438,0.604-0.662,0.9
		c-0.146,0.193-0.293,0.386-0.442,0.577c-0.276,0.352-0.557,0.696-0.841,1.036c-0.095,0.114-0.187,0.231-0.283,0.343
		c-0.371,0.433-0.751,0.854-1.136,1.267c-0.139,0.149-0.28,0.293-0.421,0.439c-0.281,0.292-0.564,0.579-0.852,0.86
		c-0.144,0.14-0.287,0.281-0.432,0.418c-0.378,0.359-0.762,0.71-1.154,1.052c-0.046,0.04-0.09,0.083-0.137,0.123
		c-0.437,0.378-0.884,0.742-1.337,1.098c-0.137,0.108-0.277,0.213-0.416,0.32c-0.342,0.261-0.687,0.516-1.037,0.766
		c-0.142,0.101-0.282,0.203-0.426,0.301c-0.479,0.331-0.963,0.655-1.458,0.964c-0.269,0.168-0.55,0.348-0.841,0.533
		c-1.841,1.175-4.13,2.638-5.748,2.638s-3.907-1.462-5.747-2.637c-0.291-0.186-0.573-0.366-0.842-0.534
		c-6.573-4.103-11.75-10.16-15.462-18.06c-0.636-1.736-1.545-4.108-2.676-6.78c-0.211-0.642-0.418-1.29-0.613-1.952
		c-0.632-2.142-1.258-4.813-1.677-7.886c-0.031-0.279-0.061-0.55-0.088-0.81c0.405,1.25,0.946,2.545,1.68,3.837
		c0.503,0.886,1.268,2.227,2.285,3.564c-0.285,0.104-0.394,0.529-0.678,1.656c-0.189,0.756-0.237,1.135-0.041,1.526
		c0.072,0.143,0.344,0.612,0.824,0.627h0.021c0.467,0,0.822-0.447,0.968-0.891c0.12-0.369,0.052-0.675-0.102-1.277
		c-0.063-0.247-0.115-0.449-0.164-0.63c0.447,0.508,0.928,0.998,1.452,1.442c-0.284,0.215-0.447,0.851-0.817,2.327
		c-0.29,1.152-0.345,1.656-0.08,2.188c0.097,0.194,0.462,0.83,1.088,0.849l0.027,0c0.702,0,1.141-0.769,1.291-1.223
		c0.161-0.49,0.088-0.872-0.159-1.836c-0.189-0.74-0.321-1.254-0.435-1.615c1.055,0.718,2.242,1.226,3.562,1.348
		c-0.297,0.493-0.56,1.537-1.058,3.52c-0.472,1.878-0.566,2.693-0.152,3.52c0.149,0.297,0.703,1.265,1.617,1.292l0.038,0
		c1.041,0,1.722-1.236,1.936-1.89c0.25-0.762,0.132-1.382-0.272-2.961c-0.511-1.997-0.772-2.993-1.026-3.468
		c3.736-0.223,7.627-3.136,9.393-5.125c0.247-0.278,0.497-0.583,0.757-0.901c0.894-1.094,1.907-2.333,3.287-2.997
		c0.587-0.282,1.025-0.793,1.203-1.403c0.171-0.587,0.08-1.212-0.259-1.759c-2.635-4.261-6.912-7.947-7.011-8.023
		c-1.812-1.045-2.714-1.378-3.439-1.646c-0.624-0.231-1.118-0.413-2.005-0.977c-2.725-1.732-4.908-4.392-6.292-7.316
		c2.171-0.673,4.597-0.969,7.088-0.406c2.398,0.542,4.6,1.816,5.324,2.236c2.983,1.727,4.857,3.721,6.285,5.502
		c-0.937,0.384-1.6,1.304-1.6,2.379c0,1.418,1.151,2.571,2.567,2.571c1.416,0,2.567-1.153,2.567-2.571
		c0-1.075-0.663-1.995-1.6-2.379c1.366-1.702,3.294-3.771,6.285-5.502c0.723-0.418,2.922-1.693,5.324-2.235
		c2.49-0.563,4.916-0.267,7.088,0.407c-1.385,2.923-3.567,5.583-6.292,7.315c-0.887,0.564-1.381,0.746-2.005,0.977
		c-0.725,0.268-1.626,0.601-3.495,1.686c-0.043,0.037-4.32,3.722-6.954,7.983c-0.338,0.546-0.43,1.171-0.26,1.758
		c0.178,0.61,0.616,1.121,1.203,1.404c1.381,0.664,2.395,1.904,3.289,2.998c0.26,0.318,0.51,0.623,0.756,0.901
		c1.766,1.988,5.656,4.9,9.391,5.125c-0.251,0.474-0.512,1.47-1.022,3.468c-0.403,1.578-0.522,2.198-0.272,2.961
		c0.214,0.654,0.896,1.89,1.936,1.89l0.038,0c0.914-0.027,1.468-0.996,1.617-1.292c0.414-0.826,0.32-1.641-0.154-3.527
		c-0.497-1.978-0.76-3.02-1.059-3.513c1.321-0.122,2.508-0.63,3.564-1.349c-0.114,0.36-0.246,0.875-0.436,1.615
		c-0.246,0.965-0.318,1.346-0.157,1.837c0.149,0.454,0.587,1.223,1.289,1.223l0.027,0c0.602-0.018,0.96-0.598,1.088-0.849
		c0.266-0.532,0.21-1.036-0.079-2.188c-0.37-1.472-0.533-2.11-0.819-2.326c0.524-0.445,1.006-0.935,1.453-1.444
		c-0.049,0.182-0.101,0.383-0.164,0.631c-0.154,0.603-0.222,0.91-0.101,1.278c0.145,0.443,0.501,0.891,0.968,0.891h0.022
		c0.48-0.014,0.752-0.483,0.824-0.627c0.195-0.391,0.147-0.77-0.044-1.533c-0.281-1.117-0.391-1.541-0.677-1.647
		c1.019-1.338,1.784-2.68,2.288-3.568c0.733-1.29,1.273-2.583,1.678-3.832C116.576,63.779,116.546,64.055,116.513,64.34z
		 M117.73,55.496L117.73,55.496c-0.006-0.306-0.016-0.572-0.023-0.782c0-0.017-0.002-0.037-0.003-0.054
		c-0.011-0.254-0.028-0.512-0.043-0.769c-0.016-0.267-0.031-0.534-0.051-0.804c-0.018-0.241-0.038-0.484-0.059-0.728
		c-0.028-0.323-0.06-0.647-0.094-0.973c-0.021-0.199-0.041-0.397-0.064-0.598c-0.062-0.537-0.131-1.078-0.212-1.624
		c-0.013-0.086-0.026-0.172-0.038-0.258l0.037-0.046c-0.015-0.013-0.033-0.027-0.05-0.04c-0.074-0.498-0.148-0.994-0.224-1.487
		c-0.006-0.04-0.012-0.08-0.019-0.12c-0.16-1.035-0.331-2.06-0.528-3.073c-0.001-0.005-0.002-0.009-0.003-0.014
		c-0.099-0.51-0.205-1.017-0.32-1.521c-0.188-1.004-0.382-1.844-0.614-2.62c-0.178-0.595-1.864-5.933-6.241-10.197
		c-0.192-0.187-0.396-0.362-0.595-0.541c0.967,0.457,1.992,0.711,2.959,0.711c0.169,0,0.337-0.007,0.505-0.023
		c2.65-0.246,4.88-3.45,5.185-7.453c0.172-2.268-0.986-5.106-2.951-7.231c-2.094-2.264-4.9-3.511-7.9-3.511
		c-1.333,0-2.721,0.239-4.126,0.711c-4.817,1.619-9.668,7.462-10.385,8.812c-0.246-0.142-0.505-0.262-0.776-0.359
		c6.901-9.775,13.485-12.744,22.677-10.235c0.323,0.088,0.64,0.183,0.95,0.283c1.859,0.654,3.352,1.774,4.193,2.692
		c2.188,2.387,4.232,5.287,4.372,10.308c0.145,5.244-3.985,9.773-4.026,9.818L119,34.052l0.291,0.251
		c0.059,0.051,5.915,5.192,4.507,12.411c-0.869,4.46-4.903,11.619-4.943,11.691l0.03,0.017c-0.375,0.339-0.771,0.658-1.178,0.969
		C117.761,58.138,117.768,56.835,117.73,55.496z M132.049,57.432c-0.195,0.517-0.392,1.033-0.602,1.544
		c-1.507,0.604-5.624,2.106-9.299,2.106c-1.709,0-3.086-0.344-4.142-0.984c5.329-4.013,8.089-10.318,9.491-16.318
		c1.464,1.426,3.245,3.697,4.167,6.923C132.37,53.18,132.362,55.478,132.049,57.432z M134.58,48.581
		c-0.091-0.837-0.242-1.688-0.477-2.548c-1.119-4.089-4.804-7.868-5.55-8.601c0.178-1.691,0.27-3.26,0.308-4.625
		c0.039-1.373-0.009-2.706-0.138-3.994c0.498,0.394,1.179,0.95,1.772,1.499c0.012,0.011,1.267,1.196,2.389,3.078
		c1.533,2.571,2.383,4.83,2.819,6.745C135.488,42.627,135.166,45.592,134.58,48.581z M133.977,27.551
		c-0.667-1.161-1.878-2.861-3.865-4.371c-0.956-0.727-2.547-1.222-3.071-1.372c-2.233-5.58-6.414-9.691-12.052-11.547
		c-0.33-0.117-0.672-0.22-1.022-0.307v0c-0.001,0-0.003-0.001-0.005-0.001s-0.003-0.001-0.005-0.001l0,0
		c-1.109-0.302-2.177-0.52-3.216-0.667c-0.075-0.011-0.153-0.029-0.228-0.038c-0.475-0.062-0.941-0.1-1.403-0.129
		c-0.078-0.005-0.158-0.017-0.236-0.021c-0.477-0.024-0.945-0.024-1.41-0.012c-0.059,0.001-0.119-0.003-0.178-0.001
		c-0.482,0.017-0.956,0.059-1.426,0.117c-0.038,0.005-0.077,0.005-0.114,0.01c-0.483,0.062-0.959,0.15-1.43,0.255
		c-0.022,0.005-0.046,0.007-0.068,0.012c-0.481,0.11-0.956,0.245-1.427,0.401c-0.011,0.004-0.023,0.006-0.034,0.01
		c-0.479,0.16-0.953,0.345-1.422,0.553c-0.002,0.001-0.004,0.002-0.006,0.002c-3.771,1.676-7.24,4.927-10.78,9.912l0.011-0.077
		c0.011-0.107,0.04-0.239,0.09-0.411c0.042-0.164,0.09-0.353,0.184-0.583c0.129-0.382,0.358-0.857,0.735-1.526
		c0.393-0.636,0.855-1.277,1.371-1.902c1.298-1.525,2.931-3.005,4.724-4.28c2.16-1.566,4.591-2.891,7.222-3.94
		c1.421-0.562,2.916-1.015,4.445-1.346c1.609-0.358,3.279-0.553,4.826-0.563c3.804,0.008,7.197,0.772,10.09,2.274
		c3.136,1.575,5.896,4.308,7.775,7.697c1.733,3.063,2.887,6.789,3.528,11.384c0.189,1.572,0.304,3.209,0.354,4.918
		C135.456,30.535,134.824,29.027,133.977,27.551z M149.696,66.107c-0.144-0.177-0.307-0.379-0.498-0.603
		c-1.457-1.711-1.307-2.392-0.814-4.648c0.145-0.664,0.31-1.417,0.472-2.36c0.07-0.412,0.144-0.873,0.22-1.357
		c0.267-1.683,0.893-5.622,1.486-5.781c0.602,0.159,1.228,4.099,1.494,5.781c0.076,0.484,0.15,0.945,0.22,1.357
		c0.162,0.943,0.326,1.696,0.472,2.36c0.494,2.256,0.643,2.937-0.813,4.648c-0.22,0.258-0.4,0.485-0.555,0.681
		c-0.396,0.498-0.579,0.719-0.767,0.735h-0.001l-0.038,0.004C150.361,66.917,150.151,66.668,149.696,66.107z"/>
	<path style="fill:#FFCC00;" d="M96.437,85.199c-1.094-0.849-1.512-1.425-1.882-1.933c-0.404-0.556-0.753-1.036-1.77-1.59
		c-0.747-0.408-1.18-0.137-1.601,0.125c-0.374,0.233-0.797,0.498-1.685,0.498c-0.888,0-1.312-0.265-1.685-0.498
		c-0.42-0.262-0.853-0.533-1.601-0.125c-1.017,0.554-1.366,1.034-1.77,1.59c-0.369,0.508-0.788,1.084-1.881,1.933
		c-0.344,0.267-0.341,0.516-0.278,0.679c0.114,0.29,0.434,0.411,1.279,0.411c0.644,0,1.593-0.07,2.987-0.189
		c1.084-0.093,2.205-0.188,2.949-0.188c0.743,0,1.865,0.095,2.949,0.188c1.395,0.119,2.343,0.189,2.987,0.189
		c0.845,0,1.166-0.121,1.279-0.411C96.778,85.716,96.781,85.466,96.437,85.199z"/>
	<path style="fill:#FFCC00;" d="M90.948,87.704c-0.286,0.078-1.13,0.148-1.828,0.129c-0.557-0.015-0.881-0.13-1.328-0.238
		c-1.196-0.287-2.981-0.447-3.155,0c-0.086,0.221,0.24,0.545,0.487,0.791c0.425,0.424,0.875,0.693,1.281,0.835
		c0.625,0.219,1.483,0.427,2.716,0.513c0.951,0.066,1.659-0.021,2.23-0.095c1.162-0.15,1.606-0.355,2.13-0.786
		c0.475-0.392,1.105-0.74,0.89-1.115C94.002,87.094,91.848,87.457,90.948,87.704z"/>
	<path style="fill:#FFCC00;" d="M92.182,78.008c0.097,0,0.189-0.008,0.271-0.022c0.382-0.064,0.62-0.267,1.08-0.685
		c0.215-0.195,0.398-0.346,0.546-0.467c0.382-0.313,0.683-0.561,0.574-0.961c-0.076-0.281-0.475-0.501-0.908-0.501
		c-0.29,0-0.729,0.096-1.178,0.551c-0.219,0.221-0.402,0.249-0.596,0.278c-0.181,0.027-0.428,0.064-0.593,0.295
		c-0.093,0.131-0.378,0.591-0.169,1.022C91.359,77.829,91.714,78.008,92.182,78.008z"/>
	<path style="fill:#FFCC00;" d="M84.92,76.833c0.148,0.122,0.332,0.272,0.547,0.468c0.459,0.418,0.697,0.622,1.08,0.685
		c0.082,0.013,0.174,0.022,0.271,0.022c0.468,0,0.823-0.178,0.973-0.49c0.208-0.432-0.077-0.891-0.17-1.023
		c-0.165-0.231-0.412-0.268-0.593-0.294c-0.194-0.029-0.376-0.056-0.595-0.278c-0.449-0.456-0.888-0.552-1.178-0.552
		c-0.433,0-0.832,0.219-0.909,0.501C84.238,76.273,84.539,76.52,84.92,76.833z"/>
</g>
</svg>
