<svg xmlns="http://www.w3.org/2000/svg" width="311.531" height="205" viewBox="0 0 311.531 205"><defs><style>.cls-1,.cls-2{fill-rule:evenodd}.cls-2{fill:#1b2127}</style></defs><path id="_" data-name="" class="cls-1" d="M112.574 166.86l-3.291 3.94-5.491-4.629 3.291-3.939a3.8 3.8 0 0 1 2.519-1.465 3.754 3.754 0 0 1 3.97 3.347 3.829 3.829 0 0 1-1 2.746zm-7.895-7.075l-5.544 6.635a.5.5 0 0 0 .063.725l7.709 6.5-2.3 2.758a.488.488 0 0 0-.12.381.511.511 0 0 0 .183.344l1.826 1.539a.5.5 0 0 0 .375.127.5.5 0 0 0 .347-.19l2.3-2.758 1.446 1.219-2.3 2.758a.506.506 0 0 0-.127.376.5.5 0 0 0 .19.348l1.568 1.323a.493.493 0 0 0 .722-.064l2.3-2.757 2.353 1.983a.5.5 0 0 0 .375.127.5.5 0 0 0 .347-.19l1.717-2.056a.512.512 0 0 0 .121-.37.489.489 0 0 0-.184-.355l-2.353-1.983 5.194-6.217a.5.5 0 0 0-.063-.725l-1.569-1.322a.491.491 0 0 0-.721.063l-5.194 6.217-1.447-1.221 3.5-4.185a7.265 7.265 0 0 0 1.862-5.28 7.3 7.3 0 0 0-7.72-6.509 7.206 7.206 0 0 0-4.853 2.759z" transform="translate(-81.469 -8)"/><path id="_copy_2" data-name=" copy 2" class="cls-1" d="M377.351 70.038l-4.816-1.777 2.516-6.726 4.815 1.777a3.8 3.8 0 0 1 2.226 1.88 3.756 3.756 0 0 1-1.82 4.864 3.825 3.825 0 0 1-2.921-.019zm4.013-9.812l-8.112-2.993a.5.5 0 0 0-.662.3l-3.532 9.443-3.371-1.244a.487.487 0 0 0-.4.015.508.508 0 0 0-.262.288l-.837 2.237a.491.491 0 0 0 .3.658l3.371 1.244-.659 1.773-3.372-1.247a.5.5 0 0 0-.661.3l-.719 1.922a.493.493 0 0 0 .3.658l3.371 1.244-1.078 2.883a.493.493 0 0 0 .3.658l2.514.927a.51.51 0 0 0 .389-.01.488.488 0 0 0 .276-.282l1.078-2.882 7.6 2.8a.5.5 0 0 0 .661-.3l.719-1.922a.493.493 0 0 0-.006-.4.5.5 0 0 0-.3-.263l-7.6-2.8.663-1.772 5.117 1.888a7.265 7.265 0 0 0 5.6-.019 7.3 7.3 0 0 0 3.537-9.458 7.206 7.206 0 0 0-4.228-3.645z" transform="translate(-81.469 -8)"/><path class="cls-2" d="M153.202 8.63a4.169 4.169 0 0 1 .741.225c-.3.059-.594.251-.421.6a.654.654 0 0 0 .986.119c.813-.574-.915-1.142-1.306-1.186-.156-.017-.156.225 0 .243zm1.079.393c.14.085.224.178.17.263a.461.461 0 0 1-.675.112c-.219-.266.242-.328.409-.322a.1.1 0 0 0 .1-.053zm3.813-2.717c.577.577-.525 1.585-1.075 1.662-.1.014-.153-.145-.046-.16a1.5 1.5 0 0 0 1.008-.831.465.465 0 0 0-.138-.656.5.5 0 0 0-.559-.009c-.2.18.147.349.272.378a.085.085 0 0 1-.045.163c-.257-.065-.6-.328-.376-.618a.677.677 0 0 1 .959.07zm-18.857 7.933c.891-.967.356-2.46-.49-3.22a3.668 3.668 0 0 0-4.193-.24 6.329 6.329 0 0 0-2.666 2.667 2.123 2.123 0 0 1 2.89.907.235.235 0 0 1-.377.281c-.672-.976-1.739-1.446-2.668-.481a.76.76 0 0 1-.189.263 3.589 3.589 0 0 0 1.023 4.2c.224.2-.063.571-.29.369-3.694-3.261.215-9.456 4.656-9.216 2.348.124 4.324 2.968 2.525 4.92-2.038 2.209-5.394-2.306-2.173-3.215.287-.082.469.349.176.432-2.48.7.081 4.169 1.776 2.333zM156.836 7a1.237 1.237 0 0 1-.123-2.057.4.4 0 1 1 .452.659c-.087.065-.17-.083-.084-.145.32-.236-.009-.585-.332-.328a1.145 1.145 0 0 0-.358.585 1.1 1.1 0 0 0 .532 1.141c.089.062 0 .207-.087.145zm36.669 8.007a2.287 2.287 0 0 0-.953-1.629l-.066-.121a2.193 2.193 0 0 0-.966-1.73 5.259 5.259 0 0 0-1.756-.958 53.281 53.281 0 0 1-6.6-4c-.236-.2-.472-.378-.712-.562a2.278 2.278 0 0 0-.385-.237 2.261 2.261 0 0 0-.334-.284 18.03 18.03 0 0 0-10.469-3.332 19.3 19.3 0 0 0-3.076.251 2.175 2.175 0 0 0-.558.171 2.309 2.309 0 0 0-.571.045c-.595.133-1.178.293-1.761.485a9.828 9.828 0 0 0-5.053-2.939A4.99 4.99 0 0 0 159.071 0h-.215a6.083 6.083 0 0 0-1.1.189 9.727 9.727 0 0 0-4.991 2.921 20.336 20.336 0 0 0-1.763-.484 2.274 2.274 0 0 0-.569-.045 2.3 2.3 0 0 0-.558-.171 19.331 19.331 0 0 0-3.076-.251A18.028 18.028 0 0 0 136.331 5.5a2.23 2.23 0 0 0-.338.287 2.328 2.328 0 0 0-.386.236c-.235.181-.472.364-.651.518a53.2 53.2 0 0 1-6.661 4.039 5.466 5.466 0 0 0-1.925 1.1 2.227 2.227 0 0 0-.773 1.549 3.604 3.604 0 0 1-.1.177 2.266 2.266 0 0 0-.948 1.615c-.188 1.86.691 3.743 2.615 5.6a1.968 1.968 0 0 0 .251.207 2.591 2.591 0 0 0 .224.234c.3.263.622.532.981.81a2.235 2.235 0 0 0-.362 1.351 9.074 9.074 0 0 0 .353 1.9 2.045 2.045 0 0 0 .2.476 2.061 2.061 0 0 0 .117.481 12.3 12.3 0 0 0 2.991 4.551 2.057 2.057 0 0 0 .392.3 2.071 2.071 0 0 0 .355.379 14.3 14.3 0 0 0 3.434 2.085 2.26 2.26 0 0 0 .708.18 2.244 2.244 0 0 0 .658.346A23.412 23.412 0 0 0 144.524 35h.02c.06 0 .117 0 .174-.008.367-.026 8.935-.721 13.651-6.254.072 0 .138-.006.206-.009a2.381 2.381 0 0 0 .383-.02h.092a2.216 2.216 0 0 0 .482.009h.155c4.713 5.541 13.29 6.236 13.652 6.263.056.019.11.019.209.019a23.447 23.447 0 0 0 7.046-1.092 2.291 2.291 0 0 0 .652-.346 2.25 2.25 0 0 0 .711-.18 14.409 14.409 0 0 0 3.434-2.082 2.2 2.2 0 0 0 .359-.378 2.041 2.041 0 0 0 .388-.3 12.26 12.26 0 0 0 2.992-4.547 1.933 1.933 0 0 0 .113-.482 2.034 2.034 0 0 0 .2-.476 9.376 9.376 0 0 0 .352-1.9 2.224 2.224 0 0 0-.361-1.351c.359-.278.681-.547.98-.81a2.781 2.781 0 0 0 .227-.234 2.432 2.432 0 0 0 .251-.21c1.919-1.854 2.8-3.738 2.609-5.6zm-28.764-9.29a16.265 16.265 0 0 1 2.818-.893l-.93 1.565c-.522-.37-1.506-.87-1.473-.074a.647.647 0 0 0 .7.7c.385-.077.358-.426.221-.7.155.092.31.192.43.281l-2.276 3.826a.551.551 0 0 0-.126-.065c-.532-.16-.855.535-.905.934a2.473 2.473 0 0 1-.786-1.162.123.123 0 0 0-.236.065 3.194 3.194 0 0 0 1.266 1.549l-.254.431c-.585-.168-1.52-.05-1.4.7a.566.566 0 0 0 .744.4l-.794 1.342a2.618 2.618 0 0 1-.255-.275.121.121 0 0 0 .134-.042.975.975 0 0 0 .049-.881c-.15-.331-.554-.08-.661.139a1.264 1.264 0 0 0 .592 1.292l-.957 1.609-.54-3.034.266-.437c.041-.006.086 0 .131-.009a1.111 1.111 0 0 0 .977-1.517.632.632 0 0 0-.111-.139l2.366-3.922c.4.441.93.827 1.11.213a.635.635 0 0 0-.437-.881.342.342 0 0 0-.361.148zm1.013.544c.107.127.34.526-.006.52a.456.456 0 0 1-.326-.6c.033-.095.158-.085.314-.03a.1.1 0 0 0 .018.107zm-1.644 4.37l-.523.878a1.183 1.183 0 0 1-.212-.1.11.11 0 0 0 .068-.095c.022-.2.38-.958.667-.686zm-1.049 1.759l-.143.246a.76.76 0 0 0-.126-.269.137.137 0 0 0-.039-.02 1.817 1.817 0 0 1 .308.044zm-.481.1c.472.642-.687.766-.544.142a.538.538 0 0 1 .577-.293.1.1 0 0 0-.033.151zm-1.165 1.68a.063.063 0 0 0-.01.042c-.026-.039-.056-.077-.08-.116a.7.7 0 0 1-.111-.334c-.006-.074.152-.372.248-.225a.707.707 0 0 1-.047.633zm-.317-2.342h-.033l.185-.3a.935.935 0 0 1-.132.881 1 1 0 0 1-.588.313l.391-.647a1.359 1.359 0 0 0 .243-.009c.155-.026.089-.26-.066-.234zm3.162-4.355c-.06-.154-.153-.606.173-.487a.453.453 0 0 1 .117.668c-.066.08-.18.03-.312-.071a.1.1 0 0 0 .022-.11zm-.29-.151l-.114-.136.161-.269a.756.756 0 0 0-.047.4zm-9.928-.4l.161.266a5.436 5.436 0 0 1-.113.136.713.713 0 0 0-.048-.4zm-.723-1.2l.7 1.165a.334.334 0 0 0-.362-.148.638.638 0 0 0-.436.881c.182.615.715.227 1.109-.216l2.357 3.921a.68.68 0 0 0-.11.139 1.114 1.114 0 0 0 .977 1.517c.045.008.09 0 .135.008l.263.438-.541 3.034-.956-1.608a1.263 1.263 0 0 0 .591-1.292c-.108-.222-.511-.47-.66-.139a.971.971 0 0 0 .047.878.119.119 0 0 0 .135.042 3.2 3.2 0 0 1-.251.275l-.8-1.34a.571.571 0 0 0 .745-.4c.125-.748-.811-.867-1.4-.695l-.254-.431a3.2 3.2 0 0 0 1.268-1.549.122.122 0 0 0-.236-.065 2.487 2.487 0 0 1-.789 1.162c-.051-.4-.374-1.1-.9-.934a.373.373 0 0 0-.125.065l-2.274-3.83a4.264 4.264 0 0 1 .431-.281c-.138.272-.168.618.218.695a.64.64 0 0 0 .7-.695c.036-.8-.947-.3-1.473.071l-.927-1.562a16.628 16.628 0 0 1 2.819.89zm.5 1.866c-.132.1-.245.151-.311.073a.454.454 0 0 1 .119-.671c.326-.116.234.337.171.49a.1.1 0 0 0 .021.107zm3.075 4.48a1.31 1.31 0 0 0 .242.008l.395.649a.977.977 0 0 1-.586-.313.927.927 0 0 1-.132-.881l.183.3h-.033c-.155-.027-.221.207-.066.234zm-.3 1.475c.093-.148.251.154.248.228a.74.74 0 0 1-.113.331c-.025.039-.055.077-.081.115a.059.059 0 0 0-.009-.038.7.7 0 0 1-.045-.636zm-1.154-1.194a.539.539 0 0 1 .577.29c.144.624-1.019.5-.544-.142a.1.1 0 0 0-.033-.148zm-.14 0a.1.1 0 0 0-.039.024.758.758 0 0 0-.125.266l-.144-.242a2.2 2.2 0 0 1 .308-.047zm-.834-.834l-.523-.881c.287-.269.646.488.666.686a.117.117 0 0 0 .072.095 1.142 1.142 0 0 1-.215.1zm-2.149-5.357c.156-.053.281-.065.317.03a.455.455 0 0 1-.329.6c-.346.006-.113-.393 0-.518a.1.1 0 0 0 .014-.109zM128.759 18.99c-1.587-1.528-2.032-2.779-1.933-3.752a1.4 1.4 0 0 0 .185.568c.574.964 1.536.169 2.032-.431.219-.266-.164-.648-.385-.378-1.734 2.1-1.51-1.449-.305-1.1 2.265.647 1.246 3.654.406 5.094zm5.257 6.765a15.49 15.49 0 0 1-.5 3.255 10.129 10.129 0 0 1-2.445-3.722 7.73 7.73 0 0 1 1.121-1.2c1.419-1.138 1.871.68 1.823 1.665zM184.542 29a15.468 15.468 0 0 1-.5-3.255c-.047-.982.4-2.8 1.827-1.665a7.945 7.945 0 0 1 1.117 1.2 10.034 10.034 0 0 1-2.444 3.72zm2.977-5.923a7.222 7.222 0 0 1-.272 1.425c-1.186-1.247-2.768-2.6-3.748-.419a6.2 6.2 0 0 0-.042 3.32 16.094 16.094 0 0 0 .47 2.156 11.95 11.95 0 0 1-2.887 1.748c1.635-1.855 2.549-4.388.445-6.142a2.927 2.927 0 0 0-.344-.242 2.551 2.551 0 0 0-.553-.316 1.035 1.035 0 0 0-.409-.079 2.2 2.2 0 0 0-1.874.269c-.944.715-.286 2.336.416 2.957a1.917 1.917 0 0 0 3.081-1.274 3.42 3.42 0 0 1 .248 1.682 5.59 5.59 0 0 1-2.188 3.6 20.879 20.879 0 0 1-6.347.973s-8.427-.627-12.45-5.925a1.891 1.891 0 0 0-1.441-.36v.014c-.039-.006-.075 0-.113-.009s-.075 0-.114.009v-.014a2.986 2.986 0 0 0-.367 0v.006a3.182 3.182 0 0 0-.368 0v.018c-.039-.006-.074-.006-.113-.009s-.072 0-.114.009v-.018a1.9 1.9 0 0 0-1.44.361c-4.023 5.3-12.451 5.925-12.451 5.925a20.983 20.983 0 0 1-6.347-.97 5.609 5.609 0 0 1-2.188-3.6 3.439 3.439 0 0 1 .248-1.683 1.917 1.917 0 0 0 3.081 1.275c.7-.618 1.36-2.241.415-2.953a2.2 2.2 0 0 0-1.87-.273 1.082 1.082 0 0 0-.409.08 2.6 2.6 0 0 0-.557.316 2.968 2.968 0 0 0-.34.245c-2.107 1.753-1.192 4.284.442 6.141a11.907 11.907 0 0 1-2.886-1.75 16.221 16.221 0 0 0 .469-2.156 6.206 6.206 0 0 0-.042-3.321c-.981-2.182-2.561-.824-3.748.42a7.27 7.27 0 0 1-.272-1.422c1.426-2.132-.478-2.98-.478-2.98-.331-.254-.625-.5-.9-.742a.039.039 0 0 1 .011-.011c.817-1.349 1.48-3.212.837-4.746a2.1 2.1 0 0 0-2.143-1.236 3.27 3.27 0 0 1 1.055-.63c1.521-.431 7.382-4.391 7.382-4.391.233-.192.463-.372.694-.547 2.624.213 4.422 3.388 6.932 4.027 1.866.473 4.283-.793 4.394-2.874a3.551 3.551 0 0 0-2.9-3.468c-1.928-.322-2.719 1.141-2.642 2.862a.316.316 0 0 0 .631 0c-.093-2.066 1.554-3.036 3.212-1.6a2.54 2.54 0 0 1-1.045 4.509c-3.1.73-5.078-3.1-7.938-3.917a15.886 15.886 0 0 1 11.865-2.7l8.3 13.965.948-5.319-4.689-7.8c.466-1.907 3.272-2.838 4.3-3.116a3.3 3.3 0 0 1 .67-.106v-.016a3.157 3.157 0 0 1 .669.1c1.028.278 3.834 1.21 4.3 3.12l-4.689 7.8.947 5.32 8.3-13.962a15.87 15.87 0 0 1 11.864 2.7c-2.857.819-4.835 4.648-7.937 3.918a2.539 2.539 0 0 1-1.046-4.507c1.659-1.434 3.305-.464 3.213 1.6-.019.4.612.4.63 0 .078-1.724-.714-3.184-2.642-2.866a3.562 3.562 0 0 0-2.9 3.471c.111 2.082 2.529 3.347 4.393 2.871 2.514-.638 4.31-3.814 6.934-4.027.23.177.46.358.693.55 0 0 5.861 3.959 7.382 4.388a3.246 3.246 0 0 1 1.055.632 2.1 2.1 0 0 0-2.143 1.236c-.642 1.532.021 3.4.837 4.743a.044.044 0 0 0 .012.012 18.52 18.52 0 0 1-.9.745m-7.839 7.41a.855.855 0 0 1-.125.036c-1.106.18-2.248-1.638-1.259-2.387a.933.933 0 0 1 .449-.171 1.813 1.813 0 0 0-.4.766 1.516 1.516 0 0 0 1.332 1.756zm.171-2.33c.14.053.275.112.386.166a.011.011 0 0 0 .008 0c.036.027.069.045.108.074a1.043 1.043 0 0 1 .11 1.667.079.079 0 0 0-.021-.008c-2.02-.184-1.557-2.049-.591-1.9zm-41.089.579a1.817 1.817 0 0 0-.4-.762.907.907 0 0 1 .449.168c.989.749-.153 2.567-1.256 2.387a1.044 1.044 0 0 1-.128-.035 1.518 1.518 0 0 0 1.333-1.757zm-2.095 1.331c-.009 0-.012.006-.021.006a1.04 1.04 0 0 1 .113-1.664.764.764 0 0 1 .108-.074.01.01 0 0 1 .006 0c.11-.056.242-.112.386-.168.965-.145 1.428 1.721-.592 1.9zm52.158-8.107c-.84-1.443-1.859-4.447.406-5.1 1.2-.346 1.429 3.2-.3 1.1-.221-.269-.6.115-.386.381.5.6 1.458 1.393 2.032.428a1.41 1.41 0 0 0 .186-.565c.1.97-.347 2.224-1.934 3.752zM160.894 5.6a.4.4 0 1 1 .452-.659 1.234 1.234 0 0 1-.126 2.055c-.086.065-.173-.083-.083-.142a1.112 1.112 0 0 0 .532-1.142 1.146 1.146 0 0 0-.359-.585c-.323-.26-.651.092-.332.328.087.062 0 .207-.084.145zm-.929.7a.677.677 0 0 1 .959-.071c.227.287-.119.553-.376.615a.083.083 0 0 1-.045-.16c.129-.032.472-.2.272-.378a.5.5 0 0 0-.556.006.466.466 0 0 0-.14.659 1.51 1.51 0 0 0 1.007.831c.107.014.062.174-.045.16-.547-.077-1.653-1.088-1.076-1.662zm3.586 3.264a.652.652 0 0 0 .986-.118c.174-.346-.119-.538-.421-.6a4.073 4.073 0 0 1 .741-.225c.156-.018.159-.263 0-.245-.391.044-2.119.615-1.306 1.185zm.732-.174a.46.46 0 0 1-.675-.11c-.054-.086.03-.177.171-.267a.094.094 0 0 0 .095.054c.168-.006.631.056.409.322zm-9.18 9.183s-2.57-5.165-7.788-5.165-11.1 5.165-11.1 5.165a11.114 11.114 0 0 0 8.287 4.1c5.215 0 10.6-4.1 10.6-4.1zm-7.788-2.9a6.287 6.287 0 0 1 4.587 2.3 15.846 15.846 0 0 1-7.4 2.451 8.131 8.131 0 0 1-4.8-1.653c1.952-1.354 4.976-3.1 7.615-3.1zm15.642 2.9s5.388 4.1 10.6 4.1a11.117 11.117 0 0 0 8.287-4.1s-5.887-5.163-11.1-5.163-7.787 5.163-7.787 5.163zm10.6 1.845c-2.7 0-5.583-1.384-7.409-2.457a6.259 6.259 0 0 1 4.593-2.291c2.642 0 5.672 1.747 7.627 3.1a8.1 8.1 0 0 1-4.811 1.647zm2.48 8.25c-1.4 2.084-4.653 2.365-6.685 1.132-2.525-1.532-4.19-4.382-7.522-3.944-.484.062-.478-.689 0-.751 2.991-.394 4.65 1.581 6.781 3.264 1.583 1.251 3.819 2.061 5.705.834 1.222-.8 2.439-2.59.553-3.6-.634-.34-2.988-.884-2.337.792a1.848 1.848 0 0 0 1.087 1.114.377.377 0 0 1-.382.651c-.828-.453-1.734-1.31-1.488-2.365a1.679 1.679 0 0 1 1.566-1.4c2.393.015 4.13 2.185 2.722 4.282zm9.742-9.68c-.226.2-.513-.172-.289-.37a3.592 3.592 0 0 0 1.022-4.2.8.8 0 0 1-.189-.26c-.929-.967-2-.494-2.668.481a.235.235 0 0 1-.377-.281 2.122 2.122 0 0 1 2.89-.911 6.335 6.335 0 0 0-2.666-2.667 3.661 3.661 0 0 0-4.193.242c-.845.76-1.38 2.253-.489 3.22 1.694 1.836 4.255-1.635 1.775-2.333-.294-.085-.114-.515.176-.434 3.222.908-.134 5.423-2.173 3.214-1.8-1.948.18-4.793 2.526-4.92 4.443-.237 8.35 5.958 4.655 9.219zm-29.548 6.865c-3.333-.435-5 2.412-7.522 3.947-2.033 1.233-5.29.952-6.686-1.132s.332-4.269 2.726-4.281a1.678 1.678 0 0 1 1.563 1.4c.245 1.055-.658 1.913-1.486 2.365a.377.377 0 0 1-.385-.648 1.862 1.862 0 0 0 1.09-1.116c.649-1.673-1.706-1.133-2.339-.792-1.886 1.014-.667 2.809.555 3.6 1.886 1.228 4.119.417 5.7-.833 2.134-1.68 3.793-3.658 6.782-3.265.478.062.483.816 0 .752zM107.202 178.63a4.14 4.14 0 0 1 .741.225c-.3.059-.594.251-.421.6a.653.653 0 0 0 .986.119c.813-.574-.915-1.141-1.306-1.186-.156-.017-.156.225 0 .243zm1.079.393c.14.085.224.178.17.263a.46.46 0 0 1-.675.112c-.219-.265.242-.328.409-.322a.1.1 0 0 0 .1-.053zm3.813-2.718c.577.577-.525 1.585-1.075 1.663-.1.014-.153-.146-.046-.16a1.5 1.5 0 0 0 1.008-.831.465.465 0 0 0-.138-.656.5.5 0 0 0-.559-.01c-.2.181.147.349.272.379a.085.085 0 0 1-.045.163c-.257-.065-.6-.329-.376-.618a.677.677 0 0 1 .959.07zm-18.857 7.934c.891-.968.356-2.46-.49-3.22a3.666 3.666 0 0 0-4.193-.24 6.328 6.328 0 0 0-2.666 2.667 2.123 2.123 0 0 1 2.89.908.235.235 0 0 1-.377.281c-.672-.976-1.739-1.446-2.668-.482a.762.762 0 0 1-.189.263 3.589 3.589 0 0 0 1.023 4.2c.224.2-.063.57-.29.369-3.694-3.261.215-9.456 4.656-9.216 2.348.125 4.324 2.968 2.525 4.92-2.038 2.209-5.394-2.306-2.173-3.214.287-.083.469.349.176.432-2.48.7.081 4.169 1.776 2.333zm17.6-7.239a1.236 1.236 0 0 1-.123-2.057.4.4 0 1 1 .452.659c-.087.065-.17-.083-.084-.145.32-.236-.009-.585-.332-.328a1.145 1.145 0 0 0-.358.585 1.1 1.1 0 0 0 .532 1.142c.089.062 0 .206-.087.144zm36.669 8.007a2.289 2.289 0 0 0-.953-1.629l-.066-.121a2.2 2.2 0 0 0-.966-1.73 5.276 5.276 0 0 0-1.756-.958 53.124 53.124 0 0 1-6.6-4 23.054 23.054 0 0 0-.712-.562 2.916 2.916 0 0 1-.719-.521 18.036 18.036 0 0 0-10.469-3.332 19.279 19.279 0 0 0-3.076.252 2.136 2.136 0 0 0-.558.171 2.353 2.353 0 0 0-.571.044c-.595.134-1.178.293-1.761.486a9.82 9.82 0 0 0-5.053-2.939 4.945 4.945 0 0 0-1.175-.168c-.092 0-.179.006-.215.009a6.071 6.071 0 0 0-1.1.189 9.724 9.724 0 0 0-4.991 2.921 20.336 20.336 0 0 0-1.763-.484 2.648 2.648 0 0 1-1.127-.216 19.3 19.3 0 0 0-3.076-.251 18.026 18.026 0 0 0-10.468 3.332 2.236 2.236 0 0 0-.338.286 2.3 2.3 0 0 0-.386.237c-.235.18-.472.364-.651.517a53.016 53.016 0 0 1-6.661 4.039 5.467 5.467 0 0 0-1.925 1.1 2.227 2.227 0 0 0-.773 1.55 3.604 3.604 0 0 1-.1.177 2.264 2.264 0 0 0-.948 1.614c-.188 1.86.691 3.743 2.615 5.6a2 2 0 0 0 .251.206 2.5 2.5 0 0 0 .224.234c.3.263.622.532.981.81a2.235 2.235 0 0 0-.362 1.351 9.081 9.081 0 0 0 .353 1.905 3.18 3.18 0 0 1 .317.957 12.3 12.3 0 0 0 2.991 4.551 2.065 2.065 0 0 0 .392.3 2.1 2.1 0 0 0 .355.378 14.3 14.3 0 0 0 3.434 2.085 2.293 2.293 0 0 0 .708.18 2.251 2.251 0 0 0 .658.346A23.409 23.409 0 0 0 98.524 205h.02a1.647 1.647 0 0 0 .174-.009c.367-.026 8.935-.721 13.651-6.253.072 0 .138-.007.206-.01a2.439 2.439 0 0 0 .383-.02h.092a2.274 2.274 0 0 0 .482.009h.155c4.713 5.542 13.29 6.237 13.652 6.263.056.006.11.006.209.009a23.422 23.422 0 0 0 7.046-1.091 3.074 3.074 0 0 1 1.363-.526 14.436 14.436 0 0 0 3.434-2.085 2.227 2.227 0 0 0 .359-.378 2.091 2.091 0 0 0 .388-.3 12.269 12.269 0 0 0 2.992-4.547 1.939 1.939 0 0 0 .113-.482 2.051 2.051 0 0 0 .2-.476 9.384 9.384 0 0 0 .352-1.905 2.225 2.225 0 0 0-.361-1.351c.359-.278.681-.546.98-.81a2.666 2.666 0 0 0 .227-.234 2.439 2.439 0 0 0 .251-.209c1.919-1.854 2.8-3.738 2.609-5.6zm-28.764-9.29a16.312 16.312 0 0 1 2.818-.893l-.93 1.565c-.522-.37-1.506-.87-1.473-.074a.646.646 0 0 0 .7.7c.385-.077.358-.426.221-.7.155.091.31.192.43.28l-2.274 3.827a.517.517 0 0 0-.126-.065c-.532-.16-.855.535-.905.934a2.478 2.478 0 0 1-.786-1.162.123.123 0 0 0-.236.065 3.2 3.2 0 0 0 1.266 1.549l-.254.432c-.585-.168-1.52-.05-1.4.7a.566.566 0 0 0 .744.4l-.794 1.342a2.533 2.533 0 0 1-.255-.275.12.12 0 0 0 .134-.041.975.975 0 0 0 .049-.881c-.15-.332-.554-.08-.661.139a1.264 1.264 0 0 0 .592 1.292l-.957 1.609-.54-3.034.266-.438c.041-.006.086 0 .131-.009a1.111 1.111 0 0 0 .977-1.517.64.64 0 0 0-.111-.139l2.363-3.923c.4.44.93.827 1.11.213a.635.635 0 0 0-.437-.881.341.341 0 0 0-.361.147zm1.013.545c.107.127.34.526-.006.52a.457.457 0 0 1-.326-.6c.033-.094.158-.085.314-.029a.1.1 0 0 0 .018.107zm-1.644 4.369l-.523.878a1.187 1.187 0 0 1-.212-.1.111.111 0 0 0 .068-.095c.022-.2.38-.957.667-.686zm-1.049 1.759l-.143.246a.759.759 0 0 0-.126-.269.175.175 0 0 0-.039-.021 1.982 1.982 0 0 1 .308.044zm-.481.1c.472.642-.687.766-.544.142a.538.538 0 0 1 .577-.293.1.1 0 0 0-.033.151zm-1.165 1.68a.061.061 0 0 0-.01.041c-.026-.038-.056-.077-.08-.116a.7.7 0 0 1-.111-.333c-.006-.074.152-.373.248-.225a.707.707 0 0 1-.047.633zm-.317-2.342h-.033l.185-.305a.937.937 0 0 1-.132.882 1 1 0 0 1-.588.313l.391-.647a1.428 1.428 0 0 0 .243-.009c.155-.027.089-.261-.066-.234zm3.162-4.356c-.06-.153-.153-.605.173-.487a.453.453 0 0 1 .117.668c-.066.08-.18.03-.312-.071a.1.1 0 0 0 .022-.11zm-.29-.15c-.039-.045-.075-.092-.114-.137l.161-.268a.756.756 0 0 0-.047.405zm-9.928-.4l.161.266c-.039.047-.074.091-.113.136a.713.713 0 0 0-.048-.4zm-.723-1.2l.7 1.165a.334.334 0 0 0-.362-.147.638.638 0 0 0-.436.881c.182.614.715.227 1.109-.217l2.357 3.921a.688.688 0 0 0-.11.139 1.113 1.113 0 0 0 .977 1.517c.045.009.09 0 .135.009l.263.437-.541 3.034-.956-1.609a1.262 1.262 0 0 0 .591-1.292c-.108-.221-.511-.47-.66-.138a.971.971 0 0 0 .047.878.117.117 0 0 0 .135.041 3.1 3.1 0 0 1-.251.275l-.8-1.34a.57.57 0 0 0 .745-.4c.125-.748-.811-.867-1.4-.695l-.254-.432a3.2 3.2 0 0 0 1.268-1.549.122.122 0 0 0-.236-.065 2.493 2.493 0 0 1-.789 1.162c-.051-.4-.374-1.1-.9-.934a.354.354 0 0 0-.125.065l-2.275-3.827a4.248 4.248 0 0 1 .431-.28c-.138.271-.168.617.218.694a.639.639 0 0 0 .7-.694c.036-.8-.947-.3-1.473.071l-.927-1.562a16.677 16.677 0 0 1 2.819.89zm.5 1.866c-.132.1-.245.151-.311.074a.454.454 0 0 1 .119-.671c.326-.116.234.337.171.49a.1.1 0 0 0 .021.107zm3.075 4.48a1.339 1.339 0 0 0 .242.008l.394.649a.979.979 0 0 1-.586-.313.928.928 0 0 1-.132-.881l.183.3h-.033c-.155-.027-.221.206-.066.234zm-.3 1.475c.093-.148.251.154.248.228a.743.743 0 0 1-.113.331c-.025.038-.055.077-.081.115a.058.058 0 0 0-.009-.038.7.7 0 0 1-.045-.636zm-1.154-1.2a.54.54 0 0 1 .577.29c.144.624-1.019.5-.544-.142a.1.1 0 0 0-.033-.148zm-.14 0a.092.092 0 0 0-.039.023.752.752 0 0 0-.125.266l-.144-.243a2.225 2.225 0 0 1 .308-.046zm-.834-.835l-.523-.881c.287-.268.646.489.666.686a.118.118 0 0 0 .072.095 1.151 1.151 0 0 1-.215.1zm-2.149-5.357c.156-.053.281-.065.317.029a.456.456 0 0 1-.329.6c-.346.006-.113-.393 0-.518a.1.1 0 0 0 .014-.109zM82.759 188.99c-1.587-1.528-2.032-2.779-1.933-3.752a1.4 1.4 0 0 0 .185.568c.574.964 1.536.168 2.032-.432.219-.266-.164-.648-.385-.378-1.734 2.1-1.51-1.449-.305-1.1 2.265.647 1.246 3.654.406 5.094zm5.257 6.765a15.481 15.481 0 0 1-.5 3.255 10.13 10.13 0 0 1-2.445-3.722 7.724 7.724 0 0 1 1.121-1.2c1.419-1.137 1.871.681 1.823 1.665zM138.542 199a15.461 15.461 0 0 1-.5-3.256c-.047-.981.4-2.8 1.827-1.664a7.955 7.955 0 0 1 1.117 1.2 10.037 10.037 0 0 1-2.445 3.72zm2.977-5.923a7.214 7.214 0 0 1-.272 1.425c-1.186-1.247-2.768-2.6-3.748-.419a6.2 6.2 0 0 0-.042 3.32 16.1 16.1 0 0 0 .47 2.156 11.965 11.965 0 0 1-2.887 1.747c1.635-1.854 2.549-4.388.445-6.141a2.967 2.967 0 0 0-.344-.243 2.568 2.568 0 0 0-.553-.316 1.036 1.036 0 0 0-.409-.08 2.21 2.21 0 0 0-1.874.269c-.944.715-.286 2.336.416 2.957a1.917 1.917 0 0 0 3.081-1.274 3.419 3.419 0 0 1 .248 1.682 5.591 5.591 0 0 1-2.188 3.6 20.881 20.881 0 0 1-6.347.973s-8.427-.627-12.45-5.925a1.89 1.89 0 0 0-1.441-.361v.015c-.039-.006-.075 0-.113-.009s-.075 0-.114.009v-.012a3.026 3.026 0 0 0-.367 0v.006a3.04 3.04 0 0 0-.368 0v.018c-.039-.006-.074-.006-.113-.009s-.072 0-.114.009v-.018a1.9 1.9 0 0 0-1.44.361c-4.023 5.3-12.451 5.925-12.451 5.925a20.982 20.982 0 0 1-6.347-.97 5.609 5.609 0 0 1-2.188-3.6 3.441 3.441 0 0 1 .248-1.683 1.917 1.917 0 0 0 3.081 1.275c.7-.618 1.36-2.241.415-2.954a2.2 2.2 0 0 0-1.87-.272 1.081 1.081 0 0 0-.409.08 2.653 2.653 0 0 0-.557.316 2.985 2.985 0 0 0-.34.246c-2.107 1.753-1.192 4.284.442 6.141a11.923 11.923 0 0 1-2.886-1.75 16.238 16.238 0 0 0 .469-2.156 6.207 6.207 0 0 0-.042-3.321c-.981-2.181-2.561-.824-3.748.42a7.262 7.262 0 0 1-.272-1.422c1.426-2.131-.478-2.98-.478-2.98-.331-.254-.625-.5-.9-.743a.038.038 0 0 1 .011-.011c.817-1.349 1.48-3.212.837-4.746a2.1 2.1 0 0 0-2.143-1.236 3.276 3.276 0 0 1 1.055-.63c1.521-.431 7.382-4.391 7.382-4.391.233-.191.463-.372.694-.546 2.624.213 4.422 3.388 6.932 4.027 1.866.473 4.283-.793 4.394-2.874a3.552 3.552 0 0 0-2.9-3.469c-1.928-.322-2.719 1.142-2.642 2.862a.316.316 0 0 0 .631 0c-.093-2.066 1.554-3.036 3.212-1.6a2.54 2.54 0 0 1-1.045 4.509c-3.1.73-5.078-3.1-7.938-3.917a15.884 15.884 0 0 1 11.865-2.7l8.3 13.964.948-5.318-4.689-7.8c.466-1.906 3.272-2.838 4.3-3.116a3.335 3.335 0 0 1 .67-.106v-.006a3.19 3.19 0 0 1 .669.1c1.028.279 3.834 1.21 4.3 3.12l-4.689 7.8.947 5.32 8.3-13.962a15.869 15.869 0 0 1 11.864 2.7c-2.857.819-4.835 4.647-7.937 3.918a2.539 2.539 0 0 1-1.046-4.507c1.659-1.434 3.305-.464 3.213 1.6-.019.4.612.4.63 0 .078-1.724-.714-3.184-2.642-2.866a3.563 3.563 0 0 0-2.9 3.472c.111 2.081 2.529 3.347 4.393 2.871 2.514-.638 4.31-3.814 6.934-4.027.23.177.46.358.693.55 0 0 5.861 3.959 7.382 4.388a3.25 3.25 0 0 1 1.055.632 2.1 2.1 0 0 0-2.143 1.236c-.642 1.532.021 3.4.837 4.743a.045.045 0 0 0 .012.012 18.52 18.52 0 0 1-.9.745m-7.839 7.41a.854.854 0 0 1-.125.035c-1.106.18-2.248-1.638-1.259-2.387a.948.948 0 0 1 .449-.171 1.817 1.817 0 0 0-.4.766 1.517 1.517 0 0 0 1.332 1.757zm.171-2.33c.14.053.275.112.386.165a.009.009 0 0 0 .008 0c.036.027.069.044.108.074a1.043 1.043 0 0 1 .11 1.667.071.071 0 0 0-.021-.008c-2.02-.184-1.557-2.049-.591-1.9zm-41.089.579a1.81 1.81 0 0 0-.4-.762.9.9 0 0 1 .449.168c.989.748-.153 2.566-1.256 2.386a1.1 1.1 0 0 1-.128-.035 1.519 1.519 0 0 0 1.333-1.757zm-2.095 1.33c-.009 0-.012.006-.021.006a1.04 1.04 0 0 1 .113-1.664.693.693 0 0 1 .108-.074.01.01 0 0 1 .006 0c.11-.056.242-.112.386-.168.965-.146 1.428 1.72-.592 1.9zm52.158-8.107c-.84-1.443-1.859-4.447.406-5.1 1.2-.346 1.429 3.205-.3 1.1-.221-.269-.6.115-.386.381.5.6 1.458 1.393 2.032.429a1.413 1.413 0 0 0 .186-.565c.1.97-.347 2.224-1.934 3.752zm-28.42-13.392a.4.4 0 1 1 .452-.659 1.234 1.234 0 0 1-.126 2.055c-.086.065-.173-.083-.083-.142a1.113 1.113 0 0 0 .532-1.142 1.147 1.147 0 0 0-.359-.585c-.323-.26-.651.092-.332.328.087.062 0 .207-.084.145zm-.929.7a.676.676 0 0 1 .959-.071c.227.287-.119.553-.376.615a.083.083 0 0 1-.045-.16c.129-.033.472-.2.272-.379a.5.5 0 0 0-.556.006.467.467 0 0 0-.14.66 1.51 1.51 0 0 0 1.007.831c.107.014.062.174-.045.16-.547-.078-1.653-1.089-1.076-1.662zm3.586 3.264a.652.652 0 0 0 .986-.118c.174-.346-.119-.538-.421-.6a4.079 4.079 0 0 1 .741-.225c.156-.018.159-.264 0-.245-.391.044-2.119.614-1.306 1.185zm.732-.174a.46.46 0 0 1-.675-.11c-.054-.085.03-.177.171-.266a.1.1 0 0 0 .095.053c.168-.006.631.056.409.323zm-9.18 9.183s-2.57-5.165-7.788-5.165-11.1 5.165-11.1 5.165a11.114 11.114 0 0 0 8.287 4.1c5.215 0 10.6-4.1 10.6-4.1zm-7.788-2.9a6.29 6.29 0 0 1 4.587 2.3 15.838 15.838 0 0 1-7.4 2.451 8.127 8.127 0 0 1-4.8-1.653c1.952-1.354 4.976-3.1 7.615-3.1zm15.642 2.9s5.388 4.1 10.6 4.1a11.117 11.117 0 0 0 8.287-4.1s-5.887-5.163-11.1-5.163-7.787 5.163-7.787 5.163zm10.6 1.844c-2.7 0-5.583-1.383-7.409-2.457a6.259 6.259 0 0 1 4.593-2.291c2.642 0 5.672 1.747 7.627 3.1a8.093 8.093 0 0 1-4.811 1.647zm2.48 8.25c-1.395 2.084-4.653 2.365-6.685 1.132-2.525-1.532-4.19-4.381-7.522-3.944-.484.062-.478-.689 0-.751 2.991-.393 4.65 1.581 6.781 3.264 1.583 1.25 3.819 2.061 5.705.834 1.222-.795 2.439-2.59.553-3.6-.634-.34-2.988-.884-2.337.792a1.846 1.846 0 0 0 1.087 1.114.378.378 0 0 1-.382.651c-.828-.452-1.734-1.31-1.488-2.365a1.679 1.679 0 0 1 1.566-1.405c2.393.015 4.13 2.185 2.722 4.282zm9.742-9.68c-.226.2-.513-.172-.289-.37a3.592 3.592 0 0 0 1.022-4.2.8.8 0 0 1-.189-.26c-.929-.967-2-.494-2.668.482a.235.235 0 0 1-.377-.281 2.122 2.122 0 0 1 2.89-.911 6.331 6.331 0 0 0-2.666-2.666 3.659 3.659 0 0 0-4.193.242c-.845.76-1.38 2.253-.489 3.22 1.694 1.836 4.255-1.635 1.775-2.333-.294-.086-.114-.515.176-.435 3.222.908-.134 5.423-2.173 3.214-1.8-1.948.18-4.793 2.526-4.92 4.443-.237 8.35 5.958 4.655 9.22zm-29.548 6.866c-3.333-.435-5 2.412-7.522 3.947-2.033 1.233-5.29.952-6.686-1.133s.332-4.269 2.726-4.281a1.678 1.678 0 0 1 1.563 1.4c.245 1.055-.658 1.913-1.486 2.365a.377.377 0 0 1-.385-.648 1.86 1.86 0 0 0 1.09-1.117c.649-1.673-1.706-1.133-2.339-.792-1.886 1.014-.667 2.809.555 3.6 1.886 1.228 4.119.418 5.7-.833 2.134-1.68 3.793-3.657 6.782-3.265.478.063.483.816 0 .752zm194.111-52.529a.479.479 0 0 0-.524-.307.584.584 0 0 0-.293.63 3.352 3.352 0 0 1-2.936 3.145 48.779 48.779 0 0 1-5.4.684 20.057 20.057 0 0 0-11.689 4.971 7.747 7.747 0 0 1 .951-3.726c1.146-.994-.25-2.426-1.415-2.226a11.151 11.151 0 0 0-4.23 1.676 4.951 4.951 0 0 0-.915.844c-.91.966-.235 1.088-.974.008a10.385 10.385 0 0 0-7.714-4.1 1.343 1.343 0 0 0-.513.049 1.257 1.257 0 0 0-.268.435 10.084 10.084 0 0 0 .387 8.639c.662 1.127.844.475-.434.863a4.936 4.936 0 0 0-1.165.443 11.012 11.012 0 0 0-3.371 3.028c-.69.948.007 2.813 1.415 2.226a8.051 8.051 0 0 1 3.812.779 19.842 19.842 0 0 0-9.623 8.219 46.934 46.934 0 0 1-2.975 4.5 3.406 3.406 0 0 1-4.148 1.239.6.6 0 0 0-.7-.014.463.463 0 0 0 .054.6c3.578 6.593 7.966 12.447 15.423 15.083 5.556 1.966 10.775.983 15.575-2.4a14.15 14.15 0 0 0 4.7-5.767 9.1 9.1 0 0 1 3.024-3.735 9.3 9.3 0 0 1 4.724-1.06 14.481 14.481 0 0 0 7.308-1.664c5.173-2.792 8.342-7 8.966-12.791.841-7.77-2.591-14.217-7.05-20.264zm-7.436 8.076a7.882 7.882 0 0 1 5.051.564 3.012 3.012 0 0 1 1.305 1.067 1.664 1.664 0 0 1 .3 1.053.885.885 0 0 1-.682.815.971.971 0 0 1-1-.358 16.128 16.128 0 0 0-1.243-1.426 4.711 4.711 0 0 0-3.6-1.405 5.5 5.5 0 0 0-1.9.461 4.242 4.242 0 0 1-.192.076 5.073 5.073 0 0 1 1.961-.847zm-5.026 2.95a6.969 6.969 0 0 1 4.707-1.071 2.5 2.5 0 0 1 1.586.72 1.228 1.228 0 0 1 .385.86.749.749 0 0 1-.471.708.833.833 0 0 1-.913-.119 6.287 6.287 0 0 0-2.219-1.136 4.151 4.151 0 0 0-3.92.878c-.105.082-.2.171-.3.256a4.1 4.1 0 0 1 1.147-1.1zm-3.825 4.415a5.323 5.323 0 0 1 2.978-2.5 1.894 1.894 0 0 1 1.538 0 1.289 1.289 0 0 1 .358.273.646.646 0 0 1 .086.739.69.69 0 0 1-.718.326 9.791 9.791 0 0 0-1.446-.1 3.343 3.343 0 0 0-3.122 2.273l-.03.077-.065-.025a9.081 9.081 0 0 1 .421-1.059zm-.9 3.231a4.551 4.551 0 0 1 1.567-1.814 1.548 1.548 0 0 1 1.29-.274.6.6 0 0 1 .5.632.641.641 0 0 1-.615.525 6.53 6.53 0 0 0-1.174.265 2.744 2.744 0 0 0-1.9 2.284l-.049.266a3.292 3.292 0 0 1 .379-1.884zM268.69 148.5a4.987 4.987 0 0 1 3.228-2 2.274 2.274 0 0 1 .709 1 3.252 3.252 0 0 1-.475 2.9 3.359 3.359 0 0 1-2.857-.842 2.23 2.23 0 0 1-.605-1.065zm1.749 2.49a3.569 3.569 0 0 1 1.913-.268 3.442 3.442 0 0 1 1.078-1.583 2.394 2.394 0 0 1 .973-.212 2.144 2.144 0 0 1 .06.976 3.878 3.878 0 0 1-1.609 1.608 3.937 3.937 0 0 1-2.168.73 2.219 2.219 0 0 1-.865-.479 2.342 2.342 0 0 1 .618-.772zm3.434 2.124a2.68 2.68 0 0 1-1.633.206.721.721 0 0 1-.451-.407.671.671 0 0 1 .283-.572 11.006 11.006 0 0 1 1.154-.245 11.116 11.116 0 0 1 .725-.918.69.69 0 0 1 .645 0 .711.711 0 0 1 .176.578 2.622 2.622 0 0 1-.9 1.361zm1.658-.074a1.9 1.9 0 0 1 .009.828 2.968 2.968 0 0 1-.656.835 3.033 3.033 0 0 1-1.048.22 1.968 1.968 0 0 1-.752-.369 1.9 1.9 0 0 1 .548-.6 2.377 2.377 0 0 1 .688-.138 2.213 2.213 0 0 1 .422-.548 1.928 1.928 0 0 1 .789-.228zm.661 15.744a3.373 3.373 0 0 1 1.888.485l-.265-.075a2.8 2.8 0 0 0-2.911.692 6.207 6.207 0 0 0-.752.927.646.646 0 0 1-.748.319.6.6 0 0 1-.359-.721 1.5 1.5 0 0 1 .814-1.023 4.594 4.594 0 0 1 2.333-.6zm-3.336-.611a9.5 9.5 0 0 1 1.15.087c0 .021 0 .046-.006.069l-.084-.007a3.367 3.367 0 0 0-3.435 1.785 9.509 9.509 0 0 0-.536 1.327.687.687 0 0 1-.61.5.66.66 0 0 1-.636-.4 1.24 1.24 0 0 1-.094-.436 1.839 1.839 0 0 1 .673-1.365 5.385 5.385 0 0 1 3.578-1.557zm-4.195.934c-.119.051-.244.1-.362.156a4.075 4.075 0 0 0-2.512 3.1 6.129 6.129 0 0 0 .071 2.465.8.8 0 0 1-.285.864.77.77 0 0 1-.853.111 1.243 1.243 0 0 1-.619-.719 2.435 2.435 0 0 1 .033-1.721 6.835 6.835 0 0 1 3.027-3.715 4.212 4.212 0 0 1 1.5-.54zm-8.062 8.455a7.59 7.59 0 0 1 1.683-4.732 5.019 5.019 0 0 1 1.627-1.374 2.56 2.56 0 0 1-.154.138 5.421 5.421 0 0 0-1.246 1.484 4.557 4.557 0 0 0-.286 3.813 15.4 15.4 0 0 0 .76 1.724.939.939 0 0 1-.109 1.042.9.9 0 0 1-1.038.25 1.7 1.7 0 0 1-.832-.722 2.937 2.937 0 0 1-.405-1.623zm.043 4.985a5.4 5.4 0 0 1-1.5-3.166 3.236 3.236 0 0 1 .148-1.535c0 .033 0 .067-.007.1a3.337 3.337 0 0 0 1.04 2.88 4.973 4.973 0 0 0 1.982 1.074.639.639 0 0 1 .324 1.1 1.107 1.107 0 0 1-.608.22 1.8 1.8 0 0 1-1.377-.672zm8.485 4.222a2.769 2.769 0 0 1-3.318 1.134 3.764 3.764 0 0 1-2.278-3.778c0-.382.049-.763.076-1.127a20.419 20.419 0 0 0 .459 2.529 2.642 2.642 0 0 0 2.685 2 2.112 2.112 0 0 0 2.029-1.295 1.992 1.992 0 0 0-.421-2.239 1.551 1.551 0 0 0-2.539.347 1.073 1.073 0 0 0-.1.8 1.748 1.748 0 0 0 .775.794.9.9 0 0 0 .839-.269 3.1 3.1 0 0 0 .118-1.158.8.8 0 0 1 .3 1.215 1.173 1.173 0 0 1-1.575.5 1.5 1.5 0 0 1-.747-1.932 2.007 2.007 0 0 1 3.17-.736 2.61 2.61 0 0 1 .531 3.211zm6.13-.721a1.532 1.532 0 0 1-2.683-.372 1.746 1.746 0 0 1 .1-1.165.772.772 0 0 1 1.072-.356.706.706 0 0 1 .464.874 2.546 2.546 0 0 0-.683-.592.671.671 0 0 0-.589.3 1.458 1.458 0 0 0 .08.971.955.955 0 0 0 1.188.458 1.228 1.228 0 0 0 .893-1.219 1.622 1.622 0 0 0-.914-1.522 1.651 1.651 0 0 0-1.778.165 2.109 2.109 0 0 0-.737 2.6 16.1 16.1 0 0 0 1.081 1.948c-2.058-1.229-2.369-3.843-.734-5.048a2.271 2.271 0 0 1 2.98.184 2.062 2.062 0 0 1 .263 2.769zm-10.432-5.142c-.876-.439-1.049-.908-.569-1.715a16.151 16.151 0 0 1 5.509-5.837 7.739 7.739 0 0 1 5.079-1.255 11.172 11.172 0 0 1 6.58 3.311c.469.427.25.876-.225 1.14-2.359 1.326-4.407 3.111-6.84 4.351a9.967 9.967 0 0 1-9.534 0zm15.981 2.614a2.258 2.258 0 0 1-2.006 1.689 2.308 2.308 0 0 1-2.269-1.368 3.021 3.021 0 0 1 1.338-3.8 3.272 3.272 0 0 0-.538 3.959 1.423 1.423 0 0 0 1.624.634 1.581 1.581 0 0 0 1.268-1.21 1.137 1.137 0 0 0-.8-1.492 1.12 1.12 0 0 0-1.373 1.026 2.442 2.442 0 0 0 .016.347c-.524-.866-.345-1.5.415-1.8a1.6 1.6 0 0 1 1.7.212 1.716 1.716 0 0 1 .622 1.807zm3.253-3.263a1.82 1.82 0 0 1-2.257.893 1.3 1.3 0 0 1-.367-2.3 1.563 1.563 0 0 1 1-.206.667.667 0 0 1 .571.795.61.61 0 0 1-.617.591 2.158 2.158 0 0 0 .324-.7.582.582 0 0 0-.4-.409 1.319 1.319 0 0 0-.8.3.8.8 0 0 0-.087 1.088 1.1 1.1 0 0 0 1.253.435 1.42 1.42 0 0 0 .459-2.541 1.886 1.886 0 0 0-2.373.028 13.782 13.782 0 0 0-1.363 1.368 2.683 2.683 0 0 1 4.054-1.838 1.917 1.917 0 0 1 .6 2.492zm-2.27-8.878c-.05-.031-.092-.067-.139-.1a2.242 2.242 0 0 0-1.429-.473 3.07 3.07 0 0 0-1.758.679.481.481 0 0 1-.628.032.463.463 0 0 1-.074-.638 1.068 1.068 0 0 1 .661-.481 3.5 3.5 0 0 1 2.3.2 2.879 2.879 0 0 1 1.127.794.17.17 0 0 1-.064-.013zm-2.689-10.527a6.364 6.364 0 0 1 .466 1.216 6.453 6.453 0 0 1-.907-.944 4.467 4.467 0 0 1-.868-1.848 4.554 4.554 0 0 1 1.309 1.576zm1.132-2.664a.746.746 0 0 1-.218-1.063c.06.166.076.234.106.3a.81.81 0 0 0 1.065.519.78.78 0 0 0 .444-1.04 1.105 1.105 0 0 0-1.042-.867 1.013 1.013 0 0 0-1.141.7 4.333 4.333 0 0 0-.021 1.566 4.222 4.222 0 0 0 .518 1.048c-.324-.281-.532-.459-.738-.637 0 .008 0 .014.009.02a5.3 5.3 0 0 1 .742 3.3c-.069-.31-.114-.476-.141-.642a5.26 5.26 0 0 0-3.336-4.19 5.212 5.212 0 0 0 2.366 4.798c.137.1.268.21.521.406a5.421 5.421 0 0 1-2.691-2.1c-.007 0-.01-.01-.017-.015.073.259.144.522.26.932a4.176 4.176 0 0 0-.73-.916 4.456 4.456 0 0 0-1.439-.663 1.012 1.012 0 0 0-1.135.708 1.085 1.085 0 0 0 .337 1.3.8.8 0 0 0 1.142.059.787.787 0 0 0-.009-1.172c-.049-.055-.1-.1-.229-.225a.759.759 0 0 1 .875.656 1.09 1.09 0 0 1-.669 1.219 1.414 1.414 0 0 1-1.92-1.406 1.55 1.55 0 0 1 .978-1.449 2 2 0 0 1 2.109.5c.145.15.286.3.43.454a.076.076 0 0 1 .017.022 7.011 7.011 0 0 1-.607-3.736 7.157 7.157 0 0 1 3.142 2.167.172.172 0 0 1-.01-.026v.005c-.076-.192-.153-.386-.227-.579a1.934 1.934 0 0 1 .461-2.092 1.592 1.592 0 0 1 1.748-.238 1.389 1.389 0 0 1 .446 2.319 1.117 1.117 0 0 1-1.4.061zm7.022 8.265a2.169 2.169 0 0 0-.19 1.476c.01.056.022.11.031.167a.148.148 0 0 1-.018.06 2.815 2.815 0 0 1-.233-1.347 3.364 3.364 0 0 1 .821-2.131 1.068 1.068 0 0 1 .725-.38.476.476 0 0 1 .552.345.469.469 0 0 1-.3.542 3.05 3.05 0 0 0-1.384 1.268zm6.523 6.956a1.415 1.415 0 0 0 1.477-.441 1.061 1.061 0 0 0 .149-1.3.829.829 0 0 0-1.03-.4 1.3 1.3 0 0 0-.624.576.577.577 0 0 0 .2.535 2.238 2.238 0 0 0 .783.019.617.617 0 0 1-.808.291.663.663 0 0 1-.476-.853 1.522 1.522 0 0 1 .624-.8 1.324 1.324 0 0 1 1.934 1.325 1.8 1.8 0 0 1-1.8 1.617 1.956 1.956 0 0 1-2.013-1.617c-.337-1.722 1.4-3.214 3.442-2.8a13.98 13.98 0 0 0-1.84.616 1.833 1.833 0 0 0-1.06 2.095 1.414 1.414 0 0 0 1.041 1.139zm7.239-1.949a2.275 2.275 0 0 1-2.414 1.046 1.741 1.741 0 0 1-1.379-1.338 1.548 1.548 0 0 1 .549-1.606c.605-.541 1.262-.427 1.825.418a2.217 2.217 0 0 0-.311-.168 1.127 1.127 0 0 0-1.534.773 1.142 1.142 0 0 0 1.012 1.363 1.606 1.606 0 0 0 1.656-.6 1.387 1.387 0 0 0 .129-1.722 3.785 3.785 0 0 0-1.3-1.092 3.883 3.883 0 0 0-2.546-.151 3.118 3.118 0 0 1 4.05.467 2.251 2.251 0 0 1 .261 2.606zm-8.945-1.638a.667.667 0 0 1-1.141-.3 10.858 10.858 0 0 1-.155-7.288 7.565 7.565 0 0 1 3.356-3.964 16.433 16.433 0 0 1 7.724-2.353 1.05 1.05 0 0 1 1.317 1.252 9.671 9.671 0 0 1-4.154 8.466c-2.191 1.622-4.71 2.664-6.947 4.182zm14.257-2.461a16.354 16.354 0 0 0-1.307-1.808 2.175 2.175 0 0 0-2.7-.478 1.64 1.64 0 0 0 .066 2.982 1.251 1.251 0 0 0 1.5-.262.927.927 0 0 0 .1-1.255 1.515 1.515 0 0 0-.851-.493.666.666 0 0 0-.533.391 2.543 2.543 0 0 0 .243.864.711.711 0 0 1-.6-.793.764.764 0 0 1 .792-.8 1.825 1.825 0 0 1 1.106.421 1.5 1.5 0 0 1-.829 2.545 2.113 2.113 0 0 1-2.412-1.439 2.2 2.2 0 0 1 1.129-2.727c1.81-.927 4.061.487 4.287 2.849zm2.8-6.268a2.734 2.734 0 0 1-2.48 2.454 2.668 2.668 0 0 1-2.7-1.869 1.974 1.974 0 0 1 2.051-2.5 1.518 1.518 0 0 1 1.439 1.5 1.163 1.163 0 0 1-1.147 1.184.816.816 0 0 1-.979-.794 3.255 3.255 0 0 0 1.11.4.881.881 0 0 0 .608-.627 1.71 1.71 0 0 0-.387-1.033 1.107 1.107 0 0 0-.776-.26 1.522 1.522 0 0 0-1.422 2.1 2.043 2.043 0 0 0 1.86 1.349 2.12 2.12 0 0 0 2.065-1.239 2.585 2.585 0 0 0-.654-3.253 20.99 20.99 0 0 0-2.105-1.505c.341.136.71.255 1.059.425a3.768 3.768 0 0 1 2.457 3.667zm-2.64-6.92a1.735 1.735 0 0 1 .013 1.513 1.07 1.07 0 0 1-.464.447.648.648 0 0 1-.862-.764 4.794 4.794 0 0 0-.115-2.23 3.393 3.393 0 0 0-2.177-2.179c-.032-.01-.064-.023-.1-.036a3.351 3.351 0 0 1 1.465.536 5.449 5.449 0 0 1 2.235 2.713zM55.671 52.669a2.132 2.132 0 0 1-1.8 1.981c-1.29.38-2.6.7-3.9 1.01a20.074 20.074 0 0 0-8.746 4.189 27.514 27.514 0 0 0-5.061 5.7 6.77 6.77 0 0 1-4.283 3.187c-.315.094-.628.194-.935.3.529-3.125-3.309-5.588-2.057-8.748-3.905 2.01-5.583 3.562-6.463 6.848a6.672 6.672 0 0 0 .949 5.977c-.135.111-.277.217-.4.332a7.639 7.639 0 0 1-1.123-6.795 10.345 10.345 0 0 1 1.269-2.979 4.76 4.76 0 0 1-1.393-3.572c-3.626 3.558-4.947 5.846-4.788 9.773.118 2.96 1.507 5.442 3.379 6.433-.114.152-.229.307-.342.462a7.363 7.363 0 0 0-4.424-2.194c-3.367-.479-5.4 3.955-8.8 3.06 2.442 3.632 4.177 5.113 7.541 5.593a8.784 8.784 0 0 0 1.454.079 1.915 1.915 0 0 1-1.8.427 29.2 29.2 0 0 0 9.942 9.946 14.823 14.823 0 0 0 7.924 2.124c4.6-.162 7.829-2.939 10.455-6.738a11.427 11.427 0 0 0 1.376-2.675 7.711 7.711 0 0 1 2.24-3.579 7.478 7.478 0 0 1 4.008-1.072 11.388 11.388 0 0 0 2.956-.549c4.393-1.425 7.792-3.578 9.268-7.942a14.84 14.84 0 0 0 .238-8.2 29.242 29.242 0 0 0-6.677-12.379zM27.105 91.807a.235.235 0 0 1-.439.17c-.537-1.345-1.113-2.367-2.691-2.247a12.734 12.734 0 0 1-3.042 0c-2.213-.361-3.182-1.637-2.247-3.787a.235.235 0 0 1 .432.185c-1.546 3.559 2.788 3.188 5.011 3.128 1.7-.049 2.388 1.087 2.976 2.555zm8.84-.277c-.143-.264.3-.434.441-.172 1.6 2.911 2.087-1.093.827-1.385-1.036-.236-2.15 1.387-2.714 2.049a8.862 8.862 0 0 1-2.467 2.286 2.429 2.429 0 0 1-3.571-2.415 2 2 0 0 1 3.647-.963.237.237 0 0 1-.38.282c-1.133-1.451-2.936-.413-2.818 1.267a2.075 2.075 0 0 0 1.734 1.69 2.594 2.594 0 0 0 1.887-.769c1.224-.975 2.776-4.087 4.635-3.9 2.248.228.957 6-1.221 2.032zm-5.463-2.1c-4.769.772-9.486-3.962-9.486-3.962s3.177-4.956 7.947-5.729 9.327 2.938 9.327 2.938-3.015 5.983-7.788 6.753zm.4-14.585c-.085 1.161-.442 2.08-.8 2.057s-.568-.988-.478-2.148a8.482 8.482 0 0 1 .834-2.619 8.432 8.432 0 0 1 .441 2.71zm3.817-.293c.471 1.441.5 2.723.056 2.867s-1.172-.905-1.642-2.347a11.044 11.044 0 0 1-.281-3.563 10.978 10.978 0 0 1 1.867 3.043zm6.136 2.6c-.59.439-2.234-.776-3.673-2.71a17.487 17.487 0 0 1-2.238-5.232 17.482 17.482 0 0 1 4.37 3.645c1.439 1.933 2.131 3.857 1.541 4.3zm1.782-5.9c-.264.379-1.485-.012-2.729-.874a11.007 11.007 0 0 1-2.381-2.664A10.975 10.975 0 0 1 40.84 69c1.243.866 2.038 1.868 1.776 2.247zm-1.073-5.7c1.135.249 1.994.733 1.918 1.076s-1.063.424-2.2.173a8.431 8.431 0 0 1-2.472-1.2 8.5 8.5 0 0 1 2.753-.051zm6.131 10.121s-2.241-5.43-.135-9.779 7.769-5.969 7.769-5.969 3.178 5.879 1.07 10.226-8.7 5.521-8.7 5.521zm12.886-2.6a8.77 8.77 0 0 1-2.9 1.707c-.8.352-2.673.955-2.741 2.014-.084 1.289 3.893 1.972 1.562-.4-.208-.213.079-.586.29-.37 3.179 3.224-2.723 2.8-2.295.585.353-1.837 3.781-2.427 5.064-3.319a2.6 2.6 0 0 0 1.284-1.589 2.072 2.072 0 0 0-1.121-2.144c-1.576-.6-3.089.831-2.026 2.335a.235.235 0 0 1-.377.281 2 2 0 0 1 1.969-3.217 2.429 2.429 0 0 1 1.289 4.113zm-1.257-11.564a21.381 21.381 0 0 1-.938 3.109c-.462 1.394.408 2.2 1.451 3.029a.237.237 0 0 1-.293.371c-1.2-.956-2.173-1.99-1.593-3.584.769-2.11 2.241-6.15-1.557-5.7a.235.235 0 0 1-.053-.467c.864-.1 2.1-.145 2.637.716a3.563 3.563 0 0 1 .346 2.524zM11.898 83.364a7.648 7.648 0 0 1-4.367.6c-3.365-.48-5.1-1.961-7.542-5.593 3.4.894 5.436-3.539 8.8-3.057a8.338 8.338 0 0 1 1.9.5c-1.239.852-2.349 1.532-3.693 1.178l-1.81-.477 1.045 1.551c1.8 2.677 3.333 4.4 5.666 5.3zM2.131 72.7l-1.19-.368 1.142-.51c3.712-1.652 6.118-2.223 9.357-.914.149.276.311.552.5.838A8.086 8.086 0 0 0 14.093 74a8.531 8.531 0 0 0-2.787 1.394 9 9 0 0 0-1.005-.466c-1.872-.721-3.676.325-5.477.971-.614-1.428-1.231-2.742-2.7-3.2zm9.712-1.628c-.137-.059-.269-.11-.4-.164-1.34-2.484-1.265-4.715-.248-8.527 1.082 2.183 3.664 2.176 5.76 2.92a10.5 10.5 0 0 0-.821 4.84 9.63 9.63 0 0 0 1.085 4.119 8.957 8.957 0 0 0-1.489-.342 3.552 3.552 0 0 0-.427-.039 8.134 8.134 0 0 0-3.457-2.806zm0 0"/></svg>