<svg xmlns="http://www.w3.org/2000/svg" width="326.78" height="238.94" viewBox="0 0 326.78 238.94"><defs><style>.cls-1,.cls-2{fill-rule:evenodd}.cls-2{fill:#1b2127}</style></defs><path id="shape" class="cls-1" d="M1204.57 1726.86l-3.29 3.94-5.49-4.63 3.29-3.94a3.778 3.778 0 0 1 2.52-1.46 3.407 3.407 0 0 1 2.66.87 3.447 3.447 0 0 1 1.31 2.47 3.814 3.814 0 0 1-1 2.75zm-7.89-7.07l-5.54 6.63a.507.507 0 0 0-.13.38.5.5 0 0 0 .19.35l7.71 6.49-2.31 2.76a.541.541 0 0 0-.12.38.533.533 0 0 0 .19.35l1.82 1.53a.507.507 0 0 0 .38.13.459.459 0 0 0 .34-.19l2.31-2.76 1.44 1.22-2.3 2.76a.507.507 0 0 0-.13.38.583.583 0 0 0 .19.35l1.57 1.32a.5.5 0 0 0 .38.12.459.459 0 0 0 .34-.19l2.31-2.75 2.35 1.98a.485.485 0 0 0 .37.13.514.514 0 0 0 .35-.19l1.72-2.06a.5.5 0 0 0 .12-.37.483.483 0 0 0-.18-.35l-2.36-1.99 5.2-6.21a.541.541 0 0 0 .12-.38.478.478 0 0 0-.19-.35l-1.57-1.32a.485.485 0 0 0-.37-.13.514.514 0 0 0-.35.19l-5.19 6.22-1.45-1.22 3.5-4.19a7.261 7.261 0 0 0 1.86-5.28 6.736 6.736 0 0 0-2.56-4.81 6.637 6.637 0 0 0-5.16-1.69 7.142 7.142 0 0 0-4.85 2.76z" transform="translate(-1151.47 -1553.34)"/><path id="copy_2" data-name="copy 2" class="cls-1" d="M1469.35 1630.04l-4.82-1.78 2.52-6.73 4.82 1.78a3.79 3.79 0 0 1 2.22 1.88 3.754 3.754 0 0 1-1.82 4.87 3.834 3.834 0 0 1-2.92-.02zm4.01-9.81l-8.11-3a.5.5 0 0 0-.4.01.5.5 0 0 0-.26.29l-3.53 9.45-3.37-1.25a.5.5 0 0 0-.4.02.466.466 0 0 0-.26.29l-.84 2.23a.5.5 0 0 0 .01.4.471.471 0 0 0 .29.26l3.37 1.25-.66 1.77-3.37-1.25a.5.5 0 0 0-.4.01.518.518 0 0 0-.26.3l-.72 1.92a.525.525 0 0 0 0 .39.534.534 0 0 0 .3.27l3.37 1.24-1.08 2.88a.5.5 0 0 0 .01.4.49.49 0 0 0 .3.26l2.51.93a.526.526 0 0 0 .39-.01.476.476 0 0 0 .27-.3l1.08-2.88 7.6 2.81a.479.479 0 0 0 .39-.01.5.5 0 0 0 .27-.3l.72-1.92a.479.479 0 0 0-.01-.39.486.486 0 0 0-.29-.27l-7.6-2.8.66-1.77 5.12 1.89a7.257 7.257 0 0 0 5.59-.02 7.286 7.286 0 0 0 3.54-9.46 7.18 7.18 0 0 0-4.23-3.64z" transform="translate(-1151.47 -1553.34)"/><path class="cls-2" d="M80.75 45.92a3.092 3.092 0 0 1-2.6 2.89c-1.87.56-3.77 1.04-5.67 1.5a29.246 29.246 0 0 0-12.68 6.16 40.012 40.012 0 0 0-7.31 8.33 9.859 9.859 0 0 1-6.2 4.67c-.46.14-.91.29-1.36.44.74-4.55-4.85-8.1-3.06-12.7-5.66 2.95-8.09 5.22-9.34 10.01-.9 3.42-.26 6.75 1.43 8.68-.2.16-.4.32-.59.49-1.94-2.29-2.69-6.05-1.69-9.87a15.269 15.269 0 0 1 1.82-4.35 6.932 6.932 0 0 1-2.05-5.18c-5.24 5.2-7.15 8.54-6.88 14.25.19 4.3 2.23 7.9 4.96 9.33-.16.22-.33.44-.49.67a10.775 10.775 0 0 0-6.45-3.16c-4.9-.66-7.83 5.8-12.78 4.52 3.58 5.27 6.12 7.4 11.01 8.08a13.92 13.92 0 0 0 2.12.1 2.791 2.791 0 0 1-2.61.63c3.9 5.92 8.42 10.96 14.53 14.38a21.5 21.5 0 0 0 11.54 3.03c6.69-.27 11.36-4.34 15.15-9.88a17.035 17.035 0 0 0 1.98-3.9 11.165 11.165 0 0 1 3.23-5.22c1.38-1.04 3.43-1.45 5.81-1.59a16.784 16.784 0 0 0 4.3-.82c6.37-2.11 11.3-5.27 13.41-11.63a21.564 21.564 0 0 0 .28-11.92c-1.61-6.82-5.2-12.56-9.81-17.94zm-41.22 57.13a.339.339 0 0 1-.63.25c-.79-1.95-1.64-3.43-3.93-3.25a18.239 18.239 0 0 1-4.43.02c-3.22-.5-4.64-2.35-3.29-5.48a.341.341 0 0 1 .63.26c-2.22 5.19 4.07 4.61 7.31 4.51 2.47-.09 3.48 1.56 4.34 3.69zm12.85-.47c-.21-.39.43-.64.64-.26 2.35 4.22 3.03-1.6 1.19-2.02-1.5-.33-3.11 2.04-3.93 3a12.751 12.751 0 0 1-3.56 3.35 3.531 3.531 0 0 1-5.21-3.48 2.9 2.9 0 0 1 5.29-1.43.343.343 0 0 1-.55.41c-1.66-2.1-4.27-.58-4.09 1.86a3.039 3.039 0 0 0 2.54 2.45 3.757 3.757 0 0 0 2.73-1.14c1.78-1.43 4.01-5.97 6.71-5.71 3.27.32 1.44 8.72-1.76 2.97zm-7.96-3.02c-6.92 1.16-13.82-5.68-13.82-5.68s4.58-7.23 11.51-8.4c6.93-1.15 13.58 4.2 13.58 4.2s-4.33 8.72-11.27 9.88zm.47-21.21c-.12 1.69-.63 3.03-1.14 3s-.84-1.43-.72-3.12a12.32 12.32 0 0 1 1.2-3.81 12.406 12.406 0 0 1 .66 3.93zm5.55-.45c.69 2.09.74 3.95.1 4.16s-1.71-1.3-2.41-3.39a15.945 15.945 0 0 1-.43-5.18 16.092 16.092 0 0 1 2.74 4.41zm8.94 3.72c-.86.65-3.26-1.11-5.36-3.91s-3.3-7.58-3.3-7.58 4.27 2.46 6.38 5.26 3.13 5.59 2.28 6.23zm2.54-8.58c-.38.55-2.16-.01-3.97-1.25a15.906 15.906 0 0 1-3.49-3.85 15.77 15.77 0 0 1 4.86 1.85c1.81 1.24 2.98 2.7 2.6 3.25zm-1.61-8.28c1.66.36 2.91 1.05 2.8 1.55s-1.54.63-3.19.27a12.2 12.2 0 0 1-3.61-1.72 12.442 12.442 0 0 1 4-.1zm9 14.67s-3.3-7.88-.27-14.22 11.24-8.74 11.24-8.74 4.67 8.53 1.64 14.86-12.61 8.1-12.61 8.1zm18.71-3.89a12.53 12.53 0 0 1-4.2 2.51c-1.15.52-3.87 1.41-3.97 2.95-.11 1.87 5.68 2.83 2.27-.59-.3-.31.11-.85.42-.54 4.65 4.66-3.93 4.1-3.33.87.5-2.67 5.48-3.56 7.34-4.87a3.786 3.786 0 0 0 1.85-2.32 3.015 3.015 0 0 0-1.65-3.11c-2.29-.85-4.48 1.24-2.92 3.42a.343.343 0 0 1-.55.41 2.915 2.915 0 0 1 2.84-4.7 3.529 3.529 0 0 1 1.9 5.97zm-1.92-16.8a30.951 30.951 0 0 1-1.33 4.53c-.66 2.03.61 3.2 2.13 4.39a.342.342 0 0 1-.42.54c-1.76-1.38-3.18-2.87-2.35-5.19 1.1-3.08 3.21-8.96-2.31-8.28a.337.337 0 0 1-.08-.67c1.26-.16 3.05-.23 3.84 1.01a5.184 5.184 0 0 1 .52 3.67zM17.36 90.9a11.2 11.2 0 0 1-6.35.9c-4.9-.67-7.43-2.81-11.01-8.07 4.95 1.27 7.88-5.19 12.77-4.52a11.489 11.489 0 0 1 2.77.72c-1.79 1.24-3.4 2.24-5.36 1.74l-2.63-.68 1.53 2.25c2.63 3.88 4.88 6.36 8.28 7.66zM3.06 75.47l-1.73-.53 1.66-.75c5.38-2.43 8.88-3.28 13.59-1.4.22.4.46.8.73 1.21a11.865 11.865 0 0 0 3.16 3.26 12.243 12.243 0 0 0-4.04 2.05 11.423 11.423 0 0 0-1.46-.67c-2.73-1.04-5.35.5-7.96 1.45-.9-2.07-1.81-3.97-3.95-4.62zm14.11-2.45c-.2-.08-.39-.15-.59-.23-1.96-3.6-1.87-6.85-.42-12.4 1.59 3.17 5.34 3.14 8.39 4.2a15.313 15.313 0 0 0-1.15 7.05 13.909 13.909 0 0 0 1.61 5.98 12.9 12.9 0 0 0-2.17-.49 4.318 4.318 0 0 0-.62-.05 11.859 11.859 0 0 0-5.05-4.06zm250.01 111.45a4.448 4.448 0 0 1-2.71 2.91 1.668 1.668 0 0 0-.36-.65 3.065 3.065 0 0 0 .36-.11 3.223 3.223 0 0 0 1.27-.83 4.647 4.647 0 0 0 .89-4.63c-.12-.38-.27-.72-.41-1.05-.1-.23-.2-.47-.28-.71a6.039 6.039 0 0 1 1.19-6.32 5.752 5.752 0 0 1 5.85-1.97 3.95 3.95 0 0 0 .25 1.12 1.6 1.6 0 0 0-.44.29l-.03.03c-.04-.03-.09-.06-.14-.09a4.239 4.239 0 0 0-5.29.55 4.352 4.352 0 0 0-.3 5.47 3.9 3.9 0 0 0 .65.69 1.621 1.621 0 0 0-.88.75 1.655 1.655 0 0 0 0 1.6 3.628 3.628 0 0 1 .38 2.95zm38.43-40.34a3.438 3.438 0 0 1-.8 1.31 4.488 4.488 0 0 1-3.97 1.18 10.214 10.214 0 0 1-1.79-.54c-.15-.05-.3-.1-.45-.16a5.969 5.969 0 0 0-6.3 1.19 5.714 5.714 0 0 0-1.96 5.86l.03.18a3.745 3.745 0 0 1 1.21.2 1.619 1.619 0 0 1 .27-.41.035.035 0 0 0-.01-.02 4.085 4.085 0 0 1-.44-4.46 3.757 3.757 0 0 1 4.05-2.16 5.944 5.944 0 0 1 2.75 1.5 1.562 1.562 0 0 1 .43-.81 1.261 1.261 0 0 1 .31-.25 1.624 1.624 0 0 1 1.57-.09c2.34 1.09 3.53.12 3.93-.2a8.677 8.677 0 0 0 1.87-2.37 1.676 1.676 0 0 1-.61-.34 2.84 2.84 0 0 1-.09.39zm-25.74 14.22a4.244 4.244 0 0 1-1.92-3.28 6.163 6.163 0 0 1 .06-1.22 1.583 1.583 0 0 1-.63.22c.04.24.09.49.13.75.1.53.19 1.07.3 1.62a1.658 1.658 0 0 1-.43 1.46v.01a1.643 1.643 0 0 1-1.44.47c-.57-.08-1.15-.14-1.77-.21-.24-.02-.48-.05-.72-.07a1.621 1.621 0 0 1-.27.73c.15-.04.3-.08.43-.11a3.909 3.909 0 0 1 4.65 2.73 3.76 3.76 0 0 1 .01 1.86 1.585 1.585 0 0 1 1.19-.12 1.672 1.672 0 0 1 1.08.93c.22.52.5.91 1.8.81a8.585 8.585 0 0 1 2.53.21 7.918 7.918 0 0 1-.21-2.38c.08-1.33-.25-1.58-.99-1.8a1.648 1.648 0 0 1-1.14-1.2 1.6 1.6 0 0 1 .04-.92 3.351 3.351 0 0 1-2.7-.49zm34.29-23.8a1.651 1.651 0 0 1 .05 2.32 2.332 2.332 0 0 1-.38.31c-1.59.9-2.6 2.31-3.36 4.71-.12.35-.2.71-.29 1.06a10.139 10.139 0 0 1-.87 2.53 14.189 14.189 0 0 1-.88 1.42c.29-.14.59-.27.88-.4a2.771 2.771 0 0 0 1.9-2.92 48.641 48.641 0 0 1 6.8 6.98 1.679 1.679 0 0 0 .03-1.23 2.3 2.3 0 0 1 1.02 1.94c.01.23.04.52.07.82.35.49.68 1 1 1.52a1.588 1.588 0 0 0 .5-.94 2.558 2.558 0 0 1 .32 2.33c.28.52.54 1.04.8 1.57a2.846 2.846 0 0 0 .96-.73 3.742 3.742 0 0 1-.43 1.93c.06.12.12.25.17.37a19.369 19.369 0 0 1 1.45 10.61 17 17 0 0 1-9.44 13.09 15.9 15.9 0 0 1-3.9 1.11 9.688 9.688 0 0 0-4.93 2.19 10.082 10.082 0 0 0-2.11 5.08 15.616 15.616 0 0 1-.98 3.93 16.9 16.9 0 0 1-7.34 7.95.638.638 0 0 1 .14.08c-.07-.01-.15-.03-.22-.04a18.883 18.883 0 0 1-5.36 1.87 19.1 19.1 0 0 1-10.15-.94c-1.28.49-2.13.85-2.45.69a2.094 2.094 0 0 0 .78-1.33c-.39-.17-.78-.34-1.17-.52-.92.2-1.88.59-2.85-.12a1.705 1.705 0 0 0 1.1-.78c-.39-.21-.77-.43-1.15-.66-.52-.03-1.02-.08-1.4-.09a2.339 2.339 0 0 1-1.97-.96 1.819 1.819 0 0 0 1.48-.18 46.912 46.912 0 0 1-7.79-6.99 2.761 2.761 0 0 0 2.86-1.99c.08-.18.15-.35.22-.53a10.715 10.715 0 0 1-3.13 1.39c-2.31.65-4.09 1.35-5.36 2.66a6.135 6.135 0 0 0-1.02 1.41 1.654 1.654 0 0 1-3.08-1.09 7.437 7.437 0 0 1 2.05-4.02 15.116 15.116 0 0 1 3.54-2.53 5.148 5.148 0 0 1-.63-4.76 1.624 1.624 0 0 1 1.43-1.12 1.644 1.644 0 0 1 1.6.88 3.607 3.607 0 0 0 .71 1.03 1.473 1.473 0 0 0 .1-1.3 7.087 7.087 0 0 0-.3-.77c-.13-.31-.26-.62-.37-.93a9.348 9.348 0 0 1 1.81-9.54 9.876 9.876 0 0 1 1.89-1.73 4.84 4.84 0 0 1-4.22-1.49c-.89-1-1.62-2.74-.02-5.38a6.514 6.514 0 0 1 .43-.6c.08-.11.17-.23.24-.34.15-.25.3-.49.45-.73a15.01 15.01 0 0 0 1.02-1.77.458.458 0 0 0 .05-.24.7.7 0 0 0-.35-.24c-.13-.05-.26-.09-.41-.14l-.31-.1a1.626 1.626 0 0 1-1.01-.99 1.6 1.6 0 0 1 .11-1.4 3.976 3.976 0 0 1 .61-.82 3.566 3.566 0 0 1 2.53-1.09 4.4 4.4 0 0 1 .1-1.55 1.626 1.626 0 0 1 1.45-1.27 1.656 1.656 0 0 1 1.67.98c.98 2.2 2.59 2.54 5.31 2.83a27.376 27.376 0 0 0-.58-2.73 3.757 3.757 0 0 0-2.22-2.55 1.655 1.655 0 0 1 .68-3.17 8.365 8.365 0 0 1 .9.08 3.617 3.617 0 0 1 .84-2.59 3.747 3.747 0 0 1 1.26-.8 1.621 1.621 0 0 1 1.47.08 1.672 1.672 0 0 1 .83 1.23 1.1 1.1 0 0 0 .2.6 1.225 1.225 0 0 0 .62-.14 6.347 6.347 0 0 0 1.11-.65c.29-.2.57-.43.86-.64a13.734 13.734 0 0 1 1.57-1.13 4.085 4.085 0 0 1 6.5 3.32 5.083 5.083 0 0 1-.03 1.11 9.856 9.856 0 0 1 1.96-2.26 9.271 9.271 0 0 1 9.54-1.81c.16.06.33.12.5.18a8.182 8.182 0 0 0 1.24.38 1.224 1.224 0 0 0 1-.2 3.142 3.142 0 0 0-.81-.47 1.731 1.731 0 0 1-.99-1.28 1.682 1.682 0 0 1 .99-1.99 5 5 0 0 1 4.68.5 15.134 15.134 0 0 1 2.39-3.6 7.588 7.588 0 0 1 3.82-2.16 1.66 1.66 0 0 1 1.67.39zm-45.41 50.42a5.218 5.218 0 0 0-.51-4.25c2.71-.14 3.86-.88 4.12-2.59a2.016 2.016 0 0 0-1.56-2.43 2.575 2.575 0 0 0 .08.54 1.317 1.317 0 0 1-.61 1.87 1.469 1.469 0 0 1-1.92-.62 2.7 2.7 0 0 1 .18-3.34 2.6 2.6 0 0 1 3.22-.3 3.4 3.4 0 0 1 1.65 3.43c.31-.38.63-.74.96-1.1a8.076 8.076 0 0 0-.44-2.45c.65.23 1.2.45 1.77.62.15.04.29.07.44.1.38-.33.77-.66 1.16-.98a2.826 2.826 0 0 1-2.67-2.63 1.24 1.24 0 0 0-1.32-1.35 7.394 7.394 0 0 0-7.43 2.51 7.663 7.663 0 0 0-1.49 7.93c.2.59.49 1.14.68 1.73.47 1.48-.06 3.01-1.16 3.41-.95.34-1.84-.24-2.69-1.87-.66 2.01.2 3.36 1.67 4.64-2.71 1.67-5.92 2.78-6.58 6.44 1.59-2.96 4.41-4.03 7.38-4.87 2.4-.67 4.28-1.92 5.07-4.44zm27.42 15.53a7.167 7.167 0 0 0-1.65-.78c-2.47-.56-4.95-1.17-7.46-1.52-2.95-.4-5.94-.51-8.9-.83a12.252 12.252 0 0 1-5.93-2.01 4.344 4.344 0 0 1-1.94-2.81 1.292 1.292 0 0 0 1.16-.35 1.309 1.309 0 1 0-2-.2 6.2 6.2 0 0 0 2.65 4.38l.94.75c.06.04.13.1.13.1a2.222 2.222 0 0 1-1.84.4 2.344 2.344 0 0 0 1.98.96c.74.02 1.99.16 2.92.15a2.3 2.3 0 0 1-1.48 1.37c1.43 1.04 2.83-.29 4.12.1a2.539 2.539 0 0 1-.88 1.88c.83.4 5.12-2.64 11.35-2.38 2.28.06 4.56.51 6.83.79zm-.91-14.72s-6.65-3.84-12.62-1.87-9 9-9 9 7.09 5.13 13.06 3.16 8.56-10.29 8.56-10.29zm3.08-16.65a2.8 2.8 0 0 0-2.98.27 4.088 4.088 0 0 0-1.7 2.72 5.537 5.537 0 0 0-3.91-2.39.176.176 0 0 1-.04.05c-.02.03-.05.04-.07.07a5.733 5.733 0 0 0 2.48 3.8 13.086 13.086 0 0 0-1.24.51 3.44 3.44 0 0 0-1.86 3.45 1.427 1.427 0 0 0 .99 1.33 1.082 1.082 0 0 0 1.42-.88c.06-.53.09-1.12-.78-1.05a.767.767 0 0 1-.4-.55 3.886 3.886 0 0 1 .7-1.54 2.57 2.57 0 0 1 2.51-.69c.7.47 1.36.91 2.04 1.36-.86.24-1.58.4-2.27.65a1.014 1.014 0 0 0-.57.6 1.6 1.6 0 0 0 .67.82.969.969 0 0 0 .79-.25 1.885 1.885 0 0 1 2.19-.46 2.511 2.511 0 0 0-2.25 2.4 2.092 2.092 0 0 0 1.21 2.12 1.494 1.494 0 0 0 1.86-.28 1.915 1.915 0 0 0-.28-.11c-1.04-.27-1.55-.96-1.29-1.77a1.4 1.4 0 0 1 2.07-.75 8.3 8.3 0 0 1 2 1.48 16.65 16.65 0 0 1 1.51 2.06l1.44-1.49c-.39-.2-.59-.31-.79-.42a5.986 5.986 0 0 1-2.98-3.01 1.407 1.407 0 0 1 .77-2 1.379 1.379 0 0 1 1.75 1.1c.04.12.07.25.12.41a1.636 1.636 0 0 0-.46-2.6 3.21 3.21 0 0 0-1.8-.33 2.633 2.633 0 0 0-2.06 2.18 2.175 2.175 0 0 1 .59-2.24c.51-.55.1-.89-.3-1.19a.561.561 0 0 0-.98.35c-.22.75-.4 1.52-.62 2.4-.52-.73-1.02-1.45-1.55-2.19a3.157 3.157 0 0 1-.05-.75 2.4 2.4 0 0 1 2-2.22c.41-.03.79-.01.76.6a.663.663 0 0 0 .33.47 1.119 1.119 0 0 0 1.5-.51 1.147 1.147 0 0 0-.47-1.53zm-14.29.01a10.36 10.36 0 0 0 .93-.5 5.148 5.148 0 0 0-2.39-.41c-.25.02-.5.02-.73.02a4.773 4.773 0 0 1 .63 1.7c.52-.28 1.03-.55 1.56-.81zm4.82-4.98c.22-.48.45-.96.69-1.43a4.782 4.782 0 0 1-1.59-.51 6.479 6.479 0 0 1-.01.76 4.841 4.841 0 0 0 .39 2.22c.18-.34.36-.68.52-1.04zm1.55-3.03c.18-.32.36-.63.56-.94a2.019 2.019 0 0 1-1.09-.02 1.6 1.6 0 0 1-1.59-1.76 1.609 1.609 0 0 1 2.21-1.37 1.272 1.272 0 0 0-.29-.91 6.954 6.954 0 0 0-2.11-.53l-.23.32c-.02-.67-.06-1.34-.07-2.01-.03-1.93-1.05-3.28-2.61-3.46a3.727 3.727 0 0 0-4.1 2.67 2.565 2.565 0 0 0 .03 1.03 1.628 1.628 0 0 1 1.73 2.66 1.638 1.638 0 0 1-.55.36.053.053 0 0 1-.03.02c-.03.01-.05.01-.08.02a1.834 1.834 0 0 1-.32.07h-.05a1.61 1.61 0 0 1-1.27-.44.374.374 0 0 0-.06-.07 2.608 2.608 0 0 1-.9-1.77 4.725 4.725 0 0 1 2.34-4.28c1.49-.99 3.09-1.44 4.78-.36a.632.632 0 0 0 .56-.01c-.36-.69-.73-1.37-1.05-1.97a12.081 12.081 0 0 0 .33-2.49c-.19-2.3-2.04-3.22-4-2.04-.82.5-1.55 1.16-2.34 1.71a8.454 8.454 0 0 1-1.39.82c-1.68.72-2.9.01-3.13-1.78-.9.39-1.08.69-1.11 1.97a2.545 2.545 0 0 0 1.54 2.65c2.42.94 3.66-.86 4.69-2.15a10.51 10.51 0 0 0 2.28 1 1.558 1.558 0 0 0 .74-.76 1.549 1.549 0 0 1-.81-.42 1.623 1.623 0 1 1 2.26-2.33 1.666 1.666 0 0 1 .47.92 2.191 2.191 0 0 1-.83 2.19 11.708 11.708 0 0 1-2.64 1.4c-1.92.77-3.83 1.51-5.12 3.35-1.42-1.89-2.28-4.32-5.15-4.37a5.411 5.411 0 0 1 3.15 3.63c.44 1.6.66 3.26 1.02 5.07-3.41-.53-7.07-.06-8.85-4.07-.38 1.64.38 2.52 4.47 5.23-2.07 1.59-2.67 3.97-3.52 6.23a6.8 6.8 0 0 1-.95 1.71 2.087 2.087 0 0 1-1.88.89 1.6 1.6 0 0 1-1.22-.45c-.04-.04-.07-.09-.11-.13-.02-.03-.04-.05-.06-.08a.991.991 0 0 1-.11-.17c-.01-.02-.03-.05-.04-.07a1.617 1.617 0 0 1 .28-1.85 1.626 1.626 0 0 1 2.75.77 1.494 1.494 0 0 0 .72-.76 4.929 4.929 0 0 0-1.34-2.01c.43-.38.86-.74 1.28-1.12a3.448 3.448 0 0 0 1.24-3.1 2.391 2.391 0 0 0-2.02-2.14c-1.03-.2-2.17-.31-2.91.96.31.11.54.18.78.27a1.924 1.924 0 0 1 1.22 2.69 24.047 24.047 0 0 1-1.57 2.68c-.2.33-.47.62-.67.95-.89 1.47-.94 2.55-.16 3.42a3.394 3.394 0 0 0 3.86.65c.21-.1.42-.2.51-.25.78.41 1.47.78 2.16 1.15a5.005 5.005 0 0 1 1.2-6.51 6.444 6.444 0 0 1 2.76-1.32 2.219 2.219 0 0 1 2.3.85.053.053 0 0 0 .03.02 1.621 1.621 0 0 1 .13 2.19.705.705 0 0 1-.07.09.038.038 0 0 1-.02.02.138.138 0 0 1-.03.04.359.359 0 0 1-.1.07 1.613 1.613 0 0 1-2.17-.08 1.649 1.649 0 0 1-.38-1.77 2.378 2.378 0 0 0-1.88.45 3.749 3.749 0 0 0-1.65 4.04c.87 2.87 3.35 2.18 5.54 2.28-.32.96-.68 1.93.39 2.48a1.663 1.663 0 0 0 .91.07 1.621 1.621 0 1 1 3.03-.32 3.636 3.636 0 0 1-.05.73c.31-.21.62-.41.94-.61a3.3 3.3 0 0 0-2.5-3.25c-1.27-.35-2.57-.59-3.84-.95a3.4 3.4 0 0 1-2.57-1.97 3.172 3.172 0 0 1 .25-1.46 2.858 2.858 0 0 1 1.1.73c1.19 2.54 3.15 2.98 5.22 1.11.11-.09.24-.17.43-.31a3.074 3.074 0 0 0 3.45 1.81 7.129 7.129 0 0 1 4.05.97 5.823 5.823 0 0 0 .45-.4c.11-.12.22-.26.32-.39a6.832 6.832 0 0 1-.98-3.89c.1-1.61-.31-2.93-2.18-3.49 1.06-1 1.72-2.05 1.31-3.46a2.634 2.634 0 0 0-1.85-2.05 3.013 3.013 0 0 1-1.13-.84.928.928 0 0 1 .34-.61 2.3 2.3 0 0 1 1.51.16 7.212 7.212 0 0 1 1.64 2.32 34.871 34.871 0 0 1 1.02 3.57 3.421 3.421 0 0 0 3.45 2.66zm25.45 4.81c1.78-6.03-3.57-12.95-3.57-12.95s-6.94 3.26-8.71 9.29 2.27 12.56 2.27 12.56 8.23-2.86 10.01-8.9zm-6.52-16.64a1.308 1.308 0 0 0 1.88 1.82 1.328 1.328 0 0 0 .32-1.18 4.382 4.382 0 0 1 2.87 1.85 12.161 12.161 0 0 1 2.19 5.87c.42 2.95.63 5.93 1.13 8.87.42 2.5 1.11 4.95 1.75 7.41a7.722 7.722 0 0 0 .83 1.62c-.35-2.27-.88-4.52-1-6.8-.46-6.23 2.43-10.61 2.01-11.42a2.52 2.52 0 0 1-1.86.93c-.43-1.27.86-2.71-.23-4.11a2.263 2.263 0 0 1-1.32 1.53c-.02-.93-.2-2.18-.25-2.92a2.327 2.327 0 0 0-1.02-1.95 2.2 2.2 0 0 1-.34 1.85s-.06-.07-.1-.12c-.21-.24-.57-.67-.77-.92a6.244 6.244 0 0 0-4.47-2.5 1.289 1.289 0 0 0-1.62.17zm3.65-13.56c-3.62.77-4.65 3.94-6.2 6.76-1.31-1.33-2.69-2.27-4.6-1.54a.336.336 0 0 0 .06.21c1.48.65 2.08 1.48 1.77 2.45a2.513 2.513 0 0 1-2.9 1.37 12.886 12.886 0 0 1-2-.63 7.608 7.608 0 0 0-7.92 1.5 7.375 7.375 0 0 0-2.5 7.43c.17.83.3 1.56 1.55 1.51a2.583 2.583 0 0 1 2.46 2 3.393 3.393 0 0 1 .15.61c.3-.39.6-.78.91-1.16-.18-.71-.46-1.43-.69-2.21a5.894 5.894 0 0 0 2.4.31c.33-.33.66-.65 1.01-.95a3.442 3.442 0 0 1-3.35-1.47 2.454 2.454 0 0 1-.27-2.73 2.062 2.062 0 0 1 2.27-1.27 4.614 4.614 0 0 1 2.06 1.2 1.346 1.346 0 0 1-.12 1.33 7.886 7.886 0 0 1-2.03.61 1.681 1.681 0 0 0 2.06 1.27 2.833 2.833 0 0 0 1.1-.31c.19-.13.38-.27.57-.41a4.817 4.817 0 0 0 1.02-3.48 5.05 5.05 0 0 0 5.67-.42 10.21 10.21 0 0 0 2.38-3.02 18.854 18.854 0 0 0 1.03-3.32 9.3 9.3 0 0 1 4.11-5.64zm-119.15 86.62a.8.8 0 0 0-.66-1.32c-1.42.11-2.24-.46-2.98-2.07-1-2.15-1.89-4.36-2.64-6.26-2.38-6.01-5.43-10.53-9.41-13.95a47.415 47.415 0 0 0-11-7.2 10.635 10.635 0 0 1-6.02-6.01 47.667 47.667 0 0 0-7.22-10.99c-3.42-3.96-7.95-7.01-13.97-9.38-1.9-.75-4.11-1.64-6.26-2.62-1.62-.75-2.18-1.57-2.07-2.98a.805.805 0 0 0-.45-.78.792.792 0 0 0-.88.12c-7.18 6.34-11.78 12.54-14.49 19.49a25.779 25.779 0 0 0-1.66 14.27 23.19 23.19 0 0 0 13.05 17.44 17.123 17.123 0 0 0 4.43 1.26c.3.05.59.11.88.17 2.91.58 4.98 1.47 6.16 2.64 1.14 1.14 1.95 3.07 2.56 6.06.06.29.11.58.17.88a17.052 17.052 0 0 0 1.26 4.42 24.814 24.814 0 0 0 4.67 6.6 23.6 23.6 0 0 0 12.79 6.43 25.8 25.8 0 0 0 14.27-1.7c6.95-2.71 13.14-7.33 19.47-14.52zm-7.3 5.07c-.29.25-.58.51-.87.75a7.077 7.077 0 0 1-1.54-1.13 13.815 13.815 0 0 1-1.74-2.53c-.01-.01-.03-.02-.04-.03h.03l-.02-.02.02.02a1.1 1.1 0 0 1 .52.06 5.925 5.925 0 0 0 4.5.49 3.205 3.205 0 0 1 1.7.02c-.55.54-1.09 1.06-1.64 1.56-.05-.02-.11-.05-.17-.07a13.849 13.849 0 0 1-4.85-2 8.73 8.73 0 0 0 4.1 2.88zm-12.88 8.01a12.359 12.359 0 0 0 .07-1.5 17.358 17.358 0 0 0-1-5.98c.73-.2 1.43-.45 2.11-.71.05.09.11.17.17.26a13.255 13.255 0 0 1 2.09 6.39c-1.09.54-2.19 1.06-3.31 1.49a.5.5 0 0 1-.13.05zm-31.1-16.48c-.08-.31-.15-.61-.23-.89a29.926 29.926 0 0 1 9.39.51c.81.17 1.59.38 2.36.62q.555.99 1.26 2.04a28.844 28.844 0 0 0-7.9-2.17 22.821 22.821 0 0 0-4.88-.11zm-8.88-13.67a28.938 28.938 0 0 0-2.16-7.85c.69.47 1.38.89 2.03 1.26.23.75.44 1.51.61 2.31a30.2 30.2 0 0 1 .53 9.43q-.435-.12-.9-.24a23.1 23.1 0 0 0-.11-4.91zm-16.39-26.3a35.356 35.356 0 0 1 1.5-3.33 13.132 13.132 0 0 1 6.39 2.08c.09.05.17.11.25.16-.26.68-.5 1.38-.71 2.12a17.2 17.2 0 0 0-5.96-1c-.51.01-1.02.04-1.52.08.02-.04.03-.07.05-.11zm8.83-13.54a.612.612 0 0 0-.07-.17c.5-.54 1.03-1.09 1.56-1.64a3.2 3.2 0 0 1 .03 1.7 5.863 5.863 0 0 0 .5 4.51 1.2 1.2 0 0 1 .06.51.038.038 0 0 0 .02.02.031.031 0 0 0-.02-.01v.02c-.01-.01-.02-.03-.04-.05a14.44 14.44 0 0 1-2.53-1.72 7.379 7.379 0 0 1-1.13-1.55q.36-.435.75-.87a8.566 8.566 0 0 0 2.88 4.1 14.291 14.291 0 0 1-2.01-4.85zm4.28.38a15.565 15.565 0 0 0 2 5.38 1.026 1.026 0 0 0 .13-.09c.05-.15.1-.3.14-.45a17.359 17.359 0 0 1 2.57-5.68c.56.23 1.12.47 1.66.69a14.171 14.171 0 0 0-2.47 8.1 28.773 28.773 0 0 0-4.29-2.62c-.23-.38-.45-.76-.66-1.15-1.61-3.13-1.14-5.92 1.21-7.8a3.735 3.735 0 0 0 .36.45 4.588 4.588 0 0 0-.65 3.17zm26.45 37.35a2.179 2.179 0 0 1 1.05-.29 2.546 2.546 0 0 1 .23 1.14 2.984 2.984 0 0 1-1.24.48 2.873 2.873 0 0 1-.04-1.33zm-2.59 1.76a.962.962 0 0 1-.25-1.42.877.877 0 0 1 1.45-.24 3.128 3.128 0 0 1 .5 1.15c-.63.75-1.15.91-1.7.51zm4.96-2.18a.95.95 0 0 1 .87-.11 2.565 2.565 0 0 1 .33 1.1 3.125 3.125 0 0 1-1.12-.2.818.818 0 0 1-.08-.79zm-10.67 2.76c.37-.68.77-1.39 1.16-2.11.37-.66 1.04-.77 2.13-.29-.77 1.77-1.76 2.45-3.29 2.4zm.78-2.53c-.71.39-1.43.79-2.1 1.16-.06-1.53.62-2.51 2.39-3.29.48 1.09.37 1.77-.29 2.13zm.51-8.19a2.146 2.146 0 0 1-.29 1.05 2.981 2.981 0 0 1-1.33-.03 2.818 2.818 0 0 1 .47-1.24 2.412 2.412 0 0 1 1.15.22zm-.66-1.4a2.673 2.673 0 0 1-.2-1.11 2.509 2.509 0 0 1 1.1.32.955.955 0 0 1-.12.87.8.8 0 0 1-.78-.08zm-.87 3.34a3.342 3.342 0 0 1 1.14.5.879.879 0 0 1-.23 1.45.961.961 0 0 1-1.42-.25c-.4-.55-.25-1.07.51-1.7zm1.71-11.07c-1.01 3.44-1.82 6.94-2.53 10.46-.77 3.87-1.5 7.76-2.47 11.58l-.02.02c3.82-.97 7.71-1.72 11.58-2.49 3.51-.71 7.01-1.54 10.45-2.55a9.168 9.168 0 0 0 6.34-5.59.257.257 0 0 1 .02-.05q.5.345.99.72a11.161 11.161 0 0 1-5.52 6.2 35.243 35.243 0 0 1-10.1 2.96c-5.31.95-10.65 1.65-15.89 2.94l.02-.03c1.27-5.23 1.97-10.59 2.91-15.89a35.046 35.046 0 0 1 2.94-10.11 11.162 11.162 0 0 1 6.16-5.52c.24.33.49.66.73.99a.035.035 0 0 0-.02.01 9.161 9.161 0 0 0-5.59 6.35zm31.51 34.61a15.5 15.5 0 0 0 5.37 1.99 4.547 4.547 0 0 0 3.21-.67 3.009 3.009 0 0 0 .44.36c-1.88 2.37-4.68 2.85-7.82 1.24q-.555-.3-1.11-.63a28.364 28.364 0 0 0-2.63-4.31 14.259 14.259 0 0 0 8.08-2.5c.22.54.45 1.09.7 1.66a17.663 17.663 0 0 1-5.71 2.6 2.253 2.253 0 0 0-.44.14.261.261 0 0 0-.09.12zm-14.65 8.43a26.45 26.45 0 0 1 1.71 3.01 4.166 4.166 0 0 1 .32.94 41.618 41.618 0 0 0-3.39-4.11 12.9 12.9 0 0 0 1.36.16zm-2.6-2.08a12.6 12.6 0 0 1-5.12-3.25 27.175 27.175 0 0 1-5.54-8.85c2-1.05 8.9-4.25 15.16-2.28a16.036 16.036 0 0 1 6.5 4.13 27.258 27.258 0 0 1 4.66 6.4c-2.03 1.36-9.37 5.83-15.66 3.85zm-24.16-14l.02-.03a43.473 43.473 0 0 0 2.03-16.44c-.05-.79-.13-1.57-.23-2.35.13-.51.25-1.03.35-1.57a44.058 44.058 0 0 1-1.42 19.63l-.02.03a44 44 0 0 1 19.58-1.48c-.54.1-1.06.23-1.56.36-.77-.09-1.54-.17-2.32-.21a43.265 43.265 0 0 0-16.43 2.06zm-10.79-19.03a12.8 12.8 0 0 1-3.27-5.11c-1.98-6.28 2.48-13.63 3.83-15.67a27.14 27.14 0 0 1 6.41 4.65 16.141 16.141 0 0 1 4.14 6.49c1.98 6.25-1.21 13.16-2.25 15.17a27.225 27.225 0 0 1-8.86-5.53zm-5.35-7.75q.045.675.15 1.35a41.355 41.355 0 0 0-4.09-3.36 4.1 4.1 0 0 1 .95.33 26.885 26.885 0 0 1 2.99 1.68zm21.72-8.19c2.39-.94 2.79-3.15.91-4.93a4.531 4.531 0 0 0-7.16 1.84 6.969 6.969 0 0 0-.41 3.57c-.18-.23-.37-.44-.56-.66a13.991 13.991 0 0 1 .02-1.45 5.205 5.205 0 0 1 4.7-4.84 4.437 4.437 0 0 1 4.74 3.04 2.533 2.533 0 0 1-2.24 3.43zm-1.84 16.03a10.454 10.454 0 0 1-1.32-3 20 20 0 0 0 .09-3.64q.36-1.215.81-2.4a8.6 8.6 0 0 0-.5-7.53 9.51 9.51 0 0 1 2.95 10.28c-.78 2.12-1.68 4.16-1.37 6.5a11.469 11.469 0 0 1-.53-5.89 8.976 8.976 0 0 0-.13 5.68zm32.83 20.51c-.46.03-.92.03-1.4.02-.21-.19-.43-.37-.65-.55a7.082 7.082 0 0 0 3.51-.43 4.527 4.527 0 0 0 1.82-7.16c-1.77-1.88-3.99-1.47-4.92.92a2.534 2.534 0 0 1 3.42-2.25 4.44 4.44 0 0 1 3.06 4.73 5.216 5.216 0 0 1-4.84 4.72zm-1.1-4.44a8.567 8.567 0 0 0-7.53-.49c-.76.3-1.55.56-2.34.8a17.861 17.861 0 0 0-3.74.11 11.077 11.077 0 0 1-2.96-1.31 8.977 8.977 0 0 0 5.68-.15 11.265 11.265 0 0 1-5.89-.52c2.34.31 4.39-.6 6.5-1.37a9.5 9.5 0 0 1 10.28 2.93zm10.22 2.92a6.333 6.333 0 0 1-3.91 3.82 9.34 9.34 0 0 1-3.93.47c-.26-.32-.54-.64-.83-.95a8.4 8.4 0 0 0 2.54-.52 16.819 16.819 0 0 0 5.54-3.6l.18-.18c.14.32.28.63.41.96zm-6.19-10.24c.17.19.33.39.5.58a2.785 2.785 0 0 1-.5-.58zm-29.83-29.72a.9.9 0 0 1 .1.09c-.03-.03-.07-.06-.1-.09zm-9.01-5.22a16.736 16.736 0 0 0-3.59 5.54 8.1 8.1 0 0 0-.51 2.59c-.32-.29-.64-.57-.95-.83a9.263 9.263 0 0 1 .45-3.98 6.383 6.383 0 0 1 3.78-3.9c.33.13.66.27.98.41-.06.06-.11.12-.16.17zm-12.42 4.74c-.13.19-.27.41-.42.65-.77-.64-1.55-1.29-2.31-1.95-.82-.73-1.66-1.45-2.48-2.19.21-.26.4-.52.6-.78q2.265 2.175 4.61 4.27zm-.61.85c.02.01.03.02.05.03-.04.06-.07.13-.11.19a17.106 17.106 0 0 0-6.46-1.87c.23-.35.46-.7.7-1.05a17.75 17.75 0 0 1 5.82 2.7zm-.59 1.14c-.17.3-.34.63-.51.96a20.511 20.511 0 0 0-6.84-1.45c.21-.37.43-.73.65-1.1a21.54 21.54 0 0 1 6.7 1.59zm9.26 29.1c-.02-1.09-.06-2.18-.12-3.25.63.27 1.14.48 1.5.61a53.757 53.757 0 0 1-.38 7.59c-.14 1-.3 1.97-.49 2.94-.35-.15-.71-.29-1.09-.42a40.945 40.945 0 0 0 .58-7.47zm4.14-5.49a28.542 28.542 0 0 0 1.07-2.91c.05.96.09 1.93.1 2.91a48.863 48.863 0 0 1-2.04 15.14 8.008 8.008 0 0 0-1.04-.82 44.9 44.9 0 0 0 1.91-14.32zM154.89 211c.96.01 1.92.04 2.87.1a27.447 27.447 0 0 0-2.9 1.07 45.21 45.21 0 0 0-14.23 1.92 7.133 7.133 0 0 0-.84-1.02 48.634 48.634 0 0 1 15.1-2.07zm-10.43 4.34a54.053 54.053 0 0 1 7.62-.4c.13.36.33.87.61 1.5-1.09-.06-2.19-.1-3.29-.11a41.183 41.183 0 0 0-7.41.58c-.13-.38-.27-.75-.42-1.09.95-.19 1.91-.35 2.89-.48zm33.1 10.69q.51-.255.96-.51a21.861 21.861 0 0 1 1.61 6.7c-.37.22-.73.44-1.1.65a20.784 20.784 0 0 0-1.47-6.84zm1.87-1.03c.07-.04.14-.08.2-.12a.209.209 0 0 0 .04.06 17.72 17.72 0 0 1 2.69 5.8c-.34.25-.69.48-1.03.71a17.048 17.048 0 0 0-1.9-6.45zm2.39 2.05c-.67-.76-1.32-1.53-1.96-2.31.24-.15.46-.29.65-.42 1.4 1.56 2.82 3.1 4.28 4.6-.26.21-.52.41-.78.61-.74-.82-1.47-1.66-2.19-2.48zm-53.92-18.36c-.06-.03-.12-.07-.18-.1-.12-.37-.24-.75-.38-1.12-1.29-3.57-2.93-7.02-4.39-10.53-.28-.67-.45-1.39-.68-2.08.1-.03.2-.07.3-.1 4.64 4.31 7.76 9.24 8.98 14.98a14.876 14.876 0 0 1-3.65-1.05zm15.13 12.54c5.73 1.2 10.66 4.31 14.97 8.93-.03.1-.07.2-.1.3-.69-.22-1.41-.39-2.08-.67-3.51-1.45-6.96-3.08-10.54-4.37q-.54-.195-1.08-.36a2.116 2.116 0 0 1-.11-.21 14.477 14.477 0 0 1-1.06-3.62zm-14.86-50.89c-.01-.01-.02-.03-.03-.04a.435.435 0 0 1 .07.06v.01c-.01-.01-.03-.02-.04-.03zm54.22 54.15l.06.06a.219.219 0 0 0-.05-.03c0-.01-.01-.02-.01-.03zM227.74 3.76a.8.8 0 0 0-1.43-.36c-.83 1.15-1.8 1.4-3.51.92-2.28-.64-4.54-1.4-6.47-2.06C210.21.17 204.79-.45 199.61.34a47.638 47.638 0 0 0-12.62 3.69 10.6 10.6 0 0 1-8.48.67 47.328 47.328 0 0 0-13.04-1.65c-5.24.03-10.5 1.49-16.21 4.52-1.81.96-3.92 2.06-6.06 3.06-1.62.74-2.61.63-3.62-.36a.78.78 0 0 0-.87-.17.81.81 0 0 0-.49.75c.16 9.58 1.88 17.1 5.41 23.67a25.67 25.67 0 0 0 9.76 10.54 23.165 23.165 0 0 0 21.74 1.41 16.929 16.929 0 0 0 3.83-2.55c.24-.19.47-.37.7-.56 2.33-1.83 4.36-2.83 6.01-2.96 1.61-.12 3.6.51 6.27 1.99.26.14.52.29.78.44a16.756 16.756 0 0 0 4.19 1.92 25.057 25.057 0 0 0 8.04.74 23.583 23.583 0 0 0 13.2-5.55 25.761 25.761 0 0 0 7.98-11.95c2.46-7.05 2.97-14.75 1.61-24.23zm-.88 8.84c0 .39.01.77 0 1.14a7.34 7.34 0 0 1-1.86.45 13.89 13.89 0 0 1-3.05-.33c-.02.01-.03.01-.05.02a.035.035 0 0 1 .01-.02.035.035 0 0 0-.02-.01h.03a1.041 1.041 0 0 1 .38-.35 5.924 5.924 0 0 0 3.3-3.11 3.154 3.154 0 0 1 1.11-1.27c.06.76.1 1.52.13 2.26a1.194 1.194 0 0 0-.16.08 14.219 14.219 0 0 1-4.68 2.39 8.719 8.719 0 0 0 4.86-1.25zm-2.28 14.99c-.35-.35-.71-.7-1.1-1.03a17.172 17.172 0 0 0-5.2-3.11 20.783 20.783 0 0 0 .83-2.07c.11.02.21.02.31.04a13.2 13.2 0 0 1 6.22 2.56c-.3 1.18-.62 2.35-1.02 3.49-.01.04-.03.08-.04.12zm-32.74 12.94c-.29-.15-.56-.28-.83-.41a30.684 30.684 0 0 1 6.49-6.81c.66-.5 1.33-.95 2-1.38.75.14 1.54.27 2.38.36a28.864 28.864 0 0 0-6.79 4.6 23.268 23.268 0 0 0-3.25 3.64zm-16.16-2.14a29.092 29.092 0 0 0-7.37-3.45c.81-.22 1.57-.48 2.27-.73.73.31 1.44.65 2.16 1.04a30.262 30.262 0 0 1 7.51 5.72c-.25.17-.51.35-.77.53a23.518 23.518 0 0 0-3.8-3.11zm-30.64-4.62a35.706 35.706 0 0 1-1.56-3.31 13.282 13.282 0 0 1 5.74-3.51c.09-.03.19-.05.28-.08.35.63.73 1.27 1.15 1.91a17.139 17.139 0 0 0-4.63 3.89q-.495.585-.93 1.2a.467.467 0 0 1-.05-.1zm-4.55-15.52a1.209 1.209 0 0 0-.18-.05c-.09-.74-.16-1.49-.23-2.26a3.181 3.181 0 0 1 1.3 1.09 5.927 5.927 0 0 0 3.76 2.54 1.551 1.551 0 0 1 .43.29h.02a.035.035 0 0 1-.02.01l.02.02a.127.127 0 0 0-.06-.01 13.905 13.905 0 0 1-2.95.8 7.529 7.529 0 0 1-1.92-.14c-.06-.38-.12-.75-.17-1.13a8.663 8.663 0 0 0 4.99.47 14.222 14.222 0 0 1-4.99-1.63zm3.07-3a15.637 15.637 0 0 0 5.38 1.97.692.692 0 0 0 .02-.16c-.08-.13-.16-.27-.25-.39a17.579 17.579 0 0 1-2.65-5.65c.54-.27 1.08-.54 1.61-.81a14.184 14.184 0 0 0 4.54 7.14 27.868 27.868 0 0 0-4.78 1.56c-.43-.07-.87-.15-1.3-.25-3.42-.8-5.24-2.98-5.14-5.99a3.707 3.707 0 0 0 .58.02 4.582 4.582 0 0 0 1.99 2.56zm45.57 4.16a2.21 2.21 0 0 1 .47-.99 2.447 2.447 0 0 1 1.01.58.812.812 0 1 1-1.48.41zm-.34 3.11a.967.967 0 0 1-1.25-.73.883.883 0 0 1 .76-1.26 3.133 3.133 0 0 1 1.2.37c.17.97-.05 1.46-.71 1.62zm1.56-5.18a.947.947 0 0 1 .49-.74 2.437 2.437 0 0 1 1.04.47 2.957 2.957 0 0 1-.88.72.831.831 0 0 1-.65-.45zm-4.84 9.9c-.27-.72-.55-1.49-.84-2.25-.27-.71.09-1.29 1.16-1.81.85 1.74.72 2.93-.32 4.06zM184.1 25c-.17.8-.33 1.6-.48 2.35-1.2-.94-1.51-2.1-.95-3.95 1.14.35 1.58.86 1.43 1.6zm-5.9-5.71a2.139 2.139 0 0 1 .61.91 2.931 2.931 0 0 1-.88.99 2.726 2.726 0 0 1-.63-1.17 2.341 2.341 0 0 1 .9-.73zm-1.48-.4a2.765 2.765 0 0 1-.98-.57 2.575 2.575 0 0 1 .95-.63.945.945 0 0 1 .59.65.832.832 0 0 1-.56.55zm1.97 2.83a3.077 3.077 0 0 1 1.12-.54.873.873 0 0 1 .95 1.11.973.973 0 0 1-1.11.93c-.68-.06-.98-.51-.96-1.5zm-7.31-8.49c1.96 3 4.1 5.89 6.31 8.71 2.44 3.1 4.92 6.19 7.2 9.41v.03c1.75-3.54 3.7-6.98 5.63-10.43 1.74-3.13 3.39-6.32 4.85-9.59a9.194 9.194 0 0 0-.13-8.46c-.01-.02-.01-.03-.02-.05.39-.1.79-.19 1.19-.28a11.159 11.159 0 0 1 1.13 8.22 35.376 35.376 0 0 1-4.32 9.61c-2.72 4.65-5.66 9.17-8.09 13.98v-.03c-3.16-4.37-6.78-8.37-10.2-12.53a35.457 35.457 0 0 1-5.77-8.81 11.184 11.184 0 0 1-.19-8.27l1.22.09c0 .01-.01.02 0 .02a9.185 9.185 0 0 0 1.19 8.38zm46.79-1.46a15.509 15.509 0 0 0 5-2.8 4.532 4.532 0 0 0 1.57-2.87 3.269 3.269 0 0 0 .56-.1c.58 2.96-.87 5.41-4.13 6.75-.4.16-.8.3-1.2.43a27.584 27.584 0 0 0-4.99-.79 14.16 14.16 0 0 0 3.34-7.78c.57.19 1.14.37 1.72.55a17.467 17.467 0 0 1-1.73 6.03 3.251 3.251 0 0 0-.18.43.34.34 0 0 0 .04.15zm-3.12 16.6a26.5 26.5 0 0 1 3.4.67 3.654 3.654 0 0 1 .93.36 43.331 43.331 0 0 0-5.33-.09 12.756 12.756 0 0 0 1-.94zm-3.27.63a12.546 12.546 0 0 1-5.79 1.78 27.166 27.166 0 0 1-10.33-1.54c.5-2.21 2.55-9.52 8.11-13.01a16.319 16.319 0 0 1 7.37-2.25 27.331 27.331 0 0 1 7.89.62c-.28 2.42-1.66 10.9-7.25 14.4zm-26.34 9.27l-.01-.03a43.309 43.309 0 0 0-11.18-12.23c-.63-.47-1.27-.92-1.93-1.35-.3-.43-.62-.87-.97-1.3a44.074 44.074 0 0 1 14 13.85l.01.03a43.924 43.924 0 0 1 11.6-15.84c-.27.47-.51.95-.74 1.41-.57.53-1.13 1.07-1.67 1.63a43.148 43.148 0 0 0-9.11 13.83zm-21.48-4.16a12.723 12.723 0 0 1-6-.85c-6.07-2.57-8.76-10.73-9.42-13.08a27.1 27.1 0 0 1 7.7-1.85 16.109 16.109 0 0 1 7.62 1.06c6.03 2.56 9.22 9.47 10.07 11.57a27.17 27.17 0 0 1-9.97 3.15zm-9.36-.98a12.488 12.488 0 0 0 1.13.77 42.2 42.2 0 0 0-5.21.92 3.931 3.931 0 0 1 .86-.5 26.2 26.2 0 0 1 3.22-1.19zm7.89-21.83c.84-2.42-.58-4.17-3.16-3.89a4.531 4.531 0 0 0-3.25 6.64 7.027 7.027 0 0 0 2.44 2.63c-.28-.01-.57-.01-.86-.01a11.072 11.072 0 0 1-1.09-.95 5.217 5.217 0 0 1-.63-6.73 4.446 4.446 0 0 1 5.39-1.62 2.541 2.541 0 0 1 1.16 3.93zm10.98 11.82a10.817 10.817 0 0 1-3.14-.95 19.762 19.762 0 0 0-2.7-2.43c-.46-.71-.9-1.43-1.3-2.17a8.579 8.579 0 0 0-6.04-4.52 9.505 9.505 0 0 1 9.72 4.44c1.11 1.96 2.07 3.98 4.06 5.26a11.265 11.265 0 0 1-4.82-3.42 9.031 9.031 0 0 0 4.22 3.79zm36.93-11.63c-.28.37-.58.73-.89 1.08-.29.04-.57.08-.84.13a7.07 7.07 0 0 0 1.95-2.94 4.53 4.53 0 0 0-4.26-6.04c-2.59.13-3.71 2.08-2.5 4.34a2.528 2.528 0 0 1 .52-4.06 4.432 4.432 0 0 1 5.58.75 5.217 5.217 0 0 1 .44 6.74zm-4.09-2.05a8.585 8.585 0 0 0-5.27 5.41c-.26.77-.58 1.54-.91 2.29a19.331 19.331 0 0 0-2.35 2.91 10.886 10.886 0 0 1-2.91 1.4 8.937 8.937 0 0 0 3.57-4.4 11.33 11.33 0 0 1-4.22 4.14c1.76-1.58 2.39-3.73 3.18-5.84a9.5 9.5 0 0 1 8.91-5.91zm8.86-5.87a6.377 6.377 0 0 1 .37 5.46 9.591 9.591 0 0 1-2.21 3.29c-.41-.01-.83 0-1.26.01a8.165 8.165 0 0 0 1.26-2.27 16.729 16.729 0 0 0 .86-6.55 2.09 2.09 0 0 1-.01-.25c.33.1.66.2.99.31zm-11.81-1.95c.26-.01.52 0 .77 0a3.305 3.305 0 0 1-.77 0zM161.4 4.99l.12-.03-.12.03zm-9.83 3.45a16.85 16.85 0 0 0 1.88 6.34 8.381 8.381 0 0 0 1.63 2.06c-.42.05-.84.12-1.24.18a9.172 9.172 0 0 1-2.73-2.92 6.37 6.37 0 0 1-.52-5.41c.32-.16.64-.32.95-.48l.03.23zm-4.47 12.52c.06.22.13.47.22.74-.99.17-1.98.34-2.98.49-1.09.15-2.18.32-3.28.46-.06-.32-.14-.63-.2-.96 2.08-.2 4.16-.45 6.24-.73zm.25 1.01c.02 0 .04-.01.06-.01.02.07.05.14.07.21a16.937 16.937 0 0 0-5.62 3.69c-.12-.4-.23-.8-.34-1.21a17.8 17.8 0 0 1 5.83-2.68zm.48 1.2c.12.32.26.66.4 1.01a20.3 20.3 0 0 0-5.54 4.26c-.15-.4-.29-.81-.42-1.21a21.577 21.577 0 0 1 5.56-4.06zm28.14 11.87a98.57 98.57 0 0 0-2.55-2.03c.62-.29 1.11-.55 1.44-.73a52.189 52.189 0 0 1 5.52 5.22c.67.74 1.31 1.51 1.91 2.28-.33.16-.67.35-1.02.55a41.392 41.392 0 0 0-5.3-5.29zm-1.48-6.72a28.185 28.185 0 0 0-1.52-2.7c.77.58 1.53 1.19 2.28 1.81a48.66 48.66 0 0 1 10.18 11.4 7.073 7.073 0 0 0-1.3.25 45.093 45.093 0 0 0-9.64-10.76zm19.3-2.33c.64-.72 1.29-1.43 1.94-2.12-.45 1.06-.8 2.05-1.07 2.9a45.327 45.327 0 0 0-7.78 12.07 7.451 7.451 0 0 0-1.33-.03 48.81 48.81 0 0 1 8.24-12.82zm-3.48 10.75a54.2 54.2 0 0 1 4.65-6.05c.36.13.88.31 1.54.5q-1.125 1.2-2.22 2.43a41.21 41.21 0 0 0-4.38 6.02c-.37-.15-.74-.29-1.09-.4.47-.84.96-1.67 1.5-2.5zm29.64-18.21c.09-.37.17-.72.24-1.06a21.385 21.385 0 0 1 6.13 3.13c-.06.42-.14.84-.22 1.26a20.3 20.3 0 0 0-6.15-3.33zm.43-2.1c.01-.08.03-.15.04-.22h.07a17.647 17.647 0 0 1 6.16 1.73c-.03.41-.08.83-.13 1.24a17.033 17.033 0 0 0-6.14-2.75zm3.11-.48c-1.01.01-2.02 0-3.03-.01.04-.28.08-.54.11-.77 2.09-.05 4.19-.13 6.27-.26 0 .33-.03.66-.04.99-1.1.03-2.21.03-3.31.05zM174.5 45c-.07.03-.13.05-.19.08-.37-.15-.73-.31-1.1-.44-3.55-1.34-7.24-2.34-10.86-3.51-.69-.22-1.34-.56-2.02-.84.04-.09.08-.19.12-.29 6.29-.72 12.07.11 17.22 2.91A14.47 14.47 0 0 1 174.5 45zm19.36-3.35c4.64-3.57 10.21-5.3 16.52-5.57.06.09.11.18.17.27-.62.38-1.22.81-1.87 1.14-3.38 1.73-6.87 3.29-10.17 5.17-.33.19-.65.39-.98.59-.08-.02-.15-.03-.23-.05a15.009 15.009 0 0 1-3.44-1.55zm-48.33-21.77a.083.083 0 0 0-.05 0c.03-.01.05-.01.09-.02v.01c-.01 0-.03.01-.04.01zm76.39-6.03h.08a.09.09 0 0 0-.05.01.053.053 0 0 0-.04 0c0-.01 0-.01.01-.01zm0 0"/></svg>