<svg xmlns="http://www.w3.org/2000/svg" viewBox="0 0 304.35 11.08"><defs><style>.cls-1,.cls-2{fill:#7f6841;}.cls-2{fill-rule:evenodd;}</style></defs><title>3_h</title><g id="Layer_2" data-name="Layer 2"><g id="Layer_1-2" data-name="Layer 1"><path class="cls-1" d="M151.55,2.41c-2.53-.78-6.22-1.17-15.1-1.22,1.28.47,2.81,1,4.33,1.68l4.4,1.86.71.3-1.61.7L139.94,3.9c-3.72-1.56-7.46-2.76-7.47-2.76L131.89,1V0h.92c13.59-.06,17.53.5,20.64,1.75a14.54,14.54,0,0,0-1.9.66m17.3,7.25C167.46,9.16,166,8.6,164.56,8c-1.94-.78-3.85-1.58-5.51-2.3L160.67,5c1.45.63,3.07,1.3,4.7,2,2.44,1,4.92,1.89,7,2.55v1.28c-.87,0-6.15.07-10.87,0a28.25,28.25,0,0,1-6.29-.74,20.48,20.48,0,0,1-3.47-1.18l-.08,0c.46-.17.85-.34,1.18-.48l.48-.21a17.5,17.5,0,0,0,2.42.77,25.54,25.54,0,0,0,5.79.68c2.55,0,5.26,0,7.35,0"/><path class="cls-1" d="M140.39,8c-1.45.58-2.91,1.14-4.3,1.64,2.09,0,4.81,0,7.35,0a26.31,26.31,0,0,0,5.8-.68,18.77,18.77,0,0,0,3.14-1.07l.83-.35c2.55-1.09,8.76-3.75,11-4.66,1.51-.64,3-1.21,4.32-1.68-13.19.07-14.92.91-18.44,2.63l-1.12.53c-2,1-5.23,2.36-8.54,3.67m-8.23,1.66C134.29,9,137,8,139.58,7,142.84,5.69,146,4.31,148,3.36l1.1-.53c4.11-2,6-2.9,23-2.83h.68V1l-.34.11S168.73,2.34,165,3.9C162.42,5,156.5,7.51,154.07,8.55l-.84.35a21.59,21.59,0,0,1-3.46,1.18,28.41,28.41,0,0,1-6.29.73c-3.72.06-7.79,0-9.77,0h-2v-1Z"/><path class="cls-2" d="M131.43,2.88l-.05,3.73.08,4.47H145l4.77,0h12.72l.46,0c.94,0,3.25-.1,5.22-.1,1.43,0,4.77.2,4.77-.22V.32c0-.25-.15-.32-.68-.32-5.16,0-12.67.05-18.86.1-2.21,0-5.85,0-7.94,0-1.7,0-2,.11-3.86.11-1.25,0-10.41-.29-10.41.22V1.92Zm17.25,7.31.15-.06-16.52,0c-.18-3,0-6,0-9h17.59L160.69,1h0l2,0h9.29c.47,3.79,0,7,0,9.16H157.3Z"/><path class="cls-2" d="M.09,2.88l0,3.73,0,4.47H3.24l2.13,0h5.68l.2,0c.42,0,1.46-.1,2.34-.1.63,0,2.12.2,2.12-.22V.32c0-.25-.07-.32-.3-.32C13.11,0,9.76.05,7,.1c-1,0-2.61,0-3.54,0-.76,0-.89.11-1.72.11C1.17.22,0-.08,0,.43V1.92ZM5.17,1.07l6-.11v.21c-1.3.12-2.37,1.52-3.24,2.13-.36-.25-.79-.84-1.28-1.21-.32-.26-1.34-.85-1.46-1m3.35,3c0-.57,2-1.82,2.55-2.12a6.65,6.65,0,0,1,1.59-.66C13,1.2,14.53,1,14.7,1c.28,1.38-1.33,3-2.28,3.57a5.32,5.32,0,0,1-2.12.66A6.41,6.41,0,0,1,8.52,4.05m-7.61-3c2.64,0,5.31,1,6.49,2.87A4.29,4.29,0,0,1,5.17,5.22C3.5,5.22,1,2.9.91,1.07m14,3.51.05,1L14.83,8.1H14.7A4.13,4.13,0,0,0,12,5.75V5.54c.88-.21,2.53-1.3,2.74-2.13h.17ZM.91,8V3.3c.76.59,1.49,1.93,2.74,2.24v.21C2.51,6,1.23,7.87.91,8m1.22,2.13H1A4.2,4.2,0,0,1,2.53,7.35c.4-.29.83-.66,1.26-.92s1.3-.27,1.71-.5l2,1.42a8.56,8.56,0,0,1-5.37,2.77M8.52,7.35a7.74,7.74,0,0,1,1.6-1.19c.58-.23,1.67.33,2.15.55a4.19,4.19,0,0,1,2.43,3.41h-.4A7.37,7.37,0,0,1,8.52,7.35M4.87,10.19c.27-.35,2.71-1.2,3-2.13l2.92,2Z"/><path class="cls-2" d="M14.92,2.88l0,3.73,0,4.47h3.14l2.13,0h5.68l.2,0c.42,0,1.45-.1,2.33-.1.64,0,2.13.2,2.13-.22V.32c0-.25-.07-.32-.31-.32-2.3,0-5.65.05-8.41.1-1,0-2.61,0-3.55,0-.75,0-.88.11-1.72.11-.56,0-1.73-.29-1.73.22V1.92ZM20,1.07,26,1v.21c-1.3.12-2.38,1.52-3.25,2.13-.36-.25-.78-.84-1.27-1.21-.33-.26-1.35-.85-1.46-1m3.34,3c0-.57,2-1.82,2.55-2.12a6.9,6.9,0,0,1,1.6-.66c.34-.07,1.87-.23,2-.31.27,1.38-1.34,3-2.28,3.57a5.41,5.41,0,0,1-2.13.66,6.41,6.41,0,0,1-1.78-1.14m-7.6-3c2.63,0,5.3,1,6.49,2.87A4.33,4.33,0,0,1,20,5.22c-1.68,0-4.21-2.32-4.26-4.15m14,3.51,0,1L29.66,8.1h-.12A4.15,4.15,0,0,0,26.8,5.75V5.54c.87-.21,2.52-1.3,2.74-2.13h.16ZM15.75,8V3.3c.76.59,1.48,1.93,2.73,2.24v.21C17.35,6,16.06,7.87,15.75,8M17,10.12H15.85a4.2,4.2,0,0,1,1.52-2.77c.39-.29.82-.66,1.25-.92s1.3-.27,1.71-.5l2,1.42A8.62,8.62,0,0,1,17,10.12m6.39-2.77A7.81,7.81,0,0,1,25,6.16c.57-.23,1.67.33,2.14.55a4.2,4.2,0,0,1,2.44,3.41h-.41a7.37,7.37,0,0,1-5.78-2.77M19.7,10.19c.27-.35,2.71-1.2,3-2.13l2.91,2Z"/><path class="cls-2" d="M57.45,2.88l0,3.73,0,4.47H60.6l2.13,0h5.68l.2,0c.42,0,1.45-.1,2.33-.1.64,0,2.13.2,2.13-.22V.32c0-.25-.07-.32-.3-.32-2.31,0-5.66.05-8.42.1-1,0-2.61,0-3.54,0-.76,0-.89.11-1.73.11-.56,0-1.72-.29-1.72.22V1.92Zm5.08-1.81,6-.11v.21c-1.3.12-2.38,1.52-3.25,2.13-.35-.25-.78-.84-1.27-1.21-.33-.26-1.34-.85-1.46-1m3.34,3c0-.57,2-1.82,2.55-2.12A6.9,6.9,0,0,1,70,1.27c.34-.07,1.87-.23,2-.31.28,1.38-1.34,3-2.28,3.57a5.37,5.37,0,0,1-2.12.66,6.32,6.32,0,0,1-1.79-1.14m-7.6-3c2.64,0,5.3,1,6.49,2.87a4.33,4.33,0,0,1-2.23,1.28c-1.68,0-4.21-2.32-4.26-4.15M72.22,4.58l0,1L72.18,8.1h-.12a4.13,4.13,0,0,0-2.74-2.35V5.54c.87-.21,2.53-1.3,2.74-2.13h.16ZM58.27,8V3.3C59,3.89,59.75,5.23,61,5.54v.21C59.87,6,58.58,7.87,58.27,8m1.22,2.13H58.37a4.2,4.2,0,0,1,1.52-2.77c.4-.29.83-.66,1.25-.92s1.3-.27,1.71-.5l2,1.42a8.59,8.59,0,0,1-5.37,2.77m6.38-2.77a7.81,7.81,0,0,1,1.61-1.19c.57-.23,1.67.33,2.14.55a4.2,4.2,0,0,1,2.44,3.41h-.41a7.37,7.37,0,0,1-5.78-2.77m-3.65,2.84c.27-.35,2.72-1.2,3-2.13l2.91,2Z"/><path class="cls-2" d="M72.26,2.88l0,3.73,0,4.47h3.14l2.13,0h5.68l.2,0c.42,0,1.45-.1,2.33-.1.64,0,2.13.2,2.13-.22V.32c0-.25-.07-.32-.3-.32-2.31,0-5.66.05-8.42.1-1,0-2.61,0-3.54,0-.76,0-.89.11-1.73.11-.56,0-1.72-.29-1.72.22V1.92Zm5.09-1.81,6-.11v.21C82,1.29,81,2.69,80.08,3.3c-.35-.25-.78-.84-1.27-1.21-.33-.26-1.34-.85-1.46-1m3.34,3c0-.57,2-1.82,2.55-2.12a6.9,6.9,0,0,1,1.6-.66c.34-.07,1.87-.23,2-.31.27,1.38-1.34,3-2.28,3.57a5.37,5.37,0,0,1-2.12.66,6.32,6.32,0,0,1-1.79-1.14m-7.6-3c2.63,0,5.3,1,6.49,2.87a4.33,4.33,0,0,1-2.23,1.28c-1.68,0-4.21-2.32-4.26-4.15M87,4.58l0,1L87,8.1h-.12a4.13,4.13,0,0,0-2.74-2.35V5.54c.87-.21,2.53-1.3,2.74-2.13H87ZM73.09,8V3.3c.76.59,1.48,1.93,2.74,2.24v.21C74.69,6,73.4,7.87,73.09,8m1.21,2.13H73.19a4.2,4.2,0,0,1,1.52-2.77c.39-.29.82-.66,1.25-.92s1.3-.27,1.71-.5l2,1.42a8.62,8.62,0,0,1-5.38,2.77m6.39-2.77A7.81,7.81,0,0,1,82.3,6.16c.57-.23,1.67.33,2.14.55a4.2,4.2,0,0,1,2.44,3.41h-.41a7.37,7.37,0,0,1-5.78-2.77M77,10.19c.27-.35,2.71-1.2,3-2.13l2.91,2Z"/><path class="cls-2" d="M87.1,2.88l0,3.73,0,4.47h3.14l2.13,0h5.68l.2,0c.42,0,1.45-.1,2.33-.1.64,0,2.13.2,2.13-.22V.32c0-.25-.07-.32-.3-.32-2.31,0-5.66.05-8.42.1-1,0-2.61,0-3.54,0-.76,0-.89.11-1.73.11C88.17.22,87-.08,87,.43V1.92Zm5.08-1.81,6-.11v.21c-1.3.12-2.38,1.52-3.25,2.13-.35-.25-.78-.84-1.27-1.21-.33-.26-1.34-.85-1.46-1m3.34,3c0-.57,2-1.82,2.55-2.12a6.9,6.9,0,0,1,1.6-.66c.34-.07,1.87-.23,2-.31.28,1.38-1.34,3-2.28,3.57a5.37,5.37,0,0,1-2.12.66,6.32,6.32,0,0,1-1.79-1.14m-7.6-3c2.64,0,5.3,1,6.49,2.87a4.33,4.33,0,0,1-2.23,1.28C90.5,5.22,88,2.9,87.92,1.07m14,3.51,0,1-.08,2.56h-.12A4.13,4.13,0,0,0,99,5.75V5.54c.87-.21,2.53-1.3,2.74-2.13h.16ZM87.92,8V3.3c.76.59,1.49,1.93,2.74,2.24v.21C89.52,6,88.23,7.87,87.92,8m1.22,2.13H88a4.2,4.2,0,0,1,1.52-2.77c.4-.29.83-.66,1.25-.92s1.3-.27,1.71-.5l2,1.42a8.59,8.59,0,0,1-5.37,2.77m6.38-2.77a7.81,7.81,0,0,1,1.61-1.19c.57-.23,1.67.33,2.14.55a4.2,4.2,0,0,1,2.44,3.41h-.41a7.37,7.37,0,0,1-5.78-2.77m-3.65,2.84c.27-.35,2.72-1.2,3-2.13l2.91,2Z"/><path class="cls-2" d="M101.89,2.88l0,3.73,0,4.47H105l2.13,0h5.68l.2,0c.42,0,1.46-.1,2.34-.1.63,0,2.12.2,2.12-.22V.32c0-.25-.07-.32-.3-.32-2.3,0-5.65.05-8.42.1-1,0-2.61,0-3.54,0-.76,0-.89.11-1.72.11-.56,0-1.73-.29-1.73.22V1.92ZM107,1.07,113,1v.21c-1.3.12-2.37,1.52-3.24,2.13-.36-.25-.79-.84-1.28-1.21-.32-.26-1.34-.85-1.46-1m3.35,3c0-.57,2-1.82,2.55-2.12a6.65,6.65,0,0,1,1.59-.66c.34-.07,1.87-.23,2-.31.28,1.38-1.33,3-2.28,3.57a5.32,5.32,0,0,1-2.12.66,6.41,6.41,0,0,1-1.78-1.14m-7.61-3c2.64,0,5.31,1,6.49,2.87A4.29,4.29,0,0,1,107,5.22c-1.67,0-4.21-2.32-4.26-4.15m14,3.51,0,1-.08,2.56h-.13a4.13,4.13,0,0,0-2.74-2.35V5.54c.88-.21,2.53-1.3,2.74-2.13h.17ZM102.71,8V3.3c.76.59,1.49,1.93,2.74,2.24v.21C104.31,6,103,7.87,102.71,8m1.22,2.13h-1.12a4.2,4.2,0,0,1,1.52-2.77c.4-.29.83-.66,1.26-.92s1.3-.27,1.71-.5l2,1.42a8.56,8.56,0,0,1-5.37,2.77m6.39-2.77a7.74,7.74,0,0,1,1.6-1.19c.58-.23,1.67.33,2.15.55a4.19,4.19,0,0,1,2.43,3.41h-.4a7.37,7.37,0,0,1-5.78-2.77m-3.65,2.84c.27-.35,2.71-1.2,3-2.13l2.92,2Z"/><path class="cls-2" d="M116.68,2.88l0,3.73,0,4.47h3.14l2.13,0h5.68l.2,0c.42,0,1.46-.1,2.34-.1.63,0,2.13.2,2.13-.22V.32c0-.25-.08-.32-.31-.32-2.3,0-5.65.05-8.42.1-1,0-2.61,0-3.54,0-.76,0-.89.11-1.72.11-.56,0-1.73-.29-1.73.22V1.92Zm5.08-1.81,6-.11v.21c-1.3.12-2.37,1.52-3.24,2.13-.36-.25-.79-.84-1.28-1.21-.32-.26-1.34-.85-1.46-1m3.35,3c0-.57,2-1.82,2.55-2.12a6.65,6.65,0,0,1,1.59-.66c.34-.07,1.87-.23,2-.31.28,1.38-1.33,3-2.28,3.57a5.32,5.32,0,0,1-2.12.66,6.41,6.41,0,0,1-1.78-1.14m-7.61-3c2.64,0,5.31,1,6.49,2.87a4.29,4.29,0,0,1-2.23,1.28c-1.67,0-4.21-2.32-4.26-4.15m13.95,3.51.05,1-.08,2.56h-.13a4.13,4.13,0,0,0-2.74-2.35V5.54c.88-.21,2.53-1.3,2.74-2.13h.17ZM117.5,8V3.3c.76.59,1.49,1.93,2.74,2.24v.21C119.1,6,117.82,7.87,117.5,8m1.22,2.13H117.6a4.2,4.2,0,0,1,1.52-2.77c.4-.29.83-.66,1.26-.92s1.3-.27,1.71-.5l2,1.42a8.56,8.56,0,0,1-5.37,2.77m6.39-2.77a7.74,7.74,0,0,1,1.6-1.19c.58-.23,1.67.33,2.15.55a4.19,4.19,0,0,1,2.43,3.41h-.4a7.37,7.37,0,0,1-5.78-2.77m-3.65,2.84c.27-.35,2.71-1.2,3-2.13l2.92,2Z"/><path class="cls-1" d="M43.5,2.41c-1.72-.78-4.23-1.17-10.27-1.22.88.47,1.92,1,3,1.68l3,1.86.48.3-1.09.7-3-1.83a56.68,56.68,0,0,0-5.08-2.76L30.14,1V0h.62c9.24-.06,11.91.5,14,1.74a8.68,8.68,0,0,0-1.29.67M55.25,9.66c-.94-.5-1.93-1.06-2.91-1.63C51,7.25,49.72,6.45,48.6,5.73L49.7,5c1,.63,2.08,1.3,3.19,2,1.66,1,3.34,1.89,4.74,2.55v1.28c-.6,0-4.18.07-7.39,0A13.49,13.49,0,0,1,46,10.08,11.46,11.46,0,0,1,43.61,8.9l-.06,0c.31-.17.58-.34.8-.48l.33-.21A9.57,9.57,0,0,0,46.33,9a12.11,12.11,0,0,0,3.93.68c1.74,0,3.58,0,5,0"/><path class="cls-1" d="M35.91,8c-1,.58-2,1.14-2.92,1.64,1.42,0,3.27,0,5,0A12.45,12.45,0,0,0,41.93,9a10.11,10.11,0,0,0,2.13-1.07l.57-.35c1.73-1.09,5.95-3.75,7.44-4.66,1-.64,2.07-1.21,2.94-1.68-9,.07-10.14.91-12.53,2.63l-.76.53c-1.37,1-3.56,2.36-5.81,3.67M30.32,9.68C31.77,9,33.58,8,35.36,7c2.22-1.29,4.38-2.67,5.73-3.62l.75-.53c2.79-2,4-2.9,15.65-2.83H58V1l-.23.11A55.77,55.77,0,0,0,52.65,3.9C50.88,5,46.86,7.51,45.21,8.55l-.57.35a11.71,11.71,0,0,1-2.35,1.18,13.52,13.52,0,0,1-4.28.73c-2.52.06-5.29,0-6.64,0H30v-1Z"/><path class="cls-2" d="M29.73,2.88l0,3.73.06,4.47h5.77l3.9,0H49.84l.37,0c.77,0,2.66-.1,4.28-.1,1.17,0,3.9.2,3.9-.22V.32c0-.25-.13-.32-.56-.32C53.61,0,47.46.05,42.39.1c-1.81,0-4.79,0-6.5,0-1.39,0-1.63.11-3.16.11-1,0-3.16-.29-3.16.22V1.92Zm8.76,7.31.13-.06-7.77,0c-.14-3,0-6,0-9h8.64L48.33,1h0L50,1H57.3a72.38,72.38,0,0,1,0,9.16H45.56Z"/><path class="cls-2" d="M201.75,2.88l0,3.73,0,4.47h3.14l2.13,0h5.68l.2,0c.42,0,1.45-.1,2.33-.1.64,0,2.13.2,2.13-.22V.32c0-.25-.07-.32-.3-.32-2.31,0-5.66.05-8.42.1-1,0-2.61,0-3.54,0-.76,0-.89.11-1.73.11-.56,0-1.72-.29-1.72.22V1.92Zm5.08-1.81,6-.11v.21c-1.3.12-2.38,1.52-3.25,2.13-.35-.25-.78-.84-1.27-1.21-.33-.26-1.34-.85-1.46-1m3.34,3c0-.57,2-1.82,2.55-2.12a6.9,6.9,0,0,1,1.6-.66c.34-.07,1.87-.23,2-.31.28,1.38-1.34,3-2.28,3.57a5.37,5.37,0,0,1-2.12.66,6.32,6.32,0,0,1-1.79-1.14m-7.6-3c2.64,0,5.3,1,6.49,2.87a4.33,4.33,0,0,1-2.23,1.28c-1.68,0-4.21-2.32-4.26-4.15m14,3.51,0,1-.08,2.56h-.12a4.13,4.13,0,0,0-2.74-2.35V5.54c.87-.21,2.53-1.3,2.74-2.13h.16ZM202.57,8V3.3c.76.59,1.48,1.93,2.74,2.24v.21c-1.14.28-2.42,2.12-2.74,2.24m1.22,2.13h-1.12a4.2,4.2,0,0,1,1.52-2.77c.4-.29.83-.66,1.25-.92s1.3-.27,1.71-.5l2,1.42a8.59,8.59,0,0,1-5.37,2.77m6.38-2.77a7.81,7.81,0,0,1,1.61-1.19c.57-.23,1.67.33,2.14.55a4.2,4.2,0,0,1,2.44,3.41H216a7.37,7.37,0,0,1-5.78-2.77m-3.65,2.84c.27-.35,2.72-1.2,3-2.13l2.91,2Z"/><path class="cls-2" d="M187,2.88l0,3.73,0,4.47h3.14l2.13,0h5.68l.2,0c.42,0,1.46-.1,2.34-.1.63,0,2.12.2,2.12-.22V.32c0-.25-.07-.32-.3-.32-2.3,0-5.65.05-8.42.1-1,0-2.61,0-3.54,0-.76,0-.89.11-1.72.11-.56,0-1.73-.29-1.73.22V1.92ZM192,1.07,198,1v.21c-1.3.12-2.37,1.52-3.24,2.13-.36-.25-.79-.84-1.28-1.21-.32-.26-1.34-.85-1.46-1m3.35,3c0-.57,2-1.82,2.55-2.12a6.65,6.65,0,0,1,1.59-.66c.34-.07,1.87-.23,2-.31.28,1.38-1.33,3-2.28,3.57a5.32,5.32,0,0,1-2.12.66,6.41,6.41,0,0,1-1.78-1.14m-7.61-3c2.64,0,5.31,1,6.49,2.87A4.33,4.33,0,0,1,192,5.22c-1.67,0-4.21-2.32-4.26-4.15m13.95,3.51.05,1-.08,2.56h-.13a4.13,4.13,0,0,0-2.74-2.35V5.54c.88-.21,2.53-1.3,2.74-2.13h.17ZM187.77,8V3.3c.76.59,1.49,1.93,2.74,2.24v.21c-1.14.28-2.42,2.12-2.74,2.24M189,10.12h-1.12a4.2,4.2,0,0,1,1.52-2.77c.4-.29.83-.66,1.26-.92s1.3-.27,1.71-.5l2,1.42A8.56,8.56,0,0,1,189,10.12m6.39-2.77A7.74,7.74,0,0,1,197,6.16c.58-.23,1.67.33,2.15.55a4.19,4.19,0,0,1,2.43,3.41h-.4a7.37,7.37,0,0,1-5.78-2.77m-3.65,2.84c.27-.35,2.71-1.2,3-2.13l2.92,2Z"/><path class="cls-2" d="M172.15,2.88l0,3.73,0,4.47h3.14l2.13,0h5.67l.21,0c.42,0,1.45-.1,2.33-.1.64,0,2.13.2,2.13-.22V.32c0-.25-.07-.32-.31-.32-2.3,0-5.65.05-8.42.1-1,0-2.61,0-3.54,0-.76,0-.88.11-1.72.11-.56,0-1.73-.29-1.73.22V1.92Zm5.08-1.81,6-.11v.21c-1.3.12-2.38,1.52-3.25,2.13-.36-.25-.78-.84-1.27-1.21-.33-.26-1.35-.85-1.47-1m3.35,3c0-.57,2-1.82,2.55-2.12a6.9,6.9,0,0,1,1.6-.66c.33-.07,1.87-.23,2-.31.28,1.38-1.33,3-2.27,3.57a5.41,5.41,0,0,1-2.13.66,6.41,6.41,0,0,1-1.78-1.14m-7.6-3c2.63,0,5.3,1,6.48,2.87a4.25,4.25,0,0,1-2.23,1.28c-1.67,0-4.21-2.32-4.25-4.15m14,3.51,0,1-.08,2.56h-.13A4.11,4.11,0,0,0,184,5.75V5.54c.87-.21,2.52-1.3,2.73-2.13h.17ZM173,8V3.3c.76.59,1.48,1.93,2.73,2.24v.21C174.58,6,173.29,7.87,173,8m1.21,2.13h-1.11a4.2,4.2,0,0,1,1.52-2.77c.39-.29.82-.66,1.25-.92s1.3-.27,1.71-.5l2,1.42a8.62,8.62,0,0,1-5.38,2.77m6.39-2.77a7.81,7.81,0,0,1,1.61-1.19c.57-.23,1.67.33,2.14.55a4.19,4.19,0,0,1,2.43,3.41h-.4a7.37,7.37,0,0,1-5.78-2.77m-3.65,2.84c.27-.35,2.71-1.2,3-2.13l2.91,2Z"/><path class="cls-2" d="M273.91,2.88l0,3.73,0,4.47h3.14l2.13,0h5.68l.2,0c.42,0,1.45-.1,2.33-.1.64,0,2.13.2,2.13-.22V.32c0-.25-.07-.32-.3-.32-2.31,0-5.65.05-8.42.1-1,0-2.61,0-3.54,0-.76,0-.89.11-1.72.11-.56,0-1.73-.29-1.73.22V1.92ZM279,1.07,285,1v.21c-1.3.12-2.37,1.52-3.24,2.13-.36-.25-.79-.84-1.28-1.21-.33-.26-1.34-.85-1.46-1m3.34,3c0-.57,2-1.82,2.56-2.12a6.65,6.65,0,0,1,1.59-.66c.34-.07,1.87-.23,2-.31.28,1.38-1.33,3-2.28,3.57a5.37,5.37,0,0,1-2.12.66,6.47,6.47,0,0,1-1.79-1.14m-7.6-3c2.64,0,5.31,1,6.49,2.87A4.33,4.33,0,0,1,279,5.22c-1.67,0-4.21-2.32-4.26-4.15m13.95,3.51,0,1-.08,2.56h-.12a4.13,4.13,0,0,0-2.74-2.35V5.54c.88-.21,2.53-1.3,2.74-2.13h.17ZM274.73,8V3.3c.76.59,1.49,1.93,2.74,2.24v.21c-1.14.28-2.42,2.12-2.74,2.24M276,10.12h-1.12a4.2,4.2,0,0,1,1.52-2.77c.4-.29.83-.66,1.26-.92s1.29-.27,1.7-.5l2,1.42A8.56,8.56,0,0,1,276,10.12m6.38-2.77a8.09,8.09,0,0,1,1.61-1.19c.58-.23,1.67.33,2.15.55a4.21,4.21,0,0,1,2.43,3.41h-.41a7.38,7.38,0,0,1-5.78-2.77m-3.65,2.84c.28-.35,2.72-1.2,3-2.13l2.91,2Z"/><path class="cls-2" d="M216.56,2.88l0,3.73,0,4.47h3.14l2.13,0h5.68l.2,0c.42,0,1.45-.1,2.33-.1.64,0,2.13.2,2.13-.22V.32c0-.25-.07-.32-.3-.32-2.31,0-5.66.05-8.42.1-1,0-2.61,0-3.54,0-.76,0-.89.11-1.73.11-.56,0-1.72-.29-1.72.22V1.92Zm5.09-1.81,6-.11v.21c-1.3.12-2.38,1.52-3.25,2.13-.35-.25-.78-.84-1.27-1.21-.33-.26-1.34-.85-1.46-1m3.34,3c0-.57,2-1.82,2.55-2.12a6.9,6.9,0,0,1,1.6-.66c.34-.07,1.87-.23,2-.31.27,1.38-1.34,3-2.28,3.57a5.37,5.37,0,0,1-2.12.66A6.32,6.32,0,0,1,225,4.05m-7.6-3c2.63,0,5.3,1,6.49,2.87a4.33,4.33,0,0,1-2.23,1.28c-1.68,0-4.21-2.32-4.26-4.15m14,3.51,0,1L231.3,8.1h-.12a4.13,4.13,0,0,0-2.74-2.35V5.54c.87-.21,2.53-1.3,2.74-2.13h.16ZM217.39,8V3.3c.76.59,1.48,1.93,2.74,2.24v.21C219,6,217.7,7.87,217.39,8m1.21,2.13h-1.11A4.2,4.2,0,0,1,219,7.35c.39-.29.82-.66,1.25-.92s1.3-.27,1.71-.5l2,1.42a8.62,8.62,0,0,1-5.38,2.77M225,7.35a7.81,7.81,0,0,1,1.61-1.19c.57-.23,1.67.33,2.14.55a4.2,4.2,0,0,1,2.44,3.41h-.41A7.37,7.37,0,0,1,225,7.35m-3.65,2.84c.27-.35,2.71-1.2,3-2.13l2.91,2Z"/><path class="cls-2" d="M288.73,2.88l0,3.73,0,4.47h3.14l2.13,0h5.68l.2,0c.42,0,1.45-.1,2.33-.1.64,0,2.13.2,2.13-.22V.32c0-.25-.07-.32-.3-.32-2.31,0-5.66.05-8.42.1-1,0-2.61,0-3.54,0-.76,0-.89.11-1.73.11-.55,0-1.72-.29-1.72.22V1.92Zm5.08-1.81,6-.11v.21c-1.3.12-2.37,1.52-3.24,2.13-.36-.25-.79-.84-1.28-1.21-.33-.26-1.34-.85-1.46-1m3.34,3c0-.57,2-1.82,2.56-2.12a6.65,6.65,0,0,1,1.59-.66c.34-.07,1.87-.23,2-.31.28,1.38-1.33,3-2.28,3.57a5.37,5.37,0,0,1-2.12.66,6.32,6.32,0,0,1-1.79-1.14m-7.6-3c2.64,0,5.31,1,6.49,2.87a4.33,4.33,0,0,1-2.23,1.28c-1.67,0-4.21-2.32-4.26-4.15M303.5,4.58l0,1-.08,2.56h-.12a4.13,4.13,0,0,0-2.74-2.35V5.54c.87-.21,2.53-1.3,2.74-2.13h.16ZM289.55,8V3.3c.76.59,1.49,1.93,2.74,2.24v.21c-1.14.28-2.42,2.12-2.74,2.24m1.22,2.13h-1.12a4.2,4.2,0,0,1,1.52-2.77c.4-.29.83-.66,1.26-.92s1.29-.27,1.7-.5l2,1.42a8.56,8.56,0,0,1-5.37,2.77m6.38-2.77a8.09,8.09,0,0,1,1.61-1.19c.58-.23,1.67.33,2.15.55a4.21,4.21,0,0,1,2.43,3.41h-.41a7.38,7.38,0,0,1-5.78-2.77m-3.65,2.84c.28-.35,2.72-1.2,3-2.13l2.91,2Z"/><path class="cls-2" d="M231.4,2.88l0,3.73,0,4.47h3.14l2.13,0h5.68l.2,0c.42,0,1.45-.1,2.33-.1.64,0,2.13.2,2.13-.22V.32c0-.25-.07-.32-.3-.32-2.31,0-5.66.05-8.42.1-1,0-2.61,0-3.54,0-.76,0-.89.11-1.73.11-.56,0-1.72-.29-1.72.22V1.92Zm5.08-1.81,6-.11v.21c-1.3.12-2.38,1.52-3.25,2.13-.35-.25-.78-.84-1.27-1.21-.33-.26-1.34-.85-1.46-1m3.34,3c0-.57,2-1.82,2.55-2.12a6.9,6.9,0,0,1,1.6-.66c.34-.07,1.87-.23,2-.31.28,1.38-1.34,3-2.28,3.57a5.37,5.37,0,0,1-2.12.66,6.32,6.32,0,0,1-1.79-1.14m-7.6-3c2.64,0,5.3,1,6.49,2.87a4.33,4.33,0,0,1-2.23,1.28c-1.68,0-4.21-2.32-4.26-4.15m13.95,3.51,0,1-.08,2.56H246a4.13,4.13,0,0,0-2.74-2.35V5.54c.87-.21,2.53-1.3,2.74-2.13h.16ZM232.22,8V3.3c.76.59,1.49,1.93,2.74,2.24v.21c-1.14.28-2.42,2.12-2.74,2.24m1.22,2.13h-1.12a4.2,4.2,0,0,1,1.52-2.77c.4-.29.83-.66,1.25-.92s1.3-.27,1.71-.5l2,1.42a8.59,8.59,0,0,1-5.37,2.77m6.38-2.77a7.81,7.81,0,0,1,1.61-1.19c.57-.23,1.67.33,2.14.55A4.2,4.2,0,0,1,246,10.12h-.41a7.37,7.37,0,0,1-5.78-2.77m-3.65,2.84c.28-.35,2.72-1.2,3-2.13l2.91,2Z"/><path class="cls-1" d="M260,2.41c-1.72-.78-4.23-1.17-10.26-1.22.87.47,1.91,1,2.94,1.68l3,1.86.48.3c-.34.23-.71.46-1.09.7l-3-1.83C249.54,2.34,247,1.14,247,1.14L246.6,1V0h.63c9.23-.06,11.91.5,14,1.74a9.2,9.2,0,0,0-1.29.67m11.76,7.25c-1-.5-1.94-1.06-2.92-1.63-1.32-.78-2.62-1.58-3.74-2.3l1.1-.69c1,.63,2.08,1.3,3.19,2,1.66,1,3.35,1.89,4.74,2.55v1.28c-.59,0-4.18.07-7.39,0a13.49,13.49,0,0,1-4.28-.74,11.46,11.46,0,0,1-2.35-1.18l-.06,0c.32-.17.58-.34.8-.48l.34-.21a9.09,9.09,0,0,0,1.64.77,12.16,12.16,0,0,0,3.93.68c1.74,0,3.58,0,5,0"/><path class="cls-1" d="M252.37,8c-1,.58-2,1.14-2.91,1.64,1.41,0,3.26,0,5,0A12.45,12.45,0,0,0,258.39,9a10.11,10.11,0,0,0,2.13-1.07l.57-.35c1.73-1.09,6-3.75,7.44-4.66,1-.64,2.07-1.21,2.94-1.68-9,.07-10.14.91-12.53,2.63l-.76.53c-1.37,1-3.56,2.36-5.81,3.67m-5.59,1.66C248.23,9,250,8,251.82,7c2.22-1.29,4.38-2.67,5.74-3.62l.74-.53C261.09.83,262.35-.07,274,0h.46V1l-.23.11a57.32,57.32,0,0,0-5.07,2.76c-1.77,1.08-5.79,3.61-7.44,4.65l-.57.35a11.71,11.71,0,0,1-2.35,1.18,13.52,13.52,0,0,1-4.28.73c-2.52.06-5.29,0-6.64,0h-1.37v-1Z"/><path class="cls-2" d="M246.19,2.88l0,3.73.06,4.47H252l3.9,0H266.3l.37,0c.77,0,2.66-.1,4.28-.1,1.17,0,3.9.2,3.9-.22V.32c0-.25-.13-.32-.55-.32-4.23,0-10.37.05-15.45.1-1.81,0-4.79,0-6.49,0-1.4,0-1.63.11-3.17.11-1,0-3.16-.29-3.16.22V1.92ZM255,10.19l.13-.06-7.77,0c-.14-3,0-6,0-9h8.64L264.79,1h0l1.67,0h7.29a74.33,74.33,0,0,1,0,9.16H262Z"/></g></g></svg>