<svg xmlns="http://www.w3.org/2000/svg" viewBox="0 0 10.69 155.95"><defs><style>.cls-1,.cls-2{fill:#7f6841;}.cls-1{fill-rule:evenodd;}</style></defs><title>3_v</title><g id="Layer_2" data-name="Layer 2"><g id="Layer_1-2" data-name="Layer 1"><path class="cls-1" d="M7.91,32.29l-3.59,0L0,32.3v3.24l0,2.2V43.6l0,.21c0,.43.1,1.49.1,2.4,0,.66-.2,2.2.21,2.2H10.38c.24,0,.31-.07.31-.32,0-2.37,0-5.83-.1-8.68,0-1,0-2.69,0-3.65,0-.79-.1-.92-.11-1.78,0-.58.29-1.78-.2-1.78H8.84Zm1.75,5.24.11,6.17H9.56c-.11-1.34-1.46-2.45-2.06-3.34.25-.37.81-.82,1.18-1.32.24-.34.82-1.38,1-1.51M6.78,41c.55,0,1.76,2.11,2,2.63a7.09,7.09,0,0,1,.65,1.65c.07.35.21,1.93.3,2.1C8.44,47.65,6.84,46,6.32,45a5.56,5.56,0,0,1-.63-2.19A6.78,6.78,0,0,1,6.78,41m2.88-7.84c0,2.72-1,5.47-2.77,6.69a4.45,4.45,0,0,1-1.24-2.3c0-1.72,2.25-4.34,4-4.39M6.27,47.53l-.92,0-2.48-.08v-.13a4.13,4.13,0,0,0,2.26-2.82h.21c.2.9,1.25,2.6,2.05,2.82v.17ZM3,33.14H7.5c-.56.78-1.86,1.53-2.15,2.82H5.14c-.27-1.17-2-2.49-2.16-2.82m-2,1.25V33.24A4,4,0,0,1,3.6,34.81c.28.41.64.85.89,1.3s.25,1.33.48,1.76L3.6,39.94A9.09,9.09,0,0,1,.93,34.39M3.6,41a8.42,8.42,0,0,1,1.15,1.66c.22.59-.32,1.72-.54,2.21A4.06,4.06,0,0,1,.93,47.36v-.42c0-2.26,1.12-4.91,2.67-6M.86,37.22C1.2,37.5,2,40,2.92,40.28l-2,3Z"/><path class="cls-1" d="M7.91,16.3l-3.59,0L0,16.31v3.24l0,2.2v5.86l0,.21c0,.43.1,1.49.1,2.4,0,.66-.2,2.2.21,2.2H10.38c.24,0,.31-.07.31-.32,0-2.37,0-5.83-.1-8.68,0-1,0-2.69,0-3.65,0-.79-.1-.92-.11-1.78,0-.58.29-1.78-.2-1.78H8.84Zm1.75,5.24.11,6.17H9.56c-.11-1.34-1.46-2.45-2.06-3.34.25-.37.81-.82,1.18-1.32.24-.34.82-1.39,1-1.51M6.78,25c.55,0,1.76,2.11,2,2.63a7.09,7.09,0,0,1,.65,1.65c.07.35.21,1.93.3,2.1C8.44,31.66,6.84,30,6.32,29a5.56,5.56,0,0,1-.63-2.19A6.78,6.78,0,0,1,6.78,25m2.88-7.84c0,2.72-1,5.47-2.77,6.69a4.45,4.45,0,0,1-1.24-2.3c0-1.72,2.25-4.34,4-4.39M6.27,31.54l-.92,0L2.87,31.5v-.13a4.13,4.13,0,0,0,2.26-2.82h.21c.2.9,1.25,2.6,2.05,2.82v.17ZM3,17.15H7.5c-.56.78-1.86,1.53-2.15,2.82H5.14c-.27-1.17-2-2.49-2.16-2.82m-2,1.25V17.25A4,4,0,0,1,3.6,18.82c.28.41.64.85.89,1.3s.25,1.33.48,1.76L3.6,24A9.09,9.09,0,0,1,.93,18.4M3.6,25a8.42,8.42,0,0,1,1.15,1.66c.22.59-.32,1.72-.54,2.21A4.06,4.06,0,0,1,.93,31.37V31c0-2.26,1.12-4.91,2.67-6M.86,21.23C1.2,21.51,2,24,2.92,24.29l-2,3Z"/><path class="cls-1" d="M7.91.09,4.32.07,0,.1V3.35L0,5.54V11.4l0,.21c0,.43.1,1.5.1,2.4,0,.66-.2,2.2.21,2.2H10.38c.24,0,.31-.07.31-.31,0-2.38,0-5.84-.1-8.69,0-1,0-2.69,0-3.65,0-.78-.1-.92-.11-1.78,0-.58.29-1.78-.2-1.78H8.84ZM9.66,5.33l.11,6.17H9.56C9.45,10.16,8.1,9.05,7.5,8.16c.25-.37.81-.81,1.18-1.32.24-.34.82-1.38,1-1.51M6.78,8.78c.55,0,1.76,2.11,2,2.64a6.85,6.85,0,0,1,.65,1.64c.07.35.21,1.93.3,2.1-1.33.29-2.93-1.37-3.45-2.34a5.65,5.65,0,0,1-.63-2.2A6.78,6.78,0,0,1,6.78,8.78M9.66.94c0,2.72-1,5.47-2.77,6.69a4.45,4.45,0,0,1-1.24-2.3C5.65,3.61,7.9,1,9.66.94M6.27,15.33l-.92.05-2.48-.09v-.13a4.13,4.13,0,0,0,2.26-2.82h.21c.2.9,1.25,2.61,2.05,2.82v.17ZM3,.94H7.5c-.56.79-1.86,1.53-2.15,2.82H5.14C4.87,2.59,3.1,1.27,3,.94M.93,2.2V1A4,4,0,0,1,3.6,2.61c.28.41.64.85.89,1.3S4.74,5.24,5,5.67L3.6,7.74A9.09,9.09,0,0,1,.93,2.2M3.6,8.78a8.73,8.73,0,0,1,1.15,1.66c.22.6-.32,1.73-.54,2.21A4,4,0,0,1,.93,15.16v-.42c0-2.26,1.12-4.9,2.67-6M.86,5C1.2,5.3,2,7.82,2.92,8.08l-2,3Z"/><path class="cls-1" d="M7.91,47.59l-3.59,0L0,47.6v3.25L0,53V58.9l0,.21c0,.43.1,1.5.1,2.4,0,.66-.2,2.2.21,2.2H10.38c.24,0,.31-.07.31-.31,0-2.38,0-5.84-.1-8.69,0-1,0-2.69,0-3.65,0-.78-.1-.92-.11-1.78,0-.57.29-1.78-.2-1.78H8.84Zm1.75,5.24L9.77,59H9.56c-.11-1.33-1.46-2.45-2.06-3.34.25-.37.81-.81,1.18-1.32.24-.34.82-1.38,1-1.51M6.78,56.29c.55,0,1.76,2.1,2,2.63a7,7,0,0,1,.65,1.64c.07.35.21,1.93.3,2.1-1.33.29-2.93-1.37-3.45-2.34a5.65,5.65,0,0,1-.63-2.2,6.72,6.72,0,0,1,1.09-1.83m2.88-7.85c0,2.72-1,5.47-2.77,6.69a4.45,4.45,0,0,1-1.24-2.3c0-1.72,2.25-4.34,4-4.39M6.27,62.83l-.92.05-2.48-.09v-.13a4.13,4.13,0,0,0,2.26-2.82h.21c.2.9,1.25,2.61,2.05,2.82v.18ZM3,48.44H7.5c-.56.79-1.86,1.53-2.15,2.83H5.14c-.27-1.18-2-2.5-2.16-2.83m-2,1.26V48.55A3.94,3.94,0,0,1,3.6,50.11c.28.41.64.86.89,1.3s.25,1.34.48,1.76L3.6,55.24A9.09,9.09,0,0,1,.93,49.7M3.6,56.29a8.34,8.34,0,0,1,1.15,1.65c.22.6-.32,1.73-.54,2.21A4,4,0,0,1,.93,62.66v-.41c0-2.27,1.12-4.91,2.67-6M.86,52.52c.34.28,1.15,2.8,2.06,3.06l-2,3Z"/><path class="cls-2" d="M8.17,77c.75-1.78,1.14-4.37,1.18-10.59-.45.9-1,2-1.62,3-.28.49-1,1.69-1.8,3.08l-.29.5L5,71.89l1.77-3c1.5-2.61,2.65-5.23,2.66-5.24l.18-.4h.91v.64c.06,9.53-.48,12.29-1.67,14.47A9.13,9.13,0,0,0,8.17,77m-7,12.12c.48-1,1-2,1.58-3,.74-1.36,1.52-2.7,2.21-3.86l.67,1.13c-.61,1-1.25,2.15-1.88,3.3-.94,1.71-1.83,3.45-2.46,4.89H.06c0-.62-.07-4.32,0-7.63a14.72,14.72,0,0,1,.71-4.41A12.83,12.83,0,0,1,1.91,77.1l0-.06c.17.33.33.6.46.83l.2.34a10.8,10.8,0,0,0-.74,1.69A13.62,13.62,0,0,0,1.21,84c0,1.79,0,3.69,0,5.15"/><path class="cls-2" d="M2.76,69.16c-.56-1-1.1-2-1.58-3,0,1.47,0,3.37,0,5.15a13.7,13.7,0,0,0,.65,4.07,11.58,11.58,0,0,0,1,2.2l.35.58c1,1.79,3.61,6.14,4.49,7.68.61,1.07,1.17,2.14,1.62,3-.06-9.25-.88-10.47-2.53-12.93-.17-.25-.34-.5-.52-.79-.92-1.41-2.27-3.67-3.54-6m-1.6-5.77c.64,1.5,1.59,3.37,2.6,5.21C5,70.88,6.35,73.11,7.25,74.51l.52.77c1.93,2.88,2.8,4.17,2.72,16.14v.47h-1l-.1-.24S8.24,89,6.74,86.42c-1-1.81-3.48-6-4.49-7.67l-.34-.58A12.31,12.31,0,0,1,.78,75.74a14.72,14.72,0,0,1-.71-4.41c-.06-2.61,0-5.46,0-6.85v-.63h0v-.78H1Z"/><path class="cls-1" d="M7.91,62.78l-3.59,0L0,62.81v5.94l0,4V83.53l0,.38c0,.79.1,2.75.1,4.41,0,1.21-.2,4,.21,4H10.38c.24,0,.31-.13.31-.58,0-4.36,0-10.69-.1-15.93,0-1.86,0-4.94,0-6.7,0-1.43-.1-1.68-.11-3.26,0-1,.29-3.26-.2-3.26H8.84Zm-7,9A.81.81,0,0,1,.92,72l0-8c2.86-.15,5.75,0,8.72,0v8.91L9.75,82v0l0,1.73h0l0,7.51a67.39,67.39,0,0,1-8.84,0V79.11Z"/><path class="cls-1" d="M7.91,91.49l-3.59,0L0,91.5v3.24l0,2.2v5.85L0,103c0,.43.1,1.5.1,2.41,0,.65-.2,2.19.21,2.19H10.38c.24,0,.31-.07.31-.31,0-2.38,0-5.83-.1-8.68,0-1,0-2.7,0-3.66,0-.78-.1-.91-.11-1.77,0-.58.29-1.79-.2-1.79H8.84Zm1.75,5.24.11,6.17H9.56c-.11-1.34-1.46-2.45-2.06-3.35.25-.37.81-.81,1.18-1.31.24-.34.82-1.39,1-1.51m-2.88,3.45c.55,0,1.76,2.1,2,2.63a7.09,7.09,0,0,1,.65,1.65c.07.34.21,1.92.3,2.1-1.33.28-2.93-1.38-3.45-2.35A5.65,5.65,0,0,1,5.69,102a6.78,6.78,0,0,1,1.09-1.84m2.88-7.84c0,2.72-1,5.47-2.77,6.69a4.53,4.53,0,0,1-1.24-2.3c0-1.73,2.25-4.34,4-4.39M6.27,106.73l-.92,0-2.48-.08v-.13a4.15,4.15,0,0,0,2.26-2.83h.21c.2.91,1.25,2.61,2.05,2.83v.17ZM3,92.34H7.5c-.56.78-1.86,1.53-2.15,2.82H5.14C4.87,94,3.1,92.66,3,92.34m-2,1.25V92.44A4,4,0,0,1,3.6,94c.28.41.64.85.89,1.29s.25,1.34.48,1.76L3.6,99.13A9.06,9.06,0,0,1,.93,93.59m2.67,6.59a8.34,8.34,0,0,1,1.15,1.65c.22.6-.32,1.73-.54,2.22a4.06,4.06,0,0,1-3.28,2.51v-.42c0-2.27,1.12-4.91,2.67-6M.86,96.41c.34.28,1.15,2.8,2.06,3.06l-2,3Z"/><path class="cls-1" d="M7.91,107.59l-3.59,0L0,107.6v3.24L0,113v5.86l0,.2c0,.44.1,1.5.1,2.41,0,.66-.2,2.2.21,2.2H10.38c.24,0,.31-.08.31-.32,0-2.38,0-5.83-.1-8.68,0-1,0-2.7,0-3.66,0-.78-.1-.91-.11-1.77,0-.58.29-1.78-.2-1.78H8.84Zm1.75,5.24L9.77,119H9.56c-.11-1.34-1.46-2.45-2.06-3.35.25-.37.81-.81,1.18-1.31.24-.34.82-1.39,1-1.51m-2.88,3.45c.55,0,1.76,2.1,2,2.63a7.09,7.09,0,0,1,.65,1.65c.07.35.21,1.93.3,2.1-1.33.29-2.93-1.37-3.45-2.35a5.56,5.56,0,0,1-.63-2.19,6.78,6.78,0,0,1,1.09-1.84m2.88-7.84c0,2.72-1,5.47-2.77,6.69a4.49,4.49,0,0,1-1.24-2.3c0-1.73,2.25-4.34,4-4.39M6.27,122.83l-.92,0-2.48-.08v-.13a4.15,4.15,0,0,0,2.26-2.82h.21c.2.9,1.25,2.6,2.05,2.82v.17ZM3,108.44H7.5c-.56.78-1.86,1.53-2.15,2.82H5.14c-.27-1.17-2-2.5-2.16-2.82m-2,1.25v-1.15a4,4,0,0,1,2.67,1.57c.28.41.64.85.89,1.29s.25,1.34.48,1.76L3.6,115.24a9.09,9.09,0,0,1-2.67-5.55m2.67,6.59a8.14,8.14,0,0,1,1.15,1.66c.22.59-.32,1.72-.54,2.21a4.06,4.06,0,0,1-3.28,2.51v-.42c0-2.26,1.12-4.91,2.67-6M.86,112.52c.34.28,1.15,2.79,2.06,3.06l-2,3Z"/><path class="cls-1" d="M7.91,123.62l-3.59,0-4.32,0v3.25l0,2.19v5.86l0,.21c0,.43.1,1.5.1,2.4,0,.66-.2,2.2.21,2.2H10.38c.24,0,.31-.07.31-.31,0-2.38,0-5.84-.1-8.69,0-1,0-2.69,0-3.65,0-.78-.1-.92-.11-1.78,0-.57.29-1.78-.2-1.78H8.84Zm1.75,5.24L9.77,135H9.56c-.11-1.33-1.46-2.45-2.06-3.34.25-.37.81-.81,1.18-1.32.24-.34.82-1.38,1-1.51m-2.88,3.45c.55,0,1.76,2.11,2,2.64a7,7,0,0,1,.65,1.64c.07.35.21,1.93.3,2.1-1.33.29-2.93-1.37-3.45-2.34a5.65,5.65,0,0,1-.63-2.2,6.78,6.78,0,0,1,1.09-1.84m2.88-7.84c0,2.72-1,5.47-2.77,6.69a4.45,4.45,0,0,1-1.24-2.3c0-1.72,2.25-4.34,4-4.39M6.27,138.86l-.92,0-2.48-.09v-.13a4.13,4.13,0,0,0,2.26-2.82h.21c.2.9,1.25,2.61,2.05,2.82v.18ZM3,124.47H7.5c-.56.79-1.86,1.53-2.15,2.83H5.14c-.27-1.18-2-2.5-2.16-2.83m-2,1.26v-1.15a3.94,3.94,0,0,1,2.67,1.56c.28.41.64.86.89,1.3s.25,1.34.48,1.76L3.6,131.27a9.09,9.09,0,0,1-2.67-5.54m2.67,6.58A8.73,8.73,0,0,1,4.75,134c.22.6-.32,1.73-.54,2.21a4,4,0,0,1-3.28,2.51v-.41c0-2.27,1.12-4.91,2.67-6M.86,128.55c.34.28,1.15,2.8,2.06,3.06l-2,3Z"/><path class="cls-1" d="M7.91,139.83l-3.59,0-4.32,0v3.25l0,2.19v5.86l0,.21c0,.43.1,1.49.1,2.4,0,.66-.2,2.2.21,2.2H10.38c.24,0,.31-.07.31-.32,0-2.37,0-5.83-.1-8.68,0-1,0-2.69,0-3.65,0-.79-.1-.92-.11-1.78,0-.58.29-1.78-.2-1.78H8.84Zm1.75,5.24.11,6.17H9.56c-.11-1.34-1.46-2.45-2.06-3.34.25-.37.81-.81,1.18-1.32.24-.34.82-1.38,1-1.51m-2.88,3.45c.55,0,1.76,2.11,2,2.64a6.85,6.85,0,0,1,.65,1.64c.07.35.21,1.93.3,2.1-1.33.29-2.93-1.37-3.45-2.35a5.56,5.56,0,0,1-.63-2.19,6.78,6.78,0,0,1,1.09-1.84m2.88-7.84c0,2.72-1,5.47-2.77,6.69a4.45,4.45,0,0,1-1.24-2.3c0-1.72,2.25-4.34,4-4.39M6.27,155.07l-.92.05L2.87,155v-.13a4.13,4.13,0,0,0,2.26-2.82h.21c.2.9,1.25,2.61,2.05,2.82v.17ZM3,140.68H7.5c-.56.78-1.86,1.53-2.15,2.82H5.14c-.27-1.17-2-2.49-2.16-2.82m-2,1.26v-1.16a4,4,0,0,1,2.67,1.57c.28.41.64.85.89,1.3s.25,1.33.48,1.76L3.6,147.48a9.09,9.09,0,0,1-2.67-5.54m2.67,6.58a8.73,8.73,0,0,1,1.15,1.66c.22.59-.32,1.72-.54,2.21A4.06,4.06,0,0,1,.93,154.9v-.42c0-2.26,1.12-4.9,2.67-6M.86,144.76c.34.28,1.15,2.8,2.06,3.06l-2,3Z"/></g></g></svg>