<svg xmlns="http://www.w3.org/2000/svg" viewBox="0 0 31.04 32.12"><defs><style>.cls-1{fill:#7f6841;fill-rule:evenodd;}</style></defs><title>3_l_d</title><g id="Layer_2" data-name="Layer 2"><g id="Layer_1-2" data-name="Layer 1"><path class="cls-1" d="M11.27,16.21h1.44c.49,0,.2-1.21.2-1.78,0-.86.11-1,.11-1.78,0-1,0-2.64,0-3.65.05-2.86.1-6.31.1-8.69,0-.24-.07-.31-.31-.31H2.74c-.41,0-.21,1.54-.21,2.2,0,.9-.1,2-.1,2.4l0,.21v5.86l0,2.19V16.1l4.32,0,3.6,0Zm.82-5.33c-.16-.13-.74-1.17-1-1.51-.37-.51-.93-.95-1.17-1.32.59-.9,1.94-2,2.05-3.34h.21l-.11,6.17M9.22,7.42a6.55,6.55,0,0,1-1.1-1.84,5.65,5.65,0,0,1,.63-2.19c.52-1,2.12-2.63,3.45-2.34-.09.17-.23,1.75-.3,2.1a6.76,6.76,0,0,1-.65,1.64c-.28.53-1.49,2.63-2,2.63m2.87,7.85c-1.76,0-4-2.67-4-4.39A4.52,4.52,0,0,1,9.32,8.57c1.79,1.23,2.77,4,2.77,6.7M9.83.87v.18C9,1.26,8,3,7.78,3.87H7.57A4.13,4.13,0,0,0,5.31,1.05V.92L7.78.83,8.7.88ZM5.41,15.27c.12-.33,1.89-1.65,2.16-2.83h.21c.29,1.29,1.59,2,2.16,2.83H5.41M3.36,14A9.09,9.09,0,0,1,6,8.47L7.4,10.54c-.22.42-.18,1.23-.48,1.76s-.61.89-.89,1.3a3.94,3.94,0,0,1-2.67,1.56V14M6,7.42c-1.54-1-2.67-3.69-2.67-6V1.05a4.08,4.08,0,0,1,3.29,2.5c.21.49.75,1.62.53,2.22A8,8,0,0,1,6,7.42M3.38,5.12l2,3c-.9.26-1.72,2.78-2.06,3.06Z"/><path class="cls-1" d="M.6,32l.89-.16.29.1,12.47.21h1v-2L15.44,27V16.27l-3.27,0-1.93,0H9.35l-1-.14-1.63,0-.74,0H1.19c-1.55,0-1,.85-1,2.93v4.31C.15,26.41,0,29,0,32Zm7.23-4A4.5,4.5,0,0,0,10,30.43v.3l-1-.15h-.6L7,30.71l-.45,0h-1Zm-.7-1.51a7.12,7.12,0,0,1-2.08,3.09c-.24.17-3.19,1.79-3.66.86-.39-.76,1-3.16,1.32-3.6,1.15-1.41,1.38-1.26,2.93-2l1.49,1.69M10,24.73c.79,0,2.57,1.56,3,2.15a6.07,6.07,0,0,1,1.18,3.85h-.59c-2.39,0-4.75-2.45-5.2-4.46A7.34,7.34,0,0,1,10,24.73M14.14,22l0,4.42-2.43-2.06ZM3.88,24.1,4,23.94,1.34,26.59V24l.14-1.54c0-.39-.06-.38-.13-.78Zm4.58-2.45a5.76,5.76,0,0,1,2.28-3c.52-.4,3.51-1.78,3.51-.53,0,2.16-2.25,5.39-3.86,5.39h-.15c-.42,0-1.56-1.51-1.78-1.85m-7-4.3c2.14.51,2,0,3.77,1.32a4.68,4.68,0,0,1,1.87,3.14c0,.13-1.28,1.37-1.49,1.69a6.61,6.61,0,0,1-2.9-2.07c-1.22-1.31-1-1.76-1.4-3.62l.15-.46m4,.11,4.71,0L7.86,20Z"/><path class="cls-1" d="M15.33,28.15v1.49c0,.51,1.17.21,1.73.21.83,0,1,.11,1.72.12.93,0,2.56,0,3.54,0,2.77.05,6.12.1,8.42.1.23,0,.3-.08.3-.32V19.31c0-.43-1.49-.22-2.13-.22-.87,0-1.91-.1-2.33-.1l-.2,0H20.7l-2.13,0H15.43l0,4.47,0,3.73ZM20.5,29c.12-.17,1.13-.77,1.46-1,.49-.38.92-1,1.28-1.22.87.62,1.94,2,3.24,2.14v.21l-6-.11m3.35-3a6.41,6.41,0,0,1,1.78-1.14,5.19,5.19,0,0,1,2.12.65c.95.55,2.56,2.2,2.28,3.58-.17-.09-1.7-.24-2-.31a6.67,6.67,0,0,1-1.59-.67c-.52-.3-2.55-1.54-2.55-2.11m-7.61,3c.05-1.83,2.59-4.15,4.26-4.15a4.33,4.33,0,0,1,2.23,1.28C21.55,28,18.88,29,16.24,29m14-2.34H30c-.21-.83-1.86-1.92-2.74-2.13v-.22A4.09,4.09,0,0,0,30,22h.13l.08,2.57,0,1Zm-14-4.58c.32.12,1.6,2,2.74,2.23v.22c-1.25.3-2,1.65-2.74,2.23V22.08m1.22-2.14a8.57,8.57,0,0,1,5.37,2.78l-2,1.41c-.41-.23-1.19-.18-1.7-.49s-.86-.64-1.26-.92a4.2,4.2,0,0,1-1.52-2.78h1.12m6.39,2.78a7.34,7.34,0,0,1,5.77-2.78H30a4.17,4.17,0,0,1-2.43,3.41c-.48.23-1.57.78-2.15.56a7.74,7.74,0,0,1-1.6-1.19M26.08,20l-2.92,2c-.25-.94-2.69-1.78-3-2.14Z"/></g></g></svg>