<svg xmlns="http://www.w3.org/2000/svg" viewBox="0 0 31.04 32.12"><defs><style>.cls-1{fill:#7f6841;fill-rule:evenodd;}</style></defs><title>3_r_d</title><g id="Layer_2" data-name="Layer 2"><g id="Layer_1-2" data-name="Layer 1"><path class="cls-1" d="M19.77,15.91H18.33c-.49,0-.2,1.2-.2,1.78,0,.86-.1,1-.11,1.78,0,1,0,2.63,0,3.65-.05,2.85-.1,6.31-.1,8.68,0,.25.07.32.31.32H28.3c.41,0,.21-1.54.21-2.2,0-.91.1-2,.1-2.4l0-.21V21.45l0-2.19V16l-4.32,0L20.7,16ZM19,21.24c.16.13.74,1.17,1,1.51.37.51.93.95,1.18,1.32-.59.89-1.95,2-2.06,3.34h-.2l.1-6.17m2.88,3.45a6.8,6.8,0,0,1,1.1,1.84,5.75,5.75,0,0,1-.64,2.19c-.52,1-2.11,2.64-3.44,2.35.08-.17.22-1.75.29-2.1a7.29,7.29,0,0,1,.65-1.64c.29-.53,1.49-2.64,2-2.64M19,16.85c1.77,0,4,2.67,4,4.39a4.45,4.45,0,0,1-1.24,2.3c-1.79-1.22-2.77-4-2.77-6.69m2.26,14.39v-.17c.8-.21,1.85-1.92,2.06-2.82h.2a4.16,4.16,0,0,0,2.26,2.82v.13l-2.47.08-.93,0Zm4.42-14.39c-.12.33-1.89,1.65-2.16,2.82h-.2c-.3-1.29-1.6-2-2.16-2.82h4.52m2.06,1.26A9.1,9.1,0,0,1,25,23.65l-1.36-2.07c.22-.43.18-1.23.48-1.76s.61-.89.88-1.3A4,4,0,0,1,27.69,17v1.16M25,24.69c1.55,1.06,2.68,3.7,2.68,6v.42a4.08,4.08,0,0,1-3.29-2.51c-.22-.49-.75-1.62-.54-2.21A8.73,8.73,0,0,1,25,24.69M27.66,27l-2-3c.91-.26,1.72-2.78,2.06-3.06Z"/><path class="cls-1" d="M30.45.15l-.89.16-.3-.1L16.79,0h-1V2L15.6,5.08V15.85l3.27,0,1.93,0h.89l1,.14,1.63,0,.75,0h4.75c1.55,0,1-.85,1-2.92V8.77c0-3.06.15-5.67.15-8.62Zm-7.24,4A4.49,4.49,0,0,0,21.1,1.69V1.38l1,.16h.59l1.34-.13.44,0h1Zm.71,1.51A7.12,7.12,0,0,1,26,2.61c.24-.17,3.2-1.79,3.67-.86.38.76-1,3.16-1.33,3.6-1.14,1.41-1.37,1.26-2.93,2l-1.48-1.7M21.1,7.39c-.8,0-2.58-1.57-3-2.15a6.1,6.1,0,0,1-1.19-3.86h.59c2.4,0,4.75,2.46,5.2,4.47A7.53,7.53,0,0,1,21.1,7.39m-4.19,2.73,0-4.43,2.44,2.07ZM27.16,8l-.1.16L29.7,5.53V8.16l-.15,1.53c0,.39.06.39.13.79Zm-4.58,2.44a5.79,5.79,0,0,1-2.28,3c-.52.4-3.51,1.78-3.51.52,0-2.16,2.26-5.38,3.86-5.38h.15c.42,0,1.56,1.51,1.78,1.84m7,4.31c-2.15-.52-2,0-3.77-1.32a4.64,4.64,0,0,1-1.87-3.14c0-.13,1.28-1.38,1.48-1.69a6.7,6.7,0,0,1,2.91,2.06c1.22,1.32,1,1.77,1.4,3.63l-.15.46m-4-.12-4.72,0,2.38-2.47Z"/><path class="cls-1" d="M15.71,4V2.48c0-.51-1.16-.21-1.72-.21-.84,0-1-.11-1.73-.12-.93,0-2.55,0-3.54,0C6,2.1,2.61,2.05.3,2.05c-.23,0-.3.07-.3.32V12.81c0,.42,1.49.22,2.13.22.88,0,1.91.1,2.33.1l.2,0h5.68l2.13,0h3.14l0-4.47,0-3.73Zm-5.17-.85c-.12.17-1.13.76-1.46,1-.49.38-.92,1-1.27,1.21-.87-.61-1.95-2-3.25-2.13V3l6,.11M7.2,6.1A6.32,6.32,0,0,1,5.41,7.24a5.37,5.37,0,0,1-2.12-.66C2.35,6,.74,4.39,1,3c.17.08,1.7.24,2,.31A6.51,6.51,0,0,1,4.65,4C5.16,4.28,7.2,5.53,7.2,6.1m7.6-3C14.75,5,12.22,7.27,10.54,7.27A4.33,4.33,0,0,1,8.31,6C9.5,4.14,12.16,3.12,14.8,3.12M.85,5.46H1c.21.83,1.87,1.92,2.74,2.13V7.8A4.13,4.13,0,0,0,1,10.15H.89L.81,7.59l0-1ZM14.8,10c-.31-.12-1.6-2-2.74-2.24V7.59c1.26-.31,2-1.65,2.74-2.24V10m-1.21,2.13A8.59,8.59,0,0,1,8.21,9.4l2-1.42c.41.23,1.19.19,1.71.5s.86.63,1.25.92a4.2,4.2,0,0,1,1.52,2.77H13.59M7.2,9.4a7.37,7.37,0,0,1-5.78,2.77H1A4.2,4.2,0,0,1,3.45,8.76C3.92,8.54,5,8,5.59,8.21A7.81,7.81,0,0,1,7.2,9.4M5,12.14l2.91-2c.26.93,2.7,1.78,3,2.13Z"/></g></g></svg>