<svg xmlns="http://www.w3.org/2000/svg" viewBox="0 0 31.04 32.12"><defs><style>.cls-1{fill:#7f6841;fill-rule:evenodd;}</style></defs><title>3_r_d_1</title><g id="Layer_2" data-name="Layer 2"><g id="Layer_1-2" data-name="Layer 1"><path class="cls-1" d="M20.7,16.12l3.59,0,4.32,0V12.86l0-2.19V4.81l0-.21c0-.43-.1-1.5-.1-2.4,0-.66.2-2.2-.21-2.2H18.23c-.24,0-.31.07-.31.31,0,2.38,0,5.83.1,8.69,0,1,0,2.69,0,3.65,0,.78.1.92.11,1.78,0,.57-.29,1.78.2,1.78h1.44ZM19,10.88l-.1-6.17h.2c.11,1.33,1.47,2.44,2.06,3.34-.25.37-.81.81-1.18,1.32-.24.34-.82,1.38-1,1.51m2.88-3.46c-.55,0-1.75-2.1-2-2.63a7.68,7.68,0,0,1-.65-1.64c-.07-.35-.21-1.93-.29-2.1,1.33-.29,2.92,1.37,3.44,2.34a5.86,5.86,0,0,1,.64,2.19,6.8,6.8,0,0,1-1.1,1.84M19,15.27c0-2.72,1-5.47,2.77-6.7A4.52,4.52,0,0,1,23,10.88c0,1.72-2.24,4.34-4,4.39M22.34.88l.93-.05,2.47.09v.13a4.16,4.16,0,0,0-2.26,2.82h-.2C23.06,3,22,1.26,21.21,1.05V.87Zm3.29,14.39H21.11c.56-.79,1.86-1.54,2.16-2.83h.2c.27,1.18,2,2.5,2.16,2.83M27.69,14v1.15A4,4,0,0,1,25,13.6c-.27-.41-.63-.86-.88-1.3s-.26-1.34-.48-1.76L25,8.47A9.1,9.1,0,0,1,27.69,14M25,7.42a8.34,8.34,0,0,1-1.15-1.65c-.21-.6.32-1.73.54-2.22a4.06,4.06,0,0,1,3.29-2.5v.41c0,2.27-1.13,4.91-2.68,6m2.74,3.77c-.34-.28-1.15-2.8-2.06-3.06l2-3Z"/><path class="cls-1" d="M31,32c0-2.94-.15-5.55-.15-8.61V19c0-2.08.52-2.93-1-2.93H25.11l-.75,0-1.63,0-1,.14H20.8l-1.93,0-3.27,0V27l.15,3.08v2h1l12.47-.21.3-.1.89.16Zm-5.48-1.24h-1l-.44,0-1.34-.13h-.59l-1,.15v-.3a4.48,4.48,0,0,0,2.11-2.5Zm-1.64-4.3,1.48-1.69c1.56.78,1.79.63,2.93,2,.36.44,1.71,2.84,1.33,3.6-.47.93-3.43-.69-3.67-.86a7.1,7.1,0,0,1-2.07-3.09M21.1,24.73a7.53,7.53,0,0,1,1.63,1.54c-.45,2-2.8,4.46-5.2,4.46h-.59a6.07,6.07,0,0,1,1.19-3.85c.39-.59,2.17-2.15,3-2.15m-1.72-.37-2.44,2.06,0-4.42Zm10.31-2.72c-.07.4-.17.39-.13.78L29.71,24v2.63l-2.64-2.65.1.16Zm-7.11,0c-.22.34-1.36,1.85-1.78,1.85h-.15c-1.6,0-3.86-3.23-3.86-5.39,0-1.25,3,.13,3.51.53a5.76,5.76,0,0,1,2.28,3m7-4.3.15.46c-.42,1.86-.18,2.31-1.4,3.62A6.64,6.64,0,0,1,25.4,23.5c-.2-.32-1.48-1.56-1.48-1.69a4.64,4.64,0,0,1,1.87-3.14c1.72-1.31,1.62-.81,3.77-1.32M23.18,20,20.8,17.5l4.72,0Z"/><path class="cls-1" d="M15.63,27.19l0-3.73,0-4.47H12.47l-2.13,0H4.66l-.2,0c-.42,0-1.45.1-2.33.1-.64,0-2.13-.21-2.13.22V29.75c0,.24.07.32.3.32C2.61,30.07,6,30,8.72,30c1,0,2.61,0,3.54,0,.76,0,.89-.11,1.73-.12.56,0,1.72.3,1.72-.21V28.15ZM10.54,29l-6,.11V28.9c1.3-.12,2.38-1.52,3.25-2.14.35.26.78.84,1.27,1.22.33.25,1.34.85,1.46,1M7.2,26c0,.57-2,1.81-2.55,2.11a6.92,6.92,0,0,1-1.6.67c-.34.07-1.87.22-2,.31-.27-1.38,1.34-3,2.28-3.58a5.19,5.19,0,0,1,2.12-.65A6.32,6.32,0,0,1,7.2,26m7.6,3c-2.64,0-5.3-1-6.49-2.87a4.33,4.33,0,0,1,2.23-1.28c1.68,0,4.21,2.32,4.26,4.15M.85,25.49l0-1L.89,22H1a4.09,4.09,0,0,0,2.74,2.34v.22c-.87.21-2.53,1.3-2.74,2.13H.85Zm14-3.41v4.68c-.76-.58-1.48-1.93-2.74-2.23v-.22c1.14-.28,2.43-2.11,2.74-2.23m-1.21-2.14H14.7a4.2,4.2,0,0,1-1.52,2.78c-.39.28-.83.66-1.25.92s-1.3.26-1.71.49l-2-1.41a8.6,8.6,0,0,1,5.38-2.78M7.2,22.72a7.81,7.81,0,0,1-1.61,1.19c-.57.22-1.67-.33-2.14-.56A4.17,4.17,0,0,1,1,19.94h.41A7.34,7.34,0,0,1,7.2,22.72m3.65-2.85c-.27.36-2.71,1.2-3,2.14L5,20Z"/></g></g></svg>