<svg xmlns="http://www.w3.org/2000/svg" viewBox="0 0 27.06 26.93"><defs><style>.cls-1{fill:#7c6742;fill-rule:evenodd;}</style></defs><title>Asset 10</title><g id="Layer_2" data-name="Layer 2"><g id="Layer_1-2" data-name="Layer 1"><path class="cls-1" d="M18.09,13.75c0,.07-.07.07-.09.12s-.07,0-.11-.07.06-.13.17-.12,0,0,0,.07m-1.4.59v-.06h-.06v.07h.07M14.5,16.42l0,0c.11,0,.11-.2.24-.23a.43.43,0,0,1,.19-.28c0-.08,0-.15.13-.14s0,.09,0,.14H15c0,.11,0,.23,0,.34s.11.18.27.15l0,0h0c-.06-.12-.16-.3,0-.42s-.07,0-.05-.09.09-.25.24-.28a.73.73,0,0,0,0-.36.63.63,0,0,0-.23,0,.79.79,0,0,1-.17.25c-.07.08-.18.16-.24.24s0,.1-.06.13l-.13.14c0,.06,0,.17-.13.19s-.07.11-.06.2Zm-.12.29c-.21,0-.17.17-.31.21s.06.14.06.25-.08.11-.18.12,0,.41-.19.48c0,.11,0,.16,0,.27h.14a.42.42,0,0,1,.14-.35c0,.12.07.1.08.18.22.05.15-.18.24-.26,0,.07.1.08.09.18.17,0,.2.18.41.14,0,.05,0,.05.05.07s.15,0,.16,0l0,0V17.9s0,0-.07,0,.06,0,.09,0,0,.05,0,.07h0v0c.25-.07.36.14.57.19s.22-.08.34,0c-.07-.16-.27-.18-.31-.37h-.34s0,.1-.08.09.12-.35,0-.47-.21-.12-.37-.12c0-.09-.07-.05,0-.14.21.09.35,0,.59,0,0,.1.17.06.27.06s.34.15.44.3c.07,0,.07,0,.14,0a.37.37,0,0,0,.32.17c0-.09-.08-.09-.07-.18a1.55,1.55,0,0,1-.61-.52c-.08,0-.09,0-.16,0s-.19-.15-.21-.31c-.12,0-.1-.08-.19-.08l0,0h0c-.06.14.05.25.12.33-.33,0-.72-.09-1,0,0,0,0-.07,0-.13m.09.6c-.07,0-.08-.09-.05-.13s0,.09.05.13m-.35-1.07c0-.08.06,0,0-.11S14.11,16,14,16s0,0-.07,0a.23.23,0,0,0,.08.2s0,0,.07,0m-.41,0h-.09c0,.07,0,.06,0,.09s0,.08.09,0a.14.14,0,0,0,0-.14m.39.12s0,.08.07.07.09-.05.08-.12-.15,0-.15.05m-.13.14s0-.13-.12-.13,0,0-.07,0,0,.12,0,.21l0,0v.05c.1,0,.1-.14.18-.17m-.22.28a.11.11,0,0,0,0-.12l0,0,0,0s0,.17,0,.14m.35-.26c-.19,0-.17.26-.32.33,0,.08,0,.2.07.2.1-.17.29-.24.25-.53m5.76.65a.41.41,0,0,0,.08-.19s0-.09-.11-.08-.06.26,0,.27m-6.17.38s.06-.06.06-.07a.42.42,0,0,0,0-.27c-.07,0-.08,0-.18,0,0,.31-.2.49-.11.8.17-.06.13-.3.19-.46m2.55,1.24s-.06-.08-.14-.07.08.18.15.25a1.09,1.09,0,0,1-.5-.1H16c0-.07,0-.1,0-.18-.17,0-.28-.14-.45-.05s0,.12,0,.2a.21.21,0,0,0-.22.08.15.15,0,0,1-.05-.13c.1,0,.12-.1.13-.19a.4.4,0,0,0-.32-.08c0-.12-.21-.08-.34-.08a.75.75,0,0,0-.24-.26,1.12,1.12,0,0,0,0-.2c-.1,0-.14-.15-.3-.13.08.23-.07.34,0,.5a.25.25,0,0,0-.3.08c0-.06-.11-.08-.22-.06s.07.09.05.2h.22a.3.3,0,0,0,.13.24c.11-.2.64-.14.83-.07-.07.12-.26.05-.41.06s-.19.14-.26.23.2.06.19.2.11,0,.09,0c.41.09.68-.19,1,0,.09,0,.07-.06.13-.06s.32,0,.48,0,.11.06.16.06.3,0,.33-.1-.1-.07-.12-.15.05,0,.09,0,0,.11.1.09h.09c0-.07,0-.06,0-.1-.18-.11-.46-.3-.73-.17m-2.46-.59h-.07v.07h.06v-.07m-.1.41s.05-.07,0-.14h-.09s0,.15,0,.13m-.11,1.86s.08,0,.07,0,0,.45.09.54l0,0,0,0c.07-.13,0-.29,0-.43s.2,0,.27,0,0-.07,0-.14-.21-.22-.31-.33a3.85,3.85,0,0,1,.06-.92c.12,0,.11-.2.31-.17,0-.2-.14-.21-.15-.38s-.18,0-.27.05,0-.07-.11,0,0,.35,0,.45-.11.11-.13.19,0,.21,0,.29-.07.38.09.52c0,.06-.09,0-.06.09s0,.14.05.23m6.28-1.75c.07,0,0-.07.09,0s.3.13.36.05v-.14c-.2,0-.44-.12-.54.07,0,0,0,.07.09.06m.79.67a.32.32,0,0,0,.2,0c0-.36-.28-.39-.36-.66h-.13v0h0c0,.07,0,.14,0,.2a1.18,1.18,0,0,1,.33.46m-6.14-.09s0-.13,0-.06,0,.11,0,.06m1.39,1c-.19,0-.47,0-.49.18.23,0,.52,0,.65-.1a1.25,1.25,0,0,0,.54-.08s.16,0,.15-.08-.21,0-.27-.1.2-.05.22-.14-.15-.1-.27-.08-.08-.09-.1-.16-.18,0-.22.08h0c0,.18-.26.06-.29.19s-.1,0-.16-.06.35,0,.38-.13v0h0c-.12-.14-.36,0-.54,0s-.12-.1-.2-.06a.2.2,0,0,0-.21-.15c0-.3-.4-.14-.69-.15,0,.1-.11,0-.08.16h0v0c.06,0,.08.05.12.07s-.07,0-.11.05v-.09h0v0c-.18.06-.21.26-.18.5.21.08.28,0,.47,0v.18c.3-.05.61,0,.92,0a.62.62,0,0,0,.18-.08c.05,0,.1,0,.14,0s.23-.17.33,0a1.36,1.36,0,0,1-.33.15m-1.1-.55c.06,0,.07.15,0,.12v-.12m-1.73-.23s0,0-.06,0,0,.24.07.24.07-.22,0-.27m.22.29h0c.08,0,0-.21.06-.3l-.07,0c0,.06-.15.28,0,.3m0,.07v0h0c-.06.1-.12.57.08.56,0-.15,0-.5-.06-.53m6.15-.43c0,.08-.11.06-.06.18s.16-.16.06-.18M13,19.89c0,.07.06.1.07.05s0-.06-.07-.05m2.1.61s0,0,0,0,.07-.05.11-.07,0,0-.07,0v0s-.06,0-.06,0m-.6.27a.31.31,0,0,0,.29-.19l0,0v0c-.17-.08-.19.09-.38.06,0,.1,0,.12.05.18l0,0Zm.53-.23c0-.09-.2-.07-.25,0l0,0v0a.4.4,0,0,0,.22,0m-.73.3v.07h.16v-.06l0,0v0s-.14,0-.13.07m8-.13c0,.12.1.13.21.13s-.09-.14-.21-.13m-8.77.84v.06h.07v-.07h-.07m.22.35h-.14a.45.45,0,0,0,0,.11h.13V21.9m10.25,0a.17.17,0,0,0,.11.11.08.08,0,0,0-.11-.11m-10.27.83h.12v-.18c-.15,0-.15.11-.11.19m4,.4c.09,0,.14-.07.12-.19a.13.13,0,0,0-.12.19m-3.15.45c.08,0,0-.07.09-.05s0-.15-.07-.15l0,0h0v.14h0Zm.13.4,0,0,0,0c-.05-.14-.18-.2-.22-.35h0v0h-.14c0,.2.17.29.24.44h.07m.53.19c0-.12-.12-.31-.26-.24.06.1.06.28.26.24M22.05,24c0-.07.08-.09.11-.14a.4.4,0,0,0-.28-.06c0,.15.11.13.17.2m-5.13.5a.12.12,0,0,0,.11,0,.15.15,0,0,0,0-.16c-.07,0-.09.07-.11.12m-3.63-6.6c.16-.07.15-.3.19-.48l0,0,0,0a.61.61,0,0,0-.12.5m-.08.07s-.06,0-.05,0v0h0c.06.11,0,.33,0,.45l0,0h0c0-.13,0-.3.12-.39s-.09-.11-.14-.16m.63,4.29v0h0c.07.1,0,.32.19.31l0,0h0v-.09c-.11,0-.1-.2-.21-.24m3.32-4.09c.08,0,.1,0,.18,0v0l0,0c0-.09-.07-.09-.07-.18H17c0,.12.17.11.16.27m2-.89v0h0a.32.32,0,0,0,0-.18h-.09s0,.07,0,.07.08.09.12.13m-1,.26h0v0a.27.27,0,0,1,.19.31.33.33,0,0,0,.22,0,.92.92,0,0,0-.31-.58.45.45,0,0,0,0-.11c-.11,0-.1-.2-.21-.24l0,0h0a.61.61,0,0,0,.15.51v0m-.34-3.71c-.06-.07-.16,0-.2.05l0,0v0c.11,0,.15-.05.17-.12M16,14.55c.07,0,.05-.08.06-.14h0v0h-.05s0,.08-.06.09,0,.06.07.09m-1.09,1a1,1,0,0,1,.41-.37V15l0,0c-.21.13-.32.34-.5.5a.57.57,0,0,0,0,.13c.08,0,0-.06.11,0M22.58,17c0-.14.09-.18.08-.32h0l0,0c-.17,0-.21.27-.18.42.08,0,.08-.08.17-.08m-1,1.62a.56.56,0,0,0,.47-.24l0,0v0a.47.47,0,0,0-.46.24l0,0Zm-4.06,4.89c-.06,0-.13.05-.11.16l0,0,0,0c.11,0,.1-.16,0-.18m4.88-10.9c-.08,0-.11,0-.18,0v.11c.11,0,.19,0,.18-.13m.15-.31c-.09.05-.23,0-.28.1,0,.24.39.12.61.16a.28.28,0,0,0,0-.18c-.13,0-.29,0-.33-.08m.85-.46v0h-.07v0h.07m-5.62-.66h-.05v0h.05v0m-2-1.15c.09,0,.13,0,.12-.14h-.11s0,.09,0,.14m4.6-.51c-.2-.08-.29.14-.52.11v.11c.23,0,.3-.12.52-.11V9.47m3.44-.78c-.09.23.17.33.18.55.15,0,.2.19.38.21V9.36a1.52,1.52,0,0,0-.56-.67M23.57,9c-.09,0-.14,0-.14.11h.13s0-.07,0-.11m-.27-.17v0h-.06v0h.07m0-1.06c.07.25-.14.22-.17.38a.34.34,0,0,0-.32.12.31.31,0,0,0-.37.33.42.42,0,0,0,.29.07c0-.06.07-.06.09-.11s.09.09.11.14a.91.91,0,0,0,.39-.07c0-.07-.07-.14-.18-.14s0-.14-.06-.16.05-.06.07-.09.12.14.29.12v0l0,0c0-.08-.07,0-.06-.1s.11-.22.08-.42h-.18m-1,.48c0-.16.17-.16.17-.33-.14.07-.32.09-.31.33h.14m-1.53-.87a1.15,1.15,0,0,1,.36-.66A.93.93,0,0,0,21,6.3h-.14a1.06,1.06,0,0,1-.1.33c-.1,0,0-.13-.06-.13a.59.59,0,0,0-.15.4.82.82,0,0,0-.09.44c.06,0,0,.11.07.07v.32c-.06,0-.06.11-.16.08v.05l0,0s0,0,0,0,0,.2.08.26h.07c0-.09,0-.22.14-.2a.71.71,0,0,1,.16-.54m-.68.18c-.06,0-.08.12-.08.23s.13.08.27,0v0l0,0a.79.79,0,0,0-.1-.34h0c-.07,0-.06.08-.07.13m3.41-.82a.24.24,0,0,0-.2,0,1.18,1.18,0,0,0,0,.83c0,.07-.08,0,0,.11s.09.06.18.06c0-.19.06-.44-.05-.53a.85.85,0,0,0,.08-.42m-6.29.4s-.05,0-.09,0a.08.08,0,0,1,0,.06h.05s0,0,0-.05m-.38,0c.09,0,0-.13.05-.18h0v0c-.11,0-.08.19,0,.21m.12-.32c-.07,0-.08,0-.09.09h0v0c.06,0,.07-.05.07-.11m4.44.28c0-.09-.06-.05,0-.12s-.05.06-.09.07a.18.18,0,0,0,0,.13c.08,0,.07-.06.12-.08M18.7,6.9s-.08,0-.13,0,0,.12,0,.21a.2.2,0,0,0,.1-.18m4.05-.17c0-.09-.14-.1-.13-.23a3.34,3.34,0,0,0-.49,0c-.05-.08-.06-.18-.18-.19s-.1.14-.14.22-.11.07-.14.13.18-.08.32,0,0,.09,0,.13c.17,0,.2-.08.3-.12s.27.27.45.13m.15-.49c0,.08.12.18.22.12s-.09-.13-.22-.12m-.11-.1H22.7q0,.11.09.09V6.14m-.27,0c0-.07-.06-.1-.15-.1s0,0,0,.09h.13M21,5.6c-.15,0-.12-.1-.26-.07s-.1.19-.09.35.16,0,.14,0S21,5.81,21,5.6m-.31-.75a.16.16,0,0,1,.06.14c.08,0,.1,0,.18,0s-.1-.16-.24-.16M20.07,4A.15.15,0,0,0,20,3.83c-.06,0-.08.06-.14.06s.08.13.2.12m0-2.57c0,.08,0,.09,0,.16s.1,0,.12,0,0-.12-.13-.12M19.73,12v0h0v0h-.05m-3,1s0-.06.09,0v.07s-.08,0-.09,0m.82-5.72s-.07,0-.14,0a.13.13,0,0,1,.14-.13v.11m.13.27c-.06,0-.11,0-.12,0s.07,0,.12-.06v.11m.08.3a.45.45,0,0,0,0,.11h-.09c0-.07.07-.06.1-.11m-.71.18v0h0v0h0M18.26.36h-.07c0-.06,0-.07,0-.14l0,0,0,0h0c0-.06.07-.1.07,0s0,0,0,0V.22c.06,0,.05.06.08.09l0,0h0c.05,0,.07-.09.14-.1s.12.15.2.07c0,.1,0,.11,0,.18s-.3,0-.33-.1h0m4.92,12.91.17.09c.37,0,.47-.31.73-.44a.48.48,0,0,1,.28-.35c0-.11.08-.24,0-.28a1,1,0,0,0-.25-.55c0-.27-.25-.4-.39-.6,0-.13.19-.17.26-.26s0-.05,0-.07.06-.11.14-.15a.81.81,0,0,1,.08-.38s0-.08.05-.18.06,0,.07-.06a1.69,1.69,0,0,0,0-.23c-.09,0,0-.08-.11-.07S24.15,10,24,10s0,.26-.15.29,0,.1,0,.16-.13.09-.14.19-.14.09-.19.16a.26.26,0,0,0-.3.14c-.17,0-.22.06-.32.1s-.15.29,0,.41.06-.08.16,0,0,.11.06.11.09-.07.19-.06.06-.12.09-.17.14,0,.2.07,0,.12.09.19.06,0,.06,0,0,.1,0,.14.09,0,.11.07a.79.79,0,0,1,.08.32c.13.08.15.27.16.45-.19.14-.25.42-.49.51,0,.09-.08.06-.07.15s-.13,0-.12.09h-.23m-1.48-.56.27.07a.1.1,0,0,1,0-.08.63.63,0,0,0-.24,0M17,0,17,0c.22,0,.28.09.38.17a2.44,2.44,0,0,0,0,.27.18.18,0,0,0,.13,0,2.44,2.44,0,0,1,0,.27c.05,0,.08,0,.07.07H18a2.11,2.11,0,0,1,.39.45v0h0c0-.07,0-.1,0-.16s.08.11.08.19h-.07v0h0a1.91,1.91,0,0,1,.06.7c.09,0,0,.11.11.07s-.08,0-.11,0,.05.34-.08.43a.68.68,0,0,1-.11.4,2.32,2.32,0,0,0-.35.35c-.17,0-.27.11-.45.12a3.39,3.39,0,0,0,0,1.15c.21,0,.16.26.33.3s0-.09.07-.13,0,.1.09.12.25.08.28.21.06-.08.16,0c-.11.19-.26-.08-.47,0,0,.18.15.15.24.22s0,.19.06.22-.08,0-.11,0v0l0,0c0,.07-.09.11-.07.23s-.13,0-.12.08a.38.38,0,0,1,.31.26c-.06.12-.21.14-.33.2s.23.17.29.3.07,0,.15,0,0,.1,0,.14c.18,0,.24,0,.27.17h.18v0h0v0c-.1,0-.14-.08-.08-.14-.16-.09-.19-.29-.3-.42a.1.1,0,0,0,.11,0c0-.06.06-.07.07-.11s-.14-.3-.16-.46.07-.14.12-.2.11,0,.2,0a.6.6,0,0,1,.3-.13c0-.06.08,0,.11-.06s0,0,0,0,.13,0,.15,0,0,0,0,0a.56.56,0,0,0,.18,0V5c.06,0,.17,0,.16,0s-.19.12-.17.29v0l0,0c.09,0,.06.17.09.25h-.07c0-.15-.1-.11-.06-.25V5.37c-.13-.11-.24.12-.34,0a.58.58,0,0,1-.14.13c0-.08-.15-.14-.2,0s0,.1,0,.15,0-.08-.11,0-.07.43.08.46c0-.12.18-.1.19-.24,0,0,.1,0,.11.09s-.08,0-.12,0-.05.11-.07.18,0,.56.22.7a.31.31,0,0,0,.06.28c-.1,0,0,.15,0,.22s0,0-.07,0-.16-.11-.2-.21S19,7.05,19,7s0-.09-.11-.09v0h0c-.08.07-.1.22-.14.34s0,.07.08,0-.05.23,0,.23h.07a.15.15,0,0,1,.09,0s0,.09,0,.09-.09,0-.09,0l0,0a.42.42,0,0,0,.19.39,1.24,1.24,0,0,0-.12.23c0,.07.07.09.11.13s-.14,0-.19,0c0,.21.07.36-.08.47V9c-.15,0-.11-.15-.22-.18s.08-.08.16-.07c.06-.21-.25-.09-.26-.25s0,.06.11,0-.05-.2-.1-.29.08.07.18,0c0-.29-.3-.32-.24-.68-.1,0-.12-.16-.22-.19s0,.07-.05.11.05-.4-.21-.39a.5.5,0,0,1-.08-.45s.13,0,.14-.11-.38-.35-.42-.09c-.08,0-.15,0-.19.09s.08,0,0,.11.21,0,.2.08-.11,0-.2,0,.09.11.06.23h-.11V7l0,0c0,.07.08,0,.09.07s0,.18-.14.18,0,.18,0,.2,0-.15-.13-.12,0,.09-.05.13-.07-.17-.15-.2,0,.22-.13.29a.49.49,0,0,1,.06.36c.05.06.16.07.13.21S16.64,8,16.56,8c0-.27.06-.59-.06-.75.13-.11.15-.35.18-.58s.38-.25.49-.47c.11,0,.2-.08.21-.2a1,1,0,0,0,.41-.19c0-.09-.1-.07-.15-.07l-.25.06s0,0,0,0-.19,0-.21.06a.53.53,0,0,0-.09.16c-.22.1-.5.12-.63.31-.29,0-.24.29-.33.46.09.16,0,.54,0,.82,0,0,0,0,0,0s0,.1,0,.15a.4.4,0,0,1,0,.3c-.06.05-.19,0-.18.15s-.11.07-.21.06c-.18.5-.62.72-.87,1.14.07.25.08.56.31.67,0,.15,0,.23.13.27s.11.18.14.3a.36.36,0,0,1,.25.06.56.56,0,0,0-.15.26H15.5a.19.19,0,0,1-.14.19c0,.25,0,.43-.22.49a.38.38,0,0,1,0,.16.47.47,0,0,0-.2.56H15a1,1,0,0,0,.52.51.39.39,0,0,0,.31.22c.08,0,.07-.07.12-.09s.07.17.22.15v-.14c.11,0,0,.1,0,.2l.19.08A7.06,7.06,0,0,1,19,12.53c-.05-.13-.08-.29-.32-.24,0,.33-.33.38-.62.32a.36.36,0,0,0-.06-.25c.07-.06.07-.18.08-.29s0-.16.12-.16a.13.13,0,0,1,0-.11h.27c0-.08.1,0,.08-.11a1,1,0,0,0,.54-.07c0,.15.11.18.27.17.05.22.08.47.14.68h.37c0-.08,0-.1,0-.16a1.09,1.09,0,0,0,0-.18c0-.07.1-.11.14-.19s0-.21.1-.25.17,0,.25.05.27-.05.43-.05.11.17.24.17c0,.16.09.25.05.45a.46.46,0,0,1-.32.19c-.14-.09-.07-.29-.24-.32a.39.39,0,0,0-.18,0,.61.61,0,0,0-.08.27,7.31,7.31,0,0,1,1.06.14,3.38,3.38,0,0,1,.45,0c0-.06.12-.06.12-.15s.12-.08.23-.06v-.18a.57.57,0,0,1,.41-.08c.18-.12.47,0,.68,0,0-.12-.07-.14-.18-.14s-.18-.08-.31-.08,0-.08-.09-.05-.33,0-.41.1c-.07,0,0-.11,0-.19h0c0-.05-.1-.05-.09-.14s-.18,0-.22,0c.06-.39.39-.49.57-.75a.16.16,0,0,0-.06-.18c.07-.15.39-.13.35-.33-.12.05-.27,0-.39.06v0s-.13,0-.16,0,0,0,0,0-.05,0-.05.07a1.67,1.67,0,0,1-.16-.12,1.87,1.87,0,0,0-.3.26c-.06,0,0-.11,0-.2a3.07,3.07,0,0,0,.49-.59c0-.1-.08-.2-.19-.24s.06-.07.07-.13A.2.2,0,0,0,22,9.46c0-.09,0-.18,0-.21s-.25.33-.53.32a2.14,2.14,0,0,1,.64-1,.55.55,0,0,0,0-.31.18.18,0,0,0-.27.1c-.07,0,0-.08-.14-.05s-.1.24-.25.26a.56.56,0,0,0-.22-.28,1.65,1.65,0,0,0,.43-.57s.1,0,.07-.06-.12,0-.16,0a.5.5,0,0,1-.08-.41h0v0c-.08.06-.19,0-.25,0a.5.5,0,0,0,0,.18c0,.06-.1,0-.14,0s-.16.51-.3.71c0,0,0,.11.05.09s-.05.11-.1.13,0-.11,0-.18-.14.06-.14.17-.22.11-.28.22h0l0,0c.19,0,.16.25.33.29v.22c.17.18.07.46.11.68s.14.25.17.37a.24.24,0,0,0-.05.2c.09.08,0,.32.1.39a2.62,2.62,0,0,0-.07.72c-.25,0-.59-.05-.69.13,0,0-.09,0-.15,0a.74.74,0,0,1-.17.12,1.18,1.18,0,0,1-.19-.73.34.34,0,0,0,.21-.24c0-.05.13,0,.14-.1l0,0,0,0a.39.39,0,0,0-.23.06c-.16-.05-.08-.22-.08-.39-.11,0-.1.12-.2.13s0-.26-.11-.3-.1.05-.14.09C19.15,10,19,10,18.79,10s0-.06,0-.11.28-.13.38,0c.12-.17.24.07.43,0a1.15,1.15,0,0,0,0-.27c-.19,0-.26-.19-.24-.41-.11,0-.13-.17-.31-.15A.21.21,0,0,1,19,8.89c.13-.17.55,0,.79-.08a.2.2,0,0,0,0-.21.72.72,0,0,0-.14-.52A.58.58,0,0,1,19.27,8c0-.12.19-.07.23-.15.05.07.29.11.36,0s-.12,0-.18,0-.11-.15-.26-.14c0-.14,0-.36-.05-.46.14-.07.4,0,.54-.11a.21.21,0,0,0-.08-.21c.08-.21.06-.53.16-.72s.35-.09.37-.3a.36.36,0,0,0,.18,0c0-.25.17-.37.09-.6-.09,0-.12,0-.18,0a1.19,1.19,0,0,0-.08-.2.16.16,0,0,0-.16.06.24.24,0,0,0-.27-.12.28.28,0,0,1,.27-.42.41.41,0,0,0,.24.1c.06,0,.06.12.15.12a1.48,1.48,0,0,0,0-.21,2.11,2.11,0,0,1,.67.12v.11c-.1,0,0-.09-.13-.07s-.16.14-.21.24.23.19.37.26,0,.26.15.28a.72.72,0,0,1-.23.66.8.8,0,0,1,.13.28c.17,0,.21-.08.32-.12s.06-.38-.05-.48c0-.29.15-.44.12-.79.17-.15.26-.38.46-.5a6.17,6.17,0,0,0-.06-1.29A.86.86,0,0,1,22,3.2h-.14a.84.84,0,0,1-.34-.46c-.15-.07-.17-.25-.26-.38l0,0,0,0a.53.53,0,0,0,.26.53c0,.15.07.19.05.34a3.35,3.35,0,0,1-1,.06c-.26,0-.51,0-.75,0,0,0,0-.12-.08-.16s0,.16-.08.2a.21.21,0,0,1-.11,0c-.05,0,0-.08,0-.12a2.23,2.23,0,0,1-.27,0V3.08s.1,0,.14,0c.09-.25.29-.68.13-1,0-.07.08,0,.09-.08s0,.23.15.2a3.53,3.53,0,0,0,0-.92s.05,0,.09,0,0,.35.12.36,0-.18.1-.17,0,0,0-.07a1,1,0,0,1,.32-.1l.06.13a1.18,1.18,0,0,0,.39-.1c0,.07.14.05.2.08s.06.1.08.16h0l0,0c.32-.2.11-1,.77-.79.18-.13,0-.47.12-.69,0,0,.12,0,.2,0l.09,0H17.87V0h0c0,.07.15.05.12.16-.19,0-.26.07-.38.12s-.09,0-.07-.11.2.06.25,0,0-.08,0-.11,0-.07.09,0V0Zm3.73.51c-.24-.12-.57.07-.87,0-.08,0-.08.07-.16.06s-.2,0-.27-.05-.1-.12-.18-.1v0h0c-.08,0,0,.07-.1,0s0-.12-.08-.14h0c-.09,0,0,.09,0,.13h-.07a.61.61,0,0,0-.06-.25s.07,0,.14,0,0,.07,0,.07h0v0c.08,0,.08-.08.12-.13a2.07,2.07,0,0,1,.36,0A.19.19,0,0,1,19.61,0c.11,0,.15.08.22.13s.3-.06.5,0,.41.09.52,0a1.08,1.08,0,0,0,.42.08c.13,0,.29-.07.36,0s-.06,0-.11,0a.44.44,0,0,1-.14.24c-.1,0-.05-.09-.14-.07s-.1.09-.09.2S21,.5,21,.48s-.18,0-.28,0M18.58,2.74V2.69h.07v0h-.07M20.07.94S20,1,20,1s.12-.1.09,0m1.08,0c0,.06,0,.12-.07.11s0-.05,0-.11h.09m-2,.13s.06.08,0,.07-.05,0,0-.07h0v0C19,1.08,19,1,19,1s0-.07.1,0,0,.06,0,.12h0v0m.31.08c0,.08,0,.17-.07.18s-.1-.1-.09-.21.06,0,.1,0,0,0,.06.07m-.21.17c0,.06,0,.1-.07.09s0,0,0-.09h.09m.37.31c0,.05-.05.11-.13.11s-.08-.05,0-.14.06.07.17,0m-.37-.11c.06,0,.07.32,0,.34s0-.26,0-.34m0,1.25c-.15,0-.13.17-.28.17s.07-.1.05-.2l0,0v0c-.13,0-.09.23-.21.26s0-.13,0-.2.09-.11.14-.16A3,3,0,0,0,19,1.76c.17,0,.08.28.09.43A1.51,1.51,0,0,1,19,2.6H19l0,0c.08,0,.07-.18.18-.1,0,0,0,.16,0,.27M19,3.1v.06H19c0-.05,0-.07.07-.06M18.1,4.3V4.24h.07v.07H18.1m.27,0s0-.16.05-.13,0,.11-.05.13m3.56-.46V3.9h-.07V3.83h.07m0,.34v.07h-.07V4.17H22m-.47.46c0-.08,0-.18,0-.21s-.09,0-.18,0c-.14-.18-.56,0-.83-.12-.13.1-.48,0-.65,0,0-.08.06-.26,0-.27v0h0c0,.11-.08.08-.05.18-.18-.07-.29,0-.39,0s-.09-.17-.15-.25.16,0,.19,0a.27.27,0,0,0-.06-.25c-.08,0-.1,0-.14.06s0-.26-.1-.27v0h0c-.08.05-.05.22-.14.27V3.65c-.18-.11-.23.08-.21.27V4c.1,0,.09.08.2,0,0,.11,0,.17.06.27a.85.85,0,0,0-.32,0c0-.08-.05-.22,0-.29l0,0,0,0c0-.06,0-.16-.07-.16a.28.28,0,0,0,.06-.21c-.09,0,0-.06-.11,0s0,.07-.1,0,.16,0,.21-.11c.06.11.33,0,.4.11l0,0h0a4.54,4.54,0,0,0,.66-.11.16.16,0,0,0,.11.07,5.25,5.25,0,0,0,1.13,0c.06,0,0,.07.13,0s.35,0,.52,0a.57.57,0,0,1,0,.54l.13.14c0,.17-.13.18-.17.31s.09.07.07.16-.06,0-.09,0v0l0,0v.11H21.4c0-.06,0-.12.07-.11v0l0,0m-5,7.65c-.1,0-.15,0-.18-.08s.09-.06.19,0a.37.37,0,0,0,0,.11m-1,.5s0-.06,0-.06.06,0,0,.07h-.07m1.31-1.62c.11,0,.1-.21.21-.26a.46.46,0,0,0,.38.13c0,.25.48.16.29-.11.07,0,0-.13.12-.13h0l0,0h0v-.06c.07,0,.07.09.1.14l0,0v0h.09c0,.12,0,.16.06.23s-.16.07-.18,0h0a.37.37,0,0,0,0-.25h0v0s0-.08-.09-.07l0,0-.05,0c0,.13,0,.25,0,.41h.11c0,.07,0,.15,0,.27s.12.07.09.19c-.33-.09-.58-.47-.94-.26,0,.07,0,.08,0,.11s-.11,0-.14,0,.11,0,.08-.15-.1-.15-.25-.12v0h0c-.13.07,0,.26-.08.38a3.34,3.34,0,0,0,.74.18c.06.09.27.06.28.2s-.1-.08-.2-.08-.52-.07-.76,0l-.07.07s-.09,0-.12,0,0,.12-.09.14-.33-.1-.38,0-.16,0-.16,0a.45.45,0,0,0,0,.11c.09,0,.06.08.16,0s-.08.06-.07.14l0,0v.05c.05,0,0,.11.15.07s0,0,0,0,.08,0,.11,0,0-.06.09-.09a.68.68,0,0,1,.41,0c0,.15-.15.09-.17.2l0,0,0,0s.14-.14.25.12c-.1,0-.21,0-.3,0s0,0,0,.05-.12,0-.14,0,0,.11-.09.06h0c0-.05,0-.07,0-.13.36-.1.33-.13.33-.13v0c-.11-.06-.23,0-.38,0,0,.18-.11.11-.27.11s0-.16,0-.2v0l0,0c-.07-.08-.26,0-.32-.13h-.09s-.05.08-.13.06a.82.82,0,0,1,.15-.56c0-.22.19-.3.22-.51a.51.51,0,0,0,.26-.26.71.71,0,0,1,.67.21v0h0m1.7.33c0-.11,0-.1,0-.22.13,0,.11.19,0,.22m.24-.35c0-.07-.08,0,0-.11s0,0,.11,0-.05.07-.07.11m-.2-.05s0,0,0,0h-.06v0Zm.69-1.8c0,.07,0,.15-.07.13s0-.1.07-.13m.14,1.79c-.05.22,0,.4-.11.56-.21-.11,0-.6-.13-.8l-.09.09c-.07.13,0,.34-.06.42-.1-.15,0-.45-.16-.59-.16,0-.16-.15-.31-.08,0-.11-.17-.09-.29-.1s0,.16-.05.14-.19-.17-.13-.26c0,.07.11.07.11,0s-.12-.21-.19-.3,0-.18,0-.27-.08-.17-.24-.15c0-.11-.1-.14-.2-.16-.08-.32-.36-.44-.73-.48v0l0,0s0,0,0,.07a.58.58,0,0,1-.32-.08c-.11.06-.23.1-.23.28s.1,0,0,.07-.06,0-.09,0v0l0,0c0,.09.08,0,0,.13s-.19,0-.2,0,0,.09,0,.16-.08.12-.14.15a.22.22,0,0,1,.12.26c.17.08.18.29.49.24,0,.08.14.07.15.16-.31.17-.46-.13-.64-.27a.41.41,0,0,0-.15-.34c0-.24-.17-.35-.25-.53s.12-.17.1-.34c.19-.08.23-.32.4-.43s.24-.29.31-.49a.68.68,0,0,1,.39,0c0,.08.11.09.15.14v0h0l0,0c.09,0,.21,0,.25-.08a2.09,2.09,0,0,1,0-.25c.19,0,.23.19.49.15a.64.64,0,0,1,.05.32c.19.07.23.29.47.31,0,.18.14.2.23.28a2.51,2.51,0,0,1,0,.39h-.06c0-.28-.23-.4-.46-.49a1.37,1.37,0,0,0-.7-.54c-.11,0-.26,0-.29-.06H17c-.07.06,0,.15.06.21.3.08.35.41.63.52,0,.07.09.1.11.18a.16.16,0,0,0,.11,0,1.93,1.93,0,0,0,.31.33.6.6,0,0,0,.21.36.48.48,0,0,0,.14.39c.06.05.22,0,.25.08,0-.09.1,0,.16,0s.24.06.38.08.16.17.17.28,0,.07-.07.06l0,0Zm-1.67-.52c0-.12-.11-.17-.15-.27.15,0,.11.17.26.16v.12h-.11m-.49-.26c.11,0,.12.06.13.14s-.11,0-.13,0V10.3m0-.14c0-.3-.41-.27-.53-.49,0,0,0,0,0-.07.24,0,.23.27.41.33h.23c0,.14.11.22.06.3s-.09-.09-.2-.08m-.65-.29c.11,0,.18,0,.18.12s-.18,0-.18-.12m4.83-2.29c0,.17-.11.28-.17.27s.06,0,0-.11,0-.17.15-.16m.53,3.34a.28.28,0,0,1,0,.09H21.8c0-.09.05-.09.12-.09m1.27,2.56h-.14a.32.32,0,0,0,.14,0m-.8-1.8c0,.08-.1.05-.1.13h0l0,0c0,.13.12,0,.14,0s.2,0,.21-.06v-.07s0,0-.07,0-.14,0-.2,0M20,10.61v0a6.25,6.25,0,0,1,.72-.07c-.07-.18-.68-.18-.74,0ZM17.24,6.94l0,0c0-.07,0-.08,0-.16-.14,0-.14.12-.12.23h.11ZM16.17,9.56c0-.1-.15-.09-.14,0s0,.09.11.08V9.58Zm3.62-5.83s-.05,0-.09,0,0,.18,0,.21h0v0c.12,0,.06-.17,0-.2M14.26,22c.05,0,0-.1.08-.09s0,.07.05.08c.27,0,.44.13.68,0-.1-.16-.46-.05-.49-.29a1.58,1.58,0,0,0,.49-.22c.18,0,.29-.1.4-.15s.13,0,.18,0,0,0,0-.05a1.9,1.9,0,0,1,.49-.18c.08-.07.25-.06.34-.12s0-.13.11-.14.06.06.13,0c.2-.17.55-.18.69-.41h-.18c-.12.16-.45.12-.58.27a6.38,6.38,0,0,1-1,0c0-.25-.31-.13-.38,0-.07-.1-.17,0-.23,0h0v0a1.09,1.09,0,0,1,0,.51H15c.09-.1,0-.24-.16-.2l0,0h0s0,.11,0,.11-.07-.06-.16,0-.28.12-.37.22v0s0,0,0,.14c0,0,0-.12,0-.13v0l0,0a.15.15,0,0,0-.18-.13c-.06.1,0,.3-.19.28,0,.11.06.12.07.2s.09-.07.11,0-.14.25,0,.28,0-.11,0-.1.1,0,.19,0m.62-.86c0-.09.1-.08.13-.14s0-.13,0-.16h0v0a.6.6,0,0,0-.2,0c0,.08.09,0,.07.11s-.23.1-.33.17c.05.16.1,0,.27.06l0,0ZM25.71,18s0,0,.07,0-.05-.15-.12-.18a.45.45,0,0,0-.06.12s0,.09.11.08m-.59-1.4h.07v-.07h-.07v.06M23,14.4l0,0c0,.11.2.11.24.24a.36.36,0,0,1,.27.19c.08,0,.15,0,.14.13h-.13a.45.45,0,0,0,0-.11h-.33c0,.12-.18.12-.15.28l0,0v0c.13-.07.3-.16.43,0s0-.08.09,0,.25.09.28.24a.73.73,0,0,0,.36,0,2,2,0,0,0,0-.22,1.06,1.06,0,0,1-.26-.17c-.08-.07-.16-.19-.23-.24s-.11,0-.14-.06l-.14-.13c-.05,0-.17,0-.18-.13s-.12-.07-.21-.06Zm-.28-.12c0-.22-.18-.18-.22-.31s-.14.06-.24,0-.12-.08-.12-.17-.41,0-.48-.19c-.12,0-.16,0-.27,0v.13a.41.41,0,0,1,.34.15c-.12,0-.09.07-.17.07-.05.23.18.15.25.24s-.07.1-.17.1c0,.17-.19.19-.15.41,0,0,0,0-.06.05s0,.15,0,.15l0,0h0s0,0,0-.07,0,.05,0,.09h-.07l0,0h0c.08.25-.14.36-.18.57s.07.22,0,.34c.17-.07.18-.27.38-.31,0-.12,0-.19,0-.34s-.1,0-.1-.09.35.13.48,0,.12-.2.12-.36c.09,0,0-.08.13,0-.08.2,0,.34,0,.58-.09,0-.05.17-.05.28s-.16.33-.3.44c0,.07,0,.06,0,.13a.35.35,0,0,0-.17.33c.09,0,.09-.08.18-.08a1.44,1.44,0,0,1,.52-.6c0-.08,0-.09,0-.16s.16-.19.31-.22c0-.11.09-.09.09-.18l0,0v0c-.14-.05-.25.06-.33.13,0-.33.08-.72,0-1,0,0,.07-.06.14-.05m-.61.09c0-.08.1-.09.13,0s-.08,0-.13,0M23.22,14c.09,0,.05.06.12,0s.09,0,.08-.11,0,0,0-.07-.15,0-.2.07,0,0,0,.07m0-.4v-.09c-.07,0-.05,0-.09,0s-.07,0,0,.1.07,0,.14,0m-.12.38s-.09,0-.07.07,0,.1.12.09,0-.15-.05-.16M23,13.86s.13,0,.13-.11,0,0,0-.07a1.12,1.12,0,0,0-.2,0l0,0h0c0,.1.13.09.17.17m-.28-.21a.1.1,0,0,0,.11,0v0l0,0s-.17,0-.13,0m.26.35c0-.19-.27-.17-.33-.33-.09,0-.2,0-.2.08.17.09.24.29.53.25m-.65,5.76a.49.49,0,0,0,.18.08c0-.05.1,0,.09-.12s-.27,0-.27,0m-.38-6.17.07.06a.47.47,0,0,0,.27,0c0-.07,0-.08,0-.18-.31,0-.49-.2-.79-.11.06.17.3.13.46.19m-1.24,2.55s.08-.06.06-.14-.17.07-.24.14a1.11,1.11,0,0,1,.09-.5,2.44,2.44,0,0,1,0,.27c.08,0,.1,0,.18,0,0-.17.14-.28,0-.46-.11,0-.11.05-.2.06a.22.22,0,0,0-.07-.23s.07,0,.13,0,.09.12.19.13a.39.39,0,0,0,.07-.32c.12,0,.08-.2.08-.34a.59.59,0,0,0,.26-.23c.08,0,.12,0,.21,0s.15-.14.12-.3c-.23.08-.33-.06-.49,0a.24.24,0,0,0-.08-.29c.06,0,.08-.11.06-.23s-.1.07-.2.06a1.62,1.62,0,0,0,0,.22.32.32,0,0,0-.25.12c.2.11.14.64.08.84-.12-.07-.06-.26-.06-.41s-.15-.19-.24-.26-.06.19-.19.19,0,.11,0,.09c-.09.41.19.68,0,1,0,.09.05.06.05.13s0,.31,0,.47a1.38,1.38,0,0,1-.06.16c0,.14,0,.31.1.34s.08-.1.16-.12,0,.05,0,.09-.11,0-.08.09v.09c.07,0,.06,0,.09.05.11-.19.31-.47.18-.73m.59-2.46a.2.2,0,0,1,0-.07h-.06v.07h.07m-.41-.1s.07.05.13,0v-.09s-.16,0-.13.05M19,13.47s0,.07,0,.07-.45,0-.54.08v0l0,0c.12.06.28,0,.43,0s0,.2,0,.27.06,0,.13,0,.22-.2.33-.3a3.93,3.93,0,0,1,.93.06c0,.12.2.11.17.31.2,0,.2-.15.38-.15s0-.18-.06-.27.08,0,0-.12-.35-.05-.45,0-.1-.11-.18-.13-.21,0-.3,0-.38-.07-.51.09c-.06,0,0-.09-.1-.07s-.13.05-.22.06m1.74,6.28c0,.07.08,0,.05.08s-.14.3-.05.37h.13c0-.19.12-.44-.06-.54,0,0-.07,0-.07.1m-.67.79a.6.6,0,0,0,0,.2c.37,0,.4-.29.67-.36a.66.66,0,0,1,0-.14h0v0h-.21a1.07,1.07,0,0,1-.46.34m.09-6.15s.13,0,.07,0-.11,0-.07,0m-1,1.39c0-.18,0-.47-.18-.49,0,.24,0,.52.09.66a1.05,1.05,0,0,0,.09.53c0,.05,0,.17.07.16s0-.21.11-.27,0,.19.14.22.09-.15.08-.28.08-.08.15-.09,0-.19-.07-.23h0v0c-.19,0-.06-.27-.2-.29s0-.11.07-.16,0,.34.12.38h0v0c.14-.13,0-.36,0-.54s.1-.13.06-.21a.19.19,0,0,0,.15-.21c.3,0,.15-.4.16-.68-.11,0-.06-.11-.16-.08v0h0c0,.05,0,.07-.06.12s0-.07-.05-.12h.09v0h0c-.05-.19-.25-.21-.5-.19-.08.21.05.29,0,.48h-.18c.05.3,0,.62,0,.93a1.36,1.36,0,0,0,.07.18s0,.09,0,.13.16.24,0,.34a1.63,1.63,0,0,1-.14-.34m.54-1.1c0,.07-.14.08-.11,0h.11M19.93,13s0,0,0-.07-.25,0-.25.08.23.06.27,0m-.28.21h0c0,.08.21,0,.29.06s0,0,0-.07-.28-.15-.29,0m-.07,0v0h0c-.1-.06-.56-.12-.56.09.15,0,.5,0,.54-.06M20,19.34c-.09,0-.07-.1-.19-.06s.17.17.19.06m-.44-6.41c-.06,0-.1.06,0,.06s0,0,0-.06M19,15s0,0,0,0,.05.07.07.11,0-.05,0-.07h0S19,15,19,15m-.27-.6a.29.29,0,0,0,.19.29l0,0h0c.08-.17-.1-.2-.06-.39a.23.23,0,0,0-.18.06v0Zm.22.54c.1,0,.08-.2,0-.25l0,0h0a.75.75,0,0,0,0,.23m-.3-.74h-.06v.15h.07l0,0h0s0-.15-.08-.14m.14,8c-.13,0-.14.09-.13.21s.14-.09.13-.21m-.84-8.77h-.07v.07h.07v-.07m-.35.21a.57.57,0,0,1,0-.13h-.11v.14h.12m0,10.25a.19.19,0,0,0-.11.12c.09,0,.16,0,.11-.12m-.82-10.26v.11h.18c0-.15-.1-.15-.18-.11m-.4,3.94a.14.14,0,0,0,.18.13.12.12,0,0,0-.18-.13m-.45-3.14c0,.07.07,0,0,.09s.16,0,.16-.08l0,0v0H15.9v0Zm-.41.13,0,0v0c.15,0,.21-.17.36-.21v0h0v-.13c-.2,0-.3.16-.45.24v.07m-.18.52c.12,0,.3-.12.24-.26-.11.06-.28.06-.24.26m.25,6.85c.07,0,.09.08.14.11a.43.43,0,0,0,.06-.27c-.15,0-.13.11-.2.16M15,16.82s0,.05,0,.11.13,0,.15,0-.06-.08-.11-.1m-1.11-.12a2.42,2.42,0,0,0,.25-.51s0,0,0,0a.5.5,0,0,0-.23.55m-1.24,5.6c.11,0,.14-.07.13-.19h-.12c0,.07,0,.09,0,.18m-.31.14c.08,0,.07.21.08.34a.37.37,0,0,0,.18,0c0-.21.07-.59-.16-.6s-.06.19-.1.27m-.47.86v-.07h-.05v.07h0m-.66-5.62h0v0h0v.05m-1.15-2H9.94s0,.08,0,.12.14,0,.13-.12m-.51,4.6h.11c0-.22.15-.29.12-.53H9.69c0,.22-.2.32-.12.52m-.78,3.44a1.56,1.56,0,0,0,.68.56h.09c0-.19-.16-.24-.22-.38-.22,0-.31-.27-.55-.18m.35-.29h.11v-.14a.11.11,0,0,0-.11.14M9,23.2v-.07h0v.07H9m-.57-1a.57.57,0,0,1,0-.13c-.23,0-.25.17-.33.3.17,0,.18-.16.34-.17m-.87-1.52a.69.69,0,0,1,.53-.16c0-.13.12-.11.2-.14v-.07c-.06-.05-.18,0-.25-.08s0,0,0,0l0,0h0c0,.11-.06.1-.09.16l-.31,0c0-.09-.08,0-.07-.07A.85.85,0,0,0,7,20.4a.64.64,0,0,0-.4.15c0,.07.16,0,.14.07a1.69,1.69,0,0,1-.34.1.57.57,0,0,0,0,.13.9.9,0,0,0,.45.17,1.16,1.16,0,0,1,.67-.36M7.71,20c-.06,0-.14,0-.14.07a.09.09,0,0,0,0,.05,1,1,0,0,0,.34.1l0,0H8c0-.13-.05-.16-.05-.26s-.19,0-.22.07m-.83,3.42a.79.79,0,0,0,.43-.09c.09.11.34.05.52.05,0-.08-.08-.07,0-.18s0,.07-.11,0a1.26,1.26,0,0,0-.84,0,.28.28,0,0,0,0,.2m.41-6.29s0,0,0,0v0l-.07,0s0,.08,0,.09m0-.38c0-.06-.22-.08-.2,0l0,0v0c.06,0,.2,0,.18-.05m-.31.12s.11,0,.11-.07H7v0s-.1,0-.08.09m.27,4.44c0-.05.1-.05.09-.12a.28.28,0,0,0-.14,0c0,.05,0,.06-.06.1s0,.07.11,0M7,18.6a.22.22,0,0,0,.18-.1c-.09,0-.09-.07-.21,0s0,.11,0,.14m-.17,4c.14-.18-.1-.29-.13-.44s.16-.13.13-.3c0,0-.13,0-.14,0s.17-.24,0-.32-.08.11-.13.15-.2.05-.23.14.11.13.19.17a3.49,3.49,0,0,0,0,.5c.13,0,.14.1.23.12m-.49.16c0,.13,0,.2.12.22s0-.2-.12-.22m-.09-.11h.09c0-.08,0-.1-.1-.09s0,.06,0,.09m-.06-.27v-.14a.13.13,0,0,1-.09,0,.12.12,0,0,0,.09.15m-.48-1.54c.21,0,.25-.12.33-.22-.08,0,0-.08,0-.13-.17,0-.2.09-.36.08,0,.15.11.11.08.27M5,20.57c0,.14,0,.22.17.24s0-.11,0-.18A.17.17,0,0,1,5,20.57M4.12,20c0-.12,0-.18-.12-.2s-.06.08-.07.14a.19.19,0,0,0,.19.06M1.54,20c0,.09.07.11.12.13a.1.1,0,0,0,0-.11c-.07,0-.08,0-.16,0m5.89-2.65c0,.07,0,.08,0,.14H7.3c0-.08,0-.14.13-.14m.21.15c.08,0,.06.06.05.11H7.58c0-.05,0-.08.06-.12m.45.1a.28.28,0,0,0,0,.09H8s0-.1.11-.09m.11-.66v0H8.16v-.05h0m4.9-.18c0-.07,0-.06,0-.09s0,.05,0,.09H13.1m4.73-.26v-.07h.05v.07h0m-.1-.25c0-.12-.11-.16-.08-.33.08.06.12.18.21.24s-.06.09-.13.09m6.42,1.6v0h0v0h0m-.66-1.42v.06h-.07v-.07h.07m1.75.84s0-.05,0-.07h.05v.06h0M15.64,14v.06h-.09c0-.08,0-.08.09-.07m.57-.36c0-.11.07-.1.16-.1s-.06.1-.16.1M20,12.57c0,.07-.1.07-.07,0H20m.68,0v.07H20.6v-.06h.07m3,1.38s0,.08.09,0a.12.12,0,0,0,0,.07h-.11c0-.08.06,0,0-.12m.38.33a0,0,0,0,1,0,0c-.11-.08-.18,0-.31,0s0-.05,0-.11.14-.09.27-.08,0,.12.1.13m.39.39c.07,0,.06,0,.09,0s-.11,0-.09,0m.37.24a.28.28,0,0,1,0,.09c-.09,0-.19,0-.21-.15s.08.1.2.06m.71,1.53c-.05,0-.11-.05-.11-.13s.07.08.11.13m0-.66c0,.09.07.17,0,.21s-.1-.21,0-.21m.24.4c0,.13.09.13.08.25s-.16-.12-.17-.24h.09M8,21.11c0,.07-.1.2-.26.17s.14-.05.15-.14,0,0,.11,0m3.16.59v.11H11c0-.06,0-.12.09-.11m1-2h0v-.05h0Zm1.48-.31c0,.18,0,.23,0,.41-.22,0-.41-.1-.33-.33.13,0,.15-.11.32-.08m.28.4c0-.32,0-.64.32-.62a1.77,1.77,0,0,1,0-.23c.2,0,.28-.2.39-.33s.12,0,.18,0,0,0,0,0,.15,0,.2,0,.49,0,.66.13c-.05.24-.38-.12-.49.11-.11,0-.14-.08-.23,0,0-.08-.07-.07-.09-.11a.57.57,0,0,1-.25.07,1,1,0,0,0,0,.34c.09,0,.15-.11.27-.1s.11.1.18.11a.24.24,0,0,1-.27.16.28.28,0,0,0-.09-.13c-.06,0,0,.14-.08.19s.1.13.14.22a.71.71,0,0,1-.08.18s-.06,0-.07.05,0,.09,0,.13,0,0,0,.1l0,.13c.05.08.14.13.17.22s.25,0,.32.12.36,0,.43-.06.18,0,.2,0-.08.08-.06.14a1.72,1.72,0,0,0-.65.16c-.08,0-.17,0-.19,0a.29.29,0,0,1-.22.05c-.06.06,0,.19,0,.3s-.15.12-.13.27-.11.19-.19.26a.67.67,0,0,1-.15-.43C14,21.15,14,21,14,20.87s-.08,0,0-.11a1.27,1.27,0,0,0,.54.11c0-.17-.21-.16-.37-.19a.26.26,0,0,0-.14-.13v-.09c-.15-.07-.15-.31-.15-.55,0,0,0-.08.06-.1s0,0-.07,0m2.58,2.14s-.05,0,0,.05a.57.57,0,0,0-.47,0c-.1.05-.17.17-.31.14s0,0,0,.05-.34.06-.42,0-.37,0-.51-.12,0-.1-.09-.11c.08-.17.48-.06.65-.05s.18-.2.36-.21a.37.37,0,0,1,.08-.25c.24,0,.29-.2.56-.18.09-.07.14-.17.33-.15a.3.3,0,0,1,.24-.05c0,.06.08.06.1.1a.71.71,0,0,1,.22-.07.23.23,0,0,0,0-.18c.1-.05.24-.07.28-.17-.15-.32-.63.08-.84-.1h-.11s.06-.1.07-.05h0c.1-.11.37-.06.47-.17s.4-.15.67-.14c0,.08,0,.17.08.18-.16.05-.09.29-.06.36s-.05.07-.11.07a2,2,0,0,1-.44.29c0,.05-.11.09-.11.18a.38.38,0,0,0-.26.17c-.21,0-.35.11-.33.35m.54,1a1.2,1.2,0,0,1,0-.38.59.59,0,0,1-.15-.47c.28,0,.31-.22.3-.48a.23.23,0,0,0,.24-.1,1.07,1.07,0,0,0,.36,0,.45.45,0,0,1,.11.33c.19,0,.27-.14.44-.06a.15.15,0,0,1,0,.07c-.16.13-.14.42-.37.48a1.25,1.25,0,0,1-.39.49c-.13-.06-.29,0-.45,0,0,.05-.08.05-.08.11m.91-2.74h-.07v-.06h.07v.07M16.84,21c0-.08.09,0,.13,0A.15.15,0,0,0,17,21s-.14,0-.14,0m-.56-.56c0,.06,0,.06,0,.11h-.14v-.11a.15.15,0,0,1,.16,0m-.71.9c0,.06,0,.08-.09.07v-.06h.09m-.33,1c0,.28-.17.38-.27.55-.18,0-.25-.19-.33-.32l-.07-.14s-.05-.15-.12-.2a.42.42,0,0,1,.25,0s0,.05,0,.05.18,0,.16.06a1.19,1.19,0,0,1,.38,0m-.76-4.78c0,.07,0,.07,0,.14s.12.15.11.31a.44.44,0,0,1,.14.29c-.21-.05-.44,0-.47.19-.05-.09-.15,0-.22,0a2.2,2.2,0,0,1,.31-1.27c.09,0,0,.12.06.18a.75.75,0,0,0,.09.15m2.08-1.77c-.06,0,0,0-.07.07l-.42,0c0,.08,0,.19-.11.23a.66.66,0,0,0,.38.57c0,.14.09.16.13.24-.16,0-.23-.15-.39-.16-.07-.2-.28-.25-.44-.35a2.49,2.49,0,0,0-.2-.4c0-.07,0-.16,0-.2s.1-.32.19-.46.18,0,.24,0,.4-.09.35-.33c.1,0,.17.1.27,0s-.07-.08-.05-.18.11-.06.18-.08.15,0,.21.06,0,0,0,.05a.19.19,0,0,1,.14.2,1.28,1.28,0,0,0-.4.15,2.62,2.62,0,0,0,0,.56m1.38,2.46c-.05.26.14.27.28.35,0,.11-.14,0-.22,0s0,.14,0,.14c-.22-.13-.37.1-.68,0,0-.08-.09,0-.07-.11-.33,0-.53-.1-.82,0-.07-.05-.09-.15-.23-.13s0,.2-.15.19c.07.15.31.11.44.19s.21,0,.23.06a.67.67,0,0,1,.47.12c.14,0,.23,0,.34,0s.15.06.23.09,0,.08,0,.15.25.05.3.15h-.18v0l0,0s.07,0,.07,0,0,.09-.08.11v.14a.39.39,0,0,0-.3.33c-.3-.05-.82-.2-1.06,0-.35.08-.75-.14-.9.1a.39.39,0,0,0-.21-.15c-.06-.06,0-.08,0-.14s-.1-.1-.08-.22a7,7,0,0,1,.79,0c.1,0,.08-.17.11-.26a.32.32,0,0,0-.17-.1c0-.15-.16-.48,0-.61a.22.22,0,0,1-.05-.25l-.22.12c-.08,0,0-.09-.12-.06s.08,0,0-.11-.46-.08-.68-.14-.28-.29-.29-.57c-.11-.07-.07-.31-.09-.47.27,0,.2.28.42.3s.16-.1.27-.13v.23c0,.07.11,0,.09.09l.31,0a2.23,2.23,0,0,1,.63.39,1.36,1.36,0,0,0,.29,0c.06.14.31.09.44.16.08-.16-.17-.32-.38-.32,0-.11-.16-.11-.16-.24-.25,0-.31-.12-.53-.12,0-.07,0-.08,0-.13a.5.5,0,0,0-.21,0c-.15-.11-.23-.31-.53-.27,0-.08-.09-.06-.09-.13h-.18a.47.47,0,0,1-.1-.33c.33-.08.43.19.7.11,0,.06.11,0,.12.11s-.14.1-.27.1c.07.16.25.19.41.25v0l0,0c0-.06-.05,0,0-.12H16c0,.12.09.14.21.12v0l0,0c0-.06.14,0,.18,0s-.05.06-.09.07v0l0,0c0,.16.27.1.35.21s0,.1-.06.14.1.08.16.11.13-.07.15-.14.21.06.34.05c.11.31.4.41.7.52m.51.57s0,.07.05.06a.13.13,0,0,1-.25,0c.09,0,.13,0,.2,0m-.07,1.62s-.14-.14,0-.13a.57.57,0,0,1,0,.13m.4-1.43c0,.12-.1.12-.06.27s-.08,0-.12-.06.09-.17.18-.21m.28-.35c0-.06.05-.12.13-.12s-.09.08-.13.12m2,.92c.17.15.06.29.07.49-.22,0-.24.22-.26.42-.08,0-.07-.08-.18,0s-.08.08-.06.18c-.14.18-.48.17-.67.3s-.08,0-.11,0-.3,0-.45,0-.18-.08-.26-.13,0,0,0,0-.14-.18-.26-.22,0,0,0-.09-.06-.08-.12-.08a1,1,0,0,1,0-.25c-.05,0-.05-.08-.11-.09,0-.22-.08-.53.08-.61a.86.86,0,0,0,.16.45c0-.06.1-.05.13-.1s-.05-.07-.05-.13.15-.21.17-.37a1.29,1.29,0,0,0,.62-.16c.06,0,.09.09.14.11s.19,0,.38,0c0,.16.16.19.18.35h.15c.07-.05.07-.15.13-.21s.11.2.17.31h.11a.73.73,0,0,0,0-.31c.17,0,.1.19.07.29m-2.17,2.13s-.05,0-.05.07,0,0,0-.07h.07m.19-.34c0,.09-.05.07,0,.13s-.09,0-.08-.13h.12m0,2.93v.11c-.07,0-.12-.14,0-.11m.29-.08a5.14,5.14,0,0,0-.18-.56c.11-.11.14-.3.25-.41s0-.07-.07-.11a.35.35,0,0,0,0-.39c0-.07.09-.1.06-.23.24,0,.07-.45.18-.61.24,0,.2-.23.17-.41a.33.33,0,0,0,.22,0s0,0,.05,0,0,.17,0,.25.17.09.25.15a4.6,4.6,0,0,1,.13,1c0,.08.08,0,.05.09-.23.2,0,.74-.21,1a.38.38,0,0,1,0,.29h0s0,0,0,0h0a1.79,1.79,0,0,1,.15.23.22.22,0,0,1-.15-.23h0s0,0-.14.06a.49.49,0,0,1,0,.12s0,0-.07,0,0,.13,0,.23a.29.29,0,0,0-.06.27.34.34,0,0,0,.63-.11c.07,0,.06,0,.13,0,0,.31,0,.59-.31.64,0,.05-.1.05-.09.12s-.2,0-.22.08a.14.14,0,0,1-.14,0,.22.22,0,0,1-.18.07s-.07,0,0-.09-.09,0-.15,0-.09-.17-.19-.2a.38.38,0,0,1,0-.27.34.34,0,0,0,.34-.58c0-.32-.08-.68-.41-.57,0,0,0,.13-.08.14m-.07,1.9h.05v0h-.05v0m1.73-2.61a1.83,1.83,0,0,0-.16-.81c0-.51-.32-.67-.27-1.23.11,0,.07-.2.08-.23s.08.14.18.15l0,0h0c0-.11-.1-.13-.12-.24.21-.07.3.17.59.09,0,0,.08,0,.09.07a.2.2,0,0,0,.13-.12.64.64,0,0,0,.32.05.71.71,0,0,0,.35.24,2.18,2.18,0,0,0,.45.46c0,.35.35.24.35.55-.1,0-.08.08-.2.05v0l0,0c0,.15.12.14.15.24s-.42,0-.4.24a.36.36,0,0,1-.25,0c-.09-.05-.1-.11-.21-.18s-.14-.07-.16-.15,0,0-.05,0-.06-.23-.15-.29c0-.24-.13-.28-.26-.35s0,.14,0,.23-.13.18-.1.34a1.34,1.34,0,0,1,.29.51.77.77,0,0,0-.28-.08.46.46,0,0,0,.2.47,1.14,1.14,0,0,0,0,.38c0,.05.11.06.11.15s-.08-.07-.16-.06a.32.32,0,0,0,.13.42s0,.16.05.14-.07.06,0,.16.2.23.35.3-.1.13-.17.19a.77.77,0,0,1-.3-.19c-.08,0-.05.09-.13.09a2.09,2.09,0,0,0,0,.25.45.45,0,0,1-.36.08c0-.06,0-.14.06-.12,0-.15,0-.19,0-.36.18,0,.22.09.41.06,0-.14-.13-.12-.06-.25a.77.77,0,0,1-.3-.19c-.09-.33,0-.83-.22-1m.83-.73c0,.17.15.21.08.33a.41.41,0,0,1-.14-.31s0,0,0,0,.07,0,.11,0M22,24.17s.05-.05.11-.05,0,.07-.09.07v0h0v0c-.07,0-.05,0-.12,0v-.11c.07,0,.06,0,.09,0v0h0m1.07.46c0,.09-.08.05-.06.13-.24,0-.32.26-.57.3a.57.57,0,0,1,.23-.53c.08.09.3,0,.4.1M22.5,24c-.05,0-.07-.1-.14-.11,0-.22-.23-.21-.22-.44.1,0,.16.15.21.21s0,0,.07.05,0,.12.07.15A.42.42,0,0,0,23,24c.22-.09.36-.4.45-.67a.54.54,0,0,0,.63-.16v0h0c0-.06-.07-.08-.05-.18s.07.1.07.18l0,0h0c-.06.1,0,.29-.12.34s.07.11.07.21-.26.22-.25.46c-.16,0-.21.12-.26.23a1.87,1.87,0,0,1-.56.07c-.21,0-.32-.26-.47-.32,0-.06,0-.09,0-.16m-1.68.42a.28.28,0,0,0,0,.14h-.11v-.14h.13m0,1.44h.11a.06.06,0,1,1-.11,0m.07.2c.07,0,0,.08.12,0s-.22.12-.27,0-.29.11-.34,0c.18,0,.39,0,.49-.09m-.36-.14c0,.07-.19.11-.25.05s.17,0,.25-.05m3.12-5.44v.07c-.06,0-.12,0-.12-.07h.12m0,.64s0,0,.19.07c0,0-.15.05-.16,0v0h0a2.23,2.23,0,0,0-.48-.15c0-.09.13-.08.17-.15s-.11,0-.14-.08a.22.22,0,0,1,.2-.1.45.45,0,0,1,0,.11c.07,0,.18,0,.22,0s-.09.06-.08.14.08.08.07.18l0,0m1.12-1.79v.07h-.07v-.06h.07m1.3.63V20h0v-.07h0m-.05.34c.15.14,0,.42-.05.57-.13-.06,0-.18,0-.29s0-.06.07-.05,0-.15,0-.23m.09-3.66c.1,0,.13.1.12.22s-.06-.1-.16-.08,0,0,0,0a4,4,0,0,1,.15.52c-.18-.1-.21-.37-.27-.6.12,0,.14-.05.2-.08m.3,1.28c0,.08-.05.09-.11.09s0-.15,0-.13-.18-.15-.15-.34c.14.05.14.21.17.36s0,0,.05,0m.13,0a.19.19,0,0,1,.15.22c-.07,0-.15-.09-.15-.22M26.76,20c0,.16-.08-.12,0-.09s0,.11,0,.09m0-.91c-.32,0-.1.55-.22.76-.08,0-.08-.09,0-.16s-.11,0-.18,0a.61.61,0,0,1,0-.25c.09,0,.07.05.13,0s.11-.33,0-.38a6.53,6.53,0,0,0,0-.88c0,.07.15.07.27.06a3,3,0,0,1,.1.85M26.6,20c0,.09-.06.05,0,.12s0-.16,0-.12m-.26.61h0s0,0,0,0v0h0c0,.06,0,.08-.07.07l.05-.07v0h0v-.18c.06,0,.05.05.07.07l0,0h0a.57.57,0,0,0,.15-.3c.09,0,.05.27,0,.3a.56.56,0,0,1-.12.48c0-.14.09-.18,0-.27.09,0,0-.16,0-.16Zm0,.87a.25.25,0,0,1-.13.28.43.43,0,0,1,0-.25c.06,0,.07,0,.14,0m-.27.78s0,.15-.11.14,0-.12.09-.14v0l0,0s0,0,0,0l.12-.21v.13c-.07,0-.06.08-.11.1v0h0v.07m-.49.69c.13-.05.15-.2.26-.28l0,0s0,0,0,0c0,.26-.14.35-.25.48Zm0-.83c-.05,0,0-.13-.08-.14.1-.14.07-.38.23-.46,0-.15,0-.31.11-.34l0,0a.18.18,0,0,0,0-.12s0,0,.07,0v.05s0,0,0,0h0l0,0v0c0,.39-.23.58-.28.94m-.06.27c-.15,0-.08.17-.22.16,0-.17.13-.24.19-.36s0,.14,0,.2m-.17-.9a1.31,1.31,0,0,1-.24-.28c-.07,0-.09,0-.18,0,0-.15,0-.18-.08-.27.27,0,.47-.13.72-.07,0,.14.09.19.09.34-.17,0-.17.25-.22.41-.06,0-.1,0-.09-.11M25,23.2c-.06,0,0-.09,0-.07s-.05,0,0,.07m-.17,1s0-.21.13-.2,0,.06,0,.13-.12,0-.11.07m-.09-.65a.35.35,0,0,1-.22.21.72.72,0,0,1,.09-.2h.13m-.15-.47c-.18-.19-.31-.44-.5-.63h0v0a.46.46,0,0,0-.25-.06c0-.06.07,0,0-.11a4.11,4.11,0,0,0-.76-.45v-.09c-.16,0-.21-.22-.41-.23a.28.28,0,0,0-.26-.22c0-.09-.08-.14-.2-.12s0-.09,0-.16a1.44,1.44,0,0,1-.49-.3c-.19,0-.22-.12-.39-.12,0-.13-.05-.18-.16-.17s.09-.13.08-.23c.28,0,.41.12.72.06.08.13.28.13.38.24s.23,0,.29-.06c.11.09.34.07.39.23s0-.06-.11,0,0,.05-.05.07.14,0,.1.18a2.11,2.11,0,0,1-.3-.1c-.07,0,0,.08-.11.05a.28.28,0,0,1-.06.25c0,.06.07.05.07.11.32-.1.48.09.75.1,0,.06.06.08.07.14h.21c.12,0,.2.12.34.12s.24.14.33.24c.3,0,.32.25.63.2,0,.09.21,0,.28.1v.07c-.17.1-.48-.06-.58.09s-.38,0-.56,0c0,.06.07.06.05.16h0v0s.21-.09.25,0a2.62,2.62,0,0,1,.79-.07c0,.13-.08.18-.1.3s.11.09.2.1,0,.11.08.13-.1.06-.11.12-.09-.16-.12-.24c-.21,0-.27.13-.26.32-.11,0-.14.05-.25,0m-2.88,3.27a.53.53,0,0,1-.41.15c0-.1.19-.09.27-.15a.33.33,0,0,1,.08-.31l0,0v0h0s0-.1,0-.16c-.15,0-.18.27-.31.13s.09,0,.13-.05,0-.06,0-.11c-.17,0-.2.06-.34.05,0-.09.15-.06.24-.07s.24-.1.31-.2c.28,0,.53,0,.58-.22.05,0,.15,0,.16,0l0,0h0c.16,0,.18-.16.26-.23s.09,0,.07-.05A1.23,1.23,0,0,0,23,25a1.11,1.11,0,0,1,.48-.29s0-.06.07-.05,0-.13,0-.2c.17,0,.3-.07.33-.22s.26-.05.31-.15,0,.08,0,.12c-.18,0-.18.22-.3.3l0,0v0c.18,0,.2-.14.29-.22a.43.43,0,0,1-.31.33v-.11h0l0,0c-.16,0-.21.12-.35.15a.45.45,0,0,0,0,.2c.08,0,0-.07.09-.05a.1.1,0,0,1,.1.11s.13,0,.14.06.16-.2.33-.21a1,1,0,0,1-.35.37v0h0c0,.15,0,.15,0,0l0,0v0h0v-.11a.65.65,0,0,1-.26-.17c-.08,0-.09.1-.08.21a.39.39,0,0,1-.31.1c0-.09.07-.05,0-.14a.47.47,0,0,0-.44.26l-.34,0h-.07c-.05,0-.11.06-.08.16h0v0a.28.28,0,0,1,.14,0v0h0c.12,0,.11-.16.29-.13,0,.05,0,.13-.06.12s.06,0,.05.07c.23,0,.42-.05.48-.2s.19,0,.2-.14.15-.06.21,0-.07.12-.09.2c-.21,0-.27.16-.49.16a.48.48,0,0,0-.23.46c-.08,0-.07-.1-.07-.18H22.6c-.08.05,0,.12,0,.18s-.26-.16-.36-.05,0-.1-.1-.06c.07-.14.24-.17.4-.22s0-.13-.1-.16l0,0c-.1.06-.24.09-.36.15,0-.12.14-.1.16-.19l0,0v0a1,1,0,0,0-.51.25.2.2,0,0,0,.14,0c0,.07-.11.07-.13.14l0,0v0H22c0,.18-.27.1-.31.24s0,.11.05.09m-.61.18c0,.07-.14.07-.11,0h.11M20,26.64s-.2,0-.23,0,.17,0,.23,0m-.48-.05c0-.18-.19-.07-.21-.18.14,0,.21-.06.38-.08,0-.1-.09-.11-.14-.15s.15,0,.2-.08,0,0,0-.07-.08,0-.07-.11a.15.15,0,0,1-.15.08c0-.09-.08-.05-.05-.14s.24.08.45.05c0,.07-.09.11,0,.16s.15,0,.25,0,0,0,.05,0-.43,0-.5.13c.22.21.66,0,1,.08.07-.08.25-.06.31-.15.11.1.2,0,.34,0,0,.25-.36.12-.46.27a.51.51,0,0,0-.52,0l-.65,0c-.07,0-.11.1-.25.08m-.21-1.35c-.07,0,0,.06-.08.07s-.09-.2-.19-.24-.05-.27.05-.3,0-.24.06-.25c0,.18,0,.37.15.45a2.44,2.44,0,0,1,0,.27m-.48-.37a1.14,1.14,0,0,0,.11.56s.07,0,.11,0c-.09.17-.37,0-.52,0l0,0,0,0c0,.09.12,0,.1.11s-.07.07-.11.09,0-.08-.05-.13H18.3c0,.05-.06.07-.07.12s0-.17,0-.25h.07v0l0,0c-.11,0-.26,0-.23-.19.21,0,.4-.16.32-.38-.09,0-.11,0-.2,0,0-.21.36-.18.46-.35.12,0,0,.29.15.33m-.75.07c.07.08-.07.16-.17.17s.1-.13.17-.17m.11,1h.07V26s0,0-.07,0v-.05m.5.16h.07v.07h-.07v-.07m.24-.25c0,.06-.15.07-.11,0h.11m0,.74c0,.07-.1.07-.07,0h.07m-1-.46s-.08,0-.07,0h.06v0h0l.05,0c.06,0,.17-.05,0,0l.6.14c.05,0,.08,0,.12.06a.64.64,0,0,1,.25,0c.06,0,.11.09.22.08v.07c-.17,0-.35,0-.41-.08a1.25,1.25,0,0,1-.84-.22l.05,0h-.12m.06-.2c-.2-.11-.48-.13-.62-.3.15,0,.27,0,.29.13.19,0,.25.1.39.12s0,0-.06,0m-.22-.31c-.06,0-.11,0-.11-.06h.11v.07M17,25.8c0-.08-.16,0-.16-.11h.13s0,0,0,.11m-.19-.92c0-.12-.09-.16-.08-.29l.35-.26c.09,0,.06.18.23.12a.32.32,0,0,0,0-.22s0-.07,0-.05.05-.05.06-.09a.9.9,0,0,1,.06-.25s0,0,0,0,0-.1,0-.14,0,0,.05,0,0-.07.06-.07v-.14a.43.43,0,0,0,.15-.25s0,0,.11,0,0-.06,0-.13c.18-.07.17-.33.36-.4,0-.07,0-.11,0-.2a.94.94,0,0,0,.25-.42c.17,0,.22-.1.34-.15s0,.13.05.18.09-.06.11-.11,0,.06.05.11c.22.1.09.34,0,.51s.07,0,.05.09-.08.15-.18.17.06.17.14.2a.83.83,0,0,1-.05.4h-.11c0,.14-.28.1-.31.26h-.13a.43.43,0,0,1-.06-.27s.11-.19,0-.25-.12.15-.21.19c0,.36-.3.47-.31.83h-.23a.14.14,0,0,0,.07.15c0,.22-.15.28-.16.48-.09,0-.13,0-.2,0a.69.69,0,0,1-.11.13.49.49,0,0,0-.45-.09m-.58.18c0-.08.06,0,.11,0s.07,0,.07.13l-.18-.08m-.06.23s-.09,0-.07-.05,0,.05.07.05m0-.95a.41.41,0,0,0-.26-.2,2.27,2.27,0,0,0-.3-.32c0-.16-.11-.17-.15-.27s.15-.09.15-.21-.18-.32-.15-.47.07.15.07.2.06.14.08.18.18.13.3.24h.25c.05.05,0,.16.12.18,0,.22.13.23.21.33s.29-.1.5-.09a1.11,1.11,0,0,1-.46.45,2.07,2.07,0,0,1-.36,0m-4.34-4.29c.05-.1.17-.06.25-.1s.13-.11.2-.14h.18c.05,0,.08-.07.18-.05a1.58,1.58,0,0,0,.61.11c0,.1.11.11.18.13a.48.48,0,0,0,.22.4.35.35,0,0,0,.1.27,1.23,1.23,0,0,0,.14.76c0,.39.25.59.33.93.06,0,0,.13.12.11,0,.3.24.36.29.62s.19.31.31.44-.06.05-.06.1v.11c.16.2.27.45.54.52a.23.23,0,0,0,.28.19l0,0s0,0,0-.06.12.06.14.13a.3.3,0,0,1-.14-.06l0,0s0,0,.06.24c-.27,0-.25-.41-.56-.3,0,.13.12.19.15.31s.23,0,.21.15c-.21,0-.33-.32-.51-.23v0h0c-.11,0-.34-.09-.35-.27-.06,0-.06-.1-.14-.09-.07-.22-.28-.29-.36-.5-.07-.05-.1-.13-.19-.16s-.18-.18-.17-.37-.16-.22-.26-.31a2.42,2.42,0,0,0,0-.25s0,0-.05,0-.09-.36-.21-.44a.36.36,0,0,0-.15-.31c0-.12,0-.23-.08-.27s0-.26-.08-.31c0-.4-.11-.66-.13-1,0,0,0-.07-.07-.08a.64.64,0,0,0-.47.06.53.53,0,0,0,0,.18c0,.17.23.1.33.24a.58.58,0,0,1-.19.32c-.2,0-.29-.05-.46-.05,0-.14-.13-.14-.16-.25a.84.84,0,0,1,0-.43c0-.07,0-.24-.06-.24m1.1-4.67v.07c-.05,0,0,0-.07,0s0,0,.07,0m-.62,1c0-.1,0-.12,0-.18a.16.16,0,0,1,.07.18h-.11m-.51,1.53c-.12,0-.13,0-.18-.08s-.21,0-.27,0a.45.45,0,0,1,0-.11c-.16,0-.27,0-.4,0v0l0,0c0,.07.06,0,.07.09h0v0a.38.38,0,0,0,.25,0V17.9s0,.17,0,.18S11.09,18,11,18a.28.28,0,0,1,0-.09h0v0s-.13,0-.14-.11h.07l0,0,0,0v0c0-.08.11-.05.13-.12.26.19.36-.26.1-.3a.49.49,0,0,0-.13-.38c.05-.1.22-.09.26-.21v0h0A.75.75,0,0,1,11.1,16a.57.57,0,0,0,.27-.26c.21,0,.28-.2.51-.22a.79.79,0,0,1,.56-.16c0,.08,0,.1-.07.14v.09c.08.06,0,.25.12.31h.07c0-.05.15,0,.2,0s.07.26-.1.28c0,.14-.05.26,0,.38h0s0,0,.13-.34c.07,0,.08,0,.14,0v.05c0,.06-.05.06-.07.09s0,.1,0,.14,0,0,0,0,0,.2,0,.29c-.25-.1-.12-.24-.12-.24h0l0,0c-.11,0,0,.19-.2.16a.65.65,0,0,1,0-.4c0-.06.08-.07.09-.1s0-.08,0-.11,0,0,0,0-.05-.11-.07-.16h0l0,0c-.08,0,0,.1-.13.07s-.07-.06,0-.15H12.2c-.06,0,0,.1,0,.16s-.1.35,0,.38-.1.06-.13.1,0,.09,0,.11-.06.06-.06.07c0,.24.08.59,0,.77s.09.09.08.2-.1-.22-.19-.29a3.22,3.22,0,0,0-.19-.73c-.12.06-.31,0-.38.08v0h0c0,.15.07.18.12.24s.07-.08.16-.07a.2.2,0,0,1,0,.14s0-.07-.11,0c-.21.37.17.62.26.94m-.63.7c.09,0,0,.06.12,0s0,.09-.11.08a.17.17,0,0,1,0-.12m.11-.16h-.05v-.07h.05v.07m.36,0c0,.08-.25.09-.23,0,.12.06.12,0,.23,0m-2.08.67c0,.08-.06.07-.13.07s0-.09.13-.07m-.16-.63c-.08-.09-.09-.25-.27-.24,0-.23-.24-.27-.32-.46a.57.57,0,0,1-.31-.06c0-.25-.13-.3-.16-.49h.25c.08,0,.07-.15.08-.25l0,0v0h0c-.05-.05-.05-.15-.14-.16a.64.64,0,0,1,.05-.38c.2-.07.27-.26.49-.31s.35-.21.44-.4c.16,0,.19-.1.33-.1s.29.23.53.25a.43.43,0,0,0,.34.14c.14.19.44.34.28.65-.1,0-.09-.13-.17-.15.06-.31-.16-.33-.24-.49a.21.21,0,0,1-.25-.13c0,.07-.15.05-.16.14s-.08,0-.16,0,0,.13,0,.2,0-.07-.14,0l0,0h0s0,.08,0,.09,0,0-.06-.05-.23.13-.29.24a.57.57,0,0,1,.08.31s0,0-.07,0l0,0h0c0,.37.17.65.48.73,0,.09.06.19.17.19,0,.16.12.13.14.25h.27c.09.07.14.19.3.19s0-.15,0-.11.19.07.25.12-.09,0-.14.05,0,.28.11.29c-.07.16.09.15.07.32.14.11.44.06.6.15-.09.12-.29,0-.43.06a.28.28,0,0,1-.09.1c.2.12.69-.08.8.13-.15.1-.34.06-.56.11v0h0c0,.06,0,.08-.07.07s-.19-.12-.27-.17,0-.3-.09-.38,0-.17,0-.16c-.08,0,0-.18-.07-.24a.53.53,0,0,0-.39-.15.65.65,0,0,0-.37-.21,1.34,1.34,0,0,0-.33-.3.12.12,0,0,0,0-.11c-.07,0-.1-.09-.18-.11-.11-.28-.43-.33-.52-.64-.05,0-.14-.12-.21-.06v0l0,0c.08,0,0,.19.06.29a1.36,1.36,0,0,0,.55.71.57.57,0,0,0,.49.45v.07c-.15,0-.24,0-.39,0m1-1c.1,0,.15.13.28.14v.12h-.11c0-.15-.17-.12-.17-.26m.12-.35s0,.08,0,.14-.15,0-.14-.13h.11m-.25,0a.23.23,0,0,0,.08.2c-.08.05-.16-.1-.3-.05V17c-.07-.19-.33-.17-.34-.42,0,0,0,0,.07,0,.22.11.2.49.49.52M10,16.46c.1,0,.13.07.12.17s-.13-.06-.12-.17M4.26,18.31c0-.08.09,0,.13,0s-.08.12-.13,0M4.41,18v.07H4.34V18h.07m-.13,3.87v-.07h.07v.06H4.28m-.35-.1H4v.07H3.94Zm-.34-2.07s0-.09-.07-.11a6.49,6.49,0,0,0,.11-.66h0c-.09-.07,0-.35-.11-.4.06-.05,0-.19.11-.21s0,.06,0,.09.08,0,.05.11a.24.24,0,0,0,.2,0c0,.07.1,0,.16.06h0c.07-.06.21,0,.3,0s0,.21,0,.32a2.8,2.8,0,0,0-.28-.06c0-.11,0-.11,0-.2H4c-.19,0-.38,0-.26.21H4c0,.09-.22.07-.27.15l0,0h0c0,.13.22,0,.28.11s-.08,0-.07.13a.29.29,0,0,0,.26.06c.05,0,0-.1,0-.18s.14.13.26.15-.1.2,0,.38c-.11,0-.08.08-.18.05v0h0c0,.09.19,0,.28,0,0,.17,0,.52,0,.66.1.26-.06.68.12.83,0,.08,0,.11,0,.18s.12,0,.2,0l0,0h0c0-.06,0-.06.11-.07v.09H4.8l0,0h0s0,.05,0,.09-.07-.08-.16-.06-.13.18-.31.17a.86.86,0,0,0-.14-.13.57.57,0,0,1-.54,0c0-.17-.07-.4,0-.52s0-.07,0-.14a5.93,5.93,0,0,0,0-1.13m-.39-.77c0-.05,0-.08.06-.07v.06H3.2m-.36-.44a.2.2,0,0,0,0,.07H2.8v-.07h0M2.3,19c-.16,0-.43.08-.44-.1.27.08.52-.05.84-.05,0-.05.12-.08.15-.14a.64.64,0,0,0,.2,0c0,.13-.23.09-.26.22h0l0,0c.11,0,.08-.08.2-.05s-.18.12-.17.27c-.11,0-.22-.06-.27,0-.08-.11.08-.1.11-.18l0,0v0a1.84,1.84,0,0,1-.4.06m-.55.56c.05-.11,0-.08,0-.18s.08.05.14,0-.06.11-.11.14M2,19.12c0,.08-.31.07-.34,0s.25,0,.34,0m-.46-.05c0,.06,0,.07-.08.07a.28.28,0,0,1,0-.09c.05,0,.06,0,.09,0m-.26.28s0-.08-.07-.07.07,0,0-.09.1.1.21.08-.1.07-.18.08m0-.29s-.06,0-.07,0h0v0c-.06,0-.09,0-.11,0s.07,0,0-.09.08,0,.07.11h0v0c.05,0,.05,0,.07,0m-.2,2V21c.06,0,.06,0,.11,0s0,.06-.11.07m0-1.08c-.08,0-.07-.14,0-.1s0,.09,0,.1M.44,18.2c.11,0,.1.19.1.34s-.08,0-.18,0c.08-.09,0-.16-.07-.2s.08-.09.11-.14l0,0h0s-.09,0-.1-.09l0,0h0s-.05,0-.05,0,0-.1,0-.07v0h0l0,0c.07,0,.09,0,.14,0v.11M.25,19.72c0-.07-.12-.11-.12-.22a.17.17,0,0,1,.11-.11,1.52,1.52,0,0,1,0-.37s.14,0,.14-.11h0v0s0-.05-.07,0,0-.11,0-.13a.66.66,0,0,0,.25.05v.07s-.16,0-.14.05h0v0c0,.05.1,0,.14.08s-.07,0,0,.09v0h0c0,.08.07.1.09.17s0,.3.06.27-.06.09-.06.16c.1.3-.1.64,0,.88s0,.24,0,.27.07.08.06.18-.12.09-.21.1.1,0,.08.13a.4.4,0,0,1-.25.15s.11.06,0,.11,0-.24,0-.36a1.09,1.09,0,0,0-.09-.43c.12-.1,0-.34,0-.52s.06-.34,0-.5M.11,17.9s-.06,0-.11-.06v4.52a.91.91,0,0,0,.13-.26.27.27,0,0,1,0-.21c.22-.09.57.07.69-.11-.17-.66.6-.45.79-.77l0,0v0l-.16-.09c0-.05,0-.18-.07-.2a1.32,1.32,0,0,0,.1-.38l-.14-.07a1.7,1.7,0,0,1,.1-.32s0,.06.07.05.19,0,.18-.1-.3,0-.37-.12,0-.08,0-.09a3.61,3.61,0,0,0,.93,0c0-.15-.14-.11-.21-.15s0-.1.09-.1c.29.17.72,0,1-.12,0,0,0-.12,0-.14h.09a1,1,0,0,1,0,.27s.11,0,.11,0,0,0,0,.11-.2,0-.2.07a.83.83,0,0,0,.16.09c0,.23,0,.48,0,.74a3.82,3.82,0,0,1-.05,1c-.15,0-.19-.08-.34-.06a.54.54,0,0,0-.53-.25v0l0,0c.12.09.3.11.37.26a.84.84,0,0,1,.46.34s0,.09,0,.14l.14.13a6.1,6.1,0,0,0,1.29.06c.11-.2.35-.3.5-.47A3.55,3.55,0,0,0,6,21.52c.1.12.3.08.48.05s.16-.14.12-.32a.61.61,0,0,1-.27-.12.72.72,0,0,1-.67.22c0-.13-.16-.12-.28-.14s-.11-.32-.26-.38S5,21,4.9,21s.1,0,.07.14H4.86a1.88,1.88,0,0,1-.11-.67H5c0-.09-.09-.09-.12-.15s-.06-.17-.1-.25a.28.28,0,0,1,.42-.26.26.26,0,0,0,.12.27.18.18,0,0,0-.06.16l.21.08s-.07.08,0,.18c.24.08.36-.1.6-.09a.47.47,0,0,0,0-.18c.2,0,.21-.23.3-.37s.5-.08.71-.16a.24.24,0,0,0,.21.08c.08-.14,0-.4.12-.55.1.08.31,0,.45.06s.1.17.14.26,0,.2.06.18a.3.3,0,0,0,0-.36c.08,0,0-.22.15-.23a.49.49,0,0,1,.12.31.78.78,0,0,0,.53.14.19.19,0,0,0,.2,0c.06-.24-.08-.67.09-.8a.19.19,0,0,1,.11.09c0,.18.11.2.15.31.23,0,.38,0,.41.23a.82.82,0,0,0,.28,0c0-.19-.21-.32,0-.43-.09-.1,0-.28,0-.39s.11-.05.11,0,.08.35.22.42c0,0-.12,0-.09.14s.21.07.3.1-.13.09-.13.21c.18,0,.34-.08.39.08a.48.48,0,0,0-.06.22h0l0,0c.08,0,.05-.11.11-.14s.18-.12.24-.21a1.2,1.2,0,0,1,.73.2c-.05.05-.07.13-.13.16s0,.13,0,.16c-.19.1-.12.43-.14.68a3.75,3.75,0,0,0-.72.07c-.07-.09-.31,0-.38-.09a.28.28,0,0,0-.21.05,3,3,0,0,0-.36-.17c-.23,0-.51.05-.68-.11H9c0-.17-.26-.14-.28-.33h0l0,0c-.11.05-.1.22-.21.28s-.21,0-.18.14.16,0,.18,0-.11,0-.13.09-.05,0-.09,0c-.2.14-.55.13-.71.3,0,0,.07.11,0,.13a.34.34,0,0,0-.18,0c0,.05,0,.17,0,.25h0v0a.48.48,0,0,1,.41.08s-.07.16,0,.15,0-.07.07-.07c.26-.07.38-.28.57-.42a.44.44,0,0,0,.27.21c0,.15-.25.1-.26.26s0,.07,0,.13a.19.19,0,0,0-.1.28.69.69,0,0,0,.32,0,2.15,2.15,0,0,1,.94-.65c0,.29-.23.33-.32.53s.13,0,.21,0a.21.21,0,0,0,.18.13c.06,0,.08-.06.14-.07a.37.37,0,0,0,.23.19,2.8,2.8,0,0,0,.59-.49c.09,0,.16-.07.2,0a1.87,1.87,0,0,0-.26.3,1.58,1.58,0,0,1,.12.15s0,0-.06.05,0,0,0,0,0,.13,0,.15h-.05c0,.11,0,.27-.05.38.2.05.18-.27.32-.35a.16.16,0,0,0,.18.06c.27-.18.36-.51.75-.57,0,0,0,.15,0,.23s.08.07.14.09v0h0c.07,0,.14-.05.18,0s0,.3-.1.41.08,0,.05.09,0,.27.08.31,0,.19.14.18c0-.21-.15-.51,0-.68a.58.58,0,0,1,.07-.41h.18c0-.1.11-.09.06-.23.1,0,.09-.08.15-.11a1.9,1.9,0,0,1,0-.48c.13,0,.15.11.17.22s-.12.21-.1.39c.08,0,.07.08.18,0,.13.13.07.25.11.45s.22.46.34.68l-.07.07a1.77,1.77,0,0,1,0,.23c-.08,0,0,.1-.09.11s-.06.09-.15.08c-.09.24-.36.3-.5.49-.19,0-.38,0-.46-.16a.79.79,0,0,1-.32-.08s0-.09-.07-.11-.1,0-.14,0,0-.06,0-.07-.14,0-.18-.08,0-.16-.08-.2.06-.12.18-.1,0-.11.06-.18-.1,0-.12-.06.07-.08,0-.16-.22,0-.4,0-.14.15-.1.32a.26.26,0,0,0-.15.3c-.07,0-.08.14-.15.19s-.15.08-.2.14a.35.35,0,0,1-.16,0c0,.11-.17.11-.29.14s-.16.14-.24.21.1,0,.07.12a2,2,0,0,1,.23,0s0-.07.07-.07.13,0,.18,0,.23-.06.37-.09.12-.1.16-.14,0,0,.06,0,.14-.23.27-.26c.19.13.32.34.6.38a.88.88,0,0,0,.55.25c0,.12.16,0,.27,0A.5.5,0,0,1,13,24c.13-.27.45-.37.45-.76.07,0,0-.1.11-.08s0,.13,0,.23c.19.18.29.46.47.66,0,.07,0,.06,0,.13a1,1,0,0,1,.28.33,1,1,0,0,1,.43.44.29.29,0,0,1,.18.19c.13,0,.16.14.24.2s.08,0,.11,0,0,.09.07.11.07,0,.09,0a.55.55,0,0,1,.14.17c.36.12.58.38,1,.46a.87.87,0,0,0,.41.19c.09.15.3.18.42.3a3,3,0,0,1,.77.18c.12,0,.24,0,.35.05a3.79,3.79,0,0,1,.7.11c.09-.12.33,0,.38,0A11.65,11.65,0,0,0,21,26.87s0-.06.06-.05a3.94,3.94,0,0,0,.81-.12c.08-.14.32-.13.52-.15a6.56,6.56,0,0,0,1.1-.63h.12a2.43,2.43,0,0,1,.66-.46.59.59,0,0,1,.32-.28c.08-.23.28-.34.46-.47a.87.87,0,0,1,.39-.37c.06-.21.26-.28.28-.53a1.33,1.33,0,0,0,.51-.79.36.36,0,0,0,.13-.32c.06,0,.05-.09.13-.09,0-.21.17-.27.11-.53.08,0,0-.07.07-.07h0a2.26,2.26,0,0,1,.11-.43c0-.15.08-.29.13-.44l0-.28.15-1.11a1,1,0,0,1,0-.18l-.09-1-.28-1.16-.37-1.05c-.12-.06-.16-.19-.26-.27a.47.47,0,0,0-.2-.53c0-.07,0-.07,0-.14a1.36,1.36,0,0,1-.44-.64c-.14,0-.16-.14-.21-.19s-.25-.14-.28-.29c-.25-.09-.33-.36-.6-.45s-.44-.27-.58-.5c-.38-.08-.59-.35-1-.44,0-.09-.09,0-.07-.13-.63,0-.87-.44-1.57-.37,0-.09-.15-.06-.25-.06s-.23,0-.34-.05,0,0-.07-.05c-.48,0-1,.05-1.53.06-.1.08-.32.06-.47.08s-.36.08-.45.13-.17,0-.2.08-.16,0-.25,0c-.32.19-.72.31-1,.49s-.57.42-1,.53a4,4,0,0,1-.24.33.7.7,0,0,0-.42.35h0l0,0a.2.2,0,0,1,.26.1c.21,0,.21-.12.28-.19s.15,0,.22-.1.11-.12.22-.14,0,.09,0,.11.08,0,.05.12.17,0,.16-.15.18-.07.31-.07-.1,0-.06.13h0v0a.71.71,0,0,0,.4-.22l0,0V14c-.09,0-.15.06-.2,0s.09-.09.13-.14-.05-.07-.07-.11a.48.48,0,0,1-.22.08,1.47,1.47,0,0,1-.22.21c-.07,0,0-.1,0-.14a.21.21,0,0,0,.18-.14.35.35,0,0,0,.26-.17h.14c.16-.15.45-.18.6-.34a1.76,1.76,0,0,0,.49-.15c.12,0,.25,0,.29-.08.21,0,.35,0,.38-.2s-.16-.07-.21-.12h0s0,0-.1,0,0-.08.07,0l0,0h0a.19.19,0,0,0,.13-.07l.2.06c0,.08-.13,0-.08.16s.19,0,.21.11-.38.07-.47.19h-.16s-.05.07-.09.09c.13.17.38,0,.59,0,0,.1-.21,0-.2.15l0,0v0a3,3,0,0,0,.43,0c.07,0,0-.12,0-.2a1.62,1.62,0,0,0,.47-.13s-.06,0-.07-.09a.53.53,0,0,1-.34,0c0-.11.15-.07.22-.08h.3s0,0,.06.05c.19,0,.41-.05.59,0a.14.14,0,0,1-.06.16c0,.09.1,0,.11.09s-.07.09-.1.14.35.12.43,0l0,0,0,0c0-.06-.19,0-.21,0s.28,0,.43,0,.13.1.2,0v0h0c-.08-.12-.32-.06-.39-.19s-.23,0-.27,0,.36.11.47-.06H21v0h0s0,0,0-.11h.16a.16.16,0,0,1,0,.14h0v0h.18c0,.09.07.12.14.15v0h0v0c.42-.08.49.22.87.19,0,0,0,.07,0,.13s-.14-.08-.28,0l0,0,0,0a.57.57,0,0,0,.42.18.58.58,0,0,1,.1-.27v0h0c0-.06.08,0,0-.11h.21c0,.07,0,.07,0,.14.22,0,.27.11.46.12,0,.12.07.17.1.26s-.15,0-.15.08a.55.55,0,0,1,.17.51c-.1,0-.12-.09-.23,0a.15.15,0,0,0,.15.18c0,.12.12.1.14.2s.14.07.27.05,0-.12,0-.11.09.11.23.06c0,.17.22.22.29.37h.13c0,.2.15.19.17.35H24.6v0h0v.13c.16,0,.14.25.33.24s0-.14,0-.22.1.09.2.08c0-.17-.16-.29-.26-.4.17-.06.27.2.35.28s.16.08.14.22-.08,0-.15,0,.05.22,0,.27h-.12a.21.21,0,0,0,0,.14,1.62,1.62,0,0,1,.31.51s.07,0,.11,0c0,.17,0,.27.15.31l0,0h.05c0-.11-.09-.1-.08-.22a.83.83,0,0,1,.29.58c-.1,0-.05-.17-.18-.13a.4.4,0,0,0,.05.36,1.52,1.52,0,0,0,.23.69.7.7,0,0,0-.06.23l0,0v0c.12,0,.16.09.21.18l0,0h0c.15,0,.1.3.08.38s-.05-.11-.07-.17h0l0,0s0,0,0,0c0,.19.06.53,0,.68-.09-.07,0-.28-.06-.41s0-.06,0-.15-.08-.3-.08-.48l0,0v0c-.07-.09-.28,0-.39-.06s0,0,0,0-.32,0-.47,0,0,0-.05-.06.07-.05.11-.07c0-.23.28-.24.21-.55a.34.34,0,0,1,.24-.06l0,0h0c-.05-.08,0-.25-.15-.27,0-.25-.08-.45-.26-.53a.83.83,0,0,1-.09.16,1,1,0,0,1-.48-.12s0,0,0,.07a1.24,1.24,0,0,1-.2-.1c.07-.2.23-.32.32-.51.07,0,.1,0,.17,0s0-.11-.07-.16l0,0s-.13,0-.14,0,.09,0,.13,0v0h0c0-.19-.2-.29-.26-.44s-.05.07-.14.05-.08-.1-.07-.2a.36.36,0,0,0-.34.12.25.25,0,0,0,.26.15c-.06.11-.06.34.08.36,0,.23-.1.32-.1.52-.05,0-.12.1-.06.14a.91.91,0,0,1-.55-.16c0-.11.25-.05.27-.17s-.08,0-.09-.06-.06-.1-.06-.18-.13-.14-.21-.2,0-.25,0-.38a.49.49,0,0,0-.54-.09c0,.14-.15.22-.22.34s-.19.14-.33.17v.12c-.17,0-.15.15-.24.21a.19.19,0,0,0,.21.06c0,.07,0,.08,0,.16.23,0,.46-.24.28-.4,0-.08.07-.15.17-.16s-.08.1,0,.18a.86.86,0,0,0,.35-.15c.06,0,.07-.14.15-.14-.12.11.07.47-.18.5,0-.1.08-.14.06-.27h-.09s-.05.06,0,.12c-.17,0-.12.13-.29.1l-.09.16c0,.09.1.1.21.08s.06.09.07.16.16-.07.25-.1a.24.24,0,0,1-.11.16c0,.07.08,0,.05.13s.09,0,.16,0a.68.68,0,0,0-.28.48c-.16,0-.29,0-.26.24-.1,0-.12.13-.13.25l0,0v.05h0a.52.52,0,0,1,.45-.21c0-.09.13-.08.24-.08v0h0c.08-.09.12-.23.23-.3h.05l0,0h.05c.05-.12.19,0,.27.05s.18-.12.33-.12c0,.12-.16.09-.19.19-.39-.05-.46.2-.76.23h0c-.05.11-.18.16-.14.36-.12.11-.36.09-.4.27a.71.71,0,0,0-.31.19c.34.07.5-.22.85-.21.13-.12.31-.31.53-.27-.07.08-.19.09-.33.15s0,.13,0,.2h.07s.05,0,0-.07.19,0,.22-.08c.33.05.35-.19.63-.18a.17.17,0,0,1,.18-.07c0,.07-.1,0-.09.11a.39.39,0,0,0,.21.15,1.16,1.16,0,0,1-.83.12c-.16.23-.67.07-.8.35a.27.27,0,0,0-.36.08c-.14,0-.39,0-.43.08l0,0v0h.07s-.11,0-.09.14.11,0,.12.06c.2-.12.64,0,.76-.23a2.58,2.58,0,0,0,.89-.15s0,.05,0,.05v0h0c.33-.12.9-.21,1.15,0a.62.62,0,0,0,.13.33c0,.19,0,.35.15.38,0,.24.09.33.09.56-.06,0-.18.15-.07.18-.11.16-.33.21-.29.51-.27,0-.34-.17-.62-.14,0-.09-.12-.06-.09-.17s.05.07.16,0,.28-.12.39-.2,0-.14,0-.16-.19-.13-.21-.28-.07,0-.11,0a1.1,1.1,0,0,1,.32-.49.65.65,0,0,0,0-.22c-.1-.09-.28-.08-.33-.22a4.91,4.91,0,0,0-.68-.06v0h0c-.08,0-.13.1-.2.14s.16.06.23.06.27-.07.38,0a.37.37,0,0,1,0,.11c-.13,0-.23.08-.36.1s-.16.12-.17.24c.16,0,.26.08.43.07,0,.07,0,.15,0,.23s-.19,0-.2.14H24.2c-.34.21-.67-.07-1.08-.05a.94.94,0,0,0-.52,0c0,.24.38.15.5.3s.22-.09.39-.08c0,.06,0,.12,0,.15a.57.57,0,0,1,.48.17c-.07.07-.13,0-.18-.06a1.71,1.71,0,0,1-.32,0s0,0,0-.05-.16,0-.21,0,0,0,0,0-.16,0-.22,0,0,0,0-.05-.23,0-.22-.06-.19.09-.22.19,0-.07-.09,0a1.34,1.34,0,0,1,0-.2c-.43.08-.54-.18-.87-.2-.06-.07-.11-.17-.23-.19v-.25c.15,0,.29,0,.41,0s0,0,0,0,.35-.09.4-.15h0v0h0c0-.19-.33-.07-.37-.24s-.19.07-.31.08,0,.07,0,.14a.67.67,0,0,1-.34-.06c0-.14-.09-.14-.06-.29s.12-.13.2-.19,0-.1,0-.16a.3.3,0,0,0-.25.08.09.09,0,0,0-.05-.11c-.11,0-.11.08-.17.12s-.23,0-.32-.06c.07-.15.29,0,.43-.08s.1-.17.21-.21a.31.31,0,0,0-.05-.25c0-.1.08-.14.06-.27h0l0,0H21a3.75,3.75,0,0,1-.45.65c-.07,0-.07,0-.14,0,0-.14.1-.14.13-.23s0-.26-.08-.31c.09-.13,0-.4.1-.55s-.09-.08-.12-.13a1.72,1.72,0,0,0-.33.33c.1.12,0,.32,0,.5s.12.08.14.17-.25.11-.38.11,0,.09-.13.07a.18.18,0,0,0-.1-.27c0-.2-.07-.28-.13-.42s0,0,0-.07a.56.56,0,0,1-.06-.36c-.09-.06-.08-.24-.19-.29s-.05,0-.09,0,0,.39,0,.59a1.29,1.29,0,0,1,.15.8c-.06,0-.07,0-.14,0s0,0,0,0a4,4,0,0,1-.25-.56s0-.05-.05,0v0h0v0c-.16-.23-.3-.49-.48-.7h-.16c0,.15,0,.24.15.27.09.33.39.46.46.82.07,0,0,.08.07.13s.11.08.07.18-.08.11-.17.12-.11-.12-.17-.18-.14,0-.15,0a.15.15,0,0,1-.12-.1c-.31-.05-.38-.36-.63-.48,0-.1-.08-.09-.09-.17-.24,0-.25-.26-.47-.28,0-.1-.07-.13-.09-.22s-.06,0-.12,0c.05-.3-.13-.35-.18-.54-.08,0-.09-.07-.2,0s0-.17-.07-.2.1.12.22,0,0,.06,0,.07a.52.52,0,0,1,.17.19,1.48,1.48,0,0,1,.51.32.42.42,0,0,0,.24-.12c.1.07.25.08.32.17s.09-.08.06-.18.13.1.28.06-.05,0-.05-.05c0-.2-.08-.39-.24-.48,0-.18-.14-.37-.27-.36l0,0h0s-.07,0-.07,0h0v0a1.2,1.2,0,0,1-.34-.48c.05,0,.05,0,.11,0,0,.18.24.22.25.44h0v0s0,0,.05.05l0,0h0s0-.11.05-.09c-.08-.08-.08-.24-.2-.29s.08-.05,0-.13-.13-.33-.41-.26c0-.1,0-.13,0-.23-.18-.06-.35-.13-.37-.37.16-.17.43-.23.59-.4-.37-.06-.6.19-.82.34-.17,0-.28,0-.24.22.08,0,.09-.08.2-.06s-.16.09-.17.19c0-.05-.09-.05-.16,0s-.12,0-.16-.08-.07.12,0,.13a.32.32,0,0,1-.2.1c0,.11,0,.16-.13.14s0,.1,0,.18-.08-.06-.16,0a1.77,1.77,0,0,0-.5.56c0,.07.08,0,.05.11s-.13,0-.21,0A.74.74,0,0,0,15,16c.14,0,.14-.08.27-.05a.71.71,0,0,1,.08.31c.06.11.22.11.22.29a1.3,1.3,0,0,0-.7.16.17.17,0,0,1-.13-.07c0-.05,0-.09.06-.09s.07-.15.06-.14,0-.16.06-.18-.07,0-.05-.09a.93.93,0,0,0-.51.77c-.06,0-.08.06-.13.07s0,.21-.09.23c0,.19-.16.18-.12.39-.09,0-.05.18-.12.23s0,.14,0,.2a.83.83,0,0,1-.12.25c-.05.14,0,.26-.1.37a.44.44,0,0,1,.07.17,2.85,2.85,0,0,0-.34.49c-.07,0-.08,0-.16,0s0,.05,0,.07c-.17,0-.17.1-.27.14a2.67,2.67,0,0,0-1-.3c0-.16,0-.28-.17-.26a.94.94,0,0,0,.07-.55c.09,0,0-.08.11-.07v-.27a.18.18,0,0,1,.11,0c0-.08.15,0,.16-.11s.24,0,.29-.08a.37.37,0,0,0,.25.06c.06.28,0,.63-.32.62-.06.3.2.27.33.37h.07c.09,0,.14-.11.22-.15a.4.4,0,0,1,.15-.27,2.62,2.62,0,0,0,0-.52s0,0,0,0a.33.33,0,0,1,0-.14c0-.05,0,0,0-.05s0-.14,0-.18,0,0,0,0,0-.18,0-.27.11-.28.24-.35,0-.26.12-.3a.52.52,0,0,1,0-.18c.08,0,.07.07.14.07s.14-.18.17-.3l0,0,0,0c-.08,0,0,.11-.13.09a.33.33,0,0,1,.17-.23v.07h0l0,0c.18,0,.16-.27.35-.31,0,.07,0,.07,0,.14h0l0,0c.07-.05.15-.09.15-.21s-.08-.07-.16-.06a.52.52,0,0,1,.13-.28s-.06-.09-.12-.1.12-.17.17-.26.11.11.25.06v0l0,0s.05-.06.07-.09,0,.11-.05.09l0,0h0v.16c.17,0,.16-.16.31-.17a.11.11,0,0,0,0-.12l0,0v0s-.14,0-.12.05,0-.07-.09-.05c.1-.1.17-.24.26-.34a.6.6,0,0,0-.19-.16v0h0l0,0s0,.06,0,.07,0-.07-.09,0-.15.12-.15.25c-.2,0-.2.28-.37.35,0,.07,0,.07,0,.14s-.1.16-.19.21-.07,0-.14,0a.27.27,0,0,1,0,.22.35.35,0,0,0,0,.12s-.11,0-.13.07,0,.1-.07.14-.2.1-.22.19-.24.09-.25,0h.14c0-.15-.08-.17-.14-.23s.09,0,.08-.11a.38.38,0,0,0-.21-.31,1,1,0,0,0-.52-.52v-.09A.47.47,0,0,0,12,15c-.05,0-.08,0-.15,0-.06.16-.25.22-.49.22a.24.24,0,0,1-.2.14,1.09,1.09,0,0,0,0,.18.48.48,0,0,0-.27.15.33.33,0,0,1,0-.25c-.12,0-.15-.16-.3-.15a.24.24,0,0,0-.28-.12c-.11-.23-.42-.24-.66-.32-.43.26-.65.7-1.15.88,0,.1-.09.08-.06.2s-.1.13-.15.19a.43.43,0,0,1-.29,0c-.06,0-.11,0-.16,0s0,0,0,0c-.28-.05-.66.05-.81,0-.18.09-.51,0-.46.33-.2.13-.22.41-.32.62,0,0-.11,0-.16.1a1.85,1.85,0,0,1-.06.2h0c0,.06-.06.26-.06.26s0,.14.08.15a1.28,1.28,0,0,0,.18-.41.22.22,0,0,0,.2-.21c.22-.11.32-.33.48-.49a1,1,0,0,0,.58-.18c.15.12.48.06.75.06.06.07.19.19.12.33s-.15-.07-.21-.12a.56.56,0,0,1-.36-.06c-.07.11-.25,0-.29.12s.22,0,.21.15-.16,0-.14.06.13,0,.12.13-.14,0-.2,0-.08.12-.18.14,0-.11-.07-.09l0,0H7v.12c-.12,0-.15-.05-.23-.06s.07.16,0,.2-.07-.11-.07-.2-.05-.06-.12,0-.07.11-.08.18c-.27.05-.07.41.08.43s.07-.1.11-.14a.46.46,0,0,1,.45.07c0,.27.32.09.4.21s-.14,0-.12,0,.15.13.19.22c.36-.06.39.24.69.25,0-.1-.1-.12,0-.18s.17.16.3.1-.11-.07,0-.11,0,.32.26.26c0-.08,0-.15.06-.16s.2.06.19.22H8.9c-.12.14-.26.1-.47.08,0,0,0,.15,0,.18s-.07-.09-.14-.1-.17.06-.22.12a.44.44,0,0,0-.39-.19v0s0,0,0,.09-.06,0-.09,0,0-.06,0-.09l0,0v0c0-.1-.15,0-.22,0s0,0,0-.09-.26.07-.33.15v0H7c0,.08.08.07.1.11s.07-.05.11-.07.1.18.21.2-.06,0,0,.07-.18-.09-.23,0A.29.29,0,0,0,6.86,19c-.14-.18-.49-.13-.71-.23s-.08.09-.18.08S6,19,6,19s-.06-.07-.09-.11c.14,0,.12-.16.24-.19s-.32-.11-.45-.07.06,0,0,.11-.09,0-.16,0,0,.19,0,.2a.86.86,0,0,1-.13.14c.13.1-.09.2,0,.34h.07c.14,0,.11.1.25.05v.07c-.08,0-.22,0-.25-.08H5.47c-.17,0-.26,0-.28.17s-.07-.09-.05-.15,0,0,0,0,0-.16,0-.18,0,0,0,0,0-.12,0-.16,0,0,0,0,0-.15.07-.11a.56.56,0,0,1,.12-.3c0-.09,0-.12,0-.21s.15-.06.2-.12.28.22.45.17,0-.07.11-.07.05-.06.05-.12c.12.12.33.14.41.3.06-.06.13,0,.14.09h0v0h0v-.18c-.11,0-.19-.08-.17-.26,0,0-.13,0-.13,0s0-.12,0-.16-.15-.33-.3-.28-.08.26-.19.32a.35.35,0,0,1-.26-.3c-.09,0,0,.09-.09.11s-.15,0-.22.08v0h0s0,.12,0,.12-.15,0-.23-.06,0-.27-.21-.24c-.07.21.2.35,0,.47,0-.1.06-.07,0-.16s-.2-.14-.22-.29-.13,0-.12-.08.15,0,.14-.07-.3-.13-.31-.33a3.38,3.38,0,0,0-1.15,0,3.45,3.45,0,0,1-.12.46,1.93,1.93,0,0,0-.35.35.68.68,0,0,1-.4.1c-.08.14-.29,0-.43.09s0,.11,0,.11-.09,0-.08-.11a1.93,1.93,0,0,1-.7-.06v0h0v.07c-.08,0-.22.05-.18-.09.05,0,.08,0,.16,0v0l0,0a1.49,1.49,0,0,1-.44-.39c0-.14,0-.28,0-.42s-.07,0-.07-.07H.57a.28.28,0,0,0,0-.14H.32c-.08-.1-.2-.16-.17-.37-.06-.06-.1-.13-.15-.18v.95H0v0s0,0,.07,0v0h0c0-.07.07,0,0-.09s0,.06.12,0,0-.17,0-.25.08,0,.12.06-.15.2-.12.39c-.12,0-.1-.1-.17-.13v0h0v.13m11.68,4.38c0,.07.05.21,0,.21s0,0,.05.06h.06c.08,0,0-.13.06-.2s.16-.13,0-.14h0v0c-.08,0-.06.09-.13.09m-1.11-2.42c-.18.07-.18.67,0,.75a6.51,6.51,0,0,1,.06-.73l0,0Zm-3.6-2.71V17c-.1,0-.24,0-.22.12.08,0,.09,0,.16,0l0,0Zm14.53-4c.08.15.3.14.48.19v-.05l0,0c-.14-.07-.29-.2-.5-.12m-.07-.09s0,0-.05,0h0v0c-.11.06-.33,0-.45,0v0c.12.05.3,0,.39.12s.11-.09.15-.14m-4.29.63h0v0c-.11.06-.32,0-.31.19l0,0v0H17c0-.11.21-.09.24-.21M14.15,16a.57.57,0,0,0,0,.13.12.12,0,0,0,.13-.09l0,0v0c-.06,0,0,0-.11,0m7.2,1.09c0,.07,0,.09,0,.18h0l0,0c.09,0,.09-.08.18-.08s0-.19,0-.29-.11.18-.26.17m.88,2h0v0a.84.84,0,0,0,.18,0V19s-.06,0-.07-.05-.08.08-.13.12m-.26-1v0h0a.28.28,0,0,1-.31.19.31.31,0,0,0,0,.23.84.84,0,0,0,.57-.32h.11c0-.11.2-.1.25-.21l0,0v0a.57.57,0,0,0-.51.16H22m3.71-.34c.07-.07,0-.16-.05-.2l0,0h-.05c0,.12.05.15.12.18m-.77-1.91c0,.06.08.05.14.06v0h0a.06.06,0,0,0,0,0s-.07,0-.09-.06-.05.05-.09.07m-1-1.1a1.28,1.28,0,0,1,.38.42h.2c-.12-.21-.34-.33-.49-.5h-.14c0,.09.07,0,0,.11m-1.39,7.73c.15,0,.18.09.32.08v0l0,0c0-.17-.27-.21-.41-.19s.08.09.07.18m-1.61-1a.53.53,0,0,0,.24.46l0,0h0a.48.48,0,0,0-.25-.47l0,0ZM16,17.41c0-.06-.06-.12-.16-.1v0l0,0c0,.11.16.11.18,0M9.69,16h0c0-.08-.05-.07-.07-.11s-.1.16,0,.13ZM3.84,19.68s.23.1.2,0h0c0-.06-.12,0-.21,0s0,.05,0,.09M26,23.09c0-.05,0-.1,0-.15h0a.34.34,0,0,0,0,.15m-8.47-8.94s.1,0,.09.09-.08,0-.09,0c.05.26-.12.43,0,.67.16-.1.05-.46.3-.48,0,.22.15.33.22.49s.1.28.15.4,0,.12,0,.18l.05,0a1.5,1.5,0,0,1,.17.49c.08.07.06.24.13.33s.12,0,.14.11-.06.07,0,.14.18.55.4.68v-.18c-.17-.11-.12-.44-.27-.57a4.53,4.53,0,0,1,0-1c.24,0,.13-.32,0-.39.1-.06,0-.16-.06-.22v0h0a1,1,0,0,1-.52,0v-.11c.09.09.24,0,.19-.16l0,0v0s-.12,0-.11,0,.06-.07,0-.16-.12-.28-.22-.38l0,0s0,0-.13-.05c0,0,.12,0,.12,0h0a.16.16,0,0,0,.13-.19c-.11-.05-.3,0-.28-.19-.12,0-.12.06-.2.08s.07.09,0,.11-.25-.14-.27,0,.11,0,.09,0,0,.1,0,.18m.85.63c.09,0,.09.09.14.13s.13,0,.16,0v0h0c0-.09,0-.13,0-.2s0,.08-.11.07-.11-.23-.17-.33c-.16.05-.05.09-.06.27l0,0Z"/></g></g></svg>