<svg xmlns="http://www.w3.org/2000/svg" viewBox="0 0 5.18 173.96"><defs><style>.cls-1{fill:#7c6742;fill-rule:evenodd;}</style></defs><title>right</title><g id="Layer_2" data-name="Layer 2"><g id="Layer_1-2" data-name="Layer 1"><path id="right" class="cls-1" d="M0,174v-9.24a13.17,13.17,0,0,1,.09,2.68c0,.21,0,.08,0,.19.08.82-.07,1.73,0,2.51l0-.14,0,0a2.48,2.48,0,0,1,.17-.81s0,.1,0,.1a9.21,9.21,0,0,1,0,1.4,7.86,7.86,0,0,1,0,1.12,10.35,10.35,0,0,0,0,2H.6c0-.32,0-.64,0-.92,0,0,0-.42-.06-.29,0-1.24,0-1.89,0-3.06,0,.07,0,.22.06.2,0-1.21.06-2.41,0-3.62a13.12,13.12,0,0,1,0-1.49c0-.28.05-.67.05-1.29,0-.21,0-.13,0-.28,0-1.08.05-2.71,0-3.54.05-.52.12-2.12-.11-2q0,.6,0,1.2v0c0,1.56,0,3.14,0,4.52-.14,0,0-1.27-.09-1.4.08-.37,0-1.42.08-1.94-.08-.34-.16-.67-.22-1.05h0c0,.05,0,.33-.07.35a12.5,12.5,0,0,1,0,1.68c-.14.83,0,1.67,0,2.87,0,.15,0,.26-.1.28V0H1.3V174Zm5.18-5.34v0h0Zm0-.52v.39a1.69,1.69,0,0,1,0-.39m0-2.44v0m0-1v.92c-.1,0-.15-.65-.09-1,0,.32,0,.22.09.12m0-2.78V162a0,0,0,0,0,0,0s0-.05,0-.08M2.59,174V0H5.18V.23H5.11c0,.23,0,.49,0,.77a3.4,3.4,0,0,1,.07.34v8.73C5,9.66,5.1,5.42,4.89,5.27c0,.49-.1,3.75-.12,4.37a32.08,32.08,0,0,1-.08,3.65c0,.23.11.11.07.59-.15.14-.23-.08-.28-.41-.08-2,.2-3.34,0-4.69,0-.95-.07-5,0-5.57-.08,0,0-.65-.14-.58-.11.62-.24,1.16-.37,1.71.08.85,0,5.4.13,6-.19.21.07,2.26-.16,2.29-.11-2.85,0-9-.11-12.21-.39-.24-.29,2.35-.18,3.21-.15,1.36,0,6.84-.07,8.6,0,.25-.06.12-.06.46,0,1,.05,1.66.08,2.11a21.73,21.73,0,0,1,0,2.43c-.06,2,0,3.94,0,5.91.07,0,.06-.22.1-.32-.08,1.91-.06,3,0,5-.13-.22,0,.51-.1.47,0,1.29.09-2.84,0-2,0,.24.11.12.07.6a37.44,37.44,0,0,0,0,5.6c-.12.13,0,1-.17,1.08,0-.18-.07-.35-.1-.51V47l.06-.23a4.55,4.55,0,0,1,.16-1.39c.1-.12,0,.71.08.59l0-.08,0,.07a3.25,3.25,0,0,0,.07-1.07,3.91,3.91,0,0,1,0-.91c0-.35,0-.51,0-.9-.11,0-.17-.24-.18-.74.12.05.2-.09.28-.19a8.85,8.85,0,0,0-.08-1.81C4,40.32,4,40.27,4,40,4,38.3,3.82,35.33,4,34c.24-.29.14,1,.36.86a14.84,14.84,0,0,0,.11-2.89,22.09,22.09,0,0,0,0-3c.13.22,0-.52.1-.47,0-1.46,0,2.95-.06,1.7,0-.4.08-.54.09-.92a4.71,4.71,0,0,1-.21-1,6.07,6.07,0,0,0-.27,1.55c0,.57.08-4.63-.06-4.26l0,.15,0,.15c.12.88.26,4.22-.15,3.66A27,27,0,0,1,4,25.78l0-.15v-.15c0-.51,0,4.51-.11,4.28a18,18,0,0,0,0-3.33,13.87,13.87,0,0,1,.06-1.82A14.23,14.23,0,0,1,4,22.33s0-.13.07-.16a4.2,4.2,0,0,1,.29,1.32l.06-.09,0,.23c.13-1.27-.13-2.75,0-4.09,0-.18.06,0,.07-.32,0-1.46-.17-3.55.18-4.41,0,0,0,.18.1.13A3.59,3.59,0,0,0,5,16.73c0-.28.08-.43.09-.77a58.3,58.3,0,0,1,.09-8.23V23.34l0,.18a20,20,0,0,1-.13-3,6.1,6.1,0,0,0-.08-1.65c-.2.67-.07,2.64-.22,3.51,0,.4.14.1.11.59a10.2,10.2,0,0,0,0,2.27c.17.27.19-.2.33-.34v12.6a3.06,3.06,0,0,1-.15.87c0,.3,0,.6,0,.9-.25.16-.27,1.79-.19,2.76.11.07.17-.07.2-.34a4.55,4.55,0,0,1,.13.63v4.34a1.22,1.22,0,0,1-.12.34c0-1.07-.11-1.72,0-2.12-.12.16,0-.74-.18-.43q-.09,2-.09,4.14l.24.1A1.93,1.93,0,0,1,5.1,48c0,.28,0,.32.08.35V157.5h-.1l-.09.37a6.75,6.75,0,0,1,0,.81l.16,0c0-.06,0-.11,0-.15v1.19c0-.25-.11-.5-.15-.78-.07-.05,0,.33-.09.35A12.5,12.5,0,0,1,5,161c-.14.83,0,1.67,0,2.87,0,.21-.08.34-.17.26,0-.3,0-.22,0-.37a19.44,19.44,0,0,1,0-2.23c0-.38-.09-.65-.08-.94-.11.08-.09.79-.14,1.11v.54a16.38,16.38,0,0,1,0,3.16c0,.21,0,.3,0,.47a2.3,2.3,0,0,0,.14-1.09s0-.09.06-.09a12.58,12.58,0,0,1,.1,2.71c0,.21,0,.08,0,.19.08.82-.07,1.73,0,2.51L5,170l0,0a3.12,3.12,0,0,1,.13-.72v4.5a5,5,0,0,0-.15-.91,3.39,3.39,0,0,1-.13.64,1.69,1.69,0,0,0,0,.35h.24V174ZM.13,170.47l0,.05,0-.14a8,8,0,0,1,0,1.68c-.21.1-.1-1.06-.1-1.59m.2-1.83H.39c0-.28,0-.61,0-.57a3.24,3.24,0,0,0,0,.56m.07-4.07c-.05-.07-.14.47-.16,0-.06.39,0,1.07.09,1,0,.4,0,.83,0,1.11l.1,0a10.92,10.92,0,0,0,0-2.14m-.06,9.3v0a5.1,5.1,0,0,0-.16-1,3.39,3.39,0,0,1-.13.64c0,.15,0,.24,0,.35ZM5,170.47l0,.05,0-.14a8,8,0,0,1,0,1.68c-.21.1-.1-1.06-.1-1.59m-.4,3.4a4.8,4.8,0,0,1,0-.67v-1.3l.13,0q0,1,0,2Zm0-3c.06.1.08.33.17.18a6.49,6.49,0,0,0,0-1.39c0-.3.07-.12.07-.36-.09-.54,0-1.74-.13-2.16a4.29,4.29,0,0,0,0,1A14.76,14.76,0,0,1,4.56,170ZM4.42,24.23l-.06.09,0-.23a11.59,11.59,0,0,0-.06,2.74c.35.16.16-1.72.16-2.6M4.79,34.3c.07,0,.11.11.11.44,0-.3.2-.26.27-.49l0-.17V33.8a3.18,3.18,0,0,1,0-1.22c-.06-1.82.07-4-.11-5,0-1.75.18,2.51,0,1.09,0-.7,0-1.41,0-2.12l-.21,0c0,4.41-.13,2.79,0,7.7m-.8-4a6.27,6.27,0,0,1,0,2.42,8.75,8.75,0,0,1,0-2.42m.09-9.07H4c0-.45,0-1,.1-.92a4.53,4.53,0,0,1,0,.91M4,14.6c.1-.1.25.78.28,0,.11.64,0,1.75-.16,1.69,0,.66,0,1.36,0,1.82l-.18,0A18.94,18.94,0,0,1,4,14.6M4.07.23H5C5,.37,5,.49,5,.56c-.15,0-.07,1-.13,1.38A2.94,2.94,0,0,1,4.68.61c-.13-.1-.16.2-.28.19,0,.38,0,.82,0,1.37l-.28,0c0-.41-.09-.52-.11-.9S4,.58,4.07.23m.39,36.85-.21,0c0,1.39-.1,2.65-.15,4,.18,1,0,2.65.14,3.91l.17,0c0-1.81,0-3.65.17-5a18.47,18.47,0,0,1-.12-2.85"/></g></g></svg>