<?xml version="1.0" standalone="no"?>
<!DOCTYPE svg PUBLIC "-//W3C//DTD SVG 1.1//EN" "http://www.w3.org/Graphics/SVG/1.1/DTD/svg11.dtd" >
<svg>
<metadata>
Created by FontForge 20090914 at Thu Jul 26 15:27:39 2018
 By www-data
Copyright (C) 1992
</metadata>
<defs>
<font id="Windsor" horiz-adv-x="318" >
  <font-face 
    font-family="Windsor"
    font-weight="400"
    font-stretch="normal"
    units-per-em="1000"
    panose-1="0 0 0 0 0 0 0 0 0 0"
    ascent="800"
    descent="-200"
    x-height="487"
    cap-height="718.999"
    bbox="-16.999 -198 844 900"
    underline-thickness="50"
    underline-position="-75"
    unicode-range="U+0020-U+2022"
  />
<missing-glyph horiz-adv-x="900" 
d="M56 0v900h788v-900h-788zM788 56v788h-676v-788h676z" />
    <glyph glyph-name=".notdef" horiz-adv-x="900" 
d="M56 0v900h788v-900h-788zM788 56v788h-676v-788h676z" />
    <glyph glyph-name="space" unicode=" " horiz-adv-x="231" 
 />
    <glyph glyph-name="exclam" unicode="!" horiz-adv-x="163" 
d="M146 625l-0.999023 -23l-6 -47l-32 -306c-2 -16 -6 -28.667 -12 -38c-2.66699 -5.33301 -8.33398 -9 -17.001 -11c-8 0 -13.833 2.66699 -17.5 8s-7.5 19 -11.5 41l-33 306l-5 51l-1 19c0 29.333 7 53.333 21 72s29.667 28 47 28c18 0 33.833 -8.66699 47.5 -26
s20.5 -42 20.5 -74zM78.001 149c15.333 0 29.333 -7.5 42 -22.5s19 -32.167 19 -51.5s-6.16699 -36.666 -18.5 -51.999s-26.5 -23 -42.5 -23c-14.667 0 -28.667 7.66699 -42 23s-20 32.666 -20 51.999c0 18 6 34.833 18 50.5s26.667 23.5 44 23.5z" />
    <glyph glyph-name="quotedbl" unicode="&#x22;" horiz-adv-x="312" 
d="M222 728c14.667 0 28.5 -8 41.5 -24s19.5 -33 19.5 -51c0 -41.333 -12 -80 -36 -116c-20 -29.333 -38 -44 -54 -44c-5.33301 0 -9 3.33301 -11 10c0 5.33301 2.33301 10.666 7 15.999l15 15l11 14l5 18c0 5.33301 -4.33301 10.333 -13 15
c-30.667 13.333 -46 37.333 -46 72c0 18.667 6 35.834 18 51.501s26.333 23.5 43 23.5zM86 493c-15.333 0 -29.334 7.83301 -42.001 23.5s-19 32.5 -19 50.5c0 42 12 81 36 117c20 29.333 38 44 54 44c6.66699 0 10.334 -3.66699 11.001 -11
c-0.666992 -2 -1.5 -4.16699 -2.5 -6.5s-3.16699 -5.83301 -6.5 -10.5l-12 -14l-12 -14l-5 -18c0 -6 5.83301 -11.167 17.5 -15.5s21.5 -13.5 29.5 -27.5c8 -12 12 -26.667 12 -44c0 -18.667 -6.16699 -35.667 -18.5 -51s-26.5 -23 -42.5 -23z" />
    <glyph glyph-name="numbersign" unicode="#" horiz-adv-x="658" 
d="M569 620c0 -34 -6.33203 -59.334 -18.999 -76.001s-29 -25 -49 -25c-18 0 -34.667 8 -50 24c-12.667 16.667 -19 42.334 -19 77.001c0 31.333 6.66699 56.833 20 76.5s29.666 29.5 48.999 29.5c17.333 0 33 -9.83301 47 -29.5s21 -45.167 21 -76.5zM355.001 647.999
l0.000976562 -577.002c0 -8 2.66699 -15.667 8 -23c12 -14 18 -24.333 18 -31c0 -5.33301 -2.66699 -9.66602 -8 -12.999l-18 -4h-87c-9.33301 0 -16 1.83301 -20 5.5s-6 7.5 -6 11.5c0 7.33301 4 15.666 12 24.999c9.33301 9.33301 14 18.666 14 27.999v12
c0 5.33301 -0.666992 8.66602 -2 9.99902l-3 8c-0.666992 3.33301 -1.33398 5.83301 -2.00098 7.5s-2.66699 4.83398 -6 9.50098l-107 218l-8 12l-3 4l-3 2c-4.66699 0 -7 -8.66699 -7 -26v-256c0 -8 2.66699 -15.667 8 -23c12 -14 18 -24.333 18 -31
c0 -5.33301 -2.66699 -9.66602 -8 -12.999l-18 -4h-87c-9.33301 0 -16 1.83301 -20 5.5s-6 7.5 -6 11.5c0 7.33301 3.83301 15.166 11.5 23.499s12.5 18.5 14.5 30.5v577c0 10.667 -5.66699 21.667 -17 33c-6 6 -9 12.667 -9 20c0 12 8.66699 18 26 18h87
c6 0 11.333 -1.66699 16 -5s8 -7.66602 10 -12.999c0 -8 -3.83301 -15.833 -11.5 -23.5s-12.5 -17.5 -14.5 -29.5c0 -9.33301 4.33301 -20.666 13 -33.999l106 -217c6 -10.667 11 -17 15 -19c4.66699 0 7 8.66699 7 26v244c0 10.667 -5.66699 21.667 -17 33
c-6 6 -9 12.667 -9 20c0 12 8.66699 18 26 18h87c6 0 11.333 -1.66699 16 -5s8 -7.66602 10 -12.999c0 -8 -3.83301 -15.833 -11.5 -23.5s-12.5 -17.5 -14.5 -29.5zM531.002 598.997c0 14.667 -3.99902 30 -11.999 46s-17.667 25 -29 27c-12 0 -18 -8.33301 -18 -25l1 -22
c1.33301 -8 4.66602 -17 9.99902 -27c8 -15.333 19 -23 33 -23c10 0 15 8 15 24zM404.003 472.997h201c12 0 18 -5 18 -15c0 -10.667 -6 -16 -18 -16h-201c-12 0 -18 5.33301 -18 16c0 10 6 15 18 15z" />
    <glyph glyph-name="dollar" unicode="$" horiz-adv-x="312" 
d="M214 716c7.33301 0 13.333 -7.33496 18 -22.002l10 -39l10 -49l3 -38c0 -7.33301 -1.16699 -14 -3.5 -20s-5.5 -9 -9.5 -9c-8 0 -20.667 16.667 -38 50c-9.33301 16.667 -19 30 -29 40c-2 2 -4 2 -6 0l-2 -9v-62h-52v65l-1 8h-7c-6 -4 -11.167 -10.167 -15.5 -18.5
s-6.5 -16.5 -6.5 -24.5c0 -7.33301 1.83301 -16.5 5.5 -27.5s8.83398 -20.167 15.501 -27.5l5 -8l3 -1l1 10v24h52v-86c0 -8 2.66699 -14.667 8 -20l23 -23c30 -30 53 -62.167 69 -96.5s24 -74.5 24 -120.5c0 -58.667 -7.66699 -103.334 -23 -134.001
c-18 -36.667 -49 -59 -93 -67c-5.33301 0 -8 -8 -8 -24v-20c0 -18.667 -1.16699 -30.834 -3.5 -36.501s-8.16602 -8.5 -17.499 -8.5h-6c-8.66699 0 -15.334 3.33301 -20.001 10c-3.33301 6.66699 -5 18.334 -5 35.001v20c0 13.333 -2.33301 21.333 -7 24
c-10.667 4.66699 -18.667 7 -24 7c-4.66699 0 -8.83398 -1.16699 -12.501 -3.5s-8.16699 -3.5 -13.5 -3.5c-6 0 -12.667 5 -20 15c-4 10.667 -8 28.334 -12 53.001l-8 62l-2 37c0 22 6 33 18 33c6 0 13.667 -8 23 -24l22 -47l13 -27l16 -20l4 -3c2 2 3 8.33301 3 19v103
l52 -1v-103l1 -19l7 -1c10 6 18 16 24 30s9 34 9 60c0 20 -3.33301 38.667 -10 56c-6 18.667 -13.667 34.334 -23 47.001l-6 5l-2 -11v-64l-52 1v120c0 12 -2.33301 20.667 -7 26l-26 25c-21.333 23.333 -36.666 44 -45.999 62c-15.333 30.667 -23 64.667 -23 102
c0 42.667 9 80 27 112c13.333 23.333 35.666 43 66.999 59c3.33301 2 6 7.66699 8 17c0 18.667 6.33301 28 19 28h14c12.667 0 19 -10 19 -30c0 -9.33301 2.66699 -15.666 8 -18.999l12 -3c8 0 13 0.666992 15 2z" />
    <glyph glyph-name="ampersand" unicode="&#x26;" horiz-adv-x="452" 
d="M399 494c4.66699 0 8.99902 -4 12.999 -12s6 -17.333 6 -28c0 -14.667 -6.66699 -30.667 -20 -48l-23 -37l-13 -35l-12 -46l-16 -71l-6 -25l4 -16l17 -56c6 -16 16 -34 30 -54l20 -24c6 -7.33301 9 -13.666 9 -18.999c0 -8 -3.33301 -13.833 -10 -17.5
s-22.667 -5.5 -48 -5.5c-42.667 0 -71.667 13.667 -87 41l-6 6l-3 3l-6 -5l-7 -7c-12.667 -12.667 -27.167 -22.834 -43.5 -30.501s-33.5 -11.5 -51.5 -11.5c-34 0 -64 17 -90 51s-39 73.667 -39 119c0 78.667 14.667 141 44 187c6 10 30.333 36.333 73 79l5 14l-2 12
l-11 65l-1 47c0 42.667 10 77.667 30 105s46.333 41 79 41c28 0 53 -10 75 -30c28 -25.333 42 -61 42 -107c0 -30 -10.333 -58.333 -31 -85l-20 -21l-34 -32c-4 -4 -6.33301 -7.66699 -7 -11l2 -11l32 -106l2 -4l3 -2l3 9l5 12c0 10.667 4.33301 30.5 13 59.5
s17.334 49.833 26.001 62.5c18 29.333 36 44 54 44zM273.999 598c0 16.667 -2.66699 30.166 -8 40.499s-13 15.5 -23 15.5c-5.33301 0 -11 -5.66699 -17 -17c-2 -8.66699 -3.33301 -15 -4 -19s-1 -10.667 -1 -20c0 -17.333 1.33301 -31.333 4 -42l8 -31
c2 -5.33301 3.66699 -8.66602 5 -9.99902l2 -2l3 2c4.66699 4 9.5 9.66699 14.5 17s8.83301 15.333 11.5 24l4 18zM218.999 172.999l-9 39l-14 44l-27 85c-1.33301 4 -2.66602 6 -3.99902 6l-3 3l-6 -4l-10 -12c-4 -5.33301 -9.66699 -18 -17 -38l-5 -27l-2 -31
c0 -34.667 4.5 -66.167 13.5 -94.5s22.833 -42.5 41.5 -42.5c6.66699 0 12.667 2.33301 18 7l10 7l9 10c5.33301 7.33301 8.66602 14.333 9.99902 21c0 8 -1.66699 17 -5 27z" />
    <glyph glyph-name="quotesingle" unicode="'" horiz-adv-x="167" 
d="M53 712l-41 -87.999l-4 -16l-2 -10c0 -8.66699 5 -14 15 -16c12 0 21.333 3.66699 28 11l97 103c3.33301 3.33301 6 8.66602 8 15.999c0 8.66699 -4 14 -12 16h-61l-17 -3z" />
    <glyph glyph-name="parenleft" unicode="(" horiz-adv-x="305" 
d="M273 -16l11.001 -9.00098c4 -4 6 -8 6 -12c0 -10 -5 -15 -15 -15c-71.333 0 -132.333 36.667 -183 110c-54 78 -81 178.333 -81 301c0 120.667 27 221 81 301c50 73.333 111 110 183 110c10 0 15 -5 15 -15l-2 -5l-5 -7l-10 -10
c-40.667 -33.333 -70.334 -72 -89.001 -116c-24.667 -62 -37 -148 -37 -258c0 -111.333 12.333 -197 37 -257c17.333 -43.333 47 -82.666 89 -117.999z" />
    <glyph glyph-name="parenright" unicode=")" horiz-adv-x="302" 
d="M22 -17l-13 -11l-4 -11c0 -10 4.66699 -15 14 -15c72 0 133.333 36.667 184 110c54 78 81 178.333 81 301c0 120.667 -27 221 -81 301c-50 73.333 -111.333 110 -184 110c-9.33301 0 -14 -5 -14 -15c0 -4 2.66699 -8.66699 8 -14l9 -8c40 -34 69.333 -72.667 88 -116
c24.667 -64 37 -150 37 -258c0 -110 -12 -195.667 -36 -257c-17.333 -42.667 -47 -81.667 -89 -117z" />
    <glyph glyph-name="asterisk" unicode="*" horiz-adv-x="272" 
d="M229 361h-36.001c-5.33301 0 -9.66602 -1 -12.999 -3c0 -4.66699 0.666992 -7.66699 2 -9l33 -31l5 -9c-0.666992 -5.33301 -3 -9.33301 -7 -12l-11 -4l-5 1l-9 7l-27 25l-9 2l-3 -13v-35c0 -5.33301 -5 -9 -15 -11c-10 0 -15 3.66699 -15 11v36
c0 5.33301 -1 9.66602 -3 12.999c-4 0 -6.66699 -0.666992 -8 -2l-31 -33l-7 -4l-5 -2l-10 7l-4 12l1 4l7 10l25 27l2 9l-12 3h-35c-8 0 -12 5 -12 15l1 13l11 2h36c6 0 10 1 12 3c0 4.66699 -0.666992 7.66699 -2 9l-33 31l-5 11l6 8c4 4 8.33301 6 13 6l4 -2l10 -6l27 -25
l8 -2l3 13v34c0 8 5.33301 12 16 12c6.66699 0 10.667 -0.666992 12 -2l2 -10v-35c0 -5.33301 1 -9.66602 3 -12.999c4.66699 0 7.66699 0.666992 9 2l31 33l7 4l5 2c3.33301 -2 6 -4.66699 8 -8l5 -12c0 -4 -2.33301 -8.33301 -7 -13l-26 -27l-2 -9l13 -3h35
c8 0 12 -5.33301 12 -16c0 -6.66699 -0.666992 -10.667 -2 -12z" />
    <glyph glyph-name="comma" unicode="," horiz-adv-x="165" 
d="M80 142c14.667 0 28.5 -8.00098 41.5 -24.001s19.5 -33 19.5 -51c0 -42 -12.333 -80.667 -37 -116c-20 -29.333 -38 -44 -54 -44c-6.66699 0 -10 3.66699 -10 11c0 4 2.33301 9.33301 7 16l14 15l13 16l4 16c0 4 -1.33301 7.33301 -4 10l-10 4
c-30.667 13.333 -46 37.333 -46 72c0 18.667 6 35.834 18 51.501s26.667 23.5 44 23.5z" />
    <glyph glyph-name="hyphen" unicode="-" horiz-adv-x="294" 
d="M39 389h202c9.33301 0 15 -5.33301 17 -16c0 -10 -5.66699 -15 -17 -15h-202c-12 0 -18 5 -18 15c0 10.667 6 16 18 16z" />
    <glyph glyph-name="period" unicode="." horiz-adv-x="174" 
d="M85 149c15.333 0 29.333 -7.50098 42 -22.501s19 -32.167 19 -51.5s-6.16699 -36.666 -18.5 -51.999s-26.5 -23 -42.5 -23c-15.333 0 -29.333 8 -42 24s-19 33 -19 51s6 34.833 18 50.5s26.333 23.5 43 23.5z" />
    <glyph glyph-name="slash" unicode="/" horiz-adv-x="248" 
d="M11 3l183 732.999c4 12 7.33301 19.333 10 22s8.66699 5 18 7l6 -3c4 -5.33301 6 -10.666 6 -15.999c0 -12 -2 -26 -6 -42l-183 -733c-4 -12 -7.66699 -19.667 -11 -23c-2 -3.33301 -8 -5.33301 -18 -6l-7 7l-4 12c0 12 2 26 6 42z" />
    <glyph glyph-name="zero" unicode="0" horiz-adv-x="333" 
d="M161 733c53.333 0 93.001 -41.334 119.001 -124.001c9.33301 -32.667 16.666 -72.334 21.999 -119.001c2 -22 3.66699 -46.667 5 -74s2 -57.666 2 -90.999c0 -133.333 -14.333 -225.666 -43 -276.999c-22 -39.333 -57 -59 -105 -59s-83 19.333 -105 58
c-28.667 53.333 -43 146.333 -43 279c0 124.667 9.33301 219 28 283c24 82.667 64 124 120 124zM161.001 54.999c18 0 27 19.002 27 57.002l2 104l3 133v76c0 164 -10.667 246 -32 246s-32 -107.333 -32 -322v-110c0 -11.333 0.333008 -29.833 1 -55.5s1 -45.834 1 -60.501
c0 -23.333 2.5 -40.333 7.5 -51s12.5 -16.334 22.5 -17.001z" />
    <glyph glyph-name="one" unicode="1" horiz-adv-x="202" 
d="M16 640l103.998 72.9971c6 4 11.667 6 17 6c4 -4 6.66699 -7.33301 8 -10l1 -64v-566c0 -12 2.33301 -21.667 7 -29c2 -3.33301 7.33301 -7.16602 16 -11.499s13.834 -7.66602 15.501 -9.99902s2.5 -5.83301 2.5 -10.5c0 -7.33301 -2.16699 -12.166 -6.5 -14.499
s-15.833 -3.5 -34.5 -3.5h-93c-16.667 0 -27.167 1 -31.5 3s-7.16602 7 -8.49902 15c0 6 5.16699 12 15.5 18s16.166 10.333 17.499 13c4.66699 8 7 18 7 30v477c0 16 -1.66699 26.833 -5 32.5s-8.66602 9.5 -15.999 11.5l-16 6c-2 2 -4 7.66699 -6 17c0 6 2 11.667 6 17z
" />
    <glyph glyph-name="two" unicode="2" 
d="M271 181c12.667 0 18.999 -9.66797 18.999 -29.001c0 -8.66699 -0.666992 -16.667 -2 -24s-2.33301 -13 -3 -17l-7 -42l-7 -41c-4 -18 -10.667 -27.333 -20 -28h-210c-10.667 0 -16 9.33301 -16 28v26c0 16.667 3 37 9 61l12 37l20 45l96 197
c11.333 25.333 19.333 51 24 77l6 39l2 46c0 30.667 -4.16699 54.834 -12.5 72.501s-19.833 26.5 -34.5 26.5c-12.667 0 -23.667 -7.66699 -33 -23s-14 -33.666 -14 -54.999c0 -16 1.66699 -26.5 5 -31.5s9.33301 -11.167 18 -18.5c14 -8 21 -25 21 -51
c0 -13.333 -5.66699 -25.333 -17 -36l-14 -11c-4 -2 -11 -3.66699 -21 -5c-22 0 -40.833 13.167 -56.5 39.5s-23.5 57.166 -23.5 92.499c0 43.333 10.333 80.666 31 111.999c26.667 38.667 63.334 58 110.001 58c41.333 0 75.333 -16 102 -48s40 -80.667 40 -146
c0 -32 -5 -65.667 -15 -101c-6 -23.333 -15 -44.666 -27 -63.999l-133 -227c-8 -16 -12 -30.333 -12 -43c0 -6 2.16699 -10.833 6.5 -14.5s12.5 -5.5 24.5 -5.5h20c12 0 25 6 39 18c8 8 18.333 21.333 31 40l21 29c7.33301 9.33301 14.333 15 21 17z" />
    <glyph glyph-name="three" unicode="3" horiz-adv-x="341" 
d="M313 253c0 -90 -18.001 -157.001 -54.001 -201.001c-28.667 -34.667 -62.667 -52 -102 -52c-40 0 -72.667 12.333 -98 37c-27.333 28.667 -41 71.667 -41 129c0 39.333 7.5 70.333 22.5 93s36.167 34 63.5 34c14 0 25.167 -4.33301 33.5 -13s12.5 -19.667 12.5 -33
s-6.16699 -26.166 -18.5 -38.499s-18.5 -33.166 -18.5 -62.499c0 -26.667 3.66699 -45 11 -55s18.333 -15 33 -15c12.667 0 24 15.5 34 46.5s15 65.5 15 103.5c0 61.333 -3.66699 104.333 -11 129s-19 37 -35 37h-62c-8 0 -12 7 -12 21c0 10.667 3.33301 22.667 10 36
l87 162c4 8 6 14.333 6 19c0 8 -4 12 -12 12l-17 -1c-8 0 -17.667 -4.33301 -29 -13l-23 -21l-24 -26c-9.33301 -10 -15.666 -15 -18.999 -15c-9.33301 0 -14 10 -14 30l4 33l12 49l4 20l7 16c5.33301 12 12 18 20 18l9 -3l9 -5l17 -5h159c8 0 12 -7.33301 12 -22
c0 -9.33301 -3.33301 -21 -10 -35l-83 -161l-5 -17c0 -4 1.66699 -7 5 -9c26 -10 48.333 -32.333 67 -67c23.333 -42.667 35 -94.334 35 -155.001z" />
    <glyph glyph-name="four" unicode="4" horiz-adv-x="336" 
d="M247 719c12.667 0 18.998 -8.33301 18.998 -25v-433c0 -20 7.66699 -30 23 -30h11c3.33301 0 7 -2 11 -6l6 -17v-18c0 -4.66699 -1.66699 -9.5 -5 -14.5s-7.33301 -7.83301 -12 -8.5h-11c-6 0 -11.667 -2.66699 -17 -8c-4 -5.33301 -6 -12.666 -6 -21.999v-58
c0 -14 1.33301 -23.333 4 -28l20 -13c9.33301 -4.66699 15 -11.334 17 -20.001c0 -7.33301 -2.16699 -12.166 -6.5 -14.499s-15.833 -3.5 -34.5 -3.5h-93c-17.333 0 -28.166 1 -32.499 3s-7.16602 7 -8.49902 15c0 5.33301 5 11.666 15 18.999l19 12c4.66699 8 7 18 7 30v58
c0 20 -8 30 -24 30h-123c-8.66699 0 -13 9.33301 -13 28v42c0 12 0.666992 20 2 24l4 22l158 414c4 14 10.667 21.333 20 22h50zM172.998 261v183c0 12 -1.33301 18.333 -4 19l-7 -11l-74 -194l-3 -15c0 -8 2.33301 -12 7 -12h57c16 0 24 10 24 30z" />
    <glyph glyph-name="five" unicode="5" horiz-adv-x="322" 
d="M304 249c0 -89.333 -18.332 -156.332 -54.999 -200.999c-28.667 -34.667 -62.667 -52 -102 -52c-40 0 -72.333 12.333 -97 37c-27.333 28.667 -41 71.667 -41 129c0 39.333 7.33301 70.333 22 93s35.667 34 63 34c31.333 0 47 -15.333 47 -46c0 -11.333 -4 -22 -12 -32
c-17.333 -18.667 -26 -41.667 -26 -69c0 -26.667 3.66699 -45 11 -55s18.333 -15 33 -15c14 0 24 14.5 30 43.5s9 64.5 9 106.5c0 72 -3.66699 118 -11 138c-10 33.333 -30 50 -60 50c-8.66699 0 -18.334 -2 -29.001 -6s-19.667 -6 -27 -6c-10.667 0 -16 12.667 -16 38l3 52
l24 190c2 15.333 4.33301 25.5 7 30.5s9 8.5 19 10.5h127c7.33301 1.33301 13 4 17 8s7.66699 6 11 6c6.66699 0 12.167 -3.16699 16.5 -9.5s6.5 -14.5 6.5 -24.5v-31c0 -14.667 -4.66699 -27 -14 -37c-8 -10 -19.667 -15 -35 -15h-81c-5.33301 0 -10 -2.33301 -14 -7
l-4 -21l-8 -61l-1 -8v-6c0 -14 6.33301 -21 19 -21l11 3l17 4c36 0 66.333 -15.667 91 -47c32.667 -42.667 49 -110.334 49 -203.001z" />
    <glyph glyph-name="six" unicode="6" horiz-adv-x="321" 
d="M156 -4c-50 0 -87.665 22.6689 -112.998 68.002c-22.667 42 -34 96.333 -34 163v174c0 86.667 12 161 36 223c27.333 69.333 65.666 104 114.999 104c42 0 73.667 -11 95 -33c16.667 -20.667 25 -51.334 25 -92.001c0 -28 -6.33301 -48.5 -19 -61.5
s-28.667 -19.5 -48 -19.5c-8 0 -15.667 2.33301 -23 7c-9.33301 7.33301 -14 18.666 -14 33.999c0 6.66699 5.66699 17.667 17 33c6 8 9 18.333 9 31c0 11.333 -2.66699 21 -8 29c-4 8 -11.333 12.333 -22 13c-12.667 0 -24.334 -12.667 -35.001 -38
c-8.66699 -29.333 -13 -59.333 -13 -90c0 -55.333 5 -84 15 -86l17 3c48 0 85.667 -22.667 113 -68c23.333 -40.667 35 -95 35 -163c0 -68.667 -11.333 -122.667 -34 -162c-26 -46 -64 -69 -114 -69zM156.002 60.002c21.333 0 32 26 32 78v167c0 51.333 -10.667 77 -32 77
s-32 -25.667 -32 -77v-167c0 -52 10.667 -78 32 -78z" />
    <glyph glyph-name="seven" unicode="7" horiz-adv-x="282" 
d="M52 719h193c4 0 8.33301 -2.33301 13 -7s7 -13.667 7 -27v-12c0 -13.333 -1.66699 -24.333 -5 -33l-7 -25l-44 -161c-12 -52 -23 -107 -33 -165c-18 -106 -27 -194.333 -27 -265c0 -16 -4.66699 -24 -14 -24h-86c-10 0 -15 8 -15 24c0 62 8.33301 128.333 25 199
c2 10.667 5.33301 24.667 10 42s9 32.666 13 45.999l36 105l27 74c5.33301 14.667 12 31.334 20 50.001l15 34l13 40c0 7.33301 -3 12 -9 14h-70c-8 0 -17.667 -4.33301 -29 -13l-23 -21l-24 -27c-6 -7.33301 -12.333 -12 -19 -14c-8.66699 0 -13 9.66699 -13 29
c0 9.33301 2.33301 25.333 7 48l7 32l12 39c5.33301 12 12 18 20 18z" />
    <glyph glyph-name="eight" unicode="8" horiz-adv-x="312" 
d="M10 199c0 42 8.99805 81.001 26.998 117.001l39 62l4 10l-6 13c-16 24 -26.333 41.667 -31 53c-12.667 34 -19 72 -19 114c0 53.333 13 94.666 39 123.999c23.333 24 55.333 36 96 36c30.667 0 58 -10 82 -30c28.667 -26.667 43 -64 43 -112
c0 -34 -7.33301 -66.667 -22 -98c-9.33301 -19.333 -21 -37 -35 -53c-3.33301 -3.33301 -6 -8 -8 -14l4 -10c16.667 -24 30.334 -45.667 41.001 -65c20.667 -45.333 31 -94 31 -146c0 -66.667 -10.667 -115.667 -32 -147c-24 -38 -64.667 -57 -122 -57
c-43.333 0 -76.666 18 -99.999 54c-20.667 38 -31 87.667 -31 149zM162.998 679.001c-10.667 0 -20.333 -8.33203 -29 -24.999l-7 -28l-3 -34c0 -28.667 3.33301 -52.667 10 -72c3.33301 -10.667 9.33301 -21.334 18 -32.001c2 -3.33301 6 -6 12 -8
c3.33301 0 7.83301 4 13.5 12s11.5 20.5 17.5 37.5s9 35.167 9 54.5c0 17.333 -0.5 29.333 -1.5 36s-3.16699 16 -6.5 28c-5.33301 20.667 -16.333 31 -33 31zM140.999 60.002c12.667 0 23.832 9.16602 33.499 27.499s14.5 49.5 14.5 93.5c0 42.667 -4.66699 73.667 -14 93
c-4 10 -13.667 23.667 -29 41c-4 4 -9 4 -15 0c-5.33301 -3.33301 -10 -8.66602 -14 -15.999l-15 -50l-4 -63l3 -62c0.666992 -7.33301 1.83398 -14.5 3.50098 -21.5s4.16699 -13.5 7.5 -19.5c6 -15.333 15.667 -23 29 -23z" />
    <glyph glyph-name="nine" unicode="9" horiz-adv-x="334" 
d="M161 728c50 0 87.666 -22.665 112.999 -67.998c22.667 -42 34 -96.333 34 -163v-174c0 -86.667 -12 -161 -36 -223c-27.333 -69.333 -65.666 -104 -114.999 -104c-42.667 0 -74 10 -94 30c-17.333 20.667 -26 52 -26 94c0 26.667 6 47 18 61s28.333 21 49 21
c10.667 0 19.667 -4.16699 27 -12.5s11 -17.833 11 -28.5c0 -6 -6 -17 -18 -33c-6 -7.33301 -9 -17.666 -9 -30.999c0 -12.667 2.83301 -22.834 8.5 -30.501s13.167 -11.834 22.5 -12.501c13.333 0 24.666 13 33.999 39c8.66699 28 13 57.667 13 89v54c0 22 -5 33 -15 33
l-17 -3c-49.333 0 -86.166 21.667 -110.499 65s-36.5 98.666 -36.5 165.999s11.333 121.333 34 162c25.333 46 63 69 113 69zM160.999 663.002c-21.333 0 -32 -25.667 -32 -77v-167c0 -52 10.667 -78 32 -78s32 26 32 78v167c0 51.333 -10.667 77 -32 77z" />
    <glyph glyph-name="colon" unicode=":" horiz-adv-x="161" 
d="M81 475c15.333 0 29.333 -7.50098 42 -22.501s19 -32.167 19 -51.5s-6.16699 -36.666 -18.5 -51.999s-26.5 -23 -42.5 -23s-30.333 8 -43 24s-19 33 -19 51s6 34.833 18 50.5s26.667 23.5 44 23.5zM81 145.999c15.333 0 29.333 -7.50098 42 -22.501s19 -32.167 19 -51.5
s-6.16699 -36.666 -18.5 -51.999s-26.5 -23 -42.5 -23s-30.333 8 -43 24s-19 33 -19 51c0 20 6.33301 37.333 19 52s27 22 43 22z" />
    <glyph glyph-name="semicolon" unicode=";" horiz-adv-x="176" 
d="M86 475c15.333 0 29.333 -7.50098 42 -22.501s19 -32.167 19 -51.5s-6.16699 -36.666 -18.5 -51.999s-26.5 -23 -42.5 -23c-15.333 0 -29.333 8 -42 24s-19 33 -19 51s6 34.833 18 50.5s26.333 23.5 43 23.5zM86 145.999c15.333 0 29.333 -7.5 42 -22.5
s19 -32.167 19 -51.5c0 -41.333 -12 -80 -36 -116c-20 -29.333 -38 -44 -54 -44c-6.66699 0 -10 3.33301 -10 10c0 4 2.33301 9.33301 7 16l12 14l13 16l5 17c0 6 -4.33301 11 -13 15c-30.667 13.333 -46 37.333 -46 72c0 18.667 6 35.667 18 51s26.333 23 43 23z" />
    <glyph glyph-name="less" unicode="&#x3c;" 
d="M146 154c-10.667 0 -19.667 3.66602 -27 10.999l-97 119l-7 16l-2 21c0 10.667 0.666992 17.334 2 20.001l7 17l97 119l13 9l14 2c9.33301 0 14 -6.33301 14 -19l-3 -13l-5 -14l-39 -98c-4 -10 -6 -17.667 -6 -23l3 -12l3 -11l39 -98c2 -13.333 4.66699 -22.333 8 -27
c0 -12 -4.66699 -18.333 -14 -19zM268 153.999l-15 1l-11 10l-97 119l-7 13c-2 6 -3 14 -3 24c0 14 3.33301 26.333 10 37l97 119c6 7.33301 14.667 11 26 11c9.33301 0 14 -6.33301 14 -19l-3 -13l-4 -14l-39 -98l-7 -23l2 -10l5 -13l39 -98l4 -14l3 -13
c0 -12 -4.66699 -18.333 -14 -19z" />
    <glyph glyph-name="equal" unicode="=" horiz-adv-x="294" 
d="M38 430h202c9.33301 0 15 -5.33301 17 -16c0 -10 -5.66699 -15 -17 -15h-202c-12 0 -18 5 -18 15c0 10.667 6 16 18 16zM38 345h202c9.33301 0 15 -5 17 -15c0 -10.667 -5.66699 -16 -17 -16h-202c-12 0 -18 5.33301 -18 16c0 10 6 15 18 15z" />
    <glyph glyph-name="greater" unicode="&#x3e;" 
d="M152 154l14 1.00098c3.33301 1.33301 7.33301 4.66602 12 9.99902l97 119l6 13l4 24c0 14 -3.33301 26.333 -10 37l-97 119c-6 7.33301 -14.667 11 -26 11c-9.33301 0 -14 -6.33301 -14 -19l3 -13l5 -14l38 -98l7 -23l-2 -10l-5 -13l-38 -98
c-2 -13.333 -4.66699 -22.333 -8 -27c0 -12 4.66699 -18.333 14 -19zM30 154.001l14 1.00098c3.33301 1.33301 7.33301 4.66602 12 9.99902l97 119l6 13l4 24c0 14 -3.33301 26.333 -10 37l-97 119c-6 7.33301 -14.667 11 -26 11c-9.33301 0 -14 -6.33301 -14 -19l3 -14
l4 -13l39 -98l7 -23l-2 -10l-5 -13l-39 -98l-5 -17l-2 -10c0 -12 4.66699 -18.333 14 -19z" />
    <glyph glyph-name="question" unicode="?" horiz-adv-x="315" 
d="M286 551c0 -38.667 -7.66797 -71.335 -23.001 -98.002l-37 -49l-20.5 -32c-3.66699 -6 -10.167 -17.333 -19.5 -34c-12 -26 -18 -51 -18 -75v-46c0 -8.66699 -1.16699 -16.667 -3.5 -24s-6.16602 -11.333 -11.499 -12h-23c-4.66699 0 -9 5 -13 15l-2 21v88
c0 44 7 84 21 120l46 123c0 49.333 -10.333 74 -31 74c-6.66699 0 -14 -6 -22 -18c-6.66699 -13.333 -10 -26.333 -10 -39c0 -18 3.33301 -31.333 10 -40c5.33301 -5.33301 9 -13.666 11 -24.999c0 -12 -4.16699 -20.167 -12.5 -24.5s-20.5 -6.5 -36.5 -6.5
c-14.667 0 -29 7 -43 21c-18.667 20.667 -28 52 -28 94c0 42.667 13 77 39 103c22.667 21.333 50.667 32 84 32c47.333 0 83 -14.167 107 -42.5s36 -70.166 36 -125.499zM141.999 141.999c14.667 0 28.5 -8.00195 41.5 -24.002s19.5 -33 19.5 -51
c0 -19.333 -6.16699 -36.666 -18.5 -51.999s-26.5 -23 -42.5 -23c-15.333 0 -29.333 8 -42 24s-19 33 -19 51c0 18.667 6 35.834 18 51.501s26.333 23.5 43 23.5z" />
    <glyph glyph-name="A" unicode="A" horiz-adv-x="426" 
d="M126 0l-84.001 -0.00390625c-9.33301 0 -16 1.83301 -20 5.5s-6 7.5 -6 11.5c0 8 3.33301 15.333 10 22s11.667 15.334 15 26.001l100 605l5 32c2 11.333 10.333 17 25 17h50c8 0 14.167 -3.16699 18.5 -9.5s8.5 -19.5 12.5 -39.5l117 -605c2 -10 6.66699 -18.667 14 -26
c7.33301 -6 11 -13.333 11 -22c0 -5.33301 -2.66699 -9.66602 -8 -12.999l-18 -4h-116c-17.333 0 -26 5.66699 -26 17c0 6.66699 3.83301 14.167 11.5 22.5s12.167 17.833 13.5 28.5l-4 26c-2 12.667 -4.66699 21 -8 25s-9.66602 6 -18.999 6h-65
c-12 0 -19.833 -5.66699 -23.5 -17s-5.5 -23.666 -5.5 -36.999c0 -8 2.66699 -15.667 8 -23c12 -14 18 -24.333 18 -31c0 -5.33301 -2.66699 -9.66602 -8 -12.999zM213.999 262.996l-18 97c-4 17.333 -8.33301 27 -13 29c-4 0 -8 -9.66699 -12 -29l-17 -96l-4 -38
c0 -16.667 7.66699 -25 23 -25h24c14 0 21 9.33301 21 28v20z" />
    <glyph glyph-name="B" unicode="B" horiz-adv-x="413" 
d="M40 71l0.000976562 576.999c0 10.667 -5.66699 21.667 -17 33c-6 6 -9 12.667 -9 20c0 12 8.66699 18 26 18h110c54 0 98.333 -16.333 133 -49s52 -74.334 52 -125.001c0 -33.333 -6.66699 -59 -20 -77l-40 -39l-5 -13c0 -4 2.33301 -8.33301 7 -13
c34 -29.333 59.333 -58 76 -86l13 -27c2.66699 -7.33301 5.66699 -16.166 9 -26.499s5.66602 -19.666 6.99902 -27.999s2 -18.166 2 -29.499c0 -72 -22.333 -126 -67 -162c-36.667 -29.333 -84 -44 -142 -44h-135c-9.33301 0 -16 1.83301 -20 5.5s-6 7.5 -6 11.5
c0 7.33301 3.83301 15.166 11.5 23.499s12.5 18.5 14.5 30.5zM186.001 655.999c-8.66699 0 -16.334 -4.33398 -23.001 -13.001c-4.66699 -10.667 -7 -30.667 -7 -60v-44c0 -30 2.33301 -49.5 7 -58.5s12.334 -13.5 23.001 -13.5c10 0 18.667 6 26 18
c4.66699 16.667 7 36.334 7 59.001c0 26.667 -3 51 -9 73c-8 26 -16 39 -24 39zM186.001 377.998c-8.66699 0 -16.333 -4.33203 -23 -12.999c-4.66699 -10.667 -7 -30.334 -7 -59.001v-170c0 -29.333 2 -48.833 6 -58.5s12 -14.5 24 -14.5c16 0 31 16 45 48
c10 24 15 54.333 15 91c0 48.667 -8 92 -24 130c-12 28.667 -24 44 -36 46z" />
    <glyph glyph-name="C" unicode="C" horiz-adv-x="366" 
d="M331 537c0 -7.33301 -1.99902 -15.667 -5.99902 -25c-4 -6.66699 -9 -10.667 -15 -12c-12 0 -24.667 12 -38 36l-16 37l-19 48c-10 24.667 -21.667 37 -35 37c-12.667 0 -24.334 -20.667 -35.001 -62c-2.66699 -13.333 -5.33398 -30.833 -8.00098 -52.5
s-4.66699 -38.834 -6 -51.501c0 -16.667 -0.833008 -42.667 -2.5 -78s-2.5 -59 -2.5 -71c0 -119.333 4 -195.166 12 -227.499s22 -48.5 42 -48.5c22.667 0 39.334 16.667 50.001 50c2.66699 11.333 5 25.333 7 42s3 34 3 52c0 36.667 2.66699 60.5 8 71.5
s13.666 16.5 24.999 16.5c14 0 26 -10.833 36 -32.5s15 -52.167 15 -91.5c0 -56.667 -15 -104 -45 -142c-27.333 -32.667 -60.333 -49 -99 -49c-58 0 -102 19.333 -132 58c-40.667 52.667 -61 145.334 -61 278.001c0 111.333 17.5 207.166 52.5 287.499
s81.833 120.5 140.5 120.5c8.66699 0 18 -2.66699 28 -8l13 -5c4 0 9 2 15 6s11.667 6 17 6c6 0 12.333 -2.5 19 -7.5s11.334 -15.833 14.001 -32.5c15.333 -70.667 23 -120.667 23 -150z" />
    <glyph glyph-name="D" unicode="D" horiz-adv-x="415" 
d="M44 719l91.001 0.000976562c56.667 0 112 -35 166 -105c58.667 -78.667 88 -173.667 88 -285c0 -101.333 -20.333 -181.5 -61 -240.5s-90.667 -88.5 -150 -88.5h-134c-10.667 0 -17.834 1.83301 -21.501 5.5s-5.5 7.5 -5.5 11.5c0 5.33301 6 15.666 18 30.999
c6 6 9 13.667 9 23v577c0 8 -6 19 -18 33c-6 6 -9 12.667 -9 20l2 8c4.66699 6.66699 13 10 25 10zM190.001 631.001c-8.66699 0 -16.333 -4.33398 -23 -13.001c-4.66699 -10.667 -7 -30.667 -7 -60v-410c0 -29.333 2 -48.833 6 -58.5s12 -14.5 24 -14.5
c16 0 29 12.333 39 37c5.33301 12.667 9.33301 27.334 12 44.001s4 37.667 4 63l1 67v29c0 9.33301 0.666992 20 2 32c0 98 -7.66699 172.333 -23 223c-12 40.667 -23.667 61 -35 61z" />
    <glyph glyph-name="E" unicode="E" horiz-adv-x="397" 
d="M244 0h-202.999c-9.33301 -0 -16 1.83301 -20 5.5s-6 7.5 -6 11.5c0 7.33301 3.83301 15.166 11.5 23.499s12.5 18.5 14.5 30.5v577c0 10.667 -5.66699 21.667 -17 33c-6 6 -9 12.667 -9 20c0 12 8.66699 18 26 18h204c10.667 0 20 1.33301 28 4l18 5
c6 0 11.667 -2 17 -6c4 -2 8.33301 -11.333 13 -28l23 -90c6 -26 9 -44.333 9 -55c0 -9.33301 -2 -16 -6 -20l-14 -6c-10 0 -21 8 -33 24l-30 48c-18 22.667 -33.167 39 -45.5 49s-24.5 15 -36.5 15c-11.333 0 -20 -6.33301 -26 -19c-3.33301 -14.667 -5 -32.667 -5 -54v-65
c0 -29.333 2 -48.833 6 -58.5s12 -14.5 24 -14.5c6 0 16 10 30 30c6 10 13.333 15 22 15c6 0 12 -3 18 -9s12.667 -17.333 20 -34l25 -64c12 -32 18.667 -54.333 20 -67c0 -9.33301 -2 -16 -6 -20l-14 -6c-8 0 -17.333 5.66699 -28 17l-31 36l-25 23
c-10 8 -20.333 12 -31 12c-8.66699 0 -16.334 -4.33301 -23.001 -13c-4.66699 -10.667 -7 -30.667 -7 -60v-168c0 -29.333 2 -48.833 6 -58.5s12 -14.5 24 -14.5c15.333 0 30 3.83301 44 11.5s31.333 23.834 52 48.501l21 34c14 25.333 28 38 42 38s21 -8.66699 21 -26
c0 -16.667 -4.33301 -42 -13 -76l-19 -67l-9 -29c-4 -10.667 -11.333 -16 -22 -16c-3.33301 0 -6.5 0.333008 -9.5 1s-8.16699 3 -15.5 7z" />
    <glyph glyph-name="F" unicode="F" horiz-adv-x="397" 
d="M188 659c-11.333 0 -19.999 -6.33301 -25.999 -19c-3.33301 -14.667 -5 -32.667 -5 -54v-65c0 -29.333 2 -48.833 6 -58.5s12 -14.5 24 -14.5c6 0 16 10 30 30c6 10 13.333 15 22 15c6 0 12 -3 18 -9s12.667 -17.333 20 -34l25 -64c12 -32 18.667 -54.333 20 -67
c0 -9.33301 -2 -16 -6 -20l-14 -6c-8 0 -17.333 5.66699 -28 17l-31 36l-25 23c-10 8 -20.333 12 -31 12c-8.66699 0 -16.334 -4.33301 -23.001 -13c-4.66699 -10.667 -7 -30.667 -7 -60v-237c0 -8 2.66699 -15.667 8 -23c12 -14 18 -24.333 18 -31
c0 -5.33301 -2.66699 -9.66602 -8 -12.999l-18 -4h-116c-9.33301 0 -16 1.83301 -20 5.5s-6 7.5 -6 11.5c0 7.33301 3.83301 15.166 11.5 23.499s12.5 18.5 14.5 30.5v577c0 10.667 -5.66699 21.667 -17 33c-6 6 -9 12.667 -9 20c0 12 8.66699 18 26 18h116h88
c10.667 0 20 1.33301 28 4l18 5c6 0 11.667 -2 17 -6c4 -2 8.33301 -11.333 13 -28l23 -90c6 -26 9 -44.333 9 -55c0 -9.33301 -2 -16 -6 -20l-14 -6c-10 0 -21 8 -33 24l-30 48c-18 22.667 -33.167 39 -45.5 49s-24.5 15 -36.5 15z" />
    <glyph glyph-name="G" unicode="G" horiz-adv-x="418" 
d="M255 372l117.001 0.00195312c17.333 0 26 -5.66699 26 -17c0 -8 -3.83301 -15.833 -11.5 -23.5s-12.5 -17.5 -14.5 -29.5v-190c0 -10.667 4.66699 -27.334 14 -50.001l7 -28c0 -14 -16.333 -24.333 -49 -31c-16 -2.66699 -33.5 -4.66699 -52.5 -6s-41.833 -2 -68.5 -2
c-66 0 -116 24 -150 72c-40 56 -60 147 -60 273c0 127.333 21.333 226.333 64 297c38 63.333 86.667 95 146 95c12 0 23.667 -2 35 -6l19 -5l15 3l15 4c8.66699 0 14.667 -2.5 18 -7.5s8.66602 -16.5 15.999 -34.5l17 -75l7 -42l3 -33c0 -10 -2 -18.833 -6 -26.5
s-10 -11.834 -18 -12.501c-11.333 0 -22.333 8.66699 -33 26l-28 52l-26 45c-10.667 19.333 -22 30 -34 32c-15.333 0 -31 -18.333 -47 -55c-14.667 -38 -22 -87.667 -22 -149v-150c0 -70.667 5 -124.5 15 -161.5s28 -55.5 54 -55.5c11.333 0 19.5 4.5 24.5 13.5
s7.5 28.833 7.5 59.5v148c0 10.667 -5.66699 21.667 -17 33c-6 6 -9 12.667 -9 20c0 4 2 8 6 12z" />
    <glyph glyph-name="H" unicode="H" horiz-adv-x="419" 
d="M357 0l-115.998 -0.00195312c-10.667 0 -17.834 1.83301 -21.501 5.5s-5.5 7.5 -5.5 11.5c0 5.33301 6 15.666 18 30.999c6 6 9 13.667 9 23v208c0 30 -2.16699 49.667 -6.5 59s-12.5 14 -24.5 14h-16c-8.66699 0 -16.334 -4.33301 -23.001 -13
c-4.66699 -10.667 -7 -30.667 -7 -60v-208c0 -8 2.66699 -15.667 8 -23c12 -14 18 -24.333 18 -31c0 -5.33301 -2.66699 -9.66602 -8 -12.999l-18 -4h-116c-10.667 0 -17.834 1.83301 -21.501 5.5s-5.5 7.5 -5.5 11.5c0 5.33301 6 15.666 18 30.999c6 6 9 13.667 9 23v577
c0 8 -6 19 -18 33c-6 6 -9 12.667 -9 20l2 8c4.66699 6.66699 13 10 25 10h116c6 0 11.333 -1.66699 16 -5s8 -7.66602 10 -12.999c0 -8 -3.83301 -15.833 -11.5 -23.5s-12.5 -17.5 -14.5 -29.5v-147c0 -30 2.33301 -49.5 7 -58.5s12.334 -13.5 23.001 -13.5h16
c10 0 18 4 24 12c4.66699 10.667 7 30.667 7 60v147c0 8 -6 19 -18 33c-6 6 -9 12.667 -9 20l2 8c4.66699 6.66699 13 10 25 10h116c6 0 11.333 -1.66699 16 -5s8 -7.66602 10 -12.999c0 -8 -3.83301 -15.833 -11.5 -23.5s-12.5 -17.5 -14.5 -29.5v-577
c0 -8 2.66699 -15.667 8 -23c12 -14 18 -24.333 18 -31c0 -5.33301 -2.66699 -9.66602 -8 -12.999z" />
    <glyph glyph-name="I" unicode="I" horiz-adv-x="231" 
d="M167 648v-577.001c0 -8 2.66699 -15.667 8 -23c12 -14 18 -24.333 18 -31c0 -5.33301 -2.66699 -9.66602 -8 -12.999l-18 -4h-117c-17.333 0 -26 5.66699 -26 17c0 7.33301 3.83301 15.166 11.5 23.499s12.5 18.5 14.5 30.5v577c0 10.667 -5.66699 21.667 -17 33
c-6 6 -9 12.667 -9 20c0 4 2 8 6 12s10.667 6 20 6h117c6 0 11.333 -1.66699 16 -5s8 -7.66602 10 -12.999c0 -8 -3.83301 -15.833 -11.5 -23.5s-12.5 -17.5 -14.5 -29.5z" />
    <glyph glyph-name="J" unicode="J" horiz-adv-x="360" 
d="M312 648l-0.000976562 -494.002c0 -54.667 -18 -96 -54 -124c-27.333 -20 -60.333 -30 -99 -30c-42 0 -76.167 14.5 -102.5 43.5s-39.5 67.5 -39.5 115.5c0 46 7 82 21 108s36 39 66 39c20 0 37.333 -8.33301 52 -25c9.33301 -13.333 14.666 -25.666 15.999 -36.999v-11
c0 -4.66699 -0.666992 -8.33398 -2 -11.001c-3.33301 -5.33301 -10.666 -8 -21.999 -8c-12 0 -19.833 -4.33301 -23.5 -13s-5.5 -23.667 -5.5 -45c0 -27.333 3.83301 -47.166 11.5 -59.499s17.167 -19.5 28.5 -21.5c11.333 0 20.333 7.66699 27 23c2.66699 8 5 17.333 7 28
s3 21 3 31v491c0 10.667 -5.66699 21.667 -17 33c-6 6 -9 12.667 -9 20c0 4 2 8 6 12s10.667 6 20 6h116c8.66699 0 14.834 -1.66699 18.501 -5s6.5 -7.66602 8.5 -12.999c0 -6 -6 -16 -18 -30c-6 -6 -9 -13.667 -9 -23z" />
    <glyph glyph-name="K" unicode="K" horiz-adv-x="438" 
d="M45 719l116.001 -0.00292969c6 0 11.333 -1.66699 16 -5s8 -7.66602 10 -12.999c0 -8 -3.83301 -15.833 -11.5 -23.5s-12.5 -17.5 -14.5 -29.5v-97c0 -9.33301 2 -15 6 -17l7 5l62 89c4 5.33301 6 15 6 29c0 7.33301 -3 14.333 -9 21s-9 14.334 -9 23.001c0 4 2 8 6 12
s10.667 6 20 6h88c6 0 11.333 -1.66699 16 -5s8 -7.66602 10 -12.999c0 -6.66699 -2.33301 -12.667 -7 -18l-13 -14l-78 -111l-4 -18l4 -24l107 -458c1.33301 -4.66699 5.83301 -10.667 13.5 -18s11.5 -15 11.5 -23c0 -5.33301 -2.66699 -9.66602 -8 -12.999l-18 -4h-122
c-17.333 0 -26 5.66699 -26 17c0 7.33301 3.83301 15.166 11.5 23.499s12.5 18.5 14.5 30.5l-2 19l-71 305c-2 10 -5.33301 15 -10 15c-4 0 -6 -5 -6 -15v-324c0 -8 2.66699 -15.667 8 -23c12 -14 18 -24.333 18 -31c0 -5.33301 -2.66699 -9.66602 -8 -12.999l-18 -4h-116
c-10.667 0 -17.834 1.83301 -21.501 5.5s-5.5 7.5 -5.5 11.5c0 5.33301 6 15.666 18 30.999c6 6 9 13.667 9 23v577c0 8 -6 19 -18 33c-6 6 -9 12.667 -9 20l2 8c4.66699 6.66699 13 10 25 10z" />
    <glyph glyph-name="L" unicode="L" horiz-adv-x="397" 
d="M244 0l-203 0.000976562c-9.33301 0 -16 1.83301 -20 5.5s-6 7.5 -6 11.5c0 7.33301 3.83301 15.166 11.5 23.499s12.5 18.5 14.5 30.5v577c0 10.667 -5.66699 21.667 -17 33c-6 6 -9 12.667 -9 20c0 12 8.66699 18 26 18h116c8 0 14.333 -1.83301 19 -5.5
s7 -7.83398 7 -12.501c0 -8 -3.83301 -15.833 -11.5 -23.5s-12.5 -17.5 -14.5 -29.5v-508c0 -29.333 2 -48.833 6 -58.5s12 -14.5 24 -14.5c15.333 0 30 3.83301 44 11.5s31.333 23.834 52 48.501l21 34c14 25.333 28 38 42 38s21 -8.66699 21 -26
c0 -16.667 -4.33301 -42 -13 -76l-19 -67l-9 -29c-4 -10.667 -11.333 -16 -22 -16c-3.33301 0 -6.5 0.333008 -9.5 1s-8.16699 3 -15.5 7z" />
    <glyph glyph-name="M" unicode="M" horiz-adv-x="527" 
d="M77 719l100.001 -0.00195312c6 0 11.333 -1.66699 16 -5s8 -7.66602 10 -12.999c0 -8 -3.83301 -15.833 -11.5 -23.5s-12.5 -17.5 -14.5 -29.5l60 -228c2 -8 4.66699 -12 8 -12l9 12l61 228c0 10.667 -5.66699 21.667 -17 33c-6 6 -9 12.667 -9 20c0 4 2 8 6 12
s10.667 6 20 6h100c8 0 14.333 -1.83301 19 -5.5s7 -7.83398 7 -12.501c0 -7.33301 -2.66699 -14 -8 -20c-12 -14 -18 -26 -18 -36l40 -581c0 -6 4.16699 -13.167 12.5 -21.5s12.5 -16.833 12.5 -25.5c0 -5.33301 -2.66699 -9.66602 -8 -12.999l-18 -4h-114
c-17.333 0 -26 5.66699 -26 17c0 4 6.33301 15.667 19 35c4 6 6.66699 15 8 27l-14 214c0 22 -3.33301 33 -10 33c-5.33301 0 -10.333 -8.66699 -15 -26l-64 -237c-2 -5.33301 -5.33301 -9 -10 -11l-8 11l-63 237c-4 15.333 -9 24 -15 26c-6.66699 0 -10 -11 -10 -33
l-15 -218c0 -10 4.33301 -20.667 13 -32c9.33301 -9.33301 14 -18 14 -26c0 -5.33301 -2.66699 -9.66602 -8 -12.999l-19 -4h-79c-9.33301 -0 -16 1.83301 -20 5.5s-6 7.5 -6 11.5c0 7.33301 3.83301 15 11.5 23s12.5 18.333 14.5 31l39 573
c1.33301 10.667 -4.33398 22.667 -17.001 36c-4.66699 5.33301 -8 12.333 -10 21l2 8c4.66699 6.66699 13 10 25 10z" />
    <glyph glyph-name="N" unicode="N" horiz-adv-x="411" 
d="M129 0l-87 -0.00195312c-9.33301 0 -16 1.83301 -20 5.5s-6 7.5 -6 11.5c0 7.33301 3.83301 15.166 11.5 23.499s12.5 18.5 14.5 30.5v577c0 10.667 -5.66699 21.667 -17 33c-6 6 -9 12.667 -9 20c0 12 8.66699 18 26 18h87c10 0 17 -1.16699 21 -3.5
s10 -11.166 18 -26.499l79 -205l9 -15l7 -3c4.66699 0 7 8.66699 7 26v156c0 8 -6 19 -18 33c-6 6 -9 12.667 -9 20l2 8c4.66699 6.66699 13 10 25 10h87c6 0 11.333 -1.66699 16 -5s8 -7.66602 10 -12.999c0 -8 -3.83301 -15.833 -11.5 -23.5s-12.5 -17.5 -14.5 -29.5v-600
c0 -43.333 -14.667 -65 -44 -65c-28.667 0 -43 21.667 -43 65c0 30 -4.33301 56.667 -13 80l-107 273l-8 12l-3 4l-3 2c-4.66699 0 -7 -8.66699 -7 -26v-322c0 -8 2.66699 -15.667 8 -23c12 -14 18 -24.333 18 -31c0 -5.33301 -2.66699 -9.66602 -8 -12.999z" />
    <glyph glyph-name="O" unicode="O" horiz-adv-x="424" 
d="M205 -15c-58 0 -102 19.335 -132 58.002c-40.667 52.667 -61 145.667 -61 279c0 55.333 4.16699 107.166 12.5 155.499s20.833 91.166 37.5 128.499c36 82.667 83.667 124 143 124c58 0 105.333 -41.333 142 -124c34 -77.333 51 -172 51 -284
c0 -132 -20.333 -224.667 -61 -278c-30 -39.333 -74 -59 -132 -59zM151 345.002c0 -119.333 4.00293 -195.166 12.0029 -227.499s22 -48.5 42 -48.5c21.333 0 36.666 27 45.999 81l5 75l2 120c0 114 -6 198 -18 252c-9.33301 42 -21 63 -35 63
c-12.667 0 -24.334 -20.667 -35.001 -62c-2.66699 -13.333 -5.33398 -30.833 -8.00098 -52.5s-4.66699 -38.834 -6 -51.501c0 -16.667 -0.833008 -42.667 -2.5 -78s-2.5 -59 -2.5 -71z" />
    <glyph glyph-name="P" unicode="P" horiz-adv-x="410" 
d="M46 71l0.00195312 577c0 8 -6 19 -18 33c-6 6 -9 12.667 -9 20l2 8c4.66699 6.66699 13 10 25 10h126c44 0 88 -25 132 -75c25.333 -30 44.333 -63.5 57 -100.5s19 -76.833 19 -119.5c0 -58 -13.667 -106.667 -41 -146c-33.333 -48.667 -82.333 -73 -147 -73
c-8.66699 0 -16.334 -4.33301 -23.001 -13c-4.66699 -10.667 -7 -30.667 -7 -60v-61c0 -8 2.66699 -15.667 8 -23c12 -14 18 -24.333 18 -31c0 -5.33301 -2.66699 -9.66602 -8 -12.999l-18 -4h-116c-10.667 0 -17.834 1.83301 -21.501 5.5s-5.5 7.5 -5.5 11.5
c0 5.33301 6 15.666 18 30.999c6 6 9 13.667 9 23zM192.002 641c-8.66699 0 -16.332 -4.33398 -22.999 -13.001c-4.66699 -10.667 -7 -30.667 -7 -60v-213c0 -30 2 -49.833 6 -59.5s12 -14.5 24 -14.5c17.333 0 31.666 13 42.999 39c10.667 28 16 61 16 99
c0 58.667 -6.16699 110.334 -18.5 155.001s-25.833 67 -40.5 67z" />
    <glyph glyph-name="Q" unicode="Q" horiz-adv-x="423" 
d="M10 329c0 55.333 4.16504 107.167 12.498 155.5s20.833 91.166 37.5 128.499c36 82.667 83.667 124 143 124c58 0 105.333 -41.333 142 -124c34 -77.333 51 -172 51 -284c0 -98.667 -10.667 -173.667 -32 -225c-16 -42.667 -40 -72 -72 -88c-10 -4 -15 -8.33301 -15 -13
l4 -16c2 -6 7 -13.667 15 -23l23 -17l26 -15c10 -6 15 -12.333 15 -19c0 -13.333 -11 -25 -33 -35c-17.333 -6 -35.666 -9 -54.999 -9c-36 0 -54 19 -54 57c0 30.667 -1.16699 48.834 -3.5 54.501s-6.16602 9.5 -11.499 11.5c-58 0 -102 19.333 -132 58
c-40.667 52.667 -61 145.667 -61 279zM148.998 352.001c0 -119.333 4.00195 -195.168 12.002 -227.501s22 -48.5 42 -48.5l5 6l1 35l-3 14c-2.66699 4.66699 -8.33398 10.667 -17.001 18l-12 10l-5 11c0 4.66699 2.33301 9.33398 7 14.001c4 2.66699 10 5.33398 18 8.00098
c14.667 0 26.334 -9.33301 35.001 -28l11 -24l2 8l5 23l4 49l2 132c0 114 -6 198 -18 252c-9.33301 41.333 -21 62 -35 62c-12.667 0 -24.334 -20.667 -35.001 -62c-2.66699 -13.333 -5.33398 -30.833 -8.00098 -52.5s-4.66699 -38.834 -6 -51.501
c0 -16.667 -0.833008 -42.5 -2.5 -77.5s-2.5 -58.5 -2.5 -70.5z" />
    <glyph glyph-name="R" unicode="R" horiz-adv-x="412" 
d="M44 719l130.001 -0.00292969c40 0 82 -21 126 -63c54 -52 81 -119.333 81 -202c0 -36.667 -7.66699 -69.334 -23 -98.001c-10 -19.333 -26 -38.666 -48 -57.999c-3.33301 -3.33301 -6 -9 -8 -17l2 -11l48 -212c0 -5.33301 3.66699 -11.666 11 -18.999
c7.33301 -6 11 -13.333 11 -22c0 -5.33301 -2.66699 -9.66602 -8 -12.999l-18 -4h-101c-17.333 0 -26 5.66699 -26 17c0 8.66699 3.5 16.167 10.5 22.5s10.833 13.5 11.5 21.5l-2 21l-32 132c-4 18.667 -7.66699 29.667 -11 33c-2 4 -7 7 -15 9
c-6 0 -11.667 -4.66699 -17 -14c-4 -9.33301 -6 -28.666 -6 -57.999v-113c0 -8 2.66699 -15.667 8 -23c12 -14 18 -24.333 18 -31c0 -5.33301 -2.66699 -9.66602 -8 -12.999l-18 -4h-116c-10.667 0 -17.834 1.83301 -21.501 5.5s-5.5 7.5 -5.5 11.5
c0 5.33301 6 15.666 18 30.999c6 6 9 13.667 9 23v577c0 8 -6 19 -18 33c-6 6 -9 12.667 -9 20l2 8c4.66699 6.66699 13 10 25 10zM190.001 653.997c-8.66699 0 -16.333 -4.33301 -23 -13c-4.66699 -10.667 -7 -30.667 -7 -60v-183c0 -29.333 2 -48.833 6 -58.5
s12 -14.5 24 -14.5c16 0 29.333 8.66699 40 26c12.667 24 19 60.333 19 109c0 61.333 -7.66699 110.333 -23 147c-12 31.333 -24 47 -36 47z" />
    <glyph glyph-name="S" unicode="S" horiz-adv-x="382" 
d="M37 552c0 50 12.5 92.667 37.5 128s56.5 53 94.5 53c14.667 0 28 -2 40 -6l18 -5l15 3l17 6c14 0 24.667 -19 32 -57l10 -76l2 -35c0 -9.33301 -2 -17 -6 -23s-9.66699 -10 -17 -12c-6 0 -13.667 5 -23 15l-27 60l-15 32c-8.66699 14.667 -20.334 22 -35.001 22
c-13.333 0 -23.666 -5.5 -30.999 -16.5s-11 -24.833 -11 -41.5c0 -18 10.333 -39.333 31 -64c14.667 -16.667 38.334 -39 71.001 -67c37.333 -32.667 65.666 -64.667 84.999 -96c23.333 -39.333 35 -84.333 35 -135c0 -70 -12.333 -127.667 -37 -173
c-28 -51.333 -69 -77 -123 -77c-16.667 0 -28.667 0.5 -36 1.5s-15.333 3.16699 -24 6.5l-26 7c-4 0 -9.66699 -2.33301 -17 -7c-3.33301 -3.33301 -9.33301 -6 -18 -8c-8.66699 0 -17 5 -25 15c-4.66699 8 -9 22 -13 42l-16 131c0 22 2 37 6 45s9.66699 12 17 12
c10.667 0 23 -14 37 -42l19 -44l24 -49c12 -20 25.667 -30 41 -30c12 0 24.333 9.66699 37 29c14.667 26 22 57 22 93c0 38 -6.33301 69.333 -19 94c-2 8 -32.667 43 -92 105l-31 33l-19 27c-20 32 -30 66.667 -30 104z" />
    <glyph glyph-name="T" unicode="T" horiz-adv-x="441" 
d="M389 510c-10 0 -21.0039 11.668 -33.0039 35.001l-16 35c-12.667 28.667 -21 45.667 -25 51c-2.66699 5.33301 -6.66699 9 -12 11c-10 0 -17.667 -4.66699 -23 -14c-4.66699 -10.667 -7 -30.334 -7 -59.001v-498c0 -8 2.66699 -15.667 8 -23c12 -14 18 -24.333 18 -31
c0 -5.33301 -2.66699 -9.66602 -8 -12.999l-18 -4h-117c-17.333 0 -26 5.66699 -26 17c0 7.33301 3.83301 15.166 11.5 23.499s12.5 18.5 14.5 30.5v499c0 30 -2.16699 49.667 -6.5 59s-12.166 14 -23.499 14c-3.33301 0 -8 -4 -14 -12l-22 -49l-22 -48
c-9.33301 -16 -18.666 -24 -27.999 -24c-4 0 -9.66699 4 -17 12l-7 27l1 21v18c2 10.667 3.33301 19 4 25l5 37l9 44c2 14 4.83301 22.833 8.5 26.5s10.834 6.16699 21.501 7.5l23 -6c6 -2 13.667 -3 23 -3h207c10.667 0 19.667 1.33301 27 4l19 5
c6 0 11.333 -1.66699 16 -5s9.33398 -13 14.001 -29l13 -87l5 -58c0 -10.667 -2.66699 -19.667 -8 -27c-4 -8 -9 -12 -15 -12z" />
    <glyph glyph-name="U" unicode="U" horiz-adv-x="396" 
d="M38 719h116c8 0 14.333 -1.83301 19 -5.5s7 -7.83398 7 -12.501c0 -8 -3.83301 -15.833 -11.5 -23.5s-12.5 -17.5 -14.5 -29.5v-526c0 -14 5 -26 15 -36s22.333 -15 37 -15c14 0 26 5 36 15s15 22 15 36v526c0 10.667 -5.66699 21.667 -17 33c-6 6 -9 12.667 -9 20
c0 4 2 8 6 12s10.667 6 20 6h88c8.66699 0 14.834 -1.66699 18.501 -5s6.5 -7.66602 8.5 -12.999c0 -6 -6 -16 -18 -30c-6 -6 -9 -13.667 -9 -23v-519c0 -52 -12.333 -88.333 -37 -109c-24.667 -19.333 -63.334 -29 -116.001 -29s-91 9 -115 27c-26 20 -39 57 -39 111v519
c0 10.667 -5.66699 21.667 -17 33c-6 6 -9 12.667 -9 20c0 12 8.66699 18 26 18z" />
    <glyph glyph-name="V" unicode="V" horiz-adv-x="416" 
d="M216 368l-55 282.999c0 5.33301 5 14.666 15 27.999c6 6 9 13.333 9 22c0 4 -2.16699 8 -6.5 12s-10.833 6 -19.5 6h-121c-10 0 -16.667 -1.66699 -20 -5l-6 -13c0 -6.66699 2 -13 6 -19c10.667 -12 17 -21 19 -27l119 -613l7 -26c4 -10 11.333 -15.333 22 -16h52
c8 0 13.833 2.33301 17.5 7s7.16699 14.667 10.5 30l104 615c2 12.667 6.66699 21.834 14 27.501s11 12.834 11 21.501c0 4 -2.16699 8 -6.5 12s-10.833 6 -19.5 6h-84c-6 0 -12.667 -2 -20 -6c-4 -4 -6 -8 -6 -12c0 -8 3.83301 -16 11.5 -24s11.5 -16.667 11.5 -26
l-47 -282c-2 -13.333 -5 -21 -9 -23c-4 0 -7 7.33301 -9 22z" />
    <glyph glyph-name="W" unicode="W" horiz-adv-x="510" 
d="M330 0h40c8 -0 13.833 2.33301 17.5 7s7.16699 14.667 10.5 30l60 611c1.33301 11.333 6 21 14 29s12 16 12 24c0 4 -2.16699 8 -6.5 12s-10.833 6 -19.5 6h-80c-6 0 -12.667 -2 -20 -6c-4 -4 -6 -8 -6 -12c0 -6 2.66699 -12.667 8 -20c12 -14 18 -26.333 18 -37
l-20 -222c-2 -21.333 -6 -32 -12 -32c-4 0 -7.33301 8.33301 -10 25l-26 156c-2 22 -11.333 33 -28 33h-32c-7.33301 0 -12.5 -1.66699 -15.5 -5s-7.16699 -13 -12.5 -29l-20 -155c-2 -16 -5.66699 -24.333 -11 -25c-6 0 -10 10.667 -12 32l-30 218
c-0.666992 10.667 3.83301 21.167 13.5 31.5s14.5 20.166 14.5 29.499l-2 8c-4.66699 6.66699 -13 10 -25 10h-113c-10 0 -16.667 -1.66699 -20 -5l-6 -13c0 -8 3.66699 -15.833 11 -23.5s12 -15.167 14 -22.5l84 -613c2 -18 4.66699 -29.167 8 -33.5
s10.333 -7.16602 21 -8.49902h44c12.667 0 22 11 28 33l28 212c2 12 5 18 9 18s7 -6 9 -18l36 -216c2 -12.667 4 -20.167 6 -22.5s9 -4.5 21 -6.5z" />
    <glyph glyph-name="X" unicode="X" horiz-adv-x="463" 
d="M401 59c2 -1.33301 3.33008 -2.67188 3.99707 -4.00488c4.66699 -5.33301 9 -9.66602 13 -12.999c10.667 -7.33301 16 -15.666 16 -24.999c0 -5.33301 -2.66699 -9.66602 -8 -12.999l-19 -4h-140c-9.33301 0 -16 1.83301 -20 5.5s-6 7.5 -6 11.5
c0 7.33301 3.83301 15 11.5 23s10.5 17 8.5 27l-54 144c-2 6 -4.66699 9.33301 -8 10l-8 -10l-45 -144c-2 -8 1 -16.333 9 -25c9.33301 -8 14 -16.333 14 -25c0 -5.33301 -2.66699 -9.66602 -8 -12.999l-18 -4h-101c-9.33301 0 -16 1.83301 -20 5.5s-6 7.5 -6 11.5
c0 8 4.66699 16.333 14 25c8.66699 6.66699 15.334 13.334 20.001 20.001l90 297l5 28c0 11.333 -1.66699 20.333 -5 27l-91 246c-2 2 -3.33301 3.66699 -4 5c-3.33301 4 -7.66602 7.66699 -12.999 11c-10 8 -15.333 16.333 -16 25c0 12 8.66699 18 26 18h140
c8.66699 0 14.834 -1.66699 18.501 -5s6.5 -7.66602 8.5 -12.999c0 -8 -4 -16 -12 -24s-11 -16.333 -9 -25l40 -106l4 -7l3 -2l8 12l32 103c2 8 -1.33301 16.167 -10 24.5s-13 16.5 -13 24.5c0 4 2 8 6 12s10.667 6 20 6h101c8 0 14.333 -1.83301 19 -5.5
s7 -7.83398 7 -12.501c0 -8 -4.83301 -16 -14.5 -24s-16.167 -14.667 -19.5 -20l-79 -251l-4 -28c0 -10.667 1.33301 -19.667 4 -27z" />
    <glyph glyph-name="Y" unicode="Y" horiz-adv-x="409" 
d="M230 455l47.9971 201.998c0.666992 6 -2.66602 13 -9.99902 21s-11 15.667 -11 23c0 4 2 8 6 12s10.667 6 20 6h77c6 0 11.333 -1.66699 16 -5s8 -7.66602 10 -12.999c0 -6 -3.83301 -12.833 -11.5 -20.5s-13.5 -17.167 -17.5 -28.5l-88 -371l-5 -41v-169
c0 -8 2.66699 -15.667 8 -23c12 -14 18 -24.333 18 -31c0 -5.33301 -2.66699 -9.66602 -8 -12.999l-18 -4h-117c-17.333 0 -26 5.66699 -26 17c0 7.33301 3.83301 15.166 11.5 23.499s12.5 18.5 14.5 30.5v169l-1 19c0 8.66699 -1.33301 16 -4 22l-105 379
c-1.33301 4 -6.16602 9.33301 -14.499 16s-12.5 15 -12.5 25c0 4 2 8 6 12s10.667 6 20 6h110c8.66699 0 14.834 -1.66699 18.501 -5s6.5 -7.66602 8.5 -12.999c0 -5.33301 -3 -12 -9 -20c-6 -6 -8 -13 -6 -21l57 -208l4 -7l3 -2z" />
    <glyph glyph-name="Z" unicode="Z" horiz-adv-x="392" 
d="M342 199c14 0 20.999 -8.66602 20.999 -25.999c0 -16.667 -4.33301 -42 -13 -76l-19 -67l-9 -29c-4 -10 -11.333 -15.333 -22 -16l-30 10l-29 5h-195c-19.333 0 -29 8.66699 -29 26l1 16l10 25l197 549l8 26c0 6 -3.66699 9.33301 -11 10h-4c-22 0 -38 -3 -48 -9
s-23 -18.667 -39 -38l-32 -47c-14 -19.333 -25.333 -29 -34 -29c-4 0 -8.33301 3.66699 -13 11l-4 29l6 40c2.66699 11.333 4.33398 18.666 5.00098 21.999c4 15.333 9 33.333 15 54l8 28c4 11.333 11.667 18 23 20l30 -9l29 -5h176c19.333 0 29 -8.66699 29 -26
c0 -8 -0.666992 -13.667 -2 -17c0 -4 -3 -12 -9 -24l-197 -549l-8 -26c0 -6 3.66699 -9.33301 11 -10h22c18.667 0 35.667 5.66699 51 17c15.333 12.667 29.333 27 42 43l21 34c14 25.333 28 38 42 38z" />
    <glyph glyph-name="backslash" unicode="\" horiz-adv-x="248" 
d="M228 3l-182.999 733.001c-4 12 -7.66699 19.667 -11 23c-2 3.33301 -8 5.33301 -18 6l-7 -7l-4 -12c0 -12 2 -26 6 -42l183 -733c4 -12 8 -20 12 -24c1.33301 -1.33301 6.66602 -3 15.999 -5l6 3c4 5.33301 6 10.666 6 15.999c0 12 -2 26 -6 42z" />
    <glyph glyph-name="asciicircum" unicode="^" horiz-adv-x="272" 
d="M226 632l-73.998 86c-5.33301 6 -13 9 -23 9c-5.33301 0 -11 -3 -17 -9l-74 -86l-6 -6c-4 -5.33301 -6 -11 -6 -17c0 -4 2 -7 6 -9l17 -2c7.33301 0 16 2 26 6l26 18c9.33301 6 19.666 9 30.999 9c9.33301 0 19.666 -3 30.999 -9l26 -18c8 -4 16.333 -6 25 -6
c16 0 24 3.66699 24 11l-3 12z" />
    <glyph glyph-name="underscore" unicode="_" horiz-adv-x="283" 
d="M40 31h202c9.33301 0 15 -5 17 -15c0 -10.667 -5.66699 -16 -17 -16h-202c-12 -0 -18 5.33301 -18 16c0 10 6 15 18 15z" />
    <glyph glyph-name="grave" unicode="`" horiz-adv-x="167" 
d="M107 712l41.001 -87.999l3 -15l3 -11c0 -8.66699 -5 -14 -15 -16c-12.667 0 -21.667 3.66699 -27 11l-97 103c-6 5.33301 -9 10.666 -9 15.999c0 8.66699 4 14 12 16h62c7.33301 0 12.666 -1.33301 15.999 -4z" />
    <glyph glyph-name="a" unicode="a" horiz-adv-x="327" 
d="M271 115c0 -14 1.99902 -24.002 5.99902 -30.002c4.66699 -4.66699 13 -7 25 -7l4 -9c0 -46.667 -15.667 -70 -47 -70c-14 0 -27.667 4.66699 -41 14c-12 10 -21.333 23.333 -28 40l-5 3l-2 -2l-9 -20c-14 -23.333 -34.333 -35 -61 -35c-27.333 0 -50.666 12 -69.999 36
c-9.33301 12.667 -16.333 26.667 -21 42s-7 34 -7 56c0 42.667 14 82 42 118c24 30 56.333 53.333 97 70c4.66699 2 8 8 10 18v15v11c-1.33301 5.33301 -2 9.33301 -2 12c0 11.333 -3 23 -9 35c-7.33301 17.333 -20.666 26 -39.999 26c-8 0 -14.167 -1.16699 -18.5 -3.5
s-6.83301 -5.16602 -7.5 -8.49902l8 -8l8 -7l5 -7c3.33301 -6.66699 5 -16.334 5 -29.001c0 -7.33301 -3 -15.666 -9 -24.999c-8.66699 -10.667 -20.334 -16 -35.001 -16c-14 0 -25.333 4.33301 -34 13c-10.667 12.667 -16 30.334 -16 53.001c0 24.667 10 46 30 64
s46.667 27 80 27c38.667 0 69 -11.167 91 -33.5s33 -51.833 33 -88.5zM141.999 72.998c8 0 16.001 6 24.001 18s12 25 12 39l-9 143c0 8 -1.33301 12.333 -4 13l-7 -5c-20.667 -16.667 -34.834 -33.167 -42.501 -49.5s-11.5 -42.5 -11.5 -78.5c0 -19.333 3 -37.5 9 -54.5
s15.667 -25.5 29 -25.5z" />
    <glyph glyph-name="b" unicode="b" horiz-adv-x="322" 
d="M132 679v-180.001c0 -14.667 3 -23 9 -25l12 9c1.33301 1.33301 7.33301 3 18 5c26.667 0 51.667 -17.667 75 -53c34 -51.333 51 -126.666 51 -225.999c0 -67.333 -8.66699 -118.333 -26 -153c-19.333 -40.667 -47 -61 -83 -61c-19.333 0 -38 9.33301 -56 28l-25 28
c-8 0 -18 -8 -30 -24s-20.667 -25 -26 -27c-4.66699 0 -10 4 -16 12c-4 8 -6 20.333 -6 37v534c0 18 -4 31 -12 39s-12.667 17.333 -14 28c0 11.333 5 20 15 26l22 9c10 3.33301 21.167 10 33.5 20s23.833 15.667 34.5 17c16 0 24 -14.333 24 -43zM163 114.999
c11.333 0 19.666 5.16797 24.999 15.501s8 30.166 8 59.499v70c0 52.667 -2.66699 91.167 -8 115.5s-14.333 36.5 -27 36.5c-9.33301 0 -16.666 -5 -21.999 -15c-4.66699 -12 -7 -30.667 -7 -56v-132c0 -30 2 -53.167 6 -69.5s12.333 -24.5 25 -24.5z" />
    <glyph glyph-name="c" unicode="c" horiz-adv-x="272" 
d="M254 117c0 -38 -11.3311 -68.0029 -33.998 -90.0029c-22.667 -20.667 -48.334 -31 -77.001 -31c-48 0 -83.333 21.333 -106 64c-19.333 36.667 -29 88.667 -29 156c0 82.667 14 149 42 199s63.667 75 107 75c25.333 0 46.5 -10.333 63.5 -31s25.5 -46 25.5 -76
c0 -18.667 -7.33301 -35 -22 -49c-14.667 -12.667 -29 -19 -43 -19c-6 0 -11.167 2.66699 -15.5 8s-6.5 14 -6.5 26l2 19l3 23c0 10.667 -2.83301 19.834 -8.5 27.501s-13.5 11.834 -23.5 12.501c-10.667 0 -22.334 -13.667 -35.001 -41c-10 -26 -15 -57 -15 -93
c0 -55.333 10 -101.666 30 -138.999c16 -30 33.667 -45 53 -45c14 0 25 11 33 33s17.667 33 29 33c18 0 27 -20.667 27 -62z" />
    <glyph glyph-name="d" unicode="d" horiz-adv-x="324" 
d="M279 681l0.000976562 -545.001c0 -19.333 4 -32.833 12 -40.5s13 -16.5 15 -26.5c0 -10 -4.33301 -18.333 -13 -25l-22 -9c-12.667 -5.33301 -25.667 -13.666 -39 -24.999l-13 -8c-4 -2 -10 -3.66699 -18 -5c-4.66699 0 -10.334 3.33301 -17.001 10l-5 11
c-0.666992 4 -1.33398 6.33301 -2.00098 7l-7 -3l-21 -20c-9.33301 -5.33301 -21.666 -8 -36.999 -8c-30 0 -54.333 19.333 -73 58c-9.33301 20.667 -16.333 43.167 -21 67.5s-7 53.5 -7 87.5c0 84 11 152 33 204s53 78 93 78c8 0 14.333 -1.33301 19 -4l14 -7
c4 0 6.33301 5.33301 7 16v91c0 18 -4 31 -12 39s-13 17.333 -15 28c0 10 4.33301 18.333 13 25l22 9c14 5.33301 26.667 13 38 23s22 15 32 15c16 0 24 -14.333 24 -43zM134.001 422.999c-8 0 -16 -16.001 -24 -48.001c-6.66699 -38 -10 -79 -10 -123l3 -55
c2 -18.667 5.66699 -35 11 -49c9.33301 -30 20 -45 32 -45c8 0 15.167 8.33301 21.5 25s9.5 40.667 9.5 72v70c0 36.667 -4.16699 71.334 -12.5 104.001s-18.5 49 -30.5 49z" />
    <glyph glyph-name="e" unicode="e" horiz-adv-x="275" 
d="M255 119c0 -38 -11.3311 -67.998 -33.998 -89.998c-22.667 -20.667 -48.334 -31 -77.001 -31c-48 0 -83.333 21.333 -106 64c-19.333 36.667 -29 88.667 -29 156c0 82.667 14 149 42 199s63.667 75 107 75c36.667 0 63.334 -19.667 80.001 -59
c12.667 -36 19 -81.667 19 -137c0 -11.333 -1 -19.666 -3 -24.999l-9 -9c-21.333 -4 -37.333 -8.33301 -48 -13l-31 -13c-26.667 -10 -46.667 -22.333 -60 -37l14 71c21.333 14 34.666 26.167 39.999 36.5s8 32.166 8 65.499c0 21.333 -3.16699 36.833 -9.5 46.5
s-14.833 14.5 -25.5 14.5c-2 -1.33301 -3.66699 -2.33301 -5 -3c-4.66699 -3.33301 -9.33398 -7.33301 -14.001 -12c-20.667 -26.667 -31 -63.334 -31 -110.001v-37c0 -12 3 -18 9 -18l10 5l18 12l-14 -71c-1.33301 -2 -2 -8 -2 -18c6 -16.667 15 -31.334 27 -44.001
s23.667 -20 35 -22c14 0 25 11 33 33s17.667 33 29 33c18 0 27 -20.667 27 -62z" />
    <glyph glyph-name="f" unicode="f" horiz-adv-x="240" 
d="M118 651c-4 0 -8.66699 -4.00098 -14 -12.001l-4 -25c0 -8 1.33301 -16.333 4 -25l16 -41l11 -29l18 -35c2 -5.33301 4.33301 -8.33301 7 -9l6 -2h51h6c4 -4.66699 6.33301 -8.66699 7 -12v-25c0 -7.33301 -2.33301 -12 -7 -14h-43c-6 0 -10 -1.33301 -12 -4l-2 -17v-330
c0 -8 2.66699 -15.667 8 -23c12 -14 18 -24.333 18 -31c0 -5.33301 -2.66699 -9.66602 -8 -12.999l-18 -4h-103c-17.333 0 -26 5.66699 -26 17c0 7.33301 3.83301 15.166 11.5 23.499s12.5 18.5 14.5 30.5v330c0 8.66699 -0.666992 14.334 -2 17.001l-9 4h-33
c-4 0 -6.33301 4.33301 -7 13v25c0 8 2.33301 12.333 7 13h33c6 0 8.66699 4.66699 8 14l-12 48l-7 48c0 52 11 91 33 117c17.333 19.333 40 29 68 29c19.333 0 39 -9 59 -27s30 -41.667 30 -71c0 -14 -4 -25 -12 -33c-8.66699 -6.66699 -19 -10 -31 -10
c-16 0 -29.667 10 -41 30c-10 20 -18.333 31 -25 33z" />
    <glyph glyph-name="g" unicode="g" horiz-adv-x="330" 
d="M312 -57c0 -36.667 -19 -67.002 -57 -91.002c-30 -18 -61.333 -27 -94 -27c-44.667 0 -80.667 10.333 -108 31c-30.667 22.667 -46 52.334 -46 89.001c0 14.667 4.33301 28.667 13 42c2 4.66699 5.66699 9 11 13l15 15c5.33301 3.33301 9 8.66602 11 15.999
c0 3.33301 -3 8 -9 14c-21.333 14 -32 34.333 -32 61c0 18 3.33301 31.667 10 41l23 21l10 12l-5 8c-10.667 12.667 -19.667 29.334 -27 50.001l-8 36l-3 46c0 41.333 9.33301 76.333 28 105c23.333 36 57.333 54 102 54c7.33301 0 12.5 12 15.5 36s12.5 41.667 28.5 53
c9.33301 7.33301 22 11 38 11c22.667 0 38 -1.83301 46 -5.5s12 -14.167 12 -31.5c0 -20 -2.33301 -31.833 -7 -35.5s-16.334 -5.5 -35.001 -5.5c-18 0 -28.667 -1.16699 -32 -3.5s-5.66602 -4.83301 -6.99902 -7.5l-4 -12c0 -4 1.66699 -7 5 -9
c17.333 -6 34 -21.333 50 -46c19.333 -31.333 29 -69.666 29 -114.999c0 -60 -21 -104.667 -63 -134c-28 -18 -62.667 -27 -104 -27c-4 0 -7.33301 -1.66699 -10 -5l-4 -13c0 -6 3.66699 -10.333 11 -13c74 -20 122.667 -38.333 146 -55c34 -24 51 -63.333 51 -118z
M118 337.998c0 -34.667 3 -65.6699 9 -93.0029s14.667 -41 26 -41c8.66699 0 16.167 6.83301 22.5 20.5s9.5 37.834 9.5 72.501c0 16.667 -0.666992 31.834 -2 45.501s-4 29.834 -8 48.501c-6 32 -15.667 48 -29 48c-6 0 -12.667 -9 -20 -27c-5.33301 -20 -8 -44.667 -8 -74
zM210 -60.0049c0 15.333 -9.00098 30 -27.001 44c-10 6.66699 -26.333 13 -49 19c-8 1.33301 -14 0 -18 -4l-15 -20l-7 -28c0 -16 4.83301 -30.667 14.5 -44s23.834 -20 42.501 -20c39.333 0 59 17.667 59 53z" />
    <glyph glyph-name="h" unicode="h" horiz-adv-x="365" 
d="M142 680v-186.002c0 -19.333 1.66699 -30 5 -32l16 6c8 4 15.333 6 22 6c42 0 73.333 -26.667 94 -80c24 -63.333 36 -171 36 -323c0 -8 2.66699 -15.667 8 -23c12 -14 18 -24.333 18 -31c0 -5.33301 -2.66699 -9.66602 -8 -12.999l-18 -4h-103
c-17.333 0 -26 5.66699 -26 17c0 7.33301 3.83301 15.166 11.5 23.499s12.5 18.5 14.5 30.5c0 18.667 -0.666992 43.334 -2 74.001s-2 52.334 -2 65.001c0 16.667 -1.16699 33.5 -3.5 50.5s-5.5 32.833 -9.5 47.5c-10 51.333 -24.333 77 -43 77l-8 -5l-2 -25v-284
c0 -8 2.66699 -15.667 8 -23c12 -14 18 -24.333 18 -31c0 -5.33301 -2.66699 -9.66602 -8 -12.999l-18 -4h-103c-9.33301 0 -16 1.83301 -20 5.5s-6 7.5 -6 11.5c0 7.33301 3.83301 15.166 11.5 23.499s12.5 18.5 14.5 30.5v513c0 18 -4 31 -12 39s-12.667 17.333 -14 28
c0 11.333 5 20 15 26l21 9c10 3.33301 21.167 10 33.5 20s23.833 15.667 34.5 17c16.667 0 25 -14.333 25 -43z" />
    <glyph glyph-name="i" unicode="i" horiz-adv-x="185" 
d="M142 669c0 -20 -6.83496 -38.833 -20.502 -56.5s-31.167 -26.5 -52.5 -26.5c-5.33301 0 -10.333 1 -15 3s-10 5.66699 -16 11c-9.33301 9.33301 -14 21 -14 35c0 22 6.66699 41.667 20 59c14.667 16.667 32.334 25 53.001 25c10.667 0 20.834 -4.66699 30.501 -14
s14.5 -21.333 14.5 -36zM38.998 71l0.000976562 270c0 18 -4 31 -12 39s-12.667 17.333 -14 28c0 10 4 18.667 12 26l24 9c9.33301 4 21.666 12 36.999 24c8.66699 6.66699 19 11 31 13c16.667 0 25 -14.333 25 -43v-366c0 -8 2.66699 -15.667 8 -23
c12 -14 18 -24.333 18 -31c0 -5.33301 -2.66699 -9.66602 -8 -12.999l-18 -4h-103c-9.33301 0 -16 1.83301 -20 5.5s-6 7.5 -6 11.5c0 7.33301 3.83301 15.166 11.5 23.499s12.5 18.5 14.5 30.5z" />
    <glyph glyph-name="j" unicode="j" horiz-adv-x="172" 
d="M154 674c0 -20.667 -6.83398 -39.667 -20.501 -57s-31.167 -26 -52.5 -26c-9.33301 0 -19 4.66699 -29 14s-15 21 -15 35c0 22 6.66699 41.667 20 59c14.667 16.667 32.334 25 53.001 25c8 0 17.333 -4.83301 28 -14.5s16 -21.5 16 -35.5zM153.999 435
l-0.000976562 -520.003c0 -25.333 -8.66699 -44.666 -26 -57.999c-13.333 -10 -28.666 -15 -45.999 -15c-16.667 0 -31.667 4.33301 -45 13c-19.333 12 -29 29.333 -29 52c0 20.667 7 31 21 31c14.667 0 22 12.333 22 37v364c0 18 -4 30.833 -12 38.5
s-12.667 16.834 -14 27.501c0 10.667 4.33301 19.334 13 26.001l22 9c12 4 25 12 39 24c8.66699 6.66699 19 11 31 13c16 0 24 -14 24 -42z" />
    <glyph glyph-name="k" unicode="k" horiz-adv-x="334" 
d="M136 0h-103.001c-17.333 0 -26 5.66699 -26 17c0 7.33301 3.83301 15.166 11.5 23.499s12.5 18.5 14.5 30.5v514c0 18 -4 31 -12 39s-12.667 17.333 -14 28c0 11.333 5 20 15 26l22 9c6 2.66699 11.333 5.16699 16 7.5s10.334 6.5 17.001 12.5
c11.333 9.33301 23 15 35 17c16 0 24 -14.333 24 -43v-356l4 -4l6 4l58 89c2 6 -0.333008 13.667 -7 23l-6 9l-2 11c0 4 2 8 6 12l20 5h75c17.333 0 26 -5.66699 26 -17c0 -8 -3.66699 -15.667 -11 -23l-22 -21l-49 -77l-4 -15l3 -14l74 -280l2 -12
c0 -10 -4.33301 -15 -13 -15h-65c-12 0 -20.333 7.66699 -25 23l-42 158c-4 14 -7.66699 21.333 -11 22l-5 -5l-5 -9l-6 -15l-1 -20v-83c0 -8 2.66699 -15.667 8 -23c12 -14 18 -24.333 18 -31c0 -5.33301 -2.66699 -9.66602 -8 -12.999z" />
    <glyph glyph-name="l" unicode="l" horiz-adv-x="171" 
d="M135 681v-610c0 -8 2.66699 -15.667 8 -23c12 -14 18 -24.333 18 -31c0 -5.33301 -2.66699 -9.66602 -8 -12.999l-18 -4h-103c-17.333 0 -26 5.66699 -26 17c0 7.33301 3.83301 15.166 11.5 23.499s12.5 18.5 14.5 30.5v514c0 18 -4 31 -12 39s-12.667 17.333 -14 28
c0 11.333 5 20 15 26l22 9c12 4 23.667 11 35 21s22.333 15.333 33 16c16 0 24 -14.333 24 -43z" />
    <glyph glyph-name="m" unicode="m" horiz-adv-x="523" 
d="M178 385c-11.333 0 -20.6641 -5.00098 -27.9971 -15.001c-5.33301 -9.33301 -8 -24 -8 -44v-255c0 -8 2.66699 -15.667 8 -23c12 -14 18 -24.333 18 -31c0 -5.33301 -2.66699 -9.66602 -8 -12.999l-18 -4h-103c-9.33301 -0 -16 1.83301 -20 5.5s-6 7.5 -6 11.5
c0 7.33301 3.83301 15.166 11.5 23.499s12.5 18.5 14.5 30.5v277c0 18 -4 31 -12 39s-12.667 17.333 -14 28c0 11.333 5 20 15 26l21 9c9.33301 4 21.666 12 36.999 24l12 8c4 2 10.333 3.66699 19 5c6 0 11 -2 15 -6l8 -14c2 -6 6 -9 12 -9c8.66699 0 16.667 2.33301 24 7
l23 14c4.66699 3.33301 13 6 25 8c6 0 10.667 -0.5 14 -1.5s8.5 -3.5 15.5 -7.5s16.167 -13 27.5 -27l11 -4c6 0 12.333 3.33301 19 10l13 16c7.33301 8.66699 16.666 13 27.999 13c41.333 0 71.333 -28.667 90 -86c21.333 -66 32 -175.667 32 -329c0 -8 6 -19 18 -33
c6 -6 9 -13 9 -21c0 -5.33301 -2.66699 -9.66602 -8 -12.999l-19 -4h-102c-10.667 -0 -17.834 1.83301 -21.501 5.5s-5.5 7.5 -5.5 11.5c0 5.33301 6 15.666 18 30.999c6 6 9 13.667 9 23c0 108 -3.16699 187 -9.5 237s-18.166 75 -35.499 75
c-4 0 -8.33301 -4.66699 -13 -14s-7 -19.666 -7 -30.999v-267c0 -8 6 -19 18 -33c6 -6 9 -13 9 -21c0 -5.33301 -2.66699 -9.66602 -8 -12.999l-19 -4h-101c-10.667 0 -17.834 1.83301 -21.501 5.5s-5.5 7.5 -5.5 11.5c0 5.33301 6 15.666 18 30.999c6 6 9 13.667 9 23v255
c0 18 -1.83301 32.333 -5.5 43s-11.167 16 -22.5 16z" />
    <glyph glyph-name="n" unicode="n" horiz-adv-x="361" 
d="M37 348c0 18 -4.00098 31 -12.001 39s-12.667 17.333 -14 28c0 11.333 5 20 15 26l22 9c10 4 22 12 36 24l12 8c4 2 10.333 3.66699 19 5c4.66699 0 10.334 -3.33301 17.001 -10l4 -5l5 -1l7 4c8 8 18.333 12 31 12c41.333 0 73.666 -29 96.999 -87
c24.667 -70 37 -179.667 37 -329c0 -8 6 -19 18 -33c6 -6 9 -13 9 -21c0 -5.33301 -2.66699 -9.66602 -8 -12.999l-19 -4h-103c-17.333 0 -26 5.66699 -26 17c0 7.33301 3.83301 15.166 11.5 23.499s12.5 18.5 14.5 30.5c0 117.333 -5.16699 199 -15.5 245
s-25.166 69 -44.499 69l-8 -5l-2 -25v-284c0 -8 2.66699 -15.667 8 -23c12 -14 18 -24.333 18 -31c0 -5.33301 -2.66699 -9.66602 -8 -12.999l-18 -4h-103c-9.33301 0 -16 1.83301 -20 5.5s-6 7.5 -6 11.5c0 7.33301 3.83301 15.166 11.5 23.499s12.5 18.5 14.5 30.5v277z
" />
    <glyph glyph-name="o" unicode="o" horiz-adv-x="292" 
d="M275 230c0 -70 -10.666 -127.666 -31.999 -172.999s-53.333 -68 -96 -68c-34.667 0 -64.667 17.667 -90 53c-34 47.333 -51 117.333 -51 210c0 69.333 10.333 125.666 31 168.999c23.333 48 55.666 72 96.999 72c34.667 0 64.667 -17.667 90 -53
c34 -47.333 51 -117.333 51 -210zM177.001 267.001c-14 36.667 -26.667 63.332 -38 79.999c-15.333 26 -29.666 39 -42.999 39c-12.667 0 -19 -12 -19 -36l1 -25c0 -4.66699 0.833008 -10.5 2.5 -17.5s3.5 -13.833 5.5 -20.5c4 -21.333 10.333 -40.333 19 -57
c12 -33.333 24.333 -60 37 -80c15.333 -26 29.666 -39 42.999 -39c12.667 0 19 12.667 19 38l-1 25c0 6.66699 -2.33301 18.334 -7 35.001c-4 18.667 -10.333 38 -19 58z" />
    <glyph glyph-name="p" unicode="p" horiz-adv-x="323" 
d="M141 475l14.001 9c5.33301 4.66699 13.666 8 24.999 10c36 0 66 -28.167 90 -84.5s36 -121.5 36 -195.5s-11 -131 -33 -171c-18 -33.333 -41.667 -50 -71 -50c-14 0 -26.333 4.33301 -37 13l-17 14c-8.66699 0 -13 -7 -13 -21v-93c0 -10.667 5.66699 -21.667 17 -33
c6 -6 9 -12.667 9 -20c0 -4 -2.16699 -8 -6.5 -12s-10.833 -6 -19.5 -6h-103c-6 0 -12.667 2 -20 6c-4 4 -6 8 -6 12c0 8 3.83301 15.833 11.5 23.5s12.5 17.5 14.5 29.5v447c0 18 -4 31 -12 39s-12.667 17.333 -14 28c0 11.333 5 20 15 26l22 9c12 4 24 11.167 36 21.5
s22.667 15.5 32 15.5c6 0 11.667 -2.66699 17 -8zM135.001 290v-79.0029c0 -29.333 3 -52.5 9 -69.5s14 -26.5 24 -28.5c14 0 25 14.667 33 44s12 68 12 116s-4 85.833 -12 113.5s-17 40.834 -27 39.501c-10 0 -19.333 -12.667 -28 -38
c-3.33301 -11.333 -6 -25.166 -8 -41.499s-3 -35.166 -3 -56.499z" />
    <glyph glyph-name="q" unicode="q" horiz-adv-x="329" 
d="M286 -166h-103.002c-6 0 -12.667 2 -20 6c-4 4 -6 8 -6 12c0 8 3.83301 15.833 11.5 23.5s12.5 17.5 14.5 29.5v93c0 9.33301 -1.33301 15 -4 17l-7 3c-3.33301 0 -10.666 -4 -21.999 -12c-9.33301 -8 -20.333 -12 -33 -12c-26.667 0 -48.667 11.667 -66 35
c-12.667 18 -22.667 41 -30 69c-2.66699 12.667 -5 28.167 -7 46.5s-3 37.166 -3 56.499c0 84.667 10.667 153.334 32 206.001c24 58.667 58 88 102 88l23 -1c4 0 9.33301 -2.33301 16 -7l30 -15l25 15c4.66699 3.33301 12.334 6 23.001 8c16 0 24 -14.333 24 -43v-547
c0 -10.667 5.66699 -21.667 17 -33c6 -6 9 -12.667 9 -20c0 -12 -8.66699 -18 -26 -18zM180.998 315c0 28 -2 51 -6 69c-6 28 -17 42 -33 42c-14 0 -24 -16.167 -30 -48.5s-9 -65.5 -9 -99.5v-31c0 -35.333 4 -66.833 12 -94.5s17.667 -41.5 29 -41.5c10.667 0 20 9 28 27
c6 18 9 42 9 72v105z" />
    <glyph glyph-name="r" unicode="r" horiz-adv-x="293" 
d="M274 451l0.000976562 -75.998c0 -22 -8.66699 -33 -26 -33c-10 0 -19.333 5.66699 -28 17l-10 13l-5 5c-11.333 0 -25 -13.333 -41 -40c-7.33301 -12.667 -13 -26.334 -17 -41.001s-6 -30.334 -6 -47.001v-178c0 -8 2.66699 -15.667 8 -23c12 -14 18 -24.333 18 -31
c0 -5.33301 -2.66699 -9.66602 -8 -12.999l-18 -4h-103c-9.33301 0 -16 1.83301 -20 5.5s-6 7.5 -6 11.5c0 7.33301 3.83301 15.166 11.5 23.499s12.5 18.5 14.5 30.5v282c0 18 -4 31 -12 39s-12.667 17.333 -14 28c0 11.333 5 20 15 26l22 9
c10.667 4 22.167 11.167 34.5 21.5s23.166 15.5 32.499 15.5c5.33301 0 10.166 -2.66699 14.499 -8s7.5 -13.333 9.5 -24c0.666992 -8 5.33398 -12.333 14.001 -13l7 5l18 16c14.667 14.667 30.667 22 48 22c18 0 31 -4 39 -12c5.33301 -6.66699 8 -15.667 8 -27z" />
    <glyph glyph-name="s" unicode="s" horiz-adv-x="284" 
d="M163 317c28 -16 49.332 -33.667 63.999 -53c28 -35.333 42 -77.666 42 -126.999c0 -46.667 -15.333 -83.334 -46 -110.001c-24.667 -20.667 -53.334 -31 -86.001 -31c-15.333 0 -28.666 3 -39.999 9l-15 5l-9 -4c-6 -6 -11.333 -9 -16 -9c-6 0 -12 3 -18 9
c-8 8 -14.333 21.667 -19 41l-7 37l-5 43l3 18c2 6 6 9 12 9c14.667 0 28.334 -13.667 41.001 -41c8 -18 15.833 -30.667 23.5 -38s17.167 -12 28.5 -14c12 0 22.333 3.33301 31 10c12.667 10.667 19 26 19 46c0 26 -9 50 -27 72l-42 38l-53 48
c-22.667 28.667 -34 61.667 -34 99c0 30 7.66699 55.667 23 77c18 26 44.667 39 80 39c12.667 0 22 -1.66699 28 -5l17 -5l13 5l13 5c8 0 14.333 -4.33301 19 -13l13 -37l9 -28l3 -13l2 -19c0 -18 -5.33301 -27 -16 -27c-6 0 -19 11 -39 33l-29 30c-8 6 -16.333 9 -25 9
c-15.333 0 -23 -10.667 -23 -32c0 -14.667 5 -28 15 -40l16 -15z" />
    <glyph glyph-name="t" unicode="t" horiz-adv-x="240" 
d="M147 411l-0.000976562 -281c0 -17.333 3 -31 9 -41c6 -8 19.333 -12 40 -12c9.33301 0 16.833 -1 22.5 -3s8.83398 -7.33301 9.50098 -16c0 -20 -11.333 -36.333 -34 -49c-16 -8 -33.333 -12 -52 -12c-22.667 0 -43 5.66699 -61 17c-24 14 -36 34.333 -36 61v336
c0 10.667 -0.666992 16.667 -2 18l-10 4h-20c-4 4.66699 -6.33301 8.66699 -7 12v25c0 7.33301 2.33301 12 7 14h20c8 0 15.5 6.83301 22.5 20.5s21.833 51.5 44.5 113.5c3.33301 9.33301 7 15.833 11 19.5s9 5.5 15 5.5c7.33301 0 12.333 -2.66699 15 -8l6 -26v-102
c0 -13.333 4.66699 -21 14 -23h38h6c4 0 6 -4.33301 6 -13v-25c0 -6.66699 -2 -11 -6 -13h-44c-6 0 -10 -1.33301 -12 -4z" />
    <glyph glyph-name="u" unicode="u" horiz-adv-x="352" 
d="M297 33c-9.33301 -4 -21.666 -11.999 -36.999 -23.999l-13 -8c-6.66699 -3.33301 -12.667 -5 -18 -5c-3.33301 0 -8 2 -14 6l-7 15c0 3.33301 -1.66699 6 -5 8l-5 -4c-14.667 -16.667 -38 -25 -70 -25c-28.667 0 -52 10 -70 30c-16 20 -24 49 -24 87v239
c0 18 -4 31 -12 39s-12.667 17.333 -14 28c0 11.333 5 20 15 26l22 9c10 4 22 12 36 24l15 9l17 4c16 0 24 -14.333 24 -43v-287c0 -28 2.16699 -47 6.5 -57s11.5 -15 21.5 -15c6.66699 0 15 6 25 18s15 26 15 42v203c0 18 -4 31 -12 39s-13 17.333 -15 28
c0 10 4.33301 18.333 13 25l21 9c13.333 5.33301 26.666 13.666 39.999 24.999c8.66699 6.66699 19 11 31 13c16 0 24 -14.333 24 -43v-313c0 -19.333 4 -32.833 12 -40.5s13 -16.5 15 -26.5c0 -10 -4.33301 -18.333 -13 -25z" />
    <glyph glyph-name="v" unicode="v" horiz-adv-x="310" 
d="M31 487c-6 0 -12.667 -2.00098 -20 -6.00098c-4 -4 -6 -8 -6 -12c0 -6.66699 2 -13 6 -19c10.667 -12 17 -21 19 -27l82 -381l7 -32c2 -6.66699 9.33301 -10 22 -10h39c10 0 17 3.66699 21 11l8 26l61 383c2 12.667 6.66699 21.834 14 27.501s11 12.834 11 21.501
c0 4 -2.16699 8 -6.5 12s-10.833 6 -19.5 6h-67c-10 0 -16.667 -1.66699 -20 -5l-6 -13c0 -8 3.83301 -16 11.5 -24s11.5 -16.667 11.5 -26l-23 -144c-2 -13.333 -5 -21 -9 -23l-4 7l-5 16l-32 144c0 5.33301 5 14.666 15 27.999c6 6 9 13.333 9 22c0 12 -8.66699 18 -26 18
h-93z" />
    <glyph glyph-name="w" unicode="w" horiz-adv-x="508" 
d="M33 487c-6 0 -12.667 -2.00195 -20 -6.00195c-4 -4 -6 -8 -6 -12c0 -8.66699 3.66699 -17 11 -25c6 -5.33301 10.667 -12.333 14 -21l95 -381l7 -26c4 -10 11.333 -15.333 22 -16h30c12.667 0 22 11 28 33l35 195c2 9.33301 5 15 9 17c4 0 7 -5.66699 9 -17l40 -199
c2 -12.667 4 -20.167 6 -22.5s9 -4.5 21 -6.5h29c7.33301 0 12.833 2 16.5 6s7.5 14.333 11.5 31l69 379c2 10.667 6.83301 20.334 14.5 29.001s11.5 16.667 11.5 24c0 4 -2.16699 8 -6.5 12s-10.833 6 -19.5 6h-68c-6 0 -12.667 -2 -20 -6c-4 -4 -6 -8 -6 -12
c0 -7.33301 4.66699 -16 14 -26c10 -8 14 -18.333 12 -31l-22 -125c-4 -19.333 -8.33301 -30 -13 -32c-4 0 -7.33301 8.33301 -10 25l-35 174c-2 12 -4.66699 20.333 -8 25s-10 7.33398 -20 8.00098h-36c-7.33301 0 -12.5 -1.66699 -15.5 -5s-7.16699 -13 -12.5 -29
l-31 -173c-2 -16 -5 -24 -9 -24s-8.33301 10.333 -13 31l-31 121c-2 11.333 2 22.833 12 34.5s15 20.5 15 26.5c0 4 -2.16699 8 -6.5 12s-10.833 6 -19.5 6h-104z" />
    <glyph glyph-name="x" unicode="x" horiz-adv-x="333" 
d="M188 67l-29.002 70.9912c-2 6 -4.66699 9.33301 -8 10l-7 -10l-24 -71c-2 -8 1 -16.333 9 -25c9.33301 -8 14 -16.333 14 -25c0 -5.33301 -2.66699 -9.66602 -8 -12.999l-19 -4h-82c-17.333 0 -26 5.66699 -26 17c0 6.66699 4.83301 13.667 14.5 21s16.5 15.333 20.5 24
l54 165c6 16 8.33301 27.333 7 34l-68 168c-2 2 -3.33301 3.66699 -4 5c-3.33301 4 -7.66602 7.66699 -12.999 11c-10.667 8.66699 -16 17 -16 25c0 4 2 8 6 12s10.667 6 20 6h97c6 0 11.333 -1.66699 16 -5s8 -7.66602 10 -12.999c0 -8 -4.16699 -16.167 -12.5 -24.5
s-10.833 -16.5 -7.5 -24.5l23 -57c2 -5.33301 5 -9 9 -11l7 11l19 58c2 8 -1.16699 16 -9.5 24s-12.5 16.333 -12.5 25c0 4 2 8 6 12s10.667 6 20 6h82c8.66699 0 14.834 -1.66699 18.501 -5s6.5 -7.66602 8.5 -12.999c0 -5.33301 -5 -11.666 -15 -18.999
s-16.667 -15.666 -20 -24.999l-55 -165l-2 -13c0 -6 1.66699 -13.333 5 -22l68 -168c2 -1.33301 3.33301 -2.66602 4 -3.99902c4.66699 -5.33301 9 -9.66602 13 -12.999c10.667 -7.33301 16 -15.666 16 -24.999c0 -5.33301 -2.66699 -9.66602 -8 -12.999l-18 -4h-97
c-17.333 0 -26 5.66699 -26 17c0 7.33301 3.83301 15 11.5 23s10.5 17 8.5 27z" />
    <glyph glyph-name="y" unicode="y" horiz-adv-x="310" 
d="M120 487c8 0 14.332 -1.83496 18.999 -5.50195s7 -7.83398 7 -12.501c0 -6 -2.5 -12 -7.5 -18s-7.16699 -13.667 -6.5 -23l30 -146c2 -8 4.66699 -12 8 -12l4 4l4 11l26 140c0 6 -3.33301 12.333 -10 19s-10.667 15 -12 25l2 8c4.66699 6.66699 13 10 25 10h62
c6 0 11.333 -1.66699 16 -5s8 -7.66602 10 -12.999c0 -6 -3.83301 -12.833 -11.5 -20.5s-13.5 -17.167 -17.5 -28.5l-89 -463c-8 -41.333 -19.667 -69.666 -35 -84.999c-14 -15.333 -37 -23 -69 -23c-20 0 -36.667 8.66699 -50 26c-12 17.333 -18 42.333 -18 75l3 25
c2 6 7.66699 9 17 9c7.33301 0 14.333 -4.33301 21 -13c12.667 -17.333 23.334 -27 32.001 -29c11.333 0 21 6 29 18c3.33301 5.33301 6 11.833 8 19.5s3 16.5 3 26.5c0 8.66699 -1.33301 19.334 -4 32.001l-5 27l-77 363c-2 6 -7 12 -15 18s-12 13.667 -12 23c0 4 2 8 6 12
s10.667 6 20 6h87z" />
    <glyph glyph-name="z" unicode="z" horiz-adv-x="307" 
d="M172 0l-137.001 0.000976562c-18 0 -27 8.66699 -27 26c0 6 2 15.667 6 29l8 24l133 303c2.66699 5.33301 5.33398 13.333 8.00098 24c0 10 -4 15 -12 15h-11c-12.667 0 -23.667 -4.66699 -33 -14c-4.66699 -4.66699 -10 -13 -16 -25c-10 -27.333 -23.667 -41 -41 -41
c-5.33301 0 -9.33301 2.66699 -12 8l-3 20v11l4 23l10 43c3.33301 17.333 7 29.666 11 36.999s10.667 11 20 11l22 -4l37 -3h123c18 0 27 -8.66699 27 -26c0 -8 -2 -18 -6 -30l-8 -23l-133 -303l-7 -26c0 -8 3.66699 -12.333 11 -13h25c12 0 23.667 6.66699 35 20l17 31
c10 27.333 23.667 41 41 41c4 0 7.66699 -2.66699 11 -8l4 -19l-3 -31c0 -10 -0.666992 -16.667 -2 -20l-7 -29c-3.33301 -16 -7.83301 -29.167 -13.5 -39.5s-13.167 -16.5 -22.5 -18.5l-26 5z" />
    <glyph glyph-name="asciitilde" unicode="~" horiz-adv-x="322" 
d="M206 578c-14 0 -29.6641 2.99902 -46.9971 8.99902c-34 14 -55 21 -63 21c-12 0 -23.167 -3.16699 -33.5 -9.5s-19.833 -10.5 -28.5 -12.5c-8.66699 0 -13.834 0.833008 -15.501 2.5s-2.5 6.16699 -2.5 13.5c0 8.66699 3.33301 20.667 10 36l17 35
c7.33301 14 15.166 24.333 23.499 31s19.5 10 33.5 10c16 0 31 -3 45 -9c32 -14 52.333 -21 61 -21c11.333 0 26.666 6.66699 45.999 20c7.33301 4.66699 15.333 8 24 10c9.33301 0 14 -8 14 -24c0 -10.667 -2.33301 -22 -7 -34c-2 -6.66699 -4.33301 -12.667 -7 -18
s-6.66699 -12.333 -12 -21c-8 -13.333 -16.167 -23.166 -24.5 -29.499s-19.5 -9.5 -33.5 -9.5z" />
    <glyph glyph-name="nonbreakingspace" unicode="&#xa0;" horiz-adv-x="500" 
 />
    <glyph glyph-name="guillemotleft" unicode="&#xab;" 
d="M146 154c-10.667 0 -19.667 3.66602 -27 10.999l-97 119l-7 16l-2 21c0 10.667 0.666992 17.334 2 20.001l7 17l97 119l13 9l14 2c9.33301 0 14 -6.33301 14 -19l-3 -13l-5 -14l-39 -98c-4 -10 -6 -17.667 -6 -23l3 -12l3 -11l39 -98c2 -13.333 4.66699 -22.333 8 -27
c0 -12 -4.66699 -18.333 -14 -19zM268 153.999l-15 1l-11 10l-97 119l-7 13c-2 6 -3 14 -3 24c0 14 3.33301 26.333 10 37l97 119c6 7.33301 14.667 11 26 11c9.33301 0 14 -6.33301 14 -19l-3 -13l-4 -14l-39 -98l-7 -23l2 -10l5 -13l39 -98l4 -14l3 -13
c0 -12 -4.66699 -18.333 -14 -19z" />
    <glyph glyph-name="guillemotright" unicode="&#xbb;" 
d="M152 154l14 1.00098c3.33301 1.33301 7.33301 4.66602 12 9.99902l97 119l6 13l4 24c0 14 -3.33301 26.333 -10 37l-97 119c-6 7.33301 -14.667 11 -26 11c-9.33301 0 -14 -6.33301 -14 -19l3 -13l5 -14l38 -98l7 -23l-2 -10l-5 -13l-38 -98
c-2 -13.333 -4.66699 -22.333 -8 -27c0 -12 4.66699 -18.333 14 -19zM30 154.001l14 1.00098c3.33301 1.33301 7.33301 4.66602 12 9.99902l97 119l6 13l4 24c0 14 -3.33301 26.333 -10 37l-97 119c-6 7.33301 -14.667 11 -26 11c-9.33301 0 -14 -6.33301 -14 -19l3 -14
l4 -13l39 -98l7 -23l-2 -10l-5 -13l-39 -98l-5 -17l-2 -10c0 -12 4.66699 -18.333 14 -19z" />
    <glyph glyph-name="Agrave" unicode="&#xc0;" horiz-adv-x="426" 
d="M126 0l-84.001 -0.00390625c-9.33301 0 -16 1.83301 -20 5.5s-6 7.5 -6 11.5c0 8 3.33301 15.333 10 22s11.667 15.334 15 26.001l100 605l5 32c2 11.333 10.333 17 25 17h50c8 0 14.167 -3.16699 18.5 -9.5s8.5 -19.5 12.5 -39.5l117 -605c2 -10 6.66699 -18.667 14 -26
c7.33301 -6 11 -13.333 11 -22c0 -5.33301 -2.66699 -9.66602 -8 -12.999l-18 -4h-116c-17.333 0 -26 5.66699 -26 17c0 6.66699 3.83301 14.167 11.5 22.5s12.167 17.833 13.5 28.5l-4 26c-2 12.667 -4.66699 21 -8 25s-9.66602 6 -18.999 6h-65
c-12 0 -19.833 -5.66699 -23.5 -17s-5.5 -23.666 -5.5 -36.999c0 -8 2.66699 -15.667 8 -23c12 -14 18 -24.333 18 -31c0 -5.33301 -2.66699 -9.66602 -8 -12.999zM213.999 262.996l-18 97c-4 17.333 -8.33301 27 -13 29c-4 0 -8 -9.66699 -12 -29l-17 -96l-4 -38
c0 -16.667 7.66699 -25 23 -25h24c14 0 21 9.33301 21 28v20z" />
    <glyph glyph-name="Agrave" unicode="&#x410;" horiz-adv-x="426" 
d="M126 0l-84.001 -0.00390625c-9.33301 0 -16 1.83301 -20 5.5s-6 7.5 -6 11.5c0 8 3.33301 15.333 10 22s11.667 15.334 15 26.001l100 605l5 32c2 11.333 10.333 17 25 17h50c8 0 14.167 -3.16699 18.5 -9.5s8.5 -19.5 12.5 -39.5l117 -605c2 -10 6.66699 -18.667 14 -26
c7.33301 -6 11 -13.333 11 -22c0 -5.33301 -2.66699 -9.66602 -8 -12.999l-18 -4h-116c-17.333 0 -26 5.66699 -26 17c0 6.66699 3.83301 14.167 11.5 22.5s12.167 17.833 13.5 28.5l-4 26c-2 12.667 -4.66699 21 -8 25s-9.66602 6 -18.999 6h-65
c-12 0 -19.833 -5.66699 -23.5 -17s-5.5 -23.666 -5.5 -36.999c0 -8 2.66699 -15.667 8 -23c12 -14 18 -24.333 18 -31c0 -5.33301 -2.66699 -9.66602 -8 -12.999zM213.999 262.996l-18 97c-4 17.333 -8.33301 27 -13 29c-4 0 -8 -9.66699 -12 -29l-17 -96l-4 -38
c0 -16.667 7.66699 -25 23 -25h24c14 0 21 9.33301 21 28v20z" />
    <glyph glyph-name="Aacute" unicode="&#xc1;" horiz-adv-x="395" 
d="M150 515c0 -27.333 2.33301 -44.4971 7 -51.4971s12.334 -10.5 23.001 -10.5c42 0 84.667 -26 128 -78c21.333 -26.667 37.833 -55.834 49.5 -87.501s17.5 -65.167 17.5 -100.5c0 -73.333 -19.667 -124.333 -59 -153c-32.667 -22.667 -81.667 -34 -147 -34h-135
c-17.333 0 -26 5.66699 -26 17c0 7.33301 3.83301 15.166 11.5 23.499s12.5 18.5 14.5 30.5v577c0 10.667 -5.66699 21.667 -17 33c-6 6 -9 12.667 -9 20c0 4 2 8 6 12s10.667 6 20 6h192c10.667 0 19.667 1.33301 27 4l19 5c8 0 13.833 -2 17.5 -6
s8.16699 -14.333 13.5 -31c16 -76 24 -131 24 -165c0 -6.66699 -1.66699 -12.5 -5 -17.5s-8.33301 -7.83301 -15 -8.5c-10 0 -19.333 4.66699 -28 14c-4 4 -16 23 -36 57l-16 28c-8 15.333 -15.333 26.666 -22 33.999c-13.333 17.333 -25.333 26 -36 26
c-6.66699 0 -11.334 -3.66699 -14.001 -11l-4 -23l-1 -39v-71zM241 202.003c0 48.667 -8 92.002 -24 130.002c-13.333 30.667 -25.666 46 -36.999 46c-8.66699 0 -16.334 -4.33301 -23.001 -13c-4.66699 -10.667 -7 -30.334 -7 -59.001v-170c0 -29.333 2 -48.833 6 -58.5
s12 -14.5 24 -14.5c8 0 19.667 10 35 30c17.333 27.333 26 63.666 26 108.999z" />
    <glyph glyph-name="Aacute" unicode="&#x411;" horiz-adv-x="395" 
d="M150 515c0 -27.333 2.33301 -44.4971 7 -51.4971s12.334 -10.5 23.001 -10.5c42 0 84.667 -26 128 -78c21.333 -26.667 37.833 -55.834 49.5 -87.501s17.5 -65.167 17.5 -100.5c0 -73.333 -19.667 -124.333 -59 -153c-32.667 -22.667 -81.667 -34 -147 -34h-135
c-17.333 0 -26 5.66699 -26 17c0 7.33301 3.83301 15.166 11.5 23.499s12.5 18.5 14.5 30.5v577c0 10.667 -5.66699 21.667 -17 33c-6 6 -9 12.667 -9 20c0 4 2 8 6 12s10.667 6 20 6h192c10.667 0 19.667 1.33301 27 4l19 5c8 0 13.833 -2 17.5 -6
s8.16699 -14.333 13.5 -31c16 -76 24 -131 24 -165c0 -6.66699 -1.66699 -12.5 -5 -17.5s-8.33301 -7.83301 -15 -8.5c-10 0 -19.333 4.66699 -28 14c-4 4 -16 23 -36 57l-16 28c-8 15.333 -15.333 26.666 -22 33.999c-13.333 17.333 -25.333 26 -36 26
c-6.66699 0 -11.334 -3.66699 -14.001 -11l-4 -23l-1 -39v-71zM241 202.003c0 48.667 -8 92.002 -24 130.002c-13.333 30.667 -25.666 46 -36.999 46c-8.66699 0 -16.334 -4.33301 -23.001 -13c-4.66699 -10.667 -7 -30.334 -7 -59.001v-170c0 -29.333 2 -48.833 6 -58.5
s12 -14.5 24 -14.5c8 0 19.667 10 35 30c17.333 27.333 26 63.666 26 108.999z" />
    <glyph glyph-name="Acircumflex" unicode="&#xc2;" horiz-adv-x="413" 
d="M40 71l0.000976562 576.999c0 10.667 -5.66699 21.667 -17 33c-6 6 -9 12.667 -9 20c0 12 8.66699 18 26 18h110c54 0 98.333 -16.333 133 -49s52 -74.334 52 -125.001c0 -33.333 -6.66699 -59 -20 -77l-40 -39l-5 -13c0 -4 2.33301 -8.33301 7 -13
c34 -29.333 59.333 -58 76 -86l13 -27c2.66699 -7.33301 5.66699 -16.166 9 -26.499s5.66602 -19.666 6.99902 -27.999s2 -18.166 2 -29.499c0 -72 -22.333 -126 -67 -162c-36.667 -29.333 -84 -44 -142 -44h-135c-9.33301 0 -16 1.83301 -20 5.5s-6 7.5 -6 11.5
c0 7.33301 3.83301 15.166 11.5 23.499s12.5 18.5 14.5 30.5zM186.001 655.999c-8.66699 0 -16.334 -4.33398 -23.001 -13.001c-4.66699 -10.667 -7 -30.667 -7 -60v-44c0 -30 2.33301 -49.5 7 -58.5s12.334 -13.5 23.001 -13.5c10 0 18.667 6 26 18
c4.66699 16.667 7 36.334 7 59.001c0 26.667 -3 51 -9 73c-8 26 -16 39 -24 39zM186.001 377.998c-8.66699 0 -16.333 -4.33203 -23 -12.999c-4.66699 -10.667 -7 -30.334 -7 -59.001v-170c0 -29.333 2 -48.833 6 -58.5s12 -14.5 24 -14.5c16 0 31 16 45 48
c10 24 15 54.333 15 91c0 48.667 -8 92 -24 130c-12 28.667 -24 44 -36 46z" />
    <glyph glyph-name="Acircumflex" unicode="&#x412;" horiz-adv-x="413" 
d="M40 71l0.000976562 576.999c0 10.667 -5.66699 21.667 -17 33c-6 6 -9 12.667 -9 20c0 12 8.66699 18 26 18h110c54 0 98.333 -16.333 133 -49s52 -74.334 52 -125.001c0 -33.333 -6.66699 -59 -20 -77l-40 -39l-5 -13c0 -4 2.33301 -8.33301 7 -13
c34 -29.333 59.333 -58 76 -86l13 -27c2.66699 -7.33301 5.66699 -16.166 9 -26.499s5.66602 -19.666 6.99902 -27.999s2 -18.166 2 -29.499c0 -72 -22.333 -126 -67 -162c-36.667 -29.333 -84 -44 -142 -44h-135c-9.33301 0 -16 1.83301 -20 5.5s-6 7.5 -6 11.5
c0 7.33301 3.83301 15.166 11.5 23.499s12.5 18.5 14.5 30.5zM186.001 655.999c-8.66699 0 -16.334 -4.33398 -23.001 -13.001c-4.66699 -10.667 -7 -30.667 -7 -60v-44c0 -30 2.33301 -49.5 7 -58.5s12.334 -13.5 23.001 -13.5c10 0 18.667 6 26 18
c4.66699 16.667 7 36.334 7 59.001c0 26.667 -3 51 -9 73c-8 26 -16 39 -24 39zM186.001 377.998c-8.66699 0 -16.333 -4.33203 -23 -12.999c-4.66699 -10.667 -7 -30.334 -7 -59.001v-170c0 -29.333 2 -48.833 6 -58.5s12 -14.5 24 -14.5c16 0 31 16 45 48
c10 24 15 54.333 15 91c0 48.667 -8 92 -24 130c-12 28.667 -24 44 -36 46z" />
    <glyph glyph-name="Atilde" unicode="&#xc3;" horiz-adv-x="373" 
d="M37 719h205c10.667 0 19.667 1.33301 27 4l18 5c6 0 11.667 -2 17 -6c4 -2 8.33301 -11.333 13 -28l23 -90c6 -26 9 -44.333 9 -55c0 -17.333 -6.66699 -26 -20 -26c-10 0 -21 8 -33 24l-30 48c-18 22.667 -33.167 39 -45.5 49s-24.5 15 -36.5 15
c-11.333 0 -20 -6.33301 -26 -19c-3.33301 -14.667 -5 -32.667 -5 -54v-32v-483c0 -8 2.66699 -15.667 8 -23c12 -14 18 -24.333 18 -31c0 -5.33301 -2.66699 -9.66602 -8 -12.999l-18 -4h-116c-9.33301 0 -16 1.83301 -20 5.5s-6 7.5 -6 11.5
c0 7.33301 3.83301 15.166 11.5 23.499s12.5 18.5 14.5 30.5v577c0 10.667 -5.66699 21.667 -17 33c-6 6 -9 12.667 -9 20c0 12 8.66699 18 26 18z" />
    <glyph glyph-name="Atilde" unicode="&#x413;" horiz-adv-x="373" 
d="M37 719h205c10.667 0 19.667 1.33301 27 4l18 5c6 0 11.667 -2 17 -6c4 -2 8.33301 -11.333 13 -28l23 -90c6 -26 9 -44.333 9 -55c0 -17.333 -6.66699 -26 -20 -26c-10 0 -21 8 -33 24l-30 48c-18 22.667 -33.167 39 -45.5 49s-24.5 15 -36.5 15
c-11.333 0 -20 -6.33301 -26 -19c-3.33301 -14.667 -5 -32.667 -5 -54v-32v-483c0 -8 2.66699 -15.667 8 -23c12 -14 18 -24.333 18 -31c0 -5.33301 -2.66699 -9.66602 -8 -12.999l-18 -4h-116c-9.33301 0 -16 1.83301 -20 5.5s-6 7.5 -6 11.5
c0 7.33301 3.83301 15.166 11.5 23.499s12.5 18.5 14.5 30.5v577c0 10.667 -5.66699 21.667 -17 33c-6 6 -9 12.667 -9 20c0 12 8.66699 18 26 18z" />
    <glyph glyph-name="Adieresis" unicode="&#xc4;" horiz-adv-x="439" 
d="M178 719c-10 0 -17.001 -4 -21.001 -12l-8 -25l-100 -597l-5 -14c-4 -8 -9.66699 -12 -17 -12c-10 0 -15.333 -4.66699 -16 -14l2 -16l9 -32l11 -35c9.33301 -36 15.833 -57.667 19.5 -65s9.5 -11 17.5 -11c12 0 19.333 6.33301 22 19l7 37l6 38
c2 13.333 9.66699 20 23 20h166c12 0 19.333 -7.33301 22 -22l6 -34l6 -35c4 -15.333 12 -23 24 -23c6.66699 0 12.334 3.66699 17.001 11l20 65l14 48l8 35c0 7.33301 -5.33301 12 -16 14c-10 0 -17.333 8.66699 -22 26l-115 592l-7 26c-4 10 -11.333 15.333 -22 16h-51z
M198.999 396l57 -292l3 -17l2 -12c0 -8 -4.33301 -12 -13 -12h-108c-8 0 -12.333 4.66699 -13 14l1 14l3 17l48 288c2 18 5.33301 27.333 10 28l3 -6z" />
    <glyph glyph-name="Adieresis" unicode="&#x414;" horiz-adv-x="439" 
d="M178 719c-10 0 -17.001 -4 -21.001 -12l-8 -25l-100 -597l-5 -14c-4 -8 -9.66699 -12 -17 -12c-10 0 -15.333 -4.66699 -16 -14l2 -16l9 -32l11 -35c9.33301 -36 15.833 -57.667 19.5 -65s9.5 -11 17.5 -11c12 0 19.333 6.33301 22 19l7 37l6 38
c2 13.333 9.66699 20 23 20h166c12 0 19.333 -7.33301 22 -22l6 -34l6 -35c4 -15.333 12 -23 24 -23c6.66699 0 12.334 3.66699 17.001 11l20 65l14 48l8 35c0 7.33301 -5.33301 12 -16 14c-10 0 -17.333 8.66699 -22 26l-115 592l-7 26c-4 10 -11.333 15.333 -22 16h-51z
M198.999 396l57 -292l3 -17l2 -12c0 -8 -4.33301 -12 -13 -12h-108c-8 0 -12.333 4.66699 -13 14l1 14l3 17l48 288c2 18 5.33301 27.333 10 28l3 -6z" />
    <glyph glyph-name="Aring" unicode="&#xc5;" horiz-adv-x="397" 
d="M244 0h-202.999c-9.33301 -0 -16 1.83301 -20 5.5s-6 7.5 -6 11.5c0 7.33301 3.83301 15.166 11.5 23.499s12.5 18.5 14.5 30.5v577c0 10.667 -5.66699 21.667 -17 33c-6 6 -9 12.667 -9 20c0 12 8.66699 18 26 18h204c10.667 0 20 1.33301 28 4l18 5
c6 0 11.667 -2 17 -6c4 -2 8.33301 -11.333 13 -28l23 -90c6 -26 9 -44.333 9 -55c0 -9.33301 -2 -16 -6 -20l-14 -6c-10 0 -21 8 -33 24l-30 48c-18 22.667 -33.167 39 -45.5 49s-24.5 15 -36.5 15c-11.333 0 -20 -6.33301 -26 -19c-3.33301 -14.667 -5 -32.667 -5 -54v-65
c0 -29.333 2 -48.833 6 -58.5s12 -14.5 24 -14.5c6 0 16 10 30 30c6 10 13.333 15 22 15c6 0 12 -3 18 -9s12.667 -17.333 20 -34l25 -64c12 -32 18.667 -54.333 20 -67c0 -9.33301 -2 -16 -6 -20l-14 -6c-8 0 -17.333 5.66699 -28 17l-31 36l-25 23
c-10 8 -20.333 12 -31 12c-8.66699 0 -16.334 -4.33301 -23.001 -13c-4.66699 -10.667 -7 -30.667 -7 -60v-168c0 -29.333 2 -48.833 6 -58.5s12 -14.5 24 -14.5c15.333 0 30 3.83301 44 11.5s31.333 23.834 52 48.501l21 34c14 25.333 28 38 42 38s21 -8.66699 21 -26
c0 -16.667 -4.33301 -42 -13 -76l-19 -67l-9 -29c-4 -10.667 -11.333 -16 -22 -16c-3.33301 0 -6.5 0.333008 -9.5 1s-8.16699 3 -15.5 7z" />
    <glyph glyph-name="Aring" unicode="&#x415;" horiz-adv-x="397" 
d="M244 0h-202.999c-9.33301 -0 -16 1.83301 -20 5.5s-6 7.5 -6 11.5c0 7.33301 3.83301 15.166 11.5 23.499s12.5 18.5 14.5 30.5v577c0 10.667 -5.66699 21.667 -17 33c-6 6 -9 12.667 -9 20c0 12 8.66699 18 26 18h204c10.667 0 20 1.33301 28 4l18 5
c6 0 11.667 -2 17 -6c4 -2 8.33301 -11.333 13 -28l23 -90c6 -26 9 -44.333 9 -55c0 -9.33301 -2 -16 -6 -20l-14 -6c-10 0 -21 8 -33 24l-30 48c-18 22.667 -33.167 39 -45.5 49s-24.5 15 -36.5 15c-11.333 0 -20 -6.33301 -26 -19c-3.33301 -14.667 -5 -32.667 -5 -54v-65
c0 -29.333 2 -48.833 6 -58.5s12 -14.5 24 -14.5c6 0 16 10 30 30c6 10 13.333 15 22 15c6 0 12 -3 18 -9s12.667 -17.333 20 -34l25 -64c12 -32 18.667 -54.333 20 -67c0 -9.33301 -2 -16 -6 -20l-14 -6c-8 0 -17.333 5.66699 -28 17l-31 36l-25 23
c-10 8 -20.333 12 -31 12c-8.66699 0 -16.334 -4.33301 -23.001 -13c-4.66699 -10.667 -7 -30.667 -7 -60v-168c0 -29.333 2 -48.833 6 -58.5s12 -14.5 24 -14.5c15.333 0 30 3.83301 44 11.5s31.333 23.834 52 48.501l21 34c14 25.333 28 38 42 38s21 -8.66699 21 -26
c0 -16.667 -4.33301 -42 -13 -76l-19 -67l-9 -29c-4 -10.667 -11.333 -16 -22 -16c-3.33301 0 -6.5 0.333008 -9.5 1s-8.16699 3 -15.5 7z" />
    <glyph glyph-name="AE" unicode="&#xc6;" horiz-adv-x="645" 
d="M253 719l117.001 -0.00390625c6 0 11.333 -1.66699 16 -5s8 -7.66602 10 -12.999c0 -8 -3.83301 -15.833 -11.5 -23.5s-12.5 -17.5 -14.5 -29.5v-97c0 -9.33301 2 -15 6 -17l6 5l62 89c4 5.33301 6 15 6 29c0 8 -3 15.667 -9 23c-3.33301 4 -6 11 -8 21
c0 12 8.66699 18 26 18h87c6 0 11.333 -1.66699 16 -5s8 -7.66602 10 -12.999c0 -6.66699 -2.33301 -12.667 -7 -18l-12 -14l-79 -111l-3 -18l3 -24l108 -458l13 -17c7.33301 -8.66699 11 -16.667 11 -24c0 -5.33301 -2.66699 -9.66602 -8 -12.999l-18 -4h-121
c-9.33301 0 -16 1.83301 -20 5.5s-6 7.5 -6 11.5c0 7.33301 3.83301 15.166 11.5 23.499s12.5 18.5 14.5 30.5l-2 19l-72 305c-2 10 -5 15 -9 15s-6 -5 -6 -15v-324c0 -8 2.66699 -15.667 8 -23c12 -14 18 -24.333 18 -31c0 -5.33301 -2.66699 -9.66602 -8 -12.999l-18 -4
h-117c-17.333 0 -26 5.66699 -26 17c0 7.33301 3.83301 15.166 11.5 23.499s12.5 18.5 14.5 30.5v323c0 10 -2 15 -6 15s-7 -5 -9 -15l-72 -305l-2 -19c0 -8 2.66699 -15.667 8 -23c12 -14 18 -24.333 18 -31c0 -5.33301 -2.66699 -9.66602 -8 -12.999l-18 -4h-121
c-10.667 0 -17.834 1.83301 -21.501 5.5s-5.5 7.5 -5.5 11.5c0 6 2.33301 12.333 7 19l18 22l107 458l4 25c0 6 -1.33301 11.667 -4 17l-78 111l-13 14c-2.66699 3.33301 -5 9.33301 -7 18l2 8c4.66699 6.66699 13 10 25 10h87c6 0 11.333 -1.66699 16 -5
s8 -7.66602 10 -12.999c0 -6.66699 -3.66699 -14.667 -11 -24c-4 -5.33301 -6 -12 -6 -20c0 -14 1.66699 -23.667 5 -29l63 -89l6 -5c4 0 6 5.66699 6 17v98c0 10.667 -5.66699 21.667 -17 33c-6 6 -9 12.667 -9 20c0 4 2 8 6 12s10.667 6 20 6z" />
    <glyph glyph-name="AE" unicode="&#x416;" horiz-adv-x="645" 
d="M253 719l117.001 -0.00390625c6 0 11.333 -1.66699 16 -5s8 -7.66602 10 -12.999c0 -8 -3.83301 -15.833 -11.5 -23.5s-12.5 -17.5 -14.5 -29.5v-97c0 -9.33301 2 -15 6 -17l6 5l62 89c4 5.33301 6 15 6 29c0 8 -3 15.667 -9 23c-3.33301 4 -6 11 -8 21
c0 12 8.66699 18 26 18h87c6 0 11.333 -1.66699 16 -5s8 -7.66602 10 -12.999c0 -6.66699 -2.33301 -12.667 -7 -18l-12 -14l-79 -111l-3 -18l3 -24l108 -458l13 -17c7.33301 -8.66699 11 -16.667 11 -24c0 -5.33301 -2.66699 -9.66602 -8 -12.999l-18 -4h-121
c-9.33301 0 -16 1.83301 -20 5.5s-6 7.5 -6 11.5c0 7.33301 3.83301 15.166 11.5 23.499s12.5 18.5 14.5 30.5l-2 19l-72 305c-2 10 -5 15 -9 15s-6 -5 -6 -15v-324c0 -8 2.66699 -15.667 8 -23c12 -14 18 -24.333 18 -31c0 -5.33301 -2.66699 -9.66602 -8 -12.999l-18 -4
h-117c-17.333 0 -26 5.66699 -26 17c0 7.33301 3.83301 15.166 11.5 23.499s12.5 18.5 14.5 30.5v323c0 10 -2 15 -6 15s-7 -5 -9 -15l-72 -305l-2 -19c0 -8 2.66699 -15.667 8 -23c12 -14 18 -24.333 18 -31c0 -5.33301 -2.66699 -9.66602 -8 -12.999l-18 -4h-121
c-10.667 0 -17.834 1.83301 -21.501 5.5s-5.5 7.5 -5.5 11.5c0 6 2.33301 12.333 7 19l18 22l107 458l4 25c0 6 -1.33301 11.667 -4 17l-78 111l-13 14c-2.66699 3.33301 -5 9.33301 -7 18l2 8c4.66699 6.66699 13 10 25 10h87c6 0 11.333 -1.66699 16 -5
s8 -7.66602 10 -12.999c0 -6.66699 -3.66699 -14.667 -11 -24c-4 -5.33301 -6 -12 -6 -20c0 -14 1.66699 -23.667 5 -29l63 -89l6 -5c4 0 6 5.66699 6 17v98c0 10.667 -5.66699 21.667 -17 33c-6 6 -9 12.667 -9 20c0 4 2 8 6 12s10.667 6 20 6z" />
    <glyph glyph-name="Ccedilla" unicode="&#xc7;" horiz-adv-x="396" 
d="M81 144c12 -27.333 24.8301 -47.498 38.4971 -60.498s27.167 -19.5 40.5 -19.5c24 0 43.167 10.167 57.5 30.5s21.5 54.166 21.5 101.499c0 44 -8.16699 80 -24.5 108s-39.166 48 -68.499 60c-12.667 4 -21.334 8.33301 -26.001 13c-3.33301 4.66699 -5 15 -5 31
c0 8.66699 2.66699 16 8 22l23 17c28.667 22 49.334 43 62.001 63c8.66699 20.667 13 49.667 13 87c0 18 -4.16699 32.5 -12.5 43.5s-20.166 16.5 -35.499 16.5c-17.333 0 -35 -18 -53 -54l-19 -49c-8 -17.333 -17.333 -26 -28 -26c-6 0 -10.833 2.66699 -14.5 8
s-6.5 14.333 -8.5 27v17l2 20l9 74c5.33301 38 16.333 57 33 57c6.66699 0 12 -1.66699 16 -5l16 -4l26 11l13 4l18 1c44 0 77 -15.167 99 -45.5s33 -70.833 33 -121.5c0 -35.333 -3 -62.333 -9 -81s-16.333 -38.334 -31 -59.001l-8 -18l3 -6l6 -7
c19.333 -14.667 39 -39 59 -73c24.667 -46 37 -92.667 37 -140c0 -56.667 -11 -102 -33 -136c-30.667 -44.667 -82.667 -67 -156 -67c-16.667 0 -28.667 0.5 -36 1.5s-15.333 3.16699 -24 6.5l-25 7c-4 0 -9.66699 -2 -17 -6c-5.33301 -4 -11.666 -7 -18.999 -9
c-8 0 -15.333 4.83301 -22 14.5s-12 23.834 -16 42.501c-10 70 -15 113.667 -15 131c0 19.333 2 33.166 6 41.499s9.33301 13.5 16 15.5c10 0 21 -14.333 33 -43l6 -18z" />
    <glyph glyph-name="Ccedilla" unicode="&#x417;" horiz-adv-x="396" 
d="M81 144c12 -27.333 24.8301 -47.498 38.4971 -60.498s27.167 -19.5 40.5 -19.5c24 0 43.167 10.167 57.5 30.5s21.5 54.166 21.5 101.499c0 44 -8.16699 80 -24.5 108s-39.166 48 -68.499 60c-12.667 4 -21.334 8.33301 -26.001 13c-3.33301 4.66699 -5 15 -5 31
c0 8.66699 2.66699 16 8 22l23 17c28.667 22 49.334 43 62.001 63c8.66699 20.667 13 49.667 13 87c0 18 -4.16699 32.5 -12.5 43.5s-20.166 16.5 -35.499 16.5c-17.333 0 -35 -18 -53 -54l-19 -49c-8 -17.333 -17.333 -26 -28 -26c-6 0 -10.833 2.66699 -14.5 8
s-6.5 14.333 -8.5 27v17l2 20l9 74c5.33301 38 16.333 57 33 57c6.66699 0 12 -1.66699 16 -5l16 -4l26 11l13 4l18 1c44 0 77 -15.167 99 -45.5s33 -70.833 33 -121.5c0 -35.333 -3 -62.333 -9 -81s-16.333 -38.334 -31 -59.001l-8 -18l3 -6l6 -7
c19.333 -14.667 39 -39 59 -73c24.667 -46 37 -92.667 37 -140c0 -56.667 -11 -102 -33 -136c-30.667 -44.667 -82.667 -67 -156 -67c-16.667 0 -28.667 0.5 -36 1.5s-15.333 3.16699 -24 6.5l-25 7c-4 0 -9.66699 -2 -17 -6c-5.33301 -4 -11.666 -7 -18.999 -9
c-8 0 -15.333 4.83301 -22 14.5s-12 23.834 -16 42.501c-10 70 -15 113.667 -15 131c0 19.333 2 33.166 6 41.499s9.33301 13.5 16 15.5c10 0 21 -14.333 33 -43l6 -18z" />
    <glyph glyph-name="Egrave" unicode="&#xc8;" horiz-adv-x="424" 
d="M40 719l116 0.000976562c8 0 14.333 -1.83301 19 -5.5s7 -7.83398 7 -12.501c0 -8 -3.83301 -15.833 -11.5 -23.5s-12.5 -17.5 -14.5 -29.5v-271c0 -24.667 2 -38 6 -40l4 8l7 20l79 332c2 12.667 8 20 18 22h99c6 0 11.333 -1.66699 16 -5s8 -7.66602 10 -12.999
c0 -8 -3.83301 -15.833 -11.5 -23.5s-12.5 -17.5 -14.5 -29.5v-577c0 -8 2.66699 -15.667 8 -23c12 -14 18 -24.333 18 -31c0 -5.33301 -2.66699 -9.66602 -8 -12.999l-18 -4h-117c-17.333 0 -26 5.66699 -26 17c0 7.33301 3.83301 15.166 11.5 23.499s12.5 18.5 14.5 30.5
v270c0 25.333 -1.66699 39 -5 41l-3 -6l-8 -22l-80 -333c-3.33301 -14 -9 -21 -17 -21h-99c-9.33301 0 -16 1.83301 -20 5.5s-6 7.5 -6 11.5c0 7.33301 3.83301 15.166 11.5 23.499s12.5 18.5 14.5 30.5v577c0 10.667 -5.66699 21.667 -17 33c-6 6 -9 12.667 -9 20
c0 12 8.66699 18 26 18z" />
    <glyph glyph-name="Egrave" unicode="&#x418;" horiz-adv-x="424" 
d="M40 719l116 0.000976562c8 0 14.333 -1.83301 19 -5.5s7 -7.83398 7 -12.501c0 -8 -3.83301 -15.833 -11.5 -23.5s-12.5 -17.5 -14.5 -29.5v-271c0 -24.667 2 -38 6 -40l4 8l7 20l79 332c2 12.667 8 20 18 22h99c6 0 11.333 -1.66699 16 -5s8 -7.66602 10 -12.999
c0 -8 -3.83301 -15.833 -11.5 -23.5s-12.5 -17.5 -14.5 -29.5v-577c0 -8 2.66699 -15.667 8 -23c12 -14 18 -24.333 18 -31c0 -5.33301 -2.66699 -9.66602 -8 -12.999l-18 -4h-117c-17.333 0 -26 5.66699 -26 17c0 7.33301 3.83301 15.166 11.5 23.499s12.5 18.5 14.5 30.5
v270c0 25.333 -1.66699 39 -5 41l-3 -6l-8 -22l-80 -333c-3.33301 -14 -9 -21 -17 -21h-99c-9.33301 0 -16 1.83301 -20 5.5s-6 7.5 -6 11.5c0 7.33301 3.83301 15.166 11.5 23.499s12.5 18.5 14.5 30.5v577c0 10.667 -5.66699 21.667 -17 33c-6 6 -9 12.667 -9 20
c0 12 8.66699 18 26 18z" />
    <glyph glyph-name="Eacute" unicode="&#xc9;" horiz-adv-x="424" 
d="M265 764c-14 0 -29.667 2.99902 -47 8.99902c-34 14 -55 21 -63 21c-12 0 -23.167 -3.16699 -33.5 -9.5s-19.833 -10.5 -28.5 -12.5h-10c-4.66699 0 -7 5.66699 -7 17c0 7.33301 3 19 9 35l17 35c7.33301 14 15.166 24.333 23.499 31s19.5 10 33.5 10c16 0 31 -3 45 -9
c32 -14 52.333 -21 61 -21s19 3 31 9c23.333 14 36.666 21 39.999 21c8.66699 0 13 -8 13 -24c0 -9.33301 -2.16699 -20.166 -6.5 -32.499s-10.666 -25.5 -18.999 -39.5s-16.666 -24.167 -24.999 -30.5s-19.5 -9.5 -33.5 -9.5zM40 718.999l116 0.000976562
c8 0 14.333 -1.83301 19 -5.5s7 -7.83398 7 -12.501c0 -8 -3.83301 -15.833 -11.5 -23.5s-12.5 -17.5 -14.5 -29.5v-271c0 -24.667 2 -38 6 -40l4 8l7 20l79 332c2 12.667 8 20 18 22h99c6 0 11.333 -1.66699 16 -5s8 -7.66602 10 -12.999
c0 -8 -3.83301 -15.833 -11.5 -23.5s-12.5 -17.5 -14.5 -29.5v-577c0 -8 2.66699 -15.667 8 -23c12 -14 18 -24.333 18 -31c0 -5.33301 -2.66699 -9.66602 -8 -12.999l-18 -4h-117c-17.333 0 -26 5.66699 -26 17c0 7.33301 3.83301 15.166 11.5 23.499s12.5 18.5 14.5 30.5
v270c0 25.333 -1.66699 39 -5 41l-3 -6l-8 -22l-80 -333c-3.33301 -14 -9 -21 -17 -21h-99c-9.33301 -0 -16 1.83301 -20 5.5s-6 7.5 -6 11.5c0 7.33301 3.83301 15.166 11.5 23.499s12.5 18.5 14.5 30.5v577c0 10.667 -5.66699 21.667 -17 33c-6 6 -9 12.667 -9 20
c0 12 8.66699 18 26 18z" />
    <glyph glyph-name="Eacute" unicode="&#x419;" horiz-adv-x="424" 
d="M265 764c-14 0 -29.667 2.99902 -47 8.99902c-34 14 -55 21 -63 21c-12 0 -23.167 -3.16699 -33.5 -9.5s-19.833 -10.5 -28.5 -12.5h-10c-4.66699 0 -7 5.66699 -7 17c0 7.33301 3 19 9 35l17 35c7.33301 14 15.166 24.333 23.499 31s19.5 10 33.5 10c16 0 31 -3 45 -9
c32 -14 52.333 -21 61 -21s19 3 31 9c23.333 14 36.666 21 39.999 21c8.66699 0 13 -8 13 -24c0 -9.33301 -2.16699 -20.166 -6.5 -32.499s-10.666 -25.5 -18.999 -39.5s-16.666 -24.167 -24.999 -30.5s-19.5 -9.5 -33.5 -9.5zM40 718.999l116 0.000976562
c8 0 14.333 -1.83301 19 -5.5s7 -7.83398 7 -12.501c0 -8 -3.83301 -15.833 -11.5 -23.5s-12.5 -17.5 -14.5 -29.5v-271c0 -24.667 2 -38 6 -40l4 8l7 20l79 332c2 12.667 8 20 18 22h99c6 0 11.333 -1.66699 16 -5s8 -7.66602 10 -12.999
c0 -8 -3.83301 -15.833 -11.5 -23.5s-12.5 -17.5 -14.5 -29.5v-577c0 -8 2.66699 -15.667 8 -23c12 -14 18 -24.333 18 -31c0 -5.33301 -2.66699 -9.66602 -8 -12.999l-18 -4h-117c-17.333 0 -26 5.66699 -26 17c0 7.33301 3.83301 15.166 11.5 23.499s12.5 18.5 14.5 30.5
v270c0 25.333 -1.66699 39 -5 41l-3 -6l-8 -22l-80 -333c-3.33301 -14 -9 -21 -17 -21h-99c-9.33301 -0 -16 1.83301 -20 5.5s-6 7.5 -6 11.5c0 7.33301 3.83301 15.166 11.5 23.499s12.5 18.5 14.5 30.5v577c0 10.667 -5.66699 21.667 -17 33c-6 6 -9 12.667 -9 20
c0 12 8.66699 18 26 18z" />
    <glyph glyph-name="Ecircumflex" unicode="&#xca;" horiz-adv-x="438" 
d="M45 719l116.001 -0.00292969c6 0 11.333 -1.66699 16 -5s8 -7.66602 10 -12.999c0 -8 -3.83301 -15.833 -11.5 -23.5s-12.5 -17.5 -14.5 -29.5v-97c0 -9.33301 2 -15 6 -17l7 5l62 89c4 5.33301 6 15 6 29c0 7.33301 -3 14.333 -9 21s-9 14.334 -9 23.001c0 4 2 8 6 12
s10.667 6 20 6h88c6 0 11.333 -1.66699 16 -5s8 -7.66602 10 -12.999c0 -6.66699 -2.33301 -12.667 -7 -18l-13 -14l-78 -111l-4 -18l4 -24l107 -458c1.33301 -4.66699 5.83301 -10.667 13.5 -18s11.5 -15 11.5 -23c0 -5.33301 -2.66699 -9.66602 -8 -12.999l-18 -4h-122
c-17.333 0 -26 5.66699 -26 17c0 7.33301 3.83301 15.166 11.5 23.499s12.5 18.5 14.5 30.5l-2 19l-71 305c-2 10 -5.33301 15 -10 15c-4 0 -6 -5 -6 -15v-324c0 -8 2.66699 -15.667 8 -23c12 -14 18 -24.333 18 -31c0 -5.33301 -2.66699 -9.66602 -8 -12.999l-18 -4h-116
c-10.667 0 -17.834 1.83301 -21.501 5.5s-5.5 7.5 -5.5 11.5c0 5.33301 6 15.666 18 30.999c6 6 9 13.667 9 23v577c0 8 -6 19 -18 33c-6 6 -9 12.667 -9 20l2 8c4.66699 6.66699 13 10 25 10z" />
    <glyph glyph-name="Ecircumflex" unicode="&#x41a;" horiz-adv-x="438" 
d="M45 719l116.001 -0.00292969c6 0 11.333 -1.66699 16 -5s8 -7.66602 10 -12.999c0 -8 -3.83301 -15.833 -11.5 -23.5s-12.5 -17.5 -14.5 -29.5v-97c0 -9.33301 2 -15 6 -17l7 5l62 89c4 5.33301 6 15 6 29c0 7.33301 -3 14.333 -9 21s-9 14.334 -9 23.001c0 4 2 8 6 12
s10.667 6 20 6h88c6 0 11.333 -1.66699 16 -5s8 -7.66602 10 -12.999c0 -6.66699 -2.33301 -12.667 -7 -18l-13 -14l-78 -111l-4 -18l4 -24l107 -458c1.33301 -4.66699 5.83301 -10.667 13.5 -18s11.5 -15 11.5 -23c0 -5.33301 -2.66699 -9.66602 -8 -12.999l-18 -4h-122
c-17.333 0 -26 5.66699 -26 17c0 7.33301 3.83301 15.166 11.5 23.499s12.5 18.5 14.5 30.5l-2 19l-71 305c-2 10 -5.33301 15 -10 15c-4 0 -6 -5 -6 -15v-324c0 -8 2.66699 -15.667 8 -23c12 -14 18 -24.333 18 -31c0 -5.33301 -2.66699 -9.66602 -8 -12.999l-18 -4h-116
c-10.667 0 -17.834 1.83301 -21.501 5.5s-5.5 7.5 -5.5 11.5c0 5.33301 6 15.666 18 30.999c6 6 9 13.667 9 23v577c0 8 -6 19 -18 33c-6 6 -9 12.667 -9 20l2 8c4.66699 6.66699 13 10 25 10z" />
    <glyph glyph-name="Edieresis" unicode="&#xcb;" horiz-adv-x="413" 
d="M137 682l-104 -615c-2 -12.667 -6.66699 -21.834 -14 -27.501s-11 -13.167 -11 -22.5c0 -4 2.33301 -8.33301 7 -13l19 -4h75c17.333 0 26 5.66699 26 17c0 8 -3.83301 15.833 -11.5 23.5s-11.5 16.834 -11.5 27.501l56 334c2 14 4.66699 21.333 8 22l4 -8l5 -15l65 -333
c1.33301 -6.66699 -2.33398 -15 -11.001 -25s-13 -18.667 -13 -26c0 -4 2.33301 -8.33301 7 -13l19 -4h112c17.333 0 26 5.66699 26 17c0 6.66699 -5 16 -15 28c-3.33301 4 -6.66602 10.333 -9.99902 19l-120 613l-6 26c-3.33301 10.667 -11 16 -23 16h-51
c-8 0 -14.333 -2.66699 -19 -8c-3.33301 -5.33301 -6.33301 -15 -9 -29z" />
    <glyph glyph-name="Edieresis" unicode="&#x41b;" horiz-adv-x="413" 
d="M137 682l-104 -615c-2 -12.667 -6.66699 -21.834 -14 -27.501s-11 -13.167 -11 -22.5c0 -4 2.33301 -8.33301 7 -13l19 -4h75c17.333 0 26 5.66699 26 17c0 8 -3.83301 15.833 -11.5 23.5s-11.5 16.834 -11.5 27.501l56 334c2 14 4.66699 21.333 8 22l4 -8l5 -15l65 -333
c1.33301 -6.66699 -2.33398 -15 -11.001 -25s-13 -18.667 -13 -26c0 -4 2.33301 -8.33301 7 -13l19 -4h112c17.333 0 26 5.66699 26 17c0 6.66699 -5 16 -15 28c-3.33301 4 -6.66602 10.333 -9.99902 19l-120 613l-6 26c-3.33301 10.667 -11 16 -23 16h-51
c-8 0 -14.333 -2.66699 -19 -8c-3.33301 -5.33301 -6.33301 -15 -9 -29z" />
    <glyph glyph-name="Igrave" unicode="&#xcc;" horiz-adv-x="527" 
d="M77 719l100.001 -0.00195312c6 0 11.333 -1.66699 16 -5s8 -7.66602 10 -12.999c0 -8 -3.83301 -15.833 -11.5 -23.5s-12.5 -17.5 -14.5 -29.5l60 -228c2 -8 4.66699 -12 8 -12l9 12l61 228c0 10.667 -5.66699 21.667 -17 33c-6 6 -9 12.667 -9 20c0 4 2 8 6 12
s10.667 6 20 6h100c8 0 14.333 -1.83301 19 -5.5s7 -7.83398 7 -12.501c0 -7.33301 -2.66699 -14 -8 -20c-12 -14 -18 -26 -18 -36l40 -581c0 -6 4.16699 -13.167 12.5 -21.5s12.5 -16.833 12.5 -25.5c0 -5.33301 -2.66699 -9.66602 -8 -12.999l-18 -4h-114
c-17.333 0 -26 5.66699 -26 17c0 4 6.33301 15.667 19 35c4 6 6.66699 15 8 27l-14 214c0 22 -3.33301 33 -10 33c-5.33301 0 -10.333 -8.66699 -15 -26l-64 -237c-2 -5.33301 -5.33301 -9 -10 -11l-8 11l-63 237c-4 15.333 -9 24 -15 26c-6.66699 0 -10 -11 -10 -33
l-15 -218c0 -10 4.33301 -20.667 13 -32c9.33301 -9.33301 14 -18 14 -26c0 -5.33301 -2.66699 -9.66602 -8 -12.999l-19 -4h-79c-9.33301 -0 -16 1.83301 -20 5.5s-6 7.5 -6 11.5c0 7.33301 3.83301 15 11.5 23s12.5 18.333 14.5 31l39 573
c1.33301 10.667 -4.33398 22.667 -17.001 36c-4.66699 5.33301 -8 12.333 -10 21l2 8c4.66699 6.66699 13 10 25 10z" />
    <glyph glyph-name="Igrave" unicode="&#x41c;" horiz-adv-x="527" 
d="M77 719l100.001 -0.00195312c6 0 11.333 -1.66699 16 -5s8 -7.66602 10 -12.999c0 -8 -3.83301 -15.833 -11.5 -23.5s-12.5 -17.5 -14.5 -29.5l60 -228c2 -8 4.66699 -12 8 -12l9 12l61 228c0 10.667 -5.66699 21.667 -17 33c-6 6 -9 12.667 -9 20c0 4 2 8 6 12
s10.667 6 20 6h100c8 0 14.333 -1.83301 19 -5.5s7 -7.83398 7 -12.501c0 -7.33301 -2.66699 -14 -8 -20c-12 -14 -18 -26 -18 -36l40 -581c0 -6 4.16699 -13.167 12.5 -21.5s12.5 -16.833 12.5 -25.5c0 -5.33301 -2.66699 -9.66602 -8 -12.999l-18 -4h-114
c-17.333 0 -26 5.66699 -26 17c0 4 6.33301 15.667 19 35c4 6 6.66699 15 8 27l-14 214c0 22 -3.33301 33 -10 33c-5.33301 0 -10.333 -8.66699 -15 -26l-64 -237c-2 -5.33301 -5.33301 -9 -10 -11l-8 11l-63 237c-4 15.333 -9 24 -15 26c-6.66699 0 -10 -11 -10 -33
l-15 -218c0 -10 4.33301 -20.667 13 -32c9.33301 -9.33301 14 -18 14 -26c0 -5.33301 -2.66699 -9.66602 -8 -12.999l-19 -4h-79c-9.33301 -0 -16 1.83301 -20 5.5s-6 7.5 -6 11.5c0 7.33301 3.83301 15 11.5 23s12.5 18.333 14.5 31l39 573
c1.33301 10.667 -4.33398 22.667 -17.001 36c-4.66699 5.33301 -8 12.333 -10 21l2 8c4.66699 6.66699 13 10 25 10z" />
    <glyph glyph-name="Iacute" unicode="&#xcd;" horiz-adv-x="419" 
d="M357 0l-115.998 -0.00195312c-10.667 0 -17.834 1.83301 -21.501 5.5s-5.5 7.5 -5.5 11.5c0 5.33301 6 15.666 18 30.999c6 6 9 13.667 9 23v208c0 30 -2.16699 49.667 -6.5 59s-12.5 14 -24.5 14h-16c-8.66699 0 -16.334 -4.33301 -23.001 -13
c-4.66699 -10.667 -7 -30.667 -7 -60v-208c0 -8 2.66699 -15.667 8 -23c12 -14 18 -24.333 18 -31c0 -5.33301 -2.66699 -9.66602 -8 -12.999l-18 -4h-116c-10.667 0 -17.834 1.83301 -21.501 5.5s-5.5 7.5 -5.5 11.5c0 5.33301 6 15.666 18 30.999c6 6 9 13.667 9 23v577
c0 8 -6 19 -18 33c-6 6 -9 12.667 -9 20l2 8c4.66699 6.66699 13 10 25 10h116c6 0 11.333 -1.66699 16 -5s8 -7.66602 10 -12.999c0 -8 -3.83301 -15.833 -11.5 -23.5s-12.5 -17.5 -14.5 -29.5v-147c0 -30 2.33301 -49.5 7 -58.5s12.334 -13.5 23.001 -13.5h16
c10 0 18 4 24 12c4.66699 10.667 7 30.667 7 60v147c0 8 -6 19 -18 33c-6 6 -9 12.667 -9 20l2 8c4.66699 6.66699 13 10 25 10h116c6 0 11.333 -1.66699 16 -5s8 -7.66602 10 -12.999c0 -8 -3.83301 -15.833 -11.5 -23.5s-12.5 -17.5 -14.5 -29.5v-577
c0 -8 2.66699 -15.667 8 -23c12 -14 18 -24.333 18 -31c0 -5.33301 -2.66699 -9.66602 -8 -12.999z" />
    <glyph glyph-name="Iacute" unicode="&#x41d;" horiz-adv-x="419" 
d="M357 0l-115.998 -0.00195312c-10.667 0 -17.834 1.83301 -21.501 5.5s-5.5 7.5 -5.5 11.5c0 5.33301 6 15.666 18 30.999c6 6 9 13.667 9 23v208c0 30 -2.16699 49.667 -6.5 59s-12.5 14 -24.5 14h-16c-8.66699 0 -16.334 -4.33301 -23.001 -13
c-4.66699 -10.667 -7 -30.667 -7 -60v-208c0 -8 2.66699 -15.667 8 -23c12 -14 18 -24.333 18 -31c0 -5.33301 -2.66699 -9.66602 -8 -12.999l-18 -4h-116c-10.667 0 -17.834 1.83301 -21.501 5.5s-5.5 7.5 -5.5 11.5c0 5.33301 6 15.666 18 30.999c6 6 9 13.667 9 23v577
c0 8 -6 19 -18 33c-6 6 -9 12.667 -9 20l2 8c4.66699 6.66699 13 10 25 10h116c6 0 11.333 -1.66699 16 -5s8 -7.66602 10 -12.999c0 -8 -3.83301 -15.833 -11.5 -23.5s-12.5 -17.5 -14.5 -29.5v-147c0 -30 2.33301 -49.5 7 -58.5s12.334 -13.5 23.001 -13.5h16
c10 0 18 4 24 12c4.66699 10.667 7 30.667 7 60v147c0 8 -6 19 -18 33c-6 6 -9 12.667 -9 20l2 8c4.66699 6.66699 13 10 25 10h116c6 0 11.333 -1.66699 16 -5s8 -7.66602 10 -12.999c0 -8 -3.83301 -15.833 -11.5 -23.5s-12.5 -17.5 -14.5 -29.5v-577
c0 -8 2.66699 -15.667 8 -23c12 -14 18 -24.333 18 -31c0 -5.33301 -2.66699 -9.66602 -8 -12.999z" />
    <glyph glyph-name="Icircumflex" unicode="&#xce;" horiz-adv-x="424" 
d="M205 -15c-58 0 -102 19.335 -132 58.002c-40.667 52.667 -61 145.667 -61 279c0 55.333 4.16699 107.166 12.5 155.499s20.833 91.166 37.5 128.499c36 82.667 83.667 124 143 124c58 0 105.333 -41.333 142 -124c34 -77.333 51 -172 51 -284
c0 -132 -20.333 -224.667 -61 -278c-30 -39.333 -74 -59 -132 -59zM151 345.002c0 -119.333 4.00293 -195.166 12.0029 -227.499s22 -48.5 42 -48.5c21.333 0 36.666 27 45.999 81l5 75l2 120c0 114 -6 198 -18 252c-9.33301 42 -21 63 -35 63
c-12.667 0 -24.334 -20.667 -35.001 -62c-2.66699 -13.333 -5.33398 -30.833 -8.00098 -52.5s-4.66699 -38.834 -6 -51.501c0 -16.667 -0.833008 -42.667 -2.5 -78s-2.5 -59 -2.5 -71z" />
    <glyph glyph-name="Icircumflex" unicode="&#x41e;" horiz-adv-x="424" 
d="M205 -15c-58 0 -102 19.335 -132 58.002c-40.667 52.667 -61 145.667 -61 279c0 55.333 4.16699 107.166 12.5 155.499s20.833 91.166 37.5 128.499c36 82.667 83.667 124 143 124c58 0 105.333 -41.333 142 -124c34 -77.333 51 -172 51 -284
c0 -132 -20.333 -224.667 -61 -278c-30 -39.333 -74 -59 -132 -59zM151 345.002c0 -119.333 4.00293 -195.166 12.0029 -227.499s22 -48.5 42 -48.5c21.333 0 36.666 27 45.999 81l5 75l2 120c0 114 -6 198 -18 252c-9.33301 42 -21 63 -35 63
c-12.667 0 -24.334 -20.667 -35.001 -62c-2.66699 -13.333 -5.33398 -30.833 -8.00098 -52.5s-4.66699 -38.834 -6 -51.501c0 -16.667 -0.833008 -42.667 -2.5 -78s-2.5 -59 -2.5 -71z" />
    <glyph glyph-name="Idieresis" unicode="&#xcf;" horiz-adv-x="419" 
d="M48 71l0.00292969 576.999c0 8 -6 19 -18 33c-6 6 -9 12.667 -9 20l2 8c4.66699 6.66699 13 10 25 10h309c6 0 11.333 -1.66699 16 -5s8 -7.66602 10 -12.999c0 -8 -3.83301 -15.833 -11.5 -23.5s-12.5 -17.5 -14.5 -29.5v-577c0 -8 2.66699 -15.667 8 -23
c12 -14 18 -24.333 18 -31c0 -5.33301 -2.66699 -9.66602 -8 -12.999l-18 -4h-116c-10.667 0 -17.834 1.83301 -21.501 5.5s-5.5 7.5 -5.5 11.5c0 5.33301 6 15.666 18 30.999c6 6 9 13.667 9 23v505c0 30 -2.16699 49.667 -6.5 59s-12.5 14 -24.5 14h-16
c-8.66699 0 -16.334 -4.33301 -23.001 -13c-4.66699 -10.667 -7 -30.667 -7 -60v-505c0 -8 2.66699 -15.667 8 -23c12 -14 18 -24.333 18 -31c0 -5.33301 -2.66699 -9.66602 -8 -12.999l-18 -4h-116c-10.667 0 -17.834 1.83301 -21.501 5.5s-5.5 7.5 -5.5 11.5
c0 5.33301 6 15.666 18 30.999c6 6 9 13.667 9 23z" />
    <glyph glyph-name="Idieresis" unicode="&#x41f;" horiz-adv-x="419" 
d="M48 71l0.00292969 576.999c0 8 -6 19 -18 33c-6 6 -9 12.667 -9 20l2 8c4.66699 6.66699 13 10 25 10h309c6 0 11.333 -1.66699 16 -5s8 -7.66602 10 -12.999c0 -8 -3.83301 -15.833 -11.5 -23.5s-12.5 -17.5 -14.5 -29.5v-577c0 -8 2.66699 -15.667 8 -23
c12 -14 18 -24.333 18 -31c0 -5.33301 -2.66699 -9.66602 -8 -12.999l-18 -4h-116c-10.667 0 -17.834 1.83301 -21.501 5.5s-5.5 7.5 -5.5 11.5c0 5.33301 6 15.666 18 30.999c6 6 9 13.667 9 23v505c0 30 -2.16699 49.667 -6.5 59s-12.5 14 -24.5 14h-16
c-8.66699 0 -16.334 -4.33301 -23.001 -13c-4.66699 -10.667 -7 -30.667 -7 -60v-505c0 -8 2.66699 -15.667 8 -23c12 -14 18 -24.333 18 -31c0 -5.33301 -2.66699 -9.66602 -8 -12.999l-18 -4h-116c-10.667 0 -17.834 1.83301 -21.501 5.5s-5.5 7.5 -5.5 11.5
c0 5.33301 6 15.666 18 30.999c6 6 9 13.667 9 23z" />
    <glyph glyph-name="Eth" unicode="&#xd0;" horiz-adv-x="410" 
d="M46 71l0.00195312 577c0 8 -6 19 -18 33c-6 6 -9 12.667 -9 20l2 8c4.66699 6.66699 13 10 25 10h126c44 0 88 -25 132 -75c25.333 -30 44.333 -63.5 57 -100.5s19 -76.833 19 -119.5c0 -58 -13.667 -106.667 -41 -146c-33.333 -48.667 -82.333 -73 -147 -73
c-8.66699 0 -16.334 -4.33301 -23.001 -13c-4.66699 -10.667 -7 -30.667 -7 -60v-61c0 -8 2.66699 -15.667 8 -23c12 -14 18 -24.333 18 -31c0 -5.33301 -2.66699 -9.66602 -8 -12.999l-18 -4h-116c-10.667 0 -17.834 1.83301 -21.501 5.5s-5.5 7.5 -5.5 11.5
c0 5.33301 6 15.666 18 30.999c6 6 9 13.667 9 23zM192.002 641c-8.66699 0 -16.332 -4.33398 -22.999 -13.001c-4.66699 -10.667 -7 -30.667 -7 -60v-213c0 -30 2 -49.833 6 -59.5s12 -14.5 24 -14.5c17.333 0 31.666 13 42.999 39c10.667 28 16 61 16 99
c0 58.667 -6.16699 110.334 -18.5 155.001s-25.833 67 -40.5 67z" />
    <glyph glyph-name="Eth" unicode="&#x420;" horiz-adv-x="410" 
d="M46 71l0.00195312 577c0 8 -6 19 -18 33c-6 6 -9 12.667 -9 20l2 8c4.66699 6.66699 13 10 25 10h126c44 0 88 -25 132 -75c25.333 -30 44.333 -63.5 57 -100.5s19 -76.833 19 -119.5c0 -58 -13.667 -106.667 -41 -146c-33.333 -48.667 -82.333 -73 -147 -73
c-8.66699 0 -16.334 -4.33301 -23.001 -13c-4.66699 -10.667 -7 -30.667 -7 -60v-61c0 -8 2.66699 -15.667 8 -23c12 -14 18 -24.333 18 -31c0 -5.33301 -2.66699 -9.66602 -8 -12.999l-18 -4h-116c-10.667 0 -17.834 1.83301 -21.501 5.5s-5.5 7.5 -5.5 11.5
c0 5.33301 6 15.666 18 30.999c6 6 9 13.667 9 23zM192.002 641c-8.66699 0 -16.332 -4.33398 -22.999 -13.001c-4.66699 -10.667 -7 -30.667 -7 -60v-213c0 -30 2 -49.833 6 -59.5s12 -14.5 24 -14.5c17.333 0 31.666 13 42.999 39c10.667 28 16 61 16 99
c0 58.667 -6.16699 110.334 -18.5 155.001s-25.833 67 -40.5 67z" />
    <glyph glyph-name="Ntilde" unicode="&#xd1;" horiz-adv-x="366" 
d="M331 537c0 -7.33301 -1.99902 -15.667 -5.99902 -25c-4 -6.66699 -9 -10.667 -15 -12c-12 0 -24.667 12 -38 36l-16 37l-19 48c-10 24.667 -21.667 37 -35 37c-12.667 0 -24.334 -20.667 -35.001 -62c-2.66699 -13.333 -5.33398 -30.833 -8.00098 -52.5
s-4.66699 -38.834 -6 -51.501c0 -16.667 -0.833008 -42.667 -2.5 -78s-2.5 -59 -2.5 -71c0 -119.333 4 -195.166 12 -227.499s22 -48.5 42 -48.5c22.667 0 39.334 16.667 50.001 50c2.66699 11.333 5 25.333 7 42s3 34 3 52c0 36.667 2.66699 60.5 8 71.5
s13.666 16.5 24.999 16.5c14 0 26 -10.833 36 -32.5s15 -52.167 15 -91.5c0 -56.667 -15 -104 -45 -142c-27.333 -32.667 -60.333 -49 -99 -49c-58 0 -102 19.333 -132 58c-40.667 52.667 -61 145.334 -61 278.001c0 111.333 17.5 207.166 52.5 287.499
s81.833 120.5 140.5 120.5c8.66699 0 18 -2.66699 28 -8l13 -5c4 0 9 2 15 6s11.667 6 17 6c6 0 12.333 -2.5 19 -7.5s11.334 -15.833 14.001 -32.5c15.333 -70.667 23 -120.667 23 -150z" />
    <glyph glyph-name="Ntilde" unicode="&#x421;" horiz-adv-x="366" 
d="M331 537c0 -7.33301 -1.99902 -15.667 -5.99902 -25c-4 -6.66699 -9 -10.667 -15 -12c-12 0 -24.667 12 -38 36l-16 37l-19 48c-10 24.667 -21.667 37 -35 37c-12.667 0 -24.334 -20.667 -35.001 -62c-2.66699 -13.333 -5.33398 -30.833 -8.00098 -52.5
s-4.66699 -38.834 -6 -51.501c0 -16.667 -0.833008 -42.667 -2.5 -78s-2.5 -59 -2.5 -71c0 -119.333 4 -195.166 12 -227.499s22 -48.5 42 -48.5c22.667 0 39.334 16.667 50.001 50c2.66699 11.333 5 25.333 7 42s3 34 3 52c0 36.667 2.66699 60.5 8 71.5
s13.666 16.5 24.999 16.5c14 0 26 -10.833 36 -32.5s15 -52.167 15 -91.5c0 -56.667 -15 -104 -45 -142c-27.333 -32.667 -60.333 -49 -99 -49c-58 0 -102 19.333 -132 58c-40.667 52.667 -61 145.334 -61 278.001c0 111.333 17.5 207.166 52.5 287.499
s81.833 120.5 140.5 120.5c8.66699 0 18 -2.66699 28 -8l13 -5c4 0 9 2 15 6s11.667 6 17 6c6 0 12.333 -2.5 19 -7.5s11.334 -15.833 14.001 -32.5c15.333 -70.667 23 -120.667 23 -150z" />
    <glyph glyph-name="Ograve" unicode="&#xd2;" horiz-adv-x="441" 
d="M389 510c-10 0 -21.0039 11.668 -33.0039 35.001l-16 35c-12.667 28.667 -21 45.667 -25 51c-2.66699 5.33301 -6.66699 9 -12 11c-10 0 -17.667 -4.66699 -23 -14c-4.66699 -10.667 -7 -30.334 -7 -59.001v-498c0 -8 2.66699 -15.667 8 -23c12 -14 18 -24.333 18 -31
c0 -5.33301 -2.66699 -9.66602 -8 -12.999l-18 -4h-117c-17.333 0 -26 5.66699 -26 17c0 7.33301 3.83301 15.166 11.5 23.499s12.5 18.5 14.5 30.5v499c0 30 -2.16699 49.667 -6.5 59s-12.166 14 -23.499 14c-3.33301 0 -8 -4 -14 -12l-22 -49l-22 -48
c-9.33301 -16 -18.666 -24 -27.999 -24c-4 0 -9.66699 4 -17 12l-7 27l1 21v18c2 10.667 3.33301 19 4 25l5 37l9 44c2 14 4.83301 22.833 8.5 26.5s10.834 6.16699 21.501 7.5l23 -6c6 -2 13.667 -3 23 -3h207c10.667 0 19.667 1.33301 27 4l19 5
c6 0 11.333 -1.66699 16 -5s9.33398 -13 14.001 -29l13 -87l5 -58c0 -10.667 -2.66699 -19.667 -8 -27c-4 -8 -9 -12 -15 -12z" />
    <glyph glyph-name="Ograve" unicode="&#x422;" horiz-adv-x="441" 
d="M389 510c-10 0 -21.0039 11.668 -33.0039 35.001l-16 35c-12.667 28.667 -21 45.667 -25 51c-2.66699 5.33301 -6.66699 9 -12 11c-10 0 -17.667 -4.66699 -23 -14c-4.66699 -10.667 -7 -30.334 -7 -59.001v-498c0 -8 2.66699 -15.667 8 -23c12 -14 18 -24.333 18 -31
c0 -5.33301 -2.66699 -9.66602 -8 -12.999l-18 -4h-117c-17.333 0 -26 5.66699 -26 17c0 7.33301 3.83301 15.166 11.5 23.499s12.5 18.5 14.5 30.5v499c0 30 -2.16699 49.667 -6.5 59s-12.166 14 -23.499 14c-3.33301 0 -8 -4 -14 -12l-22 -49l-22 -48
c-9.33301 -16 -18.666 -24 -27.999 -24c-4 0 -9.66699 4 -17 12l-7 27l1 21v18c2 10.667 3.33301 19 4 25l5 37l9 44c2 14 4.83301 22.833 8.5 26.5s10.834 6.16699 21.501 7.5l23 -6c6 -2 13.667 -3 23 -3h207c10.667 0 19.667 1.33301 27 4l19 5
c6 0 11.333 -1.66699 16 -5s9.33398 -13 14.001 -29l13 -87l5 -58c0 -10.667 -2.66699 -19.667 -8 -27c-4 -8 -9 -12 -15 -12z" />
    <glyph glyph-name="Oacute" unicode="&#xd3;" horiz-adv-x="428" 
d="M312 719l67.998 -0.00195312c8 0 14.333 -1.83301 19 -5.5s7 -7.83398 7 -12.501c0 -6 -3.83301 -12.833 -11.5 -20.5s-13.5 -17.167 -17.5 -28.5l-122 -518c-14 -56.667 -30.667 -96 -50 -118c-18 -22 -43.667 -33 -77 -33s-61.666 14.667 -84.999 44
s-35 67.333 -35 114c0 45.333 7 81 21 107s35.667 39 65 39c20.667 0 38.334 -8.33301 53.001 -25c10 -12 15 -24 15 -36s-1 -20 -3 -24s-8.66699 -6 -20 -6c-8 0 -14.667 -2 -20 -6c-6 -8 -9 -25.333 -9 -52l1 -38l7 -23c6 -12 14.667 -18 26 -18s23.666 18 36.999 54
c9.33301 32 14 57.667 14 77c0 20 -1.66699 35.333 -5 46l-137 424c0 6.66699 -4.66699 12.667 -14 18c-8.66699 6.66699 -13 14.334 -13 23.001c0 4 2 8 6 12s10.667 6 20 6h107c6 0 11.333 -1.66699 16 -5s8 -7.66602 10 -12.999c0 -6 -2.5 -12 -7.5 -18
s-7.16699 -13.667 -6.5 -23l71 -223c2 -5.33301 3.66699 -8.66602 5 -9.99902l2 -2l4 4l4 11l50 217c0.666992 6 -2.66602 13 -9.99902 21s-11 15.667 -11 23c0 4 2 8 6 12s10.667 6 20 6z" />
    <glyph glyph-name="Oacute" unicode="&#x423;" horiz-adv-x="428" 
d="M312 719l67.998 -0.00195312c8 0 14.333 -1.83301 19 -5.5s7 -7.83398 7 -12.501c0 -6 -3.83301 -12.833 -11.5 -20.5s-13.5 -17.167 -17.5 -28.5l-122 -518c-14 -56.667 -30.667 -96 -50 -118c-18 -22 -43.667 -33 -77 -33s-61.666 14.667 -84.999 44
s-35 67.333 -35 114c0 45.333 7 81 21 107s35.667 39 65 39c20.667 0 38.334 -8.33301 53.001 -25c10 -12 15 -24 15 -36s-1 -20 -3 -24s-8.66699 -6 -20 -6c-8 0 -14.667 -2 -20 -6c-6 -8 -9 -25.333 -9 -52l1 -38l7 -23c6 -12 14.667 -18 26 -18s23.666 18 36.999 54
c9.33301 32 14 57.667 14 77c0 20 -1.66699 35.333 -5 46l-137 424c0 6.66699 -4.66699 12.667 -14 18c-8.66699 6.66699 -13 14.334 -13 23.001c0 4 2 8 6 12s10.667 6 20 6h107c6 0 11.333 -1.66699 16 -5s8 -7.66602 10 -12.999c0 -6 -2.5 -12 -7.5 -18
s-7.16699 -13.667 -6.5 -23l71 -223c2 -5.33301 3.66699 -8.66602 5 -9.99902l2 -2l4 4l4 11l50 217c0.666992 6 -2.66602 13 -9.99902 21s-11 15.667 -11 23c0 4 2 8 6 12s10.667 6 20 6z" />
    <glyph glyph-name="Ocircumflex" unicode="&#xd4;" horiz-adv-x="592" 
d="M229 71v60c0 30.667 -2 50 -6 58s-11.667 13 -23 15c-64 0 -113 24.333 -147 73c-28 40 -42 89 -42 147c0 86.667 25 160 75 220c42 50 86.333 75 133 75h136c44.667 0 89 -25 133 -75c50.667 -58.667 76 -132 76 -220c0 -54 -14 -102.667 -42 -146
c-34 -49.333 -83.333 -74 -148 -74c-10 0 -17.333 -5 -22 -15s-7 -29.333 -7 -58v-60c0 -8 6 -19 18 -33c6 -6 9 -13 9 -21c0 -5.33301 -2.66699 -9.66602 -8 -12.999l-19 -4h-116c-17.333 0 -26 5.66699 -26 17c0 7.33301 3.83301 15.166 11.5 23.499s12.5 18.5 14.5 30.5z
M435 419c0 58.667 -6.16797 110.332 -18.501 154.999s-26.166 67 -41.499 67c-8.66699 0 -16.334 -4.33301 -23.001 -13c-4.66699 -10.667 -7 -30.667 -7 -60v-213c0 -30 2 -49.833 6 -59.5s12 -14.5 24 -14.5c16.667 0 31.334 12.667 44.001 38
c5.33301 14.667 9.33301 29.334 12 44.001zM139.999 418.998c0 -39.333 4.99902 -72.167 14.999 -98.5s24.667 -39.5 44 -39.5c8.66699 0 16.334 4.33301 23.001 13c4.66699 12 7 32.333 7 61v213c0 30 -2.16699 49.667 -6.5 59s-12.166 14 -23.499 14
c-12.667 0 -26.334 -22.333 -41.001 -67c-12 -44 -18 -95.667 -18 -155z" />
    <glyph glyph-name="Ocircumflex" unicode="&#x424;" horiz-adv-x="592" 
d="M229 71v60c0 30.667 -2 50 -6 58s-11.667 13 -23 15c-64 0 -113 24.333 -147 73c-28 40 -42 89 -42 147c0 86.667 25 160 75 220c42 50 86.333 75 133 75h136c44.667 0 89 -25 133 -75c50.667 -58.667 76 -132 76 -220c0 -54 -14 -102.667 -42 -146
c-34 -49.333 -83.333 -74 -148 -74c-10 0 -17.333 -5 -22 -15s-7 -29.333 -7 -58v-60c0 -8 6 -19 18 -33c6 -6 9 -13 9 -21c0 -5.33301 -2.66699 -9.66602 -8 -12.999l-19 -4h-116c-17.333 0 -26 5.66699 -26 17c0 7.33301 3.83301 15.166 11.5 23.499s12.5 18.5 14.5 30.5z
M435 419c0 58.667 -6.16797 110.332 -18.501 154.999s-26.166 67 -41.499 67c-8.66699 0 -16.334 -4.33301 -23.001 -13c-4.66699 -10.667 -7 -30.667 -7 -60v-213c0 -30 2 -49.833 6 -59.5s12 -14.5 24 -14.5c16.667 0 31.334 12.667 44.001 38
c5.33301 14.667 9.33301 29.334 12 44.001zM139.999 418.998c0 -39.333 4.99902 -72.167 14.999 -98.5s24.667 -39.5 44 -39.5c8.66699 0 16.334 4.33301 23.001 13c4.66699 12 7 32.333 7 61v213c0 30 -2.16699 49.667 -6.5 59s-12.166 14 -23.499 14
c-12.667 0 -26.334 -22.333 -41.001 -67c-12 -44 -18 -95.667 -18 -155z" />
    <glyph glyph-name="Otilde" unicode="&#xd5;" horiz-adv-x="463" 
d="M401 59c2 -1.33301 3.33008 -2.67188 3.99707 -4.00488c4.66699 -5.33301 9 -9.66602 13 -12.999c10.667 -7.33301 16 -15.666 16 -24.999c0 -5.33301 -2.66699 -9.66602 -8 -12.999l-19 -4h-140c-9.33301 0 -16 1.83301 -20 5.5s-6 7.5 -6 11.5
c0 7.33301 3.83301 15 11.5 23s10.5 17 8.5 27l-54 144c-2 6 -4.66699 9.33301 -8 10l-8 -10l-45 -144c-2 -8 1 -16.333 9 -25c9.33301 -8 14 -16.333 14 -25c0 -5.33301 -2.66699 -9.66602 -8 -12.999l-18 -4h-101c-9.33301 0 -16 1.83301 -20 5.5s-6 7.5 -6 11.5
c0 8 4.66699 16.333 14 25c8.66699 6.66699 15.334 13.334 20.001 20.001l90 297l5 28c0 11.333 -1.66699 20.333 -5 27l-91 246c-2 2 -3.33301 3.66699 -4 5c-3.33301 4 -7.66602 7.66699 -12.999 11c-10 8 -15.333 16.333 -16 25c0 12 8.66699 18 26 18h140
c8.66699 0 14.834 -1.66699 18.501 -5s6.5 -7.66602 8.5 -12.999c0 -8 -4 -16 -12 -24s-11 -16.333 -9 -25l40 -106l4 -7l3 -2l8 12l32 103c2 8 -1.33301 16.167 -10 24.5s-13 16.5 -13 24.5c0 4 2 8 6 12s10.667 6 20 6h101c8 0 14.333 -1.83301 19 -5.5
s7 -7.83398 7 -12.501c0 -8 -4.83301 -16 -14.5 -24s-16.167 -14.667 -19.5 -20l-79 -251l-4 -28c0 -10.667 1.33301 -19.667 4 -27z" />
    <glyph glyph-name="Otilde" unicode="&#x425;" horiz-adv-x="463" 
d="M401 59c2 -1.33301 3.33008 -2.67188 3.99707 -4.00488c4.66699 -5.33301 9 -9.66602 13 -12.999c10.667 -7.33301 16 -15.666 16 -24.999c0 -5.33301 -2.66699 -9.66602 -8 -12.999l-19 -4h-140c-9.33301 0 -16 1.83301 -20 5.5s-6 7.5 -6 11.5
c0 7.33301 3.83301 15 11.5 23s10.5 17 8.5 27l-54 144c-2 6 -4.66699 9.33301 -8 10l-8 -10l-45 -144c-2 -8 1 -16.333 9 -25c9.33301 -8 14 -16.333 14 -25c0 -5.33301 -2.66699 -9.66602 -8 -12.999l-18 -4h-101c-9.33301 0 -16 1.83301 -20 5.5s-6 7.5 -6 11.5
c0 8 4.66699 16.333 14 25c8.66699 6.66699 15.334 13.334 20.001 20.001l90 297l5 28c0 11.333 -1.66699 20.333 -5 27l-91 246c-2 2 -3.33301 3.66699 -4 5c-3.33301 4 -7.66602 7.66699 -12.999 11c-10 8 -15.333 16.333 -16 25c0 12 8.66699 18 26 18h140
c8.66699 0 14.834 -1.66699 18.501 -5s6.5 -7.66602 8.5 -12.999c0 -8 -4 -16 -12 -24s-11 -16.333 -9 -25l40 -106l4 -7l3 -2l8 12l32 103c2 8 -1.33301 16.167 -10 24.5s-13 16.5 -13 24.5c0 4 2 8 6 12s10.667 6 20 6h101c8 0 14.333 -1.83301 19 -5.5
s7 -7.83398 7 -12.501c0 -8 -4.83301 -16 -14.5 -24s-16.167 -14.667 -19.5 -20l-79 -251l-4 -28c0 -10.667 1.33301 -19.667 4 -27z" />
    <glyph glyph-name="Odieresis" unicode="&#xd6;" horiz-adv-x="423" 
d="M37 719l115.999 0.000976562c8 0 14.333 -1.83301 19 -5.5s7 -7.83398 7 -12.501c0 -8 -3.83301 -15.833 -11.5 -23.5s-12.5 -17.5 -14.5 -29.5v-512c0 -29.333 2 -48.833 6 -58.5s12 -14.5 24 -14.5h38c8.66699 0 16.334 4.33301 23.001 13c4.66699 12 7 32 7 60v512
c0 10.667 -5.66699 21.667 -17 33c-6 6 -9 12.667 -9 20c0 4 2 8 6 12s10.667 6 20 6h117c6 0 11.333 -1.66699 16 -5s8 -7.66602 10 -12.999c0 -8 -3.83301 -15.833 -11.5 -23.5s-12.5 -17.5 -14.5 -29.5v-549c0 -25.333 3.66699 -39 11 -41c13.333 0 20 -5 20 -15
c0 -4 -3.33301 -12.667 -10 -26l-12 -22l-20 -32l-35 -52c-14 -18 -30.667 -27 -50 -27c-13.333 0 -20 7 -20 21c0 11.333 3.83301 23.666 11.5 36.999s11.5 23.333 11.5 30c0 10.667 -2.33301 18.334 -7 23.001c-4.66699 3.33301 -13.667 5 -27 5h-204
c-9.33301 0 -16 1.83301 -20 5.5s-6 7.5 -6 11.5c0 7.33301 3.83301 15.166 11.5 23.499s12.5 18.5 14.5 30.5v577c0 10.667 -5.66699 21.667 -17 33c-6 6 -9 12.667 -9 20c0 12 8.66699 18 26 18z" />
    <glyph glyph-name="Odieresis" unicode="&#x426;" horiz-adv-x="423" 
d="M37 719l115.999 0.000976562c8 0 14.333 -1.83301 19 -5.5s7 -7.83398 7 -12.501c0 -8 -3.83301 -15.833 -11.5 -23.5s-12.5 -17.5 -14.5 -29.5v-512c0 -29.333 2 -48.833 6 -58.5s12 -14.5 24 -14.5h38c8.66699 0 16.334 4.33301 23.001 13c4.66699 12 7 32 7 60v512
c0 10.667 -5.66699 21.667 -17 33c-6 6 -9 12.667 -9 20c0 4 2 8 6 12s10.667 6 20 6h117c6 0 11.333 -1.66699 16 -5s8 -7.66602 10 -12.999c0 -8 -3.83301 -15.833 -11.5 -23.5s-12.5 -17.5 -14.5 -29.5v-549c0 -25.333 3.66699 -39 11 -41c13.333 0 20 -5 20 -15
c0 -4 -3.33301 -12.667 -10 -26l-12 -22l-20 -32l-35 -52c-14 -18 -30.667 -27 -50 -27c-13.333 0 -20 7 -20 21c0 11.333 3.83301 23.666 11.5 36.999s11.5 23.333 11.5 30c0 10.667 -2.33301 18.334 -7 23.001c-4.66699 3.33301 -13.667 5 -27 5h-204
c-9.33301 0 -16 1.83301 -20 5.5s-6 7.5 -6 11.5c0 7.33301 3.83301 15.166 11.5 23.499s12.5 18.5 14.5 30.5v577c0 10.667 -5.66699 21.667 -17 33c-6 6 -9 12.667 -9 20c0 12 8.66699 18 26 18z" />
    <glyph glyph-name="multiply" unicode="&#xd7;" horiz-adv-x="415" 
d="M366 0h-117c-17.333 0 -26 5.66699 -26 17c0 7.33301 3.83301 15.166 11.5 23.499s12.5 18.5 14.5 30.5v199c0 6 -1.33301 10.667 -4 14c-2 2 -4.66699 1.33301 -8 -2c-10 -11.333 -24 -20 -42 -26c-8 -2 -19 -3 -33 -3c-38 0 -67 12 -87 36
c-24.667 30.667 -37 80 -37 148v211c0 10.667 -5.66699 21.667 -17 33c-6 6 -9 12.667 -9 20c0 12 8.66699 18 26 18h116c8 0 14.333 -1.83301 19 -5.5s7 -7.83398 7 -12.501c0 -8 -3.83301 -15.833 -11.5 -23.5s-12.5 -17.5 -14.5 -29.5v-244c0 -44.667 11.667 -67 35 -67
c18 0 32.667 9.66699 44 29l12 31l4 37v214c0 10.667 -5.66699 21.667 -17 33c-6 6 -9 12.667 -9 20c0 4 2 8 6 12s10.667 6 20 6h117c6 0 11.333 -1.66699 16 -5s8 -7.66602 10 -12.999c0 -8 -3.83301 -15.833 -11.5 -23.5s-12.5 -17.5 -14.5 -29.5v-577
c0 -8 2.66699 -15.667 8 -23c12 -14 18 -24.333 18 -31c0 -5.33301 -2.66699 -9.66602 -8 -12.999z" />
    <glyph glyph-name="multiply" unicode="&#x427;" horiz-adv-x="415" 
d="M366 0h-117c-17.333 0 -26 5.66699 -26 17c0 7.33301 3.83301 15.166 11.5 23.499s12.5 18.5 14.5 30.5v199c0 6 -1.33301 10.667 -4 14c-2 2 -4.66699 1.33301 -8 -2c-10 -11.333 -24 -20 -42 -26c-8 -2 -19 -3 -33 -3c-38 0 -67 12 -87 36
c-24.667 30.667 -37 80 -37 148v211c0 10.667 -5.66699 21.667 -17 33c-6 6 -9 12.667 -9 20c0 12 8.66699 18 26 18h116c8 0 14.333 -1.83301 19 -5.5s7 -7.83398 7 -12.501c0 -8 -3.83301 -15.833 -11.5 -23.5s-12.5 -17.5 -14.5 -29.5v-244c0 -44.667 11.667 -67 35 -67
c18 0 32.667 9.66699 44 29l12 31l4 37v214c0 10.667 -5.66699 21.667 -17 33c-6 6 -9 12.667 -9 20c0 4 2 8 6 12s10.667 6 20 6h117c6 0 11.333 -1.66699 16 -5s8 -7.66602 10 -12.999c0 -8 -3.83301 -15.833 -11.5 -23.5s-12.5 -17.5 -14.5 -29.5v-577
c0 -8 2.66699 -15.667 8 -23c12 -14 18 -24.333 18 -31c0 -5.33301 -2.66699 -9.66602 -8 -12.999z" />
    <glyph glyph-name="Oslash" unicode="&#xd8;" horiz-adv-x="632" 
d="M572 0l-525.001 -0.000976562c-10.667 0 -17.834 1.83301 -21.501 5.5s-5.5 7.5 -5.5 11.5c0 5.33301 6 15.666 18 30.999c6 6 9 13.667 9 23v577c0 8 -6 19 -18 33c-6 6 -9 12.667 -9 20l2 8c4.66699 6.66699 13 10 25 10h116c6 0 11.333 -1.66699 16 -5
s8 -7.66602 10 -12.999c0 -8 -3.83301 -15.833 -11.5 -23.5s-12.5 -17.5 -14.5 -29.5v-512c0 -29.333 2 -48.833 6 -58.5s12 -14.5 24 -14.5h28c8.66699 0 16.334 4.33301 23.001 13c4.66699 12 7 32 7 60v512c0 10.667 -5.66699 21.667 -17 33c-6 6 -9 12.667 -9 20
c0 4 2 8 6 12s10.667 6 20 6h117c6 0 11.333 -1.66699 16 -5s8 -7.66602 10 -12.999c0 -8 -3.83301 -15.833 -11.5 -23.5s-12.5 -17.5 -14.5 -29.5v-512c0 -29.333 2 -48.833 6 -58.5s12 -14.5 24 -14.5h28c8.66699 0 16.334 4.33301 23.001 13
c4.66699 10.667 7 30.667 7 60v512c0 10.667 -5.66699 21.667 -17 33c-6 6 -9 12.667 -9 20c0 4 2 8 6 12s10.667 6 20 6h116c8 0 14.333 -1.83301 19 -5.5s7 -7.83398 7 -12.501c0 -8 -3.83301 -15.833 -11.5 -23.5s-12.5 -17.5 -14.5 -29.5v-577
c0 -8 2.66699 -15.667 8 -23c12 -14 18 -24.333 18 -31c0 -5.33301 -2.66699 -9.66602 -8 -12.999z" />
    <glyph glyph-name="Oslash" unicode="&#x428;" horiz-adv-x="632" 
d="M572 0l-525.001 -0.000976562c-10.667 0 -17.834 1.83301 -21.501 5.5s-5.5 7.5 -5.5 11.5c0 5.33301 6 15.666 18 30.999c6 6 9 13.667 9 23v577c0 8 -6 19 -18 33c-6 6 -9 12.667 -9 20l2 8c4.66699 6.66699 13 10 25 10h116c6 0 11.333 -1.66699 16 -5
s8 -7.66602 10 -12.999c0 -8 -3.83301 -15.833 -11.5 -23.5s-12.5 -17.5 -14.5 -29.5v-512c0 -29.333 2 -48.833 6 -58.5s12 -14.5 24 -14.5h28c8.66699 0 16.334 4.33301 23.001 13c4.66699 12 7 32 7 60v512c0 10.667 -5.66699 21.667 -17 33c-6 6 -9 12.667 -9 20
c0 4 2 8 6 12s10.667 6 20 6h117c6 0 11.333 -1.66699 16 -5s8 -7.66602 10 -12.999c0 -8 -3.83301 -15.833 -11.5 -23.5s-12.5 -17.5 -14.5 -29.5v-512c0 -29.333 2 -48.833 6 -58.5s12 -14.5 24 -14.5h28c8.66699 0 16.334 4.33301 23.001 13
c4.66699 10.667 7 30.667 7 60v512c0 10.667 -5.66699 21.667 -17 33c-6 6 -9 12.667 -9 20c0 4 2 8 6 12s10.667 6 20 6h116c8 0 14.333 -1.83301 19 -5.5s7 -7.83398 7 -12.501c0 -8 -3.83301 -15.833 -11.5 -23.5s-12.5 -17.5 -14.5 -29.5v-577
c0 -8 2.66699 -15.667 8 -23c12 -14 18 -24.333 18 -31c0 -5.33301 -2.66699 -9.66602 -8 -12.999z" />
    <glyph glyph-name="Ugrave" unicode="&#xd9;" horiz-adv-x="653" 
d="M44 719l115.997 -0.000976562c6 0 11.333 -1.66699 16 -5s8 -7.66602 10 -12.999c0 -8 -3.83301 -15.833 -11.5 -23.5s-12.5 -17.5 -14.5 -29.5v-512c0 -29.333 2 -48.833 6 -58.5s12 -14.5 24 -14.5h28c8.66699 0 16.334 4.33301 23.001 13c4.66699 12 7 32 7 60v512
c0 10.667 -5.66699 21.667 -17 33c-6 6 -9 12.667 -9 20c0 4 2 8 6 12s10.667 6 20 6h117c6 0 11.333 -1.66699 16 -5s8 -7.66602 10 -12.999c0 -8 -3.83301 -15.833 -11.5 -23.5s-12.5 -17.5 -14.5 -29.5v-512c0 -29.333 2 -48.833 6 -58.5s12 -14.5 24 -14.5h28
c8.66699 0 16.334 4.33301 23.001 13c4.66699 10.667 7 30.667 7 60v512c0 10.667 -5.66699 21.667 -17 33c-6 6 -9 12.667 -9 20c0 4 2 8 6 12s10.667 6 20 6h116c8.66699 0 14.834 -1.66699 18.501 -5s6.5 -7.66602 8.5 -12.999c0 -6 -6 -16 -18 -30
c-6 -6 -9 -13.667 -9 -23v-549c0 -27.333 7.33301 -41 22 -41c12.667 0 19 -5 19 -15c0 -4 -3.33301 -12.667 -10 -26l-12 -22l-20 -32l-34 -52c-14 -18 -31 -27 -51 -27c-12.667 0 -19 7 -19 21c0 11.333 3.83301 23.666 11.5 36.999s11.5 23.333 11.5 30
c0 12 -2.33301 20 -7 24c-1.33301 0.666992 -4.16602 1.5 -8.49902 2.5s-10.833 1.5 -19.5 1.5h-408c-10.667 0 -17.834 1.83301 -21.501 5.5s-5.5 7.5 -5.5 11.5c0 5.33301 6 15.666 18 30.999c6 6 9 13.667 9 23v577c0 8 -6 19 -18 33c-6 6 -9 12.667 -9 20l2 8
c4.66699 6.66699 13 10 25 10z" />
    <glyph glyph-name="Ugrave" unicode="&#x429;" horiz-adv-x="653" 
d="M44 719l115.997 -0.000976562c6 0 11.333 -1.66699 16 -5s8 -7.66602 10 -12.999c0 -8 -3.83301 -15.833 -11.5 -23.5s-12.5 -17.5 -14.5 -29.5v-512c0 -29.333 2 -48.833 6 -58.5s12 -14.5 24 -14.5h28c8.66699 0 16.334 4.33301 23.001 13c4.66699 12 7 32 7 60v512
c0 10.667 -5.66699 21.667 -17 33c-6 6 -9 12.667 -9 20c0 4 2 8 6 12s10.667 6 20 6h117c6 0 11.333 -1.66699 16 -5s8 -7.66602 10 -12.999c0 -8 -3.83301 -15.833 -11.5 -23.5s-12.5 -17.5 -14.5 -29.5v-512c0 -29.333 2 -48.833 6 -58.5s12 -14.5 24 -14.5h28
c8.66699 0 16.334 4.33301 23.001 13c4.66699 10.667 7 30.667 7 60v512c0 10.667 -5.66699 21.667 -17 33c-6 6 -9 12.667 -9 20c0 4 2 8 6 12s10.667 6 20 6h116c8.66699 0 14.834 -1.66699 18.501 -5s6.5 -7.66602 8.5 -12.999c0 -6 -6 -16 -18 -30
c-6 -6 -9 -13.667 -9 -23v-549c0 -27.333 7.33301 -41 22 -41c12.667 0 19 -5 19 -15c0 -4 -3.33301 -12.667 -10 -26l-12 -22l-20 -32l-34 -52c-14 -18 -31 -27 -51 -27c-12.667 0 -19 7 -19 21c0 11.333 3.83301 23.666 11.5 36.999s11.5 23.333 11.5 30
c0 12 -2.33301 20 -7 24c-1.33301 0.666992 -4.16602 1.5 -8.49902 2.5s-10.833 1.5 -19.5 1.5h-408c-10.667 0 -17.834 1.83301 -21.501 5.5s-5.5 7.5 -5.5 11.5c0 5.33301 6 15.666 18 30.999c6 6 9 13.667 9 23v577c0 8 -6 19 -18 33c-6 6 -9 12.667 -9 20l2 8
c4.66699 6.66699 13 10 25 10z" />
    <glyph glyph-name="Uacute" unicode="&#xda;" horiz-adv-x="534" 
d="M279 515c0 -27.333 2.33203 -44.499 6.99902 -51.499s12.334 -10.5 23.001 -10.5c42 0 84.667 -26 128 -78c21.333 -26.667 37.833 -55.834 49.5 -87.501s17.5 -65.167 17.5 -100.5c0 -73.333 -19.667 -124.333 -59 -153c-32.667 -22.667 -81.667 -34 -147 -34h-135
c-17.333 0 -26 5.66699 -26 17c0 7.33301 3.83301 15.166 11.5 23.499s12.5 18.5 14.5 30.5v564c0 15.333 -4 24 -12 26c-9.33301 0 -20 -8.33301 -32 -25l-23 -41l-27 -47c-12.667 -16.667 -24.667 -25 -36 -25c-13.333 0 -20 8.66699 -20 26c0 9.33301 3 28 9 56l23 89
c4 14 7.66699 22.667 11 26s9.66602 6 18.999 8l23 -6l22 -3h159c8.66699 0 14.834 -1.66699 18.501 -5s6.5 -7.66602 8.5 -12.999c0 -6 -6 -16 -18 -30c-6 -6 -9 -13.667 -9 -23v-133zM369.999 202.001c0 48.667 -8 92.002 -24 130.002
c-13.333 30.667 -25.666 46 -36.999 46c-8.66699 0 -16.334 -4.33301 -23.001 -13c-4.66699 -10.667 -7 -30.334 -7 -59.001v-170c0 -29.333 2 -48.833 6 -58.5s12 -14.5 24 -14.5c8 0 19.667 10 35 30c17.333 27.333 26 63.666 26 108.999z" />
    <glyph glyph-name="Uacute" unicode="&#x42a;" horiz-adv-x="534" 
d="M279 515c0 -27.333 2.33203 -44.499 6.99902 -51.499s12.334 -10.5 23.001 -10.5c42 0 84.667 -26 128 -78c21.333 -26.667 37.833 -55.834 49.5 -87.501s17.5 -65.167 17.5 -100.5c0 -73.333 -19.667 -124.333 -59 -153c-32.667 -22.667 -81.667 -34 -147 -34h-135
c-17.333 0 -26 5.66699 -26 17c0 7.33301 3.83301 15.166 11.5 23.499s12.5 18.5 14.5 30.5v564c0 15.333 -4 24 -12 26c-9.33301 0 -20 -8.33301 -32 -25l-23 -41l-27 -47c-12.667 -16.667 -24.667 -25 -36 -25c-13.333 0 -20 8.66699 -20 26c0 9.33301 3 28 9 56l23 89
c4 14 7.66699 22.667 11 26s9.66602 6 18.999 8l23 -6l22 -3h159c8.66699 0 14.834 -1.66699 18.501 -5s6.5 -7.66602 8.5 -12.999c0 -6 -6 -16 -18 -30c-6 -6 -9 -13.667 -9 -23v-133zM369.999 202.001c0 48.667 -8 92.002 -24 130.002
c-13.333 30.667 -25.666 46 -36.999 46c-8.66699 0 -16.334 -4.33301 -23.001 -13c-4.66699 -10.667 -7 -30.334 -7 -59.001v-170c0 -29.333 2 -48.833 6 -58.5s12 -14.5 24 -14.5c8 0 19.667 10 35 30c17.333 27.333 26 63.666 26 108.999z" />
    <glyph glyph-name="Ucircumflex" unicode="&#xdb;" horiz-adv-x="603" 
d="M544 648v-576.999c0 -8 2.66699 -15.667 8 -23c12 -14 18 -24.333 18 -31c0 -5.33301 -2.66699 -9.66602 -8 -12.999l-18 -4h-116c-9.33301 0 -16 1.83301 -20 5.5s-6 7.5 -6 11.5c0 7.33301 3.83301 15.166 11.5 23.499s12.5 18.5 14.5 30.5v577
c0 10.667 -5.66699 21.667 -17 33c-6 6 -9 12.667 -9 20c0 12 8.66699 18 26 18h116c8 0 14.333 -1.83301 19 -5.5s7 -7.83398 7 -12.501c0 -8 -3.83301 -15.833 -11.5 -23.5s-12.5 -17.5 -14.5 -29.5zM184 453.001c42 0 84.666 -25.9971 127.999 -77.9971
c21.333 -26.667 37.833 -55.834 49.5 -87.501s17.5 -65.167 17.5 -100.5c0 -73.333 -19.667 -124.333 -59 -153c-32.667 -22.667 -81.667 -34 -147 -34h-135c-9.33301 0 -16 1.83301 -20 5.5s-6 7.5 -6 11.5c0 7.33301 3.83301 15.166 11.5 23.499s12.5 18.5 14.5 30.5v577
c0 10.667 -5.66699 21.667 -17 33c-6 6 -9 12.667 -9 20c0 12 8.66699 18 26 18h116c8 0 14.333 -1.83301 19 -5.5s7 -7.83398 7 -12.501c0 -8 -3.83301 -15.833 -11.5 -23.5s-12.5 -17.5 -14.5 -29.5v-133c0 -27.333 2.33301 -44.5 7 -51.5s12.334 -10.5 23.001 -10.5z
M183.999 378.004c-8.66699 0 -16.333 -4.33203 -23 -12.999c-4.66699 -10.667 -7 -30.334 -7 -59.001v-170c0 -29.333 2 -48.833 6 -58.5s12 -14.5 24 -14.5c16 0 31 16 45 48c10 24 15 54.333 15 91c0 48.667 -8 92 -24 130c-12 28.667 -24 44 -36 46z" />
    <glyph glyph-name="Ucircumflex" unicode="&#x42b;" horiz-adv-x="603" 
d="M544 648v-576.999c0 -8 2.66699 -15.667 8 -23c12 -14 18 -24.333 18 -31c0 -5.33301 -2.66699 -9.66602 -8 -12.999l-18 -4h-116c-9.33301 0 -16 1.83301 -20 5.5s-6 7.5 -6 11.5c0 7.33301 3.83301 15.166 11.5 23.499s12.5 18.5 14.5 30.5v577
c0 10.667 -5.66699 21.667 -17 33c-6 6 -9 12.667 -9 20c0 12 8.66699 18 26 18h116c8 0 14.333 -1.83301 19 -5.5s7 -7.83398 7 -12.501c0 -8 -3.83301 -15.833 -11.5 -23.5s-12.5 -17.5 -14.5 -29.5zM184 453.001c42 0 84.666 -25.9971 127.999 -77.9971
c21.333 -26.667 37.833 -55.834 49.5 -87.501s17.5 -65.167 17.5 -100.5c0 -73.333 -19.667 -124.333 -59 -153c-32.667 -22.667 -81.667 -34 -147 -34h-135c-9.33301 0 -16 1.83301 -20 5.5s-6 7.5 -6 11.5c0 7.33301 3.83301 15.166 11.5 23.499s12.5 18.5 14.5 30.5v577
c0 10.667 -5.66699 21.667 -17 33c-6 6 -9 12.667 -9 20c0 12 8.66699 18 26 18h116c8 0 14.333 -1.83301 19 -5.5s7 -7.83398 7 -12.501c0 -8 -3.83301 -15.833 -11.5 -23.5s-12.5 -17.5 -14.5 -29.5v-133c0 -27.333 2.33301 -44.5 7 -51.5s12.334 -10.5 23.001 -10.5z
M183.999 378.004c-8.66699 0 -16.333 -4.33203 -23 -12.999c-4.66699 -10.667 -7 -30.334 -7 -59.001v-170c0 -29.333 2 -48.833 6 -58.5s12 -14.5 24 -14.5c16 0 31 16 45 48c10 24 15 54.333 15 91c0 48.667 -8 92 -24 130c-12 28.667 -24 44 -36 46z" />
    <glyph glyph-name="Udieresis" unicode="&#xdc;" horiz-adv-x="395" 
d="M180 453c42 0 84.665 -25.999 127.998 -77.999c21.333 -26.667 37.833 -55.834 49.5 -87.501s17.5 -65.167 17.5 -100.5c0 -73.333 -19.667 -124.333 -59 -153c-32.667 -22.667 -81.667 -34 -147 -34h-135c-17.333 0 -26 5.66699 -26 17
c0 7.33301 3.83301 15.166 11.5 23.499s12.5 18.5 14.5 30.5v577c0 10.667 -5.66699 21.667 -17 33c-6 6 -9 12.667 -9 20c0 4 2 8 6 12s10.667 6 20 6h116c8.66699 0 14.834 -1.66699 18.501 -5s6.5 -7.66602 8.5 -12.999c0 -6 -6 -16 -18 -30c-6 -6 -9 -13.667 -9 -23
v-133c0 -27.333 2.33301 -44.5 7 -51.5s12.334 -10.5 23.001 -10.5zM179.998 378.001c-8.66699 0 -16.334 -4.33105 -23.001 -12.998c-4.66699 -10.667 -7 -30.334 -7 -59.001v-170c0 -29.333 2 -48.833 6 -58.5s12 -14.5 24 -14.5c8 0 19.667 10 35 30
c17.333 27.333 26 63.666 26 108.999c0 48.667 -8 92 -24 130c-13.333 30.667 -25.666 46 -36.999 46z" />
    <glyph glyph-name="Udieresis" unicode="&#x42c;" horiz-adv-x="395" 
d="M180 453c42 0 84.665 -25.999 127.998 -77.999c21.333 -26.667 37.833 -55.834 49.5 -87.501s17.5 -65.167 17.5 -100.5c0 -73.333 -19.667 -124.333 -59 -153c-32.667 -22.667 -81.667 -34 -147 -34h-135c-17.333 0 -26 5.66699 -26 17
c0 7.33301 3.83301 15.166 11.5 23.499s12.5 18.5 14.5 30.5v577c0 10.667 -5.66699 21.667 -17 33c-6 6 -9 12.667 -9 20c0 4 2 8 6 12s10.667 6 20 6h116c8.66699 0 14.834 -1.66699 18.501 -5s6.5 -7.66602 8.5 -12.999c0 -6 -6 -16 -18 -30c-6 -6 -9 -13.667 -9 -23
v-133c0 -27.333 2.33301 -44.5 7 -51.5s12.334 -10.5 23.001 -10.5zM179.998 378.001c-8.66699 0 -16.334 -4.33105 -23.001 -12.998c-4.66699 -10.667 -7 -30.334 -7 -59.001v-170c0 -29.333 2 -48.833 6 -58.5s12 -14.5 24 -14.5c8 0 19.667 10 35 30
c17.333 27.333 26 63.666 26 108.999c0 48.667 -8 92 -24 130c-13.333 30.667 -25.666 46 -36.999 46z" />
    <glyph glyph-name="Yacute" unicode="&#xdd;" horiz-adv-x="367" 
d="M24 545c0 -7.33301 2.00195 -15.167 6.00195 -23.5s9 -13.166 15 -14.499c12 0 24.333 13.667 37 41l19 43l23 53c7.33301 14 17 21 29 21c14.667 0 28.334 -29.333 41.001 -88l10 -61l2 -28l-4 -8l-19 14c-6 0 -12.167 -2.83301 -18.5 -8.5s-12.833 -17.167 -19.5 -34.5
l-37 -96c-2.66699 -7.33301 -4.5 -14 -5.5 -20l-2.5 -15c0 -8.66699 3 -16 9 -22l11 -4c6.66699 0 16 6 28 18l31 39l11 12c4 4 7.66699 6 11 6c5.33301 0 8 -6 8 -18c0 -101.333 -2.33301 -166.333 -7 -195c-8 -54 -24.333 -81 -49 -81s-43.334 16.667 -56.001 50
c-8 24 -12 55.333 -12 94c0 16.667 -0.333008 28.667 -1 36s-3.33398 17.833 -8.00098 31.5s-13 20.5 -25 20.5c-8.66699 0 -18.334 -11.667 -29.001 -35c-8.66699 -26 -13 -56 -13 -90c0 -56.667 15 -104 45 -142c27.333 -32.667 60.333 -49 99 -49c58 0 102 19.333 132 58
c40.667 52.667 61 145.667 61 279c0 55.333 -4.16699 107.166 -12.5 155.499s-20.833 91.166 -37.5 128.499c-36 82.667 -83.667 124 -143 124c-8 0 -16.333 -2.33301 -25 -7l-15 -6c-6.66699 0 -12.667 1.83301 -18 5.5s-10.333 5.5 -15 5.5
c-8.66699 0 -15.667 -2.66699 -21 -8c-4 -5.33301 -8 -15.666 -12 -30.999c-15.333 -70.667 -23 -120.667 -23 -150z" />
    <glyph glyph-name="Yacute" unicode="&#x42d;" horiz-adv-x="367" 
d="M24 545c0 -7.33301 2.00195 -15.167 6.00195 -23.5s9 -13.166 15 -14.499c12 0 24.333 13.667 37 41l19 43l23 53c7.33301 14 17 21 29 21c14.667 0 28.334 -29.333 41.001 -88l10 -61l2 -28l-4 -8l-19 14c-6 0 -12.167 -2.83301 -18.5 -8.5s-12.833 -17.167 -19.5 -34.5
l-37 -96c-2.66699 -7.33301 -4.5 -14 -5.5 -20l-2.5 -15c0 -8.66699 3 -16 9 -22l11 -4c6.66699 0 16 6 28 18l31 39l11 12c4 4 7.66699 6 11 6c5.33301 0 8 -6 8 -18c0 -101.333 -2.33301 -166.333 -7 -195c-8 -54 -24.333 -81 -49 -81s-43.334 16.667 -56.001 50
c-8 24 -12 55.333 -12 94c0 16.667 -0.333008 28.667 -1 36s-3.33398 17.833 -8.00098 31.5s-13 20.5 -25 20.5c-8.66699 0 -18.334 -11.667 -29.001 -35c-8.66699 -26 -13 -56 -13 -90c0 -56.667 15 -104 45 -142c27.333 -32.667 60.333 -49 99 -49c58 0 102 19.333 132 58
c40.667 52.667 61 145.667 61 279c0 55.333 -4.16699 107.166 -12.5 155.499s-20.833 91.166 -37.5 128.499c-36 82.667 -83.667 124 -143 124c-8 0 -16.333 -2.33301 -25 -7l-15 -6c-6.66699 0 -12.667 1.83301 -18 5.5s-10.333 5.5 -15 5.5
c-8.66699 0 -15.667 -2.66699 -21 -8c-4 -5.33301 -8 -15.666 -12 -30.999c-15.333 -70.667 -23 -120.667 -23 -150z" />
    <glyph glyph-name="Thorn" unicode="&#xde;" horiz-adv-x="670" 
d="M440 -12c-58 0 -102 19.334 -132 58.001c-40.667 52.667 -61 145.667 -61 279v20c0 7.33301 -5 12 -15 14h-59c-1.33301 -0.666992 -2.83301 -1.33398 -4.5 -2.00098s-3.83398 -2.33398 -6.50098 -5.00098l-4 -20v-261c0 -8 2.66699 -15.667 8 -23
c12 -14 18 -24.333 18 -31c0 -5.33301 -2.66699 -9.66602 -8 -12.999l-18 -4h-116c-9.33301 -0 -16 1.83301 -20 5.5s-6 7.5 -6 11.5c0 7.33301 3.83301 15.166 11.5 23.499s12.5 18.5 14.5 30.5v577c0 10.667 -5.66699 21.667 -17 33c-6 6 -9 12.667 -9 20
c0 12 8.66699 18 26 18h116c6 0 11.333 -1.66699 16 -5s8 -7.66602 10 -12.999c0 -8 -3.83301 -15.833 -11.5 -23.5s-12.5 -17.5 -14.5 -29.5v-184v-19c0 -6.66699 5 -11 15 -13h60c12 0 20 9 24 27c16 88 39.333 155.667 70 203s68.334 71 113.001 71
c58 0 105.333 -41.333 142 -124c34 -77.333 51 -172 51 -284c0 -132 -20.333 -224.667 -61 -278c-30 -39.333 -74 -59 -132 -59zM387 348.001c0 -118.667 4 -194.333 12 -227s21.667 -49 41 -49c14 0 26 10.167 36 30.5s15 50.5 15 90.5l1 78c0 8 0.333008 20.667 1 38
s1 30.333 1 39c0 114 -6 198 -18 252c-9.33301 42 -21.333 63 -36 63c-12 0 -23.333 -20.667 -34 -62c-2.66699 -13.333 -5.5 -31.833 -8.5 -55.5s-4.83301 -40.167 -5.5 -49.5c0 -17.333 -0.833008 -43.5 -2.5 -78.5s-2.5 -58.167 -2.5 -69.5z" />
    <glyph glyph-name="Thorn" unicode="&#x42e;" horiz-adv-x="670" 
d="M440 -12c-58 0 -102 19.334 -132 58.001c-40.667 52.667 -61 145.667 -61 279v20c0 7.33301 -5 12 -15 14h-59c-1.33301 -0.666992 -2.83301 -1.33398 -4.5 -2.00098s-3.83398 -2.33398 -6.50098 -5.00098l-4 -20v-261c0 -8 2.66699 -15.667 8 -23
c12 -14 18 -24.333 18 -31c0 -5.33301 -2.66699 -9.66602 -8 -12.999l-18 -4h-116c-9.33301 -0 -16 1.83301 -20 5.5s-6 7.5 -6 11.5c0 7.33301 3.83301 15.166 11.5 23.499s12.5 18.5 14.5 30.5v577c0 10.667 -5.66699 21.667 -17 33c-6 6 -9 12.667 -9 20
c0 12 8.66699 18 26 18h116c6 0 11.333 -1.66699 16 -5s8 -7.66602 10 -12.999c0 -8 -3.83301 -15.833 -11.5 -23.5s-12.5 -17.5 -14.5 -29.5v-184v-19c0 -6.66699 5 -11 15 -13h60c12 0 20 9 24 27c16 88 39.333 155.667 70 203s68.334 71 113.001 71
c58 0 105.333 -41.333 142 -124c34 -77.333 51 -172 51 -284c0 -132 -20.333 -224.667 -61 -278c-30 -39.333 -74 -59 -132 -59zM387 348.001c0 -118.667 4 -194.333 12 -227s21.667 -49 41 -49c14 0 26 10.167 36 30.5s15 50.5 15 90.5l1 78c0 8 0.333008 20.667 1 38
s1 30.333 1 39c0 114 -6 198 -18 252c-9.33301 42 -21.333 63 -36 63c-12 0 -23.333 -20.667 -34 -62c-2.66699 -13.333 -5.5 -31.833 -8.5 -55.5s-4.83301 -40.167 -5.5 -49.5c0 -17.333 -0.833008 -43.5 -2.5 -78.5s-2.5 -58.167 -2.5 -69.5z" />
    <glyph glyph-name="germandbls" unicode="&#xdf;" horiz-adv-x="398" 
d="M350 719l-129.998 0.00195312c-40 0 -82 -21 -126 -63c-54 -52 -81 -119.333 -81 -202c0 -36.667 7.66699 -69.334 23 -98.001c12 -22.667 27.667 -42 47 -58c6 -5.33301 9 -11.333 9 -18l-2 -10l-48 -212c0 -4.66699 -3.83301 -10.834 -11.5 -18.501
s-11.5 -15.167 -11.5 -22.5c0 -4 2.33301 -8.33301 7 -13l20 -4h100c9.33301 0 15.666 1.66699 18.999 5c3.33301 2 6 6 8 12c0 8 -4 16 -12 24c-5.33301 5.33301 -9 12 -11 20l3 21l32 132c4 18.667 7.33301 29.834 10 33.501s7.66699 6.5 15 8.5
c7.33301 0 13.666 -6 18.999 -18c3.33301 -14.667 5 -32.667 5 -54v-113c0 -8 -2.66699 -15.667 -8 -23c-12 -14 -18 -24.333 -18 -31c0 -4 2.33301 -8.33301 7 -13l19 -4h116c9.33301 0 16 1.83301 20 5.5s6 7.5 6 11.5c0 7.33301 -3.83301 15.166 -11.5 23.499
s-12.5 18.5 -14.5 30.5v577c0 10.667 5.66699 21.667 17 33c6 6 9 12.667 9 20c0 12 -8.66699 18 -26 18zM204.002 654.002c8.66699 0 16.334 -4.33301 23.001 -13c4.66699 -10.667 7 -30.667 7 -60v-183c0 -30.667 -2.33301 -50.5 -7 -59.5s-12.334 -13.5 -23.001 -13.5
c-16 0 -29.333 8.66699 -40 26c-12.667 24 -19 60.333 -19 109c0 61.333 7.66699 110.333 23 147c12 31.333 24 47 36 47z" />
    <glyph glyph-name="germandbls" unicode="&#x42f;" horiz-adv-x="398" 
d="M350 719l-129.998 0.00195312c-40 0 -82 -21 -126 -63c-54 -52 -81 -119.333 -81 -202c0 -36.667 7.66699 -69.334 23 -98.001c12 -22.667 27.667 -42 47 -58c6 -5.33301 9 -11.333 9 -18l-2 -10l-48 -212c0 -4.66699 -3.83301 -10.834 -11.5 -18.501
s-11.5 -15.167 -11.5 -22.5c0 -4 2.33301 -8.33301 7 -13l20 -4h100c9.33301 0 15.666 1.66699 18.999 5c3.33301 2 6 6 8 12c0 8 -4 16 -12 24c-5.33301 5.33301 -9 12 -11 20l3 21l32 132c4 18.667 7.33301 29.834 10 33.501s7.66699 6.5 15 8.5
c7.33301 0 13.666 -6 18.999 -18c3.33301 -14.667 5 -32.667 5 -54v-113c0 -8 -2.66699 -15.667 -8 -23c-12 -14 -18 -24.333 -18 -31c0 -4 2.33301 -8.33301 7 -13l19 -4h116c9.33301 0 16 1.83301 20 5.5s6 7.5 6 11.5c0 7.33301 -3.83301 15.166 -11.5 23.499
s-12.5 18.5 -14.5 30.5v577c0 10.667 5.66699 21.667 17 33c6 6 9 12.667 9 20c0 12 -8.66699 18 -26 18zM204.002 654.002c8.66699 0 16.334 -4.33301 23.001 -13c4.66699 -10.667 7 -30.667 7 -60v-183c0 -30.667 -2.33301 -50.5 -7 -59.5s-12.334 -13.5 -23.001 -13.5
c-16 0 -29.333 8.66699 -40 26c-12.667 24 -19 60.333 -19 109c0 61.333 7.66699 110.333 23 147c12 31.333 24 47 36 47z" />
    <glyph glyph-name="agrave" unicode="&#xe0;" horiz-adv-x="327" 
d="M271 115c0 -14 1.99902 -24.002 5.99902 -30.002c4.66699 -4.66699 13 -7 25 -7l4 -9c0 -46.667 -15.667 -70 -47 -70c-14 0 -27.667 4.66699 -41 14c-12 10 -21.333 23.333 -28 40l-5 3l-2 -2l-9 -20c-14 -23.333 -34.333 -35 -61 -35c-27.333 0 -50.666 12 -69.999 36
c-9.33301 12.667 -16.333 26.667 -21 42s-7 34 -7 56c0 42.667 14 82 42 118c24 30 56.333 53.333 97 70c4.66699 2 8 8 10 18v15v11c-1.33301 5.33301 -2 9.33301 -2 12c0 11.333 -3 23 -9 35c-7.33301 17.333 -20.666 26 -39.999 26c-8 0 -14.167 -1.16699 -18.5 -3.5
s-6.83301 -5.16602 -7.5 -8.49902l8 -8l8 -7l5 -7c3.33301 -6.66699 5 -16.334 5 -29.001c0 -7.33301 -3 -15.666 -9 -24.999c-8.66699 -10.667 -20.334 -16 -35.001 -16c-14 0 -25.333 4.33301 -34 13c-10.667 12.667 -16 30.334 -16 53.001c0 24.667 10 46 30 64
s46.667 27 80 27c38.667 0 69 -11.167 91 -33.5s33 -51.833 33 -88.5zM141.999 72.998c8 0 16.001 6 24.001 18s12 25 12 39l-9 143c0 8 -1.33301 12.333 -4 13l-7 -5c-20.667 -16.667 -34.834 -33.167 -42.501 -49.5s-11.5 -42.5 -11.5 -78.5c0 -19.333 3 -37.5 9 -54.5
s15.667 -25.5 29 -25.5z" />
    <glyph glyph-name="agrave" unicode="&#x430;" horiz-adv-x="327" 
d="M271 115c0 -14 1.99902 -24.002 5.99902 -30.002c4.66699 -4.66699 13 -7 25 -7l4 -9c0 -46.667 -15.667 -70 -47 -70c-14 0 -27.667 4.66699 -41 14c-12 10 -21.333 23.333 -28 40l-5 3l-2 -2l-9 -20c-14 -23.333 -34.333 -35 -61 -35c-27.333 0 -50.666 12 -69.999 36
c-9.33301 12.667 -16.333 26.667 -21 42s-7 34 -7 56c0 42.667 14 82 42 118c24 30 56.333 53.333 97 70c4.66699 2 8 8 10 18v15v11c-1.33301 5.33301 -2 9.33301 -2 12c0 11.333 -3 23 -9 35c-7.33301 17.333 -20.666 26 -39.999 26c-8 0 -14.167 -1.16699 -18.5 -3.5
s-6.83301 -5.16602 -7.5 -8.49902l8 -8l8 -7l5 -7c3.33301 -6.66699 5 -16.334 5 -29.001c0 -7.33301 -3 -15.666 -9 -24.999c-8.66699 -10.667 -20.334 -16 -35.001 -16c-14 0 -25.333 4.33301 -34 13c-10.667 12.667 -16 30.334 -16 53.001c0 24.667 10 46 30 64
s46.667 27 80 27c38.667 0 69 -11.167 91 -33.5s33 -51.833 33 -88.5zM141.999 72.998c8 0 16.001 6 24.001 18s12 25 12 39l-9 143c0 8 -1.33301 12.333 -4 13l-7 -5c-20.667 -16.667 -34.834 -33.167 -42.501 -49.5s-11.5 -42.5 -11.5 -78.5c0 -19.333 3 -37.5 9 -54.5
s15.667 -25.5 29 -25.5z" />
    <glyph glyph-name="aacute" unicode="&#xe1;" horiz-adv-x="282" 
d="M152 485c27.333 -19.333 53.335 -58.9971 78.002 -118.997s37 -121 37 -183c0 -56.667 -11.833 -102.334 -35.5 -137.001s-52.167 -52 -85.5 -52c-44 0 -77.833 20.167 -101.5 60.5s-35.5 103.5 -35.5 189.5c0 59.333 5 107.666 15 144.999c5.33301 18 15.333 40 30 66
l5 12l-5 7c-7.33301 5.33301 -16 19.666 -26 42.999c-8.66699 24.667 -13 52 -13 82c0 38.667 11.167 68.667 33.5 90s48.166 32 77.499 32c8.66699 0 18 -2 28 -6l24 -5c12 0 21.667 2.33301 29 7l18 9c16.667 0 25 -10.333 25 -31c0 -13.333 -3 -25 -9 -35
c-6 -7.33301 -18.333 -11 -37 -11c-10 0 -20.833 3 -32.5 9s-21.834 9 -30.501 9c-10 0 -18.333 -5.33301 -25 -16c-5.33301 -10.667 -8 -27.667 -8 -51c0 -28 4 -51.5 12 -70.5s18.667 -33.833 32 -44.5zM121.002 431.003c-11.333 0 -20.668 -11.001 -28.001 -33.001
c-6.66699 -23.333 -10 -56.333 -10 -99c0 -64.667 3.83301 -113.167 11.5 -145.5s18.834 -48.5 33.501 -48.5c16.667 0 29 13 37 39c4 16 6 46.333 6 91l-3 76c-0.666992 10.667 -2 21.334 -4 32.001s-4.33301 21 -7 31c-8 38 -20 57 -36 57z" />
    <glyph glyph-name="aacute" unicode="&#x431;" horiz-adv-x="282" 
d="M152 485c27.333 -19.333 53.335 -58.9971 78.002 -118.997s37 -121 37 -183c0 -56.667 -11.833 -102.334 -35.5 -137.001s-52.167 -52 -85.5 -52c-44 0 -77.833 20.167 -101.5 60.5s-35.5 103.5 -35.5 189.5c0 59.333 5 107.666 15 144.999c5.33301 18 15.333 40 30 66
l5 12l-5 7c-7.33301 5.33301 -16 19.666 -26 42.999c-8.66699 24.667 -13 52 -13 82c0 38.667 11.167 68.667 33.5 90s48.166 32 77.499 32c8.66699 0 18 -2 28 -6l24 -5c12 0 21.667 2.33301 29 7l18 9c16.667 0 25 -10.333 25 -31c0 -13.333 -3 -25 -9 -35
c-6 -7.33301 -18.333 -11 -37 -11c-10 0 -20.833 3 -32.5 9s-21.834 9 -30.501 9c-10 0 -18.333 -5.33301 -25 -16c-5.33301 -10.667 -8 -27.667 -8 -51c0 -28 4 -51.5 12 -70.5s18.667 -33.833 32 -44.5zM121.002 431.003c-11.333 0 -20.668 -11.001 -28.001 -33.001
c-6.66699 -23.333 -10 -56.333 -10 -99c0 -64.667 3.83301 -113.167 11.5 -145.5s18.834 -48.5 33.501 -48.5c16.667 0 29 13 37 39c4 16 6 46.333 6 91l-3 76c-0.666992 10.667 -2 21.334 -4 32.001s-4.33301 21 -7 31c-8 38 -20 57 -36 57z" />
    <glyph glyph-name="acircumflex" unicode="&#xe2;" horiz-adv-x="294" 
d="M155 -9c-34.667 0 -62.001 17 -82.001 51c-15.333 32 -26.666 75.333 -33.999 130l-4 85l-3 122v96c0 82.667 8.5 144.167 25.5 184.5s41.167 60.5 72.5 60.5c38 0 67 -17.333 87 -52c15.333 -27.333 23 -58.333 23 -93c0 -29.333 -2.66699 -51.333 -8 -66
s-12 -26.667 -20 -36l-5 -14c0 -6.66699 3 -13 9 -19c14 -8.66699 28.667 -43 44 -103c10 -46 15 -97.333 15 -154c0 -70.667 -12.667 -122 -38 -154c-20 -25.333 -47.333 -38 -82 -38zM126.999 487c8 0 17.667 7.99902 29 23.999c10.667 17.333 16 40 16 68
c0 24.667 -4.16699 44.834 -12.5 60.501s-16.833 23.5 -25.5 23.5c-10 0 -18.167 -6.66699 -24.5 -20s-9.5 -27 -9.5 -41c0 -36 1 -64.167 3 -84.5s10 -30.5 24 -30.5zM104.999 306.999c0 -70.667 3.83398 -123.332 11.501 -157.999s19.167 -52 34.5 -52
c11.333 0 20.666 11 27.999 33c6.66699 24.667 10 50.667 10 78v13c0 30.667 -1.33301 56.334 -4 77.001c0 11.333 -1.16699 22.666 -3.5 33.999s-5.5 22.666 -9.5 33.999c-10 36 -24 54 -42 54c-6.66699 0 -13 -8 -19 -24c-4 -15.333 -6 -45 -6 -89z" />
    <glyph glyph-name="acircumflex" unicode="&#x432;" horiz-adv-x="294" 
d="M155 -9c-34.667 0 -62.001 17 -82.001 51c-15.333 32 -26.666 75.333 -33.999 130l-4 85l-3 122v96c0 82.667 8.5 144.167 25.5 184.5s41.167 60.5 72.5 60.5c38 0 67 -17.333 87 -52c15.333 -27.333 23 -58.333 23 -93c0 -29.333 -2.66699 -51.333 -8 -66
s-12 -26.667 -20 -36l-5 -14c0 -6.66699 3 -13 9 -19c14 -8.66699 28.667 -43 44 -103c10 -46 15 -97.333 15 -154c0 -70.667 -12.667 -122 -38 -154c-20 -25.333 -47.333 -38 -82 -38zM126.999 487c8 0 17.667 7.99902 29 23.999c10.667 17.333 16 40 16 68
c0 24.667 -4.16699 44.834 -12.5 60.501s-16.833 23.5 -25.5 23.5c-10 0 -18.167 -6.66699 -24.5 -20s-9.5 -27 -9.5 -41c0 -36 1 -64.167 3 -84.5s10 -30.5 24 -30.5zM104.999 306.999c0 -70.667 3.83398 -123.332 11.501 -157.999s19.167 -52 34.5 -52
c11.333 0 20.666 11 27.999 33c6.66699 24.667 10 50.667 10 78v13c0 30.667 -1.33301 56.334 -4 77.001c0 11.333 -1.16699 22.666 -3.5 33.999s-5.5 22.666 -9.5 33.999c-10 36 -24 54 -42 54c-6.66699 0 -13 -8 -19 -24c-4 -15.333 -6 -45 -6 -89z" />
    <glyph glyph-name="atilde" unicode="&#xe3;" horiz-adv-x="286" 
d="M112 316c-26.667 -15.333 -47.999 -33 -63.999 -53c-28 -35.333 -42 -77.666 -42 -126.999c0 -45.333 15.333 -82 46 -110c24.667 -20.667 53.334 -31 86.001 -31c16 0 29 3 39 9l15 5l9 -4c6 -6 11.333 -9 16 -9c8.66699 0 15.667 4.5 21 13.5
s10.666 22.167 15.999 39.5l7 34c4 18 6 32.333 6 43c0 18 -5.33301 27 -16 27c-14.667 0 -28.334 -13.333 -41.001 -40c-4 -12 -9.33301 -22.333 -16 -31c-10.667 -14.667 -22.667 -22 -36 -22c-11.333 0 -21.333 3.33301 -30 10c-12.667 10.667 -19 26 -19 46
c0 26 9 50 27 72l42 38c14 11.333 25 20.666 33 27.999s14.667 14 20 20c22.667 28.667 34 61.667 34 99c0 30 -7.66699 55.667 -23 77c-18 26 -45 39 -81 39c-13.333 0 -23 -1.66699 -29 -5l-16 -5l-11 5c-1.33301 1.33301 -6.33301 3 -15 5c-8 0 -14.667 -4.66699 -20 -14
l-12 -36l-11 -37l-2 -23l3 -18c2 -6 6 -9 12 -9c4.66699 0 18 11 40 33l22 25c8 7.33301 18.333 12 31 14c16 0 24 -10.667 24 -32c0 -18 -8.33301 -34 -25 -48z" />
    <glyph glyph-name="atilde" unicode="&#x433;" horiz-adv-x="286" 
d="M112 316c-26.667 -15.333 -47.999 -33 -63.999 -53c-28 -35.333 -42 -77.666 -42 -126.999c0 -45.333 15.333 -82 46 -110c24.667 -20.667 53.334 -31 86.001 -31c16 0 29 3 39 9l15 5l9 -4c6 -6 11.333 -9 16 -9c8.66699 0 15.667 4.5 21 13.5
s10.666 22.167 15.999 39.5l7 34c4 18 6 32.333 6 43c0 18 -5.33301 27 -16 27c-14.667 0 -28.334 -13.333 -41.001 -40c-4 -12 -9.33301 -22.333 -16 -31c-10.667 -14.667 -22.667 -22 -36 -22c-11.333 0 -21.333 3.33301 -30 10c-12.667 10.667 -19 26 -19 46
c0 26 9 50 27 72l42 38c14 11.333 25 20.666 33 27.999s14.667 14 20 20c22.667 28.667 34 61.667 34 99c0 30 -7.66699 55.667 -23 77c-18 26 -45 39 -81 39c-13.333 0 -23 -1.66699 -29 -5l-16 -5l-11 5c-1.33301 1.33301 -6.33301 3 -15 5c-8 0 -14.667 -4.66699 -20 -14
l-12 -36l-11 -37l-2 -23l3 -18c2 -6 6 -9 12 -9c4.66699 0 18 11 40 33l22 25c8 7.33301 18.333 12 31 14c16 0 24 -10.667 24 -32c0 -18 -8.33301 -34 -25 -48z" />
    <glyph glyph-name="adieresis" unicode="&#xe4;" horiz-adv-x="311" 
d="M168 16c-3.33301 0 -10.6689 -4.00098 -22.002 -12.001c-9.33301 -8 -20.333 -12 -33 -12c-26.667 0 -48.667 11.667 -66 35c-13.333 17.333 -23.333 40 -30 68c-2.66699 12.667 -5 28.167 -7 46.5s-3 37.5 -3 57.5c0 84.667 10.667 153.334 32 206.001
c24 58.667 58 88 102 88l23 -1c4 0 9.33301 -2.33301 16 -7l30 -15l25 15c4.66699 3.33301 12.334 6 23.001 8c16 0 24 -14.333 24 -43v-458c0 -52.667 -13.833 -97.5 -41.5 -134.5s-68.5 -55.5 -122.5 -55.5c-30 0 -56.667 6 -80 18c-34.667 20.667 -52 55 -52 103
c0 42.667 20.333 64 61 64c10.667 0 19.167 -2.16699 25.5 -6.5s10.5 -10.5 12.5 -18.5c0 -8.66699 -2.66699 -16 -8 -22l-7 -21c0 -33.333 13.333 -50 40 -50c18.667 0 35.334 11.333 50.001 34c12.667 24 19 48 19 72v21c0 9.33301 -1.33301 15 -4 17zM177.997 312.999
c0 28 -1.99902 51 -5.99902 69c-6 28 -17.333 42 -34 42c-14 0 -24 -16.167 -30 -48.5s-9 -65.5 -9 -99.5v-31c0 -35.333 4 -66.833 12 -94.5s17.667 -41.5 29 -41.5s20.666 10 27.999 30c6.66699 22 10 45 10 69v105z" />
    <glyph glyph-name="adieresis" unicode="&#x434;" horiz-adv-x="311" 
d="M168 16c-3.33301 0 -10.6689 -4.00098 -22.002 -12.001c-9.33301 -8 -20.333 -12 -33 -12c-26.667 0 -48.667 11.667 -66 35c-13.333 17.333 -23.333 40 -30 68c-2.66699 12.667 -5 28.167 -7 46.5s-3 37.5 -3 57.5c0 84.667 10.667 153.334 32 206.001
c24 58.667 58 88 102 88l23 -1c4 0 9.33301 -2.33301 16 -7l30 -15l25 15c4.66699 3.33301 12.334 6 23.001 8c16 0 24 -14.333 24 -43v-458c0 -52.667 -13.833 -97.5 -41.5 -134.5s-68.5 -55.5 -122.5 -55.5c-30 0 -56.667 6 -80 18c-34.667 20.667 -52 55 -52 103
c0 42.667 20.333 64 61 64c10.667 0 19.167 -2.16699 25.5 -6.5s10.5 -10.5 12.5 -18.5c0 -8.66699 -2.66699 -16 -8 -22l-7 -21c0 -33.333 13.333 -50 40 -50c18.667 0 35.334 11.333 50.001 34c12.667 24 19 48 19 72v21c0 9.33301 -1.33301 15 -4 17zM177.997 312.999
c0 28 -1.99902 51 -5.99902 69c-6 28 -17.333 42 -34 42c-14 0 -24 -16.167 -30 -48.5s-9 -65.5 -9 -99.5v-31c0 -35.333 4 -66.833 12 -94.5s17.667 -41.5 29 -41.5s20.666 10 27.999 30c6.66699 22 10 45 10 69v105z" />
    <glyph glyph-name="aring" unicode="&#xe5;" horiz-adv-x="275" 
d="M255 119c0 -38 -11.3311 -67.998 -33.998 -89.998c-22.667 -20.667 -48.334 -31 -77.001 -31c-48 0 -83.333 21.333 -106 64c-19.333 36.667 -29 88.667 -29 156c0 82.667 14 149 42 199s63.667 75 107 75c36.667 0 63.334 -19.667 80.001 -59
c12.667 -36 19 -81.667 19 -137c0 -11.333 -1 -19.666 -3 -24.999l-9 -9c-21.333 -4 -37.333 -8.33301 -48 -13l-31 -13c-26.667 -10 -46.667 -22.333 -60 -37l14 71c21.333 14 34.666 26.167 39.999 36.5s8 32.166 8 65.499c0 21.333 -3.16699 36.833 -9.5 46.5
s-14.833 14.5 -25.5 14.5c-2 -1.33301 -3.66699 -2.33301 -5 -3c-4.66699 -3.33301 -9.33398 -7.33301 -14.001 -12c-20.667 -26.667 -31 -63.334 -31 -110.001v-37c0 -12 3 -18 9 -18l10 5l18 12l-14 -71c-1.33301 -2 -2 -8 -2 -18c6 -16.667 15 -31.334 27 -44.001
s23.667 -20 35 -22c14 0 25 11 33 33s17.667 33 29 33c18 0 27 -20.667 27 -62z" />
    <glyph glyph-name="aring" unicode="&#x435;" horiz-adv-x="275" 
d="M255 119c0 -38 -11.3311 -67.998 -33.998 -89.998c-22.667 -20.667 -48.334 -31 -77.001 -31c-48 0 -83.333 21.333 -106 64c-19.333 36.667 -29 88.667 -29 156c0 82.667 14 149 42 199s63.667 75 107 75c36.667 0 63.334 -19.667 80.001 -59
c12.667 -36 19 -81.667 19 -137c0 -11.333 -1 -19.666 -3 -24.999l-9 -9c-21.333 -4 -37.333 -8.33301 -48 -13l-31 -13c-26.667 -10 -46.667 -22.333 -60 -37l14 71c21.333 14 34.666 26.167 39.999 36.5s8 32.166 8 65.499c0 21.333 -3.16699 36.833 -9.5 46.5
s-14.833 14.5 -25.5 14.5c-2 -1.33301 -3.66699 -2.33301 -5 -3c-4.66699 -3.33301 -9.33398 -7.33301 -14.001 -12c-20.667 -26.667 -31 -63.334 -31 -110.001v-37c0 -12 3 -18 9 -18l10 5l18 12l-14 -71c-1.33301 -2 -2 -8 -2 -18c6 -16.667 15 -31.334 27 -44.001
s23.667 -20 35 -22c14 0 25 11 33 33s17.667 33 29 33c18 0 27 -20.667 27 -62z" />
    <glyph glyph-name="ae" unicode="&#xe6;" horiz-adv-x="515" 
d="M301 0l-102.999 -0.00390625c-17.333 0 -26 5.66699 -26 17c0 7.33301 3.83301 15.166 11.5 23.499s12.5 18.5 14.5 30.5v83l-1 17c0 6 -2 12 -6 18l-6 9l-6 5l-9 -22l-31 -117l-2 -11c0 -4.66699 2.66699 -10 8 -16l6 -9l2 -11c0 -5.33301 -2.66699 -9.66602 -8 -12.999
l-18 -4h-88c-9.33301 0 -16 1.83301 -20 5.5s-6 7.5 -6 11.5c0 8.66699 2.66699 16 8 22c8 9.33301 14 21.333 18 36l62 232l3 16l-4 13l-57 90l-22 20c-7.33301 5.33301 -11 13 -11 23c0 4 2 8 6 12s10.667 6 20 6h75c6 0 11.333 -1.66699 16 -5s8 -7.66602 10 -12.999
c0 -6.66699 -3 -13.334 -9 -20.001s-8 -14 -6 -22l65 -102l7 -4l4 4v91c0 10.667 -5.66699 21.667 -17 33c-6 6 -9 12.667 -9 20c0 4 2 8 6 12s10.667 6 20 6h103c6 0 11.333 -1.66699 16 -5s8 -7.66602 10 -12.999c0 -8 -3.83301 -15.833 -11.5 -23.5
s-12.5 -17.5 -14.5 -29.5v-91l3 -4l7 4l65 102c4 6 2.66699 13 -4 21s-10 15 -10 21c0 4 2 8 6 12s10.667 6 20 6h75c6 0 11.333 -1.66699 16 -5s8 -7.66602 10 -12.999c0 -10 -3.66699 -17.667 -11 -23c-12 -9.33301 -19.333 -16 -22 -20l-57 -90l-4 -15l3 -14l62 -232
c4 -14 9.33301 -25.5 16 -34.5s10 -16.833 10 -23.5c0 -5.33301 -2.66699 -9.66602 -8 -12.999l-18 -4h-88c-10.667 0 -17.834 1.83301 -21.501 5.5s-5.5 7.5 -5.5 11.5c0 8 2.83301 14.833 8.5 20.5s8.5 11.167 8.5 16.5l-2 10l-31 117c-4 14 -7.66699 21.333 -11 22l-5 -5
l-6 -9c-4 -7.33301 -6 -19 -6 -35v-83c0 -8 2.66699 -15.667 8 -23c12 -14 18 -24.333 18 -31c0 -5.33301 -2.66699 -9.66602 -8 -12.999z" />
    <glyph glyph-name="ae" unicode="&#x436;" horiz-adv-x="515" 
d="M301 0l-102.999 -0.00390625c-17.333 0 -26 5.66699 -26 17c0 7.33301 3.83301 15.166 11.5 23.499s12.5 18.5 14.5 30.5v83l-1 17c0 6 -2 12 -6 18l-6 9l-6 5l-9 -22l-31 -117l-2 -11c0 -4.66699 2.66699 -10 8 -16l6 -9l2 -11c0 -5.33301 -2.66699 -9.66602 -8 -12.999
l-18 -4h-88c-9.33301 0 -16 1.83301 -20 5.5s-6 7.5 -6 11.5c0 8.66699 2.66699 16 8 22c8 9.33301 14 21.333 18 36l62 232l3 16l-4 13l-57 90l-22 20c-7.33301 5.33301 -11 13 -11 23c0 4 2 8 6 12s10.667 6 20 6h75c6 0 11.333 -1.66699 16 -5s8 -7.66602 10 -12.999
c0 -6.66699 -3 -13.334 -9 -20.001s-8 -14 -6 -22l65 -102l7 -4l4 4v91c0 10.667 -5.66699 21.667 -17 33c-6 6 -9 12.667 -9 20c0 4 2 8 6 12s10.667 6 20 6h103c6 0 11.333 -1.66699 16 -5s8 -7.66602 10 -12.999c0 -8 -3.83301 -15.833 -11.5 -23.5
s-12.5 -17.5 -14.5 -29.5v-91l3 -4l7 4l65 102c4 6 2.66699 13 -4 21s-10 15 -10 21c0 4 2 8 6 12s10.667 6 20 6h75c6 0 11.333 -1.66699 16 -5s8 -7.66602 10 -12.999c0 -10 -3.66699 -17.667 -11 -23c-12 -9.33301 -19.333 -16 -22 -20l-57 -90l-4 -15l3 -14l62 -232
c4 -14 9.33301 -25.5 16 -34.5s10 -16.833 10 -23.5c0 -5.33301 -2.66699 -9.66602 -8 -12.999l-18 -4h-88c-10.667 0 -17.834 1.83301 -21.501 5.5s-5.5 7.5 -5.5 11.5c0 8 2.83301 14.833 8.5 20.5s8.5 11.167 8.5 16.5l-2 10l-31 117c-4 14 -7.66699 21.333 -11 22l-5 -5
l-6 -9c-4 -7.33301 -6 -19 -6 -35v-83c0 -8 2.66699 -15.667 8 -23c12 -14 18 -24.333 18 -31c0 -5.33301 -2.66699 -9.66602 -8 -12.999z" />
    <glyph glyph-name="ccedilla" unicode="&#xe7;" horiz-adv-x="306" 
d="M286 127c0 -53.333 -12.6699 -90.667 -38.0029 -112c-21.333 -18 -54.666 -27 -99.999 -27c-14.667 0 -30 3 -46 9l-19 5l-9 -4c-6 -6 -11.333 -9 -16 -9c-6 0 -13.667 5 -23 15l-7 13l-7 24l-9 42l-3 36l3 18c2 6 6 9 12 9c14.667 0 28.334 -13.333 41.001 -40l7 -18
l10 -13c10.667 -14.667 22.334 -22 35.001 -22s24.834 7.66699 36.501 23s17.5 34.333 17.5 57c0 40 -5.33301 68.333 -16 85c-4.66699 8.66699 -16.5 17 -35.5 25s-28.5 18.667 -28.5 32c0 8.66699 1 15.167 3 19.5s7.66699 9.33301 17 15s20.333 19.167 33 40.5
s19 37.333 19 48c0 20 -9.33301 30 -28 30l-15 -3l-16 -11l-23 -25l-24 -25c-2.66699 -2.66699 -7.66699 -5.33398 -15 -8.00098c-6 0 -10.333 3.33301 -13 10l-3 17v16l4 12l11 36l12 34c4 8 10.333 12 19 12c4.66699 0 8.66699 -1.33301 12 -4l14 -6l32 11c10 4 20 6 30 6
c12.667 0 23.667 -1.66699 33 -5s15.666 -6.16602 18.999 -8.49902s8.33301 -6.5 15 -12.5c18.667 -16.667 28 -37.667 28 -63c0 -20.667 -4.33301 -39.667 -13 -57s-21 -33.666 -37 -48.999l-7 -12l2 -5l4 -5c26.667 -22.667 43 -37.334 49 -44.001
c22 -28 33 -65.333 33 -112z" />
    <glyph glyph-name="ccedilla" unicode="&#x437;" horiz-adv-x="306" 
d="M286 127c0 -53.333 -12.6699 -90.667 -38.0029 -112c-21.333 -18 -54.666 -27 -99.999 -27c-14.667 0 -30 3 -46 9l-19 5l-9 -4c-6 -6 -11.333 -9 -16 -9c-6 0 -13.667 5 -23 15l-7 13l-7 24l-9 42l-3 36l3 18c2 6 6 9 12 9c14.667 0 28.334 -13.333 41.001 -40l7 -18
l10 -13c10.667 -14.667 22.334 -22 35.001 -22s24.834 7.66699 36.501 23s17.5 34.333 17.5 57c0 40 -5.33301 68.333 -16 85c-4.66699 8.66699 -16.5 17 -35.5 25s-28.5 18.667 -28.5 32c0 8.66699 1 15.167 3 19.5s7.66699 9.33301 17 15s20.333 19.167 33 40.5
s19 37.333 19 48c0 20 -9.33301 30 -28 30l-15 -3l-16 -11l-23 -25l-24 -25c-2.66699 -2.66699 -7.66699 -5.33398 -15 -8.00098c-6 0 -10.333 3.33301 -13 10l-3 17v16l4 12l11 36l12 34c4 8 10.333 12 19 12c4.66699 0 8.66699 -1.33301 12 -4l14 -6l32 11c10 4 20 6 30 6
c12.667 0 23.667 -1.66699 33 -5s15.666 -6.16602 18.999 -8.49902s8.33301 -6.5 15 -12.5c18.667 -16.667 28 -37.667 28 -63c0 -20.667 -4.33301 -39.667 -13 -57s-21 -33.666 -37 -48.999l-7 -12l2 -5l4 -5c26.667 -22.667 43 -37.334 49 -44.001
c22 -28 33 -65.333 33 -112z" />
    <glyph glyph-name="egrave" unicode="&#xe8;" horiz-adv-x="352" 
d="M297 33c-9.33301 -4 -21.666 -11.999 -36.999 -23.999l-13 -8c-6.66699 -3.33301 -12.667 -5 -18 -5c-3.33301 0 -8 2 -14 6l-7 15c0 3.33301 -1.66699 6 -5 8l-5 -4c-14.667 -16.667 -38 -25 -70 -25c-28.667 0 -52 10 -70 30c-16 20 -24 49 -24 87v239
c0 18 -4 31 -12 39s-12.667 17.333 -14 28c0 11.333 5 20 15 26l22 9c10 4 22 12 36 24l15 9l17 4c16 0 24 -14.333 24 -43v-287c0 -28 2.16699 -47 6.5 -57s11.5 -15 21.5 -15c6.66699 0 15 6 25 18s15 26 15 42v203c0 18 -4 31 -12 39s-13 17.333 -15 28
c0 10 4.33301 18.333 13 25l21 9c13.333 5.33301 26.666 13.666 39.999 24.999c8.66699 6.66699 19 11 31 13c16 0 24 -14.333 24 -43v-313c0 -19.333 4 -32.833 12 -40.5s13 -16.5 15 -26.5c0 -10 -4.33301 -18.333 -13 -25z" />
    <glyph glyph-name="egrave" unicode="&#x438;" horiz-adv-x="352" 
d="M297 33c-9.33301 -4 -21.666 -11.999 -36.999 -23.999l-13 -8c-6.66699 -3.33301 -12.667 -5 -18 -5c-3.33301 0 -8 2 -14 6l-7 15c0 3.33301 -1.66699 6 -5 8l-5 -4c-14.667 -16.667 -38 -25 -70 -25c-28.667 0 -52 10 -70 30c-16 20 -24 49 -24 87v239
c0 18 -4 31 -12 39s-12.667 17.333 -14 28c0 11.333 5 20 15 26l22 9c10 4 22 12 36 24l15 9l17 4c16 0 24 -14.333 24 -43v-287c0 -28 2.16699 -47 6.5 -57s11.5 -15 21.5 -15c6.66699 0 15 6 25 18s15 26 15 42v203c0 18 -4 31 -12 39s-13 17.333 -15 28
c0 10 4.33301 18.333 13 25l21 9c13.333 5.33301 26.666 13.666 39.999 24.999c8.66699 6.66699 19 11 31 13c16 0 24 -14.333 24 -43v-313c0 -19.333 4 -32.833 12 -40.5s13 -16.5 15 -26.5c0 -10 -4.33301 -18.333 -13 -25z" />
    <glyph glyph-name="eacute" unicode="&#xe9;" horiz-adv-x="355" 
d="M270 635c16.667 0 24.998 -6.66504 24.998 -19.998c0 -9.33301 -4.16699 -20.333 -12.5 -33s-17.166 -22.667 -26.499 -30l-11 -6l-17 -2c-12.667 0 -27.334 3 -44.001 9s-30.334 9 -41.001 9c-12 0 -24 -4 -36 -12c-4 -3.33301 -8 -5.83301 -12 -7.5
s-7 -2.83398 -9 -3.50098c-16.667 0 -25 7 -25 21c0 9.33301 4.33301 20.666 13 33.999s16.834 22.833 24.501 28.5s17.5 8.5 29.5 8.5c12.667 0 27.334 -3 44.001 -9s30.334 -9 41.001 -9c12.667 0 23.667 3.33301 33 10zM296.998 32.002
c-9.33301 -4 -21.667 -11.999 -37 -23.999l-13 -8c-6.66699 -3.33301 -12.667 -5 -18 -5c-3.33301 0 -8 2 -14 6l-7 14c0 4 -0.666992 6.66699 -2 8l-8 -3c-14.667 -16.667 -38 -25 -70 -25c-29.333 0 -52.666 10 -69.999 30c-16 20 -24 49.333 -24 88v238
c0 18 -4 31 -12 39s-12.667 17.333 -14 28c0 11.333 5 20 15 26l22 9c10 4 22 12 36 24l15 9l17 4c16 0 24 -14.333 24 -43v-287c0 -28 2.16699 -47 6.5 -57s11.5 -15 21.5 -15c6.66699 0 15 6 25 18s15 26 15 42v203c0 18 -4 31 -12 39s-13 17.333 -15 28
c0 10 4.33301 18.333 13 25l21 9c13.333 5.33301 26.666 13.666 39.999 24.999c8.66699 6.66699 19 11 31 13c16 0 24 -14.333 24 -43v-313c0 -18 4 -31.333 12 -40s13 -17.667 15 -27c0 -10 -4.33301 -18.333 -13 -25z" />
    <glyph glyph-name="eacute" unicode="&#x439;" horiz-adv-x="355" 
d="M270 635c16.667 0 24.998 -6.66504 24.998 -19.998c0 -9.33301 -4.16699 -20.333 -12.5 -33s-17.166 -22.667 -26.499 -30l-11 -6l-17 -2c-12.667 0 -27.334 3 -44.001 9s-30.334 9 -41.001 9c-12 0 -24 -4 -36 -12c-4 -3.33301 -8 -5.83301 -12 -7.5
s-7 -2.83398 -9 -3.50098c-16.667 0 -25 7 -25 21c0 9.33301 4.33301 20.666 13 33.999s16.834 22.833 24.501 28.5s17.5 8.5 29.5 8.5c12.667 0 27.334 -3 44.001 -9s30.334 -9 41.001 -9c12.667 0 23.667 3.33301 33 10zM296.998 32.002
c-9.33301 -4 -21.667 -11.999 -37 -23.999l-13 -8c-6.66699 -3.33301 -12.667 -5 -18 -5c-3.33301 0 -8 2 -14 6l-7 14c0 4 -0.666992 6.66699 -2 8l-8 -3c-14.667 -16.667 -38 -25 -70 -25c-29.333 0 -52.666 10 -69.999 30c-16 20 -24 49.333 -24 88v238
c0 18 -4 31 -12 39s-12.667 17.333 -14 28c0 11.333 5 20 15 26l22 9c10 4 22 12 36 24l15 9l17 4c16 0 24 -14.333 24 -43v-287c0 -28 2.16699 -47 6.5 -57s11.5 -15 21.5 -15c6.66699 0 15 6 25 18s15 26 15 42v203c0 18 -4 31 -12 39s-13 17.333 -15 28
c0 10 4.33301 18.333 13 25l21 9c13.333 5.33301 26.666 13.666 39.999 24.999c8.66699 6.66699 19 11 31 13c16 0 24 -14.333 24 -43v-313c0 -18 4 -31.333 12 -40s13 -17.667 15 -27c0 -10 -4.33301 -18.333 -13 -25z" />
    <glyph glyph-name="ecircumflex" unicode="&#xea;" horiz-adv-x="346" 
d="M139 0l-102.999 -0.00488281c-17.333 0 -26 5.66699 -26 17c0 7.33301 3.83301 15.166 11.5 23.499s12.5 18.5 14.5 30.5v345c0 10.667 -5.66699 21.667 -17 33c-6 6 -9 12.667 -9 20c0 4 2 8 6 12s10.667 6 20 6h103c6 0 11.333 -1.66699 16 -5s8 -7.66602 10 -12.999
c0 -8 -3.83301 -15.833 -11.5 -23.5s-12.5 -17.5 -14.5 -29.5v-91l3 -4c2 0.666992 3.5 1.33398 4.5 2.00098s1.83301 1.33398 2.5 2.00098l65 102c4 6 2.66699 13 -4 21s-10 15 -10 21c0 4 2 8 6 12s10.667 6 20 6h75c6 0 11.333 -1.66699 16 -5s8 -7.66602 10 -12.999
c0 -10 -3.66699 -17.667 -11 -23c-12 -9.33301 -19.333 -16 -22 -20l-57 -90l-4 -15l3 -14l62 -232c4 -14 9.33301 -25.5 16 -34.5s10 -16.833 10 -23.5c0 -5.33301 -2.66699 -9.66602 -8 -12.999l-18 -4h-88c-10.667 0 -17.834 1.83301 -21.501 5.5s-5.5 7.5 -5.5 11.5
c0 8 2.83301 14.833 8.5 20.5s8.5 11.167 8.5 16.5l-2 10l-31 117c-4 14 -7.66699 21.333 -11 22l-5 -5l-5 -9l-6 -15l-1 -20v-83c0 -8 2.66699 -15.667 8 -23c12 -14 18 -24.333 18 -31c0 -5.33301 -2.66699 -9.66602 -8 -12.999z" />
    <glyph glyph-name="ecircumflex" unicode="&#x43a;" horiz-adv-x="346" 
d="M139 0l-102.999 -0.00488281c-17.333 0 -26 5.66699 -26 17c0 7.33301 3.83301 15.166 11.5 23.499s12.5 18.5 14.5 30.5v345c0 10.667 -5.66699 21.667 -17 33c-6 6 -9 12.667 -9 20c0 4 2 8 6 12s10.667 6 20 6h103c6 0 11.333 -1.66699 16 -5s8 -7.66602 10 -12.999
c0 -8 -3.83301 -15.833 -11.5 -23.5s-12.5 -17.5 -14.5 -29.5v-91l3 -4c2 0.666992 3.5 1.33398 4.5 2.00098s1.83301 1.33398 2.5 2.00098l65 102c4 6 2.66699 13 -4 21s-10 15 -10 21c0 4 2 8 6 12s10.667 6 20 6h75c6 0 11.333 -1.66699 16 -5s8 -7.66602 10 -12.999
c0 -10 -3.66699 -17.667 -11 -23c-12 -9.33301 -19.333 -16 -22 -20l-57 -90l-4 -15l3 -14l62 -232c4 -14 9.33301 -25.5 16 -34.5s10 -16.833 10 -23.5c0 -5.33301 -2.66699 -9.66602 -8 -12.999l-18 -4h-88c-10.667 0 -17.834 1.83301 -21.501 5.5s-5.5 7.5 -5.5 11.5
c0 8 2.83301 14.833 8.5 20.5s8.5 11.167 8.5 16.5l-2 10l-31 117c-4 14 -7.66699 21.333 -11 22l-5 -5l-5 -9l-6 -15l-1 -20v-83c0 -8 2.66699 -15.667 8 -23c12 -14 18 -24.333 18 -31c0 -5.33301 -2.66699 -9.66602 -8 -12.999z" />
    <glyph glyph-name="edieresis" unicode="&#xeb;" horiz-adv-x="310" 
d="M268 0c17.333 0 26 5.66699 26 17c0 6.66699 -5 16 -15 28c-3.33301 4 -6.66602 10.333 -9.99902 19l-82 381l-7 26c-4 10 -11.333 15.333 -22 16h-40c-8 0 -14.333 -2.66699 -19 -8c-3.33301 -5.33301 -6.33301 -15 -9 -29l-61 -383
c-2 -12.667 -6.66699 -21.834 -14 -27.501s-11 -13.167 -11 -22.5c0 -4 2.33301 -8.33301 7 -13l19 -4h58c9.33301 0 16 1.83301 20 5.5s6 7.5 6 11.5c0 8 -3.83301 15.833 -11.5 23.5s-11.5 16.834 -11.5 27.501l31 190c2 12.667 5 20 9 22l4 -8l5 -14l42 -190
c1.33301 -6.66699 -2.33398 -15 -11.001 -25s-13 -18.667 -13 -26c0 -4 2.33301 -8.33301 7 -13l19 -4h84z" />
    <glyph glyph-name="edieresis" unicode="&#x43b;" horiz-adv-x="310" 
d="M268 0c17.333 0 26 5.66699 26 17c0 6.66699 -5 16 -15 28c-3.33301 4 -6.66602 10.333 -9.99902 19l-82 381l-7 26c-4 10 -11.333 15.333 -22 16h-40c-8 0 -14.333 -2.66699 -19 -8c-3.33301 -5.33301 -6.33301 -15 -9 -29l-61 -383
c-2 -12.667 -6.66699 -21.834 -14 -27.501s-11 -13.167 -11 -22.5c0 -4 2.33301 -8.33301 7 -13l19 -4h58c9.33301 0 16 1.83301 20 5.5s6 7.5 6 11.5c0 8 -3.83301 15.833 -11.5 23.5s-11.5 16.834 -11.5 27.501l31 190c2 12.667 5 20 9 22l4 -8l5 -14l42 -190
c1.33301 -6.66699 -2.33398 -15 -11.001 -25s-13 -18.667 -13 -26c0 -4 2.33301 -8.33301 7 -13l19 -4h84z" />
    <glyph glyph-name="igrave" unicode="&#xec;" horiz-adv-x="500" 
d="M447 0h-104c-17.333 0 -26 5.66699 -26 17c0 4.66699 6 15 18 31c4.66699 6.66699 8 14 10 22l-1 9l-36 141c-4 19.333 -8 30 -12 32c-4 0 -7.33301 -8.33301 -10 -25l-27 -147c-3.33301 -14 -6.66602 -23.167 -9.99902 -27.5s-9.33301 -6.5 -18 -6.5h-34
c-7.33301 0 -13.333 2 -18 6s-8 13 -10 27l-23 148c-2 16 -5.33301 24.333 -10 25c-4 0 -8.33301 -10.667 -13 -32l-25 -145c-2 -11.333 1.83301 -22 11.5 -32s14.5 -18.667 14.5 -26c0 -5.33301 -2.66699 -9.66602 -8 -12.999l-18 -4h-59c-9.33301 0 -16 1.83301 -20 5.5
s-6 7.5 -6 11.5c0 6 2 12.667 6 20c10 12.667 16.667 24 20 34l65 357c1.33301 7.33301 -0.833984 13.666 -6.50098 18.999s-9.5 12.666 -11.5 21.999l2 8c4.66699 6.66699 13 10 25 10h47c13.333 0 22.333 -9.66699 27 -29l34 -200c2 -10 5.33301 -15.333 10 -16
c4 0 7.33301 5.66699 10 17l35 195c2 12 4.83301 20.333 8.5 25s10.5 7.33398 20.5 8.00098h45c8 0 14.333 -1.83301 19 -5.5s7 -7.83398 7 -12.501c0 -8 -3 -15 -9 -21s-9 -12.333 -9 -19l90 -365c2 -6.66699 6.66699 -14.167 14 -22.5s11 -16.5 11 -24.5
c0 -5.33301 -2.66699 -9.66602 -8 -12.999z" />
    <glyph glyph-name="igrave" unicode="&#x43c;" horiz-adv-x="500" 
d="M447 0h-104c-17.333 0 -26 5.66699 -26 17c0 4.66699 6 15 18 31c4.66699 6.66699 8 14 10 22l-1 9l-36 141c-4 19.333 -8 30 -12 32c-4 0 -7.33301 -8.33301 -10 -25l-27 -147c-3.33301 -14 -6.66602 -23.167 -9.99902 -27.5s-9.33301 -6.5 -18 -6.5h-34
c-7.33301 0 -13.333 2 -18 6s-8 13 -10 27l-23 148c-2 16 -5.33301 24.333 -10 25c-4 0 -8.33301 -10.667 -13 -32l-25 -145c-2 -11.333 1.83301 -22 11.5 -32s14.5 -18.667 14.5 -26c0 -5.33301 -2.66699 -9.66602 -8 -12.999l-18 -4h-59c-9.33301 0 -16 1.83301 -20 5.5
s-6 7.5 -6 11.5c0 6 2 12.667 6 20c10 12.667 16.667 24 20 34l65 357c1.33301 7.33301 -0.833984 13.666 -6.50098 18.999s-9.5 12.666 -11.5 21.999l2 8c4.66699 6.66699 13 10 25 10h47c13.333 0 22.333 -9.66699 27 -29l34 -200c2 -10 5.33301 -15.333 10 -16
c4 0 7.33301 5.66699 10 17l35 195c2 12 4.83301 20.333 8.5 25s10.5 7.33398 20.5 8.00098h45c8 0 14.333 -1.83301 19 -5.5s7 -7.83398 7 -12.501c0 -8 -3 -15 -9 -21s-9 -12.333 -9 -19l90 -365c2 -6.66699 6.66699 -14.167 14 -22.5s11 -16.5 11 -24.5
c0 -5.33301 -2.66699 -9.66602 -8 -12.999z" />
    <glyph glyph-name="iacute" unicode="&#xed;" horiz-adv-x="355" 
d="M166 311l11.998 -0.000976562c8.66699 0 16.334 4.33301 23.001 13c4.66699 10.667 7 30.667 7 60v32c0 8 -6 19 -18 33c-6 6 -9 12.667 -9 20l2 8c4.66699 6.66699 13 10 25 10h102c8.66699 0 14.834 -1.66699 18.501 -5s6.5 -7.66602 8.5 -12.999c0 -6 -6 -16 -18 -30
c-6 -6 -9 -13.667 -9 -23v-345c0 -8 6 -19 18 -33c6 -6 9 -13 9 -21c0 -5.33301 -2.66699 -9.66602 -8 -12.999l-19 -4h-102c-10.667 0 -17.834 1.83301 -21.501 5.5s-5.5 7.5 -5.5 11.5c0 5.33301 6 15.666 18 30.999c6 6 9 13.667 9 23v108c0 30 -2.16699 49.667 -6.5 59
s-12.166 14 -23.499 14h-12c-10 0 -17.667 -4.66699 -23 -14c-4.66699 -10.667 -7 -30.334 -7 -59.001v-108c0 -8 2.66699 -15.667 8 -23c12 -14 18 -24.333 18 -31c0 -5.33301 -2.66699 -9.66602 -8 -12.999l-18 -4h-103c-17.333 0 -26 5.66699 -26 17
c0 7.33301 3.83301 15.166 11.5 23.499s12.5 18.5 14.5 30.5v281v64c0 10.667 -5.66699 21.667 -17 33c-6 6 -9 12.667 -9 20c0 4 2 8 6 12s10.667 6 20 6h103c6 0 11.333 -1.66699 16 -5s8 -7.66602 10 -12.999c0 -8 -3.83301 -15.833 -11.5 -23.5s-12.5 -17.5 -14.5 -29.5
v-32c0 -29.333 2 -48.833 6 -58.5s12 -14.5 24 -14.5z" />
    <glyph glyph-name="iacute" unicode="&#x43d;" horiz-adv-x="355" 
d="M166 311l11.998 -0.000976562c8.66699 0 16.334 4.33301 23.001 13c4.66699 10.667 7 30.667 7 60v32c0 8 -6 19 -18 33c-6 6 -9 12.667 -9 20l2 8c4.66699 6.66699 13 10 25 10h102c8.66699 0 14.834 -1.66699 18.501 -5s6.5 -7.66602 8.5 -12.999c0 -6 -6 -16 -18 -30
c-6 -6 -9 -13.667 -9 -23v-345c0 -8 6 -19 18 -33c6 -6 9 -13 9 -21c0 -5.33301 -2.66699 -9.66602 -8 -12.999l-19 -4h-102c-10.667 0 -17.834 1.83301 -21.501 5.5s-5.5 7.5 -5.5 11.5c0 5.33301 6 15.666 18 30.999c6 6 9 13.667 9 23v108c0 30 -2.16699 49.667 -6.5 59
s-12.166 14 -23.499 14h-12c-10 0 -17.667 -4.66699 -23 -14c-4.66699 -10.667 -7 -30.334 -7 -59.001v-108c0 -8 2.66699 -15.667 8 -23c12 -14 18 -24.333 18 -31c0 -5.33301 -2.66699 -9.66602 -8 -12.999l-18 -4h-103c-17.333 0 -26 5.66699 -26 17
c0 7.33301 3.83301 15.166 11.5 23.499s12.5 18.5 14.5 30.5v281v64c0 10.667 -5.66699 21.667 -17 33c-6 6 -9 12.667 -9 20c0 4 2 8 6 12s10.667 6 20 6h103c6 0 11.333 -1.66699 16 -5s8 -7.66602 10 -12.999c0 -8 -3.83301 -15.833 -11.5 -23.5s-12.5 -17.5 -14.5 -29.5
v-32c0 -29.333 2 -48.833 6 -58.5s12 -14.5 24 -14.5z" />
    <glyph glyph-name="icircumflex" unicode="&#xee;" horiz-adv-x="292" 
d="M275 230c0 -70 -10.666 -127.666 -31.999 -172.999s-53.333 -68 -96 -68c-34.667 0 -64.667 17.667 -90 53c-34 47.333 -51 117.333 -51 210c0 69.333 10.333 125.666 31 168.999c23.333 48 55.666 72 96.999 72c34.667 0 64.667 -17.667 90 -53
c34 -47.333 51 -117.333 51 -210zM177.001 267.001c-14 36.667 -26.667 63.332 -38 79.999c-15.333 26 -29.666 39 -42.999 39c-12.667 0 -19 -12 -19 -36l1 -25c0 -4.66699 0.833008 -10.5 2.5 -17.5s3.5 -13.833 5.5 -20.5c4 -21.333 10.333 -40.333 19 -57
c12 -33.333 24.333 -60 37 -80c15.333 -26 29.666 -39 42.999 -39c12.667 0 19 12.667 19 38l-1 25c0 6.66699 -2.33301 18.334 -7 35.001c-4 18.667 -10.333 38 -19 58z" />
    <glyph glyph-name="icircumflex" unicode="&#x43e;" horiz-adv-x="292" 
d="M275 230c0 -70 -10.666 -127.666 -31.999 -172.999s-53.333 -68 -96 -68c-34.667 0 -64.667 17.667 -90 53c-34 47.333 -51 117.333 -51 210c0 69.333 10.333 125.666 31 168.999c23.333 48 55.666 72 96.999 72c34.667 0 64.667 -17.667 90 -53
c34 -47.333 51 -117.333 51 -210zM177.001 267.001c-14 36.667 -26.667 63.332 -38 79.999c-15.333 26 -29.666 39 -42.999 39c-12.667 0 -19 -12 -19 -36l1 -25c0 -4.66699 0.833008 -10.5 2.5 -17.5s3.5 -13.833 5.5 -20.5c4 -21.333 10.333 -40.333 19 -57
c12 -33.333 24.333 -60 37 -80c15.333 -26 29.666 -39 42.999 -39c12.667 0 19 12.667 19 38l-1 25c0 6.66699 -2.33301 18.334 -7 35.001c-4 18.667 -10.333 38 -19 58z" />
    <glyph glyph-name="idieresis" unicode="&#xef;" horiz-adv-x="361" 
d="M37 348c0 18 -4.00098 31 -12.001 39s-12.667 17.333 -14 28c0 11.333 5 20 15 26l22 9c10 4 22 12 36 24l12 8c4 2 10.333 3.66699 19 5c4.66699 0 10.334 -3.33301 17.001 -10l4 -5l5 -1l7 4c8 8 18.333 12 31 12c41.333 0 73.666 -29 96.999 -87
c24.667 -70 37 -179.667 37 -329c0 -8 6 -19 18 -33c6 -6 9 -13 9 -21c0 -5.33301 -2.66699 -9.66602 -8 -12.999l-19 -4h-103c-17.333 0 -26 5.66699 -26 17c0 7.33301 3.83301 15.166 11.5 23.499s12.5 18.5 14.5 30.5c0 117.333 -5.16699 199 -15.5 245
s-25.166 69 -44.499 69l-8 -5l-2 -25v-284c0 -8 2.66699 -15.667 8 -23c12 -14 18 -24.333 18 -31c0 -5.33301 -2.66699 -9.66602 -8 -12.999l-18 -4h-103c-9.33301 0 -16 1.83301 -20 5.5s-6 7.5 -6 11.5c0 7.33301 3.83301 15.166 11.5 23.499s12.5 18.5 14.5 30.5v277z
" />
    <glyph glyph-name="idieresis" unicode="&#x43f;" horiz-adv-x="361" 
d="M37 348c0 18 -4.00098 31 -12.001 39s-12.667 17.333 -14 28c0 11.333 5 20 15 26l22 9c10 4 22 12 36 24l12 8c4 2 10.333 3.66699 19 5c4.66699 0 10.334 -3.33301 17.001 -10l4 -5l5 -1l7 4c8 8 18.333 12 31 12c41.333 0 73.666 -29 96.999 -87
c24.667 -70 37 -179.667 37 -329c0 -8 6 -19 18 -33c6 -6 9 -13 9 -21c0 -5.33301 -2.66699 -9.66602 -8 -12.999l-19 -4h-103c-17.333 0 -26 5.66699 -26 17c0 7.33301 3.83301 15.166 11.5 23.499s12.5 18.5 14.5 30.5c0 117.333 -5.16699 199 -15.5 245
s-25.166 69 -44.499 69l-8 -5l-2 -25v-284c0 -8 2.66699 -15.667 8 -23c12 -14 18 -24.333 18 -31c0 -5.33301 -2.66699 -9.66602 -8 -12.999l-18 -4h-103c-9.33301 0 -16 1.83301 -20 5.5s-6 7.5 -6 11.5c0 7.33301 3.83301 15.166 11.5 23.499s12.5 18.5 14.5 30.5v277z
" />
    <glyph glyph-name="eth" unicode="&#xf0;" horiz-adv-x="323" 
d="M141 475l14.001 9c5.33301 4.66699 13.666 8 24.999 10c36 0 66 -28.167 90 -84.5s36 -121.5 36 -195.5s-11 -131 -33 -171c-18 -33.333 -41.667 -50 -71 -50c-14 0 -26.333 4.33301 -37 13l-17 14c-8.66699 0 -13 -7 -13 -21v-93c0 -10.667 5.66699 -21.667 17 -33
c6 -6 9 -12.667 9 -20c0 -4 -2.16699 -8 -6.5 -12s-10.833 -6 -19.5 -6h-103c-6 0 -12.667 2 -20 6c-4 4 -6 8 -6 12c0 8 3.83301 15.833 11.5 23.5s12.5 17.5 14.5 29.5v447c0 18 -4 31 -12 39s-12.667 17.333 -14 28c0 11.333 5 20 15 26l22 9c12 4 24 11.167 36 21.5
s22.667 15.5 32 15.5c6 0 11.667 -2.66699 17 -8zM135.001 290v-79.0029c0 -29.333 3 -52.5 9 -69.5s14 -26.5 24 -28.5c14 0 25 14.667 33 44s12 68 12 116s-4 85.833 -12 113.5s-17 40.834 -27 39.501c-10 0 -19.333 -12.667 -28 -38
c-3.33301 -11.333 -6 -25.166 -8 -41.499s-3 -35.166 -3 -56.499z" />
    <glyph glyph-name="eth" unicode="&#x440;" horiz-adv-x="323" 
d="M141 475l14.001 9c5.33301 4.66699 13.666 8 24.999 10c36 0 66 -28.167 90 -84.5s36 -121.5 36 -195.5s-11 -131 -33 -171c-18 -33.333 -41.667 -50 -71 -50c-14 0 -26.333 4.33301 -37 13l-17 14c-8.66699 0 -13 -7 -13 -21v-93c0 -10.667 5.66699 -21.667 17 -33
c6 -6 9 -12.667 9 -20c0 -4 -2.16699 -8 -6.5 -12s-10.833 -6 -19.5 -6h-103c-6 0 -12.667 2 -20 6c-4 4 -6 8 -6 12c0 8 3.83301 15.833 11.5 23.5s12.5 17.5 14.5 29.5v447c0 18 -4 31 -12 39s-12.667 17.333 -14 28c0 11.333 5 20 15 26l22 9c12 4 24 11.167 36 21.5
s22.667 15.5 32 15.5c6 0 11.667 -2.66699 17 -8zM135.001 290v-79.0029c0 -29.333 3 -52.5 9 -69.5s14 -26.5 24 -28.5c14 0 25 14.667 33 44s12 68 12 116s-4 85.833 -12 113.5s-17 40.834 -27 39.501c-10 0 -19.333 -12.667 -28 -38
c-3.33301 -11.333 -6 -25.166 -8 -41.499s-3 -35.166 -3 -56.499z" />
    <glyph glyph-name="ntilde" unicode="&#xf1;" horiz-adv-x="272" 
d="M254 117c0 -38 -11.3311 -68.0029 -33.998 -90.0029c-22.667 -20.667 -48.334 -31 -77.001 -31c-48 0 -83.333 21.333 -106 64c-19.333 36.667 -29 88.667 -29 156c0 82.667 14 149 42 199s63.667 75 107 75c25.333 0 46.5 -10.333 63.5 -31s25.5 -46 25.5 -76
c0 -18.667 -7.33301 -35 -22 -49c-14.667 -12.667 -29 -19 -43 -19c-6 0 -11.167 2.66699 -15.5 8s-6.5 14 -6.5 26l2 19l3 23c0 10.667 -2.83301 19.834 -8.5 27.501s-13.5 11.834 -23.5 12.501c-10.667 0 -22.334 -13.667 -35.001 -41c-10 -26 -15 -57 -15 -93
c0 -55.333 10 -101.666 30 -138.999c16 -30 33.667 -45 53 -45c14 0 25 11 33 33s17.667 33 29 33c18 0 27 -20.667 27 -62z" />
    <glyph glyph-name="ntilde" unicode="&#x441;" horiz-adv-x="272" 
d="M254 117c0 -38 -11.3311 -68.0029 -33.998 -90.0029c-22.667 -20.667 -48.334 -31 -77.001 -31c-48 0 -83.333 21.333 -106 64c-19.333 36.667 -29 88.667 -29 156c0 82.667 14 149 42 199s63.667 75 107 75c25.333 0 46.5 -10.333 63.5 -31s25.5 -46 25.5 -76
c0 -18.667 -7.33301 -35 -22 -49c-14.667 -12.667 -29 -19 -43 -19c-6 0 -11.167 2.66699 -15.5 8s-6.5 14 -6.5 26l2 19l3 23c0 10.667 -2.83301 19.834 -8.5 27.501s-13.5 11.834 -23.5 12.501c-10.667 0 -22.334 -13.667 -35.001 -41c-10 -26 -15 -57 -15 -93
c0 -55.333 10 -101.666 30 -138.999c16 -30 33.667 -45 53 -45c14 0 25 11 33 33s17.667 33 29 33c18 0 27 -20.667 27 -62z" />
    <glyph glyph-name="ograve" unicode="&#xf2;" horiz-adv-x="523" 
d="M178 385c-11.333 0 -20.6641 -5.00098 -27.9971 -15.001c-5.33301 -9.33301 -8 -24 -8 -44v-255c0 -8 2.66699 -15.667 8 -23c12 -14 18 -24.333 18 -31c0 -5.33301 -2.66699 -9.66602 -8 -12.999l-18 -4h-103c-9.33301 -0 -16 1.83301 -20 5.5s-6 7.5 -6 11.5
c0 7.33301 3.83301 15.166 11.5 23.499s12.5 18.5 14.5 30.5v277c0 18 -4 31 -12 39s-12.667 17.333 -14 28c0 11.333 5 20 15 26l21 9c9.33301 4 21.666 12 36.999 24l12 8c4 2 10.333 3.66699 19 5c6 0 11 -2 15 -6l8 -14c2 -6 6 -9 12 -9c8.66699 0 16.667 2.33301 24 7
l23 14c4.66699 3.33301 13 6 25 8c6 0 10.667 -0.5 14 -1.5s8.5 -3.5 15.5 -7.5s16.167 -13 27.5 -27l11 -4c6 0 12.333 3.33301 19 10l13 16c7.33301 8.66699 16.666 13 27.999 13c41.333 0 71.333 -28.667 90 -86c21.333 -66 32 -175.667 32 -329c0 -8 6 -19 18 -33
c6 -6 9 -13 9 -21c0 -5.33301 -2.66699 -9.66602 -8 -12.999l-19 -4h-102c-10.667 -0 -17.834 1.83301 -21.501 5.5s-5.5 7.5 -5.5 11.5c0 5.33301 6 15.666 18 30.999c6 6 9 13.667 9 23c0 108 -3.16699 187 -9.5 237s-18.166 75 -35.499 75
c-4 0 -8.33301 -4.66699 -13 -14s-7 -19.666 -7 -30.999v-267c0 -8 6 -19 18 -33c6 -6 9 -13 9 -21c0 -5.33301 -2.66699 -9.66602 -8 -12.999l-19 -4h-101c-10.667 0 -17.834 1.83301 -21.501 5.5s-5.5 7.5 -5.5 11.5c0 5.33301 6 15.666 18 30.999c6 6 9 13.667 9 23v255
c0 18 -1.83301 32.333 -5.5 43s-11.167 16 -22.5 16z" />
    <glyph glyph-name="ograve" unicode="&#x442;" horiz-adv-x="523" 
d="M178 385c-11.333 0 -20.6641 -5.00098 -27.9971 -15.001c-5.33301 -9.33301 -8 -24 -8 -44v-255c0 -8 2.66699 -15.667 8 -23c12 -14 18 -24.333 18 -31c0 -5.33301 -2.66699 -9.66602 -8 -12.999l-18 -4h-103c-9.33301 -0 -16 1.83301 -20 5.5s-6 7.5 -6 11.5
c0 7.33301 3.83301 15.166 11.5 23.499s12.5 18.5 14.5 30.5v277c0 18 -4 31 -12 39s-12.667 17.333 -14 28c0 11.333 5 20 15 26l21 9c9.33301 4 21.666 12 36.999 24l12 8c4 2 10.333 3.66699 19 5c6 0 11 -2 15 -6l8 -14c2 -6 6 -9 12 -9c8.66699 0 16.667 2.33301 24 7
l23 14c4.66699 3.33301 13 6 25 8c6 0 10.667 -0.5 14 -1.5s8.5 -3.5 15.5 -7.5s16.167 -13 27.5 -27l11 -4c6 0 12.333 3.33301 19 10l13 16c7.33301 8.66699 16.666 13 27.999 13c41.333 0 71.333 -28.667 90 -86c21.333 -66 32 -175.667 32 -329c0 -8 6 -19 18 -33
c6 -6 9 -13 9 -21c0 -5.33301 -2.66699 -9.66602 -8 -12.999l-19 -4h-102c-10.667 -0 -17.834 1.83301 -21.501 5.5s-5.5 7.5 -5.5 11.5c0 5.33301 6 15.666 18 30.999c6 6 9 13.667 9 23c0 108 -3.16699 187 -9.5 237s-18.166 75 -35.499 75
c-4 0 -8.33301 -4.66699 -13 -14s-7 -19.666 -7 -30.999v-267c0 -8 6 -19 18 -33c6 -6 9 -13 9 -21c0 -5.33301 -2.66699 -9.66602 -8 -12.999l-19 -4h-101c-10.667 0 -17.834 1.83301 -21.501 5.5s-5.5 7.5 -5.5 11.5c0 5.33301 6 15.666 18 30.999c6 6 9 13.667 9 23v255
c0 18 -1.83301 32.333 -5.5 43s-11.167 16 -22.5 16z" />
    <glyph glyph-name="oacute" unicode="&#xf3;" horiz-adv-x="310" 
d="M120 487c8 0 14.332 -1.83496 18.999 -5.50195s7 -7.83398 7 -12.501c0 -6 -2.5 -12 -7.5 -18s-7.16699 -13.667 -6.5 -23l30 -146c2 -8 4.66699 -12 8 -12l4 4l4 11l26 140c0 6 -3.33301 12.333 -10 19s-10.667 15 -12 25l2 8c4.66699 6.66699 13 10 25 10h62
c6 0 11.333 -1.66699 16 -5s8 -7.66602 10 -12.999c0 -6 -3.83301 -12.833 -11.5 -20.5s-13.5 -17.167 -17.5 -28.5l-89 -463c-8 -41.333 -19.667 -69.666 -35 -84.999c-14 -15.333 -37 -23 -69 -23c-20 0 -36.667 8.66699 -50 26c-12 17.333 -18 42.333 -18 75l3 25
c2 6 7.66699 9 17 9c7.33301 0 14.333 -4.33301 21 -13c12.667 -17.333 23.334 -27 32.001 -29c11.333 0 21 6 29 18c3.33301 5.33301 6 11.833 8 19.5s3 16.5 3 26.5c0 8.66699 -1.33301 19.334 -4 32.001l-5 27l-77 363c-2 6 -7 12 -15 18s-12 13.667 -12 23c0 4 2 8 6 12
s10.667 6 20 6h87z" />
    <glyph glyph-name="oacute" unicode="&#x443;" horiz-adv-x="310" 
d="M120 487c8 0 14.332 -1.83496 18.999 -5.50195s7 -7.83398 7 -12.501c0 -6 -2.5 -12 -7.5 -18s-7.16699 -13.667 -6.5 -23l30 -146c2 -8 4.66699 -12 8 -12l4 4l4 11l26 140c0 6 -3.33301 12.333 -10 19s-10.667 15 -12 25l2 8c4.66699 6.66699 13 10 25 10h62
c6 0 11.333 -1.66699 16 -5s8 -7.66602 10 -12.999c0 -6 -3.83301 -12.833 -11.5 -20.5s-13.5 -17.167 -17.5 -28.5l-89 -463c-8 -41.333 -19.667 -69.666 -35 -84.999c-14 -15.333 -37 -23 -69 -23c-20 0 -36.667 8.66699 -50 26c-12 17.333 -18 42.333 -18 75l3 25
c2 6 7.66699 9 17 9c7.33301 0 14.333 -4.33301 21 -13c12.667 -17.333 23.334 -27 32.001 -29c11.333 0 21 6 29 18c3.33301 5.33301 6 11.833 8 19.5s3 16.5 3 26.5c0 8.66699 -1.33301 19.334 -4 32.001l-5 27l-77 363c-2 6 -7 12 -15 18s-12 13.667 -12 23c0 4 2 8 6 12
s10.667 6 20 6h87z" />
    <glyph glyph-name="ocircumflex" unicode="&#xf4;" horiz-adv-x="473" 
d="M280 -165l-101.999 0.000976562c-7.33301 0 -13.333 1.66699 -18 5s-7.66699 7.66602 -9 12.999c0 6 6 16 18 30c6 6 9 13.667 9 23v93c0 14 -4.66699 21 -14 21l-24 -19c-8.66699 -5.33301 -18.334 -8 -29.001 -8c-26.667 0 -50.667 17.667 -72 53s-32 91.333 -32 168
c0 72.667 11.833 137.5 35.5 194.5s53.5 85.5 89.5 85.5c24 0 44.667 -4 62 -12l35 -27c8 10 19.5 19 34.5 27s35.833 12 62.5 12c36 0 66.333 -29.333 91 -88c22.667 -56.667 34 -120.667 34 -192c0 -74 -11 -131 -33 -171c-18 -33.333 -41.667 -50 -71 -50
c-11.333 0 -21 2.66699 -29 8l-24 19c-9.33301 0 -14 -7 -14 -21v-93c0 -8 6 -19 18 -33c6 -6 9 -12.667 9 -20l-2 -8c-4.66699 -6.66699 -13 -10 -25 -10zM280.001 290.001v-79.0029c0 -29.333 3 -52.5 9 -69.5s14 -26.5 24 -28.5c12 0 23 15 33 45
c8.66699 34.667 13 73 13 115c0 50.667 -4.16699 88.834 -12.5 114.501s-17.5 38.5 -27.5 38.5s-19.333 -12.667 -28 -38c-3.33301 -11.333 -6 -25.166 -8 -41.499s-3 -35.166 -3 -56.499zM178.001 289.998c0 43.333 -3.66895 76.833 -11.002 100.5
s-16.666 35.5 -27.999 35.5c-8 1.33301 -17 -11.667 -27 -39c-8.66699 -31.333 -13 -69.333 -13 -114c0 -45.333 4 -83.333 12 -114s19.333 -46 34 -46c6.66699 0 13.834 9.16699 21.501 27.5s11.5 41.833 11.5 70.5v79z" />
    <glyph glyph-name="ocircumflex" unicode="&#x444;" horiz-adv-x="473" 
d="M280 -165l-101.999 0.000976562c-7.33301 0 -13.333 1.66699 -18 5s-7.66699 7.66602 -9 12.999c0 6 6 16 18 30c6 6 9 13.667 9 23v93c0 14 -4.66699 21 -14 21l-24 -19c-8.66699 -5.33301 -18.334 -8 -29.001 -8c-26.667 0 -50.667 17.667 -72 53s-32 91.333 -32 168
c0 72.667 11.833 137.5 35.5 194.5s53.5 85.5 89.5 85.5c24 0 44.667 -4 62 -12l35 -27c8 10 19.5 19 34.5 27s35.833 12 62.5 12c36 0 66.333 -29.333 91 -88c22.667 -56.667 34 -120.667 34 -192c0 -74 -11 -131 -33 -171c-18 -33.333 -41.667 -50 -71 -50
c-11.333 0 -21 2.66699 -29 8l-24 19c-9.33301 0 -14 -7 -14 -21v-93c0 -8 6 -19 18 -33c6 -6 9 -12.667 9 -20l-2 -8c-4.66699 -6.66699 -13 -10 -25 -10zM280.001 290.001v-79.0029c0 -29.333 3 -52.5 9 -69.5s14 -26.5 24 -28.5c12 0 23 15 33 45
c8.66699 34.667 13 73 13 115c0 50.667 -4.16699 88.834 -12.5 114.501s-17.5 38.5 -27.5 38.5s-19.333 -12.667 -28 -38c-3.33301 -11.333 -6 -25.166 -8 -41.499s-3 -35.166 -3 -56.499zM178.001 289.998c0 43.333 -3.66895 76.833 -11.002 100.5
s-16.666 35.5 -27.999 35.5c-8 1.33301 -17 -11.667 -27 -39c-8.66699 -31.333 -13 -69.333 -13 -114c0 -45.333 4 -83.333 12 -114s19.333 -46 34 -46c6.66699 0 13.834 9.16699 21.501 27.5s11.5 41.833 11.5 70.5v79z" />
    <glyph glyph-name="otilde" unicode="&#xf5;" horiz-adv-x="333" 
d="M188 67l-29.002 70.9912c-2 6 -4.66699 9.33301 -8 10l-7 -10l-24 -71c-2 -8 1 -16.333 9 -25c9.33301 -8 14 -16.333 14 -25c0 -5.33301 -2.66699 -9.66602 -8 -12.999l-19 -4h-82c-17.333 0 -26 5.66699 -26 17c0 6.66699 4.83301 13.667 14.5 21s16.5 15.333 20.5 24
l54 165c6 16 8.33301 27.333 7 34l-68 168c-2 2 -3.33301 3.66699 -4 5c-3.33301 4 -7.66602 7.66699 -12.999 11c-10.667 8.66699 -16 17 -16 25c0 4 2 8 6 12s10.667 6 20 6h97c6 0 11.333 -1.66699 16 -5s8 -7.66602 10 -12.999c0 -8 -4.16699 -16.167 -12.5 -24.5
s-10.833 -16.5 -7.5 -24.5l23 -57c2 -5.33301 5 -9 9 -11l7 11l19 58c2 8 -1.16699 16 -9.5 24s-12.5 16.333 -12.5 25c0 4 2 8 6 12s10.667 6 20 6h82c8.66699 0 14.834 -1.66699 18.501 -5s6.5 -7.66602 8.5 -12.999c0 -5.33301 -5 -11.666 -15 -18.999
s-16.667 -15.666 -20 -24.999l-55 -165l-2 -13c0 -6 1.66699 -13.333 5 -22l68 -168c2 -1.33301 3.33301 -2.66602 4 -3.99902c4.66699 -5.33301 9 -9.66602 13 -12.999c10.667 -7.33301 16 -15.666 16 -24.999c0 -5.33301 -2.66699 -9.66602 -8 -12.999l-18 -4h-97
c-17.333 0 -26 5.66699 -26 17c0 7.33301 3.83301 15 11.5 23s10.5 17 8.5 27z" />
    <glyph glyph-name="otilde" unicode="&#x445;" horiz-adv-x="333" 
d="M188 67l-29.002 70.9912c-2 6 -4.66699 9.33301 -8 10l-7 -10l-24 -71c-2 -8 1 -16.333 9 -25c9.33301 -8 14 -16.333 14 -25c0 -5.33301 -2.66699 -9.66602 -8 -12.999l-19 -4h-82c-17.333 0 -26 5.66699 -26 17c0 6.66699 4.83301 13.667 14.5 21s16.5 15.333 20.5 24
l54 165c6 16 8.33301 27.333 7 34l-68 168c-2 2 -3.33301 3.66699 -4 5c-3.33301 4 -7.66602 7.66699 -12.999 11c-10.667 8.66699 -16 17 -16 25c0 4 2 8 6 12s10.667 6 20 6h97c6 0 11.333 -1.66699 16 -5s8 -7.66602 10 -12.999c0 -8 -4.16699 -16.167 -12.5 -24.5
s-10.833 -16.5 -7.5 -24.5l23 -57c2 -5.33301 5 -9 9 -11l7 11l19 58c2 8 -1.16699 16 -9.5 24s-12.5 16.333 -12.5 25c0 4 2 8 6 12s10.667 6 20 6h82c8.66699 0 14.834 -1.66699 18.501 -5s6.5 -7.66602 8.5 -12.999c0 -5.33301 -5 -11.666 -15 -18.999
s-16.667 -15.666 -20 -24.999l-55 -165l-2 -13c0 -6 1.66699 -13.333 5 -22l68 -168c2 -1.33301 3.33301 -2.66602 4 -3.99902c4.66699 -5.33301 9 -9.66602 13 -12.999c10.667 -7.33301 16 -15.666 16 -24.999c0 -5.33301 -2.66699 -9.66602 -8 -12.999l-18 -4h-97
c-17.333 0 -26 5.66699 -26 17c0 7.33301 3.83301 15 11.5 23s10.5 17 8.5 27z" />
    <glyph glyph-name="odieresis" unicode="&#xf6;" horiz-adv-x="353" 
d="M136 447l0.000976562 -287c0 -28 2.16699 -47 6.5 -57s11.5 -15 21.5 -15c6.66699 0 15 6 25 18s15 26 15 42v203c0 18 -4 31 -12 39s-12.667 17.333 -14 28c0 11.333 5 20 15 26l21 9c9.33301 4 21.666 12 36.999 24c8.66699 6.66699 19 11 31 13
c16.667 0 25 -14.333 25 -43v-321c0 -8.66699 1.16699 -15.5 3.5 -20.5s6.16602 -9.83301 11.499 -14.5c5.33301 -6 9 -15.333 11 -28l-7 -28l-13 -34c-14 -33.333 -24 -54.333 -30 -63s-14.667 -14 -26 -16c-10 0 -15 7.33301 -15 22v18c2 6 3.33301 10.333 4 13l4 26
c0 23.333 -9 35 -27 35l-32 -21l-14 -8.5c-4 -2.33301 -10.333 -4.83301 -19 -7.5s-19 -4 -31 -4c-29.333 0 -52.666 10 -69.999 30c-16 20 -24 49.333 -24 88v238c0 18 -4 31 -12 39s-12.667 17.333 -14 28c0 11.333 5 20 15 26l22 9c10 4 22 12 36 24l15 9l17 4
c16 0 24 -14.333 24 -43z" />
    <glyph glyph-name="odieresis" unicode="&#x446;" horiz-adv-x="353" 
d="M136 447l0.000976562 -287c0 -28 2.16699 -47 6.5 -57s11.5 -15 21.5 -15c6.66699 0 15 6 25 18s15 26 15 42v203c0 18 -4 31 -12 39s-12.667 17.333 -14 28c0 11.333 5 20 15 26l21 9c9.33301 4 21.666 12 36.999 24c8.66699 6.66699 19 11 31 13
c16.667 0 25 -14.333 25 -43v-321c0 -8.66699 1.16699 -15.5 3.5 -20.5s6.16602 -9.83301 11.499 -14.5c5.33301 -6 9 -15.333 11 -28l-7 -28l-13 -34c-14 -33.333 -24 -54.333 -30 -63s-14.667 -14 -26 -16c-10 0 -15 7.33301 -15 22v18c2 6 3.33301 10.333 4 13l4 26
c0 23.333 -9 35 -27 35l-32 -21l-14 -8.5c-4 -2.33301 -10.333 -4.83301 -19 -7.5s-19 -4 -31 -4c-29.333 0 -52.666 10 -69.999 30c-16 20 -24 49.333 -24 88v238c0 18 -4 31 -12 39s-12.667 17.333 -14 28c0 11.333 5 20 15 26l22 9c10 4 22 12 36 24l15 9l17 4
c16 0 24 -14.333 24 -43z" />
    <glyph glyph-name="divide" unicode="&#xf7;" horiz-adv-x="339" 
d="M134 448l-0.00195312 -159c0 -28 2 -46.833 6 -56.5s11.333 -14.834 22 -15.501c8 0 15.333 5.66699 22 17c2.66699 6 5 12.167 7 18.5s3 14.5 3 24.5v75c0 18 -4 31 -12 39s-12.667 17.333 -14 28c0 11.333 5 20 15 26l22 9c10.667 4 23 12 37 24
c8.66699 6.66699 19 11 31 13c16 0 24 -14.333 24 -43v-313c0 -17.333 4 -31 12 -41c7.33301 -7.33301 12 -16 14 -26c0 -11.333 -6 -20.666 -18 -27.999l-19 -7c-9.33301 -4 -21.666 -12 -36.999 -24l-13 -8c-6.66699 -3.33301 -12.667 -5 -18 -5c-4 0 -9 3 -15 9
c-4 6 -7 14 -9 24v138c0 4.66699 -0.666992 7.66699 -2 9l-6 -1c-3.33301 -4 -11.333 -10.667 -24 -20c-9.33301 -4 -21.666 -6 -36.999 -6c-29.333 0 -52.666 10 -69.999 30c-16 20 -24 49.333 -24 88v85c0 18 -4 31 -12 39s-12.667 17.333 -14 28c0 11.333 5 20 15 26
l22 9c9.33301 4 21.666 12 36.999 24c8.66699 6.66699 19 11 31 13c16 0 24 -14.333 24 -43z" />
    <glyph glyph-name="divide" unicode="&#x447;" horiz-adv-x="339" 
d="M134 448l-0.00195312 -159c0 -28 2 -46.833 6 -56.5s11.333 -14.834 22 -15.501c8 0 15.333 5.66699 22 17c2.66699 6 5 12.167 7 18.5s3 14.5 3 24.5v75c0 18 -4 31 -12 39s-12.667 17.333 -14 28c0 11.333 5 20 15 26l22 9c10.667 4 23 12 37 24
c8.66699 6.66699 19 11 31 13c16 0 24 -14.333 24 -43v-313c0 -17.333 4 -31 12 -41c7.33301 -7.33301 12 -16 14 -26c0 -11.333 -6 -20.666 -18 -27.999l-19 -7c-9.33301 -4 -21.666 -12 -36.999 -24l-13 -8c-6.66699 -3.33301 -12.667 -5 -18 -5c-4 0 -9 3 -15 9
c-4 6 -7 14 -9 24v138c0 4.66699 -0.666992 7.66699 -2 9l-6 -1c-3.33301 -4 -11.333 -10.667 -24 -20c-9.33301 -4 -21.666 -6 -36.999 -6c-29.333 0 -52.666 10 -69.999 30c-16 20 -24 49.333 -24 88v85c0 18 -4 31 -12 39s-12.667 17.333 -14 28c0 11.333 5 20 15 26
l22 9c9.33301 4 21.666 12 36.999 24c8.66699 6.66699 19 11 31 13c16 0 24 -14.333 24 -43z" />
    <glyph glyph-name="oslash" unicode="&#xf8;" horiz-adv-x="527" 
d="M466 33c-9.33301 -4 -21.666 -11.999 -36.999 -23.999l-13 -8c-6.66699 -3.33301 -12.667 -5 -18 -5c-4 0 -8.33301 2.33301 -13 7l-8 11c-3.33301 4.66699 -7.33301 8 -12 10l-8 -3c-10 -7.33301 -22 -13.5 -36 -18.5s-31.667 -7.5 -53 -7.5c-12 0 -23.333 2 -34 6
s-17.167 8.16699 -19.5 12.5s-5.83301 7.5 -10.5 9.5l-8 -3c-10 -8 -20.333 -14.167 -31 -18.5s-23.667 -6.5 -39 -6.5c-29.333 0 -52.666 10 -69.999 30c-16 20 -24 49.333 -24 88v238c0 18 -4 31 -12 39s-12.667 17.333 -14 28c0 11.333 5 20 15 26l22 9
c10.667 4 23 12 37 24c8.66699 6.66699 19 11 31 13c16 0 24 -14.333 24 -43v-287c0 -28 2.16699 -47 6.5 -57s11.5 -15 21.5 -15c6.66699 0 15 6 25 18s15 26 15 42v204c0 18 -4 31 -12 39s-12.667 17.333 -14 28c0 11.333 5 20 15 26l21 9c9.33301 4 21.666 12 36.999 24
c8.66699 6.66699 19 11 31 13c16.667 0 25 -14.333 25 -43v-287c0 -28 2 -46.833 6 -56.5s11.333 -14.834 22 -15.501c8 0 16.5 6 25.5 18s13.5 25.667 13.5 41v204c0 18 -4 31 -12 39s-12.667 17.333 -14 28c0 10 4.33301 18.333 13 25l21 9
c13.333 5.33301 26.666 13.666 39.999 24.999c8.66699 6.66699 19 11 31 13c16 0 24 -14.333 24 -43v-313c0 -17.333 4 -31 12 -41c7.33301 -7.33301 12 -16 14 -26c0 -11.333 -6 -20.666 -18 -27.999z" />
    <glyph glyph-name="oslash" unicode="&#x448;" horiz-adv-x="527" 
d="M466 33c-9.33301 -4 -21.666 -11.999 -36.999 -23.999l-13 -8c-6.66699 -3.33301 -12.667 -5 -18 -5c-4 0 -8.33301 2.33301 -13 7l-8 11c-3.33301 4.66699 -7.33301 8 -12 10l-8 -3c-10 -7.33301 -22 -13.5 -36 -18.5s-31.667 -7.5 -53 -7.5c-12 0 -23.333 2 -34 6
s-17.167 8.16699 -19.5 12.5s-5.83301 7.5 -10.5 9.5l-8 -3c-10 -8 -20.333 -14.167 -31 -18.5s-23.667 -6.5 -39 -6.5c-29.333 0 -52.666 10 -69.999 30c-16 20 -24 49.333 -24 88v238c0 18 -4 31 -12 39s-12.667 17.333 -14 28c0 11.333 5 20 15 26l22 9
c10.667 4 23 12 37 24c8.66699 6.66699 19 11 31 13c16 0 24 -14.333 24 -43v-287c0 -28 2.16699 -47 6.5 -57s11.5 -15 21.5 -15c6.66699 0 15 6 25 18s15 26 15 42v204c0 18 -4 31 -12 39s-12.667 17.333 -14 28c0 11.333 5 20 15 26l21 9c9.33301 4 21.666 12 36.999 24
c8.66699 6.66699 19 11 31 13c16.667 0 25 -14.333 25 -43v-287c0 -28 2 -46.833 6 -56.5s11.333 -14.834 22 -15.501c8 0 16.5 6 25.5 18s13.5 25.667 13.5 41v204c0 18 -4 31 -12 39s-12.667 17.333 -14 28c0 10 4.33301 18.333 13 25l21 9
c13.333 5.33301 26.666 13.666 39.999 24.999c8.66699 6.66699 19 11 31 13c16 0 24 -14.333 24 -43v-313c0 -17.333 4 -31 12 -41c7.33301 -7.33301 12 -16 14 -26c0 -11.333 -6 -20.666 -18 -27.999z" />
    <glyph glyph-name="ugrave" unicode="&#xf9;" horiz-adv-x="513" 
d="M112 447l0.000976562 -286.997c0 -28 2.16699 -47 6.5 -57s11.5 -15 21.5 -15c6 0 14.667 6 26 18c8.66699 14 13 28 13 42v204c0 18 -4 31 -12 39s-12.667 17.333 -14 28c0 10 4.33301 18.333 13 25l21 9c13.333 5.33301 26.666 13.666 39.999 24.999
c8.66699 6.66699 19 11 31 13c16 0 24 -14.333 24 -43v-287c0 -28 2 -46.833 6 -56.5s11.333 -14.834 22 -15.501c9.33301 0 18.333 5.66699 27 17c8.66699 13.333 13 27.333 13 42v204c0 18 -4 31 -12 39s-12.667 17.333 -14 28c0 11.333 5 20 15 26l22 9
c9.33301 4 21.666 12 36.999 24c8.66699 6.66699 19 11 31 13c16 0 24 -14.333 24 -43v-321c0 -8 0.666992 -13.667 2 -17l13 -19c7.33301 -8.66699 11 -17.667 11 -27c0 -6 -2 -15 -6 -27l-13 -35c-14 -33.333 -24 -54.333 -30 -63s-14.667 -14 -26 -16
c-10.667 0 -16 7.33301 -16 22c0 13.333 0.666992 21.333 2 24l7 33c0 23.333 -9 35 -27 35l-9 -5c-8.66699 -4.66699 -16.667 -10 -24 -16c-18.667 -13.333 -39.667 -20 -63 -20c-15.333 0 -32.5 2 -51.5 6s-29.5 8 -31.5 12s-5.66699 7 -11 9l-7 -3
c-7.33301 -5.33301 -12.666 -8.83301 -15.999 -10.5s-9.83301 -4.5 -19.5 -8.5s-21.167 -6 -34.5 -6c-29.333 0 -52.666 10 -69.999 30c-16 20 -24 49.333 -24 88v238c0 17.333 -3.83301 30.166 -11.5 38.499s-12.5 17.833 -14.5 28.5c0 11.333 5.33301 20 16 26l20 9
c9.33301 4 21.666 12 36.999 24c8.66699 6.66699 19 11 31 13c16.667 0 25 -14.333 25 -43z" />
    <glyph glyph-name="ugrave" unicode="&#x449;" horiz-adv-x="513" 
d="M112 447l0.000976562 -286.997c0 -28 2.16699 -47 6.5 -57s11.5 -15 21.5 -15c6 0 14.667 6 26 18c8.66699 14 13 28 13 42v204c0 18 -4 31 -12 39s-12.667 17.333 -14 28c0 10 4.33301 18.333 13 25l21 9c13.333 5.33301 26.666 13.666 39.999 24.999
c8.66699 6.66699 19 11 31 13c16 0 24 -14.333 24 -43v-287c0 -28 2 -46.833 6 -56.5s11.333 -14.834 22 -15.501c9.33301 0 18.333 5.66699 27 17c8.66699 13.333 13 27.333 13 42v204c0 18 -4 31 -12 39s-12.667 17.333 -14 28c0 11.333 5 20 15 26l22 9
c9.33301 4 21.666 12 36.999 24c8.66699 6.66699 19 11 31 13c16 0 24 -14.333 24 -43v-321c0 -8 0.666992 -13.667 2 -17l13 -19c7.33301 -8.66699 11 -17.667 11 -27c0 -6 -2 -15 -6 -27l-13 -35c-14 -33.333 -24 -54.333 -30 -63s-14.667 -14 -26 -16
c-10.667 0 -16 7.33301 -16 22c0 13.333 0.666992 21.333 2 24l7 33c0 23.333 -9 35 -27 35l-9 -5c-8.66699 -4.66699 -16.667 -10 -24 -16c-18.667 -13.333 -39.667 -20 -63 -20c-15.333 0 -32.5 2 -51.5 6s-29.5 8 -31.5 12s-5.66699 7 -11 9l-7 -3
c-7.33301 -5.33301 -12.666 -8.83301 -15.999 -10.5s-9.83301 -4.5 -19.5 -8.5s-21.167 -6 -34.5 -6c-29.333 0 -52.666 10 -69.999 30c-16 20 -24 49.333 -24 88v238c0 17.333 -3.83301 30.166 -11.5 38.499s-12.5 17.833 -14.5 28.5c0 11.333 5.33301 20 16 26l20 9
c9.33301 4 21.666 12 36.999 24c8.66699 6.66699 19 11 31 13c16.667 0 25 -14.333 25 -43z" />
    <glyph glyph-name="uacute" unicode="&#xfa;" horiz-adv-x="401" 
d="M378 127c0 -40.667 -7.5 -73.499 -22.5 -98.499s-41.167 -37.5 -78.5 -37.5c-16 0 -30.333 3.33301 -43 10l-35 22c-4.66699 -4 -7.83398 -8.5 -9.50098 -13.5s-5.5 -8.16699 -11.5 -9.5h-90c-17.333 0 -26 5.66699 -26 17c0 7.33301 3.83301 15.166 11.5 23.499
s12.5 18.5 14.5 30.5v333c0 10 -2.33301 15 -7 15l-8 -4l-16 -19c-17.333 -24 -29.333 -36 -36 -36c-5.33301 0 -9.16602 2.66699 -11.499 8s-3.5 11.666 -3.5 18.999l1 19l12 41l12 35c5.33301 10 12 15 20 15c4.66699 0 8.66699 -1.33301 12 -4l15 -6h113
c6 0 11.333 -1.66699 16 -5s8 -7.66602 10 -12.999c0 -8 -3.83301 -15.833 -11.5 -23.5s-12.5 -17.5 -14.5 -29.5v-56c0 -22 5.33301 -33.333 16 -34l12 4l22 5c41.333 0 74.5 -19.333 99.5 -58s37.5 -88.667 37.5 -150zM191 192.001c0 -34.667 5.66797 -61 17.001 -79
c8 -14 19 -21 33 -21c9.33301 0 19 8 29 24c8.66699 18.667 13 41 13 67c0 34.667 -6.66699 61 -20 79c-10 15.333 -22 23 -36 23c-12.667 0 -22.334 -9.66699 -29.001 -29l-5 -30z" />
    <glyph glyph-name="uacute" unicode="&#x44a;" horiz-adv-x="401" 
d="M378 127c0 -40.667 -7.5 -73.499 -22.5 -98.499s-41.167 -37.5 -78.5 -37.5c-16 0 -30.333 3.33301 -43 10l-35 22c-4.66699 -4 -7.83398 -8.5 -9.50098 -13.5s-5.5 -8.16699 -11.5 -9.5h-90c-17.333 0 -26 5.66699 -26 17c0 7.33301 3.83301 15.166 11.5 23.499
s12.5 18.5 14.5 30.5v333c0 10 -2.33301 15 -7 15l-8 -4l-16 -19c-17.333 -24 -29.333 -36 -36 -36c-5.33301 0 -9.16602 2.66699 -11.499 8s-3.5 11.666 -3.5 18.999l1 19l12 41l12 35c5.33301 10 12 15 20 15c4.66699 0 8.66699 -1.33301 12 -4l15 -6h113
c6 0 11.333 -1.66699 16 -5s8 -7.66602 10 -12.999c0 -8 -3.83301 -15.833 -11.5 -23.5s-12.5 -17.5 -14.5 -29.5v-56c0 -22 5.33301 -33.333 16 -34l12 4l22 5c41.333 0 74.5 -19.333 99.5 -58s37.5 -88.667 37.5 -150zM191 192.001c0 -34.667 5.66797 -61 17.001 -79
c8 -14 19 -21 33 -21c9.33301 0 19 8 29 24c8.66699 18.667 13 41 13 67c0 34.667 -6.66699 61 -20 79c-10 15.333 -22 23 -36 23c-12.667 0 -22.334 -9.66699 -29.001 -29l-5 -30z" />
    <glyph glyph-name="ucircumflex" unicode="&#xfb;" horiz-adv-x="544" 
d="M487 416v-345.001c0 -8 2.66699 -15.667 8 -23c12 -14 18 -24.333 18 -31c0 -5.33301 -2.66699 -9.66602 -8 -12.999l-18 -4h-103c-17.333 0 -26 5.66699 -26 17c0 7.33301 3.83301 15.166 11.5 23.499s12.5 18.5 14.5 30.5v345c0 10.667 -5.66699 21.667 -17 33
c-6 6 -9 12.667 -9 20c0 4 2 8 6 12s10.667 6 20 6h103c6 0 11.333 -1.66699 16 -5s8 -7.66602 10 -12.999c0 -8 -3.83301 -15.833 -11.5 -23.5s-12.5 -17.5 -14.5 -29.5zM37 70.999v345c0 10.667 -5.66699 21.667 -17 33c-6 6 -9 12.667 -9 20c0 12 8.66699 18 26 18h103
c6 0 11.333 -1.66699 16 -5s8 -7.66602 10 -12.999c0 -8 -3.83301 -15.833 -11.5 -23.5s-12.5 -17.5 -14.5 -29.5v-56c0 -20.667 5 -32 15 -34l14 4l20 5c42 0 75.5 -19.333 100.5 -58s37.5 -88.667 37.5 -150c0 -40.667 -7.5 -73.5 -22.5 -98.5s-41.167 -37.5 -78.5 -37.5
c-16 0 -30.667 3.33301 -44 10l-35 22l-10 -14c-1.33301 -4 -5 -7 -11 -9h-89c-9.33301 -0 -16 1.83301 -20 5.5s-6 7.5 -6 11.5c0 7.33301 3.83301 15.166 11.5 23.499s12.5 18.5 14.5 30.5zM176 284.999c-12.667 0 -22.333 -9.66699 -29 -29l-5 -30l-2 -34
c0 -34.667 5.66699 -61 17 -79c8 -14 18.667 -21 32 -21c10 0 20 8 30 24c8.66699 18.667 13 41 13 67c0 34.667 -6.66699 61 -20 79c-10 15.333 -22 23 -36 23z" />
    <glyph glyph-name="ucircumflex" unicode="&#x44b;" horiz-adv-x="544" 
d="M487 416v-345.001c0 -8 2.66699 -15.667 8 -23c12 -14 18 -24.333 18 -31c0 -5.33301 -2.66699 -9.66602 -8 -12.999l-18 -4h-103c-17.333 0 -26 5.66699 -26 17c0 7.33301 3.83301 15.166 11.5 23.499s12.5 18.5 14.5 30.5v345c0 10.667 -5.66699 21.667 -17 33
c-6 6 -9 12.667 -9 20c0 4 2 8 6 12s10.667 6 20 6h103c6 0 11.333 -1.66699 16 -5s8 -7.66602 10 -12.999c0 -8 -3.83301 -15.833 -11.5 -23.5s-12.5 -17.5 -14.5 -29.5zM37 70.999v345c0 10.667 -5.66699 21.667 -17 33c-6 6 -9 12.667 -9 20c0 12 8.66699 18 26 18h103
c6 0 11.333 -1.66699 16 -5s8 -7.66602 10 -12.999c0 -8 -3.83301 -15.833 -11.5 -23.5s-12.5 -17.5 -14.5 -29.5v-56c0 -20.667 5 -32 15 -34l14 4l20 5c42 0 75.5 -19.333 100.5 -58s37.5 -88.667 37.5 -150c0 -40.667 -7.5 -73.5 -22.5 -98.5s-41.167 -37.5 -78.5 -37.5
c-16 0 -30.667 3.33301 -44 10l-35 22l-10 -14c-1.33301 -4 -5 -7 -11 -9h-89c-9.33301 -0 -16 1.83301 -20 5.5s-6 7.5 -6 11.5c0 7.33301 3.83301 15.166 11.5 23.499s12.5 18.5 14.5 30.5zM176 284.999c-12.667 0 -22.333 -9.66699 -29 -29l-5 -30l-2 -34
c0 -34.667 5.66699 -61 17 -79c8 -14 18.667 -21 32 -21c10 0 20 8 30 24c8.66699 18.667 13 41 13 67c0 34.667 -6.66699 61 -20 79c-10 15.333 -22 23 -36 23z" />
    <glyph glyph-name="udieresis" unicode="&#xfc;" horiz-adv-x="352" 
d="M37 71v345c0 10.667 -5.66699 21.667 -17 33c-6 6 -9 12.667 -9 20c0 12 8.66699 18 26 18h103c6 0 11.333 -1.66699 16 -5s8 -7.66602 10 -12.999c0 -8 -3.83301 -15.833 -11.5 -23.5s-12.5 -17.5 -14.5 -29.5v-56c0 -20.667 5 -32 15 -34l14 4l20 5
c42 0 75.5 -19.333 100.5 -58s37.5 -88.667 37.5 -150c0 -40.667 -7.5 -73.5 -22.5 -98.5s-41.167 -37.5 -78.5 -37.5c-16 0 -30.667 3.33301 -44 10l-35 22l-10 -14c-1.33301 -4 -5 -7 -11 -9h-89c-9.33301 0 -16 1.83301 -20 5.5s-6 7.5 -6 11.5
c0 7.33301 3.83301 15.166 11.5 23.499s12.5 18.5 14.5 30.5zM176 285c-12.667 0 -22.333 -9.66699 -29 -29l-5 -30l-2 -34c0 -34.667 5.66699 -61 17 -79c8 -14 18.667 -21 32 -21c10 0 20 8 30 24c8.66699 18.667 13 41 13 67c0 34.667 -6.66699 61 -20 79
c-10 15.333 -22 23 -36 23z" />
    <glyph glyph-name="udieresis" unicode="&#x44c;" horiz-adv-x="352" 
d="M37 71v345c0 10.667 -5.66699 21.667 -17 33c-6 6 -9 12.667 -9 20c0 12 8.66699 18 26 18h103c6 0 11.333 -1.66699 16 -5s8 -7.66602 10 -12.999c0 -8 -3.83301 -15.833 -11.5 -23.5s-12.5 -17.5 -14.5 -29.5v-56c0 -20.667 5 -32 15 -34l14 4l20 5
c42 0 75.5 -19.333 100.5 -58s37.5 -88.667 37.5 -150c0 -40.667 -7.5 -73.5 -22.5 -98.5s-41.167 -37.5 -78.5 -37.5c-16 0 -30.667 3.33301 -44 10l-35 22l-10 -14c-1.33301 -4 -5 -7 -11 -9h-89c-9.33301 0 -16 1.83301 -20 5.5s-6 7.5 -6 11.5
c0 7.33301 3.83301 15.166 11.5 23.499s12.5 18.5 14.5 30.5zM176 285c-12.667 0 -22.333 -9.66699 -29 -29l-5 -30l-2 -34c0 -34.667 5.66699 -61 17 -79c8 -14 18.667 -21 32 -21c10 0 20 8 30 24c8.66699 18.667 13 41 13 67c0 34.667 -6.66699 61 -20 79
c-10 15.333 -22 23 -36 23z" />
    <glyph glyph-name="yacute" unicode="&#xfd;" horiz-adv-x="271" 
d="M8 119c0 41.333 9.00195 61.999 27.002 61.999c9.33301 0 19 -11 29 -33c8 -22 19 -33 33 -33c18 0 36.667 17 56 51c11.333 26 19.666 55.667 24.999 89c0 10 -1.66699 15 -5 15l-8 -5l-7 -7l-15 -21l-15 -24c-6 -10 -12 -15 -18 -15s-10.333 3.33301 -13 10l-3 17v16
l4 12l11 37l10 30c5.33301 10 12.333 15 21 15c7.33301 0 14 -2.66699 20 -8l13 -8l3 7l2 10c0 17.333 -5 37.833 -15 61.5s-21 35.5 -33 35.5c-6 0 -13.667 -4 -23 -12c-6 -7.33301 -9 -16.666 -9 -27.999c0 -14 0.666992 -23.333 2 -28l3 -14l-3 -22
c-4 -8 -10.333 -12 -19 -12c-14 0 -28.333 6.5 -43 19.5s-22 29.167 -22 48.5c0 30 8 55.333 24 76s37.667 31 65 31c40 0 74.833 -24.833 104.5 -74.5s44.5 -116.167 44.5 -199.5c0 -68.667 -9.33301 -120.667 -28 -156c-22.667 -42.667 -58.334 -64 -107.001 -64
c-30.667 0 -56 9.66699 -76 29c-23.333 22 -35 52.667 -35 92z" />
    <glyph glyph-name="yacute" unicode="&#x44d;" horiz-adv-x="271" 
d="M8 119c0 41.333 9.00195 61.999 27.002 61.999c9.33301 0 19 -11 29 -33c8 -22 19 -33 33 -33c18 0 36.667 17 56 51c11.333 26 19.666 55.667 24.999 89c0 10 -1.66699 15 -5 15l-8 -5l-7 -7l-15 -21l-15 -24c-6 -10 -12 -15 -18 -15s-10.333 3.33301 -13 10l-3 17v16
l4 12l11 37l10 30c5.33301 10 12.333 15 21 15c7.33301 0 14 -2.66699 20 -8l13 -8l3 7l2 10c0 17.333 -5 37.833 -15 61.5s-21 35.5 -33 35.5c-6 0 -13.667 -4 -23 -12c-6 -7.33301 -9 -16.666 -9 -27.999c0 -14 0.666992 -23.333 2 -28l3 -14l-3 -22
c-4 -8 -10.333 -12 -19 -12c-14 0 -28.333 6.5 -43 19.5s-22 29.167 -22 48.5c0 30 8 55.333 24 76s37.667 31 65 31c40 0 74.833 -24.833 104.5 -74.5s44.5 -116.167 44.5 -199.5c0 -68.667 -9.33301 -120.667 -28 -156c-22.667 -42.667 -58.334 -64 -107.001 -64
c-30.667 0 -56 9.66699 -76 29c-23.333 22 -35 52.667 -35 92z" />
    <glyph glyph-name="thorn" unicode="&#xfe;" horiz-adv-x="505" 
d="M479 233c0 -69.333 -10.3359 -125.67 -31.0029 -169.003c-23.333 -48 -55.666 -72 -96.999 -72c-37.333 0 -68.166 18.5 -92.499 55.5s-39.833 85.833 -46.5 146.5c0 10 -0.833008 16.833 -2.5 20.5s-6.5 5.83398 -14.5 6.50098h-40c-6 0 -11 -2 -15 -6
c-1.33301 -3.33301 -2.66602 -10.666 -3.99902 -21.999v-122c0 -8 2.66699 -15.667 8 -23c12 -14 18 -24.333 18 -31c0 -5.33301 -2.66699 -9.66602 -8 -12.999l-18 -4h-103c-17.333 0 -26 5.66699 -26 17c0 7.33301 3.83301 15.166 11.5 23.499s12.5 18.5 14.5 30.5v281v64
c0 10.667 -5.66699 21.667 -17 33c-6 6 -9 12.667 -9 20c0 4 2 8 6 12s10.667 6 20 6h103c6 0 11.333 -1.66699 16 -5s8 -7.66602 10 -12.999c0 -8 -3.83301 -15.833 -11.5 -23.5s-12.5 -17.5 -14.5 -29.5v-109c0 -10 1 -17.667 3 -23l16 -4h40c10.667 0 16 9 16 27
c0 50 12 94 36 132s54.333 57 91 57c34.667 0 64.667 -17.667 90 -53c34 -47.333 51 -117.333 51 -210zM379.997 269.996c-12 33.333 -24.334 60.001 -37.001 80.001c-15.333 26 -29.666 39 -42.999 39c-12.667 0 -19 -12.667 -19 -38l1 -25c0 -8 1.66699 -18 5 -30l10 -35
l11 -28c19.333 -46.667 35 -78.167 47 -94.5s23.333 -24.833 34 -25.5c12.667 0 19 12 19 36l-1 25c0 4.66699 -0.333008 8.66699 -1 12s-3 11.666 -7 24.999c-4 20 -10.333 39.667 -19 59z" />
    <glyph glyph-name="thorn" unicode="&#x44e;" horiz-adv-x="505" 
d="M479 233c0 -69.333 -10.3359 -125.67 -31.0029 -169.003c-23.333 -48 -55.666 -72 -96.999 -72c-37.333 0 -68.166 18.5 -92.499 55.5s-39.833 85.833 -46.5 146.5c0 10 -0.833008 16.833 -2.5 20.5s-6.5 5.83398 -14.5 6.50098h-40c-6 0 -11 -2 -15 -6
c-1.33301 -3.33301 -2.66602 -10.666 -3.99902 -21.999v-122c0 -8 2.66699 -15.667 8 -23c12 -14 18 -24.333 18 -31c0 -5.33301 -2.66699 -9.66602 -8 -12.999l-18 -4h-103c-17.333 0 -26 5.66699 -26 17c0 7.33301 3.83301 15.166 11.5 23.499s12.5 18.5 14.5 30.5v281v64
c0 10.667 -5.66699 21.667 -17 33c-6 6 -9 12.667 -9 20c0 4 2 8 6 12s10.667 6 20 6h103c6 0 11.333 -1.66699 16 -5s8 -7.66602 10 -12.999c0 -8 -3.83301 -15.833 -11.5 -23.5s-12.5 -17.5 -14.5 -29.5v-109c0 -10 1 -17.667 3 -23l16 -4h40c10.667 0 16 9 16 27
c0 50 12 94 36 132s54.333 57 91 57c34.667 0 64.667 -17.667 90 -53c34 -47.333 51 -117.333 51 -210zM379.997 269.996c-12 33.333 -24.334 60.001 -37.001 80.001c-15.333 26 -29.666 39 -42.999 39c-12.667 0 -19 -12.667 -19 -38l1 -25c0 -8 1.66699 -18 5 -30l10 -35
l11 -28c19.333 -46.667 35 -78.167 47 -94.5s23.333 -24.833 34 -25.5c12.667 0 19 12 19 36l-1 25c0 4.66699 -0.333008 8.66699 -1 12s-3 11.666 -7 24.999c-4 20 -10.333 39.667 -19 59z" />
    <glyph glyph-name="ydieresis" unicode="&#xff;" horiz-adv-x="347" 
d="M305 416l0.000976562 -345.002c0 -8 2.66699 -15.667 8 -23c12 -14 18 -24.333 18 -31c0 -5.33301 -2.66699 -9.66602 -8 -12.999l-18 -4h-103c-9.33301 0 -16 1.83301 -20 5.5s-6 7.5 -6 11.5c0 7.33301 3.83301 15.166 11.5 23.499s12.5 18.5 14.5 30.5v76
c0 14 -3.33301 21 -10 21c-6 0 -11 -4.66699 -15 -14l-46 -84c-2.66699 -6 -5.33398 -14.333 -8.00098 -25l7 -14c2.66699 -2.66699 4 -7.33398 4 -14.001c0 -5.33301 -2.66699 -9.66602 -8 -12.999l-18 -4h-69c-9.33301 0 -16 1.83301 -20 5.5s-6 7.5 -6 11.5
c0 8.66699 3.33301 16.334 10 23.001c10 8 18.667 17.333 26 28l38 72l4 13c0 6 -3.33301 9 -10 9c-16 0 -31.333 11.333 -46 34c-13.333 22.667 -20 53 -20 91c0 62 14 113 42 153c24 35.333 52.333 53 85 53c14 0 28 -3 42 -9l16 -5c2 3.33301 7.66699 6 17 8h88
c6 0 11.333 -1.66699 16 -5s8 -7.66602 10 -12.999c0 -8 -3.83301 -15.833 -11.5 -23.5s-12.5 -17.5 -14.5 -29.5zM162.001 437.998c-13.333 0 -26 -10.999 -38 -32.999c-9.33301 -22.667 -14 -49.334 -14 -80.001c0 -25.333 5 -45.333 15 -60s21 -22 33 -22
c18 0 30 5.83301 36 17.5s9 40.834 9 87.501c0 37.333 -2.66699 61.666 -8 72.999s-16.333 17 -33 17z" />
    </font>
</defs>
</svg>
