<?xml version="1.0" encoding="utf-8"?>
<!-- Generator: Adobe Illustrator 22.1.0, SVG Export Plug-In . SVG Version: 6.00 Build 0)  -->
<svg version="1.1" id="Layer_1" xmlns="http://www.w3.org/2000/svg" xmlns:xlink="http://www.w3.org/1999/xlink" x="0px" y="0px"
	 viewBox="0 0 11.6 7.6" style="enable-background:new 0 0 11.6 7.6;" xml:space="preserve">
<style type="text/css">
	.st0{fill:#623C25;}
</style>
<title>7_u</title>
<g id="Layer_2_1_">
	<g id="Layer_1-2">
		<path class="st0" d="M11.6,5.9V5.7l-0.1-2.5V3.1c-0.1,0-0.4,0.1-0.4,0.3v0.7c0,0.4,0,0.8,0.1,1.1c0,0.1,0,0.2,0,0.3h0.3v0.5
			C11.6,6.1,11.6,6,11.6,5.9z"/>
		<path class="st0" d="M9.6,4c0,0.3-0.1,1.1,0,1.6h0.5V4C10.1,3.7,9.8,3.9,9.6,4z"/>
		<path class="st0" d="M2.8,4.6C3,4.7,3.9,5.2,4.6,5.6h1C5.3,5.4,5,5.2,4.7,5.1C4.3,4.9,3.9,4.7,3.5,4.5L3.5,4.3
			c0.2,0,0.7-0.4,1-0.5c0.3-0.1,0.7-0.2,1-0.2h0.3V3.3V2.8V1.5c0.9,0,1.8,0.2,2.6,0.6c0.4,0.2,0.7,0.4,1,0.7
			c0.2,0.1,0.7,0.8,0.8,0.8c0.3,0,0.5-0.4,0.6-0.2L11,3.3c0-0.2,0.2-0.2,0.4-0.4C10.8,1.5,7.9,0,5.8,0C4.6,0,3.4,0.4,2.4,0.9
			C1.9,1.2,0,2.5,0,3.1C0.9,3.7,1.9,4.2,2.8,4.6z"/>
		<path class="st0" d="M8.5,4.5L8.1,4.7v0.9h0.4V5.4V5V4.7C8.6,4.7,8.5,4.5,8.5,4.5z"/>
		<polygon class="st0" points="6.9,5.4 6.5,5.6 6.9,5.6 		"/>
	</g>
</g>
<rect y="5.6" class="st0" width="11.6" height="2"/>
</svg>
