<?xml version="1.0" encoding="UTF-8"?>
<svg width="783px" height="780px" viewBox="0 0 783 780" version="1.1" xmlns="http://www.w3.org/2000/svg" xmlns:xlink="http://www.w3.org/1999/xlink">
    <!-- Generator: Sketch 48.1 (47250) - http://www.bohemiancoding.com/sketch -->
    <title>bg_splash</title>
    <desc>Created with Sketch.</desc>
    <defs></defs>
    <g id="(Syntelect)-2" stroke="none" stroke-width="1" fill="none" fill-rule="evenodd" transform="translate(-557.000000, -2038.000000)" fill-opacity="0.33" opacity="0.355072464">
        <g id="Why-Choose-Us" transform="translate(365.000000, 1962.000000)" fill="#9EAAC2" fill-rule="nonzero">
            <g id="bg_poly+spl" transform="translate(192.000000, 76.000000)">
                <path d="M96.8423111,393.788782 L277.460763,393.788824 C288.752421,393.787866 297.90806,408.438938 297.90682,426.509142 C297.907503,444.580372 288.752572,459.23031 277.460915,459.229218 L96.8418214,459.22815 C85.5482414,459.228083 76.3938835,444.577011 76.3951236,426.508858 C76.3950819,408.438653 85.5500129,393.788715 96.8423111,393.788782 Z M64.846004,289.102441 L147.925006,289.103695 C159.237588,289.102699 168.410817,303.777809 168.409553,321.883555 C168.410856,339.987245 159.2383,354.665388 147.924433,354.664329 L64.846716,354.66513 C53.5315657,354.664071 44.3615462,339.987933 44.3608848,321.883216 C44.3615076,303.778498 53.5321378,289.103437 64.846004,289.102441 Z M340.337256,713.915433 L482.664256,713.917387 C493.923535,713.915334 503.051727,728.520439 503.051083,746.540872 C503.051718,764.559261 493.92288,779.167444 482.663601,779.165407 L340.338518,779.16652 C329.076683,779.164482 319.950408,764.558355 319.950413,746.540989 C319.950417,728.521578 329.077338,713.916462 340.337256,713.915433 Z M327.517009,0 L469.844108,0.00120448697 C481.103446,-0.000826235373 490.232335,14.6053939 490.231066,32.6248986 C490.232353,50.6423582 481.10284,65.2516226 469.844141,65.2485405 L327.518958,65.2504037 C316.256426,65.2473217 307.130093,50.6431467 307.130723,32.6246645 C307.130714,14.6051598 316.257671,-1.43922528e-05 327.517009,0 Z M158.235411,562.932788 C171.265254,575.962317 171.265254,597.087359 158.235411,610.116888 C145.205567,623.146418 124.080017,623.146418 111.050173,610.116888 C98.0203293,597.087359 98.0203293,575.962317 111.050173,562.932788 C124.080017,549.903258 145.205567,549.903258 158.235411,562.932788 Z M56.9576206,404.96886 C69.9874643,417.998704 69.9874643,439.124254 56.9576206,452.154098 C43.927777,465.183942 22.8022264,465.183942 9.77238274,452.154098 C-3.25746091,439.124254 -3.25746091,417.998704 9.77238274,404.96886 C22.8022264,391.939016 43.927777,391.939016 56.9576206,404.96886 Z M557.988622,11.0839582 C571.018466,24.1134878 571.018466,45.2385293 557.988622,58.2680589 C544.958778,71.2975885 523.833228,71.2975885 510.803384,58.2680589 C497.77354,45.2385293 497.77354,24.1134878 510.803384,11.0839582 C523.833228,-1.94557139 544.958778,-1.94557139 557.988622,11.0839582 Z M216.451387,344.166805 C213.671605,338.341627 212.01478,330.854555 212.02624,322.44743 C211.903685,316.547146 211.9287,313.659118 210.319601,306.858435 C209.107645,301.732255 205.694419,293.2663 196.78415,291.334052 L193.502467,291.335059 C182.197825,291.334994 173.033461,276.672014 173.03342,258.580003 C173.033379,240.487992 182.197677,225.823064 193.501678,225.822103 L260.596848,225.822491 C271.902132,225.823583 281.067072,211.157629 281.066389,193.066644 C281.066348,174.976687 271.902626,160.31268 260.597342,160.311588 L250.361572,160.311529 C239.056288,160.31249 229.891924,145.647457 229.892524,127.556472 C229.891842,109.465488 239.05614,94.8005604 250.361424,94.8016524 L629.049624,94.802815 C640.354908,94.8018537 649.519914,109.469967 649.519954,127.559925 C649.519995,145.649883 640.355056,160.313783 629.050413,160.313718 L631.591712,160.312706 C620.286428,160.311614 611.12213,174.978595 611.122171,193.068553 C611.12157,211.159537 620.286576,225.825597 631.591219,225.825662 L639.853488,225.82571 C651.158772,225.824749 660.323778,240.490809 660.323177,258.581793 C660.323859,276.672778 651.159561,291.337705 639.854277,291.336613 L644.403081,291.336639 C633.098438,291.336574 623.932857,306.003555 623.93354,324.092486 C623.93358,342.184497 633.098586,356.850557 644.40387,356.849596 L762.104317,356.850276 C773.409601,356.849315 782.573966,371.514348 782.573365,389.605333 C782.574047,407.696317 773.409749,422.361245 762.105107,422.361179 L618.816518,422.363431 C607.511234,422.362339 598.346936,437.02932 598.346977,455.119277 C598.347018,473.211289 607.512024,487.877349 618.817308,487.876387 L680.226153,487.877769 C691.530795,487.877834 700.695159,502.542868 700.6952,520.632826 C700.695883,538.72381 691.531585,553.388737 680.226301,553.389699 L611.123626,553.388273 C599.819625,553.387181 590.654686,568.053135 590.654085,586.144119 C590.654126,604.234077 599.819773,618.89911 611.123774,618.900202 L644.404462,618.899368 C655.709746,618.898407 664.87411,633.56344 664.874151,651.653398 C664.874192,669.743355 655.709252,684.40931 644.40461,684.409244 L265.717051,684.402948 C254.413051,684.40391 245.246762,669.73785 245.316006,649.089426 C245.215266,644.01664 245.12608,641.075225 243.636958,634.784798 C242.310158,629.175055 238.350303,619.561277 227.43189,618.893877 L199.191456,618.892687 C187.887456,618.893649 178.721167,604.227589 178.721767,586.136604 C178.720443,568.044593 187.886666,553.380692 199.191309,553.380758 L242.593565,553.351235 C253.512616,552.682935 257.471144,543.069203 258.798561,537.458449 C260.708527,529.381633 260.315232,526.842671 260.657175,518.287416 C260.658966,518.246828 260.660803,518.206259 260.662687,518.165711 L180.338518,518.16652 C169.076683,518.163897 159.950408,499.36092 159.950413,476.166537 C159.950417,452.969521 169.077338,434.167846 180.337256,434.16652 L250.794395,434.167765 C251.093684,432.09563 251.468503,430.090527 251.912274,428.166001 L200.338518,428.16652 C189.076683,428.163897 179.950408,409.36092 179.950413,386.166537 C179.950417,362.969521 189.077338,344.167846 200.337256,344.16652 L216.451387,344.166805 Z" id="bg_splash"></path>
            </g>
        </g>
    </g>
</svg>