<svg xmlns="http://www.w3.org/2000/svg" viewBox="0 0 340 340"><defs><style>.cls-1{fill:none;}.cls-2{fill:#fff;}.cls-3{fill:#1100c2;}</style></defs><title>icon_set_all</title><g id="Box_assem_1" data-name="Box assem_1"><g id="Box_assem" data-name="Box assem"><rect class="cls-1" width="340" height="340"/><path class="cls-2" d="M216.18,136.49a12.68,12.68,0,0,0-12.67-12.67h-67a12.68,12.68,0,0,0-12.67,12.67v67a12.68,12.68,0,0,0,12.67,12.67h67a12.68,12.68,0,0,0,12.67-12.67Zm-45.64,55.09a21,21,0,1,1,21-21A21.07,21.07,0,0,1,170.54,191.58Z"/><path class="cls-3" d="M170.54,149.49a21,21,0,1,0,21,21A21.07,21.07,0,0,0,170.54,149.49Zm0,37.58a16.53,16.53,0,1,1,16.53-16.53A16.55,16.55,0,0,1,170.54,187.07ZM158.83,256a2.23,2.23,0,0,1-2.22-2.22V237a2.22,2.22,0,1,1,4.45,0v16.75A2.23,2.23,0,0,1,158.83,256Zm-2.22-153V86.22a2.22,2.22,0,1,1,4.45,0V103a2.22,2.22,0,1,1-4.45,0Zm24.56-19a2.23,2.23,0,0,1,2.22,2.22V103a2.22,2.22,0,1,1-4.45,0V86.22A2.23,2.23,0,0,1,181.17,84Zm2.22,153v16.75a2.22,2.22,0,1,1-4.45,0V237a2.22,2.22,0,1,1,4.45,0ZM256,181.17a2.23,2.23,0,0,1-2.22,2.22H237a2.22,2.22,0,1,1,0-4.45h16.75A2.23,2.23,0,0,1,256,181.17Zm-21.2-44.68a2.23,2.23,0,0,1,2.22-2.22h16.75a2.22,2.22,0,1,1,0,4.45H237A2.23,2.23,0,0,1,234.8,136.49Zm21.2,67a2.23,2.23,0,0,1-2.22,2.22H237a2.22,2.22,0,1,1,0-4.45h16.75A2.23,2.23,0,0,1,256,203.51Zm0-44.68a2.23,2.23,0,0,1-2.22,2.22H237a2.22,2.22,0,1,1,0-4.45h16.75A2.23,2.23,0,0,1,256,158.83ZM105.2,203.51a2.23,2.23,0,0,1-2.22,2.22H86.22a2.22,2.22,0,1,1,0-4.45H103A2.23,2.23,0,0,1,105.2,203.51ZM203.51,256a2.23,2.23,0,0,1-2.22-2.22V237a2.22,2.22,0,0,1,4.45,0v16.75A2.23,2.23,0,0,1,203.51,256ZM84,136.49a2.23,2.23,0,0,1,2.22-2.22H103a2.22,2.22,0,1,1,0,4.45H86.22A2.23,2.23,0,0,1,84,136.49Zm21.2,22.34a2.23,2.23,0,0,1-2.22,2.22H86.22a2.22,2.22,0,1,1,0-4.45H103A2.23,2.23,0,0,1,105.2,158.83ZM138.71,237v16.75a2.22,2.22,0,1,1-4.45,0V237a2.22,2.22,0,0,1,4.45,0ZM105.2,181.17a2.23,2.23,0,0,1-2.22,2.22H86.22a2.22,2.22,0,1,1,0-4.45H103A2.23,2.23,0,0,1,105.2,181.17ZM136.49,84a2.23,2.23,0,0,1,2.22,2.22V103a2.22,2.22,0,0,1-4.45,0V86.22A2.23,2.23,0,0,1,136.49,84Zm84.14,52.49a17.14,17.14,0,0,0-17.12-17.12h-67a17.14,17.14,0,0,0-17.12,17.12v67a17.14,17.14,0,0,0,17.12,17.12h67a17.14,17.14,0,0,0,17.12-17.12Zm-4.45,67a12.68,12.68,0,0,1-12.67,12.67h-67a12.68,12.68,0,0,1-12.67-12.67v-67a12.68,12.68,0,0,1,12.67-12.67h67a12.68,12.68,0,0,1,12.67,12.67ZM201.29,103V86.22a2.22,2.22,0,1,1,4.45,0V103a2.22,2.22,0,1,1-4.45,0Z"/></g></g></svg>