<?xml version="1.0" encoding="UTF-8"?>
<svg width="340px" height="340px" viewBox="0 0 340 340" version="1.1" xmlns="http://www.w3.org/2000/svg" xmlns:xlink="http://www.w3.org/1999/xlink">
    <!-- Generator: Sketch 48.1 (47250) - http://www.bohemiancoding.com/sketch -->
    <title>ico_splash</title>
    <desc>Created with Sketch.</desc>
    <defs></defs>
    <g id="foto-copy" stroke="none" stroke-width="1" fill="none" fill-rule="evenodd">
        <path d="M324.938943,123.731498 C323.964497,124.720419 322.606796,124.287281 321.293944,123.86915 C320.06977,123.478447 318.91338,123.109477 318.155534,123.8795 C317.397178,124.649523 317.760047,125.823705 318.144831,127.066196 C318.557646,128.399764 318.983711,129.778354 318.009775,130.767275 C317.035838,131.756196 315.677118,131.323058 314.364775,130.903892 C313.140602,130.513188 311.984721,130.144736 311.226366,130.914242 C310.46801,131.684265 310.831899,132.858447 311.216173,134.100938 C311.628478,135.434506 312.055053,136.813613 311.080607,137.802017 C310.10718,138.790938 308.749479,138.3578 307.436627,137.938634 C306.212453,137.54793 305.055553,137.17896 304.297707,137.948984 C303.539861,138.718489 303.90375,139.892154 304.288024,141.135679 C304.700329,142.469248 305.126904,143.847838 304.153477,144.836241 C303.179541,145.825162 301.821839,145.392024 300.508987,144.972858 C299.285324,144.582154 298.128933,144.213185 297.371087,144.983208 C296.613241,145.753231 296.97662,146.926378 297.360385,148.169903 C297.773199,149.502954 298.200284,150.882062 297.225838,151.870465 C296.252921,152.859386 294.89471,152.425731 293.581858,152.007082 C292.357684,151.616378 291.201804,151.247409 290.443958,152.017432 C289.686112,152.786938 290.048471,153.96112 290.433255,155.20361 C290.84607,156.537179 291.273154,157.915769 290.298708,158.904172 C289.325791,159.893093 287.96758,159.459955 286.654728,159.040789 C285.430555,158.650085 284.274674,158.281116 283.516828,159.050621 L283.161094,158.689414 C284.134521,157.701011 285.492222,158.134149 286.805074,158.553315 C288.029248,158.944019 289.185128,159.312988 289.942974,158.543482 C290.70082,157.773977 290.337441,156.600312 289.952658,155.357304 C289.540353,154.023736 289.113778,152.645146 290.088224,151.656225 C291.061141,150.667304 292.419352,151.10096 293.732204,151.520125 C294.956377,151.910312 296.112258,152.279281 296.870104,151.509258 C297.628459,150.739752 297.265081,149.566088 296.879787,148.32308 C296.467482,146.990029 296.040907,145.611439 297.015353,144.622518 C297.988271,143.633597 299.346481,144.066735 300.659333,144.485901 C301.883507,144.876605 303.039387,145.245575 303.797743,144.475551 C304.555589,143.706046 304.19221,142.532381 303.807426,141.289373 C303.395121,139.955287 302.968546,138.576698 303.941973,137.588294 C304.91591,136.598856 306.273611,137.032511 307.586973,137.451677 C308.811146,137.841864 309.967027,138.210833 310.724873,137.441327 C311.482719,136.671304 311.11934,135.49764 310.735575,134.254632 C310.322761,132.921063 309.896695,131.542473 310.870632,130.553552 C311.844568,129.564114 313.202269,129.997769 314.515631,130.416418 C315.738785,130.807122 316.895685,131.176091 317.653531,130.405551 C318.411887,129.635527 318.048508,128.461863 317.664234,127.219372 C317.251419,125.885804 316.825354,124.506697 317.79929,123.518293 C318.773736,122.528855 320.131438,122.961993 321.44429,123.380641 C322.668463,123.770828 323.824344,124.139797 324.583209,123.369774 C325.342074,122.599751 324.977676,121.425569 324.593912,120.183078 C324.181607,118.848992 323.755032,117.47092 324.729478,116.481481 L325.085721,116.842689 C324.326856,117.612194 324.690235,118.786894 325.074509,120.029384 C325.486304,121.363988 325.912879,122.742578 324.938943,123.731498 Z M50.197705,327.503609 C51.172166,326.514691 52.5298879,326.947828 53.8427601,327.365958 C55.0669523,327.757178 56.2233603,328.125629 56.9812178,327.355608 C57.739585,326.585587 57.3767104,325.410891 56.9919206,324.168922 C56.5790997,322.835358 56.1530279,321.456255 57.1269793,320.467854 C58.1009307,319.478937 59.4596718,319.912073 60.7720344,320.33072 C61.9962266,320.721423 63.1521249,321.089874 63.9104921,320.319853 C64.6688593,319.549832 64.3049654,318.376172 63.9206852,317.133167 C63.508374,315.800121 63.0823022,314.421017 64.0562535,313.4321 C65.0296953,312.443699 66.3874172,312.876836 67.7002894,313.295483 C68.9244816,313.686703 70.0813992,314.055154 70.8392568,313.285133 C71.5971143,312.51563 71.2332203,311.341452 70.8494499,310.098448 C70.4371387,308.765401 70.0105571,307.386298 70.9839989,306.397897 C71.9579503,305.408979 73.3156722,305.842633 74.6285444,306.260763 C75.8522269,306.651983 77.0086349,307.020952 77.7664924,306.250413 C78.5243499,305.48091 78.1609657,304.307249 77.7766855,303.064245 C77.3643743,301.731716 76.9372831,300.352095 77.9112345,299.363695 C78.8841666,298.375294 80.2423982,298.808949 81.5552704,299.227078 C82.7794626,299.618298 83.9353609,299.987267 84.6932184,299.216728 C85.451076,298.447225 85.088711,297.273047 84.7034115,296.03056 C84.2911004,294.696996 83.8640092,293.31841 84.8379606,292.33001 C85.8108926,291.341609 87.1691242,291.774746 88.4819964,292.193393 C89.7061886,292.584613 90.8620869,292.953582 91.6199444,292.184078 L91.9756839,292.544767 C91.0022422,293.533167 89.6445203,293.100031 88.3316481,292.681384 C87.1074559,292.290163 85.9515575,291.921195 85.1937,292.691733 C84.4358425,293.460719 84.7992267,294.634897 85.1845262,295.877384 C85.5968374,297.210948 86.0234189,298.589016 85.0489579,299.578452 C84.0760258,300.566852 82.7177943,300.133198 81.404922,299.714551 C80.1807299,299.323848 79.0248315,298.95488 78.266974,299.725418 C77.5086068,300.494404 77.8719911,301.6691 78.2578002,302.911586 C78.6701114,304.244633 79.0966929,305.623219 78.1222319,306.612137 C77.1492998,307.600537 75.7910682,307.1674 74.478196,306.748753 C73.2540039,306.358051 72.0981055,305.989082 71.3397383,306.759103 C70.5818808,307.528607 70.9452651,308.702785 71.3295452,309.944754 C71.7418564,311.278836 72.1684379,312.657421 71.1949962,313.645822 C70.2210448,314.635257 68.8633229,314.201603 67.5499411,313.782956 C66.3257489,313.392771 65.1698505,313.023802 64.411993,313.793823 C63.6541355,314.563326 64.0175197,315.737505 64.4017999,316.979991 C64.8146207,318.313556 65.2406926,319.692141 64.2667412,320.681059 C63.2927898,321.669977 61.9350679,321.23684 60.6216861,320.818193 C59.3985132,320.42749 58.2415955,320.058522 57.483738,320.82906 C56.7253708,321.599081 57.0887551,322.772742 57.4730352,324.015229 C57.8858561,325.348275 58.311928,326.727896 57.3379766,327.716297 C56.3635155,328.705732 55.0057936,328.272595 53.6929214,327.853948 C52.4687293,327.463763 51.3128309,327.094795 50.5539541,327.865333 C49.7950772,328.635354 50.1594808,329.809014 50.543761,331.052019 C50.9560721,332.385583 51.3826537,333.763651 50.4081926,334.753086 L50.0519435,334.39188 C50.8108204,333.622377 50.4474361,332.447681 50.0636656,331.205195 C49.6503351,329.872148 49.2237536,328.493045 50.197705,327.503609 Z M297.315895,25.503475 C301.867346,30.12513 301.867346,37.6189258 297.315895,42.2405808 L224.516449,116.163454 C219.965515,120.785109 212.585035,120.785109 208.034101,116.162929 C203.482134,111.541274 203.482134,104.047479 208.033584,99.4263481 L280.833548,25.503475 C285.385515,20.8812954 292.765478,20.88182 297.315895,25.503475 Z M336.580093,39.1518809 C341.139969,43.7826351 341.139969,51.2892815 336.580093,55.9200357 L303.094248,89.9219961 C298.534889,94.5522247 291.141265,94.5532758 286.581389,89.9219961 C282.020996,85.292293 282.020996,77.7840699 286.581389,73.1538412 L320.066199,39.1518809 C324.627111,34.5211267 332.019699,34.5216523 336.580093,39.1518809 Z M118.541245,43.3328593 C123.079884,47.9415423 123.079884,55.4124103 118.541761,60.0210933 L61.1754501,118.271687 C56.6378418,122.88037 49.2800035,122.880893 44.7413649,118.271687 C40.2027264,113.663527 40.2027264,106.19109 44.7413649,101.583453 L102.10613,43.3328593 C106.645799,38.7241763 114.003122,38.7246994 118.541245,43.3328593 Z M303.526026,220.678748 C308.064694,225.28745 308.064694,232.758348 303.526541,237.366526 L246.160379,295.617352 C241.622742,300.226053 234.264342,300.226576 229.726189,295.617352 C225.187522,291.009697 225.187522,283.536706 229.726189,278.929574 L287.090806,220.678748 C291.631019,216.070047 298.987874,216.070047 303.526026,220.678748 Z M228.905775,25.1851852 C222.342148,25.1851852 217.021277,19.7822018 217.021277,13.117284 C217.021277,6.45236614 222.342148,1.04938272 228.905775,1.04938272 C235.469402,1.04938272 240.790274,6.45236614 240.790274,13.117284 C240.790274,19.7822018 235.469402,25.1851852 228.905775,25.1851852 Z M309.513678,24.1358025 C302.950051,24.1358025 297.629179,18.732819 297.629179,12.0679012 C297.629179,5.40298342 302.950051,0 309.513678,0 C316.077305,0 321.398176,5.40298342 321.398176,12.0679012 C321.398176,18.732819 316.077305,24.1358025 309.513678,24.1358025 Z M214.43769,322.160494 C207.874063,322.160494 202.553191,316.75751 202.553191,310.092593 C202.553191,303.427675 207.874063,298.024691 214.43769,298.024691 C221.001317,298.024691 226.322188,303.427675 226.322188,310.092593 C226.322188,316.75751 221.001317,322.160494 214.43769,322.160494 Z M214.836509,144.885349 L251.955087,107.197902 C256.511513,102.571194 263.899543,102.570669 268.456486,107.197902 C268.594575,107.338646 268.730078,107.483066 268.859375,107.629062 C270.394906,109.087972 271.112246,109.836858 273.473726,110.917648 C275.25337,111.732705 278.761456,112.501022 282.839482,109.348454 L284.161932,108.005081 C288.718358,103.378373 296.105353,103.377848 300.662296,108.005081 C305.219239,112.632314 305.219239,120.133777 300.66333,124.760484 L273.62009,152.22086 C269.063147,156.847568 269.063147,164.349556 273.62009,168.976263 C278.176516,173.602971 285.563511,173.602971 290.120454,168.976263 L294.246062,164.787019 C298.802488,160.159786 306.190001,160.159786 310.746427,164.787019 C315.303369,169.413726 315.303369,176.915189 310.746427,181.541897 L158.113404,336.529772 C153.556979,341.157005 146.168432,341.15648 141.612006,336.529772 C137.05558,331.903065 137.056097,324.401602 141.612523,319.774894 L140.588491,320.815247 C145.145434,316.188539 145.144917,308.686551 140.588491,304.059843 C136.032065,299.432611 128.644035,299.432611 124.08761,304.059318 L120.757437,307.440859 C116.201011,312.068091 108.812981,312.068091 104.256555,307.440859 C99.6996123,302.814151 99.6996123,295.312688 104.256555,290.68598 L102.423124,292.547692 C106.97955,287.920984 106.97955,280.418471 102.423124,275.792288 C97.8661811,271.165056 90.4781513,271.165056 85.9217256,275.792288 L38.4816273,323.964139 C33.9252016,328.591372 26.537689,328.591372 21.9812633,323.964139 C17.4243203,319.337431 17.4243203,311.835968 21.9807461,307.209261 L79.7335719,248.564036 C84.2905148,243.937328 84.2899976,236.43534 79.7335719,231.808632 C75.1766289,227.1814 67.7885992,227.1814 63.2321734,231.808632 L38.4805929,256.941475 C33.9241672,261.568182 26.5366546,261.568182 21.9802289,256.941475 C17.4232859,252.314767 17.4232859,244.813304 21.9797117,240.186071 L49.8323511,211.904337 C54.3887768,207.278155 54.3887768,199.776166 49.8323511,195.148934 C45.2759253,190.522226 37.8878956,190.522751 33.3314698,195.148934 L19.9176834,208.77015 C15.3612576,213.397382 7.97374508,213.397382 3.41731932,208.770675 C-1.13910644,204.143967 -1.13910644,196.641979 3.41731932,192.015271 L156.051376,37.0289714 C160.607285,32.4022639 167.995831,32.4017387 172.552257,37.0289714 C172.768959,37.2495409 172.972214,37.4790382 173.168745,37.7111613 C174.487057,38.9673571 175.263874,39.6831576 177.448475,40.6825474 C179.396205,41.5742783 183.413721,42.4124424 187.982559,38.1144884 L199.365349,26.5566473 C203.921257,21.9299398 211.309804,21.9294146 215.86623,26.5566473 C220.42369,31.1833549 220.422656,38.6853432 215.86623,43.3120508 L198.380106,61.0831241 C194.14744,65.7229608 194.973389,69.8019208 195.851574,71.780219 C197.116098,74.627666 197.914119,75.1160699 199.977182,77.443078 L199.931152,77.4441283 C203.909879,82.0981444 203.723692,89.1526918 199.365866,93.5777358 L151.925251,141.750111 C147.369342,146.376294 147.369342,153.877757 151.925768,158.50499 C156.482194,163.132222 163.869706,163.132222 168.426132,158.505515 L182.864468,143.844471 C187.420893,139.217239 194.808923,139.217239 199.365349,143.844471 C199.405172,143.884384 199.44241,143.926397 199.480682,143.966835 C201.165163,145.560712 201.835438,146.324302 204.302425,147.453408 C206.250155,148.344614 210.267671,149.183303 214.836509,144.885349 Z" id="ico_splash" fill="#CED4E0" fill-rule="nonzero"></path>
    </g>
</svg>