<svg xmlns="http://www.w3.org/2000/svg" viewBox="0 0 340 340"><defs><style>.cls-1{fill:none;}.cls-2{fill:#fff;}.cls-3{fill:#1100c2;}</style></defs><title>icon_set_all</title><g id="Logistic_1"><g id="Logistic"><rect class="cls-1" width="340" height="340"/><path class="cls-2" d="M165.64,249.37l2.07,2-3.27-.81c-2-.52-4.17-1.17-6.33-1.93a56.88,56.88,0,0,1-5.66-2.31,73.54,73.54,0,0,1-11.23-6.49,69.17,69.17,0,0,1-9.49-8.06c-1.44-1.45-2.9-3.06-4.33-4.78-1-1.2-1.7-2.1-2.5-3.21l-.86-1.19h26.26l.17.51q.41,1.25.86,2.48C155.17,236.11,159.85,243.9,165.64,249.37Zm-9-103A140.47,140.47,0,0,1,150,159.09l-.09.25c-.17,1-.33,2.08-.48,3.13a137,137,0,0,0-1.17,13.87q-.05,1.58-.08,3.16v.76H180.1V145.91H156.85ZM148.22,185a131.89,131.89,0,0,0,3.25,26.87c.51,2.2,1,4.22,1.59,6.18l.16.54h26.9V184.23H148.2Zm.61,32.65a130.8,130.8,0,0,1-4.25-25.75c-.16-2.31-.27-4.64-.32-6.93l0-.73H133.66l-.47.65q-1.92,2.7-3.86,5.38l-.6.83-3.92,5.39a2.38,2.38,0,0,1-1.3.94,2.09,2.09,0,0,1-2.21-.94l-.55-.75c-3.27-4.47-5.74-7.89-8-11.1l-1.46-2.06.1,2.53c.05,1.34.14,2.58.25,3.8.08.86.17,1.71.29,2.58l.15,1c.07.44.14.89.22,1.33.31,1.77.65,3.4,1,5,.55,2.22,1.17,4.35,1.86,6.36.4,1.17.79,2.22,1.19,3.21l.49,1.19c.19.43.37.86.57,1.29a75.28,75.28,0,0,0,3.86,7.39l.22.37h27.6Zm27-105.13-.39.16.23.66-.33-.61-.55.25c-.5.25-1,.5-1.49.78A33.18,33.18,0,0,0,163,123.68l-.13.18v.22a50.89,50.89,0,0,1-3.93,16.84l-.41,1H180.1V111.37l-.89.18A20.26,20.26,0,0,0,175.8,112.51Zm-13.52,3.72.25,1.52,1-1.14.68-.72q.58-.6,1.2-1.18l2.08-2-2.78.7q-1.1.28-2.19.58l-.67.22.19,1C162.16,115.55,162.23,115.89,162.28,116.23Zm-49.75,61.21c-3-4.36-5.45-8-7.69-11.58-5.33-8.44-11.29-18.52-15-29.24a60,60,0,0,1-1.93-6.88c-.11-.53-.21-1.06-.31-1.59,0-.26-.09-.52-.13-.78l-.05-.38c-.14-1.08-.22-2.13-.25-3.19s0-2,.07-3.23c0-.55.08-1.1.14-1.65,0-.22.05-.45.08-.68l.47.05-.46-.09c0-.07.06-.37.08-.56l0-.16a38.45,38.45,0,0,1,1.66-6.5c.17-.5.36-1,.56-1.49l.45-1c.44-1,.95-2,1.55-3,.48-.85,1-1.72,1.66-2.66.29-.43.6-.85.91-1.27l.29-.38.57-.71a38.86,38.86,0,0,1,4.54-4.64c.39-.34.79-.67,1.2-1l.23-.18.67-.49c.86-.62,1.78-1.23,2.83-1.86.84-.5,1.74-1,2.77-1.5a22.71,22.71,0,0,1,2.74-1.19,38.4,38.4,0,0,1,6.44-1.79c.47-.09.94-.16,1.41-.23l.35-.05h0l.2,0,.82-.08c1.11-.11,2.29-.16,3.6-.17,1.09,0,2.21,0,3.46.15a24.28,24.28,0,0,1,3.21.46,38.45,38.45,0,0,1,6.67,1.94,28.54,28.54,0,0,1,2.6,1.18c1,.49,2,1.06,3.09,1.74a30.35,30.35,0,0,1,5.06,3.83c.74.67,1.5,1.42,2.3,2.29.37.4.73.8,1.08,1.21l.52.62.45.57a38.9,38.9,0,0,1,3.7,5.93,26.15,26.15,0,0,1,1.28,2.86c.39,1,.75,2.1,1.1,3.3l.06.09v.13a35.43,35.43,0,0,1,1,13.75c-.1.78-.22,1.47-.34,2.11-.07.36-.16.72-.24,1.08l-.07.3c-.13.56-.26,1.11-.41,1.66l-.06.23c-.52,1.93-1.19,4-2,6.24-.23.62-.47,1.23-.72,1.85l-.38.92-.36.85-.53,1.2q-.54,1.22-1.11,2.43-.94,2-1.93,3.92c-.88,1.71-1.82,3.46-2.88,5.35q-.56,1-1.13,2l-.07.15-.3.54c-.91,1.58-1.86,3.16-2.8,4.7l-.59.95q-1.17,1.89-2.37,3.76l-1,1.49q-1.09,1.67-2.2,3.33l-.89,1.33q-1.52,2.25-3.05,4.47c-3.27,4.73-6.63,9.36-9.48,13.27l-.61.83-.61-.83q-2.48-3.4-4.92-6.82l-1.44-2-.69-1Q114,179.51,112.54,177.45Zm10.26-37.5a16.87,16.87,0,0,0,17.08-15.77,17.18,17.18,0,0,0-4.57-12.69A16.85,16.85,0,0,0,123,106.21h-.14a16.65,16.65,0,0,0-12,5.27,16.93,16.93,0,0,0-4.68,12.63A17.11,17.11,0,0,0,122.8,139.94Zm14.64,38.88-1,1.45h7.78v-.74c0-2,.1-4.1.22-6.1q.08-1.44.19-2.88l.23-2.94-1.81,2.79C141.3,173.12,139.46,175.87,137.44,178.82Zm17.35,44.74a68,68,0,0,0,8.57,17.09,30.39,30.39,0,0,0,1.87,2.46c.74.89,1.42,1.65,2.06,2.31.83.86,1.59,1.58,2.33,2.21.33.28.66.56,1,.83l.39.29.47.33a25.28,25.28,0,0,0,2.52,1.54c.39.21.79.41,1.19.59l.75.31a19.73,19.73,0,0,0,2.67.81l.58.12.89.17V222.56H154.44Zm97.64-48.15c0-.54-.1-1.09-.17-1.64l-.16-1.32c-.13-.92-.27-1.84-.44-2.75a73.26,73.26,0,0,0-3.16-11.8c-.42-1.16-.82-2.2-1.23-3.19l-.44-1c-.21-.48-.43-1-.65-1.43-1-2-2-4-3-5.76l-.36-.57H215.22l.25.94a135.41,135.41,0,0,1,4.33,32.68v.74h32.9l0-.77C252.63,178.09,252.55,176.71,252.43,175.41ZM219.77,185a137.33,137.33,0,0,1-3.62,29q-.45,1.85-.95,3.7l-.26.95h27.59l.22-.37c1-1.62,1.86-3.25,2.65-4.84.54-1.09,1-2.1,1.45-3.07s.56-1.27,1-2.49a73.19,73.19,0,0,0,3.65-12.74c.24-1.25.42-2.38.58-3.54l.13-1.08c.06-.54.12-1.08.17-1.62h0c.11-1.23.19-2.49.25-3.84l0-.78h-32.9Zm-6.2,38.11a76.67,76.67,0,0,1-8.2,17.66,48.13,48.13,0,0,1-7,8.64l-2,1.95,2.73-.68c1.4-.35,2.78-.73,4.1-1.15,2.17-.68,4.25-1.44,6.18-2.24l.55-.24.72-.32,1.42-.66c.94-.45,1.88-.91,2.8-1.4,2-1,3.86-2.15,5.6-3.28,1-.67,1.94-1.29,2.78-1.89l1.25-.92.88-.67a74.09,74.09,0,0,0,9.4-8.81c.8-.9,1.52-1.73,2.18-2.55.81-1,1-1.25,1.64-2.1l1.36-1.87H213.74Zm2.25-43.57a129.21,129.21,0,0,0-3.56-29.17q-.48-2-1-3.88l-.15-.55h-27v34.36h31.77ZM209.55,141a69.46,69.46,0,0,0-7.79-16.2,37.52,37.52,0,0,0-8.17-9.13l-.2-.15-.3-.22-.57-.4c-.38-.26-.76-.51-1.15-.74a23.78,23.78,0,0,0-2.36-1.26l-1-.4c-.4-.15-.81-.29-1.22-.41-.67-.2-1.29-.35-1.88-.47l-.9-.18v30.55h25.82ZM198.63,243.32l.64-.79.17-.22.18-.23c.3-.4.6-.8.89-1.21.7-1,1.31-1.91,1.88-2.83a67.75,67.75,0,0,0,3.59-6.6,82.84,82.84,0,0,0,3.23-7.89l.35-1H184.07v30.07l1.11-.22a19.87,19.87,0,0,0,2.68-.78l.65-.25.11-.05c.4-.18.8-.37,1.19-.58a25.23,25.23,0,0,0,2.52-1.52c.35-.24.7-.49,1.05-.76l.33-.26.5-.42A37.32,37.32,0,0,0,198.63,243.32Zm3.69-124.51a72.28,72.28,0,0,1,11.56,22.61l.17.52H240.3l-.85-1.19-.86-1.18-.47-.63-.2-.26c-.64-.81-1.29-1.61-2-2.4a74,74,0,0,0-9.19-9l-1.41-1.13-.88-.67c-.83-.62-1.67-1.22-2.53-1.8-1.85-1.26-3.71-2.41-5.51-3.41-2-1.1-3.93-2.08-5.82-2.92l-1-.42-.19-.08-.29.69.16-.74-1.46-.59c-1.07-.42-2-.77-3-1.08-1.87-.63-3.77-1.19-5.66-1.67l-2.8-.71,2.1,2A37.69,37.69,0,0,1,202.32,118.81ZM211,218.05q.24-.84.47-1.69A131.5,131.5,0,0,0,215.81,185l0-.77H184.07V218.6h26.74Z"/><path class="cls-3" d="M251.66,209a74.74,74.74,0,0,0,5-26.22v-.13a1.91,1.91,0,0,0,0-.37,1.94,1.94,0,0,0,0-.34v-.13A74.68,74.68,0,0,0,194,108.31a76.73,76.73,0,0,0-10.9-.94h-.15a17.91,17.91,0,0,0-2.27,0,75.13,75.13,0,0,0-19.18,2.83l-.67.19-.24-.66a40.52,40.52,0,0,0-14.79-19.37A39.67,39.67,0,0,0,123,83.25q-1.73,0-3.45.15a40.39,40.39,0,0,0-24,10.81,39.33,39.33,0,0,0-11.91,22.84,38.79,38.79,0,0,0,.39,13.57,72,72,0,0,0,4.76,14.14c4.72,10.9,11.08,21,16.68,29.41.4.6.81,1.2,1.21,1.79l.79,1.16,0,.26a74.49,74.49,0,0,0,73.9,79.28l.19,0a1.9,1.9,0,0,0,1,0l.19,0A74.54,74.54,0,0,0,251.66,209Zm-89.09-95q1.09-.31,2.19-.58l2.78-.7-2.08,2q-.61.58-1.2,1.18l-.68.72-1,1.14-.25-1.52c-.06-.34-.12-.69-.19-1l-.19-1Zm-57.71,51.84c-5.33-8.44-11.29-18.52-15-29.24a60,60,0,0,1-1.93-6.88c-.11-.53-.21-1.06-.31-1.59,0-.26-.09-.52-.13-.78l-.05-.38c-.14-1.08-.22-2.13-.25-3.19s0-2,.07-3.23c0-.55.08-1.1.14-1.65,0-.22.05-.45.08-.68l.47.05-.46-.09c0-.07.06-.37.08-.56l0-.16a38.45,38.45,0,0,1,1.66-6.5c.17-.5.36-1,.56-1.49l.45-1c.44-1,.95-2,1.55-3,.48-.85,1-1.72,1.66-2.66.29-.43.6-.85.91-1.27l.29-.38.57-.71a38.86,38.86,0,0,1,4.54-4.64c.39-.34.79-.67,1.2-1l.23-.18.67-.49c.86-.62,1.78-1.23,2.83-1.86.84-.5,1.74-1,2.77-1.5a22.71,22.71,0,0,1,2.74-1.19,38.4,38.4,0,0,1,6.44-1.79c.47-.09.94-.16,1.41-.23l.35-.05h0l.2,0,.82-.08c1.11-.11,2.29-.16,3.6-.17,1.09,0,2.21,0,3.46.15a24.28,24.28,0,0,1,3.21.46,38.45,38.45,0,0,1,6.67,1.94,28.54,28.54,0,0,1,2.6,1.18c1,.49,2,1.06,3.09,1.74a30.35,30.35,0,0,1,5.06,3.83c.74.67,1.5,1.42,2.3,2.29.37.4.73.8,1.08,1.21l.52.62.45.57a38.9,38.9,0,0,1,3.7,5.93,26.15,26.15,0,0,1,1.28,2.86c.39,1,.75,2.1,1.1,3.3l.06.09v.13a35.43,35.43,0,0,1,1,13.75c-.1.78-.22,1.47-.34,2.11-.07.36-.16.72-.24,1.08l-.07.3c-.13.56-.26,1.11-.41,1.66l-.06.23c-.52,1.93-1.19,4-2,6.24-.23.62-.47,1.23-.72,1.85l-.38.92-.36.85-.53,1.2q-.54,1.22-1.11,2.43-.94,2-1.93,3.92c-.88,1.71-1.82,3.46-2.88,5.35q-.56,1-1.13,2l-.07.15-.3.54c-.91,1.58-1.86,3.16-2.8,4.7l-.59.95q-1.17,1.89-2.37,3.76l-1,1.49q-1.09,1.67-2.2,3.33l-.89,1.33q-1.52,2.25-3.05,4.47c-3.27,4.73-6.63,9.36-9.48,13.27l-.61.83-.61-.83q-2.48-3.4-4.92-6.82l-1.44-2-.69-1q-1.44-2-2.86-4.1C109.53,173.09,107.09,169.41,104.85,165.87Zm40,1.75-.23,2.94q-.11,1.44-.19,2.88c-.12,2-.19,4-.22,6.1v.74h-7.78l1-1.45c2-2.95,3.87-5.7,5.62-8.41Zm-23.38,51-.22-.37a75.28,75.28,0,0,1-3.86-7.39c-.19-.43-.38-.86-.57-1.29l-.49-1.19c-.39-1-.78-2-1.19-3.21-.69-2-1.32-4.14-1.86-6.36-.39-1.58-.73-3.21-1-5-.08-.44-.15-.89-.22-1.33l-.15-1c-.11-.87-.21-1.72-.29-2.58-.12-1.21-.2-2.46-.25-3.8l-.1-2.53,1.46,2.06c2.28,3.21,4.75,6.63,8,11.1l.55.75a2.09,2.09,0,0,0,2.21.94,2.38,2.38,0,0,0,1.3-.94l3.92-5.39.6-.83q1.94-2.68,3.86-5.38l.47-.65h10.58l0,.73c.05,2.29.16,4.62.32,6.93a130.8,130.8,0,0,0,4.25,25.75l.26.95Zm43,31.93c-2-.52-4.17-1.17-6.33-1.93a56.88,56.88,0,0,1-5.66-2.31,73.54,73.54,0,0,1-11.23-6.49,69.17,69.17,0,0,1-9.49-8.06c-1.44-1.45-2.9-3.06-4.33-4.78-1-1.2-1.7-2.1-2.5-3.21l-.86-1.19h26.26l.17.51q.41,1.25.86,2.48c3.83,10.56,8.5,18.35,14.3,23.82l2.07,2Zm15.66,2.13-.89-.17-.58-.12a19.73,19.73,0,0,1-2.67-.81l-.75-.31c-.41-.19-.8-.39-1.19-.59a25.28,25.28,0,0,1-2.52-1.54l-.47-.33-.39-.29c-.35-.28-.69-.55-1-.83-.74-.63-1.5-1.35-2.33-2.21-.65-.67-1.32-1.42-2.06-2.31a30.39,30.39,0,0,1-1.87-2.46,68,68,0,0,1-8.57-17.09l-.35-1H180.1Zm0-34.06h-26.9l-.16-.54c-.56-2-1.08-4-1.59-6.18A131.89,131.89,0,0,1,148.22,185l0-.77h31.9Zm0-38.33H148.19v-.76q0-1.58.08-3.16a137,137,0,0,1,1.17-13.87c.15-1,.31-2.09.48-3.13l.09-.25a140.47,140.47,0,0,0,6.63-12.74l.2-.44H180.1Zm0-38.33H158.52l.41-1a50.89,50.89,0,0,0,3.93-16.84v-.22l.13-.18a33.18,33.18,0,0,1,10.27-9.93c.49-.28,1-.54,1.49-.78l.55-.25.33.61-.23-.66.39-.16a20.26,20.26,0,0,1,3.41-1l.89-.18ZM252.65,185c-.05,1.35-.13,2.61-.25,3.84h0c0,.54-.11,1.08-.17,1.63l-.13,1.08c-.16,1.15-.35,2.28-.58,3.54a73.19,73.19,0,0,1-3.65,12.74c-.47,1.22-.6,1.52-1,2.49s-.9,2-1.45,3.07c-.79,1.59-1.68,3.22-2.65,4.84l-.22.37H214.94l.26-.95q.5-1.85.95-3.7a137.33,137.33,0,0,0,3.63-29l0-.73h32.9Zm-9.5-38.53c1,1.79,2.07,3.73,3,5.76.22.47.44.95.65,1.43l.44,1c.41,1,.81,2,1.23,3.19a73.26,73.26,0,0,1,3.16,11.8c.17.91.31,1.83.44,2.75l.16,1.32c.06.56.12,1.1.17,1.64.12,1.31.2,2.68.25,4.09l0,.77H219.8v-.74a135.41,135.41,0,0,0-4.33-32.68l-.25-.94H242.8Zm-43.89-33.05c1.88.48,3.79,1,5.66,1.67.92.31,1.89.66,3,1.08l1.46.59-.16.74h0l.29-.69.19.08,1,.42c1.89.84,3.85,1.83,5.82,2.92,1.8,1,3.66,2.15,5.51,3.41.86.58,1.7,1.19,2.53,1.8l.88.67,1.41,1.13a74,74,0,0,1,9.19,9c.67.78,1.32,1.59,2,2.4l.2.26.47.63.86,1.18.85,1.19H214l-.17-.52a72.28,72.28,0,0,0-11.56-22.61,37.69,37.69,0,0,0-3.75-4.11l-2.1-2Zm-15.2-2,.9.18c.6.12,1.21.27,1.88.47.41.12.82.26,1.22.41l1,.4a23.78,23.78,0,0,1,2.36,1.26c.39.23.77.49,1.15.74l.57.4.3.22.2.15a37.52,37.52,0,0,1,8.17,9.13,69.46,69.46,0,0,1,7.79,16.2l.34,1H184.07Zm0,34.52h27l.15.55q.54,1.93,1,3.88a129.21,129.21,0,0,1,3.56,29.17v.76H184.07Zm0,38.33h31.75l0,.77a131.5,131.5,0,0,1-4.37,31.36q-.23.85-.47,1.69l-.16.54H184.07Zm9.65,64-.33.26c-.35.27-.7.52-1.05.76a25.23,25.23,0,0,1-2.52,1.52c-.39.21-.79.4-1.19.58l-.11.05-.65.25a19.87,19.87,0,0,1-2.68.78l-1.11.22V222.56h25.49l-.35,1a82.84,82.84,0,0,1-3.23,7.89,67.75,67.75,0,0,1-3.59,6.6c-.56.91-1.18,1.84-1.88,2.83-.29.41-.59.81-.89,1.21l-.18.23-.17.22-.64.79a37.32,37.32,0,0,1-4.41,4.48ZM212.08,246l-1.42.66-.72.32-.55.24c-1.94.81-4,1.56-6.18,2.24-1.32.41-2.7.8-4.1,1.15l-2.73.68,2-1.95a48.13,48.13,0,0,0,7-8.64,76.67,76.67,0,0,0,8.2-17.66l.17-.52H240l-1.36,1.87c-.62.84-.82,1.09-1.64,2.1-.67.82-1.38,1.65-2.18,2.55a74.09,74.09,0,0,1-9.4,8.81l-.88.67-1.25.92c-.85.61-1.76,1.23-2.78,1.89-1.74,1.13-3.62,2.23-5.6,3.28C214,245.13,213,245.59,212.08,246ZM106.22,124.12a16.86,16.86,0,0,0,28.23,11.39,16.91,16.91,0,0,0,5.43-11.33,17.18,17.18,0,0,0-4.57-12.69A16.85,16.85,0,0,0,123,106.21h-.14a16.65,16.65,0,0,0-12,5.27A16.93,16.93,0,0,0,106.22,124.12Zm4-2.54,0-.13a1.75,1.75,0,0,1,0-.24l0-.21c.06-.36.15-.72.23-1.08a9.62,9.62,0,0,1,1-2.64,15.77,15.77,0,0,1,.81-1.39c.11-.17.22-.33.34-.49l.61.36-.51-.47.24-.3.2-.25a15.69,15.69,0,0,1,1.5-1.51L115,113l.27-.22c.3-.23.56-.39.81-.56a15.54,15.54,0,0,1,1.89-1l.1,0,.14-.06h0l.37-.14c.42-.15.86-.28,1.3-.4s.72-.17,1.08-.24l.65-.09a16,16,0,0,1,2.58,0l.41,0h0l.18,0h.07c.37.06.73.13,1.09.22s.71.18,1.06.29l.52.17.12,0,.33.12a15.72,15.72,0,0,1,1.82.94c.28.17.55.35.82.54h0l.55.44a15.61,15.61,0,0,1,1.53,1.48c.2.21.38.44.56.67l.17.23c.15.21.29.42.43.64a15.57,15.57,0,0,1,1,1.93l.05.11,0,0,0,.09h0l0,.05.12.32c.15.42.28.86.4,1.3s.17.72.24,1.08l.09.65a15.74,15.74,0,0,1,0,2.65v.1c0,.11,0,.35,0,.42,0,.29-.08.51-.12.72a15.27,15.27,0,0,1-.43,1.63A10.69,10.69,0,0,1,134,130c-.14.23-.3.46-.45.68l-.14.19-.16.21c-.31.38-.63.74-1,1.12s-.77.72-1.07,1l-.15.11-.22.17-.09.07c-.3.21-.6.4-.91.6a15.88,15.88,0,0,1-1.45.77l-.36.15c-.26.1-.53.19-.79.28a15.17,15.17,0,0,1-1.62.43l-.66.12-.15-.65v.66l-.49,0-.25,0-.86,0-.92,0-.58,0-.13,0h0l-.32,0-.19,0a15.72,15.72,0,0,1-1.61-.38l-.78-.25-.38-.14h0l-.14-.06-.08,0a15.26,15.26,0,0,1-2.62-1.52l-.31-.24-.12-.1c-.21-.18-.41-.36-.6-.54a15.57,15.57,0,0,1-1.29-1.35l-.14-.18-.15-.2-.4-.57a15.47,15.47,0,0,1-.82-1.39c-.13-.24-.24-.48-.35-.73l-.14-.35a15.32,15.32,0,0,1-.56-1.84c-.06-.25-.11-.51-.16-.77,0-.07,0-.22-.05-.36l0-.19c-.05-.5-.08-1-.08-1.58A15,15,0,0,1,110.22,121.58Z"/></g></g></svg>