<svg xmlns="http://www.w3.org/2000/svg" viewBox="0 0 340 340"><defs><style>.cls-1{fill:none;}.cls-2{fill:#fff;}.cls-3{fill:#1100c2;}</style></defs><title>icon_set_all</title><g id="Order_1"><g id="Order"><rect class="cls-1" width="340" height="340"/><path class="cls-2" d="M89.14,157.05H251.76V168H99.92Zm21.65-5.85-.55,1.78h29.19l.39-.7a36.19,36.19,0,0,1,63,0l.39.7h29.19l-.55-1.78c-.45-1.44-.94-2.87-1.48-4.24l-.51-1.3,13.58-11.93-4.62-8-17.15,5.77-.88-1.09a64.13,64.13,0,0,0-9.87-9.84l-1.09-.87,5.79-17.14-8-4.62-12,13.58-1.31-.51a63.22,63.22,0,0,0-13.47-3.61l-1.39-.21L176,89.5h-9.24l-3.56,17.71-1.39.21A63.27,63.27,0,0,0,148.3,111l-1.31.51L135,98l-8,4.61,5.79,17.14-1.09.87a64.11,64.11,0,0,0-9.87,9.84l-.87,1.09-17.15-5.77-4.62,8,13.58,11.93-.51,1.3C111.73,148.33,111.24,149.75,110.79,151.21ZM135,242l12-13.56,1.31.51a63.13,63.13,0,0,0,13.48,3.61l1.39.21,3.55,17.72H176l3.55-17.71,1.39-.21A63.09,63.09,0,0,0,194.37,229l1.31-.51,12,13.56,8-4.61-5.79-17.14,1.09-.87a63.82,63.82,0,0,0,9.87-9.84l.88-1.09,17.15,5.77,4.62-8-13.58-11.92.51-1.3c.53-1.35,1-2.78,1.48-4.24l.55-1.78H203.24l-.39.7a36.19,36.19,0,0,1-63,0l-.39-.7H110.24l.55,1.78c.45,1.46.95,2.89,1.48,4.24l.51,1.3L99.19,206.26l4.62,8L121,208.47l.88,1.09a63.76,63.76,0,0,0,9.86,9.84l1.09.88L127,237.41Zm116.73-70H99.92l-10.78,10.9H251.76ZM70.1,165.66v8.68L84,182.44,96.27,170,84,157.56Zm185.65-8.6v25.88h10.81V157.06ZM281.37,170a12.93,12.93,0,0,0-9-12.38l-1.78-.55v25.85l1.78-.55a12.94,12.94,0,0,0,9-12.37Z"/><path class="cls-3" d="M280.44,182a17.16,17.16,0,0,0,0-24.07,16.6,16.6,0,0,0-11.86-5h-32l-.28-1c-.4-1.46-.85-2.9-1.34-4.28l-.31-.87,13.94-12.26-7.9-13.66-17.62,5.93-.6-.7a68.55,68.55,0,0,0-7.2-7.18l-.7-.6,5.95-17.61L206.8,92.85,194.51,106.8l-.87-.31a67.46,67.46,0,0,0-9.83-2.64l-.91-.17L179.24,85.5H163.43l-3.66,18.19-.91.17a67.61,67.61,0,0,0-9.83,2.64l-.87.31L135.87,92.85l-13.71,7.9,5.94,17.61-.7.6a68.22,68.22,0,0,0-7.2,7.18l-.6.7L102,120.91l-7.9,13.66L108,146.83l-.31.87c-.48,1.38-.93,2.82-1.33,4.28l-.28,1H84.29a2,2,0,0,0-1,.28L54.64,170l28.67,16.73a2,2,0,0,0,1,.27H106.1l.28,1c.4,1.45.85,2.89,1.34,4.29l.31.88L94.08,205.42l7.9,13.66,17.62-5.93.6.7a68.15,68.15,0,0,0,7.2,7.18l.71.6-5.94,17.6,13.71,7.88,12.28-13.92.87.31a67.76,67.76,0,0,0,9.85,2.64l.91.17,3.65,18.19h15.81l3.65-18.19.91-.17a67.45,67.45,0,0,0,9.84-2.64l.87-.31,12.28,13.92,13.71-7.88-5.95-17.6.7-.6a68.28,68.28,0,0,0,7.2-7.18l.6-.7,17.62,5.93,7.9-13.66-13.95-12.24.31-.88c.48-1.38.93-2.82,1.34-4.28l.28-1h32.08A16.57,16.57,0,0,0,280.44,182Zm-9.88-25,1.78.55a13,13,0,0,1,0,24.74l-1.78.55ZM99.2,133.73l4.62-8L121,131.52l.88-1.09a64.11,64.11,0,0,1,9.87-9.84l1.09-.87L127,102.57,135,98l12,13.57,1.31-.51a63.27,63.27,0,0,1,13.46-3.61l1.39-.21,3.56-17.71H176l3.56,17.71,1.39.21A63.22,63.22,0,0,1,194.37,111l1.31.51,12-13.58,8,4.62-5.79,17.14,1.09.87a64.13,64.13,0,0,1,9.87,9.84l.88,1.09,17.15-5.77,4.62,8L229.9,145.67l.51,1.3c.54,1.37,1,2.79,1.48,4.24l.55,1.78H203.24l-.39-.7a36.19,36.19,0,0,0-63,0l-.39.7H110.24l.55-1.78c.45-1.45.94-2.88,1.48-4.24l.51-1.3ZM198.73,153h-54.8l1.66-2.2a32.16,32.16,0,0,1,51.48,0ZM84,182.44l-13.87-8.1v-8.68L84,157.56,96.27,170Zm159.5,23.82-4.62,8-17.15-5.77-.87,1.09A63.82,63.82,0,0,1,211,219.4l-1.09.88,5.79,17.14-8,4.61-12-13.56-1.31.51a63.09,63.09,0,0,1-13.47,3.61l-1.39.21L176,250.51h-9.24l-3.55-17.72-1.39-.21A63.13,63.13,0,0,1,148.29,229l-1.31-.51L135,242l-8-4.61,5.79-17.14-1.09-.87a63.76,63.76,0,0,1-9.86-9.84l-.88-1.09-17.15,5.77-4.62-8,13.58-11.92-.51-1.3c-.53-1.36-1-2.79-1.48-4.24l-.55-1.78h29.19l.39.7a36.19,36.19,0,0,0,63,0l.39-.7h29.19l-.55,1.78c-.45,1.46-.95,2.89-1.48,4.24l-.51,1.3ZM143.93,187h54.8l-1.66,2.2a32.16,32.16,0,0,1-51.48,0Zm107.83-4.06H89.14L99.92,172H251.76Zm0-15H99.92L89.14,157.05H251.76Zm14.8,15H255.75V157.06h10.81Z"/></g></g></svg>