<svg xmlns="http://www.w3.org/2000/svg" viewBox="0 0 340 341"><defs><style>.cls-1{fill:none;}.cls-2{fill:#fff;}.cls-3{fill:#1100c2;}</style></defs><title>icon_set_all</title><g id="Quallity_control_1" data-name="Quallity control_1"><g id="quallity_control" data-name="quallity control"><rect class="cls-1" y="1" width="340" height="340"/><path class="cls-2" d="M175.33,168a1.34,1.34,0,0,1-1.35,1.35H166a1.34,1.34,0,0,1-1.35-1.35v-8c0-.06,0-.12,0-.18a1.91,1.91,0,0,0-.08-.4,1.83,1.83,0,0,0-.14-.34,2.28,2.28,0,0,0-.47-.58,1.81,1.81,0,0,0-.31-.21,2,2,0,0,0-.37-.16,1.77,1.77,0,0,0-.17-.07A30.55,30.55,0,0,1,153.2,154c-.05,0-.12,0-.17-.07a2,2,0,0,0-.37-.14,1.86,1.86,0,0,0-.37-.07,2,2,0,0,0-.37,0,2,2,0,0,0-1,.44s-.11.06-.15.1l-5.65,5.65a1.35,1.35,0,0,1-1.91,0l-5.63-5.63a1.35,1.35,0,0,1,0-1.91l5.65-5.65a1.57,1.57,0,0,0,.1-.15,2.2,2.2,0,0,0,.37-.67,1.93,1.93,0,0,0,.07-.37,1.83,1.83,0,0,0,0-.38,1.79,1.79,0,0,0-.07-.36,1.82,1.82,0,0,0-.15-.37,1.78,1.78,0,0,0-.07-.17,30.5,30.5,0,0,1-4.1-9.92c0-.06-.06-.11-.07-.17a1.89,1.89,0,0,0-.16-.36,1.91,1.91,0,0,0-.21-.32,1.89,1.89,0,0,0-.26-.25,1.92,1.92,0,0,0-.33-.22,2,2,0,0,0-.32-.13,1.91,1.91,0,0,0-.41-.08,1.63,1.63,0,0,0-.17,0h-8a1.34,1.34,0,0,1-1.35-1.35v-7.94a1.34,1.34,0,0,1,1.35-1.35h8a2,2,0,0,0,.72-.15,4.06,4.06,0,0,0,.6-.38,1.79,1.79,0,0,0,.18-.2,1.9,1.9,0,0,0,.24-.36,1.87,1.87,0,0,0,.11-.28,2,2,0,0,0,.08-.19,30.55,30.55,0,0,1,4.1-9.92,1.78,1.78,0,0,0,.07-.17,1.82,1.82,0,0,0,.15-.37,2.07,2.07,0,0,0,.07-.36,2.22,2.22,0,0,0-.08-.75,1.83,1.83,0,0,0-.15-.34,1.94,1.94,0,0,0-.22-.33s-.06-.11-.1-.15l-5.65-5.65a1.35,1.35,0,0,1,0-1.91L143.16,95a1.35,1.35,0,0,1,1.91,0l5.65,5.65,0,0a1.91,1.91,0,0,0,.57.38l.15.06a2,2,0,0,0,.66.13h0a2,2,0,0,0,.66-.13L153,101a1.87,1.87,0,0,0,.22-.1,30.55,30.55,0,0,1,9.92-4.11c.06,0,.11-.06.17-.07a2.19,2.19,0,0,0,.67-.37,2.28,2.28,0,0,0,.47-.58,2,2,0,0,0,.14-.34,1.86,1.86,0,0,0,.08-.4,1.74,1.74,0,0,0,0-.18v-8A1.34,1.34,0,0,1,166,85.49H174a1.34,1.34,0,0,1,1.35,1.35v8c0,.06,0,.12,0,.18a1.91,1.91,0,0,0,.08.4,1.83,1.83,0,0,0,.14.34,2.28,2.28,0,0,0,.47.58,1.81,1.81,0,0,0,.31.21,2,2,0,0,0,.37.16,1.77,1.77,0,0,0,.17.07,30.55,30.55,0,0,1,9.92,4.11,2,2,0,0,0,.22.1l.18.08a2,2,0,0,0,.66.13h0a2,2,0,0,0,.66-.13l.15-.06a2,2,0,0,0,.57-.38l0,0L194.94,95a1.35,1.35,0,0,1,1.91,0l5.63,5.63a1.35,1.35,0,0,1,0,1.91l-5.65,5.65a1.57,1.57,0,0,0-.1.15,2.2,2.2,0,0,0-.37.67,1.93,1.93,0,0,0-.07.37,1.83,1.83,0,0,0,0,.38,1.79,1.79,0,0,0,.07.36,1.82,1.82,0,0,0,.15.37,1.78,1.78,0,0,0,.07.17,30.5,30.5,0,0,1,4.1,9.92,1.61,1.61,0,0,0,.08.19,1.85,1.85,0,0,0,.11.27,1.92,1.92,0,0,0,.25.36,2.19,2.19,0,0,0,.18.2,1.94,1.94,0,0,0,.39.26,1.83,1.83,0,0,0,.21.12,2,2,0,0,0,.72.15h8a1.34,1.34,0,0,1,1.35,1.35v7.94a1.34,1.34,0,0,1-1.35,1.35h-8c-.06,0-.11,0-.18,0a1.91,1.91,0,0,0-.4.08,1.81,1.81,0,0,0-.34.14,1.94,1.94,0,0,0-.31.21,2,2,0,0,0-.64.93,1.78,1.78,0,0,0-.07.17,30.55,30.55,0,0,1-4.1,9.92,1.78,1.78,0,0,0-.07.17,1.82,1.82,0,0,0-.15.37,2.07,2.07,0,0,0-.07.36,2.22,2.22,0,0,0,.08.75,1.83,1.83,0,0,0,.15.34,1.94,1.94,0,0,0,.22.33s.06.11.1.15l5.65,5.65a1.35,1.35,0,0,1,0,1.91l-5.63,5.63a1.35,1.35,0,0,1-1.91,0l-5.65-5.65a1.52,1.52,0,0,0-.15-.1,1.9,1.9,0,0,0-.34-.22,1.93,1.93,0,0,0-.33-.14,1.88,1.88,0,0,0-1.12,0,1.9,1.9,0,0,0-.36.14,1.8,1.8,0,0,0-.17.07,30.55,30.55,0,0,1-9.92,4.11c-.06,0-.11.06-.17.07a2.19,2.19,0,0,0-.67.37,2.28,2.28,0,0,0-.47.58,2,2,0,0,0-.14.34,1.86,1.86,0,0,0-.08.4,1.74,1.74,0,0,0,0,.18v8ZM170,135.5a8.07,8.07,0,1,0-8.07-8.07A8.08,8.08,0,0,0,170,135.5Zm-57.5,67.09L95.42,185.52A22,22,0,0,1,89.1,172.3l-2-19L88,125.69a3,3,0,0,1,.9-2.08,3,3,0,0,1,2.26-.9,9.37,9.37,0,0,1,9,9.64L99.74,146a1.81,1.81,0,0,0,0,.27,2,2,0,0,0,0,.27l2.6,10.52a9.31,9.31,0,0,0-2,1.49,9.45,9.45,0,0,0,0,13.34L118,189.51a2,2,0,0,0,2.81-2.81l-17.64-17.64a5.47,5.47,0,0,1,0-7.72,5.61,5.61,0,0,1,7.72,0l15.36,15.37a2,2,0,0,0,.17.12,1.85,1.85,0,0,0,.71.36,1.58,1.58,0,0,0,.19.07l6,1a11.3,11.3,0,0,1,6.05,3.13l10.11,10.11a11.24,11.24,0,0,1,3.31,7.71l.38,17.08-34.17.37-.22-1.52A22.31,22.31,0,0,0,112.5,202.59ZM159.67,254a6.89,6.89,0,0,1-4.88,2.1l-36.41.39a7,7,0,0,1-7-6.87l-.23-21.94a7,7,0,0,1,6.87-7l36.41-.39h.08a7,7,0,0,1,6.95,6.87l.23,21.94A6.9,6.9,0,0,1,159.67,254Zm69.21-26.33-.23,21.94a7,7,0,0,1-7,6.87l-36.41-.39a7,7,0,0,1-6.87-7l.23-21.94a7,7,0,0,1,6.95-6.87h.08l36.41.39A7,7,0,0,1,228.88,227.69Zm15.7-42.18L227.5,202.59a22.31,22.31,0,0,0-6.33,12.57l-.22,1.52-34.17-.37.38-17.07a11.22,11.22,0,0,1,3.31-7.71l10.11-10.11a11.31,11.31,0,0,1,6.06-3.13l6-1c.07,0,.12-.06.19-.07a1.88,1.88,0,0,0,.38-.15,2,2,0,0,0,.33-.22,1.63,1.63,0,0,0,.17-.12l15.36-15.37a5.61,5.61,0,0,1,7.72,0,5.47,5.47,0,0,1,0,7.72l-17.64,17.64A2,2,0,1,0,222,189.5l17.64-17.64a9.31,9.31,0,0,0-2-14.84l2.6-10.52a2,2,0,0,0,0-.27,1.81,1.81,0,0,0,0-.27l-.44-13.62a9.37,9.37,0,0,1,9-9.64,3.09,3.09,0,0,1,3.18,3l.88,27.58-2,19A22,22,0,0,1,244.58,185.51Zm-74.34-68a9.5,9.5,0,1,0,9.5,9.5A9.5,9.5,0,0,0,170.24,117.49Z"/><path id="Combined-Shape" class="cls-3" d="M256,125.54a7,7,0,0,0-2.07-4.75,7.25,7.25,0,0,0-5.2-2.07,13.36,13.36,0,0,0-12.89,13.74l.43,13.35-2.48,10c-.28,0-.56-.08-.85-.08a9.37,9.37,0,0,0-6.67,2.76l-14.91,14.92-5.41.93a15.31,15.31,0,0,0-8.2,4.24l-10.11,10.11a15.19,15.19,0,0,0-4.47,10.43l-.39,17.58a10.75,10.75,0,0,0-8.19,10.38l-.23,21.94a11,11,0,0,0,10.81,11l36.41.39h.12a11,11,0,0,0,10.92-10.81l.23-21.94a10.94,10.94,0,0,0-8-10.62l.2-1.37a18.35,18.35,0,0,1,5.21-10.34l17.08-17.08a26,26,0,0,0,7.46-15.61l1.81-17.21a10,10,0,0,0,.2-1.94v-.05c0-.09,0-.17,0-.26ZM228.88,227.69l-.23,21.94a7,7,0,0,1-7,6.87l-36.41-.39a7,7,0,0,1-6.87-7l.23-21.94a7,7,0,0,1,6.95-6.87h.08l36.41.39A7,7,0,0,1,228.88,227.69Zm15.7-42.18L227.5,202.59a22.31,22.31,0,0,0-6.33,12.57l-.22,1.52-34.17-.37.38-17.07a11.22,11.22,0,0,1,3.31-7.71l10.11-10.11a11.31,11.31,0,0,1,6.06-3.13l6-1c.07,0,.12-.06.19-.07a1.88,1.88,0,0,0,.38-.15,2,2,0,0,0,.33-.22,1.63,1.63,0,0,0,.17-.12l15.36-15.37a5.61,5.61,0,0,1,7.72,0,5.47,5.47,0,0,1,0,7.72l-17.64,17.64A2,2,0,1,0,222,189.5l17.64-17.64a9.31,9.31,0,0,0-2-14.84l2.6-10.52a2,2,0,0,0,0-.27,1.81,1.81,0,0,0,0-.27l-.44-13.62a9.37,9.37,0,0,1,9-9.64,3.09,3.09,0,0,1,3.18,3l.88,27.58-2,19A22,22,0,0,1,244.58,185.51Zm-23.95,50.1a5.16,5.16,0,1,1,5.16-5.16A5.16,5.16,0,0,1,220.63,235.61Zm-58.52-16.18a10.86,10.86,0,0,1,3.29,7.69l.23,21.94a11,11,0,0,1-10.81,11l-36.41.39h-.12a10.95,10.95,0,0,1-10.92-10.81l-.23-21.94a10.94,10.94,0,0,1,8-10.62l-.2-1.38a18.33,18.33,0,0,0-5.2-10.33L92.61,188.33a26,26,0,0,1-7.46-15.61l-1.81-17.2a10.07,10.07,0,0,1-.21-2h0c0-.08,0-.16,0-.25L84,125.55a7,7,0,0,1,2.07-4.76,7.19,7.19,0,0,1,5.18-2.07,13.37,13.37,0,0,1,12.91,13.74l-.43,13.35,2.48,10c.28,0,.56-.08.85-.08a9.37,9.37,0,0,1,6.67,2.76l14.91,14.92,5.41.93a15.29,15.29,0,0,1,8.19,4.23l10.11,10.11a15.17,15.17,0,0,1,4.47,10.43l.39,17.56A10.75,10.75,0,0,1,162.11,219.43ZM112.5,202.59a22.31,22.31,0,0,1,6.33,12.57l.22,1.52,34.17-.37-.38-17.08a11.24,11.24,0,0,0-3.31-7.71l-10.11-10.11a11.3,11.3,0,0,0-6.05-3.13l-6-1a1.58,1.58,0,0,1-.19-.07,1.85,1.85,0,0,1-.71-.36,2,2,0,0,1-.17-.12L110.9,161.33a5.61,5.61,0,0,0-7.72,0,5.47,5.47,0,0,0,0,7.72l17.64,17.64a2,2,0,1,1-2.81,2.81l-17.64-17.64a9.45,9.45,0,0,1,0-13.34,9.31,9.31,0,0,1,2-1.49l-2.6-10.52a2,2,0,0,1,0-.27,1.81,1.81,0,0,1,0-.27l.44-13.62a9.37,9.37,0,0,0-9-9.64,3,3,0,0,0-2.26.9,3,3,0,0,0-.9,2.08l-.88,27.57,2,19a22,22,0,0,0,6.32,13.21ZM159.67,254a6.9,6.9,0,0,0,2-4.93l-.23-21.94a7,7,0,0,0-6.95-6.87h-.08l-36.41.39a7,7,0,0,0-6.87,7l.23,21.94a7,7,0,0,0,7,6.87l36.41-.39A6.89,6.89,0,0,0,159.67,254Zm-40.3-18.41a5.16,5.16,0,1,1,5.16-5.16A5.16,5.16,0,0,1,119.37,235.61ZM179.3,168a5.34,5.34,0,0,1-5.33,5.33H166A5.34,5.34,0,0,1,160.7,168v-6.46a34.5,34.5,0,0,1-8.25-3.41l-4.57,4.57a5.33,5.33,0,0,1-7.53,0l-5.63-5.63a5.33,5.33,0,0,1,0-7.53l4.57-4.57a34.5,34.5,0,0,1-3.41-8.25h-6.46a5.34,5.34,0,0,1-5.33-5.33v-7.94a5.34,5.34,0,0,1,5.33-5.33h6.46a34.42,34.42,0,0,1,3.41-8.25l-4.57-4.57a5.33,5.33,0,0,1,0-7.53l5.63-5.63a5.34,5.34,0,0,1,7.53,0l4.57,4.58a34.42,34.42,0,0,1,8.25-3.41V86.84A5.34,5.34,0,0,1,166,81.51H174a5.34,5.34,0,0,1,5.33,5.33V93.3a34.5,34.5,0,0,1,8.25,3.41l4.57-4.57a5.34,5.34,0,0,1,7.53,0l5.63,5.64a5.33,5.33,0,0,1,0,7.53l-4.57,4.57a34.5,34.5,0,0,1,3.41,8.25h6.46a5.34,5.34,0,0,1,5.33,5.33v7.94a5.34,5.34,0,0,1-5.33,5.33h-6.46a34.42,34.42,0,0,1-3.41,8.25l4.57,4.57a5.33,5.33,0,0,1,0,7.53l-5.63,5.63a5.33,5.33,0,0,1-7.53,0l-4.57-4.57a34.39,34.39,0,0,1-8.25,3.41Zm-4,0h0v-8a1.74,1.74,0,0,1,0-.18,1.86,1.86,0,0,1,.08-.4,2,2,0,0,1,.14-.34,2,2,0,0,1,1.14-1c.06,0,.11-.06.17-.07A30.55,30.55,0,0,0,186.8,154a1.8,1.8,0,0,1,.17-.07,1.9,1.9,0,0,1,.36-.14,1.88,1.88,0,0,1,1.45.15,1.9,1.9,0,0,1,.34.22,1.52,1.52,0,0,1,.15.1l5.65,5.65a1.35,1.35,0,0,0,1.91,0l5.63-5.63a1.35,1.35,0,0,0,0-1.91l-5.65-5.65s-.06-.11-.1-.15a1.94,1.94,0,0,1-.22-.33,1.83,1.83,0,0,1-.15-.34,2.22,2.22,0,0,1-.08-.75,2.07,2.07,0,0,1,.07-.36,1.82,1.82,0,0,1,.15-.37,1.78,1.78,0,0,1,.07-.17,30.55,30.55,0,0,0,4.1-9.92,1.78,1.78,0,0,1,.07-.17,1.86,1.86,0,0,1,.64-.93,1.94,1.94,0,0,1,.31-.21,1.81,1.81,0,0,1,.34-.14,1.91,1.91,0,0,1,.4-.08c.06,0,.11,0,.18,0h8a1.34,1.34,0,0,0,1.35-1.35v-7.94a1.34,1.34,0,0,0-1.35-1.35h-8a2,2,0,0,1-.72-.15,1.83,1.83,0,0,1-.21-.12,1.94,1.94,0,0,1-.39-.26,2.19,2.19,0,0,1-.18-.2,1.92,1.92,0,0,1-.25-.36,1.85,1.85,0,0,1-.11-.27,1.61,1.61,0,0,1-.08-.19,30.5,30.5,0,0,0-4.1-9.92,1.78,1.78,0,0,1-.07-.17,1.82,1.82,0,0,1-.15-.37,1.79,1.79,0,0,1-.07-.36,1.83,1.83,0,0,1,0-.38,1.93,1.93,0,0,1,.07-.37,2.2,2.2,0,0,1,.37-.67,1.57,1.57,0,0,1,.1-.15l5.65-5.65a1.35,1.35,0,0,0,0-1.91L196.84,95a1.35,1.35,0,0,0-1.91,0l-5.65,5.65,0,0a2,2,0,0,1-.57.38l-.15.06a2,2,0,0,1-.66.13h0a2,2,0,0,1-.66-.13L187,101a2,2,0,0,1-.22-.1,30.55,30.55,0,0,0-9.92-4.11,1.77,1.77,0,0,1-.17-.07,2,2,0,0,1-.37-.16,1.81,1.81,0,0,1-.31-.21,2.28,2.28,0,0,1-.47-.58,1.83,1.83,0,0,1-.14-.34,1.91,1.91,0,0,1-.08-.4c0-.06,0-.12,0-.18v-8A1.34,1.34,0,0,0,174,85.49H166a1.34,1.34,0,0,0-1.35,1.35v8a1.74,1.74,0,0,1,0,.18,1.86,1.86,0,0,1-.08.4,2,2,0,0,1-.14.34,2,2,0,0,1-1.14,1c-.06,0-.11.06-.17.07a30.55,30.55,0,0,0-9.92,4.11,1.87,1.87,0,0,1-.22.1l-.18.08a2,2,0,0,1-.66.13h0a2,2,0,0,1-.66-.13l-.15-.06a1.91,1.91,0,0,1-.57-.38l0,0L145.06,95a1.35,1.35,0,0,0-1.91,0l-5.63,5.63a1.35,1.35,0,0,0,0,1.91l5.65,5.65s.06.11.1.15a1.94,1.94,0,0,1,.22.33,1.83,1.83,0,0,1,.15.34,2.22,2.22,0,0,1,.08.75,2.07,2.07,0,0,1-.07.36,1.82,1.82,0,0,1-.15.37,1.78,1.78,0,0,1-.07.17,30.55,30.55,0,0,0-4.1,9.92,2,2,0,0,1-.08.19,1.87,1.87,0,0,1-.11.28,1.9,1.9,0,0,1-.24.36,1.79,1.79,0,0,1-.18.2,4.06,4.06,0,0,1-.6.38,2,2,0,0,1-.72.15h-8a1.34,1.34,0,0,0-1.35,1.35v7.94a1.34,1.34,0,0,0,1.35,1.35h8a1.63,1.63,0,0,1,.17,0,1.91,1.91,0,0,1,.41.08,2,2,0,0,1,.32.13,1.92,1.92,0,0,1,.33.22,1.89,1.89,0,0,1,.26.25,1.91,1.91,0,0,1,.21.32,1.89,1.89,0,0,1,.16.36c0,.06.06.11.07.17a30.5,30.5,0,0,0,4.1,9.92,1.78,1.78,0,0,1,.07.17,1.82,1.82,0,0,1,.15.37,1.79,1.79,0,0,1,.07.36,1.83,1.83,0,0,1,0,.38,1.93,1.93,0,0,1-.07.37,2.2,2.2,0,0,1-.37.67,1.57,1.57,0,0,1-.1.15l-5.65,5.65a1.35,1.35,0,0,0,0,1.91l5.63,5.63a1.35,1.35,0,0,0,1.91,0l5.65-5.65s.1-.06.15-.1a1.86,1.86,0,0,1,1-.44,2,2,0,0,1,.37,0,1.86,1.86,0,0,1,.37.07,2,2,0,0,1,.37.14c.06,0,.12,0,.17.07a30.55,30.55,0,0,0,9.92,4.11,1.77,1.77,0,0,1,.17.07,2,2,0,0,1,.37.16,1.81,1.81,0,0,1,.31.21,2.28,2.28,0,0,1,.47.58,1.83,1.83,0,0,1,.14.34,1.91,1.91,0,0,1,.08.4c0,.06,0,.12,0,.18v8a1.34,1.34,0,0,0,1.35,1.35H174A1.34,1.34,0,0,0,175.33,168Zm18.79-40.59A24.11,24.11,0,1,1,170,103.31,24.14,24.14,0,0,1,194.11,127.43ZM170,147.57a20.14,20.14,0,1,0-20.14-20.14A20.16,20.16,0,0,0,170,147.57Zm0-32.18a12,12,0,1,1-12,12A12.06,12.06,0,0,1,170,115.38Zm0,20.12a8.07,8.07,0,1,0-8.07-8.07A8.08,8.08,0,0,0,170,135.5Z"/></g></g></svg>