<svg xmlns="http://www.w3.org/2000/svg" viewBox="0 0 340 340"><defs><style>.cls-1{fill:none;}.cls-2{fill:#fff;}.cls-3{fill:#1100c2;}</style></defs><title>icon_set_all</title><g id="R_D_1" data-name="R&amp;D_1"><g id="R_D" data-name="R&amp;D"><rect class="cls-1" width="340" height="340"/><path class="cls-2" d="M94,203.5h12v16H94Zm46-59H124v58h16Zm54-64h-9v16h9ZM132.5,254.74l9.61-12.24H122.89ZM124,221.5v19h16v-19Zm120.73,18.35L207.81,121.6l-2.29,3.88a19,19,0,0,1-10.17,8.29l-1.92.66,39.87,110.1a6,6,0,0,0,11.71-2v-.88A5.94,5.94,0,0,0,244.73,239.85ZM207,116.5v-5h-6v-2h6v-10H173v10h18v2H173v5a17,17,0,0,0,34,0Zm-33.5,9-2.28-3.85L145.7,202.69H143v5.9h-2v-5.9H131v5.9h-2v-5.9H119V219.5h34.25l32.36-85.1-2-.67A19,19,0,0,1,173.5,125.48Z"/><path class="cls-3" d="M248.13,243.56v-.89a9,9,0,0,0-.41-2.69h0L209.37,116V96.28H197.45V78.38H181.31v17.9H169.38l0,19.82-25.56,82.44V141h-22.1v59.68h-6v9H108v-9H91.88v22.12H108v-9h7.71v9h6V245.3l11,14.75,11-14.75V222.83h11.27l32.82-86.6.63,0,.38,0a7.2,7.2,0,0,0,1,0l.36,0,.64,0,.22.6,39.38,109.8a9.16,9.16,0,0,0,6.8,5.84l.7.14v9h4.21v-9.51l.52-.23A9.13,9.13,0,0,0,248.13,243.56ZM103.88,219.38H95.13V204.63h8.75ZM186.13,81.63h6.75V95.38h-6.75Zm-61,63h14.35v56.09H125.13ZM132.5,253l-7.17-10.32h14.35Zm7.38-13.66H125.13V222.63h14.75Zm12.61-21H120.13V203.82h7.74v5.9h4.24v-5.9h7.74v5.9h4.24v-5.9h2.44l25-79.45,1,1.69a20.09,20.09,0,0,0,10.75,8.74l.85.29Zm37.52-86a15.89,15.89,0,0,1-15.87-15.87v-3.87h18v-4.25h-18v-7.75h31.75v7.75h-6v4.25h6v3.88A15.89,15.89,0,0,1,190,132.38ZM243.88,242.5a4.91,4.91,0,0,1-9.52,1.65l-39.48-109,.84-.29a20.07,20.07,0,0,0,10.77-8.79l1-1.7,36.17,115.83a4.83,4.83,0,0,1,.22,1.44Z"/></g></g></svg>