<svg xmlns="http://www.w3.org/2000/svg" viewBox="0 0 63 63"><defs><style>.cls-1{fill:none;}.cls-2{fill:#08005a;}</style></defs><title>icon_set_all</title><g id="reason5_a"><g id="reason_5"><rect class="cls-1" width="63" height="63"/><path class="cls-2" d="M48.06,50.93l-8.49-8.49a1.5,1.5,0,0,1,0-2.12h0a1.5,1.5,0,0,1,2.12,0l8.49,8.49a1.5,1.5,0,0,1,0,2.12h0A1.5,1.5,0,0,1,48.06,50.93ZM46,28.41A18.79,18.79,0,1,1,27.16,9.63,18.79,18.79,0,0,1,46,28.41Zm-1.54,0A17.25,17.25,0,1,0,27.16,45.66,17.25,17.25,0,0,0,44.41,28.41Zm-14,1.25a5.87,5.87,0,0,1,2.14-.42,6,6,0,0,1,2.58.61h0a6.06,6.06,0,0,1,3.22,3.41,6,6,0,0,1-.08,4.66l0,.06a6.09,6.09,0,0,1-3.42,3.16,5.76,5.76,0,0,1-2.19.41A5.92,5.92,0,0,1,30.2,41a5.81,5.81,0,0,1-3.25-3.35,6.19,6.19,0,0,1,3.5-8Zm-2.13,3.76a4.87,4.87,0,0,0-.12,3.78,4.54,4.54,0,0,0,2.55,2.6,4.76,4.76,0,0,0,1.92.43,4.54,4.54,0,0,0,1.74-.36,4.46,4.46,0,0,0,2.65-2.46h0a4.73,4.73,0,0,0,.09-3.68,5,5,0,0,0-2.55-2.67A4.54,4.54,0,0,0,31,30.9,4.69,4.69,0,0,0,28.32,33.42Zm15.4-5.36-2.44-3a.63.63,0,0,0-.82-.21l-2.32,1L38,25.81a6.47,6.47,0,0,0-.87-.47,2.76,2.76,0,0,0-.6-.23l-.16,0-.59-2.41a.65.65,0,0,0-.62-.51l-3.59-.31a.55.55,0,0,0-.68.44l-.82,2.41-.14,0c-.32.1-.73.25-1.24.45l-.77.23-2.07-1.08a.74.74,0,0,0-.76.13L22.18,27a.59.59,0,0,0-.11.87l1.1,1.76-.09.15c-.19.3-.4.7-.66,1.21a5.84,5.84,0,0,0-.3.83l0,.16-2.1.5a.62.62,0,0,0-.53.64l0,3.3A.65.65,0,0,0,20,37l1.67.44,0,.16c.13.54.33,1.21.6,2l.52,1.16-1.11,1.36a.65.65,0,0,0,0,.86l1.92,2.23a17.11,17.11,0,0,0,1.92.29L26.63,45l1,.56a17.42,17.42,0,0,0,2.71-.28A.5.5,0,0,0,30,45a8.28,8.28,0,0,1-1.39-.47A16,16,0,0,1,27,43.59a.7.7,0,0,0-.61,0l-1.65.78L23.13,42.5l1-1.24a.68.68,0,0,0,.1-.75l-.68-1.45a17,17,0,0,1-.64-2.29.6.6,0,0,0-.5-.52l-1.59-.41V33.62l2-.47a.62.62,0,0,0,.5-.56,3.74,3.74,0,0,1,.39-1.1,6.76,6.76,0,0,1,.85-1.44.63.63,0,0,0,0-.79l-1-1.66,2.14-1.86,1.93,1a.55.55,0,0,0,.43.05l1.2-.35a7.34,7.34,0,0,1,1.57-.5.61.61,0,0,0,.44-.45L32,23.21l2.64.25.56,2.26a.63.63,0,0,0,.31.41l.4.2a4.28,4.28,0,0,1,.64.2,7.75,7.75,0,0,1,1.11.66.62.62,0,0,0,.7.08l2.22-1,1.8,2.24L41.3,30.36a.72.72,0,0,0,0,.67,4.53,4.53,0,0,1,.44.94c.1.29.25.79.44,1.48a.62.62,0,0,0,.43.47l.67.21c.15-.42.28-.86.4-1.29l-.29-.09,0-.15A7.57,7.57,0,0,0,43,31.54a4.21,4.21,0,0,0-.3-.69l-.08-.14,1.13-1.91a.58.58,0,0,0-.06-.73Z"/></g></g></svg>