<svg xmlns="http://www.w3.org/2000/svg" viewBox="0 0 63 63"><defs><style>.cls-1{fill:none;}.cls-2{fill:#fff;}</style></defs><title>icon_set_all</title><g id="reason8"><g id="reason_8"><rect class="cls-1" width="63" height="63"/><path id="reason_8-2" data-name="reason_8" class="cls-2" d="M31.5,23.88a3.08,3.08,0,1,0-3.08-3.08A3.09,3.09,0,0,0,31.5,23.88ZM29.64,20.8a1.86,1.86,0,1,1,1.86,1.86A1.86,1.86,0,0,1,29.64,20.8Zm23.11-.47h0a1.85,1.85,0,0,0-.54-1.25,1.92,1.92,0,0,0-1.36-.54h0A3.41,3.41,0,0,0,47.55,22l.11,3.26-.58,2.34H47a2.42,2.42,0,0,0-1.73.71L41.6,32l-1.29.22a3.89,3.89,0,0,0-2.08,1.08l-2.48,2.48a3.86,3.86,0,0,0-1.13,2.65l-.09,4.23a2.74,2.74,0,0,0-1.17.67,2.79,2.79,0,0,0-.85,2l-.06,5.39a2.82,2.82,0,0,0,2.78,2.84l9,.1A2.82,2.82,0,0,0,47,50.83l.06-5.39a2.82,2.82,0,0,0-1.94-2.7l0-.23A4.38,4.38,0,0,1,46.41,40l4.2-4.2a6.51,6.51,0,0,0,1.87-3.91l.44-4.21a2.61,2.61,0,0,0,.05-.5v0a.36.36,0,0,0,0,0Zm-6.91,25.1-.06,5.39a1.57,1.57,0,0,1-.48,1.11,1.51,1.51,0,0,1-1.12.45l-8.94-.1a1.59,1.59,0,0,1-1.57-1.6l.06-5.39a1.59,1.59,0,0,1,1.6-1.57l8.94.1A1.59,1.59,0,0,1,45.84,45.43ZM49.73,35l-4.2,4.2a5.61,5.61,0,0,0-1.59,3.16l0,.26-8.16-.09.09-4.07a2.63,2.63,0,0,1,.78-1.81l2.48-2.48a2.66,2.66,0,0,1,1.42-.73L42,33.16l.06,0,.12,0,.1-.07,3.82-3.81a1.25,1.25,0,0,1,1.72,0,1.22,1.22,0,0,1,0,1.72l-4.33,4.33a.61.61,0,0,0,0,.87.63.63,0,0,0,.87,0l4.33-4.33a2.45,2.45,0,0,0,0-3.46,2.32,2.32,0,0,0-.44-.34l.62-2.49a.51.51,0,0,0,0-.09.28.28,0,0,0,0-.07L48.78,22a2.17,2.17,0,0,1,2.1-2.24.6.6,0,0,1,.47.19.62.62,0,0,1,.19.42l.22,6.76-.49,4.68A5.28,5.28,0,0,1,49.73,35ZM21.53,23.21H23a8.63,8.63,0,0,0,.78,1.88l-1.06,1.06a1.43,1.43,0,0,0,0,2l1.38,1.38a1.44,1.44,0,0,0,2,0l1.06-1.06a8.65,8.65,0,0,0,1.88.78v1.49a1.44,1.44,0,0,0,1.43,1.44h2a1.44,1.44,0,0,0,1.44-1.44V29.28a8.62,8.62,0,0,0,1.88-.78l1.06,1.06a1.44,1.44,0,0,0,2,0l1.38-1.38a1.44,1.44,0,0,0,0-2L39.2,25.09A8.59,8.59,0,0,0,40,23.21h1.49a1.44,1.44,0,0,0,1.44-1.44v-2a1.44,1.44,0,0,0-1.44-1.44H40a8.63,8.63,0,0,0-.78-1.88l1.06-1.06a1.44,1.44,0,0,0,0-2L38.87,12a1.44,1.44,0,0,0-2,0l-1.06,1.06a8.67,8.67,0,0,0-1.88-.78V10.82a1.44,1.44,0,0,0-1.43-1.44h-2a1.44,1.44,0,0,0-1.43,1.44v1.49a8.62,8.62,0,0,0-1.88.78L26.15,12a1.44,1.44,0,0,0-2,0l-1.38,1.38a1.43,1.43,0,0,0,0,2l1.06,1.06A8.59,8.59,0,0,0,23,18.39H21.53a1.44,1.44,0,0,0-1.43,1.44v2A1.44,1.44,0,0,0,21.53,23.21Zm2.18-3.64.07,0,.12-.08.06-.06.08-.11,0-.09,0-.06a7.38,7.38,0,0,1,1-2.4.16.16,0,0,0,0-.05.6.6,0,0,0,0-.12.65.65,0,0,0,0-.11.61.61,0,0,0,0-.12.56.56,0,0,0,0-.11.58.58,0,0,0,0-.11L25,16l-1.42-1.44a.21.21,0,0,1,0-.29L25,12.91a.21.21,0,0,1,.29,0l1.4,1.39a.61.61,0,0,0,.18.12l0,0a.56.56,0,0,0,.41,0l.07,0,.05,0a7.4,7.4,0,0,1,2.4-1l.05,0,.11,0,.1-.07.08-.08.06-.1a.61.61,0,0,0,0-.11.59.59,0,0,0,0-.12v-2a.2.2,0,0,1,.21-.21h2a.2.2,0,0,1,.21.21v2a.15.15,0,0,0,0,.05.59.59,0,0,0,0,.12.6.6,0,0,0,0,.11l.06.1.08.08.1.06.11,0,.06,0a7.39,7.39,0,0,1,2.39,1l.08,0,0,0a.54.54,0,0,0,.42,0l0,0a.49.49,0,0,0,.15-.1l1.42-1.41a.21.21,0,0,1,.29,0l1.38,1.38a.21.21,0,0,1,0,.29L38,16l0,0-.07.1a.56.56,0,0,0-.07.22.52.52,0,0,0,0,.12.56.56,0,0,0,0,.11.61.61,0,0,0,0,.11l0,.06a7.36,7.36,0,0,1,1,2.4l0,.06,0,.09a.63.63,0,0,0,.08.12l.05.06.13.09.05,0a.61.61,0,0,0,.22,0h2a.2.2,0,0,1,.21.21v2a.2.2,0,0,1-.21.21h-2l-.12,0-.11,0-.1.07L39,22.2l-.06.1,0,.11,0,.06a7.37,7.37,0,0,1-1,2.4.16.16,0,0,0,0,.05.6.6,0,0,0,0,.12.65.65,0,0,0,0,.11.61.61,0,0,0,0,.12.56.56,0,0,0,0,.11.58.58,0,0,0,0,.11l.07.1L39.39,27a.21.21,0,0,1,0,.29L38,28.69a.21.21,0,0,1-.29,0L36.33,27.3l0,0-.11-.07-.1,0-.12,0h-.11l-.12,0-.11,0-.06,0a7.39,7.39,0,0,1-2.4,1l-.05,0-.11,0-.1.07-.08.08-.06.1a.61.61,0,0,0,0,.11.59.59,0,0,0,0,.12v2a.2.2,0,0,1-.21.19h-2a.2.2,0,0,1-.21-.21v-2a.15.15,0,0,0,0-.05.59.59,0,0,0,0-.12.6.6,0,0,0,0-.11l-.06-.1-.08-.08-.1-.06-.11,0-.06,0a7.4,7.4,0,0,1-2.4-1l-.05,0-.11,0-.12,0H27l-.12,0-.1,0-.1.07-1.44,1.42a.21.21,0,0,1-.29,0L23.61,27.3a.21.21,0,0,1,0-.29L25,25.62l0,0,.07-.1a.56.56,0,0,0,.07-.22.52.52,0,0,0,0-.12.56.56,0,0,0,0-.11.61.61,0,0,0,0-.11l0-.06a7.37,7.37,0,0,1-1-2.4.18.18,0,0,0,0-.05.59.59,0,0,0,0-.11L24,22.2l-.08-.08-.1-.07-.1,0-.12,0h-2a.2.2,0,0,1-.21-.21v-2a.2.2,0,0,1,.21-.21h2A.61.61,0,0,0,23.71,19.57Zm15.62-.12h0ZM29.65,43.31a2.74,2.74,0,0,0-1.17-.67l-.09-4.22a3.85,3.85,0,0,0-1.13-2.65l-2.48-2.48a3.88,3.88,0,0,0-2.08-1.07L21.4,32l-3.64-3.64A2.43,2.43,0,0,0,16,27.63h-.11l-.58-2.34L15.45,22a3.41,3.41,0,0,0-3.29-3.5,1.88,1.88,0,0,0-1.36.54,1.85,1.85,0,0,0-.54,1.25L10,27.15s0,0,0,.07a2.55,2.55,0,0,0,.05.5l.45,4.23a6.51,6.51,0,0,0,1.87,3.91l4.2,4.2a4.38,4.38,0,0,1,1.24,2.47l0,.23a2.82,2.82,0,0,0-1.94,2.7L16,50.83a2.82,2.82,0,0,0,2.84,2.78l8.94-.1a2.82,2.82,0,0,0,2.78-2.84l-.06-5.39A2.79,2.79,0,0,0,29.65,43.31ZM11.47,20.37a.62.62,0,0,1,.19-.43.61.61,0,0,1,.43-.19h0A2.18,2.18,0,0,1,14.22,22l-.11,3.34a.49.49,0,0,0,0,.1.27.27,0,0,0,0,.07L14.75,28a2.27,2.27,0,0,0-.44.34,2.45,2.45,0,0,0,0,3.46l4.33,4.33a.63.63,0,0,0,.87,0,.62.62,0,0,0,0-.87l-4.33-4.33a1.22,1.22,0,0,1,1.72-1.72L20.67,33l.05,0,.1.07.12,0,1.54.28a2.66,2.66,0,0,1,1.42.73l2.48,2.48a2.64,2.64,0,0,1,.78,1.81l.09,4.07-8.16.09,0-.27a5.61,5.61,0,0,0-1.59-3.16L13.27,35a5.27,5.27,0,0,1-1.52-3.17l-.49-4.66ZM29.33,50.69a1.59,1.59,0,0,1-1.57,1.6l-8.94.1h0a1.55,1.55,0,0,1-1.12-.45,1.57,1.57,0,0,1-.48-1.11l-.06-5.39a1.58,1.58,0,0,1,1.57-1.6l9-.1a1.59,1.59,0,0,1,1.58,1.57Zm14.61-6a1.39,1.39,0,1,1-1.39,1.39A1.39,1.39,0,0,1,43.94,44.71ZM31.5,26.85a6,6,0,1,0-6-6A6.06,6.06,0,0,0,31.5,26.85Zm-4.82-6a4.82,4.82,0,1,1,4.82,4.82A4.83,4.83,0,0,1,26.68,20.8ZM20.45,46.1a1.39,1.39,0,1,1-1.39-1.39A1.39,1.39,0,0,1,20.45,46.1Z"/></g></g></svg>