<svg xmlns="http://www.w3.org/2000/svg" viewBox="0 0 63 63"><defs><style>.cls-1{fill:none;}.cls-2{fill:#08005a;}</style></defs><title>icon_set_all</title><g id="reason4_a"><g id="reason_4"><rect class="cls-1" width="63" height="63"/><path class="cls-2" d="M47.31,42a.59.59,0,0,0-.16-.07A30.25,30.25,0,0,0,44,40.76l-1.43-1.43v-1.9a8.69,8.69,0,0,0,2.36-5.8,3.57,3.57,0,0,0,0-.37H46a.62.62,0,0,0,.62-.62A.59.59,0,0,0,46,30h-.31a6,6,0,0,0,.06-.81,7.07,7.07,0,0,0-4.7-6.55s-.05,0-.13,0,.11,0,.13,0a4.42,4.42,0,0,0-3.5-2.71v-.43c0-4.1-3-7.39-6.77-7.39a6.5,6.5,0,0,0-4.6,2A6.68,6.68,0,0,0,20.69,11c-3.73,0-6.77,3.29-6.77,7.39a8.45,8.45,0,0,0,.19,1.8A5,5,0,0,0,11,24.92a5,5,0,0,0,2.42,4.37L13,29.4a.54.54,0,0,0-.45.56l0,2a.57.57,0,0,0,.45.53l.91.24a12.51,12.51,0,0,0,.37,1.21l.28.62-.61.75a.57.57,0,0,0,0,.74l1.41,1.64a.54.54,0,0,0,.69.15l1-.48.81.45.68.24.35,1a.5.5,0,0,0,.5.39h0l1.92.1a.55.55,0,0,0,.55-.37l.37-.93a6.86,6.86,0,0,0,1-.27,4.14,4.14,0,0,0,.71-.31l.9.54a.52.52,0,0,0,.72-.09L27,36.55a.56.56,0,0,0,.09-.7l-.46-.8a3.54,3.54,0,0,0,.38-.8l.31-.75,1-.18a.52.52,0,0,0,.45-.52L29,30.61a.55.55,0,0,0-.38-.61l-1.21-.39a4.81,4.81,0,0,0-.21-.66A2.67,2.67,0,0,0,27,28.5l.64-1.08a.52.52,0,0,0-.06-.64L26.1,25a.55.55,0,0,0-.7-.18l-1.34.6a4.34,4.34,0,0,0-.55-.3,1.71,1.71,0,0,0-.38-.14l-.34-1.37a.56.56,0,0,0-.52-.44l-2.19-.19a.5.5,0,0,0-.59.4L19,24.7q-.29.09-.77.28l-.39.11-1.2-.63a.62.62,0,0,0-.64.09L14.23,26.1a.53.53,0,0,0-.1.75l.61,1c0,.06-.21.29-.42.55a3.69,3.69,0,0,1-2.08-3.46A3.62,3.62,0,0,1,15,21.19a.79.79,0,0,0,.43-.31.47.47,0,0,0,.06-.5,7,7,0,0,1-.31-2c0-3.42,2.48-6.15,5.53-6.15a5.42,5.42,0,0,1,4.78,3.17.58.58,0,0,0,.5.37.67.67,0,0,0,.56-.25,5.39,5.39,0,0,1,4.22-2.17c3,0,5.53,2.8,5.53,6.15a5,5,0,0,1-.06.93.48.48,0,0,0,.12.5.71.71,0,0,0,.5.19H37a3.19,3.19,0,0,1,2.35,1.1,7.41,7.41,0,0,0-.8,0,7.15,7.15,0,0,0-7.21,7.08,6,6,0,0,0,0,.75h-.23a.62.62,0,0,0,0,1.24h1.25c0,.11,0,.22,0,.31a8.29,8.29,0,0,0,2.55,6.16v1.92L33.57,41a.56.56,0,0,0-.21.12c-.53.16-1.62.51-2.84,1h0a.6.6,0,0,0-.48.21c-2,.88-4.1,2.15-4.55,3.7v5.34a.59.59,0,0,0,.62.62H51.38a.59.59,0,0,0,.62-.62V45.73C51.5,44.14,49.31,42.85,47.31,42ZM14.74,30.16a.54.54,0,0,0,.44-.48,2.1,2.1,0,0,1,.22-.61,4,4,0,0,1,.5-.85.56.56,0,0,0,0-.68l-.55-.88,1.11-1,1.07.54a.49.49,0,0,0,.42,0l.7-.2a4.44,4.44,0,0,1,.94-.3.55.55,0,0,0,.4-.4l.41-1.24,1.35.13.31,1.26a.55.55,0,0,0,.27.35l.21.12.07,0a2.15,2.15,0,0,1,.38.12,4.56,4.56,0,0,1,.63.38.53.53,0,0,0,.59.07L25.48,26l.94,1.17-.59,1a.61.61,0,0,0,0,.57,2.64,2.64,0,0,1,.25.55c.06.17.15.47.27.89a.55.55,0,0,0,.38.4l1.07.34-.11,1.3-.92.15a.57.57,0,0,0-.45.43,5,5,0,0,1-.36.95l0,.06a3.05,3.05,0,0,1-.42.82.52.52,0,0,0-.06.65l.43.74L25,37l-.79-.48a.58.58,0,0,0-.6,0,4.27,4.27,0,0,1-.8.37,9.15,9.15,0,0,1-1.12.32.5.5,0,0,0-.41.35l-.33.82-1.08,0-.32-.91a.51.51,0,0,0-.39-.39,4.88,4.88,0,0,1-.81-.27,9.47,9.47,0,0,1-1-.54.61.61,0,0,0-.54,0l-.89.42-.8-.93.52-.65a.58.58,0,0,0,.08-.63l-.42-.89a10.26,10.26,0,0,1-.38-1.35.53.53,0,0,0-.43-.44l-.84-.21V30.41Zm15.14,20.6H26.72V46.35c.33-.88,1.64-1.78,3.17-2.54Zm3.29,0H31.13V43.25c.7-.29,1.41-.55,2.05-.76Zm-.56-21.49a6,6,0,0,1,11.93,0,3,3,0,0,1-.06.75H32.68A3,3,0,0,1,32.62,29.26Zm1.06,2.3v-.31h9.94v.31a7.18,7.18,0,0,1-1.88,5,.55.55,0,0,0-.38.35,4.2,4.2,0,0,1-2.71,1C35.91,38,33.67,35.1,33.67,31.56Zm9.38,19.2H34.42V41.87L36,40.32a.56.56,0,0,0,.19-.43V38.6a5.11,5.11,0,0,0,5.16-.19v1.17a.56.56,0,0,0,.19.43l1.55,1.55Zm3.29,0H44.3V42.17c.65.2,1.35.46,2.05.75Zm4.41,0H47.59V43.49c1.53.76,2.84,1.66,3.17,2.55ZM19.15,34.93a3.76,3.76,0,0,0,1.59.35,3.69,3.69,0,0,0,1.4-.26,3.87,3.87,0,0,0,2.17-2l0-.06a3.76,3.76,0,0,0,0-2.94,3.85,3.85,0,0,0-2-2.17,3.67,3.67,0,0,0-3-.12,3.94,3.94,0,0,0-2.23,5.09A3.7,3.7,0,0,0,19.15,34.93Zm-.92-4.71a2.69,2.69,0,0,1,1.52-1.44,2.35,2.35,0,0,1,.91-.18,2.84,2.84,0,0,1,1.17.27A2.87,2.87,0,0,1,23.3,30.4a2.72,2.72,0,0,1-.05,2.11,2.8,2.8,0,0,1-3.62,1.37,2.6,2.6,0,0,1-1.46-1.49A2.8,2.8,0,0,1,18.23,30.22Zm20.47-6a2.36,2.36,0,1,0,0,4.72,2.32,2.32,0,0,0,2.36-2.36A2.36,2.36,0,0,0,38.71,24.23Zm0,3.42a1.12,1.12,0,0,1,0-2.24,1.07,1.07,0,0,1,1.12,1.12A1.11,1.11,0,0,1,38.71,27.65Z"/></g></g></svg>