<svg id="reason1" xmlns="http://www.w3.org/2000/svg" viewBox="0 0 63 63"><defs><style>.cls-1{fill:none;}.cls-2{fill:#fff;}</style></defs><title>icon_set_all</title><g id="reason_1"><rect class="cls-1" width="63" height="63"/><path id="reason-1" class="cls-2" d="M54.4,28.87a3.69,3.69,0,0,0-2.62-1.09H45.35c-.09-.32-.18-.63-.29-.93l2.87-2.53L46.1,21.14l-3.63,1.22a14.22,14.22,0,0,0-1.5-1.5l1.22-3.63L39,15.4l-2.53,2.88a14,14,0,0,0-2-.55L33.68,14H30l-.75,3.75a14,14,0,0,0-2,.55L24.68,15.4l-3.19,1.84,1.22,3.63a14.18,14.18,0,0,0-1.5,1.5l-3.63-1.22-1.84,3.18,2.87,2.53q-.16.45-.29.93H14.13a.69.69,0,0,0-.35.1L7.51,31.5l6.27,3.62a.69.69,0,0,0,.34.09h4.21c.09.32.18.63.29.93l-2.87,2.53,1.84,3.19,3.63-1.22a14.12,14.12,0,0,0,1.5,1.5l-1.22,3.63,3.19,1.84,2.53-2.87a14,14,0,0,0,2,.55L30,49h3.68l.75-3.75a14,14,0,0,0,2-.55L39,47.59l3.19-1.84L41,42.13a14.17,14.17,0,0,0,1.5-1.5l3.63,1.22,1.84-3.19-2.87-2.53c.11-.3.2-.61.29-.93h6.43a3.71,3.71,0,0,0,2.62-6.34ZM17.51,24l.71-1.23L21.68,24l.3-.37a12.78,12.78,0,0,1,2-2l.38-.3-1.17-3.47,1.23-.71,2.41,2.74.45-.17A12.6,12.6,0,0,1,29.94,19l.48-.07.72-3.58h1.42l.72,3.58.48.07a12.58,12.58,0,0,1,2.68.72l.45.17,2.42-2.74,1.23.71-1.17,3.47.38.3a12.79,12.79,0,0,1,2,2L42,24l3.46-1.17L46.18,24l-2.74,2.41.18.45c.11.28.21.58.31.88H38.53a7.65,7.65,0,0,0-13.37,0H19.77c.09-.3.19-.6.31-.88l.18-.45Zm19.38,3.74H26.8a6.26,6.26,0,0,1,10.09,0Zm11.17,1.38v1.65H17.44l-1.65-1.65Zm-34,4.5-2.51-1.45V30.78L14,29.33l2.16,2.17ZM46.18,39l-.71,1.23L42,39l-.3.37a12.72,12.72,0,0,1-2,2l-.38.3,1.17,3.46-1.23.71L36.88,43.1l-.45.18a12.56,12.56,0,0,1-2.68.72l-.48.07-.72,3.58H31.13l-.72-3.58L29.94,44a12.57,12.57,0,0,1-2.69-.72l-.45-.18-2.41,2.74-1.23-.71,1.17-3.46-.38-.3a12.73,12.73,0,0,1-2-2l-.3-.37-3.46,1.17L17.51,39l2.74-2.41-.18-.45c-.11-.29-.21-.58-.31-.88h5.39a7.64,7.64,0,0,0,13.37,0h5.39c-.09.3-.19.6-.31.88l-.18.45ZM26.8,35.21H36.89a6.26,6.26,0,0,1-10.09,0Zm-11-1.38,1.65-1.65H48.06v1.65Zm35.3,0H49.44V29.16h1.65Zm2.34-.68a2.31,2.31,0,0,1-1,.57V29.28a2.33,2.33,0,0,1,1,3.87Z"/></g></svg>