<svg xmlns="http://www.w3.org/2000/svg" viewBox="0 0 63 63"><defs><style>.cls-1{fill:none;}.cls-2{fill:#fff;}</style></defs><title>icon_set_all</title><g id="reason2"><g id="reason_2"><rect class="cls-1" width="63" height="63"/><path id="reason_2-2" data-name="reason_2" class="cls-2" d="M21.35,18.4H22.5v1A1.37,1.37,0,0,0,24,20.88h1.3a1.34,1.34,0,0,0,1-.4,1.43,1.43,0,0,0,.4-1.05v-1h1.1a1.43,1.43,0,0,0,1.05-.4,1.46,1.46,0,0,0,.4-1.08v-1.2a1.42,1.42,0,0,0-.39-1,1.38,1.38,0,0,0-1.06-.41h-1.1V13a1.42,1.42,0,0,0-.39-1,1.34,1.34,0,0,0-1-.41H24A1.37,1.37,0,0,0,22.5,13v1.27H21.35a1.37,1.37,0,0,0-1.45,1.45v1.2A1.52,1.52,0,0,0,20.3,18,1.43,1.43,0,0,0,21.35,18.4ZM24,15v-2h1.17v2a.76.76,0,0,0,.75.75h1.8V16.9h-1.8a.76.76,0,0,0-.75.75v1.73H24V17.65a.79.79,0,0,0-.2-.53.76.76,0,0,0-.55-.22H21.4V15.78h1.85A.69.69,0,0,0,24,15ZM52,40l1.49-1.49A1.49,1.49,0,0,0,54,37.3a1.58,1.58,0,0,0-.57-1.2l-1.31-1.33a1.61,1.61,0,0,0-2.48,0l-1.45,1.54L46.75,35a1.64,1.64,0,0,0-1.26-.55,1.7,1.7,0,0,0-1.22.6L43,36.26a1.89,1.89,0,0,0-.56,1.27,1.73,1.73,0,0,0,.57,1.23l1.4,1.37L43.2,41.41a1.66,1.66,0,0,0-.52,1.23,1.76,1.76,0,0,0,.6,1.21l1.31,1.34a1.82,1.82,0,0,0,1.2.53,1.78,1.78,0,0,0,1.27-.64l1.22-1.25,1.36,1.36a1.69,1.69,0,0,0,2.52-.11l1.16-1.24a1.65,1.65,0,0,0,.61-1.24,1.78,1.78,0,0,0-.6-1.25ZM45.63,44.1l-1.29-1.29c-.21-.22-.13-.31-.06-.38l1.8-1.8a.69.69,0,0,0,.18-.5.87.87,0,0,0-.2-.53l-1.92-1.87c-.11-.15-.14-.21-.15-.21a.51.51,0,0,1,.15-.21l1.23-1.23a.57.57,0,0,1,.2-.15.47.47,0,0,1,.17.13l2,1.9a.63.63,0,0,0,.53.2.74.74,0,0,0,.53-.23l2-2.08c.09-.1.14-.11.16-.12s.06,0,.17.13l1.3,1.33a.89.89,0,0,1,.14.17.82.82,0,0,1-.11.13l-2,2.05a.83.83,0,0,0-.2.55.79.79,0,0,0,.24.48l1.87,1.85a1.2,1.2,0,0,1,.15.18.73.73,0,0,1-.16.19L51.08,44c-.17.17-.25.18-.25.18s-.07,0-.15-.1l-1.85-1.85a.76.76,0,0,0-.55-.22.73.73,0,0,0-.53.22L46,44C45.8,44.22,45.71,44.17,45.63,44.1ZM40.22,26a4.88,4.88,0,0,0,2.05.45,4.79,4.79,0,0,0,1.81-.34,5,5,0,0,0,2.81-2.6l0-.08A4.87,4.87,0,0,0,47,19.62a5,5,0,0,0-2.65-2.81,4.75,4.75,0,0,0-3.9-.16,5.11,5.11,0,0,0-2.89,6.59A4.8,4.8,0,0,0,40.22,26ZM39,19.91A3.48,3.48,0,0,1,41,18a3,3,0,0,1,1.18-.23,3.68,3.68,0,0,1,1.52.35,3.72,3.72,0,0,1,1.9,2,3.52,3.52,0,0,1-.07,2.73,3.63,3.63,0,0,1-4.7,1.78,3.37,3.37,0,0,1-1.89-1.93A3.63,3.63,0,0,1,39,19.91Zm4.7,11.59.48-1.2a8.88,8.88,0,0,0,1.25-.36,5.37,5.37,0,0,0,.92-.4l1.17.7a.68.68,0,0,0,.94-.12l1.92-2a.73.73,0,0,0,.12-.9l-.6-1a4.59,4.59,0,0,0,.49-1l.4-1,1.33-.23a.68.68,0,0,0,.59-.67L53,20.41a.71.71,0,0,0-.5-.8l-1.56-.51a6.19,6.19,0,0,0-.28-.86,3.43,3.43,0,0,0-.25-.57l.83-1.4a.67.67,0,0,0-.07-.83l-1.92-2.37a.71.71,0,0,0-.9-.23l-1.73.77a5.64,5.64,0,0,0-.72-.39,2.21,2.21,0,0,0-.49-.19l-.44-1.78a.73.73,0,0,0-.67-.57l-2.84-.25a.65.65,0,0,0-.77.52l-.61,1.78q-.38.11-1,.36l-.5.15L37,12.45a.81.81,0,0,0-.83.12l-2.32,2a.68.68,0,0,0-.13,1l.79,1.27c-.15.24-.33.56-.53,1a4.87,4.87,0,0,0-.25.69l-1.53.37a.7.7,0,0,0-.59.72l0,2.6a.74.74,0,0,0,.58.69l1.18.31a16.34,16.34,0,0,0,.48,1.57l.36.81-.79,1a.73.73,0,0,0,0,1l1.82,2.12a.7.7,0,0,0,.9.19l1.31-.62,1.05.58.89.31.46,1.3a.65.65,0,0,0,.65.5h0L43,32A.72.72,0,0,0,43.73,31.5Zm-8-5.36a.76.76,0,0,0,.11-.81l-.54-1.16a13.3,13.3,0,0,1-.49-1.76.69.69,0,0,0-.56-.58l-1.09-.28V20.15l1.38-.33a.71.71,0,0,0,.56-.62,2.72,2.72,0,0,1,.28-.79A5.13,5.13,0,0,1,36,17.3a.72.72,0,0,0,0-.88l-.71-1.14L36.76,14l1.39.7a.64.64,0,0,0,.54,0l.9-.26a5.76,5.76,0,0,1,1.22-.39.71.71,0,0,0,.52-.51L41.88,12l1.75.16L44,13.79a.72.72,0,0,0,.35.46l.27.15.08,0a2.77,2.77,0,0,1,.5.15,5.91,5.91,0,0,1,.82.49.69.69,0,0,0,.76.09l1.6-.7L49.65,16l-.77,1.31a.79.79,0,0,0,0,.74,3.44,3.44,0,0,1,.33.71c.08.22.19.6.34,1.16a.71.71,0,0,0,.49.52l1.38.44-.14,1.68-1.2.2a.74.74,0,0,0-.59.56A6.43,6.43,0,0,1,49,24.53l0,.07a4,4,0,0,1-.55,1.06.67.67,0,0,0-.08.84l.56,1-1.13,1.19-1-.62A.75.75,0,0,0,46,28a5.53,5.53,0,0,1-1,.48,11.83,11.83,0,0,1-1.46.41.65.65,0,0,0-.54.45l-.43,1.06-1.41-.06-.41-1.17a.66.66,0,0,0-.51-.5,6.32,6.32,0,0,1-1-.36,12.25,12.25,0,0,1-1.25-.7.79.79,0,0,0-.69,0l-1.15.54L35,27ZM23.85,45a6.75,6.75,0,0,0,4.75-1.89,6.53,6.53,0,0,0,2.15-4.72,6.69,6.69,0,0,0-1.87-5,7.06,7.06,0,0,0-4.77-2.2,6.91,6.91,0,0,0-5,1.81h0a6.92,6.92,0,0,0-.28,9.8A7.07,7.07,0,0,0,23.63,45Zm0-12.33H24A5.48,5.48,0,0,1,27.8,34.4a5.39,5.39,0,0,1-4.1,9.08,5.51,5.51,0,0,1-3.79-1.75,5.4,5.4,0,0,1-1.48-3.92,5.08,5.08,0,0,1,1.69-3.72A5.33,5.33,0,0,1,23.8,32.65Zm13.34-1.5h0a.76.76,0,0,0-.77-.52h0l-2.44.14L33,29.57l-.72-.63.38-2.45a.67.67,0,0,0-.37-.78l-3.81-2.12a.69.69,0,0,0-.91.11l-2,2.11-1.26-.21-.88.06L21.73,23.4a.67.67,0,0,0-.82-.26L17,24.34a.67.67,0,0,0-.53.75L16.6,28c-.48.39-.9.76-1.23,1.07l-.67.56-2.58-.26a.74.74,0,0,0-.74.41l-2,3.9a.68.68,0,0,0,.22.94L11.45,36a13.27,13.27,0,0,0-.17,1.77c0,.48,0,.85,0,1.11l-2,1.46a.67.67,0,0,0-.27.91l1.42,3.39a.69.69,0,0,0,.79.46l2-.25a13.76,13.76,0,0,0,1.46,1.82c.44.5.8.88,1.08,1.14l-.54,1.87a.76.76,0,0,0,.38.84l3.48,1.9a.72.72,0,0,0,.9-.15l1.56-1.68c.72.12,1.32.2,1.8.23l1.5-.07,1.32,1.58a.74.74,0,0,0,.59.26h0l.22,0,3.39-1.13a.72.72,0,0,0,.49-.71V48.61a16,16,0,0,0,1.57-1.2c.47-.44.84-.81,1.08-1.09l2.14.31a.69.69,0,0,0,.79-.48l1.45-3.7a.74.74,0,0,0-.23-.86L36.2,40.42a10.65,10.65,0,0,0,.11-1.78,16.65,16.65,0,0,0,0-1.68l1.76-1.08a.77.77,0,0,0,.32-.86ZM17.37,47.72a.78.78,0,0,0-.23-.78,11.26,11.26,0,0,1-1.31-1.33,12.59,12.59,0,0,1-1.6-2,.74.74,0,0,0-.71-.33l-1.86.23-1-2.32,1.85-1.37a.67.67,0,0,0,.32-.72,10.61,10.61,0,0,1-.07-1.28,15.16,15.16,0,0,1,.22-2A.69.69,0,0,0,12.7,35L11,33.75l1.5-2.88,2.38.25a.66.66,0,0,0,.63-.19c.21-.21.5-.47.87-.77q.74-.69,1.49-1.27a.72.72,0,0,0,.26-.62L18,25.61l2.85-.89,1.59,2.19a.88.88,0,0,0,.49.27l.21,0,1.07-.1c.64.1,1.12.19,1.44.27a.76.76,0,0,0,.7-.22l1.92-2,2.88,1.6-.37,2.34a.79.79,0,0,0,.23.66l1,.86L33,32a.78.78,0,0,0,.66.3h0l2.26-.12.9,2.75-1.65,1a.66.66,0,0,0-.35.72,14.74,14.74,0,0,1,0,1.89l-.1.13.1.11a7.29,7.29,0,0,1-.15,1.81.71.71,0,0,0,.26.76l1.38,1.11-1,2.62-1.93-.27a.73.73,0,0,0-.7.26,12.59,12.59,0,0,1-1.23,1.26,11.13,11.13,0,0,1-1.69,1.28.75.75,0,0,0-.36.63v1.94L27,50.94l-1.26-1.51a.83.83,0,0,0-.61-.25h0l-1.71.1c-.89-.1-1.56-.2-2-.3a.68.68,0,0,0-.68.25L19.3,50.77l-2.43-1.33Z"/></g></g></svg>