<svg xmlns="http://www.w3.org/2000/svg" viewBox="0 0 63 63"><defs><style>.cls-1{fill:none;}.cls-2{fill:#08005a;}</style></defs><title>icon_set_all</title><g id="reason3_a"><g id="reason_3"><rect class="cls-1" width="63" height="63"/><path id="reason-3" class="cls-2" d="M53.88,31.11l-3.24-4.74.44-5.72a.69.69,0,0,0-.39-.68l-5.17-2.48L43,12.32a.69.69,0,0,0-.68-.39l-5.72.44L31.89,9.12a.69.69,0,0,0-.78,0l-4.74,3.24-5.72-.44a.69.69,0,0,0-.68.39l-2.48,5.17L12.31,20a.69.69,0,0,0-.39.68l.44,5.72L9.12,31.11a.69.69,0,0,0,0,.78l3.24,4.74-.44,5.72a.69.69,0,0,0,.39.68l5.17,2.48L20,50.68a.69.69,0,0,0,.68.39l5.72-.44,4.74,3.24a.69.69,0,0,0,.78,0l4.74-3.24,5.72.44a.67.67,0,0,0,.68-.39l2.48-5.17L50.69,43a.69.69,0,0,0,.39-.68l-.44-5.72,3.24-4.74A.69.69,0,0,0,53.88,31.11ZM49.36,36a.69.69,0,0,0-.12.44L49.66,42l-5,2.38a.69.69,0,0,0-.32.32l-2.38,5-5.49-.42a.69.69,0,0,0-.44.12L31.5,52.47,27,49.36a.69.69,0,0,0-.39-.12h-.05L21,49.66l-2.38-5a.69.69,0,0,0-.32-.32l-5-2.38.42-5.49a.69.69,0,0,0-.12-.44L10.53,31.5,13.64,27a.7.7,0,0,0,.12-.44L13.34,21l5-2.38a.69.69,0,0,0,.32-.32l2.38-5,5.49.42a.71.71,0,0,0,.44-.12l4.55-3.11L36,13.64a.71.71,0,0,0,.44.12L42,13.34l2.38,5a.69.69,0,0,0,.32.32l5,2.38-.42,5.49a.69.69,0,0,0,.12.44l3.11,4.55ZM35.79,26.79H34.73a6.39,6.39,0,0,0,.35-4.23,2.51,2.51,0,0,0-1.58-1.49c-1.26-.42-2.35,1.12-3.6,3.57a10.12,10.12,0,0,1-2.16,2.82,4.18,4.18,0,0,0-.41.42A2.43,2.43,0,0,0,25.47,27,2.51,2.51,0,0,0,23,29.55v7.9A2.51,2.51,0,0,0,25.47,40a2.43,2.43,0,0,0,1.94-1,3.15,3.15,0,0,0,2.26,1h6.44C38.5,40,39,38.53,39,37.32V30.11A3.27,3.27,0,0,0,35.79,26.79ZM25.47,38.6a1.14,1.14,0,0,1-1.12-1.15v-7.9a1.11,1.11,0,0,1,2.2-.26,2.56,2.56,0,0,0-.1.85v6.52a3.42,3.42,0,0,0,.12.88A1.13,1.13,0,0,1,25.47,38.6Zm12.18-1.29c0,.82-.25,1.27-1.54,1.27H29.67a1.86,1.86,0,0,1-1.73-1.24V29.55s0-.07,0-.1a2.43,2.43,0,0,1,.68-.93h0a11.61,11.61,0,0,0,2.48-3.23c1.4-2.75,1.95-2.89,2-2.9a1.14,1.14,0,0,1,.75.69c.43,1.07-.21,3-.73,4.07l-.51,1h3.21a1.89,1.89,0,0,1,1.86,1.92Z"/></g></g></svg>