<svg xmlns="http://www.w3.org/2000/svg" viewBox="0 0 63 63"><defs><style>.cls-1{fill:none;}.cls-2{fill:#08005a;}</style></defs><title>icon_set_all</title><g id="reason7_a"><g id="reason_7"><rect class="cls-1" width="63" height="63"/><path id="reason-7" class="cls-2" d="M25.22,12a.89.89,0,0,0-.53.24l-8.41,8a.89.89,0,0,0-.28.65V48.33a.89.89,0,0,0,.89.89H34.16v.89a.89.89,0,0,0,1.33.76l2.66-1.52,2.66,1.52a.89.89,0,0,0,1.33-.76v-.89h4a.89.89,0,0,0,.89-.89V12.9a.89.89,0,0,0-.89-.89H25.22Zm1,1.77h19V47.45h-3.1V42.13s0,0,0,0a5.31,5.31,0,1,0-8,0s0,0,0,0v5.32H17.77V22.2H25.3a.89.89,0,0,0,.89-.89H39a.89.89,0,1,0,0-1.77H26.19ZM24.41,15v5.47H18.67Zm-.53,9A.89.89,0,1,0,24,25.75H39A.89.89,0,1,0,39,24H23.89Zm0,4.43A.89.89,0,1,0,24,30.17H39a.89.89,0,1,0,0-1.77H23.89ZM38.14,35a3.54,3.54,0,1,1-3.54,3.54A3.53,3.53,0,0,1,38.14,35Zm-17.35.89a.89.89,0,0,0,.08,1.77h8.86a.89.89,0,1,0,0-1.77H20.79Zm0,3.54a.89.89,0,1,0,.08,1.77h8.86a.89.89,0,1,0,0-1.77H20.79Zm15.14,3.93a5.17,5.17,0,0,0,4.43,0v5.16l-1.77-1a.89.89,0,0,0-.89,0l-1.77,1Z"/></g></g></svg>