<svg xmlns="http://www.w3.org/2000/svg" viewBox="0 0 63 63"><defs><style>.cls-1{fill:none;}.cls-2{fill:#fff;}</style></defs><title>icon_set_all</title><g id="reason6"><g id="reason_6"><rect class="cls-1" width="63" height="63"/><path id="reason_6-2" data-name="reason_6" class="cls-2" d="M54.17,29.75a.68.68,0,0,0,0-.1.62.62,0,0,0-.09-.18l0-.06-.09-.09-.09-.08-3.56-2.4-7.75-5.23L35,16.5l-1.85-1.25a2.52,2.52,0,0,0,.77-3.12,2.51,2.51,0,0,0-1.62-1.37V9.07a2.79,2.79,0,0,0,1.86-1.5,4.53,4.53,0,0,0,.28-2,.72.72,0,0,0-.71-.71H29.44a.72.72,0,0,0-.71.71A4.59,4.59,0,0,0,29,7.64a2.76,2.76,0,0,0,1.81,1.44v2.28a.72.72,0,0,0,.71.71h.21c-.14,0,.11,0,.14,0l.11,0,.2.11,0,0,0,0a1.86,1.86,0,0,1,.18.18l0,0,0,0a1.62,1.62,0,0,1,.1.19l0,.12s0,.17,0,.18,0,.11,0,.16,0,.17,0,.19l0,.16,0,.09,0,0-.1.17,0,0L32.4,14l-.14.14c.1-.09-.1.06-.13.08l-.11.05-.22.07h-.4l-.06,0-.21-.07L31,14.21l-.16-.1L30.74,14l-.08-.09,0,0-.1-.17,0-.05,0-.09a1.86,1.86,0,0,1,0-.2c0,.13,0-.13,0-.16a.71.71,0,1,0-1.42,0,2.59,2.59,0,0,0,.94,2l-2.57,1.47-8.2,4.71-7.64,4.38L9.16,27.12a.67.67,0,0,0-.11.1l0,0a.62.62,0,0,0-.12.16l0,.08a.62.62,0,0,0,0,.15.64.64,0,0,0,0,.09V48.35a.72.72,0,0,0,.71.71l6.66.52,7,.54a8.34,8.34,0,0,0,.92,0L26.79,50l8.73-.31,9.85-.35,7-.24,1.15,0h0a.7.7,0,0,0,.55-.29.68.68,0,0,0,.16-.42V29.86A.65.65,0,0,0,54.17,29.75ZM30.24,6.86s0,0,0-.05l0-.15q0-.08,0-.16,0,.08,0-.06s0-.09,0-.14H33v.06s0,.17,0,.19,0,.15-.05.23a1.45,1.45,0,0,1-.45.67l0,0-.08.06-.23.13h0l-.13,0-.22,0h-.29q-.14,0-.06,0a1.45,1.45,0,0,1-.51-.16A1.39,1.39,0,0,1,30.24,6.86ZM50.09,28.42l.55.37-1-.12-6.64-.82-3.68-4.46-4.14-5,7.29,4.92ZM31.6,16.2l3.19,3.87,5.93,7.18.29.36h-.07L31.18,26.4l-6.67-.82,3.33-4.4Zm-9.69,5.23,7-4-2,2.6-4.11,5.44-.11,0-1.43.17-8.44,1,.84-.48ZM10.23,47.69V28.36l5-.59V48.08l-3.45-.27Zm6.42.5V27.6l5.85-.69q0,2,0,3.95,0,4.84,0,9.67,0,3.89,0,7.78v.33L21,48.53Zm33-.42-8.84.31L31,48.43l-6.79.24-.27,0q0-2,0-4,0-4.84,0-9.67,0-3.89,0-7.78v-.27l.15,0,2.62.32,8.61,1.06,9.81,1.21,7.07.87.59.07V47.66ZM29.4,31.57V44.28a.71.71,0,1,1-1.42,0V31.57a.71.71,0,1,1,1.42,0Zm4.95.61v12a.71.71,0,1,1-1.42,0v-12a.71.71,0,1,1,1.42,0Zm4.95.66V44a.71.71,0,1,1-1.42,0V32.85a.71.71,0,1,1,1.42,0Zm4.95.61V43.92a.71.71,0,1,1-1.42,0V33.46a.71.71,0,1,1,1.42,0Zm4.95.66v9.7a.71.71,0,1,1-1.42,0v-9.7a.71.71,0,1,1,1.42,0ZM19.61,37.38v2a.71.71,0,1,1-1.42,0v-2a.71.71,0,1,1,1.42,0Zm-5.92,0v2a.71.71,0,1,1-1.42,0v-2a.71.71,0,1,1,1.42,0Z"/></g></g></svg>