<svg xmlns="http://www.w3.org/2000/svg" viewBox="0 0 340 340"><defs><style>.cls-1{fill:none;}.cls-2{fill:#fff;}.cls-3{fill:#1100c2;}</style></defs><title>icon_set_all</title><g id="Warranty_1"><g id="Warranty"><rect class="cls-1" width="340" height="340"/><path class="cls-2" d="M135.79,149.68l-20.61-20.58,2-1.76a79.11,79.11,0,0,1,32.18-17.57,24,24,0,1,1,42.25.23,79.17,79.17,0,0,1,31.3,17.33l2,1.76-20.62,20.58-1.76-1.51a49.82,49.82,0,0,0-64.91,0Zm-3.67,68.71a50,50,0,0,1,0-64.78l1.51-1.76L113,131.27l-1.76,2a78.61,78.61,0,0,0,0,105.55l1.76,2,20.61-20.58Zm96.62-85.17-1.76-2-20.61,20.58,1.51,1.76a50,50,0,0,1,0,64.78l-1.51,1.76L227,240.73l1.76-2A78.61,78.61,0,0,0,228.74,133.22Zm-26.29,90.6a49.84,49.84,0,0,1-64.91,0l-1.76-1.51-20.61,20.58,2,1.76a78.87,78.87,0,0,0,105.73,0l2-1.76-20.62-20.58Z"/><path class="cls-3" d="M228.54,127.62h0A82.09,82.09,0,0,0,197.6,108.2l-1.17-.41V97.64a26.43,26.43,0,0,0-52.86,0v10.15l-1.17.41a82.65,82.65,0,1,0,86.14,19.43Zm-80.42-30a21.88,21.88,0,0,1,43.76,0v8.74l-2.16-.53a80.64,80.64,0,0,0-39.43,0l-2.16.53Zm-30.39,30.43a78,78,0,0,1,104.54,0l1.37,1.24-19.53,19.5-1.23-1.06a50.47,50.47,0,0,0-65.76,0l-1.23,1.06-19.53-19.5Zm98.28,58a46,46,0,1,1-13.46-32.51A45.62,45.62,0,0,1,216,186.08Zm-104.1,52.19a77.76,77.76,0,0,1,0-104.39l1.23-1.37L132.68,152l-1.06,1.23a50.73,50.73,0,0,0,0,65.65l1.06,1.23-19.53,19.5Zm110.36,5.82a78,78,0,0,1-104.55,0l-1.37-1.23,19.53-19.5,1.23,1.05a50.49,50.49,0,0,0,65.76,0l1.23-1.06,19.53,19.51Zm5.81-5.82-1.23,1.37-19.53-19.5,1.06-1.23a50.72,50.72,0,0,0,0-65.65L207.32,152l19.53-19.5,1.23,1.37A77.75,77.75,0,0,1,228.09,238.27Z"/></g></g></svg>