<svg xmlns="http://www.w3.org/2000/svg" viewBox="0 0 17 18.63"><defs><style>.cls-1{fill:#623c25;}</style></defs><title>12_l_d</title><g id="Layer_2" data-name="Layer 2"><g id="Layer_1-2" data-name="Layer 1"><path class="cls-1" d="M8.47,12.46H5V0h0V.55l0,3.21V0H17V12.46H8.47Zm6.06,2-2.36,1.84A23,23,0,0,0,9.74,14.4a1.85,1.85,0,0,1-1,.79,4.91,4.91,0,0,1-1.26,1.09H7.37l0-.48v-.88L9.57,13l.36-.08a25.92,25.92,0,0,0,2.25,1.79c.16,0,2.23-1.81,2.34-1.81h.12A18.44,18.44,0,0,1,17,14.59v1.59S15,14.44,14.53,14.43ZM7.32,16.27V15.8l0-.37c-.1-.9.27-.41-.57-1.15a8.44,8.44,0,0,0-1-.93l-2,1.2,0-.08c.15-.32,1.12-2.1,1.12-2.22s-.43-.45-.58-.7a5.79,5.79,0,0,0-.79-.72l-1-.06v0H2.21a.44.44,0,0,1,.13.09H2.06c0,.31.74,1.06,1.07,1.06l-.07,0,.43.56a15.62,15.62,0,0,0-.72,1.89c-.16.45-.15.51-.33.93-.07.15-.1.33-.17.51a4.46,4.46,0,0,1-.24.43c0,.45,1.22-.45,1.57-.62.2-.1,1.72-.87,1.76-.87S7,16.24,7.14,16.27l.26.23,0-.22ZM2.19,10.71l0,0H1.73l.93-1.64c.08-.63.76-1,.77-1.5L1.9,5A24.43,24.43,0,0,0,3.45,2.31a2.05,2.05,0,0,1-.66-1.12A5.77,5.77,0,0,1,2,0H3.24L4.6,2.13l.07.39C4.57,2.59,3.18,4.91,3.18,5s.09.19.19.27l-.07.26c.28,0,.6.7.76,1a7.93,7.93,0,0,1,.63,1.09V7.7a7,7,0,0,1-.86,1.65A9,9,0,0,1,3,10.73h-.5v0ZM3.82,1.85H4L3.89,1.6l.19-.15L4,1.39l-.25.2ZM1,0a12.86,12.86,0,0,1,.06,2.35V4.58L1,5.9v.72l0,.46v.65l0,1V9l0,.66v1.09h.3L1.3,8.39l0-1.18L1.3,6l.05-.14-.06-.92c-.06-1,0-1.92,0-2.88a13.13,13.13,0,0,1,0-1.37A3.86,3.86,0,0,0,1.33,0Zm.32,10.74.17.15v2l0,3.13.07,1,3.63,0a18,18,0,0,1,2.09,0h0v.21a27.34,27.34,0,0,1-3,.13H3.82l-2.35,0a.27.27,0,0,1-.27-.3l0-3.83s-.1-.69-.1-.83l0-.46.11-.14a1.06,1.06,0,0,1-.08-.4v-.53s0-.12.09-.18h.09Zm6,6.27a2,2,0,0,1,.92,0,7.61,7.61,0,0,0,1.24,0,22.77,22.77,0,0,0,2.62,0l.84-.06.12,0,1.13,0,1.07.05L17,16.93v.36h-.61l-.6,0h-.23l-.9.06-.3,0-.29,0-.42,0h-.3l-.06,0-.3,0-1.19,0h-.3l-1.72,0c-.48,0-2.08-.09-2.21.12a.66.66,0,0,0-.25-.11v-.06s0,0,0,0S7.35,17,7.32,17ZM.09,8.32V8.7L0,8.72l.14.18H.08l0,.59,0,1.24H.7c.09-.21-.06-.75-.06-.89l0-.92V6.16l0-.27,0-1.44c-.13-.36,0-.14,0-.39v-.6l0-.32,0-2L.74,0H0L.07,2.21Zm8.05,4.15h0ZM.7,10.72H.75v.12c.1.05.1.1.1.38v.07l0,1.53v4.89l1.58,0H3.46l3.86-.05v.17s0-.07,0,.15v.53H6.6l-1.35-.05H5.1l-.71.08H4.25l-.78-.06H2.83L0,18.63l0-2.44,0-.61,0-.83V14l0-.15,0-.38V10.73H.7Zm6.67,7h0v0h0l1.37,0,1.79,0,.3,0h.53c.24,0,0,.14.36,0l1.31,0,.24,0h2.26l.24,0,.84,0c.07,0,.25-.05.43-.08v.8l-.74,0-.54,0v-.1l-.17.16v-.07h-.35l-5.54,0-2.33.08v-.68a.21.21,0,0,0,0-.08Z"/></g></g></svg>