<svg xmlns="http://www.w3.org/2000/svg" viewBox="0 0 16.99 10.76"><defs><style>.cls-1{fill:#623c25;}</style></defs><title>12_l</title><g id="Layer_2" data-name="Layer 2"><g id="Layer_1-2" data-name="Layer 1"><path class="cls-1" d="M1.34,0h-.1l0,0h.12ZM.75,0H0V0H.75ZM0,0l0,1.23,0,.6H.17L0,2l.06,0v.38l0,6.11,0,2.21H.73l0-1.17,0-2V6.7c0-.25-.12,0,0-.39l0-1.44,0-.27V2.11l0-.26,0-.92C.64.79.79.25.7,0H0ZM2.47,0H2.25l0,0h.26ZM5,0V10.76h0V10.2l0-3.2v3.76H17V0ZM3.3,5.23l.07.26c-.1.07-.19.09-.19.27A28.07,28.07,0,0,0,4.67,8.24l-.08.39L3.24,10.76H2a5.77,5.77,0,0,1,.82-1.19,2,2,0,0,1,.66-1.12A26.16,26.16,0,0,0,1.9,5.77l1.52-2.6c0-.55-.68-.87-.76-1.5L1.73,0h.48l0,0h.28V0H3A9.59,9.59,0,0,1,3.83,1.4a7.17,7.17,0,0,1,.85,1.65v.14a9.32,9.32,0,0,1-.63,1.09C3.9,4.53,3.57,5.21,3.3,5.23Zm.47,3.94.24.2.06-.06-.18-.15L4,8.9H3.82ZM1.34,0H1.06L1,1.12l0,.66V2L1,3l0,.32v.33l0,.46,0,.33,0,.06v.33l0,1.31V6.5l0,1.91A13.77,13.77,0,0,1,1,10.76h.33a5.34,5.34,0,0,0-.05-.66,10.74,10.74,0,0,1,0-1.37c0-1-.08-1.87,0-2.89l.05-.91,0-.14,0-1.24,0-1.18L1.36,0Z"/></g></g></svg>