<svg xmlns="http://www.w3.org/2000/svg" viewBox="0 0 17 18.63"><defs><style>.cls-1{fill:#623c25;}</style></defs><title>12_l_u</title><g id="Layer_2" data-name="Layer 2"><g id="Layer_1-2" data-name="Layer 1"><path class="cls-1" d="M8.45,6.17H17V18.63H5.09V14.87l0,3.21v.55H5V6.17H8.45ZM17,2.45V4a18.59,18.59,0,0,1-2.36,1.69h-.12c-.11,0-2.18-1.82-2.34-1.82a24.29,24.29,0,0,0-2.25,1.8l-.36-.09L7.32,3.71V2.83l0-.48h.09A5.34,5.34,0,0,1,8.72,3.44a1.82,1.82,0,0,1,1,.8,23,23,0,0,0,2.43-1.87l2.36,1.84C15,4.19,17,2.45,17,2.45Zm-9.63-.1,0-.22-.26.23C7,2.4,5.54,3.88,5.36,3.87S3.8,3.1,3.6,3C3.25,2.84,2,1.93,2,2.39a2.79,2.79,0,0,1,.24.43c.07.18.1.36.17.5.18.43.17.48.33.94a16.29,16.29,0,0,0,.72,1.89l-.43.56.07,0A1.86,1.86,0,0,0,2.06,7.81h.28l-.13.09h.27v0l1-.06a6.55,6.55,0,0,0,.79-.72c.15-.25.58-.53.58-.7s-1-1.91-1.12-2.23l0-.08,2,1.2a8.31,8.31,0,0,0,1-.92c.84-.74.47-.25.57-1.16l0-.37V2.36ZM2.48,7.93v0H3a9,9,0,0,1,.85,1.37,7.21,7.21,0,0,1,.86,1.65v.13a7.93,7.93,0,0,1-.63,1.09c-.16.25-.48.93-.76,1l.07.26c-.1.07-.19.09-.19.27S4.57,16,4.67,16.11l-.07.4L3.24,18.63H2a5.65,5.65,0,0,1,.82-1.18,2.08,2.08,0,0,1,.66-1.13A24.33,24.33,0,0,0,1.9,13.65l1.53-2.6c0-.55-.69-.87-.77-1.51L1.73,7.91h.48l0,0Zm1.29,9.12.25.2.06-.07L3.89,17,4,16.78H3.82ZM1.33,18.63A4.07,4.07,0,0,0,1.28,18a13,13,0,0,1,0-1.36c0-1-.09-1.87,0-2.89l.06-.92-.05-.13,0-1.25,0-1.18.06-2.33h-.3V9l0,.65v.27l0,1v.66l0,.46v.72l0,1.31v2.23A12.81,12.81,0,0,1,1,18.63Zm0-10.72H1.24c-.05-.07-.11-.15-.09-.18V7.19a1,1,0,0,1,.08-.39l-.11-.15,0-.45c0-.15.1-.84.1-.84l0-3.82a.26.26,0,0,1,.27-.3l2.35,0h.49a27.15,27.15,0,0,1,3,.12v.22h0a20.48,20.48,0,0,1-2.09,0l-3.63,0-.07,1,0,3.13v2l-.17.14Zm6-6.46s0,0,0,0V1.35a.45.45,0,0,0,.25-.11c.13.22,1.73.13,2.21.12h2l1.19,0h.3l.06,0,.3,0,.42,0h.29l.3,0,.9.05h.23l.6,0H17V1.7l-1.74-.07-1.07.05-1.13,0-.12.05-.84-.07c-.92-.07-1.75,0-2.62,0a7.61,7.61,0,0,0-1.24,0,2,2,0,0,1-.92,0S7.36,1.55,7.36,1.45Zm-7.29,15L0,18.63H.74l0-1.16,0-2,0-.33v-.59c0-.26-.11,0,0-.39l0-1.45,0-.26V9.72l0-.91c0-.15.15-.68.06-.9H0l0,1.23,0,.59H.17L0,9.92H.09v.39ZM8.45,6.17h0ZM.7,7.91H0V5.2l0-.39,0-.15V3.89l0-.83,0-.62L0,0l2.8.09h.64L4.25,0h.14L5.1.13h.15L6.6.07h.71V.61c0,.22,0,.12,0,.15V.93L3.46.88H2.4L.82.92V5.81l0,1.53v.08c0,.28,0,.32-.1.38v.11ZM7.37.84s0-.08,0-.08V.07L9.65.16l5.54,0h.35V.11l.17.17V.17l.54,0,.74,0V.93c-.18,0-.36-.08-.43-.08l-.84,0h-2.5L13,.89l-1.31,0c-.32-.16-.12,0-.36,0h-.83L8.7.94,7.33,1h0v0h0Z"/></g></g></svg>