<svg xmlns="http://www.w3.org/2000/svg" viewBox="0 0 17 18.63"><defs><style>.cls-1{fill:#623c25;}</style></defs><title>12_r_u</title><g id="Layer_2" data-name="Layer 2"><g id="Layer_1-2" data-name="Layer 1"><path class="cls-1" d="M8.53,6.17H12V18.63h0v-.55l0-3.21v3.76H0V6.17H8.53Zm-6.06-2L4.83,2.37A23,23,0,0,0,7.26,4.24a1.82,1.82,0,0,1,1-.8A5.34,5.34,0,0,1,9.54,2.35h.08l.06.48v.88L7.43,5.62l-.36.09a25.69,25.69,0,0,0-2.25-1.8c-.16,0-2.23,1.82-2.34,1.82H2.36A18.59,18.59,0,0,1,0,4V2.45S2,4.19,2.47,4.21ZM9.68,2.36v.47l0,.37c.1.91-.27.42.57,1.16a8.31,8.31,0,0,0,1,.92l2-1.2,0,.08c-.15.32-1.12,2.11-1.12,2.23s.43.45.58.7a6.21,6.21,0,0,0,.78.72l1,.06v0h.26l-.12-.09h.28a1.86,1.86,0,0,0-1.07-1.06l.07,0-.43-.56a16.29,16.29,0,0,0,.72-1.89c.16-.46.15-.51.33-.94.07-.14.1-.32.17-.5A2.79,2.79,0,0,1,15,2.39c0-.46-1.22.45-1.57.61s-1.73.87-1.76.87c-.18,0-1.66-1.47-1.78-1.51L9.6,2.13l0,.22Zm5.13,5.57,0,0h.49l-.94,1.63c-.07.64-.75,1-.76,1.51l1.53,2.6a24.33,24.33,0,0,0-1.55,2.67,2.15,2.15,0,0,1,.66,1.13A6.53,6.53,0,0,1,15,18.63H13.76L12.4,16.51l-.07-.4c.1-.07,1.48-2.39,1.48-2.47s-.08-.2-.18-.27l.07-.26c-.28,0-.61-.71-.76-1a7.93,7.93,0,0,1-.63-1.09v-.13a6.84,6.84,0,0,1,.86-1.65A9,9,0,0,1,14,7.91h.5v0Zm-1.63,8.85h-.13l.06.25-.19.15.06.07.25-.2ZM16,18.63a12.81,12.81,0,0,1-.06-2.35V14.05l0-1.31V12l0-.46V10.9l0-1V9.65L16,9V7.91h-.3l.06,2.33,0,1.18,0,1.25,0,.13.06.92c0,1,0,1.93,0,2.89a10.62,10.62,0,0,1,0,1.36c0,.08-.05.39-.05.66ZM15.66,7.89l-.16-.14v-2l0-3.13-.08-1-3.62,0a20.48,20.48,0,0,1-2.09,0h0V1.41a27.15,27.15,0,0,1,3-.12h.49l2.35,0a.26.26,0,0,1,.27.3l0,3.82s.1.69.09.84l0,.45-.12.15a1,1,0,0,1,.09.39v.54s0,.11-.09.18h-.11Zm-6-6.26a2,2,0,0,1-.92,0,7.61,7.61,0,0,0-1.24,0c-.87,0-1.7-.1-2.62,0l-.84.07-.12-.05-1.13,0L1.74,1.63,0,1.7V1.34H.61l.59,0h.24l.9-.05.29,0h.3l.42,0,.3,0,.06,0H4l1.2,0h2c.48,0,2.08.1,2.21-.12a.45.45,0,0,0,.25.11v.06s0,0,0,0A.24.24,0,0,0,9.68,1.63Zm7.23,8.69V9.93H17l-.14-.18h.08l0-.59,0-1.23H16.3c-.09.22.06.75.06.9l0,.91v2.76l0,.26,0,1.45c.13.35,0,.13,0,.39v.92l0,2,0,1.16H17l-.06-2.21Zm-8-4.15h0ZM16.3,7.91h-.06V7.8c-.11-.06-.1-.1-.1-.38V7.34l0-1.53V.92L14.6.88H13.53L9.68.93V.76s0,.07,0-.15V.07h.71l1.35,0h.14L12.6.05h.15l.78.06h.64L17,0l0,2.44,0,.62,0,.83v.77l0,.15,0,.39V7.9H16.3ZM9.63.93h0V1h0L8.3.94,6.51.9H5.68c-.24,0,0-.13-.36,0L4,.89l-.24,0H1.27L.43.85C.36.85.18.9,0,.93V.12l.74,0,.53,0V.28L1.44.11V.18h.36l5.54,0L9.68.07V.76s0,0,0,.08Z"/></g></g></svg>