<svg xmlns="http://www.w3.org/2000/svg" viewBox="0 0 31.85 24.55"><defs><style>.cls-1{fill:#623c25;fill-rule:evenodd;}</style></defs><title>2_r_d</title><g id="Layer_2" data-name="Layer 2"><g id="Layer_1-2" data-name="Layer 1"><path class="cls-1" d="M27.1,15.43a2.73,2.73,0,0,1,1.66.61c-1.26,0-2.26.69-2,1.6a2.2,2.2,0,0,0,2.13,1.65h.33a2.55,2.55,0,0,0,2.65-2.63,3,3,0,0,0-.8-1.74,4.91,4.91,0,0,0-1.66-1.22,9.17,9.17,0,0,0-5.11-.42A9.69,9.69,0,0,0,20,14.8a9,9,0,0,0-1.59,1.28c-.3.28-1.06,1.39-1.37,1.45v.35c0,.2-.09.2-.22.36,0,.7-.44,1.27-.44,1.75,0,2.49,1.93,4.56,5.08,4.56.54,0,1.48-.29,1.54-.7.75-.05,1.1-.83,1.1-1.49V22c0-.48-1.23-1.49-1.87-1.49H21.7c-1.08,0-1.27.65-1.88,1-.87-1.44.85-2.81,1.72-3.72a3.93,3.93,0,0,1,2.05-1.35c.39-.16.77-.44,1.16-.57A5.23,5.23,0,0,0,26,15.43ZM24.79,15h-.56c-.09.18-2.43,1.12-2.92,1.54a8,8,0,0,0-2.14,2.15c-.42.86-1.23,1.69-.75,3,0,0,.92,1.06,1,1.12a3.51,3.51,0,0,0,1.7.58h.45c.48,0,1.1-.42,1.1-.79s-1-.09-1.1-.09c-.32,0-.78-.28-.78-.53v-.35c0-.32.65-.56,1-.42l.33-.2,1.06.89.14.7a3,3,0,0,1-4,.77c-.9-.45-1.08-.48-1.5-1.35a4,4,0,0,1-.42-.89c-.08-.25-.16-.92-.2-1,.54-.81.12-1.45.82-2.15.5-.52.65-1.13,1.36-1.73a6.38,6.38,0,0,1,1.84-1.34,18.6,18.6,0,0,0,2.28-1L25,13.58l.32.18c.11-.1-.18-.08.22-.08h.66c.45,0,.05,0,.24.1l.32-.21,1,.28c1-.38,3.09,1.79,3.09,2.81v.61c0,.51-1,1.32-1.88,1.32-.4,0-.26-.08-.74-.12l-.52-.32L27.77,17a5.54,5.54,0,0,1,.88-.35h.22c.58,0,.75.63.73,1l.57-.49.13-.61c-.45-.68-.86-1.68-2-1.83a6.64,6.64,0,0,0-1.65,0c-.63.06-1.71.28-1.86.28"/><path class="cls-1" d="M29.86,4.6c-2.31-.23-2.31-.54-2.31-2.27L28.12,2c-.61-.22-2,.76-2.3,1.24a4.79,4.79,0,0,0-.92,2.42c0,.8-.44,2.58.3,3.52s1.08,1.88,2.79,1.91l0-.35-.57-.5c.47-.74-.09-1.61,1.92-1.69,1,0,2.36.7,2.2,1.31.95.51-.42,2.28-1.5,2.76a7.62,7.62,0,0,1-4.7,0,5.73,5.73,0,0,1-3-2.34A5.43,5.43,0,0,1,21.14,6.8V6.45a2.8,2.8,0,0,1,.16-1.37,6,6,0,0,0,.4-1.44C22.23,3,23,1.55,24,1.36V1c.28-.06,1.1-.48,1.51-.64A5.72,5.72,0,0,1,27.43,0c2.14-.21,2.14.53,3.54.62.26.9,1,.52.84,2.44-.09.95-1.18,1.1-1.95,1.5M22,5.74c-.56.84.18,3.15.53,3.7,1,1.65,1,1.49,2.65,2.63a5.16,5.16,0,0,0,4.52.06c.89-.57.84-.43,1.2-1.42s-.52-1.08-.74-1.55h-.33a3.05,3.05,0,0,1-.66-.08c-.95.39-.78.5-1.21,1.22.36.19.64.7,1,.7s.66-.45,1-.08l-.33.08c.46.88-2.52,1.07-3.34.47A7.54,7.54,0,0,1,25,10.39c-.4-.42-.51-.86-.89-1.31l-.37-1.33h-.11l.12-2.89L24,4.62l.59-1.84c.34-.18.78-.36.83-.81.62-.11,1.14-.59,1.72-.72,1.1-.24,1,0,2,0,.53.63,1.31.32,1.44,1.49-.13.15-.24.35-.56.35s-.17-.78-1.1-.78c-.59,0-1,.22-1,.7v.26c.52,0,.52.33.66.53s.55.26,1,.26a3.42,3.42,0,0,0,1.11-.26c0-.58.22-.49.22-.62s0-.15-.11-.26l.23-.25L31,2c-.34-.42-.44-.75-1.07-1.06A4.57,4.57,0,0,0,28.1.4h-.78a5.86,5.86,0,0,0-3.61,1.86A5.82,5.82,0,0,0,22.54,3.7c-.24.52-.39,1.47-.73,1.78Z"/><path class="cls-1" d="M10.4,21.91c.29-1.84.67-1.84,2.83-1.84l.39.46c.28-.49-.93-1.61-1.53-1.82a8,8,0,0,0-3-.74c-1,0-3.21-.35-4.38.24s-2.33.86-2.37,2.21h.44L3.41,20c.91.37,2-.07,2.08,1.52,0,.8-.86,1.88-1.62,1.75C3.24,24,1,22.89.45,22a4,4,0,0,1,0-3.74,5.59,5.59,0,0,1,2.91-2.39A9.39,9.39,0,0,1,7.68,15h.43a5.54,5.54,0,0,1,1.7.12,9.93,9.93,0,0,0,1.78.32c.79.42,2.6,1,2.83,1.84h.44a13.08,13.08,0,0,0,.8,1.19A3.36,3.36,0,0,1,16.07,20c.26,1.7-.66,1.7-.78,2.81-1.12.21-.65.81-3,.67-1.17-.07-1.36-.94-1.86-1.55M9,15.69c-1-.44-3.9.14-4.58.42a6.92,6.92,0,0,0-3.27,2.11,2.81,2.81,0,0,0-.07,3.59c.71.7.53.67,1.76,1s1.34-.41,1.92-.58v-.27a1.33,1.33,0,0,1,.11-.52c-.5-.75-.63-.62-1.53-1-.23.29-.87.51-.87.79s.57.52.11.79l-.1-.26c-1.09.36-1.33-2-.58-2.65a7.15,7.15,0,0,1,1.33-1c.52-.32,1.08-.4,1.64-.7l1.65-.3,0-.09,3.59.09.31.22,2.29.47a1.32,1.32,0,0,0,1,.66c.14.49.74.9.9,1.36.3.87,0,.84,0,1.62-.78.42-.39,1-1.85,1.14-.18-.1-.43-.19-.43-.44s1-.14,1-.88a.76.76,0,0,0-.87-.79H12c0,.42-.41.42-.65.53s-.33.44-.33.79a2,2,0,0,0,.33.88c.71,0,.59.17.76.17a.47.47,0,0,0,.32-.09l.32.19.88-.11A3.14,3.14,0,0,0,15,21.93a2.81,2.81,0,0,0,.63-1.42V19.9c0-1.14-1.49-2.39-2.31-2.88a7.73,7.73,0,0,0-1.79-.92,12.26,12.26,0,0,1-2.21-.59Z"/></g></g></svg>