<svg id="ico_cost" xmlns="http://www.w3.org/2000/svg" width="181" height="135" viewBox="0 0 181 135"><style>.st0{fill:none}.st1{fill:#fc0}</style><path class="st0" d="M0 0h181v135H0z"/><path class="st1" d="M36.5 121H12.2C5.5 121 0 115.5 0 108.7V63.5C0 56 3.2 48.9 8.9 44c-.6-.3-1-1-1-1.7V27.7c0-1.1.9-1.9 1.9-1.9h4.8V14.4c0-1.1.9-1.9 1.9-1.9h1l1.9-10.9c.2-.9 1-1.6 1.9-1.6h6c.9 0 1.7.7 1.9 1.6l1.9 10.9h1c1.1 0 1.9.9 1.9 1.9v11.3h4.8c1.1 0 1.9.9 1.9 1.9v14.6c0 .7-.4 1.3-1 1.7 5.7 4.9 9 12 8.9 19.5v45.2c.1 6.9-5.3 12.4-12.1 12.4zM25.7 3.9H23l-1.5 8.6h5.8l-1.6-8.6zm4.5 12.5H18.5v9.4h11.6v-9.4h.1zm6.7 13.2h-5.8v5c0 1.1-.8 1.9-1.9 2-1.1 0-1.9-.8-2-1.9v-5.1h-5.8v5c0 1.1-.8 1.9-1.9 2-1.1 0-1.9-.8-2-1.9v-5.1h-5.8v10.8h25.1l.1-10.8zm8 33.9c0-8.1-4.4-15.5-11.5-19.3h-18C8.3 48 3.8 55.4 3.9 63.5v45.2c0 4.6 3.8 8.4 8.4 8.4h24.2c4.6 0 8.4-3.8 8.4-8.4V63.5zm-5.8 1.9H9.6c-1.1 0-1.9-.9-1.9-1.9 0-1.1.9-1.9 1.9-1.9h29.5c1.1 0 1.9.9 1.9 1.9 0 1.1-.8 1.9-1.9 1.9zM14.2 85c0-2.2.7-4.3 2-6.1l6.6-8.9c.6-.9 1.8-1 2.7-.4.2.1.3.3.4.4l6.6 8.9c3.4 4.5 2.4 10.9-2.1 14.2-4.5 3.4-10.9 2.4-14.2-2.1-1.3-1.6-2-3.8-2-6zm16.5 0c0-1.4-.4-2.7-1.2-3.8l-5.1-6.8-5.1 6.8c-.8 1.1-1.3 2.4-1.2 3.8 0 3.5 2.8 6.3 6.3 6.3 3.4.1 6.3-2.8 6.3-6.3zM9.6 99.1h29.5c1.1 0 1.9.9 1.9 1.9s-.9 1.9-1.9 1.9H9.6c-1.1 0-1.9-.9-1.9-1.9s.9-1.9 1.9-1.9zm105.8-56.9c-1.2-.5-2.5.1-2.9 1.3l-3 7.5h.5c1.5 0 2.9.1 4.3.2l2.4-6c.4-1.2-.2-2.5-1.3-3zm16.1 6.6c-1.1-.4-2.3.2-2.7 1.2l-1.7 4.4c1.4.6 2.7 1.2 4.1 2l1.9-4.8c.2-1.2-.4-2.4-1.6-2.8zm8.1 3.2c-1.1-.4-2.3.2-2.7 1.2l-2.1 5.4c1.3.9 2.5 1.8 3.7 2.8l2.6-6.7c.3-1.1-.3-2.3-1.5-2.7zm8.2 3.2c-1.1-.4-2.3.2-2.7 1.2l-3.2 8.3c1.2 1.2 2.3 2.5 3.3 3.9l4.1-10.5c.3-1.2-.4-2.5-1.5-2.9z"/><path class="st1" d="M179.6 74.4l-8.8-3.5c.6-2.5-.7-5.1-3.2-6.1l-8.4-3.3c1.3-6.2-2.1-12.4-8-14.7l-32.5-12.9c-5.9-2.3-12.6-.1-15.9 5.3l-4.4-1.7 3.1-7.9c.5-1.2-.1-2.5-1.3-2.9l-2.1-.8 1.6-4.2 2.1.8c1.1.5 2.4-.1 2.9-1.2l1.9-4.8c1.4-3.5-.3-7.4-3.8-8.7s-7.4.3-8.7 3.8l-1.9 4.8c-.5 1.2.1 2.5 1.3 2.9l2.1.8-1.6 4.2-2-1c-1.2-.5-2.5.1-2.9 1.3l-4.8 12.1L53 24.3c-1.1-.5-2.4.1-2.9 1.2L42 46.1c1.2 1.3 2.3 2.7 3.2 4.2l8.3-21 4.2 1.6-10 25.2c.7 2.4 1.1 4.9 1.1 7.4v2.1l.1-.2 20.9 8.3L65 85.6l-14.6-5.8c-.5-.2-1.1-.2-1.6 0V84l14.6 5.8-1.6 4.2-12.9-5.1v4.8L60 98.1l-2.5 6.2c-.5 1.2.1 2.5 1.3 2.9l8.3 3.3c.6.2 1.2.2 1.7 0-.7-1.9-1.3-3.9-1.8-5.9l-.4.9-4.2-1.6L66 95c0-11.6 4.5-22.2 11.9-30.1l14.5-36.6 4.2 1.7-11.3 28.6c2-1.3 4-2.5 6.2-3.5l2-5.1 4.4 1.7c-.1.3-.1.7-.2 1 1.6-.5 3.2-.8 4.8-1.1.1-.2.1-.4.2-.5l3.3-8.3c1.7-4.4 6.7-6.5 11.1-4.8l32.5 13c4.4 1.7 6.5 6.7 4.8 11l-3.3 8.3c-.5 1.4-1.4 2.6-2.5 3.5.7 1.3 1.4 2.7 2 4.1 1.5-1 2.8-2.3 3.7-3.9l8.4 3.3c2.4 1 5.2 0 6.5-2.3l8.8 3.5c1.1.5 2.4-.1 2.9-1.3.4-1-.2-2.3-1.3-2.8zM74.7 61.1L60 55.3c-1.1-.5-2.4.1-2.9 1.2s.1 2.4 1.3 2.9L73 65.3l-1.6 4.2-20.9-8.3 8-20.3 20.9 8.3-4.7 11.9zM81 45l-20.9-8.3 1.7-4.1 20.9 8.3L81 45zm17.4-31.9c.5-1.2 1.8-1.7 2.9-1.3 1.2.5 1.7 1.8 1.3 2.9l-1.1 2.7-4.2-1.6 1.1-2.7zm.9 34.4l-4.2-1.6 1.6-4.2 4.2 1.6-1.6 4.2zM166.4 70l-1.1 2.8c-.2.4-.6.6-1 .4l-8.2-3.3 1.6-4.2 8.2 3.3c.4.2.6.6.5 1z"/><path class="st1" d="M123.4 45.5c-1.1-.4-2.3.2-2.7 1.2l-2.1 5.2c1.5.3 2.9.7 4.3 1.1l1.8-4.6c.5-1.2-.2-2.5-1.3-2.9zM110 55c-22.1 0-40 17.9-40 40s17.9 40 40 40 40-17.9 40-40-17.9-40-40-40zm0 75c-19.3 0-35-15.7-35-35s15.7-35 35-35 35 15.7 35 35-15.7 35-35 35z"/><path class="st1" d="M115.2 92.4l-7.7 2.8-3.9-10.8 7.7-2.8c1.5-.6 3.2-.6 4.6 0 1.4.6 2.5 1.8 3 3.3.6 1.4.5 3.1-.2 4.5s-2 2.5-3.5 3zm-5.3-16.1L97 81.1c-.4.1-.6.6-.5 1l5.4 15.1-5.4 2c-.2.1-.4.2-.5.4-.1.2-.1.4 0 .6l1.3 3.6c.1.4.6.6 1 .5h.1l5.4-2 1 2.8-5.4 2c-.4.1-.6.6-.5 1l1.1 3.1c.1.4.6.6 1 .5h.1l5.4-2 1.7 4.6c.1.4.6.6 1 .5h.1l4-1.5c.2-.1.4-.2.5-.4.1-.2.1-.4 0-.6l-1.7-4.6 12.1-4.5c.4-.1.6-.6.5-1l-1.1-3.1c-.1-.4-.6-.6-1-.5h-.1l-12.1 4.5-1-2.8 8.2-3c2.9-1 5.4-3.1 6.8-5.8 1.3-2.7 1.4-5.9.3-8.7-.9-2.9-3-5.2-5.8-6.5a11.7 11.7 0 0 0-9 0z"/></svg>