<svg id="ico_lo" xmlns="http://www.w3.org/2000/svg" width="67" height="67" viewBox="0 0 67 67"><defs><style>.cls-1{fill:#071017}.cls-2,.cls-3{fill:#fc0;fill-rule:evenodd}.cls-3{fill:#fff}</style></defs><circle class="cls-1" cx="33.5" cy="33.5" r="33.5"/><path id="Shape_24_copy_4" data-name="Shape 24 copy 4" class="cls-2" d="M554.607 1145a6.314 6.314 0 0 1 .525 2.45 3.828 3.828 0 0 0-2.1.43 3.582 3.582 0 0 0-.84-2.03c.808-.28 1.608-.57 2.415-.85zm1.575 2.45l.315-2.34h.42c.7.24 1.4.49 2.1.74a4.173 4.173 0 0 0-.84 2.03 3.588 3.588 0 0 0-1.995-.43zm-4.41-1.38s.3 2.55.42 2.88c-2.259-.19-2.449 1.56-4.1 2.35v-.43c.892-2.4 1.97-3.32 3.68-4.8zm7.56 0c3.19 1.58 4.649 5.35 3.465 9.82-.069.03-.139.07-.21.1l-.84-.21c.629-4.34 1.3-5.45-2.73-6.94a3.527 3.527 0 0 0 .315-2.77zm-7.14.64a1.688 1.688 0 0 1 .315 1.7l-.315-.21v-1.49zm6.72 0c.105.21.21.42.315.64-.105.28-.21.57-.315.85l-.105.21h-.107a2.663 2.663 0 0 1 .212-1.7zm-4.725 1.06h.313l-.525.75-1.05.21c.035-.1.07-.21.105-.32.387-.21.77-.42 1.157-.64zm.84 0c1.987 3.91-2.716 7.91-4.411 9.18-.07-.03-.14-.07-.21-.1l-.315-.96c2.5-.76 4.8-4.37 2.626-6.73a2.516 2.516 0 0 0 2.31-1.39zm1.05.11c.257.16 2.31 1.5 2.31 1.5-1.07.57-.674 1.96-1.155 2.88-.14.1-.28.21-.42.32-.836-.9-.769-2.94-.735-4.7zm.735 0a1.533 1.533 0 0 1 1.47.75v.1a1.5 1.5 0 0 1-1.47-.85zm-12.076 2.67h.42c.035.14.07.28.105.43l-.105 2.02a5.377 5.377 0 0 0-1.89.11 4 4 0 0 0-.42-1.81zm21.317 0a4.594 4.594 0 0 1 2.31.85 3.348 3.348 0 0 0-.42 1.71 4.762 4.762 0 0 0-1.89-.11v-2.45zm-16.172.53a4.5 4.5 0 0 1 3.256 1.07c-.175.28-.35.57-.525.85-2.916-1.82-5.818.14-6.091 3.31h.21c.56.11 1.12.22 1.68.32.105.29.21.57.315.86a9.5 9.5 0 0 1-3.465-.32v-.11c.62-3.69 1.65-4.68 4.62-5.98zm10.606 0c.385.04.77.07 1.155.11l.21 1.07c-2.856-.08-3.82 1.14-5.25 2.45-.14-.1-.28-.21-.42-.32-.262-.84.059-.77.63-1.49 1.16-.53 2.34-1.17 3.675-1.82zm-18.271.54c.091.14.1 1.85.21 2.45-1.123-.31-1.446.49-2 1.07-.315-.04-.63-.07-.945-.11.354-1.72 1.627-2.46 2.735-3.41zm26.567 0c2.85.95 3.912 4.8 2.415 7.79-.105-.04-.21-.07-.315-.11-.175-.18-.35-.35-.525-.53.577-1.83 1.122-4.79-1.575-4.81a2.7 2.7 0 0 0 0-2.34zm-26.147.53a1.15 1.15 0 0 1 .21 1.28c-.07.04-.14.07-.21.11v-1.39zm21 0a5.53 5.53 0 0 1 2.2 5.12c-3.734.48-6.709-.32-8.191-2.99l.315-.42c.14-.07.28-.14.42-.22.105.08.21.15.315.22a5.486 5.486 0 0 0 5.986 2.45c-.13-1.75-1.015-2.14-1.043-4.16zm4.83 0c.07.04.14.07.21.11l-.105 1.28h-.105c-.035-.04-.07-.07-.1-.11a2.507 2.507 0 0 1 .102-1.28zm-19.637.85c.175.79.35 1.57.525 2.35a15.466 15.466 0 0 0 2.205 3.74c-.209.21-.42.42-.63.64h-.315c-.843-1.29-3.439-4.4-2.31-6.41.177-.1.352-.21.527-.32zm-5.04.32h.735c-.1.15-.21.29-.315.43-.315.04-.63.07-.945.11v-.11a2.116 2.116 0 0 0 .21-.11c.107-.1.212-.21.317-.32zm10.816 0c2.122 1.06 2.961 4.08 4.515 5.77-.245.25-.49.5-.735.74-1.4-1.88-2.8-3.77-4.2-5.65.142-.29.282-.57.422-.86zm12.181 0a2.012 2.012 0 0 1 1.26.43l-.105.21h-.105a1.327 1.327 0 0 1-1.048-.64zm-21.842.11c1.072 1.27-2.108 5.77-2.835 6.3a2.307 2.307 0 0 1-.735-.75c.989-1.26 2.619-2.6 1.68-4.59.88-.33 1.44-.21 1.892-.96zm21.107 0c.662.31 1.256.59 2.1.96-.506 1.19-.093 2.2-.735 3.1-.07-.04-.14-.07-.21-.11a22.572 22.572 0 0 1-1.153-3.95zm-26.673 1.92a6.043 6.043 0 0 1 3.256 1.39v.11c-.21.25-.42.49-.63.74-2.464-1.54-4.161-1.67-4.831 1.5a2.512 2.512 0 0 0-2.1-.11c.714-2.33 2.15-2.72 4.307-3.63zm15.227 0c.245.29.49.57.735.86-1.227 2.34-2.711 4.41-5.146 5.55-.21-.11-.42-.22-.63-.32-.035-.08-.07-.15-.105-.22l.105-.42c2.447-.74 3.946-3.34 5.043-5.45zm17.746.11c1.776.59 3.384 1.58 3.781 3.52a3.045 3.045 0 0 0-2.206.11c.3-1.61-.765-1.91-1.575-2.67v-.96zm-2.2.21h.315l.105.96a36.593 36.593 0 0 1-3.15 2.88c-1.41-.59-.445-1.36.525-2.02a7.487 7.487 0 0 1 2.202-1.82zm-30.872 1.28h1.05c.47 2.09 2.015 3.02 1.05 4.38-.14-.11-.28-.21-.42-.32a17.069 17.069 0 0 1-1.683-4.06zm21.526.54l1.05.21c-.355 1.49-5.268 7.05-5.88 4.8a15.323 15.323 0 0 0 4.825-5.01zm-16.906.74a16.03 16.03 0 0 1 4.1 3.95h-.735a8.024 8.024 0 0 1-3.885-3.2zm25.1.11c2.355.81 1.38 1.93 4.725 1.49a2.5 2.5 0 0 0 .841 1.82c-2.43.08-5.814-1.13-5.986-2.88.134-.14.274-.29.414-.43zm-20.582.11h.315c-.059 3.96 2.426 4.94 4.831 6.29v.43l-.42.75c-.21-.21-.42-.43-.63-.64-2.412-1.04-4.269-2.44-4.831-5.45-1.327.11-1.28.12-2.1-.53v-.11c.939-.24 1.884-.49 2.829-.74zm14.176 0a24.515 24.515 0 0 1 5.986 2.13c-.105.11-.21.22-.315.32l-.42.54a10.247 10.247 0 0 0-4.3-1.61c-.105.33-.211.65-.315.97-.315-.08-.631-.15-.946-.22v-.1c.094-.68.2-1.36.304-2.03zm-26.567.64l.84.21-.105.21a1.284 1.284 0 0 1-1.155-.32c.134-.03.274-.07.414-.1zm38.959 0c.244.03.49.07.735.1-.035.08-.07.15-.105.22h-.215c-.315.03-.631.07-.946.1v-.21zm-40.114.32c.525.21 1.05.42 1.575.64a9.94 9.94 0 0 0-.42 1.6c-.525-.11-1.05-.21-1.575-.32v-.53c.134-.47.274-.93.414-1.39zm40.219 2.13a3.218 3.218 0 0 0-.316-1.6 2.594 2.594 0 0 0 1.471-.53 3.1 3.1 0 0 1 .525 1.92zm-37.489-1.81a5.43 5.43 0 0 0 2.416.32c.14.28.28.57.42.85a12.122 12.122 0 0 1-3.781.75c.21-.21.42-.43.63-.64.099-.43.204-.85.314-1.28zm-.63.21h.21a1.549 1.549 0 0 1-.63 1.18v-.54c.134-.21.274-.42.414-.64zm37.173 0a1.555 1.555 0 0 1 .63 1.18h-.105c-.1-.08-.21-.15-.314-.22q-.112-.48-.217-.96zm-30.662.11a1.494 1.494 0 0 1 .945.75v.1a5.517 5.517 0 0 0-2.625 2.14c-.385-.04-.77-.07-1.155-.11.398-1.4 1.853-2.04 2.829-2.88zm17.011.32c.96.22 1.857 1.09 3.256.75a4.442 4.442 0 0 1 1.365-.54c.28.11.56.22.84.32-.105.14-.21.29-.315.43a5.667 5.667 0 0 1-5.776-.21zm8.821 0c.28.21.56.43.84.64l-.21.21-1.575 1.71c.07.11.14.21.21.32a1.446 1.446 0 0 1 1.26 1.17 4.482 4.482 0 0 1-3.465-1.17v-.11a9.312 9.312 0 0 0 2.934-2.77zm-16.591.11c1.714.72 3.448 2.83 4.41 4.37l-.63.96c-.07-.03-.14-.07-.21-.1-.858-2.12-3.273-2.81-4.2-4.7.207-.18.414-.36.624-.53zm-9.451 1.49c.525.43 1.05.85 1.575 1.28l-.105.21a13.342 13.342 0 0 1-2.73 1.07c-2.985.49-6.4-2.32-7.981.96a2.39 2.39 0 0 0 .42 2.67 2.044 2.044 0 0 0 1.155.11v-.11a2.617 2.617 0 0 1-.525-1.6 1.907 1.907 0 0 1 1.89-1.28c5.328 2.22-1.5 4.11.945 6.64.315-.03.63-.07.945-.1l.631-.54a2.975 2.975 0 0 1-.841-.85v-.75c.175-.18.35-.35.526-.53.279.03.56.07.84.1 1.853 2.55-1.684 5.36-3.466 2.99-2.128-2.82 3.211-3.93.735-5.57a.7.7 0 0 0-.84-.11.554.554 0 0 0-.315.53 1.437 1.437 0 0 1 .84.96 2.085 2.085 0 0 1-1.155 1.28c-3.895 1.14-3.474-4.67-1.47-5.97 2.49-1.62 6.765.98 8.506-.32a.59.59 0 0 1 0-.75c.134-.11.274-.21.414-.32zm26.567 0a2.776 2.776 0 0 1 1.155 1.6c1.813 3.79-.572 6.55-3.99 7.18-5.453 1-5.358-5.31-2.1-3.76.385.35.77.71 1.155 1.06l.525-.42a2.508 2.508 0 0 0-4.2-2.03c-2.355 1.81-1.122 5.83-3.675 7.39h-.109c-.085-1.47.477-1.91.735-3.2.7-3.48.826-5.17 4.1-5.9 3.355-.74 5.966 3.84 3.15 5.12a1.98 1.98 0 0 1-1.575.22 1.461 1.461 0 0 0-.525-1.28 1.042 1.042 0 0 0-.945.74c.57 3.66 10.968-.45 5.67-5.97zm-8.506.32c.385.11.771.21 1.156.32l-.841.96c-2.638 1.06-3.922 2.82-5.145 5.34-.07-.04-.14-.07-.21-.11l-.42-.75c.748-3.5 3.566-3.58 5.454-5.76zm11.656.43c2.777-.13 4.619.54 5.356 2.45.9 2.33-.459 4.33-2.73 4.27a2 2 0 0 1-1.366-1.81c.28-.22.561-.43.841-.64v-.32c-.071-.08-.141-.15-.21-.22h-.736a1.23 1.23 0 0 0-.525.54c-1.264 1.74 1.264 1.54 1.576 2.8.852 3.43-2.622 3.51-4.2 2.45a2.9 2.9 0 0 1 .21-2.99c.07-.03.14-.07.21-.1.21.03.42.07.63.1l.63.54c-.035.21-.07.42-.105.64a1.4 1.4 0 0 1-.84.75c.035.1.07.21.105.32a1.3 1.3 0 0 0 1.155.42 1.236 1.236 0 0 0 1.05-.85c.375-1.84-1.429-.9-1.785-2.38-.526-2.19 1.742-4.43 3.256-2.98.21.21.42.42.63.64-.011 1.08-.446 1.55-.315 2.02h.105c1.816-.2 1.921-2.64.84-3.73-1.157-1.17-3.382-.77-5.146-.54l-.315-.96h.21zm-26.672 1.17c4.557-.05 4.855 1.77 5.566 5.68.251 1.39.806 1.93.735 3.42h-.105c-2.518-1.63-1.292-5.58-3.676-7.39a2.688 2.688 0 0 0-4.1.85v1.07a.659.659 0 0 0 .63.53 1.9 1.9 0 0 1 1.575-1.28c3.619 1.2 1.026 4.7-2.73 3.98-3.271-.63-4.915-2-4.41-6.11l1.05.21c-.429 2.68.611 3.77 2.415 4.51 1.985.82 4.3 1.47 4.41-.67a1.111 1.111 0 0 0-.525-.64c-.175-.03-.35-.07-.525-.1l-.525 1.38c-.56-.1-1.12-.21-1.68-.32-1.846-2.38-.27-4.05 1.889-5.12zm8.3.21l.735.75-1.155 2.46c-.454 1.5-.221 1.1-.63 2.48-.07-.04-.14-.07-.21-.11-.736-2.84.015-3.66 1.25-5.58zm.105 2.78c.746.53 1.779.95 1.89 2.05-.14.29-.28.57-.42.86-.07-.04-.14-.07-.21-.11-.641-1.75-1.613-.65-1.27-2.8zm3.15.11c1.657 1.59-.963 4.55-1.365 5.68-.07-.04-.14-.07-.21-.11l-.42-.96c.377-1.88 1.381-2.81 1.985-4.61zm-3.15 2.77c.21.32.42-.83.63-.51l-1.05 2.25c-.55 1.58.02 2.87-.945 3.94v-.21c-1.305-2.46.569-3.97 1.355-5.47zm.315 1.1c.56 1.06 1.12 2.13 1.68 3.2a2.754 2.754 0 0 1-.525 1.49v-.21a7.562 7.562 0 0 1-1.575-3.52zm2.625.1c1.838 1.43-.532 8.63-1.05 9.54-.175-.15-.35-.29-.525-.43a89.947 89.947 0 0 1 1.565-9.11zm-2.94 2.67l.63.96c-.233 1.23-1.178 6.71-2.1 7.4v-.21c-.96-1.82.848-6.95 1.46-8.15zm.21 2.99c.6.78 1.19 3.95 1.785 4.73l-.42.96c-.385-.36-.77-.71-1.155-1.07l-.63-.96c.13-.43.27-3.23.41-3.66zm2.835.11c1.6 1.86-1.438 8.66-2.1 9.96a2.116 2.116 0 0 0-.21-.11c-.455-.93-.91-1.85-1.365-2.78.245-.25.49-.49.735-.74h.105l.63 1.17.315-.21c.479-1.47 1.333-5.71 1.88-7.29zm-3.15 4.41c.245.28.49.56.735.85-.469.69-2.29 2.52-2.835 2.03-.175-.11-.35-.22-.525-.32.865-.86 1.74-1.71 2.615-2.56zm3.465 1.6c1.818.77 3.609 3.16 4.515 4.91h-.21c-.35.03-.7.07-1.05.1a10.729 10.729 0 0 0-3.675-4.05zm-23.522.1c.28.04.56.07.84.11a1.216 1.216 0 0 1 .63.75c-.035.17-.07.35-.105.53a1.282 1.282 0 0 1-1.365.53l.42.75c2.378.1 7.637-2.48 6.2 2.99a2.406 2.406 0 0 1-1.68.75 6.418 6.418 0 0 1-1.261-1.28l-.42.21v.96c1.064 2.03 3.644 1.61 4.831 0 .63-1.07 1.26-2.13 1.89-3.2 4.1-5.38 8.5-1.6 10.816 2.56-.21.28-.42.57-.63.85-.07-.03-.14-.07-.21-.1-.56-.86-1.12-1.71-1.68-2.56-5-7.36-8.34 3.55-11.446 4.8a3.1 3.1 0 0 1-3.991-4.48 2.955 2.955 0 0 1 2-.11l.106 1.17c.069.04.14.07.21.11.21-.14.42-.28.63-.43v-.85c-1.647-2.37-8.07 2.21-6.721-3.31zm41.269 0a2.137 2.137 0 0 1 1.785.75c1.329 5.31-3.69 1.8-5.461 2.24-.42.36-.84.71-1.26 1.07l.105.75c.14.17.28.35.42.53.105-.04.21-.07.315-.11a2.982 2.982 0 0 1 .315-1.17 1.913 1.913 0 0 1 2.205.53 3.221 3.221 0 0 1-4.41 4.06c-2.722-1.11-3.16-4.73-5.46-6.3-1.146-.78-3.541-.36-4.306-1.39v-.1c6.347-1.78 6.225 3.98 9.346 6.29 1.232.92 3.234.72 3.885-.64a1.419 1.419 0 0 0 .105-1.06c-.105-.15-.21-.29-.315-.43-.07.04-.14.07-.21.11a1.487 1.487 0 0 1-1.575 1.28c-2.187-.76-1.628-3.72.21-4.38 1.92-.69 3.015.83 4.621.64a1.069 1.069 0 0 0 .525-.75 1.1 1.1 0 0 1-1.26-.53v-.85zm-17.537 2.03c.315.21.63.43.945.64-.14.14-.28.29-.42.43a14.224 14.224 0 0 1-4.2 5.44c-.175-.28-.35-.57-.525-.85 1.331-1.82 3.176-3.53 4.19-5.66zm-7.876.21l1.05.54c-.21.21-.42.43-.63.64-.684 1.45-2.536 2.92-1.89 5.34-.385-.29-.77-.57-1.155-.86.026-2.76 1.586-3.94 2.615-5.66zm-3.255 2.99c.28.04.56.07.84.11-.14.36-.28.71-.42 1.07-.28.03-.56.07-.84.1v.43c.836 1.1 1.719 3.01 3.99 2.56a10.353 10.353 0 0 1 2.1-.64l.21.96c-4.753 1.63-6.367-.13-7.876-4.05v-.11c.656-.14 1.321-.28 1.986-.43zm14.7 0a20.58 20.58 0 0 1 4.2.43v.11a8.064 8.064 0 0 1-2.415 3.95 7.46 7.46 0 0 1 .945-3.1l-.105-.21c-2.659-.14-4.793.2-5.986 1.81-.105-.11-.21-.21-.315-.32-.175-.11-.35-.21-.525-.32 1.087-1.47 2.389-1.53 4.192-2.35zm-11.971.22c4.719.32 5.435 5.16 4.621 9.71h-.1c-2.368-1.04-4.7-2.14-5.881-4.38.035-.03.07-.07.105-.1 2.064.74 2.973 2.35 5.041 2.88.035-.04.07-.07.105-.11.258-3.29-.43-5.34-2.521-6.51-.56-.21-1.12-.43-1.68-.64.091-.28.196-.57.301-.85zm12.391 1.28h1.05v.21c1.692 4.04-4.078 7.24-6.51 8.22-.035-.04-.07-.07-.105-.11-.335-1.95-.7-4.02 0-5.87.105.11.21.22.315.32.175.07.35.14.525.22a10.841 10.841 0 0 0 0 3.84h.105a6.166 6.166 0 0 0 4.611-6.83zm-5.775.42c1.473.75 2.766 2.92 5.25 2.25l-.525 1.17c-2.7.03-3.864-1.48-5.355-2.67z" transform="translate(-522 -1139.56)"/><path id="Дом_Тату" data-name="Дом Тату" class="cls-3" d="M535.709 1179.55h-.9v-6.44h-4.949l-.209 3.12a6.925 6.925 0 0 1-.358 2.22 2.815 2.815 0 0 1-.713 1.1H528l.12 3.05h1.4v-1.87h4.664v1.87h1.379zm-4.4-5.26h1.98v5.26h-2.972a4.651 4.651 0 0 0 .59-1.36 8.761 8.761 0 0 0 .272-1.96zm4.9 3.67a3.04 3.04 0 0 0 .708 2.08 2.8 2.8 0 0 0 3.917 0 3.044 3.044 0 0 0 .707-2.08v-.11a3.036 3.036 0 0 0-.71-2.08 2.773 2.773 0 0 0-3.917 0 3.048 3.048 0 0 0-.7 2.08v.11zm1.52-.12a2.442 2.442 0 0 1 .274-1.22.924.924 0 0 1 .864-.48.936.936 0 0 1 .873.48 2.38 2.38 0 0 1 .276 1.22v.11a2.42 2.42 0 0 1-.274 1.24 1.042 1.042 0 0 1-1.742 0 2.442 2.442 0 0 1-.271-1.24v-.11zm6.732-2.77h-1.891v5.66h1.53v-3.31h.031l1.28 3.31h1.023l1.311-3.39.032.01v3.38h1.519v-5.66h-1.906l-1.457 3.88h-.033zm22.184-1.96h-5.817v1.18h2.141v6.44h1.531v-6.44h2.151v-1.18zm5.056 7.62a3.667 3.667 0 0 1-.191-.7 4.349 4.349 0 0 1-.06-.74v-2.34a1.78 1.78 0 0 0-.632-1.47 2.487 2.487 0 0 0-1.645-.52 2.748 2.748 0 0 0-1.729.52 1.446 1.446 0 0 0-.621 1.24v.03l1.473.01a.627.627 0 0 1 .2-.5 1.009 1.009 0 0 1 1.2.04.89.89 0 0 1 .214.64v.45h-.84a3.23 3.23 0 0 0-1.867.45 1.5 1.5 0 0 0-.64 1.29 1.635 1.635 0 0 0 .48 1.25 1.889 1.889 0 0 0 1.369.46 1.551 1.551 0 0 0 .916-.27 2.065 2.065 0 0 0 .619-.69 2.74 2.74 0 0 0 .086.44 2.9 2.9 0 0 0 .144.41h1.523zm-3.431-1.19a.6.6 0 0 1-.188-.46.806.806 0 0 1 .25-.59 1.027 1.027 0 0 1 .737-.24h.851v.8a1.042 1.042 0 0 1-.423.46 1.332 1.332 0 0 1-.716.2.748.748 0 0 1-.51-.17zm9.019-4.47h-5.118v1.17h1.78v4.49h1.531v-4.49h1.807v-1.17zm1.948 0H577.6l2 5.66-.177.43a1.27 1.27 0 0 1-.314.47.847.847 0 0 1-.579.18.718.718 0 0 1-.141-.01.669.669 0 0 1-.147-.02l-.177 1.12c.156.04.29.07.4.09a2 2 0 0 0 .358.03 1.664 1.664 0 0 0 1.238-.42 3.053 3.053 0 0 0 .652-1.02l2.293-6.51h-1.64l-1.081 3.6h-.031l-.063-.32z" transform="translate(-522 -1139.56)"/></svg>