<svg id="ico_com" xmlns="http://www.w3.org/2000/svg" width="67" height="67" viewBox="0 0 67 67"><defs><style>.cls-1{fill:#071017}.cls-2{fill:#fc0;fill-rule:evenodd}</style></defs><circle class="cls-1" cx="33.5" cy="33.5" r="33.5"/><path id="_copy" data-name=" copy" class="cls-2" d="M462.714 1174.5a6.977 6.977 0 0 1 0 9.81 13.8 13.8 0 0 1-5.429 3.62 19.977 19.977 0 0 1-7.342 1.33 23.119 23.119 0 0 1-3.927-.35l-1.361-.26-1.129.79c-.48.33-1.01.66-1.592 1l.9-2.15-2.49-1.44a11.839 11.839 0 0 1-3.825-3.39 6.984 6.984 0 0 1-1.361-4.05 7.314 7.314 0 0 1 2.016-4.91 13.787 13.787 0 0 1 5.429-3.62 20.927 20.927 0 0 1 14.683 0 13.8 13.8 0 0 1 5.428 3.62zm-28.429-1.69a10.371 10.371 0 0 0-2.413 6.6 10.105 10.105 0 0 0 1.822 5.75 15.042 15.042 0 0 0 5.006 4.54c-.171.41-.347.79-.526 1.13a6.843 6.843 0 0 1-.642.99c-.248.32-.441.56-.578.74a9.182 9.182 0 0 1-.667.76c-.308.33-.5.54-.59.64l-.1.12c-.051.06-.09.1-.116.13a.616.616 0 0 0-.1.12.837.837 0 0 0-.09.15c-.017.03-.039.07-.064.12a.586.586 0 0 0-.052.16.878.878 0 0 0-.013.16.541.541 0 0 0 .026.17.866.866 0 0 0 .3.54.793.793 0 0 0 .527.21h.077a19.935 19.935 0 0 0 2.207-.42 21.41 21.41 0 0 0 7.136-3.28 26.152 26.152 0 0 0 4.518.41 23.161 23.161 0 0 0 9.074-1.76 16.285 16.285 0 0 0 6.573-4.79 10.219 10.219 0 0 0 0-13.19 16.285 16.285 0 0 0-6.585-4.79 24.271 24.271 0 0 0-18.148 0 16.275 16.275 0 0 0-6.582 4.79zm41.764 18.93a10.023 10.023 0 0 0-.1-11.67 15.148 15.148 0 0 0-5.237-4.56 13.206 13.206 0 0 1-1.13 10.42 17.26 17.26 0 0 1-4.928 5.44 22.655 22.655 0 0 1-6.777 3.31 27.124 27.124 0 0 1-7.932 1.16c-.513 0-1.266-.04-2.259-.11a21.562 21.562 0 0 0 12.116 3.39 26.152 26.152 0 0 0 4.518-.41 21.629 21.629 0 0 0 7.136 3.29c.616.15 1.352.29 2.208.41a.844.844 0 0 0 .565-.18.971.971 0 0 0 .333-.57.479.479 0 0 0 .026-.16 1 1 0 0 0-.013-.17.714.714 0 0 0-.051-.16 4.132 4.132 0 0 0-.064-.12.969.969 0 0 0-.09-.14.77.77 0 0 0-.1-.13c-.025-.03-.064-.07-.115-.13l-.1-.12c-.086-.1-.282-.31-.59-.64a9.236 9.236 0 0 1-.668-.76c-.137-.18-.33-.42-.577-.74a6.76 6.76 0 0 1-.642-.99c-.18-.34-.356-.72-.526-1.13a15.023 15.023 0 0 0 4.997-4.53z" transform="translate(-423 -1151.56)"/></svg>