<svg xmlns="http://www.w3.org/2000/svg" width="1352.566" height="180.438" viewBox="0 0 1352.566 180.438"><defs><style>.cls-1{fill:#071017;fill-rule:evenodd}</style></defs><path class="cls-1" d="M1352.286 77.194a.679.679 0 0 0 .2-.824.83.83 0 0 0-.97-.13c-2.48.51-4.2-.479-5.44-2.61a65.121 65.121 0 0 1-3.12-6.9c-2.48-5.7-6.09-10.375-11.48-13.509 1.27-.559 4.82-.64 5.42-.273 1.81 1.115 3.17-1.335 2.43-2.8a15.461 15.461 0 0 0-3.99-4.939 6.789 6.789 0 0 0-1.51-.869c-1.67-.812-1.56.136-.41-1.294 2.7-3.349 3.24-7.875 2.4-11.966a1.924 1.924 0 0 0-.28-.662 1.739 1.739 0 0 0-.69-.178c-4.17-.247-8.58.934-11.5 4.085-1.25 1.346-.3 1.319-1.34-.221a6.84 6.84 0 0 0-1.08-1.369 15.286 15.286 0 0 0-5.46-3.236c-1.56-.528-3.79 1.171-2.42 2.8.44.536.87 4.069.5 5.4-3.87-4.876-9.02-7.782-15.01-9.416a65.911 65.911 0 0 1-7.28-2.1c-2.29-.916-3.51-2.478-3.37-5.011a.831.831 0 0 0-.26-.94.668.668 0 0 0-.79.319c-7.44 7.486-13.55 15.747-14.06 26.762-.39 8.209 3.06 14.75 9.58 19.745a19.876 19.876 0 0 0 9.69 3.874 12.857 12.857 0 0 1 6.28 2.482 12.931 12.931 0 0 1 3.35 5.852 20.02 20.02 0 0 0 5.22 9.043c5.88 5.733 12.85 8.213 20.92 6.652 10.83-2.09 18.12-9.322 24.47-17.756zm-13.93-6.563a10.8 10.8 0 0 1 1.3 6.957 4.206 4.206 0 0 1-.91 2.178 2.386 2.386 0 0 1-1.3.831 1.25 1.25 0 0 1-1.38-.572 1.344 1.344 0 0 1 .08-1.474 23.156 23.156 0 0 0 1.42-2.243 6.53 6.53 0 0 0 .42-5.378 7.467 7.467 0 0 0-1.39-2.335l-.18-.224a7.069 7.069 0 0 1 1.94 2.261zm-6.03-5.473a9.572 9.572 0 0 1 3.36 5.825 3.429 3.429 0 0 1-.32 2.408 1.752 1.752 0 0 1-1 .868 1.059 1.059 0 0 1-1.15-.334 1.139 1.139 0 0 1-.21-1.265 8.73 8.73 0 0 0 .63-3.423 5.723 5.723 0 0 0-2.79-4.856c-.15-.107-.31-.2-.47-.3a5.621 5.621 0 0 1 1.95 1.074zm-7.52-3.268a7.448 7.448 0 0 1 4.59 2.932 2.577 2.577 0 0 1 .63 2.046 1.6 1.6 0 0 1-.22.589.919.919 0 0 1-.96.42.948.948 0 0 1-.73-.822 12.942 12.942 0 0 0-.46-1.966 4.652 4.652 0 0 0-4.34-3.217l-.11-.008v-.1a12.647 12.647 0 0 1 1.6.123zm-4.72.14a6.417 6.417 0 0 1 3.09 1.337 2.127 2.127 0 0 1 .89 1.6.844.844 0 0 1-.65.928.9.9 0 0 1-.96-.6 8.711 8.711 0 0 0-.83-1.453 3.867 3.867 0 0 0-3.86-1.584l-.38.045a4.706 4.706 0 0 1 2.7-.274zm10.68-30.159a1.553 1.553 0 0 1 2.35 1.338 1.552 1.552 0 0 1 1.66 2.135 3.2 3.2 0 0 1-1.06 1.357 4.64 4.64 0 0 1-4.11.567 4.629 4.629 0 0 1-.03-4.151 3.148 3.148 0 0 1 1.19-1.246zm-2.65 3.357a4.85 4.85 0 0 1 1.14 2.437 4.88 4.88 0 0 1 2.58.78 3.292 3.292 0 0 1 .68 1.208 3.054 3.054 0 0 1-1.29.484 6.955 6.955 0 0 1-4.7-4.063 3.085 3.085 0 0 1 .3-1.349 3.237 3.237 0 0 1 1.29.5zm-1.46 5.45a3.672 3.672 0 0 1-.95-2.089 1.034 1.034 0 0 1 .37-.769.935.935 0 0 1 .88.141 15.626 15.626 0 0 1 .81 1.434 16.077 16.077 0 0 1 1.53.587.979.979 0 0 1 .27.857 1.042 1.042 0 0 1-.71.473 3.691 3.691 0 0 1-2.2-.634zm.78 2.17a2.772 2.772 0 0 1-1.12.354 4.223 4.223 0 0 1-1.39-.529 4.051 4.051 0 0 1-.73-1.3 2.9 2.9 0 0 1 .19-1.153 2.627 2.627 0 0 1 1.04.482 3.255 3.255 0 0 1 .47.858 3.167 3.167 0 0 1 .91.336 2.729 2.729 0 0 1 .63.956zm-20.98 7.384a4.644 4.644 0 0 1 .12 2.713c-.01-.127-.01-.254-.01-.384a3.875 3.875 0 0 0-2.12-3.589 8.936 8.936 0 0 0-1.56-.619.888.888 0 0 1-.73-.864.842.842 0 0 1 .82-.775 2.1 2.1 0 0 1 1.71.66 6.282 6.282 0 0 1 1.77 2.858zm-.54-4.694a13.61 13.61 0 0 1 .36 1.567.935.935 0 0 0-.1.021.458.458 0 0 1-.02-.114 4.677 4.677 0 0 0-3.81-3.836 13.643 13.643 0 0 0-2.01-.165.967.967 0 0 1-.92-.608.909.909 0 0 1 .28-1.011 1.832 1.832 0 0 1 .55-.3 2.613 2.613 0 0 1 2.12.332 7.419 7.419 0 0 1 3.55 4.12zm-2.96-5.2c-.12-.138-.24-.284-.36-.419a5.737 5.737 0 0 0-5.21-2.064 8.848 8.848 0 0 0-3.3 1.112 1.141 1.141 0 0 1-1.28-.022 1.067 1.067 0 0 1-.5-1.089 1.754 1.754 0 0 1 .72-1.121 3.492 3.492 0 0 1 2.34-.667 9.623 9.623 0 0 1 6.25 2.495 6.029 6.029 0 0 1 1.34 1.775zm-14.7-7.242a10.8 10.8 0 0 1 7.07.287 7 7 0 0 1 2.52 1.6c-.08-.045-.17-.1-.25-.147a7.584 7.584 0 0 0-2.51-1.045 6.508 6.508 0 0 0-5.26 1.193 22.47 22.47 0 0 0-2.02 1.725 1.34 1.34 0 0 1-1.45.286 1.233 1.233 0 0 1-.76-1.279 2.336 2.336 0 0 1 .64-1.405 4.143 4.143 0 0 1 2.02-1.211zm-6.71 2.117a7.7 7.7 0 0 1 3.66-3.308 4.621 4.621 0 0 1 2.13-.436 1.378 1.378 0 0 1-.14.032 4.743 4.743 0 0 0-3.46 2.574 6.836 6.836 0 0 0-.64 3.082.906.906 0 0 1-1.35.885 1.513 1.513 0 0 1-.54-.719 2.477 2.477 0 0 1 .34-2.111zm-2.24 13.04a3.833 3.833 0 0 1-2.88-3.949c.12-2.094 1.65-3.794 4.17-4.593.51-.16 1.05-.25 1.55-.364a28.846 28.846 0 0 0-3.22 1.656 3.665 3.665 0 0 0-1.6 4.4 2.926 2.926 0 0 0 2.57 2.166 2.836 2.836 0 0 0 2.85-1.486 2.144 2.144 0 0 0-1.5-3.236 1.549 1.549 0 0 0-1.13.2 2.46 2.46 0 0 0-.75 1.359 1.255 1.255 0 0 0 .7 1.006 4.408 4.408 0 0 0 1.61-.321 1.138 1.138 0 0 1-1.52.9 1.621 1.621 0 0 1-1.32-1.889 2.134 2.134 0 0 1 2.3-1.793 2.779 2.779 0 0 1 2.29 3.916 3.722 3.722 0 0 1-4.12 2.034zm3.47 7.862a2.124 2.124 0 0 1-.59-3.725 2.51 2.51 0 0 1 1.61-.353 1.066 1.066 0 0 1 .92 1.281 1 1 0 0 1-.99.979 3.482 3.482 0 0 0 .52-1.153.911.911 0 0 0-.65-.66 2.123 2.123 0 0 0-1.28.507 1.332 1.332 0 0 0-.13 1.772 1.736 1.736 0 0 0 2.01.684 2.287 2.287 0 0 0 1.68-1.845 2.261 2.261 0 0 0-.95-2.3 3 3 0 0 0-3.81.094 24.112 24.112 0 0 0-2.19 2.244c.82-3.247 4.22-4.74 6.52-3.062a3.127 3.127 0 0 1 .96 4.047 2.935 2.935 0 0 1-3.63 1.493zm2.69-16.011c.24-1.348.8-1.771 2.08-1.466a22.642 22.642 0 0 1 10.12 4.923 10.662 10.662 0 0 1 3.77 6.242c.75 3.6-.23 6.923-1.79 10.128a.921.921 0 0 1-1.63.172c-2.75-2.593-5.99-4.582-8.66-7.309a13.715 13.715 0 0 1-3.89-12.69zm2.99 22.354a3.159 3.159 0 0 1-3.1-1.972 3.206 3.206 0 0 1 .92-3.581 4.289 4.289 0 0 1 5.67.212 5.316 5.316 0 0 0-3.53-.334 5.244 5.244 0 0 0-2.02 1.249 1.969 1.969 0 0 0-.2 2.424 2.215 2.215 0 0 0 2.15 1.189 1.609 1.609 0 0 0 1.69-1.686 1.567 1.567 0 0 0-1.95-1.4 3.962 3.962 0 0 0-.46.165c.96-1.056 1.88-1.078 2.6-.192a2.2 2.2 0 0 1 .41 2.356 2.434 2.434 0 0 1-2.18 1.574zm5.73 2.984a2.52 2.52 0 0 1-2.13-2.637 1.849 1.849 0 0 1 2.95-1.437 2.121 2.121 0 0 1 .68 1.251.932.932 0 0 1-.84 1.089.856.856 0 0 1-1.05-.577 3.135 3.135 0 0 0 1.09.14.848.848 0 0 0 .39-.7 1.841 1.841 0 0 0-.74-.936 1.139 1.139 0 0 0-1.5.334 1.513 1.513 0 0 0-.08 1.847 1.963 1.963 0 0 0 1.94.929 1.989 1.989 0 0 0 1.68-1.367 2.6 2.6 0 0 0-1.01-3.147 19.359 19.359 0 0 0-2.4-1.251c2.9-.142 4.97 2.308 4.13 4.638a2.722 2.722 0 0 1-3.11 1.826zm11.05-6.689a1.836 1.836 0 0 1 .08-.227 3.087 3.087 0 0 0 .05-2.1 4.22 4.22 0 0 0-1.63-2.061.65.65 0 0 1 .53-1.184 1.474 1.474 0 0 1 .92.681 4.833 4.833 0 0 1 .67 3.15 4.009 4.009 0 0 1-.61 1.829.162.162 0 0 1-.01-.091zm13.11-7.929a9.293 9.293 0 0 1-1.45 1.124 9.128 9.128 0 0 1 .9-1.6 6.316 6.316 0 0 1 2.14-1.919 6.381 6.381 0 0 1-1.59 2.392zm4.05.407a1.068 1.068 0 0 1 1.35-.729c-.2.149-.28.2-.36.266a1.115 1.115 0 1 0 1.32 1.793 1.547 1.547 0 0 0 .74-1.746 1.412 1.412 0 0 0-1.41-1.23 6.183 6.183 0 0 0-2.12.62 5.97 5.97 0 0 0-1.2 1.122c.24-.547.4-.9.55-1.245a.036.036 0 0 1-.02.021 7.607 7.607 0 0 1-4.16 2.352c.39-.22.6-.349.81-.453a7.423 7.423 0 0 0 4.3-6.172 7.4 7.4 0 0 0-5.5 5.134c-.07.223-.17.444-.33.863a7.5 7.5 0 0 1 1.73-4.449h-.01l.01-.006c0-.011.01-.017.01-.029-.32.2-.64.408-1.15.73a5.711 5.711 0 0 0 .94-1.35 6.1 6.1 0 0 0 .31-2.189 1.414 1.414 0 0 0-1.42-1.219 1.543 1.543 0 0 0-1.62.987 1.1 1.1 0 0 0 .38 1.544 1.123 1.123 0 0 0 1.58-.5c.06-.087.09-.178.21-.4a1.054 1.054 0 0 1-.53 1.436 1.532 1.532 0 0 1-1.91-.388 1.971 1.971 0 0 1 1.11-3.137 2.2 2.2 0 0 1 2.36.7 2.76 2.76 0 0 1 .18 3.014c-.14.254-.29.506-.44.76.01 0 .01-.006.01-.006s-.01.021-.02.032a9.982 9.982 0 0 1 4.79-2.352 10.077 10.077 0 0 1-1.64 5.078.32.32 0 0 1 .03-.024.018.018 0 0 0-.01.006c.23-.18.46-.363.69-.541a2.755 2.755 0 0 1 3.01-.25 2.179 2.179 0 0 1 1.03 2.228 1.967 1.967 0 0 1-2.94 1.551 1.549 1.549 0 0 1-.66-1.838zm-8.29 12.763a3.067 3.067 0 0 0-2.06.356c-.08.036-.15.074-.22.109a.187.187 0 0 1-.09 0 4.03 4.03 0 0 1 1.73-.867 4.784 4.784 0 0 1 3.21.213 1.5 1.5 0 0 1 .81.808.671.671 0 0 1-.25.878.657.657 0 0 1-.85-.182 4.268 4.268 0 0 0-2.28-1.318zm-6.72 11.556a1.948 1.948 0 0 0 1.19 1.785 1.516 1.516 0 0 0 1.82-.34 1.15 1.15 0 0 0 .12-1.536 1.835 1.835 0 0 0-1.04-.592.818.818 0 0 0-.64.485 3.087 3.087 0 0 0 .3 1.051.854.854 0 0 1-.72-.956.934.934 0 0 1 .95-.987 2.159 2.159 0 0 1 1.34.5 1.848 1.848 0 0 1-1 3.122 2.514 2.514 0 0 1-2.91-1.726 2.722 2.722 0 0 1 1.36-3.348c2.18-1.159 4.9.54 5.18 3.425a19.713 19.713 0 0 0-1.58-2.2 2.6 2.6 0 0 0-3.26-.545 1.973 1.973 0 0 0-1.11 1.856zm5.58 8.833a3.149 3.149 0 0 1-2.4-2.782 2.442 2.442 0 0 1 1.24-2.388 2.2 2.2 0 0 1 2.39.067c.98.583 1.1 1.5.18 2.6a2.216 2.216 0 0 0 .1-.483 1.559 1.559 0 0 0-1.66-1.723 1.607 1.607 0 0 0-1.43 1.91 2.212 2.212 0 0 0 1.48 1.958 1.985 1.985 0 0 0 2.38-.539 5.367 5.367 0 0 0 .94-2.178 5.285 5.285 0 0 0-.84-3.453 4.3 4.3 0 0 1 1.03 5.584 3.213 3.213 0 0 1-3.41 1.425zm-1.44-12.586a.925.925 0 0 1-.07-1.641c2.96-2 6.11-3.448 9.77-3.216a10.648 10.648 0 0 1 6.72 2.83 22.641 22.641 0 0 1 6.32 9.312c.49 1.227.15 1.844-1.15 2.27a13.719 13.719 0 0 1-13.12-2.034c-3.08-2.247-5.51-5.171-8.47-7.521zm9.13 17.964a23.773 23.773 0 0 0 1.91-2.487 2.991 2.991 0 0 0-.46-3.785 2.261 2.261 0 0 0-2.41-.608 2.288 2.288 0 0 0-1.58 1.927 1.722 1.722 0 0 0 .96 1.891 1.331 1.331 0 0 0 1.74-.387 2.123 2.123 0 0 0 .32-1.337.935.935 0 0 0-.75-.547 3.612 3.612 0 0 0-1.07.68 1 1 0 0 1 .83-1.121 1.072 1.072 0 0 1 1.4.725 2.561 2.561 0 0 1-.12 1.646 2.119 2.119 0 0 1-3.77-.052 2.942 2.942 0 0 1 .96-3.806 3.127 3.127 0 0 1 4.14.376c1.99 2.027 1 5.608-2.1 6.884zm9.6 1.141a3.835 3.835 0 0 1-4.32-2.287 3.718 3.718 0 0 1 1.42-4.366 2.771 2.771 0 0 1 4.2 1.7 2.129 2.129 0 0 1-1.43 2.535 1.633 1.633 0 0 1-2.07-1.038 1.144 1.144 0 0 1 .67-1.631 4.67 4.67 0 0 0-.08 1.643 1.228 1.228 0 0 0 1.09.549 2.436 2.436 0 0 0 1.24-.942 1.484 1.484 0 0 0 .03-1.139 2.136 2.136 0 0 0-3.41-1.025 2.847 2.847 0 0 0-1.07 3.033 2.954 2.954 0 0 0 2.52 2.238 3.678 3.678 0 0 0 4.12-2.214 29.322 29.322 0 0 0 1.18-3.426c-.05.509-.05 1.05-.14 1.584-.43 2.607-1.89 4.367-3.95 4.786zm8.26-6.372a2.471 2.471 0 0 1-2.03.642 1.522 1.522 0 0 1-.8-.433.91.91 0 0 1 .68-1.464 6.865 6.865 0 0 0 2.97-1.074 4.769 4.769 0 0 0 2.05-3.8.682.682 0 0 1 .01-.142 4.572 4.572 0 0 1-.13 2.172 7.633 7.633 0 0 1-2.75 4.1zm-1106.3-35.585a.666.666 0 0 0-.648-.547.828.828 0 0 0-.55.808c-.653 2.449-2.307 3.546-4.765 3.7a67.217 67.217 0 0 1-7.573-.291c-6.2-.332-12 .809-17.21 4.226.063-1.377 1.58-4.6 2.176-4.966 1.8-1.119.223-3.434-1.424-3.424a15.419 15.419 0 0 0-6.2 1.358 6.918 6.918 0 0 0-1.453.964c-1.475 1.135-.577 1.46-1.34-.213-1.79-3.91-5.6-6.414-9.634-7.489a1.826 1.826 0 0 0-.715-.05 1.769 1.769 0 0 0-.47.542c-2.084 3.619-3 8.086-1.484 12.112.644 1.722 1.047.856-.8 1.1a6.857 6.857 0 0 0-1.7.349 15.408 15.408 0 0 0-5.335 3.438c-1.169 1.161-.647 3.916 1.424 3.424.679-.16 4.032 1.034 5.052 1.961-6.092 1.283-10.992 4.591-15.132 9.223a66.418 66.418 0 0 1-5.134 5.574c-1.839 1.632-3.785 2.031-5.985.769a.826.826 0 0 0-.961-.181.66.66 0 0 0-.065.844c3.374 10 8.033 19.158 17.656 24.542 7.17 4.016 14.566 3.85 21.945.252a19.912 19.912 0 0 0 7.8-6.944 10.206 10.206 0 0 1 11.758-4.889 19.953 19.953 0 0 0 10.423-.633c7.755-2.695 13.087-7.822 15.3-15.737 2.969-10.621-.24-20.383-4.95-29.826zm-12.095 9.528a10.831 10.831 0 0 1 6.8 1.948 4.2 4.2 0 0 1 1.543 1.785 2.364 2.364 0 0 1 .162 1.534 1.242 1.242 0 0 1-1.127.977 1.344 1.344 0 0 1-1.284-.728 22.922 22.922 0 0 0-1.373-2.271 6.508 6.508 0 0 0-4.621-2.784 7.584 7.584 0 0 0-2.712.2c-.1.024-.188.045-.282.062a7.015 7.015 0 0 1 2.891-.727zm-7.59 2.948a9.6 9.6 0 0 1 6.713-.406 3.457 3.457 0 0 1 2.009 1.367 1.741 1.741 0 0 1 .328 1.286 1.057 1.057 0 0 1-.811.876 1.146 1.146 0 0 1-1.226-.376 8.741 8.741 0 0 0-2.782-2.092 5.721 5.721 0 0 0-5.587.32c-.164.09-.316.191-.475.286a5.745 5.745 0 0 1 1.831-1.261zm-6.283 5.264a7.441 7.441 0 0 1 4.673-2.794 2.6 2.6 0 0 1 2.112.349 1.8 1.8 0 0 1 .428.462.922.922 0 0 1-.053 1.048.96.96 0 0 1-1.063.289 13.314 13.314 0 0 0-1.962-.472 4.66 4.66 0 0 0-4.817 2.444l-.06.1c-.027-.018-.055-.032-.083-.05a12.665 12.665 0 0 1 .825-1.376zm-1.986 4.29a6.388 6.388 0 0 1 2.576-2.164 2.131 2.131 0 0 1 1.834-.085.846.846 0 0 1 .54 1 .9.9 0 0 1-.967.589 8.983 8.983 0 0 0-1.673.1 3.86 3.86 0 0 0-3.14 2.742l-.129.359a4.692 4.692 0 0 1 .959-2.534zm-22.208-23.03a1.552 1.552 0 0 1 2.247-1.506 1.552 1.552 0 0 1 2.652-.531 3.212 3.212 0 0 1 .74 1.556 4.646 4.646 0 0 1-1.331 3.933 4.637 4.637 0 0 1-3.726-1.83 3.155 3.155 0 0 1-.582-1.622zm1.819 3.869a4.9 4.9 0 0 1 2.691.067 4.855 4.855 0 0 1 1.848-1.955 3.307 3.307 0 0 1 1.386-.072 3.067 3.067 0 0 1-.145 1.373 6.957 6.957 0 0 1-5.732 2.383 3.077 3.077 0 0 1-1.076-.866 3.289 3.289 0 0 1 1.028-.932zm4.221 3.747a3.7 3.7 0 0 1-2.291-.089 1.009 1.009 0 0 1-.524-.671.947.947 0 0 1 .522-.73 15.5 15.5 0 0 1 1.641-.076 15.693 15.693 0 0 1 1.21-1.109.946.946 0 0 1 .886.144 1.008 1.008 0 0 1 .107.845 3.716 3.716 0 0 1-1.551 1.687zm2.29.272a2.706 2.706 0 0 1-.181 1.155 2.169 2.169 0 0 1-2.586 1.075 2.709 2.709 0 0 1-.946-.686 2.644 2.644 0 0 1 .893-.71 3.223 3.223 0 0 1 .976-.034 3.137 3.137 0 0 1 .708-.667 2.674 2.674 0 0 1 1.136-.134zm-2.767 22.065a4.642 4.642 0 0 1 2.479 1.109c-.115-.054-.231-.108-.347-.165a3.867 3.867 0 0 0-4.158.292 8.8 8.8 0 0 0-1.249 1.117.9.9 0 0 1-1.1.271.85.85 0 0 1-.324-1.085 2.113 2.113 0 0 1 1.356-1.237 6.321 6.321 0 0 1 3.345-.3zm-4.438-1.619a12.862 12.862 0 0 1 1.558.385 1.096 1.096 0 0 0-.024.095l-.113-.029a4.673 4.673 0 0 0-5.134 1.695 13.654 13.654 0 0 0-1.045 1.723.958.958 0 0 1-.954.55.917.917 0 0 1-.78-.7 1.774 1.774 0 0 1-.026-.629 2.6 2.6 0 0 1 1.245-1.744 7.444 7.444 0 0 1 5.277-1.343zm-5.978.333c-.176.044-.358.082-.534.133a5.734 5.734 0 0 0-4.172 3.734 8.767 8.767 0 0 0-.479 3.447 1.143 1.143 0 0 1-.593 1.137 1.058 1.058 0 0 1-1.2-.041 1.754 1.754 0 0 1-.683-1.143 3.485 3.485 0 0 1 .448-2.388 9.612 9.612 0 0 1 5.023-4.473 5.822 5.822 0 0 1 2.186-.406zm-13.044 9.913a10.8 10.8 0 0 1 3.416-6.2 7.007 7.007 0 0 1 2.554-1.537c-.078.054-.162.106-.242.156a7.587 7.587 0 0 0-2.058 1.779 6.51 6.51 0 0 0-1.284 5.24 21.967 21.967 0 0 0 .642 2.575 1.341 1.341 0 0 1-.393 1.425 1.24 1.24 0 0 1-1.484.109 2.365 2.365 0 0 1-.973-1.2 4.2 4.2 0 0 1-.178-2.353zm-1.1 6.949a7.673 7.673 0 0 1-1.324-4.753 4.623 4.623 0 0 1 .562-2.1c-.009.046-.02.093-.034.141a4.746 4.746 0 0 0 .756 4.247 6.872 6.872 0 0 0 2.471 1.951.906.906 0 0 1 .189 1.6 1.531 1.531 0 0 1-.886.166 2.5 2.5 0 0 1-1.734-1.252zm10.665 7.83a3.829 3.829 0 0 1-4.821.814c-1.82-1.043-2.656-3.173-2.245-5.783.086-.532.245-1.051.367-1.55a29.211 29.211 0 0 0 .04 3.625 3.682 3.682 0 0 0 3.22 3.4 2.939 2.939 0 0 0 3.089-1.335 2.839 2.839 0 0 0-.056-3.213 2.143 2.143 0 0 0-3.567-.1 1.528 1.528 0 0 0-.326 1.092 2.455 2.455 0 0 0 .879 1.283 1.242 1.242 0 0 0 1.215-.18 4.464 4.464 0 0 0 .432-1.585 1.142 1.142 0 0 1 .125 1.76 1.623 1.623 0 0 1-2.281.339 2.128 2.128 0 0 1-.575-2.861 2.776 2.776 0 0 1 4.524-.293 3.717 3.717 0 0 1-.02 4.591zm8.585.408a2.12 2.12 0 0 1-3.6-1.135 2.5 2.5 0 0 1 .405-1.6 1.071 1.071 0 0 1 1.556-.249 1 1 0 0 1 .432 1.324 3.563 3.563 0 0 0-.8-.981.928.928 0 0 0-.88.286 2.09 2.09 0 0 0-.117 1.369 1.323 1.323 0 0 0 1.525.912 1.732 1.732 0 0 0 1.511-1.492 2.327 2.327 0 0 0-3.381-2.507 3 3 0 0 0-1.619 3.451 23.052 23.052 0 0 0 1.03 2.96c-2.539-2.184-2.355-5.894.171-7.2a3.128 3.128 0 0 1 4.048.943 2.937 2.937 0 0 1-.285 3.914zm-13.123-9.559c-1.1-.813-1.229-1.5-.382-2.517a22.665 22.665 0 0 1 8.928-6.855 10.657 10.657 0 0 1 7.265-.577c3.556.932 6.09 3.3 8.263 6.124a.922.922 0 0 1-.575 1.535c-3.548 1.3-6.777 3.314-10.407 4.48a13.712 13.712 0 0 1-13.092-2.189zm21.332 7.318a3.151 3.151 0 0 1-3.148 1.889 3.211 3.211 0 0 1-2.791-2.426 4.289 4.289 0 0 1 2.724-4.978 4.667 4.667 0 0 0-1.664 5.38 1.967 1.967 0 0 0 2.081 1.256 2.213 2.213 0 0 0 2.024-1.392 1.607 1.607 0 0 0-.755-2.261 1.563 1.563 0 0 0-2.124 1.112 3.325 3.325 0 0 0-.059.486c-.518-1.326-.124-2.163.99-2.411a2.207 2.207 0 0 1 2.291.687 2.441 2.441 0 0 1 .431 2.658zm5.23-3.792a2.521 2.521 0 0 1-3.309.723 1.848 1.848 0 0 1 .031-3.278 2.153 2.153 0 0 1 1.427-.055.938.938 0 0 1 .6 1.237.855.855 0 0 1-.985.681 3.072 3.072 0 0 0 .609-.906.819.819 0 0 0-.456-.661 1.821 1.821 0 0 0-1.165.238 1.145 1.145 0 0 0-.373 1.494 1.515 1.515 0 0 0 1.619.894 1.957 1.957 0 0 0 1.7-1.32 1.984 1.984 0 0 0-.474-2.111 2.6 2.6 0 0 0-3.264-.506 19.386 19.386 0 0 0-2.191 1.588c1.166-2.653 4.284-3.412 6-1.624a2.73 2.73 0 0 1 .24 3.606zm-1.045-12.878c-.062-.055-.111-.114-.168-.171a3.091 3.091 0 0 0-1.852-.988 4.241 4.241 0 0 0-2.572.54.651.651 0 0 1-.823-1 1.487 1.487 0 0 1 1.02-.517 4.815 4.815 0 0 1 3.117.81 4 4 0 0 1 1.363 1.364.216.216 0 0 1-.085-.033zm-1.24-15.276a9.142 9.142 0 0 1 .357 1.8 9.054 9.054 0 0 1-1.026-1.522 6.325 6.325 0 0 1-.76-2.772 6.414 6.414 0 0 1 1.429 2.494zm2.176-3.447a1.06 1.06 0 0 1-.051-1.529c.044.245.05.343.076.444a1.123 1.123 0 0 0 1.341.967 1.1 1.1 0 0 0 .852-1.345 1.545 1.545 0 0 0-1.229-1.446 1.41 1.41 0 0 0-1.73.712 6.184 6.184 0 0 0-.394 2.175 5.974 5.974 0 0 0 .467 1.577c-.379-.465-.624-.761-.865-1.055 0 .011 0 .02.008.03v.007a7.573 7.573 0 0 1 .247 4.769c-.022-.448-.046-.689-.044-.926a7.4 7.4 0 0 0-3.6-6.6 7.389 7.389 0 0 0 2.139 7.209c.165.167.319.354.621.686a7.573 7.573 0 0 1-3.206-3.538v-.007c-.008-.009-.011-.016-.019-.026.039.378.076.761.138 1.358a5.812 5.812 0 0 0-.788-1.443 6.2 6.2 0 0 0-1.82-1.255 1.409 1.409 0 0 0-1.724.724 1.542 1.542 0 0 0 .159 1.891 1.1 1.1 0 0 0 1.553.345 1.12 1.12 0 0 0 .261-1.633c-.053-.089-.118-.162-.261-.366a1.061 1.061 0 0 1 1.048 1.114 1.544 1.544 0 0 1-1.2 1.542 1.972 1.972 0 0 1-2.308-2.4 2.187 2.187 0 0 1 1.681-1.791 2.753 2.753 0 0 1 2.779 1.182c.164.241.321.489.485.73a.036.036 0 0 1 0-.007.11.11 0 0 1 .018.034 10 10 0 0 1 .038-5.339 9.958 9.958 0 0 1 3.808 3.74c0-.015-.007-.026-.008-.039a.044.044 0 0 1 0 .007 81.418 81.418 0 0 1-.175-.858 2.753 2.753 0 0 1 1.121-2.8 2.192 2.192 0 0 1 2.456.071 1.972 1.972 0 0 1 .071 3.329 1.54 1.54 0 0 1-1.936-.237zm7.713 13.12a3.088 3.088 0 0 0-.6 2.009v.24a.2.2 0 0 1-.038.08 4.008 4.008 0 0 1-.006-1.928 4.785 4.785 0 0 1 1.625-2.777 1.484 1.484 0 0 1 1.084-.362.651.651 0 0 1 .133 1.292 4.269 4.269 0 0 0-2.2 1.447zm7.333 11.182a1.954 1.954 0 0 0 2.131-.272 1.515 1.515 0 0 0 .509-1.778 1.147 1.147 0 0 0-1.323-.79 1.822 1.822 0 0 0-.99.658.819.819 0 0 0 .147.79 3.084 3.084 0 0 0 1.072.207.856.856 0 0 1-1.177.219.94.94 0 0 1-.456-1.3 2.155 2.155 0 0 1 1.045-.972 1.848 1.848 0 0 1 2.347 2.289 2.523 2.523 0 0 1-2.847 1.837 2.732 2.732 0 0 1-2.387-2.714c-.06-2.474 2.676-4.15 5.38-3.106a19.475 19.475 0 0 0-2.671.433 2.6 2.6 0 0 0-1.943 2.672 1.983 1.983 0 0 0 1.163 1.824zm10.4-1.044a3.153 3.153 0 0 1-3.56.9 2.442 2.442 0 0 1-1.58-2.181 2.2 2.2 0 0 1 1.128-2.108c.958-.614 1.832-.3 2.409 1a3.068 3.068 0 0 0-.388-.3 1.565 1.565 0 0 0-2.286.722 1.608 1.608 0 0 0 1.071 2.13 2.219 2.219 0 0 0 2.412-.448 1.977 1.977 0 0 0 .579-2.367 4.675 4.675 0 0 0-4.988-2.614 4.3 4.3 0 0 1 5.452 1.582 3.211 3.211 0 0 1-.249 3.688zm-11.9-4.34a.925.925 0 0 1-1.5-.674c-.466-3.533-.358-7 1.489-10.178a10.639 10.639 0 0 1 5.533-4.745 22.653 22.653 0 0 1 11.156-1.5c1.315.113 1.715.692 1.516 2.046a13.712 13.712 0 0 1-7.681 10.826c-3.386 1.752-7.089 2.623-10.515 4.221zm20.151-.142a22.914 22.914 0 0 0-1.373-2.817 3 3 0 0 0-3.588-1.286 2.327 2.327 0 0 0-.606 4.165 1.727 1.727 0 0 0 2.123-.019 1.323 1.323 0 0 0 .429-1.725 2.111 2.111 0 0 0-1.054-.882.927.927 0 0 0-.823.422 3.592 3.592 0 0 0 .132 1.258 1 1 0 0 1-.634-1.24 1.071 1.071 0 0 1 1.274-.928 2.514 2.514 0 0 1 1.42.841 2.12 2.12 0 0 1-1.732 3.351 2.937 2.937 0 0 1-2.976-2.557 3.126 3.126 0 0 1 2.186-3.535c2.7-.873 5.464 1.612 5.222 4.952zm5.31-8.078a3.831 3.831 0 0 1-3.983 2.849 3.718 3.718 0 0 1-3.27-3.224 2.775 2.775 0 0 1 3.4-3 2.129 2.129 0 0 1 1.625 2.42 1.63 1.63 0 0 1-1.851 1.383 1.14 1.14 0 0 1-1.159-1.33 4.511 4.511 0 0 0 1.431.81 1.236 1.236 0 0 0 .981-.733 2.433 2.433 0 0 0-.29-1.528 1.529 1.529 0 0 0-1-.54 2.144 2.144 0 0 0-2.444 2.6 2.845 2.845 0 0 0 2.239 2.306 2.943 2.943 0 0 0 3.124-1.248 3.684 3.684 0 0 0-.138-4.678 29.4 29.4 0 0 0-2.538-2.587c.436.268.915.517 1.354.835 2.14 1.55 3.062 3.644 2.518 5.67zm-2.009-10.24a2.478 2.478 0 0 1-.336 2.109 1.5 1.5 0 0 1-.741.515.908.908 0 0 1-1.006-1.262 6.854 6.854 0 0 0 .354-3.128 4.753 4.753 0 0 0-2.48-3.534 1.39 1.39 0 0 1-.123-.073 4.614 4.614 0 0 1 1.887 1.084 7.664 7.664 0 0 1 2.436 4.29zM1106.806-.006c-.15 1.773-1.31 2.456-2.67 2.832-1.88.518-3.79.952-5.7 1.365a29.144 29.144 0 0 0-12.82 5.857 39.969 39.969 0 0 0-7.51 8.153 13.3 13.3 0 0 1-2.69 2.907 13.18 13.18 0 0 1-3.62 1.613c-.46.128-.92.266-1.37.41.85-4.529-4.66-8.211-2.76-12.771-5.73 2.818-8.21 5.03-9.57 9.784-.98 3.405-.42 6.741 1.22 8.714-.2.157-.41.308-.6.472-1.88-2.334-2.55-6.1-1.45-9.907a14.9 14.9 0 0 1 1.92-4.3 6.934 6.934 0 0 1-1.93-5.229c-5.36 5.076-7.34 8.368-7.22 14.08.1 4.306 2.05 7.951 4.75 9.442-.18.218-.35.441-.52.662a10.679 10.679 0 0 0-6.37-3.307c-4.88-.785-7.96 5.607-12.88 4.215 3.46 5.345 5.94 7.542 10.82 8.33a12.724 12.724 0 0 0 2.11.153 2.783 2.783 0 0 1-2.62.573c3.75 6.008 8.15 11.149 14.19 14.722a21.544 21.544 0 0 0 11.46 3.3c6.7-.113 11.46-4.065 15.38-9.518a16.852 16.852 0 0 0 2.07-3.852 11.17 11.17 0 0 1 3.35-5.143c1.41-1.009 3.46-1.363 5.85-1.452a16.665 16.665 0 0 0 4.32-.72c6.42-1.956 11.42-5 13.68-11.3a21.644 21.644 0 0 0 .56-11.912c-1.44-6.864-4.9-12.682-9.38-18.172zm-42.56 56.138a.341.341 0 0 1-.64.235c-.75-1.97-1.56-3.47-3.85-3.338a18.582 18.582 0 0 1-4.43-.085c-3.2-.583-4.58-2.464-3.16-5.564a.34.34 0 0 1 .62.28c-2.34 5.133 3.97 4.709 7.2 4.68 2.47-.026 3.45 1.643 4.26 3.793zm12.86-.168c-.2-.387.44-.623.65-.238 2.24 4.275 3.06-1.534 1.23-1.992-1.5-.371-3.16 1.959-4 2.908a12.878 12.878 0 0 1-3.64 3.258 3.534 3.534 0 0 1-5.13-3.605 2.909 2.909 0 0 1 5.33-1.3.345.345 0 0 1-.56.4c-1.61-2.14-4.26-.677-4.13 1.767a3.021 3.021 0 0 0 2.47 2.5 3.8 3.8 0 0 0 2.77-1.075c1.8-1.384 4.14-5.868 6.84-5.546 3.26.391 1.23 8.749-1.83 2.922zm-7.89-3.2c-6.95 1-13.68-6.011-13.68-6.011s4.75-7.12 11.7-8.118 13.48 4.518 13.48 4.518-4.54 8.617-11.5 9.611zm.97-21.191c-.16 1.685-.7 3.011-1.21 2.969s-.8-1.451-.64-3.135a12.185 12.185 0 0 1 1.28-3.785 12.127 12.127 0 0 1 .57 3.952zm5.56-.325c.64 2.107.64 3.972 0 4.169s-1.68-1.347-2.32-3.455a16.111 16.111 0 0 1-.32-5.187 16.077 16.077 0 0 1 2.64 4.474zm8.85 3.939c-.87.623-3.23-1.187-5.27-4.036s-3.12-7.665-3.12-7.665 4.22 2.566 6.26 5.415 3 5.663 2.13 6.286zm2.74-8.523c-.39.545-2.16-.057-3.94-1.343a15.853 15.853 0 0 1-3.39-3.936 16 16 0 0 1 4.81 1.965c1.78 1.292 2.91 2.77 2.52 3.313zm-1.41-8.312c1.65.392 2.88 1.119 2.76 1.615s-1.55.588-3.2.193a12.309 12.309 0 0 1-3.56-1.808 12.33 12.33 0 0 1 4 0zm8.65 14.875s-3.12-7.953.06-14.219 11.45-8.471 11.45-8.471 4.47 8.631 1.29 14.894-12.8 7.8-12.8 7.8zm18.8-3.439a12.82 12.82 0 0 1-4.26 2.4c-1.16.491-3.91 1.317-4.04 2.855-.15 1.872 5.61 2.969 2.28-.534-.29-.314.14-.85.44-.53 4.53 4.771-4.04 4-3.36.789.57-2.661 5.57-3.428 7.45-4.691a3.768 3.768 0 0 0 1.91-2.276 3.009 3.009 0 0 0-1.57-3.147c-2.28-.91-4.51 1.127-3.01 3.341a.34.34 0 0 1-.55.4 2.909 2.909 0 0 1 2.95-4.624 3.534 3.534 0 0 1 1.76 6.014zm-1.52-16.844a30.728 30.728 0 0 1-1.45 4.5c-.71 2.014.54 3.214 2.03 4.441a.342.342 0 0 1-.43.532c-1.73-1.421-3.11-2.951-2.22-5.251 1.17-3.047 3.42-8.881-2.12-8.324a.342.342 0 0 1-.06-.681c1.26-.126 3.05-.156 3.81 1.11a5.143 5.143 0 0 1 .44 3.678zm-69.49 30.515a11.14 11.14 0 0 1-6.37.751c-4.88-.787-7.36-2.986-10.81-8.33 4.92 1.39 7.99-5 12.87-4.211a12.18 12.18 0 0 1 2.76.781c-1.83 1.206-3.46 2.164-5.4 1.615l-2.62-.742 1.47 2.285c2.54 3.939 4.73 6.479 8.1 7.851zm-13.92-15.761l-1.72-.566 1.67-.712c5.44-2.3 8.95-3.069 13.63-1.081.21.405.43.811.7 1.231a11.52 11.52 0 0 0 3.08 3.33 12.334 12.334 0 0 0-4.09 1.952 13.367 13.367 0 0 0-1.45-.7c-2.7-1.1-5.35.375-7.99 1.267-.85-2.091-1.72-4.019-3.83-4.717zm14.16-2.11c-.2-.089-.39-.167-.58-.249-1.89-3.647-1.72-6.888-.14-12.4 1.52 3.2 5.27 3.26 8.3 4.4a15.185 15.185 0 0 0-1.32 7.014 14.052 14.052 0 0 0 1.46 6.017 13.073 13.073 0 0 0-2.15-.537 5.262 5.262 0 0 0-.62-.068 11.848 11.848 0 0 0-4.95-4.171zM423.184 46.682a5.548 5.548 0 0 1 .6.816c-.364-.173-.824-.2-.913.3a.856.856 0 0 0 .946.9c1.306.029-.071-1.92-.448-2.273-.151-.14-.341.115-.19.257zm.83 1.258c.08.2.1.363-.028.411a.6.6 0 0 1-.8-.409c-.022-.452.512-.157.684-.021a.134.134 0 0 0 .143.019zm6.147.111c.157 1.06-1.8 1.263-2.435.914-.122-.067-.047-.272.077-.2a1.967 1.967 0 0 0 1.713-.09.61.61 0 0 0 .368-.8.655.655 0 0 0-.578-.45c-.352.034-.118.483-.009.613a.111.111 0 0 1-.175.136c-.22-.27-.376-.816.086-.946a.889.889 0 0 1 .957.824zm-26.092-6.363c1.7-.325 2.3-2.319 2-3.783-.421-2.073-2.28-3.195-4.233-3.53a8.312 8.312 0 0 0-4.9.732c1.554.15 2.4 1.51 2.338 3.217a.309.309 0 0 1-.618 0c.055-1.556-.7-2.886-2.437-2.594a.991.991 0 0 1-.4.13 4.719 4.719 0 0 0-2.208 5.232c.079.388-.513.553-.595.163-1.342-6.33 7.627-9.815 12.122-6.091 2.38 1.967 2.236 6.513-1.188 7.169-3.878.739-3.882-6.651.225-5.092.367.137.222.735-.152.594-3.162-1.2-3.178 4.465.046 3.851zm24.222 6.114a1.626 1.626 0 0 1 1.48-2.268.528.528 0 1 1-.04 1.049c-.142 0-.114-.221.026-.219.522 0 .448-.625-.094-.606a1.5 1.5 0 0 0-.835.338 1.448 1.448 0 0 0-.333 1.621c.046.136-.158.221-.2.085zm32.395 37.115a3 3 0 0 0 .27-2.465l.026-.179a2.882 2.882 0 0 0 .335-2.581 6.885 6.885 0 0 0-1.1-2.385 69.942 69.942 0 0 1-3.832-9.381c-.1-.391-.2-.768-.31-1.149a3.083 3.083 0 0 0-.221-.552 2.966 2.966 0 0 0-.131-.561 23.642 23.642 0 0 0-8.43-11.7 25.247 25.247 0 0 0-3.44-2.139 2.851 2.851 0 0 0-.722-.256 3.06 3.06 0 0 0-.637-.4 24.42 24.42 0 0 0-2.236-.864c-.082-2.886-1.881-5.6-3.028-7.053a6.54 6.54 0 0 0-1.1-1.1 4.107 4.107 0 0 0-.234-.158 7.974 7.974 0 0 0-1.308-.66c-1.679-.66-4.774-1.575-7.548-.817a26.384 26.384 0 0 0-1.48-1.889 2.974 2.974 0 0 0-.564-.491 3.04 3.04 0 0 0-.455-.617 25.307 25.307 0 0 0-3.046-2.669 23.638 23.638 0 0 0-13.646-4.664 2.894 2.894 0 0 0-.581.038 3.01 3.01 0 0 0-.591-.052 21.1 21.1 0 0 0-1.092.038 69.855 69.855 0 0 1-10.185-.942 7.17 7.17 0 0 0-2.89-.343 2.929 2.929 0 0 0-2.028 1.031l-.24.112a2.976 2.976 0 0 0-2.263.964c-1.654 1.817-2.2 4.492-1.624 7.954a2.636 2.636 0 0 0 .1.414 3.5 3.5 0 0 0 .053.422c.11.511.24 1.048.4 1.622a2.942 2.942 0 0 0-1.44 1.144 11.973 11.973 0 0 0-1.118 2.286 2.69 2.69 0 0 0-.162.659 2.708 2.708 0 0 0-.254.6 16.171 16.171 0 0 0-.407 7.143 2.672 2.672 0 0 0 .181.619 2.714 2.714 0 0 0 .079.678 18.716 18.716 0 0 0 1.989 4.885 2.957 2.957 0 0 0 .606.744 2.919 2.919 0 0 0 .422.879 30.673 30.673 0 0 0 6.583 6.665l.021.016c.063.047.125.088.19.127.408.259 9.986 6.222 19.288 4.067.076.056.15.1.225.152a3.1 3.1 0 0 0 .419.277l.08.064.015.011a2.908 2.908 0 0 0 .5.386c.054.044.108.084.162.124.632 9.534 9.131 16.972 9.492 17.283.055.051.111.092.213.173a30.77 30.77 0 0 0 8.284 4.355 3.048 3.048 0 0 0 .959.145 2.981 2.981 0 0 0 .89.365 18.908 18.908 0 0 0 5.253.483 2.868 2.868 0 0 0 .674-.119 2.7 2.7 0 0 0 .643-.012 16.132 16.132 0 0 0 6.714-2.462 2.572 2.572 0 0 0 .5-.421 2.711 2.711 0 0 0 .588-.343 12.271 12.271 0 0 0 1.861-1.736 2.92 2.92 0 0 0 .677-1.709 26.39 26.39 0 0 0 1.667-.089 3.754 3.754 0 0 0 .423-.069 3.374 3.374 0 0 0 .429-.025c3.474-.458 5.874-1.761 7.131-3.871zm-23.057-32.292a21.345 21.345 0 0 1 3.67 1.259l-2.2.925c-.261-.8-.907-2.1-1.5-1.229a.849.849 0 0 0 .191 1.283c.467.22.711-.17.779-.564.092.218.177.446.234.632l-5.392 2.263a.756.756 0 0 0-.082-.167c-.436-.584-1.32-.1-1.686.279a3.247 3.247 0 0 1 .081-1.841.161.161 0 0 0-.3-.116 4.2 4.2 0 0 0 .123 2.626l-.605.257c-.486-.635-1.565-1.242-2.018-.354a.743.743 0 0 0 .475 1l-1.889.8a3.575 3.575 0 0 1-.054-.489.16.16 0 0 0 .175.061 1.281 1.281 0 0 0 .74-.893c.1-.467-.52-.517-.805-.369-.536.275-.53 1.11-.387 1.826l-2.268.951 1.8-3.626.624-.254c.048.026.091.068.145.093.819.384 2.1.243 2.218-.837a.861.861 0 0 0-.008-.234l5.552-2.293c.075.776.332 1.6 1 1.092a.835.835 0 0 0 .229-1.272.449.449 0 0 0-.5-.126zm.643 1.366c.013.218-.053.822-.414.544a.6.6 0 0 1 .124-.885c.109-.074.234.033.354.214a.128.128 0 0 0-.064.127zm-5.154 3.334l-1.238.519a1.6 1.6 0 0 1-.148-.269.145.145 0 0 0 .146-.046c.18-.2 1.15-.714 1.24-.2zm-2.483 1.038l-.343.148a.983.983 0 0 0 .078-.383.173.173 0 0 0-.025-.052 2.341 2.341 0 0 1 .29.287zm-.586-.27c0 1.047-1.324.272-.685-.275a.705.705 0 0 1 .837.142.132.132 0 0 0-.152.133zm-2.543.863a.1.1 0 0 0-.043.037c0-.062 0-.126.006-.185a.928.928 0 0 1 .145-.439c.051-.083.452-.274.437-.044a.928.928 0 0 1-.545.631zm1.5-2.72l-.035-.026.435-.185a1.229 1.229 0 0 1-.828.827 1.313 1.313 0 0 1-.872-.127l.918-.378a1.842 1.842 0 0 0 .263.18c.185.093.3-.2.114-.3zm6.743-2.127c.057-.209.312-.759.563-.379a.6.6 0 0 1-.4.8c-.132.032-.213-.109-.273-.319a.134.134 0 0 0 .109-.1zm-.188-.386c-.006-.078-.008-.155-.014-.233l.381-.157a.99.99 0 0 0-.367.391zm-10.155-8.183l-.038.407c-.079.02-.15.039-.226.055a.945.945 0 0 0 .264-.462zm.179-1.836l-.179 1.777a.438.438 0 0 0-.266-.439.84.84 0 0 0-1.15.589c-.289.791.576.8 1.339.638l-.583 5.983a.883.883 0 0 0-.225.061c-1 .427-.761 1.69-.157 2.365.041.044.092.073.135.114l-.065.668-2.945 2.78.251-2.446c.726-.071 1.528-.309 1.635-.9.06-.318-.171-.9-.588-.662a1.272 1.272 0 0 0-.637.964.156.156 0 0 0 .109.149 4.336 4.336 0 0 1-.479.094l.207-2.038a.748.748 0 0 0 1.1.161c.718-.692-.176-1.548-.928-1.825l.07-.654a4.207 4.207 0 0 0 2.549-.645.162.162 0 0 0-.2-.254 3.266 3.266 0 0 1-1.741.61c.26-.465.463-1.45-.221-1.692a.49.49 0 0 0-.184-.029l.6-5.818a5.526 5.526 0 0 1 .674.04c-.358.179-.66.521-.314.9a.841.841 0 0 0 1.281-.187c.663-.815-.767-1.053-1.609-1.077l.245-2.373a21.758 21.758 0 0 1 2.275 3.143zm-.931 2.362c-.219.006-.376-.032-.385-.165a.6.6 0 0 1 .651-.615c.434.132-.018.538-.2.651a.127.127 0 0 0-.062.129zm-.263 7.133a1.748 1.748 0 0 0 .248.2l-.094.99a1.29 1.29 0 0 1-.373-.789 1.224 1.224 0 0 1 .551-1.033l-.045.464-.035-.026c-.143-.149-.395.045-.252.2zm-1.471 1.326c.213-.083.144.358.083.434a.964.964 0 0 1-.378.261c-.056.022-.118.039-.176.058a.082.082 0 0 0 .021-.047.926.926 0 0 1 .45-.707zm-.282-2.163a.708.708 0 0 1 .382.757c-.337.771-1.466-.269-.462-.575a.125.125 0 0 0 .08-.181zm-.15-.106a.123.123 0 0 0-.059-.006.966.966 0 0 0-.34.183l.038-.368a2.889 2.889 0 0 1 .361.191zm-.226-1.531l.138-1.339c.513-.059.3 1.02.166 1.245a.15.15 0 0 0 0 .156 1.54 1.54 0 0 1-.305-.062zm1.927-7.336c.206.066.347.151.311.279a.6.6 0 0 1-.814.373c-.37-.264.188-.5.4-.548a.128.128 0 0 0 .1-.1zm-34.883-4.874c-.477-2.854.033-4.523.9-5.473a1.872 1.872 0 0 0-.249.744c-.149 1.467 1.488 1.379 2.481 1.133.439-.11.334-.812-.11-.7-3.473.864-.458-2.709.539-1.4 1.882 2.454-1.546 4.833-3.559 5.7zm.248 11.252a20.364 20.364 0 0 1-3.074 3.047 13.315 13.315 0 0 1 .336-5.841 10.1 10.1 0 0 1 2.119-.388c2.387-.092 1.44 2.181.619 3.183zm50.731 42.92a20.285 20.285 0 0 1 2.022-3.827c.718-1.073 2.617-2.641 3.228-.33a10.412 10.412 0 0 1 .239 2.141 13.191 13.191 0 0 1-5.489 2.016zm7.774-3.926a9.435 9.435 0 0 1-1.4 1.292c-.274-2.244-.879-4.913-3.623-3.372-1.25.7-2 2.268-2.643 3.472a21.235 21.235 0 0 0-1.192 2.643 15.662 15.662 0 0 1-4.412-.411c3.175-.68 6.122-2.64 5.276-6.137a3.813 3.813 0 0 0-.172-.524 3.345 3.345 0 0 0-.336-.766 1.364 1.364 0 0 0-.369-.4 2.89 2.89 0 0 0-2.186-1.181c-1.555.017-2.131 2.242-1.876 3.446.456 2.153 3.027 2.226 4.245 1.063a4.505 4.505 0 0 1-1.054 1.971 7.35 7.35 0 0 1-5.126 2.092 27.367 27.367 0 0 1-7.454-3.935s-8.395-7.248-8.489-15.987a2.479 2.479 0 0 0-1.237-1.506l-.011.015c-.037-.037-.077-.062-.112-.1s-.082-.055-.128-.079l.011-.015a3.846 3.846 0 0 0-.384-.29v.006a4.146 4.146 0 0 0-.39-.285l-.014.019c-.036-.037-.074-.064-.112-.1s-.079-.053-.128-.079l.015-.019a2.493 2.493 0 0 0-1.8-.744c-8.389 2.45-17.765-3.476-17.765-3.476a27.487 27.487 0 0 1-5.934-5.985 7.369 7.369 0 0 1 .515-5.515 4.508 4.508 0 0 1 1.578-1.583c-.758 1.5.06 3.944 2.251 3.754 1.224-.1 3.188-1.3 2.749-2.794a2.884 2.884 0 0 0-1.759-1.75 1.418 1.418 0 0 0-.494-.235 3.371 3.371 0 0 0-.834-.1 3.827 3.827 0 0 0-.551-.007c-3.594.2-4.61 3.592-4.34 6.829a15.676 15.676 0 0 1-1.674-4.1 21.092 21.092 0 0 0 2.182-1.909c.966-.962 2.249-2.139 2.554-3.539.675-3.069-2.054-2.872-4.279-2.485a9.506 9.506 0 0 1 .826-1.715c3.172-1.136 1.828-3.52 1.828-3.52a22.245 22.245 0 0 1-.367-1.487.054.054 0 0 1 .021 0c1.917-.786 4.074-2.234 4.6-4.357a2.761 2.761 0 0 0-1.292-2.98 4.273 4.273 0 0 1 1.606.16c1.941.733 11.22 1.134 11.22 1.134.395-.02.779-.031 1.158-.035 2.6 2.276 2.012 7.034 4.159 9.671 1.6 1.957 5.136 2.511 6.882.4a4.668 4.668 0 0 0-.345-5.93c-1.781-1.847-3.762-.921-5.027.956a.415.415 0 0 0 .666.493c1.52-2.254 4.014-1.991 4.641.819a3.34 3.34 0 0 1-4.632 3.943c-3.842-1.654-2.926-7.243-5.3-10.34a20.824 20.824 0 0 1 14.625 6.42l-2.183 21.228 5.163-4.875 1.161-11.9c1.983-1.649 5.671-.439 6.973.071a4.328 4.328 0 0 1 .789.411v-.006a4.147 4.147 0 0 1 .625.632c.865 1.1 3.1 4.274 2.092 6.655L426 56.37l-3.165 6.357 19.675-8.257a20.81 20.81 0 0 1 10.4 12.124c-3.654-1.369-8.737 1.127-11.436-2.068a3.338 3.338 0 0 1 2.425-5.576c2.871-.217 3.848 2.093 2.132 4.2-.334.41.334.9.665.493 1.432-1.76 1.739-3.921-.542-5.091a4.679 4.679 0 0 0-5.777 1.4c-1.513 2.284.046 5.51 2.385 6.465 3.149 1.291 7.529-.659 10.462 1.168.1.366.205.737.3 1.123 0 0 3.081 8.76 4.349 10.4a4.237 4.237 0 0 1 .617 1.492 2.749 2.749 0 0 0-3.226-.37c-1.876 1.116-2.637 3.6-2.83 5.662a.051.051 0 0 0 0 .022c-.48.04-.985.072-1.535.081m-14.064 1.7a1.073 1.073 0 0 1-.16-.061c-1.307-.673-1.088-3.486.541-3.5a1.217 1.217 0 0 1 .606.17 2.412 2.412 0 0 0-1.018.5c-1 .829-.636 2.01.031 2.9zm2-2.327c.107.165.2.333.277.477a.022.022 0 0 0 .007.009c.017.057.038.1.056.162a1.372 1.372 0 0 1-1.189 1.847.1.1 0 0 0-.015-.025c-1.987-1.773-.038-3.38.864-2.47zm-43.776-31.5a2.4 2.4 0 0 0 .177-1.116 1.182 1.182 0 0 1 .341.528c.457 1.564-2.169 2.591-3.192 1.538a1.3 1.3 0 0 1-.107-.138c1.042.38 2.276.381 2.781-.813zm-3.259-.243c-.009-.007-.017 0-.027-.01a1.369 1.369 0 0 1 1.423-1.669.983.983 0 0 1 .171.006.014.014 0 0 1 .009 0 5.8 5.8 0 0 1 .538.124c1.132.6.16 2.933-2.114 1.547zm61.34 32.208c.244-2.18 1.521-6.148 4.418-5.064 1.541.577-1 4.5-1.182.923-.023-.456-.726-.35-.705.1.054 1.022.448 2.61 1.807 2.041a1.864 1.864 0 0 0 .638-.451c-.656 1.1-2.106 2.076-4.976 2.45zm-19.472-36.341a.528.528 0 1 1 .992-.343 1.624 1.624 0 0 1-1.74 2.072c-.143 0-.118-.224.023-.215a1.46 1.46 0 0 0 1.454-.79 1.511 1.511 0 0 0 .08-.9c-.137-.527-.759-.412-.606.087.042.133-.159.221-.2.088zm-1.531.017a.887.887 0 0 1 1.067.675c.016.48-.558.49-.877.355a.109.109 0 0 1 .078-.2c.161.066.652.16.582-.187a.656.656 0 0 0-.591-.428.613.613 0 0 0-.663.587 1.985 1.985 0 0 0 .411 1.665c.1.1-.071.233-.172.134-.517-.509-.891-2.441.165-2.6zm1.227 6.249a.856.856 0 0 0 1.133.646c.453-.23.3-.662.022-.96a5.3 5.3 0 0 1 .958.342c.178.1.373-.154.192-.259-.447-.26-2.715-1.007-2.3.231zm.909.388a.6.6 0 0 1-.627-.644c.011-.132.17-.164.389-.148a.125.125 0 0 0 .058.131c.182.125.621.552.18.66zm-16.867 2.52s1.333-7.462-4.169-11.541-15.748-3.224-15.748-3.224.028 6.725 5.53 10.8 14.387 3.965 14.387 3.965zm-5.939-9.153a8.252 8.252 0 0 1 3.039 6.012c-2.757-.293-6.865-1.079-9.723-3.2a10.663 10.663 0 0 1-3.767-5.5c3.118.1 7.67.621 10.452 2.683zm14.227 15.283s2.471 8.542 7.97 12.617 11.942 2.148 11.942 2.148-2.166-10.053-7.665-14.129-12.252-.636-12.252-.636zm9.736 10.235c-2.849-2.112-4.8-5.824-5.889-8.385a8.21 8.21 0 0 1 6.636 1.171c2.786 2.065 4.614 6.278 5.615 9.236a10.616 10.616 0 0 1-6.362-2.022zm-3.842 10.649c-3.1 1.109-6.758-1.14-7.935-4.03-1.464-3.591-.989-7.9-4.844-10.044-.559-.313.035-1.1.588-.793 3.462 1.922 3.665 5.3 4.595 8.746.691 2.558 2.413 5.161 5.362 5.34 1.912.116 4.6-.828 3.4-3.373-.4-.854-2.458-3.269-3.084-.99a2.429 2.429 0 0 0 .275 2.027.5.5 0 0 1-.913.388c-.519-1.125-.8-2.738.282-3.66a2.206 2.206 0 0 1 2.751-.259c2.512 1.886 2.644 5.535-.481 6.649zm17.848-2.606c-.393.032-.406-.583-.015-.617a4.725 4.725 0 0 0 4.367-3.637 1.015 1.015 0 0 1 0-.422c-.223-1.747-1.718-2.082-3.191-1.578a.309.309 0 0 1-.177-.591c1.619-.556 3.161-.147 3.76 1.3a8.325 8.325 0 0 0-.724-4.9c-.888-1.772-2.5-3.224-4.611-3.022-1.486.142-3.219 1.3-3.036 3.017.349 3.263 5.766 1.6 3.7-1.076-.242-.319.284-.632.527-.32 2.686 3.476-4.387 5.62-4.807 1.695-.372-3.464 3.94-4.921 6.514-3.221 4.87 3.223 4.141 12.817-2.308 13.373zm-36.544-15.843c-3.173-3.064-7.157-1.359-11.02-1.713-3.108-.287-6.322-3.129-6.163-6.421.159-3.316 3.691-4.248 6.225-2.39a2.2 2.2 0 0 1 .551 2.7c-.568 1.305-2.191 1.505-3.418 1.336a.5.5 0 0 1 .1-.985 2.451 2.451 0 0 0 2.024-.328c1.994-1.26-.912-2.53-1.846-2.665-2.783-.4-2.9 2.445-2.235 4.239 1.027 2.77 4.015 3.659 6.664 3.577 3.564-.106 6.861-.9 9.7 1.854.456.439-.128 1.239-.588.794zm539.014 88.367a4.944 4.944 0 0 1-3.4 2.8 1.876 1.876 0 0 0-.3-.769 3.539 3.539 0 0 0 .408-.068 3.679 3.679 0 0 0 1.524-.722 5.159 5.159 0 0 0 1.66-4.958c-.08-.436-.19-.833-.293-1.216-.074-.271-.149-.542-.206-.816a6.7 6.7 0 0 1 2.238-6.772 6.356 6.356 0 0 1 6.721-1.294 4.383 4.383 0 0 0 .11 1.261 1.791 1.791 0 0 0-.529.262l-.028.022-.142-.123a4.71 4.71 0 0 0-5.9-.177 4.835 4.835 0 0 0-1.141 5.965 4.663 4.663 0 0 0 .611.856 1.8 1.8 0 0 0-1.074.692 1.829 1.829 0 0 0-.237 1.755 3.986 3.986 0 0 1-.021 3.3zm48.183-38.624a3.866 3.866 0 0 1-1.07 1.328 4.961 4.961 0 0 1-4.54.7 11.765 11.765 0 0 1-1.89-.85c-.16-.082-.31-.163-.47-.243a6.623 6.623 0 0 0-7.1.374 6.351 6.351 0 0 0-3.02 6.148c0 .065.01.129.01.193a4.192 4.192 0 0 1 1.31.408 1.685 1.685 0 0 1 .35-.416.194.194 0 0 0-.01-.024 4.52 4.52 0 0 1 .18-4.964 4.157 4.157 0 0 1 4.77-1.767 6.521 6.521 0 0 1 2.79 2.053 1.849 1.849 0 0 1 .59-.828 1.869 1.869 0 0 1 .38-.228 1.828 1.828 0 0 1 1.75.131c2.4 1.549 3.86.652 4.33.36a9.251 9.251 0 0 0 2.41-2.322 1.811 1.811 0 0 1-.61-.465 3.98 3.98 0 0 1-.16.412zm-30.38 11.813a4.689 4.689 0 0 1-1.622-3.9 7.327 7.327 0 0 1 .24-1.327 1.79 1.79 0 0 1-.721.145c.009.276.021.556.033.842.026.6.052 1.207.088 1.831a1.822 1.822 0 0 1-.688 1.542 1.82 1.82 0 0 1-1.651.313c-.614-.18-1.245-.331-1.911-.5l-.783-.186a1.818 1.818 0 0 1-.4.765c.172-.028.336-.046.491-.064a4.352 4.352 0 0 1 4.707 3.689 4.261 4.261 0 0 1-.271 2.044 1.832 1.832 0 0 1 2.371 1.232c.17.6.42 1.067 1.86 1.16a9.371 9.371 0 0 1 2.75.6 8.674 8.674 0 0 1 .12-2.641c.29-1.453-.05-1.774-.83-2.127a1.857 1.857 0 0 1-1.07-1.49 1.814 1.814 0 0 1 .18-1 3.706 3.706 0 0 1-2.89-.935zm41.18-21.071a1.846 1.846 0 0 1-.75 2.84c-1.87.762-3.19 2.158-4.39 4.685-.17.364-.32.744-.47 1.121a11.856 11.856 0 0 1-1.32 2.653 16.945 16.945 0 0 1-1.18 1.421c.34-.1.69-.2 1.02-.308 1.33-.431 2.45-1.159 2.52-2.925a53.23 53.23 0 0 1 6.43 8.682 1.849 1.849 0 0 0 .22-1.357c.88 1.144.9 1.428.84 2.29-.02.254-.03.573-.04.909.3.594.59 1.2.86 1.815a1.808 1.808 0 0 0 .7-.958 2.868 2.868 0 0 1 0 2.615c.23.6.45 1.222.65 1.842a3.034 3.034 0 0 0 1.16-.662 4.138 4.138 0 0 1-.75 2.052c.04.147.09.3.13.441a21.573 21.573 0 0 1 .03 11.87 18.889 18.889 0 0 1-12.31 12.982 17.775 17.775 0 0 1-4.45.635c-2.37.185-4.39.62-5.74 1.68a11.145 11.145 0 0 0-3.07 5.259 17.436 17.436 0 0 1-1.65 4.179 18.753 18.753 0 0 1-9.24 7.642c.05.037.1.076.15.107-.09-.021-.17-.048-.25-.068a20.752 20.752 0 0 1-17.17-1.283c-1.477.345-2.463.619-2.794.4a2.409 2.409 0 0 0 1.056-1.351 34.428 34.428 0 0 1-1.21-.748c-1.037.083-2.151.373-3.113-.551a1.88 1.88 0 0 0 1.327-.687c-.4-.29-.786-.594-1.169-.9-.57-.119-1.113-.241-1.523-.306-.847-.136-1.12-.23-2.032-1.349a2.025 2.025 0 0 0 1.654.019 52.016 52.016 0 0 1-7.516-8.835 3.05 3.05 0 0 0 3.428-1.759c.113-.184.215-.369.325-.557a11.947 11.947 0 0 1-3.651 1.071c-2.624.372-4.692.874-6.273 2.12a6.98 6.98 0 0 0-1.334 1.4 1.82 1.82 0 0 1-2.31.553 1.839 1.839 0 0 1-.915-2.2 8.3 8.3 0 0 1 2.855-4.117 16.721 16.721 0 0 1 4.262-2.252 5.691 5.691 0 0 1 0-5.32 1.824 1.824 0 0 1 1.74-1.027 1.848 1.848 0 0 1 1.629 1.211 4 4 0 0 0 .629 1.232 1.66 1.66 0 0 0 .3-1.412c-.046-.273-.131-.57-.22-.89-.1-.359-.192-.717-.264-1.079a10.357 10.357 0 0 1 3.389-10.215 11.024 11.024 0 0 1 2.339-1.609 5.365 5.365 0 0 1-4.414-2.266c-.838-1.231-1.382-3.258.772-5.915a7.424 7.424 0 0 1 .554-.6c.108-.109.218-.222.315-.338.2-.247.4-.489.6-.731a16.017 16.017 0 0 0 1.378-1.8.461.461 0 0 0 .087-.254.7.7 0 0 0-.345-.312c-.136-.072-.273-.138-.428-.216l-.322-.156a1.837 1.837 0 0 1-.639-2.765 4.651 4.651 0 0 1 .789-.807 3.963 3.963 0 0 1 2.94-.82 4.852 4.852 0 0 1 .338-1.695 1.821 1.821 0 0 1 1.783-1.18 1.848 1.848 0 0 1 1.689 1.329c.749 2.565 2.47 3.178 5.419 3.9-.043-1.074-.1-2.1-.235-3.089a4.2 4.2 0 0 0-2.061-3.132 1.829 1.829 0 0 1 1.215-3.374 7.364 7.364 0 0 1 .971.217 3.974 3.974 0 0 1 1.312-2.715 4.146 4.146 0 0 1 1.5-.7 1.828 1.828 0 0 1 1.606.311 1.848 1.848 0 0 1 .724 1.47 1.286 1.286 0 0 0 .13.692 1.317 1.317 0 0 0 .71-.065 7.124 7.124 0 0 0 1.31-.547c.35-.182.69-.384 1.03-.582a17.859 17.859 0 0 1 1.9-1.005 4.531 4.531 0 0 1 6.65 4.614 5.915 5.915 0 0 1-.19 1.219 10.643 10.643 0 0 1 2.48-2.2 10.277 10.277 0 0 1 10.74-.568c.18.088.35.178.53.272a9.023 9.023 0 0 0 1.3.6 1.381 1.381 0 0 0 1.13-.07 3.2 3.2 0 0 0-.82-.639 1.916 1.916 0 0 1-.9-1.554 1.878 1.878 0 0 1 1.39-2.042 5.575 5.575 0 0 1 5.07 1.247 16.421 16.421 0 0 1 3.15-3.6 8.348 8.348 0 0 1 4.52-1.809 1.827 1.827 0 0 1 1.77.668zm-57.325 48.662a5.783 5.783 0 0 0 .068-4.735c3 .244 4.364-.4 4.9-2.244a2.236 2.236 0 0 0-1.353-2.9 2.61 2.61 0 0 0 0 .6 1.46 1.46 0 0 1-.938 1.968 1.636 1.636 0 0 1-2.025-.969 3 3 0 0 1 .689-3.638 2.889 2.889 0 0 1 3.582.146 3.772 3.772 0 0 1 1.319 4.019c.391-.374.8-.731 1.219-1.076a9.3 9.3 0 0 0-.12-2.755c.675.346 1.25.672 1.851.942.153.068.308.126.463.183.473-.313.95-.614 1.427-.905a3.149 3.149 0 0 1-2.551-3.285c.14-1.178-.467-1.419-1.249-1.68a8.182 8.182 0 0 0-8.53 1.651 8.515 8.515 0 0 0-2.814 8.494c.133.673.37 1.326.492 2 .3 1.7-.511 3.3-1.774 3.574-1.1.233-1.983-.537-2.68-2.46-1.021 2.12-.276 3.727 1.154 5.346-3.227 1.44-6.923 2.183-8.183 6.106 2.182-3.017 5.441-3.774 8.828-4.254 2.737-.385 4.988-1.481 6.226-4.134zm27.835 21.13a9.02 9.02 0 0 0-1.7-1.1c-2.64-.982-5.27-2.017-7.97-2.77-3.185-.883-6.457-1.448-9.665-2.239a13.568 13.568 0 0 1-6.217-3.086 4.8 4.8 0 0 1-1.716-3.374 1.425 1.425 0 0 0 1.33-.216 1.452 1.452 0 0 0-1.8-2.278 1.425 1.425 0 0 0-.371 1.766 6.906 6.906 0 0 0 2.263 5.209 119.189 119.189 0 0 1 1.047 1.082 2.447 2.447 0 0 1-2.083.169c.911 1.119 1.182 1.209 2.035 1.347.814.131 2.166.478 3.19.6a2.518 2.518 0 0 1-1.831 1.288c1.418 1.359 3.154.1 4.51.718a2.782 2.782 0 0 1-1.242 1.933c.853.566 6.01-2.132 12.816-.925 2.5.4 4.93 1.239 7.4 1.879zm1.17-16.307s-6.74-5.2-13.6-3.926-11.209 8.559-11.209 8.559 7.029 6.685 13.879 5.4 10.93-10.037 10.93-10.037zm5.84-17.832a3.118 3.118 0 0 0-3.32-.15 4.587 4.587 0 0 0-2.27 2.74 6.11 6.11 0 0 0-3.94-3.2.219.219 0 0 1-.04.045c-.03.024-.07.04-.1.061a6.406 6.406 0 0 0 2.16 4.545c-.55.144-1 .229-1.43.384a3.8 3.8 0 0 0-2.56 3.51 1.612 1.612 0 0 0 .9 1.612 1.211 1.211 0 0 0 1.69-.765c.14-.565.26-1.216-.7-1.268a.811.811 0 0 1-.36-.665 4.265 4.265 0 0 1 1-1.584 2.849 2.849 0 0 1 2.85-.385c.71.62 1.37 1.206 2.04 1.8-.97.133-1.79.2-2.58.374a1.109 1.109 0 0 0-.72.576 1.771 1.771 0 0 0 .61 1 1.089 1.089 0 0 0 .9-.159 2.1 2.1 0 0 1 2.48-.184 2.789 2.789 0 0 0-2.83 2.3 2.328 2.328 0 0 0 1.03 2.511 1.648 1.648 0 0 0 2.07-.028 2.005 2.005 0 0 0-.28-.168c-1.11-.449-1.56-1.283-1.16-2.137a1.552 1.552 0 0 1 2.38-.512 8.828 8.828 0 0 1 1.98 1.917 19.067 19.067 0 0 1 1.36 2.491l1.81-1.424c-.4-.28-.61-.427-.81-.575a6.634 6.634 0 0 1-2.84-3.757 1.57 1.57 0 0 1 1.15-2.085 1.538 1.538 0 0 1 1.76 1.475c.02.137.04.278.07.462a1.808 1.808 0 0 0-.13-2.922 3.492 3.492 0 0 0-1.92-.629 2.919 2.919 0 0 0-2.59 2.086 2.4 2.4 0 0 1 .98-2.363c.64-.53.24-.966-.15-1.358-.46-.463-.88-.308-1.13.239-.36.793-.66 1.611-1.04 2.543-.46-.877-.91-1.738-1.38-2.628a3.313 3.313 0 0 1 .06-.836 2.655 2.655 0 0 1 2.52-2.143c.46.031.88.112.75.773a.733.733 0 0 0 .3.559 1.231 1.231 0 0 0 1.72-.33 1.275 1.275 0 0 0-.29-1.75zm-15.7-2.1c.38-.124.74-.267 1.09-.416a5.8 5.8 0 0 0-2.56-.807 6.941 6.941 0 0 1-.8-.088 5.432 5.432 0 0 1 .44 1.967c.6-.231 1.21-.452 1.83-.656zm6.03-4.759c.31-.5.63-.988.96-1.472a5.183 5.183 0 0 1-1.66-.8c-.03.267-.07.546-.13.838a5.272 5.272 0 0 0 .11 2.488c.25-.337.49-.686.72-1.057zm2.15-3.1c.24-.322.49-.634.75-.945a2.269 2.269 0 0 1-1.19-.186 1.788 1.788 0 0 1-1.49-2.166v-.006a1.833 1.833 0 0 1 .63-1.023 1.81 1.81 0 0 1 2-.155 1.376 1.376 0 0 0-.18-1.035 7.46 7.46 0 0 0-2.24-.9l-.3.321c.08-.744.13-1.489.22-2.228.25-2.115-.67-3.753-2.36-4.178a4.13 4.13 0 0 0-4.9 2.322 3.053 3.053 0 0 0-.12 1.135 1.8 1.8 0 0 1 1.51 3.175 1.735 1.735 0 0 1-.65.321l-.04.018c-.03.008-.06 0-.1.008a1.794 1.794 0 0 1-.35.026h-.06a1.775 1.775 0 0 1-1.32-.679c-.02-.025-.04-.055-.06-.083a2.827 2.827 0 0 1-.73-2.082 5.23 5.23 0 0 1 3.2-4.356c1.79-.864 3.61-1.117 5.31.319a.684.684 0 0 0 .62.069c-.3-.805-.61-1.613-.87-2.319a12.28 12.28 0 0 0 .72-2.689c.14-2.548-1.76-3.837-4.09-2.826-.97.425-1.87 1.041-2.82 1.531a9.058 9.058 0 0 1-1.65.687c-1.943.545-3.177-.409-3.171-2.411-1.044.294-1.285.588-1.514 1.992a2.83 2.83 0 0 0 1.307 3.138c2.518 1.4 4.148-.4 5.468-1.657a11.036 11.036 0 0 0 2.36 1.429 1.675 1.675 0 0 0 .92-.718 1.749 1.749 0 0 1-.82-.584 1.8 1.8 0 1 1 2.82-2.227 1.832 1.832 0 0 1 .38 1.082 2.41 2.41 0 0 1-1.23 2.277 12.886 12.886 0 0 1-3.11 1.148c-2.22.563-4.43 1.095-6.123 2.93-1.279-2.3-1.866-5.095-5-5.566a6.009 6.009 0 0 1 2.921 4.453c.25 1.825.246 3.679.369 5.719-3.671-1.089-7.76-1.115-9.121-5.784-.657 1.751.049 2.822 4.135 6.41-2.5 1.436-3.518 3.966-4.782 6.326a7.548 7.548 0 0 1-1.3 1.739 2.328 2.328 0 0 1-2.191.7 1.789 1.789 0 0 1-1.272-.68 1.642 1.642 0 0 1-.1-.159 1.076 1.076 0 0 1-.061-.1 1.445 1.445 0 0 1-.093-.2 1.792 1.792 0 0 0-.035-.088 1.8 1.8 0 1 1 3.49-.74 1.616 1.616 0 0 0 .9-.718 5.41 5.41 0 0 0-1.173-2.415c.528-.346 1.054-.681 1.571-1.039a3.8 3.8 0 0 0 1.818-3.22 2.648 2.648 0 0 0-1.9-2.653c-1.107-.37-2.339-.661-3.341.627.323.165.572.279.813.408a2.128 2.128 0 0 1 .945 3.133 26.125 26.125 0 0 1-2.122 2.722c-.27.332-.6.612-.867.943-1.205 1.483-1.411 2.659-.683 3.733a3.755 3.755 0 0 0 4.147 1.284c.239-.074.483-.162.59-.2.8.567 1.5 1.07 2.211 1.576-1.094-3.071-.063-5.312 2.275-6.966a7 7 0 0 1 3.225-1.044 2.469 2.469 0 0 1 2.4 1.279c.007.009.018.016.025.026a1.8 1.8 0 0 1-.181 2.424c-.029.032-.06.057-.091.086a.216.216 0 0 1-.022.023c-.015.011-.028.027-.043.039a.489.489 0 0 1-.116.06 1.8 1.8 0 0 1-2.526-2.41 2.677 2.677 0 0 0-2.139.212 4.16 4.16 0 0 0-2.4 4.191c.528 3.284 3.356 2.9 5.751 3.33-.5 1-1.034 2.018.061 2.782a1.764 1.764 0 0 0 .989.209 1.8 1.8 0 1 1 3.379.1 3.69 3.69 0 0 1-.17.794c.372-.184.749-.362 1.121-.533a3.636 3.636 0 0 0-2.261-3.939c-1.346-.573-2.741-1.026-4.076-1.61a3.8 3.8 0 0 1-2.538-2.551 3.6 3.6 0 0 1 .5-1.559 3.247 3.247 0 0 1 1.1.963c.934 2.963 3.022 3.738 5.568 2 .136-.092.294-.156.522-.276.512 1.8 1.848 2.387 3.518 2.5a7.946 7.946 0 0 1 4.31 1.661c.19-.12.38-.236.55-.368.14-.119.28-.254.41-.382a7.57 7.57 0 0 1-.5-4.418c.34-1.752.09-3.266-1.88-4.16 1.31-.941 2.19-1.991 1.95-3.607a2.911 2.911 0 0 0-1.73-2.519 3.449 3.449 0 0 1-1.12-1.1 1.024 1.024 0 0 1 .47-.62 2.585 2.585 0 0 1 1.63.4 8.041 8.041 0 0 1 1.46 2.8 39.038 39.038 0 0 1 .59 4.077 3.8 3.8 0 0 0 3.4 3.429zm27.25 9.062c2.84-6.361-2.02-14.755-2.02-14.755s-8.09 2.545-10.94 8.9.64 14.136.64 14.136 9.47-1.921 12.32-8.285zm-4.7-19.25a1.448 1.448 0 1 0 2.31 1.032 4.822 4.822 0 0 1 2.88 2.456 13.641 13.641 0 0 1 1.55 6.767c.02 3.3-.2 6.617-.08 9.915.1 2.809.49 5.608.83 8.4a9.014 9.014 0 0 0 .67 1.909c-.04-2.546-.29-5.106-.09-7.63.42-6.905 4.24-11.288 3.89-12.246a2.768 2.768 0 0 1-2.17.754c-.29-1.46 1.34-2.856.35-4.553a2.52 2.52 0 0 1-1.68 1.482c.12-1.024.1-2.422.17-3.244.06-.859.04-1.146-.84-2.291a2.458 2.458 0 0 1-.65 1.984s-.06-.086-.1-.149c-.18-.3-.52-.824-.71-1.123a6.89 6.89 0 0 0-4.54-3.414 1.415 1.415 0 0 0-1.79-.05zm6-14.355c-4.08.309-5.68 3.643-7.81 6.508-1.24-1.656-2.61-2.9-4.82-2.379a.84.84 0 0 0 .03.245c1.53.929 2.07 1.931 1.59 2.951a2.8 2.8 0 0 1-3.4 1.074 15.74 15.74 0 0 1-2.1-.986 8.427 8.427 0 0 0-8.92.474 8.15 8.15 0 0 0-3.84 7.79c.06.937.1 1.758 1.48 1.894a2.875 2.875 0 0 1 2.41 2.553 3.4 3.4 0 0 1 .07.7q.57-.579 1.17-1.143c-.09-.806-.29-1.631-.43-2.528a6.511 6.511 0 0 0 2.59.694c.41-.313.83-.611 1.25-.894a3.819 3.819 0 0 1-3.46-2.108 2.721 2.721 0 0 1 .1-3.041 2.3 2.3 0 0 1 2.68-1.061 5.064 5.064 0 0 1 2.09 1.631 1.51 1.51 0 0 1-.32 1.443 8.794 8.794 0 0 1-2.33.365 1.871 1.871 0 0 0 2.08 1.7 3.344 3.344 0 0 0 1.26-.179c.22-.12.45-.246.68-.363.84-.632 1.37-1.832 1.64-3.674 2.04 1.319 4.23 1.65 6.28.38a11.139 11.139 0 0 0 3.06-2.974 21.218 21.218 0 0 0 1.63-3.486 10.276 10.276 0 0 1 5.34-5.588zM22.817 17.857a4.945 4.945 0 0 1-3.111-3.117 1.878 1.878 0 0 0 .736-.376 3.461 3.461 0 0 0 .106.4 3.678 3.678 0 0 0 .864 1.447 5.161 5.161 0 0 0 5.094 1.179c.426-.121.811-.269 1.182-.408.263-.1.525-.2.793-.283a6.7 6.7 0 0 1 6.955 1.58 6.354 6.354 0 0 1 1.93 6.566 4.4 4.4 0 0 0-1.245.23 1.8 1.8 0 0 0-.311-.5l-.025-.026.109-.152a4.711 4.711 0 0 0-.388-5.888 4.835 4.835 0 0 0-6.047-.565 4.662 4.662 0 0 0-.794.69 1.8 1.8 0 0 0-.791-1 1.83 1.83 0 0 0-1.769-.068 3.987 3.987 0 0 1-3.287.3zm43.057 44.262a3.723 3.723 0 0 1-1.424-.938 4.949 4.949 0 0 1-1.131-4.448 11.941 11.941 0 0 1 .665-1.965c.068-.162.133-.326.2-.49a6.62 6.62 0 0 0-1.052-7.03 6.346 6.346 0 0 0-6.409-2.416c-.064.007-.127.019-.191.027a4.2 4.2 0 0 1-.281 1.339 1.758 1.758 0 0 1 .448.316c.009-.008.017-.011.023-.017a4.522 4.522 0 0 1 4.958-.3 4.152 4.152 0 0 1 2.216 4.577 6.567 6.567 0 0 1-1.776 2.98 1.807 1.807 0 0 1 .881.507 1.839 1.839 0 0 1 .3 2.106c-1.312 2.541-.28 3.9.057 4.352a9.247 9.247 0 0 0 2.542 2.174 1.817 1.817 0 0 1 .4-.656 3.714 3.714 0 0 1-.426-.122zM51.206 33.01a4.7 4.7 0 0 1 3.725-1.985 7.359 7.359 0 0 1 1.344.113 1.778 1.778 0 0 1-.213-.7c-.274.036-.552.075-.835.113-.594.083-1.2.168-1.815.263a1.824 1.824 0 0 1-1.6-.537 1.823 1.823 0 0 1-.469-1.614c.12-.628.21-1.271.31-1.95l.111-.8a1.82 1.82 0 0 1-.8-.325c.044.169.078.33.111.483a4.351 4.351 0 0 1-3.222 5.038 4.261 4.261 0 0 1-2.061-.074 1.818 1.818 0 0 1 .083 1.329 1.842 1.842 0 0 1-1.082 1.148c-.583.229-1.022.52-.977 1.966a9.3 9.3 0 0 1-.334 2.788 8.792 8.792 0 0 1 2.64-.128c1.474.145 1.762-.218 2.038-1.027a1.836 1.836 0 0 1 1.38-1.213 1.794 1.794 0 0 1 1.019.084 3.718 3.718 0 0 1 .653-2.97zm24.915 38.98a1.831 1.831 0 0 1-2.572-.034 1.754 1.754 0 0 1-.327-.443c-.938-1.792-2.453-2.967-5.082-3.916-.379-.141-.771-.25-1.162-.363a11.621 11.621 0 0 1-2.768-1.066 15.409 15.409 0 0 1-1.526-1.035c.136.329.266.664.4.99a3.059 3.059 0 0 0 3.152 2.222 53.122 53.122 0 0 1-8.026 7.238 1.835 1.835 0 0 0 1.372.085c-1.055.983-1.335 1.036-2.2 1.052a20.2 20.2 0 0 0-.909.049c-.562.359-1.139.7-1.723 1.034a1.8 1.8 0 0 0 1.02.6 2.855 2.855 0 0 1-2.6.251c-.579.29-1.173.561-1.771.82a3.033 3.033 0 0 0 .771 1.1 4.183 4.183 0 0 1-2.114-.553l-.427.167a21.487 21.487 0 0 1-11.813 1.167 18.876 18.876 0 0 1-14.1-11.008 17.78 17.78 0 0 1-1.058-4.372c-.41-2.334-1.037-4.311-2.221-5.548a11.06 11.06 0 0 0-5.531-2.552 17.85 17.85 0 0 1-4.314-1.25 18.759 18.759 0 0 1-8.486-8.462c-.032.052-.066.1-.092.153.013-.083.032-.166.044-.248a20.762 20.762 0 0 1-.366-17.217c-.485-1.437-.852-2.392-.666-2.743a2.419 2.419 0 0 0 1.446.922c.2-.431.411-.858.629-1.276-.182-1.025-.577-2.105.251-3.152a1.876 1.876 0 0 0 .811 1.255c.25-.423.516-.839.78-1.249.064-.579.132-1.132.159-1.545.054-.856.122-1.137 1.148-2.152a2.025 2.025 0 0 0 .14 1.648 51.979 51.979 0 0 1 8.075-8.326 3.049 3.049 0 0 0 2.079 3.244c.194.1.388.179.586.271a11.962 11.962 0 0 1-1.424-3.533c-.621-2.576-1.318-4.587-2.71-6.041a6.987 6.987 0 0 0-1.518-1.194 1.833 1.833 0 0 1 1.328-3.368 8.3 8.3 0 0 1 4.372 2.448 16.713 16.713 0 0 1 2.649 4.027 5.692 5.692 0 0 1 5.3-.5 1.822 1.822 0 0 1 1.189 1.633 1.849 1.849 0 0 1-1.049 1.738 3.993 3.993 0 0 0-1.166.744 1.661 1.661 0 0 0 1.434.166c.267-.072.555-.185.865-.3.349-.129.7-.26 1.049-.367a10.355 10.355 0 0 1 10.492 2.4 11.037 11.037 0 0 1 1.826 2.174 5.365 5.365 0 0 1 1.833-4.611c1.145-.951 3.111-1.687 5.961.2a7.573 7.573 0 0 1 .652.494c.119.1.241.2.366.281.264.173.525.356.786.532a16.018 16.018 0 0 0 1.919 1.2.466.466 0 0 0 .261.063.7.7 0 0 0 .277-.373c.059-.142.112-.285.174-.447l.125-.335a1.838 1.838 0 0 1 2.691-.9 4.679 4.679 0 0 1 .879.708 3.966 3.966 0 0 1 1.1 2.848 4.849 4.849 0 0 1 1.719.175 1.821 1.821 0 0 1 1.345 1.661 1.846 1.846 0 0 1-1.162 1.808c-2.481.992-2.927 2.764-3.363 5.767 1.066-.145 2.082-.3 3.052-.529a4.2 4.2 0 0 0 2.924-2.361 1.829 1.829 0 0 1 3.475.887 7.326 7.326 0 0 1-.123.987 3.971 3.971 0 0 1 2.828 1.046 4.133 4.133 0 0 1 .84 1.428 1.826 1.826 0 0 1-.156 1.628 1.851 1.851 0 0 1-1.394.863 1.213 1.213 0 0 0-.677.194 1.315 1.315 0 0 0 .133.7 6.964 6.964 0 0 0 .669 1.25c.215.333.449.65.679.976a17.274 17.274 0 0 1 1.181 1.791 4.535 4.535 0 0 1-3.955 7.064 6.3 6.3 0 0 1-1.232-.079 10.726 10.726 0 0 1 2.429 2.26 10.287 10.287 0 0 1 1.594 10.642c-.071.181-.144.365-.221.551a9.255 9.255 0 0 0-.473 1.354 1.376 1.376 0 0 0 .177 1.116 3.168 3.168 0 0 0 .558-.874 1.905 1.905 0 0 1 1.461-1.047 1.874 1.874 0 0 1 2.165 1.184 5.558 5.558 0 0 1-.757 5.163 16.461 16.461 0 0 1 3.882 2.8 8.352 8.352 0 0 1 2.232 4.323 1.832 1.832 0 0 1-.5 1.83zM22.199 19.582a5.785 5.785 0 0 0 4.721-.385c.043 3 .816 4.306 2.7 4.666a2.237 2.237 0 0 0 2.758-1.625 2.6 2.6 0 0 0-.6.063 1.46 1.46 0 0 1-2.048-.745 1.637 1.637 0 0 1 .77-2.108 3 3 0 0 1 3.688.338 2.889 2.889 0 0 1 .2 3.58 3.772 3.772 0 0 1-3.875 1.689c.409.354.8.727 1.187 1.11a9.275 9.275 0 0 0 2.731-.383c-.279.706-.549 1.309-.76 1.933-.053.159-.1.319-.138.478.357.441.7.888 1.038 1.334a3.149 3.149 0 0 1 3.026-2.853c1.186.026 1.368-.6 1.553-1.4a8.181 8.181 0 0 0-2.46-8.332 8.513 8.513 0 0 0-8.723-1.989c-.657.2-1.285.5-1.947.681-1.661.465-3.332-.193-3.728-1.423-.337-1.072.345-2.025 2.192-2.9-2.207-.814-3.736.082-5.211 1.66-1.742-3.075-2.835-6.683-6.861-7.562 3.212 1.884 4.277 5.055 5.079 8.381.646 2.688 1.952 4.823 4.71 5.8zM3.829 49.306a8.621 8.621 0 0 0 .935-1.8c.725-2.719 1.5-5.436 2-8.2.574-3.25.824-6.561 1.3-9.83a13.575 13.575 0 0 1 2.476-6.484 4.805 4.805 0 0 1 3.195-2.031 1.426 1.426 0 0 0 .342 1.3 1.452 1.452 0 0 0 2.1-2.006 1.426 1.426 0 0 0-1.794-.2 6.906 6.906 0 0 0-4.977 2.758c-.225.27-.633.745-.861 1.012-.048.057-.117.134-.117.134a2.448 2.448 0 0 1-.367-2.057c-1.027 1.014-1.091 1.293-1.146 2.154-.053.823-.269 2.2-.291 3.233a2.518 2.518 0 0 1-1.458-1.7c-1.217 1.542.2 3.149-.283 4.558a2.786 2.786 0 0 1-2.043-1.052c-.481.9 2.7 5.779 2.147 12.672-.158 2.527-.761 5.026-1.163 7.539zm16.345-.4s4.532-7.203 2.607-13.901-9.593-10.342-9.593-10.342-5.982 7.636-4.05 14.331 11.036 9.917 11.036 9.917zm18.309 4.119a3.112 3.112 0 0 0-.168-3.316 4.57 4.57 0 0 0-2.945-2 6.108 6.108 0 0 0 2.811-4.229c-.014-.014-.033-.023-.049-.04a1.089 1.089 0 0 1-.069-.09 6.383 6.383 0 0 0-4.318 2.588c-.2-.535-.324-.981-.519-1.387a3.793 3.793 0 0 0-3.739-2.212 1.613 1.613 0 0 0-1.519 1.043 1.219 1.219 0 0 0 .924 1.617c.576.081 1.236.14 1.195-.826a.821.821 0 0 1 .628-.417 4.205 4.205 0 0 1 1.673.841 2.863 2.863 0 0 1 .656 2.806c-.55.758-1.071 1.472-1.6 2.2-.226-.956-.37-1.758-.619-2.534a1.087 1.087 0 0 0-.642-.655 1.725 1.725 0 0 0-.938.7 1.084 1.084 0 0 0 .244.879 2.091 2.091 0 0 1 .417 2.445 2.788 2.788 0 0 0-2.562-2.593 2.321 2.321 0 0 0-2.4 1.261 1.655 1.655 0 0 0 .227 2.063 1.919 1.919 0 0 0 .14-.3c.341-1.146 1.128-1.678 2.016-1.362a1.556 1.556 0 0 1 .738 2.324 8.879 8.879 0 0 1-1.718 2.157 18.818 18.818 0 0 1-2.351 1.586l1.591 1.663c.24-.424.367-.643.494-.861a6.667 6.667 0 0 1 3.47-3.179 1.568 1.568 0 0 1 2.184.939 1.541 1.541 0 0 1-1.3 1.9c-.135.036-.274.067-.455.11a1.808 1.808 0 0 0 2.9-.4 3.5 3.5 0 0 0 .441-1.977 2.915 2.915 0 0 0-2.324-2.372 2.384 2.384 0 0 1 2.446.748c.589.587.984.143 1.337-.28a.626.626 0 0 0-.346-1.105c-.823-.277-1.667-.5-2.631-.788.829-.539 1.644-1.071 2.485-1.622a3.442 3.442 0 0 1 .836-.027 2.654 2.654 0 0 1 2.382 2.302c.013.463-.027.884-.7.824a.721.721 0 0 0-.528.344 1.234 1.234 0 0 0 .493 1.684 1.277 1.277 0 0 0 1.715-.454zm.593-15.836c.16.366.337.715.519 1.053a5.8 5.8 0 0 0 .557-2.633 7.151 7.151 0 0 1 .011-.8 5.54 5.54 0 0 1-1.915.629c.288.578.566 1.159.828 1.755zm5.314 5.554c.527.256 1.043.53 1.556.816a5.241 5.241 0 0 1 .634-1.736 8.38 8.38 0 0 1-.846-.043 5.368 5.368 0 0 0-2.467.341c.359.217.73.429 1.122.623zm3.294 1.838c.344.211.679.43 1.013.656a2.291 2.291 0 0 1 .07-1.2 1.79 1.79 0 0 1 2.014-1.69h.006a1.785 1.785 0 0 1 1.424 2.5 1.384 1.384 0 0 0 1.014-.273 7.451 7.451 0 0 0 .681-2.319l-.348-.262c.747 0 1.495-.014 2.238 0 2.129.042 3.671-1.029 3.934-2.745a4.128 4.128 0 0 0-2.78-4.657 3.037 3.037 0 0 0-1.142-.013 1.8 1.8 0 0 1-3.016 1.81 1.737 1.737 0 0 1-.383-.622c0-.011-.016-.022-.021-.034-.01-.033-.006-.063-.017-.1a1.973 1.973 0 0 1-.06-.353v-.06a1.783 1.783 0 0 1 .55-1.381c.022-.021.051-.038.077-.062a2.81 2.81 0 0 1 2-.923 5.215 5.215 0 0 1 4.642 2.772c1.031 1.7 1.458 3.492.191 5.314a.7.7 0 0 0-.009.625c.772-.378 1.547-.758 2.225-1.087a13 13 0 0 0 2.746.466c2.549-.111 3.651-2.122 2.421-4.343-.517-.931-1.215-1.764-1.794-2.663a8.986 8.986 0 0 1-.842-1.576c-.728-1.884.1-3.2 2.1-3.389-.392-1.011-.709-1.223-2.128-1.316a2.831 2.831 0 0 0-3 1.6c-1.151 2.641.8 4.086 2.173 5.281a11.263 11.263 0 0 0-1.2 2.485 1.7 1.7 0 0 0 .8.851 1.8 1.8 0 1 1 2.99 1.723 1.819 1.819 0 0 1-1.041.483 2.422 2.422 0 0 1-2.385-1.012 12.98 12.98 0 0 1-1.44-2.985c-.773-2.156-1.513-4.3-3.5-5.813 2.164-1.493 4.892-2.344 5.061-5.514a6.008 6.008 0 0 1-4.153 3.333c-1.792.424-3.638.6-5.657.915.733-3.758.368-7.831 4.885-9.632-1.806-.486-2.8.319-5.986 4.729-1.669-2.35-4.284-3.122-6.754-4.154a7.494 7.494 0 0 1-1.856-1.129 2.328 2.328 0 0 1-.906-2.114 1.789 1.789 0 0 1 .556-1.331 1.507 1.507 0 0 1 .149-.116c.031-.024.056-.048.091-.07a1.716 1.716 0 0 1 .19-.112.944.944 0 0 0 .084-.043 1.8 1.8 0 1 1 1.071 3.4 1.618 1.618 0 0 0 .8.826 5.41 5.41 0 0 0 2.292-1.4c.394.492.778.983 1.185 1.464a3.8 3.8 0 0 0 3.379 1.5 2.648 2.648 0 0 0 2.459-2.142c.263-1.138.434-2.392-.944-3.266-.133.337-.223.6-.328.849a2.129 2.129 0 0 1-3.029 1.241 26.1 26.1 0 0 1-2.912-1.853c-.357-.236-.668-.539-1.021-.773-1.592-1.057-2.782-1.149-3.781-.323a3.753 3.753 0 0 0-.881 4.251c.1.231.207.466.252.569-.488.85-.921 1.6-1.358 2.351 2.952-1.383 5.281-.57 7.151 1.6a7 7 0 0 1 1.348 3.11 2.471 2.471 0 0 1-1.044 2.517c-.008.008-.014.019-.023.027a1.8 1.8 0 0 1-2.43.052c-.035-.026-.062-.054-.095-.082 0-.005-.016-.011-.024-.02s-.03-.025-.043-.039a.486.486 0 0 1-.072-.11 1.8 1.8 0 0 1 2.163-2.742 2.68 2.68 0 0 0-.416-2.108 4.157 4.157 0 0 0-4.4-1.992c-3.218.839-2.562 3.617-2.765 6.042-1.047-.4-2.107-.836-2.763.328a1.768 1.768 0 0 0-.113 1 1.8 1.8 0 1 1 .222 3.374 3.73 3.73 0 0 1-.806-.093c.218.353.431.711.638 1.069a3.649 3.649 0 0 0 3.703-2.633c.441-1.394.759-2.826 1.212-4.211a3.8 3.8 0 0 1 2.3-2.77 3.6 3.6 0 0 1 1.6.344 3.254 3.254 0 0 1-.853 1.189c-2.86 1.213-3.432 3.365-1.453 5.733.1.127.184.278.325.493-1.745.682-2.2 2.066-2.149 3.736a7.951 7.951 0 0 1-1.24 4.453c.137.177.27.351.419.517.131.127.279.246.419.371a7.528 7.528 0 0 1 4.349-.928c1.777.174 3.261-.215 3.961-2.267 1.063 1.218 2.192 1.99 3.778 1.6a2.928 2.928 0 0 0 2.332-1.96 3.421 3.421 0 0 1 .986-1.22 1.024 1.024 0 0 1 .662.4 2.592 2.592 0 0 1-.242 1.663 8.191 8.191 0 0 1-2.643 1.723 39.472 39.472 0 0 1-4 .979 3.8 3.8 0 0 0-3.089 3.706zm-6.413 27.992c6.6 2.218 14.5-3.417 14.5-3.417s-3.309-7.818-9.91-10.038-14.01 1.99-14.01 1.99 2.818 9.238 9.425 11.465zm18.712-6.523a1.449 1.449 0 0 0-2.093 2 1.426 1.426 0 0 0 1.288.4 4.825 4.825 0 0 1-2.17 3.1 13.564 13.564 0 0 1-6.588 2.188c-3.286.337-6.606.44-9.877.871-2.786.366-5.535 1.025-8.283 1.63a9.05 9.05 0 0 0-1.835.855c2.53-.288 5.054-.78 7.585-.828 6.914-.243 11.642 3.144 12.563 2.706a2.773 2.773 0 0 1-.959-2.091c1.427-.425 2.972 1.065 4.567-.082a2.516 2.516 0 0 1-1.637-1.535c1.031.024 2.421-.13 3.246-.146.861-.019 1.144-.069 2.2-1.052a2.438 2.438 0 0 1-2.037-.455s.079-.065.139-.111c.276-.216.77-.6 1.05-.815a6.907 6.907 0 0 0 2.964-4.84 1.426 1.426 0 0 0-.122-1.8zm14.864 4.607c-.7-4.035-4.17-5.31-7.225-7.154 1.53-1.388 2.636-2.88 1.906-5.026a.618.618 0 0 0-.241.053c-.781 1.613-1.724 2.248-2.781 1.865a2.792 2.792 0 0 1-1.4-3.277 15.1 15.1 0 0 1 .781-2.184 8.432 8.432 0 0 0-1.326-8.836 8.148 8.148 0 0 0-8.119-3.073c-.928.147-1.741.262-1.744 1.652a2.857 2.857 0 0 1-2.311 2.638 4 4 0 0 1-.687.144q.631.514 1.25 1.056c.793-.176 1.6-.447 2.476-.673a6.491 6.491 0 0 0-.443 2.643q.526.567 1.009 1.157A3.812 3.812 0 0 1 57.76 48a2.708 2.708 0 0 1 3.036-.189 2.289 2.289 0 0 1 1.31 2.559 5.11 5.11 0 0 1-1.424 2.238 1.523 1.523 0 0 1-1.467-.184 8.732 8.732 0 0 1-.586-2.279 1.861 1.861 0 0 0-1.5 2.227 3.3 3.3 0 0 0 .3 1.237c.141.216.288.426.427.645.709.774 1.955 1.192 3.814 1.28-1.118 2.16-1.238 4.366.223 6.294a11.159 11.159 0 0 0 3.253 2.759 21.042 21.042 0 0 0 3.626 1.282 10.31 10.31 0 0 1 6.074 4.788zm0 0"/></svg>