<svg id="ico_big_copy" data-name="ico_big copy" xmlns="http://www.w3.org/2000/svg" width="471.063" height="126" viewBox="0 0 471.063 126"><style>.st0{fill:#071017}</style><path class="st0" d="M212.3 45.8c-.3-1-1.3-1.7-2.4-1.4-1 .3-1.7 1.3-1.4 2.4l2.5 10.6c.3 1 1.3 1.7 2.3 1.4 1-.2 1.7-1.3 1.4-2.3l-2.4-10.7z"/><path class="st0" d="M274 36.5c-.2-1-1.3-1.7-2.3-1.4l-8 1.9c-.8-2.1-3.1-3.2-5.3-2.7l-7.6 1.8c-2.2-5-7.7-7.7-13-6.4l-29.6 7.2c-5.3 1.3-9 6.2-8.7 11.7l-4 1-1.7-7.2c-.3-1-1.3-1.7-2.3-1.4l-1.9.5-.9-3.8 1.9-.5c1-.2 1.7-1.3 1.4-2.3l-1-4.3c-.8-3.1-4-5-7.1-4.2-3.1.8-5 3.9-4.3 7l1 4.3c.3 1 1.3 1.7 2.3 1.4l1.9-.5.9 3.8-1.9.5c-1 .2-1.7 1.3-1.4 2.3L185 56l-28.5 6.9c-1 .2-1.7 1.3-1.4 2.3l14.1 59.3c.3 1 1.3 1.7 2.3 1.4l7.6-1.8c1-.2 1.7-1.3 1.4-2.3l-1.3-5.7 19-4.6 1.3 5.7c.3 1 1.3 1.7 2.3 1.4l7.6-1.8c1-.2 1.7-1.3 1.4-2.3L198 60.8l4-1c2.2 5 7.7 7.7 13 6.4l29.6-7.2c5.3-1.3 9-6.2 8.7-11.7l7.6-1.8c2.2-.5 3.7-2.6 3.5-4.8l8-1.9c1.2-.2 1.9-1.3 1.6-2.3zm-90-1.8l-.6-2.5c-.3-1 .4-2.1 1.4-2.4 1-.3 2.1.4 2.4 1.4l.6 2.5-3.8 1zm1.9 25.1l.9 3.8-19 4.6-.9-3.8 19-4.6zm-10.3 23.9c.3 1 1.3 1.7 2.3 1.4l13.3-3.2.9 3.8-19 4.6-4.4-18.3 19-4.6 2.6 10.8-13.3 3.1c-1 .3-1.7 1.3-1.4 2.4zm-3 38l-13.2-55.6 3.8-.9 13.2 55.6-3.8.9zm5.8-9.3L174 94l19-4.6 2.6 10.8-13.3 3.2c-1 .2-1.7 1.3-1.4 2.3.3 1 1.3 1.7 2.3 1.4l13.3-3.2.9 3.8-19 4.7zm28.4 1.1l-3.8.9L186.7 46l3.8-.9 16.3 68.4zM197.3 57l-.9-3.8 3.8-.9.9 3.8-3.8.9zm46.6-1.7l-29.6 7.2c-4 1-7.9-1.5-8.9-5.4l-1.8-7.5c-.9-4 1.5-8 5.5-8.9l29.6-7.2c4-1 7.9 1.5 8.9 5.4l1.8 7.5c.9 4-1.6 8-5.5 8.9zm16.3-13.5l-7.5 1.8-.9-3.8 7.5-1.8c.3-.1.7.1.8.5l.6 2.5c0 .4-.2.7-.5.8z"/><path class="st0" d="M227.1 42.2c-.3-1-1.3-1.7-2.4-1.4-1 .3-1.7 1.3-1.4 2.4l2.5 10.6c.3 1 1.3 1.7 2.4 1.4 1-.3 1.7-1.3 1.4-2.4l-2.5-10.6zm14.8-3.6c-.3-1-1.3-1.7-2.4-1.4s-1.7 1.3-1.4 2.4l2.5 10.6c.3 1 1.3 1.7 2.4 1.4 1-.3 1.7-1.3 1.4-2.4l-2.5-10.6zm-7.4 1.8c-.3-1-1.3-1.7-2.4-1.4-1 .3-1.7 1.3-1.4 2.4l2.5 10.6c.3 1 1.3 1.7 2.4 1.4 1-.3 1.7-1.3 1.4-2.4l-2.5-10.6zM219.7 44c-.3-1-1.3-1.7-2.4-1.4s-1.7 1.3-1.4 2.4l2.5 10.6c.3 1 1.3 1.7 2.4 1.4 1-.3 1.7-1.3 1.4-2.4L219.7 44zM405 69.2c-.6-.6-1.6-.6-2.3 0-.7.6-.7 1.7 0 2.3l14.8 14.8c.6.6 1.7.6 2.3 0 .6-.6.6-1.7 0-2.3L405 69.2zm10.1-11.6l-.1.1c-4.5 4.6-4.4 11.9.1 16.4 4.6 4.5 11.9 4.4 16.4-.1l3.6-3.6c4.5-4.5 4.5-11.8 0-16.3s-11.8-4.6-16.4-.1l-3.6 3.6zm5.9-1.3c3.2-3.2 8.5-3.2 11.7 0 3.2 3.2 3.2 8.5 0 11.7l-3.6 3.6c-2.8 2.8-7.2 3.2-10.5 1L430.4 61c.6-.6.6-1.7 0-2.3s-1.7-.6-2.3 0l-11.7 11.7c-2.2-3.3-1.7-7.7 1-10.5l3.6-3.6z"/><path class="st0" d="M470.6 39.2l-6.1-6.1 3.8-3.8c.6-.6.6-1.6 0-2.3-.6-.7-1.7-.7-2.3 0l-3.8 3.8-3.9-3.9 3.8-3.8c.6-.6.6-1.7 0-2.3-.6-.6-1.7-.6-2.3 0l-3.8 3.8-6.1-6.1c-.6-.6-1.7-.6-2.3 0l-13.9 13.9-.5-.5c-1.6-1.6-4-2-6-1-2.6 1.3-3.6 4.4-2.3 7L398 64.6l-.2.2-14.2 19.7-13.1 13.1c-.6.6-.6 1.7 0 2.3l3.5 3.5-5.5 5.5c-.6.6-.6 1.7 0 2.3.6.6 1.7.6 2.3 0l5.5-5.5 2.3 2.3-5.5 5.5c-.6.6-.6 1.7 0 2.3s1.7.6 2.3 0l5.5-5.5 2.3 2.3-5.5 5.5c-.6.6-.6 1.7 0 2.3s1.7.6 2.3 0l5.5-5.5 3.5 3.5c.6.6 1.7.6 2.3 0l13.1-13.1 19.7-14.2.2-.2L451 64.2c2 1 4.4.6 6-1 2-2 2-5.3 0-7.4l-.5-.5 13.9-13.9c.8-.5.8-1.5.2-2.2zM390.3 115l-2.3-2.3 7.4-7.4c.6-.6.6-1.6 0-2.3-.6-.7-1.7-.7-2.3 0l-7.4 7.4-2.3-2.3 7.4-7.4c.6-.6.6-1.7 0-2.3-.6-.6-1.7-.6-2.3 0l-7.4 7.4-2.3-2.3 7.4-7.4c.6-.6.6-1.7 0-2.3-.6-.6-1.7-.6-2.3 0l-7.4 7.4-2.3-2.3L385.1 88l3.5 3.5L393 96l4.6 4.6 3.5 3.5-10.8 10.9zm31.9-26.4l-.1.1-18.4 13.3-2.5-2.5 11.2-11.2c.6-.6.6-1.6 0-2.3-.6-.7-1.7-.7-2.3 0l-11.2 11.2-2.3-2.3 11.2-11.2c.6-.6.6-1.7 0-2.3s-1.7-.6-2.3 0l-11.2 11.2-2.3-2.3L403.1 79c.6-.6.6-1.7 0-2.3-.6-.6-1.7-.6-2.3 0l-11.2 11.2-2.5-2.5 13.3-18.5.1-.1 26.4-26.4 21.8 21.8-26.5 26.4zM454.9 61c-.7.7-2 .7-2.7 0L428 36.9c-.7-.7-.7-2 0-2.7.7-.7 2-.7 2.7 0l1.7 1.7 20.8 20.8 1.7 1.7c.7.7.7 1.9 0 2.6zm-.6-7.8l-18.4-18.4L448.6 22l6.1 6.1 6.2 6.2 6.1 6.1-12.7 12.8zM13 19.8c.7.7 1.8.6 2.4 0L33.7.9c.5-.5.6-1.3.3-1.9h-3.2L13 17.3c-.7.7-.7 1.8 0 2.5z"/><path class="st0" d="M89.7 67.6l-5.8-8 .6-.6c.7-.7.6-1.8 0-2.4l-7.2-7 3-3.1c.7-.7.6-1.8 0-2.4L70.9 35c-.4-.4-1.1-.6-1.7-.4.4-6.7-2.1-13.2-6.9-17.8L44-1h-4.9L60 19.3c5.2 5 7.1 12.4 5.1 19.3L54 50c-6.8 2.2-14.3.4-19.4-4.6l-28.8-28c-3-2.9-3-7.6-.2-10.6L13.2-1H8.4L3.1 4.5c-4.2 4.3-4.1 11.2.2 15.4l28.8 28c4.8 4.7 11.3 7 18 6.4-.2.6 0 1.2.5 1.7l9.3 9.1c.7.7 1.8.6 2.4 0l3-3.1 7.2 7c.7.7 1.8.6 2.4 0l.6-.6 8.1 5.5c.7.5 1.6.4 2.2-.2l3.7-3.8c.7-.7.7-1.6.2-2.3zM63.9 52.1c-.7-.7-1.8-.6-2.4 0-.7.7-.6 1.8 0 2.4l3.2 3.1-3.6 3.7-6.9-6.7 15.6-16 6.9 6.7L73 49l-3.1-3c-.7-.7-1.8-.6-2.4 0-.7.7-.6 1.8 0 2.4l3.2 3.1-3.7 3.7-3.1-3.1zm9.8 13.2l-6-5.8 7.2-7.4 6 5.8-.4.4-6.8 7zm10.7 4.9L78 65.8l3.6-3.7 4.6 6.3-1.8 1.8z"/><path class="st0" d="M42.5 17.6c-.3-1.9-1.2-3.7-2.6-5-1.4-1.4-3.2-2.2-5.1-2.5-5-.6-9.5 2.8-10.1 7.8-.6 5 2.8 9.5 7.8 10.1l9.8 1.3h.5c.9-.1 1.6-1 1.4-2l-1.7-9.7zm-9.7 7c-1.2-.2-2.3-.7-3.2-1.5-.9-.8-1.5-2-1.6-3.2-.5-3.1 1.6-5.9 4.7-6.4s5.9 1.6 6.4 4.7l1.2 7.4-7.5-1zM36.9 43c.7.7 1.8.7 2.4 0l18.3-18.8c.7-.7.6-1.8 0-2.4-.7-.7-1.8-.6-2.4 0L36.9 40.6c-.7.6-.7 1.7 0 2.4z"/></svg>