<svg id="ico_faq" xmlns="http://www.w3.org/2000/svg" width="67" height="66.997" viewBox="0 0 67 66.997"><defs><style>.cls-1{fill:#071017}.cls-2{fill:#fc0;fill-rule:evenodd}</style></defs><circle class="cls-1" cx="33.5" cy="33.499" r="33.5"/><path id="_" data-name="ï™" class="cls-2" d="M476.049 1006.74a10.017 10.017 0 0 0-.1-11.666 15.221 15.221 0 0 0-5.237-4.569 13.218 13.218 0 0 1-1.13 10.425 17.26 17.26 0 0 1-4.928 5.44 22.655 22.655 0 0 1-6.777 3.31 27.124 27.124 0 0 1-7.932 1.16c-.513 0-1.266-.04-2.259-.11a21.562 21.562 0 0 0 12.116 3.39 26.152 26.152 0 0 0 4.518-.41 21.629 21.629 0 0 0 7.136 3.29c.616.15 1.352.29 2.208.41a.844.844 0 0 0 .565-.18.971.971 0 0 0 .333-.57.479.479 0 0 0 .026-.16 1 1 0 0 0-.013-.17.714.714 0 0 0-.051-.16 4.132 4.132 0 0 0-.064-.12.969.969 0 0 0-.09-.14.77.77 0 0 0-.1-.13c-.025-.03-.064-.07-.115-.13l-.1-.12c-.086-.1-.282-.31-.59-.64a9.236 9.236 0 0 1-.668-.76c-.137-.18-.33-.42-.577-.74a6.76 6.76 0 0 1-.642-.99c-.18-.34-.356-.72-.526-1.13a15.023 15.023 0 0 0 4.997-4.53zm-21.031-5.26a.71.71 0 0 1-.513.2h-4.286a.707.707 0 0 1-.513-.2.679.679 0 0 1-.2-.51v-4.289a.688.688 0 0 1 .714-.714h4.286a.688.688 0 0 1 .714.714v4.289a.679.679 0 0 1-.202.51zm5.636-13.705a5.872 5.872 0 0 1-.625 1.35 5.209 5.209 0 0 1-.993 1.072 9.474 9.474 0 0 1-1.027.781q-.38.234-1.094.636a3.771 3.771 0 0 0-1.216 1.105 2.124 2.124 0 0 0-.48 1.1.688.688 0 0 1-.714.714h-4.286a.688.688 0 0 1-.714-.714v-.8a4.127 4.127 0 0 1 1.172-2.8 7.636 7.636 0 0 1 2.578-1.931 4.521 4.521 0 0 0 1.518-1 2 2 0 0 0 .446-1.362 1.626 1.626 0 0 0-.837-1.317 3.565 3.565 0 0 0-3.828-.045 11.144 11.144 0 0 0-1.92 2.054.657.657 0 0 1-.558.268.63.63 0 0 1-.424-.134l-2.946-2.232a.638.638 0 0 1-.179-.938 9.116 9.116 0 0 1 8.281-4.754 8.69 8.69 0 0 1 6.886 3.5 5.992 5.992 0 0 1 1.239 3.639 5.619 5.619 0 0 1-.279 1.808zm.313-12.366a17.253 17.253 0 0 0-17.21 0 17.06 17.06 0 0 0-6.239 6.238 17.253 17.253 0 0 0 0 17.21 17.157 17.157 0 0 0 6.239 6.243 17.247 17.247 0 0 0 17.21 0 17.165 17.165 0 0 0 6.239-6.243 17.253 17.253 0 0 0 0-17.21 17.068 17.068 0 0 0-6.239-6.238z" transform="translate(-423 -961.563)"/></svg>