<svg xmlns="http://www.w3.org/2000/svg" width="20.563" height="20.594" viewBox="0 0 20.563 20.594"><defs><style>.cls-1{fill:#fff;fill-rule:evenodd}</style></defs><path id="inst" class="cls-1" d="M103.247 22.526a.812.812 0 0 1-.817.817H88.108a.812.812 0 0 1-.817-.817v-8.681h1.889a5.862 5.862 0 0 0-.268 1.755 6.4 6.4 0 0 0 12.794 0 5.868 5.868 0 0 0-.268-1.755h1.809v8.682zm-3.8-7.141A4.135 4.135 0 1 1 95.3 11.38a4.073 4.073 0 0 1 4.142 4.005zm3.8-4.823a.926.926 0 0 1-.924.925h-2.332a.926.926 0 0 1-.924-.925v-2.21a.926.926 0 0 1 .924-.924h2.332a.926.926 0 0 1 .924.924v2.21zm2.331-2.786a2.653 2.653 0 0 0-2.639-2.639h-15.3A2.653 2.653 0 0 0 85 7.776v15.3a2.653 2.653 0 0 0 2.639 2.639h15.3a2.653 2.653 0 0 0 2.639-2.639v-15.3z" transform="translate(-85 -5.125)"/></svg>