<svg id="svg2" xmlns="http://www.w3.org/2000/svg" xmlns:xlink="http://www.w3.org/1999/xlink" viewBox="0 0 103.8 46.3"><style>.st0,.st1{clip-path:url(#SVGID_2_);fill:#fff}.st1{fill:#fc0}</style><defs><path id="SVGID_1_" d="M14.1 3.4c-.3 1.2-.8 2.5-1.4 4.1-.6 1.6-1.3 3.3-2 5-.8 1.7-1.2 2.6-1.2 2.8l-5 14.1c-.1.2-.1.4-.2.5 0 .1-.1.2-.1.3 0 .1 0 .2.1.3.1.1.1.1.2.1.2 0 1-.5 2.3-1.5 1.3-1 3.1-2.3 5.3-4.1v1.8c-.5.4-1.1.9-1.9 1.5-4 3.1-6.4 4.7-7.1 4.7-.4 0-.7-.1-.9-.3-.2-.2-.3-.5-.3-.9 0-.3.1-.6.2-1s.3-1.1.6-1.9l1.5-4.2c-.6.5-1.1 1-1.6 1.4-.6.4-1.1.8-1.7 1.2v-1.8c1.1-1 2.1-1.9 3-2.8.9-.9 1.4-1.5 1.5-1.8L12 2.7c.4-1.1.7-1.8.9-2.1.3-.4.6-.6.9-.6.2 0 .4.1.6.3.2.2.2.4.2.7 0 .5-.1 1.3-.5 2.4zm9 27.1c.2 0 1-.5 2.4-1.5s3.1-2.4 5.3-4.1v1.8l-.5.4c-5.1 4-8.1 6-9.2 6-.2 0-.4-.1-.6-.3-.2-.2-.3-.4-.3-.7 0-.1 0-.4.2-.7.1-.3.2-.7.4-1.1l1.4-3.3c-1.4 2.2-2.7 3.7-3.8 4.6-1.1.9-2.1 1.4-3.2 1.4s-2-.5-2.7-1.4c-.7-.9-1-2.2-1-3.7 0-1.1.2-2.2.6-3.2.4-1 1.1-2 1.9-3 1.4-1.6 3.2-2.9 5.1-3.8 2-1 3.9-1.4 5.7-1.4.8 0 1.4.1 2 .2.6.2 1.2.4 1.7.8l-.1 1.7c-.6-.4-1.2-.7-1.8-.9-.3-.2-1-.3-1.6-.3-1.6 0-3.3.4-5.1 1.3-1.8.9-3.2 1.9-4.3 3.2-.7.8-1.3 1.7-1.6 2.6-.4.9-.6 1.8-.6 2.7 0 1 .2 1.8.6 2.4.4.6 1 .9 1.7.9.9 0 2-.7 3.4-2.2 1.4-1.5 3.5-4.4 6.5-8.9l1.7.2-4.2 9.1c-.1.1-.1.3-.2.4 0 .1-.1.2-.1.3 0 .1 0 .2.1.3l.2.2zM41.4 7.7c-1.6 4.1-3 7.9-4.3 11.6l-6.9 19.8-.1.3c-.6 1.7-.9 2.8-.9 3.4 0 .3.1.5.2.7.1.2.3.3.5.3 1 0 2.2-1.5 3.5-4.4 1.4-3 2.1-6.2 2.2-9.7 1.2-.7 2.4-1.5 3.5-2.3 1.1-.8 2.2-1.7 3.3-2.7v1.8c-.9.8-1.7 1.6-2.6 2.2-.9.7-1.8 1.3-2.6 1.9-.2 4.1-1.2 7.7-2.8 10.7-1.6 3-3.3 4.5-4.9 4.5-.6 0-1.1-.2-1.5-.7-.3-.5-.5-1.1-.5-2 0-.5.1-1.1.2-1.8.2-.7.4-1.4.6-2.2l5.3-15-1.4 1.4c-.5.5-1.2 1-2 1.7v-1.8c1.3-1.2 2.3-2.2 3-3 .7-.8 1.3-1.5 1.6-2.1l4.6-12.8c.2-.7.6-1.6 1-2.8 1-3.1 1.9-4.7 2.5-4.7.2 0 .5.1.7.3.2.2.3.5.3.7-.1.5-.9 2.7-2.5 6.7zM51.8 13c-.4.5-.8.7-1.3.7-.3 0-.6-.1-.7-.3-.2-.2-.3-.4-.3-.7 0-.6.2-1.2.6-1.7.4-.5.8-.8 1.3-.8.3 0 .6.1.7.3.2.2.3.5.3.8-.1.6-.3 1.2-.6 1.7zm-7.6 16.3c-.1.2-.1.3-.2.4 0 .1-.1.2-.1.3 0 .1 0 .2.1.3.1.1.1.1.2.1.2 0 1-.5 2.4-1.5s3.1-2.4 5.3-4.1v1.8l-1 .8c-4.8 3.7-7.7 5.6-8.7 5.6-.3 0-.5-.1-.6-.4-.2-.2-.3-.6-.3-.9 0-.2 0-.4.1-.7.1-.3.2-.6.4-.9l2.7-5.4c-.6.5-1.1 1-1.6 1.4-.5.4-1 .7-1.4 1v-1.8c1.1-.9 2.1-1.7 3-2.6.9-.9 1.4-1.5 1.6-1.9l2-4H50c.1 0-5.8 12.5-5.8 12.5zM67.4 25v1.8c-1.5 1.4-3.7 3.6-6.7 6.6l-.9.9c-1.2 3.5-2.7 6.3-4.3 8.4-1.6 2.1-3.1 3.1-4.5 3.1-.5 0-.9-.2-1.2-.5-.3-.3-.5-.8-.5-1.3 0-1.1.8-2.5 2.4-4.4 1.6-1.9 3.9-4 6.7-6.3.3-.7.5-1.4.7-2 .2-.7.2-1.4.2-2.1 0-.4-.1-.8-.2-1.1-.1-.3-.3-.6-.6-.9-.5.3-1 .6-1.4.8-.4.2-.8.3-1.2.3-.3 0-.6-.1-.8-.3-.2-.2-.3-.4-.3-.7 0-.5.3-.9.8-1.3s1.2-.6 1.9-.6c.1 0 .3 0 .4.1.2 0 .4.1.8.2 1.5-1 2.6-2 3.4-3 .8-1 1.1-1.9 1.1-2.9 0-.5-.2-.8-.5-1.1-.3-.3-.7-.5-1.2-.5-.8 0-2.3 1.1-4.5 3.4s-4.2 4.1-5.9 5.5v-1.8c1.3-1.2 2.9-2.7 4.9-4.7 2.7-2.8 4.7-4.2 5.9-4.2.9 0 1.7.3 2.3.9.6.6.9 1.3.9 2.2 0 1.2-.5 2.3-1.4 3.5-.9 1.2-2.2 2.3-3.9 3.2.4.3.7.7.9 1.1.2.4.3.9.3 1.4 0 .4 0 .9-.1 1.3s-.2.8-.3 1.3c1-1.1 2.1-2.2 3.2-3.3 1.2-.8 2.4-1.9 3.6-3zM53.1 40.3c-1.4 1.6-2 2.7-2 3.2 0 .2.1.3.2.5.1.1.3.2.5.2.7 0 1.7-.8 3-2.5s2.4-3.7 3.3-6.2c-2 1.6-3.7 3.2-5 4.8zm30-15.3v1.8c-1.5 1.4-3.7 3.6-6.7 6.6l-.9.9c-1.2 3.5-2.7 6.3-4.3 8.4-1.6 2.1-3.1 3.1-4.5 3.1-.5 0-.9-.2-1.2-.5-.3-.3-.5-.7-.5-1.3 0-1.1.8-2.5 2.4-4.4 1.6-1.9 3.9-4 6.7-6.3.3-.7.5-1.4.7-2 .2-.7.2-1.4.2-2.1 0-.4-.1-.8-.2-1.1-.1-.3-.3-.6-.6-.9-.5.3-1 .6-1.4.8-.4.2-.8.3-1.2.3-.3 0-.6-.1-.8-.3-.2-.2-.3-.4-.3-.7 0-.5.3-.9.8-1.3s1.2-.6 1.9-.6c.1 0 .3 0 .4.1.2 0 .4.1.8.2 1.5-1 2.6-2 3.4-3 .8-1 1.1-1.9 1.1-2.9 0-.5-.2-.8-.5-1.1-.3-.3-.7-.5-1.2-.5-.8 0-2.3 1.1-4.5 3.4s-4.2 4.1-5.9 5.5v-1.8c1.3-1.2 2.9-2.7 4.9-4.7 2.7-2.8 4.7-4.2 5.9-4.2.9 0 1.7.3 2.3.9.6.6.9 1.3.9 2.2 0 1.2-.5 2.3-1.4 3.5-.9 1.2-2.2 2.3-3.9 3.2.4.3.7.7.9 1.1.2.4.3.9.3 1.4 0 .4 0 .9-.1 1.3s-.2.8-.3 1.3c1-1.1 2.1-2.2 3.2-3.3 1.2-.8 2.3-1.9 3.6-3zM68.7 40.3c-1.4 1.6-2 2.7-2 3.2 0 .2.1.3.2.5.1.1.3.2.5.2.7 0 1.7-.8 3-2.5s2.4-3.7 3.3-6.2c-2 1.6-3.6 3.2-5 4.8zm34.2-15.4v1.8c-2.8 2.2-5.2 4.1-7.1 5.7-1.9 1.6-3.2 2.9-4.1 3.9-1.1 3.2-2 5.6-2.9 7.2-.9 1.6-1.6 2.3-2.3 2.3-.3 0-.5-.1-.6-.3-.2-.2-.2-.5-.2-.9 0-1.2.5-2.7 1.4-4.5.9-1.8 2.1-3.5 3.7-5.1l5.8-13.1c-3.5 3.8-6.2 6.7-8.3 8.5-2.1 1.8-3.6 2.7-4.5 2.7-.3 0-.6-.1-.7-.2-.2-.1-.2-.3-.2-.7 0-.2.1-.5.2-.8.1-.4.3-.8.5-1.4l2.1-5.1c-.6.5-1.1 1-1.6 1.4-.5.4-1 .7-1.4 1v-1.8c1.2-.9 2.2-1.8 3.1-2.6.9-.9 1.4-1.5 1.5-1.9l1.8-4H91l-4.7 11.3c0 .1-.1.2-.2.4-.3.5-.4.9-.4 1.1 0 .1 0 .1.1.2h.1c.6 0 2.2-1.3 4.8-3.9 2.6-2.6 5.4-5.6 8.2-9.2h1.8l-6.9 15.6.5-.4c3.9-3.6 6.8-5.9 8.6-7.2z"/></defs><clipPath id="SVGID_2_"><use xlink:href="#SVGID_1_" overflow="visible"/></clipPath><path class="st0" d="M25 47.7H-1.4V-2.4H39z"/><path class="st1" d="M19.8 55.7h86.7V-3.8H40.8z"/></svg>