<svg xmlns="http://www.w3.org/2000/svg" width="35.031" height="19.969" viewBox="0 0 35.031 19.969"><defs><style>.cls-1{fill:#fff;fill-rule:evenodd}</style></defs><path id="vk" class="cls-1" d="M64.55 21.2a47.533 47.533 0 0 0-3.429-3.483c-1.047-1.031-1.113-1.629-.271-2.819.918-1.3 1.906-2.547 2.833-3.84a13.971 13.971 0 0 0 2.2-3.859.971.971 0 0 0-.9-1.488 2.857 2.857 0 0 0-.492-.03l-5.546-.006a1.24 1.24 0 0 0-1.3.9 34.829 34.829 0 0 1-1.052 2.449 20.122 20.122 0 0 1-3.246 5.035 1.123 1.123 0 0 1-1.149.568 1.89 1.89 0 0 1-.813-1.65l-.006-6.462A1.382 1.382 0 0 0 50.145 5h-5.761a1.828 1.828 0 0 0-1.565.785c-.237.282-.309.465.181.558a1.934 1.934 0 0 1 1.638 1.776 20.041 20.041 0 0 1 .081 4.652 4.36 4.36 0 0 1-.294 1.329.774.774 0 0 1-1.319.392 5.381 5.381 0 0 1-1.279-1.419 31.355 31.355 0 0 1-3.383-6.33 1.468 1.468 0 0 0-1.385-1.047 145.742 145.742 0 0 0-4.992 0c-1 .019-1.3.509-.892 1.426a62.73 62.73 0 0 0 6.463 11.632 16.158 16.158 0 0 0 4.91 4.64 12.95 12.95 0 0 0 7.3 1.585c1.207-.057 1.569-.374 1.625-1.588a5.422 5.422 0 0 1 .537-2.4 1.061 1.061 0 0 1 1.7-.416 4.828 4.828 0 0 1 .918.825c.679.75 1.334 1.523 2.038 2.248a3.924 3.924 0 0 0 3.234 1.333H65a1.283 1.283 0 0 0 .776-2A9.93 9.93 0 0 0 64.55 21.2z" transform="translate(-30.969 -5)"/></svg>