<svg xmlns="http://www.w3.org/2000/svg" width="29" height="21" viewBox="0 0 29 21"><defs><style>.cls-1{fill:#fff;fill-rule:evenodd}</style></defs><path id="Youtube" class="cls-1" d="M153.494 8.373a3.718 3.718 0 0 0-3.134-2.961A93.773 93.773 0 0 0 139.5 5a93.8 93.8 0 0 0-10.859.417 3.718 3.718 0 0 0-3.133 2.961A33.517 33.517 0 0 0 125 15.5a33.51 33.51 0 0 0 .5 7.122 3.718 3.718 0 0 0 3.134 2.961A93.659 93.659 0 0 0 139.5 26a93.642 93.642 0 0 0 10.857-.417 3.719 3.719 0 0 0 3.134-2.961A33.446 33.446 0 0 0 154 15.5a33.448 33.448 0 0 0-.506-7.127zm-17.738 11.8v-9.966l9.218 5z" transform="translate(-125 -5)"/></svg>