<svg xmlns="http://www.w3.org/2000/svg" viewBox="0 0 21.63 21.15"><defs><style>.cls-1{fill:#623c25;fill-rule:evenodd;}</style></defs><title>16_l_d</title><g id="Layer_2" data-name="Layer 2"><g id="Layer_1-2" data-name="Layer 1"><path class="cls-1" d="M2.4,19.66v.13c0,.8-.44.92-.94,1.17C.87,20.82,0,20.56,0,19.9s.39-1.3.94-1.3h.4A1,1,0,0,1,2.4,19.66ZM1.23,15.6c-.85,0-.94.51-1.2,1,.27.58.29,1.23,1.21,1.25a1.19,1.19,0,0,0,1.18-1.23A1.11,1.11,0,0,0,1.23,15.6ZM2.11,4.41h.4c1.7,0,2.77-1.15,4.53-1.14h.53a.42.42,0,0,1,.19.06V6.93c-1,.29-3.14-.6-3.83-.78C2.27,5.72.1,6.07.08,7.79v.53a1.69,1.69,0,0,0,1.71,1.84h.27c.6,0,1.33-.53,1.34-1V8.86c0-.58-.24-1.3-.79-1.31s-.8.12-.8.52v.26c0,.58.29.15.66.66A.9.9,0,0,1,.88,8.32V8.06A1.19,1.19,0,0,1,2.09,6.89h.13c1.24,0,3.35,1.7,4.29,2.33a5.61,5.61,0,0,0,1.25.62v1.07c-1.45.76-3.69,3.13-5.4,3.12A1.56,1.56,0,0,1,.88,12.72a1.22,1.22,0,0,1,1.23-1.3.62.62,0,0,1,.68.53H2.38c-.47,0-.45.38-.55.78l.79.56c.5-.27,1-.49,1-1.2a1.3,1.3,0,0,0-1.48-1.45A1.85,1.85,0,0,0,.06,12.58V13a2.34,2.34,0,0,0,2,2H3c1.47,0,3.67-1.4,4.73-1.72v.33h.16C7.4,14.74,6.15,16.16,6.13,18v.26a2.41,2.41,0,0,0,2.29,2.64h.27a2.15,2.15,0,0,0,1.92-1.95c0-.55-.54-1.44-1.08-1.44h-.4a1,1,0,0,0-1.1,1c0,.4.39.52.81.53s.1-.45.82-.52v.39c0,.48-.39,1.05-.83,1h-.4a1.43,1.43,0,0,1-1.35-1.58c0-1.59,2-3.34,2.95-4.82h.87c.63,1.4,3.24,3.6,3.22,5.37v.26a1.3,1.3,0,0,1-2.6,0c0-.29.26-.45.55-.52l.13.79.56.11c.29-.12.67-.2.68-.63,0-1.91-2.72-1.26-2.74.38a2,2,0,0,0,1.9,1.84c1.51,0,2.6-.64,2.61-2.07v-.39C15.23,17,14,16,14,14.23v-.52a.74.74,0,0,1,0-.14h3.79c.25,1-.65,3.05-.83,3.72-.45,1.63-.08,3.77,1.71,3.78h.55a1.72,1.72,0,0,0,1.93-1.68v-.26a1.38,1.38,0,0,0-1.08-1.32h-.27c-.62,0-1.37.24-1.38.77s.12.79.54.79h.28c.6,0,.15-.28.68-.64.71.5.28,1.57-.69,1.56H19a1.2,1.2,0,0,1-1.21-1.19V19c0-1.22,1.78-3.29,2.44-4.22a5.46,5.46,0,0,0,.63-1.18h.75v-2.7H10.46V0H7.76V.26C6.34.82,4.07,3.38,2.25,3.36H2A1.24,1.24,0,1,1,2,.88c.3,0,.46.25.53.53l-.8.11-.11.54c.12.28.2.65.63.65,2,0,1.29-2.6-.37-2.62A1.94,1.94,0,0,0,0,1.91C0,3.35.65,4.4,2.11,4.41ZM4.27,18.63A1.18,1.18,0,1,0,4.38,21h.13c.42,0,.94-.66.94-1.17v-.13A1.07,1.07,0,0,0,4.27,18.63Zm.15-3H4.16a1,1,0,0,0-1.07,1v.13c0,1.55,2.39,1.48,2.4-.11A1.09,1.09,0,0,0,4.42,15.62Z"/></g></g></svg>