<svg xmlns="http://www.w3.org/2000/svg" viewBox="0 0 21.63 21.15"><defs><style>.cls-1{fill:#623c25;fill-rule:evenodd;}</style></defs><title>16_r_d</title><g id="Layer_2" data-name="Layer 2"><g id="Layer_1-2" data-name="Layer 1"><path class="cls-1" d="M20.29,18.61h.39c.56,0,.94.72.95,1.3s-.87.92-1.46,1.06c-.5-.25-.93-.37-.94-1.17v-.13A1,1,0,0,1,20.29,18.61Zm-1.08-2a1.18,1.18,0,0,0,1.18,1.23c.92,0,.94-.67,1.21-1.25-.26-.52-.36-1-1.21-1A1.1,1.1,0,0,0,19.21,16.65ZM21.63,1.91A1.94,1.94,0,0,0,19.75.09c-1.66,0-2.33,2.64-.38,2.62.44,0,.51-.37.64-.65l-.11-.54-.8-.11c.07-.28.22-.53.52-.53a1.24,1.24,0,1,1,0,2.48h-.26c-1.82,0-4.09-2.54-5.52-3.1V0H11.17V10.87H0v2.7H.75a5.46,5.46,0,0,0,.63,1.18c.65.93,2.43,3,2.44,4.22v.13A1.21,1.21,0,0,1,2.6,20.29H2.33c-1,0-1.4-1.06-.7-1.56.53.36.09.65.69.64h.27c.42,0,.55-.39.54-.79s-.75-.78-1.37-.77H1.49A1.38,1.38,0,0,0,.41,19.13v.26a1.72,1.72,0,0,0,1.93,1.68h.54c1.8,0,2.16-2.15,1.72-3.78-.18-.67-1.09-2.69-.83-3.72H7.55a.39.39,0,0,1,0,.14v.52C7.62,16,6.4,17,6.41,18.69v.39c0,1.43,1.1,2.08,2.61,2.07a2,2,0,0,0,1.89-1.84c0-1.64-2.75-2.29-2.73-.38,0,.43.39.51.68.63l.56-.11.12-.79c.29.07.55.23.55.52a1.3,1.3,0,0,1-2.59,0v-.26c0-1.77,2.59-4,3.22-5.37h.87c1,1.48,2.93,3.23,3,4.82A1.44,1.44,0,0,1,13.2,20h-.41c-.44,0-.82-.56-.82-1v-.39c.71.07.44.52.82.52s.81-.13.81-.53a1,1,0,0,0-1.1-1h-.41c-.53,0-1.08.89-1.07,1.44a2.14,2.14,0,0,0,1.92,1.95h.27a2.41,2.41,0,0,0,2.29-2.64V18c0-1.83-1.27-3.25-1.79-4.42h.16v-.33c1.07.32,3.26,1.73,4.73,1.72h1a2.34,2.34,0,0,0,2-2v-.39a1.84,1.84,0,0,0-2-1.94A1.3,1.3,0,0,0,18,12.09c0,.71.48.93,1,1.2l.79-.56c-.1-.4-.09-.79-.55-.78h-.41a.61.61,0,0,1,.68-.53,1.22,1.22,0,0,1,1.23,1.3A1.56,1.56,0,0,1,19.27,14c-1.71,0-3.95-2.36-5.41-3.12V9.85a5.69,5.69,0,0,0,1.26-.62c.94-.63,3.05-2.32,4.29-2.33h.13a1.2,1.2,0,0,1,1.21,1.17v.26A.9.9,0,0,1,19.16,9c.37-.51.66-.08.66-.66V8.07c0-.4-.4-.52-.81-.52s-.79.73-.78,1.31v.27c0,.5.74,1,1.34,1h.26a1.69,1.69,0,0,0,1.72-1.84V7.79c0-1.72-2.19-2.07-3.84-1.64-.69.18-2.81,1.07-3.84.78V3.34a.51.51,0,0,1,.2-.06h.53c1.76,0,2.82,1.16,4.53,1.14h.4C21,4.4,21.64,3.35,21.63,1.91ZM16.17,19.69v.13c0,.51.52,1.17.95,1.17h.13a1.18,1.18,0,1,0,.11-2.35A1.09,1.09,0,0,0,16.17,19.69Zm0-3c0,1.59,2.41,1.66,2.39.11v-.13a1,1,0,0,0-1.07-1H17.2A1.07,1.07,0,0,0,16.15,16.68Z"/></g></g></svg>