<svg xmlns="http://www.w3.org/2000/svg" viewBox="0 0 10.28 11"><defs><style>.cls-1{fill:#613c25;}</style></defs><title>16_r</title><g id="Layer_2" data-name="Layer 2"><g id="Layer_1-2" data-name="Layer 1"><path class="cls-1" d="M2.7,10.36C4.1,9.74,6.3,7.2,8.07,7.22h.26a1.27,1.27,0,0,1,0,2.53c-.3,0-.45-.26-.52-.54l.79-.12.11-.54c-.12-.29-.2-.66-.63-.67-1.91,0-1.26,2.65.37,2.66A1.93,1.93,0,0,0,10.28,8.7c0-1.47-.64-2.53-2.07-2.55H7.82c-1.68,0-2.73,1.18-4.46,1.16H2.84a.34.34,0,0,1-.14,0V3.58c1-.25,3.05.63,3.72.81,1.62.43,3.76.07,3.78-1.68V2.18A1.69,1.69,0,0,0,8.52.31H8.26C7.67.3,6.94.84,6.94,1.36v.26c0,.6.23,1.34.77,1.34s.79-.12.79-.53V2.17c0-.59-.28-.16-.65-.67a.89.89,0,0,1,1.57.68v.26A1.2,1.2,0,0,1,8.23,3.63H8.1c-1.22,0-3.29-1.74-4.22-2.38A5.44,5.44,0,0,0,2.7.64V0H0V11H2.7Z"/></g></g></svg>