<svg xmlns="http://www.w3.org/2000/svg" viewBox="0 0 11 10.28"><defs><style>.cls-1{fill:#613c25;}</style></defs><title>16_u</title><g id="Layer_2" data-name="Layer 2"><g id="Layer_1-2" data-name="Layer 1"><path class="cls-1" d="M10.36,7.58C9.74,6.18,7.2,4,7.22,2.21V2A1.27,1.27,0,0,1,9.75,2c0,.3-.26.45-.54.52L9.09,1.7l-.54-.11c-.29.13-.66.2-.67.63,0,1.92,2.65,1.26,2.66-.37A1.93,1.93,0,0,0,8.7,0C7.23,0,6.17.64,6.15,2.07v.39c0,1.68,1.18,2.73,1.16,4.46v.52a.34.34,0,0,1,0,.14H3.58c-.25-1,.63-3,.81-3.72C4.82,2.24,4.46.1,2.71.08H2.18A1.7,1.7,0,0,0,.31,1.76V2c0,.59.53,1.32,1.05,1.32h.26c.6,0,1.34-.23,1.34-.77s-.12-.79-.53-.79H2.17c-.59,0-.16.28-.67.65A.89.89,0,0,1,2.18.86h.26A1.21,1.21,0,0,1,3.63,2.05v.13c0,1.22-1.74,3.3-2.38,4.22A5.68,5.68,0,0,0,.64,7.58H0v2.7H11V7.58Z"/></g></g></svg>