<?xml version="1.0" standalone="no"?>
<!DOCTYPE svg PUBLIC "-//W3C//DTD SVG 1.1//EN" "http://www.w3.org/Graphics/SVG/1.1/DTD/svg11.dtd" >
<svg>
<metadata>
Created by FontForge 20090914 at Thu Jul 26 15:27:19 2018
 By www-data
Copyright (c) Peter Wiegel, 2009. All rights reserved.
</metadata>
<defs>
<font id="Proletariat" horiz-adv-x="300" >
  <font-face 
    font-family="Proletariat"
    font-weight="400"
    font-stretch="normal"
    units-per-em="1000"
    panose-1="2 1 6 6 5 2 2 2 2 4"
    ascent="800"
    descent="-200"
    x-height="759.999"
    cap-height="760"
    bbox="-105 -207.001 725.9 985.999"
    underline-thickness="0"
    underline-position="0"
    unicode-range="U+0020-U+2122"
  />
<missing-glyph horiz-adv-x="375" 
d="M53 700h272v-620h-272v620zM76 108l185 50l37 517h-222v-567z" />
    <glyph glyph-name=".notdef" horiz-adv-x="375" 
d="M53 700h272v-620h-272v620zM76 108l185 50l37 517h-222v-567z" />
    <glyph glyph-name="space" unicode=" " 
 />
    <glyph glyph-name="exclam" unicode="!" horiz-adv-x="158" 
d="M77 87c28.667 0 43 -13.667 43 -41c0 -28.667 -14.333 -43 -43 -43c-26.667 0 -40 14.333 -40 43c0 27.333 13.333 41 40 41zM38 766h39h41c0 -94 -0.166992 -187.167 -0.5 -279.5s-6.83301 -184.5 -19.5 -276.5h-21h-20c-12.667 92 -19 184.167 -19 276.5v279.5z" />
    <glyph glyph-name="quotedbl" unicode="&#x22;" horiz-adv-x="278" 
d="M191 761c11.333 0 21.166 -1.83301 29.499 -5.5s12.5 -16.834 12.5 -39.501c0 -23.333 -4.16699 -49.333 -12.5 -78s-18.166 -43 -29.499 -43c-12 0 -21.833 14.333 -29.5 43s-11.5 54.667 -11.5 78c0 22.667 3.83301 35.834 11.5 39.501s17.5 5.5 29.5 5.5zM81 760
c11.333 0 21.166 -2 29.499 -6s12.5 -17 12.5 -39c0 -23.333 -4.16699 -49.5 -12.5 -78.5s-18.166 -43.5 -29.499 -43.5c-12 0 -21.833 14.5 -29.5 43.5s-11.5 55.167 -11.5 78.5c0 22 3.83301 35 11.5 39s17.5 6 29.5 6z" />
    <glyph glyph-name="numbersign" unicode="#" horiz-adv-x="488" 
d="M237 498c-1.33301 -19.333 -2.99609 -38.333 -4.99609 -57s-4.33301 -38 -7 -58c2 0 3.83301 0.333008 5.5 1s3.83398 1.66699 6.50098 3c4 0.666992 8.66699 1.66699 14 3s10.333 2.66602 15 3.99902l7 46c2 16 4.16699 30.5 6.5 43.5s4.16602 24.167 5.49902 33.5
l81 -22v-1l-12 -92c30 -8 55.333 -29.667 76 -65c15.333 -29.333 22.666 -63.666 21.999 -102.999s-2.66699 -72.666 -6 -99.999c-4 -30.667 -11.833 -58.334 -23.5 -83.001s-27.5 -40.667 -47.5 -48c-5.33301 -0.666992 -10 -1.5 -14 -2.5s-8.66699 -1.5 -14 -1.5
c-31.333 0 -55.333 10.333 -72 31c-7.33301 -8 -12.666 -13.667 -15.999 -17c-17.333 -10 -36 -14.333 -56 -13c-52 3.33301 -83 35 -93 95c-4.66699 26.667 -5 57.5 -1 92.5s9.33301 72.167 16 111.5c-68.667 26.667 -100.334 75.667 -95.001 147s32.333 119.333 81 144
c62 34.667 133 44 213 28c33.333 -7.33301 61.666 -20 84.999 -38s37.666 -41.333 42.999 -70h-81c-2 12.667 -18.667 22 -50 28c-58.667 12.667 -113 6 -163 -20c-20.667 -12 -36.334 -32.667 -47.001 -62s-1 -54 29 -74c8 48 13 92 15 132v0zM210.004 294
c-7.33301 -40 -13.5 -77.668 -18.5 -113.001s-5.5 -64 -1.5 -86c3.33301 -17.333 8.66602 -20.666 15.999 -9.99902c17.333 24.667 28.333 59 33 103s9.33398 82.333 14.001 115c-6 -2 -11.5 -3.5 -16.5 -4.5s-10.167 -2.16699 -15.5 -3.5
c-2 0 -3.83301 -0.166992 -5.5 -0.5s-3.5 -0.5 -5.5 -0.5zM337.004 299.999c-1.33301 -6.66699 -2.33398 -13 -3.00098 -19l-2 -18c-4.66699 -32 -7.5 -62.167 -8.5 -90.5s0.166992 -52.5 3.5 -72.5c6 -33.333 13.5 -33 22.5 1s13.833 53.333 14.5 58
c2.66699 16.667 5.16699 41.334 7.5 74.001s-1.5 58 -11.5 76c-3.33301 6 -9.66602 9.66699 -18.999 11c-1.33301 -3.33301 -2.33301 -6.83301 -3 -10.5s-1 -6.83398 -1 -9.50098z" />
    <glyph glyph-name="dollar" unicode="$" horiz-adv-x="276" 
d="M168 -32l-52.002 0.00195312v35l-3 -3h-95c18.667 25.333 40.334 64.333 65.001 117c10 22 21 44.667 33 68v362l-24 8c-45.333 24 -70.5 64.167 -75.5 120.5s12.167 84.5 51.5 84.5h48v36h52v-36h66c-0.666992 -21.333 -1 -41.166 -1 -59.499s2.66699 -37.5 8 -57.5
l6 -32l-23 -5c-7.33301 37.333 -14 59.666 -20 66.999c-3.33301 5.33301 -15.333 9.66602 -36 12.999v-95c36.667 -26.667 59.334 -63.334 68.001 -110.001c8.66699 -52.667 7.16699 -109 -4.5 -169s-29.5 -118.667 -53.5 -176l-10 -24v-144zM192.998 457.002
c-4 22 -12.332 40.333 -24.999 55v-214c25.333 58.667 33.666 111.667 24.999 159zM101.999 693.002c-14 0 -21.666 -10.332 -22.999 -30.999c-0.666992 -14.667 11.666 -29.334 36.999 -44.001v74c-5.33301 0 -10 0.333008 -14 1z" />
    <glyph glyph-name="uni0025" unicode="%" horiz-adv-x="526" 
d="M457 362c14 -15.333 23.333 -34.668 28 -58.001s6.33398 -47.333 5.00098 -72c-2 -26 -5.66699 -50.833 -11 -74.5s-10 -43.5 -14 -59.5c-22 -63.333 -50 -95 -84 -95c-35.333 0 -63.333 31.667 -84 95c-4 16 -8.66699 35.833 -14 59.5s-9 48.834 -11 75.501
c-0.666992 24.667 0.833008 48.5 4.5 71.5s13.167 42.167 28.5 57.5c16.667 18 42 27 76 27c33.333 0 58.666 -9 75.999 -27zM410 293.998c-6 6 -16.001 9 -30.001 9c-14.667 0 -24.667 -3 -30 -9c-8 -7.33301 -12.5 -19 -13.5 -35s-0.5 -32.333 1.5 -49
s4.66699 -32.167 8 -46.5s6.33301 -24.833 9 -31.5c10 -31.333 18.333 -47 25 -47s15 15.667 25 47c2 6.66699 4.66699 17.167 8 31.5s6.33301 29.833 9 46.5c2 16.667 2.33301 33 1 49s-5.66602 27.667 -12.999 35zM349.999 763.998h63l-273 -760h-64zM209.999 734.998
c14 -14.667 23.333 -33.668 28 -57.001s6 -47.666 4 -72.999c-1.33301 -25.333 -4.83301 -50 -10.5 -74s-10.5 -43.667 -14.5 -59c-21.333 -63.333 -49.333 -95 -84 -95s-62.334 31.667 -83.001 95c-4.66699 15.333 -9.66699 35 -15 59s-8.66602 49.333 -9.99902 76
c-1.33301 24.667 0 48.5 4 71.5s13.333 41.833 28 56.5c16.667 18.667 42 28 76 28c33.333 0 59 -9.33301 77 -28zM161.999 667.997c-6 6 -16.002 9 -30.002 9s-24 -3 -30 -9c-7.33301 -7.33301 -11.666 -19 -12.999 -35s-0.666016 -32.333 2.00098 -49
c1.33301 -16.667 3.66602 -32.334 6.99902 -47.001s6.33301 -25.334 9 -32.001c10 -30.667 18.333 -46 25 -46s15 15.333 25 46c2.66699 6.66699 5.66699 17.334 9 32.001s6.33301 30.334 9 47.001c1.33301 16.667 1.33301 33 0 49s-5.66602 27.667 -12.999 35z" />
    <glyph glyph-name="ampersand" unicode="&#x26;" horiz-adv-x="443" 
d="M402 139c-5.33301 -18 -3.66602 -36.334 5.00098 -55.001s13 -37 13 -55h-23c0 10 -2.16699 21.167 -6.5 33.5s-11.833 8.83301 -22.5 -10.5c-23.333 -43.333 -53.666 -60.333 -90.999 -51c-15.333 3.33301 -31.333 14 -48 32l-8.5 -7
c-2.33301 -2 -4.83301 -3.66699 -7.5 -5c-32.667 -20 -65.334 -27.333 -98.001 -22c-36.667 5.33301 -62.334 26 -77.001 62c-17.333 41.333 -16.5 82.833 2.5 124.5s39.833 79.5 62.5 113.5c-2.66699 6.66699 -5 13.667 -7 21l-6 22
c-7.33301 26.667 -13.666 58.334 -18.999 95.001s-6.66602 70.667 -3.99902 102c3.33301 40 15.666 69.333 36.999 88c10.667 8 22.667 12 36 12h47c17.333 0 32.166 0.333008 44.499 1s23.5 -3.66602 33.5 -12.999c12.667 -12.667 20 -28.334 22 -47.001
s2.66699 -36.334 2 -53.001c-2.66699 -42.667 -14 -84.667 -34 -126s-40.667 -78.666 -62 -111.999c4 -11.333 8.33301 -23 13 -35l14 -37c1.33301 10.667 1.33301 22.667 0 36c-2 45.333 8 75 30 89s46.333 22 73 24c18 0.666992 26.833 5.5 26.5 14.5
s4.16699 21.833 13.5 38.5l20 -11c-15.333 -21.333 -23 -47.333 -23 -78v-82h-22c0 5.33301 -1 13 -3 23s-7 15 -15 15c-14 0 -20 -9.66699 -18 -29c1.33301 -60 -7.66699 -112.667 -27 -158c8.66699 -13.333 16 -20.333 22 -21c1.33301 -1.33301 10 25.667 26 81z
M184 102.999c-14.667 26 -29.667 59.666 -45 100.999c-6.66699 -10 -16.167 -32.5 -28.5 -67.5s-5.83301 -54.833 19.5 -59.5c18.667 -3.33301 36.667 5.33398 54 26.001zM150 546.998c-2 -20.667 -1.83301 -46 0.5 -76s6.16602 -56 11.499 -78
c11.333 22.667 21.833 48 31.5 76s15.834 53 18.501 75c1.33301 19.333 -8 30.333 -28 33c-20.667 0.666992 -32 -9.33301 -34 -30z" />
    <glyph glyph-name="quotesingle" unicode="'" horiz-adv-x="150" 
d="M75 760c11.333 0 21.166 -2 29.499 -6s12.5 -17 12.5 -39c0 -23.333 -4.16699 -49.5 -12.5 -78.5s-18.166 -43.5 -29.499 -43.5c-12 0 -21.833 14.5 -29.5 43.5s-11.5 55.167 -11.5 78.5c0 22 3.83301 35 11.5 39s17.5 6 29.5 6z" />
    <glyph glyph-name="parenleft" unicode="(" horiz-adv-x="201" 
d="M21 382c2.66699 68.667 9.33398 133.001 20.001 193.001c15.333 81.333 40.333 155.666 75 222.999h80c-41.333 -64 -70.333 -138 -87 -222c-12 -65.333 -18 -128.5 -18 -189.5s6 -123.167 18 -186.5c16.667 -84.667 45.667 -159 87 -223h-80
c-34.667 67.333 -59.667 142 -75 224c-10.667 60 -17.334 120.333 -20.001 181z" />
    <glyph glyph-name="parenright" unicode=")" horiz-adv-x="201" 
d="M177 382c-2.66699 -60.667 -9.33398 -121.001 -20.001 -181.001c-14.667 -82 -39.667 -156.667 -75 -224h-80c42 64 71.333 138.333 88 223c11.333 63.333 17 125.5 17 186.5s-5.66699 124.167 -17 189.5c-16.667 84 -46 158 -88 222h80
c35.333 -67.333 60.333 -141.666 75 -222.999c10.667 -60 17.334 -124.333 20.001 -193z" />
    <glyph glyph-name="asterisk" unicode="*" horiz-adv-x="286" 
d="M146 765c28 0 42.001 -14 42.001 -42c0 -22 -9 -35 -27 -39v-26l24 13c-4.66699 18 3 32.333 23 43c22 13.333 40.333 8 55 -16c14 -24.667 9.33301 -43.667 -14 -57c-19.333 -11.333 -36 -10 -50 4l-24 -14l26 -15c12.667 13.333 28.667 14.333 48 3
c23.333 -13.333 28 -32 14 -56c-14.667 -24.667 -33 -30.334 -55 -17.001c-20 11.333 -27.667 26.333 -23 45l-24 14v-30c18 -4 27 -17.333 27 -40c0 -26.667 -14 -40 -42 -40s-42 13.333 -42 40c0 22.667 9 36.334 27 41.001v29l-25 -14c6 -18 -0.666992 -32.333 -20 -43
c-24 -14.667 -43 -9.83398 -57 14.499s-8.66699 43.5 16 57.5c18.667 10.667 34.667 10 48 -2l23 13l-23 14c-13.333 -14 -29.333 -15.667 -48 -5c-24.667 14 -30 33.167 -16 57.5s33 29.5 57 15.5c19.333 -11.333 26.666 -25.666 21.999 -42.999l23 -14v28
c-18 4 -27 17 -27 39c0 28 14 42 42 42z" />
    <glyph glyph-name="plus" unicode="+" horiz-adv-x="344" 
d="M214 367v-99h99v-83h-99v-99h-84l-1 99h-97v83h97l1 99h84z" />
    <glyph glyph-name="comma" unicode="," horiz-adv-x="146" 
d="M63 -74c-13.333 -4 -26.998 -3.99805 -40.998 0.00195312c22 7.33301 36.333 19.666 43 36.999s9 29.333 7 36c-25.333 0 -39 13 -41 39s12 40.333 42 43c41.333 2.66699 56.666 -19.833 45.999 -67.5s-29.334 -76.834 -56.001 -87.501z" />
    <glyph glyph-name="hyphen" unicode="-" horiz-adv-x="294" 
d="M18 291c10.667 19.333 26.333 33.167 47 41.5s42.667 16.166 66 23.499c18.667 4.66699 37 10.334 55 17.001s30.667 16.667 38 30l57 -33c-14.667 -24.667 -34.167 -42 -58.5 -52s-48.833 -18.667 -73.5 -26c-17.333 -4.66699 -33 -9.5 -47 -14.5
s-23.333 -11.5 -28 -19.5zM17.999 192.001c10.667 18.667 26.333 32.168 47 40.501s42.667 16.166 66 23.499c18.667 4.66699 37 10.667 55 18s30.667 17 38 29l57 -33c-14.667 -24.667 -34.167 -42 -58.5 -52s-48.833 -18.667 -73.5 -26
c-17.333 -4.66699 -33 -9.5 -47 -14.5s-23.333 -11.5 -28 -19.5z" />
    <glyph glyph-name="period" unicode="." horiz-adv-x="125" 
d="M63 81c27.333 0 41 -14 41 -42c0 -26.667 -13.667 -40 -41 -40c-28 0 -42 13.333 -42 40c0 28 14 42 42 42z" />
    <glyph glyph-name="slash" unicode="/" horiz-adv-x="231" 
d="M161 791h55l-166 -829h-55z" />
    <glyph glyph-name="zero" unicode="0" 
d="M198 763c47.333 -0.666992 72.668 -30.167 76.001 -88.5s4.66602 -110.166 3.99902 -155.499c-0.666992 -47.333 -3.16699 -97.833 -7.5 -151.5s-10.166 -103.834 -17.499 -150.501c-2.66699 -9.33301 -4.66699 -18 -6 -26l-4 -23
c-23.333 -107.333 -54.333 -162.333 -93 -165c-38 -0.666992 -68.667 54 -92 164c-3.33301 11.333 -6.33301 28 -9 50c-16.667 100.667 -25.334 201.334 -26.001 302.001c-0.666992 45.333 0.833008 97.666 4.5 156.999s29.167 88.333 76.5 87
c22.667 -2 37.5 -2.5 44.5 -1.5s23.5 1.5 49.5 1.5zM160.002 687l-23.999 0.000976562c-22.667 -2.66699 -34.334 -25.167 -35.001 -67.5s-0.666992 -76.166 0 -101.499c0 -7.33301 1.5 -34.166 4.5 -80.499s6.5 -95.5 10.5 -147.5s9 -99.333 15 -142s11.333 -64 16 -64
c4.66699 -0.666992 9.66699 20.333 15 63s10.5 90.167 15.5 142.5s9.16699 101.666 12.5 147.999s5 73.166 5 80.499c0 25.333 -0.166992 59.166 -0.5 101.499s-11.833 64.833 -34.5 67.5z" />
    <glyph glyph-name="one" unicode="1" 
d="M157 50l-0.000976562 528c-13.333 -18 -29.666 -32.833 -48.999 -44.5s-40 -17.5 -62 -17.5v49c30 0 55.167 26 75.5 78s30.5 90.333 30.5 115h50h55c-13.333 -16.667 -20 -33 -20 -49v-329.5v-329.5c0 -24.667 8 -42 24 -52h-65h-63c16 10 24 27.333 24 52z" />
    <glyph glyph-name="two" unicode="2" 
d="M196 561c-22.667 -25.333 -45.9951 -40.3301 -69.9951 -44.9971c-44.667 -10.667 -78 6 -100 50c-10 20 -15 45 -15 75c0.666992 32.667 9.66699 59.334 27 80.001s38.666 34.667 63.999 42c47.333 13.333 90.333 5 129 -25c32 -26.667 51 -59.334 57 -98.001
s6 -76.667 0 -114c-12.667 -76.667 -33.5 -152.334 -62.5 -227.001l-84.5 -221h76c10 0 18.667 7 26 21s14 28.333 20 43l18 -7c-14.667 -46 -19.334 -91 -14.001 -135h-127.5h-126.5c19.333 24 39.166 58.833 59.499 104.5s39.666 94.667 57.999 147
s34.666 103.666 48.999 153.999s25.166 92.5 32.499 126.5c4.66699 22.667 7.33398 48 8.00098 76s-9 50.333 -29 67c-20 14 -41.333 17.333 -64 10c-27.333 -8.66699 -41 -26.334 -41 -53.001c-2 -26 3 -38.5 15 -37.5s25.667 9.5 41 25.5z" />
    <glyph glyph-name="three" unicode="3" 
d="M28 760l232 0.998047l15 -56l-84 -105c50 0 79.167 -14.167 87.5 -42.5s9.83301 -69.833 4.5 -124.5c-4.66699 -50 -16.667 -111.667 -36 -185s-52.666 -156 -99.999 -248h-76c50.667 97.333 84.167 183.5 100.5 258.5s26.833 135.833 31.5 182.5
c6 64.667 -6.33301 95.834 -37 93.501s-66 -6.16602 -106 -11.499l101 157l-83 -2c-10 0 -18.833 -7 -26.5 -21s-14.167 -28 -19.5 -42l-17 7c13.333 42 17.666 88 12.999 138z" />
    <glyph glyph-name="four" unicode="4" 
d="M280 93h-63v-41c0 -24.667 8 -42 24 -52h-64.5h-63.5c16.667 10.667 25 28 25 52v40h-123c51.333 98.667 80.5 205.167 87.5 319.5s1.83301 230.5 -15.5 348.5l81 1c11.333 -100 14.5 -201 9.5 -303s-21.5 -197 -49.5 -285h24l29 83h36v-83h13c10 0 18.667 7 26 21
s14 28.333 20 43l19 -7c-11.333 -41.333 -16.333 -87 -15 -137z" />
    <glyph glyph-name="five" unicode="5" 
d="M24 760l235.997 -0.000976562c-5.33301 -50 -0.666016 -96 14.001 -138l-18 -7l-21 42c-7.33301 14 -16 21 -26 21l-83 2l-6 -79c110.667 -8.66699 161.334 -70 152.001 -184c-3.33301 -47.333 -16.333 -105.666 -39 -174.999s-51.667 -150 -87 -242h-86
c37.333 97.333 67.833 181 91.5 251s37.167 127 40.5 171c4.66699 67.333 -33.666 100.666 -114.999 99.999l-43 -1l2 44c2 22 3.5 43.833 4.5 65.5s2.83301 43.834 5.5 66.501c0 12 -2.5 24 -7.5 36s-9.83301 21 -14.5 27z" />
    <glyph glyph-name="six" unicode="6" 
d="M156 762h107c-10.667 -11.333 -26.334 -29.5 -47.001 -54.5s-40.667 -56.167 -60 -93.5c39.333 -3.33301 69 -22.333 89 -57c27.333 -50 37.5 -118.167 30.5 -204.5s-16.167 -153.833 -27.5 -202.5c-23.333 -98.667 -56.666 -148 -99.999 -148
c-44.667 -1.33301 -78.667 48 -102 148c-24 108.667 -29.833 214.667 -17.5 318s54.833 201.333 127.5 294zM125 168l8.99805 -41c2.66699 -12 5.33398 -21.667 8.00098 -29c2.66699 -10 4.33398 -15.5 5.00098 -16.5s2.33398 4.5 5.00098 16.5
c2.66699 7.33301 5.16699 17 7.5 29s5.83301 25.667 10.5 41c7.33301 34.667 15.333 91.5 24 170.5s2.33398 138.5 -18.999 178.5c-6.66699 10.667 -16 16 -28 16c-12.667 0 -21.334 -5.33301 -26.001 -16c-22.667 -40 -29.834 -99.5 -21.501 -178.5
s16.833 -135.833 25.5 -170.5z" />
    <glyph glyph-name="seven" unicode="7" 
d="M275 759c-8 -22.667 -7.33008 -48.668 2.00293 -78.001c-68.667 -38 -107.834 -114 -117.501 -228s-1.5 -265.333 24.5 -454h-81c-40.667 328.667 -18.334 555.334 66.999 680.001h-75c-10 0 -18.833 -7.16699 -26.5 -21.5s-14.167 -28.833 -19.5 -43.5l-17 8
c13.333 42 17.666 87.667 12.999 137h114.5h115.5z" />
    <glyph glyph-name="eight" unicode="8" 
d="M148 613h0.498047h2.5c2 0 5.33301 2.33301 10 7c14 18.667 14 37.667 0 57c-5.33301 5.33301 -9.66602 8 -12.999 8c0 1.33301 -1.83301 0.333008 -5.5 -3l-5.5 -5c-16.667 -19.333 -16.667 -38.333 0 -57l2.5 -3.5c1.66699 -2.33301 3.83398 -3.5 6.50098 -3.5h1h1v0z
M228.998 578c42.667 -50 59.833 -119.999 51.5 -209.999s-18.833 -163.333 -31.5 -220c-22 -98.667 -55.5 -148 -100.5 -148s-78.833 49.333 -101.5 148c-13.333 56.667 -23.5 130 -30.5 220s10.167 160 51.5 210c-21.333 30 -26.5 59.667 -15.5 89s9.83301 60.333 -3.5 93
h99h99c-14 -32.667 -15 -63.334 -3 -92.001s7 -58.667 -15 -90zM175.997 515.001c-8 11.333 -17.3311 17 -27.998 17s-19.334 -5.66699 -26.001 -17c-22.667 -40 -29.834 -99.5 -21.501 -178.5s16.833 -135.5 25.5 -169.5c13.333 -57.333 20.833 -86 22.5 -86
s9.16699 28.667 22.5 86c7.33301 34 15.5 90.5 24.5 169.5s2.5 138.5 -19.5 178.5z" />
    <glyph glyph-name="nine" unicode="9" 
d="M281 641c2.66699 -101.333 1.00098 -169.167 -4.99902 -203.5s-12 -70.5 -18 -108.5s-13.667 -71.833 -23 -101.5s-20.333 -58.834 -33 -87.501c-20.667 -48 -45 -94.667 -73 -140h-95c18 24.667 34.167 51 48.5 79s27.833 56.667 40.5 86c-16 8 -30.667 25 -44 51
c-12 24.667 -22 54.667 -30 90c-6.66699 24 -12.667 72 -18 144s-8.66602 127.333 -9.99902 166c-1.33301 40.667 6.66699 75.834 24 105.501s52.666 44.5 105.999 44.5c87.333 0 130.666 -41.667 129.999 -125zM177.001 667.999c-6.66699 11.333 -15.333 17.001 -26 17.001
c-12.667 0 -22 -5.66699 -28 -17c-11.333 -20 -18.5 -45.333 -21.5 -76s-3.16699 -62.334 -0.5 -95.001c2 -33.333 5.5 -65.333 10.5 -96s10.167 -56 15.5 -76c10 -43.333 21.667 -54 35 -32s23.333 58 30 108c6 48 7.5 100 4.5 156s-9.5 93 -19.5 111z" />
    <glyph glyph-name="colon" unicode=":" horiz-adv-x="180" 
d="M86 269c27.333 0 41 -14.333 41 -43c0 -26.667 -13.667 -40 -41 -40c-28 0 -42 13.333 -42 40c0 28.667 14 43 42 43zM86 81c27.333 0 41 -14 41 -42c0 -26.667 -13.667 -40 -41 -40c-28 0 -42 13.333 -42 40c0 28 14 42 42 42z" />
    <glyph glyph-name="semicolon" unicode=";" horiz-adv-x="146" 
d="M68 -74c-13.333 -4 -26.998 -3.99805 -40.998 0.00195312c22 7.33301 36.333 19.666 43 36.999s9 29.333 7 36c-25.333 0 -39 13 -41 39s12 40.333 42 43c41.333 2.66699 56.666 -19.833 45.999 -67.5s-29.334 -76.834 -56.001 -87.501zM69.002 269.002
c27.333 0 41 -14.333 41 -43c0 -26.667 -13.667 -40 -41 -40c-28 0 -42 13.333 -42 40c0 28.667 14 43 42 43z" />
    <glyph glyph-name="less" unicode="&#x3c;" horiz-adv-x="340" 
d="M28 355l281 158v-86l-208 -117l210 -127v-86l-281 170v3l-2 -2v87z" />
    <glyph glyph-name="equal" unicode="=" horiz-adv-x="329" 
d="M26 183h281v-86h-281v86zM24 355h281v-87h-281v87z" />
    <glyph glyph-name="greater" unicode="&#x3e;" horiz-adv-x="340" 
d="M311 268l-2 2v-3l-281 -170v86l210 127l-208 117v86l281 -158v-87z" />
    <glyph glyph-name="question" unicode="?" horiz-adv-x="278" 
d="M138 612l8.00098 -8.99609l7 -8c-10 -8 -19.333 -14 -28 -18l-8 -2c-20.667 -9.33301 -44.334 -17 -71.001 -23c-4 8.66699 -7 15 -9 19c-7.33301 17.333 -12.5 38.166 -15.5 62.499s-1.83301 44.833 3.5 61.5c7.33301 21.333 24.666 39.666 51.999 54.999
c19.333 7.33301 39.666 11.666 60.999 12.999c22 1.33301 42.667 -1 62 -7c38 -14 60 -45.667 66 -95c0.666992 -20 0.333984 -37.667 -0.999023 -53c-3.33301 -34.667 -11.333 -69.667 -24 -105s-24 -64.333 -34 -87c-34 -73.333 -50.333 -144.333 -49 -213h-41
c-1.33301 52.667 -2.66602 98.167 -3.99902 136.5s8 80.5 28 126.5c8 20 16.667 43.667 26 71s15.333 53.666 18 78.999c1.33301 18 0.333008 34 -3 48s-16.333 20.333 -39 19c-34 -2 -51.167 -20.5 -51.5 -55.5s15.167 -40.167 46.5 -15.5zM147.001 82.0039
c27.333 0 41 -14 41 -42c0 -26.667 -13.667 -40 -41 -40c-28 0 -42 13.333 -42 40c0 28 14 42 42 42z" />
    <glyph glyph-name="at" unicode="@" horiz-adv-x="490" 
d="M383 363c-1.33301 18 -5.16699 35.666 -11.5 52.999s-14.166 33.333 -23.499 48l-9 -201c-2 -27.333 -2.66699 -41.666 -2 -42.999c0 -3.33301 -0.333008 -5.33301 -1 -6c1.33301 0.666992 5.66602 4.66699 12.999 12c13.333 14.667 23 34.5 29 59.5
s7.66699 50.833 5 77.5zM441.999 73.999c-17.333 -20.667 -38.6699 -37.667 -64.0029 -51s-55 -20 -89 -20c-52 0 -98.667 14.333 -140 43s-72.333 67 -93 115c-8 20 -15 41 -21 63s-10.333 43.333 -13 64c-1.33301 8 -2.16602 16.667 -2.49902 26s-0.5 18.333 -0.5 27
c0 34.667 3.33301 65.667 10 93c13.333 58 36 102.333 68 133s74 46 126 46c40 0 76.833 -10.833 110.5 -32.5s61.5 -53.834 83.5 -96.501c19.333 -38 31 -78 35 -120c0.666992 -5.33301 1.16699 -10.666 1.5 -15.999s0.5 -11 0.5 -17c0 -24 -2.66699 -46.667 -8 -68
s-13.333 -42 -24 -62c-24.667 -46 -56.667 -69 -96 -69c-13.333 0 -24.333 2.33301 -33 7s-15.667 10.667 -21 18c-16.667 -16 -34.334 -24.333 -53.001 -25c-11.333 -1.33301 -23.166 1.5 -35.499 8.5s-24 17.167 -35 30.5s-20.5 29.5 -28.5 48.5s-13 39.833 -15 62.5
c-1.33301 16 -1.5 32.333 -0.5 49s3.83301 33.667 8.5 51c10.667 34.667 24.334 61 41.001 79c19.333 19.333 40.333 29 63 29c9.33301 0 18.666 -1.5 27.999 -4.5s18.333 -8.16699 27 -15.5c0 2.66699 0.166992 4.83398 0.5 6.50098s0.5 3.5 0.5 5.5h62
c-14 17.333 -30.5 31.333 -49.5 42s-38.833 15.667 -59.5 15c-28 0 -53.333 -10.5 -76 -31.5s-39.667 -49.167 -51 -84.5c-3.33301 -13.333 -5.66602 -27 -6.99902 -41s-2 -28.667 -2 -44v-21c0 -6.66699 0.666992 -13.667 2 -21c2.66699 -36 9.66699 -67.5 21 -94.5
s25.5 -49.5 42.5 -67.5s36.5 -31.667 58.5 -41s45.333 -14 70 -14c32.667 0 59.834 8.66699 81.501 26s37.5 38.666 47.5 63.999h29v-95zM183.995 281.999c2.66699 -23.333 7.50195 -41.667 14.502 -55s14.167 -20 21.5 -20c10 0 19.667 10.667 29 32
c7.33301 12 12.166 27.5 14.499 46.5s2.83301 38.167 1.5 57.5c-2.66699 23.333 -7.83398 41.333 -15.501 54s-16.167 19 -25.5 19c-10.667 0 -20.334 -11 -29.001 -33h1c-5.33301 -13.333 -9.16602 -29.5 -11.499 -48.5s-2.5 -36.5 -0.5 -52.5z" />
    <glyph glyph-name="A" unicode="A" horiz-adv-x="308" 
d="M94 760h121.998c-13.333 -20 -16.666 -37.333 -9.99902 -52s13.334 -32.334 20.001 -53.001c22 -76 38.833 -159.667 50.5 -251s17.5 -166.666 17.5 -225.999v-178h-81v178c0 12.667 -0.333008 26.334 -1 41.001s-1 30.334 -1 47.001
c-13.333 -4 -30.666 -12.667 -51.999 -26c-26.667 -16 -47.334 -33.333 -62.001 -52v-5v-5v-178h-81v178c0 59.333 5.83301 134.666 17.5 225.999s28.5 175 50.5 251c6 21.333 12.333 39.166 19 53.499s3.66699 31.5 -9 51.5zM100.998 283
c16.667 14.667 31.999 25.999 45.999 33.999c20 12 38.667 21.333 56 28c-4.66699 43.333 -11.167 88 -19.5 134s-18.166 89.667 -29.499 131c-14 -51.333 -25.333 -106.166 -34 -164.499s-15 -112.5 -19 -162.5zM205.997 321.999
c-19.333 -8 -35.001 -15.999 -47.001 -23.999c-23.333 -14.667 -43.666 -30.667 -60.999 -48c0 -12.667 -0.333008 -22 -1 -28c18 15.333 34.667 28 50 38c24.667 14.667 45 24 61 28c-0.666992 5.33301 -1.16699 10.666 -1.5 15.999s-0.5 11.333 -0.5 18z" />
    <glyph glyph-name="B" unicode="B" horiz-adv-x="311" 
d="M212 492c5.33301 -18 10.168 -35.167 14.501 -51.5s9.16602 -32.166 14.499 -47.499c14.667 -52 27.667 -101.833 39 -149.5s14.666 -98.167 9.99902 -151.5c-6 -50 -30 -80.667 -72 -92h-106.5h-106.5c18 7.33301 26.667 26.333 26 57l-5 645c0 26.667 -7 46 -21 58h44
h44c36 0.666992 71.5 -4 106.5 -14s49.5 -40 43.5 -90c-4.66699 -35.333 -9.66699 -66.333 -15 -93s-10.666 -50.334 -15.999 -71.001zM111.002 78c47.333 0 76.335 2.33203 87.002 6.99902c6.66699 0.666992 10 5.66699 10 15c4.66699 44.667 2 88.834 -8 132.501
s-22.333 89.5 -37 137.5c-4.66699 -8 -8.83398 -15.5 -12.501 -22.5l-10.5 -19.5c-6.66699 -10 -13.334 -24.333 -20.001 -43s-10 -40 -10 -64v0zM108.004 439.999c10 22 19.832 50.833 29.499 86.5s18.167 82.167 25.5 139.5c0 6.66699 -5.33301 10.667 -16 12
c-9.33301 1.33301 -22.666 2 -39.999 2z" />
    <glyph glyph-name="C" unicode="C" horiz-adv-x="249" 
d="M214 656c-6 17.333 -17.334 26.001 -34.001 26.001c-33.333 0.666992 -55 -4 -65 -14c-12 -12 -17.833 -35.5 -17.5 -70.5s0.833008 -61.5 1.5 -79.5c4 -87.333 15.667 -177.833 35 -271.5s54.333 -175.834 105 -246.501h-95c-42.667 74.667 -73.167 157.167 -91.5 247.5
s-29.5 179.5 -33.5 267.5c-1.33301 32 -1.16602 68.833 0.500977 110.5s14.5 75.167 38.5 100.5c30 29.333 85 41 165 35z" />
    <glyph glyph-name="D" unicode="D" horiz-adv-x="295" 
d="M7 0c15.333 10 23 27.333 23 52v659c0 16 -6.66699 32.333 -20 49h115c52.667 0 92.334 -13.333 119.001 -40c25.333 -28 37.166 -67.167 35.499 -117.5s-3.83398 -92.833 -6.50098 -127.5c-2.66699 -26.667 -6 -66.5 -10 -119.5s-12.167 -105.833 -24.5 -158.5
s-29.666 -98.667 -51.999 -138s-53.5 -59 -93.5 -59h-86zM110 83c15.333 12 28.001 35.001 38.001 69.001s17.667 71.5 23 112.5s9.5 81.5 12.5 121.5s5.83301 71.667 8.5 95l7 94c3.33301 45.333 -1.33398 74.666 -14.001 87.999c-8.66699 8.66699 -33.667 13.667 -75 15
v-595z" />
    <glyph glyph-name="E" unicode="E" horiz-adv-x="272" 
d="M7 0c15.333 10 23 27.333 23 52v659c0 16 -6.66699 32.333 -20 49h100h134c-4 -51.333 1 -97.333 15 -138l-19 -7c-5.33301 14 -11.833 28 -19.5 42s-16.5 21 -26.5 21h-84v-83h58c16 0 27.333 10.667 34 32l17 -2l-27 -150l-19 3c0.666992 24.667 -6 37 -20 37h-43v-437
h84c10 0 18.833 7 26.5 21s14.167 28.333 19.5 43l19 -7c-14 -42 -19 -87 -15 -135h-119.5h-117.5z" />
    <glyph glyph-name="F" unicode="F" horiz-adv-x="276" 
d="M11 0c15.333 10 23 27.333 23 52v659c0 16 -6.66699 32.333 -20 49h116.5h117.5c-4 -51.333 1 -97.333 15 -138l-19 -7c-5.33301 14 -11.833 28 -19.5 42s-16.5 21 -26.5 21h-84v-83h58c16 0 27.333 10.667 34 32l17 -2l-27 -150l-19 3c0.666992 24.667 -6 37 -20 37h-43
v-463c0 -24.667 8 -42 24 -52h-64h-63z" />
    <glyph glyph-name="G" unicode="G" horiz-adv-x="301" 
d="M284 0l-86.002 -0.00195312c-40 0 -71.667 19.667 -95 59s-40.833 85.333 -52.5 138s-19.5 105.5 -23.5 158.5l-9 119.5c-3.33301 34.667 -5.66602 77.167 -6.99902 127.5s10.667 89.5 36 117.5c26.667 26.667 65.667 40 117 40h62c23.333 0 41.666 -0.666992 54.999 -2
l-10 -106c-6.66699 17.333 -21.667 26 -45 26h-45c-42 -1.33301 -67 -6.33301 -75 -15c-13.333 -13.333 -18.333 -42.666 -15 -87.999l7 -94c2 -23.333 4.33301 -55 7 -95s7 -80.5 13 -121.5s13.833 -78.5 23.5 -112.5s22.834 -57 39.501 -69
c0 72.667 -0.333008 144.667 -1 216s-0.333984 143.333 0.999023 216c-13.333 0 -19.666 -4.16699 -18.999 -12.5s-0.666016 -15.166 -3.99902 -20.499h-17l10 138h22c-2.66699 -15.333 1.33301 -23.333 12 -24s23 -1 37 -1l65 1c-17.333 -15.333 -26 -38 -26 -68v-165v-311
c0 -24.667 7.66699 -42 23 -52z" />
    <glyph glyph-name="H" unicode="H" horiz-adv-x="332" 
d="M12 0c15.333 10 22.999 27.333 22.999 52v659c0 16 -6.66699 32.333 -20 49h100h20c-13.333 -16.667 -20 -33 -20 -49v-84c34.667 10 69 10 103 0v84c0 14.667 -7 31 -21 49h100h21c-14 -18 -21 -34.333 -21 -49v-329.5v-329.5c0 -24 7.66699 -41.333 23 -52h-63.5h-62.5
c16 10.667 24 28 24 52v500c-35.333 12.667 -69.666 13 -102.999 1v-501c0 -24.667 8 -42 24 -52h-64h-63zM217.999 603c-33.333 12 -67.667 12 -103 0v-26c34.667 10 69 9.66699 103 -1v27z" />
    <glyph glyph-name="I" unicode="I" horiz-adv-x="162" 
d="M40 52v263.5v167.5v116v112c0 16 -6.66699 32.333 -20 49h100h20c-13.333 -16.667 -20 -33 -20 -49v-329.5v-329.5c0 -24.667 8 -42 24 -52h-64h-63c15.333 10 23 27.333 23 52z" />
    <glyph glyph-name="J" unicode="J" horiz-adv-x="260" 
d="M146 518c0.666992 26.667 1.16895 53.332 1.50195 79.999s0.5 54 0.5 82l-85 -2c-10 0 -18.833 -7 -26.5 -21s-14.167 -28 -19.5 -42l-17 7c13.333 42 17.666 88 12.999 138h117h118c-14 -18 -21 -34.333 -21 -49c0 -33.333 0.166992 -66.333 0.5 -99
s-0.166992 -65 -1.5 -97c-5.33301 -88 -16.833 -177.167 -34.5 -267.5s-47.834 -172.833 -90.501 -247.5h-95c50 70.667 84.5 152.834 103.5 246.501s31.167 184.167 36.5 271.5z" />
    <glyph glyph-name="K" unicode="K" horiz-adv-x="309" 
d="M11 0c15.333 10 23 27.3271 23 51.9941v659c0 16 -6.66699 32.333 -20 49h100h20c-13.333 -16.667 -20 -33 -20 -49v-381c8 24.667 15 60 21 106s10.333 86.333 13 121c0 12 0.333008 20.333 1 25c2 52 8.66699 94.667 20 128s48 50 110 50
c-2 -24.667 -1.83301 -47.167 0.5 -67.5s6.16602 -41.166 11.499 -62.499l-23 -3c-1.33301 8.66699 -3.66602 19.334 -6.99902 32.001s-8.33301 14.667 -15 6c-10 -13.333 -15.667 -41.666 -17 -84.999c0 -13.333 -0.333008 -22.666 -1 -27.999
c-1.33301 -32.667 -4.33301 -60.667 -9 -84c29.333 -67.333 46.166 -134.166 50.499 -200.499s6.5 -133.5 6.5 -201.5c-1.33301 -8.66699 -1.33301 -20.834 0 -36.501s8 -25.5 20 -29.5h-84c-7.33301 0 -12.166 7.5 -14.499 22.5s-3.5 29.833 -3.5 44.5
c0 44 -0.333008 87.333 -1 130s-4.66699 85.334 -12 128.001c-5.33301 -12 -9.83301 -23 -13.5 -33l-11.5 -30l-28.5 -69c-9 -21.333 -13.5 -40.666 -13.5 -57.999v-83c0 -24.667 8 -42 24 -52h-64h-63z" />
    <glyph glyph-name="L" unicode="L" horiz-adv-x="277" 
d="M12 0c15.333 10 23 27.333 23 52v659c0 16 -6.66699 32.333 -20 49h60h60c-13.333 -16.667 -20 -33 -20 -49v-317v-316h84c10 0 18.833 7 26.5 21s14.167 28.333 19.5 43l19 -7c-14 -42 -19 -87 -15 -135h-119.5h-117.5z" />
    <glyph glyph-name="M" unicode="M" horiz-adv-x="443" 
d="M82 760c41.333 0 72.5 -22.5 93.5 -67.5s35.5 -82.5 43.5 -112.5c12.667 48.667 30.334 90.834 53.001 126.501s50.667 53.5 84 53.5h0.5h2.5v0v0h60c-13.333 -16.667 -20 -33 -20 -49v-659c0 -24.667 8 -42 24 -52h-64h-63c15.333 10 23 27.333 23 52v579
c-10 -28.667 -17.667 -54 -23 -76c-11.333 -42 -19.833 -85 -25.5 -129s-8.83398 -80.667 -9.50098 -110c-1.33301 -6 -2 -15.333 -2 -28h-80c0 4.66699 -0.166992 9.16699 -0.5 13.5s-0.5 9.16602 -0.5 14.499c-1.33301 29.333 -5 66 -11 110s-14 87 -24 129
c-8 28 -16 53 -24 75v-578c0 -24.667 8 -42 24 -52h-64h-63c15.333 10 23 27.333 23 52v659c0 16 -6.66699 32.333 -20 49h30h30c10 0 10 0 0 0s-10 0 0 0h1h2z" />
    <glyph glyph-name="N" unicode="N" horiz-adv-x="366" 
d="M222 0c16.667 10.667 24.999 28 24.999 52v196c0 50 -3.5 98.667 -10.5 146s-18.833 95 -35.5 143c-10 27.333 -21.667 53 -35 77s-27.666 41.667 -42.999 53v-615c0 -24.667 8 -42 24 -52h-64h-63c15.333 10 23 27.333 23 52v659c0 16 -6.66699 32.333 -20 49
c52 2 94.667 -3.66699 128 -17s65.333 -50 96 -110v78c0 14.667 -7 31 -21 49h120c-13.333 -18.667 -20 -35 -20 -49v-331v-328c0 -24.667 8 -42 24 -52h-65h-63z" />
    <glyph glyph-name="O" unicode="O" horiz-adv-x="365" 
d="M184 0c-37.333 0 -56 18.333 -56 55s18.667 55 56 55c38 0 57 -18.333 57 -55s-19 -55 -57 -55zM302 718c21.333 -22 35.334 -51.168 42.001 -87.501s9 -73.833 7 -112.5c-2.66699 -40 -8 -78.333 -16 -115s-15.667 -66.667 -23 -90
c-32.667 -98 -75.334 -147 -128.001 -147c-54 0 -96.667 49 -128 147c-8 24.667 -16.167 55.334 -24.5 92.001s-13.166 75 -14.499 115c-2 38 0 75 6 111s20.333 65 43 87c26.667 28.667 66 43 118 43c51.333 0 90.666 -14.333 117.999 -43zM244.001 661.999
c-11.333 12 -31.334 18 -60.001 18c-28 0 -48.333 -6 -61 -18c-14.667 -14.667 -23.334 -37.834 -26.001 -69.501s-1.33398 -63.834 3.99902 -96.501c3.33301 -34 8.5 -65.833 15.5 -95.5s12.5 -50.5 16.5 -62.5c20 -61.333 37 -92 51 -92c12.667 0 29.334 30.667 50.001 92
c4.66699 12 10.334 32.833 17.001 62.5s12.334 61.5 17.001 95.5c3.33301 32.667 4 64.834 2 96.501s-10.667 54.834 -26 69.501z" />
    <glyph glyph-name="P" unicode="P" horiz-adv-x="258" 
d="M145 238c-6.66699 -10 -13 -24.332 -19 -42.999s-9 -40 -9 -64v-79c0 -24.667 7.66699 -42 23 -52h-64h-63c16 10 24 27.333 24 52l-4 650c-2 27.333 -9 46.666 -21 57.999h43h45c35.333 0.666992 70.5 -4 105.5 -14s49.5 -40 43.5 -90c-6 -66 -15.667 -140.667 -29 -224
s-38.333 -148 -75 -194zM115 351.001c13.333 17.333 25.332 57.833 35.999 121.5s16.667 128.167 18 193.5c0.666992 6.66699 -4.66602 10.667 -15.999 12c-8.66699 1.33301 -22 2 -40 2z" />
    <glyph glyph-name="Q" unicode="Q" horiz-adv-x="359" 
d="M301 718c20.667 -22 34.3291 -51.167 40.9961 -87.5s9.33398 -73.833 8.00098 -112.5c-2.66699 -40 -8.16699 -78.333 -16.5 -115s-16.166 -66.667 -23.499 -90c-22.667 -68.667 -52 -113.667 -88 -135v-126c0 -24 8.33301 -41.333 25 -52h-64h-63
c15.333 10 23 27.333 23 52v125c-36.667 20.667 -66 66 -88 136c-8 23.333 -16.167 53.333 -24.5 90s-13.166 75 -14.499 115c-2 38.667 0 76.167 6 112.5s20.333 65.5 43 87.5c26.667 28.667 65.667 43 117 43c50.667 0 90.334 -14.333 119.001 -43zM221.995 307
c5.33301 13.333 8.99902 23.666 10.999 30.999c3.33301 12 8.66602 32.833 15.999 62.5s13 61.5 17 95.5c4 32.667 4.83301 64.834 2.5 96.501s-10.833 54.834 -25.5 69.501c-13.333 12 -33.666 18 -60.999 18c-28 0 -48 -6 -60 -18
c-14.667 -14.667 -23.334 -37.834 -26.001 -69.501s-2 -63.834 2 -96.501c4.66699 -34 10.334 -65.833 17.001 -95.5s12 -50.5 16 -62.5c2.66699 -6.66699 4.83398 -12.667 6.50098 -18s3.5 -10.333 5.5 -15v205c0 14.667 -6.66699 31.334 -20 50.001h99h21
c-14 -18 -21 -34.667 -21 -50v-203z" />
    <glyph glyph-name="R" unicode="R" horiz-adv-x="309" 
d="M145 238c-6.66699 -10 -12.9971 -24.3301 -18.9971 -42.9971s-9 -40 -9 -64v-79c0 -24.667 7.66699 -42 23 -52h-64h-63c16 10 24 27.333 24 52l-4 650c-2 27.333 -9 46.666 -21 57.999h43h45c35.333 0.666992 70.5 -4 105.5 -14s49.5 -40 43.5 -90
c-2.66699 -30 -5.83398 -62.333 -9.50098 -97s-8.5 -69.334 -14.5 -104.001c26 -65.333 40.833 -130 44.5 -194s5.16699 -129 4.5 -195c0 -8.66699 0.666992 -20.834 2 -36.501s7.66602 -25.5 18.999 -29.5h-83c-8 0 -13 7.5 -15 22.5s-3 29.833 -3 44.5
c0 40 -0.333008 79.833 -1 119.5s-4 79.167 -10 118.5c-10.667 -26 -23.334 -48.333 -38.001 -67zM115.003 351.003c13.333 17.333 25.332 57.833 35.999 121.5s16.667 128.167 18 193.5c0.666992 6.66699 -4.66602 10.667 -15.999 12c-8.66699 1.33301 -22 2 -40 2z" />
    <glyph glyph-name="S" unicode="S" horiz-adv-x="258" 
d="M131 686c-14 0 -21.333 -10.501 -22 -31.501s13 -38.833 41 -53.5c46 -26.667 73.5 -66.5 82.5 -119.5s7.66699 -109.5 -4 -169.5s-29.5 -118.5 -53.5 -175.5s-45.667 -102.5 -65 -136.5h-95c18.667 25.333 40.5 64.333 65.5 117s44.667 107.667 59 165
s19.5 111.5 15.5 162.5s-26 87.833 -66 110.5c-45.333 24 -70.5 64.167 -75.5 120.5s12.167 84.5 51.5 84.5h166v0c-0.666992 -21.333 -1 -41.166 -1 -59.499s2.66699 -37.5 8 -57.5l6 -32l-23 -5c-7.33301 37.333 -13.833 60 -19.5 68s-29.167 12 -70.5 12z" />
    <glyph glyph-name="T" unicode="T" horiz-adv-x="318" 
d="M94 0c16 10 24.001 27.333 24.001 52v626h-43c-10 0 -18.833 -7 -26.5 -21s-14.167 -28 -19.5 -42l-17 7c13.333 42 17.666 88 12.999 138h132h133c-4.66699 -50 0 -96 14 -138l-19 -7c-5.33301 14 -11.833 28 -19.5 42s-16.5 21 -26.5 21h-41v-313.5v-312.5
c0 -24.667 8 -42 24 -52h-65h-63z" />
    <glyph glyph-name="U" unicode="U" horiz-adv-x="311" 
d="M156 760c-2.66699 -45.333 -7.3291 -91.1689 -13.9961 -137.502l-20 -136.5c-10 -60 -18.333 -117.167 -25 -171.5s-8 -100.5 -4 -138.5c2 -32.667 12.333 -58.667 31 -78c5.33301 -6.66699 12.666 -12 21.999 -16c7.33301 -2.66699 14.666 -4 21.999 -4
c7.33301 1.33301 18.333 6 33 14v619c0 14.667 -7.33301 31 -22 49h100h22c-14.667 -18 -22 -34.333 -22 -49v-329.5v-329.5c0 -24 8 -41.333 24 -52c-21.333 0 -27.333 0 -18 0s3.66602 0 -17.001 0c-13.333 -1.33301 -25 4.33398 -35 17.001c-20 -11.333 -39 -17 -57 -17
c-23.333 -2.66699 -44 0 -62 8c-16.667 6.66699 -33.334 18.334 -50.001 35.001c-28.667 32 -45.667 73.333 -51 124c-3.33301 43.333 -1.83301 93.833 4.5 151.5s14.5 117.5 24.5 179.5c11.333 74.667 21 144 29 208c0 8 -3.16699 19 -9.5 33s-13.833 21 -22.5 21h117z" />
    <glyph glyph-name="V" unicode="V" horiz-adv-x="307" 
d="M215 0l-121.999 0.000976562c12.667 18 15.667 34.167 9 48.5s-13 32.166 -19 53.499c-22 75.333 -38.833 158.833 -50.5 250.5s-17.5 167.5 -17.5 227.5v180h81v-180c0 -48 3.33301 -109.5 10 -184.5s22.334 -157.5 47.001 -247.5c26 95.333 42.333 184.166 49 266.499
s10 137.5 10 165.5v180h81v-180c0 -60 -5.83301 -135.833 -17.5 -227.5s-28.5 -175.167 -50.5 -250.5c-6.66699 -21.333 -13.334 -39.166 -20.001 -53.499s-3.33398 -30.5 9.99902 -48.5z" />
    <glyph glyph-name="W" unicode="W" horiz-adv-x="425" 
d="M352 0c-42.667 0 -74.333 22.165 -95 66.498s-35 81.5 -43 111.5c-13.333 -50 -31 -92.167 -53 -126.5s-49.667 -51.5 -83 -51.5h-1h-3v0v0h-60c13.333 13.333 20 29 20 47v658c0 23.333 -7.66699 41.666 -23 54.999h63h64c-16 -13.333 -24 -31.666 -24 -54.999v-579
c6 14.667 14 40.334 24 77.001c10 41.333 18 84 24 128s9.66699 81 11 111c0.666992 6 1 14.667 1 26h82v-13.5v-12.5c1.33301 -30 5 -67 11 -111s14 -86.667 24 -128c5.33301 -23.333 13 -48.666 23 -75.999v578c0 23.333 -7.66699 41.666 -23 54.999h63h64
c-16 -13.333 -24 -31.666 -24 -54.999v-658c0 -18 6.66699 -33.667 20 -47h-30h-30c-10 0 -10 0 0 0s10 0 0 0h-1h-1z" />
    <glyph glyph-name="X" unicode="X" horiz-adv-x="326" 
d="M163 758c-12 -4 -19 -12 -21 -24s-0.666992 -21.667 4 -29c2.66699 -5.33301 5.5 -10 8.5 -14l8.5 -11c3.33301 4.66699 8.33301 13 15 25c4.66699 7.33301 6 17 4 29s-8.33301 20 -19 24zM208 595c28 -61.333 47.498 -124.666 58.498 -189.999
s16.833 -131.333 17.5 -198v-156c0 -10 2.33301 -21 7 -33s12 -18 22 -18h-134c6.66699 0 12.5 6 17.5 18s7.5 23 7.5 33v156c-2 110.667 -15.667 205.334 -41 284.001c-26.667 -78.667 -40.667 -173.334 -42 -284.001l-1 -156c0 -10 2.5 -21 7.5 -33s11.167 -18 18.5 -18
h-133c10 0 17 6 21 18s6 23 6 33l1 156c0 66.667 5.5 132.667 16.5 198s31.167 128.666 60.5 189.999c-15.333 26.667 -31.666 53.334 -48.999 80.001l-56 85h300c-22 -30 -41.667 -58.333 -59 -85s-32.666 -53.334 -45.999 -80.001z" />
    <glyph glyph-name="Y" unicode="Y" horiz-adv-x="258" 
d="M67 0c16 12 24 31.333 24 58v194c0 8.66699 -1.5 15.5 -4.5 20.5s-6.16699 11.167 -9.5 18.5c-20 32.667 -34.667 67.5 -44 104.5s-14.666 75.167 -15.999 114.5c-0.666992 40.667 -0.833984 81.834 -0.500977 123.501s1.16602 83.834 2.49902 126.501h82
c-2.66699 -42 -4.5 -83.667 -5.5 -125s-0.166992 -82 2.5 -122c2.66699 -55.333 13.667 -106 33 -152c18 46 28.667 96.667 32 152c2 40 2.33301 80.667 1 122s-2.33301 83 -3 125h81c0.666992 -42.667 1.66699 -84.834 3 -126.501s0.666016 -82.834 -2.00098 -123.501
c-1.33301 -38.667 -6.66602 -76.667 -15.999 -114s-23.666 -72.333 -42.999 -105l-10.5 -19.5c-3 -5.66699 -4.5 -12.167 -4.5 -19.5v-98.5c0 -5 0 -4.66699 0 1s0 6 0 1v-97.5c0 -26.667 8 -46 24 -58h-63.5h-62.5z" />
    <glyph glyph-name="Z" unicode="Z" horiz-adv-x="272" 
d="M114 240c-1.33301 -28 -2 -55.333 -2 -82v-80h83c10 0 18.833 7.16699 26.5 21.5s14.834 28.833 21.501 43.5l17 -8c-14 -42 -19 -87 -15 -135h-116.5h-116.5c13.333 13.333 20 29 20 47c0 32.667 -0.333008 65.5 -1 98.5s0.333008 65.5 3 97.5
c2.66699 72.667 10.667 146.5 24 221.5s34 146.833 62 215.5l-45 -2c-10 0 -18.833 -7 -26.5 -21s-14.167 -28 -19.5 -42l-17 7c13.333 42 17.666 88 12.999 138h114.5h114.5h6c-57.333 -65.333 -95 -147.833 -113 -247.5s-29 -190.5 -33 -272.5z" />
    <glyph glyph-name="bracketleft" unicode="[" horiz-adv-x="168" 
d="M23 828h130v-36h-50v-811h50v-35h-130v882z" />
    <glyph glyph-name="backslash" unicode="\" horiz-adv-x="231" 
d="M216 -38h-55l-166 829h55z" />
    <glyph glyph-name="bracketright" unicode="]" horiz-adv-x="174" 
d="M144 -54h-130v35h50v811h-50v36h130v-882z" />
    <glyph glyph-name="asciicircum" unicode="^" horiz-adv-x="445" 
d="M258 447l172 -284h-87l-126 210l-117 -207h-87l159 281h86z" />
    <glyph glyph-name="underscore" unicode="_" horiz-adv-x="383" 
d="M0 -65h386v-87h-386v87z" />
    <glyph glyph-name="grave" unicode="`" horiz-adv-x="1041" 
d="M132 808h-72l-107 112h125z" />
    <glyph glyph-name="a" unicode="a" horiz-adv-x="307" 
d="M215 760c-12.667 -20 -15.6689 -37.167 -9.00195 -51.5s13 -32.166 19 -53.499c22 -76 38.833 -159.667 50.5 -251s17.5 -166.666 17.5 -225.999v-178h-81v178v5v5c-14.667 18.667 -35.334 36 -62.001 52c-21.333 13.333 -38.666 22 -51.999 26
c0 -16.667 -0.333008 -32.334 -1 -47.001s-1 -28.334 -1 -41.001v-178h-81v178c0 59.333 5.83301 134.666 17.5 225.999s28.5 175 50.5 251c6.66699 20.667 13.334 38.334 20.001 53.001s3.33398 32 -9.99902 52h122zM207.998 283c-4 50 -10.334 104.168 -19.001 162.501
s-20 113.166 -34 164.499c-11.333 -41.333 -21.166 -85 -29.499 -131s-14.833 -90.667 -19.5 -134c17.333 -6.66699 36 -16 56 -28c14 -8 29.333 -19.333 46 -34zM102.997 322.001c0 -6.66699 -0.167969 -12.668 -0.500977 -18.001s-0.833008 -10.666 -1.5 -15.999
c16 -4 36.333 -13.333 61 -28c15.333 -10 32 -22.667 50 -38c-0.666992 6 -1 15.333 -1 28c-17.333 17.333 -37.666 33.333 -60.999 48c-12 8 -27.667 16 -47 24z" />
    <glyph glyph-name="b" unicode="b" horiz-adv-x="317" 
d="M218 492c5.33301 -18 10.168 -35.167 14.501 -51.5s9.16602 -32.166 14.499 -47.499c14.667 -52 27.667 -101.833 39 -149.5s14.666 -98.167 9.99902 -151.5c-6 -50 -30 -80.667 -72 -92h-106.5h-106.5c18 7.33301 26.667 26.333 26 57l-5 645c0 26.667 -7 46 -21 58h44
h44c36 0.666992 71.5 -4 106.5 -14s49.5 -40 43.5 -90c-4.66699 -35.333 -9.66699 -66.333 -15 -93s-10.666 -50.334 -15.999 -71.001zM117.002 78c47.333 0 76.335 2.33203 87.002 6.99902c6.66699 0.666992 10 5.66699 10 15c4.66699 44.667 2 88.834 -8 132.501
s-22.333 89.5 -37 137.5c-4.66699 -8 -8.83398 -15.5 -12.501 -22.5l-10.5 -19.5c-6.66699 -10 -13.334 -24.333 -20.001 -43s-10 -40 -10 -64v0zM114.004 439.999c10 22 19.832 50.833 29.499 86.5s18.167 82.167 25.5 139.5c0 6.66699 -5.33301 10.667 -16 12
c-9.33301 1.33301 -22.666 2 -39.999 2z" />
    <glyph glyph-name="c" unicode="c" horiz-adv-x="241" 
d="M206 656c-6 17.333 -17.334 26.001 -34.001 26.001c-33.333 0.666992 -55 -4 -65 -14c-12 -12 -17.833 -35.5 -17.5 -70.5s0.833008 -61.5 1.5 -79.5c4 -87.333 15.667 -177.833 35 -271.5s54.333 -175.834 105 -246.501h-95c-42.667 74.667 -73.167 157.167 -91.5 247.5
s-29.5 179.5 -33.5 267.5c-1.33301 32 -1.16602 68.833 0.500977 110.5s14.5 75.167 38.5 100.5c30 29.333 85 41 165 35z" />
    <glyph glyph-name="d" unicode="d" horiz-adv-x="297" 
d="M9 0c15.333 10 23 27.333 23 52v659c0 16 -6.66699 32.333 -20 49h115c52.667 0 92.334 -13.333 119.001 -40c25.333 -28 37.166 -67.167 35.499 -117.5s-3.83398 -92.833 -6.50098 -127.5c-2.66699 -26.667 -6 -66.5 -10 -119.5s-12.167 -105.833 -24.5 -158.5
s-29.666 -98.667 -51.999 -138s-53.5 -59 -93.5 -59h-86zM112 83c15.333 12 28.001 35.001 38.001 69.001s17.667 71.5 23 112.5s9.5 81.5 12.5 121.5s5.83301 71.667 8.5 95l7 94c3.33301 45.333 -1.33398 74.666 -14.001 87.999c-8.66699 8.66699 -33.667 13.667 -75 15
v-595z" />
    <glyph glyph-name="e" unicode="e" horiz-adv-x="277" 
d="M12 0c15.333 10 23 27.333 23 52v659c0 16 -6.66699 32.333 -20 49h100h134c-4 -51.333 1 -97.333 15 -138l-19 -7c-5.33301 14 -11.833 28 -19.5 42s-16.5 21 -26.5 21h-84v-83h58c16 0 27.333 10.667 34 32l17 -2l-27 -150l-19 3c0.666992 24.667 -6 37 -20 37h-43
v-437h84c10 0 18.833 7 26.5 21s14.167 28.333 19.5 43l19 -7c-14 -42 -19 -87 -15 -135h-119.5h-117.5z" />
    <glyph glyph-name="f" unicode="f" horiz-adv-x="269" 
d="M11 0c15.333 10 23 27.333 23 52v659c0 16 -6.66699 32.333 -20 49h116.5h117.5c-4 -51.333 1 -97.333 15 -138l-19 -7c-5.33301 14 -11.833 28 -19.5 42s-16.5 21 -26.5 21h-84v-83h58c16 0 27.333 10.667 34 32l17 -2l-27 -150l-19 3c0.666992 24.667 -6 37 -20 37h-43
v-463c0 -24.667 8 -42 24 -52h-64h-63z" />
    <glyph glyph-name="g" unicode="g" horiz-adv-x="302" 
d="M285 0l-86.002 -0.00195312c-40 0 -71.667 19.667 -95 59s-40.833 85.333 -52.5 138s-19.5 105.5 -23.5 158.5l-9 119.5c-3.33301 34.667 -5.66602 77.167 -6.99902 127.5s10.667 89.5 36 117.5c26.667 26.667 65.667 40 117 40h62c23.333 0 41.666 -0.666992 54.999 -2
l-10 -106c-6.66699 17.333 -21.667 26 -45 26h-45c-42 -1.33301 -67 -6.33301 -75 -15c-13.333 -13.333 -18.333 -42.666 -15 -87.999l7 -94c2 -23.333 4.33301 -55 7 -95s7 -80.5 13 -121.5s13.833 -78.5 23.5 -112.5s22.834 -57 39.501 -69
c0 72.667 -0.333008 144.667 -1 216s-0.333984 143.333 0.999023 216c-13.333 0 -19.666 -4.16699 -18.999 -12.5s-0.666016 -15.166 -3.99902 -20.499h-17l10 138h22c-2.66699 -15.333 1.33301 -23.333 12 -24s23 -1 37 -1l65 1c-17.333 -15.333 -26 -38 -26 -68v-165v-311
c0 -24.667 7.66699 -42 23 -52z" />
    <glyph glyph-name="h" unicode="h" horiz-adv-x="326" 
d="M8 0c15.333 10 22.999 27.333 22.999 52v659c0 16 -6.66699 32.333 -20 49h100h20c-13.333 -16.667 -20 -33 -20 -49v-84c34.667 10 69 10 103 0v84c0 14.667 -7 31 -21 49h100h21c-14 -18 -21 -34.333 -21 -49v-329.5v-329.5c0 -24 7.66699 -41.333 23 -52h-63.5h-62.5
c16 10.667 24 28 24 52v500c-35.333 12.667 -69.666 13 -102.999 1v-501c0 -24.667 8 -42 24 -52h-64h-63zM213.999 603c-33.333 12 -67.667 12 -103 0v-26c34.667 10 69 9.66699 103 -1v27z" />
    <glyph glyph-name="i" unicode="i" horiz-adv-x="157" 
d="M36 52v263.5v167.5v116v112c0 16 -6.66699 32.333 -20 49h100h20c-13.333 -16.667 -20 -33 -20 -49v-329.5v-329.5c0 -24.667 8 -42 24 -52h-64h-63c15.333 10 23 27.333 23 52z" />
    <glyph glyph-name="j" unicode="j" horiz-adv-x="271" 
d="M157 518c0.666992 26.667 1.16895 53.332 1.50195 79.999s0.5 54 0.5 82l-85 -2c-10 0 -18.833 -7 -26.5 -21s-14.167 -28 -19.5 -42l-17 7c13.333 42 17.666 88 12.999 138h117h118c-14 -18 -21 -34.333 -21 -49c0 -33.333 0.166992 -66.333 0.5 -99
s-0.166992 -65 -1.5 -97c-5.33301 -88 -16.833 -177.167 -34.5 -267.5s-47.834 -172.833 -90.501 -247.5h-95c50 70.667 84.5 152.834 103.5 246.501s31.167 184.167 36.5 271.5z" />
    <glyph glyph-name="k" unicode="k" horiz-adv-x="305" 
d="M7 0c15.333 10 23 27.3271 23 51.9941v659c0 16 -6.66699 32.333 -20 49h100h20c-13.333 -16.667 -20 -33 -20 -49v-381c8 24.667 15 60 21 106s10.333 86.333 13 121c0 12 0.333008 20.333 1 25c2 52 8.66699 94.667 20 128s48 50 110 50
c-2 -24.667 -1.83301 -47.167 0.5 -67.5s6.16602 -41.166 11.499 -62.499l-23 -3c-1.33301 8.66699 -3.66602 19.334 -6.99902 32.001s-8.33301 14.667 -15 6c-10 -13.333 -15.667 -41.666 -17 -84.999c0 -13.333 -0.333008 -22.666 -1 -27.999
c-1.33301 -32.667 -4.33301 -60.667 -9 -84c29.333 -67.333 46.166 -134.166 50.499 -200.499s6.5 -133.5 6.5 -201.5c-1.33301 -8.66699 -1.33301 -20.834 0 -36.501s8 -25.5 20 -29.5h-84c-7.33301 0 -12.166 7.5 -14.499 22.5s-3.5 29.833 -3.5 44.5
c0 44 -0.333008 87.333 -1 130s-4.66699 85.334 -12 128.001c-5.33301 -12 -9.83301 -23 -13.5 -33l-11.5 -30l-28.5 -69c-9 -21.333 -13.5 -40.666 -13.5 -57.999v-83c0 -24.667 8 -42 24 -52h-64h-63z" />
    <glyph glyph-name="l" unicode="l" horiz-adv-x="274" 
d="M9 0c15.333 10 23 27.333 23 52v659c0 16 -6.66699 32.333 -20 49h60h60c-13.333 -16.667 -20 -33 -20 -49v-317v-316h84c10 0 18.833 7 26.5 21s14.167 28.333 19.5 43l19 -7c-14 -42 -19 -87 -15 -135h-119.5h-117.5z" />
    <glyph glyph-name="m" unicode="m" horiz-adv-x="433" 
d="M78 760c41.333 0 72.5 -22.5 93.5 -67.5s35.5 -82.5 43.5 -112.5c12.667 48.667 30.334 90.834 53.001 126.501s50.667 53.5 84 53.5h0.5h2.5v0v0h60c-13.333 -16.667 -20 -33 -20 -49v-659c0 -24.667 8 -42 24 -52h-64h-63c15.333 10 23 27.333 23 52v579
c-10 -28.667 -17.667 -54 -23 -76c-11.333 -42 -19.833 -85 -25.5 -129s-8.83398 -80.667 -9.50098 -110c-1.33301 -6 -2 -15.333 -2 -28h-80c0 4.66699 -0.166992 9.16699 -0.5 13.5s-0.5 9.16602 -0.5 14.499c-1.33301 29.333 -5 66 -11 110s-14 87 -24 129
c-8 28 -16 53 -24 75v-578c0 -24.667 8 -42 24 -52h-64h-63c15.333 10 23 27.333 23 52v659c0 16 -6.66699 32.333 -20 49h30h30c10 0 10 0 0 0s-10 0 0 0h1h2z" />
    <glyph glyph-name="n" unicode="n" horiz-adv-x="355" 
d="M214 0c16.667 10.667 24.999 28 24.999 52v196c0 50 -3.5 98.667 -10.5 146s-18.833 95 -35.5 143c-10 27.333 -21.667 53 -35 77s-27.666 41.667 -42.999 53v-615c0 -24.667 8 -42 24 -52h-64h-63c15.333 10 23 27.333 23 52v659c0 16 -6.66699 32.333 -20 49
c52 2 94.667 -3.66699 128 -17s65.333 -50 96 -110v78c0 14.667 -7 31 -21 49h120c-13.333 -18.667 -20 -35 -20 -49v-331v-328c0 -24.667 8 -42 24 -52h-65h-63z" />
    <glyph glyph-name="o" unicode="o" horiz-adv-x="361" 
d="M180 0c-37.333 0 -56 18.333 -56 55s18.667 55 56 55c38 0 57 -18.333 57 -55s-19 -55 -57 -55zM298 718c21.333 -22 35.334 -51.168 42.001 -87.501s9 -73.833 7 -112.5c-2.66699 -40 -8 -78.333 -16 -115s-15.667 -66.667 -23 -90
c-32.667 -98 -75.334 -147 -128.001 -147c-54 0 -96.667 49 -128 147c-8 24.667 -16.167 55.334 -24.5 92.001s-13.166 75 -14.499 115c-2 38 0 75 6 111s20.333 65 43 87c26.667 28.667 66 43 118 43c51.333 0 90.666 -14.333 117.999 -43zM240.001 661.999
c-11.333 12 -31.334 18 -60.001 18c-28 0 -48.333 -6 -61 -18c-14.667 -14.667 -23.334 -37.834 -26.001 -69.501s-1.33398 -63.834 3.99902 -96.501c3.33301 -34 8.5 -65.833 15.5 -95.5s12.5 -50.5 16.5 -62.5c20 -61.333 37 -92 51 -92c12.667 0 29.334 30.667 50.001 92
c4.66699 12 10.334 32.833 17.001 62.5s12.334 61.5 17.001 95.5c3.33301 32.667 4 64.834 2 96.501s-10.667 54.834 -26 69.501z" />
    <glyph glyph-name="p" unicode="p" horiz-adv-x="264" 
d="M148 238c-6.66699 -10 -13 -24.332 -19 -42.999s-9 -40 -9 -64v-79c0 -24.667 7.66699 -42 23 -52h-64h-63c16 10 24 27.333 24 52l-4 650c-2 27.333 -9 46.666 -21 57.999h43h45c35.333 0.666992 70.5 -4 105.5 -14s49.5 -40 43.5 -90c-6 -66 -15.667 -140.667 -29 -224
s-38.333 -148 -75 -194zM118 351.001c13.333 17.333 25.332 57.833 35.999 121.5s16.667 128.167 18 193.5c0.666992 6.66699 -4.66602 10.667 -15.999 12c-8.66699 1.33301 -22 2 -40 2z" />
    <glyph glyph-name="q" unicode="q" horiz-adv-x="358" 
d="M297 718c20.667 -22 34.3291 -51.167 40.9961 -87.5s9.33398 -73.833 8.00098 -112.5c-2.66699 -40 -8.16699 -78.333 -16.5 -115s-16.166 -66.667 -23.499 -90c-22.667 -68.667 -52 -113.667 -88 -135v-126c0 -24 8.33301 -41.333 25 -52h-64h-63
c15.333 10 23 27.333 23 52v125c-36.667 20.667 -66 66 -88 136c-8 23.333 -16.167 53.333 -24.5 90s-13.166 75 -14.499 115c-2 38.667 0 76.167 6 112.5s20.333 65.5 43 87.5c26.667 28.667 65.667 43 117 43c50.667 0 90.334 -14.333 119.001 -43zM217.995 307
c5.33301 13.333 8.99902 23.666 10.999 30.999c3.33301 12 8.66602 32.833 15.999 62.5s13 61.5 17 95.5c4 32.667 4.83301 64.834 2.5 96.501s-10.833 54.834 -25.5 69.501c-13.333 12 -33.666 18 -60.999 18c-28 0 -48 -6 -60 -18
c-14.667 -14.667 -23.334 -37.834 -26.001 -69.501s-2 -63.834 2 -96.501c4.66699 -34 10.334 -65.833 17.001 -95.5s12 -50.5 16 -62.5c2.66699 -6.66699 4.83398 -12.667 6.50098 -18s3.5 -10.333 5.5 -15v205c0 14.667 -6.66699 31.334 -20 50.001h99h21
c-14 -18 -21 -34.667 -21 -50v-203z" />
    <glyph glyph-name="r" unicode="r" horiz-adv-x="298" 
d="M144 238c-6.66699 -10 -12.9971 -24.3301 -18.9971 -42.9971s-9 -40 -9 -64v-79c0 -24.667 7.66699 -42 23 -52h-64h-63c16 10 24 27.333 24 52l-4 650c-2 27.333 -9 46.666 -21 57.999h43h45c35.333 0.666992 70.5 -4 105.5 -14s49.5 -40 43.5 -90
c-2.66699 -30 -5.83398 -62.333 -9.50098 -97s-8.5 -69.334 -14.5 -104.001c26 -65.333 40.833 -130 44.5 -194s5.16699 -129 4.5 -195c0 -8.66699 0.666992 -20.834 2 -36.501s7.66602 -25.5 18.999 -29.5h-83c-8 0 -13 7.5 -15 22.5s-3 29.833 -3 44.5
c0 40 -0.333008 79.833 -1 119.5s-4 79.167 -10 118.5c-10.667 -26 -23.334 -48.333 -38.001 -67zM114.003 351.003c13.333 17.333 25.332 57.833 35.999 121.5s16.667 128.167 18 193.5c0.666992 6.66699 -4.66602 10.667 -15.999 12c-8.66699 1.33301 -22 2 -40 2z" />
    <glyph glyph-name="s" unicode="s" horiz-adv-x="258" 
d="M131 686c-14 0 -21.333 -10.501 -22 -31.501s13 -38.833 41 -53.5c46 -26.667 73.5 -66.5 82.5 -119.5s7.66699 -109.5 -4 -169.5s-29.5 -118.5 -53.5 -175.5s-45.667 -102.5 -65 -136.5h-95c18.667 25.333 40.5 64.333 65.5 117s44.667 107.667 59 165
s19.5 111.5 15.5 162.5s-26 87.833 -66 110.5c-45.333 24 -70.5 64.167 -75.5 120.5s12.167 84.5 51.5 84.5h166v0c-0.666992 -21.333 -1 -41.166 -1 -59.499s2.66699 -37.5 8 -57.5l6 -32l-23 -5c-7.33301 37.333 -13.833 60 -19.5 68s-29.167 12 -70.5 12z" />
    <glyph glyph-name="t" unicode="t" horiz-adv-x="313" 
d="M94 0c16 10 24.001 27.333 24.001 52v626h-43c-10 0 -18.833 -7 -26.5 -21s-14.167 -28 -19.5 -42l-17 7c13.333 42 17.666 88 12.999 138h132h133c-4.66699 -50 0 -96 14 -138l-19 -7c-5.33301 14 -11.833 28 -19.5 42s-16.5 21 -26.5 21h-41v-313.5v-312.5
c0 -24.667 8 -42 24 -52h-65h-63z" />
    <glyph glyph-name="u" unicode="u" horiz-adv-x="313" 
d="M157 760c-2.66699 -45.333 -7.3291 -91.1689 -13.9961 -137.502l-20 -136.5c-10 -60 -18.333 -117.167 -25 -171.5s-8 -100.5 -4 -138.5c2 -32.667 12.333 -58.667 31 -78c5.33301 -6.66699 12.666 -12 21.999 -16c7.33301 -2.66699 14.666 -4 21.999 -4
c7.33301 1.33301 18.333 6 33 14v619c0 14.667 -7.33301 31 -22 49h100h22c-14.667 -18 -22 -34.333 -22 -49v-329.5v-329.5c0 -24 8 -41.333 24 -52c-21.333 0 -27.333 0 -18 0s3.66602 0 -17.001 0c-13.333 -1.33301 -25 4.33398 -35 17.001c-20 -11.333 -39 -17 -57 -17
c-23.333 -2.66699 -44 0 -62 8c-16.667 6.66699 -33.334 18.334 -50.001 35.001c-28.667 32 -45.667 73.333 -51 124c-3.33301 43.333 -1.83301 93.833 4.5 151.5s14.5 117.5 24.5 179.5c11.333 74.667 21 144 29 208c0 8 -3.16699 19 -9.5 33s-13.833 21 -22.5 21h117z" />
    <glyph glyph-name="v" unicode="v" horiz-adv-x="305" 
d="M213 0l-121.999 0.000976562c12.667 18 15.667 34.167 9 48.5s-13 32.166 -19 53.499c-22 75.333 -38.833 158.833 -50.5 250.5s-17.5 167.5 -17.5 227.5v180h81v-180c0 -48 3.33301 -109.5 10 -184.5s22.334 -157.5 47.001 -247.5c26 95.333 42.333 184.166 49 266.499
s10 137.5 10 165.5v180h81v-180c0 -60 -5.83301 -135.833 -17.5 -227.5s-28.5 -175.167 -50.5 -250.5c-6.66699 -21.333 -13.334 -39.166 -20.001 -53.499s-3.33398 -30.5 9.99902 -48.5z" />
    <glyph glyph-name="w" unicode="w" horiz-adv-x="423" 
d="M350 0c-42.667 0 -74.333 22.165 -95 66.498s-35 81.5 -43 111.5c-13.333 -50 -31 -92.167 -53 -126.5s-49.667 -51.5 -83 -51.5h-1h-3v0v0h-60c13.333 13.333 20 29 20 47v658c0 23.333 -7.66699 41.666 -23 54.999h63h64c-16 -13.333 -24 -31.666 -24 -54.999v-579
c6 14.667 14 40.334 24 77.001c10 41.333 18 84 24 128s9.66699 81 11 111c0.666992 6 1 14.667 1 26h82v-13.5v-12.5c1.33301 -30 5 -67 11 -111s14 -86.667 24 -128c5.33301 -23.333 13 -48.666 23 -75.999v578c0 23.333 -7.66699 41.666 -23 54.999h63h64
c-16 -13.333 -24 -31.666 -24 -54.999v-658c0 -18 6.66699 -33.667 20 -47h-30h-30c-10 0 -10 0 0 0s10 0 0 0h-1h-1z" />
    <glyph glyph-name="x" unicode="x" horiz-adv-x="321" 
d="M159 758c-12 -4 -19 -12 -21 -24s-0.666992 -21.667 4 -29c2.66699 -5.33301 5.5 -10 8.5 -14l8.5 -11c3.33301 4.66699 8.33301 13 15 25c4.66699 7.33301 6 17 4 29s-8.33301 20 -19 24zM204 595c28 -61.333 47.498 -124.666 58.498 -189.999
s16.833 -131.333 17.5 -198v-156c0 -10 2.33301 -21 7 -33s12 -18 22 -18h-134c6.66699 0 12.5 6 17.5 18s7.5 23 7.5 33v156c-2 110.667 -15.667 205.334 -41 284.001c-26.667 -78.667 -40.667 -173.334 -42 -284.001l-1 -156c0 -10 2.5 -21 7.5 -33s11.167 -18 18.5 -18
h-133c10 0 17 6 21 18s6 23 6 33l1 156c0 66.667 5.5 132.667 16.5 198s31.167 128.666 60.5 189.999c-15.333 26.667 -31.666 53.334 -48.999 80.001l-56 85h300c-22 -30 -41.667 -58.333 -59 -85s-32.666 -53.334 -45.999 -80.001z" />
    <glyph glyph-name="y" unicode="y" horiz-adv-x="255" 
d="M64 0c16 12 24 31.333 24 58v194c0 8.66699 -1.5 15.5 -4.5 20.5s-6.16699 11.167 -9.5 18.5c-20 32.667 -34.667 67.5 -44 104.5s-14.666 75.167 -15.999 114.5c-0.666992 40.667 -0.833984 81.834 -0.500977 123.501s1.16602 83.834 2.49902 126.501h82
c-2.66699 -42 -4.5 -83.667 -5.5 -125s-0.166992 -82 2.5 -122c2.66699 -55.333 13.667 -106 33 -152c18 46 28.667 96.667 32 152c2 40 2.33301 80.667 1 122s-2.33301 83 -3 125h81c0.666992 -42.667 1.66699 -84.834 3 -126.501s0.666016 -82.834 -2.00098 -123.501
c-1.33301 -38.667 -6.66602 -76.667 -15.999 -114s-23.666 -72.333 -42.999 -105l-10.5 -19.5c-3 -5.66699 -4.5 -12.167 -4.5 -19.5v-98.5c0 -5 0 -4.66699 0 1s0 6 0 1v-97.5c0 -26.667 8 -46 24 -58h-63.5h-62.5z" />
    <glyph glyph-name="z" unicode="z" horiz-adv-x="275" 
d="M117 240c-1.33301 -28 -2 -55.333 -2 -82v-80h83c10 0 18.833 7.16699 26.5 21.5s14.834 28.833 21.501 43.5l17 -8c-14 -42 -19 -87 -15 -135h-116.5h-116.5c13.333 13.333 20 29 20 47c0 32.667 -0.333008 65.5 -1 98.5s0.333008 65.5 3 97.5
c2.66699 72.667 10.667 146.5 24 221.5s34 146.833 62 215.5l-45 -2c-10 0 -18.833 -7 -26.5 -21s-14.167 -28 -19.5 -42l-17 7c13.333 42 17.666 88 12.999 138h114.5h114.5h6c-57.333 -65.333 -95 -147.833 -113 -247.5s-29 -190.5 -33 -272.5z" />
    <glyph glyph-name="braceleft" unicode="{" horiz-adv-x="148" 
d="M129 3c-41.333 0 -69.5 7.50098 -84.5 22.501s-22.833 33.833 -23.5 56.5c0 14 4 59 12 135s11.333 117 10 123c-2 -1.33301 -10.333 -2 -25 -2v84c16.667 0 25 -0.666992 25 -2c1.33301 5.33301 -2 46.166 -10 122.499s-12 121.5 -12 135.5
c0.666992 22.667 8.5 41.5 23.5 56.5s43.167 22.5 84.5 22.5v-81c-18 0 -27 0.333008 -27 1c0 -6 3.66699 -47.667 11 -125s11 -122 11 -134c0 -14 -3 -26.667 -9 -38c6 -11.333 9 -24 9 -38c0 -11.333 -3.66699 -55.833 -11 -133.5s-11 -119.5 -11 -125.5
c0 1.33301 8.33301 2 25 2z" />
    <glyph glyph-name="bar" unicode="|" horiz-adv-x="137" 
d="M31 828h80v-882h-80v882z" />
    <glyph glyph-name="braceright" unicode="}" horiz-adv-x="144" 
d="M17 85c16.667 0 24.999 -0.667969 24.999 -2.00098c0 6 -4 47.833 -12 125.5s-12 122.167 -12 133.5c0 14 3 26.667 9 38c-6 11.333 -9 24 -9 38c0 12 4 56.667 12 134s12 119 12 125c0 -0.666992 -8.66699 -1 -26 -1v81c40.667 0 68.5 -7.5 83.5 -22.5
s22.833 -33.833 23.5 -56.5c0 -14 -4.33301 -59.167 -13 -135.5s-12 -117.166 -10 -122.499c0 1.33301 8.33301 2 25 2v-84c-15.333 0 -23.666 0.666992 -24.999 2c-2 -6 1.66699 -47 11 -123c8 -76 12 -121 12 -135c-0.666992 -22.667 -8.5 -41.5 -23.5 -56.5
s-42.833 -22.5 -83.5 -22.5z" />
    <glyph glyph-name="asciitilde" unicode="~" horiz-adv-x="308" 
d="M28 375c0 40.667 7.16602 68.5 21.499 83.5s32.833 22.833 55.5 23.5c14 0 35.333 -5 64 -15c18 -7.33301 30 -10.333 36 -9c-1.33301 0 -2 8.33301 -2 25l80 2c0 -42 -7.16699 -70.5 -21.5 -85.5s-32.833 -22.5 -55.5 -22.5c-11.333 0 -22.166 1.5 -32.499 4.5
s-20.5 6.16699 -30.5 9.5c-18.667 6.66699 -31 10 -37 10c1.33301 0 2 -8.33301 2 -25z" />
    <glyph glyph-name="exclamdown" unicode="&#xa1;" horiz-adv-x="124" 
d="M61 682c-28.667 0 -43 13.667 -43 41c0 28.667 14.333 43 43 43c26.667 0 40 -14.333 40 -43c0 -27.333 -13.333 -41 -40 -41zM99 3h-38h-42c0 94.667 0.333008 188 1 280s7 184.333 19 277h22h20c12 -92.667 18 -185 18 -277v-280z" />
    <glyph glyph-name="cent" unicode="&#xa2;" horiz-adv-x="310" 
d="M135 649h59v-65c13.333 -2.66699 25.5 -6.83398 36.5 -12.501s20.667 -13.5 29 -23.5s15 -22.667 20 -38s7.83301 -33.666 8.5 -54.999l-61 5c-1.33301 19.333 -4.83301 31.833 -10.5 37.5s-13.167 8.83398 -22.5 9.50098v-218c4.66699 9.33301 8.83398 20.333 12.501 33
s7.16699 26 10.5 40l52 -42c-8.66699 -28 -19.334 -53.333 -32.001 -76s-27 -39.667 -43 -51v-71h-59v62c-16 6.66699 -31 19.167 -45 37.5s-26 40 -36 65s-18 51.5 -24 79.5s-9 54.667 -9 80s3 46.5 9 63.5s14 31 24 42s22 19.167 36 24.5s29 8.66602 45 9.99902v63z
M93 448c0 -11.333 1.16602 -23.832 3.49902 -37.499s5.33301 -27.5 9 -41.5s8 -27.333 13 -40s10.5 -23.667 16.5 -33v211c-11.333 -1.33301 -21.166 -5.83301 -29.499 -13.5s-12.5 -22.834 -12.5 -45.501z" />
    <glyph glyph-name="sterling" unicode="&#xa3;" horiz-adv-x="279" 
d="M171 210l-51 0.00195312c0 -16.667 -0.333008 -33 -1 -49v-81l85 1c10 0 18.833 7 26.5 21s14.167 28.333 19.5 43l17 -8c-13.333 -41.333 -17.666 -87 -12.999 -137h-235c14 17.333 21 33.333 21 48c0 33.333 -0.333008 66.333 -1 99v63h-24v66h27
c6 77.333 17 155.666 33 234.999c18 90.667 48.333 173.667 91 249h95c-50 -71.333 -84.667 -154 -104 -248c-16.667 -80.667 -28.334 -159.334 -35.001 -236.001h49v-66z" />
    <glyph glyph-name="currency" unicode="&#xa4;" horiz-adv-x="397" 
d="M297 298c-30 -21.333 -63.001 -31.667 -99.001 -31s-68.667 12.667 -98 36l-55 -57l-34 33l57 58c-19.333 28.667 -29 60 -29 94s10.333 65 31 93l-59 59l32 34l59 -58c28 21.333 59.5 32.5 94.5 33.5s67.167 -8.5 96.5 -28.5l52 54l34 -33l-51 -52
c23.333 -30 35.333 -63.667 36 -101s-10.666 -71 -33.999 -101l50 -50l-32 -34zM84.999 429.999c0 -16 3 -31 9 -45s14.333 -26.333 25 -37s23 -19 37 -25s29 -9 45 -9s31 3 45 9s26.333 14.333 37 25s19 23 25 37s9 29 9 45s-3 31 -9 45s-14.333 26.333 -25 37
s-23 19 -37 25s-29 9 -45 9s-31 -3 -45 -9s-26.333 -14.333 -37 -25s-19 -23 -25 -37s-9 -29 -9 -45z" />
    <glyph glyph-name="yen" unicode="&#xa5;" horiz-adv-x="254" 
d="M215 193h-50v-35h50v-37h-50v-63c0 -26.667 8 -46 24 -58h-126c16 12 24 31.333 24 58v63h-47v37h47v35h-47v38h47v21c0 8.66699 -1.5 15.5 -4.5 20.5s-6.16699 11.167 -9.5 18.5c-20 32.667 -34.667 67.5 -44 104.5s-14.666 75.167 -15.999 114.5
c-0.666992 40.667 -0.833984 81.834 -0.500977 123.501s1.16602 83.834 2.49902 126.501h82c-2.66699 -42 -4.5 -83.667 -5.5 -125s-0.166992 -82 2.5 -122c2.66699 -55.333 13.667 -106 33 -152c18 46 28.667 96.667 32 152c2 40 2.33301 80.667 1 122s-2.33301 83 -3 125
h81c0.666992 -42.667 1.66699 -84.834 3 -126.501s0.666016 -82.834 -2.00098 -123.501c-1.33301 -38.667 -6.66602 -76.667 -15.999 -114s-23.666 -72.333 -42.999 -105l-10.5 -19.5c-3 -5.66699 -4.5 -12.167 -4.5 -19.5v-21h50v-38z" />
    <glyph glyph-name="brokenbar" unicode="&#xa6;" horiz-adv-x="128" 
d="M23 823h80v-405h-80v405zM23 351h80v-405h-80v405z" />
    <glyph glyph-name="section" unicode="&#xa7;" horiz-adv-x="325" 
d="M30 392c0 15.333 0.998047 31.165 2.99805 47.498s5.16699 32 9.5 47s9.83301 28.833 16.5 41.5s14.667 23.334 24 32.001c-39.333 24.667 -61.333 63 -66 115c-4.66699 56.667 12.666 85 51.999 85h166c-0.666992 -21.333 -1 -41.166 -1 -59.499s2.66699 -37.5 8 -57.5
l6 -32l-23 -5c-7.33301 37.333 -13.833 60 -19.5 68s-29.167 12 -70.5 12c-14 0 -21.333 -10.5 -22 -31.5s13 -38.833 41 -53.5c16.667 -10 31 -21.333 43 -34c14.667 -8 28.834 -18.667 42.501 -32s25.667 -27.833 36 -43.5s18.5 -32 24.5 -49s9 -33.833 9 -50.5
c0 -14 -3.16699 -29.333 -9.5 -46s-14.5 -33 -24.5 -49s-21 -31.5 -33 -46.5s-23.667 -27.833 -35 -38.5c-8.66699 -26 -18 -51.333 -28 -76c-24 -56.667 -45.667 -102 -65 -136h-95c18.667 25.333 40.334 64.333 65.001 117c14.667 30.667 27.334 62 38.001 94
c-26.667 28 -48.667 55.833 -66 83.5s-26 60.167 -26 97.5zM98.998 398.999c0 -10.667 2 -22.5 6 -35.5s9.5 -25 16.5 -36s14.833 -20.167 23.5 -27.5s18 -11 28 -11s19 3.66699 27 11s14.833 16.5 20.5 27.5s10.167 23 13.5 36s5 24.833 5 35.5s-2.66699 21.834 -8 33.501
s-12.333 22.167 -21 31.5s-18 17.166 -28 23.499s-20 9.5 -30 9.5s-18.333 -3.16699 -25 -9.5s-12 -14.166 -16 -23.499s-7 -19.833 -9 -31.5s-3 -22.834 -3 -33.501z" />
    <glyph glyph-name="dieresis" unicode="&#xa8;" horiz-adv-x="0" 
d="M158 826c0 11.333 3.83301 21 11.5 29s16.834 12 27.501 12s19.834 -4 27.501 -12s11.5 -17.667 11.5 -29s-3.83301 -20.833 -11.5 -28.5s-16.834 -11.5 -27.501 -11.5s-19.834 3.83301 -27.501 11.5s-11.5 17.167 -11.5 28.5zM20 826c0 11.333 3.66699 21 11 29
s16.333 12 27 12c11.333 0 20.666 -4 27.999 -12s11 -17.667 11 -29s-3.66699 -20.833 -11 -28.5s-16.666 -11.5 -27.999 -11.5c-10.667 0 -19.667 3.83301 -27 11.5s-11 17.167 -11 28.5z" />
    <glyph glyph-name="copyright" unicode="&#xa9;" horiz-adv-x="382" 
d="M22 382c0 52.667 4.5 102 13.5 148s21.333 86.167 37 120.5s33.834 61.333 54.501 81s43 29.5 67 29.5s46.333 -9.83301 67 -29.5s38.834 -46.667 54.501 -81s28 -74.5 37 -120.5s13.5 -95.333 13.5 -148c0 -52 -4.5 -101 -13.5 -147s-21.333 -86.167 -37 -120.5
s-33.834 -61.333 -54.501 -81s-43 -29.5 -67 -29.5s-46.333 9.83301 -67 29.5s-38.834 46.667 -54.501 81s-28 74.5 -37 120.5s-13.5 95 -13.5 147zM48 384c0 -48 3.83301 -93.167 11.5 -135.5s18 -79.333 31 -111s28.5 -56.5 46.5 -74.5s37 -27 57 -27s39 9 57 27
s33.667 42.833 47 74.5s23.833 68.667 31.5 111s11.5 87.5 11.5 135.5s-3.83301 93.167 -11.5 135.5s-18.167 79.166 -31.5 110.499s-29 56.166 -47 74.499s-37 27.5 -57 27.5s-39 -9.16699 -57 -27.5s-33.5 -43.166 -46.5 -74.499s-23.333 -68.166 -31 -110.499
s-11.5 -87.5 -11.5 -135.5zM244 575c-4 12 -11.998 18.002 -23.998 18.002c-24 0.666992 -39.333 -2.66602 -46 -9.99902c-8.66699 -8.66699 -12.834 -25.334 -12.501 -50.001s0.5 -43.667 0.5 -57c3.33301 -62 11.833 -126.333 25.5 -193s38.5 -125.334 74.5 -176.001h-68
c-30 53.333 -51.5 112.166 -64.5 176.499s-21.167 127.833 -24.5 190.5c-0.666992 22.667 -0.5 49 0.5 79s10.167 54 27.5 72c21.333 20.667 60.666 29 117.999 25z" />
    <glyph glyph-name="ordfeminine" unicode="&#xaa;" horiz-adv-x="260" 
d="M22 544l2.99805 10.999c34 62.667 68.333 94 103 94c14.667 0 28.334 -6 41.001 -18c-1.33301 16 -5.66602 27.667 -12.999 35c-6 6 -16 9 -30 9s-24 -3 -30 -9c-4.66699 -4.66699 -8 -10.667 -10 -18l-67 -3c0.666992 10.667 2 21 4 31c4 23.333 13.333 42.333 28 57
c16.667 18.667 42 28 76 28c33.333 0 59 -9.33301 77 -28c14 -14.667 23.333 -33.667 28 -57s6 -47.666 4 -72.999v-227h-54l-12 19c-12.667 -13.333 -27 -20 -43 -20c-34.667 0 -68.667 31.333 -102 94c-6.66699 16.667 -7.66699 41.667 -3 75zM18.998 323.999h219v-61
h-219v61zM18.998 214.999h219v-61h-219v61zM87.998 486.999c18.667 -20 31.334 -30 38.001 -30c14.667 -2 23.334 13.667 26.001 47c4.66699 46.667 -3 67.667 -23 63c-16.667 4 -30 -8 -40 -36c-4.66699 -6 -6.83398 -12.167 -6.50098 -18.5s2.16602 -14.833 5.49902 -25.5
z" />
    <glyph glyph-name="guillemotleft" unicode="&#xab;" horiz-adv-x="537" 
d="M235 355l281 158v-86l-208 -117l210 -127v-86l-281 170v3l-2 -2v87zM15 355l281 158v-86l-208 -117l210 -127v-86l-281 170v3l-2 -2v87z" />
    <glyph glyph-name="logicalnot" unicode="&#xac;" horiz-adv-x="431" 
d="M19 270h386v-174h-56v87h-330v87z" />
    <glyph glyph-name="uni00AD" unicode="&#xad;" horiz-adv-x="326" 
d="M24 270h281v-87h-281v87z" />
    <glyph glyph-name="registered" unicode="&#xae;" horiz-adv-x="379" 
d="M181 289c-4 -6.66699 -8.16797 -16.335 -12.501 -29.002s-6.5 -27 -6.5 -43v-53c0 -16.667 5.33301 -28.334 16 -35.001h-43.5h-41.5c10.667 6.66699 16 18.334 16 35.001l-3 436c-1.33301 18.667 -6 31.667 -14 39h28.5h30.5c24 0.666992 47.667 -2.33301 71 -9
s33 -27 29 -61l-6.5 -65c-2.33301 -23.333 -5.5 -46.666 -9.5 -69.999c17.333 -43.333 27.333 -86.5 30 -129.5s3.66699 -86.833 3 -131.5c0 -5.33301 0.5 -13.333 1.5 -24s5.16699 -17.334 12.5 -20.001h-56c-5.33301 0 -8.66602 5 -9.99902 15s-2 20 -2 30
c0 26.667 -0.166992 53.334 -0.5 80.001s-2.5 53.334 -6.5 80.001c-7.33301 -17.333 -16 -32.333 -26 -45zM160.999 364.999c9.33301 11.333 17.499 38.332 24.499 80.999s10.833 86 11.5 130c0.666992 4.66699 -2.66602 7.33398 -9.99902 8.00098c-6 1.33301 -15 2 -27 2z
M18.998 381.998c0 52.667 4.5 102 13.5 148s21.333 86.167 37 120.5s33.834 61.333 54.501 81s43 29.5 67 29.5s46.333 -9.83301 67 -29.5s38.834 -46.667 54.501 -81s28 -74.5 37 -120.5s13.5 -95.333 13.5 -148c0 -52 -4.5 -101 -13.5 -147s-21.333 -86.167 -37 -120.5
s-33.834 -61.333 -54.501 -81s-43 -29.5 -67 -29.5s-46.333 9.83301 -67 29.5s-38.834 46.667 -54.501 81s-28 74.5 -37 120.5s-13.5 95 -13.5 147zM44.998 383.998c0 -48 3.83301 -93.167 11.5 -135.5s18 -79.333 31 -111s28.5 -56.5 46.5 -74.5s37 -27 57 -27s39 9 57 27
s33.667 42.833 47 74.5s23.833 68.667 31.5 111s11.5 87.5 11.5 135.5s-3.83301 93.167 -11.5 135.5s-18.167 79.166 -31.5 110.499s-29 56.166 -47 74.499s-37 27.5 -57 27.5s-39 -9.16699 -57 -27.5s-33.5 -43.166 -46.5 -74.499s-23.333 -68.166 -31 -110.499
s-11.5 -87.5 -11.5 -135.5z" />
    <glyph glyph-name="degree" unicode="&#xb0;" horiz-adv-x="198" 
d="M17 916c0 27.333 7.99902 45.832 23.999 55.499s35.667 14.5 59 14.5c11.333 0 22 -1.16699 32 -3.5s18.833 -6.16602 26.5 -11.499s13.667 -12.5 18 -21.5s6.5 -20.167 6.5 -33.5s-2.16699 -27.166 -6.5 -41.499s-10.333 -27.333 -18 -39s-16.5 -21.334 -26.5 -29.001
s-20.667 -11.5 -32 -11.5c-12 0 -23 3.83301 -33 11.5s-18.667 17.334 -26 29.001s-13.166 24.667 -17.499 39s-6.5 28.166 -6.5 41.499zM69.999 914.999c0 -7.33301 0.663086 -15.166 1.99609 -23.499s3.33301 -16.166 6 -23.499s5.83398 -13.333 9.50098 -18
s7.83398 -7 12.501 -7c4 0 8 2.33301 12 7s7.33301 10.667 10 18s4.83398 15.166 6.50098 23.499s2.5 16.166 2.5 23.499c0 14 -3 22.667 -9 26s-13.333 5 -22 5c-9.33301 0 -16.666 -1.66699 -21.999 -5s-8 -12 -8 -26z" />
    <glyph glyph-name="plusminus" unicode="&#xb1;" horiz-adv-x="317" 
d="M201 467v-99h99v-83h-99v-99h-84l-1 99h-97v83h97l1 99h84zM19 150h281v-87h-281v87z" />
    <glyph glyph-name="twosuperior" unicode="&#xb2;" horiz-adv-x="182" 
d="M15 441c8.66699 10.667 17.3311 24.1689 25.998 40.502s16.834 33.833 24.501 52.5s14.667 37.167 21 55.5s11.5 34.5 15.5 48.5c-4 -2 -7.33301 -3 -10 -3c-22.667 -6 -40.334 3 -53.001 27c-5.33301 10.667 -8 22.334 -8 35.001c0 16.667 4.33301 30.167 13 40.5
s19.667 17.166 33 20.499v-1c10.667 2.66699 21.334 3.16699 32.001 1.5s20.667 -6.16699 30 -13.5c14.667 -12.667 23.5 -27.334 26.5 -44.001s3.16699 -33.334 0.5 -50.001c-4 -21.333 -9.83301 -42.666 -17.5 -63.999l-23.5 -63
c-1.33301 -3.33301 -2.16602 -5.83301 -2.49902 -7.5s-0.666016 -3.16699 -0.999023 -4.5s-0.833008 -2.83301 -1.5 -4.5l-3 -7.5h7c-1.33301 0 -0.833008 3.16699 1.5 9.5s5.16602 13.166 8.49902 20.499l32 -16c-8 -22.667 -10.333 -47 -7 -73h-144z" />
    <glyph glyph-name="threesuperior" unicode="&#xb3;" horiz-adv-x="165" 
d="M133 756l10.9971 -40.9961l-19 -23c22.667 -10 29.334 -35.333 20.001 -76c-4.66699 -19.333 -11 -43.833 -19 -73.5s-20.667 -63.834 -38 -102.501h-63c24.667 45.333 40.334 82.666 47.001 111.999s11 52.666 13 69.999l1 18h-6c-3.33301 0 -8 -0.333008 -14 -1
s-12.167 -1.5 -18.5 -2.5s-12.666 -1.83301 -18.999 -2.5s-10.833 -1.33398 -13.5 -2.00098l50 74l-53 -24c2.66699 10 4.5 21.167 5.5 33.5s0.833008 25.833 -0.5 40.5h116z" />
    <glyph glyph-name="acute" unicode="&#xb4;" horiz-adv-x="1041" 
d="M77 920h125l-106 -112h-73z" />
    <glyph glyph-name="mu" unicode="&#xb5;" horiz-adv-x="280" 
d="M97 520l-0.00195312 -324.999c0 -28 3.33301 -49.833 10 -65.5s16.334 -23.5 29.001 -23.5c6.66699 0 12.834 3.16699 18.501 9.5s10.334 14.666 14.001 24.999s6.5 22.333 8.5 36s3 27.5 3 41.5v302h74v-519h-74l-1 15c-14 -17.333 -29.667 -26 -47 -26
c-10.667 0 -22.334 11 -35.001 33v-192h-73v689h73z" />
    <glyph glyph-name="paragraph" unicode="&#xb6;" horiz-adv-x="408" 
d="M155 7l-7 294.997c-58.667 52.667 -94.167 97.334 -106.5 134.001s-18.5 77.334 -18.5 122.001c0 48.667 13.167 87.334 39.5 116.001s64.5 43 114.5 43h207v-65h-48v-645h-54v645h-73v-645h-54z" />
    <glyph glyph-name="periodcentered" unicode="&#xb7;" horiz-adv-x="125" 
d="M62 350c27.333 0 41 -14 41 -42c0 -26.667 -13.667 -40 -41 -40c-28 0 -42 13.333 -42 40c0 28 14 42 42 42z" />
    <glyph glyph-name="cedilla" unicode="&#xb8;" horiz-adv-x="1041" 
d="M253 -78l22.001 85h57l-14 -51c23.333 -3.33301 41.166 -11.833 53.499 -25.5s18.5 -28.834 18.5 -45.501c0 -24.667 -10.333 -46.167 -31 -64.5s-51.334 -27.5 -92.001 -27.5c-22.667 0 -42.667 2.33301 -60 7l5 56c17.333 -2 30.333 -3 39 -3
c26.667 0 45.334 4.33301 56.001 13c7.33301 6.66699 11 15 11 25c0 4.66699 -1.33301 9.33398 -4 14.001s-8.5 8.66699 -17.5 12s-23.5 5 -43.5 5z" />
    <glyph glyph-name="onesuperior" unicode="&#xb9;" horiz-adv-x="164" 
d="M57 644c-6 -3.33301 -12.5 -5.33398 -19.5 -6.00098s-14.5 -1 -22.5 -1v48c14.667 0 24.667 6.66699 30 20c3.33301 9.33301 5.83301 18.333 7.5 27s2.5 17.334 2.5 26.001h84c-14.667 -18.667 -22 -30 -22 -34v-247c0 -4 2.66699 -7.66699 8 -11l23 -21l-134 -3
c28.667 20 43 31.667 43 35v167z" />
    <glyph glyph-name="ordmasculine" unicode="&#xba;" horiz-adv-x="260" 
d="M204 733c14 -14.667 23.333 -33.668 28 -57.001s6 -47.666 4 -72.999c-1.33301 -25.333 -4.83301 -50 -10.5 -74s-10.5 -43.667 -14.5 -59c-21.333 -63.333 -49.333 -95 -84 -95s-62.334 31.667 -83.001 95c-4.66699 15.333 -9.66699 35 -15 59
s-8.66602 49.333 -9.99902 76c-1.33301 24.667 0 48.5 4 71.5s13.333 41.833 28 56.5c16.667 18.667 42 28 76 28c33.333 0 59 -9.33301 77 -28zM156 665.999c-6 6 -16.002 9 -30.002 9s-24 -3 -30 -9c-7.33301 -7.33301 -11.666 -19 -12.999 -35
s-0.666016 -32.333 2.00098 -49c1.33301 -16.667 3.66602 -32.334 6.99902 -47.001s6.33301 -25.334 9 -32.001c10 -30.667 18.333 -46 25 -46s15 15.333 25 46c2.66699 6.66699 5.66699 17.334 9 32.001s6.33301 30.334 9 47.001c1.33301 16.667 1.33301 33 0 49
s-5.66602 27.667 -12.999 35zM18.998 153.999h219v61h-219v-61zM18.998 262.999h219v61h-219v-61z" />
    <glyph glyph-name="guillemotright" unicode="&#xbb;" horiz-adv-x="543" 
d="M300 268l-2 2v-3l-281 -170v86l210 127l-208 117v86l281 -158v-87zM520 268l-2 2v-3l-281 -170v86l210 127l-208 117v86l281 -158v-87z" />
    <glyph glyph-name="onequarter" unicode="&#xbc;" horiz-adv-x="406" 
d="M380 32l-8.5 0.00292969c-3.66699 0 -7.66699 0.166992 -12 0.5l-12.5 1c-4 0.333008 -7.33301 0.5 -10 0.5c0 -4.66699 14 -16 42 -34h-104h-28c1.33301 0.666992 3.66602 2.66699 6.99902 6l10 10.5c3.33301 3.66699 6.33301 7.16699 9 10.5s4 5.33301 4 6l-1 2
c-12 0 -25.167 0.166992 -39.5 0.5s-26.166 0.5 -35.499 0.5c16 30.667 27.333 60.167 34 88.5s10 56.5 10 84.5c0 14 -0.833008 30 -2.5 48s-4.16699 38 -7.5 60h61c2 -18.667 3.66699 -36 5 -52s2 -30.333 2 -43c0 -9.33301 -2 -20.333 -6 -33s-8.5 -25.834 -13.5 -39.501
l-14.5 -39.5c-4.66699 -12.667 -8 -23 -10 -31l26 1c1.33301 1.33301 2.66602 4.5 3.99902 9.5s2.5 10.167 3.5 15.5s1.83301 10.166 2.5 14.499l1 6.5h41l1 -43c2.66699 0.666992 4.33398 1.66699 5.00098 3s1.66699 2.66602 3 3.99902v38l41 -19
c-8 -20.667 -11 -39.667 -9 -57zM298 762.003h63l-273 -760h-64zM60 644.003c-6 -3.33301 -12.5 -5.33398 -19.5 -6.00098s-14.5 -1 -22.5 -1v48c14.667 0 24.667 6.66699 30 20c3.33301 9.33301 5.83301 18.333 7.5 27s2.5 17.334 2.5 26.001h84
c-14.667 -18.667 -22 -30 -22 -34v-247c0 -4 2.66699 -7.66699 8 -11l23 -21l-134 -3c28.667 20 43 31.667 43 35v167z" />
    <glyph glyph-name="onehalf" unicode="&#xbd;" horiz-adv-x="405" 
d="M211 1c8.66699 10.667 17.3311 24.1689 25.998 40.502s16.834 33.833 24.501 52.5s14.667 37.167 21 55.5s11.5 34.5 15.5 48.5c-4 -2 -7.33301 -3 -10 -3c-22.667 -6 -40.334 3 -53.001 27c-5.33301 10.667 -8 22.334 -8 35.001c0 16.667 4.33301 30.167 13 40.5
s19.667 17.166 33 20.499v-1c10.667 2.66699 21.334 3.16699 32.001 1.5s20.667 -6.16699 30 -13.5c14.667 -12.667 23.5 -27.334 26.5 -44.001s3.16699 -33.334 0.5 -50.001c-4 -21.333 -9.83301 -42.666 -17.5 -63.999l-23.5 -63
c-1.33301 -3.33301 -2.16602 -5.83301 -2.49902 -7.5s-0.666016 -3.16699 -0.999023 -4.5s-0.833008 -2.83301 -1.5 -4.5l-3 -7.5h7c-1.33301 0 -0.833008 3.16699 1.5 9.5s5.16602 13.166 8.49902 20.499l32 -16c-4 -11.333 -6 -22.5 -6 -33.5s-0.333008 -24.167 -1 -39.5
h-144zM297.997 762.002h63l-273 -760h-64zM60.9971 644.002c-6 -3.33301 -12.5 -5.33398 -19.5 -6.00098s-14.5 -1 -22.5 -1v48c14.667 0 24.667 6.66699 30 20c3.33301 9.33301 5.83301 18.333 7.5 27s2.5 17.334 2.5 26.001h84c-14.667 -18.667 -22 -30 -22 -34v-247
c0 -4 2.66699 -7.66699 8 -11l23 -21l-134 -3c28.667 20 43 31.667 43 35v167z" />
    <glyph glyph-name="threequarters" unicode="&#xbe;" horiz-adv-x="395" 
d="M359 32l-8.5 0.00292969c-3.66699 0 -7.66699 0.166992 -12 0.5l-12.5 1c-4 0.333008 -7.33301 0.5 -10 0.5c0 -4.66699 14 -16 42 -34h-104h-28c1.33301 0.666992 3.66602 2.66699 6.99902 6l10 10.5c3.33301 3.66699 6.33301 7.16699 9 10.5s4 5.33301 4 6l-1 2
c-12 0 -25.167 0.166992 -39.5 0.5s-26.166 0.5 -35.499 0.5c16 30.667 27.333 60.167 34 88.5s10 56.5 10 84.5c0 14 -0.833008 30 -2.5 48s-4.16699 38 -7.5 60h61c2 -18.667 3.66699 -36 5 -52s2 -30.333 2 -43c0 -9.33301 -2 -20.333 -6 -33s-8.5 -25.834 -13.5 -39.501
l-14.5 -39.5c-4.66699 -12.667 -8 -23 -10 -31l26 1c1.33301 1.33301 2.66602 4.5 3.99902 9.5s2.5 10.167 3.5 15.5s1.83301 10.166 2.5 14.499l1 6.5h41l1 -43c2.66699 0.666992 4.33398 1.66699 5.00098 3s1.66699 2.66602 3 3.99902v38l41 -19
c-8 -20.667 -11 -39.667 -9 -57zM289 762.003h63l-273 -760h-64zM155 758.003l10.9971 -40.9961l-19 -23c22.667 -10 29.334 -35.333 20.001 -76c-4.66699 -19.333 -11 -43.833 -19 -73.5s-20.667 -63.834 -38 -102.501h-63c24.667 45.333 40.334 82.666 47.001 111.999
s11 52.666 13 69.999l1 18h-6c-3.33301 0 -8 -0.333008 -14 -1s-12.167 -1.5 -18.5 -2.5s-12.666 -1.83301 -18.999 -2.5s-10.833 -1.33398 -13.5 -2.00098l50 74l-53 -24c2.66699 10 4.5 21.167 5.5 33.5s0.833008 25.833 -0.5 40.5h116z" />
    <glyph glyph-name="questiondown" unicode="&#xbf;" horiz-adv-x="277" 
d="M145 152l-8.00098 8.99805l-7 9c10 7.33301 19.667 13 29 17l7 3c20.667 8.66699 44.334 16 71.001 22c4.66699 -8 7.66699 -14.333 9 -19c7.33301 -17.333 12.5 -38 15.5 -62s2.16699 -44.333 -2.5 -61c-8 -22 -25.667 -40.333 -53 -55
c-19.333 -8 -39.666 -12.667 -60.999 -14c-22 -0.666992 -42.333 1.66602 -61 6.99902c-38.667 14.667 -61 46.334 -67 95.001c-0.666992 20 0 37.667 2 53c3.33301 34.667 11.166 69.834 23.499 105.501s23.5 64.5 33.5 86.5c34 73.333 50.333 144.333 49 213h41
c2 -52.667 3.5 -98.167 4.5 -136.5s-8.5 -80.5 -28.5 -126.5c-8 -20 -16.667 -43.667 -26 -71s-15 -53.666 -17 -78.999c-2 -18 -1.33301 -33.833 2 -47.5s16.333 -20.167 39 -19.5c34 2.66699 51.167 21.5 51.5 56.5s-15.167 39.833 -46.5 14.5zM135.999 681.998
c-27.333 0 -41 14.333 -41 43c0 26.667 13.667 40 41 40c28.667 0 43 -13.333 43 -40c0 -28.667 -14.333 -43 -43 -43z" />
    <glyph glyph-name="Agrave" unicode="&#xc0;" horiz-adv-x="308" 
d="M94 760h121.998c-13.333 -20 -16.666 -37.333 -9.99902 -52s13.334 -32.334 20.001 -53.001c22 -76 38.833 -159.667 50.5 -251s17.5 -166.666 17.5 -225.999v-178h-81v178c0 12.667 -0.333008 26.334 -1 41.001s-1 30.334 -1 47.001
c-13.333 -4 -30.666 -12.667 -51.999 -26c-26.667 -16 -47.334 -33.333 -62.001 -52v-5v-5v-178h-81v178c0 59.333 5.83301 134.666 17.5 225.999s28.5 175 50.5 251c6 21.333 12.333 39.166 19 53.499s3.66699 31.5 -9 51.5zM100.998 283
c16.667 14.667 31.999 25.999 45.999 33.999c20 12 38.667 21.333 56 28c-4.66699 43.333 -11.167 88 -19.5 134s-18.166 89.667 -29.499 131c-14 -51.333 -25.333 -106.166 -34 -164.499s-15 -112.5 -19 -162.5zM205.997 321.999
c-19.333 -8 -35.001 -15.999 -47.001 -23.999c-23.333 -14.667 -43.666 -30.667 -60.999 -48c0 -12.667 -0.333008 -22 -1 -28c18 15.333 34.667 28 50 38c24.667 14.667 45 24 61 28c-0.666992 5.33301 -1.16699 10.666 -1.5 15.999s-0.5 11.333 -0.5 18zM179.996 808h-72
l-107 112h125z" />
    <glyph glyph-name="Aacute" unicode="&#xc1;" horiz-adv-x="307" 
d="M94 760h121.998c-13.333 -20 -16.666 -37.333 -9.99902 -52s13.334 -32.334 20.001 -53.001c22 -76 38.833 -159.667 50.5 -251s17.5 -166.666 17.5 -225.999v-178h-81v178c0 12.667 -0.333008 26.334 -1 41.001s-1 30.334 -1 47.001
c-13.333 -4 -30.666 -12.667 -51.999 -26c-26.667 -16 -47.334 -33.333 -62.001 -52v-5v-5v-178h-81v178c0 59.333 5.83301 134.666 17.5 225.999s28.5 175 50.5 251c6 21.333 12.333 39.166 19 53.499s3.66699 31.5 -9 51.5zM100.998 283
c16.667 14.667 31.999 25.999 45.999 33.999c20 12 38.667 21.333 56 28c-4.66699 43.333 -11.167 88 -19.5 134s-18.166 89.667 -29.499 131c-14 -51.333 -25.333 -106.166 -34 -164.499s-15 -112.5 -19 -162.5zM205.997 321.999
c-19.333 -8 -35.001 -15.999 -47.001 -23.999c-23.333 -14.667 -43.666 -30.667 -60.999 -48c0 -12.667 -0.333008 -22 -1 -28c18 15.333 34.667 28 50 38c24.667 14.667 45 24 61 28c-0.666992 5.33301 -1.16699 10.666 -1.5 15.999s-0.5 11.333 -0.5 18zM153.996 920h125
l-106 -112h-73z" />
    <glyph glyph-name="Acircumflex" unicode="&#xc2;" horiz-adv-x="307" 
d="M94 760h121.998c-13.333 -20 -16.666 -37.333 -9.99902 -52s13.334 -32.334 20.001 -53.001c22 -76 38.833 -159.667 50.5 -251s17.5 -166.666 17.5 -225.999v-178h-81v178c0 12.667 -0.333008 26.334 -1 41.001s-1 30.334 -1 47.001
c-13.333 -4 -30.666 -12.667 -51.999 -26c-26.667 -16 -47.334 -33.333 -62.001 -52v-5v-5v-178h-81v178c0 59.333 5.83301 134.666 17.5 225.999s28.5 175 50.5 251c6 21.333 12.333 39.166 19 53.499s3.66699 31.5 -9 51.5zM100.998 283
c16.667 14.667 31.999 25.999 45.999 33.999c20 12 38.667 21.333 56 28c-4.66699 43.333 -11.167 88 -19.5 134s-18.166 89.667 -29.499 131c-14 -51.333 -25.333 -106.166 -34 -164.499s-15 -112.5 -19 -162.5zM205.997 321.999
c-19.333 -8 -35.001 -15.999 -47.001 -23.999c-23.333 -14.667 -43.666 -30.667 -60.999 -48c0 -12.667 -0.333008 -22 -1 -28c18 15.333 34.667 28 50 38c24.667 14.667 45 24 61 28c-0.666992 5.33301 -1.16699 10.666 -1.5 15.999s-0.5 11.333 -0.5 18zM272.996 796h-72
l-48 49l-46 -49h-72l53 112h132z" />
    <glyph glyph-name="Atilde" unicode="&#xc3;" horiz-adv-x="305" 
d="M93 760h121.998c-13.333 -20 -16.666 -37.333 -9.99902 -52s13.334 -32.334 20.001 -53.001c22 -76 38.833 -159.667 50.5 -251s17.5 -166.666 17.5 -225.999v-178h-81v178c0 12.667 -0.333008 26.334 -1 41.001s-1 30.334 -1 47.001
c-13.333 -4 -30.666 -12.667 -51.999 -26c-26.667 -16 -47.334 -33.333 -62.001 -52v-5v-5v-178h-81v178c0 59.333 5.83301 134.666 17.5 225.999s28.5 175 50.5 251c6 21.333 12.333 39.166 19 53.499s3.66699 31.5 -9 51.5zM99.998 283
c16.667 14.667 31.999 25.999 45.999 33.999c20 12 38.667 21.333 56 28c-4.66699 43.333 -11.167 88 -19.5 134s-18.166 89.667 -29.499 131c-14 -51.333 -25.333 -106.166 -34 -164.499s-15 -112.5 -19 -162.5zM204.997 321.999
c-19.333 -8 -35.001 -15.999 -47.001 -23.999c-23.333 -14.667 -43.666 -30.667 -60.999 -48c0 -12.667 -0.333008 -22 -1 -28c18 15.333 34.667 28 50 38c24.667 14.667 45 24 61 28c-0.666992 5.33301 -1.16699 10.666 -1.5 15.999s-0.5 11.333 -0.5 18zM24.9961 783
c0 40.667 7.33301 68.5 22 83.5s33 22.833 55 23.5c14.667 0 36 -5 64 -15c18.667 -7.33301 30.667 -10 36 -8c-1.33301 0 -2 8.33301 -2 25l80 1c0 -42 -7.16699 -70.5 -21.5 -85.5s-32.5 -22.5 -54.5 -22.5c-12 0 -23.167 1.5 -33.5 4.5s-20.5 6.16699 -30.5 9.5
c-18.667 6.66699 -30.667 10 -36 10c0.666992 0 1 -8.33301 1 -25z" />
    <glyph glyph-name="Adieresis" unicode="&#xc4;" horiz-adv-x="292" 
d="M80 760h121.998c-13.333 -20 -16.666 -37.333 -9.99902 -52s13.334 -32.334 20.001 -53.001c22 -76 38.833 -159.667 50.5 -251s17.5 -166.666 17.5 -225.999v-178h-81v178c0 12.667 -0.333008 26.334 -1 41.001s-1 30.334 -1 47.001
c-13.333 -4 -30.666 -12.667 -51.999 -26c-26.667 -16 -47.334 -33.333 -62.001 -52v-5v-5v-178h-81v178c0 59.333 5.83301 134.666 17.5 225.999s28.5 175 50.5 251c6 21.333 12.333 39.166 19 53.499s3.66699 31.5 -9 51.5zM86.998 283
c16.667 14.667 31.999 25.999 45.999 33.999c20 12 38.667 21.333 56 28c-4.66699 43.333 -11.167 88 -19.5 134s-18.166 89.667 -29.499 131c-14 -51.333 -25.333 -106.166 -34 -164.499s-15 -112.5 -19 -162.5zM191.997 321.999
c-19.333 -8 -35.001 -15.999 -47.001 -23.999c-23.333 -14.667 -43.666 -30.667 -60.999 -48c0 -12.667 -0.333008 -22 -1 -28c18 15.333 34.667 28 50 38c24.667 14.667 45 24 61 28c-0.666992 5.33301 -1.16699 10.666 -1.5 15.999s-0.5 11.333 -0.5 18zM169.996 826
c0 11.333 3.83301 21 11.5 29s16.834 12 27.501 12s19.834 -4 27.501 -12s11.5 -17.667 11.5 -29s-3.83301 -20.833 -11.5 -28.5s-16.834 -11.5 -27.501 -11.5s-19.834 3.83301 -27.501 11.5s-11.5 17.167 -11.5 28.5zM31.9961 826c0 11.333 3.66699 21 11 29
s16.333 12 27 12c11.333 0 20.666 -4 27.999 -12s11 -17.667 11 -29s-3.66699 -20.833 -11 -28.5s-16.666 -11.5 -27.999 -11.5c-10.667 0 -19.667 3.83301 -27 11.5s-11 17.167 -11 28.5z" />
    <glyph glyph-name="Aring" unicode="&#xc5;" horiz-adv-x="292" 
d="M80 760h121.998c-13.333 -20 -16.666 -37.333 -9.99902 -52s13.334 -32.334 20.001 -53.001c22 -76 38.833 -159.667 50.5 -251s17.5 -166.666 17.5 -225.999v-178h-81v178c0 12.667 -0.333008 26.334 -1 41.001s-1 30.334 -1 47.001
c-13.333 -4 -30.666 -12.667 -51.999 -26c-26.667 -16 -47.334 -33.333 -62.001 -52v-5v-5v-178h-81v178c0 59.333 5.83301 134.666 17.5 225.999s28.5 175 50.5 251c6 21.333 12.333 39.166 19 53.499s3.66699 31.5 -9 51.5zM86.998 283
c16.667 14.667 31.999 25.999 45.999 33.999c20 12 38.667 21.333 56 28c-4.66699 43.333 -11.167 88 -19.5 134s-18.166 89.667 -29.499 131c-14 -51.333 -25.333 -106.166 -34 -164.499s-15 -112.5 -19 -162.5zM191.997 321.999
c-19.333 -8 -35.001 -15.999 -47.001 -23.999c-23.333 -14.667 -43.666 -30.667 -60.999 -48c0 -12.667 -0.333008 -22 -1 -28c18 15.333 34.667 28 50 38c24.667 14.667 45 24 61 28c-0.666992 5.33301 -1.16699 10.666 -1.5 15.999s-0.5 11.333 -0.5 18zM55.9961 842
c0 27.333 7.99902 45.832 23.999 55.499s35.667 14.5 59 14.5c11.333 0 22 -1.16699 32 -3.5s18.833 -6.16602 26.5 -11.499s13.667 -12.5 18 -21.5s6.5 -20.167 6.5 -33.5s-2.16699 -27.166 -6.5 -41.499s-10.333 -27.333 -18 -39s-16.5 -21.334 -26.5 -29.001
s-20.667 -11.5 -32 -11.5c-12 0 -23 3.83301 -33 11.5s-18.667 17.334 -26 29.001s-13.166 24.667 -17.499 39s-6.5 28.166 -6.5 41.499zM108.995 840.999c0 -7.33301 0.663086 -15.166 1.99609 -23.499s3.33301 -16.166 6 -23.499s5.83398 -13.333 9.50098 -18
s7.83398 -7 12.501 -7c4 0 8 2.33301 12 7s7.33301 10.667 10 18s4.83398 15.166 6.50098 23.499s2.5 16.166 2.5 23.499c0 14 -3 22.667 -9 26s-13.333 5 -22 5c-9.33301 0 -16.666 -1.66699 -21.999 -5s-8 -12 -8 -26z" />
    <glyph glyph-name="AE" unicode="&#xc6;" horiz-adv-x="469" 
d="M177 760l260 0.00195312c-4.66699 -51.333 0.333008 -97.333 15 -138l-19 -7c-6 14 -12.667 28 -20 42s-16 21 -26 21h-84v-83h57c16 0 27.333 10.667 34 32l18 -2l-28 -150l-19 3c1.33301 24.667 -5.33398 37 -20.001 37l-42 -5v-432h84c10 0 18.667 7 26 21
s14 28.333 20 43l19 -7c-14.667 -42 -19.667 -87 -15 -135h-238c16 10 24 27.333 24 52v209c-12 -5.33301 -25.667 -12.333 -41 -21c-28.667 -16 -51.334 -33.333 -68.001 -52c-0.666992 -2 -1 -4 -1 -6v-4l-20 -178h-80l20 178
c6.66699 59.333 20.834 134.666 42.501 225.999s47.834 175 78.501 251c8.66699 21.333 17.167 39.166 25.5 53.499s7.5 31.5 -2.5 51.5zM128 283.002c18 14.667 34.666 26 49.999 34c16 8.66699 31 15.667 45 21l1 285c-23.333 -60 -42.666 -119.167 -57.999 -177.5
s-28 -112.5 -38 -162.5zM188.999 298.002c-24.667 -14.667 -47.002 -30.668 -67.002 -48.001c-1.33301 -12.667 -2.66602 -22 -3.99902 -28c20 15.333 38 28 54 38c20 10.667 37 18.334 51 23.001v33c-13.333 -6.66699 -24.666 -12.667 -33.999 -18z" />
    <glyph glyph-name="Ccedilla" unicode="&#xc7;" horiz-adv-x="243" 
d="M210 656c-6 17.333 -17.334 26.001 -34.001 26.001c-33.333 0.666992 -55 -4 -65 -14c-12 -12 -17.833 -35.5 -17.5 -70.5s0.833008 -61.5 1.5 -79.5c4 -87.333 15.667 -177.833 35 -271.5s54.333 -175.834 105 -246.501h-95c-42.667 74.667 -73.167 157.167 -91.5 247.5
s-29.5 179.5 -33.5 267.5c-1.33301 32 -1.16602 68.833 0.500977 110.5s14.5 75.167 38.5 100.5c30 29.333 85 41 165 35zM121.999 -77.999l22.001 85h57l-14 -51c23.333 -3.33301 41.166 -11.833 53.499 -25.5s18.5 -28.834 18.5 -45.501
c0 -24.667 -10.333 -46.167 -31 -64.5s-51.334 -27.5 -92.001 -27.5c-22.667 0 -42.667 2.33301 -60 7l5 56c17.333 -2 30.333 -3 39 -3c26.667 0 45.334 4.33301 56.001 13c7.33301 6.66699 11 15 11 25c0 4.66699 -1.33301 9.33398 -4 14.001s-8.5 8.66699 -17.5 12
s-23.5 5 -43.5 5z" />
    <glyph glyph-name="Egrave" unicode="&#xc8;" horiz-adv-x="272" 
d="M7 0c15.333 10 23 27.333 23 52v659c0 16 -6.66699 32.333 -20 49h100h134c-4 -51.333 1 -97.333 15 -138l-19 -7c-5.33301 14 -11.833 28 -19.5 42s-16.5 21 -26.5 21h-84v-83h58c16 0 27.333 10.667 34 32l17 -2l-27 -150l-19 3c0.666992 24.667 -6 37 -20 37h-43v-437
h84c10 0 18.833 7 26.5 21s14.167 28.333 19.5 43l19 -7c-14 -42 -19 -87 -15 -135h-119.5h-117.5zM207 792h-72l-107 112h125z" />
    <glyph glyph-name="Eacute" unicode="&#xc9;" horiz-adv-x="265" 
d="M2 0c15.333 10 23 27.333 23 52v659c0 16 -6.66699 32.333 -20 49h100h134c-4 -51.333 1 -97.333 15 -138l-19 -7c-5.33301 14 -11.833 28 -19.5 42s-16.5 21 -26.5 21h-84v-83h58c16 0 27.333 10.667 34 32l17 -2l-27 -150l-19 3c0.666992 24.667 -6 37 -20 37h-43v-437
h84c10 0 18.833 7 26.5 21s14.167 28.333 19.5 43l19 -7c-14 -42 -19 -87 -15 -135h-119.5h-117.5zM95 913h125l-106 -112h-73z" />
    <glyph glyph-name="Ecircumflex" unicode="&#xca;" horiz-adv-x="274" 
d="M9 0c15.333 10 23 27.333 23 52v659c0 16 -6.66699 32.333 -20 49h100h134c-4 -51.333 1 -97.333 15 -138l-19 -7c-5.33301 14 -11.833 28 -19.5 42s-16.5 21 -26.5 21h-84v-83h58c16 0 27.333 10.667 34 32l17 -2l-27 -150l-19 3c0.666992 24.667 -6 37 -20 37h-43v-437
h84c10 0 18.833 7 26.5 21s14.167 28.333 19.5 43l19 -7c-14 -42 -19 -87 -15 -135h-119.5h-117.5zM248 797h-72l-48 49l-46 -49h-72l53 112h132z" />
    <glyph glyph-name="Edieresis" unicode="&#xcb;" horiz-adv-x="274" 
d="M9 0c15.333 10 23 27.333 23 52v659c0 16 -6.66699 32.333 -20 49h100h134c-4 -51.333 1 -97.333 15 -138l-19 -7c-5.33301 14 -11.833 28 -19.5 42s-16.5 21 -26.5 21h-84v-83h58c16 0 27.333 10.667 34 32l17 -2l-27 -150l-19 3c0.666992 24.667 -6 37 -20 37h-43v-437
h84c10 0 18.833 7 26.5 21s14.167 28.333 19.5 43l19 -7c-14 -42 -19 -87 -15 -135h-119.5h-117.5zM162 824c0 11.333 3.83301 21 11.5 29s16.834 12 27.501 12s19.834 -4 27.501 -12s11.5 -17.667 11.5 -29s-3.83301 -20.833 -11.5 -28.5s-16.834 -11.5 -27.501 -11.5
s-19.834 3.83301 -27.501 11.5s-11.5 17.167 -11.5 28.5zM24 824c0 11.333 3.66699 21 11 29s16.333 12 27 12c11.333 0 20.666 -4 27.999 -12s11 -17.667 11 -29s-3.66699 -20.833 -11 -28.5s-16.666 -11.5 -27.999 -11.5c-10.667 0 -19.667 3.83301 -27 11.5
s-11 17.167 -11 28.5z" />
    <glyph glyph-name="Igrave" unicode="&#xcc;" horiz-adv-x="142" 
d="M34 52v263.5v167.5v116v112c0 16 -6.66699 32.333 -20 49h100h20c-13.333 -16.667 -20 -33 -20 -49v-329.5v-329.5c0 -24.667 8 -42 24 -52h-64h-63c15.333 10 23 27.333 23 52zM118 808h-72l-107 112h125z" />
    <glyph glyph-name="Iacute" unicode="&#xcd;" horiz-adv-x="145" 
d="M37 52v263.5v167.5v116v112c0 16 -6.66699 32.333 -20 49h100h20c-13.333 -16.667 -20 -33 -20 -49v-329.5v-329.5c0 -24.667 8 -42 24 -52h-64h-63c15.333 10 23 27.333 23 52zM85 920h125l-106 -112h-73z" />
    <glyph glyph-name="Icircumflex" unicode="&#xce;" horiz-adv-x="149" 
d="M40 52v263.5v167.5v116v112c0 16 -6.66699 32.333 -20 49h100h20c-13.333 -16.667 -20 -33 -20 -49v-329.5v-329.5c0 -24.667 8 -42 24 -52h-64h-63c15.333 10 23 27.333 23 52zM201 808h-72l-48 49l-46 -49h-72l53 112h132z" />
    <glyph glyph-name="Idieresis" unicode="&#xcf;" horiz-adv-x="145" 
d="M37 52v263.5v167.5v116v112c0 16 -6.66699 32.333 -20 49h100h20c-13.333 -16.667 -20 -33 -20 -49v-329.5v-329.5c0 -24.667 8 -42 24 -52h-64h-63c15.333 10 23 27.333 23 52zM110 826c0 11.333 3.83301 21 11.5 29s16.834 12 27.501 12s19.834 -4 27.501 -12
s11.5 -17.667 11.5 -29s-3.83301 -20.833 -11.5 -28.5s-16.834 -11.5 -27.501 -11.5s-19.834 3.83301 -27.501 11.5s-11.5 17.167 -11.5 28.5zM-28 826c0 11.333 3.66699 21 11 29s16.333 12 27 12c11.333 0 20.666 -4 27.999 -12s11 -17.667 11 -29
s-3.66699 -20.833 -11 -28.5s-16.666 -11.5 -27.999 -11.5c-10.667 0 -19.667 3.83301 -27 11.5s-11 17.167 -11 28.5z" />
    <glyph glyph-name="Eth" unicode="&#xd0;" horiz-adv-x="301" 
d="M14 590h22v121c0 16 -6.66699 32.333 -20 49h115c52.667 0 92.334 -13.333 119.001 -40c25.333 -28 37.166 -67.167 35.499 -117.5s-3.83398 -92.833 -6.50098 -127.5c-2.66699 -26.667 -6 -66.5 -10 -119.5s-12.167 -105.833 -24.5 -158.5s-29.666 -98.667 -51.999 -138
s-53.5 -59 -93.5 -59h-86c15.333 10 23 27.333 23 52v461h-22v77zM116 83c15.333 12 28.001 35.001 38.001 69.001s17.667 71.5 23 112.5s9.5 81.5 12.5 121.5s5.83301 71.667 8.5 95l7 94c3.33301 45.333 -1.33398 74.666 -14.001 87.999
c-8.66699 8.66699 -33.667 13.667 -75 15v-88h33v-77h-33v-430z" />
    <glyph glyph-name="Ntilde" unicode="&#xd1;" horiz-adv-x="346" 
d="M204 0c16.667 10.667 24.999 28 24.999 52v196c0 50 -3.5 98.667 -10.5 146s-18.833 95 -35.5 143c-10 27.333 -21.667 53 -35 77s-27.666 41.667 -42.999 53v-615c0 -24.667 8 -42 24 -52h-64h-63c15.333 10 23 27.333 23 52v659c0 16 -6.66699 32.333 -20 49
c52 2 94.667 -3.66699 128 -17s65.333 -50 96 -110v78c0 14.667 -7 31 -21 49h120c-13.333 -18.667 -20 -35 -20 -49v-331v-328c0 -24.667 8 -42 24 -52h-65h-63zM28.999 790c0 40.667 7.33301 68.5 22 83.5s33 22.833 55 23.5c14.667 0 36 -5 64 -15
c18.667 -7.33301 30.667 -10 36 -8c-1.33301 0 -2 8.33301 -2 25l80 1c0 -42 -7.16699 -70.5 -21.5 -85.5s-32.5 -22.5 -54.5 -22.5c-12 0 -23.167 1.5 -33.5 4.5s-20.5 6.16699 -30.5 9.5c-18.667 6.66699 -30.667 10 -36 10c0.666992 0 1 -8.33301 1 -25z" />
    <glyph glyph-name="Ograve" unicode="&#xd2;" horiz-adv-x="372" 
d="M185 0c-37.333 0 -56 18.333 -56 55s18.667 55 56 55c38 0 57 -18.333 57 -55s-19 -55 -57 -55zM303 718c21.333 -22 35.334 -51.168 42.001 -87.501s9 -73.833 7 -112.5c-2.66699 -40 -8 -78.333 -16 -115s-15.667 -66.667 -23 -90
c-32.667 -98 -75.334 -147 -128.001 -147c-54 0 -96.667 49 -128 147c-8 24.667 -16.167 55.334 -24.5 92.001s-13.166 75 -14.499 115c-2 38 0 75 6 111s20.333 65 43 87c26.667 28.667 66 43 118 43c51.333 0 90.666 -14.333 117.999 -43zM245.001 661.999
c-11.333 12 -31.334 18 -60.001 18c-28 0 -48.333 -6 -61 -18c-14.667 -14.667 -23.334 -37.834 -26.001 -69.501s-1.33398 -63.834 3.99902 -96.501c3.33301 -34 8.5 -65.833 15.5 -95.5s12.5 -50.5 16.5 -62.5c20 -61.333 37 -92 51 -92c12.667 0 29.334 30.667 50.001 92
c4.66699 12 10.334 32.833 17.001 62.5s12.334 61.5 17.001 95.5c3.33301 32.667 4 64.834 2 96.501s-10.667 54.834 -26 69.501zM224 788.999h-72l-107 112h125z" />
    <glyph glyph-name="Oacute" unicode="&#xd3;" horiz-adv-x="371" 
d="M184 0c-37.333 0 -56 18.333 -56 55s18.667 55 56 55c38 0 57 -18.333 57 -55s-19 -55 -57 -55zM302 718c21.333 -22 35.334 -51.168 42.001 -87.501s9 -73.833 7 -112.5c-2.66699 -40 -8 -78.333 -16 -115s-15.667 -66.667 -23 -90
c-32.667 -98 -75.334 -147 -128.001 -147c-54 0 -96.667 49 -128 147c-8 24.667 -16.167 55.334 -24.5 92.001s-13.166 75 -14.499 115c-2 38 0 75 6 111s20.333 65 43 87c26.667 28.667 66 43 118 43c51.333 0 90.666 -14.333 117.999 -43zM244.001 661.999
c-11.333 12 -31.334 18 -60.001 18c-28 0 -48.333 -6 -61 -18c-14.667 -14.667 -23.334 -37.834 -26.001 -69.501s-1.33398 -63.834 3.99902 -96.501c3.33301 -34 8.5 -65.833 15.5 -95.5s12.5 -50.5 16.5 -62.5c20 -61.333 37 -92 51 -92c12.667 0 29.334 30.667 50.001 92
c4.66699 12 10.334 32.833 17.001 62.5s12.334 61.5 17.001 95.5c3.33301 32.667 4 64.834 2 96.501s-10.667 54.834 -26 69.501zM196 897.999h125l-106 -112h-73z" />
    <glyph glyph-name="Ocircumflex" unicode="&#xd4;" horiz-adv-x="374" 
d="M187 0c-37.333 0 -56 18.333 -56 55s18.667 55 56 55c38 0 57 -18.333 57 -55s-19 -55 -57 -55zM305 718c21.333 -22 35.334 -51.168 42.001 -87.501s9 -73.833 7 -112.5c-2.66699 -40 -8 -78.333 -16 -115s-15.667 -66.667 -23 -90
c-32.667 -98 -75.334 -147 -128.001 -147c-54 0 -96.667 49 -128 147c-8 24.667 -16.167 55.334 -24.5 92.001s-13.166 75 -14.499 115c-2 38 0 75 6 111s20.333 65 43 87c26.667 28.667 66 43 118 43c51.333 0 90.666 -14.333 117.999 -43zM247.001 661.999
c-11.333 12 -31.334 18 -60.001 18c-28 0 -48.333 -6 -61 -18c-14.667 -14.667 -23.334 -37.834 -26.001 -69.501s-1.33398 -63.834 3.99902 -96.501c3.33301 -34 8.5 -65.833 15.5 -95.5s12.5 -50.5 16.5 -62.5c20 -61.333 37 -92 51 -92c12.667 0 29.334 30.667 50.001 92
c4.66699 12 10.334 32.833 17.001 62.5s12.334 61.5 17.001 95.5c3.33301 32.667 4 64.834 2 96.501s-10.667 54.834 -26 69.501zM311 781.999h-72l-48 49l-46 -49h-72l53 112h132z" />
    <glyph glyph-name="Otilde" unicode="&#xd5;" horiz-adv-x="371" 
d="M184 0c-37.333 0 -56 18.333 -56 55s18.667 55 56 55c38 0 57 -18.333 57 -55s-19 -55 -57 -55zM302 718c21.333 -22 35.334 -51.168 42.001 -87.501s9 -73.833 7 -112.5c-2.66699 -40 -8 -78.333 -16 -115s-15.667 -66.667 -23 -90
c-32.667 -98 -75.334 -147 -128.001 -147c-54 0 -96.667 49 -128 147c-8 24.667 -16.167 55.334 -24.5 92.001s-13.166 75 -14.499 115c-2 38 0 75 6 111s20.333 65 43 87c26.667 28.667 66 43 118 43c51.333 0 90.666 -14.333 117.999 -43zM244.001 661.999
c-11.333 12 -31.334 18 -60.001 18c-28 0 -48.333 -6 -61 -18c-14.667 -14.667 -23.334 -37.834 -26.001 -69.501s-1.33398 -63.834 3.99902 -96.501c3.33301 -34 8.5 -65.833 15.5 -95.5s12.5 -50.5 16.5 -62.5c20 -61.333 37 -92 51 -92c12.667 0 29.334 30.667 50.001 92
c4.66699 12 10.334 32.833 17.001 62.5s12.334 61.5 17.001 95.5c3.33301 32.667 4 64.834 2 96.501s-10.667 54.834 -26 69.501zM57 779.999c0 40.667 7.33301 68.5 22 83.5s33 22.833 55 23.5c14.667 0 36 -5 64 -15c18.667 -7.33301 30.667 -10 36 -8
c-1.33301 0 -2 8.33301 -2 25l80 1c0 -42 -7.16699 -70.5 -21.5 -85.5s-32.5 -22.5 -54.5 -22.5c-12 0 -23.167 1.5 -33.5 4.5s-20.5 6.16699 -30.5 9.5c-18.667 6.66699 -30.667 10 -36 10c0.666992 0 1 -8.33301 1 -25z" />
    <glyph glyph-name="Odieresis" unicode="&#xd6;" horiz-adv-x="370" 
d="M184 0c-37.333 0 -56 18.333 -56 55s18.667 55 56 55c38 0 57 -18.333 57 -55s-19 -55 -57 -55zM302 718c21.333 -22 35.334 -51.168 42.001 -87.501s9 -73.833 7 -112.5c-2.66699 -40 -8 -78.333 -16 -115s-15.667 -66.667 -23 -90
c-32.667 -98 -75.334 -147 -128.001 -147c-54 0 -96.667 49 -128 147c-8 24.667 -16.167 55.334 -24.5 92.001s-13.166 75 -14.499 115c-2 38 0 75 6 111s20.333 65 43 87c26.667 28.667 66 43 118 43c51.333 0 90.666 -14.333 117.999 -43zM244.001 661.999
c-11.333 12 -31.334 18 -60.001 18c-28 0 -48.333 -6 -61 -18c-14.667 -14.667 -23.334 -37.834 -26.001 -69.501s-1.33398 -63.834 3.99902 -96.501c3.33301 -34 8.5 -65.833 15.5 -95.5s12.5 -50.5 16.5 -62.5c20 -61.333 37 -92 51 -92c12.667 0 29.334 30.667 50.001 92
c4.66699 12 10.334 32.833 17.001 62.5s12.334 61.5 17.001 95.5c3.33301 32.667 4 64.834 2 96.501s-10.667 54.834 -26 69.501zM217 816.999c0 11.333 3.83301 21 11.5 29s16.834 12 27.501 12s19.834 -4 27.501 -12s11.5 -17.667 11.5 -29s-3.83301 -20.833 -11.5 -28.5
s-16.834 -11.5 -27.501 -11.5s-19.834 3.83301 -27.501 11.5s-11.5 17.167 -11.5 28.5zM79 816.999c0 11.333 3.66699 21 11 29s16.333 12 27 12c11.333 0 20.666 -4 27.999 -12s11 -17.667 11 -29s-3.66699 -20.833 -11 -28.5s-16.666 -11.5 -27.999 -11.5
c-10.667 0 -19.667 3.83301 -27 11.5s-11 17.167 -11 28.5z" />
    <glyph glyph-name="multiply" unicode="&#xd7;" horiz-adv-x="298" 
d="M83 356l69 -70l70 70l60 -60l-70 -70l70 -69l-60 -60l-70 69l-69 -69l-60 60l69 69l-69 70z" />
    <glyph glyph-name="Oslash" unicode="&#xd8;" horiz-adv-x="370" 
d="M68 275c-4.66699 12 -9 24.665 -13 37.998c-8 24.667 -16.167 55.334 -24.5 92.001s-13.166 75 -14.499 115c-2 38 0 75 6 111s20.333 65 43 87c26.667 28.667 66 43 118 43c30 0 56 -5 78 -15l5 12h77l-25 -61c12 -19.333 20.333 -41.666 25 -66.999
c6.66699 -36 9 -73.333 7 -112c-2.66699 -40 -8 -78.333 -16 -115s-15.667 -66.667 -23 -90c-32.667 -98 -75.334 -147 -128.001 -147c-25.333 0 -48 10.333 -68 31l-14 -32h-78zM115 399.998c0.666992 -2 1.00195 -4.33105 1.00195 -6.99805l114 278c-11.333 6 -27 9 -47 9
c-28 0 -48.333 -6 -61 -18c-14.667 -14.667 -23.334 -37.834 -26.001 -69.501s-1.33398 -63.834 3.99902 -96.501c3.33301 -34 8.33301 -66 15 -96zM267.002 496c2.66699 27.333 3.66406 54.667 2.99707 82l-119 -291c11.333 -27.333 22 -41 32 -41
c12.667 0 29.334 30.667 50.001 92c4.66699 12 10.334 32.833 17.001 62.5s12.334 61.5 17.001 95.5zM182.999 0.000976562c-37.333 0 -56 18.333 -56 55s18.667 55 56 55c38 0 57 -18.333 57 -55s-19 -55 -57 -55z" />
    <glyph glyph-name="Ugrave" unicode="&#xd9;" horiz-adv-x="314" 
d="M157 760c-2.66699 -45.333 -7.3291 -91.1689 -13.9961 -137.502l-20 -136.5c-10 -60 -18.333 -117.167 -25 -171.5s-8 -100.5 -4 -138.5c2 -32.667 12.333 -58.667 31 -78c5.33301 -6.66699 12.666 -12 21.999 -16c7.33301 -2.66699 14.666 -4 21.999 -4
c7.33301 1.33301 18.333 6 33 14v619c0 14.667 -7.33301 31 -22 49h100h22c-14.667 -18 -22 -34.333 -22 -49v-329.5v-329.5c0 -24 8 -41.333 24 -52c-21.333 0 -27.333 0 -18 0s3.66602 0 -17.001 0c-13.333 -1.33301 -25 4.33398 -35 17.001c-20 -11.333 -39 -17 -57 -17
c-23.333 -2.66699 -44 0 -62 8c-16.667 6.66699 -33.334 18.334 -50.001 35.001c-28.667 32 -45.667 73.333 -51 124c-3.33301 43.333 -1.83301 93.833 4.5 151.5s14.5 117.5 24.5 179.5c11.333 74.667 21 144 29 208c0 8 -3.16699 19 -9.5 33s-13.833 21 -22.5 21h117z
M254.005 807.997h-72l-107 112h125z" />
    <glyph glyph-name="Uacute" unicode="&#xda;" horiz-adv-x="321" 
d="M160 760c-2.66699 -45.333 -7.3291 -91.1689 -13.9961 -137.502l-20 -136.5c-10 -60 -18.333 -117.167 -25 -171.5s-8 -100.5 -4 -138.5c2 -32.667 12.333 -58.667 31 -78c5.33301 -6.66699 12.666 -12 21.999 -16c7.33301 -2.66699 14.666 -4 21.999 -4
c7.33301 1.33301 18.333 6 33 14v619c0 14.667 -7.33301 31 -22 49h100h22c-14.667 -18 -22 -34.333 -22 -49v-329.5v-329.5c0 -24 8 -41.333 24 -52c-21.333 0 -27.333 0 -18 0s3.66602 0 -17.001 0c-13.333 -1.33301 -25 4.33398 -35 17.001c-20 -11.333 -39 -17 -57 -17
c-23.333 -2.66699 -44 0 -62 8c-16.667 6.66699 -33.334 18.334 -50.001 35.001c-28.667 32 -45.667 73.333 -51 124c-3.33301 43.333 -1.83301 93.833 4.5 151.5s14.5 117.5 24.5 179.5c11.333 74.667 21 144 29 208c0 8 -3.16699 19 -9.5 33s-13.833 21 -22.5 21h117z
M132.005 919.997h125l-106 -112h-73z" />
    <glyph glyph-name="Ucircumflex" unicode="&#xdb;" horiz-adv-x="321" 
d="M160 760c-2.66699 -45.333 -7.3291 -91.1689 -13.9961 -137.502l-20 -136.5c-10 -60 -18.333 -117.167 -25 -171.5s-8 -100.5 -4 -138.5c2 -32.667 12.333 -58.667 31 -78c5.33301 -6.66699 12.666 -12 21.999 -16c7.33301 -2.66699 14.666 -4 21.999 -4
c7.33301 1.33301 18.333 6 33 14v619c0 14.667 -7.33301 31 -22 49h100h22c-14.667 -18 -22 -34.333 -22 -49v-329.5v-329.5c0 -24 8 -41.333 24 -52c-21.333 0 -27.333 0 -18 0s3.66602 0 -17.001 0c-13.333 -1.33301 -25 4.33398 -35 17.001c-20 -11.333 -39 -17 -57 -17
c-23.333 -2.66699 -44 0 -62 8c-16.667 6.66699 -33.334 18.334 -50.001 35.001c-28.667 32 -45.667 73.333 -51 124c-3.33301 43.333 -1.83301 93.833 4.5 151.5s14.5 117.5 24.5 179.5c11.333 74.667 21 144 29 208c0 8 -3.16699 19 -9.5 33s-13.833 21 -22.5 21h117z
M286.005 807.997h-72l-48 49l-46 -49h-72l53 112h132z" />
    <glyph glyph-name="Udieresis" unicode="&#xdc;" horiz-adv-x="318" 
d="M157 760c-2.66699 -45.333 -7.3291 -91.1689 -13.9961 -137.502l-20 -136.5c-10 -60 -18.333 -117.167 -25 -171.5s-8 -100.5 -4 -138.5c2 -32.667 12.333 -58.667 31 -78c5.33301 -6.66699 12.666 -12 21.999 -16c7.33301 -2.66699 14.666 -4 21.999 -4
c7.33301 1.33301 18.333 6 33 14v619c0 14.667 -7.33301 31 -22 49h100h22c-14.667 -18 -22 -34.333 -22 -49v-329.5v-329.5c0 -24 8 -41.333 24 -52c-21.333 0 -27.333 0 -18 0s3.66602 0 -17.001 0c-13.333 -1.33301 -25 4.33398 -35 17.001c-20 -11.333 -39 -17 -57 -17
c-23.333 -2.66699 -44 0 -62 8c-16.667 6.66699 -33.334 18.334 -50.001 35.001c-28.667 32 -45.667 73.333 -51 124c-3.33301 43.333 -1.83301 93.833 4.5 151.5s14.5 117.5 24.5 179.5c11.333 74.667 21 144 29 208c0 8 -3.16699 19 -9.5 33s-13.833 21 -22.5 21h117z
M201.005 820.997c0 11.333 3.83301 21 11.5 29s16.834 12 27.501 12s19.834 -4 27.501 -12s11.5 -17.667 11.5 -29s-3.83301 -20.833 -11.5 -28.5s-16.834 -11.5 -27.501 -11.5s-19.834 3.83301 -27.501 11.5s-11.5 17.167 -11.5 28.5zM63.0049 820.997
c0 11.333 3.66699 21 11 29s16.333 12 27 12c11.333 0 20.666 -4 27.999 -12s11 -17.667 11 -29s-3.66699 -20.833 -11 -28.5s-16.666 -11.5 -27.999 -11.5c-10.667 0 -19.667 3.83301 -27 11.5s-11 17.167 -11 28.5z" />
    <glyph glyph-name="Yacute" unicode="&#xdd;" horiz-adv-x="255" 
d="M66 0c16 12 24 31.333 24 58v194c0 8.66699 -1.5 15.5 -4.5 20.5s-6.16699 11.167 -9.5 18.5c-20 32.667 -34.667 67.5 -44 104.5s-14.666 75.167 -15.999 114.5c-0.666992 40.667 -0.833984 81.834 -0.500977 123.501s1.16602 83.834 2.49902 126.501h82
c-2.66699 -42 -4.5 -83.667 -5.5 -125s-0.166992 -82 2.5 -122c2.66699 -55.333 13.667 -106 33 -152c18 46 28.667 96.667 32 152c2 40 2.33301 80.667 1 122s-2.33301 83 -3 125h81c0.666992 -42.667 1.66699 -84.834 3 -126.501s0.666016 -82.834 -2.00098 -123.501
c-1.33301 -38.667 -6.66602 -76.667 -15.999 -114s-23.666 -72.333 -42.999 -105l-10.5 -19.5c-3 -5.66699 -4.5 -12.167 -4.5 -19.5v-98.5c0 -5 0 -4.66699 0 1s0 6 0 1v-97.5c0 -26.667 8 -46 24 -58h-63.5h-62.5zM141 911h125l-106 -112h-73z" />
    <glyph glyph-name="Thorn" unicode="&#xde;" horiz-adv-x="269" 
d="M33 711c0 16 -6.66797 32.334 -20.001 49.001h120c-13.333 -16.667 -20 -33 -20 -49v-59c30.667 -0.666992 61.334 -5.33398 92.001 -14.001c35.333 -10 50 -40 44 -90c-6 -65.333 -15.667 -121.833 -29 -169.5s-38.333 -94.5 -75 -140.5
c-6.66699 -10 -13 -24.333 -19 -43s-9 -40 -9 -64v-79c0 -24.667 7.66699 -42 23 -52h-127c16 10 24 27.333 24 52zM114.999 351.001c13.333 17.333 25.332 40 35.999 68s16.667 74.333 18 139c0.666992 6.66699 -4.66602 11 -15.999 13c-8.66699 0.666992 -22 1 -40 1z" />
    <glyph glyph-name="germandbls" unicode="&#xdf;" horiz-adv-x="454" 
d="M129 686c-14 0 -21.332 -10.501 -21.999 -31.501s13 -38.833 41 -53.5c46 -26.667 73.5 -66.5 82.5 -119.5s7.66699 -109.5 -4 -169.5s-29.5 -118.5 -53.5 -175.5s-45.667 -102.5 -65 -136.5h-95c18.667 25.333 40.5 64.333 65.5 117s44.667 107.667 59 165
s19.5 111.5 15.5 162.5s-26 87.833 -66 110.5c-45.333 24 -70.5 64.167 -75.5 120.5s12.167 84.5 51.5 84.5h361c-0.666992 -21.333 -1 -41.166 -1 -59.499s2.66699 -37.5 8 -57.5l6 -32l-23 -5c-7.33301 37.333 -13.833 60 -19.5 68s-29.167 12 -70.5 12
c-14 0 -21.333 -10.5 -22 -31.5s13 -38.833 41 -53.5c46 -26.667 73.5 -66.5 82.5 -119.5s7.66699 -109.5 -4 -169.5s-29.5 -118.5 -53.5 -175.5s-45.667 -102.5 -65 -136.5h-95c18.667 25.333 40.5 64.333 65.5 117s44.667 107.667 59 165s19.5 111.5 15.5 162.5
s-26 87.833 -66 110.5c-36 18.667 -59.333 47.667 -70 87c-2.66699 13.333 -6.83398 24 -12.501 32s-29.167 12 -70.5 12z" />
    <glyph glyph-name="agrave" unicode="&#xe0;" horiz-adv-x="307" 
d="M94 760h121.998c-13.333 -20 -16.666 -37.333 -9.99902 -52s13.334 -32.334 20.001 -53.001c22 -76 38.833 -159.667 50.5 -251s17.5 -166.666 17.5 -225.999v-178h-81v178c0 12.667 -0.333008 26.334 -1 41.001s-1 30.334 -1 47.001
c-13.333 -4 -30.666 -12.667 -51.999 -26c-26.667 -16 -47.334 -33.333 -62.001 -52v-5v-5v-178h-81v178c0 59.333 5.83301 134.666 17.5 225.999s28.5 175 50.5 251c6 21.333 12.333 39.166 19 53.499s3.66699 31.5 -9 51.5zM100.998 283
c16.667 14.667 31.999 25.999 45.999 33.999c20 12 38.667 21.333 56 28c-4.66699 43.333 -11.167 88 -19.5 134s-18.166 89.667 -29.499 131c-14 -51.333 -25.333 -106.166 -34 -164.499s-15 -112.5 -19 -162.5zM205.997 321.999
c-19.333 -8 -35.001 -15.999 -47.001 -23.999c-23.333 -14.667 -43.666 -30.667 -60.999 -48c0 -12.667 -0.333008 -22 -1 -28c18 15.333 34.667 28 50 38c24.667 14.667 45 24 61 28c-0.666992 5.33301 -1.16699 10.666 -1.5 15.999s-0.5 11.333 -0.5 18zM178.996 796h-72
l-107 112h125z" />
    <glyph glyph-name="aacute" unicode="&#xe1;" horiz-adv-x="309" 
d="M95 760h121.998c-13.333 -20 -16.666 -37.333 -9.99902 -52s13.334 -32.334 20.001 -53.001c22 -76 38.833 -159.667 50.5 -251s17.5 -166.666 17.5 -225.999v-178h-81v178c0 12.667 -0.333008 26.334 -1 41.001s-1 30.334 -1 47.001
c-13.333 -4 -30.666 -12.667 -51.999 -26c-26.667 -16 -47.334 -33.333 -62.001 -52v-5v-5v-178h-81v178c0 59.333 5.83301 134.666 17.5 225.999s28.5 175 50.5 251c6 21.333 12.333 39.166 19 53.499s3.66699 31.5 -9 51.5zM101.998 283
c16.667 14.667 31.999 25.999 45.999 33.999c20 12 38.667 21.333 56 28c-4.66699 43.333 -11.167 88 -19.5 134s-18.166 89.667 -29.499 131c-14 -51.333 -25.333 -106.166 -34 -164.499s-15 -112.5 -19 -162.5zM206.997 321.999
c-19.333 -8 -35.001 -15.999 -47.001 -23.999c-23.333 -14.667 -43.666 -30.667 -60.999 -48c0 -12.667 -0.333008 -22 -1 -28c18 15.333 34.667 28 50 38c24.667 14.667 45 24 61 28c-0.666992 5.33301 -1.16699 10.666 -1.5 15.999s-0.5 11.333 -0.5 18zM165.996 910h125
l-106 -112h-73z" />
    <glyph glyph-name="acircumflex" unicode="&#xe2;" horiz-adv-x="305" 
d="M93 760h121.998c-13.333 -20 -16.666 -37.333 -9.99902 -52s13.334 -32.334 20.001 -53.001c22 -76 38.833 -159.667 50.5 -251s17.5 -166.666 17.5 -225.999v-178h-81v178c0 12.667 -0.333008 26.334 -1 41.001s-1 30.334 -1 47.001
c-13.333 -4 -30.666 -12.667 -51.999 -26c-26.667 -16 -47.334 -33.333 -62.001 -52v-5v-5v-178h-81v178c0 59.333 5.83301 134.666 17.5 225.999s28.5 175 50.5 251c6 21.333 12.333 39.166 19 53.499s3.66699 31.5 -9 51.5zM99.998 283
c16.667 14.667 31.999 25.999 45.999 33.999c20 12 38.667 21.333 56 28c-4.66699 43.333 -11.167 88 -19.5 134s-18.166 89.667 -29.499 131c-14 -51.333 -25.333 -106.166 -34 -164.499s-15 -112.5 -19 -162.5zM204.997 321.999
c-19.333 -8 -35.001 -15.999 -47.001 -23.999c-23.333 -14.667 -43.666 -30.667 -60.999 -48c0 -12.667 -0.333008 -22 -1 -28c18 15.333 34.667 28 50 38c24.667 14.667 45 24 61 28c-0.666992 5.33301 -1.16699 10.666 -1.5 15.999s-0.5 11.333 -0.5 18zM271.996 791h-72
l-48 49l-46 -49h-72l53 112h132z" />
    <glyph glyph-name="atilde" unicode="&#xe3;" horiz-adv-x="305" 
d="M93 760h121.998c-13.333 -20 -16.666 -37.333 -9.99902 -52s13.334 -32.334 20.001 -53.001c22 -76 38.833 -159.667 50.5 -251s17.5 -166.666 17.5 -225.999v-178h-81v178c0 12.667 -0.333008 26.334 -1 41.001s-1 30.334 -1 47.001
c-13.333 -4 -30.666 -12.667 -51.999 -26c-26.667 -16 -47.334 -33.333 -62.001 -52v-5v-5v-178h-81v178c0 59.333 5.83301 134.666 17.5 225.999s28.5 175 50.5 251c6 21.333 12.333 39.166 19 53.499s3.66699 31.5 -9 51.5zM99.998 283
c16.667 14.667 31.999 25.999 45.999 33.999c20 12 38.667 21.333 56 28c-4.66699 43.333 -11.167 88 -19.5 134s-18.166 89.667 -29.499 131c-14 -51.333 -25.333 -106.166 -34 -164.499s-15 -112.5 -19 -162.5zM204.997 321.999
c-19.333 -8 -35.001 -15.999 -47.001 -23.999c-23.333 -14.667 -43.666 -30.667 -60.999 -48c0 -12.667 -0.333008 -22 -1 -28c18 15.333 34.667 28 50 38c24.667 14.667 45 24 61 28c-0.666992 5.33301 -1.16699 10.666 -1.5 15.999s-0.5 11.333 -0.5 18zM25.9961 785
c0 40.667 7.33301 68.5 22 83.5s33 22.833 55 23.5c14.667 0 36 -5 64 -15c18.667 -7.33301 30.667 -10 36 -8c-1.33301 0 -2 8.33301 -2 25l80 1c0 -42 -7.16699 -70.5 -21.5 -85.5s-32.5 -22.5 -54.5 -22.5c-12 0 -23.167 1.5 -33.5 4.5s-20.5 6.16699 -30.5 9.5
c-18.667 6.66699 -30.667 10 -36 10c0.666992 0 1 -8.33301 1 -25z" />
    <glyph glyph-name="adieresis" unicode="&#xe4;" horiz-adv-x="307" 
d="M94 760h121.998c-13.333 -20 -16.666 -37.333 -9.99902 -52s13.334 -32.334 20.001 -53.001c22 -76 38.833 -159.667 50.5 -251s17.5 -166.666 17.5 -225.999v-178h-81v178c0 12.667 -0.333008 26.334 -1 41.001s-1 30.334 -1 47.001
c-13.333 -4 -30.666 -12.667 -51.999 -26c-26.667 -16 -47.334 -33.333 -62.001 -52v-5v-5v-178h-81v178c0 59.333 5.83301 134.666 17.5 225.999s28.5 175 50.5 251c6 21.333 12.333 39.166 19 53.499s3.66699 31.5 -9 51.5zM100.998 283
c16.667 14.667 31.999 25.999 45.999 33.999c20 12 38.667 21.333 56 28c-4.66699 43.333 -11.167 88 -19.5 134s-18.166 89.667 -29.499 131c-14 -51.333 -25.333 -106.166 -34 -164.499s-15 -112.5 -19 -162.5zM205.997 321.999
c-19.333 -8 -35.001 -15.999 -47.001 -23.999c-23.333 -14.667 -43.666 -30.667 -60.999 -48c0 -12.667 -0.333008 -22 -1 -28c18 15.333 34.667 28 50 38c24.667 14.667 45 24 61 28c-0.666992 5.33301 -1.16699 10.666 -1.5 15.999s-0.5 11.333 -0.5 18zM184.996 825
c0 11.333 3.83301 21 11.5 29s16.834 12 27.501 12s19.834 -4 27.501 -12s11.5 -17.667 11.5 -29s-3.83301 -20.833 -11.5 -28.5s-16.834 -11.5 -27.501 -11.5s-19.834 3.83301 -27.501 11.5s-11.5 17.167 -11.5 28.5zM46.9961 825c0 11.333 3.66699 21 11 29
s16.333 12 27 12c11.333 0 20.666 -4 27.999 -12s11 -17.667 11 -29s-3.66699 -20.833 -11 -28.5s-16.666 -11.5 -27.999 -11.5c-10.667 0 -19.667 3.83301 -27 11.5s-11 17.167 -11 28.5z" />
    <glyph glyph-name="aring" unicode="&#xe5;" horiz-adv-x="307" 
d="M94 760h121.998c-13.333 -20 -16.666 -37.333 -9.99902 -52s13.334 -32.334 20.001 -53.001c22 -76 38.833 -159.667 50.5 -251s17.5 -166.666 17.5 -225.999v-178h-81v178c0 12.667 -0.333008 26.334 -1 41.001s-1 30.334 -1 47.001
c-13.333 -4 -30.666 -12.667 -51.999 -26c-26.667 -16 -47.334 -33.333 -62.001 -52v-5v-5v-178h-81v178c0 59.333 5.83301 134.666 17.5 225.999s28.5 175 50.5 251c6 21.333 12.333 39.166 19 53.499s3.66699 31.5 -9 51.5zM100.998 283
c16.667 14.667 31.999 25.999 45.999 33.999c20 12 38.667 21.333 56 28c-4.66699 43.333 -11.167 88 -19.5 134s-18.166 89.667 -29.499 131c-14 -51.333 -25.333 -106.166 -34 -164.499s-15 -112.5 -19 -162.5zM205.997 321.999
c-19.333 -8 -35.001 -15.999 -47.001 -23.999c-23.333 -14.667 -43.666 -30.667 -60.999 -48c0 -12.667 -0.333008 -22 -1 -28c18 15.333 34.667 28 50 38c24.667 14.667 45 24 61 28c-0.666992 5.33301 -1.16699 10.666 -1.5 15.999s-0.5 11.333 -0.5 18zM72.9961 841
c0 27.333 7.99902 45.832 23.999 55.499s35.667 14.5 59 14.5c11.333 0 22 -1.16699 32 -3.5s18.833 -6.16602 26.5 -11.499s13.667 -12.5 18 -21.5s6.5 -20.167 6.5 -33.5s-2.16699 -27.166 -6.5 -41.499s-10.333 -27.333 -18 -39s-16.5 -21.334 -26.5 -29.001
s-20.667 -11.5 -32 -11.5c-12 0 -23 3.83301 -33 11.5s-18.667 17.334 -26 29.001s-13.166 24.667 -17.499 39s-6.5 28.166 -6.5 41.499zM125.995 839.999c0 -7.33301 0.663086 -15.166 1.99609 -23.499s3.33301 -16.166 6 -23.499s5.83398 -13.333 9.50098 -18
s7.83398 -7 12.501 -7c4 0 8 2.33301 12 7s7.33301 10.667 10 18s4.83398 15.166 6.50098 23.499s2.5 16.166 2.5 23.499c0 14 -3 22.667 -9 26s-13.333 5 -22 5c-9.33301 0 -16.666 -1.66699 -21.999 -5s-8 -12 -8 -26z" />
    <glyph glyph-name="ae" unicode="&#xe6;" horiz-adv-x="470" 
d="M180 760l260 0.00195312c-4.66699 -51.333 0.333008 -97.333 15 -138l-19 -7c-6 14 -12.667 28 -20 42s-16 21 -26 21h-84v-83h57c16 0 27.333 10.667 34 32l18 -2l-28 -150l-19 3c1.33301 24.667 -5.33398 37 -20.001 37l-42 -5v-432h84c10 0 18.667 7 26 21
s14 28.333 20 43l19 -7c-14.667 -42 -19.667 -87 -15 -135h-238c16 10 24 27.333 24 52v209c-12 -5.33301 -25.667 -12.333 -41 -21c-28.667 -16 -51.334 -33.333 -68.001 -52c-0.666992 -2 -1 -4 -1 -6v-4l-20 -178h-80l20 178
c6.66699 59.333 20.834 134.666 42.501 225.999s47.834 175 78.501 251c8.66699 21.333 17.167 39.166 25.5 53.499s7.5 31.5 -2.5 51.5zM131 283.002c18 14.667 34.666 26 49.999 34c16 8.66699 31 15.667 45 21l1 285c-23.333 -60 -42.666 -119.167 -57.999 -177.5
s-28 -112.5 -38 -162.5zM191.999 298.002c-24.667 -14.667 -47.002 -30.668 -67.002 -48.001c-1.33301 -12.667 -2.66602 -22 -3.99902 -28c20 15.333 38 28 54 38c20 10.667 37 18.334 51 23.001v33c-13.333 -6.66699 -24.666 -12.667 -33.999 -18z" />
    <glyph glyph-name="ccedilla" unicode="&#xe7;" horiz-adv-x="245" 
d="M212 656c-6 17.333 -17.334 26.001 -34.001 26.001c-33.333 0.666992 -55 -4 -65 -14c-12 -12 -17.833 -35.5 -17.5 -70.5s0.833008 -61.5 1.5 -79.5c4 -87.333 15.667 -177.833 35 -271.5s54.333 -175.834 105 -246.501h-95c-42.667 74.667 -73.167 157.167 -91.5 247.5
s-29.5 179.5 -33.5 267.5c-1.33301 32 -1.16602 68.833 0.500977 110.5s14.5 75.167 38.5 100.5c30 29.333 85 41 165 35zM123.999 -77.999l22.001 85h57l-14 -51c23.333 -3.33301 41.166 -11.833 53.499 -25.5s18.5 -28.834 18.5 -45.501
c0 -24.667 -10.333 -46.167 -31 -64.5s-51.334 -27.5 -92.001 -27.5c-22.667 0 -42.667 2.33301 -60 7l5 56c17.333 -2 30.333 -3 39 -3c26.667 0 45.334 4.33301 56.001 13c7.33301 6.66699 11 15 11 25c0 4.66699 -1.33301 9.33398 -4 14.001s-8.5 8.66699 -17.5 12
s-23.5 5 -43.5 5z" />
    <glyph glyph-name="egrave" unicode="&#xe8;" horiz-adv-x="281" 
d="M16 0c15.333 10 23 27.333 23 52v659c0 16 -6.66699 32.333 -20 49h100h134c-4 -51.333 1 -97.333 15 -138l-19 -7c-5.33301 14 -11.833 28 -19.5 42s-16.5 21 -26.5 21h-84v-83h58c16 0 27.333 10.667 34 32l17 -2l-27 -150l-19 3c0.666992 24.667 -6 37 -20 37h-43
v-437h84c10 0 18.833 7 26.5 21s14.167 28.333 19.5 43l19 -7c-14 -42 -19 -87 -15 -135h-119.5h-117.5zM194 789h-72l-107 112h125z" />
    <glyph glyph-name="eacute" unicode="&#xe9;" horiz-adv-x="273" 
d="M8 0c15.333 10 23 27.333 23 52v659c0 16 -6.66699 32.333 -20 49h100h134c-4 -51.333 1 -97.333 15 -138l-19 -7c-5.33301 14 -11.833 28 -19.5 42s-16.5 21 -26.5 21h-84v-83h58c16 0 27.333 10.667 34 32l17 -2l-27 -150l-19 3c0.666992 24.667 -6 37 -20 37h-43v-437
h84c10 0 18.833 7 26.5 21s14.167 28.333 19.5 43l19 -7c-14 -42 -19 -87 -15 -135h-119.5h-117.5zM135 896h125l-106 -112h-73z" />
    <glyph glyph-name="ecircumflex" unicode="&#xea;" horiz-adv-x="276" 
d="M11 0c15.333 10 23 27.333 23 52v659c0 16 -6.66699 32.333 -20 49h100h134c-4 -51.333 1 -97.333 15 -138l-19 -7c-5.33301 14 -11.833 28 -19.5 42s-16.5 21 -26.5 21h-84v-83h58c16 0 27.333 10.667 34 32l17 -2l-27 -150l-19 3c0.666992 24.667 -6 37 -20 37h-43
v-437h84c10 0 18.833 7 26.5 21s14.167 28.333 19.5 43l19 -7c-14 -42 -19 -87 -15 -135h-119.5h-117.5zM252 787h-72l-48 49l-46 -49h-72l53 112h132z" />
    <glyph glyph-name="edieresis" unicode="&#xeb;" horiz-adv-x="278" 
d="M13 0c15.333 10 23 27.333 23 52v659c0 16 -6.66699 32.333 -20 49h100h134c-4 -51.333 1 -97.333 15 -138l-19 -7c-5.33301 14 -11.833 28 -19.5 42s-16.5 21 -26.5 21h-84v-83h58c16 0 27.333 10.667 34 32l17 -2l-27 -150l-19 3c0.666992 24.667 -6 37 -20 37h-43
v-437h84c10 0 18.833 7 26.5 21s14.167 28.333 19.5 43l19 -7c-14 -42 -19 -87 -15 -135h-119.5h-117.5zM166 820c0 11.333 3.83301 21 11.5 29s16.834 12 27.501 12s19.834 -4 27.501 -12s11.5 -17.667 11.5 -29s-3.83301 -20.833 -11.5 -28.5s-16.834 -11.5 -27.501 -11.5
s-19.834 3.83301 -27.501 11.5s-11.5 17.167 -11.5 28.5zM28 820c0 11.333 3.66699 21 11 29s16.333 12 27 12c11.333 0 20.666 -4 27.999 -12s11 -17.667 11 -29s-3.66699 -20.833 -11 -28.5s-16.666 -11.5 -27.999 -11.5c-10.667 0 -19.667 3.83301 -27 11.5
s-11 17.167 -11 28.5z" />
    <glyph glyph-name="igrave" unicode="&#xec;" horiz-adv-x="148" 
d="M40 52v263.5v167.5v116v112c0 16 -6.66699 32.333 -20 49h100h20c-13.333 -16.667 -20 -33 -20 -49v-329.5v-329.5c0 -24.667 8 -42 24 -52h-64h-63c15.333 10 23 27.333 23 52zM119 794h-72l-107 112h125z" />
    <glyph glyph-name="iacute" unicode="&#xed;" horiz-adv-x="145" 
d="M37 52v263.5v167.5v116v112c0 16 -6.66699 32.333 -20 49h100h20c-13.333 -16.667 -20 -33 -20 -49v-329.5v-329.5c0 -24.667 8 -42 24 -52h-64h-63c15.333 10 23 27.333 23 52zM88 910h125l-106 -112h-73z" />
    <glyph glyph-name="icircumflex" unicode="&#xee;" horiz-adv-x="144" 
d="M36 52v263.5v167.5v116v112c0 16 -6.66699 32.333 -20 49h100h20c-13.333 -16.667 -20 -33 -20 -49v-329.5v-329.5c0 -24.667 8 -42 24 -52h-64h-63c15.333 10 23 27.333 23 52zM196 798h-72l-48 49l-46 -49h-72l53 112h132z" />
    <glyph glyph-name="idieresis" unicode="&#xef;" horiz-adv-x="146" 
d="M38 52v263.5v167.5v116v112c0 16 -6.66699 32.333 -20 49h100h20c-13.333 -16.667 -20 -33 -20 -49v-329.5v-329.5c0 -24.667 8 -42 24 -52h-64h-63c15.333 10 23 27.333 23 52zM111 826c0 11.333 3.83301 21 11.5 29s16.834 12 27.501 12s19.834 -4 27.501 -12
s11.5 -17.667 11.5 -29s-3.83301 -20.833 -11.5 -28.5s-16.834 -11.5 -27.501 -11.5s-19.834 3.83301 -27.501 11.5s-11.5 17.167 -11.5 28.5zM-27 826c0 11.333 3.66699 21 11 29s16.333 12 27 12c11.333 0 20.666 -4 27.999 -12s11 -17.667 11 -29
s-3.66699 -20.833 -11 -28.5s-16.666 -11.5 -27.999 -11.5c-10.667 0 -19.667 3.83301 -27 11.5s-11 17.167 -11 28.5z" />
    <glyph glyph-name="eth" unicode="&#xf0;" horiz-adv-x="303" 
d="M16 590h22v121c0 16 -6.66699 32.333 -20 49h115c52.667 0 92.334 -13.333 119.001 -40c25.333 -28 37.166 -67.167 35.499 -117.5s-3.83398 -92.833 -6.50098 -127.5c-2.66699 -26.667 -6 -66.5 -10 -119.5s-12.167 -105.833 -24.5 -158.5s-29.666 -98.667 -51.999 -138
s-53.5 -59 -93.5 -59h-86c15.333 10 23 27.333 23 52v461h-22v77zM118 83c15.333 12 28.001 35.001 38.001 69.001s17.667 71.5 23 112.5s9.5 81.5 12.5 121.5s5.83301 71.667 8.5 95l7 94c3.33301 45.333 -1.33398 74.666 -14.001 87.999
c-8.66699 8.66699 -33.667 13.667 -75 15v-88h33v-77h-33v-430z" />
    <glyph glyph-name="ntilde" unicode="&#xf1;" horiz-adv-x="361" 
d="M219 0c16.667 10.667 24.999 28 24.999 52v196c0 50 -3.5 98.667 -10.5 146s-18.833 95 -35.5 143c-10 27.333 -21.667 53 -35 77s-27.666 41.667 -42.999 53v-615c0 -24.667 8 -42 24 -52h-64h-63c15.333 10 23 27.333 23 52v659c0 16 -6.66699 32.333 -20 49
c52 2 94.667 -3.66699 128 -17s65.333 -50 96 -110v78c0 14.667 -7 31 -21 49h120c-13.333 -18.667 -20 -35 -20 -49v-331v-328c0 -24.667 8 -42 24 -52h-65h-63zM51.999 781c0 40.667 7.33301 68.5 22 83.5s33 22.833 55 23.5c14.667 0 36 -5 64 -15
c18.667 -7.33301 30.667 -10 36 -8c-1.33301 0 -2 8.33301 -2 25l80 1c0 -42 -7.16699 -70.5 -21.5 -85.5s-32.5 -22.5 -54.5 -22.5c-12 0 -23.167 1.5 -33.5 4.5s-20.5 6.16699 -30.5 9.5c-18.667 6.66699 -30.667 10 -36 10c0.666992 0 1 -8.33301 1 -25z" />
    <glyph glyph-name="ograve" unicode="&#xf2;" horiz-adv-x="367" 
d="M182 0c-37.333 0 -56 18.333 -56 55s18.667 55 56 55c38 0 57 -18.333 57 -55s-19 -55 -57 -55zM300 718c21.333 -22 35.334 -51.168 42.001 -87.501s9 -73.833 7 -112.5c-2.66699 -40 -8 -78.333 -16 -115s-15.667 -66.667 -23 -90
c-32.667 -98 -75.334 -147 -128.001 -147c-54 0 -96.667 49 -128 147c-8 24.667 -16.167 55.334 -24.5 92.001s-13.166 75 -14.499 115c-2 38 0 75 6 111s20.333 65 43 87c26.667 28.667 66 43 118 43c51.333 0 90.666 -14.333 117.999 -43zM242.001 661.999
c-11.333 12 -31.334 18 -60.001 18c-28 0 -48.333 -6 -61 -18c-14.667 -14.667 -23.334 -37.834 -26.001 -69.501s-1.33398 -63.834 3.99902 -96.501c3.33301 -34 8.5 -65.833 15.5 -95.5s12.5 -50.5 16.5 -62.5c20 -61.333 37 -92 51 -92c12.667 0 29.334 30.667 50.001 92
c4.66699 12 10.334 32.833 17.001 62.5s12.334 61.5 17.001 95.5c3.33301 32.667 4 64.834 2 96.501s-10.667 54.834 -26 69.501zM224 782.999h-72l-107 112h125z" />
    <glyph glyph-name="oacute" unicode="&#xf3;" horiz-adv-x="368" 
d="M183 0c-37.333 0 -56 18.333 -56 55s18.667 55 56 55c38 0 57 -18.333 57 -55s-19 -55 -57 -55zM301 718c21.333 -22 35.334 -51.168 42.001 -87.501s9 -73.833 7 -112.5c-2.66699 -40 -8 -78.333 -16 -115s-15.667 -66.667 -23 -90
c-32.667 -98 -75.334 -147 -128.001 -147c-54 0 -96.667 49 -128 147c-8 24.667 -16.167 55.334 -24.5 92.001s-13.166 75 -14.499 115c-2 38 0 75 6 111s20.333 65 43 87c26.667 28.667 66 43 118 43c51.333 0 90.666 -14.333 117.999 -43zM243.001 661.999
c-11.333 12 -31.334 18 -60.001 18c-28 0 -48.333 -6 -61 -18c-14.667 -14.667 -23.334 -37.834 -26.001 -69.501s-1.33398 -63.834 3.99902 -96.501c3.33301 -34 8.5 -65.833 15.5 -95.5s12.5 -50.5 16.5 -62.5c20 -61.333 37 -92 51 -92c12.667 0 29.334 30.667 50.001 92
c4.66699 12 10.334 32.833 17.001 62.5s12.334 61.5 17.001 95.5c3.33301 32.667 4 64.834 2 96.501s-10.667 54.834 -26 69.501zM205 899.999h125l-106 -112h-73z" />
    <glyph glyph-name="ocircumflex" unicode="&#xf4;" horiz-adv-x="359" 
d="M181 0c-37.333 0 -56 18.333 -56 55s18.667 55 56 55c38 0 57 -18.333 57 -55s-19 -55 -57 -55zM299 718c21.333 -22 35.334 -51.168 42.001 -87.501s9 -73.833 7 -112.5c-2.66699 -40 -8 -78.333 -16 -115s-15.667 -66.667 -23 -90
c-32.667 -98 -75.334 -147 -128.001 -147c-54 0 -96.667 49 -128 147c-8 24.667 -16.167 55.334 -24.5 92.001s-13.166 75 -14.499 115c-2 38 0 75 6 111s20.333 65 43 87c26.667 28.667 66 43 118 43c51.333 0 90.666 -14.333 117.999 -43zM241.001 661.999
c-11.333 12 -31.334 18 -60.001 18c-28 0 -48.333 -6 -61 -18c-14.667 -14.667 -23.334 -37.834 -26.001 -69.501s-1.33398 -63.834 3.99902 -96.501c3.33301 -34 8.5 -65.833 15.5 -95.5s12.5 -50.5 16.5 -62.5c20 -61.333 37 -92 51 -92c12.667 0 29.334 30.667 50.001 92
c4.66699 12 10.334 32.833 17.001 62.5s12.334 61.5 17.001 95.5c3.33301 32.667 4 64.834 2 96.501s-10.667 54.834 -26 69.501zM299 775.999h-72l-48 49l-46 -49h-72l53 112h132z" />
    <glyph glyph-name="otilde" unicode="&#xf5;" horiz-adv-x="359" 
d="M181 0c-37.333 0 -56 18.333 -56 55s18.667 55 56 55c38 0 57 -18.333 57 -55s-19 -55 -57 -55zM299 718c21.333 -22 35.334 -51.168 42.001 -87.501s9 -73.833 7 -112.5c-2.66699 -40 -8 -78.333 -16 -115s-15.667 -66.667 -23 -90
c-32.667 -98 -75.334 -147 -128.001 -147c-54 0 -96.667 49 -128 147c-8 24.667 -16.167 55.334 -24.5 92.001s-13.166 75 -14.499 115c-2 38 0 75 6 111s20.333 65 43 87c26.667 28.667 66 43 118 43c51.333 0 90.666 -14.333 117.999 -43zM241.001 661.999
c-11.333 12 -31.334 18 -60.001 18c-28 0 -48.333 -6 -61 -18c-14.667 -14.667 -23.334 -37.834 -26.001 -69.501s-1.33398 -63.834 3.99902 -96.501c3.33301 -34 8.5 -65.833 15.5 -95.5s12.5 -50.5 16.5 -62.5c20 -61.333 37 -92 51 -92c12.667 0 29.334 30.667 50.001 92
c4.66699 12 10.334 32.833 17.001 62.5s12.334 61.5 17.001 95.5c3.33301 32.667 4 64.834 2 96.501s-10.667 54.834 -26 69.501zM52 781.999c0 40.667 7.33301 68.5 22 83.5s33 22.833 55 23.5c14.667 0 36 -5 64 -15c18.667 -7.33301 30.667 -10 36 -8
c-1.33301 0 -2 8.33301 -2 25l80 1c0 -42 -7.16699 -70.5 -21.5 -85.5s-32.5 -22.5 -54.5 -22.5c-12 0 -23.167 1.5 -33.5 4.5s-20.5 6.16699 -30.5 9.5c-18.667 6.66699 -30.667 10 -36 10c0.666992 0 1 -8.33301 1 -25z" />
    <glyph glyph-name="odieresis" unicode="&#xf6;" horiz-adv-x="363" 
d="M183 0c-37.333 0 -56 18.333 -56 55s18.667 55 56 55c38 0 57 -18.333 57 -55s-19 -55 -57 -55zM301 718c21.333 -22 35.334 -51.168 42.001 -87.501s9 -73.833 7 -112.5c-2.66699 -40 -8 -78.333 -16 -115s-15.667 -66.667 -23 -90
c-32.667 -98 -75.334 -147 -128.001 -147c-54 0 -96.667 49 -128 147c-8 24.667 -16.167 55.334 -24.5 92.001s-13.166 75 -14.499 115c-2 38 0 75 6 111s20.333 65 43 87c26.667 28.667 66 43 118 43c51.333 0 90.666 -14.333 117.999 -43zM243.001 661.999
c-11.333 12 -31.334 18 -60.001 18c-28 0 -48.333 -6 -61 -18c-14.667 -14.667 -23.334 -37.834 -26.001 -69.501s-1.33398 -63.834 3.99902 -96.501c3.33301 -34 8.5 -65.833 15.5 -95.5s12.5 -50.5 16.5 -62.5c20 -61.333 37 -92 51 -92c12.667 0 29.334 30.667 50.001 92
c4.66699 12 10.334 32.833 17.001 62.5s12.334 61.5 17.001 95.5c3.33301 32.667 4 64.834 2 96.501s-10.667 54.834 -26 69.501zM214 825.999c0 11.333 3.83301 21 11.5 29s16.834 12 27.501 12s19.834 -4 27.501 -12s11.5 -17.667 11.5 -29s-3.83301 -20.833 -11.5 -28.5
s-16.834 -11.5 -27.501 -11.5s-19.834 3.83301 -27.501 11.5s-11.5 17.167 -11.5 28.5zM76 825.999c0 11.333 3.66699 21 11 29s16.333 12 27 12c11.333 0 20.666 -4 27.999 -12s11 -17.667 11 -29s-3.66699 -20.833 -11 -28.5s-16.666 -11.5 -27.999 -11.5
c-10.667 0 -19.667 3.83301 -27 11.5s-11 17.167 -11 28.5z" />
    <glyph glyph-name="divide" unicode="&#xf7;" horiz-adv-x="320" 
d="M20 270h281v-87h-281v87zM162 393c27.333 0 41 -14 41 -42c0 -26.667 -13.667 -40 -41 -40c-28 0 -42 13.333 -42 40c0 28 14 42 42 42zM162 140c27.333 0 41 -14.333 41 -43c0 -26.667 -13.667 -40 -41 -40c-28 0 -42 13.333 -42 40c0 28.667 14 43 42 43z" />
    <glyph glyph-name="oslash" unicode="&#xf8;" horiz-adv-x="372" 
d="M70 275c-4.66699 12 -9 24.665 -13 37.998c-8 24.667 -16.167 55.334 -24.5 92.001s-13.166 75 -14.499 115c-2 38 0 75 6 111s20.333 65 43 87c26.667 28.667 66 43 118 43c30 0 56 -5 78 -15l5 12h77l-25 -61c12 -19.333 20.333 -41.666 25 -66.999
c6.66699 -36 9 -73.333 7 -112c-2.66699 -40 -8 -78.333 -16 -115s-15.667 -66.667 -23 -90c-32.667 -98 -75.334 -147 -128.001 -147c-25.333 0 -48 10.333 -68 31l-14 -32h-78zM117 399.998c0.666992 -2 1.00195 -4.33105 1.00195 -6.99805l114 278c-11.333 6 -27 9 -47 9
c-28 0 -48.333 -6 -61 -18c-14.667 -14.667 -23.334 -37.834 -26.001 -69.501s-1.33398 -63.834 3.99902 -96.501c3.33301 -34 8.33301 -66 15 -96zM269.002 496c2.66699 27.333 3.66406 54.667 2.99707 82l-119 -291c11.333 -27.333 22 -41 32 -41
c12.667 0 29.334 30.667 50.001 92c4.66699 12 10.334 32.833 17.001 62.5s12.334 61.5 17.001 95.5zM184.999 0.000976562c-37.333 0 -56 18.333 -56 55s18.667 55 56 55c38 0 57 -18.333 57 -55s-19 -55 -57 -55z" />
    <glyph glyph-name="ugrave" unicode="&#xf9;" horiz-adv-x="319" 
d="M158 760c-2.66699 -45.333 -7.3291 -91.1689 -13.9961 -137.502l-20 -136.5c-10 -60 -18.333 -117.167 -25 -171.5s-8 -100.5 -4 -138.5c2 -32.667 12.333 -58.667 31 -78c5.33301 -6.66699 12.666 -12 21.999 -16c7.33301 -2.66699 14.666 -4 21.999 -4
c7.33301 1.33301 18.333 6 33 14v619c0 14.667 -7.33301 31 -22 49h100h22c-14.667 -18 -22 -34.333 -22 -49v-329.5v-329.5c0 -24 8 -41.333 24 -52c-21.333 0 -27.333 0 -18 0s3.66602 0 -17.001 0c-13.333 -1.33301 -25 4.33398 -35 17.001c-20 -11.333 -39 -17 -57 -17
c-23.333 -2.66699 -44 0 -62 8c-16.667 6.66699 -33.334 18.334 -50.001 35.001c-28.667 32 -45.667 73.333 -51 124c-3.33301 43.333 -1.83301 93.833 4.5 151.5s14.5 117.5 24.5 179.5c11.333 74.667 21 144 29 208c0 8 -3.16699 19 -9.5 33s-13.833 21 -22.5 21h117z
M227.005 785.997h-72l-107 112h125z" />
    <glyph glyph-name="uacute" unicode="&#xfa;" horiz-adv-x="321" 
d="M160 760c-2.66699 -45.333 -7.3291 -91.1689 -13.9961 -137.502l-20 -136.5c-10 -60 -18.333 -117.167 -25 -171.5s-8 -100.5 -4 -138.5c2 -32.667 12.333 -58.667 31 -78c5.33301 -6.66699 12.666 -12 21.999 -16c7.33301 -2.66699 14.666 -4 21.999 -4
c7.33301 1.33301 18.333 6 33 14v619c0 14.667 -7.33301 31 -22 49h100h22c-14.667 -18 -22 -34.333 -22 -49v-329.5v-329.5c0 -24 8 -41.333 24 -52c-21.333 0 -27.333 0 -18 0s3.66602 0 -17.001 0c-13.333 -1.33301 -25 4.33398 -35 17.001c-20 -11.333 -39 -17 -57 -17
c-23.333 -2.66699 -44 0 -62 8c-16.667 6.66699 -33.334 18.334 -50.001 35.001c-28.667 32 -45.667 73.333 -51 124c-3.33301 43.333 -1.83301 93.833 4.5 151.5s14.5 117.5 24.5 179.5c11.333 74.667 21 144 29 208c0 8 -3.16699 19 -9.5 33s-13.833 21 -22.5 21h117z
M183.005 901.997h125l-106 -112h-73z" />
    <glyph glyph-name="ucircumflex" unicode="&#xfb;" horiz-adv-x="315" 
d="M156 760c-2.66699 -45.333 -7.3291 -91.1689 -13.9961 -137.502l-20 -136.5c-10 -60 -18.333 -117.167 -25 -171.5s-8 -100.5 -4 -138.5c2 -32.667 12.333 -58.667 31 -78c5.33301 -6.66699 12.666 -12 21.999 -16c7.33301 -2.66699 14.666 -4 21.999 -4
c7.33301 1.33301 18.333 6 33 14v619c0 14.667 -7.33301 31 -22 49h100h22c-14.667 -18 -22 -34.333 -22 -49v-329.5v-329.5c0 -24 8 -41.333 24 -52c-21.333 0 -27.333 0 -18 0s3.66602 0 -17.001 0c-13.333 -1.33301 -25 4.33398 -35 17.001c-20 -11.333 -39 -17 -57 -17
c-23.333 -2.66699 -44 0 -62 8c-16.667 6.66699 -33.334 18.334 -50.001 35.001c-28.667 32 -45.667 73.333 -51 124c-3.33301 43.333 -1.83301 93.833 4.5 151.5s14.5 117.5 24.5 179.5c11.333 74.667 21 144 29 208c0 8 -3.16699 19 -9.5 33s-13.833 21 -22.5 21h117z
M292.005 792.997h-72l-48 49l-46 -49h-72l53 112h132z" />
    <glyph glyph-name="udieresis" unicode="&#xfc;" horiz-adv-x="318" 
d="M157 760c-2.66699 -45.333 -7.3291 -91.1689 -13.9961 -137.502l-20 -136.5c-10 -60 -18.333 -117.167 -25 -171.5s-8 -100.5 -4 -138.5c2 -32.667 12.333 -58.667 31 -78c5.33301 -6.66699 12.666 -12 21.999 -16c7.33301 -2.66699 14.666 -4 21.999 -4
c7.33301 1.33301 18.333 6 33 14v619c0 14.667 -7.33301 31 -22 49h100h22c-14.667 -18 -22 -34.333 -22 -49v-329.5v-329.5c0 -24 8 -41.333 24 -52c-21.333 0 -27.333 0 -18 0s3.66602 0 -17.001 0c-13.333 -1.33301 -25 4.33398 -35 17.001c-20 -11.333 -39 -17 -57 -17
c-23.333 -2.66699 -44 0 -62 8c-16.667 6.66699 -33.334 18.334 -50.001 35.001c-28.667 32 -45.667 73.333 -51 124c-3.33301 43.333 -1.83301 93.833 4.5 151.5s14.5 117.5 24.5 179.5c11.333 74.667 21 144 29 208c0 8 -3.16699 19 -9.5 33s-13.833 21 -22.5 21h117z
M205.005 822.997c0 11.333 3.83301 21 11.5 29s16.834 12 27.501 12s19.834 -4 27.501 -12s11.5 -17.667 11.5 -29s-3.83301 -20.833 -11.5 -28.5s-16.834 -11.5 -27.501 -11.5s-19.834 3.83301 -27.501 11.5s-11.5 17.167 -11.5 28.5zM67.0049 822.997
c0 11.333 3.66699 21 11 29s16.333 12 27 12c11.333 0 20.666 -4 27.999 -12s11 -17.667 11 -29s-3.66699 -20.833 -11 -28.5s-16.666 -11.5 -27.999 -11.5c-10.667 0 -19.667 3.83301 -27 11.5s-11 17.167 -11 28.5z" />
    <glyph glyph-name="yacute" unicode="&#xfd;" horiz-adv-x="257" 
d="M67 0c16 12 24 31.333 24 58v194c0 8.66699 -1.5 15.5 -4.5 20.5s-6.16699 11.167 -9.5 18.5c-20 32.667 -34.667 67.5 -44 104.5s-14.666 75.167 -15.999 114.5c-0.666992 40.667 -0.833984 81.834 -0.500977 123.501s1.16602 83.834 2.49902 126.501h82
c-2.66699 -42 -4.5 -83.667 -5.5 -125s-0.166992 -82 2.5 -122c2.66699 -55.333 13.667 -106 33 -152c18 46 28.667 96.667 32 152c2 40 2.33301 80.667 1 122s-2.33301 83 -3 125h81c0.666992 -42.667 1.66699 -84.834 3 -126.501s0.666016 -82.834 -2.00098 -123.501
c-1.33301 -38.667 -6.66602 -76.667 -15.999 -114s-23.666 -72.333 -42.999 -105l-10.5 -19.5c-3 -5.66699 -4.5 -12.167 -4.5 -19.5v-98.5c0 -5 0 -4.66699 0 1s0 6 0 1v-97.5c0 -26.667 8 -46 24 -58h-63.5h-62.5zM134 898h125l-106 -112h-73z" />
    <glyph glyph-name="thorn" unicode="&#xfe;" horiz-adv-x="270" 
d="M34 711c0 16 -6.66797 32.334 -20.001 49.001h120c-13.333 -16.667 -20 -33 -20 -49v-59c30.667 -0.666992 61.334 -5.33398 92.001 -14.001c35.333 -10 50 -40 44 -90c-6 -65.333 -15.667 -121.833 -29 -169.5s-38.333 -94.5 -75 -140.5
c-6.66699 -10 -13 -24.333 -19 -43s-9 -40 -9 -64v-79c0 -24.667 7.66699 -42 23 -52h-127c16 10 24 27.333 24 52zM115.999 351.001c13.333 17.333 25.332 40 35.999 68s16.667 74.333 18 139c0.666992 6.66699 -4.66602 11 -15.999 13c-8.66699 0.666992 -22 1 -40 1z" />
    <glyph glyph-name="ydieresis" unicode="&#xff;" horiz-adv-x="253" 
d="M64 0c16 12 24 31.333 24 58v194c0 8.66699 -1.5 15.5 -4.5 20.5s-6.16699 11.167 -9.5 18.5c-20 32.667 -34.667 67.5 -44 104.5s-14.666 75.167 -15.999 114.5c-0.666992 40.667 -0.833984 81.834 -0.500977 123.501s1.16602 83.834 2.49902 126.501h82
c-2.66699 -42 -4.5 -83.667 -5.5 -125s-0.166992 -82 2.5 -122c2.66699 -55.333 13.667 -106 33 -152c18 46 28.667 96.667 32 152c2 40 2.33301 80.667 1 122s-2.33301 83 -3 125h81c0.666992 -42.667 1.66699 -84.834 3 -126.501s0.666016 -82.834 -2.00098 -123.501
c-1.33301 -38.667 -6.66602 -76.667 -15.999 -114s-23.666 -72.333 -42.999 -105l-10.5 -19.5c-3 -5.66699 -4.5 -12.167 -4.5 -19.5v-98.5c0 -5 0 -4.66699 0 1s0 6 0 1v-97.5c0 -26.667 8 -46 24 -58h-63.5h-62.5zM152 823c0 11.333 3.83301 21 11.5 29
s16.834 12 27.501 12s19.834 -4 27.501 -12s11.5 -17.667 11.5 -29s-3.83301 -20.833 -11.5 -28.5s-16.834 -11.5 -27.501 -11.5s-19.834 3.83301 -27.501 11.5s-11.5 17.167 -11.5 28.5zM14 823c0 11.333 3.66699 21 11 29s16.333 12 27 12c11.333 0 20.666 -4 27.999 -12
s11 -17.667 11 -29s-3.66699 -20.833 -11 -28.5s-16.666 -11.5 -27.999 -11.5c-10.667 0 -19.667 3.83301 -27 11.5s-11 17.167 -11 28.5z" />
    <glyph glyph-name="OE" unicode="&#x152;" horiz-adv-x="451" 
d="M139 0c-42.667 74.667 -73.1689 157.167 -91.502 247.5s-29.5 179.5 -33.5 267.5c-1.33301 32 -1.16602 68.833 0.500977 110.5s14.834 81.5 39.501 119.5c2.66699 20.667 124.667 25.667 366 15c-4 -51.333 1 -97.333 15 -138l-18 -7c-6 14 -12.833 28 -20.5 42
s-16.5 21 -26.5 21h-83v-83h57c16 0 27.333 10.667 34 32l17 -2l-27 -150l-19 3c0.666992 24.667 -6 37 -20 37h-42v-437h83c10 0 18.833 7 26.5 21s14.5 28.333 20.5 43l18 -7c-14 -42 -19 -87 -15 -135h-281zM206.998 52l0.00195312 610
c-6.66699 13.333 -17.334 20 -32.001 20c-33.333 0.666992 -55 -4 -65 -14c-12 -12 -17.833 -35.5 -17.5 -70.5s0.833008 -61.5 1.5 -79.5c4 -87.333 15.667 -178 35 -272c15.333 -76 40.666 -144.333 75.999 -205c1.33301 3.33301 2 7 2 11z" />
    <glyph glyph-name="oe" unicode="&#x153;" horiz-adv-x="457" 
d="M127 0c-42.667 74.667 -73.1689 157.167 -91.502 247.5s-29.5 179.5 -33.5 267.5c-1.33301 32 -1.16602 68.833 0.500977 110.5s14.834 81.5 39.501 119.5c2.66699 20.667 124.667 25.667 366 15c-4 -51.333 1 -97.333 15 -138l-18 -7c-6 14 -12.833 28 -20.5 42
s-16.5 21 -26.5 21h-83v-83h57c16 0 27.333 10.667 34 32l17 -2l-27 -150l-19 3c0.666992 24.667 -6 37 -20 37h-42v-437h83c10 0 18.833 7 26.5 21s14.5 28.333 20.5 43l18 -7c-14 -42 -19 -87 -15 -135h-281zM194.998 52l0.00195312 610
c-6.66699 13.333 -17.334 20 -32.001 20c-33.333 0.666992 -55 -4 -65 -14c-12 -12 -17.833 -35.5 -17.5 -70.5s0.833008 -61.5 1.5 -79.5c4 -87.333 15.667 -178 35 -272c15.333 -76 40.666 -144.333 75.999 -205c1.33301 3.33301 2 7 2 11z" />
    <glyph glyph-name="Scaron" unicode="&#x160;" horiz-adv-x="261" 
d="M134 686c-14 0 -21.333 -10.501 -22 -31.501s13 -38.833 41 -53.5c46 -26.667 73.5 -66.5 82.5 -119.5s7.66699 -109.5 -4 -169.5s-29.5 -118.5 -53.5 -175.5s-45.667 -102.5 -65 -136.5h-95c18.667 25.333 40.5 64.333 65.5 117s44.667 107.667 59 165
s19.5 111.5 15.5 162.5s-26 87.833 -66 110.5c-45.333 24 -70.5 64.167 -75.5 120.5s12.167 84.5 51.5 84.5h166v0c-0.666992 -21.333 -1 -41.166 -1 -59.499s2.66699 -37.5 8 -57.5l6 -32l-23 -5c-7.33301 37.333 -13.833 60 -19.5 68s-29.167 12 -70.5 12zM203 807.999
h-132l-53 112h72l46 -49l48 49h72z" />
    <glyph glyph-name="scaron" unicode="&#x161;" horiz-adv-x="245" 
d="M120 686c-14 0 -21.333 -10.501 -22 -31.501s13 -38.833 41 -53.5c46 -26.667 73.5 -66.5 82.5 -119.5s7.66699 -109.5 -4 -169.5s-29.5 -118.5 -53.5 -175.5s-45.667 -102.5 -65 -136.5h-95c18.667 25.333 40.5 64.333 65.5 117s44.667 107.667 59 165
s19.5 111.5 15.5 162.5s-26 87.833 -66 110.5c-45.333 24 -70.5 64.167 -75.5 120.5s12.167 84.5 51.5 84.5h166v0c-0.666992 -21.333 -1 -41.166 -1 -59.499s2.66699 -37.5 8 -57.5l6 -32l-23 -5c-7.33301 37.333 -13.833 60 -19.5 68s-29.167 12 -70.5 12zM187 807.999
h-132l-53 112h72l46 -49l48 49h72z" />
    <glyph glyph-name="Ydieresis" unicode="&#x178;" horiz-adv-x="242" 
d="M53 0c16 12 24 31.333 24 58v194c0 8.66699 -1.5 15.5 -4.5 20.5s-6.16699 11.167 -9.5 18.5c-20 32.667 -34.667 67.5 -44 104.5s-14.666 75.167 -15.999 114.5c-0.666992 40.667 -0.833984 81.834 -0.500977 123.501s1.16602 83.834 2.49902 126.501h82
c-2.66699 -42 -4.5 -83.667 -5.5 -125s-0.166992 -82 2.5 -122c2.66699 -55.333 13.667 -106 33 -152c18 46 28.667 96.667 32 152c2 40 2.33301 80.667 1 122s-2.33301 83 -3 125h81c0.666992 -42.667 1.66699 -84.834 3 -126.501s0.666016 -82.834 -2.00098 -123.501
c-1.33301 -38.667 -6.66602 -76.667 -15.999 -114s-23.666 -72.333 -42.999 -105l-10.5 -19.5c-3 -5.66699 -4.5 -12.167 -4.5 -19.5v-98.5c0 -5 0 -4.66699 0 1s0 6 0 1v-97.5c0 -26.667 8 -46 24 -58h-63.5h-62.5zM153 826c0 11.333 3.83301 21 11.5 29
s16.834 12 27.501 12s19.834 -4 27.501 -12s11.5 -17.667 11.5 -29s-3.83301 -20.833 -11.5 -28.5s-16.834 -11.5 -27.501 -11.5s-19.834 3.83301 -27.501 11.5s-11.5 17.167 -11.5 28.5zM15 826c0 11.333 3.66699 21 11 29s16.333 12 27 12c11.333 0 20.666 -4 27.999 -12
s11 -17.667 11 -29s-3.66699 -20.833 -11 -28.5s-16.666 -11.5 -27.999 -11.5c-10.667 0 -19.667 3.83301 -27 11.5s-11 17.167 -11 28.5z" />
    <glyph glyph-name="Zcaron" unicode="&#x17d;" horiz-adv-x="276" 
d="M118 240c-1.33301 -28 -2 -55.333 -2 -82v-80h83c10 0 18.833 7.16699 26.5 21.5s14.834 28.833 21.501 43.5l17 -8c-14 -42 -19 -87 -15 -135h-116.5h-116.5c13.333 13.333 20 29 20 47c0 32.667 -0.333008 65.5 -1 98.5s0.333008 65.5 3 97.5
c2.66699 72.667 10.667 146.5 24 221.5s34 146.833 62 215.5l-45 -2c-10 0 -18.833 -7 -26.5 -21s-14.167 -28 -19.5 -42l-17 7c13.333 42 17.666 88 12.999 138h114.5h114.5h6c-57.333 -65.333 -95 -147.833 -113 -247.5s-29 -190.5 -33 -272.5zM211 808h-132l-53 112h72
l46 -49l48 49h72z" />
    <glyph glyph-name="zcaron" unicode="&#x17e;" horiz-adv-x="260" 
d="M104 240c-1.33301 -28 -2 -55.333 -2 -82v-80h83c10 0 18.833 7.16699 26.5 21.5s14.834 28.833 21.501 43.5l17 -8c-14 -42 -19 -87 -15 -135h-116.5h-116.5c13.333 13.333 20 29 20 47c0 32.667 -0.333008 65.5 -1 98.5s0.333008 65.5 3 97.5
c2.66699 72.667 10.667 146.5 24 221.5s34 146.833 62 215.5l-45 -2c-10 0 -18.833 -7 -26.5 -21s-14.167 -28 -19.5 -42l-17 7c13.333 42 17.666 88 12.999 138h114.5h114.5h6c-57.333 -65.333 -95 -147.833 -113 -247.5s-29 -190.5 -33 -272.5zM195 808h-132l-53 112h72
l46 -49l48 49h72z" />
    <glyph glyph-name="florin" unicode="&#x192;" horiz-adv-x="371" 
d="M129 711c0 16 -6.66699 32.333 -20 49h234c-4 -51.333 1 -97.333 15 -138l-19 -7c-5.33301 14 -11.833 28 -19.5 42s-16.5 21 -26.5 21h-84v-83h58c16 0 27.333 10.667 34 32l17 -2l-27 -150l-19 3c0.666992 24.667 -6 37 -20 37h-43l-1 -3
c2.66699 -18 2.33398 -43 -0.999023 -75c-5.33301 -88 -16.833 -177.167 -34.5 -267.5s-47.834 -172.833 -90.501 -247.5h-95c50 70.667 84.5 152.834 103.5 246.501s31.167 184.167 36.5 271.5c0.666992 25.333 1 50.666 1 75.999h1v195z" />
    <glyph glyph-name="circumflex" unicode="&#x2c6;" horiz-adv-x="1041" 
d="M133 808h-72l-48 49l-46 -49h-72l53 112h132z" />
    <glyph glyph-name="caron" unicode="&#x2c7;" horiz-adv-x="0" 
d="M80 808h-132l-53 112h72l46 -49l48 49h72z" />
    <glyph glyph-name="ring" unicode="&#x2da;" horiz-adv-x="203" 
d="M12 916c0 27.333 7.99902 45.832 23.999 55.499s35.667 14.5 59 14.5c11.333 0 22 -1.16699 32 -3.5s18.833 -6.16602 26.5 -11.499s13.667 -12.5 18 -21.5s6.5 -20.167 6.5 -33.5s-2.16699 -27.166 -6.5 -41.499s-10.333 -27.333 -18 -39s-16.5 -21.334 -26.5 -29.001
s-20.667 -11.5 -32 -11.5c-12 0 -23 3.83301 -33 11.5s-18.667 17.334 -26 29.001s-13.166 24.667 -17.499 39s-6.5 28.166 -6.5 41.499zM64.999 914.999c0 -7.33301 0.663086 -15.166 1.99609 -23.499s3.33301 -16.166 6 -23.499s5.83398 -13.333 9.50098 -18
s7.83398 -7 12.501 -7c4 0 8 2.33301 12 7s7.33301 10.667 10 18s4.83398 15.166 6.50098 23.499s2.5 16.166 2.5 23.499c0 14 -3 22.667 -9 26s-13.333 5 -22 5c-9.33301 0 -16.666 -1.66699 -21.999 -5s-8 -12 -8 -26z" />
    <glyph glyph-name="tilde" unicode="&#x2dc;" horiz-adv-x="416" 
d="M101 796c0 40.667 7.33301 68.5 22 83.5s33 22.833 55 23.5c14.667 0 36 -5 64 -15c18.667 -7.33301 30.667 -10 36 -8c-1.33301 0 -2 8.33301 -2 25l80 1c0 -42 -7.16699 -70.5 -21.5 -85.5s-32.5 -22.5 -54.5 -22.5c-12 0 -23.167 1.5 -33.5 4.5
s-20.5 6.16699 -30.5 9.5c-18.667 6.66699 -30.667 10 -36 10c0.666992 0 1 -8.33301 1 -25z" />
    <glyph glyph-name="afii10023" unicode="&#x401;" horiz-adv-x="280" 
d="M171 818c0 11.333 3.83301 21.166 11.5 29.499s16.834 12.5 27.501 12.5s19.834 -4.16699 27.501 -12.5s11.5 -18.166 11.5 -29.499s-3.83301 -20.833 -11.5 -28.5s-16.834 -11.5 -27.501 -11.5s-19.834 3.83301 -27.501 11.5s-11.5 17.167 -11.5 28.5zM33 818
c0 11.333 3.66699 21.166 11 29.499s16.333 12.5 27 12.5c11.333 0 20.666 -4.16699 27.999 -12.5s11 -18.166 11 -29.499s-3.66699 -20.833 -11 -28.5s-16.666 -11.5 -27.999 -11.5c-10.667 0 -19.667 3.83301 -27 11.5s-11 17.167 -11 28.5zM19 19
c15.333 12 23 29.668 23 53.001v659c0 15.333 -6.66699 31.333 -20 48h100h134c-4 -50.667 1 -96.334 15 -137.001l-19 -8c-5.33301 14.667 -11.833 29 -19.5 43s-16.5 21 -26.5 21h-84v-84h58c16 0 27.333 11 34 33l17 -3l-27 -150l-19 4c0.666992 24 -6 36 -20 36h-43
v-436h84c10 0 18.833 7.16699 26.5 21.5s14.167 28.833 19.5 43.5l19 -9c-14 -41.333 -19 -86.333 -15 -135h-119.5h-117.5z" />
    <glyph glyph-name="afii10017" unicode="&#x410;" horiz-adv-x="307" 
d="M93 760h121.998c-13.333 -20 -16.666 -37.333 -9.99902 -52s13.334 -32.334 20.001 -53.001c22 -76 38.833 -159.667 50.5 -251s17.5 -166.666 17.5 -225.999v-178h-81v178c0 12.667 -0.333008 26.334 -1 41.001s-1 30.334 -1 47.001
c-13.333 -4 -30.666 -12.667 -51.999 -26c-26.667 -16 -47.334 -33.333 -62.001 -52v-5v-5v-178h-81v178c0 59.333 5.83301 134.666 17.5 225.999s28.5 175 50.5 251c6 21.333 12.333 39.166 19 53.499s3.66699 31.5 -9 51.5zM99.998 283
c16.667 14.667 31.999 25.999 45.999 33.999c20 12 38.667 21.333 56 28c-4.66699 43.333 -11.167 88 -19.5 134s-18.166 89.667 -29.499 131c-14 -51.333 -25.333 -106.166 -34 -164.499s-15 -112.5 -19 -162.5zM204.997 321.999
c-19.333 -8 -35.001 -15.999 -47.001 -23.999c-23.333 -14.667 -43.666 -30.667 -60.999 -48c0 -12.667 -0.333008 -22 -1 -28c18 15.333 34.667 28 50 38c24.667 14.667 45 24 61 28c-0.666992 5.33301 -1.16699 10.666 -1.5 15.999s-0.5 11.333 -0.5 18z" />
    <glyph glyph-name="afii10018" unicode="&#x411;" horiz-adv-x="309" 
d="M292 92c-6 -50 -30.001 -80.666 -72.001 -91.999h-106.5h-106.5c18 7.33301 26.667 26.333 26 57l-4 654c0 16 -6.66699 32.333 -20 49h116h118c-5.33301 -48 -0.666016 -94 14.001 -138l-18 -7c-6 14 -12.667 28 -20 42s-16 21 -26 21h-85v-22
c56.667 -70.667 103.5 -159.834 140.5 -267.501s51.5 -206.5 43.5 -296.5zM109.999 507.001v-429c14.667 0 30 -0.166992 46 -0.5s30.667 2.16699 44 7.5c6.66699 0.666992 10 5.66699 10 15c6 58.667 -0.833008 124.5 -20.5 197.5s-43.167 137.167 -70.5 192.5
c-1.33301 2 -2.83301 4.5 -4.5 7.5s-3.16699 6.16699 -4.5 9.5z" />
    <glyph glyph-name="afii10019" unicode="&#x412;" horiz-adv-x="315" 
d="M216 492c5.33301 -18 10.168 -35.167 14.501 -51.5s9.16602 -32.166 14.499 -47.499c14.667 -52 27.667 -101.833 39 -149.5s14.666 -98.167 9.99902 -151.5c-6 -50 -30 -80.667 -72 -92h-106.5h-106.5c18 7.33301 26.667 26.333 26 57l-5 645c0 26.667 -7 46 -21 58h44
h44c36 0.666992 71.5 -4 106.5 -14s49.5 -40 43.5 -90c-4.66699 -35.333 -9.66699 -66.333 -15 -93s-10.666 -50.334 -15.999 -71.001zM115.002 78c47.333 0 76.335 2.33203 87.002 6.99902c6.66699 0.666992 10 5.66699 10 15c4.66699 44.667 2 88.834 -8 132.501
s-22.333 89.5 -37 137.5c-4.66699 -8 -8.83398 -15.5 -12.501 -22.5l-10.5 -19.5c-6.66699 -10 -13.334 -24.333 -20.001 -43s-10 -40 -10 -64v0zM112.004 439.999c10 22 19.832 50.833 29.499 86.5s18.167 82.167 25.5 139.5c0 6.66699 -5.33301 10.667 -16 12
c-9.33301 1.33301 -22.666 2 -39.999 2z" />
    <glyph glyph-name="afii10020" unicode="&#x413;" horiz-adv-x="281" 
d="M16 0c15.333 10 23 27.333 23 52v659c0 16 -6.66699 32.333 -20 49h116.5h117.5c-4 -51.333 1 -97.333 15 -138l-19 -7c-5.33301 14 -11.833 28 -19.5 42s-16.5 21 -26.5 21h-84v-245.5v-380.5c0 -24.667 8 -42 24 -52h-64h-63z" />
    <glyph glyph-name="afii10021" unicode="&#x414;" horiz-adv-x="358" 
d="M330 760c-15.333 -12.667 -22.998 -31.001 -22.998 -55.001v-627h36c-5.33301 -45.333 -0.666016 -90.333 14.001 -135l-18 -7c-6 14.667 -12.667 29 -20 43s-16 21 -26 21h-111h-112c-10 0 -18.833 -7 -26.5 -21s-14.167 -28.333 -19.5 -43l-17 7
c13.333 42 17.666 87 12.999 135h37c0 46.667 2.16699 108.334 6.5 185.001s13.166 151.667 26.499 225s32.166 137 56.499 191s56.833 81 97.5 81h86zM137.002 77.999l90 0.000976562v595c-20 -14.667 -35.833 -46.334 -47.5 -95.001s-20.667 -103.5 -27 -164.5
s-10.5 -122.167 -12.5 -183.5s-3 -112 -3 -152z" />
    <glyph glyph-name="afii10022" unicode="&#x415;" horiz-adv-x="276" 
d="M14 1c15.333 12 23 29.668 23 53.001v659c0 15.333 -6.66699 31.333 -20 48h100h134c-4 -50.667 1 -96.334 15 -137.001l-19 -8c-5.33301 14.667 -11.833 29 -19.5 43s-16.5 21 -26.5 21h-84v-84h58c16 0 27.333 11 34 33l17 -3l-27 -150l-19 4c0.666992 24 -6 36 -20 36
h-43v-436h84c10 0 18.833 7.16699 26.5 21.5s14.167 28.833 19.5 43.5l19 -9c-14 -41.333 -19 -86.333 -15 -135h-119.5h-117.5z" />
    <glyph glyph-name="afii10024" unicode="&#x416;" horiz-adv-x="463" 
d="M167 0c16.667 10.667 24.9961 27.998 24.9961 51.998v84c-0.666992 17.333 -5.33398 36.5 -14.001 57.5l-28 68.5c-4.66699 10 -9 20 -13 30s-7.66699 21 -11 33c-8.66699 -42.667 -13.5 -85.334 -14.5 -128.001s-1.16699 -86 -0.5 -130
c0 -14.667 -1.33301 -29.5 -4 -44.5s-7.33398 -22.5 -14.001 -22.5h-83c10.667 4 16.834 13.833 18.501 29.5s2.5 27.834 2.5 36.501c-2 68 -0.833008 135.167 3.5 201.5s21.5 133.166 51.5 200.499c-2.66699 12.667 -4.83398 26.167 -6.50098 40.5s-2.5 28.833 -2.5 43.5
c0 12 -0.333008 21.333 -1 28c-2 44 -7.33301 72.333 -16 85c-8 8.66699 -13.667 6.66699 -17 -6s-5.33301 -23.334 -6 -32.001l-22 3c4.66699 21.333 8.33398 42.166 11.001 62.499s2.66699 42.833 0 67.5c62.667 0 99.5 -16.667 110.5 -50s17.833 -76 20.5 -128
c0 -10 0.333008 -18.333 1 -25c1.33301 -34.667 5 -75 11 -121s13.667 -81.333 23 -106v381c0 15.333 -3 27 -9 35s-10 12.667 -12 14h121c-14 -16 -21 -32.333 -21 -49v-381c8 24.667 15.167 60 21.5 106s10.5 86.333 12.5 121c0.666992 6.66699 1 15 1 25
c1.33301 52 7.83301 94.667 19.5 128s48.834 50 111.501 50c-3.33301 -24.667 -3.66602 -47.167 -0.999023 -67.5s6.33398 -41.166 11.001 -62.499l-22 -3c-1.33301 8.66699 -3.66602 19.334 -6.99902 32.001s-8.66602 14.667 -15.999 6
c-9.33301 -12.667 -14.333 -41 -15 -85c-0.666992 -6.66699 -1 -16 -1 -28c-0.666992 -14.667 -1.83398 -29.167 -3.50098 -43.5s-3.5 -27.833 -5.5 -40.5c29.333 -67.333 45.833 -134.166 49.5 -200.499s5.5 -133.5 5.5 -201.5c0 -8.66699 0.666992 -20.834 2 -36.501
s7.66602 -25.5 18.999 -29.5h-85c-7.33301 0 -12 7.5 -14 22.5s-2.66699 29.833 -2 44.5c0 44 -0.666992 87.333 -2 130s-5.66602 85.334 -12.999 128.001c-4 -12 -8.16699 -23 -12.5 -33s-8.16602 -20 -11.499 -30l-28.5 -69c-9 -21.333 -13.5 -40.666 -13.5 -57.999v-83
c0 -23.333 8 -40.666 24 -51.999h-127h-1z" />
    <glyph glyph-name="afii10025" unicode="&#x417;" horiz-adv-x="292" 
d="M199 492c6.66699 -30.667 16.334 -63.6699 29.001 -99.0029c15.333 -52 28.333 -101.833 39 -149.5s13.667 -98.167 9 -151.5c-5.33301 -46.667 -21.333 -73.667 -48 -81s-57.334 -11 -92.001 -11h-106c4.66699 47.333 0.333984 92.333 -12.999 135l17 7
c5.33301 -14.667 11.833 -29 19.5 -43s16.5 -21 26.5 -21c-5.33301 0 -6.33301 -0.166992 -3 -0.5s22.333 -0.166016 57 0.500977c22 0 39.333 2.33301 52 7c4.66699 0.666992 8 5.66699 10 15c4 44.667 1 88.834 -9 132.501s-22 89.5 -36 137.5l-10 29
c-3.33301 9.33301 -6.33301 19 -9 29c-6.66699 20 -16.334 29 -29.001 27c-16 -3.33301 -23 -15.666 -21 -36.999l-18 -2l-28 149l18 3c6 -21.333 17.333 -32 34 -32h11c8 0 15.5 1.16699 22.5 3.5s12.167 12.833 15.5 31.5c2.66699 17.333 6.66699 49 12 95
c1.33301 9.33301 -9 14 -31 14l-39 -2c-10 0 -19 -7 -27 -21s-14.333 -28 -19 -42l-18 7c13.333 44 18 90 14 138h95c26.667 0 52 -9.5 76 -28.5s33.667 -44.167 29 -75.5c-8 -65.333 -18 -120 -30 -164z" />
    <glyph glyph-name="afii10026" unicode="&#x418;" horiz-adv-x="351" 
d="M136 0h-64h-63c15.333 10 23 27.333 23 52v328v331c0 16 -6.66699 32.333 -20 49h120c-13.333 -16.667 -20 -33 -20 -49v-78c30 60 61.5 96.667 94.5 110s75.833 19 128.5 17c-13.333 -18.667 -20 -35 -20 -49v-659c0 -24.667 8 -42 24 -52h-65h-63
c16.667 10.667 25 28 25 52v615c-16 -11.333 -30.333 -29 -43 -53s-24 -49.667 -34 -77c-18 -48 -30.333 -95.667 -37 -143s-10 -96 -10 -146v-196c0 -24.667 8 -42 24 -52z" />
    <glyph glyph-name="afii10027" unicode="&#x419;" horiz-adv-x="354" 
d="M288 867c-29.333 -66 -65.333 -99 -108 -99c-43.333 0 -80 33 -110 99h89c7.33301 -12.667 14.333 -19 21 -19c6 0 12.667 6.33301 20 19h88zM138 0h-64h-63c15.333 10 23 27.333 23 52v330v96.5v97.5v136c0 16 -6.66699 32.333 -20 49h120
c-13.333 -16.667 -20 -33 -20 -49v-78c30 60 61.5 96.667 94.5 110s75.833 19 128.5 17c-13.333 -18.667 -20 -35 -20 -49v-660c0 -24.667 8 -42 24 -52h-65h-63c16.667 10.667 25 28 25 52v616c-16 -11.333 -30.333 -29 -43 -53s-24 -50 -34 -78
c-18 -46.667 -30.333 -94.167 -37 -142.5s-10 -162.5 -10 -342.5c0 -24.667 8 -42 24 -52z" />
    <glyph glyph-name="afii10028" unicode="&#x41a;" horiz-adv-x="309" 
d="M15 0c15.333 10 23 27.3271 23 51.9941v659c0 16 -6.66699 32.333 -20 49h100h20c-13.333 -16.667 -20 -33 -20 -49v-381c8 24.667 15 60 21 106s10.333 86.333 13 121c0 12 0.333008 20.333 1 25c2 52 8.66699 94.667 20 128s48 50 110 50
c-2 -24.667 -1.83301 -47.167 0.5 -67.5s6.16602 -41.166 11.499 -62.499l-23 -3c-1.33301 8.66699 -3.66602 19.334 -6.99902 32.001s-8.33301 14.667 -15 6c-10 -13.333 -15.667 -41.666 -17 -84.999c0 -13.333 -0.333008 -22.666 -1 -27.999
c-1.33301 -32.667 -4.33301 -60.667 -9 -84c29.333 -67.333 46.166 -134.166 50.499 -200.499s6.5 -133.5 6.5 -201.5c-1.33301 -8.66699 -1.33301 -20.834 0 -36.501s8 -25.5 20 -29.5h-84c-7.33301 0 -12.166 7.5 -14.499 22.5s-3.5 29.833 -3.5 44.5
c0 44 -0.333008 87.333 -1 130s-4.66699 85.334 -12 128.001c-5.33301 -12 -9.83301 -23 -13.5 -33l-11.5 -30l-28.5 -69c-9 -21.333 -13.5 -40.666 -13.5 -57.999v-83c0 -24.667 8 -42 24 -52h-64h-63z" />
    <glyph glyph-name="afii10029" unicode="&#x41b;" horiz-adv-x="354" 
d="M61 0l-48 -0.000976562c1.33301 0 2.66602 0.333008 3.99902 1h-3v79h22v-10c15.333 -52 26.666 -35.667 33.999 49c2.66699 29.333 1.83398 87 -2.49902 173s-1.16602 162.667 9.50098 230s36 125 76 173s102 69.667 186 65c-13.333 -18.667 -20 -35 -20 -49v-659
c0 -24.667 8 -42 24 -52h-128c16.667 10.667 25 28 25 52v615c-20 -6.66699 -37.5 -22.167 -52.5 -46.5s-25.167 -50.833 -30.5 -79.5c-7.33301 -50.667 -11.833 -99.667 -13.5 -147s-3.83398 -113.666 -6.50098 -198.999c2.66699 -123.333 -22.666 -188.333 -75.999 -195z
" />
    <glyph glyph-name="afii10030" unicode="&#x41c;" horiz-adv-x="434" 
d="M79 760c41.333 0 72.5 -22.5 93.5 -67.5s35.5 -82.5 43.5 -112.5c12.667 48.667 30.334 90.834 53.001 126.501s50.667 53.5 84 53.5h0.5h2.5v0v0h60c-13.333 -16.667 -20 -33 -20 -49v-659c0 -24.667 8 -42 24 -52h-64h-63c15.333 10 23 27.333 23 52v579
c-10 -28.667 -17.667 -54 -23 -76c-11.333 -42 -19.833 -85 -25.5 -129s-8.83398 -80.667 -9.50098 -110c-1.33301 -6 -2 -15.333 -2 -28h-80c0 4.66699 -0.166992 9.16699 -0.5 13.5s-0.5 9.16602 -0.5 14.499c-1.33301 29.333 -5 66 -11 110s-14 87 -24 129
c-8 28 -16 53 -24 75v-578c0 -24.667 8 -42 24 -52h-64h-63c15.333 10 23 27.333 23 52v659c0 16 -6.66699 32.333 -20 49h30h30c10 0 10 0 0 0s-10 0 0 0h1h2z" />
    <glyph glyph-name="afii10031" unicode="&#x41d;" horiz-adv-x="336" 
d="M13 0c15.333 10 22.999 27.333 22.999 52v659c0 16 -6.66699 32.333 -20 49h100h20c-13.333 -16.667 -20 -33 -20 -49v-84c34.667 10 69 10 103 0v84c0 14.667 -7 31 -21 49h100h21c-14 -18 -21 -34.333 -21 -49v-329.5v-329.5c0 -24 7.66699 -41.333 23 -52h-63.5h-62.5
c16 10.667 24 28 24 52v500c-35.333 12.667 -69.666 13 -102.999 1v-501c0 -24.667 8 -42 24 -52h-64h-63zM218.999 603c-33.333 12 -67.667 12 -103 0v-26c34.667 10 69 9.66699 103 -1v27z" />
    <glyph glyph-name="afii10032" unicode="&#x41e;" horiz-adv-x="362" 
d="M180 0c-37.333 0 -56 18.333 -56 55s18.667 55 56 55c38 0 57 -18.333 57 -55s-19 -55 -57 -55zM298 718c21.333 -22 35.334 -51.168 42.001 -87.501s9 -73.833 7 -112.5c-2.66699 -40 -8 -78.333 -16 -115s-15.667 -66.667 -23 -90
c-32.667 -98 -75.334 -147 -128.001 -147c-54 0 -96.667 49 -128 147c-8 24.667 -16.167 55.334 -24.5 92.001s-13.166 75 -14.499 115c-2 38 0 75 6 111s20.333 65 43 87c26.667 28.667 66 43 118 43c51.333 0 90.666 -14.333 117.999 -43zM240.001 661.999
c-11.333 12 -31.334 18 -60.001 18c-28 0 -48.333 -6 -61 -18c-14.667 -14.667 -23.334 -37.834 -26.001 -69.501s-1.33398 -63.834 3.99902 -96.501c3.33301 -34 8.5 -65.833 15.5 -95.5s12.5 -50.5 16.5 -62.5c20 -61.333 37 -92 51 -92c12.667 0 29.334 30.667 50.001 92
c4.66699 12 10.334 32.833 17.001 62.5s12.334 61.5 17.001 95.5c3.33301 32.667 4 64.834 2 96.501s-10.667 54.834 -26 69.501z" />
    <glyph glyph-name="afii10033" unicode="&#x41f;" horiz-adv-x="328" 
d="M8 0c15.333 10 23 27.333 23 52v659c0 16 -6.66699 32.333 -20 49h149h150c-14 -18 -21 -34.333 -21 -49v-329.5v-329.5c0 -24 8 -41.333 24 -52h-65h-62c16 10.667 24 28 24 52v633h-99v-633c0 -24.667 8 -42 24 -52h-64h-63z" />
    <glyph glyph-name="afii10034" unicode="&#x420;" horiz-adv-x="269" 
d="M144 240c-6 -10 -12.3301 -24.5 -18.9971 -43.5s-10 -40.5 -10 -64.5v-79c0 -24 8 -41.667 24 -53h-64h-63c15.333 11.333 23 29 23 53l-3 650c0 26 -6.66699 45 -20 57c3.33301 0 17.5 0.166992 42.5 0.5s39.833 0.5 44.5 0.5c35.333 0 70.666 -5 105.999 -15
s49.666 -39.667 42.999 -89c-5.33301 -66.667 -14.833 -141.667 -28.5 -225s-38.834 -147.333 -75.501 -192zM114.003 351c13.333 17.333 25.499 58.167 36.499 122.5s17.167 128.833 18.5 193.5c0 6 -5.33301 9.66699 -16 11c-9.33301 2 -22.666 3 -39.999 3z" />
    <glyph glyph-name="afii10035" unicode="&#x421;" horiz-adv-x="237" 
d="M209 656c-6 17.333 -17.334 26.001 -34.001 26.001c-33.333 0.666992 -55 -4 -65 -14c-12 -12 -17.833 -35.5 -17.5 -70.5s0.833008 -61.5 1.5 -79.5c4 -87.333 15.667 -177.833 35 -271.5s54.333 -175.834 105 -246.501h-95c-42.667 74.667 -73.167 157.167 -91.5 247.5
s-29.5 179.5 -33.5 267.5c-1.33301 32 -1.16602 68.833 0.500977 110.5s14.5 75.167 38.5 100.5c30 29.333 85 41 165 35z" />
    <glyph glyph-name="afii10036" unicode="&#x422;" horiz-adv-x="313" 
d="M94 0c16 10 24.001 27.333 24.001 52v626h-43c-10 0 -18.833 -7 -26.5 -21s-14.167 -28 -19.5 -42l-17 7c13.333 42 17.666 88 12.999 138h132h133c-4.66699 -50 0 -96 14 -138l-19 -7c-5.33301 14 -11.833 28 -19.5 42s-16.5 21 -26.5 21h-41v-313.5v-312.5
c0 -24.667 8 -42 24 -52h-65h-63z" />
    <glyph glyph-name="afii10037" unicode="&#x423;" horiz-adv-x="306" 
d="M97 121c5.33301 22.667 5.50098 48.667 0.500977 78s-10.167 53.333 -15.5 72c-23.333 77.333 -40.5 157.833 -51.5 241.5s-16.5 166.167 -16.5 247.5h113c-10 0 -17.833 -7.5 -23.5 -22.5s-8.16699 -27.5 -7.5 -37.5c3.33301 -128 22.666 -256 57.999 -384
c16.667 61.333 29.5 124.333 38.5 189s14.833 129.667 17.5 195c0 10 -2.5 22.5 -7.5 37.5s-15.167 22.5 -30.5 22.5h120c0 -128 -12 -259 -36 -393s-67.333 -256.333 -130 -367h-95c2.66699 2 1 11.333 -5 28s-9.33301 27.667 -10 33l-7 19l11 5.5l9 4.5
c2 -2.66699 6.33301 -11.167 13 -25.5s16 -14.833 28 -1.5c7.33301 8 12.5 17.167 15.5 27.5s6.83301 20.5 11.5 30.5z" />
    <glyph glyph-name="afii10038" unicode="&#x424;" horiz-adv-x="361" 
d="M117 0c15.333 10.667 22.999 28.002 22.999 52.002v50c-36.667 20.667 -66 66 -88 136c-8 23.333 -16.167 53.666 -24.5 90.999s-13.166 75.333 -14.499 114c-2 38.667 0 75.834 6 111.501s20.333 64.834 43 87.501c20 20 46 33.333 78 40v29c0 14.667 -7 31 -21 49h100
h21c-14 -18 -21 -34.333 -21 -49v-29c32 -6.66699 58.333 -20 79 -40c21.333 -22.667 35.333 -51.834 42 -87.501s9 -73.167 7 -112.5c-2.66699 -40 -8 -78.333 -16 -115s-15.667 -66.334 -23 -89.001c-24 -70.667 -53.667 -116.334 -89 -137.001v-49
c0 -24 8 -41.333 24 -52h-64h-62zM218.999 230.002l10.998 33c4.66699 12 10.334 32.5 17.001 61.5s12.334 60.833 17.001 95.5c3.33301 33.333 4 65.5 2 96.5s-10.667 54.167 -26 69.5c-6.66699 6 -13.667 10 -21 12v-368zM139.997 598.002c-8 -2 -14.998 -6 -20.998 -12
c-14.667 -15.333 -23.334 -38.5 -26.001 -69.5s-1.33398 -63.167 3.99902 -96.5c3.33301 -34.667 8.5 -66.5 15.5 -95.5s12.5 -49.5 16.5 -61.5c5.33301 -14.667 9 -25 11 -31v366z" />
    <glyph glyph-name="afii10039" unicode="&#x425;" horiz-adv-x="327" 
d="M162 758c-12 -4 -19 -12 -21 -24s-0.666992 -21.667 4 -29c2.66699 -5.33301 5.5 -10 8.5 -14l8.5 -11c3.33301 4.66699 8.33301 13 15 25c4.66699 7.33301 6 17 4 29s-8.33301 20 -19 24zM207 595c28 -61.333 47.498 -124.666 58.498 -189.999
s16.833 -131.333 17.5 -198v-156c0 -10 2.33301 -21 7 -33s12 -18 22 -18h-134c6.66699 0 12.5 6 17.5 18s7.5 23 7.5 33v156c-2 110.667 -15.667 205.334 -41 284.001c-26.667 -78.667 -40.667 -173.334 -42 -284.001l-1 -156c0 -10 2.5 -21 7.5 -33s11.167 -18 18.5 -18
h-133c10 0 17 6 21 18s6 23 6 33l1 156c0 66.667 5.5 132.667 16.5 198s31.167 128.666 60.5 189.999c-15.333 26.667 -31.666 53.334 -48.999 80.001l-56 85h300c-22 -30 -41.667 -58.333 -59 -85s-32.666 -53.334 -45.999 -80.001z" />
    <glyph glyph-name="afii10040" unicode="&#x426;" horiz-adv-x="348" 
d="M313 760c-16 -15.333 -24.001 -33.666 -24.001 -54.999v-627h40c-5.33301 -48 -0.666016 -93 14.001 -135l-18 -7c-6 14 -12.5 27.667 -19.5 41s-15.167 21 -24.5 23h-134.5h-135.5c13.333 13.333 20 29 20 47v328.5v329.5c0 23.333 -7.66699 41.666 -23 54.999h63h64
c-16 -13.333 -24 -31.666 -24 -54.999v-633h99v633c0 21.333 -8 39.666 -24 54.999h62.5h64.5z" />
    <glyph glyph-name="afii10041" unicode="&#x427;" horiz-adv-x="331" 
d="M316 0l-64.999 0.00488281h-63c16 10 24 27.333 24 52v83c0 17.333 -3.16699 38.666 -9.5 63.999s-16.833 46.333 -31.5 63c-33.333 34 -57.333 74.833 -72 122.5s-23.334 103.5 -26.001 167.5c-0.666992 5.33301 -1 14.666 -1 27.999
c-2 43.333 -7.33301 71.666 -16 84.999c-8 8.66699 -13.667 6.66699 -17 -6s-5.33301 -23.334 -6 -32.001l-22 3c4.66699 21.333 8.33398 42.166 11.001 62.499s2.66699 42.833 0 67.5c61.333 0 97.666 -16.667 108.999 -50s18.333 -76 21 -128
c0.666992 -4.66699 1 -13 1 -25c2.66699 -58 9.66699 -107.333 21 -148s24 -67 38 -79v381c0 16 -6.66699 32.333 -20 49h20h100c-13.333 -16.667 -20 -33 -20 -49v-659c0 -24.667 8 -42 24 -52z" />
    <glyph glyph-name="afii10042" unicode="&#x428;" horiz-adv-x="455" 
d="M274 72h71v633c0 23.333 -8 41.666 -24 54.999h63.5h64.5c-16 -13.333 -24 -31.666 -24 -54.999v-329.5v-328.5c0 -18 6.66699 -33.667 20 -47h-214.5h-214.5c13.333 13.333 20 29 20 47v328.5v329.5c0 23.333 -7.66699 41.666 -23 54.999h63h64
c-16 -13.333 -24 -31.666 -24 -54.999v-633h78v633c0 23.333 -8 41.666 -24 54.999h63h65c-16 -13.333 -24 -31.666 -24 -54.999v-633z" />
    <glyph glyph-name="afii10043" unicode="&#x429;" horiz-adv-x="470" 
d="M182 72v633c0 23.333 -7.66699 41.666 -23 54.999h63h64c-16 -13.333 -24 -31.666 -24 -54.999v-633h35.5h36.5v633c0 23.333 -8 41.666 -24 54.999h63h64c-15.333 -13.333 -23 -31.666 -23 -54.999v-627h38c-4.66699 -45.333 0 -90.333 14 -135l-17 -7
c-6 14 -12.5 27.667 -19.5 41s-14.833 21 -23.5 23h-197.5h-196.5c13.333 13.333 20 29 20 47v328.5v329.5c0 23.333 -7.66699 41.666 -23 54.999h63h64c-16 -13.333 -24 -31.666 -24 -54.999v-633h70z" />
    <glyph glyph-name="afii10044" unicode="&#x42a;" horiz-adv-x="338" 
d="M219 520c36.667 -46.667 61.834 -111.668 75.501 -195.001s23.167 -157.666 28.5 -222.999c6 -50 -8.5 -79.833 -43.5 -89.5s-70.167 -13.834 -105.5 -12.501h-45.5h-43.5c12.667 8.66699 20 27.334 22 56.001l3 624h-35c-10 0 -18.833 -7.16699 -26.5 -21.5
s-14.167 -28.5 -19.5 -42.5l-17 7c13.333 42 17.666 87.667 12.999 137h94.5h94.5c-16 -12.667 -24 -30.667 -24 -54v-79c0 -24.667 3.16699 -46.5 9.5 -65.5s12.833 -32.833 19.5 -41.5zM189 407.999l-2 -330c18 0 31.333 0.666992 40 2
c11.333 0.666992 16.666 4.66699 15.999 12c-2 64 -8.16699 128 -18.5 192s-22.166 105.333 -35.499 124z" />
    <glyph glyph-name="afii10045" unicode="&#x42b;" horiz-adv-x="398" 
d="M146 520c36.667 -46.667 61.667 -111.668 75 -195.001s23 -157.666 29 -222.999c6 -50 -8.5 -79.833 -43.5 -89.5s-70.167 -13.834 -105.5 -12.501h-45h-43c12 8.66699 19 27.334 21 56.001l4 650c0 23.333 -8 41.333 -24 54h63h64c-15.333 -12.667 -23 -30.667 -23 -54
v-79c0 -24.667 3 -46.5 9 -65.5s12.333 -32.833 19 -41.5zM281 51.999v263.5v167.5v116v112c0 14.667 -7 31 -21 49h100h20c-13.333 -16.667 -20 -33 -20 -49v-329.5v-329.5c0 -24.667 8 -42 24 -52h-64.5h-63.5c16.667 10.667 25 28 25 52zM116 407.999l-1.99902 -330
c18 0 31.333 0.666992 40 2c11.333 0.666992 16.666 4.66699 15.999 12c-1.33301 64 -7.33301 128 -18 192s-22.667 105.333 -36 124z" />
    <glyph glyph-name="afii10046" unicode="&#x42c;" horiz-adv-x="272" 
d="M150 520c36.667 -46.667 61.667 -111.668 75 -195.001s23 -157.666 29 -222.999c6 -50 -8.5 -79.833 -43.5 -89.5s-70.167 -13.834 -105.5 -12.501h-45h-43c12 8.66699 19 27.334 21 56.001l4 650c0 23.333 -8 41.333 -24 54h63h64c-15.333 -12.667 -23 -30.667 -23 -54
v-79c0 -24.667 3 -46.5 9 -65.5s12.333 -32.833 19 -41.5zM120 407.999l-1.99902 -330c18 0 31.333 0.666992 40 2c11.333 0.666992 16.666 4.66699 15.999 12c-1.33301 64 -7.33301 128 -18 192s-22.667 105.333 -36 124z" />
    <glyph glyph-name="afii10047" unicode="&#x42d;" horiz-adv-x="248" 
d="M41 656l-9.00098 105c79.333 6 134.333 -5.66699 165 -35c24 -25.333 36.833 -58.833 38.5 -100.5s1.83398 -78.5 0.500977 -110.5c-5.33301 -88 -17 -177.167 -35 -267.5s-48 -172.833 -90 -247.5h-95c50 70 84.5 151.667 103.5 245s31.167 183.333 36.5 270h-39
c-15.333 0 -22 -12.333 -20 -37l-19 -3l-27 150l17 2c8.66699 -21.333 20 -32 34 -32h56c-1.33301 38.667 -7.66602 63 -18.999 73c-10.667 10 -32.334 14.667 -65.001 14c-17.333 0 -28.333 -8.66699 -33 -26z" />
    <glyph glyph-name="afii10048" unicode="&#x42e;" horiz-adv-x="427" 
d="M313 52l-0.00292969 466h-27c-1.33301 -48 -4.66602 -100 -9.99902 -156s-11.666 -107.667 -18.999 -155c-10.667 -60 -25.167 -109.5 -43.5 -148.5s-40.166 -58.5 -65.499 -58.5v0v0v0v0c-26 0 -48.167 19.5 -66.5 58.5s-32.5 88.5 -42.5 148.5
c-8.66699 50 -15.5 104.167 -20.5 162.5s-7.5 113 -7.5 164s3 91.5 9 121.5s14.667 53.333 26 70c14 20.667 29.5 33.334 46.5 38.001s35.5 7 55.5 7c18.667 0 36.5 -2.33301 53.5 -7s32.833 -17.334 47.5 -38.001c18 -26 29.333 -68.667 34 -128h30v114
c0 16 -6.66699 32.333 -20 49h100h20c-13.333 -16.667 -20 -33 -20 -49v-329.5v-329.5c0 -24.667 8 -42 24 -52h-64.5h-63.5c16 10 24 27.333 24 52zM182.997 680c-4.66699 6.66699 -16.3359 10 -35.0029 10c-19.333 0 -31 -3.33301 -35 -10
c-14 -21.333 -21 -63.166 -21 -125.499s2.33301 -121.5 7 -177.5s11.334 -108 20.001 -156c6.66699 -40 12.834 -73.5 18.501 -100.5s9.16699 -40.5 10.5 -40.5v0v0v0v0c0.666992 0 3.83398 13.5 9.50098 40.5s12.167 60.5 19.5 100.5c8 48 14.5 100 19.5 156
s7.5 115.167 7.5 177.5s-7 104.166 -21 125.499z" />
    <glyph glyph-name="afii10049" unicode="&#x42f;" horiz-adv-x="312" 
d="M165 238c-15.333 18.667 -27.999 40.998 -37.999 66.998c-6.66699 -39.333 -10.334 -78.833 -11.001 -118.5s-0.666992 -79.5 0 -119.5c0 -14.667 -1.33301 -29.5 -4 -44.5s-7.33398 -22.5 -14.001 -22.5h-83c10.667 4 16.834 13.833 18.501 29.5s2.5 27.834 2.5 36.501
c-2 66 -1 131 3 195s19.333 128.667 46 194c-6.66699 34.667 -11.667 69.334 -15 104.001l-9 97c-6.66699 50 7.5 80 42.5 90s70.5 14.667 106.5 14h44h44c-13.333 -12 -20 -31.333 -20 -58l-5 -650c0 -24.667 8 -42 24 -52h-64h-63c16.667 10.667 25 28 25 52l-2 79
c0 24 -3.33301 45.333 -10 64s-12.667 33 -18 43zM195.001 350.998l2 329c-18 0 -31.333 -0.666992 -40 -2c-12.667 -1.33301 -18 -5.33301 -16 -12c0.666992 -65.333 6.16699 -129.833 16.5 -193.5s22.833 -104.167 37.5 -121.5z" />
    <glyph glyph-name="afii10065" unicode="&#x430;" horiz-adv-x="304" 
d="M212 760c-12.667 -20 -15.6689 -37.167 -9.00195 -51.5s13 -32.166 19 -53.499c22 -76 38.833 -159.667 50.5 -251s17.5 -166.666 17.5 -225.999v-178h-81v178v5v5c-14.667 18.667 -35.334 36 -62.001 52c-21.333 13.333 -38.666 22 -51.999 26
c0 -16.667 -0.333008 -32.334 -1 -47.001s-1 -28.334 -1 -41.001v-178h-81v178c0 59.333 5.83301 134.666 17.5 225.999s28.5 175 50.5 251c6.66699 20.667 13.334 38.334 20.001 53.001s3.33398 32 -9.99902 52h122zM204.998 283c-4 50 -10.334 104.168 -19.001 162.501
s-20 113.166 -34 164.499c-11.333 -41.333 -21.166 -85 -29.499 -131s-14.833 -90.667 -19.5 -134c17.333 -6.66699 36 -16 56 -28c14 -8 29.333 -19.333 46 -34zM99.9971 322.001c0 -6.66699 -0.167969 -12.668 -0.500977 -18.001s-0.833008 -10.666 -1.5 -15.999
c16 -4 36.333 -13.333 61 -28c15.333 -10 32 -22.667 50 -38c-0.666992 6 -1 15.333 -1 28c-17.333 17.333 -37.666 33.333 -60.999 48c-12 8 -27.667 16 -47 24z" />
    <glyph glyph-name="afii10066" unicode="&#x431;" horiz-adv-x="314" 
d="M297 92c-6 -50 -30.001 -80.666 -72.001 -91.999h-106.5h-106.5c18 7.33301 26.667 26.333 26 57l-4 654c0 16 -6.66699 32.333 -20 49h116h118c-5.33301 -48 -0.666016 -94 14.001 -138l-18 -7c-6 14 -12.667 28 -20 42s-16 21 -26 21h-85v-22
c56.667 -70.667 103.5 -159.834 140.5 -267.501s51.5 -206.5 43.5 -296.5zM114.999 507.001v-429c14.667 0 30 -0.166992 46 -0.5s30.667 2.16699 44 7.5c6.66699 0.666992 10 5.66699 10 15c6 58.667 -0.833008 124.5 -20.5 197.5s-43.167 137.167 -70.5 192.5
c-1.33301 2 -2.83301 4.5 -4.5 7.5s-3.16699 6.16699 -4.5 9.5z" />
    <glyph glyph-name="afii10067" unicode="&#x432;" horiz-adv-x="312" 
d="M219 492c5.33301 -18 10.168 -35.167 14.501 -51.5s9.16602 -32.166 14.499 -47.499c14.667 -52 27.667 -101.833 39 -149.5s14.666 -98.167 9.99902 -151.5c-6 -50 -30 -80.667 -72 -92h-106.5h-106.5c18 7.33301 26.667 26.333 26 57l-5 645c0 26.667 -7 46 -21 58h44
h44c36 0.666992 71.5 -4 106.5 -14s49.5 -40 43.5 -90c-4.66699 -35.333 -9.66699 -66.333 -15 -93s-10.666 -50.334 -15.999 -71.001zM118.002 78c47.333 0 76.335 2.33203 87.002 6.99902c6.66699 0.666992 10 5.66699 10 15c4.66699 44.667 2 88.834 -8 132.501
s-22.333 89.5 -37 137.5c-4.66699 -8 -8.83398 -15.5 -12.501 -22.5l-10.5 -19.5c-6.66699 -10 -13.334 -24.333 -20.001 -43s-10 -40 -10 -64v0zM115.004 439.999c10 22 19.832 50.833 29.499 86.5s18.167 82.167 25.5 139.5c0 6.66699 -5.33301 10.667 -16 12
c-9.33301 1.33301 -22.666 2 -39.999 2z" />
    <glyph glyph-name="afii10068" unicode="&#x433;" horiz-adv-x="278" 
d="M13 0c15.333 10 23 27.333 23 52v659c0 16 -6.66699 32.333 -20 49h116.5h117.5c-4 -51.333 1 -97.333 15 -138l-19 -7c-5.33301 14 -11.833 28 -19.5 42s-16.5 21 -26.5 21h-84v-245.5v-380.5c0 -24.667 8 -42 24 -52h-64h-63z" />
    <glyph glyph-name="afii10069" unicode="&#x434;" horiz-adv-x="355" 
d="M323 760c-15.333 -12.667 -22.998 -31.001 -22.998 -55.001v-627h36c-5.33301 -45.333 -0.666016 -90.333 14.001 -135l-18 -7c-6 14.667 -12.667 29 -20 43s-16 21 -26 21h-111h-112c-10 0 -18.833 -7 -26.5 -21s-14.167 -28.333 -19.5 -43l-17 7
c13.333 42 17.666 87 12.999 135h37c0 46.667 2.16699 108.334 6.5 185.001s13.166 151.667 26.499 225s32.166 137 56.499 191s56.833 81 97.5 81h86zM130.002 77.999l90 0.000976562v595c-20 -14.667 -35.833 -46.334 -47.5 -95.001s-20.667 -103.5 -27 -164.5
s-10.5 -122.167 -12.5 -183.5s-3 -112 -3 -152z" />
    <glyph glyph-name="afii10070" unicode="&#x435;" horiz-adv-x="274" 
d="M8 0c15.333 12 23 29.668 23 53.001v659c0 15.333 -6.66699 31.333 -20 48h100h134c-4 -50.667 1 -96.334 15 -137.001l-19 -8c-5.33301 14.667 -11.833 29 -19.5 43s-16.5 21 -26.5 21h-84v-84h58c16 0 27.333 11 34 33l17 -3l-27 -150l-19 4c0.666992 24 -6 36 -20 36
h-43v-436h84c10 0 18.833 7.16699 26.5 21.5s14.167 28.833 19.5 43.5l19 -9c-14 -41.333 -19 -86.333 -15 -135h-119.5h-117.5z" />
    <glyph glyph-name="afii10072" unicode="&#x436;" horiz-adv-x="465" 
d="M167 0c16.667 10.667 24.9961 27.998 24.9961 51.998v84c-0.666992 17.333 -5.33398 36.5 -14.001 57.5l-28 68.5c-4.66699 10 -9 20 -13 30s-7.66699 21 -11 33c-8.66699 -42.667 -13.5 -85.334 -14.5 -128.001s-1.16699 -86 -0.5 -130
c0 -14.667 -1.33301 -29.5 -4 -44.5s-7.33398 -22.5 -14.001 -22.5h-83c10.667 4 16.834 13.833 18.501 29.5s2.5 27.834 2.5 36.501c-2 68 -0.833008 135.167 3.5 201.5s21.5 133.166 51.5 200.499c-2.66699 12.667 -4.83398 26.167 -6.50098 40.5s-2.5 28.833 -2.5 43.5
c0 12 -0.333008 21.333 -1 28c-2 44 -7.33301 72.333 -16 85c-8 8.66699 -13.667 6.66699 -17 -6s-5.33301 -23.334 -6 -32.001l-22 3c4.66699 21.333 8.33398 42.166 11.001 62.499s2.66699 42.833 0 67.5c62.667 0 99.5 -16.667 110.5 -50s17.833 -76 20.5 -128
c0 -10 0.333008 -18.333 1 -25c1.33301 -34.667 5 -75 11 -121s13.667 -81.333 23 -106v381c0 15.333 -3 27 -9 35s-10 12.667 -12 14h121c-14 -16 -21 -32.333 -21 -49v-381c8 24.667 15.167 60 21.5 106s10.5 86.333 12.5 121c0.666992 6.66699 1 15 1 25
c1.33301 52 7.83301 94.667 19.5 128s48.834 50 111.501 50c-3.33301 -24.667 -3.66602 -47.167 -0.999023 -67.5s6.33398 -41.166 11.001 -62.499l-22 -3c-1.33301 8.66699 -3.66602 19.334 -6.99902 32.001s-8.66602 14.667 -15.999 6
c-9.33301 -12.667 -14.333 -41 -15 -85c-0.666992 -6.66699 -1 -16 -1 -28c-0.666992 -14.667 -1.83398 -29.167 -3.50098 -43.5s-3.5 -27.833 -5.5 -40.5c29.333 -67.333 45.833 -134.166 49.5 -200.499s5.5 -133.5 5.5 -201.5c0 -8.66699 0.666992 -20.834 2 -36.501
s7.66602 -25.5 18.999 -29.5h-85c-7.33301 0 -12 7.5 -14 22.5s-2.66699 29.833 -2 44.5c0 44 -0.666992 87.333 -2 130s-5.66602 85.334 -12.999 128.001c-4 -12 -8.16699 -23 -12.5 -33s-8.16602 -20 -11.499 -30l-28.5 -69c-9 -21.333 -13.5 -40.666 -13.5 -57.999v-83
c0 -23.333 8 -40.666 24 -51.999h-127h-1z" />
    <glyph glyph-name="afii10073" unicode="&#x437;" horiz-adv-x="328" 
d="M235 492c6.66699 -30.667 16.334 -63.6699 29.001 -99.0029c15.333 -52 28.333 -101.833 39 -149.5s13.667 -98.167 9 -151.5c-5.33301 -46.667 -21.333 -73.667 -48 -81s-57.334 -11 -92.001 -11h-147c4.66699 47.333 0.333984 92.333 -12.999 135l17 7
c5.33301 -14.667 11.833 -29 19.5 -43s16.5 -21 26.5 -21c32 0 49.667 -0.166992 53 -0.5s17.333 -0.166016 42 0.500977c22 0 39.333 2.33301 52 7c4.66699 0.666992 8 5.66699 10 15c4 44.667 1 88.834 -9 132.501s-22 89.5 -36 137.5l-10 29
c-3.33301 9.33301 -6.33301 19 -9 29c-6.66699 20 -16.334 29 -29.001 27c-16 -3.33301 -23 -15.666 -21 -36.999l-18 -2l-28 149l18 3c6 -21.333 17.333 -32 34 -32h11c8 0 15.5 1.16699 22.5 3.5s12.167 12.833 15.5 31.5c2.66699 17.333 6.66699 49 12 95
c1.33301 9.33301 -9 14 -31 14l-70 -2c-10 0 -19 -7 -27 -21s-14.333 -28 -19 -42l-18 7c13.333 44 18 90 14 138h126c26.667 0 52 -9.5 76 -28.5s33.667 -44.167 29 -75.5c-8 -65.333 -18 -120 -30 -164z" />
    <glyph glyph-name="afii10074" unicode="&#x438;" horiz-adv-x="354" 
d="M135 0h-64h-63c15.333 10 23 27.333 23 52v328v331c0 16 -6.66699 32.333 -20 49h120c-13.333 -16.667 -20 -33 -20 -49v-78c30 60 61.5 96.667 94.5 110s75.833 19 128.5 17c-13.333 -18.667 -20 -35 -20 -49v-659c0 -24.667 8 -42 24 -52h-65h-63
c16.667 10.667 25 28 25 52v615c-16 -11.333 -30.333 -29 -43 -53s-24 -49.667 -34 -77c-18 -48 -30.333 -95.667 -37 -143s-10 -96 -10 -146v-196c0 -24.667 8 -42 24 -52z" />
    <glyph glyph-name="afii10075" unicode="&#x439;" horiz-adv-x="346" 
d="M288 867c-29.333 -66 -65.333 -99 -108 -99c-43.333 0 -80 33 -110 99h89c7.33301 -12.667 14.333 -19 21 -19c6 0 12.667 6.33301 20 19h88zM138 0h-64h-63c15.333 10 23 27.333 23 52v330v96.5v97.5v136c0 16 -6.66699 32.333 -20 49h120
c-13.333 -16.667 -20 -33 -20 -49v-78c30 60 61.5 96.667 94.5 110s75.833 19 128.5 17c-13.333 -18.667 -20 -35 -20 -49v-660c0 -24.667 8 -42 24 -52h-65h-63c16.667 10.667 25 28 25 52v616c-16 -11.333 -30.333 -29 -43 -53s-24 -50 -34 -78
c-18 -46.667 -30.333 -94.167 -37 -142.5s-10 -162.5 -10 -342.5c0 -24.667 8 -42 24 -52z" />
    <glyph glyph-name="afii10076" unicode="&#x43a;" horiz-adv-x="310" 
d="M12 0c15.333 10 23 27.3271 23 51.9941v659c0 16 -6.66699 32.333 -20 49h100h20c-13.333 -16.667 -20 -33 -20 -49v-381c8 24.667 15 60 21 106s10.333 86.333 13 121c0 12 0.333008 20.333 1 25c2 52 8.66699 94.667 20 128s48 50 110 50
c-2 -24.667 -1.83301 -47.167 0.5 -67.5s6.16602 -41.166 11.499 -62.499l-23 -3c-1.33301 8.66699 -3.66602 19.334 -6.99902 32.001s-8.33301 14.667 -15 6c-10 -13.333 -15.667 -41.666 -17 -84.999c0 -13.333 -0.333008 -22.666 -1 -27.999
c-1.33301 -32.667 -4.33301 -60.667 -9 -84c29.333 -67.333 46.166 -134.166 50.499 -200.499s6.5 -133.5 6.5 -201.5c-1.33301 -8.66699 -1.33301 -20.834 0 -36.501s8 -25.5 20 -29.5h-84c-7.33301 0 -12.166 7.5 -14.499 22.5s-3.5 29.833 -3.5 44.5
c0 44 -0.333008 87.333 -1 130s-4.66699 85.334 -12 128.001c-5.33301 -12 -9.83301 -23 -13.5 -33l-11.5 -30l-28.5 -69c-9 -21.333 -13.5 -40.666 -13.5 -57.999v-83c0 -24.667 8 -42 24 -52h-64h-63z" />
    <glyph glyph-name="afii10077" unicode="&#x43b;" horiz-adv-x="346" 
d="M61 0l-48 -0.000976562c1.33301 0 2.66602 0.333008 3.99902 1h-3v79h22v-10c15.333 -52 26.666 -35.667 33.999 49c2.66699 29.333 1.83398 87 -2.49902 173s-1.16602 162.667 9.50098 230s36 125 76 173s102 69.667 186 65c-13.333 -18.667 -20 -35 -20 -49v-659
c0 -24.667 8 -42 24 -52h-128c16.667 10.667 25 28 25 52v615c-20 -6.66699 -37.5 -22.167 -52.5 -46.5s-25.167 -50.833 -30.5 -79.5c-7.33301 -50.667 -11.833 -99.667 -13.5 -147s-3.83398 -113.666 -6.50098 -198.999c2.66699 -123.333 -22.666 -188.333 -75.999 -195z
" />
    <glyph glyph-name="afii10078" unicode="&#x43c;" horiz-adv-x="439" 
d="M78 760c41.333 0 72.5 -22.5 93.5 -67.5s35.5 -82.5 43.5 -112.5c12.667 48.667 30.334 90.834 53.001 126.501s50.667 53.5 84 53.5h0.5h2.5v0v0h60c-13.333 -16.667 -20 -33 -20 -49v-659c0 -24.667 8 -42 24 -52h-64h-63c15.333 10 23 27.333 23 52v579
c-10 -28.667 -17.667 -54 -23 -76c-11.333 -42 -19.833 -85 -25.5 -129s-8.83398 -80.667 -9.50098 -110c-1.33301 -6 -2 -15.333 -2 -28h-80c0 4.66699 -0.166992 9.16699 -0.5 13.5s-0.5 9.16602 -0.5 14.499c-1.33301 29.333 -5 66 -11 110s-14 87 -24 129
c-8 28 -16 53 -24 75v-578c0 -24.667 8 -42 24 -52h-64h-63c15.333 10 23 27.333 23 52v659c0 16 -6.66699 32.333 -20 49h30h30c10 0 10 0 0 0s-10 0 0 0h1h2z" />
    <glyph glyph-name="afii10079" unicode="&#x43d;" horiz-adv-x="339" 
d="M16 0c15.333 10 22.999 27.333 22.999 52v659c0 16 -6.66699 32.333 -20 49h100h20c-13.333 -16.667 -20 -33 -20 -49v-84c34.667 10 69 10 103 0v84c0 14.667 -7 31 -21 49h100h21c-14 -18 -21 -34.333 -21 -49v-329.5v-329.5c0 -24 7.66699 -41.333 23 -52h-63.5h-62.5
c16 10.667 24 28 24 52v500c-35.333 12.667 -69.666 13 -102.999 1v-501c0 -24.667 8 -42 24 -52h-64h-63zM221.999 603c-33.333 12 -67.667 12 -103 0v-26c34.667 10 69 9.66699 103 -1v27z" />
    <glyph glyph-name="afii10080" unicode="&#x43e;" horiz-adv-x="358" 
d="M181 0c-37.333 0 -56 18.333 -56 55s18.667 55 56 55c38 0 57 -18.333 57 -55s-19 -55 -57 -55zM299 718c21.333 -22 35.334 -51.168 42.001 -87.501s9 -73.833 7 -112.5c-2.66699 -40 -8 -78.333 -16 -115s-15.667 -66.667 -23 -90
c-32.667 -98 -75.334 -147 -128.001 -147c-54 0 -96.667 49 -128 147c-8 24.667 -16.167 55.334 -24.5 92.001s-13.166 75 -14.499 115c-2 38 0 75 6 111s20.333 65 43 87c26.667 28.667 66 43 118 43c51.333 0 90.666 -14.333 117.999 -43zM241.001 661.999
c-11.333 12 -31.334 18 -60.001 18c-28 0 -48.333 -6 -61 -18c-14.667 -14.667 -23.334 -37.834 -26.001 -69.501s-1.33398 -63.834 3.99902 -96.501c3.33301 -34 8.5 -65.833 15.5 -95.5s12.5 -50.5 16.5 -62.5c20 -61.333 37 -92 51 -92c12.667 0 29.334 30.667 50.001 92
c4.66699 12 10.334 32.833 17.001 62.5s12.334 61.5 17.001 95.5c3.33301 32.667 4 64.834 2 96.501s-10.667 54.834 -26 69.501z" />
    <glyph glyph-name="afii10081" unicode="&#x43f;" horiz-adv-x="332" 
d="M12 0c15.333 10 23 27.333 23 52v659c0 16 -6.66699 32.333 -20 49h149h150c-14 -18 -21 -34.333 -21 -49v-329.5v-329.5c0 -24 8 -41.333 24 -52h-65h-62c16 10.667 24 28 24 52v633h-99v-633c0 -24.667 8 -42 24 -52h-64h-63z" />
    <glyph glyph-name="afii10082" unicode="&#x440;" horiz-adv-x="262" 
d="M145 240c-6 -10 -12.3301 -24.5 -18.9971 -43.5s-10 -40.5 -10 -64.5v-79c0 -24 8 -41.667 24 -53h-64h-63c15.333 11.333 23 29 23 53l-3 650c0 26 -6.66699 45 -20 57c3.33301 0 17.5 0.166992 42.5 0.5s39.833 0.5 44.5 0.5c35.333 0 70.666 -5 105.999 -15
s49.666 -39.667 42.999 -89c-5.33301 -66.667 -14.833 -141.667 -28.5 -225s-38.834 -147.333 -75.501 -192zM115.003 351c13.333 17.333 25.499 58.167 36.499 122.5s17.167 128.833 18.5 193.5c0 6 -5.33301 9.66699 -16 11c-9.33301 2 -22.666 3 -39.999 3z" />
    <glyph glyph-name="afii10083" unicode="&#x441;" horiz-adv-x="247" 
d="M212 656c-6 17.333 -17.334 26.001 -34.001 26.001c-33.333 0.666992 -55 -4 -65 -14c-12 -12 -17.833 -35.5 -17.5 -70.5s0.833008 -61.5 1.5 -79.5c4 -87.333 15.667 -177.833 35 -271.5s54.333 -175.834 105 -246.501h-95c-42.667 74.667 -73.167 157.167 -91.5 247.5
s-29.5 179.5 -33.5 267.5c-1.33301 32 -1.16602 68.833 0.500977 110.5s14.5 75.167 38.5 100.5c30 29.333 85 41 165 35z" />
    <glyph glyph-name="afii10084" unicode="&#x442;" horiz-adv-x="312" 
d="M90 0c16 10 24.001 27.333 24.001 52v626h-43c-10 0 -18.833 -7 -26.5 -21s-14.167 -28 -19.5 -42l-17 7c13.333 42 17.666 88 12.999 138h132h133c-4.66699 -50 0 -96 14 -138l-19 -7c-5.33301 14 -11.833 28 -19.5 42s-16.5 21 -26.5 21h-41v-313.5v-312.5
c0 -24.667 8 -42 24 -52h-65h-63z" />
    <glyph glyph-name="afii10085" unicode="&#x443;" horiz-adv-x="308" 
d="M99 121c5.33301 22.667 5.50098 48.667 0.500977 78s-10.167 53.333 -15.5 72c-23.333 77.333 -40.5 157.833 -51.5 241.5s-16.5 166.167 -16.5 247.5h113c-10 0 -17.833 -7.5 -23.5 -22.5s-8.16699 -27.5 -7.5 -37.5c3.33301 -128 22.666 -256 57.999 -384
c16.667 61.333 29.5 124.333 38.5 189s14.833 129.667 17.5 195c0 10 -2.5 22.5 -7.5 37.5s-15.167 22.5 -30.5 22.5h120c0 -128 -12 -259 -36 -393s-67.333 -256.333 -130 -367h-95c2.66699 2 1 11.333 -5 28s-9.33301 27.667 -10 33l-7 19l11 5.5l9 4.5
c2 -2.66699 6.33301 -11.167 13 -25.5s16 -14.833 28 -1.5c7.33301 8 12.5 17.167 15.5 27.5s6.83301 20.5 11.5 30.5z" />
    <glyph glyph-name="afii10086" unicode="&#x444;" horiz-adv-x="362" 
d="M116 0c15.333 10.667 22.999 28.002 22.999 52.002v50c-36.667 20.667 -66 66 -88 136c-8 23.333 -16.167 53.666 -24.5 90.999s-13.166 75.333 -14.499 114c-2 38.667 0 75.834 6 111.501s20.333 64.834 43 87.501c20 20 46 33.333 78 40v29c0 14.667 -7 31 -21 49h100
h21c-14 -18 -21 -34.333 -21 -49v-29c32 -6.66699 58.333 -20 79 -40c21.333 -22.667 35.333 -51.834 42 -87.501s9 -73.167 7 -112.5c-2.66699 -40 -8 -78.333 -16 -115s-15.667 -66.334 -23 -89.001c-24 -70.667 -53.667 -116.334 -89 -137.001v-49
c0 -24 8 -41.333 24 -52h-64h-62zM217.999 230.002l10.998 33c4.66699 12 10.334 32.5 17.001 61.5s12.334 60.833 17.001 95.5c3.33301 33.333 4 65.5 2 96.5s-10.667 54.167 -26 69.5c-6.66699 6 -13.667 10 -21 12v-368zM138.997 598.002c-8 -2 -14.998 -6 -20.998 -12
c-14.667 -15.333 -23.334 -38.5 -26.001 -69.5s-1.33398 -63.167 3.99902 -96.5c3.33301 -34.667 8.5 -66.5 15.5 -95.5s12.5 -49.5 16.5 -61.5c5.33301 -14.667 9 -25 11 -31v366z" />
    <glyph glyph-name="afii10087" unicode="&#x445;" horiz-adv-x="330" 
d="M165 758c-12 -4 -19 -12 -21 -24s-0.666992 -21.667 4 -29c2.66699 -5.33301 5.5 -10 8.5 -14l8.5 -11c3.33301 4.66699 8.33301 13 15 25c4.66699 7.33301 6 17 4 29s-8.33301 20 -19 24zM210 595c28 -61.333 47.498 -124.666 58.498 -189.999
s16.833 -131.333 17.5 -198v-156c0 -10 2.33301 -21 7 -33s12 -18 22 -18h-134c6.66699 0 12.5 6 17.5 18s7.5 23 7.5 33v156c-2 110.667 -15.667 205.334 -41 284.001c-26.667 -78.667 -40.667 -173.334 -42 -284.001l-1 -156c0 -10 2.5 -21 7.5 -33s11.167 -18 18.5 -18
h-133c10 0 17 6 21 18s6 23 6 33l1 156c0 66.667 5.5 132.667 16.5 198s31.167 128.666 60.5 189.999c-15.333 26.667 -31.666 53.334 -48.999 80.001l-56 85h300c-22 -30 -41.667 -58.333 -59 -85s-32.666 -53.334 -45.999 -80.001z" />
    <glyph glyph-name="afii10088" unicode="&#x446;" horiz-adv-x="362" 
d="M316 760c-16 -15.333 -24.001 -33.666 -24.001 -54.999v-627h40c-5.33301 -48 -0.666016 -93 14.001 -135l-18 -7c-6 14 -12.5 27.667 -19.5 41s-15.167 21 -24.5 23h-134.5h-135.5c13.333 13.333 20 29 20 47v328.5v329.5c0 23.333 -7.66699 41.666 -23 54.999h63h64
c-16 -13.333 -24 -31.666 -24 -54.999v-633h99v633c0 21.333 -8 39.666 -24 54.999h62.5h64.5z" />
    <glyph glyph-name="afii10089" unicode="&#x447;" horiz-adv-x="333" 
d="M318 0l-64.999 0.00488281h-63c16 10 24 27.333 24 52v83c0 17.333 -3.16699 38.666 -9.5 63.999s-16.833 46.333 -31.5 63c-33.333 34 -57.333 74.833 -72 122.5s-23.334 103.5 -26.001 167.5c-0.666992 5.33301 -1 14.666 -1 27.999
c-2 43.333 -7.33301 71.666 -16 84.999c-8 8.66699 -13.667 6.66699 -17 -6s-5.33301 -23.334 -6 -32.001l-22 3c4.66699 21.333 8.33398 42.166 11.001 62.499s2.66699 42.833 0 67.5c61.333 0 97.666 -16.667 108.999 -50s18.333 -76 21 -128
c0.666992 -4.66699 1 -13 1 -25c2.66699 -58 9.66699 -107.333 21 -148s24 -67 38 -79v381c0 16 -6.66699 32.333 -20 49h20h100c-13.333 -16.667 -20 -33 -20 -49v-659c0 -24.667 8 -42 24 -52z" />
    <glyph glyph-name="afii10090" unicode="&#x448;" horiz-adv-x="458" 
d="M270 72h71v633c0 23.333 -8 41.666 -24 54.999h63.5h64.5c-16 -13.333 -24 -31.666 -24 -54.999v-329.5v-328.5c0 -18 6.66699 -33.667 20 -47h-214.5h-214.5c13.333 13.333 20 29 20 47v328.5v329.5c0 23.333 -7.66699 41.666 -23 54.999h63h64
c-16 -13.333 -24 -31.666 -24 -54.999v-633h78v633c0 23.333 -8 41.666 -24 54.999h63h65c-16 -13.333 -24 -31.666 -24 -54.999v-633z" />
    <glyph glyph-name="afii10091" unicode="&#x449;" horiz-adv-x="471" 
d="M182 72v633c0 23.333 -7.66699 41.666 -23 54.999h63h64c-16 -13.333 -24 -31.666 -24 -54.999v-633h35.5h36.5v633c0 23.333 -8 41.666 -24 54.999h63h64c-15.333 -13.333 -23 -31.666 -23 -54.999v-627h38c-4.66699 -45.333 0 -90.333 14 -135l-17 -7
c-6 14 -12.5 27.667 -19.5 41s-14.833 21 -23.5 23h-197.5h-196.5c13.333 13.333 20 29 20 47v328.5v329.5c0 23.333 -7.66699 41.666 -23 54.999h63h64c-16 -13.333 -24 -31.666 -24 -54.999v-633h70z" />
    <glyph glyph-name="afii10092" unicode="&#x44a;" horiz-adv-x="340" 
d="M220 520c36.667 -46.667 61.834 -111.668 75.501 -195.001s23.167 -157.666 28.5 -222.999c6 -50 -8.5 -79.833 -43.5 -89.5s-70.167 -13.834 -105.5 -12.501h-45.5h-43.5c12.667 8.66699 20 27.334 22 56.001l3 624h-35c-10 0 -18.833 -7.16699 -26.5 -21.5
s-14.167 -28.5 -19.5 -42.5l-17 7c13.333 42 17.666 87.667 12.999 137h94.5h94.5c-16 -12.667 -24 -30.667 -24 -54v-79c0 -24.667 3.16699 -46.5 9.5 -65.5s12.833 -32.833 19.5 -41.5zM190 407.999l-2 -330c18 0 31.333 0.666992 40 2
c11.333 0.666992 16.666 4.66699 15.999 12c-2 64 -8.16699 128 -18.5 192s-22.166 105.333 -35.499 124z" />
    <glyph glyph-name="afii10093" unicode="&#x44b;" horiz-adv-x="404" 
d="M149 520c36.667 -46.667 61.667 -111.668 75 -195.001s23 -157.666 29 -222.999c6 -50 -8.5 -79.833 -43.5 -89.5s-70.167 -13.834 -105.5 -12.501h-45h-43c12 8.66699 19 27.334 21 56.001l4 650c0 23.333 -8 41.333 -24 54h63h64c-15.333 -12.667 -23 -30.667 -23 -54
v-79c0 -24.667 3 -46.5 9 -65.5s12.333 -32.833 19 -41.5zM284 51.999v263.5v167.5v116v112c0 14.667 -7 31 -21 49h100h20c-13.333 -16.667 -20 -33 -20 -49v-329.5v-329.5c0 -24.667 8 -42 24 -52h-64.5h-63.5c16.667 10.667 25 28 25 52zM119 407.999l-1.99902 -330
c18 0 31.333 0.666992 40 2c11.333 0.666992 16.666 4.66699 15.999 12c-1.33301 64 -7.33301 128 -18 192s-22.667 105.333 -36 124z" />
    <glyph glyph-name="afii10094" unicode="&#x44c;" horiz-adv-x="276" 
d="M153 520c36.667 -46.667 61.667 -111.668 75 -195.001s23 -157.666 29 -222.999c6 -50 -8.5 -79.833 -43.5 -89.5s-70.167 -13.834 -105.5 -12.501h-45h-43c12 8.66699 19 27.334 21 56.001l4 650c0 23.333 -8 41.333 -24 54h63h64c-15.333 -12.667 -23 -30.667 -23 -54
v-79c0 -24.667 3 -46.5 9 -65.5s12.333 -32.833 19 -41.5zM123 407.999l-1.99902 -330c18 0 31.333 0.666992 40 2c11.333 0.666992 16.666 4.66699 15.999 12c-1.33301 64 -7.33301 128 -18 192s-22.667 105.333 -36 124z" />
    <glyph glyph-name="afii10095" unicode="&#x44d;" horiz-adv-x="251" 
d="M44 656l-9.00098 105c79.333 6 134.333 -5.66699 165 -35c24 -25.333 36.833 -58.833 38.5 -100.5s1.83398 -78.5 0.500977 -110.5c-5.33301 -88 -17 -177.167 -35 -267.5s-48 -172.833 -90 -247.5h-95c50 70 84.5 151.667 103.5 245s31.167 183.333 36.5 270h-39
c-15.333 0 -22 -12.333 -20 -37l-19 -3l-27 150l17 2c8.66699 -21.333 20 -32 34 -32h56c-1.33301 38.667 -7.66602 63 -18.999 73c-10.667 10 -32.334 14.667 -65.001 14c-17.333 0 -28.333 -8.66699 -33 -26z" />
    <glyph glyph-name="afii10096" unicode="&#x44e;" horiz-adv-x="433" 
d="M315 52l-0.00292969 466h-27c-1.33301 -48 -4.66602 -100 -9.99902 -156s-11.666 -107.667 -18.999 -155c-10.667 -60 -25.167 -109.5 -43.5 -148.5s-40.166 -58.5 -65.499 -58.5v0v0v0v0c-26 0 -48.167 19.5 -66.5 58.5s-32.5 88.5 -42.5 148.5
c-8.66699 50 -15.5 104.167 -20.5 162.5s-7.5 113 -7.5 164s3 91.5 9 121.5s14.667 53.333 26 70c14 20.667 29.5 33.334 46.5 38.001s35.5 7 55.5 7c18.667 0 36.5 -2.33301 53.5 -7s32.833 -17.334 47.5 -38.001c18 -26 29.333 -68.667 34 -128h30v114
c0 16 -6.66699 32.333 -20 49h100h20c-13.333 -16.667 -20 -33 -20 -49v-329.5v-329.5c0 -24.667 8 -42 24 -52h-64.5h-63.5c16 10 24 27.333 24 52zM184.997 680c-4.66699 6.66699 -16.3359 10 -35.0029 10c-19.333 0 -31 -3.33301 -35 -10
c-14 -21.333 -21 -63.166 -21 -125.499s2.33301 -121.5 7 -177.5s11.334 -108 20.001 -156c6.66699 -40 12.834 -73.5 18.501 -100.5s9.16699 -40.5 10.5 -40.5v0v0v0v0c0.666992 0 3.83398 13.5 9.50098 40.5s12.167 60.5 19.5 100.5c8 48 14.5 100 19.5 156
s7.5 115.167 7.5 177.5s-7 104.166 -21 125.499z" />
    <glyph glyph-name="afii10097" unicode="&#x44f;" horiz-adv-x="308" 
d="M161 238c-15.333 18.667 -27.999 40.998 -37.999 66.998c-6.66699 -39.333 -10.334 -78.833 -11.001 -118.5s-0.666992 -79.5 0 -119.5c0 -14.667 -1.33301 -29.5 -4 -44.5s-7.33398 -22.5 -14.001 -22.5h-83c10.667 4 16.834 13.833 18.501 29.5s2.5 27.834 2.5 36.501
c-2 66 -1 131 3 195s19.333 128.667 46 194c-6.66699 34.667 -11.667 69.334 -15 104.001l-9 97c-6.66699 50 7.5 80 42.5 90s70.5 14.667 106.5 14h44h44c-13.333 -12 -20 -31.333 -20 -58l-5 -650c0 -24.667 8 -42 24 -52h-64h-63c16.667 10.667 25 28 25 52l-2 79
c0 24 -3.33301 45.333 -10 64s-12.667 33 -18 43zM191.001 350.998l2 329c-18 0 -31.333 -0.666992 -40 -2c-12.667 -1.33301 -18 -5.33301 -16 -12c0.666992 -65.333 6.16699 -129.833 16.5 -193.5s22.833 -104.167 37.5 -121.5z" />
    <glyph glyph-name="afii10071" unicode="&#x451;" horiz-adv-x="278" 
d="M172 817c0 11.333 3.83301 21.166 11.5 29.499s16.834 12.5 27.501 12.5s19.834 -4.16699 27.501 -12.5s11.5 -18.166 11.5 -29.499s-3.83301 -20.833 -11.5 -28.5s-16.834 -11.5 -27.501 -11.5s-19.834 3.83301 -27.501 11.5s-11.5 17.167 -11.5 28.5zM34 817
c0 11.333 3.66699 21.166 11 29.499s16.333 12.5 27 12.5c11.333 0 20.666 -4.16699 27.999 -12.5s11 -18.166 11 -29.499s-3.66699 -20.833 -11 -28.5s-16.666 -11.5 -27.999 -11.5c-10.667 0 -19.667 3.83301 -27 11.5s-11 17.167 -11 28.5zM21 0
c15.333 12 23 29.668 23 53.001v659c0 15.333 -6.66699 31.333 -20 48h100h134c-4 -50.667 1 -96.334 15 -137.001l-19 -8c-5.33301 14.667 -11.833 29 -19.5 43s-16.5 21 -26.5 21h-84v-84h58c16 0 27.333 11 34 33l17 -3l-27 -150l-19 4c0.666992 24 -6 36 -20 36h-43
v-436h84c10 0 18.833 7.16699 26.5 21.5s14.167 28.833 19.5 43.5l19 -9c-14 -41.333 -19 -86.333 -15 -135h-119.5h-117.5z" />
    <glyph glyph-name="endash" unicode="&#x2013;" horiz-adv-x="312" 
d="M16 270h281v-87h-281v87z" />
    <glyph glyph-name="emdash" unicode="&#x2014;" horiz-adv-x="415" 
d="M15 270h386v-87h-386v87z" />
    <glyph glyph-name="quoteleft" unicode="&#x2018;" horiz-adv-x="139" 
d="M77 757c13.333 4 26.998 3.99902 40.998 -0.000976562c-22 -7.33301 -36.333 -19.5 -43 -36.5s-9 -28.833 -7 -35.5c25.333 0 39 -13.167 41 -39.5s-12 -40.833 -42 -43.5c-41.333 -2.66699 -56.666 19.833 -45.999 67.5s29.334 76.834 56.001 87.501z" />
    <glyph glyph-name="quoteright" unicode="&#x2019;" horiz-adv-x="136" 
d="M57 605c-13.333 -4.66699 -26.998 -4.66699 -40.998 0c22 7.33301 36.333 19.5 43 36.5s9 28.833 7 35.5c-25.333 0 -39 13.167 -41 39.5s12 40.833 42 43.5c41.333 2 56.666 -20.667 45.999 -68s-29.334 -76.333 -56.001 -87z" />
    <glyph glyph-name="quotesinglbase" unicode="&#x201a;" horiz-adv-x="129" 
d="M52 -73c-13.333 -4 -26.998 -3.99805 -40.998 0.00195312c22 7.33301 36.333 19.666 43 36.999s9 29.333 7 36c-25.333 0 -39 13 -41 39s12 40.333 42 43c41.333 2.66699 56.666 -19.833 45.999 -67.5s-29.334 -76.834 -56.001 -87.501z" />
    <glyph glyph-name="quotedblleft" unicode="&#x201c;" horiz-adv-x="270" 
d="M72 757c13.333 4 26.998 3.99902 40.998 -0.000976562c-22 -7.33301 -36.333 -19.5 -43 -36.5s-9 -28.833 -7 -35.5c25.333 0 39 -13.167 41 -39.5s-12 -40.833 -42 -43.5c-41.333 -2.66699 -56.666 19.833 -45.999 67.5s29.334 76.834 56.001 87.501zM210.998 756.999
c13.333 4 27.001 3.99902 41.001 -0.000976562c-22.667 -7.33301 -37.334 -19.5 -44.001 -36.5s-8.66699 -28.833 -6 -35.5c25.333 0 39 -13.167 41 -39.5s-12 -40.833 -42 -43.5c-42 -2.66699 -57.5 19.833 -46.5 67.5s29.833 76.834 56.5 87.501z" />
    <glyph glyph-name="quotedblright" unicode="&#x201d;" horiz-adv-x="268" 
d="M195 605c-13.333 -4.66699 -27.332 -4.66699 -41.999 0c22.667 7.33301 37.334 19.5 44.001 36.5s8.66699 28.833 6 35.5c-24.667 0 -38 13.167 -40 39.5s12 40.833 42 43.5c41.333 2 56.666 -20.667 45.999 -68s-29.334 -76.333 -56.001 -87zM56.001 605
c-13.333 -4.66699 -26.998 -4.66699 -40.998 0c22 7.33301 36.333 19.5 43 36.5s9 28.833 7 35.5c-25.333 0 -39 13.167 -41 39.5s12 40.833 42 43.5c41.333 2 56.666 -20.667 45.999 -68s-29.334 -76.333 -56.001 -87z" />
    <glyph glyph-name="quotedblbase" unicode="&#x201e;" horiz-adv-x="279" 
d="M193 -73c-13.333 -4 -27.332 -3.99805 -41.999 0.00195312c22.667 7.33301 37.334 19.666 44.001 36.999s8.66699 29.333 6 36c-24.667 0 -38 13 -40 39s12 40.333 42 43c41.333 2.66699 56.666 -19.833 45.999 -67.5s-29.334 -76.834 -56.001 -87.501zM54.001 -72.998
c-13.333 -4 -26.998 -3.99805 -40.998 0.00195312c22 7.33301 36.333 19.666 43 36.999s9 29.333 7 36c-25.333 0 -39 13 -41 39s12 40.333 42 43c41.333 2.66699 56.666 -19.833 45.999 -67.5s-29.334 -76.834 -56.001 -87.501z" />
    <glyph glyph-name="dagger" unicode="&#x2020;" horiz-adv-x="443" 
d="M13 703l98 40l69 -33l25 120l29 1l26 -119l75 31l92 -44l-99 -40l-68 33l-29 -746h-21l-30 743l-76 -30z" />
    <glyph glyph-name="daggerdbl" unicode="&#x2021;" horiz-adv-x="443" 
d="M12 593l98 40l69 -33v89l-76 -30l-91 44l98 40l69 -33l26 115h27l27 -113l75 31l92 -44l-99 -40l-68 33v-90l75 31l92 -44l-99 -40l-68 33l-31 -638l-24 1l-25 634l-76 -30z" />
    <glyph glyph-name="bullet" unicode="&#x2022;" horiz-adv-x="161" 
d="M76 358c18.667 0 32.8311 -5.16797 42.498 -15.501s14.5 -23.166 14.5 -38.499c0 -16.667 -5.66699 -29.667 -17 -39s-24.666 -14 -39.999 -14c-17.333 0 -30.666 5.66699 -39.999 17s-14 23.333 -14 36c0 9.33301 2 17.5 6 24.5s8.83301 12.667 14.5 17
s11.5 7.5 17.5 9.5s11.333 3 16 3z" />
    <glyph glyph-name="ellipsis" unicode="&#x2026;" horiz-adv-x="371" 
d="M62 82c27.333 0 41 -14 41 -42c0 -26.667 -13.667 -40 -41 -40c-28 -0 -42 13.333 -42 40c0 28 14 42 42 42zM187 82c27.333 0 41 -14 41 -42c0 -26.667 -13.667 -40 -41 -40c-28 -0 -42 13.333 -42 40c0 28 14 42 42 42zM312 82c27.333 0 41 -14 41 -42
c0 -26.667 -13.667 -40 -41 -40c-28 -0 -42 13.333 -42 40c0 28 14 42 42 42z" />
    <glyph glyph-name="perthousand" unicode="&#x2030;" horiz-adv-x="745" 
d="M693 360c14 -15.333 23.333 -34.668 28 -58.001s6 -47.333 4 -72c-1.33301 -26 -4.83301 -50.833 -10.5 -74.5l-14.5 -59.5c-21.333 -63.333 -49.333 -95 -84 -95s-62.334 31.667 -83.001 95c-4.66699 16 -9.66699 35.833 -15 59.5s-8.66602 48.834 -9.99902 75.501
c-1.33301 24.667 0 48.5 4 71.5s13.333 42.167 28 57.5c16.667 18 42 27 76 27c33.333 0 59 -9 77 -27zM645 291.998c-6 6 -16.002 9 -30.002 9s-24 -3 -30 -9c-7.33301 -7.33301 -11.666 -19 -12.999 -35s-0.666016 -32.333 2.00098 -49
c1.33301 -16.667 3.66602 -32.167 6.99902 -46.5s6.33301 -24.833 9 -31.5c10 -31.333 18.333 -47 25 -47s15 15.667 25 47c2.66699 6.66699 5.66699 17.167 9 31.5s6.33301 29.833 9 46.5c1.33301 16.667 1.33301 33 0 49s-5.66602 27.667 -12.999 35zM347.998 761.998h63
l-273 -760h-64zM207.998 732.998c14 -14.667 23.333 -33.668 28 -57.001s6 -47.666 4 -72.999c-1.33301 -25.333 -4.83301 -50 -10.5 -74s-10.5 -43.667 -14.5 -59c-21.333 -63.333 -49.333 -95 -84 -95s-62.334 31.667 -83.001 95c-4.66699 15.333 -9.66699 35 -15 59
s-8.66602 49.333 -9.99902 76c-1.33301 24.667 0 48.5 4 71.5s13.333 41.833 28 56.5c16.667 18.667 42 28 76 28c33.333 0 59 -9.33301 77 -28zM159.998 665.997c-6 6 -16.002 9 -30.002 9s-24 -3 -30 -9c-7.33301 -7.33301 -11.666 -19 -12.999 -35
s-0.666016 -32.333 2.00098 -49c1.33301 -16.667 3.66602 -32.334 6.99902 -47.001s6.33301 -25.334 9 -32.001c10 -30.667 18.333 -46 25 -46s15 15.333 25 46c2.66699 6.66699 5.66699 17.334 9 32.001s6.33301 30.334 9 47.001c1.33301 16.667 1.33301 33 0 49
s-5.66602 27.667 -12.999 35zM454.996 359.997c14 -15.333 23.333 -34.668 28 -58.001s6.33398 -47.333 5.00098 -72c-2 -26 -5.66699 -50.833 -11 -74.5s-10 -43.5 -14 -59.5c-22 -63.333 -50 -95 -84 -95c-35.333 0 -63.333 31.667 -84 95c-4 16 -8.66699 35.833 -14 59.5
s-9 48.834 -11 75.501c-0.666992 24.667 0.833008 48.5 4.5 71.5s13.167 42.167 28.5 57.5c16.667 18 42 27 76 27c33.333 0 58.666 -9 75.999 -27zM407.996 291.995c-6 6 -16.001 9 -30.001 9c-14.667 0 -24.667 -3 -30 -9c-8 -7.33301 -12.5 -19 -13.5 -35
s-0.5 -32.333 1.5 -49s4.66699 -32.167 8 -46.5s6.33301 -24.833 9 -31.5c10 -31.333 18.333 -47 25 -47s15 15.667 25 47c2 6.66699 4.66699 17.167 8 31.5s6.33301 29.833 9 46.5c2 16.667 2.33301 33 1 49s-5.66602 27.667 -12.999 35z" />
    <glyph glyph-name="guilsinglleft" unicode="&#x2039;" horiz-adv-x="339" 
d="M27 355l281 158v-86l-208 -117l210 -127v-86l-281 170v3l-2 -2v87z" />
    <glyph glyph-name="guilsinglright" unicode="&#x203a;" horiz-adv-x="312" 
d="M283 268l-283 -171v86l210 127l-208 117v86l281 -158v-87z" />
    <glyph glyph-name="Euro" unicode="&#x20ac;" horiz-adv-x="284" 
d="M24 515h29.999c-0.666992 10.667 -1 22.667 -1 36h-39l10 42h29c0 10 0.333008 21 1 33c2 41.333 15 74.666 39 99.999c30 29.333 85 41 165 35l-9 -105c-6 17.333 -17.333 26 -34 26c-33.333 0.666992 -55 -4 -65 -14c-12 -12 -18 -35.667 -18 -71v-4h92l-10 -42h-82
c0.666992 -13.333 1.33398 -24.333 2.00098 -33v-3h71l-10 -43h-58c5.33301 -73.333 16 -148.666 32 -225.999c19.333 -93.333 54.333 -175.333 105 -246h-95c-42.667 74.667 -73 157 -91 247c-16 76 -26.333 151 -31 225h-43z" />
    <glyph glyph-name="trademark" unicode="&#x2122;" horiz-adv-x="404" 
d="M39 395c8 5.33301 12.0039 13.666 12.0039 24.999v301h-21c-4.66699 0 -8.83398 -3.33301 -12.501 -10s-6.83398 -13.667 -9.50098 -21l-8 4c6.66699 20 8.66699 42 6 66h63.5h63.5c-2 -24 0.333008 -46 7 -66l-9 -4c-2.66699 7.33301 -5.83398 14.333 -9.50098 21
s-7.83398 10 -12.501 10h-20v-151v-150c0 -11.333 4 -19.666 12 -24.999h-31.5h-30.5zM178.004 760c20 0 35.002 -10.833 45.002 -32.5s17 -39.5 21 -53.5c6 23.333 14.5 43.5 25.5 60.5s24.5 25.5 40.5 25.5v0h1v0v0h29c-6.66699 -8 -10 -16 -10 -24v-316
c0 -11.333 4 -19.666 12 -24.999h-30.5h-30.5c7.33301 5.33301 11 13.666 11 24.999v278c-4.66699 -14 -8.33398 -26 -11.001 -36c-5.33301 -20.667 -9.33301 -41.5 -12 -62.5s-4.33398 -38.5 -5.00098 -52.5c-0.666992 -2.66699 -1 -7 -1 -13h-38c0 2 -0.166992 4 -0.5 6
s-0.5 4.33301 -0.5 7c0 14 -1.5 31.5 -4.5 52.5s-6.83301 41.833 -11.5 62.5c-4 13.333 -8 25.333 -12 36v-278c0 -11.333 4 -19.666 12 -24.999h-31h-30c7.33301 5.33301 11 13.666 11 24.999v316c0 8 -3.33301 16 -10 24h14.5h14.5c4.66699 0 4.66699 0 0 0
s-4.66699 0 0 0h0.5h0.5z" />
    <glyph glyph-name=".null" horiz-adv-x="0" 
 />
    <glyph glyph-name="nonmarkingreturn" horiz-adv-x="333" 
 />
    <glyph glyph-name="glyph183" horiz-adv-x="625" 
 />
    </font>
</defs>
</svg>
