<svg xmlns="http://www.w3.org/2000/svg" viewBox="0 0 21.63 21.15"><defs><style>.cls-1{fill:#623c25;fill-rule:evenodd;}</style></defs><title>16_l_u</title><g id="Layer_2" data-name="Layer 2"><g id="Layer_1-2" data-name="Layer 1"><path class="cls-1" d="M1.34,2.55H.94C.39,2.55,0,1.83,0,1.25S.87.33,1.45.19c.5.26.94.37.94,1.17v.13A1,1,0,0,1,1.34,2.55Zm1.08,2A1.19,1.19,0,0,0,1.24,3.27C.32,3.29.3,3.94,0,4.52c.26.52.35,1,1.2,1A1.11,1.11,0,0,0,2.42,4.5ZM0,19.24a1.93,1.93,0,0,0,1.88,1.82c1.66,0,2.33-2.64.37-2.62-.43,0-.51.38-.63.65l.11.54.8.12c-.07.27-.23.52-.53.52a1.24,1.24,0,1,1,0-2.48h.27c1.82,0,4.09,2.54,5.51,3.1v.26h2.7V10.28H21.63V7.58h-.75a5.71,5.71,0,0,0-.63-1.18c-.66-.92-2.43-3-2.44-4.22V2.05A1.21,1.21,0,0,1,19,.86h.28c1,0,1.4,1.06.69,1.57-.53-.37-.08-.66-.68-.65H19c-.42,0-.54.39-.54.79s.76.78,1.38.77h.27c.53,0,1.09-.73,1.08-1.32V1.76A1.73,1.73,0,0,0,19.29.08h-.55C17,.1,16.58,2.24,17,3.86c.18.67,1.08,2.69.83,3.72H14.07a.57.57,0,0,1,0-.14V6.92c0-1.73,1.21-2.78,1.19-4.46V2.07C15.2.64,14.11,0,12.6,0a2,2,0,0,0-1.9,1.85c0,1.63,2.75,2.29,2.74.37,0-.43-.39-.5-.68-.63l-.56.11-.13.79c-.29-.07-.54-.22-.55-.52a1.3,1.3,0,0,1,2.6,0v.26c0,1.77-2.59,4-3.22,5.37H10c-1-1.47-2.94-3.23-2.95-4.82A1.43,1.43,0,0,1,8.43,1.18h.4c.44,0,.82.56.83,1v.39c-.72-.07-.45-.52-.82-.52S8,2.22,8,2.62a1,1,0,0,0,1.1,1h.4c.54,0,1.08-.9,1.08-1.45A2.16,2.16,0,0,0,8.69.26H8.42A2.4,2.4,0,0,0,6.13,2.9v.26C6.15,5,7.4,6.41,7.92,7.58H7.76v.33C6.7,7.59,4.5,6.18,3,6.19H2.08a2.34,2.34,0,0,0-2,2v.39a1.85,1.85,0,0,0,2.06,1.94A1.3,1.3,0,0,0,3.6,9.06c0-.71-.48-.93-1-1.2l-.79.56c.1.4.08.79.55.79h.41a.61.61,0,0,1-.68.53A1.22,1.22,0,0,1,.88,8.43,1.56,1.56,0,0,1,2.36,7.11c1.71,0,4,2.37,5.4,3.12V11.3a5.61,5.61,0,0,0-1.25.62c-.94.63-3,2.33-4.29,2.34H2.09A1.19,1.19,0,0,1,.88,13.09v-.26a.91.91,0,0,1,1.59-.67c-.37.51-.67.09-.66.66v.26c0,.41.39.52.8.52s.79-.73.79-1.31V12c0-.5-.74-1-1.34-1H1.79A1.7,1.7,0,0,0,.08,12.84v.52c0,1.72,2.19,2.07,3.85,1.64.69-.18,2.8-1.07,3.83-.78v3.6a.59.59,0,0,1-.19.05H7c-1.76,0-2.83-1.16-4.53-1.14h-.4C.65,16.75,0,17.8,0,19.24ZM5.45,1.47V1.34C5.45.82,4.93.16,4.51.17H4.38a1.18,1.18,0,1,0-.11,2.35A1.07,1.07,0,0,0,5.45,1.47Zm0,3c0-1.59-2.41-1.66-2.4-.11v.13a1,1,0,0,0,1.07,1h.26A1.08,1.08,0,0,0,5.48,4.47Z"/></g></g></svg>