<svg xmlns="http://www.w3.org/2000/svg" viewBox="0 0 10.28 11"><defs><style>.cls-1{fill:#613c25;}</style></defs><title>16_l</title><g id="Layer_2" data-name="Layer 2"><g id="Layer_1-2" data-name="Layer 1"><path class="cls-1" d="M7.58,10.36C6.18,9.74,4,7.2,2.21,7.22H2A1.27,1.27,0,0,0,2,9.75c.3,0,.45-.26.52-.54L1.7,9.09l-.11-.54c.13-.29.2-.66.63-.67,1.92,0,1.26,2.65-.37,2.66A1.93,1.93,0,0,1,0,8.7C0,7.23.64,6.17,2.07,6.15h.39c1.68,0,2.73,1.18,4.46,1.16h.52a.34.34,0,0,0,.14,0V3.58c-1-.25-3,.63-3.72.81C2.24,4.82.1,4.46.08,2.71V2.18A1.7,1.7,0,0,1,1.76.31H2c.59,0,1.32.53,1.32,1.05v.26c0,.6-.23,1.34-.77,1.34s-.79-.12-.79-.53V2.17c0-.59.28-.16.65-.67a.89.89,0,0,0-1.57.68v.26A1.21,1.21,0,0,0,2.05,3.63h.13c1.22,0,3.3-1.74,4.22-2.38A5.68,5.68,0,0,1,7.58.64V0h2.7V11H7.58Z"/></g></g></svg>