<svg xmlns="http://www.w3.org/2000/svg" viewBox="0 0 21.63 21.15"><defs><style>.cls-1{fill:#623c25;fill-rule:evenodd;}</style></defs><title>16_r_u</title><g id="Layer_2" data-name="Layer 2"><g id="Layer_1-2" data-name="Layer 1"><path class="cls-1" d="M19.23,1.49V1.36c0-.8.44-.91.94-1.17.59.14,1.46.4,1.46,1.06s-.39,1.3-.95,1.3h-.39A1,1,0,0,1,19.23,1.49Zm1.16,4.06c.85,0,.95-.51,1.21-1-.27-.58-.29-1.23-1.21-1.25A1.18,1.18,0,0,0,19.21,4.5,1.1,1.1,0,0,0,20.39,5.55Zm-.87,11.19h-.4c-1.71,0-2.77,1.15-4.53,1.14h-.53a.73.73,0,0,1-.2-.05v-3.6c1-.29,3.15.6,3.84.78,1.65.43,3.83.08,3.84-1.64v-.52A1.7,1.7,0,0,0,19.83,11h-.26c-.6,0-1.34.53-1.34,1v.27c0,.58.24,1.31.78,1.31s.8-.11.81-.52v-.26c0-.57-.29-.15-.66-.66a.91.91,0,0,1,1.59.67v.26a1.2,1.2,0,0,1-1.21,1.17h-.13c-1.24,0-3.35-1.71-4.29-2.34a5.69,5.69,0,0,0-1.26-.62V10.23c1.46-.75,3.7-3.13,5.41-3.12a1.56,1.56,0,0,1,1.48,1.32,1.22,1.22,0,0,1-1.23,1.3.61.61,0,0,1-.68-.53h.41c.46,0,.45-.39.55-.79L19,7.86c-.5.27-1,.49-1,1.2a1.3,1.3,0,0,0,1.48,1.45,1.84,1.84,0,0,0,2-1.94V8.18a2.34,2.34,0,0,0-2-2h-1c-1.47,0-3.66,1.4-4.73,1.72V7.58H13.7c.52-1.17,1.78-2.59,1.79-4.42V2.9A2.4,2.4,0,0,0,13.21.27h-.27a2.15,2.15,0,0,0-1.92,2c0,.55.54,1.44,1.07,1.45h.41a1,1,0,0,0,1.1-1c0-.4-.4-.52-.81-.53s-.11.45-.82.52V2.22c0-.48.38-1.05.82-1h.41a1.44,1.44,0,0,1,1.35,1.58c0,1.59-2,3.35-3,4.82h-.87C10.1,6.18,7.49,4,7.51,2.21V2A1.3,1.3,0,0,1,10.1,2c0,.3-.26.45-.55.52L9.43,1.7l-.56-.11c-.29.13-.68.2-.68.63,0,1.92,2.72,1.26,2.73-.37A2,2,0,0,0,9,0C7.52,0,6.43.64,6.42,2.07v.39c0,1.68,1.21,2.73,1.19,4.46v.52a.34.34,0,0,1,0,.14H3.77c-.26-1,.65-3,.83-3.72C5,2.24,4.68.1,2.88.08H2.34A1.73,1.73,0,0,0,.41,1.76V2c0,.59.55,1.32,1.08,1.32h.27c.62,0,1.37-.23,1.37-.77S3,1.78,2.59,1.78H2.32c-.6,0-.16.28-.69.65-.7-.51-.27-1.58.7-1.57H2.6A1.21,1.21,0,0,1,3.82,2.05v.13C3.81,3.4,2,5.48,1.38,6.4A5.71,5.71,0,0,0,.75,7.58H0v2.7H11.17V21.15h2.69v-.26c1.43-.56,3.7-3.12,5.52-3.1h.26a1.24,1.24,0,1,1,0,2.48c-.3,0-.45-.25-.52-.52l.8-.12.11-.54c-.13-.27-.2-.65-.64-.65-1.95,0-1.28,2.6.38,2.62a1.94,1.94,0,0,0,1.88-1.82C21.64,17.8,21,16.75,19.52,16.74ZM17.36,2.52A1.18,1.18,0,1,0,17.25.17h-.13c-.43,0-.94.65-.95,1.17v.13A1.08,1.08,0,0,0,17.36,2.52Zm-.16,3h.27a1,1,0,0,0,1.07-1V4.36c0-1.55-2.38-1.48-2.39.11A1.06,1.06,0,0,0,17.2,5.53Z"/></g></g></svg>