<svg id="insta" xmlns="http://www.w3.org/2000/svg" width="25" height="25" viewBox="0 0 25 25">
<defs>
    <style>
      .cls-1 {
        fill: #fff;
        opacity: 0.8;
      }

      .cls-2 {
        fill: #0c0b12;
        fill-rule: evenodd;
      }
    </style>
  </defs>
  <circle class="cls-1" cx="12.5" cy="12.5" r="12.5"/>
  <path id="_" data-name="" class="cls-2" d="M14.94,12.983A2.145,2.145,0,1,1,12.8,10.839,2.149,2.149,0,0,1,14.94,12.983Zm1.156,0a3.3,3.3,0,1,0-3.3,3.3A3.3,3.3,0,0,0,16.1,12.983ZM17,9.548a0.771,0.771,0,1,0-.771.771A0.769,0.769,0,0,0,17,9.548ZM12.8,7.706a14.221,14.221,0,0,1,3.795.26,2.193,2.193,0,0,1,1.223,1.223,14.22,14.22,0,0,1,.26,3.795,14.22,14.22,0,0,1-.26,3.795A2.192,2.192,0,0,1,16.59,18a14.22,14.22,0,0,1-3.795.26A14.22,14.22,0,0,1,9,18a2.193,2.193,0,0,1-1.223-1.223,14.221,14.221,0,0,1-.26-3.795,14.221,14.221,0,0,1,.26-3.795A2.193,2.193,0,0,1,9,7.965,14.221,14.221,0,0,1,12.8,7.706Zm6.433,5.278c0-.888.008-1.768-0.042-2.656a3.826,3.826,0,0,0-1.039-2.7,3.825,3.825,0,0,0-2.7-1.039c-0.888-.05-1.768-0.042-2.655-0.042s-1.768-.008-2.656.042a3.826,3.826,0,0,0-2.7,1.039,3.826,3.826,0,0,0-1.039,2.7c-0.05.888-.042,1.768-0.042,2.656s-0.008,1.768.042,2.656a3.825,3.825,0,0,0,1.039,2.7,3.826,3.826,0,0,0,2.7,1.039c0.888,0.05,1.768.042,2.656,0.042s1.768,0.008,2.656-.042a3.825,3.825,0,0,0,2.7-1.039,3.826,3.826,0,0,0,1.039-2.7C19.237,14.751,19.229,13.871,19.229,12.983Z"/>
</svg>
