<?xml version="1.0" encoding="utf-8"?>
<!-- Generator: Adobe Illustrator 22.0.0, SVG Export Plug-In . SVG Version: 6.00 Build 0)  -->
<svg version="1.1" id="insta" xmlns="http://www.w3.org/2000/svg" xmlns:xlink="http://www.w3.org/1999/xlink" x="0px" y="0px"
	 viewBox="0 0 25 25" style="enable-background:new 0 0 25 25;" xml:space="preserve">
<style type="text/css">
	.st0{fill:#0C0B12;}
</style>
<path id="_" class="st0" d="M14.9,13c0,1.2-1,2.1-2.1,2.1c-1.2,0-2.1-1-2.1-2.1c0-1.2,1-2.1,2.1-2.1c0,0,0,0,0,0
	C14,10.8,14.9,11.8,14.9,13z M16.1,13c0-1.8-1.5-3.3-3.3-3.3c-1.8,0-3.3,1.5-3.3,3.3c0,1.8,1.5,3.3,3.3,3.3l0,0
	C14.6,16.3,16.1,14.8,16.1,13C16.1,13,16.1,13,16.1,13L16.1,13z M17,9.5c0-0.4-0.3-0.8-0.8-0.8s-0.8,0.3-0.8,0.8s0.3,0.8,0.8,0.8
	l0,0C16.7,10.3,17,10,17,9.5C17,9.6,17,9.5,17,9.5z M12.8,7.7c1.3-0.1,2.5,0,3.8,0.3c0.6,0.2,1,0.7,1.2,1.2c0.3,1.2,0.3,2.5,0.3,3.8
	c0.1,1.3,0,2.5-0.3,3.8c-0.2,0.6-0.7,1-1.2,1.2c-1.2,0.3-2.5,0.3-3.8,0.3c-1.3,0.1-2.5,0-3.8-0.3c-0.6-0.2-1-0.7-1.2-1.2
	c-0.3-1.2-0.3-2.5-0.3-3.8c-0.1-1.3,0-2.5,0.3-3.8C8,8.6,8.4,8.2,9,8C10.2,7.7,11.5,7.6,12.8,7.7z M19.2,13c0-0.9,0-1.8,0-2.7
	c0-1-0.4-2-1-2.7c-0.7-0.7-1.7-1.1-2.7-1c-0.9-0.1-1.8,0-2.7,0s-1.8,0-2.7,0c-1,0-2,0.4-2.7,1c-0.7,0.7-1.1,1.7-1,2.7
	c-0.1,0.9,0,1.8,0,2.7s0,1.8,0,2.7c0,1,0.4,2,1,2.7c0.7,0.7,1.7,1.1,2.7,1c0.9,0,1.8,0,2.7,0s1.8,0,2.7,0c1,0,2-0.4,2.7-1
	c0.7-0.7,1.1-1.7,1-2.7C19.2,14.8,19.2,13.9,19.2,13L19.2,13z"/>
</svg>
