<?xml version="1.0" encoding="UTF-8"?>
<svg width="166px" height="74px" viewBox="0 0 166 74" version="1.1" xmlns="http://www.w3.org/2000/svg" xmlns:xlink="http://www.w3.org/1999/xlink"> 
                <g>
                    <path d="M18.4921875,40.7617188 L18.4921875,43.6445312 C17.7656214,44.2070341 16.722663,45.0156197 15.3632813,46.0703125 C8.80074844,51.1562754 4.88672508,53.6992188 3.62109375,53.6992188 C2.96484047,53.6992188 2.47265789,53.5351579 2.14453125,53.2070312 C1.81640461,52.8789046 1.65234375,52.3750034 1.65234375,51.6953125 C1.65234375,51.2499978 1.7402335,50.6933627 1.91601563,50.0253906 C2.09179775,49.3574185 2.43749742,48.3320382 2.953125,46.9492188 L5.4140625,40.234375 C4.52343305,41.031254 3.63281695,41.7753872 2.7421875,42.4667969 C1.85155805,43.1582066 0.937504687,43.8085907 0,44.4179688 L0,41.5351562 C1.92188461,40.1054616 3.60350842,38.6757884 5.04492188,37.2460938 C6.48633533,35.8163991 7.30078031,34.8437526 7.48828125,34.328125 L18.140625,5.18359375 C18.750003,3.4726477 19.2539043,2.34765895 19.6523438,1.80859375 C20.0507832,1.26952855 20.5078099,1 21.0234375,1 C21.3984394,1 21.7207018,1.16406086 21.9902344,1.4921875 C22.259767,1.82031414 22.3945312,2.20702902 22.3945312,2.65234375 C22.3945312,3.30859703 22.1250027,4.56835006 21.5859375,6.43164062 C21.0468723,8.29493119 20.3085984,10.4687376 19.3710938,12.953125 C18.3867138,15.5312629 17.2851623,18.1796739 16.0664062,20.8984375 C14.8476502,23.6172011 14.1914067,25.1054675 14.0976562,25.3632812 L6.046875,47.8984375 C5.92968691,48.2031265 5.84179717,48.4667958 5.78320313,48.6894531 C5.72460908,48.9121105 5.6953125,49.0468748 5.6953125,49.09375 C5.6953125,49.2343757 5.74218703,49.36914 5.8359375,49.4980469 C5.92968797,49.6269538 6.02343703,49.6914062 6.1171875,49.6914062 C6.49218938,49.6914062 7.75780172,48.9121172 9.9140625,47.3535156 C12.0703233,45.7949141 14.9296697,43.5976704 18.4921875,40.7617188 Z M36.0703125,47.8984375 C35.976562,48.1328137 35.8945316,48.3554677 35.8242188,48.5664062 C35.7539059,48.7773448 35.71875,48.929687 35.71875,49.0234375 C35.71875,49.1875008 35.7656245,49.339843 35.859375,49.4804688 C35.9531255,49.6210945 36.0585932,49.6914062 36.1757812,49.6914062 C36.5507831,49.6914062 37.8456921,48.9003985 40.0605469,47.3183594 C42.2754017,45.7363202 45.1288888,43.5507952 48.6210938,40.7617188 L48.6210938,43.6445312 L47.7421875,44.3125 C39.4921463,50.7109695 34.5468832,53.9101562 32.90625,53.9101562 C32.5546857,53.9101562 32.2382827,53.7519547 31.9570312,53.4355469 C31.6757798,53.119139 31.5351562,52.7265648 31.5351562,52.2578125 C31.5351562,52.0234363 31.6171867,51.6484401 31.78125,51.1328125 C31.9453133,50.6171849 32.179686,50.007816 32.484375,49.3046875 L34.8046875,44.0664062 C32.4609258,47.5586112 30.4160244,50.0371021 28.6699219,51.5019531 C26.9238194,52.9668042 25.1953211,53.6992188 23.484375,53.6992188 C21.7031161,53.6992188 20.2500056,52.9492263 19.125,51.4492188 C17.9999944,49.9492112 17.4375,47.9921996 17.4375,45.578125 C17.4375,43.7968661 17.7773404,42.1035237 18.4570312,40.4980469 C19.1367221,38.8925701 20.1679618,37.316414 21.5507812,35.7695312 C23.894543,33.214831 26.6718589,31.1757889 29.8828125,29.6523438 C33.0937661,28.1288986 36.1992037,27.3671875 39.1992188,27.3671875 C40.4414125,27.3671875 41.5429639,27.4902331 42.5039062,27.7363281 C43.4648486,27.9824231 44.4023392,28.3867159 45.3164062,28.9492188 L45.1757812,31.6914062 C44.1914013,31.035153 43.2128955,30.554689 42.2402344,30.25 C41.2675733,29.945311 40.2304743,29.7929688 39.1289062,29.7929688 C36.5038931,29.7929688 33.7500144,30.4726495 30.8671875,31.8320312 C27.9843606,33.191413 25.640634,34.9140521 23.8359375,37 C22.6874943,38.3359442 21.8027375,39.7363208 21.1816406,41.2011719 C20.5605438,42.6660229 20.25,44.1015555 20.25,45.5078125 C20.25,47.1484457 20.5956997,48.4433546 21.2871094,49.3925781 C21.9785191,50.3418016 22.8984318,50.8164062 24.046875,50.8164062 C25.4765696,50.8164062 27.2870984,49.6328243 29.4785156,47.265625 C31.6699328,44.8984257 35.191382,40.164098 40.0429688,33.0625 L42.8554688,33.34375 L36.0703125,47.8984375 Z" id="la" fill="#FFFFFF"></path>
                    <path d="M83.0957031,43.3071804 L83.0957031,43.4375 L81.4433594,44.703125 C73.7089457,50.703155 69.0332112,53.703125 67.4160156,53.703125 C66.9941385,53.703125 66.6484388,53.5097676 66.3789062,53.1230469 C66.1093737,52.7363262 65.9746094,52.2382843 65.9746094,51.6289062 C65.9746094,51.3007796 66.0390619,50.919924 66.1679688,50.4863281 C66.2968756,50.0527322 66.4902331,49.5898462 66.7480469,49.0976562 L71.1425781,40.484375 C70.2519487,41.3046916 69.4082071,42.0253875 68.6113281,42.6464844 C67.9435361,43.1669693 67.3004411,43.6174967 66.6820296,43.9980759 C65.6094687,44.9710231 64.5299184,45.8740027 63.4433594,46.7070312 C62.0371023,47.7851616 60.6074291,48.7812454 59.1542969,49.6953125 C58.779295,56.3281582 57.27931,62.0409917 54.6542969,66.8339844 C52.0292837,71.6269771 49.3691541,74.0234375 46.6738281,74.0234375 C45.642573,74.0234375 44.8457059,73.6543006 44.2832031,72.9160156 C43.7207003,72.1777307 43.4394531,71.1054758 43.4394531,69.6992188 C43.4394531,68.9257774 43.5624988,67.9765681 43.8085938,66.8515625 C44.0546887,65.7265569 44.3886698,64.542975 44.8105469,63.3007812 L53.3886719,39.3242188 C52.708981,40.0039096 51.9531292,40.7246056 51.1210938,41.4863281 C50.2890583,42.2480507 49.2168034,43.1562447 47.9042969,44.2109375 L47.9042969,41.328125 C50.03712,39.429678 51.6835879,37.8535219 52.84375,36.5996094 C54.0039121,35.3456969 54.8769502,34.2148488 55.4628906,33.2070312 L62.8808594,12.7460938 C63.2792989,11.6210881 63.8066373,10.1211031 64.4628906,8.24609375 C66.1503991,3.27731891 67.4746046,0.79296875 68.4355469,0.79296875 C68.8339864,0.79296875 69.1855454,0.968748242 69.4902344,1.3203125 C69.7949234,1.67187676 69.9472656,2.07031027 69.9472656,2.515625 C69.9472656,3.0546902 68.6523567,6.58199867 66.0625,13.0976562 C63.4726433,19.6133138 61.1464947,25.8124706 59.0839844,31.6953125 L47.9042969,63.3710938 L47.7636719,63.7929688 C46.8027296,66.4882947 46.3222656,68.2929642 46.3222656,69.2070312 C46.3222656,69.6757836 46.4277333,70.0683578 46.6386719,70.3847656 C46.8496104,70.7011735 47.1074204,70.859375 47.4121094,70.859375 C49.0058673,70.859375 50.9042859,68.4922112 53.1074219,63.7578125 C55.3105579,59.0234138 56.5058584,53.8554968 56.6933594,48.2539062 C58.6386816,47.1289006 60.5136629,45.9101628 62.3183594,44.5976562 C63.6741461,43.6116296 65.0100761,42.5528622 66.3261719,41.4213357 L66.3261719,41.328125 C66.5789299,41.1425558 66.8275382,40.9566595 67.0719969,40.7704359 C67.2573803,40.6062301 67.4423657,40.440564 67.6269531,40.2734375 L67.6269531,40.3415303 C68.9504767,39.3035638 70.145782,38.2554816 71.2128906,37.1972656 C72.6191477,35.8027274 73.4863265,34.777347 73.8144531,34.1210938 L76.9785156,27.6523438 L80.0722656,27.6523438 L70.6503906,47.65625 C70.5332025,47.8906262 70.4394535,48.1015616 70.3691406,48.2890625 C70.2988278,48.4765634 70.2519532,48.6523429 70.2285156,48.8164062 C70.2519532,49.0507824 70.3046871,49.2265619 70.3867188,49.34375 C70.4687504,49.4609381 70.5566402,49.5078126 70.6503906,49.484375 C71.0488301,49.484375 72.3495984,48.6933673 74.5527344,47.1113281 C76.5221082,45.6971501 79.0064629,43.800757 82.0058594,41.422102 L82.0058594,41.328125 C84.1386825,39.4531156 86.7636563,36.9453282 89.8808594,33.8046875 C94.2871314,29.3749779 97.4511623,27.1601562 99.3730469,27.1601562 C100.849617,27.1601562 102.091792,27.6406202 103.099609,28.6015625 C104.107427,29.5625048 104.611328,30.7578054 104.611328,32.1875 C104.611328,34.0390718 103.867195,35.914053 102.378906,37.8125 C100.890618,39.710947 98.8105602,41.433586 96.1386719,42.9804688 C96.7480499,43.5195339 97.2109359,44.1289029 97.5273438,44.8085938 C97.8437516,45.4882846 98.0019531,46.2499958 98.0019531,47.09375 C98.0019531,47.7968785 97.94336,48.4765592 97.8261719,49.1328125 C97.7089838,49.7890658 97.5214857,50.4570279 97.2636719,51.1367188 C98.9277427,49.4023351 100.66796,47.6679774 102.484375,45.9335938 C104.30079,44.1992101 106.216787,42.4531338 108.232422,40.6953125 L108.232422,43.6484375 C105.771472,45.8515735 102.173852,49.3554447 97.4394531,54.1601562 L95.9628906,55.671875 C93.9472555,61.2500279 91.6269663,65.7031084 89.0019531,69.03125 C86.37694,72.3593916 83.951183,74.0234375 81.7246094,74.0234375 C80.8808552,74.0234375 80.2128931,73.7656276 79.7207031,73.25 C79.2285132,72.7343724 78.9824219,72.0312545 78.9824219,71.140625 C78.9824219,69.4531166 80.2831901,67.1035307 82.8847656,64.0917969 C85.4863411,61.0800631 89.1308359,57.7226748 93.8183594,54.0195312 C94.2871117,52.9414009 94.64453,51.851568 94.890625,50.75 C95.13672,49.648432 95.2597656,48.5468805 95.2597656,47.4453125 C95.2597656,46.7890592 95.1542979,46.2148462 94.9433594,45.7226562 C94.7324208,45.2304663 94.4042991,44.7734396 93.9589844,44.3515625 C93.1386678,44.8906277 92.365238,45.3007798 91.6386719,45.5820312 C90.9121057,45.8632827 90.2675809,46.0039062 89.7050781,46.0039062 C89.1894505,46.0039062 88.7500018,45.8574233 88.3867188,45.5644531 C88.0234357,45.2714829 87.8417969,44.9140646 87.8417969,44.4921875 C87.8417969,43.7656214 88.2871049,43.0683627 89.1777344,42.4003906 C90.0683638,41.7324185 91.0878849,41.3984375 92.2363281,41.3984375 C92.4472667,41.3984375 92.6874987,41.4277341 92.9570312,41.4863281 C93.2265638,41.5449222 93.6660126,41.6562492 94.2753906,41.8203125 C96.6894652,40.2265545 98.5117126,38.6445391 99.7421875,37.0742188 C100.972662,35.5038984 101.587891,33.9687575 101.587891,32.46875 C101.587891,31.7421839 101.318362,31.132815 100.779297,30.640625 C100.240232,30.148435 99.5722696,29.9023438 98.7753906,29.9023438 C97.5097593,29.9023438 95.0840023,31.7304505 91.4980469,35.3867188 C88.3778458,38.5681002 85.5770854,41.2082347 83.0957031,43.3071804 Z M80.6699219,22.6953125 C80.1542943,22.6953125 79.7500015,22.5429703 79.4570312,22.2382812 C79.164061,21.9335922 79.0175781,21.5351587 79.0175781,21.0429688 C79.0175781,20.0585888 79.3281219,19.1269575 79.9492188,18.2480469 C80.5703156,17.3691362 81.2675743,16.9296875 82.0410156,16.9296875 C82.5332056,16.9296875 82.9316391,17.087889 83.2363281,17.4042969 C83.5410171,17.7207047 83.6933594,18.1367162 83.6933594,18.6523438 C83.6933594,19.7539118 83.4062529,20.703121 82.8320312,21.5 C82.2578096,22.296879 81.5371137,22.6953125 80.6699219,22.6953125 Z M92.9394531,57.3945312 C89.7988124,60.0195444 87.1328235,62.6269402 84.9414062,65.2167969 C82.749989,67.8066536 81.6542969,69.499996 81.6542969,70.296875 C81.6542969,70.601564 81.7421866,70.841796 81.9179688,71.0175781 C82.0937509,71.1933603 82.3457015,71.28125 82.6738281,71.28125 C83.845709,71.28125 85.4687396,69.9511852 87.5429688,67.2910156 C89.6171979,64.6308461 91.416008,61.3320509 92.9394531,57.3945312 Z M133.580078,40.6953125 L133.580078,43.6484375 C131.119128,45.8515735 127.521508,49.3554447 122.787109,54.1601562 L121.310547,55.671875 C119.294912,61.2500279 116.974623,65.7031084 114.349609,69.03125 C111.724596,72.3593916 109.298839,74.0234375 107.072266,74.0234375 C106.228511,74.0234375 105.560549,73.7656276 105.068359,73.25 C104.576169,72.7343724 104.330078,72.0312545 104.330078,71.140625 C104.330078,69.4531166 105.630846,67.1035307 108.232422,64.0917969 C110.833997,61.0800631 114.478492,57.7226748 119.166016,54.0195312 C119.634768,52.9414009 119.992186,51.851568 120.238281,50.75 C120.484376,49.648432 120.607422,48.5468805 120.607422,47.4453125 C120.607422,46.7890592 120.501954,46.2148462 120.291016,45.7226562 C120.080077,45.2304663 119.751955,44.7734396 119.306641,44.3515625 C118.486324,44.8906277 117.712894,45.3007798 116.986328,45.5820312 C116.259762,45.8632827 115.615237,46.0039062 115.052734,46.0039062 C114.537107,46.0039062 114.097658,45.8574233 113.734375,45.5644531 C113.371092,45.2714829 113.189453,44.9140646 113.189453,44.4921875 C113.189453,43.7656214 113.634761,43.0683627 114.525391,42.4003906 C115.41602,41.7324185 116.435541,41.3984375 117.583984,41.3984375 C117.794923,41.3984375 118.035155,41.4277341 118.304688,41.4863281 C118.57422,41.5449222 119.013669,41.6562492 119.623047,41.8203125 C122.037121,40.2265545 123.859369,38.6445391 125.089844,37.0742188 C126.320319,35.5038984 126.935547,33.9687575 126.935547,32.46875 C126.935547,31.7421839 126.666018,31.132815 126.126953,30.640625 C125.587888,30.148435 124.919926,29.9023438 124.123047,29.9023438 C122.857416,29.9023438 120.431659,31.7304505 116.845703,35.3867188 C113.259748,39.042987 110.095717,41.9843639 107.353516,44.2109375 L107.353516,41.328125 C109.486339,39.4531156 112.111313,36.9453282 115.228516,33.8046875 C119.634788,29.3749779 122.798819,27.1601562 124.720703,27.1601562 C126.197273,27.1601562 127.439448,27.6406202 128.447266,28.6015625 C129.455083,29.5625048 129.958984,30.7578054 129.958984,32.1875 C129.958984,34.0390718 129.214851,35.914053 127.726562,37.8125 C126.238274,39.710947 124.158216,41.433586 121.486328,42.9804688 C122.095706,43.5195339 122.558592,44.1289029 122.875,44.8085938 C123.191408,45.4882846 123.349609,46.2499958 123.349609,47.09375 C123.349609,47.7968785 123.291016,48.4765592 123.173828,49.1328125 C123.05664,49.7890658 122.869142,50.4570279 122.611328,51.1367188 C124.275399,49.4023351 126.015616,47.6679774 127.832031,45.9335938 C129.648447,44.1992101 131.564443,42.4531338 133.580078,40.6953125 Z M118.287109,57.3945312 C115.146469,60.0195444 112.48048,62.6269402 110.289062,65.2167969 C108.097645,67.8066536 107.001953,69.499996 107.001953,70.296875 C107.001953,70.601564 107.089843,70.841796 107.265625,71.0175781 C107.441407,71.1933603 107.693358,71.28125 108.021484,71.28125 C109.193365,71.28125 110.816396,69.9511852 112.890625,67.2910156 C114.964854,64.6308461 116.763664,61.3320509 118.287109,57.3945312 Z M137.517578,40.484375 C136.626949,41.3046916 135.783207,42.0253875 134.986328,42.6464844 C134.189449,43.2675812 133.427738,43.7890604 132.701172,44.2109375 L132.701172,41.328125 C134.623056,39.8984304 136.292962,38.4863351 137.710938,37.0917969 C139.128913,35.6972587 139.955077,34.7070342 140.189453,34.1210938 L143.142578,27.6523438 L146.236328,27.6523438 L138.607422,45.7929688 C138.537109,45.9570321 138.431641,46.1796861 138.291016,46.4609375 C137.869139,47.2578165 137.658203,47.8554668 137.658203,48.2539062 C137.658203,48.3710943 137.68164,48.4589841 137.728516,48.5175781 C137.775391,48.5761722 137.857421,48.6054688 137.974609,48.6054688 C138.935552,48.6054688 141.554666,46.5488487 145.832031,42.4355469 C150.109396,38.3222451 154.521462,33.39456 159.068359,27.6523438 L162.021484,27.6523438 L150.771484,52.578125 L151.580078,51.875 C158.095736,46.36716 162.794907,42.5937602 165.677734,40.5546875 L165.677734,43.4375 C161.107399,46.929705 157.298843,49.9765495 154.251953,52.578125 C151.205063,55.1797005 148.990241,57.2656171 147.607422,58.8359375 C145.896476,63.9687757 144.349616,67.7831906 142.966797,70.2792969 C141.583977,72.7754031 140.341802,74.0234375 139.240234,74.0234375 C138.818357,74.0234375 138.478517,73.8417987 138.220703,73.4785156 C137.962889,73.1152326 137.833984,72.6289093 137.833984,72.0195312 C137.833984,70.0976466 138.583977,67.6836083 140.083984,64.7773438 C141.583992,61.8710792 143.564441,59.1406378 146.025391,56.5859375 L155.376953,35.6328125 C149.775363,41.7734682 145.292986,46.2851418 141.929688,49.1679688 C138.566389,52.0507957 136.111336,53.4921875 134.564453,53.4921875 C134.00195,53.4921875 133.597657,53.3925791 133.351562,53.1933594 C133.105468,52.9941396 132.982422,52.6367213 132.982422,52.1210938 C132.982422,51.8398423 133.076171,51.3945343 133.263672,50.7851562 C133.451173,50.1757782 133.720701,49.449223 134.072266,48.6054688 L137.517578,40.484375 Z" id="fizzy" fill="#FFCC00"></path>
                    <path d="M130.335938,43.7539062 C130.335938,43.7539062 130.906011,42.8229132 131.740234,42.105957 C132.574458,41.3890008 134.402832,40.1435547 134.402832,40.1435547 L134.942383,42.4304199 L131.616699,45.3461914 L130.335938,43.7539062 Z" id="Rectangle-8" fill="#FFCC00"></path>
                    <path d="M106,42.713623 C106,42.713623 106.59522,42.0243292 107.429443,41.307373 C108.263667,40.5904169 109.157471,40 109.157471,40 L110.42627,41.5126953 L105.749023,46.1069336 L106,42.713623 Z" id="Rectangle-8-Copy" fill="#FFCC00"></path>
                    <polygon id="Path-2" fill="#FFFFFF" points="18.8752441 40.2138672 16.5466309 42.9086914 16 45.2626953 18.9272461 44.0791016"></polygon>
                </g> 
</svg>