<?xml version="1.0" encoding="UTF-8"?>
<svg width="192px" height="192px" viewBox="0 0 192 192" version="1.1" xmlns="http://www.w3.org/2000/svg" xmlns:xlink="http://www.w3.org/1999/xlink">
    <!-- Generator: Sketch 41 (35326) - http://www.bohemiancoding.com/sketch -->
    <title>logo 2</title>
    <desc>Created with Sketch.</desc>
    <defs>
        <rect id="path-1" x="0" y="0" width="60.7395031" height="76.8996318"></rect>
        <rect id="path-3" x="0" y="0" width="60.7395031" height="76.8996318"></rect>
        <rect id="path-5" x="0" y="0" width="60.7395031" height="76.8996318"></rect>
        <rect id="path-7" x="0" y="0" width="60.7395031" height="76.8996318"></rect>
        <rect id="path-9" x="-4.4408921e-16" y="0" width="60.7395031" height="76.8996318"></rect>
        <rect id="path-11" x="-4.4408921e-16" y="0" width="60.7395031" height="76.8996318"></rect>
        <rect id="path-13" x="-4.4408921e-16" y="0" width="60.7395031" height="76.8996318"></rect>
        <rect id="path-15" x="-4.4408921e-16" y="0" width="60.7395031" height="76.8996318"></rect>
    </defs>
    <g id="Page-1" stroke="none" stroke-width="1" fill="none" fill-rule="evenodd">
        <g id="Desktop-HD" transform="translate(-188.000000, -261.000000)">
            <g id="logo-2" transform="translate(185.000000, 261.000000)">
                <g>
                    <rect id="Rectangle-8" fill="#000000" x="3" y="0" width="192" height="192"></rect>
                    <path d="M94.6953571,3 C95.8996221,5.72918648 96.5366768,8.67387586 96.5679762,11.6559 C93.9786906,11.4382852 91.3808015,11.9602429 89.0775,13.1608571 C88.8588852,10.5215491 87.8102187,8.01871955 86.0813095,6.00991429 L94.6953571,3 Z M100.313214,11.6559 L101.436786,3.37384286 L102.934881,3.37384286 L110.425357,6.00991429 C108.796229,8.07870204 107.760634,10.5503348 107.429167,13.1608571 C105.258915,11.9663427 102.782573,11.4409516 100.313214,11.6511071 L100.313214,11.6559 Z M84.5832143,6.76239286 C84.5832143,6.76239286 85.6635714,15.7681714 86.0813095,16.9280429 C78.024246,16.2570429 77.3472222,22.4350357 71.4700794,25.2101 L71.4700794,23.6955571 C74.04296,16.8660423 78.6113122,10.9651991 84.5832143,6.7576 L84.5832143,6.76239286 Z M111.548929,6.76239286 C122.92869,12.36045 128.133611,25.6606286 123.908214,41.3955786 L123.159167,41.7694214 L120.162976,41.0169429 C122.405317,25.6798 124.786905,21.7927929 110.425357,16.5733714 C112.15051,13.599589 112.557599,10.0431752 111.548929,6.7576 L111.548929,6.76239286 Z M86.1005159,9.01982857 C87.559547,10.6655797 87.9914964,12.9798616 87.2240873,15.0396571 L86.1005159,14.2871786 L86.1005159,9.01503571 L86.1005159,9.01982857 Z M110.07004,9.01982857 L111.193611,11.2772643 L110.07004,14.2871786 L109.695516,15.0396571 L109.320992,15.0396571 C108.888006,13.0062378 109.144758,10.8868263 110.050833,9.01503571 L110.07004,9.01982857 Z M93.2164683,12.7870143 L94.3400397,12.7870143 L92.4674206,15.4230857 L88.7221825,16.1755643 L89.0967063,15.04445 L93.2164683,12.7870143 Z M96.2126587,12.7870143 C103.299802,26.5664786 86.5230556,40.6526857 80.4826587,45.1579714 L79.7336111,44.7793357 L78.6100397,41.3907857 C87.5313889,38.7403357 95.7180952,25.9913357 87.9731349,17.6757286 C91.4274897,17.7562711 94.6226311,15.854222 96.1934524,12.7822214 L96.2126587,12.7870143 Z M99.9578968,13.16565 C100.875,13.7168286 108.197421,18.4377929 108.197421,18.4377929 C104.356151,20.47955 105.796627,25.3634714 104.077659,28.6034429 L102.579563,29.7345571 C99.5785714,26.5473071 99.8186508,19.3580214 99.9386905,13.1560643 L99.9578968,13.16565 Z M102.579563,13.16565 C104.689956,12.9637307 106.729101,13.9889052 107.822897,15.8017214 L107.822897,16.1803571 C105.61352,16.3388934 103.529111,15.1421103 102.555556,13.1560643 L102.579563,13.16565 Z M59.5045238,22.5788214 L61.002619,22.5788214 L61.3579365,24.0885714 L60.9834127,31.2395143 C58.7383401,30.9540234 56.4598351,31.0823624 54.2611905,31.61815 C54.2717869,29.3975313 53.7585827,27.2056022 52.7630952,25.2196857 L59.5045238,22.5788214 Z M135.54246,22.5788214 C138.512042,22.8157 141.360715,23.8563257 143.781984,25.5887357 C142.746924,27.4251291 142.229246,29.5069802 142.283889,31.6133571 C140.092204,31.0324998 137.804904,30.9036654 135.561667,31.2347214 L135.561667,22.5692357 L135.54246,22.5788214 Z M77.8609921,24.4624143 C82.0762436,24.1430153 86.2477576,25.4948286 89.4712302,28.2248071 L87.5986111,31.2347214 C77.1935714,24.8027071 66.8461508,31.7140071 65.8714286,42.9053286 L66.6204762,42.9053286 L72.6176587,44.0364429 C72.9857804,45.0429429 73.3603042,46.0462476 73.7412302,47.0463571 C69.5852628,47.4417192 65.3918756,47.058092 61.3771429,45.9152429 L61.3771429,45.5318143 C63.5714683,32.5335857 67.2446825,29.0395929 77.8417857,24.4528286 L77.8609921,24.4624143 Z M115.687897,24.4624143 L119.807659,24.8362571 C120.057341,26.0919857 120.311825,27.3477143 120.556706,28.59865 C110.37254,28.3446286 106.934603,32.6198571 101.830516,37.25455 L100.332421,36.1282286 C99.4009127,33.1710357 100.54369,33.4154714 102.579563,30.8560857 C106.699325,28.9916643 110.905516,26.7342286 115.66869,24.4528286 L115.687897,24.4624143 Z M50.5159524,26.3412143 C50.8424603,26.8588429 50.8664683,32.89305 51.265,35.0019071 C47.2604762,33.9187214 46.1080952,36.7417143 44.1490476,38.7643 L40.7879365,38.3904571 C42.0027381,32.3131143 46.5450397,29.6962143 50.496746,26.3316286 L50.5159524,26.3412143 Z M145.280079,26.3412143 C155.44504,29.6962143 159.233492,43.2887571 153.894127,53.8234571 L152.770556,53.4448214 L150.897937,51.5660214 C152.957817,45.10525 154.90246,34.6903714 145.280079,34.6280643 C146.546353,32.0054632 146.539276,28.9483601 145.260873,26.3316286 L145.280079,26.3412143 Z M52.0140476,28.2248071 C53.1804947,29.4295574 53.4787077,31.2289391 52.7630952,32.7444714 L52.0140476,33.1183143 L52.0140476,28.2152214 L52.0140476,28.2248071 Z M126.91881,28.2248071 C132.631919,32.3763012 135.642289,39.2923335 134.78381,46.2938786 C121.464206,47.9761714 110.852698,45.1675571 105.566151,35.7495929 L106.689722,34.2446357 L108.187817,33.4921571 L109.311389,34.2446357 C113.804337,41.4360023 122.420099,44.9286433 130.664048,42.9005357 C130.164683,36.7225429 127.01004,35.3517857 126.909206,28.2152214 L126.91881,28.2248071 Z M144.146905,28.2248071 L144.895952,28.6034429 L144.521429,33.1183143 L144.137302,33.1183143 L143.762778,32.7444714 C143.485651,31.2281532 143.614854,29.665663 144.137302,28.2152214 L144.146905,28.2248071 Z M74.1013492,31.2347214 C74.7255556,33.9954071 75.3513624,36.7560929 75.9787698,39.5167786 C77.9594397,44.2596019 80.6077823,48.6961444 83.8437698,52.6923429 L81.596627,54.9497786 L80.468254,54.9497786 C77.4576587,50.40615 68.1953968,39.4496786 72.2239286,32.3658357 L74.1013492,31.2347214 Z M56.1242063,32.3658357 L58.745873,32.3658357 L57.6223016,33.8707929 L54.2611905,34.2446357 L54.2611905,33.8612071 L55.0102381,33.4825714 L56.1242063,32.3658357 Z M94.7049603,32.3658357 C102.277063,36.0803 105.268452,46.7444071 110.809484,52.6923429 L108.187817,55.3236214 L93.2068651,35.3709571 L94.7049603,32.3658357 Z M138.154524,32.3658357 C139.782305,32.330936 141.371434,32.863072 142.64881,33.8707929 L142.274286,34.6232714 L141.899762,34.6232714 C140.355177,34.5160855 138.957153,33.6720152 138.144921,32.35625 L138.154524,32.3658357 Z M60.2439683,32.7396786 C64.0852381,37.2066214 52.7294841,53.0805643 50.1318254,54.9497786 C49.0635046,54.2877443 48.1655834,53.3848895 47.5101587,52.3137071 C51.0393254,47.8611429 56.8540476,43.1258 53.5025397,36.1282286 C56.6235714,34.9396 58.6210317,35.3613714 60.2343651,32.7157143 L60.2439683,32.7396786 Z M135.532857,32.7396786 C137.895238,33.8468286 140.012738,34.8054 143.023333,36.1282286 C141.217937,40.3267714 142.692024,43.8782786 140.401667,47.0463571 L139.652619,46.6725143 C137.847034,42.1576203 136.464664,37.485361 135.523254,32.7157143 L135.532857,32.7396786 Z M40.3942063,39.5167786 C44.6667104,39.9552187 48.7101287,41.659447 52.0044444,44.4102857 L52.0044444,44.7889214 L49.7573016,47.4249929 C40.9703968,41.9898929 34.9155952,41.5058143 32.5292063,52.6971357 C30.1995679,51.5083802 27.4718978,51.3705876 25.0339286,52.3185 C27.5643651,44.09875 32.6876587,42.7088214 40.3846032,39.5071929 L40.3942063,39.5167786 Z M94.7049603,39.5167786 L97.326627,42.5266929 C93.5917793,50.9277579 87.1255925,57.8246424 78.9749603,62.1007214 L76.7278175,60.9696071 L76.3532937,60.2171286 L76.7278175,58.7121714 C85.4378968,56.1192357 90.7820635,46.9265357 94.6953571,39.5071929 L94.7049603,39.5167786 Z M157.994683,39.905 C164.464197,41.2005832 169.667009,45.9944468 171.47754,52.3280857 C168.899061,51.4799269 166.09728,51.6148098 163.61254,52.7067214 C164.688095,47.0463571 160.880437,45.9967214 157.994683,43.29355 L157.994683,39.905 L157.994683,39.905 Z M150.129683,40.6574786 L151.253254,40.6574786 L151.627778,44.0412357 C148.079565,47.6406277 144.328214,51.0347091 140.392063,54.2068857 C135.364802,52.1076143 138.80754,49.3804786 142.264683,47.0559429 C144.443058,44.4263071 147.114668,42.246343 150.129683,40.6383071 L150.129683,40.6574786 Z M40.0100794,45.17235 L43.7553175,45.17235 C45.4310714,52.5198 50.9576984,55.8268714 47.5005556,60.60535 L46.0024603,59.4742357 C43.3989358,54.9848153 41.3849399,50.1796657 40.0100794,45.1771429 L40.0100794,45.17235 Z M116.792262,47.0559429 L120.5375,47.8084214 C119.269881,53.0805643 101.748889,72.6641786 99.5641667,64.7463786 C106.591524,60.2401495 112.486217,54.1807048 116.792262,47.0367714 L116.792262,47.0559429 Z M56.489127,49.6920143 C62.1528153,53.4259146 67.0999,58.1432353 71.0955556,63.6200571 L68.4642857,63.6200571 C62.7548191,61.4311577 57.8982564,57.4736878 54.6069048,52.3280857 L56.489127,49.6920143 Z M146.009921,50.07065 C154.407897,52.9463643 150.931548,56.8573357 162.863492,55.3427929 C162.917995,57.8009074 164.005308,60.1229013 165.859683,61.7412571 C157.216825,62.0336214 145.126429,57.7583929 144.511825,51.5804 L146.009921,50.07065 Z M72.5984524,50.4444929 L73.7460317,50.4444929 C73.5299603,64.4060857 82.3888889,67.8665286 90.974127,72.6545929 L90.974127,74.15955 L89.4760317,76.7956214 L87.2288889,74.5381857 C78.6244444,70.8860286 72.0030556,65.9350071 70.0007937,55.3427929 C67.349539,56.2614065 64.4049443,55.5214182 62.5055159,53.4592 L62.5055159,53.0566 L72.5984524,50.4444929 Z M123.159167,50.4444929 C130.569078,52.0358632 137.74479,54.5662313 144.511825,57.9740714 L143.369048,59.0764286 L141.870952,60.9600214 C137.244261,57.9397111 131.990124,56.0090483 126.505873,55.3140357 L125.382302,58.7025857 L122.02119,57.9501071 L122.02119,57.5762643 C122.410119,55.1942143 122.789444,52.8073714 123.159167,50.4253214 L123.159167,50.4444929 Z M28.3998413,52.7067214 L31.3960317,53.4544071 L31.0215079,54.2068857 C29.5443978,54.5146582 28.0091861,54.093644 26.8969444,53.0757714 L28.3998413,52.7067214 Z M167.357778,52.7067214 L169.984246,53.0805643 L169.604921,53.8330429 L168.855873,53.8330429 L165.494762,54.2068857 L165.494762,53.4352357 L167.357778,52.7067214 Z M24.2704762,53.8330429 L29.8931349,56.0904786 C29.2314264,57.9257783 28.7301888,59.8148307 28.3950397,61.7364643 L22.772381,60.60535 L22.772381,58.7073786 L24.2704762,53.8330429 Z M167.7275,61.3578286 C167.856634,59.4099709 167.46909,57.4625509 166.603929,55.7118429 C168.506113,55.6395748 170.339311,54.9816271 171.852063,53.82825 C173.21205,55.8156268 173.870864,58.1982211 173.724683,60.6005571 L167.7275,61.3578286 Z M34.0128968,54.9593643 C36.7638844,55.9724787 39.7073544,56.3573493 42.6269444,56.0856857 L44.1250397,59.1003929 C39.7956507,60.6743896 35.2465485,61.5637974 30.6421825,61.7364643 L32.8893254,59.4742357 L34.0128968,54.9593643 Z M31.765754,55.7118429 L32.5148016,55.7118429 C32.4383633,57.3622336 31.6107585,58.8873415 30.2676587,59.8528714 L30.2676587,57.9549 L31.765754,55.7118429 Z M164.356786,55.7118429 C165.69934,56.6778516 166.526791,58.202675 166.603929,59.8528714 L166.229405,59.8528714 L165.105833,59.1003929 L164.356786,55.7118429 Z M54.9862302,56.0856857 C56.418972,56.4718509 57.6324796,57.4235875 58.3473413,58.7217571 L58.3473413,59.0764286 C54.5176556,60.5530354 51.2446667,63.1850953 48.984246,66.6060071 L44.8644841,66.2321643 C46.3193651,61.2955214 51.5146825,59.0764286 54.9910317,56.0713071 L54.9862302,56.0856857 Z M115.663889,57.2168 C119.087421,57.9932429 122.285278,61.0510857 127.278929,59.8528714 C128.783018,58.9537576 130.429474,58.3167942 132.147738,57.9692786 L135.143929,59.1003929 L134.020357,60.60535 C127.524276,64.1040139 119.639315,63.8160418 113.416746,59.8528714 L115.663889,57.2168 Z M147.12869,57.2168 L150.124881,59.4742357 L149.375833,60.2267143 L143.757976,66.2513357 L144.507024,67.3776571 C146.754728,67.6205904 148.579182,69.3016397 149.00131,71.5186857 C144.480677,71.9413712 139.991634,70.437299 136.642024,67.3776571 L136.642024,66.9846429 C140.813924,64.5271365 144.395189,61.1863372 147.133492,57.1976286 L147.12869,57.2168 Z M87.949127,57.5954357 C94.4802005,61.2438116 99.9120525,66.5731041 103.679127,73.0284357 L101.431984,76.4169857 L100.682937,76.0431429 C97.6243254,68.5950429 89.0102778,66.1411 85.7019841,59.4790286 L87.949127,57.5954357 Z M54.2371825,62.8675786 L59.8550397,67.38245 L59.4805159,68.1349286 C56.3839692,69.7445379 53.1181336,71.006382 49.7428968,71.8973214 C39.0977778,73.6035786 26.9209524,63.7015357 21.2742857,75.2810786 C19.7606659,78.4223949 20.3576171,82.1713844 22.772381,84.6894571 C24.080042,85.2107514 25.5111051,85.3422763 26.8921429,85.0680929 L26.8921429,84.6750786 C25.6587557,83.0520243 25.0000991,81.0661609 25.0195238,79.0290929 C26.0256347,76.2152883 28.7514714,74.3845243 31.741746,74.5142214 C50.741627,82.3505429 26.3927778,89.0222 35.1028571,97.9512929 L38.4639683,97.5726571 L40.7111111,95.6890643 C39.518882,94.898161 38.4996303,93.8742408 37.7149206,92.67915 L37.7149206,90.0430786 L39.5875397,88.1594857 L42.5837302,88.5381214 C49.1955159,97.5247286 36.5769444,107.417186 30.2244444,99.0824071 C22.6331349,89.12285 41.6714286,85.2118786 32.8461111,79.4316929 C32.0373348,78.6652202 30.8228254,78.5136825 29.8499206,79.05785 C29.1276599,79.4004895 28.683951,80.1443381 28.7263492,80.9414429 C30.2065184,81.533323 31.3180642,82.7904289 31.7225397,84.3299929 C31.0627734,86.3557951 29.5620052,88.0004958 27.6027778,88.8448643 C13.7069841,92.8516929 15.209881,72.3670214 22.3546429,67.7562929 C31.2375794,62.0432071 46.4874206,71.2359071 52.695873,66.6299714 C52.0573634,65.8668545 52.0573634,64.757017 52.695873,63.9939 L54.2371825,62.8675786 Z M149.00131,62.8675786 C151.020691,64.1826959 152.486555,66.1916099 153.121071,68.5135643 C159.58881,81.8856357 151.080397,91.6151357 138.889167,93.8294357 C119.437937,97.3665643 119.778849,75.1037429 131.39869,80.5628071 L135.518452,84.3252 L137.391071,82.8202429 C137.624598,79.1794486 135.616896,75.7626963 132.319423,74.1891991 C129.021949,72.6157018 125.097275,73.2016261 122.405317,75.6693 C114.007341,82.0629714 118.400794,96.23545 109.296984,101.73765 L108.92246,101.73765 C108.61996,96.5469857 110.627024,94.9941 111.544127,90.4408857 C114.026548,78.1615857 114.4875,72.2040643 126.155357,69.6446786 C138.120913,67.0181929 147.435992,83.1845 137.391071,87.7089571 C135.702798,88.7227516 133.670411,88.9967118 131.773214,88.4662286 C131.942883,86.7422663 131.240611,85.0472961 129.900595,83.9465643 C128.335431,84.0298625 126.990872,85.0843815 126.539484,86.5826357 C128.570556,99.4610429 165.658016,84.9722357 146.76377,65.4940643 L149.00131,62.8675786 Z M118.660079,63.9986929 L122.784643,65.1298071 L119.783651,68.5183571 C111.343438,72.0204874 104.710515,78.8232423 101.431984,87.3399071 L100.682937,86.9612714 L99.1848413,84.3252 C101.878532,71.9404571 111.933056,71.6720571 118.664881,63.9747286 L118.660079,63.9986929 Z M160.237024,65.50365 C170.142698,65.0531214 176.71127,67.4207929 179.34254,74.15955 C181.100261,77.4444722 180.93512,81.422507 178.911156,84.5510094 C176.887192,87.6795118 173.322763,89.4663892 169.600119,89.2187071 C166.800133,88.3067971 164.860156,85.7573291 164.73131,82.8202429 L167.7275,80.5628071 L167.7275,79.4077286 L166.978452,78.6600429 L164.356786,78.6600429 C163.546215,79.0709979 162.889647,79.7314135 162.484167,80.5436357 C157.975476,86.7024571 166.992857,86.0027 168.102024,90.4217143 C171.14623,102.523679 158.753333,102.81125 153.121071,99.0776143 C151.363,95.7022009 151.652471,91.6273398 153.870119,88.5333286 L154.619167,88.1546929 L156.86631,88.5333286 L159.113452,90.4169214 L158.738929,92.6743571 C158.154884,93.9336862 157.067712,94.8901886 155.742738,95.3104286 L156.117262,96.4415429 C157.150035,97.602171 158.697687,98.1675314 160.237024,97.9465 C161.969828,97.7620111 163.434448,96.5830741 163.982262,94.9317929 C165.321905,88.4470571 158.882976,91.7733 157.615357,86.5586714 C155.737937,78.8277929 163.828611,70.9339571 169.230397,76.0143857 L171.472738,78.2718214 C171.439127,82.1061071 169.883413,83.7500571 170.349167,85.4275571 L170.738095,85.4275571 C177.215437,84.7182143 177.58996,76.1150357 173.734286,72.2519929 C169.604921,68.12055 161.667897,69.5632 155.377817,70.3684 L154.254246,66.97985 L155.003294,66.97985 L160.237024,65.50365 Z M65.1031746,69.6207143 C81.3565476,69.4337929 82.4225,75.8514286 84.9577381,89.6644429 C86.4173022,93.5312533 87.3005976,97.5909003 87.5794048,101.713686 L87.1904762,101.713686 C78.2067063,95.9622571 82.585754,82.0246286 74.0773413,75.6453357 C71.832714,73.8287444 68.8898752,73.1134762 66.0598482,73.6966536 C63.2298212,74.2798309 60.8113377,76.0998949 59.4709127,78.65525 L59.4709127,82.4176429 C59.7055601,83.4806502 60.6284655,84.2522766 61.7180556,84.2964429 C62.5658865,81.8389222 64.7496942,80.0838739 67.3359127,79.7815714 C80.247381,83.9897 70.9995238,96.3361 57.5982937,93.8054714 C45.9352381,91.6007571 40.0676984,86.7408 41.8682937,72.2376143 L45.6135317,72.9900929 C44.086627,82.4224357 47.7934524,86.2758929 54.2275794,88.8927929 C61.3099206,91.7685071 69.5638492,94.0738714 69.962381,86.5395 C69.6611432,85.5683348 68.9858408,84.756342 68.0849603,84.2820643 L66.2123413,83.9034286 L64.3397222,88.7969357 L58.3809524,87.6897857 C51.7787698,79.2639429 57.4206349,73.4022786 65.1031746,69.6207143 Z M94.6953571,70.3731929 L97.3170238,73.0092643 L93.1972619,81.6651643 C91.579127,86.9708571 92.4098016,85.5425857 90.950119,90.4169214 L90.2010714,90.0382857 C87.6082143,80.0164214 90.2923016,77.1359143 94.6953571,70.3731929 Z M95.069881,80.1602071 C97.7299603,82.0485929 101.412778,83.5152071 101.792103,87.4118 L100.294008,90.4217143 L99.5449603,90.0430786 C97.3122222,83.8746714 93.8454762,87.7568857 95.069881,80.165 L95.069881,80.1602071 Z M106.305595,80.5388429 C112.216349,86.1656571 102.87246,96.6188786 101.436786,100.582571 L100.687738,100.208729 L99.1896429,96.8201786 C100.5725,90.1916571 104.149683,86.875 106.305595,80.5388429 L106.305595,80.5388429 Z M95.069881,90.3210643 C95.8189286,91.4521786 96.5679762,87.4070071 97.3170238,88.5333286 L93.5717857,96.43675 C91.6079365,102.034807 93.6438095,106.588021 90.2106746,110.364793 L90.2106746,109.617107 C85.5819444,100.93245 92.265754,95.6027929 95.069881,90.3258571 L95.069881,90.3210643 Z M96.1934524,94.1841071 L102.185833,105.476079 C102.094059,107.378929 101.442743,109.212633 100.313214,110.748221 L100.313214,109.995743 C97.3899512,106.412953 95.4535801,102.130946 94.6953571,97.5726571 L96.1934524,94.1841071 Z M105.556548,94.55795 C112.115516,99.5856571 103.635913,124.973421 101.81131,128.179843 L99.9386905,126.674886 C101.254815,115.874892 103.129941,105.150114 105.556548,94.5435714 L105.556548,94.55795 Z M95.069881,103.971121 L97.3170238,107.359671 C96.4863492,111.673243 93.1156349,131.012421 89.8265476,133.451986 L89.8265476,132.699507 C86.436627,126.291457 92.8803571,108.193629 95.069881,103.971121 L95.069881,103.971121 Z M95.8189286,114.515407 C97.9412302,117.276093 100.063532,128.414693 102.185833,131.199343 L100.687738,134.587893 L96.5679762,130.820707 L94.3208333,127.432157 C94.8201984,125.922407 95.3195635,116.020364 95.8333333,114.510614 L95.8189286,114.515407 Z M105.931071,114.894043 C111.64496,121.469843 100.802976,145.448507 98.4405952,150.020893 L97.6915476,149.64705 L92.8227381,139.860036 L95.4444048,137.223964 L95.8333333,137.223964 L98.0804762,141.364993 L99.2040476,140.612514 C100.932619,135.426643 103.996032,120.4921 105.916667,114.88925 L105.931071,114.894043 Z M94.6953571,130.446864 L97.3170238,133.461571 C95.6412698,135.896343 89.1543254,142.337943 87.204881,140.612514 L85.3322619,139.4814 L94.6953571,130.446864 Z M107.054643,136.09285 C114.030777,140.135234 119.63856,146.165074 123.159167,153.409443 L122.410119,153.409443 L118.664881,153.783286 C115.612696,147.961405 111.095211,143.032589 105.556548,139.4814 L107.054643,136.09285 Z M23.1517063,136.471486 L26.1478968,136.850121 C27.2345895,137.376104 28.0511947,138.332002 28.3998413,139.486193 L28.0253175,141.364993 C26.9461031,142.936918 25.0100237,143.685189 23.1517063,143.248586 C23.6318651,144.125679 24.1552381,145.002771 24.6546032,145.884657 C33.1342063,146.239329 51.8892063,137.113729 46.7419048,156.428943 C45.1673775,158.056433 43.015367,159.00139 40.7495238,159.060221 C39.0389706,157.781973 37.524859,156.260926 36.2552381,154.54535 L34.7571429,155.297829 L34.7571429,158.672 C36.5988545,161.656651 39.8594208,163.474469 43.3711905,163.474469 C46.8829602,163.474469 50.1435264,161.656651 51.9852381,158.672 L58.7074603,147.375236 C73.3378968,128.419486 89.0342857,141.719664 97.2882143,156.414564 L95.0410714,159.424479 L94.2920238,159.045843 L88.2996429,150.011307 C70.4569444,124.072364 58.5538095,162.549421 47.4861508,166.949264 C43.034902,169.282392 37.5649651,168.301649 34.2054246,164.56807 C30.8458841,160.834492 30.4541219,155.300918 33.254246,151.132836 C35.5180908,150.219588 38.0228207,150.088 40.3701984,150.758993 L40.7447222,154.900021 L41.4937698,155.278657 L43.7409127,153.7737 L43.7409127,150.768579 C37.8685714,142.40025 14.9553968,158.57135 19.7665873,139.102764 L23.1517063,136.471486 Z M170.353968,136.471486 C172.779148,136.275151 175.150703,137.256299 176.725675,139.107557 C181.464841,157.847629 163.564524,145.458093 157.245635,147.010979 L152.751349,150.773371 L153.125873,153.409443 L154.623968,155.288243 L155.74754,154.909607 C155.8294,153.466276 156.212079,152.055876 156.871111,150.768579 C159.622986,149.619081 162.803705,150.378895 164.736111,152.647379 C166.411421,157.030621 165.228589,161.990711 161.754509,165.150441 C158.280428,168.310171 153.223011,169.025683 149.006111,166.954057 C139.297302,163.038293 137.731984,150.274914 129.530873,144.74875 C125.444722,141.992857 116.897897,143.478643 114.165794,139.855243 L114.165794,139.476607 C136.805278,133.212343 136.373135,153.510093 147.503214,161.686707 C149.598112,163.341736 152.294219,164.040021 154.930984,163.610479 C157.567748,163.180937 159.901547,161.663256 161.360595,159.429271 C161.974372,158.270809 162.108828,156.918365 161.735119,155.662086 L160.611548,154.157129 L159.8625,154.535764 C159.47097,157.28136 157.015427,159.254792 154.244643,159.050636 C146.442063,156.395393 148.434722,145.942171 154.99369,143.617636 C161.845556,141.187657 165.749246,146.536486 171.472738,145.875071 C172.462415,145.321321 173.151364,144.353973 173.350159,143.239 C171.594721,143.7223 169.735892,142.944081 168.851071,141.355407 L168.851071,138.345493 C169.355238,137.717629 169.859405,137.094557 170.353968,136.466693 L170.353968,136.471486 Z M107.80369,143.622429 L111.164802,145.879864 L109.666706,147.384821 C106.319712,154.91057 101.176041,161.502904 94.685754,166.585007 L92.8131349,163.575093 C98.445,157.422317 103.465382,150.738505 107.80369,143.617636 L107.80369,143.622429 Z M79.7144048,144.374907 L83.4596429,146.2585 L81.2125,148.515936 C78.7684921,153.634707 72.1663095,158.820579 74.4902778,167.337486 L70.3657143,164.327571 C70.4761508,154.588486 76.0411905,150.428286 79.7144048,144.389286 L79.7144048,144.374907 Z M68.0993651,154.919193 L71.0955556,155.297829 C70.6153968,156.553557 70.0968254,157.804493 69.5974603,159.060221 L66.6012698,159.438857 L66.6012698,160.943814 C69.5830556,164.81165 72.7328968,171.569579 80.8379762,169.97835 C83.2467986,168.960813 85.7579757,168.204009 88.3284524,167.720914 L89.0775,171.109464 C72.1278968,176.860893 66.3659921,170.630179 60.9834127,156.807579 L60.9834127,156.414564 L68.0993651,154.919193 Z M120.5375,154.919193 C125.571485,154.906448 130.593345,155.412379 135.523254,156.428943 L135.523254,156.802786 C134.095059,162.193659 131.097332,167.040682 126.909206,170.730829 C127.205802,166.887917 128.353817,163.15874 130.270317,159.8127 L129.895794,159.060221 C120.412659,158.580936 112.797341,159.764771 108.543135,165.458686 L107.419563,164.332364 L105.546944,163.20125 C109.460238,158.005793 114.108175,157.809286 120.5375,154.909607 L120.5375,154.919193 Z M77.8417857,155.671671 C94.6473413,156.82675 97.2257937,173.884529 94.3208333,189.926221 L93.9463095,189.926221 C85.5003175,186.269271 77.1791667,182.382264 72.9681746,174.493221 C73.0930159,174.363814 73.2226587,174.2392 73.3426984,174.114586 C80.7083333,176.741071 83.9494048,182.401436 91.3246429,184.280236 L91.6991667,183.9016 C92.6162698,172.2933 90.1674603,165.056086 82.7105952,160.939021 L76.7182143,158.681586 L77.8417857,155.671671 Z M122.016389,160.191336 L125.766429,160.191336 L125.766429,160.943814 C131.797222,175.188186 111.217619,186.494536 102.541151,189.931014 L102.166627,189.552379 C100.315776,182.775927 100.315776,175.628481 102.166627,168.852029 L103.290198,169.97835 L105.162817,170.730829 C104.346655,175.21056 104.346655,179.800504 105.162817,184.280236 L105.537341,184.280236 C116.422436,181.667981 123.554336,171.248565 122.035595,160.176957 L122.016389,160.191336 Z M101.417579,161.696293 C106.675317,164.313193 111.284841,171.996143 120.14377,169.599714 C119.524365,170.980057 118.895357,172.3604 118.271151,173.740743 C108.624762,173.850979 104.490595,168.530907 99.1704365,164.332364 L101.417579,161.696293 Z" id="Shape" fill="#FFCC00"></path>
                    <g id="Object" transform="translate(49.357311, 90.183865) rotate(-29.000000) translate(-49.357311, -90.183865) translate(16.857311, 48.683865)">
                        <g id="Layer_1" transform="translate(-0.000000, 0.000000)">
                            <g id="Group" transform="translate(-0.000000, 0.000000)">
                                <ellipse id="Oval-36" fill="#000000" cx="32.865695" cy="30.3875138" rx="32" ry="29.5"></ellipse>
                                <g id="Clipped" transform="translate(-0.000000, 6.000000)">
                                    <mask id="mask-2" fill="white">
                                        <use xlink:href="#path-1"></use>
                                    </mask>
                                    <g id="SVGID_1_"></g>
                                    <path d="M24.2895094,59.8837811 C24.0036918,58.1342338 24.223522,56.9259851 24.5726415,56.114995 C23.8080314,56.7570448 22.2059182,57.9223881 20.651761,57.9223881 C19.2840566,57.9223881 18.8443962,57.7201194 18.7772579,57.6281791 C18.645283,57.4488955 18.5071698,57.2646318 18.2723774,57.2646318 L18.2719937,57.2646318 C18.0728805,57.2650149 17.8998553,57.374194 17.8089308,57.5358557 C18.0513962,58.0177761 19.1789371,59.3570398 24.2895094,59.8837811" id="Shape" fill="#FFCC00" mask="url(#mask-2)"></path>
                                </g>
                                <g id="Clipped" transform="translate(-0.000000, 6.000000)">
                                    <mask id="mask-4" fill="white">
                                        <use xlink:href="#path-3"></use>
                                    </mask>
                                    <g id="SVGID_1_"></g>
                                    <path d="M29.0624717,60.10099 C30.3787673,60.10099 31.5412201,60.0607662 32.5697799,59.9910448 C33.1559937,56.925602 32.0656667,55.8564129 31.7591321,55.6234975 C30.4086918,55.8924229 29.4879371,56.8099104 28.9788365,57.478393 C28.4701195,56.8099104 27.5497484,55.8924229 26.1993082,55.6234975 C25.8923899,55.856796 24.8051321,56.9236866 25.3867421,59.9791692 C26.4559686,60.0565522 27.673283,60.10099 29.0624717,60.10099" id="Shape" fill="#FFCC00" mask="url(#mask-4)"></path>
                                </g>
                                <g id="Clipped" transform="translate(-0.000000, 6.000000)">
                                    <mask id="mask-6" fill="white">
                                        <use xlink:href="#path-5"></use>
                                    </mask>
                                    <g id="SVGID_1_"></g>
                                    <path d="M39.6864465,57.2646318 L39.6860629,57.2646318 C39.4508868,57.2646318 39.3127736,57.4488955 39.181566,57.6281791 C39.114044,57.7197363 38.674,57.9223881 37.3066792,57.9223881 C35.7563585,57.9223881 34.1507925,56.7551294 33.3846478,56.1134627 C33.7353019,56.9271343 33.9558994,58.1407463 33.6658616,59.9006368 C38.3858805,59.4382537 39.7946352,58.2912985 40.2097421,57.7097761 C40.1686918,57.4577065 39.9500126,57.2650149 39.6864465,57.2646318" id="Shape" fill="#FFCC00" mask="url(#mask-6)"></path>
                                </g>
                                <g id="Clipped" transform="translate(-0.000000, 6.000000)">
                                    <mask id="mask-8" fill="white">
                                        <use xlink:href="#path-7"></use>
                                    </mask>
                                    <g id="SVGID_1_"></g>
                                    <path d="M33.3693019,60.993194 C33.1832327,61.2789751 32.4746352,62.4404876 32.4746352,63.5537313 C32.4746352,64.3409701 32.2271824,65.1090547 31.8358616,65.7208408 C33.164434,65.5220199 34.356044,65.1764776 35.3953459,64.6853632 C36.8110063,64.0161144 37.9504403,63.0790896 38.7806541,61.9011045 C39.4386101,60.9686766 39.7950189,60.037398 39.9883774,59.2980448 C39.8936164,59.3570398 39.7934843,59.4164179 39.6856792,59.4750299 C38.2861321,60.2415821 36.1699308,60.7491692 33.3693019,60.993194" id="Shape" fill="#FFCC00" mask="url(#mask-8)"></path>
                                </g>
                                <g id="Clipped" transform="translate(-0.000000, 6.000000)">
                                    <mask id="mask-10" fill="white">
                                        <use xlink:href="#path-9"></use>
                                    </mask>
                                    <g id="SVGID_1_"></g>
                                    <path d="M29.0624717,61.1625174 C27.9199686,61.1625174 26.8534277,61.1326368 25.8613145,61.0736418 C26.1785912,61.6919403 26.5468931,62.6128756 26.5468931,63.5537313 C26.5468931,64.6171741 27.1872013,65.6254527 27.7941321,65.889398 C28.1800818,65.9112338 28.5744717,65.9227264 28.9788365,65.9227264 C29.3839686,65.9227264 29.7783585,65.9112338 30.1639245,65.889398 C30.771239,65.6250697 31.4119308,64.6171741 31.4119308,63.5537313 C31.4119308,62.6178557 31.7763962,61.7019005 32.0917547,61.083602 C31.1487484,61.1360846 30.1389874,61.1625174 29.0624717,61.1625174" id="Shape" fill="#FFCC00" mask="url(#mask-10)"></path>
                                </g>
                                <g id="Clipped" transform="translate(-0.000000, 6.000000)">
                                    <mask id="mask-12" fill="white">
                                        <use xlink:href="#path-11"></use>
                                    </mask>
                                    <g id="SVGID_1_"></g>
                                    <path d="M24.5561447,60.8606468 C21.7551321,60.6162388 19.6393145,60.1090348 18.2397673,59.3420995 C18.1319623,59.2838706 18.0318302,59.2244925 17.9370692,59.1654975 C18.1304277,59.9048507 18.4868365,60.8361294 19.1447925,61.7685572 C19.9750063,62.9461592 21.1144403,63.8835672 22.5301006,64.5528159 C23.5694025,65.0439303 24.7610126,65.3890896 26.0895849,65.5882935 C25.6982642,64.9761244 25.4508113,64.2084229 25.4508113,63.4211841 C25.4508113,62.3079403 24.7418302,61.1464279 24.5561447,60.8606468" id="Shape" fill="#FFCC00" mask="url(#mask-12)"></path>
                                </g>
                                <g id="Clipped" transform="translate(-0.000000, 6.000000)">
                                    <mask id="mask-14" fill="white">
                                        <use xlink:href="#path-13"></use>
                                    </mask>
                                    <g id="SVGID_1_"></g>
                                    <path d="M36.775327,47.7089701 C36.5838868,47.1213184 36.2171195,46.5888308 35.753673,46.1831443 C35.5204151,45.9804925 35.2603019,45.8100199 34.9836918,45.6740249 C34.7109182,45.529602 34.396327,45.4533682 34.1484906,45.3771343 C33.8876101,45.2951542 33.6263459,45.2154726 33.381195,45.1139552 C33.2588113,45.0645373 33.1379623,45.0120547 33.0324591,44.9515274 C32.9277233,44.8994279 32.8318113,44.8074876 32.8268239,44.800592 L32.8264403,44.800592 L32.4500818,44.6933284 L32.4447107,44.8178308 L32.3791069,46.3114776 C32.357239,46.8091045 32.3372893,47.2986866 32.2306352,47.7618358 C32.0219308,48.668597 31.442239,49.4780547 30.6776289,50.0170547 C30.4716101,50.0434876 30.2586855,50.05 30.0465283,50.0381244 C29.8593082,50.0339104 29.6728553,50.0097761 29.4856352,49.9898557 L29.2055723,49.9546119 L29.0663082,49.9335423 C29.022956,49.9262637 28.9842075,49.9082587 28.9093962,50.036209 C28.8576038,49.9672537 28.8272956,49.9779801 28.7954528,49.9871741 L28.6688491,50.0082438 L28.4148742,50.0431045 C28.2456855,50.0626418 28.0764969,50.086393 27.9073082,50.0902239 C27.7220063,50.1009502 27.5374717,50.095204 27.3586918,50.0703035 C26.636283,49.5056368 26.1218113,48.6754925 25.9449497,47.77601 C25.8532579,47.314393 25.836761,46.8317065 25.817195,46.3409751 L25.7584969,44.8706965 L25.7473711,44.5971741 L25.376,44.85499 C25.3675597,44.8699303 25.2839245,44.9538259 25.1868616,45.008607 C25.0897987,45.0695174 24.9770063,45.1231493 24.8619119,45.1740995 C24.6321069,45.2779154 24.3842704,45.3606617 24.1379686,45.4457065 C23.9035597,45.5173433 23.5893522,45.6188607 23.3388302,45.7717114 C23.0814025,45.9222637 22.8393208,46.1011642 22.6329182,46.3156915 C22.2147421,46.7386169 21.9082075,47.2730199 21.7535975,47.839602 C21.5909308,48.4038856 21.5621572,48.999199 21.6638239,49.5650149 L21.6711132,49.6063881 L21.6741824,49.6155821 C21.7885094,49.9526965 22.0256038,50.2641443 22.3271509,50.4399801 C22.623327,50.6242438 22.9475094,50.7077562 23.261717,50.7410846 C23.8690314,50.8016119 24.4586981,50.7073731 25.0111509,50.5288557 C25.0222767,50.5284726 25.0330189,50.530005 25.0441447,50.5296219 C25.226761,50.5200448 25.451195,50.4591343 25.5229371,50.2741045 C25.4274088,50.4457264 25.2171698,50.4698607 25.043761,50.4587512 C24.8649811,50.4445771 24.6815975,50.3997562 24.502434,50.3599154 C24.1513962,50.2733383 23.775805,50.1691393 23.4681195,50.0335274 C23.3986792,49.9975174 23.3626164,49.950398 23.3668365,49.9289453 C23.3637673,49.9113234 23.3841006,49.8569254 23.4378113,49.7952488 C23.5344906,49.6726617 23.6630126,49.5818706 23.8084151,49.5240249 C24.1034403,49.4110149 24.4529434,49.4225075 24.7671509,49.5106169 C25.0756038,49.5983433 25.3802201,49.7868209 25.6833019,49.9814279 C25.9879182,50.1802488 26.3251447,50.3691095 26.6965157,50.5334527 C27.0878365,50.7081393 27.5017925,50.779393 27.9057736,50.8023781 C28.1083396,50.8069751 28.310522,50.8054428 28.5100189,50.7770945 C28.6097673,50.7640697 28.7087484,50.747597 28.8065786,50.7242289 L28.9531321,50.688602 C28.9757673,50.6843881 28.9987862,50.679408 29.0179686,50.6591045 L29.0797358,50.6728955 C29.185239,50.6958806 29.2915094,50.7119701 29.3985472,50.724995 C29.612239,50.7529602 29.829,50.7544925 30.045761,50.7502786 C30.4788994,50.7280597 30.9174088,50.6617861 31.3440252,50.4959104 C31.7526101,50.3403781 32.1224465,50.1434726 32.465044,49.9442687 C32.804956,49.7458308 33.1448679,49.5558209 33.4905346,49.4623483 C33.8411887,49.3711741 34.2263711,49.3558507 34.5612956,49.4650299 C34.7293333,49.5186617 34.8766541,49.6121343 34.9886792,49.7385522 C35.0531321,49.8032935 35.0773019,49.8649701 35.0730818,49.8749303 C35.0792201,49.8933184 35.0255094,49.9496318 34.9460943,49.9837264 C34.5973585,50.1197214 34.1926101,50.222005 33.807044,50.308199 C33.6113836,50.3476567 33.4115031,50.3920945 33.2162264,50.4066517 C33.0270881,50.4166119 32.7976667,50.4016716 32.6844906,50.222005 C32.7757987,50.416995 33.0194151,50.4660299 33.2162264,50.4775224 C33.2265849,50.4779055 33.2369434,50.4763731 33.2473019,50.4767562 C33.848478,50.6541244 34.4822642,50.747597 35.1325472,50.6947313 C35.4693899,50.6675323 35.814673,50.5897662 36.1411572,50.4177612 C36.471478,50.253801 36.755761,49.9385224 36.8911887,49.5711443 L36.8954088,49.5596517 L36.9034654,49.5163632 C37.0177925,48.9233483 36.9744403,48.2931741 36.775327,47.7089701 M24.8753396,49.0275473 C24.4679057,48.9597413 24.0347673,48.9846418 23.6480503,49.1800149 C23.4573774,49.2792338 23.2866541,49.4290199 23.172327,49.6129005 C23.1193836,49.6971791 23.0418868,49.8251294 23.0806352,49.9936866 C23.1270566,50.1591791 23.2609497,50.2327313 23.3560943,50.2725721 C23.7451132,50.3955423 24.0988365,50.4568358 24.4790314,50.4989751 C24.5584465,50.5062537 24.6370943,50.5139154 24.7165094,50.5200448 C24.2384843,50.5250249 23.7665975,50.4886318 23.3280881,50.3779204 C23.0583836,50.3013035 22.8005723,50.199403 22.6068302,50.0392736 C22.4196101,49.8894876 22.2983774,49.6983284 22.2354591,49.4788209 C22.2166604,48.9850249 22.2684528,48.4946766 22.4104025,48.0349751 C22.5581069,47.5710597 22.7994214,47.1454527 23.1312767,46.7968458 C23.2966289,46.6233085 23.4792453,46.4654776 23.6806604,46.3367612 C23.8882138,46.2042139 24.0815723,46.1187861 24.3528113,46.009607 C24.6083208,45.9023433 24.8580755,45.7774577 25.1039937,45.6315025 C25.2033585,45.570592 25.3004214,45.5020199 25.396717,45.4257861 L25.4339308,46.3562985 C25.4538805,46.8451144 25.4688428,47.3473383 25.5685912,47.8503284 C25.7040189,48.5375821 26.0189937,49.1830796 26.4624906,49.7236119 C25.9955912,49.4608159 25.4991509,49.1478358 24.8753396,49.0275473 M36.3325975,49.420209 C36.2574025,49.6504428 36.1096981,49.8492637 35.8894843,49.9994328 C35.6608302,50.1576468 35.373478,50.2580149 35.0753836,50.3300348 C34.5965912,50.4357662 34.0894088,50.4717761 33.5764717,50.4675622 C33.6604906,50.4618159 33.7441258,50.4545373 33.8285283,50.4480249 C34.2390314,50.4074179 34.6280503,50.344592 35.0454591,50.2281343 C35.1467421,50.1879104 35.2925283,50.1335124 35.3562138,49.9507811 C35.4045535,49.7573234 35.3025031,49.6251592 35.2426541,49.5401144 C35.1053082,49.3501045 34.9111824,49.2026169 34.7020943,49.112592 C34.2808491,48.9302438 33.8246918,48.9095572 33.3884843,48.9777463 C32.9423019,49.0558955 32.5513648,49.2305821 32.1788428,49.406801 C31.9824151,49.5021891 31.7959623,49.6040896 31.6118113,49.6987114 C32.0886855,49.1769502 32.4439434,48.5425622 32.6046918,47.8476468 C32.7217044,47.3373781 32.7397358,46.8244279 32.7623711,46.3283333 L32.8053396,45.3503184 C32.9208176,45.4372786 33.0382138,45.5108308 33.156761,45.5782537 C33.4176415,45.7184627 33.6804403,45.8414328 33.9493774,45.9448657 C34.2305912,46.0525124 34.4588616,46.132194 34.6802264,46.2582289 C34.9027421,46.3785174 35.1064591,46.5309851 35.2932956,46.6995423 C35.6692704,47.037806 35.9504843,47.463796 36.1265786,47.9357562 C36.2957673,48.4027363 36.3579182,48.9099403 36.3325975,49.420209" id="Shape" fill="#FFCC00" mask="url(#mask-14)"></path>
                                </g>
                                <g id="Clipped" transform="translate(0.579809, 2.891331)">
                                    <mask id="mask-16" fill="white">
                                        <use xlink:href="#path-15"></use>
                                    </mask>
                                    <g id="SVGID_1_"></g>
                                    <path d="M60.274522,22.5901144 C60.5745346,22.0871244 60.7099623,21.528204 60.7329811,20.9922687 C60.762522,20.4536517 60.6842579,19.929209 60.5449937,19.4281343 C60.4824591,19.213607 60.4018931,19.0048259 60.3075157,18.7994925 C60.2898679,18.6734577 60.2706855,18.547806 60.2541887,18.4217711 L60.0658176,17.0997463 L59.7523774,15.798408 C59.6664403,15.3578607 59.5030063,14.9406816 59.3522327,14.5189055 C59.1922516,14.1013433 59.0733208,13.665393 58.8630818,13.2681343 L58.2849245,12.0514577 L57.5928239,10.8941592 C56.6191258,9.38097512 55.4067987,8.02562189 54.0444654,6.85185075 C52.683283,5.67156716 51.1448553,4.72343284 49.5611572,3.8971194 C46.3745786,2.25560199 42.910239,1.26762687 39.4186604,0.670781095 C35.9178742,0.0957711443 32.3733522,-0.145572139 28.8365031,0.0884925373 L28.8384214,0.131014925 C25.5632201,-0.0835124378 22.2807296,0.179666667 19.051566,0.791835821 C15.771761,1.43924876 12.5402956,2.52797512 9.62649057,4.25338806 C8.1828239,5.13065174 6.81895597,6.15693532 5.62159119,7.35943781 C5.33193711,7.66973632 5.02118239,7.96011443 4.75032704,8.28688557 L3.9473522,9.27409453 C3.46242138,9.96977612 2.9721195,10.6646915 2.59230818,11.423199 C2.15955346,12.1533582 1.86759748,12.9509403 1.53267296,13.724005 C1.28483648,14.530398 0.974849057,15.3176368 0.830213836,16.1481642 C0.61690566,17.0327065 0.489918239,17.9306567 0.411654088,18.8309055 C0.312289308,19.0649701 0.228654088,19.3028657 0.168037736,19.5468905 C0.0448867925,20.0364726 -0.0199496855,20.545209 0.00537106918,21.066204 C0.0272389937,21.5852836 0.142716981,22.1246667 0.412421384,22.6249751 L0.422779874,22.6437463 L0.451937107,22.6820547 C0.457691824,22.6897164 0.464981132,22.6962289 0.471119497,22.7038905 C0.40436478,23.4957264 0.355257862,24.2883284 0.311522013,25.0809303 C0.294257862,25.4613333 0.285433962,25.8417363 0.285433962,26.2236716 L0.291572327,26.7982985 C0.292339623,26.9756667 0.305767296,27.2419104 0.346050314,27.4307711 C0.490301887,28.2475075 0.837119497,29.0286169 1.36079874,29.6821592 L1.53612579,29.8947711 C1.53881132,29.8978358 1.53996226,29.8997512 1.5418805,29.9028159 C1.53842767,29.9066468 1.53228931,29.91201 1.52806918,29.916607 C1.71950943,30.0943582 1.88524528,30.3219104 1.95775472,30.5935174 C2.03410063,30.8754677 2.02834591,31.1700597 2.01031447,31.4470299 C1.99151572,31.7255323 1.95545283,31.9925423 1.94777987,32.2530398 C1.93703774,32.5054925 1.95391824,32.7502836 1.98921384,32.9874129 C2.27541509,34.0389801 2.74077987,35.0143134 3.44937736,35.7678408 C3.79350943,36.1543731 4.20516352,36.4826766 4.64750943,36.8519701 C5.08333333,37.2097711 5.50803145,37.5802139 5.93349686,37.9495075 C6.35704403,38.3245473 6.78557862,38.6666418 7.22523899,39.102592 C7.43816352,39.3247811 7.64725157,39.5676567 7.8256478,39.8492239 C8.00672956,40.1281095 8.1482956,40.4479851 8.23883648,40.7598159 C8.41493082,41.394204 8.46979245,41.9918159 8.42068553,42.6273532 C8.36927673,43.2433532 8.19049686,43.9014925 7.77577358,44.4454726 C7.43931447,45.1013134 6.80974843,45.6119652 6.13299371,45.8218955 C5.78349057,45.93299 5.4282327,45.9908358 5.06875472,45.9847065 C4.90608805,45.9850896 4.66323899,45.9670846 4.45913836,45.8736119 C4.25542138,45.7851194 4.09045283,45.647592 3.96308176,45.4997214 C3.70872327,45.2001493 3.57406289,44.863801 3.4946478,44.5251542 C3.42022013,44.1884229 3.38454088,43.8555224 3.41101258,43.5088308 C3.44055346,43.1678856 3.55411321,42.8177463 3.77355975,42.5518856 C3.98725157,42.2871741 4.30683019,42.1040597 4.62947799,42.0979303 C4.31450314,42.1749303 4.08277987,42.408995 3.94389937,42.667194 C3.7996478,42.9269254 3.76627044,43.2234328 3.78890566,43.5138109 C3.84031447,44.089204 4.0693522,44.7140149 4.43266667,45.054194 C4.52320755,45.1361741 4.61988679,45.1921045 4.71349686,45.2177711 C4.80595597,45.2430547 4.8880566,45.2403731 5.04151572,45.226199 C5.31697484,45.1951692 5.59396855,45.1327264 5.84180503,45.0277612 C6.34553459,44.8193632 6.70501258,44.4397264 6.90911321,43.967 L6.92407547,43.9321393 L6.9620566,43.8785075 C7.46540252,43.1671194 7.41015723,42.0048408 7.16001887,41.0865871 C7.02459119,40.6372289 6.76601258,40.2782786 6.39886164,39.9101343 C6.04283648,39.5469701 5.60125786,39.1707811 5.18691824,38.7926766 C4.76759119,38.4161045 4.34749686,38.0402985 3.93891195,37.6522338 C3.538,37.2756617 3.08299371,36.8745721 2.70586792,36.3926517 C2.33334591,35.9103483 2.03218239,35.3724975 1.81810692,34.8135771 C1.60403145,34.2527413 1.47781132,33.6719851 1.40146541,33.0950597 L1.39762893,33.0667114 C1.37806289,32.4671841 1.53881132,31.9063483 1.6734717,31.3941642 C1.74022642,31.1363483 1.79316981,30.8819801 1.77475472,30.6264627 C1.76554717,30.3809055 1.66886792,30.138796 1.52231447,29.9219701 C1.50006289,29.9434229 1.47244025,29.9683234 1.43369182,29.9993532 L1.37844654,30.0441741 L1.28944025,30.125005 C1.23419497,30.1820846 1.18777358,30.2406965 1.14902516,30.2981592 C1.07114465,30.4134677 1.01705031,30.5249453 0.973314465,30.632592 C0.886226415,30.8486517 0.832899371,31.0551343 0.790698113,31.2585522 C0.632251572,32.0687761 0.613836478,32.8449055 0.610383648,33.6214179 C0.617289308,35.1706119 0.746962264,36.6991194 0.919603774,38.2211144 C1.27371069,41.2639552 1.81810692,44.2772985 2.57197484,47.2500348 C2.95562264,48.7341045 3.37226415,50.2151095 3.93162264,51.6604876 C4.2097673,52.3837512 4.51591824,53.1005025 4.88728931,53.7996318 C4.93064151,53.8781642 4.97476101,53.9566965 5.0188805,54.0348458 C7.07906918,58.9946418 9.99479245,63.6238358 13.6636164,67.5688408 C14.754327,68.7736418 15.9213836,69.9056567 17.1241195,70.9959154 C17.7425597,71.5211244 18.3429686,72.0685522 18.9882642,72.5604328 C19.6235849,73.0618905 20.2566038,73.5687114 20.9429497,74.0272637 C22.3037484,74.9416866 23.7746541,75.6998109 25.3353333,76.202801 C26.8845031,76.7211144 28.5487673,76.9448358 30.1627736,76.8904378 C31.7756289,76.9494328 33.4433459,76.7260945 34.9871447,76.1943731 C36.5432201,75.6825721 38.0087547,74.9187015 39.3603459,73.997 C40.0436226,73.5376816 40.6689686,73.0224328 41.3085094,72.5263383 C41.9526541,72.0340746 42.5603522,71.496607 43.1822453,70.9752289 C44.3918868,69.8945473 45.5758239,68.7793881 46.6707547,67.5772687 C47.776044,66.3854925 48.8088239,65.1270597 49.7817547,63.8249552 C50.7658113,62.5297463 51.6535723,61.1636667 52.479566,59.7650249 C53.300956,58.3621692 54.0344906,56.9114279 54.7154654,55.4388507 C55.029673,54.7251642 55.3289182,54.0053483 55.6132013,53.2805522 C55.8898113,52.7633881 56.1338113,52.2362637 56.3616981,51.7049254 C56.9782201,50.2656766 57.442434,48.7831393 57.8678994,47.2956219 C58.7054025,44.315607 59.3131006,41.2846418 59.7105597,38.2188159 C59.9039182,36.6849453 60.051239,35.1430299 60.0600629,33.5777463 C60.0569937,32.792806 60.0374277,32.0078657 59.8601824,31.1876816 C59.8122264,30.9815821 59.7523774,30.7724179 59.6545472,30.5548259 C59.6050566,30.4464129 59.5452075,30.3349353 59.4604214,30.2223085 C59.4174528,30.165995 59.3679623,30.1100647 59.3104151,30.0560498 L59.2183396,29.980199 L59.1604088,29.9376766 C59.1404591,29.9235025 59.1254969,29.9108607 59.1082327,29.8974527 C59.1074654,29.8871095 59.1059308,29.8775323 59.1055472,29.8671891 C58.9471006,30.0782687 58.8354591,30.3180796 58.8174277,30.5640199 C58.7928742,30.8191542 58.8473522,31.0735224 58.918327,31.3313383 C59.0606604,31.8427562 59.2371384,32.4081891 59.2106667,33.0172935 L59.2056792,33.0487065 C59.1143711,33.6432537 58.9635975,34.2408657 58.7176792,34.8108955 C58.4694591,35.3786269 58.1280126,35.9157114 57.7186604,36.3911194 C57.3024025,36.8634627 56.8186226,37.2496119 56.3858679,37.6189055 C55.9450566,37.9981592 55.4938868,38.3643881 55.0431006,38.7317662 C54.5984528,39.1006766 54.1246478,39.4680547 53.7306415,39.8262388 C53.3255094,40.1863383 53.0185912,40.5464378 52.8609119,40.986602 C52.6959434,41.4275323 52.635327,41.9818557 52.6410818,42.4790995 C52.6548931,42.9809403 52.7830314,43.4502189 53.0607925,43.808403 L53.1029937,43.862801 L53.1198742,43.8984279 C53.3508302,44.3811144 53.7651698,44.7603682 54.3134025,44.9668507 C54.5831069,45.0744975 54.8808176,45.1323433 55.1773774,45.1687363 C55.2510377,45.1767811 55.327,45.1829104 55.3952893,45.1848259 C55.4578239,45.185209 55.5073145,45.1840597 55.563327,45.1744826 C55.6715157,45.1553284 55.7797044,45.1093582 55.8829057,45.0346567 C56.2976289,44.7258905 56.567717,44.0796269 56.6256478,43.4797164 C56.6509686,43.1778458 56.6068491,42.8690796 56.4384277,42.6062836 C56.2753774,42.3446368 56.0133459,42.1209154 55.6830252,42.0462139 C56.0194843,42.0500448 56.3632327,42.2136219 56.6033962,42.4802488 C56.8500818,42.7449602 56.9828239,43.1169353 57.007761,43.4781841 C57.0300126,43.8463284 56.9824403,44.1914876 56.8846101,44.5477562 C56.7810252,44.8998109 56.6072327,45.2476517 56.3049182,45.5338159 C56.1541447,45.674791 55.9630881,45.7935473 55.7486289,45.8605871 C55.6431258,45.8942985 55.5268805,45.9138358 55.4221447,45.9234129 C55.3243145,45.9310746 55.2330063,45.9333731 55.1401635,45.9333731 C54.771478,45.9322239 54.404327,45.8793582 54.0425472,45.7713284 C53.3446918,45.5725075 52.6579623,45.0921194 52.2743145,44.4121443 C51.8196918,43.8727612 51.6102201,43.183592 51.5611132,42.5426915 C51.5131572,41.8822537 51.5810629,41.2589751 51.7997421,40.6027512 C51.9117673,40.280194 52.0867107,39.9591692 52.2904277,39.6887114 C52.4949119,39.4171045 52.7224151,39.1818905 52.9533711,38.9704279 C53.4267925,38.554398 53.8817987,38.2207313 54.3375723,37.8548856 C54.7941132,37.4947861 55.2491195,37.1335373 55.7152516,36.7856965 C56.1871384,36.4263632 56.6325535,36.1057214 57.0092956,35.7260846 C57.7834969,34.9874975 58.3075597,34.0083333 58.6198491,32.9314826 C58.6566792,32.6958856 58.6727925,32.4514776 58.6585975,32.1990249 C58.6474717,31.9377612 58.6052704,31.6699851 58.5822516,31.3891841 C58.56,31.1099154 58.5515597,30.8099602 58.635195,30.5257114 C58.7195975,30.2502736 58.9014465,30.0284677 59.1043962,29.8576119 C59.1032453,29.8361592 59.1032453,29.8139403 59.0986415,29.7932537 C59.1320189,29.7576269 59.17,29.7170199 59.2087484,29.6729652 C59.7730943,29.047005 60.1686352,28.2731741 60.342044,27.44801 C60.3642956,27.3449602 60.3811761,27.2419104 60.3969057,27.135796 L60.409566,26.9511493 L60.4137862,26.8028955 L60.4226101,26.22099 C60.423761,25.835607 60.4160881,25.4521393 60.3992075,25.0679055 C60.3558553,24.2584478 60.3059811,23.448607 60.2369245,22.6399154 L60.2626289,22.6096517 L60.274522,22.5901144 Z M3.5813522,20.6911642 C3.22724528,21.2209701 2.83400629,21.7067214 2.3966478,22.0062935 C2.18487421,22.1461194 1.9262956,22.2388259 1.69649057,22.2583632 C1.46975472,22.2759851 1.30516981,22.2265672 1.19007547,22.1135572 C0.997484277,21.7929154 0.878553459,21.4037015 0.81908805,20.993801 C0.811798742,20.9378706 0.812566038,20.8788756 0.807194969,20.8221791 C0.817553459,20.8417164 0.824075472,20.8604876 0.835201258,20.8800249 C0.957584906,21.0838259 1.16628931,21.2872438 1.44750314,21.3715224 C1.72833333,21.4665274 2.05942138,21.4113632 2.30188679,21.270005 C2.55125786,21.1301791 2.73924528,20.930209 2.88656604,20.708403 C3.03542138,20.4804677 3.12174214,20.2272488 3.17315094,19.9920348 C3.27596855,19.5124129 3.25333333,19.0680348 3.27098113,18.6734577 C3.3204717,17.080209 3.67227673,15.4712537 4.49251572,14.1775771 C4.89841509,13.5316965 5.4370566,12.9896318 6.06355346,12.5946716 C6.69503774,12.2043085 7.41898113,11.9595174 8.16939623,11.8595323 C8.91942767,11.7568657 9.69516352,11.7898109 10.4448113,11.9399801 C10.8215535,12.0112338 11.1867862,12.1177313 11.5489497,12.2487463 C11.9137987,12.3751642 12.2702075,12.5291642 12.6181761,12.7053831 C14.0142704,13.4056617 15.2607421,14.430796 16.4228113,15.5570647 C17.588717,16.6871642 18.6882516,17.9314229 19.9032642,19.1163035 C20.5098113,19.7070199 21.1600943,20.2793483 21.8372327,20.803408 C22.5128365,21.3278507 23.2064717,21.8139851 23.8993396,22.2836468 L24.9420943,22.9831592 C25.2996541,23.2183731 25.6748616,23.4516716 26.080761,23.661602 C26.3397233,23.7941493 26.6163333,23.9125224 26.9079057,24.0117413 C26.3017421,24.0688209 25.6798491,24.0760995 25.056805,24.0481343 C23.7577736,23.9799453 22.3873836,23.8462488 21.1366918,23.6010746 C20.5105786,23.4692935 19.9166918,23.2850299 19.3753648,23.0030796 C18.8298176,22.7226617 18.3176478,22.3583483 17.8235094,21.9522786 C16.828327,21.1424378 15.9267547,20.1395224 14.8160943,19.2657065 C13.7111887,18.3911244 12.4432327,17.6398955 11.0030189,17.2805622 C9.57239623,16.9051393 7.98332704,16.9721791 6.59452201,17.6107811 C5.90587421,17.9252935 5.25213836,18.4018507 4.77257862,18.9852886 C4.29148428,19.558 3.94351572,20.1575274 3.5813522,20.6911642 L3.5813522,20.6911642 Z M5.62466038,32.2871343 C5.33615723,31.8209204 5.07028931,31.3907164 4.80633962,31.0214229 C5.92083648,30.3897164 8.48820755,29.2653632 12.6519371,29.2653632 C13.3390503,29.2653632 14.0518679,29.29601 14.7547107,29.3553881 C19.7202642,29.8817463 21.5587044,34.3174826 22.1744591,36.5527811 C21.5629245,36.4148706 20.747673,36.3022438 19.7148931,36.3022438 C19.0285472,36.3022438 18.2992327,36.353194 17.5476667,36.4531791 C14.3618553,36.8780199 12.4716226,36.9442935 10.9120943,36.9492736 C8.2695283,36.5661891 6.80361006,34.1948955 5.62466038,32.2871343 L5.62466038,32.2871343 Z M51.7437296,47.1040796 C51.8473145,47.6243085 51.9014088,48.1533483 51.7901509,48.6195622 C51.686566,49.0804129 51.3838679,49.4968259 50.9722138,49.7006269 C50.5789748,49.8982985 50.005805,49.8714826 49.6793208,49.578806 C49.5185723,49.4408955 49.4506667,49.2198557 49.4752201,48.9911542 C49.5005409,48.7643682 49.5933836,48.5318358 49.823956,48.3353134 C49.5120503,48.3226716 49.2108868,48.5908308 49.1230314,48.9153035 C49.0248176,49.2363284 49.1053836,49.6293731 49.3470818,49.8952338 C49.8308616,50.4158458 50.5862642,50.5062537 51.2169811,50.2595473 C51.6343899,50.0936716 51.9662453,49.7845224 52.1998868,49.415995 C52.1711132,50.4936119 51.9136855,51.5260249 51.5212138,52.4967612 C51.0220881,53.7153532 50.3169434,54.8462189 49.5603899,55.9617612 C49.1778931,56.5157015 48.7835031,57.0761542 48.3822075,57.623199 C47.9901195,58.1549204 47.5911258,58.5617562 47.0916164,58.5989154 C46.8533711,58.610408 46.6385283,58.5433682 46.5303396,58.4870547 C46.3972138,58.4096716 46.2046226,58.1633483 46.1505283,57.8963383 C46.0737987,57.6193682 46.1793019,57.3527413 46.340434,57.1707761 C46.4946604,56.961995 46.8092516,56.8405572 47.1629748,56.767005 C46.8468491,56.6137711 46.4140943,56.5551592 46.0323648,56.7984179 C45.8443774,56.916408 45.716239,57.1110149 45.6372075,57.3075373 C45.5620126,57.5059751 45.5106038,57.70901 45.4910377,57.917791 C45.4668679,58.3292239 45.4967925,58.7843284 45.8551195,59.1938458 C46.2594843,59.6102587 46.7900692,59.6596766 47.2232075,59.5834428 C47.3954654,59.5562438 47.5642704,59.5037612 47.7273208,59.4397861 C47.6222013,59.5355572 47.5163145,59.6294129 47.4134969,59.7274826 C47.2097799,59.9190249 47.0014591,60.1335522 46.8188428,60.3936667 C46.6400629,60.6553134 46.4804654,60.970209 46.4808491,61.3517612 C46.4827673,61.7110945 46.6373774,62.0738756 46.9385409,62.302194 C47.2458428,62.537408 47.6429182,62.5462189 47.9429308,62.4542786 C48.251,62.3585075 48.5276101,62.161602 48.6979497,61.9037861 C49.0543585,61.4023284 49.0217484,60.6641244 48.5905283,60.2890846 C48.9185472,60.7522338 48.7846541,61.3655522 48.4508805,61.7080299 C48.2862956,61.8876965 48.0676164,61.989597 47.8431824,62.0240746 C47.6149119,62.0608507 47.4050566,62.0091343 47.2861258,61.8823333 C47.1599057,61.7589801 47.1035094,61.554796 47.1211572,61.3697662 C47.1361195,61.196995 47.2435409,60.9997065 47.3923962,60.8269353 C47.6996981,60.4844577 48.1554717,60.1377662 48.5709623,59.8060149 C49.4291824,59.1509403 50.3161761,58.5157861 51.2089245,57.8607114 C52.0095975,57.256204 52.8048994,56.617602 53.5415031,55.8947214 C52.9606604,57.0485721 52.3410692,58.1817363 51.6719874,59.2857861 C50.013478,62.003005 48.1236289,64.5846119 45.9514151,66.9191294 C43.8087421,69.2701194 41.4638868,71.478602 38.9717107,73.4537861 C37.704522,74.4007711 36.3176352,75.201801 34.8333019,75.7584229 C34.0890252,76.0300299 33.3221132,76.239194 32.5413899,76.3679104 C31.7568302,76.497393 30.9741887,76.5157811 30.1627736,76.5111841 C29.3509748,76.5219104 28.5679497,76.4985423 27.7833899,76.370209 C27.003434,76.2380448 26.2346038,76.0323284 25.4949308,75.749995 C24.014434,75.1845622 22.6333019,74.3777861 21.3749371,73.4235224 C18.9073145,71.4268856 16.5160377,69.2735672 14.3641572,66.9279403 C12.1973145,64.5880597 10.3017107,62.0110498 8.63667925,59.2953632 C8.08000629,58.3851542 7.57052201,57.4477463 7.08060377,56.4996119 C7.59162264,56.9983881 8.12604403,57.4642189 8.66391824,57.9108955 C9.48722642,58.5747811 10.3047799,59.2172139 11.0916415,59.8803333 C11.4729874,60.2166816 11.8911635,60.56299 12.1543459,60.9043184 C12.2836352,61.0797711 12.3703396,61.2655672 12.3806981,61.4433184 C12.3918239,61.6291144 12.3407987,61.8294677 12.2291572,61.948607 C12.1263396,62.0673632 11.9414214,62.1156318 11.7304151,62.0708109 C11.5240126,62.0321194 11.3325723,61.9095323 11.1860189,61.7287164 C10.9013522,61.3693831 10.790478,60.7978209 11.0728428,60.3415672 C10.6868931,60.7208209 10.641239,61.3912189 10.9251384,61.9003383 C11.068239,62.1550896 11.3061006,62.3807264 11.6061132,62.4902886 C11.7545849,62.5439204 11.9187862,62.5722687 12.0929623,62.5554129 C12.2656038,62.5404726 12.4482201,62.4676866 12.5878679,62.3531443 C12.871,62.1183134 13.0022075,61.7800498 13.0171698,61.446 C13.0321321,61.09701 12.9074465,60.7775174 12.7536038,60.5166368 C12.5019308,60.1113333 12.2126604,59.8163582 11.9226226,59.5278955 C12.0108616,59.561607 12.1002516,59.5926368 12.193478,59.6140896 C12.6174088,59.724801 13.1802201,59.6845771 13.5738428,59.2643333 C13.7614465,59.0605323 13.8362579,58.8410249 13.8838302,58.63301 C13.9302516,58.4242289 13.9306352,58.2192786 13.9191258,58.0196915 C13.9045472,57.8201045 13.8604277,57.6254975 13.8017296,57.4320398 C13.7430314,57.2404975 13.6390629,57.0443582 13.4721761,56.9056816 C13.3037547,56.7685373 13.0935157,56.6980498 12.9001572,56.6930697 C12.7048805,56.6903881 12.5264843,56.7367413 12.3695723,56.8191045 C12.5422138,56.8581791 12.7025786,56.9022338 12.8330189,56.9750199 C12.9630755,57.0481891 13.0578365,57.1408955 13.1219057,57.2431791 C13.2515786,57.4362537 13.3417358,57.7113085 13.2538805,57.9836816 C13.1959497,58.2460945 13.0018239,58.4947164 12.8874969,58.560607 C12.7888994,58.6046617 12.6147233,58.6717015 12.3941258,58.6433532 C11.9556164,58.5843582 11.5907673,58.1242736 11.2343585,57.5795274 C10.8672075,57.0259701 10.5123333,56.4685821 10.167434,55.9123433 C9.48837736,54.7945025 8.85727673,53.6655522 8.418,52.4611343 C8.08422642,51.5325373 7.85672327,50.5591194 7.808,49.5462438 C8.01632075,49.8730149 8.30674214,50.1519005 8.68310063,50.3150945 C9.28734591,50.5767413 10.0492704,50.4399801 10.4497987,49.8864229 C10.6473774,49.6044726 10.6903459,49.2520348 10.6021069,48.9524627 C10.5207736,48.6536567 10.2518365,48.3820498 9.95220755,48.3870299 C10.1586101,48.5866169 10.2253648,48.8091891 10.2499182,49.0271642 C10.2721698,49.2451393 10.2192264,49.4665622 10.0864843,49.6071542 C9.81639623,49.9090249 9.29156604,49.9538458 8.94206289,49.7626866 C8.57299371,49.5661642 8.30866038,49.1593284 8.21044654,48.7218458 C8.10647799,48.2759353 8.14292453,47.7821393 8.2261761,47.2841294 C8.3393522,46.2957711 8.79512579,45.3537662 9.61076101,45.0955672 C10.0162767,44.9534428 10.4943019,44.9434826 10.9750126,45.004393 C11.4530377,45.0691343 11.9536981,45.1978507 12.485434,45.3215871 C13.0141006,45.4449403 13.5911069,45.5472239 14.1961195,45.5150448 C14.7992138,45.4828657 15.3819748,45.3173731 15.9064214,45.0714328 C16.9622201,44.5768706 17.7962704,43.8015075 18.5344088,43.002393 C19.2909623,42.1979154 19.8625975,41.2616567 20.536283,40.5058308 C20.8754277,40.1288756 21.2529371,39.7825672 21.6688113,39.5297313 C22.0827673,39.2780448 22.5458302,39.1301741 22.9797358,39.2133035 L22.9981509,39.2167512 L23.0062075,39.2175174 C23.2325597,39.2408856 23.4431824,39.3397214 23.6093019,39.5170896 C23.7773396,39.6917761 23.8970377,39.9250746 24.0155849,40.1633532 L24.3696918,40.9168806 C24.4993648,41.1716318 24.6156101,41.4551144 24.8427296,41.6876468 C24.8442642,41.6133284 24.8461824,41.5397761 24.847717,41.46699 C24.8676667,41.5045323 24.8849308,41.5428408 24.9060314,41.58 C24.9681824,40.4859104 24.7683019,39.4753333 24.7130566,38.4325771 C24.6815975,37.9138806 24.6681698,37.394801 24.6727736,36.8764876 C24.6804465,36.3600896 24.6931069,35.8314328 24.7541069,35.3449154 C24.813956,34.8545672 24.9305849,34.4078905 25.1665283,34.0244229 C25.3990189,33.6367413 25.7324088,33.3030746 26.1187421,33.0433433 C26.8380818,32.5510796 27.7373522,32.3185473 28.6197421,32.3453632 C28.7797233,32.3844378 28.8871447,32.3610697 29.0624717,32.2898159 L29.063239,32.299393 C30.0515157,32.2361841 31.076239,32.435005 31.9271698,32.9138607 C32.3534025,33.15099 32.736283,33.4612886 33.0201824,33.8340299 C33.3098365,34.2052388 33.4705849,34.6350597 33.5523019,35.1280896 C33.6370881,35.6153731 33.6485975,36.1570547 33.6601069,36.6895423 C33.6677799,37.2231791 33.6520503,37.7575821 33.6163711,38.2912189 C33.5542201,39.3646219 33.3328553,40.4020149 33.3627799,41.5282836 C33.3900189,41.4826965 33.4118868,41.435194 33.4372075,41.3888408 C33.435673,41.4708209 33.434522,41.552801 33.4322201,41.6355473 C33.6716164,41.4014826 33.7943836,41.1091891 33.9351824,40.850607 C34.0679245,40.5858955 34.1945283,40.329995 34.3265031,40.0890348 C34.4592453,39.8503731 34.5992767,39.6224378 34.7853459,39.4519652 C34.845195,39.396801 34.9107987,39.3527463 34.9790881,39.3136716 C34.9844591,39.310607 34.9905975,39.3090746 34.9955849,39.3048607 C35.1352327,39.22901 35.2879245,39.1818905 35.447522,39.165801 L35.4563459,39.1650348 L35.4716918,39.1623532 C35.9501006,39.0784577 36.4545975,39.2167512 36.9119057,39.4619254 C37.3711321,39.7082488 37.7935283,40.0507264 38.1760252,40.4311294 C38.9344969,41.1923184 39.5828616,42.1580746 40.4265031,42.9694478 C41.249044,43.7781393 42.1755535,44.5462239 43.3007925,45.0243134 C43.8601509,45.2618259 44.4686164,45.4231045 45.0939623,45.4591144 C45.7231447,45.5001045 46.3316101,45.411995 46.8982579,45.2955373 C47.4649057,45.1783134 48.0089182,45.0499801 48.5272264,44.9718308 C49.0474528,44.8994279 49.5707484,44.8833383 50.0399497,44.9932836 C50.5126038,45.0974826 50.9050755,45.3411244 51.1928113,45.7188458 C51.4832327,46.0961841 51.6547233,46.5888308 51.7437296,47.1040796 L51.7437296,47.1040796 Z M54.6724969,32.2070697 C53.3665597,34.1259403 51.7433459,36.5121741 48.7785157,36.8971741 C47.0547862,36.8925771 44.9665912,36.8266866 41.4443208,36.3999303 C40.6233145,36.3007114 39.8272453,36.2501443 39.0779811,36.2501443 C37.8871384,36.2501443 36.9652327,36.3742637 36.2903962,36.5209851 C36.9683019,34.2868358 39.0004843,29.8357761 44.5073648,29.305204 C45.3030503,29.2442935 46.0922138,29.2136468 46.8526038,29.2136468 L46.8526038,29.110597 L46.8529874,29.110597 L46.8529874,29.2136468 C51.4548428,29.2136468 54.2999748,30.3395323 55.5441447,30.9785174 C55.2625472,31.3393831 54.9790314,31.7561791 54.6724969,32.2070697 L54.6724969,32.2070697 Z M59.5187358,22.0461343 C59.2593899,22.3050995 58.5822516,22.2380597 58.1049937,21.9492139 C57.6024151,21.6450448 57.1546981,21.1397562 56.7449623,20.5846667 C56.3279371,20.0261294 55.9205031,19.3898259 55.354239,18.8083035 C54.7818365,18.2198856 54.059044,17.7724428 53.3078616,17.4870448 C51.8005094,16.899393 50.1362453,16.8744925 48.6112453,17.2460846 C47.0774214,17.6069502 45.6943711,18.3558806 44.4686164,19.2457861 C43.2397925,20.1337761 42.2173711,21.1665721 41.0925157,21.9733483 C39.9807044,22.8119204 38.7714465,23.3486219 37.3834088,23.5719602 C36.6966792,23.6960796 35.9873145,23.7723134 35.2664403,23.847398 C34.5505535,23.9171194 33.8369686,23.9730498 33.1268365,23.9979502 C32.4623585,24.0247662 31.800566,24.0121244 31.150283,23.9565771 C31.4188365,23.8711493 31.6774151,23.7715473 31.9244843,23.661602 C32.8045723,23.2574478 33.5453962,22.7655672 34.2977296,22.3131443 C35.8016289,21.3960398 37.3343019,20.3820149 38.6835912,19.1825771 C40.0347987,17.9973134 41.2620881,16.7350498 42.5522956,15.5926915 C43.838283,14.453398 45.2071384,13.4248159 46.7190943,12.7164925 C47.4744969,12.365204 48.2598239,12.0901493 49.0616478,11.9235075 C49.8676918,11.7599303 50.6963711,11.7055323 51.5116226,11.771806 C52.3257233,11.8430597 53.1240943,12.0395821 53.8461195,12.3855075 C54.5639245,12.7348806 55.197327,13.2397861 55.6960692,13.8718756 C56.7000755,15.1402687 57.149327,16.8331194 57.2210692,18.511796 C57.2479245,18.9228458 57.2107107,19.385995 57.320434,19.8989453 C57.3756792,20.1498657 57.4692893,20.4195572 57.6377107,20.6559204 C57.800761,20.8869204 58.0098491,21.084592 58.2688113,21.2194378 C58.5239371,21.3569652 58.8488868,21.4037015 59.1358553,21.3263184 C59.4193711,21.2504677 59.6583836,21.070801 59.8053208,20.8650846 C59.8621006,20.7888507 59.9081384,20.7114677 59.949956,20.6333184 C59.909673,21.156995 59.7773145,21.6527065 59.5187358,22.0461343 L59.5187358,22.0461343 Z M59.5847233,20.6049701 C59.400956,20.690398 59.2202579,20.694995 59.0660314,20.6681791 C58.9156415,20.6363831 58.7917233,20.581602 58.6639686,20.5026866 C58.5369811,20.4272189 58.4180503,20.314592 58.3332642,20.1835771 C58.2488616,20.0586915 58.1978365,19.9035423 58.1625409,19.7261741 C58.0931006,19.3745025 58.1295472,18.951194 58.1180377,18.4868955 C58.0884969,16.6775871 57.672239,14.7824677 56.526283,13.2363383 C55.957717,12.4697861 55.2034654,11.8296517 54.3502327,11.3864229 C53.4958491,10.9466418 52.5666541,10.6930398 51.6317044,10.5846269 C49.7621887,10.3700995 47.843566,10.7397761 46.1654906,11.5147562 C46.0066604,11.586393 45.8516667,11.6641592 45.6962893,11.7411592 C45.7338868,11.5902239 45.7626604,11.4331592 45.7672642,11.2669005 C45.7849119,10.8397612 45.6375912,10.4199005 45.4296541,10.0896816 C44.997283,9.42847761 44.3915031,9.00057214 43.7274088,8.73241294 C43.3901824,8.59948259 43.025717,8.50754229 42.6451384,8.49183582 C42.2641761,8.48340796 41.8678679,8.56040796 41.5191321,8.72934826 C41.1688616,8.8948408 40.8442956,9.18023881 40.6697358,9.5629403 C40.4940252,9.9429602 40.5066855,10.3363881 40.5615472,10.6696716 C40.5899371,10.8409104 40.6221635,10.9964428 40.6758742,11.1646169 C40.7292013,11.3308756 40.8043962,11.5059453 40.9298491,11.6503682 C41.1796038,11.9495572 41.6549434,12.0116169 41.8889686,11.7633781 C41.5904906,11.8978408 41.2751321,11.6940398 41.1853585,11.4741493 C41.0752516,11.2458308 41.0967358,10.9332338 41.0990377,10.6363433 C41.1132327,10.3432836 41.1776855,10.0804876 41.3023711,9.89737313 C41.4236038,9.71540796 41.629239,9.5928209 41.8559748,9.50739303 C42.3217233,9.34649751 42.8442516,9.42771144 43.3380063,9.64875124 C43.8275409,9.88281592 44.3032642,10.2191642 44.5530189,10.6317463 C44.6784717,10.8366965 44.7379371,11.0412637 44.7410063,11.2488955 C44.7425409,11.4599751 44.6738679,11.6986368 44.557239,11.9453433 C44.455956,12.1594876 44.3209119,12.3801443 44.1804969,12.6080796 C43.276239,13.1915174 42.4306792,13.8511891 41.6303899,14.539209 C40.2715094,15.7087662 39.0261887,16.9522587 37.7160314,18.0662687 C36.424673,19.1952189 35.0155346,20.1341592 33.5170063,21.043602 C32.7639057,21.4971741 32.0296038,21.9741144 31.3068113,22.3005025 C30.668805,22.5966269 30.0273459,22.7670995 29.4338428,22.7184478 C29.3559623,22.6613682 29.2554465,22.6341692 29.1319119,22.6732438 C29.0578679,22.6962289 28.9884277,22.7295572 28.9193711,22.7628856 C28.8361195,22.7406667 28.7486478,22.7479453 28.6742201,22.7812736 L28.6657799,22.7418159 C28.0880063,22.8632537 27.4265975,22.6801393 26.7640377,22.3322985 C26.1056981,21.9940348 25.4262579,21.5075174 24.7368428,21.0504975 C24.054717,20.5896468 23.3875535,20.1234328 22.7506981,19.630403 C22.1126918,19.1408209 21.5191887,18.6102488 20.9276038,18.0520945 C19.7471195,16.9377015 18.6264843,15.708 17.3911384,14.5453383 C16.6825409,13.8803035 15.9305912,13.2382537 15.1195597,12.66401 C14.9956415,12.4406716 14.8759434,12.224995 14.7865535,12.0154478 C14.5736289,11.5197363 14.5586667,11.1140498 14.7681384,10.7098955 C14.9745409,10.3003781 15.3961698,9.95445274 15.8438868,9.71042786 C16.2962075,9.47827861 16.7700126,9.39514925 17.1855031,9.56523881 C17.3888365,9.65296517 17.5645472,9.77938308 17.6723522,9.96556219 C17.7816918,10.1544229 17.8377044,10.4145373 17.8538176,10.6964876 C17.8591887,10.9826517 17.8837421,11.28299 17.7962704,11.5132239 C17.7529182,11.631597 17.6842453,11.731199 17.5637799,11.7970896 C17.4509874,11.8618308 17.2986792,11.894393 17.1613333,11.8154776 C17.3746415,12.0778905 17.8591887,11.9763731 18.0648239,11.6699055 C18.2777484,11.3661194 18.333761,11.0385821 18.3913082,10.7282836 C18.4431006,10.4099403 18.4642013,10.0467761 18.327239,9.67824876 C18.1929623,9.3070398 17.9059937,8.98869652 17.568,8.80864677 C17.2349937,8.61940299 16.8394528,8.53244279 16.4615597,8.54470149 C16.0848176,8.56462189 15.7287925,8.66805473 15.4088302,8.8151592 C14.7777296,9.10515423 14.2176038,9.56906965 13.8539057,10.2344876 C13.6755094,10.5647065 13.5688553,10.9696269 13.5926415,11.3638209 C13.5991635,11.4971343 13.6198805,11.6239353 13.6463522,11.7480547 C13.4997987,11.6695224 13.3532453,11.59099 13.2028553,11.518204 C11.6275975,10.7363284 9.7688239,10.381592 7.98831447,10.680398 C7.09748428,10.8263532 6.222,11.1477612 5.45508805,11.6553483 C4.69086164,12.1682985 4.05630818,12.8567015 3.60206918,13.6297662 C2.68706918,15.1839403 2.38091824,16.9522587 2.37439623,18.6589005 C2.37171069,19.0917861 2.39511321,19.4836816 2.33104403,19.8204129 C2.29843396,19.9905025 2.25086164,20.1372239 2.17566667,20.2598109 C2.09932075,20.3858458 1.99420126,20.495791 1.88447799,20.5662786 C1.77322013,20.6390647 1.67692453,20.6923134 1.54571698,20.7168308 C1.41259119,20.7459453 1.2464717,20.7275572 1.07613208,20.6382985 C0.968710692,20.5835174 0.868962264,20.5019204 0.778421384,20.4080647 C0.776886792,20.3444726 0.778805031,20.2812637 0.779188679,20.2172886 C0.826377358,19.7824876 0.878169811,19.3488358 0.939169811,18.9170995 C0.989811321,18.7320697 1.04966038,18.5366965 1.13367925,18.4543333 C1.25913208,18.3271493 1.46361635,18.2363582 1.67577358,18.2340597 C1.88486164,18.2252488 2.11888679,18.307995 2.23283019,18.529801 C2.20597484,18.2800299 1.96466038,18.0739303 1.70377987,18.0164677 C1.50351572,17.9701144 1.28330189,17.9766269 1.07613208,18.0551592 C1.18240252,17.4667413 1.31437736,16.8844527 1.48932075,16.3121244 C1.67040252,15.5183731 1.98537736,14.7679104 2.25047799,14.0036567 C2.59767925,13.2734975 2.89961006,12.5203532 3.33658491,11.8396119 C4.9329434,9.02547264 7.37908176,6.78251244 10.1451824,5.12069154 C12.9381384,3.47534328 16.0502893,2.39044776 19.235717,1.66067164 C20.8301572,1.29214428 22.4510692,1.02475124 24.0831069,0.844318408 C25.7120755,0.645880597 27.3621447,0.535935323 28.9991698,0.523293532 L29.0018553,0.474258706 C30.6956604,0.493412935 32.3990566,0.594164179 34.0855723,0.777278607 C35.8231132,0.947368159 37.5514465,1.19905473 39.2582956,1.54383085 C42.6666226,2.22725373 46.0285283,3.22020896 49.1003962,4.79583582 C50.6342201,5.57962687 52.101673,6.49596517 53.4206541,7.59273632 C54.7357987,8.69218905 55.9013208,9.95981592 56.8815409,11.3634378 C58.2546164,13.3512637 59.1301006,15.6344478 59.6215535,18.018 C59.3744843,17.9218458 59.1159057,17.9164826 58.8788113,17.9731791 C58.621,18.0348557 58.3631887,18.2214179 58.3221384,18.4777015 C58.4441384,18.253597 58.6904403,18.1796617 58.9087358,18.1815771 C59.1301006,18.1785124 59.3526164,18.2520647 59.5079937,18.371204 C59.5931635,18.4363284 59.6204025,18.4803831 59.6672075,18.5826667 C59.7090252,18.6769055 59.746239,18.7830199 59.7792327,18.8902836 C59.7838365,18.905607 59.7861384,18.9216965 59.7907421,18.9370199 C59.8574969,19.3446219 59.9131258,19.7545224 59.9595472,20.1659552 C59.9603145,20.2215025 59.9637673,20.2770498 59.963,20.3322139 C59.8521258,20.4482886 59.725522,20.5436766 59.5847233,20.6049701 L59.5847233,20.6049701 Z" id="Shape" fill="#FFCC00" mask="url(#mask-16)"></path>
                                </g>
                            </g>
                        </g>
                    </g>
                </g>
            </g>
        </g>
    </g>
</svg>