<?xml version="1.0" encoding="UTF-8"?>
<svg width="192px" height="192px" viewBox="0 0 192 192" version="1.1" xmlns="http://www.w3.org/2000/svg" xmlns:xlink="http://www.w3.org/1999/xlink">
    <!-- Generator: Sketch 41 (35326) - http://www.bohemiancoding.com/sketch -->
    <title>logo</title>
    <desc>Created with Sketch.</desc>
    <defs></defs>
    <g id="Page-1" stroke="none" stroke-width="1" fill="none" fill-rule="evenodd">
        <g id="Desktop-HD" transform="translate(-188.000000, -261.000000)">
            <g id="logo" transform="translate(188.000000, 261.000000)">
                <g>
                    <rect id="Rectangle-8" fill="#FFCC00" x="0" y="0" width="192" height="192"></rect>
                    <path d="M91.6953571,3 C92.8996221,5.72918648 93.5366768,8.67387586 93.5679762,11.6559 C90.9786906,11.4382852 88.3808015,11.9602429 86.0775,13.1608571 C85.8588852,10.5215491 84.8102187,8.01871955 83.0813095,6.00991429 L91.6953571,3 Z M97.3132143,11.6559 L98.4367857,3.37384286 L99.934881,3.37384286 L107.425357,6.00991429 C105.796229,8.07870204 104.760634,10.5503348 104.429167,13.1608571 C102.258915,11.9663427 99.7825728,11.4409516 97.3132143,11.6511071 L97.3132143,11.6559 Z M81.5832143,6.76239286 C81.5832143,6.76239286 82.6635714,15.7681714 83.0813095,16.9280429 C75.024246,16.2570429 74.3472222,22.4350357 68.4700794,25.2101 L68.4700794,23.6955571 C71.04296,16.8660423 75.6113122,10.9651991 81.5832143,6.7576 L81.5832143,6.76239286 Z M108.548929,6.76239286 C119.92869,12.36045 125.133611,25.6606286 120.908214,41.3955786 L120.159167,41.7694214 L117.162976,41.0169429 C119.405317,25.6798 121.786905,21.7927929 107.425357,16.5733714 C109.15051,13.599589 109.557599,10.0431752 108.548929,6.7576 L108.548929,6.76239286 Z M83.1005159,9.01982857 C84.559547,10.6655797 84.9914964,12.9798616 84.2240873,15.0396571 L83.1005159,14.2871786 L83.1005159,9.01503571 L83.1005159,9.01982857 Z M107.07004,9.01982857 L108.193611,11.2772643 L107.07004,14.2871786 L106.695516,15.0396571 L106.320992,15.0396571 C105.888006,13.0062378 106.144758,10.8868263 107.050833,9.01503571 L107.07004,9.01982857 Z M90.2164683,12.7870143 L91.3400397,12.7870143 L89.4674206,15.4230857 L85.7221825,16.1755643 L86.0967063,15.04445 L90.2164683,12.7870143 Z M93.2126587,12.7870143 C100.299802,26.5664786 83.5230556,40.6526857 77.4826587,45.1579714 L76.7336111,44.7793357 L75.6100397,41.3907857 C84.5313889,38.7403357 92.7180952,25.9913357 84.9731349,17.6757286 C88.4274897,17.7562711 91.6226311,15.854222 93.1934524,12.7822214 L93.2126587,12.7870143 Z M96.9578968,13.16565 C97.875,13.7168286 105.197421,18.4377929 105.197421,18.4377929 C101.356151,20.47955 102.796627,25.3634714 101.077659,28.6034429 L99.5795635,29.7345571 C96.5785714,26.5473071 96.8186508,19.3580214 96.9386905,13.1560643 L96.9578968,13.16565 Z M99.5795635,13.16565 C101.689956,12.9637307 103.729101,13.9889052 104.822897,15.8017214 L104.822897,16.1803571 C102.61352,16.3388934 100.529111,15.1421103 99.5555556,13.1560643 L99.5795635,13.16565 Z M56.5045238,22.5788214 L58.002619,22.5788214 L58.3579365,24.0885714 L57.9834127,31.2395143 C55.7383401,30.9540234 53.4598351,31.0823624 51.2611905,31.61815 C51.2717869,29.3975313 50.7585827,27.2056022 49.7630952,25.2196857 L56.5045238,22.5788214 Z M132.54246,22.5788214 C135.512042,22.8157 138.360715,23.8563257 140.781984,25.5887357 C139.746924,27.4251291 139.229246,29.5069802 139.283889,31.6133571 C137.092204,31.0324998 134.804904,30.9036654 132.561667,31.2347214 L132.561667,22.5692357 L132.54246,22.5788214 Z M74.8609921,24.4624143 C79.0762436,24.1430153 83.2477576,25.4948286 86.4712302,28.2248071 L84.5986111,31.2347214 C74.1935714,24.8027071 63.8461508,31.7140071 62.8714286,42.9053286 L63.6204762,42.9053286 L69.6176587,44.0364429 C69.9857804,45.0429429 70.3603042,46.0462476 70.7412302,47.0463571 C66.5852628,47.4417192 62.3918756,47.058092 58.3771429,45.9152429 L58.3771429,45.5318143 C60.5714683,32.5335857 64.2446825,29.0395929 74.8417857,24.4528286 L74.8609921,24.4624143 Z M112.687897,24.4624143 L116.807659,24.8362571 C117.057341,26.0919857 117.311825,27.3477143 117.556706,28.59865 C107.37254,28.3446286 103.934603,32.6198571 98.8305159,37.25455 L97.3324206,36.1282286 C96.4009127,33.1710357 97.5436905,33.4154714 99.5795635,30.8560857 C103.699325,28.9916643 107.905516,26.7342286 112.66869,24.4528286 L112.687897,24.4624143 Z M47.5159524,26.3412143 C47.8424603,26.8588429 47.8664683,32.89305 48.265,35.0019071 C44.2604762,33.9187214 43.1080952,36.7417143 41.1490476,38.7643 L37.7879365,38.3904571 C39.0027381,32.3131143 43.5450397,29.6962143 47.496746,26.3316286 L47.5159524,26.3412143 Z M142.280079,26.3412143 C152.44504,29.6962143 156.233492,43.2887571 150.894127,53.8234571 L149.770556,53.4448214 L147.897937,51.5660214 C149.957817,45.10525 151.90246,34.6903714 142.280079,34.6280643 C143.546353,32.0054632 143.539276,28.9483601 142.260873,26.3316286 L142.280079,26.3412143 Z M49.0140476,28.2248071 C50.1804947,29.4295574 50.4787077,31.2289391 49.7630952,32.7444714 L49.0140476,33.1183143 L49.0140476,28.2152214 L49.0140476,28.2248071 Z M123.91881,28.2248071 C129.631919,32.3763012 132.642289,39.2923335 131.78381,46.2938786 C118.464206,47.9761714 107.852698,45.1675571 102.566151,35.7495929 L103.689722,34.2446357 L105.187817,33.4921571 L106.311389,34.2446357 C110.804337,41.4360023 119.420099,44.9286433 127.664048,42.9005357 C127.164683,36.7225429 124.01004,35.3517857 123.909206,28.2152214 L123.91881,28.2248071 Z M141.146905,28.2248071 L141.895952,28.6034429 L141.521429,33.1183143 L141.137302,33.1183143 L140.762778,32.7444714 C140.485651,31.2281532 140.614854,29.665663 141.137302,28.2152214 L141.146905,28.2248071 Z M71.1013492,31.2347214 C71.7255556,33.9954071 72.3513624,36.7560929 72.9787698,39.5167786 C74.9594397,44.2596019 77.6077823,48.6961444 80.8437698,52.6923429 L78.596627,54.9497786 L77.468254,54.9497786 C74.4576587,50.40615 65.1953968,39.4496786 69.2239286,32.3658357 L71.1013492,31.2347214 Z M53.1242063,32.3658357 L55.745873,32.3658357 L54.6223016,33.8707929 L51.2611905,34.2446357 L51.2611905,33.8612071 L52.0102381,33.4825714 L53.1242063,32.3658357 Z M91.7049603,32.3658357 C99.2770635,36.0803 102.268452,46.7444071 107.809484,52.6923429 L105.187817,55.3236214 L90.2068651,35.3709571 L91.7049603,32.3658357 Z M135.154524,32.3658357 C136.782305,32.330936 138.371434,32.863072 139.64881,33.8707929 L139.274286,34.6232714 L138.899762,34.6232714 C137.355177,34.5160855 135.957153,33.6720152 135.144921,32.35625 L135.154524,32.3658357 Z M57.2439683,32.7396786 C61.0852381,37.2066214 49.7294841,53.0805643 47.1318254,54.9497786 C46.0635046,54.2877443 45.1655834,53.3848895 44.5101587,52.3137071 C48.0393254,47.8611429 53.8540476,43.1258 50.5025397,36.1282286 C53.6235714,34.9396 55.6210317,35.3613714 57.2343651,32.7157143 L57.2439683,32.7396786 Z M132.532857,32.7396786 C134.895238,33.8468286 137.012738,34.8054 140.023333,36.1282286 C138.217937,40.3267714 139.692024,43.8782786 137.401667,47.0463571 L136.652619,46.6725143 C134.847034,42.1576203 133.464664,37.485361 132.523254,32.7157143 L132.532857,32.7396786 Z M37.3942063,39.5167786 C41.6667104,39.9552187 45.7101287,41.659447 49.0044444,44.4102857 L49.0044444,44.7889214 L46.7573016,47.4249929 C37.9703968,41.9898929 31.9155952,41.5058143 29.5292063,52.6971357 C27.1995679,51.5083802 24.4718978,51.3705876 22.0339286,52.3185 C24.5643651,44.09875 29.6876587,42.7088214 37.3846032,39.5071929 L37.3942063,39.5167786 Z M91.7049603,39.5167786 L94.326627,42.5266929 C90.5917793,50.9277579 84.1255925,57.8246424 75.9749603,62.1007214 L73.7278175,60.9696071 L73.3532937,60.2171286 L73.7278175,58.7121714 C82.4378968,56.1192357 87.7820635,46.9265357 91.6953571,39.5071929 L91.7049603,39.5167786 Z M154.994683,39.905 C161.464197,41.2005832 166.667009,45.9944468 168.47754,52.3280857 C165.899061,51.4799269 163.09728,51.6148098 160.61254,52.7067214 C161.688095,47.0463571 157.880437,45.9967214 154.994683,43.29355 L154.994683,39.905 L154.994683,39.905 Z M147.129683,40.6574786 L148.253254,40.6574786 L148.627778,44.0412357 C145.079565,47.6406277 141.328214,51.0347091 137.392063,54.2068857 C132.364802,52.1076143 135.80754,49.3804786 139.264683,47.0559429 C141.443058,44.4263071 144.114668,42.246343 147.129683,40.6383071 L147.129683,40.6574786 Z M37.0100794,45.17235 L40.7553175,45.17235 C42.4310714,52.5198 47.9576984,55.8268714 44.5005556,60.60535 L43.0024603,59.4742357 C40.3989358,54.9848153 38.3849399,50.1796657 37.0100794,45.1771429 L37.0100794,45.17235 Z M113.792262,47.0559429 L117.5375,47.8084214 C116.269881,53.0805643 98.7488889,72.6641786 96.5641667,64.7463786 C103.591524,60.2401495 109.486217,54.1807048 113.792262,47.0367714 L113.792262,47.0559429 Z M53.489127,49.6920143 C59.1528153,53.4259146 64.0999,58.1432353 68.0955556,63.6200571 L65.4642857,63.6200571 C59.7548191,61.4311577 54.8982564,57.4736878 51.6069048,52.3280857 L53.489127,49.6920143 Z M143.009921,50.07065 C151.407897,52.9463643 147.931548,56.8573357 159.863492,55.3427929 C159.917995,57.8009074 161.005308,60.1229013 162.859683,61.7412571 C154.216825,62.0336214 142.126429,57.7583929 141.511825,51.5804 L143.009921,50.07065 Z M69.5984524,50.4444929 L70.7460317,50.4444929 C70.5299603,64.4060857 79.3888889,67.8665286 87.974127,72.6545929 L87.974127,74.15955 L86.4760317,76.7956214 L84.2288889,74.5381857 C75.6244444,70.8860286 69.0030556,65.9350071 67.0007937,55.3427929 C64.349539,56.2614065 61.4049443,55.5214182 59.5055159,53.4592 L59.5055159,53.0566 L69.5984524,50.4444929 Z M120.159167,50.4444929 C127.569078,52.0358632 134.74479,54.5662313 141.511825,57.9740714 L140.369048,59.0764286 L138.870952,60.9600214 C134.244261,57.9397111 128.990124,56.0090483 123.505873,55.3140357 L122.382302,58.7025857 L119.02119,57.9501071 L119.02119,57.5762643 C119.410119,55.1942143 119.789444,52.8073714 120.159167,50.4253214 L120.159167,50.4444929 Z M25.3998413,52.7067214 L28.3960317,53.4544071 L28.0215079,54.2068857 C26.5443978,54.5146582 25.0091861,54.093644 23.8969444,53.0757714 L25.3998413,52.7067214 Z M164.357778,52.7067214 L166.984246,53.0805643 L166.604921,53.8330429 L165.855873,53.8330429 L162.494762,54.2068857 L162.494762,53.4352357 L164.357778,52.7067214 Z M21.2704762,53.8330429 L26.8931349,56.0904786 C26.2314264,57.9257783 25.7301888,59.8148307 25.3950397,61.7364643 L19.772381,60.60535 L19.772381,58.7073786 L21.2704762,53.8330429 Z M164.7275,61.3578286 C164.856634,59.4099709 164.46909,57.4625509 163.603929,55.7118429 C165.506113,55.6395748 167.339311,54.9816271 168.852063,53.82825 C170.21205,55.8156268 170.870864,58.1982211 170.724683,60.6005571 L164.7275,61.3578286 Z M31.0128968,54.9593643 C33.7638844,55.9724787 36.7073544,56.3573493 39.6269444,56.0856857 L41.1250397,59.1003929 C36.7956507,60.6743896 32.2465485,61.5637974 27.6421825,61.7364643 L29.8893254,59.4742357 L31.0128968,54.9593643 Z M28.765754,55.7118429 L29.5148016,55.7118429 C29.4383633,57.3622336 28.6107585,58.8873415 27.2676587,59.8528714 L27.2676587,57.9549 L28.765754,55.7118429 Z M161.356786,55.7118429 C162.69934,56.6778516 163.526791,58.202675 163.603929,59.8528714 L163.229405,59.8528714 L162.105833,59.1003929 L161.356786,55.7118429 Z M51.9862302,56.0856857 C53.418972,56.4718509 54.6324796,57.4235875 55.3473413,58.7217571 L55.3473413,59.0764286 C51.5176556,60.5530354 48.2446667,63.1850953 45.984246,66.6060071 L41.8644841,66.2321643 C43.3193651,61.2955214 48.5146825,59.0764286 51.9910317,56.0713071 L51.9862302,56.0856857 Z M112.663889,57.2168 C116.087421,57.9932429 119.285278,61.0510857 124.278929,59.8528714 C125.783018,58.9537576 127.429474,58.3167942 129.147738,57.9692786 L132.143929,59.1003929 L131.020357,60.60535 C124.524276,64.1040139 116.639315,63.8160418 110.416746,59.8528714 L112.663889,57.2168 Z M144.12869,57.2168 L147.124881,59.4742357 L146.375833,60.2267143 L140.757976,66.2513357 L141.507024,67.3776571 C143.754728,67.6205904 145.579182,69.3016397 146.00131,71.5186857 C141.480677,71.9413712 136.991634,70.437299 133.642024,67.3776571 L133.642024,66.9846429 C137.813924,64.5271365 141.395189,61.1863372 144.133492,57.1976286 L144.12869,57.2168 Z M84.949127,57.5954357 C91.4802005,61.2438116 96.9120525,66.5731041 100.679127,73.0284357 L98.4319841,76.4169857 L97.6829365,76.0431429 C94.6243254,68.5950429 86.0102778,66.1411 82.7019841,59.4790286 L84.949127,57.5954357 Z M51.2371825,62.8675786 L56.8550397,67.38245 L56.4805159,68.1349286 C53.3839692,69.7445379 50.1181336,71.006382 46.7428968,71.8973214 C36.0977778,73.6035786 23.9209524,63.7015357 18.2742857,75.2810786 C16.7606659,78.4223949 17.3576171,82.1713844 19.772381,84.6894571 C21.080042,85.2107514 22.5111051,85.3422763 23.8921429,85.0680929 L23.8921429,84.6750786 C22.6587557,83.0520243 22.0000991,81.0661609 22.0195238,79.0290929 C23.0256347,76.2152883 25.7514714,74.3845243 28.741746,74.5142214 C47.741627,82.3505429 23.3927778,89.0222 32.1028571,97.9512929 L35.4639683,97.5726571 L37.7111111,95.6890643 C36.518882,94.898161 35.4996303,93.8742408 34.7149206,92.67915 L34.7149206,90.0430786 L36.5875397,88.1594857 L39.5837302,88.5381214 C46.1955159,97.5247286 33.5769444,107.417186 27.2244444,99.0824071 C19.6331349,89.12285 38.6714286,85.2118786 29.8461111,79.4316929 C29.0373348,78.6652202 27.8228254,78.5136825 26.8499206,79.05785 C26.1276599,79.4004895 25.683951,80.1443381 25.7263492,80.9414429 C27.2065184,81.533323 28.3180642,82.7904289 28.7225397,84.3299929 C28.0627734,86.3557951 26.5620052,88.0004958 24.6027778,88.8448643 C10.7069841,92.8516929 12.209881,72.3670214 19.3546429,67.7562929 C28.2375794,62.0432071 43.4874206,71.2359071 49.695873,66.6299714 C49.0573634,65.8668545 49.0573634,64.757017 49.695873,63.9939 L51.2371825,62.8675786 Z M146.00131,62.8675786 C148.020691,64.1826959 149.486555,66.1916099 150.121071,68.5135643 C156.58881,81.8856357 148.080397,91.6151357 135.889167,93.8294357 C116.437937,97.3665643 116.778849,75.1037429 128.39869,80.5628071 L132.518452,84.3252 L134.391071,82.8202429 C134.624598,79.1794486 132.616896,75.7626963 129.319423,74.1891991 C126.021949,72.6157018 122.097275,73.2016261 119.405317,75.6693 C111.007341,82.0629714 115.400794,96.23545 106.296984,101.73765 L105.92246,101.73765 C105.61996,96.5469857 107.627024,94.9941 108.544127,90.4408857 C111.026548,78.1615857 111.4875,72.2040643 123.155357,69.6446786 C135.120913,67.0181929 144.435992,83.1845 134.391071,87.7089571 C132.702798,88.7227516 130.670411,88.9967118 128.773214,88.4662286 C128.942883,86.7422663 128.240611,85.0472961 126.900595,83.9465643 C125.335431,84.0298625 123.990872,85.0843815 123.539484,86.5826357 C125.570556,99.4610429 162.658016,84.9722357 143.76377,65.4940643 L146.00131,62.8675786 Z M115.660079,63.9986929 L119.784643,65.1298071 L116.783651,68.5183571 C108.343438,72.0204874 101.710515,78.8232423 98.4319841,87.3399071 L97.6829365,86.9612714 L96.1848413,84.3252 C98.8785317,71.9404571 108.933056,71.6720571 115.664881,63.9747286 L115.660079,63.9986929 Z M157.237024,65.50365 C167.142698,65.0531214 173.71127,67.4207929 176.34254,74.15955 C178.100261,77.4444722 177.93512,81.422507 175.911156,84.5510094 C173.887192,87.6795118 170.322763,89.4663892 166.600119,89.2187071 C163.800133,88.3067971 161.860156,85.7573291 161.73131,82.8202429 L164.7275,80.5628071 L164.7275,79.4077286 L163.978452,78.6600429 L161.356786,78.6600429 C160.546215,79.0709979 159.889647,79.7314135 159.484167,80.5436357 C154.975476,86.7024571 163.992857,86.0027 165.102024,90.4217143 C168.14623,102.523679 155.753333,102.81125 150.121071,99.0776143 C148.363,95.7022009 148.652471,91.6273398 150.870119,88.5333286 L151.619167,88.1546929 L153.86631,88.5333286 L156.113452,90.4169214 L155.738929,92.6743571 C155.154884,93.9336862 154.067712,94.8901886 152.742738,95.3104286 L153.117262,96.4415429 C154.150035,97.602171 155.697687,98.1675314 157.237024,97.9465 C158.969828,97.7620111 160.434448,96.5830741 160.982262,94.9317929 C162.321905,88.4470571 155.882976,91.7733 154.615357,86.5586714 C152.737937,78.8277929 160.828611,70.9339571 166.230397,76.0143857 L168.472738,78.2718214 C168.439127,82.1061071 166.883413,83.7500571 167.349167,85.4275571 L167.738095,85.4275571 C174.215437,84.7182143 174.58996,76.1150357 170.734286,72.2519929 C166.604921,68.12055 158.667897,69.5632 152.377817,70.3684 L151.254246,66.97985 L152.003294,66.97985 L157.237024,65.50365 Z M62.1031746,69.6207143 C78.3565476,69.4337929 79.4225,75.8514286 81.9577381,89.6644429 C83.4173022,93.5312533 84.3005976,97.5909003 84.5794048,101.713686 L84.1904762,101.713686 C75.2067063,95.9622571 79.585754,82.0246286 71.0773413,75.6453357 C68.832714,73.8287444 65.8898752,73.1134762 63.0598482,73.6966536 C60.2298212,74.2798309 57.8113377,76.0998949 56.4709127,78.65525 L56.4709127,82.4176429 C56.7055601,83.4806502 57.6284655,84.2522766 58.7180556,84.2964429 C59.5658865,81.8389222 61.7496942,80.0838739 64.3359127,79.7815714 C77.247381,83.9897 67.9995238,96.3361 54.5982937,93.8054714 C42.9352381,91.6007571 37.0676984,86.7408 38.8682937,72.2376143 L42.6135317,72.9900929 C41.086627,82.4224357 44.7934524,86.2758929 51.2275794,88.8927929 C58.3099206,91.7685071 66.5638492,94.0738714 66.962381,86.5395 C66.6611432,85.5683348 65.9858408,84.756342 65.0849603,84.2820643 L63.2123413,83.9034286 L61.3397222,88.7969357 L55.3809524,87.6897857 C48.7787698,79.2639429 54.4206349,73.4022786 62.1031746,69.6207143 Z M91.6953571,70.3731929 L94.3170238,73.0092643 L90.1972619,81.6651643 C88.579127,86.9708571 89.4098016,85.5425857 87.950119,90.4169214 L87.2010714,90.0382857 C84.6082143,80.0164214 87.2923016,77.1359143 91.6953571,70.3731929 Z M92.069881,80.1602071 C94.7299603,82.0485929 98.4127778,83.5152071 98.7921032,87.4118 L97.2940079,90.4217143 L96.5449603,90.0430786 C94.3122222,83.8746714 90.8454762,87.7568857 92.069881,80.165 L92.069881,80.1602071 Z M103.305595,80.5388429 C109.216349,86.1656571 99.8724603,96.6188786 98.4367857,100.582571 L97.6877381,100.208729 L96.1896429,96.8201786 C97.5725,90.1916571 101.149683,86.875 103.305595,80.5388429 L103.305595,80.5388429 Z M92.069881,90.3210643 C92.8189286,91.4521786 93.5679762,87.4070071 94.3170238,88.5333286 L90.5717857,96.43675 C88.6079365,102.034807 90.6438095,106.588021 87.2106746,110.364793 L87.2106746,109.617107 C82.5819444,100.93245 89.265754,95.6027929 92.069881,90.3258571 L92.069881,90.3210643 Z M93.1934524,94.1841071 L99.1858333,105.476079 C99.0940587,107.378929 98.4427433,109.212633 97.3132143,110.748221 L97.3132143,109.995743 C94.3899512,106.412953 92.4535801,102.130946 91.6953571,97.5726571 L93.1934524,94.1841071 Z M102.556548,94.55795 C109.115516,99.5856571 100.635913,124.973421 98.8113095,128.179843 L96.9386905,126.674886 C98.2548149,115.874892 100.129941,105.150114 102.556548,94.5435714 L102.556548,94.55795 Z M92.069881,103.971121 L94.3170238,107.359671 C93.4863492,111.673243 90.1156349,131.012421 86.8265476,133.451986 L86.8265476,132.699507 C83.436627,126.291457 89.8803571,108.193629 92.069881,103.971121 L92.069881,103.971121 Z M92.8189286,114.515407 C94.9412302,117.276093 97.0635317,128.414693 99.1858333,131.199343 L97.6877381,134.587893 L93.5679762,130.820707 L91.3208333,127.432157 C91.8201984,125.922407 92.3195635,116.020364 92.8333333,114.510614 L92.8189286,114.515407 Z M102.931071,114.894043 C108.64496,121.469843 97.8029762,145.448507 95.4405952,150.020893 L94.6915476,149.64705 L89.8227381,139.860036 L92.4444048,137.223964 L92.8333333,137.223964 L95.0804762,141.364993 L96.2040476,140.612514 C97.932619,135.426643 100.996032,120.4921 102.916667,114.88925 L102.931071,114.894043 Z M91.6953571,130.446864 L94.3170238,133.461571 C92.6412698,135.896343 86.1543254,142.337943 84.204881,140.612514 L82.3322619,139.4814 L91.6953571,130.446864 Z M104.054643,136.09285 C111.030777,140.135234 116.63856,146.165074 120.159167,153.409443 L119.410119,153.409443 L115.664881,153.783286 C112.612696,147.961405 108.095211,143.032589 102.556548,139.4814 L104.054643,136.09285 Z M20.1517063,136.471486 L23.1478968,136.850121 C24.2345895,137.376104 25.0511947,138.332002 25.3998413,139.486193 L25.0253175,141.364993 C23.9461031,142.936918 22.0100237,143.685189 20.1517063,143.248586 C20.6318651,144.125679 21.1552381,145.002771 21.6546032,145.884657 C30.1342063,146.239329 48.8892063,137.113729 43.7419048,156.428943 C42.1673775,158.056433 40.015367,159.00139 37.7495238,159.060221 C36.0389706,157.781973 34.524859,156.260926 33.2552381,154.54535 L31.7571429,155.297829 L31.7571429,158.672 C33.5988545,161.656651 36.8594208,163.474469 40.3711905,163.474469 C43.8829602,163.474469 47.1435264,161.656651 48.9852381,158.672 L55.7074603,147.375236 C70.3378968,128.419486 86.0342857,141.719664 94.2882143,156.414564 L92.0410714,159.424479 L91.2920238,159.045843 L85.2996429,150.011307 C67.4569444,124.072364 55.5538095,162.549421 44.4861508,166.949264 C40.034902,169.282392 34.5649651,168.301649 31.2054246,164.56807 C27.8458841,160.834492 27.4541219,155.300918 30.254246,151.132836 C32.5180908,150.219588 35.0228207,150.088 37.3701984,150.758993 L37.7447222,154.900021 L38.4937698,155.278657 L40.7409127,153.7737 L40.7409127,150.768579 C34.8685714,142.40025 11.9553968,158.57135 16.7665873,139.102764 L20.1517063,136.471486 Z M167.353968,136.471486 C169.779148,136.275151 172.150703,137.256299 173.725675,139.107557 C178.464841,157.847629 160.564524,145.458093 154.245635,147.010979 L149.751349,150.773371 L150.125873,153.409443 L151.623968,155.288243 L152.74754,154.909607 C152.8294,153.466276 153.212079,152.055876 153.871111,150.768579 C156.622986,149.619081 159.803705,150.378895 161.736111,152.647379 C163.411421,157.030621 162.228589,161.990711 158.754509,165.150441 C155.280428,168.310171 150.223011,169.025683 146.006111,166.954057 C136.297302,163.038293 134.731984,150.274914 126.530873,144.74875 C122.444722,141.992857 113.897897,143.478643 111.165794,139.855243 L111.165794,139.476607 C133.805278,133.212343 133.373135,153.510093 144.503214,161.686707 C146.598112,163.341736 149.294219,164.040021 151.930984,163.610479 C154.567748,163.180937 156.901547,161.663256 158.360595,159.429271 C158.974372,158.270809 159.108828,156.918365 158.735119,155.662086 L157.611548,154.157129 L156.8625,154.535764 C156.47097,157.28136 154.015427,159.254792 151.244643,159.050636 C143.442063,156.395393 145.434722,145.942171 151.99369,143.617636 C158.845556,141.187657 162.749246,146.536486 168.472738,145.875071 C169.462415,145.321321 170.151364,144.353973 170.350159,143.239 C168.594721,143.7223 166.735892,142.944081 165.851071,141.355407 L165.851071,138.345493 C166.355238,137.717629 166.859405,137.094557 167.353968,136.466693 L167.353968,136.471486 Z M104.80369,143.622429 L108.164802,145.879864 L106.666706,147.384821 C103.319712,154.91057 98.1760414,161.502904 91.685754,166.585007 L89.8131349,163.575093 C95.445,157.422317 100.465382,150.738505 104.80369,143.617636 L104.80369,143.622429 Z M76.7144048,144.374907 L80.4596429,146.2585 L78.2125,148.515936 C75.7684921,153.634707 69.1663095,158.820579 71.4902778,167.337486 L67.3657143,164.327571 C67.4761508,154.588486 73.0411905,150.428286 76.7144048,144.389286 L76.7144048,144.374907 Z M65.0993651,154.919193 L68.0955556,155.297829 C67.6153968,156.553557 67.0968254,157.804493 66.5974603,159.060221 L63.6012698,159.438857 L63.6012698,160.943814 C66.5830556,164.81165 69.7328968,171.569579 77.8379762,169.97835 C80.2467986,168.960813 82.7579757,168.204009 85.3284524,167.720914 L86.0775,171.109464 C69.1278968,176.860893 63.3659921,170.630179 57.9834127,156.807579 L57.9834127,156.414564 L65.0993651,154.919193 Z M117.5375,154.919193 C122.571485,154.906448 127.593345,155.412379 132.523254,156.428943 L132.523254,156.802786 C131.095059,162.193659 128.097332,167.040682 123.909206,170.730829 C124.205802,166.887917 125.353817,163.15874 127.270317,159.8127 L126.895794,159.060221 C117.412659,158.580936 109.797341,159.764771 105.543135,165.458686 L104.419563,164.332364 L102.546944,163.20125 C106.460238,158.005793 111.108175,157.809286 117.5375,154.909607 L117.5375,154.919193 Z M74.8417857,155.671671 C91.6473413,156.82675 94.2257937,173.884529 91.3208333,189.926221 L90.9463095,189.926221 C82.5003175,186.269271 74.1791667,182.382264 69.9681746,174.493221 C70.0930159,174.363814 70.2226587,174.2392 70.3426984,174.114586 C77.7083333,176.741071 80.9494048,182.401436 88.3246429,184.280236 L88.6991667,183.9016 C89.6162698,172.2933 87.1674603,165.056086 79.7105952,160.939021 L73.7182143,158.681586 L74.8417857,155.671671 Z M119.016389,160.191336 L122.766429,160.191336 L122.766429,160.943814 C128.797222,175.188186 108.217619,186.494536 99.5411508,189.931014 L99.166627,189.552379 C97.3157763,182.775927 97.3157763,175.628481 99.166627,168.852029 L100.290198,169.97835 L102.162817,170.730829 C101.346655,175.21056 101.346655,179.800504 102.162817,184.280236 L102.537341,184.280236 C113.422436,181.667981 120.554336,171.248565 119.035595,160.176957 L119.016389,160.191336 Z M98.4175794,161.696293 C103.675317,164.313193 108.284841,171.996143 117.14377,169.599714 C116.524365,170.980057 115.895357,172.3604 115.271151,173.740743 C105.624762,173.850979 101.490595,168.530907 96.1704365,164.332364 L98.4175794,161.696293 Z" id="Shape" fill="#0C0B12"></path>
                </g>
            </g>
        </g>
    </g>
</svg>