<svg id="snap" xmlns="http://www.w3.org/2000/svg" width="25" height="25" viewBox="0 0 25 25">
<defs>
    <style>
      .cls-1 {
        fill: #0c0b12;
      }

      .cls-2 {
        fill: #fff;
        fill-rule: evenodd;
        opacity: 0.8;
      }
    </style>
  </defs>
  <circle class="cls-1" cx="12.5" cy="12.5" r="12.5"/>
  <path class="cls-2" d="M0,13V12c0.021-.243.038-0.487,0.063-0.73A12.489,12.489,0,0,1,4.7,2.744,12.282,12.282,0,0,1,11.449.054L12.056,0h0.889c0.068,0.009.136,0.023,0.2,0.026A11.587,11.587,0,0,1,15.638.4a12.341,12.341,0,0,1,6.5,4.158,12.228,12.228,0,0,1,2.8,6.874C24.963,11.624,24.982,11.812,25,12v1c-0.008.05-.019,0.1-0.024,0.149-0.038.386-.062,0.774-0.116,1.159a12.008,12.008,0,0,1-1.679,4.676,12.417,12.417,0,0,1-5.546,4.909,12.135,12.135,0,0,1-4.043,1.055c-0.188.016-.376,0.035-0.564,0.053H11.944c-0.271-.026-0.541-0.051-0.812-0.08a12.041,12.041,0,0,1-4.057-1.161,12.421,12.421,0,0,1-5.391-5A12.189,12.189,0,0,1,.054,13.592C0.037,13.394.018,13.2,0,13ZM17.22,6.778c-0.3-.2-0.585-0.414-0.892-0.588a6.472,6.472,0,0,0-3-.8,5.589,5.589,0,0,0-2.419.388A4.03,4.03,0,0,0,8.7,7.852a3.92,3.92,0,0,0-.288,2.1,3.243,3.243,0,0,0,1.712,2.617,9.087,9.087,0,0,0,1.969.737,7.619,7.619,0,0,1,1.516.526,1.38,1.38,0,0,1-.3,2.633,3.3,3.3,0,0,1-2.289-.308c-0.365-.189-0.712-0.413-1.075-0.607a0.845,0.845,0,0,0-1.114.2c-0.335.487-.647,0.99-0.981,1.5,0.046,0.038.09,0.071,0.131,0.108a5.725,5.725,0,0,0,1.582.988,6.925,6.925,0,0,0,4.457.481,4.217,4.217,0,0,0,3.368-4.083,3.613,3.613,0,0,0-.209-1.459,3.344,3.344,0,0,0-1.75-1.828,16.926,16.926,0,0,0-2.356-.852A4.081,4.081,0,0,1,11.757,10a0.955,0.955,0,0,1-.395-0.568A1.241,1.241,0,0,1,12.22,7.95a2.814,2.814,0,0,1,1.853.044c0.414,0.155.805,0.369,1.2,0.565a0.788,0.788,0,0,0,1.162-.347C16.7,7.751,16.943,7.286,17.22,6.778Z"/>
</svg>
