<?xml version="1.0" encoding="utf-8"?>
<!-- Generator: Adobe Illustrator 22.0.0, SVG Export Plug-In . SVG Version: 6.00 Build 0)  -->
<svg version="1.1" id="snap" xmlns="http://www.w3.org/2000/svg" xmlns:xlink="http://www.w3.org/1999/xlink" x="0px" y="0px"
	 viewBox="0 0 25 25" style="enable-background:new 0 0 25 25;" xml:space="preserve">
<style type="text/css">
	.st0{fill:#0C0B12;}
</style>
<path class="st0" d="M17.2,6.8c-0.3-0.2-0.6-0.4-0.9-0.6c-0.9-0.5-1.9-0.8-3-0.8c-0.8-0.1-1.7,0.1-2.4,0.4c-1,0.4-1.8,1.1-2.2,2.1
	C8.4,8.5,8.3,9.2,8.4,10c0.1,1.1,0.7,2.1,1.7,2.6c0.6,0.3,1.3,0.6,2,0.7c0.5,0.1,1,0.3,1.5,0.5c0.7,0.3,1,1.1,0.7,1.8
	c-0.2,0.4-0.6,0.7-1,0.8c-0.8,0.2-1.6,0.1-2.3-0.3c-0.4-0.2-0.7-0.4-1.1-0.6c-0.4-0.2-0.8-0.1-1.1,0.2c-0.3,0.5-0.6,1-1,1.5
	c0,0,0.1,0.1,0.1,0.1c0.5,0.4,1,0.7,1.6,1c1.4,0.7,3,0.8,4.5,0.5c1.9-0.4,3.3-2.1,3.4-4.1c0-0.5,0-1-0.2-1.5
	c-0.3-0.8-0.9-1.5-1.8-1.8c-0.8-0.3-1.6-0.6-2.4-0.9c-0.5-0.1-0.9-0.3-1.3-0.6c-0.2-0.1-0.3-0.3-0.4-0.6c-0.2-0.6,0.2-1.3,0.9-1.5
	c0.6-0.2,1.3-0.2,1.9,0c0.4,0.2,0.8,0.4,1.2,0.6c0.4,0.2,0.9,0.1,1.1-0.2c0,0,0.1-0.1,0.1-0.1C16.7,7.8,16.9,7.3,17.2,6.8z"/>
</svg>
