<?xml version="1.0" encoding="utf-8"?>
<!-- Generator: Adobe Illustrator 22.0.0, SVG Export Plug-In . SVG Version: 6.00 Build 0)  -->
<svg version="1.1" id="vk" xmlns="http://www.w3.org/2000/svg" xmlns:xlink="http://www.w3.org/1999/xlink" x="0px" y="0px"
	 viewBox="0 0 25 25" style="enable-background:new 0 0 25 25;" xml:space="preserve">
<style type="text/css">
	.st0{fill:#0C0B12;}
</style>
<path id="_" class="st0" d="M20.4,8.8c0,0-0.1-0.3-0.8-0.2l-2.4,0c-0.1,0-0.2,0-0.3,0.1c-0.1,0.1-0.2,0.2-0.2,0.3
	c-0.3,0.6-0.6,1.3-0.9,1.9c-1.1,1.8-1.5,1.9-1.7,1.8c-0.4-0.3-0.3-1.1-0.3-1.6c0-1.8,0.3-2.5-0.5-2.7c-0.4-0.1-0.8-0.1-1.1-0.1
	c-0.7-0.1-1.4,0-2,0.2C9.8,8.5,9.6,8.8,9.7,8.8c0.3,0,0.5,0.2,0.7,0.4c0.2,0.3,0.2,0.7,0.2,1.1c0.1,2.1-0.3,2.3-0.3,2.3
	c-0.3,0.2-0.9-0.1-1.7-1.8C8.3,10.2,8,9.6,7.8,9c0-0.1-0.1-0.2-0.2-0.3C7.4,8.6,7.3,8.6,7.2,8.6l-2.3,0c-0.2,0-0.3,0-0.5,0.2
	C4.3,8.9,4.3,9,4.4,9.2c0.9,2.3,2.2,4.4,3.8,6.3c0,0,1.9,2,4,1.8h1c0.2,0,0.3-0.1,0.4-0.2c0.1-0.1,0.1-0.3,0.1-0.4
	c0-1.3,0.6-1.5,0.6-1.5c0.6-0.2,1.3,1.2,2.1,1.8c0.3,0.2,0.7,0.3,1.1,0.3l2.1,0c0.3,0.1,0.6-0.1,0.7-0.4c0-0.2,0-0.4-0.1-0.5
	c-0.4-0.7-1-1.3-1.6-1.9c-1.3-1.2-1.2-1,0.5-3.2C20.2,10,20.5,9.2,20.4,8.8z"/>
</svg>
