<svg id="vk" xmlns="http://www.w3.org/2000/svg" width="25" height="25" viewBox="0 0 25 25">
<defs>
    <style>
      .cls-1 {
        fill: #fff;
        opacity: 0.8;
      }

      .cls-2 {
        fill: #0c0b12;
        fill-rule: evenodd;
      }
    </style>
  </defs>
  <circle class="cls-1" cx="12.5" cy="12.5" r="12.5"/>
  <path id="_" data-name="" class="cls-2" d="M20.421,8.833S20.3,8.5,19.575,8.59l-2.413.017a0.549,0.549,0,0,0-.318.05,0.5,0.5,0,0,0-.209.26,15.454,15.454,0,0,1-.9,1.885c-1.072,1.826-1.508,1.927-1.684,1.809-0.41-.26-0.3-1.056-0.3-1.625,0-1.776.268-2.513-.528-2.706a4.438,4.438,0,0,0-1.131-.109,5.236,5.236,0,0,0-2,.2c-0.276.134-.486,0.436-0.36,0.452a1.113,1.113,0,0,1,.712.36,2.479,2.479,0,0,1,.243,1.1c0.092,2.086-.335,2.346-0.335,2.346-0.327.176-.9-0.117-1.734-1.843a16.8,16.8,0,0,1-.863-1.793,0.616,0.616,0,0,0-.2-0.268,0.874,0.874,0,0,0-.369-0.151l-2.3.017a0.605,0.605,0,0,0-.478.159,0.38,0.38,0,0,0-.008.41A22.232,22.232,0,0,0,8.24,15.485s1.868,1.952,3.987,1.818h0.963a0.723,0.723,0,0,0,.444-0.184,0.642,0.642,0,0,0,.126-0.427c-0.017-1.29.586-1.483,0.586-1.483,0.586-.184,1.34,1.248,2.145,1.8a1.787,1.787,0,0,0,1.072.327l2.145-.034a0.589,0.589,0,0,0,.595-0.947A7.081,7.081,0,0,0,18.7,14.5c-1.34-1.248-1.164-1.047.461-3.209C20.153,9.981,20.546,9.177,20.421,8.833Z"/>
</svg>
