<?xml version="1.0" encoding="utf-8"?>
<!-- Generator: Adobe Illustrator 22.0.0, SVG Export Plug-In . SVG Version: 6.00 Build 0)  -->
<svg version="1.1" id="youtube" xmlns="http://www.w3.org/2000/svg" xmlns:xlink="http://www.w3.org/1999/xlink" x="0px" y="0px"
	 viewBox="0 0 25 25" style="enable-background:new 0 0 25 25;" xml:space="preserve">
<style type="text/css">
	.st0{fill:#0C0B12;}
</style>
<path id="_" class="st0" d="M11.3,14.9v-4.2l4.1,2.1L11.3,14.9z M12.9,7.7L12.9,7.7c-3.2,0-5.3,0.2-5.3,0.2C7,7.9,6.5,8.1,6.1,8.5
	C5.8,8.9,5.6,9.4,5.5,10c-0.1,0.8-0.1,1.6-0.2,2.4v1.1c0,0.8,0.1,1.6,0.2,2.4c0,0.5,0.2,1.1,0.6,1.5c0.5,0.4,1,0.6,1.7,0.6
	c0,0,1.2,0.1,5.1,0.2l0,0c3.2,0,5.3-0.2,5.3-0.2c0.6,0,1.1-0.2,1.5-0.6c0.3-0.4,0.6-0.9,0.6-1.5c0.1-0.8,0.1-1.6,0.2-2.4v-1.1
	c0-0.8-0.1-1.6-0.2-2.4c0-0.5-0.2-1.1-0.6-1.5c-0.4-0.4-0.9-0.6-1.5-0.6C18.1,7.9,16,7.7,12.9,7.7z"/>
</svg>
