<svg id="youtube" xmlns="http://www.w3.org/2000/svg" width="25" height="25" viewBox="0 0 25 25">
<defs>
    <style>
      .cls-1 {
        fill: #fff;
        opacity: 0.8;
      }

      .cls-2 {
        fill: #0c0b12;
        fill-rule: evenodd;
      }
    </style>
  </defs>
  <circle class="cls-1" cx="12.5" cy="12.5" r="12.5"/>
  <path id="_" data-name="" class="cls-2" d="M11.318,14.927V10.713l4.055,2.119Zm1.55-7.221h0c-3.158,0-5.252.151-5.252,0.151a2.124,2.124,0,0,0-1.508.637,2.635,2.635,0,0,0-.595,1.491,20.289,20.289,0,0,0-.151,2.429v1.139a20.29,20.29,0,0,0,.151,2.429,2.676,2.676,0,0,0,.595,1.491,2.533,2.533,0,0,0,1.659.637s1.2,0.117,5.1.151h0c3.158,0,5.252-.159,5.252-0.159a2.143,2.143,0,0,0,1.508-.628,2.676,2.676,0,0,0,.595-1.491,20.284,20.284,0,0,0,.151-2.429V12.413a20.283,20.283,0,0,0-.151-2.429,2.634,2.634,0,0,0-.595-1.491,2.124,2.124,0,0,0-1.508-.637S16.026,7.706,12.868,7.706Z"/>
</svg>
