<svg xmlns="http://www.w3.org/2000/svg" viewBox="0 0 33.48 32.84"><defs><style>.cls-1{fill:#b32d27;fill-rule:evenodd;}</style></defs><title>8_l_u</title><g id="Layer_2" data-name="Layer 2"><g id="Layer_1-2" data-name="Layer 1"><path class="cls-1" d="M19.53,7.34v.95c0,.66.38.11.38,1.5.86.57,2.77,1.2,3.1,1.84.45.87,1.36,2.49,2.44,2.49,2.36,0,2.34-1.42,3-2.89C29,10,31.38,11.07,31.38,8.1c0-1.64-1.28-2.1-1.53-3h-.57c-1.67,0-1.33-3-3.64-3h-.19c-2.43,0-2.09,1.72-2.91,2.6s-3,.81-3,2.67M24.88,3.2H26c.62,0,1.33,1.16,1.33,1.7,0,.37-.7.21-.34,1.78L28.51,6c.75.35,2.1.63,2.1,1.88,0,2.33-1.71,1.69-3.63,1.69a6,6,0,0,1,.38,2.07c0,.78-1.24,1.51-2.1,1.51a4.06,4.06,0,0,1-1.72-2.45c0-1.07.74-.27.77-1.69-.72.06-4,1.81-4-.75,0-4.16,5.34.24,3.25-2.83,0-1,.18-2.26,1.34-2.26"/><path class="cls-1" d="M2,7.72c.71,3,1,1.61,2.1,3.2H5c.74,1.1,1,3,2.86,3h1c.76,0,.95-.38,1.72-.56.33-3.93,3.82-1.73,3.82-5.46V7.72c0-1.78-1.87-2.12-2.91-2.78-1.33-.85-.19-2.87-3-2.87S6.12,3.92,5.17,4.87C4,6,3.42,5,2,7.72m7.93-1.5.29.56C14.36,4.8,15,10,11.31,10A3.35,3.35,0,0,1,10,9.6c0,1.27.39,1.4.39,1.89a1.9,1.9,0,0,1-1.91,1.69c-1.2,0-2.11-.58-2.11-1.69,0-.78.36-.9.39-1.89A3.14,3.14,0,0,1,5.2,10H4.62C4.07,10,2.9,8.58,2.9,8.1c0-.69.23-.66.39-1.32C4,6.72,4.42,6.4,4.81,6.4A4,4,0,0,1,6.56,7l.55-.4c-.1-.15-1-1.29-1-1.32A2,2,0,0,1,8.25,3.2a19.29,19.29,0,0,1,1.84.58Z"/><path class="cls-1" d="M2.14,1.69C2,1.14,1.86.75,1.18.75s-.73.54-.95.94C.38,2,1.37,3.16,1.37,3.2c0,.88-1,1.71-1,2.26v.19a1.12,1.12,0,0,0,.19.75c-1.8,3.36,1,5.53,1,6.78,0,.37-.59.38-.86.66s-.31.69-.48,1c.14.21.45.75.76.75,1.22,0,1.16-.94,2.1-.94,1.23,0,1.8.85,2.74,1.06a12.91,12.91,0,0,0,3.38.07H9.4a1.19,1.19,0,0,1,.77.18c.73-.38,1.25-.35,2-.69.33-.15,1.53-1,1.66-1,.81,0,.58,1.13,1.53,1.13h.19c.46,0,.95-.85.95-.94,0-1.12-1.34-1-1.34-1.51,0-1.06,1.48-2.23,1.42-5S15.36,4.6,14.94,2.82c.49-.12,1-.36,1-.94V1.69c0-.66-.6-1.31-1-1.31-1.06,0-.8,1.13-1.33,1.13C12.36,1.51,10.4-.23,8,.15A18.27,18.27,0,0,0,4.9.64c-1.19.34-1.48,1-2.76,1M11.69,14.5c-1.15,0-4.16.67-5.08.5A33.38,33.38,0,0,1,3,13C1,11.34.78,7,2.07,4.26,2.86,2.63,7.62.62,10,1.44a12.13,12.13,0,0,1,3.81,1.89,12,12,0,0,1,1.67,4V8.85c0,3.53-2.73,4-3.83,5.65"/><path class="cls-1" d="M20.29,1.7c-.47-.31-1-1.32-1.33-1.32-.75,0-1.07.82-1.34,1.32.34.22,1.34.57,1.34.94a9.42,9.42,0,0,1-1.18,3c-1,1.53,0,2.63,0,3.24v.57a1.12,1.12,0,0,1-.19.75,24.43,24.43,0,0,1,1.53,3c0,.76-1,.75-1,1.51v.19a.73.73,0,0,0,.77.75h.38c.7,0,.44-.57,1.15-.57h.38c1,0,2.85,1.32,4.78,1.32h.76c2,0,2.73-1.35,4.59-1.5.25.46.43.94,1.14.94a1.6,1.6,0,0,0,1.34-1.32v-.19c0-.8-1-.69-1.53-1.51a7.71,7.71,0,0,0,1.34-3.2V7.72A17.45,17.45,0,0,0,32,3V2.45c.55-.13,1.15-.29,1.15-.94A1.17,1.17,0,0,0,32,.19c-.26,0-.1.2-.76.38v.75c0,1.4-2.63-1.32-4-1.32h-.38a10.6,10.6,0,0,0-6.5,1.7M18.77,5.08C19.47,4.9,20,3.27,21.4,2.4a9.35,9.35,0,0,1,3.74-1.17c4,.59,4.8,1,6.62,3.67v.94a3,3,0,0,1,.76,1.69v1.7c0,.57-1.71,3.86-2.31,4.12-.8.35-1.77,1-2.12,1.11-.83.25-2.11.07-2.83.42l-.55-.41a6.37,6.37,0,0,1-3.27-.91c-1.47-.8-1.1-1.33-2-2.22-1.91-2-.77-4.18-.72-6.26"/><path class="cls-1" d="M8.63,30.72a3.74,3.74,0,0,0,2.25-.8c1.28-1.05.59-.88,1.11-2.1.36-.84,2.95-.44,2.95-3.31a3.07,3.07,0,0,0-3-3.24l-.42-.34c.42-2-2.24-3.35-3.94-2.38C6.59,19.1,6.49,20,6,20.79c-.61,1.05-1.33.91-2.33,1.48-1.46.84-.78,4.61.62,5,2.14.58,1.22-.37,2.19,1.61a11.11,11.11,0,0,0,2.14,1.84m2.29-9.41L10.34,23l2.88-.34c.71,1,1.19.68,1.33,2.44a4,4,0,0,1-2.48,1.13c-.39,0-.85-.32-1.53-.37,0,1.07.57,1.09.57,1.88,0,1.42-1.54,1.53-2.42,2l-2.13-2,.16-.16C7,27.08,7.9,26,7.24,25.71c0,0-1.87.59-2,.68-.75-.39-1.53-.54-1.53-1.69v-.38a1.84,1.84,0,0,1,1.91-1.69c.83,0,1.08.39,1.72.56a2.69,2.69,0,0,0,.19-.38c0-1.34-.76-.54-.76-1.88,0-.74,1-1.38,1.53-1.69,3.08.7,1.7.69,2.67,2.07"/><path class="cls-1" d="M3.85,17.54c-1.26,0-.73-.75-1.72-.75-.48,0-1.14.41-1.14.94l.1.46,1.23,1.23C1,21.39.79,21.64.6,24.71s1.92,4.46,1.92,4.88v.19c0,1-1.34.57-1.34,1.51,0,.61.54.72,1.05,1.05l1.2-1.08-.15-.16a43.94,43.94,0,0,0,5.36,1.74l2.48-.24a18.79,18.79,0,0,1,3.24-1.31c.45,0,.74.71,1.53,1.13.6-.31,1-.41,1-1.32v-.19c0-.67-.7-.65-1.15-1.32a13.54,13.54,0,0,0,1.53-5.65,9.67,9.67,0,0,0-1.91-4.89c1.34-.89,1.51-.26,1.34-2.26-2.72-.63-1.84.75-2.68.75s-1.13-.88-2-1.07c-1-.22-2.12.06-3.15-.1-2.78-.44-3.82,1.17-5,1.17M9.59,31.48c-4.73,0-7.72-3.08-8-6.63-.37-4.92,3.22-6.81,7-7.68v.37c4.32-1,7.65,3.55,7.65,7.16a8.67,8.67,0,0,1-2,4.59,7.07,7.07,0,0,1-4.47,2.19Z"/></g></g></svg>