<svg xmlns="http://www.w3.org/2000/svg" viewBox="0 0 33.48 32.84"><defs><style>.cls-1{fill:#b32d27;fill-rule:evenodd;}</style></defs><title>8_l_d</title><g id="Layer_2" data-name="Layer 2"><g id="Layer_1-2" data-name="Layer 1"><path class="cls-1" d="M19.53,25.49c0,1.86,2.31,1.92,3,2.68s.48,2.59,2.91,2.59h.19c2.31,0,2-3,3.64-3h.57c.25-.91,1.53-1.37,1.53-3,0-3-2.41-1.92-2.94-3.13-.65-1.47-.63-2.9-3-2.9-1.08,0-2,1.63-2.44,2.49-.33.65-2.24,1.28-3.1,1.84,0,1.4-.38.84-.38,1.51v.94m5.35,4.14c-1.16,0-1.34-1.23-1.34-2.26,2.09-3.07-3.25,1.33-3.25-2.82,0-2.56,3.3-.81,4-.75,0-1.43-.77-.62-.77-1.7a4.09,4.09,0,0,1,1.72-2.45c.86,0,2.1.74,2.1,1.51A5.93,5.93,0,0,1,27,23.23c1.92,0,3.63-.63,3.63,1.7,0,1.25-1.35,1.53-2.1,1.88L27,26.16c-.36,1.57.34,1.41.34,1.78,0,.53-.71,1.69-1.33,1.69H24.88"/><path class="cls-1" d="M2,25.12C3.42,27.86,4,26.85,5.17,28c1,.94.46,2.79,3.28,2.79s1.68-2,3-2.86c1-.67,2.91-1,2.91-2.78v-.19c0-3.74-3.49-1.53-3.82-5.46-.77-.18-1-.57-1.72-.57h-1c-1.83,0-2.12,1.92-2.86,3h-1C3,23.51,2.66,22.1,2,25.12m8.14,3.94a18.89,18.89,0,0,1-1.84.57,2,2,0,0,1-2.1-2.07s.86-1.16,1-1.31l-.55-.41a4,4,0,0,1-1.75.59c-.39,0-.84-.32-1.52-.37-.16-.66-.39-.64-.39-1.32,0-.49,1.17-1.88,1.72-1.88H5.2a3.14,3.14,0,0,1,1.53.37c0-1-.39-1.11-.39-1.88,0-1.11.91-1.7,2.11-1.7a1.9,1.9,0,0,1,1.91,1.7c0,.49-.39.62-.39,1.88a3.51,3.51,0,0,1,1.34-.37c3.71,0,3,5.18-1.14,3.2l-.29.55Z"/><path class="cls-1" d="M2.14,31.14c1.28,0,1.57.72,2.76,1a18.27,18.27,0,0,0,3.13.5c2.37.37,4.33-1.36,5.58-1.36.53,0,.27,1.13,1.33,1.13.36,0,1-.65,1-1.32V31c0-.57-.47-.81-1-.94.42-1.77,1.54-2.4,1.61-5.12s-1.42-4-1.42-5.05c0-.5,1.34-.38,1.34-1.5,0-.1-.49-.94-.95-.94h-.19c-.95,0-.72,1.13-1.53,1.13-.13,0-1.33-.85-1.66-1-.72-.34-1.24-.31-2-.69A1.18,1.18,0,0,1,9.4,17H9.21a12.88,12.88,0,0,0-3.38.06c-.94.21-1.51,1.07-2.74,1.07-.94,0-.88-.94-2.1-.94-.31,0-.62.54-.76.75.17.34.21.77.48,1s.86.29.86.66c0,1.24-2.76,3.42-1,6.77a1.14,1.14,0,0,0-.19.76v.19c0,.55,1,1.38,1,2.25,0,0-1,1.22-1.14,1.51.22.41.33.94,1,.94s.83-.38,1-.94m9.55-12.8c1.1,1.61,3.83,2.12,3.83,5.65v1.5a11.93,11.93,0,0,1-1.67,4A12.14,12.14,0,0,1,10,31.4c-2.42.82-7.18-1.19-8-2.83C.78,25.88,1,21.5,3,19.89a33.45,33.45,0,0,1,3.66-2.06c.92-.17,3.93.51,5.08.51"/><path class="cls-1" d="M20.29,31.14a10.67,10.67,0,0,0,6.5,1.7h.38c1.39,0,4-2.73,4-1.32v.75c.66.17.5.38.76.38a1.17,1.17,0,0,0,1.15-1.32c0-.65-.6-.82-1.15-.94v-.57a17.35,17.35,0,0,0,1.34-4.7V23.23A7.82,7.82,0,0,0,32,20c.55-.81,1.53-.7,1.53-1.5v-.19A1.6,1.6,0,0,0,32.14,17c-.71,0-.89.47-1.14.94-1.86-.15-2.57-1.51-4.59-1.51h-.76c-1.93,0-3.82,1.32-4.78,1.32h-.38c-.71,0-.45-.56-1.15-.56H19a.73.73,0,0,0-.77.75v.19c0,.76,1,.74,1,1.51a25.15,25.15,0,0,1-1.53,3,1.12,1.12,0,0,1,.19.75V24c0,.6-1,1.7,0,3.23a9.48,9.48,0,0,1,1.18,3c0,.37-1,.72-1.34.94.27.5.59,1.32,1.34,1.32.32,0,.86-1,1.33-1.32m-1.52-3.39c-.05-2.08-1.19-4.29.72-6.25.85-.89.48-1.43,2-2.22a6.37,6.37,0,0,1,3.27-.91l.55-.41c.72.34,2,.17,2.83.42.35.1,1.32.76,2.12,1.11.6.26,2.31,3.55,2.31,4.12V25.3a3,3,0,0,1-.76,1.7v.94c-1.82,2.69-2.66,3.08-6.62,3.67a9.21,9.21,0,0,1-3.74-1.18c-1.41-.86-1.93-2.49-2.63-2.68"/><path class="cls-1" d="M8.63,2.11A11.18,11.18,0,0,0,6.49,4c-1,2,0,1-2.19,1.61-1.4.38-2.08,4.16-.62,5C4.68,11.14,5.4,11,6,12c.48.83.58,1.69,1.55,2.24,1.7,1,4.36-.39,3.94-2.37l.42-.34a3.08,3.08,0,0,0,3-3.24C14.94,5.45,12.35,5.85,12,5c-.52-1.22.17-1-1.11-2.11a3.81,3.81,0,0,0-2.25-.8m2.29,9.42c-1,1.38.41,1.36-2.67,2.07-.48-.32-1.53-.95-1.53-1.69,0-1.35.76-.54.76-1.89a3.2,3.2,0,0,0-.19-.37c-.64.17-.89.56-1.72.56A1.84,1.84,0,0,1,3.66,8.52V8.14c0-1.15.78-1.3,1.53-1.69.18.08,2,.67,2.05.67C7.9,6.8,7,5.76,6.72,5.32l-.16-.16L8.69,3.11c.88.49,2.42.59,2.42,2,0,.78-.54.81-.57,1.88.68-.06,1.14-.38,1.53-.38a4,4,0,0,1,2.48,1.13c-.14,1.77-.62,1.41-1.33,2.45l-2.88-.34.58,1.66"/><path class="cls-1" d="M3.85,15.3c1.19,0,2.23,1.61,5,1.17,1-.17,2.14.12,3.15-.11.84-.19,1.16-1.06,2-1.06s0,1.37,2.68.75c.17-2,0-1.38-1.34-2.26a9.71,9.71,0,0,0,1.91-4.9A13.62,13.62,0,0,0,15.7,3.24c.45-.66,1.15-.64,1.15-1.31V1.74c0-.91-.36-1-1-1.32-.79.41-1.08,1.13-1.53,1.13A18.83,18.83,0,0,1,11.12.23L8.64,0A43.94,43.94,0,0,0,3.28,1.74l.15-.17L2.23.5c-.51.32-1,.44-1,1.05,0,.94,1.34.46,1.34,1.51v.18C2.52,3.67.41,5.12.6,8.13S1,11.45,2.32,13.41L1.09,14.65l-.1.46c0,.53.66.94,1.14.94,1,0,.46-.75,1.72-.75M9.78,1.36a7.11,7.11,0,0,1,4.47,2.18,8.74,8.74,0,0,1,2,4.6c0,3.61-3.33,8.15-7.65,7.16v.37C4.82,14.8,1.23,12.9,1.6,8c.27-3.56,3.26-6.63,8-6.63Z"/></g></g></svg>