<svg xmlns="http://www.w3.org/2000/svg" viewBox="0 0 30.9 24.55"><defs><style>.cls-1{fill:#623c25;fill-rule:evenodd;}</style></defs><title>2_l_d</title><g id="Layer_2" data-name="Layer 2"><g id="Layer_1-2" data-name="Layer 1"><path class="cls-1" d="M4.75,15.43A2.73,2.73,0,0,0,3.09,16c1.26,0,2.26.69,2,1.6A2.2,2.2,0,0,1,3,19.29H2.65A2.55,2.55,0,0,1,0,16.66a3,3,0,0,1,.8-1.74A4.81,4.81,0,0,1,2.46,13.7a9.17,9.17,0,0,1,5.11-.42,9.69,9.69,0,0,1,4.26,1.52,9,9,0,0,1,1.59,1.28c.3.28,1.06,1.39,1.37,1.45v.35c0,.2.09.2.22.36,0,.7.44,1.27.44,1.75,0,2.49-1.93,4.56-5.08,4.56-.55,0-1.49-.29-1.54-.7a1.37,1.37,0,0,1-1.11-1.49V22c0-.48,1.24-1.49,1.88-1.49h.55c1.08,0,1.27.65,1.88,1,.87-1.44-.85-2.81-1.72-3.72a4,4,0,0,0-2.05-1.35c-.39-.16-.77-.44-1.16-.57a5.23,5.23,0,0,1-1.25-.41ZM7.06,15h.55c.1.18,2.44,1.12,2.92,1.54a7.85,7.85,0,0,1,2.15,2.15c.42.86,1.23,1.69.75,3,0,0-.92,1.06-1,1.12a3.54,3.54,0,0,1-1.7.58h-.45c-.48,0-1.1-.42-1.1-.79s.95-.09,1.1-.09c.32,0,.78-.28.78-.53v-.35c0-.32-.65-.56-1-.42L9.7,21l-1.06.89-.14.7a3,3,0,0,0,3.95.77c.9-.45,1.08-.48,1.5-1.35a4,4,0,0,0,.42-.89c.07-.25.16-.92.2-1-.54-.81-.12-1.45-.82-2.15-.5-.52-.65-1.13-1.36-1.73a6.38,6.38,0,0,0-1.84-1.34,19.54,19.54,0,0,1-2.29-1l-1.43-.32-.32.18c-.11-.1.18-.08-.22-.08H5.63c-.45,0,0,0-.24.1l-.32-.21-1,.28C3,13.47,1,15.64,1,16.66v.61c0,.51,1,1.32,1.88,1.32.4,0,.26-.08.73-.12l.52-.32,0-1.14a5.54,5.54,0,0,0-.88-.35H3c-.58,0-.75.63-.73,1l-.57-.49-.14-.61c.46-.68.86-1.68,2-1.83a6.64,6.64,0,0,1,1.65,0c.63.06,1.71.28,1.86.28"/><path class="cls-1" d="M2,4.6C4.3,4.37,4.3,4.06,4.3,2.33L3.73,2c.61-.22,2,.76,2.3,1.24A4.79,4.79,0,0,1,7,5.66c0,.8.44,2.58-.3,3.52s-1.08,1.88-2.79,1.91l0-.35.57-.5C4,9.5,4.54,8.63,2.53,8.55c-1,0-2.36.7-2.2,1.31-.95.51.42,2.28,1.5,2.76a7.62,7.62,0,0,0,4.7,0,5.73,5.73,0,0,0,3-2.34A5.43,5.43,0,0,0,10.71,6.8V6.45a2.8,2.8,0,0,0-.16-1.37,5.54,5.54,0,0,1-.4-1.44C9.62,3,8.85,1.55,7.83,1.36V1C7.56,1,6.74.53,6.33.37A5.72,5.72,0,0,0,4.42,0C2.28-.17,2.28.57.88.66c-.26.9-1,.52-.84,2.44.09.95,1.18,1.1,2,1.5M9.82,5.74c.56.84-.18,3.15-.53,3.7-1,1.65-1,1.49-2.65,2.63a5.16,5.16,0,0,1-4.52.06c-.89-.57-.84-.43-1.2-1.42s.52-1.08.74-1.55H2a3.05,3.05,0,0,0,.66-.08c1,.39.78.5,1.21,1.22-.36.19-.64.7-1,.7s-.66-.45-1-.08l.33.08c-.46.88,2.52,1.07,3.34.47a7.54,7.54,0,0,0,1.29-1.08c.4-.42.51-.86.89-1.31L8.1,7.75h.11L8.09,4.87l-.27-.25L7.23,2.78C6.89,2.6,6.45,2.42,6.4,2c-.62-.11-1.14-.59-1.72-.72-1.1-.24-1,0-2,0-.53.63-1.31.32-1.44,1.49.13.15.24.35.56.35s.17-.78,1.1-.78c.59,0,1,.22,1,.7v.26c-.53,0-.53.33-.66.53s-.55.26-1,.26A3.42,3.42,0,0,1,1.1,3.82c0-.58-.22-.49-.22-.62s0-.15.11-.26L.76,2.69.9,2c.34-.42.44-.75,1.07-1.06A4.57,4.57,0,0,1,3.75.4h.77A5.86,5.86,0,0,1,8.14,2.26,5.82,5.82,0,0,1,9.31,3.7c.24.52.39,1.47.73,1.78Z"/><path class="cls-1" d="M25.19,21.91c.29-1.84.67-1.84,2.83-1.84l.39.46c.28-.49-.93-1.61-1.53-1.82a8,8,0,0,0-3-.74c-1,0-3.21-.35-4.38.24s-2.33.86-2.37,2.21h.44l.62-.45c.92.37,2-.07,2.09,1.52,0,.8-.86,1.88-1.62,1.75C18,24,15.83,22.89,15.24,22a4,4,0,0,1,0-3.74,5.57,5.57,0,0,1,2.9-2.39A9.46,9.46,0,0,1,22.47,15h.43a5.55,5.55,0,0,1,1.7.12,9.93,9.93,0,0,0,1.78.32c.78.42,2.6,1,2.83,1.84h.44a13.08,13.08,0,0,0,.8,1.19,3.24,3.24,0,0,1,.4,1.52c.27,1.7-.65,1.7-.77,2.81-1.12.21-.65.81-3,.67-1.17-.07-1.36-.94-1.86-1.55m-1.42-6.22c-1-.44-3.9.14-4.59.42a6.94,6.94,0,0,0-3.26,2.11,2.81,2.81,0,0,0-.07,3.59c.71.7.53.67,1.76,1s1.34-.41,1.92-.58v-.27a1.33,1.33,0,0,1,.11-.52c-.5-.75-.63-.62-1.53-1-.23.29-.87.51-.87.79s.57.52.11.79l-.1-.26c-1.09.36-1.33-2-.58-2.65a7.15,7.15,0,0,1,1.33-1c.52-.32,1.08-.4,1.64-.7l1.65-.3,0-.09,3.59.09.31.22,2.29.47a1.3,1.3,0,0,0,1,.66c.14.49.74.9.9,1.36.3.87,0,.84,0,1.62-.78.42-.39,1-1.85,1.14-.18-.1-.43-.19-.43-.44s1-.14,1-.88a.77.77,0,0,0-.88-.79h-.32c-.05.42-.41.42-.65.53s-.33.44-.33.79a2,2,0,0,0,.33.88c.71,0,.59.17.76.17a.47.47,0,0,0,.32-.09l.32.19.88-.11a3,3,0,0,0,1.32-.85,2.74,2.74,0,0,0,.64-1.42V19.9c0-1.14-1.49-2.39-2.31-2.88a7.73,7.73,0,0,0-1.79-.92,12.26,12.26,0,0,1-2.21-.59Z"/></g></g></svg>