<svg xmlns="http://www.w3.org/2000/svg" viewBox="0 0 30.9 24.6"><defs><style>.cls-1{fill:#623c25;fill-rule:evenodd;}</style></defs><title>2_l_u</title><g id="Layer_2" data-name="Layer 2"><g id="Layer_1-2" data-name="Layer 1"><path class="cls-1" d="M4.75,9.12A2.67,2.67,0,0,1,3.09,8.5c1.26,0,2.26-.68,2-1.59A2.2,2.2,0,0,0,3,5.26H2.65A2.55,2.55,0,0,0,0,7.89,3,3,0,0,0,.8,9.62a4.57,4.57,0,0,0,1.66,1.22,9.17,9.17,0,0,0,5.11.43,9.69,9.69,0,0,0,4.26-1.52,9,9,0,0,0,1.59-1.28c.3-.28,1.06-1.39,1.37-1.46V6.66c0-.19.09-.19.22-.35,0-.7.44-1.28.44-1.75C15.45,2.07,13.52,0,10.37,0,9.82,0,8.88.29,8.83.7A1.37,1.37,0,0,0,7.72,2.19v.35C7.72,3,9,4,9.6,4h.55c1.08,0,1.27-.64,1.88-1,.87,1.43-.85,2.81-1.72,3.72A4,4,0,0,1,8.26,8.14c-.39.15-.77.44-1.16.57a5.23,5.23,0,0,0-1.25.41Zm2.31.44h.55c.1-.19,2.44-1.12,2.92-1.54a7.75,7.75,0,0,0,2.15-2.16c.42-.86,1.23-1.68.75-3,0,0-.92-1.06-1-1.12a3.54,3.54,0,0,0-1.7-.58h-.45c-.48,0-1.1.42-1.1.79s.95.09,1.1.09c.32,0,.78.28.78.52v.35c0,.33-.65.57-1,.43l-.33.2L8.64,2.63l-.14-.7a3,3,0,0,1,3.95-.77c.9.44,1.08.48,1.5,1.35a3.65,3.65,0,0,1,.42.89c.07.25.16.92.2,1-.54.81-.12,1.46-.82,2.16-.5.51-.65,1.13-1.36,1.72a6.4,6.4,0,0,1-1.84,1.35,19.54,19.54,0,0,0-2.29,1L6.83,11l-.32-.19c-.11.11.18.09-.22.09H5.63c-.45,0,0,0-.24-.1L5.07,11l-1-.28C3,11.08,1,8.9,1,7.89V7.28C1,6.77,2,6,2.87,6c.4,0,.26.08.73.12l.52.32,0,1.14a6.69,6.69,0,0,1-.88.35H3c-.58,0-.75-.63-.73-1l-.57.49L1.54,8c.46.68.86,1.67,2,1.83a6.64,6.64,0,0,0,1.65,0c.63-.06,1.71-.28,1.86-.28"/><path class="cls-1" d="M2,16.22C4.3,16,4.3,15.68,4.3,13.94l-.57-.32c.61-.22,2,.75,2.3,1.23A4.82,4.82,0,0,1,7,17.27c0,.81.44,2.59-.3,3.53s-1.08,1.88-2.79,1.91l0-.36.57-.5c-.47-.73.09-1.61-1.92-1.68-1,0-2.36.7-2.2,1.31-.95.5.42,2.27,1.5,2.75a7.55,7.55,0,0,0,4.7,0,5.76,5.76,0,0,0,3-2.33,5.46,5.46,0,0,0,1.16-3.47v-.35a2.81,2.81,0,0,0-.16-1.37,5.33,5.33,0,0,1-.4-1.44c-.53-.63-1.3-2.09-2.32-2.27v-.36c-.27,0-1.09-.48-1.5-.64a6,6,0,0,0-1.91-.33c-2.14-.21-2.14.53-3.54.62-.26.91-1,.53-.84,2.45.09.94,1.18,1.09,2,1.5m7.83,1.14c.56.83-.18,3.14-.53,3.69a6.07,6.07,0,0,1-2.65,2.63,5.12,5.12,0,0,1-4.52.06c-.89-.57-.84-.43-1.2-1.42s.52-1.07.74-1.54H2a2.51,2.51,0,0,0,.66-.09c1,.4.78.51,1.21,1.23-.36.19-.64.7-1,.7s-.66-.46-1-.09l.33.08c-.46.88,2.52,1.07,3.34.47A7.49,7.49,0,0,0,6.84,22c.4-.42.51-.87.89-1.32l.37-1.33h.11l-.12-2.89-.27-.25-.59-1.84c-.34-.18-.78-.35-.83-.8-.62-.12-1.14-.6-1.72-.73-1.1-.24-1,0-2,0-.53.63-1.31.31-1.44,1.49.13.15.24.35.56.35s.17-.79,1.1-.79c.59,0,1,.23,1,.7v.26c-.53,0-.53.34-.66.53s-.55.26-1,.26a3.42,3.42,0,0,1-1.11-.26c0-.58-.22-.48-.22-.61s0-.16.11-.27L.76,14.3l.14-.71c.34-.43.44-.76,1.07-1.07A4.74,4.74,0,0,1,3.75,12h.77a5.86,5.86,0,0,1,3.62,1.86,6.21,6.21,0,0,1,1.17,1.44c.24.52.39,1.47.73,1.79Z"/><path class="cls-1" d="M25.19,2.36C25.48,4.2,25.86,4.2,28,4.2l.39-.46c.28.49-.93,1.61-1.53,1.82a8,8,0,0,1-3,.74c-1,0-3.21.35-4.38-.24s-2.33-.86-2.37-2.21h.44l.62.45c.92-.37,2,.07,2.09-1.52,0-.8-.86-1.88-1.62-1.75-.63-.75-2.83.34-3.42,1.19a4,4,0,0,0,0,3.74,5.57,5.57,0,0,0,2.9,2.39,9.46,9.46,0,0,0,4.31.92h.43a5.55,5.55,0,0,0,1.7-.12,9.93,9.93,0,0,1,1.78-.32c.78-.42,2.6-1,2.83-1.84h.44a13.08,13.08,0,0,1,.8-1.19,3.24,3.24,0,0,0,.4-1.52c.27-1.7-.65-1.7-.77-2.81-1.12-.21-.65-.81-3-.67-1.17.07-1.36.94-1.86,1.55M23.77,8.58c-1,.44-3.9-.14-4.59-.42a6.94,6.94,0,0,1-3.26-2.11,2.81,2.81,0,0,1-.07-3.59c.71-.7.53-.67,1.76-.95s1.34.41,1.92.58v.27a1.33,1.33,0,0,0,.11.52c-.5.75-.63.62-1.53,1-.23-.29-.87-.51-.87-.79s.57-.52.11-.79l-.1.26c-1.09-.36-1.33,2-.58,2.65a7.15,7.15,0,0,0,1.33,1c.52.32,1.08.4,1.64.7l1.65.3,0,.09,3.59-.09L25.17,7l2.29-.47a1.3,1.3,0,0,1,1-.66c.14-.49.74-.9.9-1.36.3-.87,0-.84,0-1.62-.78-.42-.39-1-1.85-1.14-.18.1-.43.19-.43.44s1,.14,1,.88a.77.77,0,0,1-.88.79h-.32c-.05-.42-.41-.42-.65-.53s-.33-.44-.33-.79a2,2,0,0,1,.33-.88c.71,0,.59-.17.76-.17a.47.47,0,0,1,.32.09l.32-.19.88.11a3,3,0,0,1,1.32.85,2.74,2.74,0,0,1,.64,1.42v.61c0,1.14-1.49,2.39-2.31,2.88a7.73,7.73,0,0,1-1.79.92,12.26,12.26,0,0,0-2.21.59Z"/></g></g></svg>