<svg xmlns="http://www.w3.org/2000/svg" viewBox="0 0 27.06 26.93"><defs><style>.cls-1{fill:#7c6742;fill-rule:evenodd;}</style></defs><title>Asset 8</title><g id="Layer_2" data-name="Layer 2"><g id="Layer_1-2" data-name="Layer 1"><path class="cls-1" d="M18.09,13.18s0,0,0,.07-.14-.06-.17-.12.06-.06.11-.07.1,0,.09.12m-1.4-.59h-.07v.07h.06v-.06M14.46,10.5c0,.09.08.1.06.2s.09.13.13.19l.13.14s0,.09.06.14.17.15.24.23a.92.92,0,0,1,.17.25.88.88,0,0,0,.23,0,.77.77,0,0,0,0-.37c-.15,0-.14-.2-.24-.27s.08,0,.05-.09,0-.31,0-.43h0l0,0c-.16,0-.15.13-.27.15s0,.23,0,.34h.12s0,.09,0,.14S15,11.07,15,11a.43.43,0,0,1-.19-.28c-.13,0-.13-.18-.24-.23l0,0Zm-.08-.28c-.21,0-.17-.17-.31-.21s.06-.14.06-.25-.08-.11-.18-.12,0-.41-.19-.48c0-.11,0-.16,0-.27h.14a.42.42,0,0,0,.14.34c0-.12.07-.09.08-.18.22-.05.15.18.24.26s.1-.08.09-.18c.17,0,.2-.18.41-.14,0-.05,0,0,.05-.07s.15,0,.16,0l0,0V9s0,0-.07,0,.06,0,.09,0,0,0,0-.07h0V9c.25.07.36-.14.57-.18s.22.07.34,0c-.07.16-.27.18-.31.37h-.34s0-.1-.08-.09.12.35,0,.47-.21.12-.37.13c0,.09-.07,0,0,.13.21-.09.35,0,.59,0,0-.1.17-.05.27-.06s.34-.15.44-.3c.07,0,.07,0,.14,0a.34.34,0,0,1,.32-.16c0,.08-.08.08-.07.17a1.63,1.63,0,0,0-.61.52c-.08,0-.09,0-.16,0s-.19.16-.21.31c-.12,0-.1.08-.19.08l0,0h0c-.06-.15.05-.26.12-.34-.33,0-.72.09-1,0,0,0,0,.07,0,.13m.09-.6c-.07,0-.08.09-.05.13s0-.09.05-.13m-.35,1.07s-.07,0-.07,0-.09.09-.08.2.07,0,.07,0,.07-.07.12-.09-.08,0,0-.11m-.41,0c0-.06,0-.11,0-.13s0,.07-.09,0,.07,0,0,.09h.09m.39-.12c0,.08.13.17.15,0s-.06-.07-.08-.11-.05,0-.07.06M14,10.41c-.08,0-.08-.15-.18-.16v0l0,0c0,.09,0,.13,0,.21s.07,0,.07,0,.08-.08.12-.13m-.22-.28c-.07,0-.06.14,0,.14l0,0,0,0a.11.11,0,0,0,0-.12m.35.26c0-.29-.15-.36-.25-.52-.09,0-.06.11-.07.2.15.06.13.29.32.32m5.76-.64c-.09,0-.05.22,0,.27s.07-.07.11-.09a.33.33,0,0,0-.08-.18m-6.17-.39c-.06-.16,0-.4-.19-.46-.09.31.13.49.11.8.1,0,.11,0,.18,0a.44.44,0,0,0,0-.28s-.06,0-.06-.07m2.55-1.24c.27.13.55-.06.73-.17,0,0-.07,0,0-.09h-.09c-.08,0,0,.1-.1.09s0,0-.09,0,.11-.07.12-.15-.2-.12-.33-.1-.1,0-.16.06-.4-.07-.48,0,0-.08-.13,0c-.36.15-.63-.13-1,0,0,.07-.05,0-.09,0s-.12.13-.19.2.19.15.26.23.34-.05.41.06c-.19.07-.72.13-.83-.07a.32.32,0,0,0-.13.24h-.22c0,.11-.08.09-.05.2A.21.21,0,0,0,14,8.5a.26.26,0,0,0,.3.07c-.09.17.06.27,0,.5.16,0,.2-.08.3-.13a1.12,1.12,0,0,0,0-.2.67.67,0,0,0,.24-.26c.13,0,.31,0,.34-.08a.36.36,0,0,0,.32-.08c0-.09,0-.18-.13-.18A.16.16,0,0,1,15.39,8a.21.21,0,0,0,.22.08c0,.08-.08.09,0,.2s.28-.06.45,0c0-.08,0-.11,0-.18h-.27a1.09,1.09,0,0,1,.5-.1c-.07.08-.2.1-.15.25s.1,0,.14-.07m-2.46.59V8.64h-.06v.07h.07m-.1-.41c-.08,0,0,.09,0,.13h.09c0-.07,0-.12,0-.14m-.11-1.85c0,.08,0,.2-.05.22s.07,0,.06.09c-.16.14,0,.37-.09.52s.07.22,0,.29.11.11.13.19-.13.35,0,.45,0-.06.11,0,.16.11.27.05.16-.18.15-.38c-.2,0-.19-.13-.31-.17a3.85,3.85,0,0,1-.06-.92c.1-.11.16-.27.31-.33s0-.08,0-.14-.15,0-.27,0,.08-.3,0-.42l0,0h0c-.11.08-.21.42-.09.53s0,0-.07,0m6.28,1.74c-.06,0-.06.05-.09.06.1.19.34.09.54.07V8.18c-.06-.08-.31,0-.36.06s0-.08-.09-.05m.79-.67a1.11,1.11,0,0,1-.33.46c0,.07,0,.13,0,.2h0v0h.13c.08-.27.38-.3.36-.66a.4.4,0,0,0-.2,0m-6.14.09c0-.05,0,0,0,.07s0,0,0-.07m1.39-1c-.19,0-.47,0-.49-.17.23,0,.52,0,.65.09a1.25,1.25,0,0,1,.54.08s.16,0,.15.08-.21,0-.27.1.2,0,.22.14-.15.1-.27.08-.08.09-.1.16-.18,0-.22-.08h0c0-.18-.26-.06-.29-.19s-.1,0-.16.06.35,0,.38.13v0h0c-.12.14-.36,0-.54,0s-.12.1-.2.06a.2.2,0,0,1-.21.15c0,.3-.4.15-.69.15,0-.1-.11,0-.08-.16h0v0c.06,0,.08,0,.12-.06s-.07,0-.11-.05v.09h0v0c-.18,0-.21-.26-.18-.5.21-.08.28,0,.47,0V6.64c.3.05.61,0,.92,0,.07,0,.16.07.18.07s.1,0,.14,0,.23.17.33,0a1.89,1.89,0,0,0-.33-.15m-1.1.55c.06,0,.07-.15,0-.11v.11m-1.73.23c.08-.05.12-.23,0-.27s-.06.15-.07.24.06,0,.06,0m.22-.29c-.14,0,0,.24,0,.3s0,0,.07,0,0-.25-.06-.3h0m0-.06c.1,0,.07-.39.06-.54-.2,0-.14.46-.08.56h0m6.15.42c.1,0,0-.21-.06-.18s.06.1.06.18M13,7c.05,0,0,0,.07,0S13,7,13,7m2.1-.6s0,0,.06,0v0s0-.06.07,0-.06-.06-.11-.07,0,0,0,.05M14.5,6.2h0s-.07.08-.05.17c.19,0,.21.15.38.06v0l0,0a.29.29,0,0,0-.29-.19Zm.56.19a.51.51,0,0,0-.22,0v0l0,0s.26.06.25,0m-.73-.3c0,.08.09,0,.13.07v0l0,0V6h-.16v.07m8,.13c.12,0,.21,0,.21-.12s-.21,0-.21.12m-8.77-.84h.07V5.32h-.07v.06M13.76,5V4.92h-.13a.49.49,0,0,0,0,.12h.14M24,5c.08,0,.15,0,.11-.11A.17.17,0,0,0,24,5M13.74,4.17c0,.09,0,.22.11.19V4.18h-.12m4-.39a.12.12,0,0,0,.12.18c0-.12,0-.17-.12-.18m-3.15-.41h0V3.5h0l0,0c.07,0,.08-.08.07-.16s0-.07-.09-.05Zm.13-.45H14.6c-.07.15-.2.24-.24.44h.14v0h0c0-.15.17-.21.22-.35l0,0,0,0m.53-.18c-.2,0-.2.13-.26.24.14.06.29-.12.26-.24M22.05,3c-.06.06-.19,0-.17.19a.47.47,0,0,0,.28-.05c0-.06-.1-.08-.11-.14m-5.13-.51c0,.06,0,.11.11.12a.15.15,0,0,0,0-.16.12.12,0,0,0-.11,0m-3.63,6.6a.61.61,0,0,0,.12.5l0,0h0c0-.18,0-.41-.19-.48M13.21,9s.12-.08.14-.16-.08-.26-.12-.38h-.05c-.08.12,0,.34,0,.45h0V9s0,0,.05,0m.63-4.29c.11,0,.1-.21.21-.24V4.39h0l0,0c-.16,0-.12.21-.19.31h0v0m3.32,4.09c0,.16-.13.15-.16.27h.29c0-.09.08-.09.07-.18l0,0v0c-.08,0-.1,0-.18,0m2,.89s-.11.06-.12.13,0,.07,0,.07h.09a.32.32,0,0,0,0-.18h0v0m-1-.26v0a.62.62,0,0,0-.15.52h0l0,0c.11,0,.1-.2.21-.24a.41.41,0,0,0,0-.11.89.89,0,0,0,.31-.58.34.34,0,0,0-.22,0c0,.19-.09.25-.19.31v0h0m-.34,3.71a.14.14,0,0,0-.17-.12v0l0,0s.14.12.2.05M16,12.38s-.07,0-.07.09,0,.07.06.09H16v0h0c0-.06,0-.14-.06-.14m-1.09-1c-.07,0,0-.08-.11,0a.66.66,0,0,0,0,.14c.18.15.29.36.5.49l0,0v-.16a1.15,1.15,0,0,1-.41-.38M22.58,10c-.09,0-.09-.08-.17-.07s0,.38.18.41l0,0h0c0-.14-.09-.18-.08-.32m-1-1.57,0,0a.45.45,0,0,0,.46.24v0l0,0a.59.59,0,0,0-.47-.25ZM17.52,3.48c.06,0,.07-.2,0-.19l0,0,0,0c0,.11.05.13.11.17M22.4,14.37c0-.12-.07-.15-.18-.13v.11c.07,0,.1,0,.18,0m.15.31c0-.09.2-.08.33-.08a.28.28,0,0,0,0-.18c-.22,0-.6-.08-.61.16.05.07.19.06.28.1m.85.46h-.07v0h.07v0m-5.62.66v0h-.05v0h.05m-2,1.16s0,.09,0,.13h.11c0-.1,0-.15-.12-.13m4.6.51v-.12c-.22,0-.29-.14-.52-.11v.11c.23,0,.32.19.52.12m3.44.77a1.47,1.47,0,0,0,.56-.67v-.09c-.18,0-.23.16-.38.22,0,.21-.27.31-.18.54m-.28-.35s0-.07,0-.11h-.13c0,.08.05.11.14.1m-.27.17h-.07v.05h.06v0m0,1.06h.18c0-.21-.07-.27-.08-.43s.09,0,.06-.09l0,0v0c-.17,0-.2.08-.29.12s-.07,0-.07-.08.05-.11.06-.16.14-.08.18-.15a.91.91,0,0,0-.39-.07s0,.13-.11.14-.08,0-.09-.11a.37.37,0,0,0-.29.08c0,.23.14.33.37.32a.32.32,0,0,0,.32.12c0,.16.24.13.17.38m-1-.48h-.14c0,.24.17.26.31.33,0-.17-.16-.17-.17-.33m-1.53.87A.71.71,0,0,1,20.6,19c-.13,0-.11-.11-.14-.2h-.07c-.05.06,0,.17-.08.25s0,0,0,0l0,0v0c.1,0,.1.06.16.08v.32c-.08,0,0,.07-.07.07a.88.88,0,0,0,.09.45.63.63,0,0,0,.15.4c.06,0,0-.17.06-.14a1.06,1.06,0,0,1,.1.33H21a.93.93,0,0,0,.16-.46,1.15,1.15,0,0,1-.36-.66m-.68-.18c0,.05,0,.14.07.13h0a.72.72,0,0,0,.1-.34l0,0v0c-.14,0-.17.05-.27.06a.25.25,0,0,0,.08.22m3.41.82a.85.85,0,0,0-.08-.42c.11-.09,0-.34.05-.52-.09,0-.07.08-.18.05s.06,0,0,.11a1.2,1.2,0,0,0,0,.84.28.28,0,0,0,.2-.06m-6.29-.4s0,0,0,0h-.05a.14.14,0,0,1,0,.07s.09,0,.09,0m-.38,0c-.05,0-.08.22,0,.2v0l0,0c0-.06,0-.2-.05-.18m.12.31c0-.06,0-.12-.07-.11v0h0s0,.11.09.09m4.44-.28c-.05,0,0-.09-.12-.08a.18.18,0,0,0,0,.13s.06.05.09.07.08,0,0-.12M18.7,20a.18.18,0,0,0-.1-.17c0,.08-.07.09,0,.2s.11,0,.13,0m4.05.17c-.18-.14-.3.1-.45.13s-.13-.15-.3-.12c0,0,0,.13,0,.13s-.24-.17-.32,0,.1.08.14.13.05.19.14.22.13-.11.18-.19a2.37,2.37,0,0,0,.49,0c0-.13.1-.13.13-.23m.15.49c.13,0,.21,0,.22-.12s-.2,0-.22.12m-.11.1V20.7q-.11,0-.09.09h.09m-.27.05h-.13s0,.07,0,.09.14,0,.15-.1M21,21.33c0-.21-.11-.25-.21-.33,0,.08-.09,0-.14.05s.09.2.09.36.11-.12.26-.08m-.31.75c.14,0,.23,0,.24-.16s-.1,0-.18,0a.15.15,0,0,1-.06.13m-.6.84c-.12,0-.18,0-.2.12s.08.05.14.06.08-.08.06-.18m0,2.57c.09,0,.1-.06.13-.12s-.06,0-.12,0,0,.08,0,.16m-.37-10.55V15h0v0h-.05m-3-1s0,.07.09,0v-.07s-.08,0-.09,0m.82,5.72s-.07,0-.14,0a.14.14,0,0,0,.14.13v-.12m.13-.27c-.06,0-.11,0-.12,0s.07.05.12.06v-.11m.08-.3a.41.41,0,0,1,0-.11h-.09c0,.08.07.06.1.11m-.71-.18v0h0v.05h0m1.18,7.7h-.07c0,.05,0,.06,0,.13l0,0,0,0h0c0,.06.07.1.07,0s0,0,0,0v-.07c.06,0,.05-.06.08-.09l0,0h0c.05,0,.07.09.14.11s.12-.16.2-.08c0-.1,0-.11,0-.18s-.3,0-.33.1h0m4.92-12.91.17-.09c.37,0,.47.31.73.44a.47.47,0,0,0,.28.35c0,.11.08.24,0,.28a.94.94,0,0,1-.25.55c0,.28-.25.4-.39.6,0,.13.19.18.26.26s0,.05,0,.07.06.11.14.15a.81.81,0,0,0,.08.38c0,.05,0,.08.05.18s.06,0,.07.06a1.69,1.69,0,0,1,0,.23c-.09,0,0,.09-.11.07S24.15,17,24,17s0-.26-.15-.29,0-.1,0-.15-.13-.1-.14-.2-.14-.08-.19-.15a.28.28,0,0,1-.3-.15c-.17,0-.22-.05-.32-.1s-.15-.28,0-.41.06.08.16,0,0-.1.06-.11.09.07.19.06.06.12.09.18.14-.05.2-.08,0-.12.09-.18l.06,0s0-.1,0-.13.09,0,.11-.08a.75.75,0,0,0,.08-.32c.13-.08.15-.27.16-.45-.19-.14-.25-.42-.49-.5,0-.1-.08-.07-.07-.16s-.13,0-.12-.08h-.23m-1.48.56.27-.07a.1.1,0,0,0,0,.08.63.63,0,0,1-.24,0M17,26.93l.05,0c.22,0,.28-.09.38-.17a2.44,2.44,0,0,1,0-.27c.05,0,.11,0,.13,0a2.53,2.53,0,0,0,0-.28c.05,0,.08,0,.07-.07H18a2.05,2.05,0,0,0,.39-.44v0h0c0,.07,0,.1,0,.16s.08-.1.08-.19h-.07v0h0a1.91,1.91,0,0,0,.06-.7c.09,0,0-.11.11-.07s-.08,0-.11,0,.05-.34-.08-.43a.68.68,0,0,0-.11-.4,2.32,2.32,0,0,1-.35-.35c-.17,0-.27-.11-.45-.12a3.4,3.4,0,0,1,0-1.15c.21,0,.16-.26.33-.3s0,.09.07.13,0-.1.09-.12.25-.08.28-.21.06.08.16,0c-.11-.19-.26.08-.47,0,0-.18.15-.15.24-.21s0-.2.06-.23-.08,0-.11,0v0l0,0c0-.07-.09-.11-.07-.23s-.13,0-.12-.08a.38.38,0,0,0,.31-.26c-.06-.11-.21-.14-.33-.19s.23-.18.29-.31.07,0,.15,0,0-.1,0-.14c.18,0,.24-.05.27-.17h.18v0h0v0c-.1,0-.14.08-.08.14-.16.09-.19.29-.3.42a.1.1,0,0,1,.11,0c0,.06.06.07.07.11s-.14.3-.16.46.07.14.12.2.11,0,.2,0a.6.6,0,0,0,.3.13c0,.06.08,0,.11.06s0,0,0,.05.13,0,.15,0,0,.05,0,.05a.56.56,0,0,1,.18,0v0c.06,0,.17,0,.16,0s-.19-.12-.17-.29v0l0,0c.09,0,.06-.17.09-.25h-.07c0,.15-.1.11-.06.25v.07c-.13.11-.24-.11-.34,0a.89.89,0,0,0-.14-.13c0,.08-.15.14-.2.06a.35.35,0,0,0,0-.16c-.07,0,0,.08-.11.05s-.07-.43.08-.46c0,.12.18.11.19.25,0,0,.1,0,.11-.1s-.08,0-.12,0-.05-.11-.07-.17c.09-.22,0-.57.22-.71a.31.31,0,0,1,.06-.28c-.1,0,0-.15,0-.22s0,0-.07,0-.16.11-.2.21.09,0,.08.11,0,.09-.11.09v0h0c-.08-.07-.1-.22-.14-.33s0-.08.08-.05-.05-.23,0-.23h.07a.15.15,0,0,0,.09,0s0-.09,0-.09-.09,0-.09,0h0A.43.43,0,0,1,19,19a1.55,1.55,0,0,1-.12-.22c0-.07.07-.1.11-.14s-.14,0-.19,0c0-.21.07-.36-.08-.47V18c-.15,0-.11.15-.22.19s.08.07.16.06c.06.22-.25.09-.26.26s0-.07.11,0-.05.2-.1.3.08-.08.18,0c0,.29-.3.32-.24.68-.1,0-.12.16-.22.19s0-.07-.05-.11.05.4-.21.39a.51.51,0,0,0-.08.46s.13,0,.14.1-.38.35-.42.09a.25.25,0,0,1-.19-.09c0-.06.08,0,0-.11s.21,0,.2-.08-.11,0-.2,0,.09-.1.06-.23h-.11v0l0,0c0-.07.08,0,.09-.07s0-.18-.14-.18,0-.18,0-.2,0,.15-.13.12,0-.09-.05-.13-.07.17-.15.21,0-.23-.13-.29a.52.52,0,0,0,.06-.37c.05-.06.16-.07.13-.2s-.26.06-.34.12c0,.27.06.59-.06.75.13.11.15.35.18.58s.38.26.49.48c.11,0,.2.07.21.19a1,1,0,0,1,.41.19c0,.09-.1.07-.15.07l-.25,0s0-.05,0-.05-.19,0-.21-.06a.65.65,0,0,1-.09-.15c-.22-.1-.5-.13-.63-.32-.29,0-.24-.29-.33-.46.09-.16,0-.54,0-.82,0,0,0,0,0,0s0-.11,0-.16a.4.4,0,0,0,0-.3c-.06,0-.19,0-.18-.15-.12,0-.11-.07-.21-.06-.18-.5-.62-.72-.87-1.14.07-.25.08-.56.31-.67,0-.15,0-.23.13-.27s.11-.18.14-.3a.36.36,0,0,0,.25,0,.59.59,0,0,1-.15-.27H15.5a.2.2,0,0,0-.14-.2c0-.24,0-.43-.22-.49,0-.07,0-.1,0-.16a.46.46,0,0,1-.2-.55H15a1,1,0,0,1,.52-.51.39.39,0,0,1,.31-.22c.08,0,.07.07.12.09s.07-.17.22-.14v.13c.11,0,0-.1,0-.19l.19-.09A7.06,7.06,0,0,0,19,14.4c-.05.13-.08.29-.32.24,0-.33-.33-.38-.62-.32a.4.4,0,0,1-.06.26c.07.05.07.17.08.29s0,.15.12.15a.12.12,0,0,0,0,.11h.27c0,.08.1,0,.08.11a1,1,0,0,1,.54.07c0-.15.11-.17.27-.17.05-.22.08-.47.14-.68h.37c0,.08,0,.11,0,.16a1.09,1.09,0,0,1,0,.18c0,.07.1.11.14.2s0,.2.1.24.17,0,.25-.05.27.05.43.05.11-.16.24-.17c0-.16.09-.25.05-.45a.46.46,0,0,0-.32-.19c-.14.1-.07.29-.24.32a.39.39,0,0,1-.18,0,.6.6,0,0,1-.08-.26,7.31,7.31,0,0,0,1.06-.15,2.25,2.25,0,0,0,.45,0c0,.06.12.06.12.15s.12.08.23.06v.18a.57.57,0,0,0,.41.08c.18.12.47,0,.68,0,0,.12-.07.14-.18.15s-.18.07-.31.08,0,.07-.09,0-.33,0-.41-.09,0,.1,0,.18h0c0,.06-.1.05-.09.14s-.18,0-.22,0c.06.39.39.49.57.75a.16.16,0,0,1-.06.18c.07.15.39.13.35.33-.12-.05-.27,0-.39-.06v0s-.13,0-.16,0,0,0,0,0-.05,0-.05-.07l-.16.12a1.48,1.48,0,0,1-.3-.26c-.06,0,0,.12,0,.2a2.86,2.86,0,0,1,.49.6.36.36,0,0,1-.19.23c0,.05.06.07.07.13a.22.22,0,0,1-.13.19c0,.08,0,.17,0,.2s-.25-.33-.53-.32a2.08,2.08,0,0,0,.64.95.55.55,0,0,1,0,.31.17.17,0,0,1-.27-.1c-.07,0,0,.08-.14.05s-.1-.24-.25-.26a.52.52,0,0,1-.22.28,1.65,1.65,0,0,1,.43.57c0,.05.1,0,.07.07s-.12,0-.16,0a.5.5,0,0,0-.08.41h0v0c-.08-.06-.19,0-.25,0a.52.52,0,0,1,0-.18c0-.06-.1,0-.14,0-.16-.17-.16-.52-.3-.71,0,0,0-.12.05-.1s-.05-.11-.1-.13,0,.11,0,.18-.14-.06-.14-.17-.22-.1-.28-.22h0l0,0c.19,0,.16-.25.33-.29V17.8c.17-.18.07-.46.11-.68s.14-.25.17-.37a.24.24,0,0,1-.05-.2c.09-.07,0-.32.1-.39a2.62,2.62,0,0,1-.07-.72c-.25,0-.59.05-.69-.13,0,0-.09,0-.15,0a.55.55,0,0,0-.17-.13,1.18,1.18,0,0,0-.19.73.39.39,0,0,1,.21.24c0,.05.13,0,.14.1l0,0,0,0a.39.39,0,0,1-.23-.06c-.16.05-.08.22-.08.39-.11,0-.1-.12-.2-.13s0,.26-.11.3-.1-.05-.14-.09c-.06.15-.24.18-.42.22s0,.06,0,.12.28.12.38,0c.12.16.24-.07.43,0a1.15,1.15,0,0,1,0,.27c-.19,0-.26.19-.24.41-.11.05-.13.18-.31.15A.21.21,0,0,0,19,18c.13.17.55,0,.79.08a.2.2,0,0,1,0,.21.7.7,0,0,1-.14.52.58.58,0,0,0-.31.12c0,.12.19.07.23.15.05-.07.29-.11.36,0s-.12,0-.18.05-.11.15-.26.15,0,.35-.05.45c.14.08.4,0,.54.11a.21.21,0,0,1-.08.21c.08.21.06.53.16.72s.35.09.37.3a.36.36,0,0,1,.18,0c0,.25.17.37.09.61-.09,0-.12,0-.18,0a1.19,1.19,0,0,1-.08.2.16.16,0,0,1-.16-.06.24.24,0,0,1-.27.12.28.28,0,0,0,.27.42.48.48,0,0,1,.24-.1c.06,0,.06-.11.15-.11a1.27,1.27,0,0,1,0,.2,1.87,1.87,0,0,0,.67-.12v-.11c-.1,0,0,.09-.13.07s-.16-.14-.21-.24.23-.18.37-.26,0-.26.15-.27a.74.74,0,0,0-.23-.67.8.8,0,0,0,.13-.28c.17,0,.21.08.32.12s.06.39-.05.48c0,.29.15.45.12.79.17.15.26.38.46.5a6.17,6.17,0,0,1-.06,1.29.86.86,0,0,0-.13.14h-.14a.83.83,0,0,0-.34.47c-.15.07-.17.25-.26.37l0,0,0,0a.53.53,0,0,1,.26-.53c0-.15.07-.19.05-.34a3.72,3.72,0,0,0-1-.06c-.26,0-.51,0-.75,0,0,.05,0,.12-.08.16s0-.16-.08-.2,0,0-.11,0,0,.08,0,.11a2.23,2.23,0,0,0-.27,0v.09s.1,0,.14,0c.09.25.29.68.13,1,0,.07.08,0,.09.09s0-.23.15-.21a3.53,3.53,0,0,1,0,.92s.05,0,.09,0,0-.34.12-.36,0,.18.1.18,0,0,0,.07a2,2,0,0,0,.32.1l.06-.14a1.18,1.18,0,0,1,.39.1c0-.07.14,0,.2-.08s.06-.1.08-.16h0l0,0c.32.19.11.95.77.78.18.13,0,.48.12.7a.25.25,0,0,0,.2,0l.09,0H17.87v0h0c0-.07.15-.05.12-.16-.19,0-.26-.07-.38-.12s-.09,0-.07.11.2-.05.25,0a.08.08,0,0,1,0,.11c.07,0,0,.08.09.05v0Zm3.73-.51c-.24.12-.57-.07-.87,0-.08,0-.08-.07-.16-.06s-.2,0-.27.05-.1.12-.18.1v0l0,0c-.08,0,0-.08-.1,0s0,.11-.08.13h0c-.09,0,0-.09,0-.13h-.07a.61.61,0,0,1-.06.25s.07.05.14,0,0-.07,0-.07h0v0c.08,0,.08.09.12.13a1.4,1.4,0,0,0,.36,0,.19.19,0,0,0,.12.11c.11,0,.15-.08.22-.12s.3.05.5.05.41-.1.52,0a1.08,1.08,0,0,1,.42-.08c.13,0,.29.07.36,0s-.06.05-.11,0a.44.44,0,0,0-.14-.24c-.1,0-.05.09-.14.07s-.1-.09-.09-.2-.13,0-.18.05-.18,0-.28,0m-2.11-2.23v0h.07v0h-.07M20.07,26S20,26,20,26s.12.1.09,0m1.08,0c0-.06,0-.11-.07-.11s0,.05,0,.11h.09m-2-.13s.06-.08,0-.07-.05,0,0,.07h0v0c-.07,0-.07,0-.11.07s0,.07.1,0,0-.06,0-.12l0,0v0m.31-.08c0-.08,0-.17-.07-.18s-.1.1-.09.21.06,0,.1,0,0,0,.06-.07m-.21-.17c0-.06,0-.1-.07-.09s0,.05,0,.09h.09m.37-.31c0-.05-.05-.11-.13-.11s-.08,0,0,.14.06-.07.17,0m-.37.11c.06,0,.07-.32,0-.34s0,.26,0,.34m0-1.25c-.15,0-.13-.17-.28-.17s.07.1.05.21l0,0v0c-.13,0-.09-.23-.21-.26s0,.13,0,.2.09.11.14.16a3,3,0,0,1,.06.83c.17,0,.08-.28.09-.43a1.51,1.51,0,0,0-.06-.41H19l0,0c.08,0,.07.18.18.11,0-.05,0-.17,0-.28m-.24-.3v-.07H19c0,.05,0,.07.07.07m-.92-1.21v.07h.07v-.06H18.1m.27,0c0,.05,0,.16.05.14s0-.12-.05-.14m3.56.46V23h-.07v.07h.07m0-.34v-.07h-.07v.07H22m-.47-.46c0,.08,0,.18,0,.21s-.09,0-.18,0c-.14.19-.56,0-.83.12a1.4,1.4,0,0,0-.65,0c0,.08.06.26,0,.27v0h0c0-.11-.08-.08-.05-.18-.18.07-.29,0-.39,0s-.09.17-.15.25.16,0,.19,0a.27.27,0,0,1-.06.25c-.08,0-.1,0-.14-.06s0,.27-.1.27v0h0c-.08-.05-.05-.22-.14-.26v.2c-.18.11-.23-.08-.21-.26V23c.1,0,.09-.08.2,0,0-.11,0-.17.06-.27a.85.85,0,0,1-.32,0c0,.09-.05.22,0,.29l0,0,0,0c0,.05,0,.15-.07.16a.24.24,0,0,1,.06.2c-.09,0,0,.06-.11.05s0-.07-.1,0,.16,0,.21.1c.06-.11.33,0,.4-.1h0a6.49,6.49,0,0,1,.66.11s.07-.05.11-.07a5.25,5.25,0,0,1,1.13,0c.06,0,0-.07.13,0s.35,0,.52,0a.57.57,0,0,0,0-.54l.13-.14c0-.17-.13-.18-.17-.31s.09-.07.07-.16-.06,0-.09,0v0l0,0v-.11H21.4c0,.05,0,.11.07.11v0l0,0m-5-7.65a.17.17,0,0,0-.18.08c.06,0,.09.06.19,0a.49.49,0,0,1,0-.12m-1-.5s0,.06,0,.06.06,0,0-.07h-.07m1.31,1.62c.11,0,.1.22.21.26a.43.43,0,0,1,.38-.12c0-.26.48-.17.29.1.07,0,0,.13.12.13h0l0,0h0v.07c.07,0,.07-.1.1-.14h0v0h.09c0-.12,0-.16.06-.23s-.16-.07-.18,0h0a.37.37,0,0,1,0,.25h0v0s0,.09-.09.07l0,0h-.05c0-.13,0-.25,0-.41h.11c0-.07,0-.15,0-.27s.12-.07.09-.19c-.33.09-.58.48-.94.26,0-.07,0-.08,0-.11s-.11,0-.14,0,.11,0,.08.15-.1.15-.25.12v0h0c-.13-.07,0-.25-.08-.38a4,4,0,0,1,.74-.18c.06-.09.27-.05.28-.19s-.1.07-.2.07-.52.07-.76,0L16.67,15a.49.49,0,0,1-.12,0s0-.12-.09-.13-.33.09-.38,0-.16,0-.16,0a.41.41,0,0,1,0-.11c.09,0,.06-.08.16-.05s-.08-.06-.07-.14l0,0v0c.05,0,0-.12.15-.08s0,0,0,0,.08,0,.11,0,0,.07.09.09a.56.56,0,0,0,.41,0c0-.15-.15-.09-.17-.2l0,0,0,0s.14.14.25-.12c-.1,0-.21,0-.3,0s0,0,0,0-.12,0-.14,0,0-.11-.09-.06h0s0,.07,0,.14c.36.09.33.12.33.12v0c-.11.06-.23,0-.38,0,0-.17-.11-.11-.27-.11s0,.16,0,.21v0l0,0c-.07.09-.26,0-.32.13h-.09s-.05-.08-.13-.06a.82.82,0,0,0,.15.56c0,.22.19.3.22.51a.55.55,0,0,1,.26.26.71.71,0,0,0,.67-.2v0h0m1.7-.33c0,.11,0,.1,0,.22.13,0,.11-.18,0-.22m.24.35c0,.07-.08,0,0,.11s0,0,.11,0-.05-.07-.07-.11m-.2.05v0h-.06v0Zm.69,1.8c0-.06,0-.14-.07-.13s0,.1.07.13m.14-1.78c-.05-.23,0-.41-.11-.56-.21.1,0,.59-.13.79L19,16c-.07-.13,0-.33-.06-.42-.1.15,0,.45-.16.59-.16,0-.16.15-.31.08,0,.11-.17.09-.29.1s0-.16-.05-.13-.19.16-.13.25c0-.07.11-.06.11,0s-.12.21-.19.3,0,.18,0,.27-.08.17-.24.15c0,.11-.1.14-.2.16-.08.32-.36.44-.73.48v0l0,0s0,0,0-.06a.51.51,0,0,0-.32.07c-.11,0-.23-.1-.23-.28s.1,0,0-.07-.06,0-.09,0v0l0,0c0-.08.08,0,0-.13s-.19,0-.2,0S16,17,16,17s-.08-.12-.14-.15a.21.21,0,0,0,.12-.25c.17-.08.18-.3.49-.25,0-.07.14-.07.15-.16-.31-.17-.46.13-.64.27a.41.41,0,0,1-.15.34c0,.24-.17.35-.25.53s.12.17.1.34c.19.08.23.33.4.43s.24.29.31.49a.68.68,0,0,0,.39.05c0-.08.11-.09.15-.14v0h0l0,0c.09,0,.21,0,.25.08a2,2,0,0,0,0,.25c.19,0,.23-.19.49-.15a.64.64,0,0,0,.05-.32c.19-.07.23-.28.47-.31,0-.18.14-.2.23-.28a2.41,2.41,0,0,0,0-.38h-.06c0,.28-.23.4-.46.49a1.32,1.32,0,0,1-.7.54c-.11,0-.26,0-.29.06H17c-.07-.06,0-.15.06-.21.3-.08.35-.4.63-.52,0-.07.09-.1.11-.18a.16.16,0,0,1,.11,0,1.57,1.57,0,0,1,.31-.32.6.6,0,0,1,.21-.37.48.48,0,0,1,.14-.39c.06-.05.22,0,.25-.08,0,.09.1,0,.16,0s.24-.06.38-.08.16-.17.17-.28,0-.07-.07-.06l0,0Zm-1.67.51c0,.13-.11.17-.15.28.15,0,.11-.18.26-.17v-.12h-.11m-.49.26c.11,0,.12-.06.13-.13a.17.17,0,0,0-.13,0v.11m0,.14c0,.3-.41.27-.53.49,0,0,0,0,0,.07.24,0,.23-.27.41-.33h.23c0-.14.11-.22.06-.29s-.09.09-.2.07m-.65.29c.11,0,.18,0,.18-.11s-.18,0-.18.11m4.83,2.29c0-.17-.11-.28-.17-.27s.06,0,0,.12,0,.16.15.15M21.92,16a.28.28,0,0,0,0-.09H21.8c0,.08.05.08.12.08m1.27-2.55a.32.32,0,0,0-.14,0h0l.15,0m-.8,1.79c.06,0,.21-.05.2,0s.05,0,.07,0v-.07c0-.07-.14,0-.21-.06s-.13-.15-.14,0l0,0h0c0,.08.09.06.1.13M20,16.35c.06.19.67.19.74,0a6.25,6.25,0,0,1-.72-.07v0ZM17.25,20h-.11c0,.1,0,.23.12.22,0-.08,0-.09,0-.16l0,0Zm-1.12-2.6v0c-.07,0-.07,0-.11.07s.16.09.14,0Zm3.66,5.85s.09-.23,0-.2h0c-.06,0,0,.12,0,.2s.05,0,.09,0M14.26,5c-.09,0-.1,0-.19,0s0-.11,0-.09,0,.21,0,.27-.07,0-.11,0-.09.09-.07.2c.18,0,.13.18.19.28s.16,0,.18-.13l0,0v0c-.05,0,0-.08,0-.13,0,.13,0,.14,0,.14v0c.09.1.31.09.37.22s.06-.07.16,0,0,.08,0,.12h0l0,0c.17,0,.25-.1.16-.2h.12a1.14,1.14,0,0,1,0,.52v0h0c.06,0,.16.15.23,0,.07.1.38.22.38,0a6.38,6.38,0,0,1,1,0c.13.15.46.11.58.27h.18c-.14-.22-.49-.24-.69-.41-.07,0-.11,0-.13,0s-.09-.08-.11-.14-.26,0-.34-.12a1.9,1.9,0,0,1-.49-.18s0,0,0,0-.12,0-.18,0-.22-.18-.4-.15a1.23,1.23,0,0,0-.49-.22c0-.25.39-.14.49-.3-.24-.11-.41.07-.68,0,0,0,0,.08-.05.09s0-.09-.08-.1m.58.87,0,0c-.17,0-.22-.1-.27.06.1.07.25.09.33.17s-.09,0-.07.11a.6.6,0,0,0,.2,0v0h0S15,6,15,6s-.14-.05-.13-.14ZM25.71,9c-.07,0-.06.07-.11.08a.45.45,0,0,0,.06.12c.07,0,.13-.06.12-.18s0,0-.07,0m-.59,1.4v.07h.07v-.07h-.07M23,12.57c.09,0,.1-.08.21-.06s.13-.08.18-.12l.14-.13s.09,0,.14-.07a2.71,2.71,0,0,0,.23-.24,1.06,1.06,0,0,1,.26-.17,2,2,0,0,0,0-.22.73.73,0,0,0-.36,0c0,.15-.2.15-.28.24s0-.07-.09,0-.3,0-.43,0v0l0,0c0,.17.13.16.15.28h.33a.41.41,0,0,0,0-.11h.13c0,.11-.06.12-.14.13a.4.4,0,0,1-.27.2c0,.12-.19.12-.24.24l0,0Zm-.27.09c0,.21-.18.17-.22.3s-.14-.05-.24-.05-.12.08-.12.18-.41,0-.48.18c-.12,0-.16,0-.27,0v-.13a.41.41,0,0,0,.34-.15c-.12,0-.09-.07-.17-.07-.05-.23.18-.15.25-.24s-.07-.1-.17-.1c0-.17-.19-.19-.15-.41,0,0,0,0-.06,0s0-.14,0-.15l0,0h0c0,.05,0,.05,0,.07s0-.05,0-.09h-.07l0,0,0,0c.08-.25-.14-.36-.18-.57s.07-.21,0-.33c.17.06.18.26.38.3,0,.12,0,.19,0,.34s-.1,0-.1.09.35-.12.48,0,.12.2.12.36c.09,0,0,.08.13.05-.08-.2,0-.34,0-.58-.09,0-.05-.17-.05-.28s-.16-.33-.3-.44c0-.06,0-.06,0-.13a.34.34,0,0,1-.17-.32c.09,0,.09.07.18.07a1.53,1.53,0,0,0,.52.61c0,.07,0,.08,0,.16s.16.18.31.21c0,.11.09.09.09.18l0,0v0c-.14.06-.25-.06-.33-.12,0,.32.08.72,0,1,0,0,.07.05.14.05m-.61-.09c0,.07.1.08.13,0s-.08,0-.13,0m1.07.35s0,.06,0,.07.09.09.2.07,0-.06,0-.07-.07-.06-.08-.11,0,.08-.12,0m0,.41c-.07,0-.12,0-.14,0s.07,0,0,.09,0-.07.09,0v-.09m-.12-.39c.08,0,.17-.14.05-.16s-.07.07-.12.09.05,0,.07.07m-.14.13c0,.08-.15.07-.17.17h0l0,0c.09,0,.13,0,.2,0s0-.06,0-.06-.09-.08-.13-.12m-.28.21c0,.07.13.07.13,0l0,0v0a.12.12,0,0,0-.11,0m.26-.35c-.29,0-.36.16-.53.25,0,.09.11.07.2.08.06-.16.3-.13.33-.33m-.65-5.76c0,.09.23.06.27,0s-.07-.07-.09-.12a.49.49,0,0,0-.18.08m-.38,6.18c-.16.06-.4,0-.46.18.3.09.48-.12.79-.1,0-.1,0-.12,0-.18a.47.47,0,0,0-.27,0l-.07.07M20.66,10.8c.13-.27-.07-.55-.18-.73,0,0,0,.07-.09,0v.09c0,.08.1,0,.08.09s0,.05,0,.09-.07-.11-.16-.12-.11.2-.1.34,0,.1.06.16-.07.39,0,.47-.08,0-.05.14c.15.35-.13.62,0,1,.07,0,0,.06,0,.1s.13.12.19.18.15-.18.24-.26-.06-.33.06-.4c.06.19.12.72-.08.83a.32.32,0,0,0,.25.12,1.77,1.77,0,0,0,0,.23c.1,0,.08.08.2.05s0-.19-.06-.23a.24.24,0,0,0,.08-.29c.16.08.26-.06.49,0,0-.16-.07-.21-.12-.3s-.13,0-.21,0a.55.55,0,0,0-.26-.24c0-.14,0-.31-.08-.34a.39.39,0,0,0-.07-.32c-.1,0-.18,0-.19.13s-.11,0-.13,0,.11-.14.07-.22.09.08.2.05c.09-.18,0-.29,0-.46-.08,0-.1,0-.18,0a2.44,2.44,0,0,1,0,.27,1.11,1.11,0,0,1-.09-.5c.07.07.1.2.24.14s0-.1-.06-.13m.59,2.45h-.07v.07h.06a.2.2,0,0,1,0-.07m-.41.1c0,.08.08,0,.13.05v-.09c-.06,0-.11,0-.13,0M19,13.47c.09,0,.21,0,.22,0s0-.07.1-.07c.13.16.37,0,.51.09s.23-.07.3,0,.1-.1.18-.13.36.14.45,0-.06,0,0-.11.12-.16.06-.27-.18-.17-.38-.15c0,.2-.13.18-.17.31a4.58,4.58,0,0,1-.93,0c-.11-.1-.27-.15-.33-.3s-.08,0-.13,0,0,.15,0,.27-.31-.08-.43,0l0,0v0c.09.11.42.2.54.09s0,0,0,.07m1.74-6.28s.05,0,.07.09c.18-.1.08-.35.06-.54h-.1l0,0c-.09.07,0,.32.05.37s-.07,0-.05.09m-.67-.8a1.07,1.07,0,0,1,.46.34h.21v0h0a.57.57,0,0,1,0-.13c-.27-.08-.3-.38-.67-.37a.6.6,0,0,0,0,.2m.09,6.15s0,0,.07,0-.05,0-.07,0m-1-1.39c0,.19,0,.47-.18.49,0-.23,0-.52.09-.65a1.07,1.07,0,0,1,.09-.54s0-.16.07-.16,0,.22.11.28,0-.2.14-.22.09.14.08.27.08.08.15.1a.22.22,0,0,1-.07.22h0c-.19,0-.06.26-.2.28s0,.11.07.16,0-.34.12-.38l0,0v0c.14.13,0,.37,0,.54s.1.13.06.21a.19.19,0,0,1,.15.21c.3,0,.15.4.16.68-.11,0-.06.11-.16.09v0h0c0-.05,0-.07-.06-.11s0,.07-.05.11h.09v0l0,0c-.05.19-.25.21-.5.19-.08-.21.05-.29,0-.47h-.18c.05-.3,0-.62,0-.93a1.1,1.1,0,0,1,.07-.17c0-.06,0-.1,0-.14s.16-.23,0-.34a1.63,1.63,0,0,0-.14.34m.54,1.1c0-.07-.14-.07-.11,0h.11M19.93,14c0-.07-.22-.11-.27,0s.15.07.25.08,0-.06,0-.07m-.28-.21c0,.14.24,0,.29,0s0,0,0-.07-.25,0-.29.06h0m-.07,0c0-.1-.39-.08-.54-.07,0,.21.46.15.56.09h0M20,7.59c0-.11-.21,0-.19.06s.1-.06.19-.06M19.57,14s0,0,0-.07,0,.1,0,.07m-.6-2.1s0,0,0-.07h0s-.05,0,0-.07-.06.06-.07.11,0,0,0,0m-.24.62v.05c.05,0,.08.07.18.05,0-.19.14-.22.06-.38h0l0,0a.29.29,0,0,0-.19.29Zm.19-.56a.75.75,0,0,0,0,.23h0l0,0s.06-.25,0-.25m-.3.74c.08,0,.05-.1.08-.14h0l0,0h-.07v.15h.06m.14-8c0-.11,0-.21-.13-.21s0,.22.13.21m-.84,8.77v-.06h-.07v.07h.07m-.35-.21h-.12v.14h.11a.57.57,0,0,1,0-.13M17.53,3c0-.08,0-.16-.11-.12a.19.19,0,0,0,.11.12m-.82,10.26c.08.05.21,0,.18-.1h-.18v.11m-.4-3.94a.12.12,0,0,0,.18-.13.14.14,0,0,0-.18.13M15.9,12.5v0H16V12.5l0,0c0-.07-.07-.08-.16-.07s-.07,0,0,.08Zm-.45-.13v.06c.15.08.25.21.45.25v-.14h0v0c-.15,0-.21-.17-.36-.22v0l0,0m-.18-.53c0,.2.13.2.24.26.06-.14-.12-.29-.24-.26M15.52,5c.07,0,.05.19.2.16a.43.43,0,0,0-.06-.27c-.05,0-.07.09-.14.11M15,10.12c.05,0,.1,0,.11-.11S15,10,15,10s0,.1,0,.12m-1.11.11a.49.49,0,0,0,.23.55s0,0,0,0a3,3,0,0,0-.25-.51M12.67,4.64c0,.08,0,.1,0,.18h.12c0-.12,0-.19-.13-.18m-.31-.15c0,.08,0,.22.1.27s.11-.39.16-.6a.37.37,0,0,0-.18,0c0,.14,0,.29-.08.34m-.47-.85h0V3.7h.05V3.64m-.66,5.62v0h0v0h0m-1.15,2c0-.09,0-.13-.13-.12s0,.08,0,.12h.14m-.51-4.6c-.08.21.14.3.12.53H9.8c0-.24-.13-.31-.12-.52H9.57M8.79,3.18C9,3.27,9.12,3,9.34,3c.06-.14.2-.19.22-.37H9.47a1.56,1.56,0,0,0-.68.56m.35.29a.11.11,0,0,0,.11.14V3.47H9.14M9,3.73h0V3.8H9V3.73m-.57,1c-.16,0-.17-.17-.34-.17.08.14.1.32.33.31a.66.66,0,0,1,0-.14M7.53,6.28a1.23,1.23,0,0,1-.67-.37.9.9,0,0,0-.45.17.57.57,0,0,0,0,.13,1.69,1.69,0,0,1,.34.11c0,.1-.14,0-.14.06a.64.64,0,0,0,.4.15.85.85,0,0,0,.45.08c0-.05.1,0,.07-.06h.31c0,.06.11.06.09.16H8l0,0s0,0,0,0,.19,0,.25-.08V6.57c-.08,0-.22,0-.2-.14a.73.73,0,0,1-.53-.15M7.71,7c0,.06.11.08.22.08S8,6.9,8,6.77h0l0,0a1,1,0,0,0-.34.1.09.09,0,0,0,0,0c0,.07.08.06.14.07M6.88,3.54a.3.3,0,0,0,0,.2,1.26,1.26,0,0,0,.84,0c.07,0,0,.08.11,0s.06-.09,0-.18c-.18,0-.43-.06-.52,0a.89.89,0,0,0-.43-.09m.41,6.29s0,.06,0,.09l.07,0v0s0,0,0,0m0,.39c0-.09-.12,0-.18-.06v0h0c0,.1.18.08.2,0m-.31-.13c0,.08,0,.09.08.09v0h0c0-.06-.06-.06-.11-.07m.27-4.43c-.08,0,0,.06-.11,0s.06,0,.06.09.11,0,.14,0-.07-.07-.09-.11M7,8.33s0,.08,0,.14.12,0,.21,0A.22.22,0,0,0,7,8.33m-.17-4c-.09,0-.1.14-.23.12a3.49,3.49,0,0,0,0,.5c-.08,0-.18,0-.19.17s.15.1.23.15.06.11.13.14-.08-.19,0-.32.1,0,.14,0c0-.16-.09-.19-.13-.3s.27-.26.13-.44m-.49-.16c.09,0,.19-.11.12-.22s-.13.1-.12.22m-.09.11s0,.06,0,.09.11,0,.1-.08H6.25m-.06.27c-.06,0-.1.06-.09.16a.09.09,0,0,1,.09,0V4.51M5.71,6.05c0,.16-.11.12-.08.27.16,0,.19.1.36.08,0-.05,0-.16,0-.13C6,6.17,5.92,6,5.71,6.05M5,6.36a.2.2,0,0,1,.14-.06c0-.07,0-.09,0-.18S5,6.22,5,6.36M4.12,7A.17.17,0,0,0,3.93,7S4,7.1,4,7.16s.13-.08.12-.2m-2.58,0c.08,0,.09,0,.16,0a.1.1,0,0,0,0-.11s-.12,0-.12.13M7.43,9.59c0-.07,0-.08,0-.14H7.3c0,.08,0,.14.13.14m.21-.15c.08,0,.06-.06.05-.11H7.58c0,.06,0,.08.06.12m.45-.1a.28.28,0,0,1,0-.09H8s0,.1.11.09M8.2,10v0H8.16v0h0m4.9.18c0,.07,0,.06,0,.09s0,0,0-.09H13.1m4.73.26v.07h.05v-.07h0m-.1.25c0,.12-.11.16-.08.33.08-.06.12-.18.21-.24s-.06-.09-.13-.09m6.42-1.6v0h0v0h0m-.66,1.42v-.06h-.07v.07h.07m1.75-.84s0,.05,0,.07h.05V9.68h0m-9.6,3.24v-.06h-.09c0,.08,0,.08.09.07m.57.36c0,.11.07.1.16.1s-.06-.1-.16-.1M20,14.36c0-.07-.1-.07-.07,0H20m.68,0v-.07H20.6v.06h.07m3-1.38s0-.07.09,0a.08.08,0,0,1,0-.06h-.11c0,.09.06,0,0,.12m.38-.33s0,0,0,0-.18,0-.31,0,0,0,0,.12.14.09.27.07,0-.12.1-.13m.39-.39c.07,0,.06,0,.09,0s-.11,0-.09,0m.37-.24a.28.28,0,0,0,0-.09c-.09,0-.19,0-.21.15s.08-.1.2-.06m.71-1.53c-.05,0-.11.05-.11.13s.07-.08.11-.13m0,.66c0-.09.07-.17,0-.21s-.1.21,0,.21m.24-.4c0-.13.09-.13.08-.25s-.16.12-.17.25h.09M8,5.82c0-.07-.1-.2-.26-.17s.14.06.15.14,0,0,.11,0m3.16-.59V5.12H11c0,.06,0,.12.09.11m1,2h0v0h0Zm1.48.3c0-.18,0-.23,0-.41-.22,0-.41.1-.33.33.13,0,.15.11.32.08m.28-.4c0,.32,0,.64.32.62a1.77,1.77,0,0,0,0,.23c.2,0,.28.2.39.33h.18s0,0,0,0a1.34,1.34,0,0,0,.2,0c.16-.06.49,0,.66-.14-.05-.24-.38.12-.49-.11-.11,0-.14.08-.23,0,0,.07-.07.06-.09.1a.57.57,0,0,0-.25-.07,1,1,0,0,1,0-.34c.09,0,.15.11.27.1s.11-.1.18-.11a.24.24,0,0,0-.27-.16.28.28,0,0,1-.09.13c-.06,0,0-.14-.08-.18s.1-.14.14-.23a.71.71,0,0,0-.08-.18s-.06,0-.07,0,0-.09,0-.13,0,0,0-.09l0-.14c.05-.07.14-.13.17-.22s.25,0,.32-.12.36,0,.43.06.18,0,.2,0-.08-.08-.06-.14A1.72,1.72,0,0,1,15,6.14c-.08,0-.17,0-.19,0a.29.29,0,0,0-.22,0c-.06-.06,0-.19,0-.3s-.15-.12-.13-.27-.11-.19-.19-.26a.69.69,0,0,0-.15.43c-.08,0-.08.2-.08.33s-.08,0,0,.11a1.27,1.27,0,0,1,.54-.11c0,.17-.21.16-.37.19a.26.26,0,0,1-.14.13v.09c-.15.08-.15.31-.15.56,0,0,0,.07.06.09s0,0-.07,0M16.44,5s-.05,0,0,0a.57.57,0,0,1-.47,0c-.1,0-.17-.17-.31-.14s0,0,0,0-.34-.06-.42,0-.37,0-.51.11,0,.1-.09.11c.08.18.48.07.65,0s.18.2.36.21a.42.42,0,0,0,.08.26c.24,0,.29.19.56.17.09.07.14.17.33.15a.34.34,0,0,0,.24.06c0-.07.08-.07.1-.11a.71.71,0,0,0,.22.07.23.23,0,0,1,0,.18c.1,0,.24.07.28.17-.15.32-.63-.08-.84.11l0,0h-.09s.06.1.07,0h0c.1.11.37.07.47.18.24,0,.4.14.67.13,0-.07,0-.17.08-.18-.16-.05-.09-.29-.06-.36S17.64,6,17.58,6a2.4,2.4,0,0,0-.44-.29S17,5.63,17,5.54a.35.35,0,0,1-.26-.17c-.21,0-.35-.11-.33-.35m.54-1a1.2,1.2,0,0,0,0,.38.6.6,0,0,0-.15.47c.28,0,.31.22.3.48a.25.25,0,0,1,.24.1.86.86,0,0,1,.36,0,.5.5,0,0,0,.11-.34c.19,0,.27.14.44.06a.13.13,0,0,0,0-.06c-.16-.14-.14-.43-.37-.49a1.25,1.25,0,0,0-.39-.49c-.13.06-.29,0-.45,0,0,0-.08,0-.08-.11m.91,2.74h-.07v.06h.07V6.79m-1.05-.85c0,.08.09,0,.13,0a.17.17,0,0,1,0-.07s-.14,0-.14,0m-.56.57c0-.07,0-.07,0-.12h-.14V6.5a.15.15,0,0,0,.16,0m-.71-.91c0-.06,0-.08-.09-.07v.06h.09m-.33-1c0-.28-.17-.38-.27-.55-.18,0-.25.19-.33.33l-.07.13s-.05.15-.12.2a.42.42,0,0,0,.25,0s0-.05,0-.05.18,0,.16-.06a1.19,1.19,0,0,0,.38,0m-.76,4.78c0-.07,0-.07,0-.14s.12-.15.11-.31a.44.44,0,0,0,.14-.29c-.21.05-.44,0-.47-.19-.05.09-.15,0-.22,0a2.2,2.2,0,0,0,.31,1.27c.09,0,0-.12.06-.17a.61.61,0,0,1,.09-.16m2.08,1.77c-.06,0,0,0-.07-.07l-.42,0c0-.08,0-.18-.11-.23a.66.66,0,0,1,.38-.57c0-.14.09-.15.13-.24-.16,0-.23.15-.39.16-.07.2-.28.25-.44.35a2.13,2.13,0,0,1-.2.4c0,.07,0,.16,0,.2s.1.33.19.46.18,0,.24,0,.4.09.35.33c.1,0,.17-.1.27,0s-.07.08-.05.18.11.06.18.08.15,0,.21-.06,0,0,0-.05a.18.18,0,0,0,.14-.2,1.28,1.28,0,0,1-.4-.15,2.62,2.62,0,0,1,0-.56m1.38-2.46c-.05-.26.14-.27.28-.35,0-.11-.14,0-.22,0s0-.14,0-.13c-.22.12-.37-.11-.68,0,0,.08-.09,0-.07.11-.33,0-.53.1-.82,0-.07.05-.09.15-.23.13s0-.2-.15-.19c.07-.15.31-.11.44-.19s.21,0,.23-.06a.73.73,0,0,0,.47-.11c.14,0,.23,0,.34,0s.15-.06.23-.08,0-.09,0-.16.25,0,.3-.15h-.18v0l0,0s.07,0,.07-.05,0-.09-.08-.11V7.1a.39.39,0,0,1-.3-.33c-.3.05-.82.2-1.06,0s-.75.14-.9-.1a.54.54,0,0,1-.21.15c-.06,0,0,.07,0,.13s-.1.1-.08.23c.3,0,.49,0,.79,0,.1,0,.08.17.11.26a.32.32,0,0,1-.17.1c0,.15-.16.48,0,.61a.22.22,0,0,0-.05.25,1.14,1.14,0,0,1-.22-.12c-.08,0,0,.09-.12.06s.08,0,0,.11-.46.08-.68.14-.28.29-.29.57c-.11.07-.07.31-.09.48.27,0,.2-.29.42-.31s.16.11.27.13V9.22c0-.07.11,0,.09-.09l.31,0a2.23,2.23,0,0,0,.63-.39,1.36,1.36,0,0,1,.29,0c.06-.14.31-.09.44-.16.08.16-.17.32-.38.32,0,.11-.16.11-.16.24-.25,0-.31.12-.53.12,0,.07,0,.08,0,.13a.5.5,0,0,1-.21,0c-.15.11-.23.31-.53.27,0,.08-.09.06-.09.13h-.18a.47.47,0,0,0-.1.33c.33.08.43-.19.7-.11,0-.06.11,0,.12-.11s-.14-.1-.27-.1c.07-.16.25-.19.41-.25v0l0,0s-.05,0,0,.11H16c0-.12.09-.14.21-.12v0l0,0c0,.05.14,0,.18,0s-.05-.06-.09-.07v0l0,0c0-.15.27-.1.35-.21s0-.1-.06-.14.1-.08.16-.11.13.07.15.15c.06-.07.21-.06.34-.06.11-.3.4-.41.7-.52m.51-.56s0-.07.05-.07a.13.13,0,0,0-.25,0c.09,0,.13,0,.2,0m-.07-1.63s-.14.15,0,.13a.57.57,0,0,0,0-.13m.4,1.43c0-.12-.1-.12-.06-.27s-.08,0-.12.07.09.16.18.2m.28.35c0,.06.05.12.13.12s-.09-.08-.13-.12m2-.92c.17-.15.06-.29.07-.49-.22,0-.24-.22-.26-.42-.08,0-.07.08-.18,0s-.08-.08-.06-.18c-.14-.18-.48-.16-.67-.3s-.08,0-.11,0-.3,0-.45,0-.18.09-.26.13,0,0,0,0-.14.18-.26.22,0,0,0,.09-.06.08-.12.08a1,1,0,0,0,0,.25c-.05,0-.05.08-.11.09,0,.22-.08.53.08.61a.86.86,0,0,1,.16-.45c0,.06.1,0,.13.1s-.05.07-.05.13.15.21.17.37a1.29,1.29,0,0,1,.62.16c.06,0,.09-.08.14-.11s.19,0,.38,0c0-.16.16-.19.18-.35h.15c.07,0,.07.16.13.21s.11-.2.17-.31h.11a.73.73,0,0,1,0,.31c.17,0,.1-.18.07-.29M18.88,5.2s-.05,0-.05-.07,0,0,0,.07h.07m.19.35c0-.09-.05-.08,0-.14s-.09,0-.08.13h.12m0-2.94V2.5c-.07,0-.12.14,0,.11m.29.08a5.14,5.14,0,0,1-.18.56c.11.11.14.3.25.41s0,.07-.07.11a.35.35,0,0,1,0,.39c0,.07.09.1.06.23.24,0,.07.46.18.61.24,0,.2.23.17.41a.33.33,0,0,1,.22,0s0,0,.05,0,0-.17,0-.25.17-.09.25-.15a4.52,4.52,0,0,0,.13-1c0-.07.08,0,.05-.09-.23-.2,0-.74-.21-.95a.4.4,0,0,0,0-.3h0s0,0,0,0h0a1.79,1.79,0,0,0,.15-.23.22.22,0,0,0-.15.23h0s0,0-.14-.06a.49.49,0,0,0,0-.12s0,0-.07,0,0-.13,0-.23a.29.29,0,0,1-.06-.27.34.34,0,0,1,.63.11c.07,0,.06,0,.13,0,0-.31,0-.59-.31-.64,0,0-.1,0-.09-.12s-.2,0-.22-.07-.12,0-.14,0a.19.19,0,0,0-.18-.08s-.07,0,0,.09-.09,0-.15,0-.09.17-.19.2a.38.38,0,0,0,0,.27.34.34,0,0,1,.34.58c0,.32-.08.68-.41.57,0,0,0-.13-.08-.14M19.33.79h.05v0h-.05v0m1.73,2.62a1.81,1.81,0,0,1-.16.8c0,.51-.32.67-.27,1.23.11,0,.07.2.08.23s.08-.14.18-.15l0,0h0c0,.11-.1.13-.12.24.21.07.3-.16.59-.09,0,0,.08,0,.09-.07a.2.2,0,0,1,.13.12.64.64,0,0,1,.32,0c.11-.09.19-.21.35-.24A2.18,2.18,0,0,1,22.77,5c0-.35.35-.24.35-.55-.1,0-.08-.08-.2,0v0l0,0c0-.15.12-.14.15-.24s-.42,0-.4-.24a.36.36,0,0,0-.25,0c-.09.05-.1.11-.21.18s-.14.07-.16.15,0,0-.05,0-.06.23-.15.29c0,.24-.13.28-.26.35s0-.14,0-.23-.13-.17-.1-.34a1.34,1.34,0,0,0,.29-.51.77.77,0,0,1-.28.08.46.46,0,0,1,.2-.47,1.17,1.17,0,0,1,0-.38s.11-.06.11-.15-.08.07-.16.06a.32.32,0,0,1,.13-.42s0-.16.05-.14-.07-.06,0-.16.2-.23.35-.3S22,1.78,22,1.72a.79.79,0,0,0-.3.2c-.08,0-.05-.1-.13-.1a2.09,2.09,0,0,1,0-.25.45.45,0,0,0-.36-.08c0,.06,0,.14.06.12,0,.15,0,.19,0,.36.18,0,.22-.09.41-.06,0,.14-.13.13-.06.25a.91.91,0,0,0-.3.19c-.09.33,0,.83-.22,1.06m.83.73c0-.18.15-.22.08-.34a.41.41,0,0,0-.14.31s0,0,0,0,.07,0,.11,0M22,2.76s.05.05.11.05,0-.07-.09-.07v0h0V2.67c-.07,0-.05,0-.12,0v.11c.07,0,.06,0,.09,0v0h0M23,2.3c0-.09-.08,0-.06-.13-.24,0-.32-.26-.57-.29a.57.57,0,0,0,.23.52c.08-.08.3,0,.4-.1M22.5,3c-.05,0-.07.11-.14.11,0,.22-.23.21-.22.45.1,0,.16-.16.21-.22s0,0,.07,0,0-.12.07-.15A.44.44,0,0,1,23,3a1.14,1.14,0,0,1,.45.67.54.54,0,0,1,.63.16v0h0c0,.06-.07.08-.05.18s.07-.1.07-.18l0,0h0c-.06-.1,0-.28-.12-.34s.07-.11.07-.2-.26-.23-.25-.47c-.16,0-.21-.12-.26-.23A1.58,1.58,0,0,0,23,2.51c-.21,0-.32.25-.47.32,0,0,0,.08,0,.15m-1.68-.42a.25.25,0,0,1,0-.13.14.14,0,0,0-.11,0v.14h.13m0-1.44h.11c0-.08-.11-.08-.11,0m.07-.2c.07,0,0-.08.12,0s-.22-.13-.27,0-.29-.11-.34,0c.18,0,.39,0,.49.09m-.36.14c0-.07-.19-.11-.25-.05s.17,0,.25.05M23.64,6.5V6.43c-.06,0-.12,0-.12.07h.12m0-.64a.49.49,0,0,1,.19-.07s-.15,0-.16,0v0h0a1.53,1.53,0,0,1-.48.15c0,.09.13.08.17.15s-.11,0-.14.08a.2.2,0,0,0,.2.1.45.45,0,0,0,0-.11c.07,0,.18,0,.22,0s-.09,0-.08-.14.08-.08.07-.17h0m1.12,1.79V7.58h-.07v.07h.07M26.05,7V7h0V7h0M26,6.68c.15-.14,0-.42-.05-.57-.13.06,0,.18,0,.3s0,0,.07,0,0,.15,0,.23m.09,3.66c.1,0,.13-.1.12-.22s-.06.1-.16.08l0,0a3.55,3.55,0,0,0,.15-.52c-.18.1-.21.37-.27.6.12,0,.14.05.2.08m.3-1.28c0-.08-.05-.09-.11-.09s0,.15,0,.13-.18.15-.15.34c.14,0,.14-.21.17-.36s0,0,.05,0m.13,0a.19.19,0,0,0,.15-.22c-.07.05-.15.09-.15.22M26.76,7c0-.16-.08.12,0,.1s0-.12,0-.1m0,.91c-.32,0-.1-.54-.22-.76-.08.05-.08.09,0,.16s-.11,0-.18,0a.61.61,0,0,0,0,.25c.09,0,.07,0,.13,0a.25.25,0,0,1,0,.38,6.47,6.47,0,0,1,0,.88c0-.07.15-.07.27-.06a3,3,0,0,0,.1-.85M26.6,7c0-.09-.06,0,0-.12s0,.16,0,.12m-.26-.61h0s0,0,0,0v0h0c0-.06,0-.08-.07-.07l.05.07v0h0v.18c.06,0,.05,0,.07-.06h.07a.57.57,0,0,1,.15.3c.09,0,.05-.27,0-.3a.56.56,0,0,0-.12-.48c0,.15.09.19,0,.28.09,0,0,.16,0,.15Zm0-.87a.23.23,0,0,0-.13-.27.4.4,0,0,0,0,.24c.06,0,.07,0,.14,0m-.27-.78s0-.15-.11-.14,0,.12.09.14v0l0,0s0,0,0,0,.06.09.12.2V4.86c-.07,0-.06-.08-.11-.1v0h0V4.69M25.58,4c.13,0,.15.2.26.28l0,0s0,0,0,0c0-.26-.14-.35-.25-.48Zm0,.84c-.05,0,0,.13-.08.13.1.14.07.38.23.46,0,.15,0,.31.11.34l0,0a.18.18,0,0,1,0,.12s0,0,.07,0v0s0,0,0,0h0l0,0v0c0-.39-.23-.58-.28-.93m-.06-.28c-.15,0-.08-.17-.22-.16,0,.17.13.24.19.36s0-.14,0-.2m-.17.9a1.31,1.31,0,0,0-.24.28c-.07,0-.09,0-.18,0,0,.15,0,.18-.08.27.27,0,.47.13.72.07,0-.14.09-.19.09-.34-.17,0-.17-.25-.22-.41-.06,0-.1,0-.09.11M25,3.73c-.06,0,0,.09,0,.07s-.05,0,0-.07m-.17-1s0,.21.13.21,0-.07,0-.14-.12,0-.11-.07m-.09.65a.35.35,0,0,0-.22-.21.53.53,0,0,0,.09.2h.13m-.15.47c-.18.19-.31.44-.5.63h0v0a.46.46,0,0,1-.25.06c0,.06.07,0,0,.11a4.11,4.11,0,0,1-.76.45v.09c-.16,0-.21.22-.41.23a.28.28,0,0,1-.26.22c0,.09-.08.14-.2.12s0,.09,0,.16a1.44,1.44,0,0,0-.49.3c-.19,0-.22.12-.39.12,0,.13-.05.18-.16.18a.36.36,0,0,1,.08.22c.28,0,.41-.12.72-.06.08-.13.28-.12.38-.23s.23,0,.29,0c.11-.09.34-.07.39-.23s0,.06-.11,0,0,0-.05-.07.14,0,.1-.18l-.3.1c-.07,0,0-.07-.11,0,0-.12,0-.21-.06-.26s.07,0,.07-.11c.32.1.48-.09.75-.1,0-.06.06-.08.07-.14h.21c.12,0,.2-.12.34-.12s.24-.14.33-.24c.3,0,.32-.24.63-.2,0-.09.21,0,.28-.1V4.82c-.17-.1-.48.06-.58-.09s-.38,0-.56,0c0-.06.07-.06.05-.16h0v0s.21.09.25,0a2.62,2.62,0,0,0,.79.07c0-.13-.08-.18-.1-.29s.11-.1.2-.11,0-.11.08-.13-.1-.06-.11-.12-.09.16-.12.24c-.21,0-.27-.13-.26-.32-.11,0-.14,0-.25,0M21.69.56a.53.53,0,0,0-.41-.15c0,.1.19.09.27.15a.36.36,0,0,0,.08.32l0,0v0h0s0,.1,0,.16c-.15,0-.18-.27-.31-.13s.09,0,.13.05,0,.06,0,.12c-.17,0-.2-.07-.34-.06,0,.09.15.06.24.07s.24.1.31.2c.28,0,.53,0,.58.22.05,0,.15,0,.16,0l0,0h0c.16,0,.18.16.26.24s.09,0,.07,0a1.23,1.23,0,0,1,.29,0,1,1,0,0,0,.48.29s0,.06.07,0,0,.13,0,.2c.17,0,.3.07.33.22s.26.05.31.15,0-.08,0-.12c-.18,0-.18-.22-.3-.3l0,0v0c.18,0,.2.14.29.22a.45.45,0,0,0-.31-.33v.11h0l0,0c-.16,0-.21-.12-.35-.15a.45.45,0,0,1,0-.2c.08,0,0,.08.09,0a.1.1,0,0,0,.1-.11s.13,0,.14-.06.16.2.33.21a1,1,0,0,0-.35-.37v0l0,0c0-.15,0-.15,0,0l0,0v0h0v.11a.65.65,0,0,0-.26.17c-.08,0-.09-.1-.08-.2a.36.36,0,0,0-.31-.11c0,.09.07.05,0,.14a.47.47,0,0,1-.44-.26l-.34,0h-.07c-.05,0-.11-.06-.08-.16h0v0a.28.28,0,0,0,.14,0v0h0c.12,0,.11.16.29.13,0,0,0-.12-.06-.12s.06,0,.05-.06c.23,0,.42,0,.48.19s.19,0,.2.15.15,0,.21,0-.07-.12-.09-.2c-.21,0-.27-.16-.49-.16A.48.48,0,0,1,22.76.8c-.08,0-.07.1-.07.18H22.6c-.08,0,0-.12,0-.18s-.26.16-.36,0,0,.1-.1.07c.07.13.24.17.4.21s0,.13-.1.16l0,0A3,3,0,0,0,22,1.12c0,.11.14.09.16.18l0,0v0a.85.85,0,0,1-.51-.25.2.2,0,0,1,.14,0c0-.06-.11-.07-.13-.14l0,0v0H22c0-.18-.27-.1-.31-.24s0-.11.05-.09M21.08.38c0-.07-.14-.07-.11,0h.11M20,.3a.24.24,0,0,0-.23,0c0,.12.17,0,.23,0m-.48,0c0,.17-.19.06-.21.17.14,0,.21.06.38.08,0,.1-.09.11-.14.15s.15,0,.2.08,0,0,0,.07-.08,0-.07.11a.15.15,0,0,0-.15-.08c0,.09-.08,0-.05.14S19.7,1,19.91,1c0-.06-.09-.11,0-.16s.15,0,.25,0,0,0,.05,0-.43,0-.5-.13c.22-.21.66,0,1-.08.07.08.25.07.31.15.11-.1.2,0,.34,0,0-.25-.36-.12-.46-.26a.53.53,0,0,1-.52,0l-.65,0c-.07,0-.11-.1-.25-.07m-.21,1.34c-.07,0,0-.06-.08-.07s-.09.2-.19.24-.05.28.05.3,0,.24.06.25c0-.17,0-.37.15-.45a2.44,2.44,0,0,0,0-.27m-.48.37a1.14,1.14,0,0,1,.11-.56s.07,0,.11,0c-.09-.17-.37,0-.52,0l0,0,0,0c0-.09.12,0,.1-.11s-.07-.07-.11-.09,0,.09-.05.13H18.3s-.06-.07-.07-.12,0,.17,0,.25h.07v0l0,0c-.11,0-.26,0-.23.19.21,0,.4.16.32.38-.09,0-.11,0-.2,0,0,.22.36.19.46.35.12,0,0-.29.15-.33M18,2c.07-.08-.07-.16-.17-.17S18,2,18,2m.11-1h.07V1s0,0-.07,0V1m.5-.16h.07V.79h-.07V.86m.24.25c0-.06-.15-.07-.11,0h.11m0-.74c0-.07-.1-.07-.07,0h.07m-1,.46s-.08,0-.07,0h.06v0h0l.05,0c.06,0,.17.05,0,0l.6-.13c.05,0,.08,0,.12-.07a.64.64,0,0,0,.25,0c.06,0,.11-.09.22-.08V.51c-.17,0-.35,0-.41.08a1.31,1.31,0,0,0-.84.22l.05,0h-.12m.06.2c-.2.12-.48.13-.62.3.15,0,.27,0,.29-.13.19,0,.25-.1.39-.12s0,0-.06-.05m-.22.31c-.06,0-.11,0-.11.06h.11V1.34M17,1.13c0,.08-.16,0-.16.11h.13c0-.06,0-.05,0-.12m-.19.92c0,.12-.09.16-.08.29L17,2.6c.09,0,.06-.18.23-.12a.32.32,0,0,1,0,.22s0,.07,0,0,.05,0,.06.09a.9.9,0,0,0,.06.25s0,0,0,0,0,.1,0,.14,0,0,.05,0,0,.07.06.07v.14a.43.43,0,0,1,.15.25s0,0,.11,0,0,.07,0,.13c.18.08.17.33.36.4,0,.08,0,.11,0,.2a.94.94,0,0,1,.25.42c.17,0,.22.11.34.15s0-.13.05-.18.09.06.11.12,0-.07.05-.12c.22-.09.09-.34,0-.51s.07,0,.05-.09-.08-.15-.18-.17.06-.17.14-.19A.86.86,0,0,0,19,3.49h-.11c0-.14-.28-.1-.31-.26h-.13a.43.43,0,0,0-.06.27s.11.19,0,.25-.12-.15-.21-.19c0-.36-.3-.47-.31-.83h-.23a.17.17,0,0,1,.07-.16c0-.22-.15-.28-.16-.48-.09,0-.13,0-.2,0A.53.53,0,0,0,17.21,2a.49.49,0,0,1-.45.09m-.58-.18c0,.08.06,0,.11,0s.07,0,.07-.13l-.18.08m-.06-.22s-.09,0-.07,0,0,0,.07,0m0,.94a.41.41,0,0,1-.26.2,3.08,3.08,0,0,1-.3.33c0,.15-.11.17-.15.26s.15.09.15.21-.18.32-.15.47.07-.15.07-.2.06-.14.08-.18.18-.13.3-.24h.25c.05,0,0-.16.12-.17,0-.23.13-.24.21-.34s.29.1.5.09a1.11,1.11,0,0,0-.46-.45,2.07,2.07,0,0,0-.36,0M11.79,6.88c.05.1.17.06.25.1s.13.11.2.14h.18c.05,0,.08.07.18,0a1.58,1.58,0,0,1,.61-.11c0-.1.11-.1.18-.13a.48.48,0,0,1,.22-.4.32.32,0,0,1,.1-.26,1.24,1.24,0,0,1,.14-.77c0-.39.25-.59.33-.93.06,0,0-.13.12-.11,0-.3.24-.36.29-.62s.19-.31.31-.44-.06-.05-.06-.09V3.2c.16-.19.27-.45.54-.52a.23.23,0,0,1,.28-.19l0,0s0,0,0,.06.12-.06.14-.13a.3.3,0,0,0-.14.06l0,0s0,0,.06-.24c-.27,0-.25.41-.56.3,0-.13.12-.19.15-.31s.23,0,.21-.15c-.21,0-.33.32-.51.23a0,0,0,0,1,0,0h0s0,0,0,0-.34.09-.35.28c-.06,0-.06.1-.14.08-.07.23-.28.3-.36.51-.07,0-.1.12-.19.15s-.18.18-.17.37-.16.22-.26.31a2.42,2.42,0,0,1,0,.25s0,0-.05,0-.09.36-.21.44a.36.36,0,0,1-.15.31c0,.12,0,.23-.08.27s0,.26-.08.31c0,.4-.11.66-.13,1,0,0,0,.07-.07.09a.64.64,0,0,1-.47-.07.53.53,0,0,1,0-.18c0-.17.23-.1.33-.24a.58.58,0,0,0-.19-.32c-.2,0-.29,0-.46,0,0,.14-.13.14-.16.25a.84.84,0,0,0,0,.43c0,.07,0,.24-.06.24m1.1,4.67v-.07c-.05,0,0,0-.07,0s0,0,.07,0m-.62-1c0,.1,0,.13,0,.18a.16.16,0,0,0,.07-.18h-.11m-.51-1.53c-.12,0-.13,0-.18.08s-.21,0-.27,0a.45.45,0,0,0,0,.11c-.16,0-.27,0-.4,0v0l0,0c0-.07.06,0,.07-.09h0V9a.38.38,0,0,1,.25,0V9s0-.17,0-.18-.11.08-.22.06A.28.28,0,0,0,11,9h0V9s-.13,0-.14.11h.07l0,0,0,0v0c0,.08.11,0,.13.12.26-.19.36.26.1.3A.47.47,0,0,1,11,10c.05.1.22.09.26.21v0h0a.75.75,0,0,0-.21.67.62.62,0,0,1,.27.26c.21,0,.28.2.51.22a.79.79,0,0,0,.56.16c0-.08,0-.1-.07-.14v-.09c.08,0,0-.25.12-.31h.07c0,.05.15,0,.2,0s.07-.26-.1-.28c0-.14-.05-.26,0-.38h0s0,0,.13.34c.07,0,.08,0,.14,0v-.05c0-.06-.05-.05-.07-.09s0-.1,0-.13,0,0,0,0,0-.2,0-.29c-.25.1-.12.24-.12.24h0l0,0c-.11,0,0-.19-.2-.16a.65.65,0,0,0,0,.4c0,.06.08.07.09.1s0,.08,0,.11l0,0c0,.11-.05.11-.07.16h0l0,0c-.08,0,0-.1-.13-.07s-.07.06,0,.15H12.2c-.06,0,0-.1,0-.16s-.1-.35,0-.38-.1-.06-.13-.1,0-.08,0-.11L12,10.3c0-.24.08-.59,0-.77s.09-.09.08-.2-.1.22-.19.29a3.46,3.46,0,0,1-.19.74c-.12-.07-.31,0-.38-.09v0h0c0-.15.07-.18.12-.24s.07.08.16.07a.17.17,0,0,0,0-.13.09.09,0,0,1-.11,0c-.21-.37.17-.62.26-.94m-.63-.7c.09,0,0-.06.12,0s0-.09-.11-.07a.14.14,0,0,0,0,.11m.11.16h-.05v.07h.05V8.51m.36,0c0-.08-.25-.09-.23,0,.12-.06.12,0,.23,0M9.52,7.88c0-.08-.06-.07-.13-.07s0,.09.13.07m-.16.63c-.08.09-.09.25-.27.24,0,.23-.24.27-.32.46a.57.57,0,0,0-.31.06c0,.25-.13.3-.16.49h.25c.08,0,.07.15.08.25l0,0v0h0c-.05.05-.05.15-.14.16a.64.64,0,0,0,.05.38c.2.07.27.26.49.31s.35.21.44.4c.16,0,.19.1.33.11s.29-.24.53-.26A.43.43,0,0,1,10.6,11c.14-.19.44-.34.28-.65-.1,0-.09.13-.17.16.06.3-.16.32-.24.48a.21.21,0,0,0-.25.13c0-.06-.15-.05-.16-.14s-.08,0-.16,0,0-.13,0-.2,0,.07-.14,0l0,0h0s0-.09,0-.09,0,0-.06,0-.23-.13-.29-.24a.57.57,0,0,0,.08-.31s0,0-.07,0l0,0h0c0-.37.17-.65.48-.72,0-.1.06-.2.17-.2,0-.16.12-.13.14-.24h.27c.09-.08.14-.19.3-.2s0,.15,0,.12.19-.08.25-.13-.09,0-.14-.05,0-.28.11-.29c-.07-.16.09-.15.07-.31.14-.12.44-.06.6-.16-.09-.12-.29,0-.43-.06a.28.28,0,0,0-.09-.1c.2-.11.69.08.8-.13-.15-.1-.34-.06-.56-.11v0h0c0-.06,0-.08-.07-.07s-.19.12-.27.17,0,.3-.09.38,0,.17,0,.16c-.08,0,0,.18-.07.24a.53.53,0,0,1-.39.15.65.65,0,0,1-.37.21,1.34,1.34,0,0,1-.33.3.14.14,0,0,1,0,.12c-.07,0-.1.08-.18.1-.11.28-.43.33-.52.64-.05,0-.14.12-.21.06v0l0,0c.08,0,0-.19.06-.29A1.41,1.41,0,0,1,9.26,9a.57.57,0,0,1,.49-.45V8.5c-.15,0-.24,0-.39,0m1,1c.1,0,.15-.13.28-.14V9.23h-.11c0,.15-.17.12-.17.26m.12.35s0-.08,0-.14-.15,0-.14.13h.11m-.25,0a.23.23,0,0,1,.08-.2c-.08-.05-.16.1-.3.06v.22c-.07.19-.33.17-.34.42,0,0,0,0,.07,0,.22-.11.2-.49.49-.52m-.29.64c.1,0,.13-.06.12-.17s-.13.06-.12.17M4.26,8.62c0,.08.09,0,.13.05s-.08-.12-.13-.05m.15.32V8.87H4.34v.07h.07M4.28,5.07v.07h.07V5.08H4.28m-.35.1H4V5.11H3.94ZM3.59,7.24s0,.09-.07.11A6.49,6.49,0,0,1,3.63,8h0c-.09.07,0,.35-.11.4.06.05,0,.19.11.21s0-.06,0-.09.08,0,.05-.11a.24.24,0,0,1,.2.05c0-.07.1,0,.16-.06h0c.07.07.21,0,.3,0s0-.21,0-.32a2.8,2.8,0,0,1-.28.06c0,.11,0,.11,0,.2H4c-.19,0-.38,0-.26-.21H4c0-.09-.22-.06-.27-.15l0,0h0c0-.13.22,0,.28-.1s-.08-.06-.07-.14a.29.29,0,0,1,.26-.06c.05,0,0,.11,0,.18s.14-.13.26-.15-.1-.2,0-.38c-.11,0-.08-.08-.18-.05v0h0c0-.09.19,0,.28,0,0-.17,0-.52,0-.66.1-.26-.06-.68.12-.83,0-.08,0-.11,0-.18s.12,0,.2,0l0,0h0c0,.06,0,.06.11.07V5.55H4.8l0,0h0s0,0,0-.09-.07.08-.16.06-.13-.18-.31-.17a.86.86,0,0,1-.14.13.57.57,0,0,0-.54,0c0,.17-.07.4,0,.53s0,.06,0,.13a5.93,5.93,0,0,1,0,1.13M3.2,8c0,.05,0,.08.06.07V8H3.2m-.36.44a.2.2,0,0,1,0-.07H2.8v.07h0M2.3,8c-.16,0-.43-.08-.44.1.27-.08.52.05.84.05,0,0,.12.08.15.14a.64.64,0,0,1,.2,0c0-.12-.23-.09-.26-.22h0l0,0c.11,0,.08.08.2.05s-.18-.12-.17-.27c-.11,0-.22.06-.27,0-.08.11.08.1.11.18l0,0V8A1.84,1.84,0,0,0,2.3,8m-.55-.56c.05.12,0,.08,0,.18s.08,0,.14,0-.06-.11-.11-.14M2,7.81c0-.08-.31-.07-.34,0s.25,0,.34,0m-.46.05c0-.06,0-.07-.08-.07a.28.28,0,0,0,0,.09c.05,0,.06,0,.09,0m-.26-.28s0,.09-.07.07.07,0,0,.09.1-.1.21-.08-.1-.07-.18-.08m0,.3s-.06,0-.07,0l0,0v0a.1.1,0,0,0-.11,0c0,.07.07,0,0,.09s.08,0,.07-.11h0v0c.05,0,.05,0,.07,0m-.2-2V6c.06,0,.06,0,.11,0s0-.06-.11-.07M1.05,7c-.08,0-.07.13,0,.09s0-.09,0-.09M.44,8.73c.11,0,.1-.19.1-.34s-.08,0-.18,0c.08.09,0,.16-.07.21s.08.08.11.13l0,0h0s-.09,0-.1.09l0,0,0,0s-.05,0-.05,0,0,.1,0,.07v0h0l0,0c.07,0,.09,0,.14,0V8.73M.25,7.21c0,.07-.12.11-.12.22a.17.17,0,0,0,.11.11,1.52,1.52,0,0,0,0,.37s.14,0,.14.11h0v0s0,0-.07,0,0,.11,0,.14a.51.51,0,0,1,.25-.06V8.1s-.16,0-.14,0h0c0-.06.1,0,.14-.09s-.07,0,0-.09v0h0c0-.09.07-.11.09-.18s0-.3.06-.27S.59,7.29.59,7.22c.1-.3-.1-.64,0-.88s0-.24,0-.27S.65,6,.64,5.89.52,5.8.43,5.79s.1,0,.08-.13a.4.4,0,0,0-.25-.15s.11-.06,0-.11,0,.24,0,.36a1.09,1.09,0,0,1-.09.43c.12.11,0,.35,0,.52s.06.34,0,.5M.11,9s-.06,0-.11.06V4.58a.75.75,0,0,1,.13.25A.27.27,0,0,0,.17,5c.22.09.57-.07.69.11-.17.67.6.45.79.78l0,0V6l-.16.09s0,.18-.07.2a1.39,1.39,0,0,1,.1.39l-.14.06a1.7,1.7,0,0,0,.1.32s0-.06.07,0,.19,0,.18.09-.3,0-.37.12a.11.11,0,0,0,0,.1,3.21,3.21,0,0,1,.93,0c0,.15-.14.11-.21.15s0,.1.09.1c.29-.17.72,0,1,.12,0,0,0,.12,0,.14h.09a1,1,0,0,0,0-.27s.11,0,.11,0,0,0,0-.12-.2,0-.2-.07a.83.83,0,0,1,.16-.09c0-.23,0-.48,0-.74a3.82,3.82,0,0,0-.05-1c-.15,0-.19.08-.34.06a.52.52,0,0,1-.53.25v0l0,0c.12-.09.3-.11.37-.25a.81.81,0,0,0,.46-.35s0-.09,0-.13l.14-.13a5.5,5.5,0,0,1,1.29-.07c.11.2.35.3.5.47A3.55,3.55,0,0,1,6,5.41c.1-.12.3-.08.48,0s.16.14.12.32a.61.61,0,0,0-.27.12.72.72,0,0,0-.67-.22c0,.13-.16.12-.28.14s-.11.32-.26.38S5,5.92,4.9,5.89s.1,0,.07-.14H4.86a1.88,1.88,0,0,0-.11.67H5c0,.09-.09.09-.12.15a.44.44,0,0,1-.1.25c0,.2.2.4.42.26a.24.24,0,0,1,.12-.26.21.21,0,0,1-.06-.16l.21-.09s-.07-.08,0-.18c.24-.07.36.11.6.09a.47.47,0,0,1,0,.18c.2,0,.21.23.3.37s.5.08.71.16a.24.24,0,0,1,.21-.08c.08.14,0,.4.12.55.1-.07.31,0,.45,0s.1-.18.14-.27,0-.2.06-.18a.3.3,0,0,1,0,.36c.08,0,0,.22.15.23a.49.49,0,0,0,.12-.31.78.78,0,0,1,.53-.14.21.21,0,0,1,.2,0c.06.24-.08.67.09.8A.19.19,0,0,0,9.11,8c0-.18.11-.2.15-.31.23,0,.38,0,.41-.23a.64.64,0,0,1,.28,0c0,.18-.21.31,0,.42-.09.1,0,.28,0,.39s.11,0,.11,0,.08-.35.22-.42c0,0-.12,0-.09-.14s.21-.06.3-.1-.13-.09-.13-.21c.18,0,.34.08.39-.07a.56.56,0,0,1-.06-.23h0l0,0c.08,0,.05.11.11.14s.18.12.24.21a1.2,1.2,0,0,0,.73-.2c-.05,0-.07-.12-.13-.16s0-.13,0-.16c-.19-.1-.12-.43-.14-.68a3.75,3.75,0,0,1-.72-.07c-.07.09-.31,0-.38.1a.33.33,0,0,1-.21-.06,3,3,0,0,1-.36.17c-.23,0-.51,0-.68.11H9c0,.17-.26.14-.28.33h0l0,0c-.11,0-.1-.22-.21-.28s-.21,0-.18-.14.16,0,.18,0-.11,0-.13-.09-.05,0-.09,0c-.2-.14-.55-.13-.71-.3,0,0,.07-.11,0-.13a.34.34,0,0,1-.18,0c0-.05,0-.17,0-.25h0v0a.48.48,0,0,0,.41-.08s-.07-.16,0-.15,0,.08.07.07c.26.07.38.28.57.42a.48.48,0,0,1,.27-.21c0-.15-.25-.1-.26-.26s0-.07,0-.13A.19.19,0,0,1,8.41,5a.69.69,0,0,1,.32,0,2.15,2.15,0,0,0,.94.65c0-.29-.23-.33-.32-.53s.13,0,.21,0a.21.21,0,0,1,.18-.13c.06,0,.08.06.14.07a.37.37,0,0,1,.23-.19,3.18,3.18,0,0,1,.59.5c.09,0,.16.06.2,0s-.2-.17-.26-.3a1.58,1.58,0,0,0,.12-.15s0,0-.06,0,0,0,0,0,0-.13,0-.15-.05,0-.05,0,0-.27-.05-.38c.2,0,.18.28.32.35A.16.16,0,0,1,11,4.51c.27.18.36.51.75.57,0,0,0-.15,0-.23s.08-.07.14-.08h0c.07,0,.14,0,.18,0s0-.3-.1-.41.08,0,.05-.09,0-.26.08-.31,0-.19.14-.17c0,.21-.15.5,0,.67a.58.58,0,0,0,.07.41h.18c0,.1.11.09.06.23.1,0,.09.08.15.11a1.88,1.88,0,0,0,0,.48c.13,0,.15-.11.17-.22s-.12-.21-.1-.39c.08,0,.07-.07.18,0,.13-.13.07-.25.11-.44s.22-.47.34-.69a.46.46,0,0,0-.07-.07,1.77,1.77,0,0,0,0-.23c-.08,0,0-.1-.09-.11s-.06-.09-.15-.08c-.09-.24-.36-.3-.5-.49-.19,0-.38,0-.46.16a1,1,0,0,0-.32.08s0,.1-.07.11-.1,0-.14,0,0,.06,0,.07-.14,0-.18.08,0,.16-.08.2.06.12.18.1,0,.12.06.18-.1,0-.12.07.07.07,0,.15-.22,0-.4,0S11,4,11,3.83a.26.26,0,0,1-.15-.3c-.07,0-.08-.14-.15-.18a.32.32,0,0,1-.2-.15.35.35,0,0,0-.16,0c0-.11-.17-.11-.29-.14s-.16-.14-.24-.21.1,0,.07-.11.17,0,.23,0,0,.07.07.07.13,0,.18.06a1.06,1.06,0,0,0,.37.08c0,.08.12.1.16.14s0,0,.06,0,.14.23.27.26c.19-.13.32-.34.6-.38a.88.88,0,0,1,.55-.25c0-.12.16,0,.27,0A.5.5,0,0,0,13,3c.13.27.45.37.45.77.07,0,0,.09.11.07s0-.13,0-.23c.19-.18.29-.46.47-.66,0-.07,0-.06,0-.13a.9.9,0,0,0,.28-.33A1,1,0,0,0,14.82,2c.08,0,.16-.1.18-.2s.16-.13.24-.2.08,0,.11,0,0-.09.07-.11.07,0,.09,0a.73.73,0,0,0,.14-.18c.36-.12.58-.38,1-.46A.87.87,0,0,1,17,.64c.09-.15.3-.18.42-.3a3,3,0,0,0,.77-.18c.12,0,.24,0,.35,0a3.79,3.79,0,0,0,.7-.11c.09.12.33,0,.38,0A11.65,11.65,0,0,1,21,.06s0,.06.06.05a4.77,4.77,0,0,1,.81.12c.08.14.32.13.52.15a7.33,7.33,0,0,1,1.1.63h.12a2.43,2.43,0,0,0,.66.46.55.55,0,0,0,.32.28c.08.23.28.34.46.47a.87.87,0,0,0,.39.37c.06.21.26.29.28.53a1.33,1.33,0,0,1,.51.79.36.36,0,0,1,.13.32c.06,0,.05.09.13.09,0,.21.17.27.11.53.08,0,0,.07.07.07h0a2.09,2.09,0,0,0,.11.43c0,.15.08.3.13.44l0,.28.15,1.11a1,1,0,0,0,0,.18l-.09,1-.28,1.16-.37,1c-.12.06-.16.19-.26.27a.47.47,0,0,1-.2.53c0,.07,0,.07,0,.14a1.36,1.36,0,0,0-.44.64c-.14,0-.16.14-.21.19s-.25.14-.28.29c-.25.09-.33.37-.6.45-.13.24-.44.27-.58.5-.38.08-.59.35-1,.44,0,.1-.09,0-.07.13-.63,0-.87.44-1.57.37,0,.09-.15.06-.25.06s-.23,0-.34,0,0,0-.07.05c-.48,0-1-.05-1.53-.06-.1-.08-.32-.06-.47-.08s-.36-.08-.45-.13-.17-.05-.2-.08-.16,0-.25,0c-.32-.18-.72-.3-1-.49s-.57-.42-1-.53a2.67,2.67,0,0,0-.24-.32.75.75,0,0,1-.42-.36h0l0,0a.2.2,0,0,0,.26-.1c.21,0,.21.12.28.19s.15,0,.22.1.11.12.22.14,0-.09,0-.11.08,0,.05-.11.17,0,.16.14.18.07.31.08-.1,0-.06-.14h0v0a.71.71,0,0,1,.4.22l0,0v0c-.09,0-.15-.06-.2,0s.09.09.13.14-.05.07-.07.11a.38.38,0,0,0-.22-.07,1.15,1.15,0,0,0-.22-.22c-.07,0,0,.1,0,.14a.21.21,0,0,1,.18.14.38.38,0,0,1,.26.17h.14c.16.15.45.18.6.34a1.49,1.49,0,0,1,.49.16c.12,0,.25,0,.29.07.21,0,.35,0,.38.2s-.16.07-.21.13l0,0s0,0-.1,0,0,.08.07,0l0,0h0a.19.19,0,0,1,.13.07l.2-.06c0-.08-.13,0-.08-.16s.19,0,.21-.11-.38-.07-.47-.19h-.16s-.05-.07-.09-.09c.13-.17.38.05.59,0,0-.1-.21,0-.2-.14l0,0v0a3,3,0,0,1,.43,0c.07,0,0,.12,0,.2a1.62,1.62,0,0,1,.47.13s-.06,0-.07.09a.53.53,0,0,0-.34,0c0,.11.15.07.22.08h.3s0,0,.06-.05c.19,0,.41.05.59,0a.14.14,0,0,0-.06-.16c0-.09.1,0,.11-.09s-.07-.09-.1-.14.35-.12.43,0l0,0,0,0c0,.06-.19,0-.21,0s.28,0,.43,0,.13-.11.2,0v0h0c-.08.12-.32.07-.39.19s-.23,0-.27,0,.36-.1.47.06H21v0h0s0,0,0,.11h.16a.16.16,0,0,0,0-.14h0v0h.18c0-.09.07-.12.14-.15v0h0v0c.42.07.49-.23.87-.2,0,0,0-.06,0-.13s-.14.08-.28,0l0,0,0,0a.54.54,0,0,1,.42-.19.58.58,0,0,0,.1.27v0h0c0,.07.08,0,0,.11h.21c0-.07,0-.07,0-.14.22,0,.27-.11.46-.12a1,1,0,0,1,.1-.26c-.08,0-.15,0-.15-.08a.55.55,0,0,0,.17-.51c-.1,0-.12.09-.23,0a.15.15,0,0,1,.15-.18c0-.12.12-.1.14-.19s.14-.08.27-.06,0,.12,0,.11.09-.11.23-.06c0-.17.22-.22.29-.37h.13c0-.2.15-.19.17-.35H24.6v0h0v-.13c.16,0,.14-.24.33-.24s0,.15,0,.23.1-.1.2-.09c0,.17-.16.3-.26.4.17.06.27-.2.35-.28s.16-.08.14-.22-.08,0-.15,0,.05-.22,0-.27h-.12a.21.21,0,0,1,0-.14,1.62,1.62,0,0,0,.31-.51s.07,0,.11,0,0-.27.15-.31l0,0h.05c0,.11-.09.1-.08.22a.83.83,0,0,0,.29-.58c-.1,0-.05.17-.18.13a.41.41,0,0,1,.05-.36A1.52,1.52,0,0,1,26,8.73a.7.7,0,0,1-.06-.23l0,0v0c.12,0,.16-.09.21-.18l0,0h0c.15,0,.1-.3.08-.38s-.05.11-.07.18l0,0,0,0s0,0,0,0c0-.19.06-.52,0-.68-.09.07,0,.28-.06.41s0,.06,0,.16-.08.29-.08.47l0,0v0c-.07.09-.28,0-.39.06s0,0,0,0-.32,0-.47,0,0,0-.05.06.07.05.11.07c0,.23.28.24.21.55a.34.34,0,0,0,.24.06l0,0h0c-.05.08,0,.25-.15.27,0,.25-.08.45-.26.53a.83.83,0,0,0-.09-.16,1.17,1.17,0,0,0-.48.12s0,0,0-.07a1.24,1.24,0,0,0-.2.1c.07.2.23.32.32.51.07,0,.1,0,.17,0s0,.11-.07.16l0,0s-.13,0-.14,0,.09,0,.13.05v0h0c0,.19-.2.29-.26.44s-.05-.07-.14-.05-.08.1-.07.2a.36.36,0,0,1-.34-.12.25.25,0,0,1,.26-.15c-.06-.11-.06-.34.08-.36,0-.23-.1-.32-.1-.52-.05,0-.12-.1-.06-.14a.91.91,0,0,0-.55.16c0,.12.25.05.27.17s-.08,0-.09.06-.06.1-.06.18-.13.14-.21.2,0,.25,0,.38a.49.49,0,0,1-.54.09c0-.14-.15-.22-.22-.34s-.19-.14-.33-.17v-.11c-.17,0-.15-.15-.24-.22s.11-.07.21-.06,0-.08,0-.16c.23,0,.46.24.28.4,0,.08.07.15.17.16s-.08-.1,0-.18a1,1,0,0,1,.35.15c.06,0,.07.14.15.14-.12-.11.07-.47-.18-.5,0,.1.08.14.06.27h-.09s-.05-.06,0-.12c-.17,0-.12-.13-.29-.1l-.09-.16c0-.09.1-.1.21-.08s.06-.09.07-.16.16.07.25.1a.24.24,0,0,0-.11-.16c0-.06.08,0,.05-.13s.09,0,.16,0a.68.68,0,0,1-.28-.48c-.16,0-.29,0-.26-.23s-.12-.14-.13-.26l0,0V9h0a.52.52,0,0,0,.45.22c0,.08.13.07.24.07v0h0c.08.1.12.23.23.3h.05l0,0h.05c.05.11.19-.05.27-.06s.18.12.33.12c0-.12-.16-.09-.19-.18-.39,0-.46-.21-.76-.24h0c-.05-.11-.18-.16-.14-.36-.12-.11-.36-.09-.4-.27a.71.71,0,0,1-.31-.19c.34-.07.5.22.85.21.13.12.31.31.53.27-.07-.08-.19-.09-.33-.15s0-.12,0-.2h.07s.05,0,0,.07.19,0,.22.08c.33-.05.35.19.63.18a.19.19,0,0,0,.18.08c0-.08-.1,0-.09-.12a.45.45,0,0,1,.21-.15,1.16,1.16,0,0,0-.83-.12c-.16-.23-.67-.06-.8-.35a.27.27,0,0,1-.36-.08c-.14,0-.39,0-.43-.08l0,0V8h.07s-.11,0-.09-.14.11,0,.12-.06c.2.13.64,0,.76.23a2.58,2.58,0,0,1,.89.15s0-.05,0-.05v0h0c.33.12.9.21,1.15,0a.62.62,0,0,1,.13-.33c0-.19,0-.35.15-.38,0-.24.09-.33.09-.56-.06,0-.18-.15-.07-.18-.11-.15-.33-.21-.29-.51-.27,0-.34.17-.62.14,0,.09-.12.06-.09.17s.05-.07.16,0,.28.11.39.19,0,.14,0,.16-.19.13-.21.28-.07,0-.11.05a1.07,1.07,0,0,0,.32.48.75.75,0,0,1,0,.23c-.1.08-.28.07-.33.21-.22,0-.44.06-.68.07v0h0c-.08,0-.13-.1-.2-.14s.16-.06.23-.06.27.07.38,0a.37.37,0,0,0,0-.11c-.13,0-.23-.08-.36-.1s-.16-.12-.17-.23c.16,0,.26-.08.43-.08,0-.07,0-.15,0-.22s-.19,0-.2-.15H24.2c-.34-.21-.67.07-1.08.05a.94.94,0,0,1-.52,0c0-.24.38-.15.5-.3.16,0,.22.09.39.09,0-.06,0-.13,0-.16A.6.6,0,0,0,24,6.61c-.07-.08-.13,0-.18.06a1.15,1.15,0,0,0-.32,0s0,0,0,0-.16,0-.21,0,0,0,0,0-.16,0-.22,0,0,0,0,.05-.23,0-.22.06-.19-.09-.22-.19,0,.07-.09,0a1.41,1.41,0,0,0,0,.2c-.43-.08-.54.18-.87.2-.06.07-.11.17-.23.19v.25c.15,0,.29,0,.41,0s0,0,0,0,.35.09.4.15v0h0c0,.18-.33.06-.37.23S21.63,8,21.51,8s0-.07,0-.13a.58.58,0,0,0-.34.05c0,.14-.09.14-.06.29s.12.13.2.19,0,.1,0,.16A.3.3,0,0,1,21,8.46a.09.09,0,0,1-.05.11c-.11,0-.11-.08-.17-.12s-.23,0-.32.06c.07.15.29,0,.43.08s.1.17.21.21a.31.31,0,0,1-.05.25c0,.1.08.14.06.27h0l0,0H21a3.75,3.75,0,0,0-.45-.65c-.07,0-.07,0-.14,0,0,.14.1.15.13.23s0,.26-.08.31c.09.13,0,.4.1.55s-.09.08-.12.13a1.72,1.72,0,0,1-.33-.33c.1-.12,0-.32,0-.5s.12-.08.14-.17-.25-.11-.38-.11,0-.09-.13-.07a.18.18,0,0,1-.1.27c0,.2-.07.28-.13.42s0,.05,0,.07a.57.57,0,0,0-.06.36c-.09.06-.08.24-.19.29s-.05,0-.09,0,0-.39,0-.58a1.33,1.33,0,0,0,.15-.81c-.06,0-.07,0-.14,0s0,0,0,0a4,4,0,0,0-.25.56s0,.05-.05,0v.05l0,0v0c-.16.23-.3.49-.48.7h-.16c0-.15,0-.24.15-.27.09-.33.39-.45.46-.82.07,0,0-.08.07-.13S19,8.8,19,8.7s-.08-.11-.17-.12-.11.12-.17.18-.14,0-.15,0a.17.17,0,0,0-.12.11c-.31,0-.38.35-.63.47,0,.1-.08.1-.09.18-.24,0-.25.25-.47.27,0,.1-.07.14-.09.22S17,10,17,10c.05.29-.13.34-.18.53-.08,0-.09.07-.2,0s0,.17-.07.2.1-.12.22,0,0-.06,0-.07.12-.12.17-.19a1.34,1.34,0,0,0,.51-.32.42.42,0,0,1,.24.12c.1-.07.25-.08.32-.17s.09.08.06.18.13-.1.28-.06-.05,0-.05,0a.66.66,0,0,1-.24.49c0,.17-.14.36-.27.35l0,0h0s-.07,0-.07,0h0v0a1.2,1.2,0,0,0-.34.48c.05,0,.05,0,.11,0,0-.18.24-.21.25-.44h0v0s0,0,.05-.05l0,0h0s0,.11.05.09c-.08.08-.08.24-.2.29s.08.05,0,.13-.13.33-.41.26c0,.1,0,.13,0,.23-.18.06-.35.13-.37.37.16.17.43.23.59.4-.37.06-.6-.19-.82-.34-.17,0-.28,0-.24-.22.08,0,.09.08.2.06s-.16-.09-.17-.19-.09,0-.16,0-.12.05-.16.08-.07-.12,0-.13a.32.32,0,0,0-.2-.1c0-.11,0-.16-.13-.14s0-.1,0-.18-.08.06-.16,0a1.67,1.67,0,0,1-.5-.56c0-.07.08,0,.05-.11s-.13,0-.21,0A.74.74,0,0,1,15,11c.14,0,.14.08.27.05a.71.71,0,0,0,.08-.31c.06-.11.22-.11.22-.29a1.21,1.21,0,0,1-.7-.16.17.17,0,0,0-.13.07c0,.06,0,.09.06.09s.07.15.06.14,0,.16.06.18-.07,0-.05.09a.93.93,0,0,1-.51-.77c-.06,0-.08,0-.13-.07s0-.2-.09-.23c0-.19-.16-.18-.12-.38-.09,0-.05-.19-.12-.24s0-.14,0-.2a.83.83,0,0,0-.12-.25c-.05-.14,0-.26-.1-.37a.44.44,0,0,0,.07-.17,2.51,2.51,0,0,1-.34-.49c-.07,0-.08,0-.16,0s0-.05,0-.07c-.17,0-.17-.1-.27-.14a2.5,2.5,0,0,1-1,.3c0,.16,0,.28-.17.26a1,1,0,0,1,.07.55c.09,0,0,.08.11.07v.27a.18.18,0,0,0,.11,0c0,.08.15,0,.16.12s.24,0,.29.07A.33.33,0,0,1,12.71,9c.06-.29,0-.64-.32-.63-.06-.3.2-.27.33-.37h.07c.09,0,.14.1.22.14a.4.4,0,0,0,.15.27,2.62,2.62,0,0,1,0,.52s0,0,0,0a.28.28,0,0,0,0,.13s0,0,0,0,0,.14,0,.18,0,0,0,0,0,.18,0,.27.11.28.24.35,0,.27.12.3a.52.52,0,0,0,0,.18c.08,0,.07-.07.14-.06s.14.17.17.3l0,0,0,0c-.08,0,0-.11-.13-.09a.33.33,0,0,0,.17.23v-.07h0l0,0c.18,0,.16.27.35.31,0-.07,0-.07,0-.14h0l0,0c.07,0,.15.09.15.21s-.08.07-.16.06a.49.49,0,0,0,.13.28s-.06.09-.12.1.12.17.17.26.11-.11.25-.06v0l0,0s.05.06.07.09,0-.11-.05-.09l0,0h0v-.16c.17,0,.16.16.31.17a.11.11,0,0,1,0,.12l0,0v0S15,12,15,12s0,.07-.09,0c.1.1.17.24.26.34a.6.6,0,0,1-.19.16v0h0l0,0s0-.06,0-.07,0,.07-.09,0-.15-.11-.15-.25c-.2,0-.2-.28-.37-.35,0-.07,0-.07,0-.14s-.1-.16-.19-.21-.07,0-.14,0a.29.29,0,0,0,0-.23.35.35,0,0,1,0-.12s-.11-.05-.13-.07,0-.1-.07-.14-.2-.1-.22-.18-.24-.1-.25,0h.14c0,.14-.08.16-.14.22s.09,0,.08.11a.38.38,0,0,1-.21.31,1,1,0,0,1-.52.52v.09a.47.47,0,0,1-.56-.2c-.05,0-.08,0-.15,0-.06-.16-.25-.22-.49-.22a.24.24,0,0,0-.2-.14,1.09,1.09,0,0,1,0-.18c-.13,0-.19-.09-.27-.14a.29.29,0,0,0,0,.24c-.12,0-.15.16-.3.15a.24.24,0,0,1-.28.12c-.11.23-.42.24-.66.32-.43-.25-.65-.7-1.15-.88,0-.1-.09-.08-.06-.2s-.1-.13-.15-.19a.43.43,0,0,0-.29,0c-.06,0-.11,0-.16,0s0,0,0,0c-.28,0-.66-.06-.81,0-.18-.08-.51,0-.46-.33-.2-.13-.22-.41-.32-.62A.5.5,0,0,1,6,9.85a1.85,1.85,0,0,0-.06-.2h0c0-.06-.06-.25-.06-.25s0-.15.08-.16a1.28,1.28,0,0,1,.18.41.23.23,0,0,1,.2.21c.22.11.32.33.48.5a.91.91,0,0,1,.58.17c.15-.12.48-.06.75-.06.06-.07.19-.19.12-.33s-.15.07-.21.13a.51.51,0,0,0-.36.05c-.07-.11-.25,0-.29-.12s.22,0,.21-.15-.16,0-.14-.05.13,0,.12-.14-.14,0-.2,0-.08-.13-.18-.15,0,.11-.07.09l0,0H7V9.64c-.12,0-.15,0-.23.06s.07-.16,0-.2-.07.11-.07.2-.05.06-.12,0-.07-.11-.08-.18c-.27-.05-.07-.41.08-.43s.07.1.11.14a.46.46,0,0,0,.45-.07c0-.27.32-.09.4-.21s-.14,0-.12-.05.15-.12.19-.22c.36.06.39-.24.69-.25,0,.11-.1.12,0,.18s.17-.16.3-.1-.11.07,0,.11,0-.32.26-.26c0,.08,0,.15.06.16s.2-.06.19-.22H8.9c-.12-.14-.26-.09-.47-.08,0,0,0-.15,0-.18s-.07.09-.14.11S8.08,8.11,8,8.05a.44.44,0,0,1-.39.19v0s0,0,0-.09-.06,0-.09,0a.13.13,0,0,0,0,.1l0,0v0c0,.1-.15,0-.22,0s0,.05,0,.09A.78.78,0,0,1,7,8.22v0H7c0-.08.08-.07.1-.11s.07.05.11.07S7.29,8,7.4,8s-.06,0,0-.07-.18.1-.23,0a.29.29,0,0,1-.27.05c-.14.18-.49.13-.71.23S6.07,8.08,6,8.09,6,8,6,8s-.06.07-.09.11c.14,0,.12.16.24.19s-.32.11-.45.07.06,0,0-.11-.09,0-.16,0,0-.19,0-.2a.86.86,0,0,0-.13-.14c.13-.1-.09-.2,0-.34l0,0h0c.14,0,.11-.11.25-.06V7.41c-.08,0-.22,0-.25.08H5.47c-.17,0-.26,0-.28-.17s-.07.09-.05.16,0,0,0,0,0,.16,0,.18h0s0,.13,0,.16,0,0,0,0,0,.15.07.11a.56.56,0,0,0,.12.3c0,.1,0,.12,0,.21s.15.06.2.12.28-.22.45-.17,0,.07.11.08.05,0,.05.11c.12-.12.33-.14.41-.3.06.06.13,0,.14-.09h0v0h0V8.4c-.11,0-.19.09-.17.26,0,0-.13,0-.13,0s0,.12,0,.16-.15.33-.3.28-.08-.26-.19-.32a.35.35,0,0,0-.26.3c-.09,0,0-.09-.09-.11s-.15-.05-.22-.08v0h0s0-.12,0-.11-.15,0-.23.06,0,.26-.21.24c-.07-.21.2-.36,0-.48,0,.1.06.07,0,.16s-.2.14-.22.29-.13,0-.12.08.15,0,.14.08-.3.12-.31.32a3.38,3.38,0,0,1-1.15,0,3.45,3.45,0,0,0-.12-.46A1.93,1.93,0,0,1,3,8.75a.68.68,0,0,0-.4-.1c-.08-.13-.29,0-.43-.08s0-.12,0-.12-.09,0-.08.11a1.72,1.72,0,0,0-.7.07v0h0V8.53c-.08,0-.22,0-.18.09s.08,0,.16,0v0l0,0C1.22,8.78,1,8.86.93,9s0,.28,0,.43c-.05,0-.07,0-.07.06H.57a.28.28,0,0,1,0,.14H.32c-.08.1-.2.16-.17.37s-.1.13-.15.18V9.26H0v0s0,0,.07,0v0h0c0,.07.07,0,0,.09s0-.06.12,0,0,.17,0,.25.08,0,.12-.06S.29,9.26.32,9.06c-.12,0-.1.11-.17.13v0h0V9M11.79,4.65c.07,0,.05.1.13.09v0h0c.14,0,0-.11,0-.13s0-.2-.06-.21H11.8s-.06,0-.05.06,0,.15,0,.21M10.71,7h0a6.15,6.15,0,0,1-.06-.73c-.19.08-.19.68,0,.75ZM7,9.79l0,0c-.07,0-.08,0-.16,0,0,.15.12.15.22.12V9.78Zm14.57,4c.21.08.36-.05.5-.12l0,0v0c-.18,0-.4,0-.48.18m-.07.09c0-.05-.07-.12-.15-.14s-.27.07-.39.12v0c.12.07.34,0,.45,0v0h0s.05,0,.05,0m-4.29-.63c0-.12-.2-.1-.24-.21h-.09v0l0,0c0,.17.2.13.31.19v0h0M14.15,11c.06,0,0,0,.11,0v0l0,0a.12.12,0,0,0-.13-.09.57.57,0,0,0,0,.13m7.2-1.09c.15,0,.15.14.26.17s0-.2,0-.29-.09-.08-.18-.08l0,0,0,0c0,.09,0,.11,0,.18m.88-2c.05,0,.06.11.13.12s.07,0,.07,0V7.84a.34.34,0,0,0-.18,0v0h0m-.26,1H22a.59.59,0,0,0,.51.15V9l0,0c0-.1-.21-.1-.25-.21H22.2a.87.87,0,0,0-.57-.32.31.31,0,0,0,0,.23.28.28,0,0,1,.31.19h0v0m3.71.34c-.07,0-.13.06-.12.18h.05l0,0s.12-.13.05-.2m-.77,1.92s0,.07.09.07.07,0,.09-.07a.06.06,0,0,0,0,0h0v0c-.06,0-.13,0-.14.07m-1,1.09c0,.07-.08,0,0,.11H24c.15-.17.37-.29.49-.5h-.2a1.19,1.19,0,0,1-.38.42M22.51,4.45c0,.09-.07.09-.07.18s.38,0,.41-.19l0,0v0c-.14,0-.17.09-.32.08m-1.57,1,0,0A.48.48,0,0,0,21.21,5h0l0,0a.53.53,0,0,0-.24.46ZM16,9.52c0-.06-.2-.07-.18,0l0,0v0c.1,0,.13-.05.16-.11M9.66,10.87c-.1,0-.08.14,0,.13s.08,0,.07-.11h0ZM3.84,7.25s0,0,0,.09.19,0,.21,0H4c0-.13-.18-.06-.2,0M26,3.84A.39.39,0,0,0,26,4h0c0-.05,0-.1,0-.15m-8.47,8.94c0,.08,0,.1,0,.18s-.1,0-.09,0,.22,0,.27,0,0,.08,0,.12.08.09.2.07c0-.19.17-.14.28-.19a.16.16,0,0,0-.13-.19h0s-.08,0-.12,0c.12,0,.13-.05.13-.05l0,0c.1-.1.08-.32.22-.38s-.08-.06,0-.16.08,0,.11,0v0l0,0c.05-.17-.1-.26-.19-.17v-.11a1.13,1.13,0,0,1,.52,0h0v0c0-.06.16-.17.06-.23.1-.07.21-.38,0-.38a4.53,4.53,0,0,1,0-1c.15-.13.1-.47.27-.58V9.61c-.22.13-.24.49-.4.68s0,.12,0,.14-.09.08-.14.11-.05.26-.13.33a1.5,1.5,0,0,1-.17.49s-.05,0-.05,0,0,.13,0,.18-.17.23-.15.4-.2.28-.22.49c-.25,0-.14-.38-.3-.48-.1.24.07.41,0,.68,0,0,.09,0,.09,0s-.08,0-.09.09m.86-.58,0,0c0,.18-.1.22.06.28a1.35,1.35,0,0,1,.17-.34c.07,0,0,.1.11.08s0-.12,0-.21h0v0s-.1,0-.16,0-.05.13-.14.13Z"/></g></g></svg>