<svg xmlns="http://www.w3.org/2000/svg" viewBox="0 0 5.18 174.55"><defs><style>.cls-1{fill:#7c6742;fill-rule:evenodd;}</style></defs><title>Asset 14</title><g id="Layer_2" data-name="Layer 2"><g id="Layer_1-2" data-name="Layer 1"><path class="cls-1" d="M0,0V9.24A13.14,13.14,0,0,0,.09,6.56c0-.21,0-.08,0-.19.08-.82-.07-1.72,0-2.5L.16,4l0,0a2.42,2.42,0,0,0,.17.81s0-.1,0-.1a9.18,9.18,0,0,0,0-1.4,7.7,7.7,0,0,0,0-1.11,10.38,10.38,0,0,1,0-2v0H.6C.61.41.62.73.61,1c0,0,0,.42-.06.29,0,1.24,0,1.89,0,3.06,0-.06,0-.21.06-.2,0,1.21.06,2.41,0,3.62a13.19,13.19,0,0,0,0,1.49c0,.28.05.68.05,1.3,0,.2,0,.13,0,.28,0,1.08.05,2.7,0,3.53.05.53.12,2.12-.11,2,0-.39,0-.8,0-1.2v0c0-1.56,0-3.14,0-4.52-.14,0,0,1.28-.09,1.41.08.37,0,1.41.08,1.94-.08.33-.16.66-.22,1.05h0s0-.33-.07-.35A12.34,12.34,0,0,0,.12,13c-.14-.83,0-1.67,0-2.88,0-.14,0-.25-.1-.27V174.55H1.3V0ZM5.18,5.34v0h0Zm0,.52V5.47a1.69,1.69,0,0,0,0,.39m0,2.45v0m0,1V8.38c-.1,0-.15.65-.09,1,0-.32,0-.22.09-.12m0,2.79V12s0,0,0,.08M2.59,0V174.55H5.18v-.23H5.11c0-.23,0-.49,0-.78a2.72,2.72,0,0,0,.07-.33v-9.32c-.15.41-.08,1.82-.29,2,0-.49-.1-.92-.12-1.54a31.9,31.9,0,0,0-.08-3.64c0-.24.11-.12.07-.6-.15-.14-.23.08-.28.41-.08,2,.2,3.34,0,4.7a31.43,31.43,0,0,0,0,3.31c-.08.05,0,3.49-.14,3.42-.11-.62-.24-4.58-.37-5.13.08-.85,0-2.56.13-3.17-.19-.21.07-2.26-.16-2.29-.11,2.85,0,9.63-.11,12.79-.39.25-.29-5.76-.18-6.62-.15-1.35,0-4-.07-5.77,0-.25-.06-.12-.06-.46,0-1,.05-1.65.08-2.11a21.8,21.8,0,0,0,0-2.43c-.06-2,0-3.94,0-5.9.07,0,.06.21.1.32-.08-1.92-.06-3,0-5-.13.21,0-.52-.1-.47,0-1.3.09,2.83,0,2,0-.24.11-.11.07-.59a37.56,37.56,0,0,1,0-5.61c-.12-.13,0-1-.17-1.08,0,.18-.07.35-.1.52V127l.06.23a4.52,4.52,0,0,0,.16,1.38c.1.13,0-.71.08-.59l0,.08,0-.07a3.28,3.28,0,0,1,.07,1.07,3.92,3.92,0,0,0,0,.91c0,.35,0,.51,0,.91-.11,0-.17.23-.18.73.12,0,.2.09.28.19a8.85,8.85,0,0,1-.08,1.81c.06,0,.06.06.06.31,0,1.72-.13,4.69,0,6.06.24.29.14-1,.36-.86a14.91,14.91,0,0,1,.11,2.9,22.09,22.09,0,0,1,0,3c.13-.22,0,.51.1.46,0,1.47,0-2.95-.06-1.7,0,.41.08.54.09.92a4.84,4.84,0,0,0-.21,1,6.07,6.07,0,0,1-.27-1.55c0-.57.08,4.63-.06,4.26l0-.15,0-.15c.12-.88.26-4.22-.15-3.65A26.91,26.91,0,0,0,4,148.18l0,.15v.16c0,.5,0-4.51-.11-4.29a18,18,0,0,1,0,3.33,13.87,13.87,0,0,0,.06,1.82A14.23,14.23,0,0,0,4,151.63s0,.13.07.17a4.28,4.28,0,0,0,.29-1.33l.06.09,0-.22c.13,1.27-.13,2.74,0,4.09,0,.18.06,0,.07.31,0,1.46-.17,3.55.18,4.42,0,0,0-.19.1-.14A3.51,3.51,0,0,1,5,157.24c0,.27.08.42.09.77a24.74,24.74,0,0,0,.09,5.39V150.62l0-.18a20.1,20.1,0,0,0-.13,3,6.21,6.21,0,0,1-.08,1.66c-.2-.68-.07-2.65-.22-3.52,0-.4.14-.1.11-.59a10.2,10.2,0,0,1,0-2.27c.17-.27.19.2.33.34v-12.6A3.13,3.13,0,0,0,5,135.6c0-.3,0-.6,0-.9-.25-.15-.27-1.78-.19-2.76.11-.06.17.08.2.34a4.36,4.36,0,0,0,.13-.62v-4.34a1.11,1.11,0,0,0-.12-.34c0,1.06-.11,1.71,0,2.12-.12-.17,0,.73-.18.42-.06-1.31-.09-2.7-.09-4.13l.24-.11a1.89,1.89,0,0,0,.09.64c0-.28,0-.32.08-.34V16.46h-.1L5,16.09a6.75,6.75,0,0,0,0-.81l.16,0c0,.05,0,.1,0,.14V14.22c0,.24-.11.5-.15.78-.07,0,0-.33-.09-.36A12.34,12.34,0,0,0,5,13c-.14-.83,0-1.67,0-2.88,0-.2-.08-.34-.17-.25,0,.29,0,.22,0,.36a19.44,19.44,0,0,0,0,2.23c0,.39-.09.65-.08,1-.11-.08-.09-.79-.14-1.12v-.54a16.28,16.28,0,0,0,0-3.15c0-.21,0-.31,0-.48a2.35,2.35,0,0,1,.14,1.1s0,.08.06.08a12.58,12.58,0,0,0,.1-2.71c0-.21,0-.08,0-.19.08-.82-.07-1.72,0-2.5L5,4l0,0a3.12,3.12,0,0,0,.13.72V.17A4.88,4.88,0,0,1,5,1.08,3.1,3.1,0,0,0,4.9.45a1.79,1.79,0,0,1,0-.36h.24V0ZM.13,3.5l0,0,0,.13a7.87,7.87,0,0,0,0-1.67C0,1.81.13,3,.13,3.5m.2,1.82H.39c0,.28,0,.61,0,.57a3.24,3.24,0,0,1,0-.56M.4,9.4c-.05.06-.14-.48-.16,0-.06-.39,0-1.07.09-1,0-.4,0-.83,0-1.11l.1,0A11,11,0,0,1,.4,9.4M.34.09v0a5,5,0,0,1-.16,1A3.1,3.1,0,0,0,.05.45c0-.16,0-.24,0-.36ZM5,3.5l0,0,0,.13a7.87,7.87,0,0,0,0-1.67C4.87,1.81,5,3,5,3.5M4.58.09a4.68,4.68,0,0,0,0,.67v1.3l.13,0q0-1,0-1.95Zm0,3c.06-.11.08-.34.17-.19a6.49,6.49,0,0,1,0,1.39c0,.31.07.12.07.37-.09.53,0,1.74-.13,2.15a4.25,4.25,0,0,1,0-1,14.76,14.76,0,0,0-.07-1.83ZM4.42,149.73l-.06-.08,0,.22a11.59,11.59,0,0,1-.06-2.74c.35-.16.16,1.72.16,2.6m.37-10.07c.07,0,.11-.11.11-.44,0,.31.2.26.27.5l0,.16v.28a3.17,3.17,0,0,0,0,1.22c-.06,1.82.07,4-.11,5,0,1.75.18-2.5,0-1.09,0,.71,0,1.41,0,2.12l-.21,0c0-4.41-.13-2.79,0-7.7m-.8,4a6.27,6.27,0,0,0,0-2.42,8.75,8.75,0,0,0,0,2.42m.09,9.07H4c0,.46,0,1,.1.92.08-.3,0-.43,0-.91M4,159.36c.1.1.25-.78.28,0,.11-.63,0-1.75-.16-1.69,0-.66,0-1.36,0-1.82l-.18,0A18.83,18.83,0,0,0,4,159.36m.11,15H5c0-.14,0-.26,0-.33-.15,0-.07-1-.13-1.38a2.94,2.94,0,0,0-.22,1.33c-.13.1-.16-.21-.28-.19,0-.38,0-.82,0-1.37l-.28,0c0,.41-.09.52-.11.9s0,.73.08,1.08m.39-37.43-.21,0c0-1.38-.1-2.65-.15-4,.18-1,0-2.66.14-3.92l.17,0c0,1.8,0,3.65.17,5a18.54,18.54,0,0,0-.12,2.86"/></g></g></svg>