<svg xmlns="http://www.w3.org/2000/svg" viewBox="0 0 540.01 5.34"><defs><style>.cls-1{fill:#7c6742;fill-rule:evenodd;}</style></defs><title>Asset 18</title><g id="Layer_2" data-name="Layer 2"><g id="Layer_1-2" data-name="Layer 1"><path class="cls-1" d="M530.91,0h.75a2.7,2.7,0,0,1-1,0c.15,0,.21,0,.21,0M494.42,0h.75s.07,0,.21,0a2.7,2.7,0,0,1-1,0M444.68,1.34V.54l.53-.05h1.3a.51.51,0,0,1,0-.13c-.6,0-1.21,0-1.81,0V.2l.21,0a4,4,0,0,1,.63-.13l-.4-.09h3.77a2.86,2.86,0,0,1-.5.07l.06,0-.14,0c.78.07,43.2-.08,44,0,.11,0,0,0,.19,0a12.48,12.48,0,0,1,2.7.1s-.11,0-.08.06a2.3,2.3,0,0,0-1.09.14c.17,0,.26.05.47.05a16.31,16.31,0,0,1,3.16,0h.54c.32-.06,1,0,1.11-.15-.3,0-.56-.07-.94-.08a19.67,19.67,0,0,1-2.23,0c-.15,0-.08.06-.37,0-.08-.09.05-.14.25-.17,1.21-.05,2.05.12,2.88,0,.58,0,1.35,0,1.67,0,0,0,.4,0,.36-.08l-.49-.1h.76s0,.08,0,.11c.33,0,.59,0,.82,0l.37-.09V0h21.23V0l.37.09c.23,0,.49,0,.81,0l0-.11h.76l-.5.1c0,.06.33,0,.36.08.32-.06,1.1,0,1.68,0,.83.14,1.66,0,2.87,0,.2,0,.34.08.25.17-.29,0-.22,0-.36,0a19.67,19.67,0,0,1-2.23,0c-.38,0-.65.09-.94.08.08.11.79.09,1.11.15h.54a16.2,16.2,0,0,1,3.15,0c.21,0,.31,0,.48-.05a2.32,2.32,0,0,0-1.1-.14s-.08,0-.08-.06a12.58,12.58,0,0,1,2.71-.1c.21,0,.08,0,.19,0,.82-.08,1.72.07,2.5,0l-.13,0,0,0a3,3,0,0,1-.5-.07h3.77l-.4.09a4.43,4.43,0,0,1,.64.13,1.49,1.49,0,0,0,.33,0V.35c-.64,0-1.29,0-1.93,0,0,.05,0,.09,0,.13h1.3a6.37,6.37,0,0,0,.65.05v.8ZM536.62,5l.06,0-.14,0a6.79,6.79,0,0,1,1.68,0c.09.2-1.06.09-1.6.09m-1.82-.2a.13.13,0,0,1,0-.06c-.28,0-.61,0-.57,0a2.47,2.47,0,0,0,.56,0m-4.08-.07c-.06,0,.48.14,0,.16.39.06,1.07,0,1-.09.4,0,.83,0,1.11,0,0,0,0-.06,0-.1a11.88,11.88,0,0,0-2.15,0m0,.62h-1.44c.45,0,.94,0,1.44,0M540,4.66v.12h0a5.12,5.12,0,0,0-1,.16,3.39,3.39,0,0,1,.64.13A1.49,1.49,0,0,0,540,5V5.2h-1.93s0,.08,0,.12h-.82s.07,0,0-.1a6.49,6.49,0,0,0-1.39,0c-.3,0-.12-.07-.37-.06-.53.08-1.74,0-2.15.12a.49.49,0,0,0,.21,0H532a2.32,2.32,0,0,0-1.1-.14s-.08,0-.08-.06a12.58,12.58,0,0,1,2.71-.1c.21,0,.08,0,.19,0,.82-.08,1.72.07,2.5,0l-.13,0,0,0a2.42,2.42,0,0,1-.81-.17s.1,0,.1,0a9.18,9.18,0,0,1,1.4,0,8.14,8.14,0,0,1,1.11,0,11.35,11.35,0,0,0,2,0M536.62.14l.06,0-.14,0a6.79,6.79,0,0,1,1.68,0c.09.2-1.06.09-1.6.09m.44.43c.1-.07.33-.09.18-.18a6.49,6.49,0,0,0-1.39,0c-.3,0-.12-.07-.37-.06-.53.08-1.74,0-2.15.12a3.41,3.41,0,0,0,1,0,12.72,12.72,0,0,1,1.83.08ZM453.88,5l-.06,0,.14,0a6.79,6.79,0,0,0-1.68,0c-.09.2,1.06.09,1.6.09m1.82-.2a.13.13,0,0,0,0-.06c.28,0-8.29,0-8.34,0s8.64,0,8.35,0m-4.83-.07c.07,0-.47.14,0,.16-.39.06-1.07,0-1-.09-.4,0-.83,0-1.11,0,0,0,0-.06,0-.1a11.77,11.77,0,0,1,2.14,0m1.41.62h-1.46c.5,0,1,0,1.46,0m-1.66-.83-5.94-1.84H540V4.52h-.9s-.42,0-.29.06c-1.24,0-1.89-.05-3.06,0,.06,0,.22,0,.2-.06-1.21,0-2.41-.06-3.62,0a13.19,13.19,0,0,1-1.49,0c-.28,0-.68,0-1.29,0-.21,0-.13,0-.29,0-1.08,0-2.7,0-3.53,0-.53-.06-2.12-.13-2,.11l1.2,0h0c1.56,0,3.14,0,4.52,0,0,.14-1.28,0-1.4.09-.37-.08-1.42,0-1.94-.07-.34.07-.67.15-1.06.21h0V5s.33,0,.35.06a14.38,14.38,0,0,1,1.68,0A26.51,26.51,0,0,0,530,5c.2,0,.34.08.25.17-.29,0-.22,0-.36,0-.52.09-1.49,0-2.23,0-.38,0-.65.09-.94.08a.46.46,0,0,0,.22.07H454.62c.12,0,.21,0,.23-.07-.29,0-.56-.07-.94-.08-.74,0-1.71,0-2.23,0-.15,0-.07.06-.37,0-.08-.09.05-.14.26-.17a26.54,26.54,0,0,0,2.87,0,14.43,14.43,0,0,1,1.68,0s.3,0,.35-.06V5h0c-.38-.06-.71-.14-1.05-.21-.52,0-1.57,0-1.94.07-.13-.11-1.39,0-1.4-.09,1.38,0,3,0,4.52,0h0l1.2,0c.15-.24-1.44-.17-2-.11-.83-.09-2.46,0-3.54,0-.15,0-.07,0-.28,0-.62,0-1,0-1.29,0a13.12,13.12,0,0,1-1.49,0c-1.21,0,6.49,0,5.28,0,0,0,.14,0,.2.06-1.17-.05-1.82,0-3.06,0,.13-.08-.31,0-.29-.06h-.77M447.94.14l-.05,0,.13,0a6.7,6.7,0,0,0-1.67,0c-.1.2,1,.09,1.59.09m-.43.43c-.1-.07-.33-.09-.18-.18a6.49,6.49,0,0,1,1.39,0c.3,0,.11-.07.36-.06.53.08,43.26,0,43.67.12a3.36,3.36,0,0,1-1,0c-.69,0-43,0-43.35.08Zm3.11,4.63V5.05l.2,0a3.39,3.39,0,0,1,.64-.13,4.59,4.59,0,0,0-.84-.15V4.68a12.65,12.65,0,0,0,1.91,0,8.14,8.14,0,0,1,1.11,0,9.18,9.18,0,0,1,1.4,0s.08,0,.1,0a2.42,2.42,0,0,1-.81.17l.05,0-.13,0c.78.07-7.22-.08-6.4,0,.11,0,0,0,.19,0a12.58,12.58,0,0,1,2.71.1s-.12,0-.09.06a2.3,2.3,0,0,0-1.09.14h-1.51a.44.44,0,0,0,.2,0c-.41-.11,7.29,0,6.76-.12-.25,0-.06.08-.37.06a6.49,6.49,0,0,0-1.39,0c-.07,0-.05.07,0,.1h-.82s0-.08,0-.12h-1.8"/><path class="cls-1" d="M9.09,0H8.34a2.77,2.77,0,0,0,1,0c-.15,0-.21,0-.22,0m36.5,0h-.75s-.07,0-.22,0a2.75,2.75,0,0,0,1,0m31,1.34V.54L76.11.49h-1.3s0-.08,0-.13q.9,0,1.8,0V.2l-.2,0a4.43,4.43,0,0,0-.64-.13l.4-.09H72.42a3,3,0,0,0,.5.07l0,0,.13,0c-.78.07-24.51-.08-25.33,0-.11,0,0,0-.19,0a12.58,12.58,0,0,0-2.71.1s.12,0,.09.06A2.3,2.3,0,0,1,46,.48c-.17,0-.26.05-.47.05a16.31,16.31,0,0,0-3.16,0h-.54c-.32-.06-1,0-1.11-.15.29,0,.56-.07.94-.08a19.67,19.67,0,0,0,2.23,0c.15,0,.07.06.37,0C44.29.25,44.16.2,44,.17c-1.2-.05-2,.12-2.87,0-.58,0-1.35,0-1.67,0,0,0-.41,0-.36-.08l.49-.1h-.76s0,.08,0,.11c-.33,0-.59,0-.82,0L37.58,0V0H16.35V0L16,.13c-.23,0-.49,0-.81,0l0-.11h-.76l.5.1c0,.06-.33,0-.36.08-.32-.06-1.1,0-1.68,0-.83.14-1.67,0-2.87,0-.2,0-.34.08-.25.17.29,0,.21,0,.36,0a19.67,19.67,0,0,0,2.23,0c.38,0,.65.09.94.08-.08.11-.79.09-1.11.15h-.54a16.29,16.29,0,0,0-3.16,0c-.21,0-.3,0-.47-.05A2.32,2.32,0,0,1,9.08.34s.08,0,.08-.06A12.58,12.58,0,0,0,6.45.18c-.21,0-.08,0-.19,0C5.44.06,4.53.21,3.75.14l.14,0-.05,0A3,3,0,0,0,4.34,0H.57L1,.09A4.43,4.43,0,0,0,.33.22,1.49,1.49,0,0,1,0,.18V.35c.64,0,1.29,0,1.93,0,0,.05,0,.09,0,.13H.65C.44.52.22.53,0,.54v.8ZM3.39,5,3.33,5l.14,0a6.79,6.79,0,0,0-1.68,0c-.1.2,1.06.09,1.6.09m1.82-.2a.13.13,0,0,0,0-.06c.28,0,.61,0,.57,0a2.47,2.47,0,0,1-.56,0m4.07-.07c.07,0-.47.14,0,.16-.39.06-1.07,0-1-.09-.4,0-.83,0-1.11,0,0,0,0-.06,0-.1a11.74,11.74,0,0,1,2.14,0m0,.62h1.44c-.45,0-.94,0-1.44,0M0,4.66v.12H0a5.1,5.1,0,0,1,1,.16,3.39,3.39,0,0,0-.64.13A1.49,1.49,0,0,1,0,5V5.2H1.93s0,.08,0,.12h.82s-.08,0,0-.1a6.49,6.49,0,0,1,1.39,0c.3,0,.12-.07.36-.06.54.08,1.74,0,2.16.12a.49.49,0,0,1-.21,0H8a2.32,2.32,0,0,1,1.1-.14s.08,0,.08-.06A12.58,12.58,0,0,0,6.45,5c-.21,0-.08,0-.19,0-.82-.08-1.73.07-2.51,0l.14,0-.05,0a2.42,2.42,0,0,0,.81-.17s-.1,0-.1,0a9.21,9.21,0,0,0-1.4,0A8.14,8.14,0,0,0,2,4.65a11.35,11.35,0,0,1-2,0M3.39.14,3.33.1l.14,0a6.79,6.79,0,0,0-1.68,0c-.1.2,1.06.09,1.6.09M3,.57C2.85.5,2.62.48,2.77.39a6.49,6.49,0,0,1,1.39,0c.3,0,.12-.07.36-.06.54.08,1.74,0,2.16.12a3.41,3.41,0,0,1-1,0A12.72,12.72,0,0,0,3.83.57ZM67.44,5l0,0-.14,0A6.8,6.8,0,0,1,69,4.9c.1.2-1.06.09-1.59.09m-1.83-.2s0,0,0-.06c-.28,0,8.3,0,8.34,0,.19,0-8.64,0-8.35,0m4.83-.07c-.06,0,.48.14,0,.16.38.06,1.07,0,1-.09.41,0,.84,0,1.12,0,0,0,0-.06,0-.1a11.8,11.8,0,0,0-2.14,0M69,5.34h1.46c-.5,0-1,0-1.46,0m1.66-.83,5.94-1.84H0V4.52H.9s.42,0,.29.06c1.24,0,1.89-.05,3.06,0-.06,0-.22,0-.2-.06,1.21,0,2.41-.06,3.62,0a13.12,13.12,0,0,0,1.49,0c.28,0,.67,0,1.29,0,.21,0,.13,0,.29,0,1.08,0,2.7,0,3.53,0,.53-.06,2.12-.13,2,.11l-1.2,0h0c-1.56,0-3.14,0-4.52,0,0,.14,1.27,0,1.4.09.37-.08,1.42,0,1.94-.07.34.07.67.15,1.06.21h0V5c-.05,0-.33,0-.35.06a14.38,14.38,0,0,0-1.68,0A26.54,26.54,0,0,1,10,5c-.2,0-.34.08-.25.17.29,0,.21,0,.36,0,.52.09,1.49,0,2.23,0,.38,0,.65.09.94.08,0,0-.11.05-.23.07H66.69a.56.56,0,0,1-.23-.07c.3,0,.56-.07.94-.08.74,0,1.72,0,2.24,0,.14,0,.07.06.36,0,.08-.09,0-.14-.25-.17a26.7,26.7,0,0,1-2.88,0A14.2,14.2,0,0,0,65.2,5s-.31,0-.36-.06V5h0c.38-.06.72-.14,1-.21.52,0,1.57,0,1.94.07.13-.11,1.39,0,1.4-.09-1.38,0-3,0-4.51,0h0l-1.21,0c-.15-.24,1.44-.17,2-.11.83-.09,2.45,0,3.53,0,.15,0,.08,0,.28,0,.62,0,1,0,1.3,0a13,13,0,0,0,1.48,0c1.22,0-6.49,0-5.28,0,0,0-.13,0-.2.06,1.17-.05,1.82,0,3.06,0-.13-.08.32,0,.29-.06h.77M73.37.14l.06,0-.14,0A6.72,6.72,0,0,1,75,.05c.1.2-1,.09-1.59.09m.44.43c.1-.07.33-.09.18-.18a6.49,6.49,0,0,0-1.39,0c-.31,0-.12-.07-.37-.06-.53.08-24.56,0-25,.12a3.36,3.36,0,0,0,1,0c.69,0,24.34,0,24.66.08ZM70.69,5.2V5.05l-.2,0a3.43,3.43,0,0,0-.63-.13,4.31,4.31,0,0,1,.83-.15V4.68a12.52,12.52,0,0,1-1.9,0,8.38,8.38,0,0,0-1.12,0,9.21,9.21,0,0,0-1.4,0s-.08,0-.1,0a2.48,2.48,0,0,0,.81.17l0,0,.14,0c-.78.07,7.22-.08,6.39,0-.1,0,0,0-.19,0a12.51,12.51,0,0,0-2.7.1s.11,0,.08.06a2.3,2.3,0,0,1,1.09.14h1.52a.46.46,0,0,1-.21,0c.41-.11-7.29,0-6.75-.12.24,0,.06.08.36.06a6.49,6.49,0,0,1,1.39,0c.08,0,.06.07,0,.1h.82s0-.08,0-.12h1.8"/><path class="cls-1" d="M333.76,0h.75a2.7,2.7,0,0,1-1,0c.15,0,.2,0,.21,0M253.68,0H326.5V0l.38.09c.23,0,.49,0,.81,0l0-.11h.76c-.16,0-.33.07-.5.09s.33,0,.36.09a14.2,14.2,0,0,1,1.67,0,26.7,26.7,0,0,0,2.88,0c.2,0,.33.08.25.17-.29,0-.22,0-.36,0-.52.09-1.49,0-2.24,0-.38,0-.64.09-.94.08.08.11.79.09,1.12.15h.54a15.51,15.51,0,0,1,3.15,0c.21,0,.3-.05.48-.06a2.35,2.35,0,0,0-1.1-.14s-.08,0-.08-.06a12.51,12.51,0,0,1,2.7-.1c.22,0,.09,0,.19,0,.83-.08,1.73.07,2.51,0l-.13,0,0,0a3,3,0,0,1-.5-.07h3.77l-.4.09a3.1,3.1,0,0,1,.63.13l.2,0V.35h-1.79a.5.5,0,0,0,0,.12h1.3l.51.05v.79h-88.4l0-.12-.47-1ZM360,5.34h-1.44c.45,0,.95,0,1.44,0m9.11-.66v.11a4.31,4.31,0,0,0-.83.15,3.43,3.43,0,0,1,.63.13l.2,0V5.2h-1.8s0,.09,0,.13h-.82c.05,0,.08,0,0-.1a6.49,6.49,0,0,0-1.39,0c-.3,0-.12-.07-.36-.06-.54.08-1.74,0-2.15.12a.44.44,0,0,0,.2,0h-1.51a2.3,2.3,0,0,0-1.09-.14s-.09,0-.09-.06a12.58,12.58,0,0,1,2.71-.1c.21,0,.08,0,.19,0,.82-.08,1.73.07,2.51,0l-.14,0,.05,0a2.48,2.48,0,0,1-.81-.17s.1,0,.1,0a9.21,9.21,0,0,1,1.4,0,8.38,8.38,0,0,1,1.12,0,12.52,12.52,0,0,0,1.9,0m-115.3-2h115.3V4.51h-.77s-.42,0-.29.06c-1.24,0-1.89-.05-3.06,0,.07,0,.22,0,.2-.06-1.21,0-2.41-.06-3.62,0a13.12,13.12,0,0,1-1.49,0c-.28,0-.67,0-1.29,0-.21,0-.13,0-.28,0-1.08,0-2.71,0-3.54,0-.52-.06-2.11-.13-2,.11l1.2,0h0c1.56,0,3.14,0,4.52,0,0,.14-1.27,0-1.4.09-.37-.08-1.42,0-1.94-.07-.34.07-.67.15-1.05.21h0V5c.05,0,.33,0,.36.06a12.3,12.3,0,0,1,1.67,0c.83.14,1.67,0,2.88,0,.2,0,.33.08.25.17-.3,0-.22,0-.37-.05a19.44,19.44,0,0,1-2.23.05c-.38,0-.65.09-.94.08,0,0,.11.05.23.07H252.08l.78-1.51ZM365.81,5l.05,0-.14,0a7.45,7.45,0,0,1,1.68,0c.1.2-1.06.09-1.59.09M364,4.79s0,0,0-.06c-.28,0-.61,0-.56,0a2.36,2.36,0,0,0,.55,0m-4.07-.07c-.06,0,.48.14,0,.16.38.06,1.06,0,1-.09.4,0,.83,0,1.11,0,0,0,0-.07,0-.1a11.77,11.77,0,0,0-2.14,0M339.47.14l0,0-.13,0a6.7,6.7,0,0,1,1.67,0c.1.2-1.05.09-1.59.09m.43.43c.11-.07.33-.09.19-.18a6.58,6.58,0,0,0-1.4,0c-.3,0-.11-.07-.36-.06-.53.08-1.74,0-2.15.12a3.36,3.36,0,0,0,1,0A12.56,12.56,0,0,1,339,.57Z"/><path class="cls-1" d="M190.47,0h-.75a2.7,2.7,0,0,0,1,0c-.14,0-.2,0-.21,0m89,0H197.73V0l-.37.09c-.23,0-.49,0-.82,0V0h-.76l.49.1c.05.06-.33,0-.36.08a14.2,14.2,0,0,0-1.67,0,26.7,26.7,0,0,1-2.88,0c-.2,0-.33.08-.25.17.3,0,.22,0,.37,0,.52.09,1.49,0,2.23,0,.38,0-23.44.09-23.15.08-.08.11,23.3.09,23,.15H193a15.61,15.61,0,0,0-3.16,0c-.21,0-.3-.05-.47-.06a2.3,2.3,0,0,1,1.09-.14s.09,0,.09-.06c-.53-.2-25.9-.08-26.8-.1-.21,0,24,0,23.9,0-.83-.08-1.73.07-2.51,0l.14,0-.05,0a2.87,2.87,0,0,0,.49-.07h-3.77l.4.09a4.55,4.55,0,0,0-.63.13l-.2,0V.35h1.8s0,.08,0,.12H182l-.52.05v.79h97.31l0-.12.46-1ZM166.53,5.34H168c-.45,0-.94,0-1.44,0m-9.11-.66v.11a4.59,4.59,0,0,1,.84.15,3.39,3.39,0,0,0-.64.13l-.2,0V5.2h1.8s0,.08,0,.12h.82c-.05,0-.08,0,0-.1a6.49,6.49,0,0,1,1.39,0c.3,0,.12-.07.36-.06.54.08,1.74,0,2.16.12a.49.49,0,0,1-.21,0h1.51a2.32,2.32,0,0,1,1.1-.14s.08,0,.08-.06a12.58,12.58,0,0,0-2.71-.1c-.21,0-.08,0-.19,0-.82-.08-1.73.07-2.51,0l.14,0-.05,0a2.48,2.48,0,0,0,.81-.17s-.1,0-.1,0a9.21,9.21,0,0,0-1.4,0,8.31,8.31,0,0,0-1.12,0,12.52,12.52,0,0,1-1.9,0m122-2h-122V4.51h.77s.42,0,.29.06c1.24,0,1.89-.05,3.06,0-.07,0-.22,0-.2-.06,1.21,0,2.41-.06,3.62,0a13.12,13.12,0,0,0,1.49,0c.28,0,.67,0,1.29,0,.21,0,.13,0,.29,0,1.08,0,2.7,0,3.53,0,.53-.06,2.12-.13,2,.11l-1.2,0h0c-1.56,0-3.14,0-4.52,0,0,.14,1.27,0,1.4.09.37-.08,1.42,0,1.94-.07.34.07.67.15,1.06.21h0V5s-.33,0-.35.06a12.5,12.5,0,0,0-1.68,0c-.83.14-1.67,0-2.87,0-.2,0-.34.08-.26.17.3,0,.22,0,.37,0,.52.09,1.49,0,2.23,0,.38,0,.65.09.94.08,0,0-.11.05-.23.07H281.06l-.79-1.51ZM160.67,5l0,0,.14,0a7.44,7.44,0,0,0-1.68,0c-.1.2,1.06.09,1.59.09m1.83-.2s0,0,0-.06c.28,0,.61,0,.57,0a2.47,2.47,0,0,1-.56,0m4.07-.07c.07,0-.47.14,0,.16-.39.06-1.07,0-1-.09-.4,0-.83,0-1.11,0,0,0,0-.06,0-.1a11.74,11.74,0,0,1,2.14,0M184.76.14l0,0,.14,0a6.8,6.8,0,0,0-1.68,0c-.1.2,1.06.09,1.59.09m-.43.43c-.1-.07-.33-.09-.18-.18a6.49,6.49,0,0,1,1.39,0c.3,0,.12-.07.36-.06.54.08,1.74,0,2.15.12a3.36,3.36,0,0,1-1,0,12.72,12.72,0,0,0-1.83.08Z"/><path class="cls-1" d="M349.54,0h.75a2.77,2.77,0,0,1-1,0c.15,0,.21,0,.22,0m-89,0h81.73V0l.37.09c.23,0,.49,0,.81,0l0-.11h.76l-.5.1c0,.06.34,0,.36.08a14.43,14.43,0,0,1,1.68,0,26.51,26.51,0,0,0,2.87,0c.2,0,.34.08.25.17-.29,0-.21,0-.36,0-.52.09-1.49,0-2.23,0-.38,0,23.44.09,23.15.08.08.11-23.3.09-23,.15H347a15.6,15.6,0,0,1,3.16,0c.21,0,.3-.05.47-.06a2.32,2.32,0,0,0-1.1-.14s-.08,0-.08-.06c.53-.2,25.9-.08,26.8-.1.21,0-24,0-23.9,0,.82-.08,1.73.07,2.51,0l-.14,0,.05,0a3,3,0,0,1-.5-.07h3.77l-.4.09a4.43,4.43,0,0,1,.64.13l.2,0V.35h-1.8s0,.08,0,.12H358l.52.05v.79H261.19l0-.12-.47-1ZM373.48,5.34H372c.45,0,.94,0,1.44,0m9.11-.66v.11a4.59,4.59,0,0,0-.84.15,3.39,3.39,0,0,1,.64.13l.2,0V5.2h-1.8s0,.08,0,.12H380c.05,0,.07,0,0-.1a6.49,6.49,0,0,0-1.39,0c-.3,0-.12-.07-.37-.06-.53.08-1.74,0-2.15.12a.49.49,0,0,0,.21,0h-1.51a2.32,2.32,0,0,0-1.1-.14s-.08,0-.08-.06a12.58,12.58,0,0,1,2.71-.1c.21,0,.08,0,.19,0,.82-.08,1.72.07,2.5,0l-.13,0,.05,0a2.42,2.42,0,0,1-.81-.17s.1,0,.1,0a9.18,9.18,0,0,1,1.4,0,8.14,8.14,0,0,1,1.11,0,12.62,12.62,0,0,0,1.91,0m-122-2h122V4.51h-.77s-.42,0-.29.06c-1.24,0-1.89-.05-3.06,0,.06,0,.22,0,.2-.06-1.21,0-2.41-.06-3.62,0a13.19,13.19,0,0,1-1.49,0c-.28,0-.68,0-1.29,0-.21,0-.13,0-.29,0-1.08,0-2.7,0-3.53,0-.53-.06-2.12-.13-2,.11l1.2,0h0c1.56,0,3.14,0,4.52,0,0,.14-1.28,0-1.4.09-.37-.08-1.42,0-1.94-.07-.34.07-.67.15-1.06.21h0V5c.05,0,.33,0,.35.06a12.46,12.46,0,0,1,1.68,0c.83.14,1.66,0,2.87,0,.2,0,.34.08.25.17-.29,0-.21,0-.36,0-.52.09-1.49,0-2.23,0-.38,0-.65.09-.94.08a.46.46,0,0,0,.22.07H259l.78-1.51ZM379.33,5l.06,0-.14,0a7.44,7.44,0,0,1,1.68,0c.1.2-1.06.09-1.6.09m-1.82-.2a.13.13,0,0,1,0-.06c-.28,0-.61,0-.57,0a2.47,2.47,0,0,0,.56,0m-4.08-.07c-.06,0,.48.14,0,.16.39.06,1.07,0,1-.09.4,0,.83,0,1.11,0,0,0,0-.06,0-.1a11.88,11.88,0,0,0-2.15,0M355.25.14l.05,0-.14,0a6.79,6.79,0,0,1,1.68,0c.1.2-1.06.09-1.59.09m.43.43c.1-.07.33-.09.18-.18a6.49,6.49,0,0,0-1.39,0c-.3,0-.12-.07-.36-.06-.54.08-1.74,0-2.16.12a3.41,3.41,0,0,0,1,0,12.72,12.72,0,0,1,1.83.08Z"/><path class="cls-1" d="M38.48,0h-.75a2.7,2.7,0,0,0,1,0c-.15,0-.2,0-.21,0M502.93,0H45.74V0l-.37.09c-.23,0-.49,0-.82,0V0h-.76c.15,0,.32.07.49.09s-.33,0-.36.09a14.2,14.2,0,0,0-1.67,0,26.7,26.7,0,0,1-2.88,0c-.2,0-.33.08-.25.17.29,0,.22,0,.36,0,.53.09,1.5,0,2.24,0,.38,0,.64.09.94.08-.08.11-.79.09-1.11.15H41a15.61,15.61,0,0,0-3.16,0c-.21,0-.3-.05-.47-.06A2.3,2.3,0,0,1,38.46.34s.08,0,.08-.06a12.48,12.48,0,0,0-2.7-.1c-.22,0-.09,0-.19,0-.83-.08-1.73.07-2.51,0l.14,0-.06,0a2.86,2.86,0,0,0,.5-.07H30l.4.09a3.1,3.1,0,0,0-.63.13l-.2,0V.35h1.8a.5.5,0,0,0,0,.12H30l-.52.05v.79H502.29l0-.12.46-1ZM27,5.34h1.44c-.45,0-.94,0-1.44,0m-9.11-.66v.11a4.59,4.59,0,0,1,.84.15,3.39,3.39,0,0,0-.64.13l-.2,0V5.2h1.8s0,.09,0,.13h.82s-.07,0,0-.1a6.49,6.49,0,0,1,1.39,0c.3,0,.12-.07.37-.06.53.08,1.74,0,2.15.12a.49.49,0,0,1-.21,0h1.51a2.32,2.32,0,0,1,1.1-.14s.08,0,.08-.06A12.58,12.58,0,0,0,24.24,5c-.21,0-.08,0-.19,0-.82-.08-1.73.07-2.51,0l.14,0-.05,0a2.42,2.42,0,0,0,.81-.17s-.1,0-.1,0a9.21,9.21,0,0,0-1.4,0,8.14,8.14,0,0,0-1.11,0,12.65,12.65,0,0,1-1.91,0m484.94-2H17.92V4.51h.77s.42,0,.29.06c1.24,0,1.89-.05,3.06,0-.06,0-.22,0-.2-.06,1.21,0,2.41-.06,3.62,0a13.19,13.19,0,0,0,1.49,0c.28,0,.68,0,1.29,0,.21,0,.13,0,.29,0,1.08,0,2.7,0,3.53,0,.53-.06,2.12-.13,2,.11l-1.2,0h0c-1.56,0-3.14,0-4.52,0,0,.14,1.28,0,1.4.09.37-.08,1.42,0,1.94-.07.34.07.67.15,1.06.21h0V5c-.05,0-.33,0-.35.06a12.46,12.46,0,0,0-1.68,0c-.83.14-1.66,0-2.87,0-.2,0-.34.08-.25.17.29,0,.21,0,.36-.05a19.44,19.44,0,0,0,2.23.05c.38,0,.65.09.94.08a.46.46,0,0,1-.22.07H504.54l-.79-1.51ZM21.18,5l-.06,0,.14,0a7.44,7.44,0,0,0-1.68,0c-.1.2,1.06.09,1.6.09M23,4.79a.13.13,0,0,0,0-.06c.28,0,.61,0,.57,0a2.47,2.47,0,0,1-.56,0m4.07-.07c.07,0-.47.14,0,.16-.39.06-1.07,0-1-.09-.4,0-.83,0-1.11,0,0,0,0-.07,0-.1a11.74,11.74,0,0,1,2.14,0M32.77.14l-.05,0,.13,0a6.7,6.7,0,0,0-1.67,0c-.1.2,1,.09,1.59.09m-.43.43C32.23.5,32,.48,32.16.39a6.49,6.49,0,0,1,1.39,0c.3,0,.11-.07.36-.06.53.08,1.74,0,2.15.12a3.36,3.36,0,0,1-1,0,12.72,12.72,0,0,0-1.83.08Z"/></g></g></svg>