<svg xmlns="http://www.w3.org/2000/svg" viewBox="0 0 8.26 41.79"><defs><style>.cls-1{fill:#7c6742;fill-rule:evenodd;}</style></defs><title>Asset 11</title><g id="Layer_2" data-name="Layer 2"><g id="Layer_1-2" data-name="Layer 1"><path class="cls-1" d="M2.92,7.71a.29.29,0,0,1,.1,0c0-.11,0-.16-.16-.17s.11.07.06.2M3,7.22c0-.24,0-.3,0-.52H3c0,.25-.1.3-.12.49a.3.3,0,0,0,.2,0M5.49,25.68v-.16H5.33v.16h.17m1.08,9.88a.17.17,0,0,0,0-.07h-.1v.07h.09m-.32.78s0-.07,0-.1h-.1v.1h.09M2.59,36c0-.07,0-.15,0-.23-.16-.06-.14.28,0,.23M3.67,31c0-.06,0-.13,0-.19s-.21.05-.21.19h.2m1.94,3.91h-.1c0,.07-.1.36.06.33s0-.21,0-.32m0-1.28c.09,0,.1-.08.11-.16s-.11.07-.2.06l.09.1m.07,3.87h.17c.06-.16-.11-.09-.1-.2s-.06.09-.07.19M5,37.61c.23,0,.25-.27.31-.48a3,3,0,0,0,.43-1.07c-.12-.18,0-.32,0-.49s-.26,0-.23-.11c-.15-.07,0,.13-.17.09,0,.38,0,.79-.26,1,0,.07,0,.25-.07.22.1.19-.11.53-.06.89m-.13-1h-.1v.13c.1,0,.1,0,.1-.12m-.72-3.18c0-.17-.16-.15-.19-.27s0,.13-.07.2.1.12.26.07m-.77.47c0-.05,0-.06,0-.1H3.29s0,.06,0,.1h.1m1.45-2.32c0,.13-.14.14-.14.3s.11-.16.3-.09v-.2H4.83m.55.35c-.07,0-.06.05-.07.1h.1a.15.15,0,0,1,0-.1m-.85.92c-.09-.08-.2-.15-.22-.3-.39-.14-.7.1-1.18,0-.22.17,0,.35.08.5a3,3,0,0,1,.76.06c.12-.13.39-.1.62-.12s.07.09.13.11.48,0,.6-.15.23,0,.26.08a.45.45,0,0,0,.17-.36c-.42-.07-.65.34-1.22.22M6.13,30c-.07,0-.15-.06-.16.06s.19,0,.16-.06M4.69,24c0,.13.09.28.22.33.32-.06,0-.59-.22-.33m.25,1.51c-.09,0-.19,0-.23,0a.31.31,0,0,0,0,.2c.15,0,.21-.07.21-.23m-.18,1.48h.09a.34.34,0,0,0,0-.1h-.1v.1m.37-2.39c0-.1-.11,0-.06-.16a.29.29,0,0,1-.1,0c0,.15.08.14.06.26,0-.05.1,0,.1-.13m.24,2.63h-.1c-.07.14,0,.32.16.3s-.06-.17-.06-.3M5.57,30c.11,0,.17,0,.2-.06s-.09-.12-.22-.1,0,.09,0,.16m-.31-.4s0-.06,0-.06l0,0h0s.05,0,.1,0,0,0,0-.1H5.4l-.05,0h0v0H5.17c0,.09,0,.17.09.17m-.7.27H4.27c0,.05.29.22.29,0M4.35,28.3c-.1-.05-.37-.15-.46,0-.08,0-.13-.12-.19,0-.07-.16-.42-.06-.52-.18,0,.17-.26.09-.24.29.46,0,.91,0,1.37,0s1.14.13,1.48-.09a.53.53,0,0,0,0-.13c-.41.12-1.06,0-1.45.12m.42-6.68h-.1c0,.23,0,.48.14.53.13-.19,0-.37,0-.53m.65,0v-.1c-.09-.05-.1.15,0,.1M5.34,21c-.12,0,0,.19-.16.16.08.05.13.13.25.14,0-.15-.1-.16-.09-.3m.19-5.73v-.07H5.47v.06h.06m-.1,1c0-.11,0,.09,0,.13s0-.09,0-.13m.1,2.07v-.1H5.44a.34.34,0,0,0,0,.1h.1m-.07-.72c0-.1,0-.2,0-.3s-.09.14-.17.16,0,.14.16.14m-.54,1.46c0-.19,0-.46.14-.56s-.16,0-.12-.1c-.31,0-.12.44-.28.55.07,0,.11.13.26.11m-.39-2.38c.1,0,0-.11.17-.06l.09.1c0,.09-.06.06-.1.1,0,.21,0,.32,0,.52s-.13,0-.1.13.12.2.18.3.11-.13.21-.16c-.07-.26.19-.45,0-.62,0-.07.06,0,.06-.09s0-.26,0-.46a.4.4,0,0,0-.57.24m.12-.59a.8.8,0,0,0,.46,0c.17-.29-.19-.29-.45-.28,0,.1,0,.15,0,.26m.93-2.43a.67.67,0,0,1-.36.12c0,.16-.1.17-.14.26s0-.11-.13-.07,0,.15-.13.1c0,.49-.27.6-.14,1a1.17,1.17,0,0,1,.4.05l0,0s0,.06-.35.15a.92.92,0,0,0,0,.16l.46,0c0-.13-.11-.14-.09-.27l0,0s0-.06.15-.09c0-.35.06-.57.35-.58,0-.07,0-.23.07-.2s-.11,0-.06-.13c.2-.18.4.21.69.06a.45.45,0,0,0-.09-.37c-.09.16-.13-.05-.3,0a.66.66,0,0,0-.32-.24m1.47-1.79H7V12c.09,0,.1-.07.1-.16m.1-1c.13,0,.14-.16.14-.32a1.23,1.23,0,0,0-.39,0c.08.11.2.17.25.3M3.92,8.43c0,.06,0,.06,0,.1s.23.17.29.31c.11-.06.15-.18.33-.09,0-.34-.27-.32-.58-.32m.61-3.62c0,.18.1.24,0,.46.22,0,.23-.18.24-.38-.11,0-.21-.16-.29-.08M4.82,4c0,.3-.11.5-.09.66.08,0,.07.06.16,0C5,4.48,4.89,4.25,5,4H4.82m.58.22v-.1H5.3v.1h.1M5.3,5.33V5.4h.06V5.33H5.3m.78,3.21c0-.25-.3-.14-.45-.18a2.11,2.11,0,0,1-.87-.49l0,0H4.73v0a.16.16,0,0,1,0-.14H4.53v.14a.47.47,0,0,1,.16,0V7.8l.05,0h0l0,0c-.15.19.18.36.14.6.42-.05.42.3.78.32.13-.09.31-.12.4-.25m-.35,1.63H5.6c0,.09,0,.17.09.17s.07-.07,0-.16m-.09-.24v0l.05,0,0-.05c.08,0,.16,0,.13-.09s-.12,0-.13,0v0l0,0,0,0h-.1v.06h.1m-.75.87c.1,0,.08-.05.13-.06s.43,0,.59.11c.21-.26.81.08,1.06-.16-.2-.22-.63-.06-1-.16-.12,0-.1.12-.2.12s-.07-.11-.13-.13-.4.05-.53.14.1,0,.06.14M5,9.52c0-.15.23-.09.24-.25-.13.15-.49,0-.6.21s.27,0,.36,0m-1,2.17H3.91c0,.1.21.17.16,0m-.88-1c.11,0,.56.19.69,0,.33,0,.45.17.72.09v-.1c0-.12-.14-.1-.26-.11s-.21-.14-.2,0c0-.08-.14-.07-.26-.07a2.27,2.27,0,0,1-.82.14c-.05.07.08,0,.13,0m-1.27.61c.21,0,.39,0,.43-.15-.14-.07-.47-.08-.43.15m.38-.66h0c-.2,0-.39-.1-.49,0-.11-.12-.39-.13-.4.09.21-.12.63,0,.89-.07l0,0h0a1.86,1.86,0,0,0,.49.08c0-.28-.37-.22-.48-.11ZM1.82,3.46A3.84,3.84,0,0,1,2,3.81c.14,0,.17.06.3,0s.06-.15.13-.19,0,.11,0,.13a2.36,2.36,0,0,1,.24.63c-.21.26,0,.75-.1,1,.17.37-.14.73-.07,1.21-.1.07-.12.21-.21.29.2.24.15.86-.13,1-.12,0-.12-.11-.29-.07S1.71,8,1.57,8c-.16.4.09.65.23.86.33-.06.3,0,.59,0,0,.32-.27.44-.32.75a1.68,1.68,0,0,1-1.16.62.84.84,0,0,1-.71.63.53.53,0,0,0-.12.68c.22.08.46.14.47.41.19.05.37.11.39.31.37,0,.48.21.68.35s.2-.05.2-.19c-.35.14-.29-.54-.6-.64,0-.12.16,0,.1-.16a.39.39,0,0,1,.29.07c0-.12.15,0,.17-.09a3.23,3.23,0,0,0,.72.06c0-.05.11,0,.13-.1.14.1.41.06.59.12V12c.12,0,.1.08.19.1s.42-.15.67-.11c.09,0,0,.2,0,.2s.16-.11.27-.12c.06-.16-.09-.13-.09-.24s.15-.06.11-.22a.61.61,0,0,1,.45.11c.22,0,.27-.21.53-.18a1.37,1.37,0,0,0,0-.36c.14.1.1.38.21.5a1.13,1.13,0,0,0,.73-.17,1,1,0,0,0,.55.21c0,.13-.05.19-.2.16,0,.15,0,.35-.18.39s.11-.18,0-.36c-.21,0-.22.13-.27.25a.74.74,0,0,1-.35-.27c-.11,0,0,.1-.14.06s0,.12.06.16-.27,0-.39.06a.56.56,0,0,0-.11.22s-.07.09-.1.16,0,.12-.1.1l0,.05-.06,0s0,.09,0,.13-.11-.17-.22-.2,0,.3,0,.36c-.2.1-.17-.29-.28-.37l0,0H4.44a3.1,3.1,0,0,0-.21.45c-.45,0-.51.45-1,.26,0,.13-.1.11-.13.19a1.42,1.42,0,0,0-.33-.11l0,0-.06,0a.79.79,0,0,0,.93.82c.17-.33-.3-.37-.14-.69a1.49,1.49,0,0,1,1,.2.37.37,0,0,1-.08.29c.25.22.09.47,0,.79-.12.08-.2.21-.37.25,0,.08,0,.16.1.13.13.41,0,.93.12,1.29,0,.13-.11.06-.07.19a3.81,3.81,0,0,1,0,1.61c-.17-.06,0-.29,0-.4H4a3.65,3.65,0,0,0-.13,1,2.86,2.86,0,0,1-.82,0C3,18.84,3,18.71,3,18.58a.25.25,0,0,1,.2-.06c0-.3.14-.91-.16-1,0-.11.08-.11.13-.16s-.07-.06-.12-.07-.11-.2-.06-.39a1.9,1.9,0,0,1,.21-.19c.09-.34-.19-.56,0-.79-.12,0,0-.21-.09-.3l-.06,0,0,0H2.9v-.06s.06,0,.06,0H3l.05,0c.08-.07,0-.29,0-.42-.23-.21-.33-.54-.6-.71,0-.1,0-.2,0-.29-.18-.18-.33,0-.5.08S2,14,1.9,14s-.25,0-.33,0,0,0-.06,0c-.09-.24-.34-.34-.44-.57H.71a1.41,1.41,0,0,0-.23.85.83.83,0,0,1,.29.3,1.74,1.74,0,0,0,.46,0c.15-.22.54,0,.65.11s.15,0,.26,0,.13-.07.17-.13c.35.17.26.6.29,1,0,.07,0,.05.07.1.06.31,0,.7,0,1.05,0,.07,0,.05.07.1.12.61-.24,1.4,0,1.91,0,0,0,.07,0,.1a.47.47,0,0,1-.27.25c0,.2-.14.24-.15.42-.19.07-.28.24-.4.38s.1.46.1.73c.11,0,0-.11.14-.06l0-.06,0,0c0-.11,0-.22,0-.33.16,0,.27-.12.44-.15.36.15,1.14-.1,1.57.12.12,0,.18-.1.36-.06a1,1,0,0,0-.11.39c-.19,0-.33,0-.4.12.27.15.78.1.89-.13-.16-.06-.09-.4,0-.46v0H5c0-.09-.18-.08-.29-.11s-.23-.27-.28-.47a1.17,1.17,0,0,0,.46-.08c.1.25.61-.07.68.18-.13,0-.16.17-.2.29,0-.08-.08-.18-.12-.26a.15.15,0,0,0-.14.12c.12.06.07.34-.08.33l0,.05H5c.07,0,.07.13.16.14s.3,0,.52,0c.11-.15.43-.25.57-.08s-.09.29-.12.46-.26-.08-.36,0,.09.14.06.29a2,2,0,0,0-.86.11c0,.12,0,.32-.11.42s-.13-.11-.3-.08-.25.11-.33.19.21,1.15-.11,1.41c.09.36.07.82.16,1.18,0,.09-.09.12-.11.2s0,.14.06.23,0,.2-.07.23c.15.06,0,.37,0,.46.21.5,0,1.14,0,1.7a2,2,0,0,1,.08.66.68.68,0,0,1-.37.12c.05-.12-.09-.17-.12-.3s.09-.32,0-.39l0,0H3.61c0,.14-.2,0-.2.09a.66.66,0,0,0,.15.36c-.17.11-.08.5-.37.48a4.72,4.72,0,0,0-.08-.56.28.28,0,0,1,0-.13c0-.46.08-1,0-1.47,0,0-.06-.05-.07-.11,0-.21,0-.43,0-.65.17-.2,0-.56,0-.89,0-.72.12-1.71.08-2.36,0,0-.06,0-.06-.1s0-.35,0-.52c.58-.07.29.75.32,1.26,0,.07.23,0,.2.1a.31.31,0,0,1,0,.2c-.06.05-.14.07-.2.12s0,.12,0,.26.17.08.19.17c-.38.68-.12,1.66-.15,2.53a.35.35,0,0,1,.16.16V26c-.11,0-.26.18-.18.32h0l0,0h.06c0,.1,0,.06,0,.16l0,0v0c.06,0,.06.12,0,.23l.06,0,0,.05c.06,0,.06,0,.07-.06a9.73,9.73,0,0,0,.06-1,.9.9,0,0,0-.12-.24c0-.23.1-.45,0-.65H3.69v-.05h-.1v-.1c.07,0,.1,0,.1.07h.06l0,.05c.17,0,0-.48,0-.53a4.37,4.37,0,0,1,0-.62s.06,0,.07-.1a2.88,2.88,0,0,0,0-.78s-.06,0-.07-.1c-.08-.52.12-1.05,0-1.42A.43.43,0,0,1,4.43,21c.05-.09.39-.05.23-.26a1.92,1.92,0,0,1-1.14,0c-.06.11-.33.05-.4,0s-.33.06-.32-.07.33,0,.49,0,.06-.26,0-.3c-.13.15-.56,0-.66.15,0-.13-.17-.08-.2-.17,0,.1-.1,0-.13.09v.06l0,0a2.46,2.46,0,0,1,.19.4h.16c.19.28.07.88.09,1.32,0,0,.16.33,0,.39,0,.14-.06.35.05.4l0,1c.08,0,0,.15.09.1,0,.25,0,.61-.09.76s0,.12.06.16c0,.24-.09.6.08.69A5.31,5.31,0,0,0,2.69,27c0,.44.05.82-.3.91a2.45,2.45,0,0,0-.13.95l.07,0,0,.05c.11,0,.14-.15.27-.18a2.31,2.31,0,0,1,.62.05,3.06,3.06,0,0,1,.92,0s.07.08.06.17a.8.8,0,0,0-.36.08c-.11-.12-.2.07-.33-.07-.21.3-.65.26-1.12.22a.19.19,0,0,0-.06-.2l0,0-.05,0c-.14,0-.16.2-.3.22,0,.38-.3.36-.32.68l0,0,0,.06c.16-.14.51-.08.79-.07-.15.5.46.29.64.48,0-.14.36,0,.53-.05s.11-.09.17-.1a1.48,1.48,0,0,1,.72.09c.14-.15.34,0,.59,0,.24.2.57-.06.88,0,0,.2.25.16.32.28l-.59.17c-.09.1.07.14,0,.27-.19,0-.15-.3-.38-.31V31A1.36,1.36,0,0,1,5,31l0,0,0-.05c-.23,0-.35,0-.4.18a.56.56,0,0,0,.09.3c-.19.06,0,.37-.18.39s0-.2-.06-.2H4.24a1.18,1.18,0,0,1-.15.49c-.2,0-.44.2-.55,0l0,0,0-.06c-.21-.1-.2-.62,0-.79.19.05.26,0,.36-.08v-.06l.05,0c0-.09.1-.09.13-.16v-.05l0,0a3.73,3.73,0,0,0-.85-.06,2.25,2.25,0,0,0-1.38,0v.1c.06.14.21.2.21.4.16,0,.22.12.33.14s.3-.05.42,0,.51.42.28.66a3.23,3.23,0,0,0-.41.42c0,.07,0,.15,0,.23a2.34,2.34,0,0,1,.22.23c0,.33-.28.36-.5.45s-.14.4-.31.48c-.13.44-.32,1.46.1,1.74,0,.34,0,.7.27.8,0,.36.18.56.2.89.19.17.43.3.48.61.12,0,0,.14.19.1s.06-.29.27-.25c-.09-.22-.33-.28-.27-.63-.12,0,0-.14-.17-.11s.12-.06.08-.19-.12-.45-.28-.57c-.06-.33,0-.79-.23-1,0,0,.06,0,.07-.06l-.05,0,0-.06c-.11-.07,0-.17,0-.23A.86.86,0,0,1,2.79,34H3a1.38,1.38,0,0,1,.2.86c.23,0,.22-.18.4-.19a4.73,4.73,0,0,1,0-.85c0-.08.15,0,.1-.09.17.17.54.17.75.32a5.4,5.4,0,0,0,.17.72c-.19.23,0,.83-.2,1.08a1.36,1.36,0,0,1,0,.95c.14.18.07.55.07.85a.86.86,0,0,0-.6.25c.06.43.31,1,.05,1.38,0,.48.13.81.13,1.28a.35.35,0,0,0-.08.39c0,.09,0,.35.08.53,0,0,.05,0,.06,0s.16.19.22.27A3.11,3.11,0,0,0,5,41.61c.06-.17.1-.37.24-.45.07-.31-.11-.39-.08-.66H5.07l0,0c0,.07-.15.06-.14.16s.16.42,0,.49c0-.06,0-.06-.09-.06s-.09-.19-.09-.3a1,1,0,0,1,.24-.49c0,.09.07.07.1.11l0,0,.06,0c0-.17.05-.41,0-.53H5.06l0,0c-.11,0-.1.15-.11.26-.15-.11,0-.36,0-.54v0a.05.05,0,0,0,.06.06l0,0,.06,0c0-.29.14-.63,0-.76l0,.05-.06,0c0,.14,0,.36-.11.36,0-.13,0-.27,0-.4H5l0,0,.06,0c.11-.17.1-.47.22-.62a2.06,2.06,0,0,0,.56,0c0-.25.3-.24.31-.52.19-.16.23-.48.41-.64,0-.34.18-.47.16-.82.18-.17.15-.56.29-.78a3.64,3.64,0,0,0,0-1.51c-.09-.07-.22-.13-.22-.3s-.21-.05-.19-.2A2.13,2.13,0,0,1,6,33c0-.2-.09-.4.08-.45A.47.47,0,0,1,6,32.23c-.4,0-.23-.56-.29-.9.13.08.28.09.33-.09v0l0,0H6c0-.09-.12-.07-.09-.2s.55-.13.49.15h.06l0,.05c.34-.11.78-.11,1.16-.26a.77.77,0,0,0,0-.75c-.19,0-.29-.15-.45-.22,0,.08,0,.11-.1.1.37.33.13.84-.51.64.06-.29.36-.34.51-.54,0-.09-.17-.17,0-.23a.53.53,0,0,0-.35-.28c0-.18-.19-.26-.35-.34a3.52,3.52,0,0,1-.31-.5A.91.91,0,0,0,6,27.89c-.06,0-.16,0-.13.07a5.15,5.15,0,0,1-.2-1.09c-.16-.05-.13.12-.26.12s-.18-.13-.29-.18.11-.12.17-.19c-.07-.25.06-.43,0-.72.42-.2.19.48.37.6.21-.09.07-.56.13-.81l-.1-.1,0-.53c.08-.08.16-.52,0-.56s0,.6-.22.68c-.24-.08.1-.5-.14-.59,0-.14.06-.14.07-.23a2.09,2.09,0,0,1,0-1.11c-.21,0,0,0,0-.1A.31.31,0,0,1,5.05,23c-.18.08-.11.4-.18.58s0-.12-.17-.1a2.84,2.84,0,0,1,.1-1.08c.1.23.27.55.52.28a2.43,2.43,0,0,1-.1-.82.26.26,0,0,1,.16-.13c.14,0,.15.16.19.27.3-.07-.05-.44.15-.59l0-.36c.09-.06.28,0,.42,0a.68.68,0,0,0,.12-.46c0-.05.11-.08.1-.19.16,0,.21-.12.3-.19a1,1,0,0,0-.11-.6c0-.05-.15-.07-.19-.13s0-.21-.09-.3-.17-.08-.16-.17-.18,0-.36,0,0-.22-.12-.24.09-.06.07-.16c-.17-.43.06-1.06-.12-1.51a4.73,4.73,0,0,0,.11-1.24c-.11.06-.26.08-.27.25-.05,0,0-.11-.1-.13s.23,0,.18-.23c.13,0,.06.11.19.07,0-.48,0-1.08.4-1.26a2.87,2.87,0,0,0,.72,0,1,1,0,0,0,0-.75,1.72,1.72,0,0,1-.39-.31l-.45,0c-.08-.09-.12-.21-.23-.27.12-.18.37-.22.41-.47a.78.78,0,0,1,.24-.16c0-.14,0-.18.07-.26s0,.2.06.2A1.09,1.09,0,0,0,7,12.27c.16,0,.1.12.22.11s.13-.17.3-.09c.1-.14.16-.25.4-.18,0-.54.46-.72.34-1.27-.27-.11-.58-.18-.58-.54-.06,0-.1,0-.09-.07-.14,0,0,.18-.17.16s0-.19,0-.27c-.23,0-.29-.1-.38-.21a.65.65,0,0,1-.33-.11.24.24,0,0,0-.14.2l-.36,0-.3-.69c0-.1.1,0,.16,0l0,0,.06,0c0-.06,0-.19-.06-.16,0,0,.1-.06.07-.17.3-.14.43-.47.65-.7,0-.11-.19-.12-.12-.33-.21-.08-.33-.25-.65-.22a3.38,3.38,0,0,1-.31-.6l0,0-.06,0v.1a1.08,1.08,0,0,0,0-.16l0,0c0-.19.09-.52,0-.62s0,.15-.13.09a.19.19,0,0,1,.06.2c-.13-.09-.14-.46-.11-.59s0,.18.15.2c.2-.14-.06-.36,0-.59,0,0,0-.11-.09-.13.17-.21,0-.5-.11-.63s.11,0,.19,0,0-.2,0-.3-.15.12-.26.06V4.58c0-.08.16-.07.27-.06a1,1,0,0,1,.12-.62L4.39,3.75A1.82,1.82,0,0,0,4,3.81v0l0,.05c0,.07,0,.06.1.07.21.66-.18,1.35,0,2a2.44,2.44,0,0,1,0,.27c0,.07.14,0,.13.13s-.21.32-.31.48a1.33,1.33,0,0,0,.14.63C4,7.7,4,8,3.83,8.07c0,.22-.1.33-.3.32,0,.09-.11.07-.11.16A1.07,1.07,0,0,0,3.87,9c0,.17,0,.35-.08.43s.08.09.06.2l.06,0,0,0c.05-.13.19-.16.31-.22s0-.24.1-.22a1.18,1.18,0,0,1,0,.85c-.11-.08-.1-.27-.35-.21,0-.05,0-.06,0-.1l0,0-.05,0c-.1.06-.13.2-.21.29a2.28,2.28,0,0,1-1.08.06v-.07l0,0V10a.25.25,0,0,1-.13,0c0-.1,0-.2.1-.2a.06.06,0,0,0,0,.07h0v0c.18-.09.23-.32.22-.61H2.61c0-.12.16,0,.17-.12a.66.66,0,0,0,.11-.46c-.19-.06-.3-.21-.55-.21,0-.2-.19-.14-.19-.3.21.13.71.26.79-.08H2.65c0-.08-.06-.07,0-.16H2.57l0,0h0V7.9a0,0,0,0,1,.06,0h0l0,0a.87.87,0,0,1,.46.11A.25.25,0,0,1,3.5,8c0-.06.09-.24,0-.29s0,.12-.16.09,0-.14,0-.26h.26c0-.17.06-.23,0-.39-.15,0-.17-.1-.19-.21.18,0,.09.19.26.18a5.22,5.22,0,0,0-.06-1.19l0,0h0c-.07.12,0,.38-.17.39s-.13-.24-.32-.24c-.09-.29.06-.62,0-.92,0,0-.05,0-.06-.1a2.61,2.61,0,0,0,0-.56.51.51,0,0,1,0-.39s.13-.06.11-.16.19,0,.29,0,.13.2.26.24.13-.21.2-.29l0,0V3.81c-.26-.05-.74.09-.74-.2ZM5.91.36V.2c-.15-.08-.16.23,0,.16M5.25,1.43V1.17c-.25,0-.37.1-.57.14.12.31.49-.09.57.12M3.89,1.34c0-.2-.25-.08-.36-.12-.08.29.27.22.36.12M6.5,4.06a.59.59,0,0,1,.13-.18l-.08-.06,0-.1a8.14,8.14,0,0,0-2.67.07l0,.08,0,.08c0,.11.07.1.15.11ZM6.19,0h-2a.66.66,0,0,1,0,.14C4,.19,3.94.07,3.86,0H3.59c-.1.15.1.37,0,.49C3.35.41,3.31.18,3.22,0H1.71A1.76,1.76,0,0,1,1.5.68a3.78,3.78,0,0,0-.33.57,4.23,4.23,0,0,1-1,.7c0,.1,0,.16-.11.15,0,.24,0,.49,0,.73a3,3,0,0,1,.59,1c.22,0,.27.09.47.07s.1-.25.22-.31,0,.18-.06.21.11.2.16.3H2.79A.8.8,0,0,1,3,4l0,0h.62A.41.41,0,0,1,3.75,4l-.07-.07,0-.09C3.25,3.7,2.44,4,2.52,3.38l-.08-.06,0-.1C2,2.88,1,3.29.71,2.75c0-.22.2-.22.27-.36.72.08,1.71-.09,2.19.23a1,1,0,0,0,.63-.08c0,.21.34.15.57.17.18.25.72.18.94,0a.75.75,0,0,0,.57.12c0,.16.09.32.14.48.3.09.3-.15.58-.09,0,.13.09.37,0,.47l.08.07,0,.09a1.36,1.36,0,0,0,.58,0c.14-.41-.4-1,.09-1.36.21,0,.08.27.2.32s.24-.21.23-.46c-.17,0-.22-.1-.42-.07a6.51,6.51,0,0,0,0-1.09C7,1,7,.53,6.42.58A1.44,1.44,0,0,1,6.19,0"/></g></g></svg>