<svg xmlns="http://www.w3.org/2000/svg" viewBox="0 0 407.6 2.95"><defs><style>.cls-1{fill:#7f6841;fill-rule:evenodd;}</style></defs><title>Asset 5</title><g id="Layer_2" data-name="Layer 2"><g id="Layer_1-2" data-name="Layer 1"><path class="cls-1" d="M0,3a4.63,4.63,0,0,0,.48-.76H407.21a4.94,4.94,0,0,0,.39.76H0M1,.34H406.87c0-.11,0-.23,0-.34H1V0C1,.14,1,.24,1,.34M1,.76a3,3,0,0,1-.09.43H406.93c0-.14,0-.28-.05-.43H1m.42.44a1.62,1.62,0,0,0,0,.58c0,.16-.07.31.13.31s.17.05.15-.12,0-.16-.06-.24a2.54,2.54,0,0,1,0-.39c0-.19,0-.15-.19-.14m.9,0a1.62,1.62,0,0,0,0,.58c0,.16-.07.31.13.31s.17.05.15-.12,0-.16-.06-.24,0-.26,0-.39,0-.15-.19-.14m.9,0a1.62,1.62,0,0,0,0,.58c.05.16-.07.31.13.31s.17.05.15-.12-.05-.16-.06-.24,0-.26,0-.39,0-.15-.19-.14m.9,0a1.62,1.62,0,0,0,0,.58c0,.16-.07.31.13.31s.17.05.15-.12,0-.16-.06-.24,0-.26,0-.39,0-.15-.19-.14m.9,0a1.62,1.62,0,0,0,0,.58c0,.16-.07.31.13.31s.17.05.15-.12-.05-.16-.06-.24,0-.26,0-.39,0-.15-.19-.14m.91,0a1.26,1.26,0,0,0,0,.58c0,.16-.08.31.12.31s.17.05.15-.12,0-.16-.06-.24,0-.26,0-.39,0-.15-.18-.14m.9,0a1.26,1.26,0,0,0,0,.58c0,.16-.08.31.13.31S7.05,2.14,7,2s0-.16,0-.24a2.54,2.54,0,0,1,0-.39c0-.19,0-.15-.19-.14m.9,0a1.26,1.26,0,0,0,0,.58c0,.16-.08.31.13.31S8,2.14,7.93,2s0-.16,0-.24a2.54,2.54,0,0,1,0-.39c0-.19,0-.15-.19-.14m.9,0a1.42,1.42,0,0,0,0,.58c0,.16-.07.31.13.31s.16.05.15-.12-.05-.16-.06-.24a2.54,2.54,0,0,1,0-.39c0-.19,0-.15-.19-.14m.9,0a1.42,1.42,0,0,0,0,.58c0,.16-.07.31.13.31s.17.05.15-.12-.05-.16-.06-.24a2.54,2.54,0,0,1,0-.39c0-.19,0-.15-.19-.14m.9,0a1.42,1.42,0,0,0,0,.58c0,.16-.07.31.13.31s.17.05.15-.12-.05-.16-.06-.24a2.54,2.54,0,0,1,0-.39c0-.19,0-.15-.19-.14m.9,0a1.62,1.62,0,0,0,0,.58c0,.16-.07.31.13.31s.17.05.15-.12,0-.16-.06-.24a2.54,2.54,0,0,1,0-.39c0-.19,0-.15-.19-.14m.9,0a1.62,1.62,0,0,0,0,.58c0,.16-.07.31.13.31s.17.05.15-.12,0-.16-.06-.24,0-.26,0-.39,0-.15-.19-.14m.9,0a1.62,1.62,0,0,0,0,.58c0,.16-.07.31.13.31s.17.05.15-.12-.05-.16-.06-.24,0-.26,0-.39,0-.15-.19-.14m.9,0a1.62,1.62,0,0,0,0,.58c0,.16-.07.31.13.31s.17.05.15-.12-.05-.16-.06-.24,0-.26,0-.39,0-.15-.19-.14m.9,0a1.62,1.62,0,0,0,0,.58c.05.16-.07.31.13.31s.17.05.15-.12-.05-.16-.06-.24,0-.26,0-.39,0-.15-.19-.14m.91,0a1.26,1.26,0,0,0,0,.58c0,.16-.08.31.12.31s.17.05.15-.12,0-.16-.06-.24,0-.26,0-.39,0-.15-.18-.14m.9,0a1.26,1.26,0,0,0,0,.58c0,.16-.08.31.13.31s.16.05.14-.12-.05-.16-.05-.24a2.54,2.54,0,0,1,0-.39c0-.19,0-.15-.19-.14m.9,0a1.42,1.42,0,0,0,0,.58c0,.16-.07.31.13.31s.16.05.15-.12a2.1,2.1,0,0,1-.06-.24,2.54,2.54,0,0,1,0-.39c0-.19,0-.15-.19-.14m.9,0a1.42,1.42,0,0,0,0,.58c0,.16-.07.31.13.31s.17.05.15-.12-.05-.16-.06-.24a2.54,2.54,0,0,1,0-.39c0-.19,0-.15-.19-.14m.9,0a1.42,1.42,0,0,0,0,.58c0,.16-.07.31.13.31s.17.05.15-.12,0-.16-.06-.24a2.54,2.54,0,0,1,0-.39c0-.19,0-.15-.19-.14m.9,0a1.62,1.62,0,0,0,0,.58c0,.16-.07.31.13.31s.17.05.15-.12-.05-.16-.06-.24a2.54,2.54,0,0,1,0-.39c0-.19,0-.15-.19-.14m.9,0a1.62,1.62,0,0,0,0,.58c0,.16-.07.31.13.31s.17.05.15-.12-.05-.16-.06-.24,0-.26,0-.39,0-.15-.19-.14m.9,0a1.62,1.62,0,0,0,0,.58c0,.16-.07.31.13.31s.17.05.15-.12-.05-.16-.06-.24,0-.26,0-.39,0-.15-.19-.14m.9,0a1.62,1.62,0,0,0,0,.58c.05.16-.07.31.13.31s.17.05.15-.12-.05-.16-.06-.24,0-.26,0-.39,0-.15-.19-.14m.9,0a1.62,1.62,0,0,0,0,.58c.05.16-.07.31.13.31s.17.05.15-.12,0-.16-.06-.24,0-.26,0-.39,0-.15-.19-.14m.9,0a1.62,1.62,0,0,0,0,.58c.05.16-.07.31.13.31s.17.05.15-.12S25,1.81,25,1.73s0-.26,0-.39,0-.15-.19-.14m.91,0a1.26,1.26,0,0,0,0,.58c0,.16-.08.31.12.31S26,2.14,26,2s-.05-.16-.06-.24,0-.26,0-.39,0-.15-.18-.14m.9,0a1.26,1.26,0,0,0,0,.58c0,.16-.08.31.13.31s.16.05.14-.12-.05-.16-.05-.24a2.54,2.54,0,0,1,0-.39c0-.19,0-.15-.19-.14m.9,0a1.42,1.42,0,0,0,0,.58c0,.16-.07.31.13.31s.16.05.15-.12-.05-.16-.06-.24a2.54,2.54,0,0,1,0-.39c0-.19,0-.15-.19-.14m.9,0a1.42,1.42,0,0,0,0,.58c0,.16-.07.31.13.31s.17.05.15-.12-.05-.16-.06-.24a2.54,2.54,0,0,1,0-.39c0-.19,0-.15-.19-.14m.9,0a1.42,1.42,0,0,0,0,.58c0,.16-.07.31.13.31s.17.05.15-.12,0-.16-.06-.24a2.54,2.54,0,0,1,0-.39c0-.19,0-.15-.19-.14m.9,0a1.62,1.62,0,0,0,0,.58c0,.16-.07.31.13.31s.17.05.15-.12-.05-.16-.06-.24a2.54,2.54,0,0,1,0-.39c0-.19,0-.15-.19-.14m.9,0a1.62,1.62,0,0,0,0,.58c0,.16-.07.31.13.31s.17.05.15-.12-.05-.16-.06-.24,0-.26,0-.39,0-.15-.19-.14m.9,0a1.62,1.62,0,0,0,0,.58c.05.16-.07.31.13.31s.17.05.15-.12,0-.16-.06-.24,0-.26,0-.39,0-.15-.19-.14m.9,0a1.62,1.62,0,0,0,0,.58c0,.16-.07.31.13.31s.17.05.15-.12,0-.16-.06-.24,0-.26,0-.39,0-.15-.19-.14m.9,0a1.62,1.62,0,0,0,0,.58c0,.16-.07.31.13.31s.17.05.15-.12S34,1.81,34,1.73s0-.26,0-.39,0-.15-.19-.14m.91,0a1.26,1.26,0,0,0,0,.58c0,.16-.08.31.12.31S35,2.14,35,2s-.05-.16-.06-.24,0-.26,0-.39,0-.15-.18-.14m.9,0a1.26,1.26,0,0,0,0,.58c0,.16-.08.31.12.31s.17.05.15-.12,0-.16-.06-.24,0-.26,0-.39,0-.15-.18-.14m.9,0a1.42,1.42,0,0,0,0,.58c0,.16-.07.31.13.31s.16.05.15-.12-.05-.16-.06-.24a2.54,2.54,0,0,1,0-.39c0-.19,0-.15-.19-.14m.9,0a1.42,1.42,0,0,0,0,.58c0,.16-.07.31.13.31s.16.05.15-.12a2.1,2.1,0,0,1-.06-.24,2.54,2.54,0,0,1,0-.39c0-.19,0-.15-.19-.14m.9,0a1.42,1.42,0,0,0,0,.58c0,.16-.07.31.13.31s.17.05.15-.12,0-.16-.06-.24a2.54,2.54,0,0,1,0-.39c0-.19,0-.15-.19-.14m.9,0a1.42,1.42,0,0,0,0,.58c0,.16-.07.31.13.31s.17.05.15-.12,0-.16-.06-.24a2.54,2.54,0,0,1,0-.39c0-.19,0-.15-.19-.14m.9,0a1.62,1.62,0,0,0,0,.58c0,.16-.07.31.13.31s.17.05.15-.12,0-.16-.06-.24a2.54,2.54,0,0,1,0-.39c0-.19,0-.15-.19-.14m.9,0a1.62,1.62,0,0,0,0,.58c0,.16-.07.31.13.31s.17.05.15-.12-.05-.16-.06-.24,0-.26,0-.39,0-.15-.19-.14m.9,0a1.62,1.62,0,0,0,0,.58c0,.16-.07.31.13.31s.17.05.15-.12-.05-.16-.06-.24,0-.26,0-.39,0-.15-.19-.14m.9,0a1.62,1.62,0,0,0,0,.58c.05.16-.07.31.13.31s.17.05.15-.12,0-.16-.06-.24,0-.26,0-.39,0-.15-.19-.14m.9,0a1.62,1.62,0,0,0,0,.58c.05.16-.07.31.13.31S44,2.14,44,2s0-.16-.06-.24,0-.26,0-.39,0-.15-.19-.14m.91,0a1.26,1.26,0,0,0,0,.58c0,.16-.08.31.12.31s.17.05.15-.12,0-.16-.06-.24,0-.26,0-.39,0-.15-.18-.14m.9,0a1.26,1.26,0,0,0,0,.58c0,.16-.08.31.13.31s.16.05.14-.12-.05-.16-.05-.24a2.54,2.54,0,0,1,0-.39c0-.19,0-.15-.19-.14m.9,0a1.42,1.42,0,0,0,0,.58c0,.16-.07.31.13.31s.16.05.15-.12a2.1,2.1,0,0,1-.06-.24,2.54,2.54,0,0,1,0-.39c0-.19,0-.15-.19-.14m.9,0a1.42,1.42,0,0,0,0,.58c0,.16-.07.31.13.31s.17.05.15-.12,0-.16-.06-.24a2.54,2.54,0,0,1,0-.39c0-.19,0-.15-.19-.14m.9,0a1.42,1.42,0,0,0,0,.58c0,.16-.07.31.13.31s.17.05.15-.12,0-.16-.06-.24a2.54,2.54,0,0,1,0-.39c0-.19,0-.15-.19-.14m.9,0a1.62,1.62,0,0,0,0,.58c0,.16-.07.31.13.31s.17.05.15-.12-.05-.16-.06-.24a2.54,2.54,0,0,1,0-.39c0-.19,0-.15-.19-.14m.9,0a1.62,1.62,0,0,0,0,.58c0,.16-.07.31.13.31s.17.05.15-.12-.05-.16-.06-.24a2.54,2.54,0,0,1,0-.39c0-.19,0-.15-.19-.14m.9,0a1.62,1.62,0,0,0,0,.58c0,.16-.07.31.13.31s.17.05.15-.12,0-.16-.06-.24,0-.26,0-.39,0-.15-.19-.14m.9,0a1.62,1.62,0,0,0,0,.58c.05.16-.07.31.13.31s.17.05.15-.12,0-.16-.06-.24,0-.26,0-.39,0-.15-.19-.14m.9,0a1.62,1.62,0,0,0,0,.58c0,.16-.07.31.13.31S53,2.14,53,2s0-.16-.06-.24,0-.26,0-.39,0-.15-.19-.14m.91,0a1.26,1.26,0,0,0,0,.58c0,.16-.08.31.12.31s.17.05.15-.12-.05-.16-.06-.24,0-.26,0-.39,0-.15-.18-.14m.9,0a1.26,1.26,0,0,0,0,.58c0,.16-.08.31.12.31s.17.05.15-.12-.05-.16-.06-.24,0-.26,0-.39,0-.15-.18-.14m.9,0a1.26,1.26,0,0,0,0,.58c0,.16-.08.31.13.31s.16.05.14-.12,0-.16,0-.24a2.54,2.54,0,0,1,0-.39c0-.19,0-.15-.19-.14m.9,0a1.42,1.42,0,0,0,0,.58c0,.16-.07.31.13.31s.16.05.15-.12a2.1,2.1,0,0,1-.06-.24,2.54,2.54,0,0,1,0-.39c0-.19,0-.15-.19-.14m.9,0a1.42,1.42,0,0,0,0,.58c0,.16-.07.31.13.31s.17.05.15-.12-.05-.16-.06-.24a2.54,2.54,0,0,1,0-.39c0-.19,0-.15-.19-.14m.9,0a1.42,1.42,0,0,0,0,.58c0,.16-.07.31.13.31s.17.05.15-.12,0-.16-.06-.24a2.54,2.54,0,0,1,0-.39c0-.19,0-.15-.19-.14m.9,0a1.62,1.62,0,0,0,0,.58c0,.16-.07.31.13.31s.17.05.15-.12,0-.16-.06-.24a2.54,2.54,0,0,1,0-.39c0-.19,0-.15-.19-.14m.9,0a1.62,1.62,0,0,0,0,.58c0,.16-.07.31.13.31s.17.05.15-.12,0-.16-.06-.24,0-.26,0-.39,0-.15-.19-.14m.9,0a1.62,1.62,0,0,0,0,.58c0,.16-.07.31.13.31s.17.05.15-.12S61,1.81,61,1.73s0-.26,0-.39,0-.15-.19-.14m.9,0a1.62,1.62,0,0,0,0,.58c0,.16-.07.31.13.31S62,2.14,62,2s-.05-.16-.06-.24,0-.26,0-.39,0-.15-.19-.14m.9,0a1.62,1.62,0,0,0,0,.58c0,.16-.07.31.13.31s.17.05.15-.12,0-.16-.06-.24,0-.26,0-.39,0-.15-.19-.14m.9,0a1.62,1.62,0,0,0,0,.58c.05.16-.07.31.13.31s.17.05.15-.12,0-.16-.06-.24,0-.26,0-.39,0-.15-.19-.14m.91,0a1.26,1.26,0,0,0,0,.58c0,.16-.08.31.13.31s.16.05.14-.12,0-.16,0-.24a2.54,2.54,0,0,1,0-.39c0-.19,0-.15-.19-.14m.9,0a1.26,1.26,0,0,0,0,.58c0,.16-.08.31.13.31s.16.05.15-.12a2.1,2.1,0,0,1-.06-.24,2.54,2.54,0,0,1,0-.39c0-.19,0-.15-.19-.14m.9,0a1.42,1.42,0,0,0,0,.58c0,.16-.07.31.13.31s.17.05.15-.12,0-.16-.06-.24a2.54,2.54,0,0,1,0-.39c0-.19,0-.15-.19-.14m.9,0a1.42,1.42,0,0,0,0,.58c0,.16-.07.31.13.31s.17.05.15-.12-.05-.16-.06-.24a2.54,2.54,0,0,1,0-.39c0-.19,0-.15-.19-.14m.9,0a1.42,1.42,0,0,0,0,.58c0,.16-.07.31.13.31s.17.05.15-.12,0-.16-.06-.24a2.54,2.54,0,0,1,0-.39c0-.19,0-.15-.19-.14m.9,0a1.62,1.62,0,0,0,0,.58c0,.16-.07.31.13.31s.17.05.15-.12,0-.16-.06-.24a2.54,2.54,0,0,1,0-.39c0-.19,0-.15-.19-.14m.9,0a1.62,1.62,0,0,0,0,.58c0,.16-.07.31.13.31s.17.05.15-.12,0-.16-.06-.24,0-.26,0-.39,0-.15-.19-.14m.9,0a1.62,1.62,0,0,0,0,.58c0,.16-.07.31.13.31S71,2.14,71,2s0-.16-.06-.24,0-.26,0-.39,0-.15-.19-.14m.9,0a1.62,1.62,0,0,0,0,.58c0,.16-.07.31.13.31s.17.05.15-.12-.05-.16-.06-.24,0-.26,0-.39,0-.15-.19-.14m.9,0a1.62,1.62,0,0,0,0,.58c0,.16-.07.31.13.31s.17.05.15-.12,0-.16-.06-.24,0-.26,0-.39,0-.15-.19-.14m.91,0a1.26,1.26,0,0,0,0,.58c0,.16-.08.31.12.31s.17.05.15-.12,0-.16-.06-.24,0-.26,0-.39,0-.15-.18-.14m.9,0a1.26,1.26,0,0,0,0,.58c0,.16-.08.31.13.31s.16.05.14-.12,0-.16,0-.24a2.54,2.54,0,0,1,0-.39c0-.19,0-.15-.19-.14m.9,0a1.42,1.42,0,0,0,0,.58c0,.16-.07.31.13.31s.16.05.15-.12-.05-.16-.06-.24a2.54,2.54,0,0,1,0-.39c0-.19,0-.15-.19-.14m.9,0a1.42,1.42,0,0,0,0,.58c0,.16-.07.31.13.31s.17.05.15-.12,0-.16-.06-.24a2.54,2.54,0,0,1,0-.39c0-.19,0-.15-.19-.14m.9,0a1.42,1.42,0,0,0,0,.58c0,.16-.07.31.13.31s.17.05.15-.12,0-.16-.06-.24a2.54,2.54,0,0,1,0-.39c0-.19,0-.15-.19-.14m.9,0a1.42,1.42,0,0,0,0,.58c0,.16-.07.31.13.31s.17.05.15-.12,0-.16-.06-.24a2.54,2.54,0,0,1,0-.39c0-.19,0-.15-.19-.14m.9,0a1.62,1.62,0,0,0,0,.58c0,.16-.07.31.13.31s.17.05.15-.12,0-.16-.06-.24,0-.26,0-.39,0-.15-.19-.14m.9,0a1.62,1.62,0,0,0,0,.58c0,.16-.07.31.13.31S80,2.14,80,2,80,1.81,80,1.73s0-.26,0-.39,0-.15-.19-.14m.9,0a1.62,1.62,0,0,0,0,.58c.05.16-.07.31.13.31s.17.05.15-.12,0-.16-.06-.24,0-.26,0-.39,0-.15-.19-.14m.9,0a1.62,1.62,0,0,0,0,.58c0,.16-.07.31.13.31s.17.05.15-.12,0-.16-.06-.24,0-.26,0-.39,0-.15-.19-.14m.9,0a1.62,1.62,0,0,0,0,.58c0,.16-.07.31.13.31s.17.05.15-.12,0-.16-.06-.24,0-.26,0-.39,0-.15-.19-.14m.91,0a1.26,1.26,0,0,0,0,.58c0,.16-.08.31.12.31s.17.05.15-.12,0-.16-.06-.24,0-.26,0-.39,0-.15-.18-.14m.9,0a1.26,1.26,0,0,0,0,.58c0,.16-.08.31.13.31s.16.05.14-.12-.05-.16-.05-.24a2.55,2.55,0,0,1,0-.39c0-.19,0-.15-.18-.14m.9,0a1.42,1.42,0,0,0,0,.58c0,.16-.07.31.13.31s.16.05.15-.12a2.1,2.1,0,0,1-.06-.24,2.54,2.54,0,0,1,0-.39c0-.19,0-.15-.19-.14m.9,0a1.42,1.42,0,0,0,0,.58c0,.16-.07.31.13.31s.17.05.15-.12,0-.16-.06-.24a2.54,2.54,0,0,1,0-.39c0-.19,0-.15-.19-.14m.9,0a1.42,1.42,0,0,0,0,.58c0,.16-.07.31.13.31s.17.05.15-.12,0-.16-.06-.24a2.54,2.54,0,0,1,0-.39c0-.19,0-.15-.19-.14m.9,0a1.62,1.62,0,0,0,0,.58c0,.16-.07.31.13.31s.17.05.15-.12-.05-.16-.06-.24a2.54,2.54,0,0,1,0-.39c0-.19,0-.15-.19-.14m.9,0a1.62,1.62,0,0,0,0,.58c0,.16-.07.31.13.31S89,2.14,89,2s0-.16-.06-.24,0-.26,0-.39,0-.15-.19-.14m.9,0a1.62,1.62,0,0,0,0,.58c0,.16-.07.31.13.31s.17.05.15-.12,0-.16-.06-.24,0-.26,0-.39,0-.15-.19-.14m.9,0a1.62,1.62,0,0,0,0,.58c0,.16-.07.31.13.31s.17.05.15-.12,0-.16-.06-.24,0-.26,0-.39,0-.15-.19-.14m.9,0a1.62,1.62,0,0,0,0,.58c0,.16-.07.31.13.31s.17.05.15-.12,0-.16-.06-.24,0-.26,0-.39,0-.15-.19-.14m.91,0a1.26,1.26,0,0,0,0,.58c0,.16-.08.31.12.31s.17.05.15-.12-.05-.16-.06-.24,0-.26,0-.39,0-.15-.18-.14m.9,0a1.26,1.26,0,0,0,0,.58c0,.16-.08.31.13.31s.16.05.14-.12,0-.16-.06-.24,0-.26,0-.39,0-.15-.19-.14m.9,0a1.26,1.26,0,0,0,0,.58c0,.16-.08.31.13.31s.16.05.14-.12,0-.16,0-.24a2.54,2.54,0,0,1,0-.39c0-.19,0-.15-.19-.14m.9,0a1.42,1.42,0,0,0,0,.58c0,.16-.07.31.13.31s.17.05.15-.12a2.1,2.1,0,0,1-.06-.24,2.54,2.54,0,0,1,0-.39c0-.19,0-.15-.19-.14m.9,0a1.42,1.42,0,0,0,0,.58c0,.16-.07.31.13.31s.17.05.15-.12,0-.16-.06-.24a2.54,2.54,0,0,1,0-.39c0-.19,0-.15-.19-.14m.9,0a1.42,1.42,0,0,0,0,.58c0,.16-.07.31.13.31s.17.05.15-.12,0-.16-.06-.24a2.54,2.54,0,0,1,0-.39c0-.19,0-.15-.19-.14m.9,0a1.62,1.62,0,0,0,0,.58c0,.16-.07.31.13.31s.17.05.15-.12,0-.16-.06-.24a2.54,2.54,0,0,1,0-.39c0-.19,0-.15-.19-.14m.9,0a1.62,1.62,0,0,0,0,.58c0,.16-.07.31.13.31s.17.05.15-.12-.05-.16-.06-.24,0-.26,0-.39,0-.15-.19-.14m.9,0a1.62,1.62,0,0,0,0,.58c0,.16-.07.31.13.31s.17.05.15-.12,0-.16-.06-.24,0-.26,0-.39,0-.15-.19-.14m.9,0a1.62,1.62,0,0,0,0,.58c0,.16-.07.31.13.31s.17.05.15-.12,0-.16-.06-.24,0-.26,0-.39,0-.15-.19-.14m.9,0a1.62,1.62,0,0,0,0,.58c.05.16-.07.31.13.31s.17.05.15-.12,0-.16-.06-.24,0-.26,0-.39,0-.15-.19-.14m.91,0a1.26,1.26,0,0,0,0,.58c0,.16-.08.31.12.31s.17.05.15-.12,0-.16-.06-.24,0-.26,0-.39,0-.15-.18-.14m.9,0a1.26,1.26,0,0,0,0,.58c0,.16-.08.31.13.31s.16.05.14-.12-.05-.16-.05-.24a2.54,2.54,0,0,1,0-.39c0-.19,0-.15-.19-.14m.9,0a1.42,1.42,0,0,0,0,.58c0,.16-.07.31.13.31s.16.05.15-.12a2.1,2.1,0,0,1-.06-.24,2.54,2.54,0,0,1,0-.39c0-.19,0-.15-.19-.14m.9,0a1.42,1.42,0,0,0,0,.58c0,.16-.07.31.13.31s.17.05.15-.12,0-.16-.06-.24a2.54,2.54,0,0,1,0-.39c0-.19,0-.15-.19-.14m.9,0a1.42,1.42,0,0,0,0,.58c0,.16-.07.31.13.31s.17.05.15-.12,0-.16-.06-.24a2.54,2.54,0,0,1,0-.39c0-.19,0-.15-.19-.14m.9,0a1.42,1.42,0,0,0,0,.58c0,.16-.07.31.13.31s.17.05.15-.12-.05-.16-.06-.24a2.54,2.54,0,0,1,0-.39c0-.19,0-.15-.19-.14m.9,0a1.62,1.62,0,0,0,0,.58c0,.16-.07.31.13.31s.17.05.15-.12,0-.16-.06-.24a2.54,2.54,0,0,1,0-.39c0-.19,0-.15-.19-.14m.9,0a1.62,1.62,0,0,0,0,.58c0,.16-.07.31.13.31s.17.05.15-.12,0-.16-.06-.24,0-.26,0-.39,0-.15-.19-.14m.9,0a1.62,1.62,0,0,0,0,.58c.05.16-.07.31.13.31s.17.05.15-.12,0-.16-.06-.24,0-.26,0-.39,0-.15-.19-.14m.9,0a1.62,1.62,0,0,0,0,.58c0,.16-.07.31.13.31s.17.05.15-.12,0-.16-.06-.24,0-.26,0-.39,0-.15-.19-.14m.9,0a1.62,1.62,0,0,0,0,.58c0,.16-.07.31.13.31s.17.05.15-.12-.05-.16-.06-.24,0-.26,0-.39,0-.15-.19-.14m.91,0a1.26,1.26,0,0,0,0,.58c0,.16-.08.31.12.31s.17.05.15-.12,0-.16-.06-.24,0-.26,0-.39,0-.15-.18-.14m.9,0a1.26,1.26,0,0,0,0,.58c0,.16-.08.31.13.31s.16.05.14-.12,0-.16,0-.24a2.54,2.54,0,0,1,0-.39c0-.19,0-.15-.19-.14m.9,0a1.42,1.42,0,0,0,0,.58c0,.16-.07.31.13.31s.16.05.15-.12,0-.16-.06-.24a2.54,2.54,0,0,1,0-.39c0-.19,0-.15-.19-.14m.9,0a1.42,1.42,0,0,0,0,.58c0,.16-.07.31.13.31s.17.05.15-.12-.05-.16-.06-.24a2.54,2.54,0,0,1,0-.39c0-.19,0-.15-.19-.14m.9,0a1.42,1.42,0,0,0,0,.58c0,.16-.07.31.13.31s.17.05.15-.12,0-.16-.06-.24a2.54,2.54,0,0,1,0-.39c0-.19,0-.15-.19-.14m.9,0a1.62,1.62,0,0,0,0,.58c0,.16-.07.31.13.31s.17.05.15-.12,0-.16-.06-.24a2.54,2.54,0,0,1,0-.39c0-.19,0-.15-.19-.14m.9,0a1.62,1.62,0,0,0,0,.58c0,.16-.07.31.13.31s.17.05.15-.12,0-.16-.06-.24,0-.26,0-.39,0-.15-.19-.14m.9,0a1.62,1.62,0,0,0,0,.58c0,.16-.07.31.13.31s.17.05.15-.12,0-.16-.06-.24,0-.26,0-.39,0-.15-.19-.14m.9,0a1.62,1.62,0,0,0,0,.58c0,.16-.07.31.13.31s.17.05.15-.12-.05-.16-.06-.24,0-.26,0-.39,0-.15-.19-.14m.9,0a1.62,1.62,0,0,0,0,.58c0,.16-.07.31.13.31s.17.05.15-.12,0-.16-.06-.24,0-.26,0-.39,0-.15-.19-.14m.91,0a1.26,1.26,0,0,0,0,.58c0,.16-.08.31.12.31s.17.05.15-.12,0-.16-.06-.24,0-.26,0-.39,0-.15-.18-.14m.9,0a1.26,1.26,0,0,0,0,.58c0,.16-.08.31.13.31s.16.05.14-.12,0-.16,0-.24a2.54,2.54,0,0,1,0-.39c0-.19,0-.15-.19-.14m.9,0a1.26,1.26,0,0,0,0,.58c0,.16-.08.31.13.31s.16.05.14-.12a2.1,2.1,0,0,0-.06-.24c0-.13,0-.26,0-.39s0-.15-.18-.14m.9,0a1.42,1.42,0,0,0,0,.58c0,.16-.07.31.13.31s.16.05.15-.12a2.1,2.1,0,0,1-.06-.24,2.54,2.54,0,0,1,0-.39c0-.19,0-.15-.19-.14m.9,0a1.42,1.42,0,0,0,0,.58c0,.16-.07.31.13.31s.17.05.15-.12,0-.16-.06-.24a2.54,2.54,0,0,1,0-.39c0-.19,0-.15-.19-.14m.9,0a1.42,1.42,0,0,0,0,.58c0,.16-.07.31.13.31s.17.05.15-.12,0-.16-.06-.24a2.54,2.54,0,0,1,0-.39c0-.19,0-.15-.19-.14m.9,0a1.62,1.62,0,0,0,0,.58c0,.16-.07.31.13.31s.17.05.15-.12,0-.16-.06-.24a2.54,2.54,0,0,1,0-.39c0-.19,0-.15-.19-.14m.9,0a1.62,1.62,0,0,0,0,.58c0,.16-.07.31.13.31s.17.05.15-.12-.05-.16-.06-.24,0-.26,0-.39,0-.15-.19-.14m.9,0a1.62,1.62,0,0,0,0,.58c.05.16-.07.31.13.31s.17.05.15-.12,0-.16-.06-.24,0-.26,0-.39,0-.15-.19-.14m.9,0a1.62,1.62,0,0,0,0,.58c.05.16-.07.31.13.31s.17.05.15-.12-.05-.16-.06-.24,0-.26,0-.39,0-.15-.19-.14m.9,0a1.62,1.62,0,0,0,0,.58c0,.16-.07.31.13.31s.17.05.15-.12-.05-.16-.06-.24,0-.26,0-.39,0-.15-.19-.14m.91,0a1.26,1.26,0,0,0,0,.58c0,.16-.08.31.12.31s.17.05.15-.12-.05-.16-.06-.24,0-.26,0-.39,0-.15-.18-.14m.9,0a1.26,1.26,0,0,0,0,.58c0,.16-.08.31.13.31s.16.05.14-.12,0-.16,0-.24a2.54,2.54,0,0,1,0-.39c0-.19,0-.15-.19-.14m.9,0a1.42,1.42,0,0,0,0,.58c0,.16-.07.31.13.31s.16.05.15-.12,0-.16-.06-.24a2.54,2.54,0,0,1,0-.39c0-.19,0-.15-.19-.14m.9,0a1.42,1.42,0,0,0,0,.58c0,.16-.07.31.13.31s.17.05.15-.12,0-.16-.06-.24a2.54,2.54,0,0,1,0-.39c0-.19,0-.15-.19-.14m.9,0a1.42,1.42,0,0,0,0,.58c0,.16-.07.31.13.31s.17.05.15-.12-.05-.16-.06-.24a2.54,2.54,0,0,1,0-.39c0-.19,0-.15-.19-.14m.9,0a1.62,1.62,0,0,0,0,.58c0,.16-.07.31.13.31s.17.05.15-.12-.05-.16-.06-.24a2.54,2.54,0,0,1,0-.39c0-.19,0-.15-.19-.14m.9,0a1.62,1.62,0,0,0,0,.58c0,.16-.07.31.13.31s.17.05.15-.12-.05-.16-.06-.24a2.54,2.54,0,0,1,0-.39c0-.19,0-.15-.19-.14m.9,0a1.62,1.62,0,0,0,0,.58c0,.16-.07.31.13.31s.17.05.15-.12,0-.16-.06-.24,0-.26,0-.39,0-.15-.19-.14m.9,0a1.62,1.62,0,0,0,0,.58c.05.16-.07.31.13.31s.17.05.15-.12,0-.16-.06-.24,0-.26,0-.39,0-.15-.19-.14m.9,0a1.62,1.62,0,0,0,0,.58c.05.16-.07.31.13.31s.17.05.15-.12-.05-.16-.06-.24,0-.26,0-.39,0-.15-.19-.14m.9,0a1.62,1.62,0,0,0,0,.58c0,.16-.07.31.13.31s.17.05.15-.12-.05-.16-.06-.24,0-.26,0-.39,0-.15-.19-.14m.91,0a1.26,1.26,0,0,0,0,.58c0,.16-.08.31.12.31s.17.05.15-.12-.05-.16-.06-.24,0-.26,0-.39,0-.15-.18-.14m.9,0a1.26,1.26,0,0,0,0,.58c0,.16-.08.31.13.31s.16.05.14-.12,0-.16,0-.24a2.55,2.55,0,0,1,0-.39c0-.19,0-.15-.18-.14m.9,0a1.42,1.42,0,0,0,0,.58c0,.16-.07.31.13.31s.16.05.15-.12-.05-.16-.06-.24a2.54,2.54,0,0,1,0-.39c0-.19,0-.15-.19-.14m.9,0a1.42,1.42,0,0,0,0,.58c0,.16-.07.31.13.31s.17.05.15-.12,0-.16-.06-.24a2.54,2.54,0,0,1,0-.39c0-.19,0-.15-.19-.14m.9,0a1.42,1.42,0,0,0,0,.58c0,.16-.07.31.13.31s.17.05.15-.12,0-.16-.06-.24a2.54,2.54,0,0,1,0-.39c0-.19,0-.15-.19-.14m.9,0a1.62,1.62,0,0,0,0,.58c0,.16-.07.31.13.31s.17.05.15-.12-.05-.16-.06-.24a2.54,2.54,0,0,1,0-.39c0-.19,0-.15-.19-.14m.9,0a1.62,1.62,0,0,0,0,.58c0,.16-.07.31.13.31s.17.05.15-.12-.05-.16-.06-.24,0-.26,0-.39,0-.15-.19-.14m.9,0a1.62,1.62,0,0,0,0,.58c0,.16-.07.31.13.31s.17.05.15-.12-.05-.16-.06-.24,0-.26,0-.39,0-.15-.19-.14m.9,0a1.62,1.62,0,0,0,0,.58c.05.16-.07.31.13.31s.17.05.15-.12,0-.16-.06-.24,0-.26,0-.39,0-.15-.19-.14m.9,0a1.62,1.62,0,0,0,0,.58c.05.16-.07.31.13.31s.17.05.15-.12,0-.16-.06-.24,0-.26,0-.39,0-.15-.19-.14m.91,0a1.26,1.26,0,0,0,0,.58c0,.16-.08.31.12.31s.17.05.15-.12-.05-.16-.06-.24,0-.26,0-.39,0-.15-.18-.14m.9,0a1.26,1.26,0,0,0,0,.58c0,.16-.08.31.12.31s.17.05.15-.12-.05-.16-.06-.24,0-.26,0-.39,0-.15-.18-.14m.9,0a1.42,1.42,0,0,0,0,.58c0,.16-.07.31.13.31s.16.05.15-.12a2.1,2.1,0,0,1-.06-.24,2.54,2.54,0,0,1,0-.39c0-.19,0-.15-.19-.14m.9,0a1.42,1.42,0,0,0,0,.58c0,.16-.07.31.13.31s.16.05.15-.12a2.1,2.1,0,0,1-.06-.24,2.54,2.54,0,0,1,0-.39c0-.19,0-.15-.19-.14m.9,0a1.42,1.42,0,0,0,0,.58c0,.16-.07.31.13.31s.17.05.15-.12,0-.16-.06-.24a2.54,2.54,0,0,1,0-.39c0-.19,0-.15-.19-.14m.9,0a1.42,1.42,0,0,0,0,.58c0,.16-.07.31.13.31s.17.05.15-.12,0-.16-.06-.24a2.54,2.54,0,0,1,0-.39c0-.19,0-.15-.19-.14m.9,0a1.62,1.62,0,0,0,0,.58c0,.16-.07.31.13.31s.17.05.15-.12-.05-.16-.06-.24a2.54,2.54,0,0,1,0-.39c0-.19,0-.15-.19-.14m.9,0a1.62,1.62,0,0,0,0,.58c0,.16-.07.31.13.31s.17.05.15-.12-.05-.16-.06-.24,0-.26,0-.39,0-.15-.19-.14m.9,0a1.62,1.62,0,0,0,0,.58c0,.16-.07.31.13.31s.17.05.15-.12-.05-.16-.06-.24,0-.26,0-.39,0-.15-.19-.14m.9,0a1.62,1.62,0,0,0,0,.58c0,.16-.07.31.13.31s.17.05.15-.12,0-.16-.06-.24,0-.26,0-.39,0-.15-.19-.14m.9,0a1.62,1.62,0,0,0,0,.58c.05.16-.07.31.13.31s.17.05.15-.12,0-.16-.06-.24,0-.26,0-.39,0-.15-.19-.14m.91,0a1.26,1.26,0,0,0,0,.58c0,.16-.08.31.12.31s.17.05.15-.12-.05-.16-.06-.24,0-.26,0-.39,0-.15-.18-.14m.9,0a1.26,1.26,0,0,0,0,.58c0,.16-.08.31.13.31s.16.05.14-.12-.05-.16-.05-.24a2.54,2.54,0,0,1,0-.39c0-.19,0-.15-.19-.14m.9,0a1.26,1.26,0,0,0,0,.58c0,.16-.08.31.13.31s.16.05.14-.12-.05-.16-.05-.24a2.54,2.54,0,0,1,0-.39c0-.19,0-.15-.19-.14m.9,0a1.42,1.42,0,0,0,0,.58c0,.16-.07.31.13.31s.17.05.15-.12-.05-.16-.06-.24a2.54,2.54,0,0,1,0-.39c0-.19,0-.15-.19-.14m.9,0a1.42,1.42,0,0,0,0,.58c0,.16-.07.31.13.31s.17.05.15-.12-.05-.16-.06-.24a2.54,2.54,0,0,1,0-.39c0-.19,0-.15-.19-.14m.9,0a1.62,1.62,0,0,0,0,.58c0,.16-.07.31.13.31s.17.05.15-.12,0-.16-.06-.24a2.54,2.54,0,0,1,0-.39c0-.19,0-.15-.19-.14m.9,0a1.62,1.62,0,0,0,0,.58c0,.16-.07.31.13.31s.17.05.15-.12,0-.16-.06-.24a2.54,2.54,0,0,1,0-.39c0-.19,0-.15-.19-.14m.9,0a1.62,1.62,0,0,0,0,.58c0,.16-.07.31.13.31s.17.05.15-.12-.05-.16-.06-.24,0-.26,0-.39,0-.15-.19-.14m.9,0a1.62,1.62,0,0,0,0,.58c0,.16-.07.31.13.31s.17.05.15-.12-.05-.16-.06-.24,0-.26,0-.39,0-.15-.19-.14m.9,0a1.62,1.62,0,0,0,0,.58c0,.16-.07.31.13.31s.17.05.15-.12-.05-.16-.06-.24,0-.26,0-.39,0-.15-.19-.14m.9,0a1.62,1.62,0,0,0,0,.58c.05.16-.07.31.13.31s.17.05.15-.12,0-.16-.06-.24,0-.26,0-.39,0-.15-.19-.14m.91,0a1.26,1.26,0,0,0,0,.58c0,.16-.08.31.12.31s.17.05.15-.12,0-.16-.06-.24,0-.26,0-.39,0-.15-.18-.14m.9,0a1.26,1.26,0,0,0,0,.58c0,.16-.08.31.13.31s.16.05.14-.12-.05-.16-.05-.24a2.54,2.54,0,0,1,0-.39c0-.19,0-.15-.19-.14m.9,0a1.42,1.42,0,0,0,0,.58c0,.16-.07.31.13.31s.16.05.15-.12,0-.16-.06-.24a2.54,2.54,0,0,1,0-.39c0-.19,0-.15-.19-.14m.9,0a1.42,1.42,0,0,0,0,.58c0,.16-.07.31.13.31s.17.05.15-.12-.05-.16-.06-.24a2.54,2.54,0,0,1,0-.39c0-.19,0-.15-.19-.14m.9,0a1.42,1.42,0,0,0,0,.58c0,.16-.07.31.13.31s.17.05.15-.12-.05-.16-.06-.24a2.54,2.54,0,0,1,0-.39c0-.19,0-.15-.19-.14m.9,0a1.62,1.62,0,0,0,0,.58c0,.16-.07.31.13.31s.17.05.15-.12-.05-.16-.06-.24a2.54,2.54,0,0,1,0-.39c0-.19,0-.15-.19-.14m.9,0a1.62,1.62,0,0,0,0,.58c0,.16-.07.31.13.31s.17.05.15-.12,0-.16-.06-.24,0-.26,0-.39,0-.15-.19-.14m.9,0a1.62,1.62,0,0,0,0,.58c.05.16-.07.31.13.31s.17.05.15-.12,0-.16-.06-.24,0-.26,0-.39,0-.15-.19-.14m.9,0a1.62,1.62,0,0,0,0,.58c.05.16-.07.31.13.31s.17.05.15-.12-.05-.16-.06-.24,0-.26,0-.39,0-.15-.19-.14m.9,0a1.62,1.62,0,0,0,0,.58c0,.16-.07.31.13.31s.17.05.15-.12-.05-.16-.06-.24,0-.26,0-.39,0-.15-.19-.14m.9,0a1.62,1.62,0,0,0,0,.58c0,.16-.07.31.13.31s.17.05.15-.12-.05-.16-.06-.24,0-.26,0-.39,0-.15-.19-.14m.91,0a1.26,1.26,0,0,0,0,.58c0,.16-.08.31.12.31s.17.05.15-.12,0-.16-.06-.24,0-.26,0-.39,0-.15-.18-.14m.9,0a1.26,1.26,0,0,0,0,.58c0,.16-.07.31.13.31s.16.05.15-.12a2.1,2.1,0,0,1-.06-.24,2.54,2.54,0,0,1,0-.39c0-.19,0-.15-.19-.14m.9,0a1.42,1.42,0,0,0,0,.58c0,.16-.07.31.13.31s.16.05.15-.12,0-.16-.06-.24a2.54,2.54,0,0,1,0-.39c0-.19,0-.15-.19-.14m.9,0a1.42,1.42,0,0,0,0,.58c0,.16-.07.31.13.31s.17.05.15-.12-.05-.16-.06-.24a2.54,2.54,0,0,1,0-.39c0-.19,0-.15-.19-.14m.9,0a1.42,1.42,0,0,0,0,.58c0,.16-.07.31.13.31s.17.05.15-.12-.05-.16-.06-.24a2.54,2.54,0,0,1,0-.39c0-.19,0-.15-.19-.14m.9,0a1.62,1.62,0,0,0,0,.58c0,.16-.07.31.13.31s.17.05.15-.12-.05-.16-.06-.24a2.54,2.54,0,0,1,0-.39c0-.19,0-.15-.19-.14m.9,0a1.62,1.62,0,0,0,0,.58c0,.16-.07.31.13.31s.17.05.15-.12,0-.16-.06-.24,0-.26,0-.39,0-.15-.19-.14m.9,0a1.62,1.62,0,0,0,0,.58c.05.16-.07.31.13.31s.17.05.15-.12,0-.16-.06-.24,0-.26,0-.39,0-.15-.19-.14m.9,0a1.62,1.62,0,0,0,0,.58c.05.16-.07.31.13.31s.17.05.15-.12-.05-.16-.06-.24,0-.26,0-.39,0-.15-.19-.14m.9,0a1.62,1.62,0,0,0,0,.58c0,.16-.07.31.13.31s.17.05.15-.12-.05-.16-.06-.24,0-.26,0-.39,0-.15-.19-.14m.91,0a1.26,1.26,0,0,0,0,.58c0,.16-.08.31.12.31s.17.05.15-.12-.05-.16-.06-.24,0-.26,0-.39,0-.15-.18-.14m.9,0a1.26,1.26,0,0,0,0,.58c0,.16-.08.31.13.31s.16.05.14-.12,0-.16,0-.24a2.54,2.54,0,0,1,0-.39c0-.19,0-.15-.19-.14m.9,0a1.42,1.42,0,0,0,0,.58c0,.16-.07.31.13.31s.16.05.15-.12a2.1,2.1,0,0,1-.06-.24,2.54,2.54,0,0,1,0-.39c0-.19,0-.15-.19-.14m.9,0a1.42,1.42,0,0,0,0,.58c0,.16-.07.31.13.31s.16.05.15-.12a2.1,2.1,0,0,1-.06-.24,2.54,2.54,0,0,1,0-.39c0-.19,0-.15-.19-.14m.9,0a1.42,1.42,0,0,0,0,.58c0,.16-.07.31.13.31s.17.05.15-.12,0-.16-.06-.24a2.54,2.54,0,0,1,0-.39c0-.19,0-.15-.19-.14m.9,0a1.42,1.42,0,0,0,0,.58c0,.16-.07.31.13.31s.17.05.15-.12-.05-.16-.06-.24a2.54,2.54,0,0,1,0-.39c0-.19,0-.15-.19-.14m.9,0a1.62,1.62,0,0,0,0,.58c0,.16-.07.31.13.31s.17.05.15-.12-.05-.16-.06-.24a2.54,2.54,0,0,1,0-.39c0-.19,0-.15-.19-.14m.9,0a1.62,1.62,0,0,0,0,.58c0,.16-.07.31.13.31s.17.05.15-.12-.05-.16-.06-.24,0-.26,0-.39,0-.15-.19-.14m.9,0a1.62,1.62,0,0,0,0,.58c.05.16-.07.31.13.31s.17.05.15-.12,0-.16-.06-.24,0-.26,0-.39,0-.15-.19-.14m.9,0a1.62,1.62,0,0,0,0,.58c.05.16-.07.31.13.31s.17.05.15-.12,0-.16-.06-.24,0-.26,0-.39,0-.15-.19-.14m.9,0a1.62,1.62,0,0,0,0,.58c.05.16-.07.31.13.31s.17.05.15-.12-.05-.16-.06-.24,0-.26,0-.39,0-.15-.19-.14m.91,0a1.26,1.26,0,0,0,0,.58c0,.16-.08.31.12.31s.17.05.15-.12-.05-.16-.06-.24,0-.26,0-.39,0-.15-.18-.14m.9,0a1.26,1.26,0,0,0,0,.58c0,.16-.08.31.13.31s.16.05.14-.12-.05-.16-.05-.24a2.54,2.54,0,0,1,0-.39c0-.19,0-.15-.19-.14m.9,0a1.42,1.42,0,0,0,0,.58c0,.16-.07.31.13.31s.16.05.15-.12-.05-.16-.06-.24a2.54,2.54,0,0,1,0-.39c0-.19,0-.15-.19-.14m.9,0a1.42,1.42,0,0,0,0,.58c0,.16-.07.31.13.31s.17.05.15-.12,0-.16-.06-.24a2.54,2.54,0,0,1,0-.39c0-.19,0-.15-.19-.14m.9,0a1.42,1.42,0,0,0,0,.58c0,.16-.07.31.13.31s.17.05.15-.12,0-.16-.06-.24a2.54,2.54,0,0,1,0-.39c0-.19,0-.15-.19-.14m.9,0a1.62,1.62,0,0,0,0,.58c0,.16-.07.31.13.31s.17.05.15-.12-.05-.16-.06-.24a2.54,2.54,0,0,1,0-.39c0-.19,0-.15-.19-.14m.9,0a1.62,1.62,0,0,0,0,.58c0,.16-.07.31.13.31s.17.05.15-.12-.05-.16-.06-.24a2.54,2.54,0,0,1,0-.39c0-.19,0-.15-.19-.14m.9,0a1.62,1.62,0,0,0,0,.58c0,.16-.07.31.13.31s.17.05.15-.12-.05-.16-.06-.24,0-.26,0-.39,0-.15-.19-.14m.9,0a1.62,1.62,0,0,0,0,.58c0,.16-.07.31.13.31s.17.05.15-.12,0-.16-.06-.24,0-.26,0-.39,0-.15-.19-.14m.9,0a1.62,1.62,0,0,0,0,.58c.05.16-.07.31.13.31s.17.05.15-.12,0-.16-.06-.24,0-.26,0-.39,0-.15-.19-.14m.9,0a1.62,1.62,0,0,0,0,.58c.05.16-.07.31.13.31s.17.05.15-.12-.05-.16-.06-.24,0-.26,0-.39,0-.15-.19-.14m.91,0a1.26,1.26,0,0,0,0,.58c0,.16-.08.31.12.31s.17.05.15-.12-.05-.16-.06-.24,0-.26,0-.39,0-.15-.18-.14m.9,0a1.26,1.26,0,0,0,0,.58c0,.16-.08.31.13.31s.16.05.14-.12-.05-.16-.05-.24a2.54,2.54,0,0,1,0-.39c0-.19,0-.15-.19-.14m.9,0a1.42,1.42,0,0,0,0,.58c0,.16-.07.31.13.31s.16.05.15-.12a2.1,2.1,0,0,1-.06-.24,2.54,2.54,0,0,1,0-.39c0-.19,0-.15-.19-.14m.9,0a1.42,1.42,0,0,0,0,.58c0,.16-.07.31.13.31s.17.05.15-.12-.05-.16-.06-.24a2.54,2.54,0,0,1,0-.39c0-.19,0-.15-.19-.14m.9,0a1.42,1.42,0,0,0,0,.58c0,.16-.07.31.13.31s.17.05.15-.12,0-.16-.06-.24a2.54,2.54,0,0,1,0-.39c0-.19,0-.15-.19-.14m.9,0a1.62,1.62,0,0,0,0,.58c0,.16-.07.31.13.31s.17.05.15-.12,0-.16-.06-.24a2.54,2.54,0,0,1,0-.39c0-.19,0-.15-.19-.14m.9,0a1.62,1.62,0,0,0,0,.58c0,.16-.07.31.13.31s.17.05.15-.12-.05-.16-.06-.24,0-.26,0-.39,0-.15-.19-.14m.9,0a1.62,1.62,0,0,0,0,.58c0,.16-.07.31.13.31s.17.05.15-.12-.05-.16-.06-.24,0-.26,0-.39,0-.15-.19-.14m.9,0a1.62,1.62,0,0,0,0,.58c0,.16-.07.31.13.31s.17.05.15-.12-.05-.16-.06-.24,0-.26,0-.39,0-.15-.19-.14m.9,0a1.62,1.62,0,0,0,0,.58c.05.16-.07.31.13.31s.17.05.15-.12,0-.16-.06-.24,0-.26,0-.39,0-.15-.19-.14m.91,0a1.42,1.42,0,0,0,0,.58c.05.16-.07.31.13.31s.17.05.15-.12,0-.16-.06-.24,0-.26,0-.39,0-.15-.18-.14m.9,0a1.26,1.26,0,0,0,0,.58c0,.16-.08.31.13.31s.16.05.14-.12-.05-.16-.05-.24a2.54,2.54,0,0,1,0-.39c0-.19,0-.15-.19-.14m.9,0a1.26,1.26,0,0,0,0,.58c0,.16-.08.31.13.31s.16.05.14-.12-.05-.16-.05-.24a2.54,2.54,0,0,1,0-.39c0-.19,0-.15-.19-.14m.9,0a1.42,1.42,0,0,0,0,.58c0,.16-.07.31.13.31s.16.05.15-.12-.05-.16-.06-.24a2.54,2.54,0,0,1,0-.39c0-.19,0-.15-.19-.14m.9,0a1.42,1.42,0,0,0,0,.58c0,.16-.07.31.13.31s.17.05.15-.12-.05-.16-.06-.24a2.54,2.54,0,0,1,0-.39c0-.19,0-.15-.19-.14m.9,0a1.42,1.42,0,0,0,0,.58c0,.16-.07.31.13.31s.17.05.15-.12-.05-.16-.06-.24a2.54,2.54,0,0,1,0-.39c0-.19,0-.15-.19-.14m.9,0a1.62,1.62,0,0,0,0,.58c0,.16-.07.31.13.31s.17.05.15-.12,0-.16-.06-.24a2.54,2.54,0,0,1,0-.39c0-.19,0-.15-.19-.14m.9,0a1.62,1.62,0,0,0,0,.58c0,.16-.07.31.13.31s.17.05.15-.12,0-.16-.06-.24,0-.26,0-.39,0-.15-.19-.14m.9,0a1.62,1.62,0,0,0,0,.58c.05.16-.07.31.13.31s.17.05.15-.12-.05-.16-.06-.24,0-.26,0-.39,0-.15-.19-.14m.9,0a1.62,1.62,0,0,0,0,.58c0,.16-.07.31.13.31s.17.05.15-.12-.05-.16-.06-.24,0-.26,0-.39,0-.15-.19-.14m.9,0a1.62,1.62,0,0,0,0,.58c0,.16-.07.31.13.31s.17.05.15-.12-.05-.16-.06-.24,0-.26,0-.39,0-.15-.19-.14m.91,0a1.26,1.26,0,0,0,0,.58c0,.16-.08.31.12.31s.17.05.15-.12,0-.16-.06-.24,0-.26,0-.39,0-.15-.18-.14m.9,0a1.26,1.26,0,0,0,0,.58c0,.16-.08.31.13.31s.16.05.14-.12,0-.16,0-.24a2.54,2.54,0,0,1,0-.39c0-.19,0-.15-.19-.14m.9,0a1.42,1.42,0,0,0,0,.58c0,.16-.07.31.13.31s.16.05.15-.12a2.1,2.1,0,0,1-.06-.24,2.54,2.54,0,0,1,0-.39c0-.19,0-.15-.19-.14m.9,0a1.42,1.42,0,0,0,0,.58c0,.16-.07.31.13.31s.17.05.15-.12-.05-.16-.06-.24a2.54,2.54,0,0,1,0-.39c0-.19,0-.15-.19-.14m.9,0a1.42,1.42,0,0,0,0,.58c0,.16-.07.31.13.31s.17.05.15-.12-.05-.16-.06-.24a2.54,2.54,0,0,1,0-.39c0-.19,0-.15-.19-.14m.9,0a1.62,1.62,0,0,0,0,.58c0,.16-.07.31.13.31s.17.05.15-.12-.05-.16-.06-.24a2.54,2.54,0,0,1,0-.39c0-.19,0-.15-.19-.14m.9,0a1.62,1.62,0,0,0,0,.58c0,.16-.07.31.13.31s.17.05.15-.12,0-.16-.06-.24a2.54,2.54,0,0,1,0-.39c0-.19,0-.15-.19-.14m.9,0a1.62,1.62,0,0,0,0,.58c0,.16-.07.31.13.31s.17.05.15-.12,0-.16-.06-.24,0-.26,0-.39,0-.15-.19-.14m.9,0a1.62,1.62,0,0,0,0,.58c.05.16-.07.31.13.31s.17.05.15-.12-.05-.16-.06-.24,0-.26,0-.39,0-.15-.19-.14m.9,0a1.62,1.62,0,0,0,0,.58c0,.16-.07.31.13.31s.17.05.15-.12-.05-.16-.06-.24,0-.26,0-.39,0-.15-.19-.14m.9,0a1.62,1.62,0,0,0,0,.58c0,.16-.07.31.13.31s.17.05.15-.12-.05-.16-.06-.24,0-.26,0-.39,0-.15-.19-.14m.91,0a1.26,1.26,0,0,0,0,.58c0,.16-.08.31.12.31s.17.05.15-.12,0-.16-.06-.24,0-.26,0-.39,0-.15-.18-.14m.9,0a1.26,1.26,0,0,0,0,.58c0,.16-.08.31.13.31s.16.05.14-.12,0-.16,0-.24a2.54,2.54,0,0,1,0-.39c0-.19,0-.15-.19-.14m.9,0a1.42,1.42,0,0,0,0,.58c0,.16-.07.31.13.31s.16.05.15-.12,0-.16-.06-.24a2.54,2.54,0,0,1,0-.39c0-.19,0-.15-.19-.14m.9,0a1.42,1.42,0,0,0,0,.58c0,.16-.07.31.13.31s.17.05.15-.12,0-.16-.06-.24a2.54,2.54,0,0,1,0-.39c0-.19,0-.15-.19-.14m.9,0a1.42,1.42,0,0,0,0,.58c0,.16-.07.31.13.31s.17.05.15-.12-.05-.16-.06-.24a2.54,2.54,0,0,1,0-.39c0-.19,0-.15-.19-.14m.9,0a1.62,1.62,0,0,0,0,.58c0,.16-.07.31.13.31s.17.05.15-.12-.05-.16-.06-.24a2.54,2.54,0,0,1,0-.39c0-.19,0-.15-.19-.14m.9,0a1.62,1.62,0,0,0,0,.58c0,.16-.07.31.13.31s.17.05.15-.12-.05-.16-.06-.24,0-.26,0-.39,0-.15-.19-.14m.9,0a1.62,1.62,0,0,0,0,.58c.05.16-.07.31.13.31s.17.05.15-.12,0-.16-.06-.24,0-.26,0-.39,0-.15-.19-.14m.9,0a1.62,1.62,0,0,0,0,.58c.05.16-.07.31.13.31s.17.05.15-.12,0-.16-.06-.24,0-.26,0-.39,0-.15-.19-.14m.9,0a1.62,1.62,0,0,0,0,.58c.05.16-.07.31.13.31s.17.05.15-.12-.05-.16-.06-.24,0-.26,0-.39,0-.15-.19-.14m.9,0a1.62,1.62,0,0,0,0,.58c0,.16-.07.31.13.31s.17.05.15-.12-.05-.16-.06-.24,0-.26,0-.39,0-.15-.19-.14m.91,0a1.26,1.26,0,0,0,0,.58c0,.16-.08.31.12.31s.17.05.15-.12-.05-.16-.06-.24,0-.26,0-.39,0-.15-.18-.14m.9,0a1.26,1.26,0,0,0,0,.58c0,.16-.08.31.13.31s.16.05.14-.12,0-.16,0-.24a2.54,2.54,0,0,1,0-.39c0-.19,0-.15-.19-.14m.9,0a1.42,1.42,0,0,0,0,.58c0,.16-.07.31.13.31s.16.05.15-.12a2.1,2.1,0,0,1-.06-.24,2.54,2.54,0,0,1,0-.39c0-.19,0-.15-.19-.14m.9,0a1.42,1.42,0,0,0,0,.58c0,.16-.07.31.13.31s.17.05.15-.12,0-.16-.06-.24a2.54,2.54,0,0,1,0-.39c0-.19,0-.15-.19-.14m.9,0a1.42,1.42,0,0,0,0,.58c0,.16-.07.31.13.31s.17.05.15-.12-.05-.16-.06-.24a2.54,2.54,0,0,1,0-.39c0-.19,0-.15-.19-.14m.9,0a1.62,1.62,0,0,0,0,.58c0,.16-.07.31.13.31s.17.05.15-.12-.05-.16-.06-.24a2.54,2.54,0,0,1,0-.39c0-.19,0-.15-.19-.14m.9,0a1.62,1.62,0,0,0,0,.58c0,.16-.07.31.13.31s.17.05.15-.12-.05-.16-.06-.24,0-.26,0-.39,0-.15-.19-.14m.9,0a1.62,1.62,0,0,0,0,.58c0,.16-.07.31.13.31s.17.05.15-.12,0-.16-.06-.24,0-.26,0-.39,0-.15-.19-.14m.9,0a1.62,1.62,0,0,0,0,.58c.05.16-.07.31.13.31s.17.05.15-.12,0-.16-.06-.24,0-.26,0-.39,0-.15-.19-.14m.9,0a1.62,1.62,0,0,0,0,.58c.05.16-.07.31.13.31s.17.05.15-.12-.05-.16-.06-.24,0-.26,0-.39,0-.15-.19-.14m.91,0a1.26,1.26,0,0,0,0,.58c0,.16-.08.31.12.31s.17.05.15-.12,0-.16-.06-.24,0-.26,0-.39,0-.15-.18-.14m.9,0a1.26,1.26,0,0,0,0,.58c0,.16-.08.31.13.31s.16.05.14-.12-.05-.16-.05-.24a2.55,2.55,0,0,1,0-.39c0-.19,0-.15-.18-.14m.9,0a1.42,1.42,0,0,0,0,.58c0,.16-.07.31.13.31s.16.05.15-.12a2.1,2.1,0,0,1-.06-.24,2.54,2.54,0,0,1,0-.39c0-.19,0-.15-.19-.14m.9,0a1.42,1.42,0,0,0,0,.58c0,.16-.07.31.13.31s.17.05.15-.12-.05-.16-.06-.24a2.54,2.54,0,0,1,0-.39c0-.19,0-.15-.19-.14m.9,0a1.42,1.42,0,0,0,0,.58c0,.16-.07.31.13.31s.17.05.15-.12-.05-.16-.06-.24a2.54,2.54,0,0,1,0-.39c0-.19,0-.15-.19-.14m.9,0a1.42,1.42,0,0,0,0,.58c0,.16-.07.31.13.31s.17.05.15-.12-.05-.16-.06-.24a2.54,2.54,0,0,1,0-.39c0-.19,0-.15-.19-.14m.9,0a1.62,1.62,0,0,0,0,.58c0,.16-.07.31.13.31s.17.05.15-.12-.05-.16-.06-.24,0-.26,0-.39,0-.15-.19-.14m.9,0a1.62,1.62,0,0,0,0,.58c0,.16-.07.31.13.31s.17.05.15-.12,0-.16-.06-.24,0-.26,0-.39,0-.15-.19-.14m.9,0a1.62,1.62,0,0,0,0,.58c.05.16-.07.31.13.31s.17.05.15-.12-.05-.16-.06-.24,0-.26,0-.39,0-.15-.19-.14m.9,0a1.62,1.62,0,0,0,0,.58c.05.16-.07.31.13.31s.17.05.15-.12-.05-.16-.06-.24,0-.26,0-.39,0-.15-.19-.14m.9,0a1.62,1.62,0,0,0,0,.58c.05.16-.07.31.13.31s.17.05.15-.12-.05-.16-.06-.24,0-.26,0-.39,0-.15-.19-.14m.91,0a1.26,1.26,0,0,0,0,.58c0,.16-.08.31.12.31s.17.05.15-.12-.05-.16-.06-.24,0-.26,0-.39,0-.15-.18-.14m.9,0a1.26,1.26,0,0,0,0,.58c0,.16-.08.31.13.31s.16.05.14-.12,0-.16,0-.24a2.54,2.54,0,0,1,0-.39c0-.19,0-.15-.19-.14m.9,0a1.42,1.42,0,0,0,0,.58c0,.16-.07.31.13.31s.16.05.15-.12a2.1,2.1,0,0,1-.06-.24,2.54,2.54,0,0,1,0-.39c0-.19,0-.15-.19-.14m.9,0a1.42,1.42,0,0,0,0,.58c0,.16-.07.31.13.31s.17.05.15-.12,0-.16-.06-.24a2.54,2.54,0,0,1,0-.39c0-.19,0-.15-.19-.14m.9,0a1.42,1.42,0,0,0,0,.58c0,.16-.07.31.13.31s.17.05.15-.12-.05-.16-.06-.24a2.54,2.54,0,0,1,0-.39c0-.19,0-.15-.19-.14m.9,0a1.62,1.62,0,0,0,0,.58c0,.16-.07.31.13.31s.17.05.15-.12-.05-.16-.06-.24a2.54,2.54,0,0,1,0-.39c0-.19,0-.15-.19-.14m.9,0a1.62,1.62,0,0,0,0,.58c0,.16-.07.31.13.31s.17.05.15-.12-.05-.16-.06-.24,0-.26,0-.39,0-.15-.19-.14m.9,0a1.62,1.62,0,0,0,0,.58c.05.16-.07.31.13.31s.17.05.15-.12-.05-.16-.06-.24,0-.26,0-.39,0-.15-.19-.14m.9,0a1.62,1.62,0,0,0,0,.58c.05.16-.07.31.13.31s.17.05.15-.12,0-.16-.06-.24,0-.26,0-.39,0-.15-.19-.14m.9,0a1.62,1.62,0,0,0,0,.58c.05.16-.07.31.13.31s.17.05.15-.12-.05-.16-.06-.24,0-.26,0-.39,0-.15-.19-.14m.91,0a1.42,1.42,0,0,0,0,.58c0,.16-.07.31.13.31s.17.05.15-.12-.05-.16-.06-.24,0-.26,0-.39,0-.15-.18-.14m.9,0a1.26,1.26,0,0,0,0,.58c0,.16-.08.31.13.31s.16.05.14-.12-.05-.16-.05-.24a2.54,2.54,0,0,1,0-.39c0-.19,0-.15-.19-.14m.9,0a1.26,1.26,0,0,0,0,.58c0,.16-.08.31.13.31s.16.05.14-.12-.05-.16-.05-.24a2.54,2.54,0,0,1,0-.39c0-.19,0-.15-.19-.14m.9,0a1.42,1.42,0,0,0,0,.58c0,.16-.07.31.13.31s.16.05.15-.12a2.1,2.1,0,0,1-.06-.24,2.54,2.54,0,0,1,0-.39c0-.19,0-.15-.19-.14m.9,0a1.42,1.42,0,0,0,0,.58c0,.16-.07.31.13.31s.17.05.15-.12-.05-.16-.06-.24a2.54,2.54,0,0,1,0-.39c0-.19,0-.15-.19-.14m.9,0a1.42,1.42,0,0,0,0,.58c0,.16-.07.31.13.31s.17.05.15-.12,0-.16-.06-.24a2.54,2.54,0,0,1,0-.39c0-.19,0-.15-.19-.14m.9,0a1.62,1.62,0,0,0,0,.58c0,.16-.07.31.13.31s.17.05.15-.12-.05-.16-.06-.24a2.54,2.54,0,0,1,0-.39c0-.19,0-.15-.19-.14m.9,0a1.62,1.62,0,0,0,0,.58c0,.16-.07.31.13.31s.17.05.15-.12-.05-.16-.06-.24,0-.26,0-.39,0-.15-.19-.14m.9,0a1.62,1.62,0,0,0,0,.58c.05.16-.07.31.13.31s.17.05.15-.12-.05-.16-.06-.24,0-.26,0-.39,0-.15-.19-.14m.9,0a1.62,1.62,0,0,0,0,.58c.05.16-.07.31.13.31s.17.05.15-.12-.05-.16-.06-.24,0-.26,0-.39,0-.15-.19-.14m.9,0a1.62,1.62,0,0,0,0,.58c.05.16-.07.31.13.31s.17.05.15-.12,0-.16-.06-.24,0-.26,0-.39,0-.15-.19-.14m.91,0a1.26,1.26,0,0,0,0,.58c0,.16-.08.31.12.31s.17.05.15-.12-.05-.16-.06-.24,0-.26,0-.39,0-.15-.18-.14m.9,0a1.26,1.26,0,0,0,0,.58c0,.16-.08.31.12.31s.17.05.15-.12a2.1,2.1,0,0,0-.06-.24c0-.13,0-.26,0-.39s0-.15-.19-.14m.9,0a1.42,1.42,0,0,0,0,.58c0,.16-.07.31.13.31s.16.05.15-.12-.05-.16-.06-.24a2.54,2.54,0,0,1,0-.39c0-.19,0-.15-.19-.14m.9,0a1.42,1.42,0,0,0,0,.58c0,.16-.07.31.13.31s.16.05.15-.12-.05-.16-.06-.24a2.54,2.54,0,0,1,0-.39c0-.19,0-.15-.19-.14m.9,0a1.42,1.42,0,0,0,0,.58c0,.16-.07.31.13.31s.17.05.15-.12,0-.16-.06-.24a2.54,2.54,0,0,1,0-.39c0-.19,0-.15-.19-.14m.9,0a1.42,1.42,0,0,0,0,.58c0,.16-.07.31.13.31s.17.05.15-.12-.05-.16-.06-.24a2.54,2.54,0,0,1,0-.39c0-.19,0-.15-.19-.14m.9,0a1.62,1.62,0,0,0,0,.58c0,.16-.07.31.13.31s.17.05.15-.12-.05-.16-.06-.24,0-.26,0-.39,0-.15-.19-.14m.9,0a1.62,1.62,0,0,0,0,.58c0,.16-.07.31.13.31s.17.05.15-.12-.05-.16-.06-.24,0-.26,0-.39,0-.15-.19-.14m.9,0a1.62,1.62,0,0,0,0,.58c0,.16-.07.31.13.31s.17.05.15-.12-.05-.16-.06-.24,0-.26,0-.39,0-.15-.19-.14m.9,0a1.62,1.62,0,0,0,0,.58c.05.16-.07.31.13.31s.17.05.15-.12,0-.16-.06-.24,0-.26,0-.39,0-.15-.19-.14m.9,0a1.62,1.62,0,0,0,0,.58c.05.16-.07.31.13.31s.17.05.15-.12-.05-.16-.06-.24,0-.26,0-.39,0-.15-.19-.14m.91,0a1.26,1.26,0,0,0,0,.58c0,.16-.08.31.12.31s.17.05.15-.12-.05-.16-.06-.24,0-.26,0-.39,0-.15-.18-.14m.9,0a1.26,1.26,0,0,0,0,.58c0,.16-.08.31.13.31s.16.05.14-.12a2.1,2.1,0,0,0-.06-.24c0-.13,0-.26,0-.39s0-.15-.18-.14m.9,0a1.42,1.42,0,0,0,0,.58c0,.16-.07.31.13.31s.16.05.15-.12a2.1,2.1,0,0,1-.06-.24,2.54,2.54,0,0,1,0-.39c0-.19,0-.15-.19-.14m.9,0a1.42,1.42,0,0,0,0,.58c0,.16-.07.31.13.31s.17.05.15-.12-.05-.16-.06-.24a2.54,2.54,0,0,1,0-.39c0-.19,0-.15-.19-.14m.9,0a1.42,1.42,0,0,0,0,.58c0,.16-.07.31.13.31s.17.05.15-.12-.05-.16-.06-.24a2.54,2.54,0,0,1,0-.39c0-.19,0-.15-.19-.14m.9,0a1.62,1.62,0,0,0,0,.58c0,.16-.07.31.13.31s.17.05.15-.12,0-.16-.06-.24a2.54,2.54,0,0,1,0-.39c0-.19,0-.15-.19-.14m.9,0a1.62,1.62,0,0,0,0,.58c0,.16-.07.31.13.31s.17.05.15-.12-.05-.16-.06-.24,0-.26,0-.39,0-.15-.19-.14m.9,0a1.62,1.62,0,0,0,0,.58c.05.16-.07.31.13.31s.17.05.15-.12-.05-.16-.06-.24,0-.26,0-.39,0-.15-.19-.14m.9,0a1.62,1.62,0,0,0,0,.58c.05.16-.07.31.13.31s.17.05.15-.12-.05-.16-.06-.24,0-.26,0-.39,0-.15-.19-.14m.9,0a1.62,1.62,0,0,0,0,.58c0,.16-.07.31.13.31s.17.05.15-.12-.05-.16-.06-.24,0-.26,0-.39,0-.15-.19-.14m.91,0a1.26,1.26,0,0,0,0,.58c0,.16-.08.31.12.31s.17.05.15-.12,0-.16-.06-.24,0-.26,0-.39,0-.15-.18-.14m.9,0a1.26,1.26,0,0,0,0,.58c0,.16-.08.31.12.31s.17.05.15-.12-.05-.16-.06-.24,0-.26,0-.39,0-.15-.18-.14m.9,0a1.26,1.26,0,0,0,0,.58c0,.16-.08.31.13.31s.16.05.14-.12-.05-.16-.05-.24a2.54,2.54,0,0,1,0-.39c0-.19,0-.15-.19-.14m.9,0a1.42,1.42,0,0,0,0,.58c0,.16-.07.31.13.31s.16.05.15-.12a2.1,2.1,0,0,1-.06-.24,2.54,2.54,0,0,1,0-.39c0-.19,0-.15-.19-.14m.9,0a1.42,1.42,0,0,0,0,.58c0,.16-.07.31.13.31s.17.05.15-.12-.05-.16-.06-.24a2.54,2.54,0,0,1,0-.39c0-.19,0-.15-.19-.14m.9,0a1.42,1.42,0,0,0,0,.58c0,.16-.07.31.13.31s.17.05.15-.12-.05-.16-.06-.24a2.54,2.54,0,0,1,0-.39c0-.19,0-.15-.19-.14m.9,0a1.62,1.62,0,0,0,0,.58c0,.16-.07.31.13.31s.17.05.15-.12-.05-.16-.06-.24a2.54,2.54,0,0,1,0-.39c0-.19,0-.15-.19-.14m.9,0a1.62,1.62,0,0,0,0,.58c0,.16-.07.31.13.31s.17.05.15-.12,0-.16-.06-.24,0-.26,0-.39,0-.15-.19-.14m.9,0a1.62,1.62,0,0,0,0,.58c.05.16-.07.31.13.31s.17.05.15-.12-.05-.16-.06-.24,0-.26,0-.39,0-.15-.19-.14m.9,0a1.62,1.62,0,0,0,0,.58c.05.16-.07.31.13.31s.17.05.15-.12-.05-.16-.06-.24,0-.26,0-.39,0-.15-.19-.14m.9,0a1.62,1.62,0,0,0,0,.58c.05.16-.07.31.13.31s.17.05.15-.12-.05-.16-.06-.24,0-.26,0-.39,0-.15-.19-.14m.91,0a1.26,1.26,0,0,0,0,.58c0,.16-.08.31.12.31s.17.05.15-.12-.05-.16-.06-.24,0-.26,0-.39,0-.15-.18-.14m.9,0a1.26,1.26,0,0,0,0,.58c0,.16-.08.31.13.31s.16.05.14-.12,0-.16,0-.24a2.54,2.54,0,0,1,0-.39c0-.19,0-.15-.19-.14m.9,0a1.42,1.42,0,0,0,0,.58c0,.16-.07.31.13.31s.16.05.15-.12-.05-.16-.06-.24a2.54,2.54,0,0,1,0-.39c0-.19,0-.15-.19-.14m.9,0a1.42,1.42,0,0,0,0,.58c0,.16-.07.31.13.31s.17.05.15-.12,0-.16-.06-.24a2.54,2.54,0,0,1,0-.39c0-.19,0-.15-.19-.14m.9,0a1.42,1.42,0,0,0,0,.58c0,.16-.07.31.13.31s.17.05.15-.12-.05-.16-.06-.24a2.54,2.54,0,0,1,0-.39c0-.19,0-.15-.19-.14m.9,0a1.42,1.42,0,0,0,0,.58c0,.16-.07.31.13.31s.17.05.15-.12-.05-.16-.06-.24a2.54,2.54,0,0,1,0-.39c0-.19,0-.15-.19-.14m.9,0a1.62,1.62,0,0,0,0,.58c0,.16-.07.31.13.31s.17.05.15-.12-.05-.16-.06-.24a2.54,2.54,0,0,1,0-.39c0-.19,0-.15-.19-.14m.9,0a1.62,1.62,0,0,0,0,.58c0,.16-.07.31.13.31s.17.05.15-.12-.05-.16-.06-.24,0-.26,0-.39,0-.15-.19-.14m.9,0a1.62,1.62,0,0,0,0,.58c.05.16-.07.31.13.31s.17.05.15-.12,0-.16-.06-.24,0-.26,0-.39,0-.15-.19-.14m.9,0a1.62,1.62,0,0,0,0,.58c.05.16-.07.31.13.31s.17.05.15-.12-.05-.16-.06-.24,0-.26,0-.39,0-.15-.19-.14m.9,0a1.62,1.62,0,0,0,0,.58c0,.16-.07.31.13.31s.17.05.15-.12-.05-.16-.06-.24,0-.26,0-.39,0-.15-.19-.14m.91,0a1.26,1.26,0,0,0,0,.58c0,.16-.08.31.12.31s.17.05.15-.12-.05-.16-.06-.24,0-.26,0-.39,0-.15-.18-.14m.9,0a1.26,1.26,0,0,0,0,.58c0,.16-.08.31.13.31s.16.05.14-.12-.05-.16-.05-.24a2.54,2.54,0,0,1,0-.39c0-.19,0-.15-.19-.14m.9,0a1.42,1.42,0,0,0,0,.58c0,.16-.07.31.13.31s.16.05.15-.12a2.1,2.1,0,0,1-.06-.24,2.54,2.54,0,0,1,0-.39c0-.19,0-.15-.19-.14m.9,0a1.42,1.42,0,0,0,0,.58c0,.16-.07.31.13.31s.17.05.15-.12-.05-.16-.06-.24a2.54,2.54,0,0,1,0-.39c0-.19,0-.15-.19-.14m.9,0a1.42,1.42,0,0,0,0,.58c0,.16-.07.31.13.31s.17.05.15-.12,0-.16-.06-.24a2.54,2.54,0,0,1,0-.39c0-.19,0-.15-.19-.14m.9,0a1.62,1.62,0,0,0,0,.58c0,.16-.07.31.13.31s.17.05.15-.12-.05-.16-.06-.24a2.54,2.54,0,0,1,0-.39c0-.19,0-.15-.19-.14m.9,0a1.62,1.62,0,0,0,0,.58c0,.16-.07.31.13.31s.17.05.15-.12-.05-.16-.06-.24,0-.26,0-.39,0-.15-.19-.14m.9,0a1.62,1.62,0,0,0,0,.58c.05.16-.07.31.13.31s.17.05.15-.12-.05-.16-.06-.24,0-.26,0-.39,0-.15-.19-.14m.9,0a1.62,1.62,0,0,0,0,.58c.05.16-.07.31.13.31s.17.05.15-.12-.05-.16-.06-.24,0-.26,0-.39,0-.15-.19-.14m.9,0a1.62,1.62,0,0,0,0,.58c.05.16-.07.31.13.31s.17.05.15-.12,0-.16-.06-.24,0-.26,0-.39,0-.15-.19-.14m.91,0a1.42,1.42,0,0,0,0,.58c.05.16-.07.31.13.31s.17.05.15-.12-.05-.16-.06-.24,0-.26,0-.39,0-.15-.18-.14m.9,0a1.26,1.26,0,0,0,0,.58c0,.16-.08.31.12.31s.17.05.15-.12-.05-.16-.06-.24,0-.26,0-.39,0-.15-.18-.14m.9,0a1.26,1.26,0,0,0,0,.58c0,.16-.08.31.13.31s.16.05.14-.12-.05-.16-.05-.24a2.54,2.54,0,0,1,0-.39c0-.19,0-.15-.19-.14m.9,0a1.42,1.42,0,0,0,0,.58c0,.16-.07.31.13.31s.16.05.15-.12a2.1,2.1,0,0,1-.06-.24,2.54,2.54,0,0,1,0-.39c0-.19,0-.15-.19-.14m.9,0a1.42,1.42,0,0,0,0,.58c0,.16-.07.31.13.31s.17.05.15-.12,0-.16-.06-.24a2.54,2.54,0,0,1,0-.39c0-.19,0-.15-.19-.14m.9,0a1.42,1.42,0,0,0,0,.58c0,.16-.07.31.13.31s.17.05.15-.12-.05-.16-.06-.24a2.54,2.54,0,0,1,0-.39c0-.19,0-.15-.19-.14m.9,0a1.62,1.62,0,0,0,0,.58c0,.16-.07.31.13.31s.17.05.15-.12-.05-.16-.06-.24a2.54,2.54,0,0,1,0-.39c0-.19,0-.15-.19-.14m.9,0a1.62,1.62,0,0,0,0,.58c0,.16-.07.31.13.31s.17.05.15-.12-.05-.16-.06-.24,0-.26,0-.39,0-.15-.19-.14m.9,0a1.62,1.62,0,0,0,0,.58c0,.16-.07.31.13.31s.17.05.15-.12-.05-.16-.06-.24,0-.26,0-.39,0-.15-.19-.14m.9,0a1.62,1.62,0,0,0,0,.58c.05.16-.07.31.13.31s.17.05.15-.12,0-.16-.06-.24,0-.26,0-.39,0-.15-.19-.14m.9,0a1.62,1.62,0,0,0,0,.58c.05.16-.07.31.13.31s.17.05.15-.12-.05-.16-.06-.24,0-.26,0-.39,0-.15-.19-.14m.91,0a1.26,1.26,0,0,0,0,.58c0,.16-.08.31.12.31s.17.05.15-.12-.05-.16-.06-.24,0-.26,0-.39,0-.15-.18-.14m.9,0a1.26,1.26,0,0,0,0,.58c0,.16-.08.31.13.31s.16.05.14-.12-.05-.16-.05-.24a2.54,2.54,0,0,1,0-.39c0-.19,0-.15-.19-.14m.9,0a1.42,1.42,0,0,0,0,.58c0,.16-.07.31.13.31s.16.05.15-.12-.05-.16-.06-.24a2.54,2.54,0,0,1,0-.39c0-.19,0-.15-.19-.14m.9,0a1.42,1.42,0,0,0,0,.58c0,.16-.07.31.13.31s.16.05.15-.12a2.1,2.1,0,0,1-.06-.24,2.54,2.54,0,0,1,0-.39c0-.19,0-.15-.19-.14m.9,0a1.42,1.42,0,0,0,0,.58c0,.16-.07.31.13.31s.17.05.15-.12-.05-.16-.06-.24a2.54,2.54,0,0,1,0-.39c0-.19,0-.15-.19-.14m.9,0a1.62,1.62,0,0,0,0,.58c0,.16-.07.31.13.31s.17.05.15-.12,0-.16-.06-.24a2.54,2.54,0,0,1,0-.39c0-.19,0-.15-.19-.14m.9,0a1.62,1.62,0,0,0,0,.58c0,.16-.07.31.13.31s.17.05.15-.12-.05-.16-.06-.24a2.54,2.54,0,0,1,0-.39c0-.19,0-.15-.19-.14m.9,0a1.62,1.62,0,0,0,0,.58c0,.16-.07.31.13.31s.17.05.15-.12-.05-.16-.06-.24,0-.26,0-.39,0-.15-.19-.14m.9,0a1.62,1.62,0,0,0,0,.58c.05.16-.07.31.13.31s.17.05.15-.12-.05-.16-.06-.24,0-.26,0-.39,0-.15-.19-.14m.9,0a1.62,1.62,0,0,0,0,.58c0,.16-.07.31.13.31s.17.05.15-.12-.05-.16-.06-.24,0-.26,0-.39,0-.15-.19-.14m.9,0a1.62,1.62,0,0,0,0,.58c.05.16-.07.31.13.31s.17.05.15-.12,0-.16-.06-.24,0-.26,0-.39,0-.15-.19-.14m.91,0a1.26,1.26,0,0,0,0,.58c0,.16-.08.31.12.31s.17.05.15-.12-.05-.16-.06-.24,0-.26,0-.39,0-.15-.18-.14m.9,0a1.26,1.26,0,0,0,0,.58c0,.16-.08.31.13.31s.16.05.14-.12-.05-.16-.05-.24a2.55,2.55,0,0,1,0-.39c0-.19,0-.15-.18-.14m.9,0a1.42,1.42,0,0,0,0,.58c0,.16-.07.31.13.31s.16.05.15-.12-.05-.16-.06-.24a2.54,2.54,0,0,1,0-.39c0-.19,0-.15-.19-.14m.9,0a1.42,1.42,0,0,0,0,.58c0,.16-.07.31.13.31s.17.05.15-.12-.05-.16-.06-.24a2.54,2.54,0,0,1,0-.39c0-.19,0-.15-.19-.14m.9,0a1.42,1.42,0,0,0,0,.58c0,.16-.07.31.13.31s.17.05.15-.12-.05-.16-.06-.24a2.54,2.54,0,0,1,0-.39c0-.19,0-.15-.19-.14m.9,0a1.62,1.62,0,0,0,0,.58c0,.16-.07.31.13.31s.17.05.15-.12-.05-.16-.06-.24a2.54,2.54,0,0,1,0-.39c0-.19,0-.15-.19-.14m.9,0a1.62,1.62,0,0,0,0,.58c0,.16-.07.31.13.31s.17.05.15-.12,0-.16-.06-.24,0-.26,0-.39,0-.15-.19-.14m.9,0a1.62,1.62,0,0,0,0,.58c.05.16-.07.31.13.31s.17.05.15-.12-.05-.16-.06-.24,0-.26,0-.39,0-.15-.19-.14m.9,0a1.62,1.62,0,0,0,0,.58c.05.16-.07.31.13.31s.17.05.15-.12-.05-.16-.06-.24,0-.26,0-.39,0-.15-.19-.14m.9,0a1.62,1.62,0,0,0,0,.58c.05.16-.07.31.13.31s.17.05.15-.12-.05-.16-.06-.24,0-.26,0-.39,0-.15-.19-.14m.91,0a1.26,1.26,0,0,0,0,.58c0,.16-.08.31.12.31s.17.05.15-.12-.05-.16-.06-.24,0-.26,0-.39,0-.15-.18-.14m.9,0a1.26,1.26,0,0,0,0,.58c0,.16-.08.31.12.31s.17.05.15-.12,0-.16-.06-.24,0-.26,0-.39,0-.15-.18-.14m.9,0a1.26,1.26,0,0,0,0,.58c0,.16-.08.31.13.31s.16.05.14-.12-.05-.16-.05-.24a2.54,2.54,0,0,1,0-.39c0-.19,0-.15-.19-.14m.9,0a1.42,1.42,0,0,0,0,.58c0,.16-.07.31.13.31s.16.05.15-.12a2.1,2.1,0,0,1-.06-.24,2.54,2.54,0,0,1,0-.39c0-.19,0-.15-.19-.14m.9,0a1.42,1.42,0,0,0,0,.58c0,.16-.07.31.13.31s.17.05.15-.12-.05-.16-.06-.24a2.54,2.54,0,0,1,0-.39c0-.19,0-.15-.19-.14m.9,0a1.42,1.42,0,0,0,0,.58c0,.16-.07.31.13.31s.17.05.15-.12-.05-.16-.06-.24a2.54,2.54,0,0,1,0-.39c0-.19,0-.15-.19-.14m.9,0a1.62,1.62,0,0,0,0,.58c0,.16-.07.31.13.31s.17.05.15-.12-.05-.16-.06-.24a2.54,2.54,0,0,1,0-.39c0-.19,0-.15-.19-.14m.9,0a1.62,1.62,0,0,0,0,.58c0,.16-.07.31.13.31s.17.05.15-.12-.05-.16-.06-.24,0-.26,0-.39,0-.15-.19-.14m.9,0a1.62,1.62,0,0,0,0,.58c.05.16-.07.31.13.31s.17.05.15-.12,0-.16-.06-.24,0-.26,0-.39,0-.15-.19-.14m.9,0a1.62,1.62,0,0,0,0,.58c.05.16-.07.31.13.31s.17.05.15-.12-.05-.16-.06-.24,0-.26,0-.39,0-.15-.19-.14m.9,0a1.62,1.62,0,0,0,0,.58c0,.16-.07.31.13.31s.17.05.15-.12-.05-.16-.06-.24,0-.26,0-.39,0-.15-.19-.14m.91,0a1.26,1.26,0,0,0,0,.58c0,.16-.08.31.12.31s.17.05.15-.12-.05-.16-.06-.24,0-.26,0-.39,0-.15-.18-.14m.9,0a1.26,1.26,0,0,0,0,.58c0,.16-.08.31.13.31s.16.05.14-.12-.05-.16-.05-.24a2.54,2.54,0,0,1,0-.39c0-.19,0-.15-.19-.14m.9,0a1.26,1.26,0,0,0,0,.58c0,.16-.08.31.13.31s.16.05.14-.12,0-.16,0-.24a2.54,2.54,0,0,1,0-.39c0-.19,0-.15-.19-.14m.9,0a1.42,1.42,0,0,0,0,.58c0,.16-.07.31.13.31s.17.05.15-.12-.05-.16-.06-.24a2.54,2.54,0,0,1,0-.39c0-.19,0-.15-.19-.14m.9,0a1.42,1.42,0,0,0,0,.58c0,.16-.07.31.13.31s.17.05.15-.12,0-.16-.06-.24a2.54,2.54,0,0,1,0-.39c0-.19,0-.15-.19-.14m.9,0a1.62,1.62,0,0,0,0,.58c0,.16-.07.31.13.31s.17.05.15-.12-.05-.16-.06-.24a2.54,2.54,0,0,1,0-.39c0-.19,0-.15-.19-.14m.9,0a1.62,1.62,0,0,0,0,.58c0,.16-.07.31.13.31s.17.05.15-.12-.05-.16-.06-.24a2.54,2.54,0,0,1,0-.39c0-.19,0-.15-.19-.14m.9,0a1.62,1.62,0,0,0,0,.58c0,.16-.07.31.13.31s.17.05.15-.12-.05-.16-.06-.24,0-.26,0-.39,0-.15-.19-.14m.9,0a1.62,1.62,0,0,0,0,.58c.05.16-.07.31.13.31s.17.05.15-.12-.05-.16-.06-.24,0-.26,0-.39,0-.15-.19-.14m.9,0a1.62,1.62,0,0,0,0,.58c.05.16-.07.31.13.31s.17.05.15-.12,0-.16-.06-.24,0-.26,0-.39,0-.15-.19-.14m.9,0a1.62,1.62,0,0,0,0,.58c.05.16-.07.31.13.31s.17.05.15-.12-.05-.16-.06-.24,0-.26,0-.39,0-.15-.19-.14m.91,0a1.26,1.26,0,0,0,0,.58c0,.16-.08.31.12.31s.17.05.15-.12-.05-.16-.06-.24,0-.26,0-.39,0-.15-.18-.14m.9,0a1.26,1.26,0,0,0,0,.58c0,.16-.08.31.13.31s.16.05.14-.12-.05-.16-.05-.24a2.54,2.54,0,0,1,0-.39c0-.19,0-.15-.19-.14m.9,0a1.42,1.42,0,0,0,0,.58c0,.16-.07.31.13.31s.16.05.15-.12-.05-.16-.06-.24a2.54,2.54,0,0,1,0-.39c0-.19,0-.15-.19-.14m.9,0a1.42,1.42,0,0,0,0,.58c0,.16-.07.31.13.31s.17.05.15-.12,0-.16-.06-.24a2.54,2.54,0,0,1,0-.39c0-.19,0-.15-.19-.14m.9,0a1.42,1.42,0,0,0,0,.58c0,.16-.07.31.13.31s.17.05.15-.12-.05-.16-.06-.24a2.54,2.54,0,0,1,0-.39c0-.19,0-.15-.19-.14m.9,0a1.62,1.62,0,0,0,0,.58c0,.16-.07.31.13.31s.17.05.15-.12-.05-.16-.06-.24a2.54,2.54,0,0,1,0-.39c0-.19,0-.15-.19-.14m.9,0a1.62,1.62,0,0,0,0,.58c0,.16-.07.31.13.31s.17.05.15-.12-.05-.16-.06-.24,0-.26,0-.39,0-.15-.19-.14m.9,0a1.62,1.62,0,0,0,0,.58c0,.16-.07.31.13.31s.17.05.15-.12-.05-.16-.06-.24,0-.26,0-.39,0-.15-.19-.14m.9,0a1.62,1.62,0,0,0,0,.58c.05.16-.07.31.13.31s.17.05.15-.12,0-.16-.06-.24,0-.26,0-.39,0-.15-.19-.14m.9,0a1.62,1.62,0,0,0,0,.58c.05.16-.07.31.13.31s.17.05.15-.12-.05-.16-.06-.24,0-.26,0-.39,0-.15-.19-.14m.9,0a1.62,1.62,0,0,0,0,.58c.05.16-.07.31.13.31s.17.05.15-.12-.05-.16-.06-.24,0-.26,0-.39,0-.15-.19-.14m.91,0a1.26,1.26,0,0,0,0,.58c0,.16-.08.31.12.31s.17.05.15-.12-.05-.16-.06-.24,0-.26,0-.39,0-.15-.18-.14m.9,0a1.26,1.26,0,0,0,0,.58c0,.16-.08.31.13.31s.16.05.14-.12-.05-.16-.05-.24a2.54,2.54,0,0,1,0-.39c0-.19,0-.15-.19-.14m.9,0a1.42,1.42,0,0,0,0,.58c0,.16-.07.31.13.31s.16.05.15-.12-.05-.16-.06-.24a2.54,2.54,0,0,1,0-.39c0-.19,0-.15-.19-.14m.9,0a1.42,1.42,0,0,0,0,.58c0,.16-.07.31.13.31s.17.05.15-.12-.05-.16-.06-.24a2.54,2.54,0,0,1,0-.39c0-.19,0-.15-.19-.14m.9,0a1.42,1.42,0,0,0,0,.58c0,.16-.07.31.13.31s.17.05.15-.12,0-.16-.06-.24a2.54,2.54,0,0,1,0-.39c0-.19,0-.15-.19-.14m.9,0a1.62,1.62,0,0,0,0,.58c0,.16-.07.31.13.31s.17.05.15-.12-.05-.16-.06-.24a2.54,2.54,0,0,1,0-.39c0-.19,0-.15-.19-.14m.9,0a1.62,1.62,0,0,0,0,.58c0,.16-.07.31.13.31s.17.05.15-.12-.05-.16-.06-.24,0-.26,0-.39,0-.15-.19-.14m.9,0a1.62,1.62,0,0,0,0,.58c.05.16-.07.31.13.31s.17.05.15-.12-.05-.16-.06-.24,0-.26,0-.39,0-.15-.19-.14m.9,0a1.62,1.62,0,0,0,0,.58c0,.16-.07.31.13.31s.17.05.15-.12-.05-.16-.06-.24,0-.26,0-.39,0-.15-.19-.14m.9,0a1.62,1.62,0,0,0,0,.58c.05.16-.07.31.13.31s.17.05.15-.12,0-.16-.06-.24,0-.26,0-.39,0-.15-.19-.14m.91,0a1.26,1.26,0,0,0,0,.58c0,.16-.08.31.12.31s.17.05.15-.12-.05-.16-.06-.24,0-.26,0-.39,0-.15-.18-.14m.9,0a1.26,1.26,0,0,0,0,.58c0,.16-.08.31.12.31s.17.05.15-.12-.05-.16-.06-.24,0-.26,0-.39,0-.15-.18-.14m.9,0a1.42,1.42,0,0,0,0,.58c0,.16-.07.31.13.31s.16.05.15-.12a2.1,2.1,0,0,1-.06-.24,2.54,2.54,0,0,1,0-.39c0-.19,0-.15-.19-.14m.9,0a1.42,1.42,0,0,0,0,.58c0,.16-.07.31.13.31s.16.05.15-.12a2.1,2.1,0,0,1-.06-.24,2.54,2.54,0,0,1,0-.39c0-.19,0-.15-.19-.14m.9,0a1.42,1.42,0,0,0,0,.58c0,.16-.07.31.13.31s.17.05.15-.12-.05-.16-.06-.24a2.54,2.54,0,0,1,0-.39c0-.19,0-.15-.19-.14m.9,0a1.42,1.42,0,0,0,0,.58c0,.16-.07.31.13.31s.17.05.15-.12-.05-.16-.06-.24a2.54,2.54,0,0,1,0-.39c0-.19,0-.15-.19-.14m.9,0a1.62,1.62,0,0,0,0,.58c0,.16-.07.31.13.31s.17.05.15-.12,0-.16-.06-.24a2.54,2.54,0,0,1,0-.39c0-.19,0-.15-.19-.14M.54,2.08h0c.16,0,.17.05.15-.12a1.52,1.52,0,0,0-.06-.2,2.88,2.88,0,0,1-.13.31M406.79,1.2a1.62,1.62,0,0,0,0,.58c0,.16-.07.31.13.31s.17.05.15-.12-.05-.16-.06-.24a2.72,2.72,0,0,1,0-.28c0-.09,0-.18-.05-.26h-.14"/></g></g></svg>