<svg xmlns="http://www.w3.org/2000/svg" viewBox="0 0 8.26 41.79"><defs><style>.cls-1{fill:#7c6742;fill-rule:evenodd;}</style></defs><title>Asset 13</title><g id="Layer_2" data-name="Layer 2"><g id="Layer_1-2" data-name="Layer 1"><path class="cls-1" d="M2.92,34.07a.17.17,0,0,0,.1,0,.14.14,0,0,1-.16.17c0-.13.11-.07.06-.2m.12.49c0,.24,0,.31,0,.52H3c0-.25-.1-.31-.12-.49a.3.3,0,0,1,.2,0M5.49,16.11v.16H5.33v-.16h.17M6.57,6.23a.13.13,0,0,1,0,.06h-.1V6.23h.09m-.32-.78s0,.07,0,.1h-.1v-.1h.09m-3.66.38c0,.08,0,.15,0,.23-.16.07-.14-.27,0-.23m1.08,4.92c0,.07,0,.13,0,.2s-.21,0-.21-.19h.2m1.94-3.9h-.1c0-.06-.1-.35.06-.33s0,.22,0,.33m0,1.28c.09,0,.1.07.11.16s-.11-.07-.2-.06l.09-.1m.07-3.88h.17c.06.16-.11.09-.1.2s-.06-.09-.07-.2M5,4.18c.23,0,.25.27.31.48a3,3,0,0,1,.43,1.07c-.12.18,0,.31,0,.49s-.26,0-.23.11c-.15.06,0-.13-.17-.1,0-.38,0-.78-.26-.94,0-.08,0-.26-.07-.23.1-.19-.11-.53-.06-.88m-.13,1h-.1V5.07c.1,0,.1,0,.1.13M4.15,8.37c0,.17-.16.15-.19.27s0-.13-.07-.19.1-.12.26-.08m-.77-.46s0,0,0,.1H3.29s0-.07,0-.1h.1m1.45,2.31c0-.13-.14-.13-.14-.29s.11.15.3.09v.19H4.83m.55-.34c-.07,0-.06-.05-.07-.1h.1a.18.18,0,0,0,0,.11M4.53,9c-.09.09-.2.15-.22.3-.39.15-.7-.09-1.18,0-.22-.17,0-.35.08-.49A4.42,4.42,0,0,0,4,8.74c.12.12.39.1.62.11s.07-.09.13-.1.48,0,.6.14.23,0,.26-.07a.42.42,0,0,1,.17.35c-.42.08-.65-.34-1.22-.22m1.6,2.87c-.07,0-.15,0-.16-.06s.19,0,.16.06m-1.44,6c0-.13.09-.28.22-.34.32.07,0,.6-.22.34m.25-1.52c-.09,0-.19,0-.23,0a.28.28,0,0,1,0-.19c.15,0,.21.07.21.22m-.18-1.47h.09a.28.28,0,0,1,0,.09h-.1v-.1m.37,2.38c0,.1-.11.05-.06.17a.17.17,0,0,0-.1,0c0-.16.08-.14.06-.27,0,.06.1,0,.1.13m.24-2.63h-.1c-.07-.13,0-.31.16-.3.05.17-.06.18-.06.3m.2-2.83c.11,0,.17,0,.2.06s-.09.13-.22.11,0-.09,0-.17m-.31.41s0,.06,0,.06l0,0h0s.05,0,.1,0,0,0,0,.1H5.3v0H5.17c0-.08,0-.17.09-.16m-.7-.28H4.27c0-.05.29-.22.29,0m-.21,1.59c-.1,0-.37.15-.46,0-.08,0-.13.12-.19,0-.07.16-.42.05-.52.18,0-.18-.26-.09-.24-.29.46,0,.91,0,1.37,0s1.14-.14,1.48.08a.57.57,0,0,1,0,.13c-.41-.11-1.06,0-1.45-.11m.42,6.67h-.1c0-.24,0-.48.14-.53.13.19,0,.36,0,.52m.65,0v.1c-.09.05-.1-.14,0-.1m-.08.66c-.12,0,0-.19-.16-.16a.61.61,0,0,1,.25-.14c0,.16-.1.16-.09.3m.19,5.74v.06H5.47v-.07h.06m-.1-1c0,.11,0-.08,0-.13s0,.09,0,.13m.1-2.06v.09H5.44a.38.38,0,0,1,0-.1h.1m-.07.72a2.71,2.71,0,0,0,0,.29c-.13,0-.09-.14-.17-.15s0-.15.16-.14m-.54-1.46c0,.18,0,.45.14.55s-.16,0-.12.11c-.31,0-.12-.45-.28-.55.07,0,.11-.13.26-.11M4.53,25.1c.1,0,0,.11.17,0l.09-.1c0-.09-.06-.06-.1-.09,0-.21,0-.33,0-.53s-.13,0-.1-.13.12-.2.18-.3.11.14.21.16c-.07.26.19.45,0,.62,0,.08.06,0,.06.1s0,.26,0,.46a.41.41,0,0,1-.57-.24m.12.58a.8.8,0,0,1,.46,0c.17.29-.19.29-.45.27,0-.1,0-.14,0-.26m.93,2.43A.77.77,0,0,0,5.22,28c0-.16-.1-.16-.14-.25s0,.1-.13.06,0-.14-.13-.09c0-.5-.27-.61-.14-1.05a1,1,0,0,0,.4,0l0,0s0-.06-.35-.15a.81.81,0,0,1,0-.16h.46c0,.12-.11.13-.09.26l0,0s0,.06.15.09c0,.34.06.56.35.57,0,.07,0,.24.07.2s-.11,0-.06.13c.2.18.4-.2.69-.05a.43.43,0,0,1-.09.36c-.09-.15-.13.05-.3,0a.61.61,0,0,1-.32.24M7.05,29.9H7v-.16c.09,0,.1.08.1.16m.1,1c.13,0,.14.17.14.33a2.36,2.36,0,0,1-.39,0c.08-.11.2-.17.25-.31M3.92,33.35c0-.05,0-.06,0-.1s.23-.17.29-.3c.11.06.15.17.33.09,0,.33-.27.32-.58.31M4.53,37c0-.18.1-.24,0-.46.22,0,.23.19.24.39-.11,0-.21.16-.29.07m.29.78c0-.3-.11-.49-.09-.65.08,0,.07-.06.16,0,.07.24,0,.47.12.68H4.82m.58-.21v.09H5.3v-.1h.1m-.1-1.08v-.07h.06v.06H5.3m.78-3.21c0,.25-.3.14-.45.18a2,2,0,0,0-.87.49l0,0-.06,0v0a.15.15,0,0,0,0,.13H4.53V34a.47.47,0,0,0,.16,0V34l.05,0h0l0,0c-.15-.19.18-.37.14-.6.42,0,.42-.31.78-.32.13.09.31.12.4.25m-.35-1.63H5.6c0-.08,0-.17.09-.16s.07.06,0,.16m-.09.23v0h.05l0,0c.08,0,.16,0,.13.1s-.12,0-.13,0v0h0l0,0h-.1v-.07h.1M4.89,31C5,31,5,31,5,31.05s.43-.05.59-.12c.21.27.81-.07,1.06.17-.2.22-.63.06-1,.16-.12,0-.1-.13-.2-.13s-.07.12-.13.14-.4-.06-.53-.15.1,0,.06-.13M5,32.26c0,.16.23.09.24.26-.13-.15-.49,0-.6-.21s.27,0,.36-.05m-1-2.16H3.91c0-.1.21-.17.16,0m-.88,1c.11,0,.56-.19.69,0,.33.05.45-.17.72-.09v.1c0,.12-.14.1-.26.1s-.21.14-.2,0c0,.08-.14.07-.26.07a2.52,2.52,0,0,0-.82-.13c-.05-.07.08,0,.13,0M1.92,30.5c.21,0,.39,0,.43.15-.14.07-.47.08-.43-.15m.38.66,0,0c-.2,0-.39.11-.49-.05-.11.13-.39.13-.4-.08.21.11.63,0,.89.06l0,0,0,0A2.37,2.37,0,0,1,2.82,31c0,.28-.37.23-.48.12Zm-.48,7.17c.07-.12.12-.24.18-.36.14,0,.17,0,.3,0s.06.16.13.19,0-.11,0-.13a2.23,2.23,0,0,0,.24-.63c-.21-.25,0-.75-.1-1,.17-.36-.14-.73-.07-1.21-.1-.06-.12-.21-.21-.29.2-.23.15-.86-.13-1-.12,0-.12.12-.29.08s-.13-.18-.27-.19c-.16-.4.09-.65.23-.86.33.06.3,0,.59,0,0-.32-.27-.43-.32-.74a1.68,1.68,0,0,0-1.16-.62A.83.83,0,0,0,.2,31a.55.55,0,0,1-.12-.69c.22-.07.46-.13.47-.41.19-.05.37-.1.39-.31.37,0,.48-.2.68-.35a.17.17,0,0,1,.2.19c-.35-.14-.29.55-.6.65,0,.12.16,0,.1.16a.35.35,0,0,0,.29-.08c0,.12.15,0,.17.1a2.73,2.73,0,0,1,.72-.06s.11,0,.13.09.41-.06.59-.12v-.29c.12,0,.1-.09.19-.11s.42.16.67.11c.09,0,0-.2,0-.19s.16.1.27.12-.09.12-.09.23.15.07.11.23a.61.61,0,0,0,.45-.12c.22,0,.27.22.53.18a1.34,1.34,0,0,1,0,.36c.14-.1.1-.37.21-.49a1.08,1.08,0,0,1,.73.17,1.14,1.14,0,0,1,.55-.22c0-.13-.05-.18-.2-.15,0-.16,0-.35-.18-.39s.11.18,0,.36c-.21,0-.22-.13-.27-.26a.82.82,0,0,0-.35.28c-.11,0,0-.11-.14-.06,0-.11,0-.13.06-.17s-.27,0-.39-.05a.54.54,0,0,1-.11-.23,1.19,1.19,0,0,1-.1-.16c0-.09,0-.12-.1-.09l0-.05-.06,0s0-.09,0-.13-.11.17-.22.2,0-.3,0-.36c-.2-.11-.17.28-.28.37l0-.05-.06,0a4.54,4.54,0,0,1-.21-.45c-.45,0-.51-.45-1-.27,0-.12-.1-.11-.13-.19a.86.86,0,0,1-.33.11l0,0-.06,0a.8.8,0,0,1,.93-.82c.17.34-.3.38-.14.7a1.49,1.49,0,0,0,1-.2.35.35,0,0,0-.08-.29c.25-.22.09-.47,0-.79-.12-.08-.2-.21-.37-.25,0-.09,0-.17.1-.14.13-.41,0-.93.12-1.28,0-.13-.11-.06-.07-.2a3.76,3.76,0,0,0,0-1.6c-.17.05,0,.28,0,.39H4a3.72,3.72,0,0,1-.13-1,3.82,3.82,0,0,0-.82,0c-.07.06-.06.19-.06.33a.25.25,0,0,0,.2.06c0,.29.14.91-.16,1,0,.12.08.11.13.16s-.07.06-.12.07-.11.2-.06.4.13.13.21.19c.09.34-.19.56,0,.78-.12,0,0,.22-.09.3H3l0,.05H2.9v.07s.06,0,.06,0l0,0h.05c.08.08,0,.29,0,.43-.23.2-.33.53-.6.7,0,.1,0,.2,0,.3-.18.18-.33,0-.5-.08s-.05.14-.12.17-.25,0-.33,0,0,0-.06,0c-.09.25-.34.34-.44.57H.71a1.38,1.38,0,0,1-.23-.84.86.86,0,0,0,.29-.31,1.75,1.75,0,0,1,.46,0c.15.22.54,0,.65-.12s.15,0,.26,0,.13.06.17.13c.35-.17.26-.6.29-1,0-.07,0,0,.07-.1.06-.31,0-.7,0-1.05,0-.07,0,0,.07-.1.12-.6-.24-1.39,0-1.9,0,0,0-.07,0-.1a.44.44,0,0,0-.27-.25c0-.2-.14-.24-.15-.43-.19-.06-.28-.23-.4-.38s.1-.45.1-.72c.11,0,0,.1.14.06l0,.06,0,0c0,.11,0,.22,0,.32.16,0,.27.13.44.16.36-.16,1.14.1,1.57-.12.12,0,.18.09.36,0a1,1,0,0,1-.11-.39c-.19,0-.33,0-.4-.12.27-.15.78-.09.89.14-.16.06-.09.4,0,.46H5l0,0c0,.08-.18.08-.29.11s-.23.27-.28.47a.9.9,0,0,1,.46.08c.1-.26.61.06.68-.19-.13,0-.16-.16-.2-.29,0,.08-.08.19-.12.27a.15.15,0,0,1-.14-.13c.12-.06.07-.34-.08-.32l0-.05-.05,0c.07,0,.07-.12.16-.13s.3.05.52,0c.11.16.43.25.57.08s-.09-.28-.12-.45-.26.07-.36,0,.09-.15.06-.3A2.06,2.06,0,0,1,5,21a2.7,2.7,0,0,0-.11-.43c-.12,0-.13.12-.3.08s-.25-.1-.33-.19.21-1.15-.11-1.4c.09-.36.07-.82.16-1.19,0-.09-.09-.11-.11-.19s0-.15.06-.23,0-.21-.07-.23c.15-.07,0-.37,0-.46a5.15,5.15,0,0,0,0-1.71,2,2,0,0,0,.08-.66.6.6,0,0,0-.37-.11c.05.11-.09.17-.12.29s.09.32,0,.4l0,0-.06,0c0-.15-.2,0-.2-.09a.66.66,0,0,1,.15-.37c-.17-.1-.08-.5-.37-.48a4.19,4.19,0,0,1-.08.56.31.31,0,0,0,0,.13c0,.47.08,1,0,1.48,0,0-.06,0-.07.1,0,.22,0,.44,0,.66.17.19,0,.56,0,.88,0,.73.12,1.72.08,2.36,0,0-.06.05-.06.1s0,.36,0,.53c.58.07.29-.75.32-1.26,0-.08.23,0,.2-.11s0-.11,0-.19-.14-.08-.2-.13,0-.12,0-.26.17-.08.19-.17C3.22,18,3.48,17,3.45,16.14A.37.37,0,0,0,3.61,16v-.2c-.11,0-.26-.18-.18-.32l0,0,0,0h.06c0-.11,0-.07,0-.17h0v0c.06,0,.06-.13,0-.23h.06l0,0c.06,0,.06,0,.07.07a9.55,9.55,0,0,1,.06,1,1,1,0,0,1-.12.23c0,.24.1.45,0,.66l-.05,0V17h-.1v.09c.07,0,.1,0,.1-.06h.06l0-.05c.17,0,0,.47,0,.52a4.51,4.51,0,0,0,0,.63s.06,0,.07.09a3,3,0,0,1,0,.79s-.06,0-.07.1c-.08.51.12,1.05,0,1.41a.43.43,0,0,0,.64.28c.05.08.39,0,.23.25a2,2,0,0,0-1.14,0c-.06-.12-.33-.06-.4,0s-.33-.06-.32.08.33,0,.49,0,.06.27,0,.3c-.13-.15-.56,0-.66-.14,0,.12-.17.07-.2.17,0-.11-.1,0-.13-.1v-.06l0,0a2.46,2.46,0,0,0,.19-.4h.16c.19-.27.07-.87.09-1.31,0,0,.16-.33,0-.4,0-.14-.06-.35.05-.39l0-1c.08,0,0-.15.09-.1,0-.25,0-.61-.09-.75s0-.13.06-.17c0-.23-.09-.59.08-.69a5.19,5.19,0,0,1-.14-1.31c0-.44.05-.82-.3-.91a2.4,2.4,0,0,1-.13-.94h.07l0-.05c.11,0,.14.15.27.19A3.59,3.59,0,0,0,3.25,13a3.06,3.06,0,0,0,.92,0,.16.16,0,0,0,.06-.17.69.69,0,0,1-.36-.09c-.11.13-.2-.07-.33.08-.21-.3-.65-.27-1.12-.23,0,.11,0,.17-.06.2h0l-.05,0c-.14,0-.16-.2-.3-.22,0-.38-.3-.36-.32-.68l0,0,0-.05c.16.13.51.07.79.07-.15-.5.46-.29.64-.48,0,.14.36,0,.53.05s.11.08.17.09a1.48,1.48,0,0,0,.72-.09c.14.15.34,0,.59.05.24-.2.57,0,.88,0,0-.2.25-.15.32-.27-.19-.07-.4-.12-.59-.18s.07-.14,0-.26c-.19,0-.15.29-.38.3v-.26a1.67,1.67,0,0,0-.46,0h0l0,.05c-.23,0-.35,0-.4-.19a.53.53,0,0,1,.09-.29c-.19-.06,0-.37-.18-.39s0,.2-.06.2H4.24a1.23,1.23,0,0,0-.15-.49c-.2,0-.44-.2-.55,0l0,0,0,.06c-.21.11-.2.62,0,.79.19-.05.26,0,.36.09v.06l.05,0c0,.09.1.09.13.16v0L4,11a2.86,2.86,0,0,1-.85.06,2.25,2.25,0,0,1-1.38,0V11c.06-.15.21-.2.21-.4.16,0,.22-.12.33-.14s.3,0,.42,0,.51-.42.28-.67a3.17,3.17,0,0,1-.41-.41c0-.08,0-.15,0-.23a1.65,1.65,0,0,0,.22-.24c0-.33-.28-.35-.5-.44S2.18,8.1,2,8c-.13-.45-.32-1.47.1-1.75,0-.33,0-.7.27-.79,0-.36.18-.56.2-.9.19-.17.43-.3.48-.6.12,0,0-.15.19-.11s.06.3.27.26c-.09.21-.33.28-.27.63-.12,0,0,.13-.17.1s.12.06.08.2-.12.44-.28.56c-.06.34,0,.79-.23,1,0,0,.06,0,.07.07l-.05,0,0,.06c-.11.07,0,.17,0,.23a.83.83,0,0,0,.06.81H3a1.39,1.39,0,0,0,.2-.86c.23,0,.22.17.4.18a4.7,4.7,0,0,0,0,.85c0,.08.15,0,.1.1.17-.18.54-.18.75-.32A5.2,5.2,0,0,1,4.6,7c-.19-.22,0-.82-.2-1.07a1.36,1.36,0,0,0,0-1c.14-.18.07-.55.07-.86a.81.81,0,0,1-.6-.24c.06-.44.31-1,.05-1.38C3.88,2,4,1.7,4,1.22A.34.34,0,0,1,3.94.83C4,.74,4,.48,4,.3c0,0,.05,0,.06,0S4.24.08,4.3,0A2.63,2.63,0,0,1,5,.18c.06.17.1.36.24.45.07.31-.11.39-.08.66l-.06,0,0,.05c0-.07-.15-.05-.14-.16s.16-.42,0-.49c0,.07,0,.06-.09.07S4.7.93,4.7,1a.91.91,0,0,0,.24.48c0-.09.07-.06.1-.1l0,.05.06,0c0,.17.05.41,0,.53L5.06,2,5,2c-.11,0-.1-.15-.11-.26-.15.12,0,.36,0,.54v0s0,0,.06,0l0,0,.06,0c0,.29.14.63,0,.76l0,0L5,3c0-.14,0-.36-.11-.36,0,.13,0,.26,0,.39H5l0,.05.06,0c.11.17.1.46.22.62a2.06,2.06,0,0,1,.56,0c0,.25.3.24.31.51.19.17.23.49.41.65,0,.33.18.47.16.81.18.18.15.57.29.78A3.63,3.63,0,0,1,7,8c-.09.08-.22.13-.22.3-.11,0-.21.06-.19.21A1.91,1.91,0,0,0,6,8.77c0,.21-.09.41.08.46A.47.47,0,0,0,6,9.56c-.4,0-.23.56-.29.9.13-.09.28-.09.33.08v.05l0,.05H6c0,.1-.12.08-.09.2s.55.14.49-.15l.06,0,0-.05c.34.11.78.11,1.16.26a.77.77,0,0,1,0,.75c-.19,0-.29.15-.45.21,0-.07,0-.1-.1-.09.37-.34.13-.84-.51-.64.06.29.36.34.51.54,0,.08-.17.16,0,.23a.52.52,0,0,1-.35.27.52.52,0,0,1-.35.34,4.19,4.19,0,0,0-.31.5.9.9,0,0,1-.14.86c-.06,0-.16,0-.13-.06a5,5,0,0,0-.2,1.09c-.16,0-.13-.13-.26-.12s-.18.12-.29.17.11.13.17.19c-.07.26.06.43,0,.72.42.21.19-.47.37-.6.21.09.07.57.13.82a.47.47,0,0,0-.1.1l0,.52c.08.09.16.52,0,.56s0-.6-.22-.68c-.24.08.1.51-.14.6,0,.13.06.14.07.22a2.13,2.13,0,0,0,0,1.12c-.21,0,0,0,0,.1a.29.29,0,0,0-.32.11c-.18-.08-.11-.41-.18-.59s0,.12-.17.1a2.8,2.8,0,0,0,.1,1.08c.1-.22.27-.55.52-.28a2.49,2.49,0,0,0-.1.83.25.25,0,0,0,.16.12c.14,0,.15-.16.19-.27.3.08-.05.44.15.59l0,.36c.09.06.28,0,.42,0a.67.67,0,0,1,.12.46s.11.07.1.19c.16,0,.21.12.3.19a1,1,0,0,1-.11.59c0,.06-.15.07-.19.14s0,.21-.09.3-.17.07-.16.17-.18,0-.36,0,0,.21-.12.23.09.06.07.16c-.17.44.06,1.07-.12,1.52a4.73,4.73,0,0,1,.11,1.24c-.11-.06-.26-.09-.27-.25-.05,0,0,.11-.1.13s.23,0,.18.22c.13,0,.06-.11.19-.07,0,.48,0,1.09.4,1.27a2.46,2.46,0,0,1,.72,0,1,1,0,0,1,0,.76,1.48,1.48,0,0,0-.39.31H6c-.08.09-.12.21-.23.27.12.19.37.22.41.48a1.43,1.43,0,0,0,.24.16c0,.14,0,.18.07.26s0-.2.06-.2a1.07,1.07,0,0,1,.41.28c.16,0,.1-.12.22-.11s.13.17.3.09c.1.15.16.25.4.19,0,.54.46.72.34,1.27-.27.11-.58.17-.58.54-.06,0-.1,0-.09.07-.14,0,0-.19-.17-.16s0,.18,0,.26c-.23,0-.29.11-.38.21a.76.76,0,0,0-.33.11c-.08,0-.12-.09-.14-.19H6.16l-.3.7c0,.1.1,0,.16,0l0,0,.06,0c0,.07,0,.2-.06.17,0,0,.1.06.07.16.3.15.43.48.65.7,0,.11-.19.13-.12.33-.21.08-.33.25-.65.22a4.25,4.25,0,0,0-.31.6l0,0H5.6v-.09a1,1,0,0,1,0,.15l0,0c0,.2.09.53,0,.63s0-.15-.13-.1c0,0,.08-.09.06-.2-.13.1-.14.47-.11.6.1,0,0-.18.15-.21.2.14-.06.36,0,.6,0,0,0,.11-.09.13.17.2,0,.5-.11.63s.11-.05.19,0,0,.2,0,.3-.15-.13-.26-.06v.13c0,.07.16.06.27.06a1,1,0,0,0,.12.62L4.39,38,4,38v0l0,0c0-.07,0-.07.1-.07.21-.67-.18-1.36,0-2a2.26,2.26,0,0,0,0-.26c0-.08.14,0,.13-.14s-.21-.31-.31-.48a1.33,1.33,0,0,1,.14-.63c-.1-.17-.11-.45-.28-.55,0-.21-.1-.32-.3-.31,0-.09-.11-.07-.11-.16a1.15,1.15,0,0,1,.45-.48c0-.17,0-.34-.08-.42a.19.19,0,0,0,.06-.2h.06l0,0c.05.14.19.17.31.22s0,.24.1.23a1.18,1.18,0,0,0,0-.85c-.11.07-.1.26-.35.2,0,.06,0,.06,0,.1h0l-.05,0c-.1-.06-.13-.2-.21-.29a2.28,2.28,0,0,0-1.08-.06v.06h0v.05a.14.14,0,0,0-.13,0c0,.1,0,.2.1.19a.06.06,0,0,1,0-.07l0,0v-.05c.18.1.23.32.22.62H2.61c0,.12.16,0,.17.13a.65.65,0,0,1,.11.45c-.19.07-.3.21-.55.22,0,.2-.19.14-.19.3.21-.14.71-.26.79.07H2.65c0,.08-.06.07,0,.17l-.05,0,0,0h0v.07s0,0,.06,0l0,0,0,0a1,1,0,0,0,.46-.11c.06.12.27.22.39.08,0,.07.09.24,0,.3s0-.13-.16-.1,0,.15,0,.26h.26c0,.16.06.22,0,.39-.15,0-.17.09-.19.2.18,0,.09-.19.26-.17a5.14,5.14,0,0,1-.06,1.18h0l0,0c-.07-.11,0-.37-.17-.39s-.13.24-.32.24c-.09.3.06.63,0,.92,0,0-.05,0-.06.1a2.6,2.6,0,0,1,0,.56.51.51,0,0,0,0,.39s.13.07.11.16.19,0,.29,0,.13-.2.26-.24.13.2.2.29l0,0V38c-.26.05-.74-.09-.74.2Zm4.09,3.1v.16c-.15.08-.16-.23,0-.16m-.66-1.08v.27c-.25,0-.37-.11-.57-.14.12-.31.49.08.57-.13m-1.36.1c0,.2-.25.07-.36.12-.08-.3.27-.22.36-.12M6.5,37.73a.45.45,0,0,0,.13.17L6.55,38l0,.09A7.88,7.88,0,0,1,3.91,38l0-.08,0-.07c0-.12.07-.11.15-.11Zm-.31,4.06h-2a.76.76,0,0,0,0-.15c-.21,0-.25.08-.33.15H3.59c-.1-.15.1-.38,0-.49-.2.07-.24.31-.33.49H1.71a1.82,1.82,0,0,0-.21-.69,3.6,3.6,0,0,1-.33-.56,3.7,3.7,0,0,0-1-.7c0-.11,0-.16-.11-.15l0-.74a2.92,2.92,0,0,0,.59-1c.22,0,.27-.08.47-.06s.1.25.22.3,0-.17-.06-.2.11-.2.16-.3H2.79a1.43,1.43,0,0,0,.23,0l0,0h.62a.41.41,0,0,0,.07.11l-.07.06,0,.1c-.46.08-1.27-.18-1.19.4l-.08.07,0,.09C2,38.91,1,38.49.71,39c0,.22.2.21.27.36.72-.09,1.71.08,2.19-.23a1,1,0,0,1,.63.08c0-.21.34-.15.57-.17.18-.25.72-.19.94,0a.8.8,0,0,1,.57-.13c0-.16.09-.32.14-.47.3-.09.3.15.58.08,0-.12.09-.36,0-.47L6.66,38l0-.1a1.53,1.53,0,0,1,.58,0c.14.4-.4,1,.09,1.35.21,0,.08-.26.2-.32s.24.22.23.47c-.17,0-.22.1-.42.06a6.63,6.63,0,0,1,0,1.1c-.32.17-.31.65-.87.6a1.55,1.55,0,0,0-.23.59"/></g></g></svg>