<svg xmlns="http://www.w3.org/2000/svg" viewBox="0 0 27.06 26.93"><defs><style>.cls-1{fill:#7c6742;fill-rule:evenodd;}</style></defs><title>Asset 9</title><g id="Layer_2" data-name="Layer 2"><g id="Layer_1-2" data-name="Layer 1"><path class="cls-1" d="M9,13.75s0,0,0-.07.14.06.17.12-.06.06-.11.07-.1,0-.09-.12m1.4.59h.07v-.07h-.06v.06m2.23,2.09c0-.09-.08-.09-.06-.2s-.09-.13-.13-.19l-.13-.14s0-.08-.06-.13-.17-.16-.24-.24a.79.79,0,0,1-.17-.25.63.63,0,0,0-.23,0,.73.73,0,0,0,0,.36c.15,0,.14.2.24.28s-.08,0-.05.09,0,.3,0,.42h0l0,0c.16,0,.15-.13.27-.15s0-.23,0-.34H12a.66.66,0,0,0,0-.14c.1,0,.12.06.13.14a.43.43,0,0,1,.19.28c.13,0,.13.19.24.23l0,0Zm.08.28c.22,0,.17.17.31.21s-.06.14-.06.25.09.11.18.12,0,.41.19.48c0,.11,0,.16,0,.27h-.14a.4.4,0,0,0-.14-.35c0,.12-.07.1-.08.18-.22.05-.14-.18-.24-.26,0,.07-.1.08-.09.18-.17,0-.2.18-.41.14,0,.05,0,.05-.05.07S12,18,12,18l0,0V17.9s0,0,.07,0-.06,0-.09,0a.15.15,0,0,1,0,.07h0v0c-.25-.07-.36.14-.57.19s-.22-.08-.34,0c.07-.16.27-.18.31-.37h.34c.05,0,0,.1.08.09s-.12-.35,0-.47.21-.12.37-.12c0-.09.07-.05.05-.14-.21.09-.35,0-.59,0,0,.1-.17.06-.27.06s-.34.15-.44.3c-.07,0-.07,0-.14,0a.37.37,0,0,1-.32.17c0-.09.08-.09.08-.18a1.59,1.59,0,0,0,.6-.52c.08,0,.09,0,.16,0s.19-.15.21-.31c.12,0,.1-.08.19-.08l0,0h0c.06.14,0,.25-.12.33.33,0,.72-.09,1,0,0,0,0-.07,0-.13m-.09.6c.07,0,.09-.09.05-.13s0,.09-.05.13M13,16.24s.06,0,.06,0a.23.23,0,0,0,.08-.2s-.07,0-.07,0-.07.07-.12.09.08,0,0,.11m.4,0a.14.14,0,0,0,0,.14c.07,0,0-.08.09,0s-.07,0,0-.09h-.09m-.39.12c0-.08-.13-.17-.15-.05s.07.07.08.12,0-.05.07-.07m.13.14c.08,0,.08.15.18.17v-.05l0,0c0-.09,0-.13,0-.21s-.07,0-.07,0-.08.09-.12.13m.22.28c.07,0,.06-.13,0-.14l0,0,0,0a.11.11,0,0,0,0,.12M13,16.54c0,.29.16.36.25.53.09,0,.07-.12.07-.2s-.13-.3-.32-.33m-5.76.65c.09,0,0-.23,0-.27s-.06.06-.11.08a.54.54,0,0,0,.08.19m6.17.38c.06.16,0,.4.19.46.09-.31-.13-.49-.11-.8-.1,0-.11,0-.18,0a.42.42,0,0,0,0,.27s.06.06.06.07m-2.55,1.24c-.27-.13-.55.06-.73.17,0,0,.07,0,0,.1h.09c.08,0,0-.1.1-.09s0,0,.09,0-.11.07-.12.15.2.12.33.1.1-.05.16-.06.4.07.48,0,0,.08.13.06c.36-.16.63.12,1,0,0-.07.05,0,.09,0s.12-.13.19-.2-.19-.14-.26-.23-.34.06-.41-.06c.2-.07.72-.13.83.07a.3.3,0,0,0,.13-.24h.22c0-.11.08-.08,0-.2s-.18,0-.22.06a.24.24,0,0,0-.29-.08c.08-.16-.07-.27,0-.5-.16,0-.2.08-.29.13a.64.64,0,0,0,0,.2.64.64,0,0,0-.23.26c-.14,0-.32,0-.35.08a.36.36,0,0,0-.31.08c0,.09,0,.18.12.19a.15.15,0,0,1-.05.13.21.21,0,0,0-.22-.08c0-.08.08-.08.05-.2s-.28.06-.45.05c0,.08,0,.11,0,.18h.27a1.09,1.09,0,0,1-.5.1c.07-.07.21-.1.15-.25s-.1,0-.14.07m2.46-.59v.07h.07v-.07h-.07m.1.41c.08,0,0-.09,0-.13h-.09c0,.07,0,.12,0,.14m.11,1.86c0-.09,0-.21,0-.23s-.07,0-.06-.09c.16-.14,0-.37.09-.52,0-.08-.07-.22,0-.29s-.1-.11-.13-.19.13-.35,0-.45-.05.06-.12,0-.16-.11-.27-.05-.16.18-.15.38c.2,0,.19.13.31.17a3.85,3.85,0,0,1,.06.92c-.1.11-.16.28-.31.33s0,.09,0,.14.15,0,.27,0-.08.3,0,.43l0,0,0,0c.12-.09.21-.42.09-.54s0,0,.07,0M7.21,18.74c.06,0,.06,0,.09-.06-.1-.19-.34-.09-.54-.07v.14c.06.08.31,0,.36-.05s0,.07.09,0m-.79.67A1.18,1.18,0,0,1,6.75,19c0-.06,0-.13,0-.2h0v0H6.58c-.08.27-.38.3-.36.66a.32.32,0,0,0,.2,0m6.14-.09c0,.05,0,0,0-.06s0,0,0,.06m-1.39,1c.19,0,.48,0,.49.18-.23,0-.51,0-.65-.1a1.28,1.28,0,0,1-.54-.08s-.16,0-.15-.08.21,0,.27-.1-.19-.05-.22-.14.15-.1.28-.08.08-.09.09-.16.19,0,.22.08h0c0,.18.27.06.29.19s.1,0,.16-.06S11,20,11,19.85v0h0c.12-.14.36,0,.54,0s.12-.1.2-.06a.21.21,0,0,1,.21-.15c0-.3.4-.14.69-.15,0,.1.11,0,.08.16h0v0c-.06,0-.08.05-.12.07s.07,0,.11.05a.28.28,0,0,1,0-.09h0v0c.18.06.21.26.18.5-.2.08-.28,0-.47,0v.18c-.3-.05-.61,0-.92,0a.62.62,0,0,1-.18-.08c-.05,0-.09,0-.13,0s-.24-.17-.34,0a1.36,1.36,0,0,0,.33.15m1.11-.55c-.07,0-.08.15,0,.12a.49.49,0,0,1,0-.12M14,19.53c-.08,0-.11.23,0,.27s.06-.15.08-.24-.07,0-.07,0m-.21.29c.13,0,0-.24,0-.3s0,0-.06,0,0,.26,0,.3h0m0,.07c-.1,0-.07.38-.06.53.2,0,.14-.46.09-.56h0v0m-6.15-.43c-.1,0,0,.21.07.18s-.07-.1-.07-.18m6.42.43s0,.05-.07.05.1,0,.07-.05m-2.1.61s0,0-.06,0v0s0,.05-.07,0,.06.06.11.07,0,0,0,0m.63.23,0,0c0-.06.07-.08.05-.18-.19,0-.21-.14-.38-.06v0l0,0a.29.29,0,0,0,.28.19ZM12,20.54a.4.4,0,0,0,.22,0v0l0,0c-.05,0-.26-.06-.25,0m.73.3c0-.07-.09,0-.13-.07v0l0,0v.06h.16v-.07m-8-.13c-.12,0-.21,0-.21.13s.21,0,.21-.13m8.77.84h-.07v.07h.07v-.06m-.22.35V22h.13a.45.45,0,0,0,0-.11H13.3m-10.25,0a.08.08,0,0,0-.11.11.17.17,0,0,0,.11-.11m10.27.83c0-.08,0-.22-.11-.19v.18h.11m-3.94.4A.13.13,0,0,0,9.25,23a.14.14,0,0,0,.13.19m3.14.4h.05v-.14h0l0,0c-.07,0-.07.07-.07.15s0,.07.09.05Zm-.13.45h.07c.07-.15.21-.24.24-.44h-.13v0h0c0,.15-.17.21-.21.35l0,0,0,0m-.52.19c.19,0,.19-.14.25-.24-.14-.07-.29.12-.25.24M5,24c.06-.07.19-.05.17-.2a.4.4,0,0,0-.28.06c0,.05.1.07.11.14m5.13.5c0-.05,0-.11-.11-.12a.15.15,0,0,0,0,.16.12.12,0,0,0,.11,0m3.63-6.6c.08-.2,0-.36-.12-.5l0,0,0,0c0,.18,0,.41.19.48m.09.07c-.06,0-.12.08-.15.16s.08.26.13.39h0l0,0c.08-.12,0-.34,0-.45h0v0s0,0,0,0m-.64,4.29c-.11,0-.09.21-.21.24v.09h0l0,0c.16,0,.12-.21.19-.31h0v0M9.9,18.12c0-.16.13-.15.17-.27h-.3c0,.09-.08.09-.07.18l0,0v0c.08,0,.1,0,.18,0m-2-.89s.1-.06.11-.13S8,17,8,17H7.86a.32.32,0,0,0,0,.18h0v0m1,.26v0A.64.64,0,0,0,9,16.94H9l0,0c-.11,0-.1.2-.21.24a.45.45,0,0,0,0,.11.92.92,0,0,0-.31.58.33.33,0,0,0,.22,0,.27.27,0,0,1,.2-.31v0h0m.34-3.71c0,.07.06.14.17.12v0l0,0s-.13-.12-.2-.05m1.91.77s.07,0,.07-.09,0-.07-.06-.09h0v0h0c0,.06,0,.14.06.14m1.09,1c.07,0,0,.08.11,0a.57.57,0,0,0,0-.13c-.18-.16-.29-.37-.5-.5v0l0,0v.14a1,1,0,0,1,.41.37M4.48,17c.09,0,.09.08.18.08,0-.15,0-.39-.19-.42l0,0h0c0,.14.09.18.08.32m1,1.58,0,0A.47.47,0,0,0,5,18.26v0l0,0a.56.56,0,0,0,.47.24Zm4.08,4.93c-.07,0-.07.19,0,.18l0,0,0,0c0-.11,0-.13-.1-.16M4.66,12.56c0,.12.07.15.19.13a.41.41,0,0,1,0-.11c-.07,0-.1,0-.18,0m-.15-.31c0,.09-.2.08-.33.08a.28.28,0,0,0,0,.18c.22,0,.6.08.61-.16,0-.07-.19,0-.28-.1m-.85-.46h.07v0H3.66v0m5.62-.66v0h.05v0H9.28m2-1.15c0-.05,0-.1,0-.14h-.11c0,.1,0,.15.12.14m-4.6-.51v.11c.22,0,.29.14.52.11V9.58c-.23,0-.32-.19-.52-.11M3.21,8.69a1.52,1.52,0,0,0-.56.67v.09c.18,0,.23-.16.38-.21,0-.22.27-.32.18-.55M3.49,9a.41.41,0,0,1,0,.11h.13c0-.08,0-.12-.14-.11m.27-.17h.07v0H3.76v0m0-1.06H3.61c0,.2.07.26.08.42s-.09,0-.06.1l0,0v0c.17,0,.2-.08.29-.12s.07,0,.07.09,0,.1-.06.16-.14.07-.18.14a.91.91,0,0,0,.39.07c0-.05,0-.12.11-.14s.08.05.09.11a.39.39,0,0,0,.29-.07.31.31,0,0,0-.37-.33A.33.33,0,0,0,4,8.19c0-.16-.24-.13-.17-.38m1,.48h.13c0-.24-.17-.26-.3-.33,0,.17.15.17.17.33M6.3,7.42A.71.71,0,0,1,6.46,8c.13,0,.11.11.14.2h.07c0-.06,0-.18.08-.26s0,0,0,0l0,0V7.81c-.1,0-.1-.06-.16-.08V7.41c.08,0,0-.07.07-.07a.82.82,0,0,0-.09-.44.59.59,0,0,0-.15-.4c-.06,0,0,.16-.06.13a1.06,1.06,0,0,1-.1-.33H6.1a.93.93,0,0,0-.16.46,1.15,1.15,0,0,1,.36.66M7,7.6s0-.13-.08-.13h0a1,1,0,0,0-.1.34l0,0v0c.14,0,.17,0,.27,0A.26.26,0,0,0,7,7.6M3.57,6.78a.85.85,0,0,0,.08.42c-.11.09,0,.34,0,.53.09,0,.07-.09.18-.06s-.06,0,0-.11a1.18,1.18,0,0,0,0-.83.24.24,0,0,0-.2,0m6.29.4s0,0,0,.05h0a.08.08,0,0,1,0-.06s-.09,0-.09,0m.38,0c.06,0,.08-.23,0-.21V7h0s0,.19.05.18m-.12-.32c0,.06,0,.12.07.11v0h0s0-.11-.09-.09m-4.44.28c.05,0,0,.09.12.08a.18.18,0,0,0,0-.13S5.75,7,5.72,7s-.07,0,0,.12M8.36,6.9a.22.22,0,0,0,.1.18c0-.09.07-.1,0-.21a.18.18,0,0,0-.13,0m-4-.17c.18.14.3-.1.45-.13s.13.16.3.12c0,0,0-.13,0-.13s.23.17.31,0-.1-.08-.14-.13,0-.19-.14-.22-.13.11-.18.19a3.34,3.34,0,0,0-.49,0c0,.13-.1.14-.13.23m-.15-.49c-.13,0-.21,0-.22.12s.2,0,.22-.12m.11-.1v.09q.11,0,.09-.09H4.27m.27,0h.13s0-.07,0-.09-.14,0-.15.1M6.08,5.6c0,.21.11.26.21.33s.09,0,.14,0-.09-.2-.08-.35c-.15,0-.12.11-.27.07m.31-.75c-.14,0-.23.05-.24.16s.1,0,.18,0a.16.16,0,0,1,.06-.14M7,4c.12,0,.18,0,.2-.12s-.08-.05-.14-.06A.15.15,0,0,0,7,4M7,1.44c-.09,0-.1.06-.13.12s.06,0,.12,0,0-.08,0-.16M7.33,12s0,0,0,0h0v0h0m3,1s0-.06-.09,0v.07s.08,0,.09,0M9.48,7.31s.07,0,.14,0a.13.13,0,0,0-.14-.13v.11m-.12.27c.05,0,.1,0,.11,0s-.07,0-.12-.06a.37.37,0,0,0,0,.11m-.08.3V8h.09c0-.07-.07-.06-.09-.11m.7.18v0h0v0h0M8.8.36h.07c0-.06,0-.07,0-.14l0,0,0,0h0c0-.06-.07-.1-.07,0s0,0,0,0V.22c-.06,0-.05.06-.08.09l0,0h0C8.7.26,8.68.2,8.61.19s-.12.15-.2.07c0,.1,0,.11,0,.18s.3,0,.33-.1H8.8M3.88,13.27l-.17.09c-.37,0-.47-.31-.73-.44a.48.48,0,0,0-.28-.35c0-.11-.08-.24,0-.28A1,1,0,0,1,3,11.74c0-.27.26-.4.39-.6,0-.13-.19-.17-.26-.26s0-.05,0-.07-.06-.11-.14-.15a.81.81,0,0,0-.08-.38s0-.08,0-.18-.06,0-.07-.06a1.69,1.69,0,0,1,0-.23c.09,0,0-.08.11-.07s.07.24.21.24,0,.26.15.29,0,.1,0,.16.13.09.14.19.14.09.19.16a.26.26,0,0,1,.3.14c.17,0,.22.06.32.1s.16.29,0,.41-.06-.08-.16,0,0,.11-.06.11-.09-.07-.18-.06-.07-.12-.1-.17-.14,0-.2.07,0,.12-.09.19-.06,0-.06,0,0,.1,0,.14-.09,0-.11.07a.79.79,0,0,0-.08.32c-.13.08-.14.27-.16.45.19.14.25.42.49.51,0,.09.08.06.07.15s.13,0,.12.09h.23m1.48-.56-.27.07a.1.1,0,0,0,0-.08.63.63,0,0,1,.24,0M10.1,0l0,0c-.22,0-.28.09-.38.17a2.44,2.44,0,0,1,0,.27.18.18,0,0,1-.13,0,2.44,2.44,0,0,0,0,.27c-.05,0-.07,0-.07.07H9.06a2.11,2.11,0,0,0-.39.45v0h0c0-.07,0-.1,0-.16s-.07.11-.08.19h.07v0h0a1.91,1.91,0,0,0-.06.7c-.09,0,0,.11-.11.07s.08,0,.11,0-.05.34.08.43a.68.68,0,0,0,.11.4,1.93,1.93,0,0,1,.35.35c.17,0,.28.11.46.12a3.66,3.66,0,0,1,0,1.15c-.21,0-.15.26-.33.3s0-.09-.07-.13,0,.1-.09.12-.25.08-.28.21S8.73,5,8.63,5c.11.19.26-.08.47,0,0,.18-.15.15-.24.22s0,.19-.06.22.08,0,.12,0v0l0,0c0,.07.09.11.07.23s.13,0,.12.08A.38.38,0,0,0,8.82,6c.07.12.21.14.33.2s-.23.17-.29.3-.07,0-.15,0,0,.1,0,.14c-.18,0-.24,0-.27.17H8.24v0h0v0c.1,0,.15-.08.08-.14.16-.09.19-.29.31-.42a.11.11,0,0,1-.12,0c0-.06-.06-.07-.07-.11s.15-.3.16-.46-.07-.14-.12-.2-.11,0-.2,0A.6.6,0,0,0,8,5.26c0-.06-.08,0-.11-.06s0,0,0,0-.13,0-.15,0,0,0,0,0a.57.57,0,0,1-.18,0s0,0,0,0-.17,0-.15,0,.18.12.16.29v0l0,0c-.09,0-.06.17-.08.25H7.5c0-.15.1-.11.06-.25V5.37c.14-.11.24.12.34,0A.86.86,0,0,0,8,5.49c0-.08.15-.14.2,0s0,.1,0,.15,0-.08.11,0S8.45,6,8.3,6c0-.12-.18-.1-.18-.24,0,0-.11,0-.11.09s.08,0,.11,0,.05.11.07.18,0,.56-.22.7A.31.31,0,0,1,7.91,7c.1,0,0,.15,0,.22s0,0,.07,0,.16-.11.2-.21-.09,0-.08-.11,0-.09.11-.09v0h0c.08.07.1.22.14.34s0,.07-.08,0,0,.23,0,.23H8.2a.15.15,0,0,0-.09,0s0,.09,0,.09.09,0,.09,0l0,0a.42.42,0,0,1-.19.39.84.84,0,0,1,.12.23c0,.07-.07.09-.11.13s.14,0,.19,0c0,.21-.07.36.08.47s0,.12,0,.18c.15,0,.11-.15.22-.18s-.08-.08-.16-.07c-.06-.21.26-.09.26-.25s0,.06-.11,0,.06-.2.1-.29-.08.07-.18,0c0-.29.31-.32.24-.68.1,0,.12-.16.22-.19s0,.07,0,.11,0-.4.21-.39a.47.47,0,0,0,.08-.45c-.05,0-.13,0-.14-.11s.38-.35.42-.09c.08,0,.15,0,.19.09s-.08,0,0,.11-.21,0-.2.08.11,0,.2,0-.09.11-.06.23h.11V7l0,0c0,.07-.07,0-.09.07s0,.18.14.18,0,.18,0,.2,0-.15.13-.12,0,.09.05.13.07-.17.15-.2,0,.22.13.29a.49.49,0,0,0-.06.36c0,.06-.16.07-.13.21S10.43,8,10.5,8c0-.27-.06-.59.06-.75-.13-.11-.15-.35-.18-.58s-.38-.25-.49-.47c-.11,0-.2-.08-.21-.2a1,1,0,0,1-.41-.19c0-.09.1-.07.15-.07l.25.06s0,0,0,0,.19,0,.21.06S10,6,10,6c.21.1.49.12.62.31.29,0,.24.29.33.46-.09.16,0,.54,0,.82,0,0,0,0,0,0s0,.1,0,.15a.4.4,0,0,0,0,.3c.06.05.19,0,.18.15s.11.07.21.06c.18.5.62.72.88,1.14-.08.25-.09.56-.32.67,0,.15,0,.23-.12.27s-.12.18-.15.3a.36.36,0,0,0-.25.06.56.56,0,0,1,.15.26h.18a.19.19,0,0,0,.14.19c0,.25.05.43.22.49a.38.38,0,0,0,0,.16.46.46,0,0,1,.2.56h-.09a1,1,0,0,1-.52.51.37.37,0,0,1-.31.22c-.07,0-.07-.07-.12-.09s-.07.17-.22.15v-.14c-.11,0,0,.1,0,.2l-.19.08a7.06,7.06,0,0,0-2.57-.83c.05-.13.08-.29.32-.24,0,.33.34.38.62.32a.36.36,0,0,1,.06-.25C9,12.3,9,12.18,9,12.07s0-.16-.12-.16a.13.13,0,0,0,0-.11H8.61c0-.08-.1,0-.08-.11A1,1,0,0,1,8,11.63c0,.15-.11.18-.26.17-.06.22-.09.47-.15.68H7.21c0-.08,0-.1,0-.16s0-.12,0-.18S7.05,12,7,11.94s0-.21-.1-.25-.17,0-.25.05-.27-.05-.43-.05-.1.17-.24.17c0,.16-.09.25,0,.45a.46.46,0,0,0,.32.19c.14-.09.07-.29.24-.32a.39.39,0,0,1,.18,0,.5.5,0,0,1,.08.27,7.31,7.31,0,0,0-1.06.14,3.38,3.38,0,0,0-.45,0c0-.06-.12-.06-.12-.15S5,12.4,4.9,12.42v-.18a.57.57,0,0,0-.41-.08c-.18-.12-.47,0-.68,0,0-.12.07-.14.18-.14S4.17,12,4.3,12s0-.08.09-.05.33,0,.41.1c.07,0,0-.11,0-.19h0c0-.05.1-.05.09-.14s.18,0,.22,0c0-.39-.39-.49-.57-.75a.15.15,0,0,1,.07-.18c-.08-.15-.4-.13-.35-.33.11.05.26,0,.38.06s0,0,0,0,.13,0,.16,0,0,0,0,0,0,0,0,.07A1,1,0,0,0,5,10.54a1.87,1.87,0,0,1,.3.26c.06,0,0-.11,0-.2A3.07,3.07,0,0,1,4.82,10c0-.1.08-.2.19-.24S5,9.7,4.94,9.64a.21.21,0,0,1,.13-.18c0-.09,0-.18,0-.21.2.08.25.33.54.32a2.24,2.24,0,0,0-.65-1,.55.55,0,0,1,0-.31.18.18,0,0,1,.27.1c.07,0,0-.08.14-.05s.1.24.26.26a.49.49,0,0,1,.21-.28,1.65,1.65,0,0,1-.43-.57s-.1,0-.07-.06.12,0,.16,0a.5.5,0,0,0,.08-.41h0v0c.08.06.19,0,.25,0a.35.35,0,0,1,0,.18c0,.06.1,0,.14,0s.16.51.3.71c0,0,0,.11,0,.09s0,.11.1.13,0-.11,0-.18.14.06.14.17.23.11.28.22h0l0,0c-.19,0-.16.25-.33.29v.22c-.16.18-.07.46-.11.68s-.14.25-.17.37a.24.24,0,0,1,0,.2c-.09.08,0,.32-.1.39a2.62,2.62,0,0,1,.07.72c.25,0,.59-.05.69.13,0,0,.09,0,.15,0a.74.74,0,0,0,.17.12A1.18,1.18,0,0,0,7.42,11a.34.34,0,0,1-.21-.24c0-.05-.13,0-.14-.1l0,0,0,0a.39.39,0,0,1,.23.06c.16-.05.08-.22.08-.39.11,0,.1.12.21.13s0-.26.1-.3.1.05.14.09c.06-.14.24-.18.42-.22s0-.06,0-.11-.28-.13-.38,0c-.12-.17-.24.07-.43,0a1.15,1.15,0,0,1,0-.27c.2,0,.26-.19.24-.41C7.81,9.12,7.83,9,8,9a.21.21,0,0,0,.08-.12c-.13-.17-.55,0-.79-.08a.2.2,0,0,1,0-.21.77.77,0,0,1,.14-.52A.55.55,0,0,0,7.79,8c0-.12-.19-.07-.23-.15,0,.07-.29.11-.36,0s.12,0,.18,0,.11-.15.26-.14c0-.14,0-.36.05-.46-.14-.07-.4,0-.54-.11a.23.23,0,0,1,.08-.21c-.08-.21-.06-.53-.16-.72s-.35-.09-.37-.3a.36.36,0,0,1-.18,0c0-.25-.17-.37-.09-.6.09,0,.12,0,.18,0a1.19,1.19,0,0,1,.08-.2.16.16,0,0,1,.16.06.24.24,0,0,1,.27-.12.28.28,0,0,0-.27-.42.41.41,0,0,1-.24.1c-.06,0-.06.12-.15.12a1.48,1.48,0,0,1,0-.21,2.11,2.11,0,0,0-.67.12v.11c.1,0,0-.09.13-.07s.16.14.21.24-.23.19-.37.26,0,.26-.15.28a.72.72,0,0,0,.23.66.8.8,0,0,0-.13.28c-.17,0-.21-.08-.32-.12s-.06-.38,0-.48c0-.29-.15-.44-.11-.79-.18-.15-.27-.38-.47-.5a6.17,6.17,0,0,1,.06-1.29A.86.86,0,0,0,5,3.2h.14a.84.84,0,0,0,.34-.46c.15-.07.17-.25.26-.38l0,0,0,0a.54.54,0,0,1-.25.53c0,.15-.08.19-.06.34a3.39,3.39,0,0,0,1,.06c.25,0,.5,0,.74,0,0,0,0-.12.08-.16s0,.16.08.2a.21.21,0,0,0,.11,0s0-.08,0-.12a2.23,2.23,0,0,0,.27,0V3.08s-.1,0-.14,0c-.09-.25-.29-.68-.13-1,0-.07-.08,0-.09-.08s0,.23-.15.2a3.53,3.53,0,0,1,0-.92s0,0-.09,0,0,.35-.12.36,0-.18-.1-.17,0,0,0-.07a1,1,0,0,0-.32-.1l-.06.13a1.18,1.18,0,0,1-.39-.1c0,.07-.14.05-.2.08S6,1.46,6,1.52H6l0,0c-.32-.2-.11-1-.77-.79C5,.63,5.15.29,5.06.07c0,0-.12,0-.2,0L4.77,0H9.19V0h0c0,.07-.15.05-.13.16.19,0,.27.07.38.12s.09,0,.07-.11-.19.06-.25,0,0-.08,0-.11,0-.07-.09,0V0ZM6.37.51c.24-.12.57.07.88,0,.07,0,.07.07.16.06s.19,0,.26-.05.1-.12.18-.1v0h0c.08,0,0,.07.1,0s0-.12.08-.14h0c.08,0,0,.09.05.13h.06A.61.61,0,0,1,8.25.22s-.07,0-.13,0,0,.07,0,.07H8v0C8,.27,8,.19,7.93.14a2.07,2.07,0,0,0-.36,0A.19.19,0,0,0,7.45,0C7.34,0,7.3.1,7.23.15s-.3-.06-.5,0-.41.09-.52,0a1,1,0,0,1-.42.08c-.13,0-.29-.07-.36,0s.06,0,.11,0A.4.4,0,0,0,5.69.4c.09,0,0-.09.13-.07s.1.09.1.2S6,.5,6.09.48s.18,0,.28,0M8.48,2.74V2.69H8.41v0h.07M7,.94s.06,0,.09,0S7,.86,7,.94M5.91,1c0,.06,0,.12.07.11S6,1,6,1H5.91m2,.13s-.06.08,0,.07,0,0,0-.07H8v0C8,1.08,8,1,8.08,1S8.06.92,8,1s0,.06,0,.12h0v0m-.31.08c0,.08,0,.17.07.18s.1-.1.09-.21-.06,0-.1,0,0,0-.06.07m.21.17c0,.06,0,.1.07.09s0,0,0-.09H7.82m-.37.31c0,.05,0,.11.14.11s.07-.05,0-.14-.07.07-.18,0m.38-.11c-.07,0-.07.32,0,.34a.65.65,0,0,0,0-.34m0,1.25c.16,0,.13.17.28.17S8,2.86,8,2.76l0,0v0c.13,0,.09.23.21.26s0-.13,0-.2-.09-.11-.14-.16a3,3,0,0,1-.06-.83C7.93,1.77,8,2,8,2.19a1.51,1.51,0,0,0,.06.41H8l0,0c-.08,0-.07-.18-.18-.1,0,0,0,.16,0,.27M8,3.1v.06h.07c0-.05,0-.07-.07-.06M9,4.3V4.24H8.89v.07H9m-.27,0s0-.16,0-.13,0,.11,0,.13M5.13,3.83a.17.17,0,0,0,0,.07H5.2V3.83H5.13m0,.34v.07h.07V4.17H5.1m.47.46c0-.08,0-.18,0-.21s.09,0,.18,0c.14-.18.56,0,.83-.12.13.1.48,0,.65,0s-.06-.26,0-.27v0h0c0,.11.08.08,0,.18.18-.07.29,0,.39,0s.09-.17.15-.25-.16,0-.18,0a.27.27,0,0,1,0-.25c.08,0,.1,0,.14.06s0-.26.1-.27v0h0c.08.05,0,.22.14.27V3.65c.18-.11.23.08.21.27V4c-.1,0-.09.08-.2,0a2.14,2.14,0,0,1-.06.27.85.85,0,0,1,.32,0c0-.08,0-.22,0-.29v0l0,0c0-.06,0-.16.07-.16a.28.28,0,0,1-.06-.21c.09,0,0-.06.11,0s0,.07.1,0-.16,0-.21-.11c-.06.11-.33,0-.4.11v0H8a4.54,4.54,0,0,1-.66-.11.14.14,0,0,1-.11.07,5.15,5.15,0,0,1-1.12,0c-.07,0,0,.07-.14,0s-.35,0-.52,0a.57.57,0,0,0,0,.54l-.13.14c0,.17.13.18.17.31s-.09.07-.07.16a.15.15,0,0,1,.1,0v0l0,0a.45.45,0,0,0,0,.11h.08c0-.06,0-.12-.07-.11v0l0,0m5,7.65c.1,0,.15,0,.18-.08s-.09-.06-.18,0v.11m1,.5s0-.06,0-.06-.06,0,0,.07h.07m-1.3-1.62c-.12,0-.11-.21-.22-.26a.46.46,0,0,1-.38.13c0,.25-.48.16-.29-.11-.07,0,0-.13-.12-.13h0l0,0h0v-.06c-.08,0-.08.09-.11.14l0,0v0H8.93c0,.12,0,.16-.06.23s.16.07.19,0H9c0-.11,0-.2,0-.25h0v0s0-.08.09-.07l0,0,0,0c.05.13,0,.25,0,.41H9.15c0,.07,0,.15,0,.27s-.12.07-.09.19c.33-.09.58-.47.94-.26,0,.07,0,.08,0,.11s.11,0,.14,0-.11,0-.08-.15.1-.15.25-.12v0h0c.13.07,0,.26.08.38a3.21,3.21,0,0,1-.74.18c-.06.09-.27.06-.28.2s.1-.08.2-.08.52-.07.76,0c0,0,.07.07.08.07s.08,0,.11,0,0,.12.09.14.33-.1.39,0,.15,0,.15,0a.45.45,0,0,1,0,.11c-.09,0-.05.08-.16,0s.08.06.08.14l0,0,0,.05c-.05,0-.05.11-.16.07s0,0,0,0-.09,0-.12,0,0-.06-.09-.09a.68.68,0,0,0-.41,0c0,.15.15.09.17.2l0,0,0,0s-.14-.14-.25.12c.1,0,.21,0,.3,0s0,0,0,.05.12,0,.14,0,0,.11.09.06h0c0-.05,0-.07,0-.13-.36-.1-.33-.13-.33-.13v0c.12-.06.23,0,.38,0,0,.18.11.11.28.11,0-.06,0-.16,0-.2V12.4c.06-.08.25,0,.31-.13h.09s.06.08.13.06a.82.82,0,0,0-.15-.56c0-.22-.18-.3-.22-.51A.51.51,0,0,1,11,11a.71.71,0,0,0-.67.21v0h0m-1.71.33c0-.11,0-.1,0-.22-.13,0-.11.19,0,.22m-.24-.35c0-.07.08,0,0-.11s0,0-.11,0,.05.07.07.11m.2-.05a.06.06,0,0,1,0,0H8.6v0Zm-.69-1.8c0,.07,0,.15.07.13s0-.1-.07-.13M7.7,11.08c0,.22,0,.4.11.56.21-.11,0-.6.13-.8l.09.09c.07.13,0,.34.06.42.1-.15,0-.45.16-.59.17,0,.16-.15.32-.08,0-.11.16-.09.29-.1s0,.16,0,.14.19-.17.13-.26c0,.07-.11.07-.11,0s.12-.21.19-.3a2.44,2.44,0,0,0,0-.27c.12,0,.08-.17.24-.15,0-.11.11-.14.2-.16.08-.32.36-.44.73-.48v0l0,0s0,0,0,.07a.58.58,0,0,0,.32-.08c.11.06.23.1.23.28s-.1,0,0,.07.06,0,.09,0v0l0,0c0,.09-.08,0,0,.13s.19,0,.2,0,0,.09,0,.16.08.12.15.15a.21.21,0,0,0-.13.26c-.16.08-.18.29-.49.24,0,.08-.14.07-.15.16.31.17.46-.13.64-.27a.44.44,0,0,1,.15-.34c0-.24.17-.35.25-.53s-.12-.17-.1-.34c-.19-.08-.23-.32-.4-.43s-.24-.29-.31-.49a.68.68,0,0,0-.39,0c0,.08-.1.09-.15.14v0h0l0,0c-.09,0-.21,0-.25-.08a2.09,2.09,0,0,0,0-.25c-.19,0-.23.19-.49.15a.64.64,0,0,0,0,.32C9.05,8.74,9,9,8.77,9c0,.18-.14.2-.23.28s0,.23,0,.39H8.6c0-.28.22-.4.45-.49a1.42,1.42,0,0,1,.7-.54c.11,0,.26,0,.3-.06h.06c.07.06,0,.15-.06.21-.3.08-.35.41-.63.52,0,.07-.09.1-.11.18a.16.16,0,0,1-.11,0,2.35,2.35,0,0,1-.3.33.67.67,0,0,1-.22.36.48.48,0,0,1-.14.39c-.06.05-.22,0-.25.08,0-.09-.1,0-.16,0s-.24.06-.38.08-.15.17-.17.28,0,.07.07.06l0,0Zm1.67-.52c0-.12.12-.17.15-.27-.15,0-.11.17-.26.16v.12h.11m.49-.26c-.1,0-.12.06-.13.14s.11,0,.13,0V10.3m0-.14c0-.3.4-.27.52-.49,0,0,0,0,0-.07-.24,0-.23.27-.41.33H9.71c0,.14-.11.22-.05.3a.22.22,0,0,1,.2-.08m.64-.29c-.11,0-.18,0-.18.12s.19,0,.18-.12M5.68,7.58c0,.17.1.28.16.27s-.06,0,0-.11,0-.17-.14-.16m-.54,3.34a.28.28,0,0,0,0,.09h.11c0-.09,0-.09-.12-.09M3.87,13.48a.32.32,0,0,0,.14,0H3.87m.8-1.8c-.06,0-.21.06-.2,0s0,0-.07,0l0,0v0c0,.07.13,0,.2.06s.13.15.14,0l0,0h0c0-.08-.09-.05-.1-.13m2.42-1.1c-.06-.18-.67-.18-.74,0a6.25,6.25,0,0,1,.72.07v0ZM9.81,7h.11c0-.11,0-.24-.12-.23,0,.08,0,.09,0,.16l0,0Zm1.12,2.6v.05c.08,0,.07-.05.11-.08s-.16-.09-.14,0ZM7.27,3.73s-.09.23,0,.2l0,0h0c.06,0,0-.13,0-.21s-.05,0-.09,0M12.81,22c.08,0,.09,0,.18,0s0,.11,0,.1,0-.22,0-.28.07,0,.11,0,.09-.09.08-.2c-.19,0-.14-.18-.2-.28a.15.15,0,0,0-.18.13v0l0,0s0,.08,0,.13c0-.13-.05-.14-.05-.14v0c-.09-.1-.31-.09-.37-.22s-.06.08-.16,0,0-.08,0-.11h0l0,0c-.16,0-.25.1-.16.2H11.9a1,1,0,0,1,0-.51v0h0c-.06,0-.16-.15-.22,0-.08-.1-.39-.22-.39,0a6.38,6.38,0,0,1-1,0c-.13-.15-.46-.11-.58-.27H9.63c.14.23.49.24.69.41a.11.11,0,0,0,.14,0c.07,0,.08.08.1.14s.26,0,.34.12a1.9,1.9,0,0,1,.49.18s0,0,0,.05.12,0,.18,0,.23.17.4.15a1.58,1.58,0,0,0,.49.22c0,.24-.39.13-.49.29.25.11.41-.06.68,0,0,0,0-.08.05-.08s0,.08.09.09m-.59-.87,0,0c.17,0,.22.1.27-.06s-.25-.09-.33-.17.09,0,.07-.11a.6.6,0,0,0-.2,0v0h0s0,.1,0,.16.14.05.13.14ZM1.35,18c.07,0,.06-.06.11-.08a.45.45,0,0,0-.06-.12c-.07,0-.13.06-.12.18s0,0,.07,0m.59-1.4v-.06H1.87v.07h.07M4,14.36c-.09,0-.1.08-.21.06s-.13.09-.18.13l-.14.13s-.09,0-.14.06-.15.17-.23.24a1.06,1.06,0,0,1-.26.17,2,2,0,0,0,0,.22.73.73,0,0,0,.36,0c0-.15.2-.15.28-.24s0,.07.09,0,.31,0,.43,0v0l0,0c0-.16-.13-.16-.15-.28H3.54s0,.08,0,.11H3.4c0-.1.06-.12.14-.13a.38.38,0,0,1,.28-.19c0-.13.18-.13.23-.24l0,0Zm.27-.08c0-.22.18-.18.22-.31s.14.06.24,0,.12-.08.12-.17.41,0,.48-.19c.12,0,.16,0,.28,0a.57.57,0,0,0,0,.13.42.42,0,0,0-.34.15c.12,0,.09.07.17.07,0,.23-.18.15-.25.24s.08.1.17.1c0,.17.19.19.15.41,0,0,0,0,.06.05s0,.15,0,.15l0,0h0s0,0,0-.07,0,.05,0,.09H5.5v0h0c-.08.25.14.36.18.57s-.07.22,0,.34c-.16-.07-.18-.27-.38-.31,0-.12,0-.19,0-.34s.1,0,.1-.09-.35.13-.48,0-.12-.2-.12-.36c-.09,0,0-.08-.13,0,.08.2,0,.34,0,.58.09,0,0,.17.06.28s.15.33.29.44c0,.07,0,.06,0,.13a.35.35,0,0,1,.17.33c-.09,0-.09-.08-.18-.08a1.44,1.44,0,0,0-.52-.6c0-.08,0-.09,0-.16s-.16-.19-.31-.22c0-.11-.09-.09-.08-.18l0,0v0c.14-.05.25.06.33.13,0-.33-.08-.72,0-1,0,0-.07-.06-.14-.05m.61.09c0-.08-.1-.09-.13,0s.08,0,.13,0M3.84,14s0-.06,0-.07-.09-.09-.2-.07,0,.06,0,.07.07.06.08.11,0-.07.12,0m0-.4c.07,0,.12,0,.14,0s-.07,0,0-.1,0,.07-.09,0v.09M4,14c-.09,0-.18.14-.06.16s.07-.07.12-.09S4,14,4,14m.14-.13c0-.08.15-.07.16-.17h0l0,0a1.12,1.12,0,0,0-.2,0s0,.06,0,.07.09.07.14.11m.27-.21c0-.07-.13-.06-.13,0l0,0v0a.1.1,0,0,0,.11,0M4.13,14c.29,0,.36-.16.53-.25,0-.09-.11-.07-.2-.08-.06.16-.3.14-.33.33m.65,5.76c0-.09-.23-.06-.27,0s.07.07.09.12a.49.49,0,0,0,.18-.08m.38-6.17c.16-.06.41,0,.46-.19-.3-.09-.48.13-.79.11,0,.1,0,.11,0,.18a.47.47,0,0,0,.27,0l.07-.06M6.4,16.14c-.13.26.07.54.18.73,0,0,0-.07.09-.05v-.09c0-.08-.1,0-.08-.09s0-.05,0-.09.07.11.16.12.11-.2.1-.34a1.38,1.38,0,0,1-.06-.16c0-.16.07-.39,0-.47s.08,0,0-.13c-.15-.36.13-.63,0-1-.07,0,0,0,0-.09s-.14-.13-.2-.19-.15.18-.24.26.06.34-.06.41c-.06-.2-.12-.73.08-.84A.31.31,0,0,0,6.17,14v-.22c-.1,0-.08-.09-.2-.06s0,.19.06.23A.25.25,0,0,0,6,14.2c-.16-.08-.26.06-.49,0,0,.16.07.21.12.3s.13,0,.21,0a.59.59,0,0,0,.26.23c0,.14,0,.31.08.34a.36.36,0,0,0,.08.32c.09,0,.18,0,.18-.13s.11,0,.13,0a.22.22,0,0,0-.07.23c-.09,0-.09-.08-.2-.06-.09.18,0,.29,0,.46.08,0,.11,0,.18,0s0-.18,0-.27a1.11,1.11,0,0,1,.09.5c-.07-.07-.1-.2-.24-.14s0,.1.06.14m-.58-2.46h.06a.17.17,0,0,1,0-.07H5.82v.07m.41-.1c0-.08-.09,0-.14-.05v.09a.14.14,0,0,0,.14,0m1.85-.11c-.08,0-.2,0-.22-.06s0,.08-.1.07c-.13-.16-.37,0-.51-.09s-.23.07-.3,0-.1.1-.18.13-.36-.13-.45,0,.06,0,0,.12-.11.15-.06.27.19.16.38.15c0-.2.13-.19.17-.31a3.93,3.93,0,0,1,.93-.06c.11.1.27.15.33.3s.08,0,.13,0,0-.16,0-.27.31.07.43,0l0,0v0c-.09-.11-.42-.2-.54-.08s0,0,0-.07M6.34,19.75c0-.06,0-.06-.07-.1-.18.1-.08.35-.06.54h.13c.09-.07,0-.32,0-.37s.07,0,0-.08m.67.79a1.07,1.07,0,0,1-.46-.34H6.34l0,0h0v.14c.27.07.29.37.66.36a.6.6,0,0,0,0-.2m-.09-6.15s0,0-.07,0,.05,0,.07,0m1,1.39c0-.18,0-.47.17-.49,0,.24,0,.52-.09.66a1.05,1.05,0,0,1-.09.53c0,.05,0,.17-.07.16s0-.21-.1-.27-.05.19-.15.22-.09-.15-.08-.28-.08-.08-.15-.09,0-.19.07-.23h0l0,0c.18,0,0-.27.19-.29s0-.11-.07-.16,0,.34-.12.38h0v0c-.14-.13,0-.36,0-.54s-.1-.13-.06-.21A.19.19,0,0,1,7.19,15c-.3,0-.15-.4-.16-.68.11,0,.06-.11.16-.08v0h0c0,.05,0,.07.06.12s0-.07,0-.12H7.26v0h0c0-.19.25-.21.5-.19.08.21,0,.29,0,.48h.18c0,.3,0,.62,0,.93a1.36,1.36,0,0,1-.07.18s0,.09,0,.13-.16.24,0,.34a2.52,2.52,0,0,0,.15-.34m-.55-1.1c0,.07.14.08.11,0H7.36M7.13,13c0,.07.23.11.27,0s-.15-.07-.25-.08,0,.06,0,.07m.28.21c0-.14-.24,0-.29,0s0,0,0,.07.25,0,.29-.06h0m.07,0c0,.09.39.07.54.06,0-.21-.46-.15-.56-.09h0v0m-.43,6.14c0,.11.21,0,.19-.06s-.1.07-.19.06m.44-6.41c0,.05,0,0,0,.06s0-.1,0-.06M8.09,15s0,.05,0,.07H8s.05,0,0,.07.06-.06.08-.11a0,0,0,0,1-.05,0m.24-.62v0a.23.23,0,0,0-.18-.06c0,.19-.14.22-.06.39h.05l0,0a.28.28,0,0,0,.19-.29ZM8.14,15a.75.75,0,0,0,0-.23h0l0,0s0,.25,0,.25m.3-.74c-.08,0,0,.1-.08.14h0l0,0H8.5v-.15H8.44m-.14,8c0,.12,0,.21.13.21s0-.22-.13-.21m.84-8.77v.07h.07v-.07H9.14m.36.21h.11v-.14H9.5v.13m0,10.25c0,.08,0,.16.11.12a.19.19,0,0,0-.11-.12m.82-10.26c-.08,0-.21,0-.18.11h.18v-.11m.4,3.94a.12.12,0,0,0-.18.13.14.14,0,0,0,.18-.13m.41-3.14v0H11v0l0,0c0,.07.07.08.16.08s.07,0,0-.09Zm.45.13V14.5c-.15-.08-.25-.21-.44-.24a.57.57,0,0,0,0,.13h0v0c.15,0,.2.17.35.21l0,0,0,0m.18.52c0-.2-.13-.2-.24-.26-.06.14.12.29.24.26m-.25,6.85c-.07-.05,0-.19-.2-.16a.43.43,0,0,0,.06.27c.06,0,.07-.09.14-.11m.5-5.12s-.1,0-.11.1a.12.12,0,0,0,.15,0c0-.06,0-.09,0-.11m1.11-.12a.51.51,0,0,0-.22-.55s0,0,0,0a2.42,2.42,0,0,0,.25.51m1.24,5.6c0-.09,0-.11,0-.18h-.11c0,.12,0,.19.12.19m.32.14c-.05-.08,0-.22-.11-.27-.23,0-.11.39-.16.6a.41.41,0,0,0,.19,0c0-.13,0-.29.08-.34m.46.86h.05v-.07h-.05v.07m.66-5.62v-.05h-.05v0h.05m1.15-2c0,.09,0,.13.13.12s0-.08,0-.12H17m.51,4.6c.08-.2-.14-.3-.11-.52h-.12c0,.24.13.31.12.53h.11m.78,3.44c-.24-.09-.33.17-.55.18,0,.14-.2.19-.22.38h.09a1.56,1.56,0,0,0,.68-.56m-.35-.29a.11.11,0,0,0-.11-.14v.14h.11m.17-.26h0v-.07h0v.07m.58-1c.15,0,.16.17.33.17-.08-.13-.1-.32-.33-.3v.13m.86-1.52a1.1,1.1,0,0,1,.67.36.9.9,0,0,0,.45-.17.57.57,0,0,0,0-.13,1.69,1.69,0,0,1-.34-.1c0-.1.14,0,.14-.07a.64.64,0,0,0-.4-.15.85.85,0,0,0-.45-.08c0,.05-.1,0-.07.07l-.31,0c0-.06-.11-.05-.09-.16h0l0,0s0,0,0,0-.19,0-.25.08v.07c.08,0,.22,0,.2.14a.69.69,0,0,1,.53.16M19.35,20c0-.06-.11-.08-.22-.07s-.08.13-.05.26h0l0,0a1.2,1.2,0,0,0,.35-.1V20c0-.06-.08-.05-.14-.07m.83,3.42a.24.24,0,0,0,.05-.2,1.26,1.26,0,0,0-.84,0c-.07,0,0-.07-.11,0s-.06.1-.05.18c.18,0,.44.06.52-.05a.79.79,0,0,0,.43.09m-.4-6.29s0-.06,0-.09l-.07,0v0a0,0,0,0,1,.05,0m0-.38c0,.08.13,0,.18.05v0l0,0c0-.11-.18-.09-.2,0m.31.12c0-.08,0-.08-.08-.09v0h0c0,.06.06.06.11.07m-.27,4.44c.08,0,0-.06.11,0s-.06,0-.06-.1a.28.28,0,0,0-.14,0c0,.07.07.07.09.12m.21-2.68s0-.08,0-.14-.12.05-.21,0a.22.22,0,0,0,.18.1m.17,4c.09,0,.1-.14.23-.12a3.49,3.49,0,0,0,0-.5c.08,0,.18-.05.19-.17s-.15-.1-.22-.14-.07-.12-.13-.15.07.19,0,.32-.1,0-.14,0c0,.17.09.2.13.3s-.27.26-.13.44m.49.16c-.08,0-.19.11-.12.22s.13-.09.12-.22m.09-.11s0-.06,0-.09-.1,0-.1.09h.09m.06-.27a.12.12,0,0,0,.09-.15.13.13,0,0,1-.09,0v.14m.48-1.54c0-.16.11-.12.08-.27-.15,0-.19-.1-.36-.08,0,0,0,.16-.05.13.08.1.12.24.33.22m.76-.31a.17.17,0,0,1-.14.06c0,.07,0,.09,0,.18s.17-.1.17-.24m.83-.6a.19.19,0,0,0,.19-.06c0-.06-.06-.08-.07-.14s-.13.08-.12.2m2.58,0c-.08,0-.09,0-.16,0a.1.1,0,0,0,0,.11c.05,0,.12,0,.12-.13m-5.89-2.65c0,.07,0,.08,0,.14h.11c0-.08,0-.14-.13-.14m-.21.15c-.08,0-.06.06-.05.11h.12c0-.05,0-.08-.07-.12m-.45.1a.28.28,0,0,1,0,.09h.12s0-.1-.11-.09m-.11-.66v0h0v-.05h0M14,16.75c0-.07,0-.06,0-.09s0,.05,0,.09H14m-4.73-.26v-.07H9.19v.07h0m.1-.25c0-.12.11-.16.08-.33-.08.06-.12.18-.21.24s.06.09.13.09m-6.42,1.6v0H3v0h0m.66-1.42v.06h.07v-.07H3.57m-1.74.84v-.07H1.78v.06h.05M11.42,14v.06h.09c0-.08,0-.08-.09-.07m-.57-.36c0-.11-.07-.1-.16-.1s.06.1.16.1M7.07,12.57c0,.07.1.07.07,0H7.07m-.67,0v.07h.07v-.06H6.4M3.39,14s0,.08-.09,0a.12.12,0,0,1,0,.07h.11c0-.08-.06,0,0-.12M3,14.32s0,0,0,0,.18,0,.31,0,0-.05,0-.11-.14-.09-.27-.08,0,.12-.09.13m-.4.39c-.07,0-.06,0-.09,0s.11,0,.09,0M2.25,15a.28.28,0,0,1,0,.09c.09,0,.19,0,.21-.15s-.08.1-.2.06m-.71,1.53c.05,0,.11-.05.12-.13s-.08.08-.12.13m0-.66c0,.09-.06.17,0,.21s.1-.21,0-.21m-.24.4c0,.13-.09.13-.08.25s.16-.12.17-.24H1.32m17.79,4.89c0,.07.1.2.26.17s-.14-.05-.15-.14,0,0-.11,0M16,21.7v.11H16c0-.06,0-.12-.09-.11m-1-2h0v-.05h0Zm-1.48-.31c0,.18,0,.23,0,.41.22,0,.41-.1.33-.33-.13,0-.15-.11-.32-.08m-.28.4c0-.32,0-.64-.32-.62a1.77,1.77,0,0,0,0-.23c-.2,0-.28-.2-.39-.33s-.12,0-.18,0,0,0-.05,0-.15,0-.2,0-.49,0-.66.13c.05.24.38-.12.49.11.11,0,.15-.08.23,0,0-.08.07-.07.09-.11a.57.57,0,0,0,.25.07,1,1,0,0,1,0,.34c-.09,0-.15-.11-.26-.1s-.12.1-.19.11a.24.24,0,0,0,.27.16s0-.1.09-.13,0,.14.08.19-.1.13-.14.22a.51.51,0,0,0,.09.18s0,0,.06.05,0,.09,0,.13.05,0,0,.1l-.05.13c0,.08-.14.13-.17.22s-.25,0-.32.12-.36,0-.43-.06-.18,0-.2,0,.08.08.07.14a1.72,1.72,0,0,1,.64.16c.08,0,.17,0,.19,0a.29.29,0,0,0,.22.05c.06.06,0,.19,0,.3s.14.12.12.27.11.19.19.26a.67.67,0,0,0,.15-.43c.08-.05.08-.19.08-.33s.08,0,.05-.11a1.27,1.27,0,0,1-.54.11c0-.17.21-.16.37-.19a.26.26,0,0,1,.14-.13v-.09c.15-.07.15-.31.15-.55,0,0,0-.08-.06-.1s0,0,.07,0m-2.58,2.14s.05,0,0,.05a.57.57,0,0,1,.47,0c.1.05.17.17.31.14s0,0,.05.05.34.06.42,0,.37,0,.51-.12,0-.1.09-.11c-.08-.17-.48-.06-.65-.05s-.18-.2-.36-.21a.37.37,0,0,0-.08-.25c-.24,0-.29-.2-.56-.18-.09-.07-.14-.17-.33-.15a.3.3,0,0,0-.24-.05c0,.06-.08.06-.1.1a.63.63,0,0,0-.22-.07.23.23,0,0,1,0-.18c-.1-.05-.24-.07-.28-.17.15-.32.63.08.84-.1h.11s-.06-.1-.07-.05h0c-.1-.11-.37-.06-.47-.17s-.4-.15-.67-.14c0,.08,0,.17-.08.18.16.05.09.29.06.36s.05.07.11.07a2,2,0,0,0,.44.29c0,.05.11.09.11.18a.38.38,0,0,1,.26.17c.21,0,.35.11.33.35m-.54,1a1,1,0,0,0,0-.38.59.59,0,0,0,.15-.47c-.28,0-.31-.22-.3-.48a.23.23,0,0,1-.24-.1,1.07,1.07,0,0,1-.36,0,.45.45,0,0,0-.1.33c-.2,0-.28-.14-.45-.06a.15.15,0,0,0,0,.07c.16.13.14.42.37.48a1.25,1.25,0,0,0,.39.49c.13-.06.29,0,.45,0s.08.05.08.11m-.91-2.74h.07v-.06H9.17v.07m1.05.85c0-.08-.09,0-.13,0V21s.13,0,.13,0m.56-.56c0,.06,0,.06,0,.11h.14v-.11a.15.15,0,0,0-.16,0m.72.9c0,.06,0,.08.08.07v-.06H11.5m.32,1c0,.28.17.38.27.55.18,0,.25-.19.33-.32l.07-.14s0-.15.12-.2a.42.42,0,0,0-.25,0s0,.05,0,.05-.18,0-.16.06a1.19,1.19,0,0,0-.38,0m.76-4.78c0,.07,0,.07,0,.14s-.12.15-.1.31a.5.5,0,0,0-.15.29c.21-.05.44,0,.47.19,0-.09.15,0,.22,0a2.2,2.2,0,0,0-.31-1.27c-.09,0,0,.12-.05.18a.78.78,0,0,1-.1.15M10.5,15.81c.06,0,0,0,.07.07l.42,0c0,.08,0,.19.11.23a.66.66,0,0,1-.38.57c0,.14-.09.16-.13.24.16,0,.23-.15.39-.16.08-.2.28-.25.45-.35a1.84,1.84,0,0,1,.19-.4c0-.07,0-.16,0-.2s-.1-.32-.19-.46-.18,0-.24,0-.4-.09-.35-.33c-.1,0-.17.1-.27,0s.07-.08.05-.18-.11-.06-.18-.08-.15,0-.21.06,0,0,0,.05a.19.19,0,0,0-.14.2,1.28,1.28,0,0,1,.4.15,2.62,2.62,0,0,1,0,.56M9.12,18.27c.05.26-.14.27-.28.35,0,.11.14,0,.23,0s0,.14,0,.14.36.1.67,0c0-.08.09,0,.07-.11.33,0,.53-.1.82,0,.07-.05.09-.15.23-.13s0,.2.15.19c-.07.15-.31.11-.44.19s-.21,0-.22.06a.69.69,0,0,0-.48.12c-.14,0-.23,0-.34,0s-.15.06-.23.09,0,.08,0,.15-.25.05-.3.15h.18v0l0,0s-.07,0-.07,0,0,.09.08.11v.14a.39.39,0,0,1,.3.33c.3-.05.82-.2,1.06,0,.35.08.75-.14.9.1a.39.39,0,0,1,.21-.15c.06-.06,0-.08,0-.14s.1-.1.08-.22a7,7,0,0,0-.79,0c-.1,0-.08-.17-.1-.26a.26.26,0,0,1,.16-.1c0-.15.16-.48,0-.61a.22.22,0,0,0,0-.25l.22.12c.08,0,0-.09.12-.06s-.08,0,0-.11.47-.08.68-.14.28-.29.29-.57c.11-.07.07-.31.09-.47-.27,0-.2.28-.42.3s-.16-.1-.27-.13v.23c0,.07-.11,0-.09.09l-.31,0a2.23,2.23,0,0,0-.63.39,1.36,1.36,0,0,1-.29,0c-.06.14-.31.09-.44.16-.08-.16.17-.32.38-.32,0-.11.16-.11.16-.24.25,0,.31-.12.53-.12,0-.07,0-.08,0-.13a.5.5,0,0,1,.21,0c.15-.11.23-.31.53-.27,0-.08.09-.06.09-.13h.18a.52.52,0,0,0,.11-.33c-.34-.08-.44.19-.71.11,0,.06-.11,0-.12.11s.14.1.27.1c-.07.16-.25.19-.41.25v0l0,0c0-.06,0,0,0-.12h-.2c0,.12-.08.14-.21.12v0l0,0c0-.06-.14,0-.18,0s0,.06.09.07v0l0,0c0,.16-.27.1-.35.21s0,.1.07.14-.11.08-.17.11-.12-.07-.15-.14-.21.06-.34.05c-.11.31-.4.41-.7.52m-.51.57s0,.07,0,.06a.13.13,0,0,0,.25,0c-.09,0-.13,0-.2,0m.07,1.62s.14-.14,0-.13,0,.09,0,.13M8.28,19c0,.12.11.12.06.27s.08,0,.12-.06-.09-.17-.18-.21M8,18.68c0-.06,0-.12-.13-.12s.09.08.13.12M6,19.6c-.17.15-.06.29-.07.49.22,0,.24.22.26.42.08,0,.07-.08.18,0s.08.08.06.18c.14.18.48.17.67.3s.08,0,.11,0,.3,0,.45,0,.18-.08.26-.13,0,0,0,0,.14-.18.26-.22,0,0,0-.09.06-.08.12-.08a1,1,0,0,0,0-.25s0-.08.12-.09c0-.22.07-.53-.09-.61a.86.86,0,0,1-.16.45c0-.06-.1-.05-.13-.1s.05-.07.05-.13S8,19.4,8,19.24a1.29,1.29,0,0,1-.62-.16c-.06,0-.08.09-.14.11s-.19,0-.38,0c0,.16-.16.19-.18.35H6.53c-.07-.05-.07-.15-.13-.21s-.11.2-.17.31H6.12a.73.73,0,0,1,0-.31c-.17,0-.1.19-.07.29m2.17,2.13s.06,0,.05.07,0,0,0-.07H8.18M8,21.39c0,.09,0,.07,0,.13s.09,0,.08-.13H8m0,2.93v.11c.07,0,.12-.14,0-.11m-.29-.08a5.14,5.14,0,0,1,.18-.56c-.11-.11-.14-.3-.25-.41s0-.07.07-.11a.37.37,0,0,1,0-.39c0-.07-.09-.1-.06-.23-.23,0-.07-.45-.18-.61-.24,0-.2-.23-.16-.41a.36.36,0,0,1-.23,0s0,0,0,0c.11.07,0,.17,0,.25s-.17.09-.25.15a4.6,4.6,0,0,0-.13,1c0,.08-.07,0,0,.09.23.2,0,.74.22,1a.35.35,0,0,0,0,.29h0s0,0,0,0h0a1.79,1.79,0,0,0-.15.23.22.22,0,0,0,.15-.23h0s0,0,.14.06a.49.49,0,0,0,0,.12s0,0,.07,0,0,.13,0,.23a.29.29,0,0,1,.06.27.34.34,0,0,1-.63-.11c-.07,0-.06,0-.13,0,0,.31,0,.59.31.64,0,.05.1.05.09.12s.2,0,.22.08a.14.14,0,0,0,.14,0,.23.23,0,0,0,.18.07s.07,0,0-.09.09,0,.15,0,.09-.17.19-.2a.38.38,0,0,0,0-.27c-.43.06-.58-.34-.34-.58,0-.32.07-.68.4-.57,0,0,0,.13.08.14m.07,1.9h0v0h.05v0M6,23.53a1.83,1.83,0,0,1,.16-.81c0-.51.32-.67.27-1.23-.11,0-.07-.2-.08-.23s-.08.14-.18.15l0,0h0c0-.11.1-.13.12-.24-.21-.07-.3.17-.59.09,0,0-.08,0-.09.07a.2.2,0,0,1-.13-.12.64.64,0,0,1-.32.05.71.71,0,0,1-.35.24,2.4,2.4,0,0,1-.44.46c0,.35-.36.24-.36.55.1,0,.08.08.2.05l0,0,0,0c0,.15-.12.14-.15.24s.42,0,.4.24a.36.36,0,0,0,.25,0c.09-.05.1-.11.21-.18S5,22.8,5,22.72s0,0,0,0,.06-.23.15-.29c0-.24.13-.28.26-.35s0,.14,0,.23.13.18.1.34a1.2,1.2,0,0,0-.28.51.66.66,0,0,1,.27-.08.46.46,0,0,1-.2.47,1.14,1.14,0,0,1,0,.38c0,.05-.11.06-.11.15s.08-.07.16-.06a.32.32,0,0,1-.13.42s0,.16,0,.14.07.06,0,.16-.2.23-.35.3.1.13.17.19A.77.77,0,0,0,5.4,25c.08,0,0,.09.13.09v.25a.46.46,0,0,0,.36.08c0-.06,0-.14-.06-.12,0-.15,0-.19,0-.36-.18,0-.22.09-.4.06,0-.14.12-.12.05-.25a.77.77,0,0,0,.3-.19c.09-.33,0-.83.22-1m-.83-.73c0,.17-.15.21-.08.33a.41.41,0,0,0,.14-.31s0,0,0,0-.07,0-.11,0m-.08,1.37s0-.05-.11-.05,0,.07.09.07v0h0v0c.07,0,0,0,.12,0v-.11c-.07,0-.06,0-.09,0v0h0M4,24.63c0,.09.08.05.06.13.24,0,.32.26.58.3a.62.62,0,0,0-.23-.53c-.09.09-.31,0-.41.1M4.56,24c.05,0,.07-.1.14-.11,0-.22.23-.21.22-.44-.1,0-.16.15-.21.21s0,0-.07.05,0,.12-.07.15a.42.42,0,0,1-.46.14c-.22-.09-.36-.4-.45-.67A.54.54,0,0,1,3,23.12v0H3c0-.06.07-.08,0-.18S3,23,3,23.1l0,0H3c.06.1,0,.29.12.34s-.07.11-.07.21.26.22.25.46c.16,0,.21.12.26.23a1.87,1.87,0,0,0,.56.07c.21,0,.32-.26.47-.32a.41.41,0,0,1,0-.16m1.68.42a.28.28,0,0,1,0,.14h.11v-.14H6.24m0,1.44H6.14a.06.06,0,1,0,.11,0m-.07.2c-.07,0,0,.08-.12,0s.22.12.27,0,.29.11.34,0c-.18,0-.39,0-.49-.09m.37-.14c0,.07.18.11.24.05s-.17,0-.24-.05M3.43,20.43v.07c.06,0,.12,0,.12-.07H3.43m0,.64s0,0-.19.07c0,0,.15.05.16,0v0h0A2.23,2.23,0,0,1,3.92,21c0-.09-.13-.08-.17-.15s.11,0,.14-.08a.22.22,0,0,0-.2-.1s0,.08,0,.11-.18,0-.22,0,.09.06.08.14-.08.08-.07.18l0,0M2.32,19.28s0,0,0,.07h.07v-.06H2.32M1,19.91V20h.05v-.07H1m.05.34c-.15.14,0,.42.05.57.13-.06,0-.18,0-.29s0-.06-.07-.05a1.77,1.77,0,0,0,0-.23M1,16.59c-.09,0-.13.1-.12.22s.06-.1.16-.08,0,0,0,0a4,4,0,0,0-.15.52c.18-.1.21-.37.27-.6-.12,0-.14-.05-.2-.08m-.3,1.28c0,.08,0,.09.11.09s0-.15,0-.13c.06-.11.18-.15.15-.34-.14.05-.14.21-.17.36s0,0,0,0m-.13,0a.19.19,0,0,0-.14.22c.06,0,.14-.09.14-.22M.3,20c0,.16.08-.12,0-.09s0,.11,0,.09m0-.91c.33,0,.11.55.22.76.08,0,.08-.09,0-.16s.11,0,.18,0a.61.61,0,0,0,0-.25c-.09,0-.07.05-.13,0s-.11-.33,0-.38a6.53,6.53,0,0,1,0-.88c0,.07-.15.07-.27.06a3,3,0,0,0-.1.85M.46,20c0,.09.06.05,0,.12s.05-.16,0-.12m.26.61h0s0,0,0,0v0h0c0,.06,0,.08.07.07a.15.15,0,0,0-.05-.07v0h0v-.18c-.06,0,0,.05-.07.07l0,0h0a.65.65,0,0,1-.15-.3c-.09,0,0,.27,0,.3A.53.53,0,0,0,.67,21c0-.14-.09-.18,0-.27-.09,0,0-.16,0-.16Zm0,.87a.25.25,0,0,0,.13.28.36.36,0,0,0,0-.25s-.07,0-.14,0m.27.78s0,.15.11.14,0-.12-.09-.14v0l0,0s0,0,0,0a1.7,1.7,0,0,1-.13-.21v.13c.07,0,.06.08.11.1l0,0H1v.07m.49.69c-.13-.05-.15-.2-.26-.28l0,0s0,0,0,0c0,.26.14.35.26.48Zm0-.83c.05,0,0-.13.08-.14-.09-.14-.07-.38-.23-.46,0-.15,0-.31-.1-.34v0a.18.18,0,0,1,0-.12s0,0-.07,0v.05s0,0,0,0h0l0,0v0c0,.39.24.58.28.94m.06.27c.15,0,.08.17.22.16,0-.17-.12-.24-.19-.36s0,.14,0,.2m.17-.9a1.31,1.31,0,0,0,.24-.28c.07,0,.09,0,.18,0,0-.15.05-.18.08-.27-.27,0-.47-.13-.72-.07,0,.14-.09.19-.08.34s.16.25.21.41c.06,0,.11,0,.09-.11m.41,1.73c.06,0,0-.09,0-.07s0,0,0,.07m.17,1s0-.21-.13-.2,0,.06,0,.13.12,0,.11.07m.09-.65a.35.35,0,0,0,.22.21,1.19,1.19,0,0,0-.08-.2H2.34m.15-.47c.19-.19.32-.44.5-.63H3v0a.49.49,0,0,1,.25-.06c0-.06-.07,0,0-.11A4.11,4.11,0,0,1,4,21.8v-.09c.16,0,.21-.22.41-.23a.28.28,0,0,1,.26-.22c0-.09.09-.14.21-.12s0-.09,0-.16a1.44,1.44,0,0,0,.49-.3c.19,0,.22-.12.39-.12,0-.13.05-.18.16-.17s-.09-.13-.08-.23c-.28,0-.41.12-.72.06-.08.13-.28.13-.37.24s-.24,0-.3-.06c-.11.09-.34.07-.39.23s0-.06.12,0,0,.05,0,.07-.14,0-.1.18a2.11,2.11,0,0,0,.3-.1c.07,0,0,.08.11.05A.28.28,0,0,0,4.6,21c0,.06-.07.05-.07.11-.32-.1-.48.09-.75.1,0,.06-.06.08-.07.14H3.5c-.12,0-.19.12-.34.12s-.24.14-.32.24c-.31,0-.33.25-.64.2,0,.09-.2,0-.28.1v.07c.17.1.48-.06.58.09s.38,0,.57,0c0,.06-.08.06,0,.16H3v0s-.21-.09-.25,0a2.62,2.62,0,0,0-.79-.07c0,.13.09.18.1.3s-.11.09-.2.1,0,.11-.07.13.09.06.1.12.09-.16.13-.24c.2,0,.26.13.26.32.1,0,.13.05.24,0m2.88,3.27a.53.53,0,0,0,.41.15c0-.1-.19-.09-.27-.15a.33.33,0,0,0-.08-.31l0,0v0h0s0-.1,0-.16c.16,0,.18.27.31.13s-.09,0-.13-.05,0-.06,0-.11c.17,0,.2.06.34.05,0-.09-.15-.06-.24-.07s-.24-.1-.31-.2c-.27,0-.53,0-.58-.22-.05,0-.15,0-.16,0l0,0h0c-.16,0-.18-.16-.26-.23s-.09,0-.07-.05a1.23,1.23,0,0,1-.29,0,1.05,1.05,0,0,0-.48-.29s0-.06-.07-.05,0-.13,0-.2c-.17,0-.3-.07-.33-.22s-.26-.05-.31-.15,0,.08,0,.12c.19,0,.18.22.3.3l0,0v0c-.17,0-.19-.14-.29-.22a.43.43,0,0,0,.31.33v-.11h0v0c.16,0,.21.12.35.15a.45.45,0,0,1,0,.2c-.08,0,0-.07-.09-.05a.1.1,0,0,0-.1.11c-.05,0-.13,0-.13.06s-.17-.2-.33-.21a.93.93,0,0,0,.34.37v0h0c0,.15,0,.15,0,0v-.05h0v-.11A.65.65,0,0,0,3.58,25c.08,0,.09.1.08.21a.39.39,0,0,0,.31.1c0-.09-.07-.05,0-.14a.47.47,0,0,1,.44.26l.34,0h.07s.11.06.08.16h0v0a.28.28,0,0,0-.14,0v0h0c-.12,0-.11-.16-.29-.13,0,.05,0,.13.06.12s-.06,0,0,.07c-.24,0-.43-.05-.49-.2s-.19,0-.2-.14-.15-.06-.2,0,.06.12.08.2c.21,0,.27.16.49.16s.27.23.23.46c.09,0,.07-.1.07-.18h.09c.08.05,0,.12,0,.18s.26-.16.37-.05,0-.1.09-.06c-.07-.14-.24-.17-.4-.22s0-.13.1-.16l0,0c.1.06.24.09.36.15,0-.12-.13-.1-.15-.19l0,0v0a1,1,0,0,1,.51.25.2.2,0,0,1-.14,0c0,.07.11.07.13.14l0,0v0H5.12c0,.18.26.1.3.24s0,.11,0,.09m.61.18c0,.07.14.07.11,0H6m1.12.09s.2,0,.23,0-.17,0-.23,0m.48-.05c0-.18.19-.07.21-.18-.14,0-.21-.06-.38-.08,0-.1.09-.11.14-.15s-.14,0-.2-.08,0,0,0-.07.08,0,.07-.11a.16.16,0,0,0,.16.08c0-.09.07-.05.05-.14-.19-.05-.25.08-.46.05,0,.07.1.11,0,.16s-.15,0-.25,0,0,0,0,0,.42,0,.49.13c-.22.21-.66,0-1,.08-.07-.08-.25-.06-.31-.15-.11.1-.2,0-.34,0,0,.25.37.12.46.27a.51.51,0,0,1,.52,0l.65,0c.08,0,.11.1.25.08m.21-1.35c.07,0,0,.06.08.07s.09-.2.19-.24,0-.27-.05-.3,0-.24-.06-.25c0,.18,0,.37-.15.45a2.44,2.44,0,0,0,0,.27m.48-.37a1.14,1.14,0,0,1-.11.56s-.07,0-.11,0c.09.17.37,0,.52,0l0,0,0,0c0,.09-.12,0-.1.11s.07.07.11.09,0-.08.05-.13h.12c0,.05.05.07.06.12s0-.17,0-.25H8.79l0,0,0,0c.11,0,.26,0,.24-.19-.22,0-.4-.16-.33-.38.09,0,.11,0,.2,0,0-.21-.36-.18-.46-.35-.12,0,0,.29-.15.33m.75.07c-.07.08.07.16.17.17S9.09,25,9,24.94m-.11,1H8.84V26s0,0,.07,0v-.05m-.5.16H8.34v.07h.07v-.07m-.24-.25c0,.06.15.07.11,0H8.17m0,.74c0,.07.1.07.07,0H8.21m1-.46s.07,0,.06,0H9.25v0H9.2l0,0c-.06,0-.17-.05,0,0l-.6.14s-.08,0-.12.06a.61.61,0,0,0-.24,0c-.07,0-.12.09-.23.08v.07c.17,0,.35,0,.41-.08a1.3,1.3,0,0,0,.85-.22l-.06,0h.13m-.07-.2c.2-.11.48-.13.62-.3-.15,0-.27,0-.29.13-.19,0-.25.1-.39.12s0,0,.06,0m.22-.31c.06,0,.12,0,.11-.06H9.4v.07m.71.21c0-.08.16,0,.16-.11h-.13s0,0,0,.11m.19-.92c0-.12.09-.16.08-.29L10,24.33c-.09,0-.06.18-.23.12a.32.32,0,0,1,0-.22s0-.07,0-.05-.05-.05-.06-.09a.9.9,0,0,0-.06-.25s0,0,0,0,0-.1,0-.14,0,0-.05,0,0-.07-.06-.07v-.14a.43.43,0,0,1-.15-.25c-.05,0,0,0-.11,0s0-.06,0-.13c-.19-.07-.18-.33-.37-.4,0-.07,0-.11,0-.2A.94.94,0,0,1,8.63,22c-.17,0-.22-.1-.34-.15s0,.13,0,.18S8.15,22,8.13,22s0,.06-.05.11c-.22.1-.09.34,0,.51s-.07,0,0,.09.07.15.17.17-.06.17-.14.2a.83.83,0,0,0,0,.4h.11c0,.14.29.1.31.26h.14a.52.52,0,0,0,.05-.27c-.05,0-.11-.19,0-.25s.12.15.21.19c0,.36.3.47.31.83h.23a.14.14,0,0,1-.07.15c0,.22.15.28.16.48.09,0,.13,0,.2,0a.69.69,0,0,0,.11.13.49.49,0,0,1,.45-.09m.59.18c0-.08-.07,0-.12,0s-.07,0-.07.13l.19-.08m0,.23s.09,0,.07-.05,0,.05-.07.05m0-.95a.41.41,0,0,1,.26-.2,2.34,2.34,0,0,1,.31-.32c0-.16.1-.17.14-.27s-.15-.09-.15-.21.18-.32.15-.47-.07.15-.07.2-.06.14-.08.18-.18.13-.3.24h-.25c0,.05,0,.16-.12.18,0,.22-.13.23-.21.33s-.29-.1-.5-.09a1.11,1.11,0,0,0,.46.45,2.07,2.07,0,0,0,.36,0m4.34-4.29c0-.1-.17-.06-.25-.1s-.13-.11-.2-.14h-.18c-.05,0-.08-.07-.18-.05a1.58,1.58,0,0,1-.61.11c0,.1-.1.11-.18.13a.48.48,0,0,1-.22.4.35.35,0,0,1-.1.27,1.23,1.23,0,0,1-.14.76c0,.39-.25.59-.33.93-.06,0,0,.13-.12.11,0,.3-.24.36-.29.62s-.19.31-.31.44.06.05.07.1a.37.37,0,0,0,0,.11c-.16.2-.27.45-.54.52a.23.23,0,0,1-.28.19l0,0s0,0,0-.06-.12.06-.14.13a.3.3,0,0,0,.14-.06l0,0s0,0-.06.24c.27,0,.26-.41.56-.3,0,.13-.12.19-.15.31s-.23,0-.21.15c.21,0,.33-.32.51-.23v0h0c.11,0,.34-.09.35-.27.06,0,.06-.1.14-.09.07-.22.28-.29.36-.5.07-.05.1-.13.19-.16s.18-.18.17-.37.16-.22.26-.31,0-.16,0-.25,0,0,.05,0,.09-.36.21-.44a.36.36,0,0,1,.15-.31c0-.12,0-.23.08-.27s0-.26.08-.31c0-.4.12-.66.13-1,0,0,0-.07.07-.08a.64.64,0,0,1,.47.06.53.53,0,0,1,0,.18c0,.17-.23.1-.33.24a.58.58,0,0,0,.19.32c.2,0,.29-.05.46-.05,0-.14.13-.14.16-.25a.84.84,0,0,0,0-.43c0-.07,0-.24.06-.24m-1.1-4.67v.07c.05,0,0,0,.07,0s0,0-.07,0m.62,1c0-.1,0-.12,0-.18a.16.16,0,0,0-.07.18h.11m.51,1.53c.12,0,.13,0,.18-.08s.21,0,.27,0a.45.45,0,0,0,0-.11c.16,0,.27,0,.4,0v0l0,0c0,.07-.06,0-.07.09h0v0a.38.38,0,0,1-.25,0V17.9c-.05,0,0,.17,0,.18S16,18,16.09,18v-.09h0v0c.05,0,.14,0,.14-.11h-.07l0,0,0,0v0c0-.08-.11-.05-.13-.12-.26.19-.35-.26-.1-.3a.49.49,0,0,1,.13-.38c0-.1-.22-.09-.26-.21v0h0A.75.75,0,0,0,16,16a.57.57,0,0,1-.27-.26c-.21,0-.28-.2-.51-.22a.79.79,0,0,0-.56-.16c0,.08,0,.1.07.14v.09c-.08.06,0,.25-.12.31h-.07c0-.05-.15,0-.2,0s-.07.26.1.28c0,.14,0,.26,0,.38h0s0,0-.13-.34c-.07,0-.08,0-.14,0v.05c-.05.06,0,.06.07.09s0,.1,0,.14,0,0,0,0,0,.2,0,.29c.25-.1.12-.24.12-.24h0l0,0c.11,0,0,.19.2.16a.65.65,0,0,0,0-.4c0-.06-.08-.07-.09-.1s0-.08,0-.11,0,0,0,0,.05-.11.07-.16h0l0,0c.08,0,0,.1.13.07s.07-.06.05-.15h.12c.06,0,0,.1,0,.16s.1.35,0,.38.1.06.13.1,0,.09,0,.11.06.06.06.07c0,.24-.08.59,0,.77s-.09.09-.08.2.1-.22.19-.29a3.22,3.22,0,0,1,.19-.73c.12.06.31,0,.38.08v0h0c0,.15-.06.18-.12.24s-.07-.08-.16-.07a.2.2,0,0,0,0,.14s0-.07.11,0c.21.37-.17.62-.26.94m.63.7c-.09,0,0,.06-.11,0s0,.09.1.08a.17.17,0,0,0,0-.12m-.11-.16h0v-.07h0v.07m-.36,0c0,.08.25.09.23,0-.12.06-.12,0-.23,0m2.08.67c0,.08.06.07.13.07s0-.09-.13-.07m.16-.63c.08-.09.09-.25.28-.24,0-.23.23-.27.31-.46a.57.57,0,0,0,.31-.06c0-.25.13-.3.16-.49h-.25c-.08,0-.07-.15-.08-.25l0,0v0h.05c.05-.05.05-.15.14-.16a.64.64,0,0,0-.05-.38c-.2-.07-.27-.26-.49-.31s-.35-.21-.44-.4c-.16,0-.19-.1-.33-.1s-.29.23-.53.25a.43.43,0,0,1-.34.14c-.14.19-.44.34-.28.65.1,0,.09-.13.17-.15-.06-.31.16-.33.24-.49a.21.21,0,0,0,.25-.13c0,.07.15.05.16.14s.08,0,.16,0,0,.13,0,.2,0-.07.14,0l0,0h0s0,.08,0,.09,0,0,.07-.05.22.13.28.24a.57.57,0,0,0-.08.31s0,0,.07,0l0,0h0c0,.37-.17.65-.48.73,0,.09-.06.19-.17.19,0,.16-.12.13-.14.25h-.27c-.09.07-.14.19-.3.19s0-.15,0-.11c-.09-.06-.2.07-.26.12s.09,0,.14.05,0,.28-.11.29c.07.16-.09.15-.07.32-.14.11-.44.06-.6.15.09.12.29,0,.43.06a.28.28,0,0,0,.09.1c-.2.12-.69-.08-.8.13.15.1.34.06.56.11v0h0c0,.06,0,.08.07.07s.19-.12.28-.17,0-.3.08-.38,0-.17,0-.16c.08,0,0-.18.07-.24a.53.53,0,0,1,.39-.15.65.65,0,0,1,.37-.21,1.34,1.34,0,0,1,.33-.3.12.12,0,0,1,0-.11c.07,0,.1-.09.18-.11.11-.28.43-.33.52-.64.05,0,.14-.12.21-.06v0l0,0c-.08,0-.05.19-.06.29a1.36,1.36,0,0,1-.55.71.57.57,0,0,1-.49.45v.07c.15,0,.24,0,.39,0m-1-1c-.1,0-.15.13-.28.14v.12h.11c0-.15.17-.12.17-.26m-.12-.35s0,.08,0,.14.15,0,.14-.13h-.11m.25,0a.23.23,0,0,1-.08.2c.08.05.16-.1.3-.05V17c.07-.19.33-.17.34-.42,0,0,0,0-.07,0-.22.11-.2.49-.49.52m.29-.64c-.1,0-.13.07-.12.17s.13-.06.12-.17m5.71,1.85c0-.08-.09,0-.13,0s.08.12.13,0M22.66,18v.07h.07V18h-.06m.12,3.87v-.07h-.07v.06h.06m.35-.1h-.07v.07h.06Zm.34-2.07a.23.23,0,0,1,.08-.11,6.45,6.45,0,0,1-.12-.66h0c.09-.07,0-.35.11-.4-.06-.05,0-.19-.11-.21s0,.06,0,.09-.08,0-.05.11a.24.24,0,0,1-.2,0c0,.07-.1,0-.16.06h0c-.07-.06-.21,0-.3,0a.58.58,0,0,1,0,.32,2.8,2.8,0,0,1,.28-.06c0-.11,0-.11,0-.2h0c.19,0,.38,0,.26.21h-.2c0,.09.22.07.27.15l0,0h0c0,.13-.22,0-.28.11s.08,0,.07.13a.28.28,0,0,1-.25.06c-.06,0-.05-.1,0-.18a.66.66,0,0,1-.26.15c0,.09.1.2,0,.38.11,0,.08.08.18.05v0h0c0,.09-.19,0-.27,0,0,.17-.06.52,0,.66-.1.26.06.68-.12.83,0,.08,0,.11,0,.18s-.12,0-.2,0l0,0h0c0-.06-.05-.06-.11-.07v.09h.11l0,0h0s0,.05,0,.09.07-.08.16-.06.13.18.31.17a.86.86,0,0,1,.14-.13.57.57,0,0,0,.54,0c-.05-.17.07-.4-.05-.52s.05-.07.05-.14a5.93,5.93,0,0,1,0-1.13m.39-.77c0-.05,0-.08-.06-.07v.06h.06m.36-.44a.2.2,0,0,1,0,.07h.05v-.07h0m.54.47c.16,0,.43.08.44-.1-.27.08-.52-.05-.84-.05,0-.05-.12-.08-.15-.14a.64.64,0,0,1-.2,0c0,.13.23.09.26.22h0l0,0c-.11,0-.08-.08-.2-.05s.18.12.17.27c.11,0,.22-.06.27,0,.08-.11-.08-.1-.11-.18l0,0v0a1.84,1.84,0,0,0,.4.06m.55.56c0-.11,0-.08,0-.18s-.08.05-.14,0,.06.11.11.14m-.24-.39c0,.08.31.07.34,0s-.25,0-.34,0m.46-.05c0,.06,0,.07.08.07a.28.28,0,0,0,0-.09c-.05,0-.06,0-.09,0m.26.28s0-.08.07-.07-.07,0,0-.09-.1.1-.21.08.1.07.18.08m0-.29s.06,0,.07,0h0v0C26,19,26,19,26,19s-.07,0,0-.09-.08,0-.07.11h0v0c-.05,0-.05,0-.07,0m.2,2V21c-.06,0-.06,0-.11,0s.05.06.11.07M26,20c.08,0,.07-.14,0-.1s0,.09,0,.1m.61-1.77c-.11,0-.1.19-.1.34s.08,0,.18,0c-.08-.09,0-.16.07-.2s-.08-.09-.11-.14l0,0h0s.09,0,.1-.09l0,0h0s.05,0,.05,0,0-.1,0-.07v0h0l0,0c-.07,0-.09,0-.14,0v.11m.19,1.52c.05-.07.12-.11.12-.22a.17.17,0,0,0-.11-.11,1.52,1.52,0,0,0,0-.37c-.05,0-.14,0-.14-.11h0v0s0-.05.07,0,0-.11,0-.13a.66.66,0,0,1-.25.05v.07c.05,0,.16,0,.14.05h0v0c0,.05-.1,0-.14.08s.07,0,0,.09v0h0c0,.08-.07.1-.09.17s0,.3-.06.27.06.09.07.16c-.11.3.09.64,0,.88s0,.24,0,.27-.07.08-.05.18.11.09.2.1-.1,0-.08.13a.4.4,0,0,0,.25.15s-.11.06,0,.11,0-.24,0-.36a1.09,1.09,0,0,1,.09-.43c-.12-.1,0-.34,0-.52s-.06-.34-.05-.5M27,17.9s.06,0,.11-.06v4.52a.91.91,0,0,1-.13-.26.27.27,0,0,0,0-.21c-.22-.09-.57.07-.69-.11.17-.66-.6-.45-.79-.77l0,0v0l.16-.09c0-.05,0-.18.07-.2a1.32,1.32,0,0,1-.1-.38l.14-.07a1.19,1.19,0,0,0-.1-.32s0,.06-.07.05-.19,0-.18-.1.3,0,.37-.12,0-.08,0-.09a3.61,3.61,0,0,1-.93,0c0-.15.14-.11.21-.15s0-.1-.09-.1c-.29.17-.72,0-1-.12,0,0,0-.12,0-.14h-.09a1,1,0,0,0,0,.27s-.11,0-.11,0,0,0,0,.11.2,0,.2.07a.83.83,0,0,1-.16.09c0,.23,0,.48,0,.74a3.82,3.82,0,0,0,.05,1c.15,0,.19-.08.35-.06a.51.51,0,0,1,.52-.25v0l0,0c-.12.09-.3.11-.37.26a.84.84,0,0,0-.46.34s0,.09,0,.14l-.14.13a6.1,6.1,0,0,1-1.29.06c-.11-.2-.35-.3-.5-.47a3.55,3.55,0,0,1-.78-.12c-.1.12-.3.08-.48.05s-.15-.14-.12-.32a.61.61,0,0,0,.27-.12.72.72,0,0,0,.67.22c0-.13.16-.12.28-.14s.11-.32.26-.38.12.18.24.21-.1,0-.07.14h.11a2.11,2.11,0,0,0,.12-.67h-.21c0-.09.09-.09.12-.15s.06-.17.1-.25a.28.28,0,0,0-.42-.26.26.26,0,0,1-.12.27.18.18,0,0,1,.06.16l-.21.08s.07.08,0,.18c-.24.08-.36-.1-.6-.09a.47.47,0,0,1,0-.18c-.2,0-.21-.23-.3-.37a6.76,6.76,0,0,0-.71-.16.24.24,0,0,1-.21.08c-.08-.14,0-.4-.12-.55-.1.08-.31,0-.45.06,0,.14-.1.17-.14.26s0,.2-.06.18a.3.3,0,0,1,0-.36c-.08,0,0-.22-.15-.23a.49.49,0,0,0-.12.31.78.78,0,0,1-.53.14.19.19,0,0,1-.2,0c-.06-.24.08-.67-.09-.8A.19.19,0,0,0,18,19c0,.18-.11.2-.15.31-.23,0-.38,0-.41.23a.82.82,0,0,1-.28,0c0-.19.21-.32,0-.43.1-.1,0-.28,0-.39s-.11-.05-.11,0-.08.35-.22.42c0,0,.12,0,.09.14s-.2.07-.3.1.13.09.13.21c-.18,0-.34-.08-.39.08a.48.48,0,0,1,.06.22h0l0,0c-.08,0,0-.11-.11-.14s-.18-.12-.24-.21a1.22,1.22,0,0,0-.73.2c0,.05.07.13.13.16s0,.13,0,.16c.19.1.12.43.14.68a3.75,3.75,0,0,1,.72.07c.07-.09.31,0,.38-.09a.28.28,0,0,1,.21.05,3,3,0,0,1,.36-.17c.23,0,.51.05.68-.11h.23c0-.17.26-.14.28-.33h0v0c.11.05.1.22.21.28s.22,0,.18.14-.16,0-.18,0,.11,0,.13.09.05,0,.09,0c.2.14.55.13.71.3s-.07.11,0,.13a.34.34,0,0,1,.18,0c0,.05,0,.17,0,.25h0v0a.48.48,0,0,0-.41.08s.07.16,0,.15,0-.07-.06-.07c-.27-.07-.39-.28-.58-.42a.44.44,0,0,1-.27.21c0,.15.25.1.26.26s-.05.07-.05.13a.19.19,0,0,1,.1.28.69.69,0,0,1-.32,0,2.15,2.15,0,0,0-.94-.65c0,.29.23.33.32.53s-.13,0-.21,0a.21.21,0,0,1-.18.13c-.06,0-.08-.06-.14-.07a.37.37,0,0,1-.23.19,2.8,2.8,0,0,1-.59-.49c-.09,0-.16-.07-.2,0a1.87,1.87,0,0,1,.26.3,1.58,1.58,0,0,0-.12.15c.05,0,.05,0,.06.05s0,0,.05,0,0,.13,0,.15h0c0,.11,0,.27.05.38-.2.05-.18-.27-.32-.35a.16.16,0,0,1-.18.06c-.27-.18-.36-.51-.75-.57,0,0,0,.15,0,.23s-.08.07-.14.09v0h0c-.07,0-.14-.05-.18,0,.11.08,0,.3.1.41s-.08,0,0,.09,0,.27-.08.31,0,.19-.14.18c0-.21.15-.51,0-.68a.63.63,0,0,0-.08-.41h-.18c0-.1-.11-.09-.06-.23s-.09-.08-.15-.11a1.9,1.9,0,0,0,0-.48c-.13,0-.15.11-.17.22s.12.21.1.39c-.08,0-.07.08-.18,0-.13.13-.07.25-.11.45s-.21.46-.34.68l.07.07c0,.08,0,.15,0,.23s0,.1.09.11.06.09.15.08c.09.24.36.3.5.49.19,0,.38,0,.46-.16a.79.79,0,0,0,.32-.08s0-.09.07-.11.1,0,.14,0,0-.06,0-.07.14,0,.19-.08,0-.16.07-.2-.06-.12-.18-.1,0-.11-.06-.18.1,0,.12-.06-.07-.08,0-.16.22,0,.4,0,.14.15.1.32a.26.26,0,0,1,.15.3c.07,0,.08.14.15.19s.15.08.2.14a.35.35,0,0,0,.16,0c0,.11.17.11.29.14s.16.14.24.21-.1,0-.07.12a2,2,0,0,0-.23,0s-.05-.07-.07-.07-.13,0-.17,0A1,1,0,0,0,16.3,24c0-.08-.12-.1-.16-.14s0,0-.06,0-.14-.23-.26-.26c-.2.13-.33.34-.61.38a.88.88,0,0,1-.55.25c0,.12-.16,0-.27,0A.5.5,0,0,0,14,24c-.13-.27-.45-.37-.45-.76-.07,0,0-.1-.11-.08s0,.13,0,.23c-.19.18-.29.46-.47.66,0,.07,0,.06,0,.13a1.12,1.12,0,0,0-.28.33,1,1,0,0,0-.43.44.29.29,0,0,0-.18.19c-.13,0-.16.14-.24.2s-.08,0-.11,0,0,.09-.07.11-.07,0-.09,0a.55.55,0,0,0-.14.17c-.36.12-.58.38-1,.46a.87.87,0,0,1-.41.19c-.09.15-.3.18-.42.3a3.1,3.1,0,0,0-.77.18c-.12,0-.24,0-.34.05a3.77,3.77,0,0,0-.71.11c-.09-.12-.33,0-.38,0a11.65,11.65,0,0,1-1.31-.05s0-.06-.06-.05a3.94,3.94,0,0,1-.81-.12c-.08-.14-.32-.13-.52-.15a6.56,6.56,0,0,1-1.1-.63H3.5a2.79,2.79,0,0,0-.66-.46.65.65,0,0,0-.33-.28c-.08-.23-.28-.34-.46-.47a.87.87,0,0,0-.39-.37c-.06-.21-.26-.28-.28-.53A1.37,1.37,0,0,1,.87,23a.35.35,0,0,1-.12-.32c-.07,0-.06-.09-.14-.09,0-.21-.17-.27-.11-.53-.08,0,0-.07-.07-.07h0a3.34,3.34,0,0,0-.1-.43l-.14-.44,0-.28L0,19.75a1,1,0,0,0,0-.18l.09-1,.28-1.16.37-1.05c.12-.06.16-.19.26-.27a.47.47,0,0,1,.2-.53c0-.07,0-.07,0-.14a1.42,1.42,0,0,0,.43-.64c.14,0,.16-.14.21-.19s.25-.14.28-.29c.25-.09.34-.36.6-.45s.44-.27.58-.5c.38-.08.59-.35,1-.44,0-.09.09,0,.07-.13.63,0,.87-.44,1.57-.37,0-.09.15-.06.25-.06s.23,0,.34-.05,0,0,.07-.05c.48,0,1,.05,1.53.06.1.08.32.06.47.08s.36.08.45.13.17,0,.2.08.16,0,.25,0c.32.19.72.31,1,.49s.57.42.95.53a4,4,0,0,0,.24.33.7.7,0,0,1,.42.35h-.05l0,0a.2.2,0,0,0-.26.1c-.21,0-.21-.12-.28-.19s-.15,0-.22-.1-.11-.12-.22-.14,0,.09,0,.11-.08,0-.05.12-.17,0-.16-.15-.18-.07-.31-.07.1,0,.06.13h0v0a.71.71,0,0,1-.4-.22l0,0V14c.09,0,.15.06.2,0s-.09-.09-.13-.14.05-.07.07-.11a.48.48,0,0,0,.22.08,1.47,1.47,0,0,0,.22.21c.07,0,0-.1,0-.14a.22.22,0,0,1-.18-.14.35.35,0,0,1-.26-.17h-.14c-.16-.15-.45-.18-.6-.34a1.76,1.76,0,0,1-.49-.15c-.12,0-.24,0-.29-.08-.21,0-.35,0-.37-.2s.15-.07.21-.12h0s0,0,.1,0,0-.08-.07,0l0,0h0a.19.19,0,0,1-.14-.07l-.2.06c0,.08.13,0,.08.16s-.19,0-.21.11.38.07.47.19h.16s.05.07.09.09c-.13.17-.38,0-.59,0,0,.1.21,0,.2.15l0,0v0a2.72,2.72,0,0,1-.42,0c-.08,0,0-.12,0-.2A1.62,1.62,0,0,1,7.69,13s.06,0,.07-.09a.53.53,0,0,0,.34,0c0-.11-.15-.07-.22-.08H7.59s0,0-.07.05c-.19,0-.41-.05-.59,0A.14.14,0,0,0,7,13c0,.09-.1,0-.11.09s.07.09.1.14-.35.12-.43,0l0,0,0,0c0-.06.19,0,.21,0s-.28,0-.43,0-.13.1-.2,0v0h0c.08-.12.32-.06.39-.19s.23,0,.28,0c-.1-.15-.37.11-.48-.06H6.09v0h0s0,0,0-.11H5.92a.16.16,0,0,0,0,.14h0v0H5.73c0,.09-.07.12-.14.15v0h0v0c-.42-.08-.49.22-.87.19,0,0,0,.07,0,.13s.13-.08.27,0l0,0,0,0a.55.55,0,0,1-.42.18.58.58,0,0,0-.1-.27v0h0c0-.06-.08,0,0-.11H4.16c0,.07,0,.07,0,.14-.22,0-.27.11-.46.12,0,.12-.07.17-.1.26s.15,0,.16.08a.53.53,0,0,0-.18.51c.1,0,.12-.09.23,0a.15.15,0,0,1-.15.18c0,.12-.12.1-.14.2s-.14.07-.27.05,0-.12,0-.11-.09.11-.23.06c0,.17-.22.22-.28.37H2.54c0,.2-.15.19-.17.35h.09v0h0v.13c-.15,0-.14.25-.32.24s0-.14,0-.22-.1.09-.2.08c0-.17.16-.29.26-.4-.17-.06-.27.2-.35.28s-.16.08-.14.22.09,0,.16,0-.06.22,0,.27H2a.21.21,0,0,1,0,.14,1.62,1.62,0,0,0-.31.51s-.07,0-.11,0c0,.17,0,.27-.15.31l0,0h0c0-.11.09-.1.07-.22a.87.87,0,0,0-.29.58c.1,0,.05-.17.19-.13a.43.43,0,0,1-.06.36,1.52,1.52,0,0,1-.23.69.7.7,0,0,1,.06.23l0,0v0c-.12,0-.16.09-.21.18l0,0h0c-.15,0-.1.3-.08.38s0-.11.07-.17h0l0,0s0,0,0,0c0,.19-.06.53,0,.68.09-.07,0-.28.06-.41s0-.06,0-.15.08-.3.08-.48l0,0v0c.07-.09.28,0,.39-.06s0,0,0,0,.32,0,.47,0,0,0,.05-.06S2,18.21,2,18.19c0-.23-.28-.24-.21-.55a.34.34,0,0,0-.24-.06l0,0h0c.06-.08,0-.25.15-.27,0-.25.08-.45.26-.53a.83.83,0,0,0,.09.16,1,1,0,0,0,.48-.12s0,0,0,.07a2,2,0,0,0,.21-.1c-.08-.2-.24-.32-.32-.51-.07,0-.1,0-.18,0s0-.11.07-.16l0,0s.14,0,.14,0-.09,0-.13,0v0h0c0-.19.2-.29.27-.44s0,.07.13.05.08-.1.07-.2a.36.36,0,0,1,.34.12.25.25,0,0,1-.26.15c.07.11.06.34-.08.36,0,.23.1.32.1.52.05,0,.12.1.06.14a.91.91,0,0,0,.55-.16c0-.11-.25-.05-.27-.17s.08,0,.1-.06.06-.1,0-.18.13-.14.21-.2,0-.25,0-.38.31-.15.55-.09c0,.14.14.22.21.34s.19.14.33.17v.12c.17,0,.15.15.24.21s-.1.08-.21.06,0,.08,0,.16c-.23,0-.46-.24-.28-.4,0-.08-.07-.15-.17-.16s.08.1,0,.18A.86.86,0,0,1,3.88,16c-.06,0-.07-.14-.15-.14.13.11-.07.47.18.5,0-.1-.08-.14-.06-.27h.09s.05.06,0,.12c.17,0,.12.13.29.1l.09.16c0,.09-.1.1-.21.08s-.06.09-.07.16-.16-.07-.25-.1a.24.24,0,0,0,.11.16c0,.07-.08,0,0,.13s-.08,0-.16,0a.68.68,0,0,1,.28.48c.16,0,.3,0,.26.24.1,0,.12.13.13.25l0,0v.05h0a.52.52,0,0,0-.45-.21c0-.09-.13-.08-.24-.08v0h0c-.08-.09-.12-.23-.23-.3h0l0,0h0c-.06-.12-.2,0-.28.05a.71.71,0,0,0-.33-.12c0,.12.16.09.2.19.38-.05.45.2.75.23h.05c0,.11.18.16.14.36.12.11.36.09.4.27a.71.71,0,0,1,.31.19c-.34.07-.5-.22-.85-.21-.13-.12-.31-.31-.53-.27.07.08.19.09.33.15s0,.13,0,.2H3.34s0,0,0-.07-.19,0-.22-.08c-.33.05-.34-.19-.63-.18a.17.17,0,0,0-.18-.07c0,.07.1,0,.09.11a.39.39,0,0,1-.21.15,1.16,1.16,0,0,0,.83.12c.16.23.67.07.8.35a.27.27,0,0,1,.36.08c.14,0,.39,0,.43.08l0,0v0H4.47s.11,0,.09.14-.11,0-.12.06c-.2-.12-.64,0-.76-.23a2.58,2.58,0,0,1-.89-.15s0,.05,0,.05v0h0c-.33-.12-.9-.21-1.15,0a.55.55,0,0,1-.13.33c0,.19,0,.35-.15.38,0,.24-.09.33-.09.56.06,0,.19.15.07.18.11.16.33.21.29.51.27,0,.34-.17.62-.14,0-.09.12-.06.09-.17s0,.07-.15,0-.29-.12-.4-.2,0-.14,0-.16.19-.13.21-.28.08,0,.12,0a1.21,1.21,0,0,0-.33-.49.46.46,0,0,1,0-.22C1.81,19,2,19,2,18.82a4.91,4.91,0,0,1,.68-.06v0h0c.08,0,.13.1.2.14s-.16.06-.23.06-.27-.07-.38,0,0,.07,0,.11.23.08.36.1.16.12.17.24c-.16,0-.26.08-.43.07a1.85,1.85,0,0,1,0,.23c.13,0,.19,0,.2.14h.25c.34.21.67-.07,1.08-.05a.94.94,0,0,1,.52,0c0,.24-.38.15-.5.3S3.74,20,3.57,20c0,.06,0,.12,0,.15a.59.59,0,0,0-.48.17c.07.07.13,0,.18-.06a1.71,1.71,0,0,0,.32,0s0,0,0-.05.16,0,.21,0,0,0,0,0,.16,0,.22,0,0,0,0-.05.23,0,.22-.06.19.09.22.19,0-.07.09,0a1.34,1.34,0,0,0,0-.2c.43.08.54-.18.87-.2.06-.07.11-.17.23-.19v-.25c-.14,0-.29,0-.41,0s0,0,0,0-.35-.09-.4-.15h0v0h0c0-.19.33-.07.37-.24s.19.07.32.08,0,.07,0,.14A.67.67,0,0,0,5.91,19c0-.14.09-.14.06-.29s-.12-.13-.2-.19,0-.1,0-.16a.3.3,0,0,1,.25.08c0-.06,0-.09,0-.11s.11.08.17.12.23,0,.32-.06c-.07-.15-.29,0-.43-.08s-.1-.17-.21-.21a.31.31,0,0,1,0-.25c0-.1-.08-.14-.06-.27H6l0,0h.07a3.75,3.75,0,0,0,.45.65c.07,0,.07,0,.13,0,0-.14-.09-.14-.12-.23s0-.26.08-.31c-.09-.13,0-.4-.1-.55s.09-.08.12-.13c.11.11.26.19.33.33-.1.12,0,.32,0,.5s-.12.08-.14.17.25.11.38.11,0,.09.13.07a.18.18,0,0,1,.1-.27c0-.2.07-.28.13-.42s0,0,0-.07a.56.56,0,0,0,.06-.36c.09-.06.08-.24.19-.29s0,0,.09,0,0,.39,0,.59a1.29,1.29,0,0,0-.15.8c.06,0,.07,0,.14,0s0,0,0,0a5.55,5.55,0,0,0,.24-.56s0-.05,0,0v0h0v0c.16-.23.3-.49.48-.7h.16c0,.15,0,.24-.15.27-.09.33-.39.46-.46.82-.07,0,0,.08-.07.13s-.11.08-.07.18.08.11.17.12.11-.12.17-.18.14,0,.15,0a.15.15,0,0,0,.12-.1c.31-.05.38-.36.63-.48,0-.1.08-.09.09-.17.24,0,.25-.26.47-.28,0-.1.08-.13.09-.22s.06,0,.12,0c0-.3.13-.35.18-.54.08,0,.09-.07.2,0s0-.17.08-.2-.11.12-.23,0,0,.06,0,.07a.52.52,0,0,0-.17.19,1.35,1.35,0,0,0-.5.32.42.42,0,0,1-.25-.12c-.1.07-.25.08-.32.17s-.09-.08-.06-.18-.13.1-.28.06c0,0,.05,0,.05-.05,0-.2.08-.39.25-.48,0-.18.13-.37.26-.36l0,0h0s.07,0,.07,0h0v0a1.18,1.18,0,0,0,.33-.48c-.05,0-.05,0-.11,0-.05.18-.24.22-.25.44h0v0s0,0,0,.05l0,0h0s0-.11-.05-.09c.09-.08.09-.24.2-.29s-.08-.05,0-.13.13-.33.41-.26c0-.1,0-.13,0-.23.18-.06.35-.13.37-.37-.16-.17-.43-.23-.59-.4.37-.06.6.19.82.34.17,0,.28,0,.24.22-.08,0-.09-.08-.2-.06s.16.09.17.19c0-.05.09-.05.16,0s.12,0,.16-.08.07.12,0,.13a.32.32,0,0,0,.2.1c0,.11,0,.16.13.14s0,.1,0,.18.07-.06.15,0a1.77,1.77,0,0,1,.5.56c0,.07-.08,0-.05.11s.13,0,.21,0a.74.74,0,0,1,0,.18c-.14,0-.14-.08-.27-.05a.71.71,0,0,0-.08.31c-.06.11-.22.11-.22.29a1.3,1.3,0,0,1,.7.16.21.21,0,0,0,.14-.07c0-.05,0-.09-.07-.09s-.06-.15-.06-.14,0-.16-.06-.18.07,0,.05-.09a.93.93,0,0,1,.51.77c.06,0,.08.06.13.07s0,.21.09.23c0,.19.16.18.12.39.09,0,.05.18.12.23s0,.14,0,.2.11.2.12.25,0,.26.1.37a.44.44,0,0,0-.07.17,2.85,2.85,0,0,1,.34.49c.07,0,.08,0,.16,0s0,.05,0,.07.17.1.27.14a2.67,2.67,0,0,1,1-.3c0-.16,0-.28.17-.26a.94.94,0,0,1-.07-.55c-.09,0,0-.08-.11-.07v-.27a.18.18,0,0,0-.11,0c0-.08-.15,0-.16-.11s-.24,0-.29-.08a.37.37,0,0,1-.25.06c-.06.28,0,.63.32.62.06.3-.2.27-.33.37h-.07c-.09,0-.14-.11-.22-.15a.4.4,0,0,0-.15-.27,3.67,3.67,0,0,1,0-.52s0,0,.05,0a.66.66,0,0,0,0-.14c0-.05,0,0-.05-.05s0-.14,0-.18,0,0,0,0,0-.18,0-.27-.11-.28-.24-.35,0-.26-.12-.3a.52.52,0,0,0,0-.18c-.08,0-.07.07-.14.07s-.14-.18-.17-.3l0,0,0,0c.08,0,0,.11.13.09A.33.33,0,0,0,13.2,16v.07h0l0,0c-.18,0-.16-.27-.35-.31,0,.07,0,.07,0,.14h0l0,0c-.07-.05-.15-.09-.15-.21s.08-.07.16-.06a.52.52,0,0,0-.13-.28s.06-.09.12-.1-.11-.17-.17-.26-.11.11-.25.06v0l0,0s0-.06-.07-.09,0,.11,0,.09l0,0h0v.16c-.17,0-.16-.16-.31-.17a.11.11,0,0,1,0-.12l0,0v0c.05,0,.14,0,.12.05s0-.07.09-.05c-.1-.1-.16-.24-.26-.34a.6.6,0,0,1,.19-.16v0h0l0,0s0,.06,0,.07,0-.07.09,0,.15.12.15.25c.2,0,.2.28.37.35,0,.07,0,.07,0,.14s.1.16.19.21.07,0,.14,0a.27.27,0,0,0,0,.22.35.35,0,0,1,0,.12s.11,0,.14.07,0,.1.06.14.2.1.22.19.24.09.25,0h-.14c0-.15.08-.17.15-.23s-.1,0-.09-.11a.38.38,0,0,1,.21-.31,1,1,0,0,1,.52-.52v-.09a.47.47,0,0,1,.56.2.35.35,0,0,0,.16,0c.06.16.24.22.48.22a.24.24,0,0,0,.2.14v.18c.12,0,.18.09.26.15a.37.37,0,0,0,.06-.25c.11,0,.14-.16.3-.15s.12-.14.27-.12c.11-.23.42-.24.67-.32.42.26.64.7,1.14.88,0,.1.09.08.06.2s.1.13.15.19a.43.43,0,0,0,.29,0c.06,0,.11,0,.16,0s0,0,.05,0c.28-.05.66.05.81,0,.18.09.51,0,.46.33.2.13.22.41.32.62,0,0,.11,0,.16.1a1.85,1.85,0,0,0,.06.2h0c0,.06.06.26.06.26s0,.14-.07.15a1.11,1.11,0,0,1-.19-.41c-.13,0-.17-.1-.2-.21-.22-.11-.32-.33-.48-.49a1,1,0,0,1-.58-.18c-.15.12-.48.06-.74.06-.07.07-.2.19-.13.33s.15-.07.21-.12a.56.56,0,0,0,.36-.06c.07.11.25,0,.29.12s-.22,0-.21.15.16,0,.14.06-.13,0-.12.13.14,0,.2,0,.08.12.18.14,0-.11.07-.09l0,0h0v.12c.12,0,.15-.05.23-.06s-.07.16,0,.2.07-.11.07-.2.05-.06.12,0,.07.11.08.18c.27.05.07.41-.08.43s-.07-.1-.11-.14a.46.46,0,0,0-.45.07c0,.27-.32.09-.39.21s.13,0,.11,0-.15.13-.19.22c-.36-.06-.39.24-.69.25,0-.1.1-.12,0-.18s-.17.16-.3.1.11-.07,0-.11,0,.32-.26.26c0-.08,0-.15-.06-.16s-.2.06-.19.22h.18c.12.14.26.1.48.08,0,0,0,.15,0,.18s.07-.09.14-.1a.66.66,0,0,1,.22.12.44.44,0,0,1,.39-.19v0s0,0,0,.09.06,0,.09,0,0-.06,0-.09l0,0v0c0-.1.15,0,.22,0s0,0,0-.09a1.06,1.06,0,0,1,.34.15l0,0h0c0,.08-.08.07-.1.11s-.07-.05-.11-.07-.1.18-.21.2.06,0,0,.07.19-.09.23,0A.29.29,0,0,1,20.2,19c.14-.18.49-.13.71-.23s.08.09.18.08,0,.11,0,.11.06-.07.09-.11c-.14,0-.12-.16-.24-.19s.32-.11.45-.07-.06,0-.05.11.09,0,.16,0,0,.19-.05.2a.86.86,0,0,0,.13.14c-.13.1.09.2,0,.34h-.07c-.14,0-.11.1-.25.05v.07c.08,0,.22,0,.25-.08h.07c.17,0,.26,0,.28.17s.07-.09.05-.15,0,0,0,0,0-.16,0-.18,0,0,0,0,0-.12,0-.16,0,0,0,0,0-.15-.07-.11a.56.56,0,0,0-.12-.3c0-.09,0-.12,0-.21s-.15-.06-.2-.12-.28.22-.45.17,0-.07-.11-.07-.05-.06,0-.12c-.13.12-.34.14-.42.3-.06-.06-.13,0-.14.09h0v0h0v-.18c.11,0,.19-.08.17-.26,0,0,.13,0,.13,0s0-.12,0-.16.15-.33.3-.28.08.26.19.32a.34.34,0,0,0,.26-.3c.09,0,0,.09.09.11s.15,0,.22.08v0h0s0,.12,0,.12.15,0,.23-.06,0-.27.21-.24c.07.21-.2.35,0,.47,0-.1-.06-.07,0-.16s.19-.14.21-.29.13,0,.12-.08-.15,0-.14-.07.3-.13.31-.33a3.38,3.38,0,0,1,1.15,0c0,.18.1.29.12.46a1.93,1.93,0,0,1,.35.35.68.68,0,0,0,.4.1c.08.14.29,0,.43.09s0,.11,0,.11.09,0,.08-.11a1.93,1.93,0,0,0,.7-.06v0h0v.07c.08,0,.22.05.18-.09-.05,0-.08,0-.16,0v0l0,0a1.67,1.67,0,0,0,.45-.39v-.42c.05,0,.07,0,.07-.07h.27a.28.28,0,0,1,0-.14h.27c.08-.1.2-.16.18-.37,0-.06.09-.13.14-.18v.95h0v0s0,0-.06,0l0,0h0c0-.07-.07,0,0-.09s0,.06-.12,0,0-.17,0-.25-.08,0-.12.06.15.2.12.39c.12,0,.1-.1.17-.13v0h0v.13M15.28,22.28c-.08,0,0-.1-.14-.09v0h0c-.13,0,0,.11,0,.14s0,.19.06.2h.07s.05,0,0-.06,0-.14,0-.21m1.07-2.38,0,0a6.51,6.51,0,0,1,.06.73c.19-.08.19-.68,0-.75ZM20,17.14l0,0c.07,0,.08,0,.16,0,0-.14-.11-.15-.22-.12v.11Zm-14.57-4c-.21-.08-.36.05-.5.12l0,0v.05c.18-.05.4,0,.48-.19m.07-.09c.05.05.07.12.15.14s.27-.07.39-.12v0c-.12-.08-.34,0-.45,0v0h0s-.05,0-.05,0m4.29.63c0,.12.2.1.24.21h.09v0l0,0c0-.16-.2-.13-.3-.19l0,0h0M12.91,16c-.06,0-.05-.05-.11,0v0l0,0a.12.12,0,0,0,.13.09.57.57,0,0,0,0-.13m-7.2,1.09c-.15,0-.15-.14-.26-.17s0,.2,0,.29.09.08.18.08l0,0h.05c0-.09,0-.11,0-.18m-.88,2S4.77,19,4.7,19s-.07,0-.07.05v.09a1,1,0,0,0,.18,0v0h0m.26-1H5a.56.56,0,0,0-.51-.16v0l0,0c0,.11.2.1.24.21h.11a.84.84,0,0,0,.57.32.31.31,0,0,0,0-.23.28.28,0,0,1-.31-.19h0v0m-3.71-.34c.07,0,.13-.06.12-.18h0l0,0s-.12.13-.05.2m.77-1.91s0-.08-.09-.07-.07,0-.09.06v0H2v0c.06,0,.14,0,.14-.06m1-1.1c0-.07.08,0,0-.11H3.07c-.15.17-.37.29-.49.5h.2a1.28,1.28,0,0,1,.38-.42m1.39,7.73c0-.09.07-.09.07-.18s-.38,0-.41.19l0,0v0c.14,0,.17-.09.32-.08m1.57-1,0,0a.48.48,0,0,0-.25.47H5.9l0,0a.53.53,0,0,0,.24-.46Zm4.93-4.08c0,.07.2.07.18,0l0,0v0c-.1,0-.13,0-.16.1m6.35-1.35c.1,0,.08-.14,0-.13s-.08,0-.07.11h0Zm5.83,3.62s0,0,0-.09-.19,0-.21,0h0c0,.13.18.07.21,0M1.07,23.09a.34.34,0,0,0,0-.15h0s0,.1,0,.15m8.47-8.94c0-.08,0-.1,0-.18s.1,0,.09,0-.22,0-.27,0,0-.07,0-.11-.08-.1-.2-.08c0,.19-.17.14-.27.19a.15.15,0,0,0,.12.19h.05s.08,0,.12,0c-.12,0-.13.05-.13.05l0,0c-.1.1-.08.32-.21.38s.07.06,0,.16-.08,0-.12,0v0l0,0c0,.16.1.25.19.16v.11a1,1,0,0,1-.52,0h0v0c0,.06-.16.16-.06.22-.1.07-.21.39,0,.39a5.39,5.39,0,0,1,0,1c-.15.13-.1.46-.27.57v.18c.22-.13.24-.49.41-.68a.14.14,0,0,0,0-.14c0-.07.08-.08.13-.11s.05-.26.13-.33a1.31,1.31,0,0,1,.18-.49l0,0c0-.06,0-.13,0-.18s.17-.23.15-.4.2-.27.22-.49c.25,0,.14.38.3.48.1-.24-.07-.41,0-.67,0,0-.09,0-.09,0s.08,0,.09-.09m-.86.58,0,0c0-.18.1-.22-.06-.27-.06.1-.08.25-.17.33s0-.09-.11-.07,0,.11,0,.2h0v0s.1,0,.16,0,0-.14.14-.13Z"/></g></g></svg>