<svg xmlns="http://www.w3.org/2000/svg" viewBox="0 0 540.01 5.34"><defs><style>.cls-1{fill:none;}.cls-2,.cls-3{fill:#7c6742;}.cls-3{fill-rule:evenodd;}</style></defs><title>Asset 19</title><g id="Layer_2" data-name="Layer 2"><g id="Layer_1-2" data-name="Layer 1"><path class="cls-1" d="M535.85,5a6.49,6.49,0,0,0,1.39,0c.15-.09-.08-.11-.19-.18h-.87a12.72,12.72,0,0,1-1.83.08,3.87,3.87,0,0,0-1,0c.41.12,1.62.05,2.15.13C535.73,5,535.54,4.94,535.85,5Z"/><path class="cls-1" d="M29.25.44h.08a3,3,0,0,1,.4-.12C29.43.32,29.2.35,29.25.44Z"/><path class="cls-1" d="M536.67,5.24l-.13,0a7.25,7.25,0,0,0,1.67,0c.1-.2-1.05-.09-1.59-.09Z"/><path class="cls-1" d="M33.12,4.85a12.56,12.56,0,0,1-1.83-.08h-.88c-.11.07-.33.09-.18.18a6.49,6.49,0,0,0,1.39,0c.3,0,.11.07.36.06.53-.08,1.74,0,2.15-.13A3.81,3.81,0,0,0,33.12,4.85Z"/><path class="cls-1" d="M30.84,5.2c-.54,0-1.69-.11-1.59.09a7.23,7.23,0,0,0,1.67,0l-.13,0Z"/><path class="cls-1" d="M29.73.32l1.11,0-.05,0,.13,0a6,6,0,0,1-1.59,0,3.29,3.29,0,0,0-.69.37A26,26,0,0,0,31.4.68,1.62,1.62,0,0,0,29.73.32Z"/><path class="cls-1" d="M41.86.72c1.4,0,1.5,0,0,0Z"/><path class="cls-1" d="M536.62.35l0,0-.13,0a7.25,7.25,0,0,0,1.67,0C538.31.24,537.16.35,536.62.35Z"/><path class="cls-2" d="M29.25.44c-.05-.09.18-.12.48-.12A1.62,1.62,0,0,1,31.4.68c.65-.08.85-.18-.11-.26L31.21.35c.86-.08,1.83,0,2.7,0a12.51,12.51,0,0,0,2.7-.1s-.11,0-.08-.06A2.35,2.35,0,0,1,35.43,0H33.92a.7.7,0,0,1,.21,0c-.41.12-1.62,0-2.15.13-.25,0-.06-.08-.36-.06a6.49,6.49,0,0,1-1.39,0c-.08,0-.06-.07,0-.1H29.4s0,.08,0,.12h-1.8V.29l.2,0a4,4,0,0,0,.63.13c-1.28.28-.76.39.22.41a3.29,3.29,0,0,1,.69-.37Z"/><path class="cls-2" d="M38.14,0H36.7C37.19,0,37.69,0,38.14,0Z"/><path class="cls-2" d="M34.6.67A20.19,20.19,0,0,0,36.76.46,7.32,7.32,0,0,0,34.6.67Z"/><path class="cls-2" d="M35.8,5.34h.75s.06,0,.21,0A2.7,2.7,0,0,0,35.8,5.34Z"/><path class="cls-2" d="M30.92.41l-.13,0,.05,0-1.11,0a3,3,0,0,0-.4.12A6,6,0,0,0,30.92.41Z"/><path class="cls-2" d="M32.65.61c1.06,0,0-.17,0,0Z"/><path class="cls-2" d="M538.82.77c-1.24,0-1.89,0-3.06,0,.06,0,.22,0,.19.06-1.2,0-2.4.06-3.61,0a13.19,13.19,0,0,0-1.49,0c-.28,0-.68.05-1.29.05-.21,0-.14,0-.29,0-1.08,0-2.7.05-3.53,0-.53.06-2.12.12-2-.11l1.21,0h0c1.56,0,3.13,0,4.52,0,0-.14-1.28,0-1.4-.09-.38.08-1.43,0-2,.07-.33-.07-.66-.15-1-.22h0v0s.33,0,.35-.06c.32.06,1.09,0,1.68,0a26.51,26.51,0,0,1,2.87,0c.2,0,.34-.08.25-.17-.29,0-.22,0-.36,0a19.79,19.79,0,0,0-2.24,0c-.38,0-.64-.09-.94-.08A.56.56,0,0,1,527,0H40.49a.51.51,0,0,1,.23.07c-.3,0-.56.07-.94.08-.86,0-1.76-.06-2.6,0-.08.09,0,.14.25.17a26.7,26.7,0,0,1,2.88,0c.58,0,1.35,0,1.67,0,0,0,.31,0,.36.06v0h0L41.29.61a21.91,21.91,0,0,0-3.35,0c1.75.06,3.07.09,3.92.09,1.5,0,1.4,0,0,0-.78,0-2,.05-3.67.12-2.2.09-4.47,0-6.68,0A.83.83,0,0,0,31.4.68a26,26,0,0,1-2.76.13,2.28,2.28,0,0,0-1.05,1.86H540V.82h-.9S538.69.84,538.82.77Z"/><path class="cls-2" d="M416.28,4H27.59v.8l.51,0h1.3s0,.08,0,.12h-1.8v.15l.2,0a4,4,0,0,0,.63.13l-.4.09h3.77a3,3,0,0,0-.5-.07l.05,0-.13,0c.78-.07,1.68.08,2.51,0,.1,0,0,0,.19,0a12.51,12.51,0,0,0,2.7-.1S36.5,5,36.53,5a2.26,2.26,0,0,1-1.1-.13c.18,0,.27-.05.48-.06a16.28,16.28,0,0,0,3.15,0h.54c.33.06,1,0,1.12.15-.3,0-.56.07-.94.08a19.79,19.79,0,0,0-2.24,0c-.14,0-.07-.06-.36,0-.08.09,0,.14.25.17a26.7,26.7,0,0,1,2.88,0c.58,0,1.35,0,1.67,0,0,0,.4,0,.36.08l-.5.1h.76l0-.12a7,7,0,0,0,.81,0l.38.09v0H501.39l-.05-.11.72,0,.37.09v0h21.23v0l.37-.09a7,7,0,0,0,.81,0l0,.12h.76l-.5-.1c0-.06.33,0,.36-.08.32.06,1.09,0,1.68,0a26.51,26.51,0,0,1,2.87,0c.2,0,.34-.08.25-.17-.29,0-.22,0-.36,0a19.79,19.79,0,0,0-2.24,0c-.38,0-.64-.09-.94-.08.08-.11.8-.09,1.12-.15h.54a16.28,16.28,0,0,0,3.15,0c.21,0,.31,0,.48.06a2.26,2.26,0,0,1-1.1.13s-.08,0-.08.07a12.58,12.58,0,0,0,2.71.1c.21,0,.08,0,.19,0,.82.08,1.72-.07,2.5,0l-.13,0,0,0a3,3,0,0,0-.5.07h3.77l-.4-.09a4.43,4.43,0,0,0,.64-.13,2.68,2.68,0,0,1,.33,0V5h-1.93s0-.08,0-.12h1.3a6.26,6.26,0,0,1,.65-.06V4Zm-387,1.29c-.1-.2,1.05-.09,1.59-.09l-.05,0,.13,0A7.23,7.23,0,0,1,29.25,5.29ZM32,5c-.25,0-.06-.08-.36-.06a6.49,6.49,0,0,1-1.39,0c-.15-.09.07-.11.18-.18h.88a12.56,12.56,0,0,0,1.83.08,3.81,3.81,0,0,1,1,0C33.72,5,32.51,4.94,32,5Zm506.23.27a7.25,7.25,0,0,1-1.67,0l.13,0,0,0C537.16,5.2,538.31,5.09,538.21,5.29Zm-3.86-.44a12.72,12.72,0,0,0,1.83-.08h.87c.11.07.34.09.19.18a6.49,6.49,0,0,1-1.39,0c-.31,0-.12.07-.37.06-.53-.08-1.74,0-2.15-.13A3.87,3.87,0,0,1,534.35,4.85Z"/><path class="cls-2" d="M534.81.61a.13.13,0,0,1,0-.06,3.43,3.43,0,0,0-.56,0C534.2.63,534.52.61,534.81.61Z"/><path class="cls-2" d="M530.77,0h-1.45C529.77,0,530.27,0,530.77,0Z"/><path class="cls-2" d="M530.7,5.31c.15,0,.21,0,.21,0h.75A2.7,2.7,0,0,0,530.7,5.31Z"/><path class="cls-2" d="M530.72.62a11.88,11.88,0,0,0,2.15.05s0-.07,0-.11c-.28,0-.71,0-1.11,0,0-.11-.65-.16-1-.09C531.2.48,530.66.57,530.72.62Z"/><path class="cls-2" d="M540,.31V.14h-1.93s0-.08,0-.12h-.82s.07.05,0,.1a6.49,6.49,0,0,1-1.39,0c-.31,0-.12.07-.37.06-.53-.08-1.74,0-2.15-.13a.78.78,0,0,1,.21,0H532a2.26,2.26,0,0,1-1.1.13s-.08,0-.08.07a12.58,12.58,0,0,0,2.71.1c.21,0,.08,0,.19,0,.82.08,1.72-.07,2.5,0l-.13,0,0,0a2.42,2.42,0,0,0-.81.17s.1,0,.1,0a10.67,10.67,0,0,0,1.4,0,8.14,8.14,0,0,0,1.11,0,11.33,11.33,0,0,1,2,0V.55h0a4.38,4.38,0,0,1-1-.15,4.43,4.43,0,0,0,.64-.13A1.49,1.49,0,0,1,540,.31Zm-3.47.1.13,0,0,0c.54,0,1.69-.11,1.59.09A7.25,7.25,0,0,1,536.54.41Z"/><path class="cls-3" d="M9.09,5.34H8.34a2.77,2.77,0,0,1,1,0c-.15,0-.21,0-.22,0m47.64,0H56s-.06,0-.21,0a2.7,2.7,0,0,1,1,0M83.82,4v.8l-.52,0H82s0,.08,0,.12h1.8v.15l-.2,0a4.43,4.43,0,0,1-.64.13l.4.09H79.61a3,3,0,0,1,.5-.07l0,0,.14,0c-.78.2-20.56.13-21.38,0-.11,0,0,0-.19,0a12.58,12.58,0,0,1-2.71-.1S56,5,56,5a2.26,2.26,0,0,0,1.1-.13c-.18,0-.27-.05-.48-.06a16.28,16.28,0,0,1-3.15,0h-.54c-.32.06-1,0-1.11.15.29,0,.55.06.93.08A19.79,19.79,0,0,1,55,5c.14,0,.07-.06.36,0,.09.09-.05.13-.25.17a26.73,26.73,0,0,0-2.88,0c-.58,0-1.35,0-1.67,0,0,0-.4,0-.36.08l.5.1h-.76s0-.08,0-.12a7,7,0,0,1-.81,0l-.37.09v0H16.35v0L16,5.21a7,7,0,0,1-.81,0l0,.12h-.76l.5-.1c0-.06-.33,0-.36-.08-.32.06-1.1,0-1.68,0a26.51,26.51,0,0,0-2.87,0c-.2,0-.34-.08-.25-.17.29,0,.21,0,.36,0a19.67,19.67,0,0,1,2.23,0c.38,0,.65-.09.94-.08-.08-.11-.79-.09-1.11-.15h-.54a16.37,16.37,0,0,1-3.16,0c-.21,0-.3,0-.47.06A2.24,2.24,0,0,0,9.08,5s.08,0,.08.07a12.58,12.58,0,0,1-2.71.1c-.21,0-.08,0-.19,0-.82.08-1.73-.07-2.51,0l.14,0-.05,0a3,3,0,0,1,.5.07H.57L1,5.25a4.43,4.43,0,0,1-.64-.13,2.68,2.68,0,0,0-.33,0V5H1.93s0-.08,0-.12H.65c-.21,0-.43,0-.65-.06V4ZM3.39.35l-.06,0,.14,0a7.32,7.32,0,0,1-1.68,0C1.69.24,2.85.35,3.39.35m1.82.2a.13.13,0,0,1,0,.06c.28,0,.61,0,.57-.06a3.43,3.43,0,0,0-.56,0M9.28.62c.07-.05-.47-.14,0-.16-.39-.07-1.07,0-1,.09-.4,0-.83,0-1.11,0,0,0,0,.07,0,.11A11.74,11.74,0,0,0,9.28.62m0-.62h1.44c-.45,0-.94,0-1.44,0M0,.68V.55H0A4.49,4.49,0,0,0,1,.4,4.43,4.43,0,0,1,.33.27,1.49,1.49,0,0,0,0,.31V.14H1.93S1.94.05,2,0h.82s-.08.05,0,.1a6.49,6.49,0,0,0,1.39,0c.3,0,.12.07.36.06C5.06.09,6.26.16,6.68,0a.78.78,0,0,0-.21,0H8a2.24,2.24,0,0,0,1.1.13s.08,0,.08.07a12.58,12.58,0,0,1-2.71.1c-.21,0-.08,0-.19,0C5.44.43,4.53.28,3.75.35l.14,0-.05,0a2.42,2.42,0,0,1,.81.17s-.1,0-.1,0a10.71,10.71,0,0,1-1.4,0A8.14,8.14,0,0,1,2,.69a11.35,11.35,0,0,0-2,0M3.39,5.2l-.06,0,.14,0a7.32,7.32,0,0,1-1.68,0c-.1-.2,1.06-.09,1.6-.09M3,4.77c-.1.07-.33.09-.18.18A6.49,6.49,0,0,0,4.16,5c.3,0,.12.07.36.06.54-.08,1.74,0,2.16-.13a3.87,3.87,0,0,0-1,0,12.72,12.72,0,0,1-1.83-.08ZM74.63.35l.05,0-.13,0a7.23,7.23,0,0,0,1.67,0c.1-.2-1-.09-1.59-.09M72.8.55a.13.13,0,0,1,0,.06c-.28,0,8.3,0,8.34-.06s-8.64,0-8.35,0m4.83.07c-.06-.05.48-.14,0-.16.39-.07,1.07,0,1,.09.4,0,.83,0,1.11,0,0,0,0,.07,0,.11A11.88,11.88,0,0,1,77.63.62M76.22,0h1.47c-.51,0-1,0-1.47,0m1.67.82,5.93,1.85H0V.82H.9s.42,0,.29-.06c1.24,0,1.89,0,3.06,0-.06,0-.22,0-.2.06,1.21,0,2.41.06,3.62,0a13.19,13.19,0,0,1,1.49,0c.28,0,.67.05,1.29.05.21,0,.13,0,.29,0,1.08,0,2.7.05,3.53,0,.53.06,2.12.12,2-.11L15,.66h0c-1.56,0-3.14,0-4.52,0,0-.14,1.27,0,1.4-.09.37.08,1.42,0,1.94.07.34-.07.67-.15,1.06-.22h0v0c-.05,0-.33,0-.35-.06-.32.06-1.1,0-1.68,0A26.51,26.51,0,0,0,10,.32c-.2,0-.34-.08-.25-.17.29,0,.21,0,.36,0a19.67,19.67,0,0,1,2.23,0c.38,0,.65-.09.94-.08A.46.46,0,0,0,13,0H73.89a.57.57,0,0,0-.24.07c.3,0,.56.07.95.08a19.67,19.67,0,0,1,2.23,0c.14,0,.07-.06.36,0,.09.09,0,.13-.25.17a26.73,26.73,0,0,0-2.88,0c-.57,0-1.35,0-1.67,0,0,0-.31,0-.35.06v0h0c.39.07.72.15,1,.22.52,0,1.57,0,2-.07.12.11,1.38-.05,1.4.09-1.39.05-3,0-4.52,0h0l-1.21,0c-.15.23,1.44.17,2,.11.83.09,2.45,0,3.53,0,.15,0,.08,0,.28,0,.62,0,1,0,1.3-.05a13.19,13.19,0,0,1,1.49,0c1.21,0-6.49,0-5.29,0,0,0-.13,0-.2-.06,1.18,0,1.82,0,3.07,0-.14.07.31,0,.28.06h.78M80.57,5.2l.05,0-.14,0a7.32,7.32,0,0,0,1.68,0c.1-.2-1.06-.09-1.59-.09M81,4.77c.1.07.33.09.18.18a6.49,6.49,0,0,1-1.39,0c-.3,0-.12.07-.36.06-.54-.08-20.62,0-21-.13a3.87,3.87,0,0,1,1,0c.69,0,20.38,0,20.7-.08ZM77.89.14V.29l-.21,0a4,4,0,0,1-.63.13,4.59,4.59,0,0,0,.84.15V.66A12.62,12.62,0,0,0,76,.69a8.38,8.38,0,0,1-1.12,0,10.56,10.56,0,0,1-1.39,0s-.08,0-.1,0a2.36,2.36,0,0,1,.81-.17l-.06,0,.14,0c-.78-.07,7.22.08,6.4,0-.11,0,0,0-.19,0a12.58,12.58,0,0,1-2.71-.1s.11,0,.08-.07A2.26,2.26,0,0,0,78.94,0h1.51a.78.78,0,0,0-.21,0c.41.12-7.28,0-6.75.13.25,0,.06-.08.36-.06a6.49,6.49,0,0,0,1.39,0c.08,0,.06-.08,0-.1h.82a.5.5,0,0,1,0,.12h1.81"/></g></g></svg>