<svg xmlns="http://www.w3.org/2000/svg" viewBox="0 0 52.06 51.92"><defs><style>.cls-1{fill:#7c6742;fill-rule:evenodd;}</style></defs><title>Asset 1</title><g id="Layer_2" data-name="Layer 2"><g id="Layer_1-2" data-name="Layer 1"><path class="cls-1" d="M2.86,13.55c0,1.11-.1.9-.53,1.76a13.07,13.07,0,0,1-.83,1.53c0,1.23-.8,2.75-1,4.05A34,34,0,0,0,0,25.41v.5l0,2a13.9,13.9,0,0,0,.56,3.42A10.48,10.48,0,0,0,1,32.94c.15.43.6,1,.6,1.47,0,.16,0,.16-.14.29.45.95.9,1.76,1.37,2.77.32.7,1.49,1.8,1.49,2.66v.43c.57.06.73.71,1,1.07a10.05,10.05,0,0,0,1,1.12c.39.39.65.56,1.07,1A10.89,10.89,0,0,1,8.16,45l.72.35a1.46,1.46,0,0,1,.57.43c.36.32.69.67,1,1,.87.8,1.78.46,2.52,1.55v.36c.41.22,1.21.39,1.48.58A4.47,4.47,0,0,0,16,49.8c1,.34,2.36.41,2.81,1.26l1.86.13.2.16a11.25,11.25,0,0,1,1.92.22c.59.09,1.27.08,1.78.16a6.68,6.68,0,0,0,1.79.17c.57-.06,1.27-.35,1.88-.06l.23-.19c.1,0,.69-.06,1,0a1.71,1.71,0,0,0,.92-.34,2.15,2.15,0,0,0,.57.14l.64-.08,1.14-.25,1.59-.72c.18.08-.07,0,.2,0a8.09,8.09,0,0,0,2.3-.77,5,5,0,0,1,2.2-.8c.57-.84.24-.44,1-1,.34-.24.85-.43,1.23-.7s1.67-1.51,2.34-1.51a7.06,7.06,0,0,1,2-2.4c.42-.27.61-.79,1-1.19a7.23,7.23,0,0,1,1.09-1.13c0-.8,1.31-2.25,1.62-3s.52-1,.73-1.56.3-.29.4-.74.09-.54.21-.94a19.31,19.31,0,0,0,1-3.53c.07-.66.1-1.54.14-2.14a7.54,7.54,0,0,1,.06-1.09,3.3,3.3,0,0,0,.16-1v-.29l-.13-2.35c0-.74-.1-1.19-.16-2.08a10.07,10.07,0,0,0-.38-1.83c-.09-.26-.53-1.64-.54-1.74a8.94,8.94,0,0,0-.37-1.84,11.45,11.45,0,0,0-1.47-3,15,15,0,0,1-.78-1.51,9.59,9.59,0,0,0-.87-1.34l-1-1.28a3.91,3.91,0,0,0-.6-.54c-.37-.29-.2-.28-.5-.58a3.45,3.45,0,0,1-.54-.6c-.23-.31-.31-.28-.57-.57a13,13,0,0,0-1.22-1,5,5,0,0,0-1.27-1c-.43-.25-.35-.34-.61-.53s-.46-.31-.63-.44-.12-.27-.64-.51A4.83,4.83,0,0,1,39,3.57a3.64,3.64,0,0,1-1.12-1.09h-.5l-.21-.16h-.36a6,6,0,0,0-2-1C34,1.17,33.13.68,32.56,1A8.19,8.19,0,0,1,31.18.65,2.61,2.61,0,0,0,30,.21,21.77,21.77,0,0,0,27.14.05L25.78,0l-.36.19c-.29,0-.6-.08-.71-.07l-.57.07h-.29A5.61,5.61,0,0,0,22,.36a4.59,4.59,0,0,1-1.95.12,2.48,2.48,0,0,1-1,.43c-.17,0-1.05.14-1.17.18s-.78.32-.95.41c-.36.19-.47.44-.82.54A11.24,11.24,0,0,0,15,2.23c-.17.08-.39.51-.68.69-.58.35-1.13.5-1.78.93a14.7,14.7,0,0,1-1.7,1.08c-.5.21-.61-.06-.84.52a1.06,1.06,0,0,1-.66.69A4.3,4.3,0,0,0,7.8,7.35c-.22.25-.16,0-.35.36-.11.2-.1.27-.24.41s-.56.57-.78.57H6.21a4.54,4.54,0,0,1-1.69,2.46c-.72.66-.43,1.57-1.66,2.4M25.78.48A6.38,6.38,0,0,1,26.92.26c.26,0,.39.21.79.22V.69h-.64L25.93.8Zm-.86.57L25.07.9,25,.55c.43.11.41.26.62.46s.41.19.63.38a5,5,0,0,0,.62.44c.31.22.46.17.69.31a13.39,13.39,0,0,1,1.17.9c.31.28,1,.37,1.14.87l-1.36-.08a11.1,11.1,0,0,1-1.22-.7c-.3-.23-.75-.61-1.05-.81s-.76-.46-1.18-.74S24,1.31,23.92.83c.32,0,.31.15.5.15s.12-.11.5.07m2.43.36a3.42,3.42,0,0,1,1.5-.86h.5L30,.63v.2c-.66.06-2,1.78-2.64.58m-7.64.92A3.77,3.77,0,0,1,21.59.93c.49-.12.89-.34,1.22-.2a3.64,3.64,0,0,1,1,.6l-.57.07c-.23,0-.29-.14-.36-.28l-1.42.33a7.35,7.35,0,0,0-.95.37,7.76,7.76,0,0,1-.77.51m10-.85c0-.23.58-.57.78-.57.52,0,2,.56,2.15,1a9.27,9.27,0,0,0-1.86-.58Zm-11.14.71c.36-.08,1.11-.52,1.14-.93h.14c-.09.42-.52,1.07-1,1.07h-.28ZM15.28,3.76c.31-1.33,2.46-2.29,4.07-2.43-.1.4-1.7.93-2.14,1.15a18.44,18.44,0,0,0-1.93,1.28M34.92,2.55h-.28l-.78,0-.52-1.14.08,0a11.13,11.13,0,0,1,2.55.8,2.82,2.82,0,0,1,1.66,1.7c-.18,0-2.12-1.56-2.71-1.72Zm-14.71.07c.13-.48,1.12-.53,1.57-.93l.21.15.86-.11.22,0L24.65,2l0,.07-.07.29c-1.1.27-2.74,1.24-4.13.58a6,6,0,0,1,2.29-.43c-.12-.45-.28-.06-.64-.29Zm8.28-.43c0-.34,1.8-.42,2.32-.32s.86.2,1.18.25c.67.11.48.42,1,.43v.14l-.92-.18c-.07,0-.18-.1-.22-.1H30.49l.43.3,1.85.3v.12a3.52,3.52,0,0,1-2.26,0c-.48-.16-2-.49-2-1m-13,2.07c.06-.79,2.9-1.95,4.14-1.35-.19.72-3.61,2.14-3.79,1.5.38,0,.66-.37,1.2-.52.33-.09,1-.24,1.16-.48-.52-.25-2.05.8-2.71.85m8.35-.57c.27-.4.53-.39.91-.66l.95-.55a.6.6,0,0,1,.57.57c-.21.05-.73.41-1.05.52a5.42,5.42,0,0,1-1.38.12M34,3.41c.48,0,1,.46,1.66.62.28.08,1.34.59,1.41.88h-.43a4.49,4.49,0,0,1-1.94-.56A3.46,3.46,0,0,1,33.41,3l1.22-.14a4.32,4.32,0,0,1,2.93,1.71C36.66,4.47,35,3.19,34,3.19ZM15,3.18l-.38,1-.62,0c.06-.48.35-.06.36-.63a9.43,9.43,0,0,0-1.94,1.2,5.28,5.28,0,0,0-.78.79,2,2,0,0,1-.78.8c.32-.6.34-1,.9-1.39a7.28,7.28,0,0,0,1.18-1,2.64,2.64,0,0,0,1.36-.61Zm4.93.15c.26,0,1.8.16,1.84.17a4.58,4.58,0,0,0,1.73-.31v.22c-.52,0-.89.5-1.5.5h-.35a3.26,3.26,0,0,1-1.72-.58m10.29.36V3.55l1.19.35,0-.08.2.17.51-.2c.64,0,1-.37,1.14,0a5.12,5.12,0,0,1-1.57.36c-1.24,0-.7-.21-1.5-.43m8.35.5c.14.54.6.21.72.64L38.2,4.55c0-.85-.29-1.12.8-.51a6.91,6.91,0,0,1,1.29.78C41,5.4,42,6.09,42.06,7.26c-.27-.17-.9-1.31-1.51-1.77-.4-.31-1.48-1.26-2-1.3M15.28,5.28c0-.5.88-.36,1.14-.3l.21-.16a11.1,11.1,0,0,0,1.72-.34c.33,0,.75-.12.93-.12s.58.14.79,0c-.28-.38-.52-.22-.93-.22l-.27-.06.41-.37c.48.23,1.2.09,1.21.79h-.35c-.35,0-2,.78-2.43.57l-.13.16-1.3-.08Zm18.48-1.2c.29.22.77.35.8.75l2.63.46v-.1h.08c.25,0,.19.16.28.36A4,4,0,0,1,35,5.64c-.72-.22-1.27-.88-2.26-.88l-.15-.3ZM11.21,6.91a5.87,5.87,0,0,1,1.34-1.66,8.39,8.39,0,0,1,2.3-.7h.22c0,.73-2.3,2.5-3.22,2.5.21-.78,1.74-1.15,1.79-1.71-.44.23-.82.5-1.28.72s-.65.71-1.15.85m29.85.57a3,3,0,0,1-1.94-.85c-.24-.18-1.2-1.21-1.2-1.51A.25.25,0,0,1,38,4.91a2.88,2.88,0,0,0,1,.3,4.22,4.22,0,0,1,1,.46,3.14,3.14,0,0,1,1.41,1.45c-.22-.11-1.4-.93-1.43-.93H39.7a.72.72,0,0,0-.71-.5c.12.44.75.52,1,.9s1,.38,1,.89M14.42,6.19a.87.87,0,0,1,.86-.57c.24,0,.46.22.93.22,0,.41-.59.58-1,.76a2.9,2.9,0,0,1-.62.23c-.3.09-.2.16-.48.32a9.12,9.12,0,0,1-2.73.54V7.55c1.64-.39,2.66-1.29,4.35-1.43-.1-.38-.8.06-1.36.07M9.64,7.26c0-.38.5-.48.5-.92l-.07-.15c0-.09.1-.28.21-.28a.18.18,0,0,1,.15.14l-.08.64c-.17.26-.31.54-.71.57m32,.92c-.19.09,0,.1-.24.08l-1.22-.08L40.2,8a1,1,0,0,1-.35.07,9.15,9.15,0,0,1-3.07-1.71l.07-.22A2.94,2.94,0,0,1,37.63,6h.22c.25,0,.61.52.71.71l-.15.21a5.09,5.09,0,0,0,3,1ZM6.93,10.48c-.3-1.28.36-1.68.92-2.5a9.15,9.15,0,0,1,2-1.64c0,.7-1.15,1.38-1.53,2-.23.41-.58.56-.79,1a9.35,9.35,0,0,1-.6,1.12m.57-.14A5.16,5.16,0,0,1,9.1,8.15a6.23,6.23,0,0,1,1.17-.63c1.08,0,.3,0,.3.82-.53.35-.52.91-1.14,1.28s-.76.87-1.5.93l2-2.17a4.25,4.25,0,0,0-1.25,1c-.19.17-.47.26-.6.48s-.14.51-.55.52M42.7,8.69l2.07,2.43c-.52,0-1.51-.95-1.84-1.3-.13-.15-1.23-1.94-.83-1.89A9.44,9.44,0,0,1,44,9.17a3.81,3.81,0,0,1,1.26,1.88c-.44-.3-.65-.8-1.25-1.24-.26-.2-.32-.46-.54-.67a6.39,6.39,0,0,0-.78-.45M10.93,8.26c.31,0,.64-.17.85-.14l.57.08a11.83,11.83,0,0,1-2,1.68,4.35,4.35,0,0,1-2.4,1.31c.05-.21.7-.44,1-.65a7.15,7.15,0,0,0,.89-.76A4.94,4.94,0,0,1,10.67,9c.37-.24.93-.18,1-.6l-.86.28ZM42.56,6.69a9.24,9.24,0,0,1,2,1.77,3.46,3.46,0,0,1,1.19,2.59h-.14v-.21A8.81,8.81,0,0,0,44.55,9c-.24-.35-1-1.4-1.42-1.44l.54.75c-.39-.34-1.11-.23-1.11-1ZM41.12,9.18l.29.1L41.26,9Zm.16.3c-.27,0-.65-.31-.65-.57,0-.1.1-.15.22-.15h.78c.27,0,.38.42.43.65-.24-.07-.29-.22-.5-.22l-.14.07A16.69,16.69,0,0,0,43,10.65c.37.17,1.78.82,1.81,1.19l-.22.06c-.43-.22-1-.28-1.21-.71h-.29c-.09-.33-.74-.51-1.05-.73a3.19,3.19,0,0,1-.8-1M4,13.84c0-.82,1.22-3.12,1.86-3.29A13.05,13.05,0,0,0,4.79,12.7c-.13.43-.19.8-.32,1.25S4.4,15,4.07,15.12a3.54,3.54,0,0,1-.07-.5Zm2.21-4c.39.1.49,1.16-.35,1.35.08-.31.35-.38.35-.78Zm40,1.64c0-.34.21-.5.22-.93.58.39.95,1.39,1.48,2a5.72,5.72,0,0,1,.66,2.77c0,.27-.05.13-.07.43-.27-.2-.18-1-.29-1.35s-.3-.75-.43-1.15c-.17-.57-.7-1.87-1.21-2,0,.42.59.62.43,1-.13-.08-.79-.65-.79-.78m-38.63.86a1,1,0,0,1,1-.93l.57.08v.2c-.51.14-1.37,1.62-1.71,2.08a6.07,6.07,0,0,1-2,1.69c-.43.27-.31-.18-.17-.32s.38-.18.57-.36a5.79,5.79,0,0,0,.89-1c.38-.68,1.55-1.62,1.74-2ZM7,11.19c.08-.29.35-.38.35-.07v.43a5.53,5.53,0,0,1-2.14,3.07c.19-.79,1.52-2.18,1.57-2.86a9.68,9.68,0,0,0-1.92,2.86H4.71l.12-.44L5,13.34c.38-.31.63-2.15,2-2.15m39.49,2.29.93,1.93c-.55.24-1.59-1.62-1.86-2.07a6.35,6.35,0,0,1-.3-1.67c.19-.19,1,.62,1.23.52,0,.25.62.86.8,1.13s.4,1.18.56,1.23l.16.78c-.39-.09-.52-.68-.71-1s-.22-.26-.41-.44,0-.35-.4-.39m-1.56-1.05-.06.06.28,1v.07l-.77-.75a11.88,11.88,0,0,0,1.35,1.87c.32.31,1.63,1.19,1.7,1.44-.61.28-2.18-1.76-2.5-1.78l.06,0L43.59,12ZM3.66,15.62c0,.13-.39.47-.52.5l.28-1c0-.07-.14-.12-.14-.28s.07-.27.29-.29Zm-1.3,4.15c-.61-.17-.53-2-.44-2.51a6.24,6.24,0,0,1,1.15-2.07c0,1-.79,2.17-.79,3.58v.07Zm2.57-2.86a1.33,1.33,0,0,1,1.28-1.36l-.5.93v.57a10.41,10.41,0,0,0-.44,1c-.19.32-.37.57-.53.89s-1,1.48-1.31,1.48c-.11,0-.22-.24-.22-.36s1-1.19,1.19-1.67c.14-.28,1-1.66,1-1.76ZM20.78,5a10.89,10.89,0,0,1,1.47-.68,12.62,12.62,0,0,1,1.89-.18c.52,0,1.43-.26,1.63-.21a5.69,5.69,0,0,0,1.74.17A16.56,16.56,0,0,1,31,4.56,6.14,6.14,0,0,0,32.47,5,8.76,8.76,0,0,1,34,5.44a15.76,15.76,0,0,0,1.4.74,12.62,12.62,0,0,1,1.35.73c.55.28.8.54,1.28.78a6.49,6.49,0,0,0,.71.37c.38.16.23.27.52.48a3,3,0,0,1,.57.49c.32.33.34.18.67.4l1,1.07c.19.19.54.37.61.46a3.39,3.39,0,0,0,.44.56c.44.5.12.9,1,1.1.06.67,1.42,1.82,1.69,2.6s0,.61.71,1.29c.31.32.35,1.09.52,1.55s.24.3.35.72.16.5.24.83a16,16,0,0,0,.47,1.6A18,18,0,0,1,47.92,25l-.1,3.22c0,.95-.26,1.31-.26,2.21,0,.61-.19.72-.29,1.21-.05.23-.26.92-.35,1.22s-.42.68-.57,1.08a6.1,6.1,0,0,1-.4,1.16,21.4,21.4,0,0,0-1.13,2.09,2.49,2.49,0,0,1-.62.95c-.34.36-.28.55-.62,1s-.26.46-.78.87c-.16.13-.45.63-.71.86s-.51.65-.73.84-.83.46-1,.61a9.44,9.44,0,0,1-1.78,1.44c-.57.42-1.16,1.15-2,1.15l-1,.68a14.17,14.17,0,0,0-2,.77,12.06,12.06,0,0,0-2,.45c-.53.62-1.09.42-2,.68-.17,0-2.06.24-2.18.24-.81-.06-1.11,0-2-.11a16.24,16.24,0,0,1-2.19,0,9.62,9.62,0,0,1-2.07-.43c-.35-.14-.57,0-.9-.32s-.07-.37-.77-.37a2.73,2.73,0,0,1-1.29-.57,5.55,5.55,0,0,1-1.84-.51c-.22-.15-.23-.07-.41-.16s-.18-.19-.31-.27a2.55,2.55,0,0,0-.86-.27,4.42,4.42,0,0,1-1.38-.91c-.43-.37-1.07-.67-1.36-.93a2.61,2.61,0,0,1-.55-.66c-.28-.41-.35-.25-.63-.52s-.73-.73-1.14-1.14a10.14,10.14,0,0,1-1-1.29c-.4-.53-.8-.64-.8-1.48-.31-.47-.74-.6-1-1.29a9.11,9.11,0,0,0-.73-1.57,5.58,5.58,0,0,1-.43-.71c-.12-.29,0-.65-.23-.92a4.51,4.51,0,0,1-.68-1.53,15.89,15.89,0,0,0-.41-1.87c-.16-.54-.12-1.43-.25-2a17.34,17.34,0,0,1-.07-3.86s.63-3.27.69-3.46a4.56,4.56,0,0,0,.11-1c0-.28.2-.39.32-.68.19-.48.36-1.06.57-1.5a8.62,8.62,0,0,1,.67-1.4,6.8,6.8,0,0,0,.78-1.29,24.3,24.3,0,0,0,1.58-2.5c.8-.19.81-.69,1.13-1.3a3.48,3.48,0,0,1,1.18-1.17,7.71,7.71,0,0,1,1.42-.93c.75-.34.24-.26.6-.62s.43-.12.66-.48c.59,0,.92-.47,1.48-.66.91-.32.3-.62,1.52-.62l.8-.78c.94,0,2-.58,2.92-.58ZM2.71,19.05a4,4,0,0,1,.52-2.27c.3-.42.89-1.16,1.41-1.3.09,1.08-.63,3.69-1.5,3.79v-.22a16.77,16.77,0,0,0,.79-2.21Zm46.85-1.78c-.36-.27-1-1.7-.14-1.93,0,.55.85,1.67.85,2.71.09.13.15.13.15.29v.43a4,4,0,0,1-.08.5H50.2v-.22c0-.16-.24-1.28-.29-1.64a2.88,2.88,0,0,0-.56-1.29Zm-1.48,2.2c.25.4,1.08,1.12,1,1.37a15,15,0,0,1-1.17-1.12A7.44,7.44,0,0,1,47,18.35c-.1-.16-.42-1.37-.57-1.72-.37-.91.85.1,1,.21l.07.71L47,17.16l-.08.05.16.42,0,.28c.35.51.61,1,.95,1.56m1.19-1.92a5.15,5.15,0,0,1,.57,2.29s-.07.14-.07.14a3,3,0,0,1-.64-1.64l-.07,0-.53-1.12c-.14.2-.11,0-.11.23v.07c0,.4,1.12,2.38.93,2.79A5.18,5.18,0,0,1,47.92,16c.36.1.55.43.75.74s.44.34.6.83M1.36,22.12a2,2,0,0,1,.07-2.5l.52.7c-.09.3-.17.87-.45.95v-.36l0-1c-.47.11-.2,2-.18,2.21m2.14-1c0-.24.53-.64.78-.64S3.92,22,3.5,22L4,21.06l-.29.29c-.13-.09-.16,0-.16-.23m-1.93,1.5c.35-.65.5-2.38,1.21-2.57a4.26,4.26,0,0,1,.29,1.86c-.1,1.36-.48,1-.64,1.64-.36-.09,0-.64,0-1.1a9.23,9.23,0,0,0,.1-1.4A6.41,6.41,0,0,0,2,23.34v.21c-.48-.05-.26-.57-.43-.93m49-1.42a.72.72,0,0,1,.36-.72,2.31,2.31,0,0,1,.28.93v.71a.83.83,0,0,1-.28.72V21.05c-.18.08-.21,0-.21.22s.19.31-.14.43ZM48,20.92l.73.71-.2.16.13.69c-.32-.09-.71-1-.71-1.5Zm1.87,3.28c-1-.28-.88-2.87-.21-3.36a4,4,0,0,1,.82,1.68c.32,1.13,0,1.05-.18,1.89h-.14l-.08-.71A1.38,1.38,0,0,0,50,23a3,3,0,0,1-.17-.69H49.7Zm-47.48.28a6.69,6.69,0,0,1,1.85-2.36l-.09.64L4,23v.51L2.83,25.16a1.36,1.36,0,0,1-.47-.68M.64,24.05V22.7l.06-.5s1.64,3.13,1.9,3.52c.78,1.16,1.56,1.93,1.6,3.62-.41-.11-1.6-2.06-1.88-2.55S.64,24.5.64,24.05m50.85,4.79c0,.25-.06.28-.07.5a8,8,0,0,1-.93-1.64,14.76,14.76,0,0,0-1-1.54c-.25-.34-.79-1.22-1-1.58s-.69-1.75-.19-1.88a18,18,0,0,0,1.79,2.78,8.44,8.44,0,0,1,1.43,3.14Zm-1-3.72a12.64,12.64,0,0,1,.93-1.92c0,.35.14.26.14.57v.64a3.18,3.18,0,0,1-.72,1.36.79.79,0,0,1-.35-.65m-47.42.5a1.87,1.87,0,0,1,.5-.71l-.33,1c-.11,0-.17,0-.17-.19Zm45.28-.21c.26.07.28.24.28.57l0,.72,0,.14c0,.22-.18.31-.36.36l.08-1.29Zm.5.86h.21c0,.28,0,.21-.21.28ZM.5,28.91a5.36,5.36,0,0,1,0-1.67c.13-.37.48-1.06.53-1.26a1,1,0,0,1,.57.79A14.76,14.76,0,0,1,.5,28.91m1.4-1.52c-.1.55.31,1.39.31,1.95,0,.1-.08.11-.14.14l-.08,0L1.49,28Zm46.16,1.73a1.68,1.68,0,0,1,.41-1.3,13,13,0,0,1,.88-1c.12.08.35.32.35.5v.07a8.8,8.8,0,0,1-1.57,2.14c-.09-.19-.07.06-.07-.21ZM2.25,27.7c.51.55.72.75.53,1.57H2.54Zm47.31,2.14c-.74-.49,0-1.54.5-1.86.16.33.57.81.57,1.07v.22a1,1,0,0,1-.57.85v-.35c0-.38.18-.48.14-.79l-.08-.71c-.36.1-.36,1.27-.56,1.57M1.17,28.71a3.91,3.91,0,0,1,.69,1.63c-.54-.14-.63-.95-.83-1.41Zm1.9.91a3.15,3.15,0,0,1,.14-.57c.22.12.36.16.36.5,0,.11-.2.43-.29.43s-.21-.24-.21-.36m45.35.43a.83.83,0,0,1,.14-.35h.29l.12.57-.14.42a.58.58,0,0,1-.41-.64M2.93,34.41c-.48,0-1.29-1.25-1.5-1.64A21.07,21.07,0,0,1,.86,30.2a1.15,1.15,0,0,1,.92,1.28l-.38-.7c-.13,0-.19,0-.19.2s.18.37.26.53.05.34.13.59.41.83.61.88L2.13,33Zm48-4.55.18,0,.16.64-1,.39Zm-47.24.62c0-.22,0-.57.29-.57s.85,2.43.85,3.07c0,.31-.16,1.36-.42,1.43A25.67,25.67,0,0,0,4,30.55H3.86v.22H3.71c0-.2-.07-.12-.07-.29m-1.08-.57c.65.17,1.61,2.52,1.51,3.57L4,34.05H3.78s-.39-1.24-.45-1.47-.21-1.29-.55-1.38a14.48,14.48,0,0,0,.41,1.6c.1.39,0,.42.17.83.12.26.31.46.07.64a5.75,5.75,0,0,1-1.15-2l0-.44ZM48.2,33.27a12.39,12.39,0,0,1,.58-1.64,3.3,3.3,0,0,1,.92-1.29L49.85,32v.07c0,.79-.54,2.51-1.07,2.65,0-.51.4-1.06.49-1.66a10.76,10.76,0,0,0,.23-1.84c-.22.16-.11.55-.3.92s-.18.05-.29.85c-.06.41-.27,1.56-.63,1.66ZM51.09,31l.11.27c-.1,1.24-1.13,3.59-2.14,3.86.71-1.06,1.67-1.57,1.71-3.36h-.21l-.22.95-.11-1.16Zm-3.74,2c0-.74.71-1.6.71-2.43h.14a3.5,3.5,0,0,1,.22.86c0,.16-.19.39-.22.71h-.14v-.21h-.14l-.17,1.14,0,2c-.33-.12-.42-1.53-.42-2.07M6.64,39.05c-.5,0-1.55-2.86-2.07-3l1.64,3.36C5,38.77,3.86,36.59,3.86,34.7h.35c0,.15,1.38,1.48,1.63,1.8a8.59,8.59,0,0,1,.8,2.55m-1.3.17c.37.41.77.4,1,.76-.63.26-2.14-1.41-2.49-1.94A6.2,6.2,0,0,1,3,36.6a5.56,5.56,0,0,1-.67-1.55c.54.15,1.61.72,1.28,1.43l-.53-.61S3,35.88,3,36c0,.27.24.4.38.55a3.33,3.33,0,0,1,.28.65,11.33,11.33,0,0,0,.78,1.08c.27.33.58.6.9,1m39.58-.81a13.35,13.35,0,0,1,1.78-3.86,1.63,1.63,0,0,1,.12,1.26s-.61.88-.62.89c-.1-.18-.07,0-.07-.15a5.61,5.61,0,0,1,.29-.71c-.26.07-.84,1.44-1,1.83a5.48,5.48,0,0,0-.26,1.1c0,.39,0,1-.28,1.07Zm3.14-.5c.06-.24.32-.73.44-1.13s.24-.8.77-.8h.08c.47,0-.26,1.08-.36,1.29a10.34,10.34,0,0,1-.72,1.36,4.77,4.77,0,0,1-.91,1.15,7.38,7.38,0,0,1-1.37.7l-.14-.07c.28-.39,1.37-1,1.77-1.44a4.31,4.31,0,0,0,1.15-2.06h-.14c0,.33-.3.93-.57,1m-2.43,1.57A3.17,3.17,0,0,1,46.46,37c.4-.53.08-.53.7-.94.45-.3.37-.54,1-.68a3.51,3.51,0,0,1-.61,2.6c-.32.47-.91,1.57-1.53,1.62a9.94,9.94,0,0,0,1.5-3h-.14a20.36,20.36,0,0,1-1.72,2.85m-40.77-5a.9.9,0,0,1,.5-.57A14.47,14.47,0,0,0,6.46,36,10.79,10.79,0,0,1,7,38.48l-.8-2.12c-.12-.31-.47-.73-.53-1s-.08-1-.39-1v.21l.08.65c-.16,0-.5-.33-.5-.5Zm2.49,4.57c0-.47.07-.66.36-.85.44,1.64,3,2.78,3,5-.28-.08-.42-.88-.62-1.24-.07-.13-.65-1-.73-1.06-.27-.26-1.45-1.95-1.58-2l-.07,0,.58,1.1c-.16,0-.94-.48-.94-.71Zm2.29,4.29a4,4,0,0,1-1.91-1.23,9,9,0,0,1-1-2.2c0-.13,0-.12.07-.21L8,40.34a12,12,0,0,1,.93.78c.23.2,1.59,2,1.07,2-.12,0-1.72-1.8-2.07-1.93a4.16,4.16,0,0,0,.8,1.13c.28.28.31.08.53.46a5.89,5.89,0,0,0,.38.55m31.56.07a4.26,4.26,0,0,1,1.38-2.55c.16-.13,1.77-2.49,1.77-1.66V40c0,.2-.7.63-.86.72l.17-.42c-.54,0-.4.56-.66.86s-.37.53-.64.79c-.43.43-.89,1.67-1.16,1.77Zm.72.15c0-1,2.24-3.29,3.22-3.2.48,0-.55,1.89-.81,2.11a5.41,5.41,0,0,1-1.84,1.3c0-.57.45-.56.77-1a10.39,10.39,0,0,0,.73-1c-.19-.09.06-.07-.21-.07,0,0-1.44,1.75-1.86,1.79M8.67,43.45c.26.1,1.2.47,1.26.68a5.76,5.76,0,0,1-1.73-.48,13.52,13.52,0,0,1-1.3-.92,10.45,10.45,0,0,1-1-1.19,3.76,3.76,0,0,1-.44-.63c-.23-.44-.41-.43.07-.43h.14a1,1,0,0,1,.9.39,7,7,0,0,1,.46.9c-.49-.33-.77-.85-1.43-1,.07.27.69.73,1,1s.58.63,1,.94a5.78,5.78,0,0,0,1.15.77m36.6-1.39A1.08,1.08,0,0,1,46.42,41c.16,0,.21.05.21.22a16.09,16.09,0,0,1-1.9,2.1,5,5,0,0,1-1.17.83c-.15.09-1.26.36-1.43.14,1-.08,2.34-1.49,2.86-1.5l.85-1-.07-.06h-.14Zm-34.2.78a.76.76,0,0,1,.14-.43l.37.34a1,1,0,0,0-.08.38c0,.26.55.46.64.71l-.9-.47c-.11-.26-.17-.08-.17-.31ZM36.42,46.7c0-.62,1.38-1.77,1.8-2.2a14.39,14.39,0,0,1,2.34-1.66,1,1,0,0,1,.07.36v.28a1,1,0,0,1-.07.36l-1,.39.14-.32c-.76.21-1.17,1-1.73,1.42a6.46,6.46,0,0,0-.74.83c-.48.83-.29.32-.82.54m-22.27-.15.06-.06v.21a8.37,8.37,0,0,1-2.5-1,3.26,3.26,0,0,1-1.36-2.08,8.92,8.92,0,0,1,1.39.4c.17.07.35.28.54.38s.43.15.61.25a6.23,6.23,0,0,1,1.82,1.75c-.62-.14-2.37-1.62-3-1.64a1,1,0,0,0,.64.5h.22l.59.62.34,0Zm27.2-2.42h.21a3,3,0,0,1-1.47,2c-.38.23-1,.39-1.18.52s.06.17-.55.32a2.74,2.74,0,0,1-.73.13c.06-.51,2.28-1,2.5-1.86l-2.46,1.34c.09-.54.81-1.1,1.22-1.37a6.87,6.87,0,0,1,.77-.52c.3-.16.59-.2.76-.44ZM13.92,47.28l-.17-.09,0,.08A6.36,6.36,0,0,1,11,46.46a11.76,11.76,0,0,1-1.88-1.65l1-.14c.23,0,.49.51.57.67L9.87,45l0,.17c.83.19,2.38,1.64,3.5,1.64a2.23,2.23,0,0,0,1.22.29h.21v.14ZM41.2,45.7c.15-.22.45-.64.79-.64s.75,0,.79.35c-.49.13-1.65,1.3-2.27,1.59a4.64,4.64,0,0,1-3,.56v-.15l.93-.08a12.11,12.11,0,0,1,1.72-.7,3.9,3.9,0,0,0,1.49-.93Zm-24.63.57.08.21-.8-.08c-.19-.27-.43-.43-.43-.92v-.21c.1,0,.89.41,1.19.53a12.42,12.42,0,0,0,1.22.43c.57.16,2,.76,2,1.33-.14-.1-1.32-.64-1.55-.74a6.6,6.6,0,0,0-1.73-.55M32.21,47.7c.59-.88,3.08-1.28,3.42-1.79l.36,0-.25.71-.54,0,.32-.37c-.35.14-.59.11-.94.27a7.43,7.43,0,0,1-.79.35,14.51,14.51,0,0,1-1.58.78M15.14,46.34a11.65,11.65,0,0,0-1.65-1.78A7.86,7.86,0,0,1,11.71,43c.15.06,1.82,1.24,2,1.42a5.86,5.86,0,0,1,.91.8,6.05,6.05,0,0,1,.28.57c.05.1.09.19.15.29a.83.83,0,0,0,.07.13s.09.06.07.08Zm4.55,2.54,0,.11A4.81,4.81,0,0,1,17,48.45c-.7-.35-1.49-.73-1.68-1.54a8.82,8.82,0,0,1,2.84.31c.49.2,2,.89,2.09,1.34l-.22.06-2.38-.85-1.16-.38-.06.18Zm14.09-1.47c.65,0,1.23-.28,1.78-.28h.36l.71.07c-.07.91-3.2,2.41-4.21,1.93.15-.23.33-.44.64-.29.17-.23,2.37-.79,2.5-1.28l-.29-.06a5.33,5.33,0,0,1-1.59.74c-.48.14-.6.29-.86.36s-.7.11-1,.17c.06-.67,1.45-1,1.93-1.36m-13,.86c-.11,0-.14-.21-.4-.29l-.18-.63.65.08c.25.36.66.13.79.63l-.85-.44c0,.35,0,.41.35.44v.14a1,1,0,0,1-.36.07M22.64,51l1.63-.87c.32-.18,1.26-.71,1.57-.93a5.11,5.11,0,0,1,3.58-1.42c-.1.37-.47.27-.77.52a7.7,7.7,0,0,1-.71.57,4.21,4.21,0,0,1-.78.5,5,5,0,0,0-.76.54,8.17,8.17,0,0,1-1.59,1,3.19,3.19,0,0,1-2,.32Zm1.93-1.5a16,16,0,0,1-2.15-1.65H23a2.39,2.39,0,0,1,1.34.38,6,6,0,0,1,.88.84,1.25,1.25,0,0,1-.57.43Zm1-1.29a3.54,3.54,0,0,0-.5.07l-.29-.4,2.07.16c-.15.51-.8.17-1.28.17m-11.93.07a1.71,1.71,0,0,1,.93-.64h.28a.78.78,0,0,1,.72.57l-.79-.09-.5,0v.14a3.84,3.84,0,0,1,1.92.44,13.76,13.76,0,0,1,1.65.63l1.37.14v.08l1.14-.23c-.32.45-1.85.34-2.21.58L17,49.65A15.16,15.16,0,0,1,15.3,49a11.76,11.76,0,0,0-1.66-.7m16.07-.14a5.4,5.4,0,0,1,1.85-.79l.07,0-.58,1h-.41l.07-.35Zm6.65,1.16c-.38.24-1.58.38-1.94.62a4.77,4.77,0,0,0-.71.08l-1-.15v-.21a8.25,8.25,0,0,0,1.14-.15,3.33,3.33,0,0,0,.51-.13c.3,0,.13.11.53,0a12.72,12.72,0,0,0,1.82-.69c-.12-.42-.15-.11-.58-.07l.43-.5.93-.06a2.42,2.42,0,0,1,.57.34,17.07,17.07,0,0,1-1.7.88m-13.44.55a.48.48,0,0,1,.29-.07h.14a.29.29,0,0,1,.22.07,1,1,0,0,1-.5.29s-.16-.1-.22-.14a3,3,0,0,1-1.17-.33c-.53-.19-.81-.54-1-.6.06-.73,2.83-.5,2.93.35h-.29c-.26,0-.07,0-.14.08a3.7,3.7,0,0,0-1.79-.36c.15.2.55.23.83.31a1.8,1.8,0,0,1,.74.4m4.93-.5c.74-.19.48-.78,2-.78a4.77,4.77,0,0,1,1.71.43c-.11.42-2,1.21-2.71,1.21h-.28c-.17,0-.16-.06-.29-.14-.36,0-.61,0-.64-.36l1.42-.09.17-.25-.95,0c-.28,0,0,.11-.43.15Zm-8.21,1.15c.07-.28.84-.58,1.21-.58h.07c.31,0,.22.12.57.15v.14h-.57c.12.42.11.14.36.14a4.2,4.2,0,0,0,.79.15c.48,0,.49-.16.57.14l-.66.18-.7.12s-1.45-.4-1.64-.44m12.64.14a7.45,7.45,0,0,1-2,.36,4.17,4.17,0,0,0-1-.29c.12-.45.83-.21,1.14-.21l.22-.08-.15-.28a1.92,1.92,0,0,1,.72-.29h.14c.28,0,.79.54.93.79m-6.07-.14a1.22,1.22,0,0,1,.64-.5,2.51,2.51,0,0,1,1.16.55c.28.18,1.06.3,1.06.59s-1,.21-1.22.21-1.64-.59-1.64-.85m.14.92a.43.43,0,0,1-.28-.07c-.33.16-1,.18-1.14-.05l.35-.16.23.12.91-.11.25.25ZM21,27.2a5.57,5.57,0,0,1,2.19,0,7.92,7.92,0,0,1-2.19,0m9.1.44c0-.18,2-.12,2,0a6.52,6.52,0,0,1-2,0m-6.4-3.87c-.41.09-1.59.58-1,.83s1-.83,1-.83m19.81,8.92c.28-.14.33.85.19,1.56a4.93,4.93,0,0,1-.66,1.52s.39-1.3.42-1.63.05-1.45.05-1.45M10.26,29.93c.11.2,0,.67-.19,1.33a17.56,17.56,0,0,0-.5,2.28,5.82,5.82,0,0,0,.22,1,2.61,2.61,0,0,1-.41-.91,12.71,12.71,0,0,1,.36-2.09c.16-.61.52-1.63.52-1.63m.6,2.65c.22.11,0,.71-.19,1.21a2.44,2.44,0,0,0-.14,1.48,3.37,3.37,0,0,1-.43-1.35c0-.55.76-1.34.76-1.34m26.82-8.09c.14-.22-.74-.5-.82-.28s.82.28.82.28m-10,.44c.27,0,.63,1,.55,1.59s-.47,1.71-1,1.71-.58-.33-.58-.33.71.25,1-.25A2,2,0,0,0,28,26.08c-.11-.49-.3-1.15-.3-1.15m2.59-4.7c0-.4,1.8-.35,1.83-.1s-1.81.16-1.83.1M36,23.61c.11-.25,1.07-.33,1.18,0s-1.18,0-1.18,0m-7.26-.91c-.19-.27-1.62.33-2.06.88a4.44,4.44,0,0,0-.88,2c-.08.68.14,1.65.39,1.59s-.06-1.18,0-1.87a2.51,2.51,0,0,1,.83-1.65,7,7,0,0,1,1.67-1m-.81,12.68.63,0-.3.6v.31l.18.24-.27.59.17.24.17.27-.36.53.17.27.17.27-.33.54.17.27.11.22,0,0-.22.57.13.25.15.28-.32.52.14.28-.2.26c-.1.08-.2.07-.25-.09s0-.17,0-.33v-.35h0v0h0c0-.11,0-.24,0-.37v-.83h0v-.15c0-.8,0-1.59,0-1.9s0-.45,0-.74v0h0l0-.45-.06-.27.18-.52-.07-.28h0v-.19Zm-3.82,0,.66.09-.27.6-.05.26.17.24-.27.59.17.24.17.27-.35.53.16.27.17.27-.33.54.17.27.12.22,0,0-.23.57.14.25.14.28-.32.52.15.28L24.3,42c-.1.08-.2.07-.25-.09s0-.17,0-.33l0-.32v0h0v0h0c0-.11,0-.24,0-.37v-.83h0v-.15c0-.8,0-1.59,0-1.9s0-.45.05-.74v0h0l0-.45L24,36.38l.18-.52-.07-.28h0v-.19Zm5.07-12.21c.58-.33,2.48,1.15,2.23,1.43s-1-.19-1.24-.52a6.13,6.13,0,0,0-1-.91m-7.81,2.41c0-.36,1.91-.43,1.93-.13s-1.93.13-1.93.13M17.65,24A2.18,2.18,0,0,0,19,23.47c.53-.36.53-.6,0-.38a10.91,10.91,0,0,0-1.4.9m11.46-1.81A18,18,0,0,1,31.42,22c.71,0,2.11-.16,2.19.08s-.16.2-1.15.47-1.54.44-2.12.14a12.82,12.82,0,0,0-1.23-.55m2.53,1.24a1.54,1.54,0,0,1,1.29.66c.19.41.44.77,0,.77s-.42-.33-.66-.64-.63-.79-.63-.79m-11.52.63c-.46,0-.44-.44-.24-.63a5,5,0,0,1,1.48-.33,1.34,1.34,0,0,1-.52.35,2.34,2.34,0,0,0-.72.61m1.1.91c-.35-.25-.22-1.08.25-1.43s2-.17,2-.17a4.06,4.06,0,0,0-1.51.77c-.3.41-.8.8-.77.83M21,26.52c0-.52,2.28-.41,2.28-.13s-2.28.13-2.28.13m-.92,1.6c0-.39,4.2-.41,4.23,0s-4.23,0-4.23,0m9.23.51c.08-.44,3.87-.25,3.87-.06a25,25,0,0,1-3.87.06m.79-1.69c0-.33,2-.32,2-.07s-2,.07-2,.07m-.05-.8c0-.33,2.06-.54,2.09-.1s-2.09.1-2.09.1m3.38-2.34c.36-.08,1.56.74,1.29,1s-1.24-.9-1.29-1m1.73.17c.58-.14,1.62.57,1.29.71S35.18,24,35.18,24m-2.06-.83c0-.3,2.11-.52,2.28-.08s-2.28.08-2.28.08M20.59,19.47c0-.41,4.3-.3,4.33,0s-4.49.37-4.33,0M30.23,21c0-.33,1.89-.4,1.86-.05s-2,.38-1.86.05m-8.95-.25c0-.36,2.14-.33,2.17.05s-2.2.22-2.17-.05m5.8,14.66v-.25c0-.09.05-.14.16-.14h2.19a.28.28,0,0,1,.16,0s0,.09,0,.2a.88.88,0,0,1,0,.3s-.05.06-.11.07a.33.33,0,0,0-.28.37v5.55a.3.3,0,0,0,.2.28.38.38,0,0,1,.16.11.42.42,0,0,1,0,.18v.18c0,.1,0,.15,0,.17H27.19c-.08,0-.13,0-.13-.1a1.49,1.49,0,0,1,0-.4s.07-.09.16-.12.25-.13.25-.26V36.1a.76.76,0,0,0-.05-.29.33.33,0,0,0-.2-.16.55.55,0,0,1-.14-.09.28.28,0,0,1,0-.15m-3.85,0v-.25c0-.09.05-.14.15-.14h2.2a.3.3,0,0,1,.16,0,.38.38,0,0,1,0,.2,1,1,0,0,1,0,.3.15.15,0,0,1-.12.07.34.34,0,0,0-.28.37v5.55a.31.31,0,0,0,.21.28.38.38,0,0,1,.16.11.44.44,0,0,1,0,.18v.18c0,.1,0,.15,0,.17H23.34c-.09,0-.13,0-.13-.1a2.61,2.61,0,0,1,0-.4.24.24,0,0,1,.16-.12c.17-.05.25-.13.25-.26V36.1a.6.6,0,0,0-.05-.29.31.31,0,0,0-.2-.16l-.14-.09a.49.49,0,0,1,0-.15m6.34-16.09c0-.31,4.44-.32,4.5,0s-4.5,0-4.5,0m-10.82,2.8c.36-.08,1.81.33,1.73.61s-1.95-.36-1.73-.61m-1.29,1.32c-.17-.22-1.65-.35-1.62,0s1.62,0,1.62,0m-.25-1c.33-.22,1.59.31,1.32.55s-1.32-.55-1.32-.55m14.65,12.6c.3,0,2,1.84,1.81,2.09s-1.81-2.09-1.81-2.09m-19.81-.58c.33,0,0,.72.24,1.3a8,8,0,0,0,1.6,1.78s-2-.85-2.2-1.73a1.4,1.4,0,0,1,.36-1.35m8.9.31c.24.22-1.4,2.25-1.71,2s1.71-2,1.71-2m-6.11-5.72a1.45,1.45,0,0,0-1.23.1,2,2,0,0,0-.88,2.26,3.57,3.57,0,0,0,.69,1.29s-.77-2.39.38-2.86l.67-.24c.14,0,1.1-.15.37-.55M9.71,25.51c.33,0,.58.6.47,1.73a21,21,0,0,1-1,3.22,7.68,7.68,0,0,0,0,2.34A6,6,0,0,1,9,29.11,10.81,10.81,0,0,0,9.63,27a6.52,6.52,0,0,0,.08-1.5m20,4h3c.38,0,.44-.39,0-.4H29.77c-.38,0-.44.41,0,.41m.41.86,2.15,0c.29,0,.26-.36-.05-.36l-2.11,0c-.29,0-.33.38,0,.39m-6.38-1.13a.64.64,0,0,0,.44-.23l0,0c.27-.26-3.24-.33-3.63,0s2.55.28,3.17.28m-.4.81c1.79-.32-2.49-.52-2.46-.26s1.16.49,2.46.26m7-12.74,2.67,0c.41,0,.46.37,0,.37l-2.67,0c-.16,0-.27,0-.27-.14s.11-.23.27-.23m-.42.87h3.52c.43,0,.52.45,0,.45H30c-.19,0-.36,0-.36-.19s.15-.26.35-.26m-8.66-.14,3.28.06c.42,0,.43.5,0,.49l-3.32-.07c-.41,0-.4-.48,0-.48m.21-.89,2.69,0c.38,0,.34.42,0,.42l-2.7,0c-.33,0-.36-.42,0-.42m.42-.4h1.66c.29,0,.33-.27.06-.26l-1.78,0c-.22,0-.16.25.06.25M31,34.8A3.14,3.14,0,0,0,30.93,36a4.06,4.06,0,0,0,1,1.6,2.29,2.29,0,0,1,.73,1.08c0,.29.33.65.44.11a1.62,1.62,0,0,0-.5-1.27,13.8,13.8,0,0,1-1.17-1.73c-.23-.46-.42-1-.42-1m1.35-.53a1,1,0,0,1,.83.26c.73.61.88,1.5,1.93,1.75.39.1.75.06.77.2s-.21.6-.83.58-.83-.57-1.32-1-.66-1-1.1-1.29l-.26-.17c-.24-.19-.41-.27,0-.32m5-1.6c-.35.06-.74-.67-.48-1.62s1.45-1.18,1.45-1.18a2.55,2.55,0,0,0-1.12,1.3c-.21.79.26,1.49.15,1.5m-3-3a3.34,3.34,0,0,0,.19,1.92c.43.7.76.68.88.53s-.22-.51-.56-.9a4.1,4.1,0,0,1-.51-1.55m.92-1.56A2.47,2.47,0,0,0,35,29.82c.19.83.65,1.26.88,1.06s-.41-.61-.58-1.22a3.73,3.73,0,0,1,.07-1.51m.85.79c-.35.07-.55-.35-.2-1.1a2.07,2.07,0,0,1,1.27-1,4.3,4.3,0,0,0-.92,1c-.22.47.09,1-.15,1M41,35.59c.53-.13.82.7.53,1.26a5.41,5.41,0,0,1-1.58,1.32,3.8,3.8,0,0,0,.85-1.32c.07-.48-.13-1.14.2-1.26m2.28-5.35a6.16,6.16,0,0,1,.67,2.12,13.87,13.87,0,0,0-1-1.83c-.2-.23-1.31-.72-.79-1.1.27-.19.84.34,1.16.81M19.89,39c-.22,0-.43-.66-.26-1.31A4.22,4.22,0,0,1,21,36a4.62,4.62,0,0,0,.83-1.08c.16-.27.37-.35.24,0a4.77,4.77,0,0,1-.85,1.46c-.48.59-.91,1-1,1.52A3.18,3.18,0,0,1,19.89,39m-2.51-3.2c.19-.3,1,.06,1.37-.27a13.54,13.54,0,0,1,1.17-1,1.84,1.84,0,0,1,1.19-.41,5,5,0,0,1-.95.83c-.53.44-1.14,1.43-1.81,1.5a1,1,0,0,1-1-.63m26.65-5a13.9,13.9,0,0,1-.5-2.42c0-.64.4-1.39.81-1.13s-.11.39-.35,1a8.21,8.21,0,0,0,0,2.56m-4.15-4.12a2.55,2.55,0,0,0-1.6.35c-.48.46-.7.91-.28,1s.37-.53.72-.89,1.16-.43,1.16-.48M15.12,21.3a1.76,1.76,0,0,0,1.57-1c.33-.86.22-1.54-.18-1.48s.12.78-.23,1.5a2.14,2.14,0,0,1-1.16,1M12,20.8a3.21,3.21,0,0,0,1.8-.16c.53-.33.68-.92,1-.81s.13.88-.86,1.28A2.2,2.2,0,0,1,12,20.8m-1.69-2.32s.68,1.2,1.4,1.35,1.21-.31,1.47-.13-.26.8-1.51.44a2,2,0,0,1-1.36-1.66m-.1-2.6a3.91,3.91,0,0,0,.65,2,1.58,1.58,0,0,0,1.23.46c.36,0,.42,0,.37.18a.41.41,0,0,1-.34.3,1.72,1.72,0,0,1-1.58-.8,2.86,2.86,0,0,1-.33-2.11m1.1-1.39a1.9,1.9,0,0,0-.54,1.62,1.66,1.66,0,0,0,.9,1.47c.23.19.68-.15.37-.39s-.79-.3-1-.88a2.88,2.88,0,0,1,.23-1.82m3.76-1.77a3.89,3.89,0,0,0-2.61.84,2.13,2.13,0,0,0-.79,1.55c0,.58.61.48.7.12a6.12,6.12,0,0,1,.05-.92c.47-1.2,1.55-1.22,2.65-1.59m.64.45c-.09-.07-.47-.21-1.14.12a1.35,1.35,0,0,0-.73.66c-.23.42-.44,1,0,1,.19,0,.1-.43.32-.8a2.12,2.12,0,0,1,.72-.67,2.21,2.21,0,0,1,.79-.28m6.09-.05a3,3,0,0,1-2.2,1c-1.22,0-2.21-.32-3.33-.28a1.37,1.37,0,0,0-.83.37,1.4,1.4,0,0,1,.8-.7c1.11-.19,2.12.27,3.34.25a3.85,3.85,0,0,0,2.22-.6M16.73,17a.2.2,0,0,1,.26-.1,1.53,1.53,0,0,1,1,1.33,2.27,2.27,0,0,1-.74,2.1c-.1.09-.27.17-.06-.08a2.3,2.3,0,0,0,.64-1.75c-.19-1.42-1.26-1.23-1.14-1.5m-.19-1.25c-.21,0-.29-.29,0-.23a2.34,2.34,0,0,1,1.45.95,3.72,3.72,0,0,1,.55,2c0,.2-.17,0-.17-.22a3.86,3.86,0,0,0-.61-1.67,2.07,2.07,0,0,0-1.26-.82M23,13.06a4.5,4.5,0,0,0-.27.54c-.11.22-.56.08-.41-.18a6.25,6.25,0,0,1,.37-.64,3.74,3.74,0,0,1,1.34-1.31c.32-.16.6-.21.61-.13a7.49,7.49,0,0,0-.69.52,5.24,5.24,0,0,0-.95,1.2m15.4.85c.16,0,.48.9.43,1.48a2.46,2.46,0,0,1-.45,1.31c-.22.32-.54,0-.31-.29a2.37,2.37,0,0,0,.48-.93,4.34,4.34,0,0,0-.15-1.57m-2-2.58c.91-.22,2.45,1,3,2.37.23.67.47,1.75,1.16,2.11a1.55,1.55,0,0,0,.9.16c.2,0,.45-.15.58.13s0,.35-.24.41a2.24,2.24,0,0,1-1.33-.11,1.93,1.93,0,0,1-.8-.75,13.25,13.25,0,0,1-.65-1.86c-1-2.42-2.72-2.16-2.65-2.46M22.73,14.09c.75-.27.66.11.25.91s-.3,1-.66.8-.11-1.6.41-1.71M15.3,10.47a6.57,6.57,0,0,0,2.46,1.59,20.34,20.34,0,0,0,4.18.6,13.56,13.56,0,0,1-4.34.06C16,12.28,15,10.8,15.3,10.47m16.48,4.29a.28.28,0,0,1,.16.53.52.52,0,0,0-.39.51c0,.38.31.41.31.41a.27.27,0,0,1,.24.3.27.27,0,0,1-.3.25.94.94,0,0,1-.79-.92,1,1,0,0,1,.77-1.08M27.05,24.82c.22.28.95,2.63.16,2.59-1,0-.24-2.2-.16-2.59m-5,6.62c.33.15.4.64.15,1.09s-.71.7-1,.55S20.77,32.44,21,32s.71-.7,1-.55m9.2.59a.83.83,0,0,1,.82.86.82.82,0,1,1-.82-.86m6-19.64a1.93,1.93,0,0,1,.42,2,1.4,1.4,0,0,1-1.2.9c-.46.06-.52-.5-.09-.48a.92.92,0,0,0,1-.57c.3-1.12-.32-1.8-.14-1.86M26.24,23a28.79,28.79,0,0,0-2.85-.83c-.57-.14-1.34-.41-1.18-.27a9.28,9.28,0,0,0,1.49.6l2.35.66-.16.08a8.87,8.87,0,0,1-2.83-.57,17.2,17.2,0,0,0-2.06-.5c-.82-.16-.66-.55-.66-.55a8.71,8.71,0,0,1,2.94.19,17.24,17.24,0,0,1,3,.88.22.22,0,0,1,0,.31M8.56,24c.33-.13,1.08.26,1.48.69a6.17,6.17,0,0,1,.8,1.32,7.41,7.41,0,0,1,4-.91,4.55,4.55,0,0,1,4,5c-.11,2.36-1.17,4.37-3.77,4a3,3,0,0,1-2.49-4.41,2.41,2.41,0,0,1,2.94-1.26c.68.19,1.08,1.07,1.19,1.78.19,1.23-.37,1-.93.87s-.84-.18-1,0c-.33.44,0,1.65,1.31,1.76s1.07-1.27,1.07-2a4.83,4.83,0,0,1,.44-1.7s-.6.27-.82-.11-.22-1-.55-1.65a2.69,2.69,0,0,0-2.5-1.15c-1.15.05-2.8.86-2.66,1.26.08.23.49.15.87-.07.67-.38,1.11-.55.59.59-.11.24-.24.39-.36.66a15.84,15.84,0,0,0-.55,2.07c-.19.57-.77.89-.77,1.47,0,.22.41-.19.63-.08s.25.63,0,1.07-.58,1.19-.39,1.46.83-1,1.35-.82.33,1.84.55,2.2a2.73,2.73,0,0,0,2.34,1.21A5.26,5.26,0,0,0,17.51,37s-1.1-1.32-.66-1.6,1.1,0,1.46-.22.69-.63,1.29-1.07A2.76,2.76,0,0,1,21,33.65h0a1.47,1.47,0,0,1-.55-1.16A1.52,1.52,0,0,1,21.55,31a5.53,5.53,0,0,1-1.07-.92c-.4-.47-.49-1.45-.64-1.68a1.72,1.72,0,0,1-.24-1.28h1V24.45a1.32,1.32,0,0,1-1.32-.15c-.28,0-.94.16-1.34.16s-1,0-1.35-.3c-.34,0-1.31-.13-1.34-.61a.46.46,0,0,1,.23-.39,2.07,2.07,0,0,1,1.22-.46c0-.14.08-.44.24-.51a2,2,0,0,1,1.32,0c0-.25,0-.41.18-.44a1.89,1.89,0,0,1,1.27.08c-.06-.46-.19-.84,0-.93.33-.15.8,0,1.15,0v-.82h-.4q-.72,0-.42-.72c.08-.19.25-.27.4-.45.39-.46.28-1.18.55-1.81a2.31,2.31,0,0,1,1-1l0-.05a1.5,1.5,0,0,1-.33-.95A1.46,1.46,0,0,1,22.15,14a6.24,6.24,0,0,1-2.58.48,28.56,28.56,0,0,0-3.32-.27c-.49.11-.6.55-1,.52s-.58-.49-.58-.49,0,1-.57,1.07a1.16,1.16,0,0,1-1-.45,3,3,0,0,1-.33,1c-.22.3-1.1,0-1.17.29s.49.37.87.84-.36.82-.36.82a1,1,0,0,1,.84.46c.23.45-.54,1-.54,1a2.3,2.3,0,0,1,1.18.11c.37.23,0,.62.25.57s.56-.69,1.14-.57.07,1.31.37,1.12A2,2,0,0,0,16,18.89c-.07-.58.14-.89.36-.92s.8,1.12,1,1.1.16-.67-.1-1.07-.79-.64-1-.95.51-.43.51-.43a1.48,1.48,0,0,0-1-.58c-.23,0-.83.09-.9-.19,0-.11.05-.26.28-.44a2.64,2.64,0,0,1,3,.63,4.11,4.11,0,0,1,.56,2.48c-.21,2.35-2.84,3.49-5,3.35a4.52,4.52,0,0,1-4.14-5.62c.49-2.52,3.26-3.93,5.6-4a2.32,2.32,0,0,1-.4-1.87c.08-.42.23-.71.4-.71s.27.54.8,1.06a6.78,6.78,0,0,0,3.72,1.44,4.29,4.29,0,0,0,3.38-.55,2.49,2.49,0,0,1,1.91-.66,1.3,1.3,0,0,1,1.12,1.21,1.87,1.87,0,0,0-1.23.14,2.19,2.19,0,0,0-.75,1.59,1.86,1.86,0,0,0,.05.27,1.51,1.51,0,0,1-.15,2.13c.19.36.68.6,1,1s.3,1.54.36,1.87.38.69.38,1-.9.23-1.18.23a9.62,9.62,0,0,0-.07,1.09c.44.22,1.13.43,1.47.6.57.28,1.12.62,1.12.62A5.27,5.27,0,0,1,28.5,22a7.57,7.57,0,0,1,1.29-.38V20h-.45c-.58,0-.45-.13-.39-.52,0-.13.25-.36.28-.52a3.35,3.35,0,0,1,.37-1.35,2.62,2.62,0,0,1,1.24-.93,1.3,1.3,0,0,1-.28-.81,1.7,1.7,0,0,1,.72-1.29c.12-2.66,1.5-4,4-4A5.37,5.37,0,0,1,39,12.06c1,1.32,1.29,2.94,1.81,3.32.33.24.5.29.72.2s.25-.34.52-.37c.71-.09,1.27,1.4.22,1.85A2.2,2.2,0,0,1,40,17a3.36,3.36,0,0,1-.73-.84s-.32,1.53-1.4,1.09,0-2.13,0-2.13-.91,1.46-1.82.77a.86.86,0,0,1-.32-1.23c.19-.29.32-.28.63-.24s.4,0,.56-.36c.29-.63-.1-2.41-2.16-2.24a2.15,2.15,0,0,0-2.11,2.5.46.46,0,0,0,.08.19,1.73,1.73,0,0,1,.78,1.32,1.51,1.51,0,0,1-.26.86c.34.61.68.52,1.11,1.18a8.9,8.9,0,0,1,.44,1.29,2.74,2.74,0,0,1,.26.94h-2v1.35a2.17,2.17,0,0,1,1,.12c.36.19.21.85.21.85a3.64,3.64,0,0,1,1.26.07.47.47,0,0,1,.31.48s1-.12,1.28.1a1.1,1.1,0,0,1,.35.6c.36.21.81.64.58,1.08s-.83.19-1.29.23c-.2,0-.42.18-.62.17a2.6,2.6,0,0,1-1-.29,1,1,0,0,1-.68.4,2.38,2.38,0,0,1-1-.49c-.08.14-.05.33-.14.47l-.35.36L33.09,28h1.13c-.08.62,0,.69-.55,1a2,2,0,0,1-.47,1.24l-.91,1v.48a1.45,1.45,0,0,1,.36,1.83,1.23,1.23,0,0,1-.07.25,3,3,0,0,1,1,.52c.46.39.77,1.06,1.42,1.41s1.25.15,1.36.42a.93.93,0,0,1-.54,1.12,3.57,3.57,0,0,1-.87.27c.58.89,2,.82,2.93.69,1.12-.15,2.14-.61,2.29-1.49.21-1.18.26-1.87.81-2s.59.81.93.66-.09-2,.16-2.36.68.15.68-.18a1.76,1.76,0,0,0-.84-1.16c-.48-.33-.5-.78-.42-.89s.55,0,.55,0-.33-.73-.61-1.25a1,1,0,0,1,0-1.12c.09-.08.27.12.52.25a1.05,1.05,0,0,0,.51.11s-1-1.5-2.24-1.55-1.2,1.11-2.06,1.21-.77-.95-1-.81A1.8,1.8,0,0,0,36.69,29c0,.5.11.79-.27.82s-.38-.41-.53-.34,0,.74.17,1,.42.65.09.79-.53-.21-.39.27.34.94.08,1.12-.36.4,0,.71a2.4,2.4,0,0,0,1.56.48,1.9,1.9,0,0,0,1.76-1.22.66.66,0,0,0-.53-.9.76.76,0,0,0-.75.3c-.26.31.39,1.29.06,1.26a1.53,1.53,0,0,1-.69-.2,1.55,1.55,0,0,1-.75-1.75,2,2,0,0,1,2.23-1.8,2.14,2.14,0,0,1,2.18,2.19A3.2,3.2,0,0,1,37.75,35a4,4,0,0,1-3.85-4.25,4.72,4.72,0,0,1,4.87-4.51,5.16,5.16,0,0,1,3.3,1.09,1.45,1.45,0,0,0,.66.26c.5,0,1.13-1.29,1.65-1.27s1.46,1,1.21,1.32-.27.15-.47.23c-.38.15-.52.93-.57,1.69-.12,1.77,0,3.7-.63,5.37a6.76,6.76,0,0,1-5.72,4.4c-3.3.2-3.65-.38-4.2-.71-.18.19-.13.69-.61,1.11s-1.29.43-1.4.15.41-.79.17-1.26-1-.84-1.36-1.71a2.59,2.59,0,0,1,.13-2.61,1.46,1.46,0,0,1-.37-2.6v-.37a9.06,9.06,0,0,1-1.15-1.07,1.48,1.48,0,0,1-.29-1A1.14,1.14,0,0,1,28.74,28h.94V24.39c0-.35-.36-.52-.71-.53a1.09,1.09,0,0,0-1,.33,3.71,3.71,0,0,1,.66,2c-.05,1-.44,2.48-1.54,2.4S25.43,27.16,25.45,26a5,5,0,0,1,.42-1.93,1,1,0,0,0-.8-.41c-.5-.07-.66.06-.74.5s0,3.35,0,3.35h1.11a1.8,1.8,0,0,1-.26,1.08c-.35.48-.3.83-.76,1.42a3.84,3.84,0,0,1-1.63,1.14l.05.08A1.5,1.5,0,0,1,22.16,34a2.61,2.61,0,0,1,.33,1.92,8.18,8.18,0,0,1-1.76,2.34c-.58.61.19,1.73-.36,1.76a1.41,1.41,0,0,1-1.4-.85,3.81,3.81,0,0,1-.11-1.24s-.85.61-3.35.61a8.14,8.14,0,0,1-6.29-3.41,7.5,7.5,0,0,1-.77-5.78,10.78,10.78,0,0,0,.74-2.89c.05-.93-.5-1.54-.63-2.49"/></g></g></svg>