<svg xmlns="http://www.w3.org/2000/svg" viewBox="0 0 407.05 2.64"><defs><style>.cls-1{fill:#7f6841;fill-rule:evenodd;}</style></defs><title>Asset 6</title><g id="Layer_2" data-name="Layer 2"><g id="Layer_1-2" data-name="Layer 1"><path class="cls-1" d="M.58,2.64c0-.09,0-.19,0-.29h0v0H406.45c0,.11,0,.22,0,.33H.58M.14.26H406.91l.14-.26H0L.09.18h0ZM.58,1.91H406.47a5,5,0,0,1,.08-.56H.5l0,.07h0v0h0v0h0v0h0v.09h0v.06h0ZM1,.36a1.62,1.62,0,0,0,0,.58c0,.16-.07.31.13.31s.17.06.15-.12S1.17,1,1.16.89s0-.25,0-.39S1.14.35,1,.36m.9,0a1.62,1.62,0,0,0,0,.58c0,.16-.07.31.13.31s.17.06.15-.12S2.07,1,2.06.89s0-.25,0-.39,0-.15-.19-.14m.9,0a1.62,1.62,0,0,0,0,.58c0,.16-.07.31.13.31S3,1.31,3,1.13,3,1,3,.89,3,.64,3,.5,3,.35,2.76.36m.91,0a1.26,1.26,0,0,0,0,.58c0,.16-.08.31.12.31s.17.06.15-.12,0-.16-.06-.24,0-.25,0-.39,0-.15-.18-.14m.9,0a1.42,1.42,0,0,0,0,.58c0,.16-.07.31.13.31s.16.06.15-.12A2.1,2.1,0,0,1,4.77.89a2.51,2.51,0,0,1,0-.39c0-.19,0-.15-.19-.14m.9,0a1.42,1.42,0,0,0,0,.58c0,.16-.07.31.13.31s.17.06.15-.12S5.68,1,5.67.89a2.51,2.51,0,0,1,0-.39c0-.19,0-.15-.19-.14m.9,0a1.62,1.62,0,0,0,0,.58c0,.16-.07.31.13.31s.17.06.15-.12,0-.16-.06-.24a2.51,2.51,0,0,1,0-.39c0-.19,0-.15-.19-.14m.9,0a1.62,1.62,0,0,0,0,.58c0,.16-.07.31.13.31s.17.06.15-.12,0-.16-.06-.24,0-.25,0-.39,0-.15-.19-.14m.9,0a1.62,1.62,0,0,0,0,.58c0,.16-.07.31.13.31s.17.06.15-.12,0-.16-.06-.24,0-.25,0-.39,0-.15-.19-.14m.9,0a1.62,1.62,0,0,0,0,.58c0,.16-.07.31.13.31s.17.06.15-.12S9.28,1,9.27.89s0-.25,0-.39,0-.15-.19-.14m.91,0a1.26,1.26,0,0,0,0,.58c0,.16-.08.31.13.31s.16.06.14-.12S10.18,1,10.18.89a2.48,2.48,0,0,1,0-.39c0-.19,0-.15-.18-.14m.9,0a1.42,1.42,0,0,0,0,.58c0,.16-.07.31.13.31s.16.06.15-.12S11.09,1,11.08.89a2.51,2.51,0,0,1,0-.39c0-.19,0-.15-.19-.14m.9,0a1.42,1.42,0,0,0,0,.58c0,.16-.07.31.13.31s.17.06.15-.12S12,1,12,.89A2.51,2.51,0,0,1,12,.5c0-.19,0-.15-.19-.14m.9,0a1.62,1.62,0,0,0,0,.58c0,.16-.07.31.13.31s.17.06.15-.12,0-.16-.06-.24a2.51,2.51,0,0,1,0-.39c0-.19,0-.15-.19-.14m.9,0a1.62,1.62,0,0,0,0,.58c0,.16-.07.31.13.31s.17.06.15-.12S13.79,1,13.78.89s0-.25,0-.39,0-.15-.19-.14m.9,0a1.62,1.62,0,0,0,0,.58c0,.16-.07.31.13.31s.17.06.15-.12S14.69,1,14.68.89s0-.25,0-.39,0-.15-.19-.14m.9,0a1.62,1.62,0,0,0,0,.58c.05.16-.07.31.13.31s.17.06.15-.12S15.59,1,15.58.89s0-.25,0-.39,0-.15-.19-.14m.91,0a1.26,1.26,0,0,0,0,.58c0,.16-.08.31.13.31s.16.06.14-.12S16.49,1,16.49.89a2.51,2.51,0,0,1,0-.39c0-.19,0-.15-.19-.14m.9,0a1.42,1.42,0,0,0,0,.58c0,.16-.07.31.13.31s.16.06.15-.12S17.4,1,17.39.89a2.51,2.51,0,0,1,0-.39c0-.19,0-.15-.19-.14m.9,0a1.42,1.42,0,0,0,0,.58c0,.16-.07.31.13.31s.17.06.15-.12S18.3,1,18.29.89a2.51,2.51,0,0,1,0-.39c0-.19,0-.15-.19-.14m.9,0a1.62,1.62,0,0,0,0,.58c0,.16-.07.31.13.31s.17.06.15-.12S19.2,1,19.19.89a2.51,2.51,0,0,1,0-.39c0-.19,0-.15-.19-.14m.9,0a1.62,1.62,0,0,0,0,.58c0,.16-.07.31.13.31s.17.06.15-.12,0-.16-.06-.24,0-.25,0-.39,0-.15-.19-.14m.9,0a1.62,1.62,0,0,0,0,.58c.05.16-.07.31.13.31s.17.06.15-.12S21,1,21,.89s0-.25,0-.39,0-.15-.19-.14m.9,0a1.62,1.62,0,0,0,0,.58c0,.16-.07.31.13.31s.17.06.15-.12S21.9,1,21.89.89s0-.25,0-.39,0-.15-.19-.14m.91,0a1.26,1.26,0,0,0,0,.58c0,.16-.08.31.13.31s.16.06.14-.12S22.8,1,22.8.89a2.51,2.51,0,0,1,0-.39c0-.19,0-.15-.19-.14m.9,0a1.42,1.42,0,0,0,0,.58c0,.16-.07.31.13.31s.16.06.15-.12S23.71,1,23.7.89a2.51,2.51,0,0,1,0-.39c0-.19,0-.15-.19-.14m.9,0a1.42,1.42,0,0,0,0,.58c0,.16-.07.31.13.31s.17.06.15-.12S24.61,1,24.6.89a2.51,2.51,0,0,1,0-.39c0-.19,0-.15-.19-.14m.9,0a1.62,1.62,0,0,0,0,.58c0,.16-.07.31.13.31s.17.06.15-.12,0-.16-.06-.24a2.51,2.51,0,0,1,0-.39c0-.19,0-.15-.19-.14m.9,0a1.62,1.62,0,0,0,0,.58c0,.16-.07.31.13.31s.17.06.15-.12S26.41,1,26.4.89s0-.25,0-.39,0-.15-.19-.14m.9,0a1.62,1.62,0,0,0,0,.58c.05.16-.07.31.13.31s.17.06.15-.12S27.31,1,27.3.89s0-.25,0-.39,0-.15-.19-.14m.91,0a1.26,1.26,0,0,0,0,.58c0,.16-.08.31.12.31s.17.06.15-.12S28.21,1,28.2.89s0-.25,0-.39,0-.15-.18-.14m.9,0a1.26,1.26,0,0,0,0,.58c0,.16-.08.31.13.31s.16.06.14-.12S29.11,1,29.11.89a2.51,2.51,0,0,1,0-.39c0-.19,0-.15-.19-.14m.9,0a1.42,1.42,0,0,0,0,.58c0,.16-.07.31.13.31s.16.06.15-.12A2.1,2.1,0,0,1,30,.89,2.51,2.51,0,0,1,30,.5c0-.19,0-.15-.19-.14m.9,0a1.42,1.42,0,0,0,0,.58c0,.16-.07.31.13.31s.17.06.15-.12,0-.16-.06-.24a2.51,2.51,0,0,1,0-.39c0-.19,0-.15-.19-.14m.9,0a1.62,1.62,0,0,0,0,.58c0,.16-.07.31.13.31s.17.06.15-.12S31.82,1,31.81.89a2.51,2.51,0,0,1,0-.39c0-.19,0-.15-.19-.14m.9,0a1.62,1.62,0,0,0,0,.58c0,.16-.07.31.13.31s.17.06.15-.12S32.72,1,32.71.89s0-.25,0-.39,0-.15-.19-.14m.9,0a1.62,1.62,0,0,0,0,.58c0,.16-.07.31.13.31s.17.06.15-.12S33.62,1,33.61.89s0-.25,0-.39,0-.15-.19-.14m.91,0a1.26,1.26,0,0,0,0,.58c0,.16-.08.31.12.31s.17.06.15-.12,0-.16-.06-.24,0-.25,0-.39,0-.15-.18-.14m.9,0a1.26,1.26,0,0,0,0,.58c0,.16-.08.31.13.31s.16.06.14-.12,0-.16,0-.24a2.51,2.51,0,0,1,0-.39c0-.19,0-.15-.19-.14m.9,0a1.42,1.42,0,0,0,0,.58c0,.16-.07.31.13.31s.16.06.15-.12a2.1,2.1,0,0,1-.06-.24,2.51,2.51,0,0,1,0-.39c0-.19,0-.15-.19-.14m.9,0a1.42,1.42,0,0,0,0,.58c0,.16-.07.31.13.31s.17.06.15-.12S37.23,1,37.22.89a2.51,2.51,0,0,1,0-.39c0-.19,0-.15-.19-.14m.9,0a1.62,1.62,0,0,0,0,.58c0,.16-.07.31.13.31s.17.06.15-.12,0-.16-.06-.24a2.51,2.51,0,0,1,0-.39c0-.19,0-.15-.19-.14m.9,0a1.62,1.62,0,0,0,0,.58c.05.16-.07.31.13.31s.17.06.15-.12S39,1,39,.89s0-.25,0-.39,0-.15-.19-.14m.9,0a1.62,1.62,0,0,0,0,.58c0,.16-.07.31.13.31s.17.06.15-.12,0-.16-.06-.24,0-.25,0-.39,0-.15-.19-.14m.91,0a1.26,1.26,0,0,0,0,.58c0,.16-.08.31.12.31s.17.06.15-.12S40.83,1,40.82.89s0-.25,0-.39,0-.15-.18-.14m.9,0a1.26,1.26,0,0,0,0,.58c0,.16-.08.31.13.31s.16.06.14-.12S41.73,1,41.73.89a2.51,2.51,0,0,1,0-.39c0-.19,0-.15-.19-.14m.9,0a1.42,1.42,0,0,0,0,.58c0,.16-.07.31.13.31s.17.06.15-.12,0-.16-.06-.24a2.51,2.51,0,0,1,0-.39c0-.19,0-.15-.19-.14m.9,0a1.42,1.42,0,0,0,0,.58c0,.16-.07.31.13.31s.17.06.15-.12S43.54,1,43.53.89a2.51,2.51,0,0,1,0-.39c0-.19,0-.15-.19-.14m.9,0a1.62,1.62,0,0,0,0,.58c0,.16-.07.31.13.31s.17.06.15-.12S44.44,1,44.43.89a2.51,2.51,0,0,1,0-.39c0-.19,0-.15-.19-.14m.9,0a1.62,1.62,0,0,0,0,.58c0,.16-.07.31.13.31s.17.06.15-.12,0-.16-.06-.24,0-.25,0-.39,0-.15-.19-.14m.9,0a1.62,1.62,0,0,0,0,.58c.05.16-.07.31.13.31s.17.06.15-.12,0-.16-.06-.24,0-.25,0-.39,0-.15-.19-.14m.91,0a1.26,1.26,0,0,0,0,.58c0,.16-.08.31.12.31s.17.06.15-.12,0-.16-.06-.24,0-.25,0-.39,0-.15-.18-.14m.9,0a1.26,1.26,0,0,0,0,.58c0,.16-.08.31.13.31s.16.06.14-.12S48,1,48,.89A2.51,2.51,0,0,1,48,.5c0-.19,0-.15-.19-.14m.9,0a1.42,1.42,0,0,0,0,.58c0,.16-.07.31.13.31s.17.06.15-.12S49,1,48.94.89a2.51,2.51,0,0,1,0-.39c0-.19,0-.15-.19-.14m.9,0a1.42,1.42,0,0,0,0,.58c0,.16-.07.31.13.31s.17.06.15-.12,0-.16-.06-.24a2.51,2.51,0,0,1,0-.39c0-.19,0-.15-.19-.14m.9,0a1.62,1.62,0,0,0,0,.58c0,.16-.07.31.13.31s.17.06.15-.12,0-.16-.06-.24a2.51,2.51,0,0,1,0-.39c0-.19,0-.15-.19-.14m.9,0a1.62,1.62,0,0,0,0,.58c0,.16-.07.31.13.31s.17.06.15-.12S51.65,1,51.64.89s0-.25,0-.39,0-.15-.19-.14m.9,0a1.62,1.62,0,0,0,0,.58c0,.16-.07.31.13.31s.17.06.15-.12S52.55,1,52.54.89s0-.25,0-.39,0-.15-.19-.14m.91,0a1.26,1.26,0,0,0,0,.58c0,.16-.08.31.12.31s.17.06.15-.12,0-.16-.06-.24,0-.25,0-.39,0-.15-.18-.14m.9,0a1.26,1.26,0,0,0,0,.58c0,.16-.08.31.13.31s.16.06.14-.12,0-.16,0-.24a2.51,2.51,0,0,1,0-.39c0-.19,0-.15-.19-.14m.9,0a1.42,1.42,0,0,0,0,.58c0,.16-.07.31.13.31s.17.06.15-.12S55.26,1,55.25.89a2.51,2.51,0,0,1,0-.39c0-.19,0-.15-.19-.14m.9,0a1.42,1.42,0,0,0,0,.58c0,.16-.07.31.13.31s.17.06.15-.12S56.16,1,56.15.89a2.51,2.51,0,0,1,0-.39c0-.19,0-.15-.19-.14m.9,0a1.62,1.62,0,0,0,0,.58c0,.16-.07.31.13.31s.17.06.15-.12,0-.16-.06-.24,0-.25,0-.39,0-.15-.19-.14m.9,0a1.62,1.62,0,0,0,0,.58c.05.16-.07.31.13.31s.17.06.15-.12S58,1,58,.89s0-.25,0-.39,0-.15-.19-.14m.9,0a1.62,1.62,0,0,0,0,.58c0,.16-.07.31.13.31s.17.06.15-.12,0-.16-.06-.24,0-.25,0-.39,0-.15-.19-.14m.91,0a1.26,1.26,0,0,0,0,.58c0,.16-.08.31.12.31s.17.06.15-.12S59.76,1,59.75.89s0-.25,0-.39,0-.15-.18-.14m.9,0a1.26,1.26,0,0,0,0,.58c0,.16-.08.31.13.31s.16.06.14-.12S60.66,1,60.66.89a2.51,2.51,0,0,1,0-.39c0-.19,0-.15-.19-.14m.9,0a1.42,1.42,0,0,0,0,.58c0,.16-.07.31.13.31s.17.06.15-.12,0-.16-.06-.24a2.51,2.51,0,0,1,0-.39c0-.19,0-.15-.19-.14m.9,0a1.42,1.42,0,0,0,0,.58c0,.16-.07.31.13.31s.17.06.15-.12S62.47,1,62.46.89a2.51,2.51,0,0,1,0-.39c0-.19,0-.15-.19-.14m.9,0a1.62,1.62,0,0,0,0,.58c0,.16-.07.31.13.31s.17.06.15-.12S63.37,1,63.36.89s0-.25,0-.39,0-.15-.19-.14m.9,0a1.62,1.62,0,0,0,0,.58c0,.16-.07.31.13.31s.17.06.15-.12,0-.16-.06-.24,0-.25,0-.39,0-.15-.19-.14m.9,0a1.62,1.62,0,0,0,0,.58c0,.16-.07.31.13.31s.17.06.15-.12,0-.16-.06-.24,0-.25,0-.39,0-.15-.19-.14m.91,0a1.26,1.26,0,0,0,0,.58c0,.16-.08.31.12.31s.17.06.15-.12S66.07,1,66.06.89s0-.25,0-.39,0-.15-.18-.14m.9,0a1.26,1.26,0,0,0,0,.58c0,.16-.08.31.13.31s.16.06.14-.12S67,1,67,.89A2.51,2.51,0,0,1,67,.5c0-.19,0-.15-.19-.14m.9,0a1.42,1.42,0,0,0,0,.58c0,.16-.07.31.13.31s.17.06.15-.12S67.88,1,67.87.89a2.51,2.51,0,0,1,0-.39c0-.19,0-.15-.19-.14m.9,0a1.42,1.42,0,0,0,0,.58c0,.16-.07.31.13.31s.17.06.15-.12,0-.16-.06-.24a2.51,2.51,0,0,1,0-.39c0-.19,0-.15-.19-.14m.9,0a1.62,1.62,0,0,0,0,.58c0,.16-.07.31.13.31s.17.06.15-.12,0-.16-.06-.24,0-.25,0-.39,0-.15-.19-.14m.9,0a1.62,1.62,0,0,0,0,.58c.05.16-.07.31.13.31s.17.06.15-.12,0-.16-.06-.24,0-.25,0-.39,0-.15-.19-.14m.9,0a1.62,1.62,0,0,0,0,.58c0,.16-.07.31.13.31s.17.06.15-.12,0-.16-.06-.24,0-.25,0-.39,0-.15-.19-.14m.91,0a1.26,1.26,0,0,0,0,.58c0,.16-.08.31.12.31s.17.06.15-.12S72.38,1,72.37.89s0-.25,0-.39,0-.15-.18-.14m.9,0a1.26,1.26,0,0,0,0,.58c0,.16-.08.31.13.31s.16.06.14-.12,0-.16,0-.24a2.51,2.51,0,0,1,0-.39c0-.19,0-.15-.19-.14m.9,0a1.42,1.42,0,0,0,0,.58c0,.16-.07.31.13.31s.17.06.15-.12,0-.16-.06-.24a2.51,2.51,0,0,1,0-.39c0-.19,0-.15-.19-.14m.9,0a1.42,1.42,0,0,0,0,.58c0,.16-.07.31.13.31s.17.06.15-.12,0-.16-.06-.24a2.51,2.51,0,0,1,0-.39c0-.19,0-.15-.19-.14m.9,0a1.62,1.62,0,0,0,0,.58c0,.16-.07.31.13.31s.17.06.15-.12S76,1,76,.89s0-.25,0-.39,0-.15-.19-.14m.9,0a1.62,1.62,0,0,0,0,.58c0,.16-.07.31.13.31s.17.06.15-.12,0-.16-.06-.24,0-.25,0-.39,0-.15-.19-.14m.9,0a1.62,1.62,0,0,0,0,.58c0,.16-.07.31.13.31s.17.06.15-.12,0-.16-.06-.24,0-.25,0-.39,0-.15-.19-.14m.91,0a1.26,1.26,0,0,0,0,.58c0,.16-.08.31.12.31s.17.06.15-.12,0-.16-.06-.24,0-.25,0-.39,0-.15-.18-.14m.9,0a1.26,1.26,0,0,0,0,.58c0,.16-.08.31.13.31s.16.06.14-.12,0-.16,0-.24a2.51,2.51,0,0,1,0-.39c0-.19,0-.15-.19-.14m.9,0a1.42,1.42,0,0,0,0,.58c0,.16-.07.31.13.31s.17.06.15-.12,0-.16-.06-.24a2.51,2.51,0,0,1,0-.39c0-.19,0-.15-.19-.14m.9,0a1.42,1.42,0,0,0,0,.58c0,.16-.07.31.13.31s.17.06.15-.12,0-.16-.06-.24a2.51,2.51,0,0,1,0-.39c0-.19,0-.15-.19-.14m.9,0a1.62,1.62,0,0,0,0,.58c0,.16-.07.31.13.31s.17.06.15-.12,0-.16-.06-.24,0-.25,0-.39,0-.15-.19-.14m.9,0a1.62,1.62,0,0,0,0,.58c0,.16-.07.31.13.31s.17.06.15-.12,0-.16-.06-.24,0-.25,0-.39,0-.15-.19-.14m.9,0a1.62,1.62,0,0,0,0,.58c0,.16-.07.31.13.31s.17.06.15-.12S84.1,1,84.09.89s0-.25,0-.39,0-.15-.19-.14m.91,0a1.26,1.26,0,0,0,0,.58c0,.16-.08.31.12.31s.17.06.15-.12S85,1,85,.89s0-.25,0-.39,0-.15-.18-.14m.9,0a1.42,1.42,0,0,0,0,.58c0,.16-.07.31.13.31s.16.06.15-.12A2.1,2.1,0,0,1,85.9.89a2.51,2.51,0,0,1,0-.39c0-.19,0-.15-.19-.14m.9,0a1.42,1.42,0,0,0,0,.58c0,.16-.07.31.13.31s.17.06.15-.12,0-.16-.06-.24a2.51,2.51,0,0,1,0-.39c0-.19,0-.15-.19-.14m.9,0a1.42,1.42,0,0,0,0,.58c0,.16-.07.31.13.31s.17.06.15-.12S87.71,1,87.7.89a2.51,2.51,0,0,1,0-.39c0-.19,0-.15-.19-.14m.9,0a1.62,1.62,0,0,0,0,.58c0,.16-.07.31.13.31s.17.06.15-.12,0-.16-.06-.24,0-.25,0-.39,0-.15-.19-.14m.9,0a1.62,1.62,0,0,0,0,.58c0,.16-.07.31.13.31s.17.06.15-.12,0-.16-.06-.24,0-.25,0-.39,0-.15-.19-.14m.9,0a1.62,1.62,0,0,0,0,.58c0,.16-.07.31.13.31s.17.06.15-.12,0-.16-.06-.24,0-.25,0-.39,0-.15-.19-.14m.91,0a1.26,1.26,0,0,0,0,.58c0,.16-.08.31.12.31s.17.06.15-.12,0-.16-.06-.24,0-.25,0-.39,0-.15-.18-.14m.9,0a1.42,1.42,0,0,0,0,.58c0,.16-.07.31.13.31s.16.06.15-.12a2.1,2.1,0,0,1-.06-.24,2.51,2.51,0,0,1,0-.39c0-.19,0-.15-.19-.14m.9,0a1.42,1.42,0,0,0,0,.58c0,.16-.07.31.13.31s.17.06.15-.12,0-.16-.06-.24a2.51,2.51,0,0,1,0-.39c0-.19,0-.15-.19-.14m.9,0a1.62,1.62,0,0,0,0,.58c0,.16-.07.31.13.31s.17.06.15-.12S94,1,94,.89A2.51,2.51,0,0,1,94,.5c0-.19,0-.15-.19-.14m.9,0a1.62,1.62,0,0,0,0,.58c0,.16-.07.31.13.31s.17.06.15-.12,0-.16-.06-.24,0-.25,0-.39,0-.15-.19-.14m.9,0a1.62,1.62,0,0,0,0,.58c0,.16-.07.31.13.31s.17.06.15-.12S95.82,1,95.81.89s0-.25,0-.39,0-.15-.19-.14m.9,0a1.62,1.62,0,0,0,0,.58c.05.16-.07.31.13.31s.17.06.15-.12,0-.16-.06-.24,0-.25,0-.39,0-.15-.19-.14m.91,0a1.26,1.26,0,0,0,0,.58c0,.16-.08.31.13.31s.16.06.14-.12,0-.16,0-.24a2.51,2.51,0,0,1,0-.39c0-.19,0-.15-.19-.14m.9,0a1.42,1.42,0,0,0,0,.58c0,.16-.07.31.13.31s.16.06.15-.12,0-.16-.06-.24a2.51,2.51,0,0,1,0-.39c0-.19,0-.15-.19-.14m.9,0a1.42,1.42,0,0,0,0,.58c0,.16-.07.31.13.31s.17.06.15-.12,0-.16-.06-.24a2.51,2.51,0,0,1,0-.39c0-.19,0-.15-.19-.14m.9,0a1.62,1.62,0,0,0,0,.58c0,.16-.07.31.13.31s.17.06.15-.12,0-.16-.06-.24a2.51,2.51,0,0,1,0-.39c0-.19,0-.15-.19-.14m.9,0a1.62,1.62,0,0,0,0,.58c0,.16-.07.31.13.31s.17.06.15-.12,0-.16-.06-.24,0-.25,0-.39,0-.15-.19-.14m.9,0a1.62,1.62,0,0,0,0,.58c0,.16-.07.31.13.31s.17.06.15-.12-.05-.16-.06-.24,0-.25,0-.39,0-.15-.19-.14m.9,0a1.62,1.62,0,0,0,0,.58c0,.16-.07.31.13.31s.17.06.15-.12S103,1,103,.89s0-.25,0-.39,0-.15-.19-.14m.91,0a1.26,1.26,0,0,0,0,.58c0,.16-.08.31.13.31s.16.06.14-.12,0-.16,0-.24a2.51,2.51,0,0,1,0-.39c0-.19,0-.15-.19-.14m.9,0a1.42,1.42,0,0,0,0,.58c0,.16-.07.31.13.31s.16.06.15-.12,0-.16-.06-.24a2.51,2.51,0,0,1,0-.39c0-.19,0-.15-.19-.14m.9,0a1.42,1.42,0,0,0,0,.58c0,.16-.07.31.13.31s.17.06.15-.12-.05-.16-.06-.24a2.51,2.51,0,0,1,0-.39c0-.19,0-.15-.19-.14m.9,0a1.62,1.62,0,0,0,0,.58c0,.16-.07.31.13.31s.17.06.15-.12,0-.16-.06-.24a2.51,2.51,0,0,1,0-.39c0-.19,0-.15-.19-.14m.9,0a1.62,1.62,0,0,0,0,.58c0,.16-.07.31.13.31s.17.06.15-.12,0-.16-.06-.24,0-.25,0-.39,0-.15-.19-.14m.9,0a1.62,1.62,0,0,0,0,.58c.05.16-.07.31.13.31s.17.06.15-.12,0-.16-.06-.24,0-.25,0-.39,0-.15-.19-.14m.9,0a1.62,1.62,0,0,0,0,.58c0,.16-.07.31.13.31s.17.06.15-.12,0-.16-.06-.24,0-.25,0-.39,0-.15-.19-.14m.91,0a1.26,1.26,0,0,0,0,.58c0,.16-.08.31.13.31s.16.06.14-.12-.05-.16-.05-.24a2.51,2.51,0,0,1,0-.39c0-.19,0-.15-.19-.14m.9,0a1.42,1.42,0,0,0,0,.58c0,.16-.07.31.13.31s.16.06.15-.12a2.1,2.1,0,0,1-.06-.24,2.51,2.51,0,0,1,0-.39c0-.19,0-.15-.19-.14m.9,0a1.42,1.42,0,0,0,0,.58c0,.16-.07.31.13.31s.17.06.15-.12,0-.16-.06-.24a2.51,2.51,0,0,1,0-.39c0-.19,0-.15-.19-.14m.9,0a1.62,1.62,0,0,0,0,.58c0,.16-.07.31.13.31s.17.06.15-.12,0-.16-.06-.24a2.51,2.51,0,0,1,0-.39c0-.19,0-.15-.19-.14m.9,0a1.62,1.62,0,0,0,0,.58c0,.16-.07.31.13.31s.17.06.15-.12-.05-.16-.06-.24,0-.25,0-.39,0-.15-.19-.14m.9,0a1.62,1.62,0,0,0,0,.58c0,.16-.07.31.13.31s.17.06.15-.12,0-.16-.06-.24,0-.25,0-.39,0-.15-.19-.14m.9,0a1.62,1.62,0,0,0,0,.58c0,.16-.07.31.13.31s.17.06.15-.12,0-.16-.06-.24,0-.25,0-.39,0-.15-.19-.14m.91,0a1.26,1.26,0,0,0,0,.58c0,.16-.08.31.13.31s.16.06.14-.12,0-.16,0-.24a2.51,2.51,0,0,1,0-.39c0-.19,0-.15-.19-.14m.9,0a1.42,1.42,0,0,0,0,.58c0,.16-.07.31.13.31s.16.06.15-.12a2.1,2.1,0,0,1-.06-.24,2.51,2.51,0,0,1,0-.39c0-.19,0-.15-.19-.14m.9,0a1.42,1.42,0,0,0,0,.58c0,.16-.07.31.13.31s.17.06.15-.12,0-.16-.06-.24a2.51,2.51,0,0,1,0-.39c0-.19,0-.15-.19-.14m.9,0a1.62,1.62,0,0,0,0,.58c0,.16-.07.31.13.31s.17.06.15-.12,0-.16-.06-.24a2.51,2.51,0,0,1,0-.39c0-.19,0-.15-.19-.14m.9,0a1.62,1.62,0,0,0,0,.58c0,.16-.07.31.13.31s.17.06.15-.12,0-.16-.06-.24,0-.25,0-.39,0-.15-.19-.14m.9,0a1.62,1.62,0,0,0,0,.58c0,.16-.07.31.13.31s.17.06.15-.12,0-.16-.06-.24,0-.25,0-.39,0-.15-.19-.14m.9,0a1.62,1.62,0,0,0,0,.58c0,.16-.07.31.13.31s.17.06.15-.12S122,1,122,.89s0-.25,0-.39,0-.15-.19-.14m.91,0a1.26,1.26,0,0,0,0,.58c0,.16-.08.31.13.31s.16.06.14-.12,0-.16,0-.24a2.48,2.48,0,0,1,0-.39c0-.19,0-.15-.18-.14m.9,0a1.42,1.42,0,0,0,0,.58c0,.16-.07.31.13.31s.16.06.15-.12a2.1,2.1,0,0,1-.06-.24,2.51,2.51,0,0,1,0-.39c0-.19,0-.15-.19-.14m.9,0a1.42,1.42,0,0,0,0,.58c0,.16-.07.31.13.31s.17.06.15-.12,0-.16-.06-.24a2.51,2.51,0,0,1,0-.39c0-.19,0-.15-.19-.14m.9,0a1.62,1.62,0,0,0,0,.58c0,.16-.07.31.13.31s.17.06.15-.12-.05-.16-.06-.24a2.51,2.51,0,0,1,0-.39c0-.19,0-.15-.19-.14m.9,0a1.62,1.62,0,0,0,0,.58c.05.16-.07.31.13.31s.17.06.15-.12,0-.16-.06-.24,0-.25,0-.39,0-.15-.19-.14m.9,0a1.62,1.62,0,0,0,0,.58c0,.16-.07.31.13.31s.17.06.15-.12,0-.16-.06-.24,0-.25,0-.39,0-.15-.19-.14m.91,0a1.26,1.26,0,0,0,0,.58c0,.16-.08.31.12.31s.17.06.15-.12,0-.16-.06-.24,0-.25,0-.39,0-.15-.18-.14m.9,0a1.26,1.26,0,0,0,0,.58c0,.16-.08.31.13.31s.16.06.14-.12-.05-.16-.05-.24a2.51,2.51,0,0,1,0-.39c0-.19,0-.15-.19-.14m.9,0a1.42,1.42,0,0,0,0,.58c0,.16-.07.31.13.31s.16.06.15-.12a2.1,2.1,0,0,1-.06-.24,2.51,2.51,0,0,1,0-.39c0-.19,0-.15-.19-.14m.9,0a1.42,1.42,0,0,0,0,.58c0,.16-.07.31.13.31s.17.06.15-.12S131,1,131,.89a2.51,2.51,0,0,1,0-.39c0-.19,0-.15-.19-.14m.9,0a1.62,1.62,0,0,0,0,.58c0,.16-.07.31.13.31s.17.06.15-.12-.05-.16-.06-.24a2.51,2.51,0,0,1,0-.39c0-.19,0-.15-.19-.14m.9,0a1.62,1.62,0,0,0,0,.58c0,.16-.07.31.13.31s.17.06.15-.12-.05-.16-.06-.24,0-.25,0-.39,0-.15-.19-.14m.9,0a1.62,1.62,0,0,0,0,.58c.05.16-.07.31.13.31s.17.06.15-.12,0-.16-.06-.24,0-.25,0-.39,0-.15-.19-.14m.91,0a1.26,1.26,0,0,0,0,.58c0,.16-.08.31.12.31s.17.06.15-.12,0-.16-.06-.24,0-.25,0-.39,0-.15-.18-.14m.9,0a1.26,1.26,0,0,0,0,.58c0,.16-.08.31.13.31s.16.06.14-.12-.05-.16-.05-.24a2.51,2.51,0,0,1,0-.39c0-.19,0-.15-.19-.14m.9,0a1.42,1.42,0,0,0,0,.58c0,.16-.07.31.13.31s.16.06.15-.12a2.1,2.1,0,0,1-.06-.24,2.51,2.51,0,0,1,0-.39c0-.19,0-.15-.19-.14m.9,0a1.42,1.42,0,0,0,0,.58c0,.16-.07.31.13.31s.17.06.15-.12-.05-.16-.06-.24a2.51,2.51,0,0,1,0-.39c0-.19,0-.15-.19-.14m.9,0a1.62,1.62,0,0,0,0,.58c0,.16-.07.31.13.31s.17.06.15-.12-.05-.16-.06-.24,0-.25,0-.39,0-.15-.19-.14m.9,0a1.62,1.62,0,0,0,0,.58c0,.16-.07.31.13.31s.17.06.15-.12,0-.16-.06-.24,0-.25,0-.39,0-.15-.19-.14m.9,0a1.62,1.62,0,0,0,0,.58c.05.16-.07.31.13.31s.17.06.15-.12S140,1,140,.89s0-.25,0-.39,0-.15-.19-.14m.91,0a1.26,1.26,0,0,0,0,.58c0,.16-.08.31.12.31s.17.06.15-.12-.05-.16-.06-.24,0-.25,0-.39,0-.15-.18-.14m.9,0a1.26,1.26,0,0,0,0,.58c0,.16-.08.31.13.31s.16.06.14-.12-.05-.16-.05-.24a2.51,2.51,0,0,1,0-.39c0-.19,0-.15-.19-.14m.9,0a1.42,1.42,0,0,0,0,.58c0,.16-.07.31.13.31s.16.06.15-.12-.05-.16-.06-.24a2.51,2.51,0,0,1,0-.39c0-.19,0-.15-.19-.14m.9,0a1.42,1.42,0,0,0,0,.58c0,.16-.07.31.13.31s.17.06.15-.12-.05-.16-.06-.24a2.51,2.51,0,0,1,0-.39c0-.19,0-.15-.19-.14m.9,0a1.62,1.62,0,0,0,0,.58c0,.16-.07.31.13.31s.17.06.15-.12-.05-.16-.06-.24a2.51,2.51,0,0,1,0-.39c0-.19,0-.15-.19-.14m.9,0a1.62,1.62,0,0,0,0,.58c.05.16-.07.31.13.31s.17.06.15-.12,0-.16-.06-.24,0-.25,0-.39,0-.15-.19-.14m.9,0a1.62,1.62,0,0,0,0,.58c.05.16-.07.31.13.31s.17.06.15-.12,0-.16-.06-.24,0-.25,0-.39,0-.15-.19-.14m.91,0a1.26,1.26,0,0,0,0,.58c0,.16-.08.31.12.31s.17.06.15-.12-.05-.16-.06-.24,0-.25,0-.39,0-.15-.18-.14m.9,0a1.26,1.26,0,0,0,0,.58c0,.16-.08.31.13.31s.16.06.14-.12S148.1,1,148.1.89a2.51,2.51,0,0,1,0-.39c0-.19,0-.15-.19-.14m.9,0a1.42,1.42,0,0,0,0,.58c0,.16-.07.31.13.31s.16.06.15-.12S149,1,149,.89a2.51,2.51,0,0,1,0-.39c0-.19,0-.15-.19-.14m.9,0a1.42,1.42,0,0,0,0,.58c0,.16-.07.31.13.31s.17.06.15-.12-.05-.16-.06-.24a2.51,2.51,0,0,1,0-.39c0-.19,0-.15-.19-.14m.9,0a1.62,1.62,0,0,0,0,.58c0,.16-.07.31.13.31s.17.06.15-.12-.05-.16-.06-.24a2.51,2.51,0,0,1,0-.39c0-.19,0-.15-.19-.14m.9,0a1.62,1.62,0,0,0,0,.58c.05.16-.07.31.13.31s.17.06.15-.12,0-.16-.06-.24,0-.25,0-.39,0-.15-.19-.14m.9,0a1.62,1.62,0,0,0,0,.58c.05.16-.07.31.13.31s.17.06.15-.12,0-.16-.06-.24,0-.25,0-.39,0-.15-.19-.14m.91,0a1.26,1.26,0,0,0,0,.58c0,.16-.08.31.12.31s.17.06.15-.12-.05-.16-.06-.24,0-.25,0-.39,0-.15-.18-.14m.9,0a1.26,1.26,0,0,0,0,.58c0,.16-.08.31.13.31s.16.06.14-.12-.05-.16-.05-.24a2.51,2.51,0,0,1,0-.39c0-.19,0-.15-.19-.14m.9,0a1.42,1.42,0,0,0,0,.58c0,.16-.07.31.13.31s.17.06.15-.12-.05-.16-.06-.24a2.51,2.51,0,0,1,0-.39c0-.19,0-.15-.19-.14m.9,0a1.42,1.42,0,0,0,0,.58c0,.16-.07.31.13.31s.17.06.15-.12-.05-.16-.06-.24a2.51,2.51,0,0,1,0-.39c0-.19,0-.15-.19-.14m.9,0a1.62,1.62,0,0,0,0,.58c0,.16-.07.31.13.31s.17.06.15-.12,0-.16-.06-.24a2.51,2.51,0,0,1,0-.39c0-.19,0-.15-.19-.14m.9,0a1.62,1.62,0,0,0,0,.58c.05.16-.07.31.13.31s.17.06.15-.12S158,1,158,.89s0-.25,0-.39,0-.15-.19-.14m.9,0a1.62,1.62,0,0,0,0,.58c.05.16-.07.31.13.31s.17.06.15-.12-.05-.16-.06-.24,0-.25,0-.39,0-.15-.19-.14m.91,0a1.26,1.26,0,0,0,0,.58c0,.16-.08.31.12.31s.17.06.15-.12-.05-.16-.06-.24,0-.25,0-.39,0-.15-.18-.14m.9,0a1.26,1.26,0,0,0,0,.58c0,.16-.08.31.13.31s.16.06.14-.12-.05-.16-.05-.24a2.51,2.51,0,0,1,0-.39c0-.19,0-.15-.19-.14m.9,0a1.42,1.42,0,0,0,0,.58c0,.16-.07.31.13.31s.17.06.15-.12-.05-.16-.06-.24a2.51,2.51,0,0,1,0-.39c0-.19,0-.15-.19-.14m.9,0a1.42,1.42,0,0,0,0,.58c0,.16-.07.31.13.31s.17.06.15-.12-.05-.16-.06-.24a2.51,2.51,0,0,1,0-.39c0-.19,0-.15-.19-.14m.9,0a1.62,1.62,0,0,0,0,.58c0,.16-.07.31.13.31s.17.06.15-.12,0-.16-.06-.24a2.51,2.51,0,0,1,0-.39c0-.19,0-.15-.19-.14m.9,0a1.62,1.62,0,0,0,0,.58c.05.16-.07.31.13.31s.17.06.15-.12,0-.16-.06-.24,0-.25,0-.39,0-.15-.19-.14m.9,0a1.62,1.62,0,0,0,0,.58c.05.16-.07.31.13.31s.17.06.15-.12-.05-.16-.06-.24,0-.25,0-.39,0-.15-.19-.14m.91,0a1.26,1.26,0,0,0,0,.58c0,.16-.08.31.12.31s.17.06.15-.12-.05-.16-.06-.24,0-.25,0-.39,0-.15-.18-.14m.9,0a1.26,1.26,0,0,0,0,.58c0,.16-.08.31.13.31s.16.06.14-.12S167,1,167,.89a2.51,2.51,0,0,1,0-.39c0-.19,0-.15-.19-.14m.9,0a1.42,1.42,0,0,0,0,.58c0,.16-.07.31.13.31s.17.06.15-.12-.05-.16-.06-.24a2.51,2.51,0,0,1,0-.39c0-.19,0-.15-.19-.14m.9,0a1.42,1.42,0,0,0,0,.58c0,.16-.07.31.13.31s.17.06.15-.12,0-.16-.06-.24a2.51,2.51,0,0,1,0-.39c0-.19,0-.15-.19-.14m.9,0a1.62,1.62,0,0,0,0,.58c0,.16-.07.31.13.31s.17.06.15-.12,0-.16-.06-.24,0-.25,0-.39,0-.15-.19-.14m.9,0a1.62,1.62,0,0,0,0,.58c.05.16-.07.31.13.31s.17.06.15-.12-.05-.16-.06-.24,0-.25,0-.39,0-.15-.19-.14m.9,0a1.62,1.62,0,0,0,0,.58c.05.16-.07.31.13.31s.17.06.15-.12-.05-.16-.06-.24,0-.25,0-.39,0-.15-.19-.14m.91,0a1.26,1.26,0,0,0,0,.58c0,.16-.08.31.12.31s.17.06.15-.12-.05-.16-.06-.24,0-.25,0-.39,0-.15-.18-.14m.9,0a1.42,1.42,0,0,0,0,.58c0,.16-.07.31.13.31s.16.06.15-.12a2.1,2.1,0,0,1-.06-.24,2.51,2.51,0,0,1,0-.39c0-.19,0-.15-.19-.14m.9,0a1.42,1.42,0,0,0,0,.58c0,.16-.07.31.13.31s.17.06.15-.12-.05-.16-.06-.24a2.51,2.51,0,0,1,0-.39c0-.19,0-.15-.19-.14m.9,0a1.42,1.42,0,0,0,0,.58c0,.16-.07.31.13.31s.17.06.15-.12,0-.16-.06-.24a2.51,2.51,0,0,1,0-.39c0-.19,0-.15-.19-.14m.9,0a1.62,1.62,0,0,0,0,.58c0,.16-.07.31.13.31s.17.06.15-.12,0-.16-.06-.24,0-.25,0-.39,0-.15-.19-.14m.9,0a1.62,1.62,0,0,0,0,.58c.05.16-.07.31.13.31s.17.06.15-.12S177,1,176.94.89s0-.25,0-.39,0-.15-.19-.14m.9,0a1.62,1.62,0,0,0,0,.58c0,.16-.07.31.13.31s.17.06.15-.12-.05-.16-.06-.24,0-.25,0-.39,0-.15-.19-.14m.91,0a1.26,1.26,0,0,0,0,.58c0,.16-.08.31.12.31s.17.06.15-.12-.05-.16-.06-.24,0-.25,0-.39,0-.15-.18-.14m.9,0a1.42,1.42,0,0,0,0,.58c0,.16-.07.31.13.31s.16.06.15-.12-.05-.16-.06-.24a2.51,2.51,0,0,1,0-.39c0-.19,0-.15-.19-.14m.9,0a1.42,1.42,0,0,0,0,.58c0,.16-.07.31.13.31s.17.06.15-.12-.05-.16-.06-.24a2.51,2.51,0,0,1,0-.39c0-.19,0-.15-.19-.14m.9,0a1.62,1.62,0,0,0,0,.58c0,.16-.07.31.13.31s.17.06.15-.12,0-.16-.06-.24a2.51,2.51,0,0,1,0-.39c0-.19,0-.15-.19-.14m.9,0a1.62,1.62,0,0,0,0,.58c0,.16-.07.31.13.31s.17.06.15-.12,0-.16-.06-.24,0-.25,0-.39,0-.15-.19-.14m.9,0a1.62,1.62,0,0,0,0,.58c.05.16-.07.31.13.31s.17.06.15-.12-.05-.16-.06-.24,0-.25,0-.39,0-.15-.19-.14m.9,0a1.62,1.62,0,0,0,0,.58c0,.16-.07.31.13.31s.17.06.15-.12-.05-.16-.06-.24,0-.25,0-.39,0-.15-.19-.14m.91,0a1.26,1.26,0,0,0,0,.58c0,.16-.08.31.12.31s.17.06.15-.12-.05-.16-.06-.24,0-.25,0-.39,0-.15-.18-.14m.9,0a1.42,1.42,0,0,0,0,.58c0,.16-.07.31.13.31s.16.06.15-.12S186,1,186,.89a2.51,2.51,0,0,1,0-.39c0-.19,0-.15-.19-.14m.9,0a1.42,1.42,0,0,0,0,.58c0,.16-.07.31.13.31s.17.06.15-.12,0-.16-.06-.24a2.51,2.51,0,0,1,0-.39c0-.19,0-.15-.19-.14m.9,0a1.62,1.62,0,0,0,0,.58c0,.16-.07.31.13.31s.17.06.15-.12,0-.16-.06-.24a2.51,2.51,0,0,1,0-.39c0-.19,0-.15-.19-.14m.9,0a1.62,1.62,0,0,0,0,.58c0,.16-.07.31.13.31s.17.06.15-.12-.05-.16-.06-.24,0-.25,0-.39,0-.15-.19-.14m.9,0a1.62,1.62,0,0,0,0,.58c0,.16-.07.31.13.31s.17.06.15-.12-.05-.16-.06-.24,0-.25,0-.39,0-.15-.19-.14m.9,0a1.62,1.62,0,0,0,0,.58c0,.16-.07.31.13.31s.17.06.15-.12-.05-.16-.06-.24,0-.25,0-.39,0-.15-.19-.14m.91,0a1.26,1.26,0,0,0,0,.58c0,.16-.08.31.12.31s.17.06.15-.12,0-.16-.06-.24,0-.25,0-.39,0-.15-.18-.14m.9,0a1.42,1.42,0,0,0,0,.58c0,.16-.07.31.13.31s.16.06.15-.12-.05-.16-.06-.24a2.51,2.51,0,0,1,0-.39c0-.19,0-.15-.19-.14m.9,0a1.42,1.42,0,0,0,0,.58c0,.16-.07.31.13.31s.17.06.15-.12,0-.16-.06-.24a2.51,2.51,0,0,1,0-.39c0-.19,0-.15-.19-.14m.9,0a1.62,1.62,0,0,0,0,.58c0,.16-.07.31.13.31s.17.06.15-.12,0-.16-.06-.24a2.51,2.51,0,0,1,0-.39c0-.19,0-.15-.19-.14m.9,0a1.62,1.62,0,0,0,0,.58c0,.16-.07.31.13.31s.17.06.15-.12S195,1,195,.89s0-.25,0-.39,0-.15-.19-.14m.9,0a1.62,1.62,0,0,0,0,.58c0,.16-.07.31.13.31s.17.06.15-.12-.05-.16-.06-.24,0-.25,0-.39,0-.15-.19-.14m.9,0a1.62,1.62,0,0,0,0,.58c0,.16-.07.31.13.31s.17.06.15-.12-.05-.16-.06-.24,0-.25,0-.39,0-.15-.19-.14m.91,0a1.26,1.26,0,0,0,0,.58c0,.16-.08.31.12.31s.17.06.15-.12,0-.16-.06-.24,0-.25,0-.39,0-.15-.18-.14m.9,0a1.42,1.42,0,0,0,0,.58c0,.16-.07.31.13.31s.16.06.15-.12a2.1,2.1,0,0,1-.06-.24,2.51,2.51,0,0,1,0-.39c0-.19,0-.15-.19-.14m.9,0a1.42,1.42,0,0,0,0,.58c0,.16-.07.31.13.31s.17.06.15-.12,0-.16-.06-.24a2.51,2.51,0,0,1,0-.39c0-.19,0-.15-.19-.14m.9,0a1.62,1.62,0,0,0,0,.58c0,.16-.07.31.13.31s.17.06.15-.12-.05-.16-.06-.24a2.51,2.51,0,0,1,0-.39c0-.19,0-.15-.19-.14m.9,0a1.62,1.62,0,0,0,0,.58c0,.16-.07.31.13.31s.17.06.15-.12-.05-.16-.06-.24,0-.25,0-.39,0-.15-.19-.14m.9,0a1.62,1.62,0,0,0,0,.58c0,.16-.07.31.13.31s.17.06.15-.12-.05-.16-.06-.24,0-.25,0-.39,0-.15-.19-.14m.9,0a1.62,1.62,0,0,0,0,.58c0,.16-.07.31.13.31s.17.06.15-.12,0-.16-.06-.24,0-.25,0-.39,0-.15-.19-.14m.91,0a1.26,1.26,0,0,0,0,.58c0,.16-.08.31.12.31s.17.06.15-.12S204,1,204,.89s0-.25,0-.39,0-.15-.18-.14m.9,0a1.42,1.42,0,0,0,0,.58c0,.16-.07.31.13.31s.16.06.15-.12a2.1,2.1,0,0,1-.06-.24,2.51,2.51,0,0,1,0-.39c0-.19,0-.15-.19-.14m.9,0a1.42,1.42,0,0,0,0,.58c0,.16-.07.31.13.31s.17.06.15-.12,0-.16-.06-.24a2.51,2.51,0,0,1,0-.39c0-.19,0-.15-.19-.14m.9,0a1.62,1.62,0,0,0,0,.58c0,.16-.07.31.13.31s.17.06.15-.12-.05-.16-.06-.24a2.51,2.51,0,0,1,0-.39c0-.19,0-.15-.19-.14m.9,0a1.62,1.62,0,0,0,0,.58c0,.16-.07.31.13.31s.17.06.15-.12-.05-.16-.06-.24,0-.25,0-.39,0-.15-.19-.14m.9,0a1.62,1.62,0,0,0,0,.58c0,.16-.07.31.13.31s.17.06.15-.12-.05-.16-.06-.24,0-.25,0-.39,0-.15-.19-.14m.9,0a1.62,1.62,0,0,0,0,.58c.05.16-.07.31.13.31s.17.06.15-.12,0-.16-.06-.24,0-.25,0-.39,0-.15-.19-.14m.91,0a1.26,1.26,0,0,0,0,.58c0,.16-.08.31.13.31s.16.06.14-.12,0-.16,0-.24a2.51,2.51,0,0,1,0-.39c0-.19,0-.15-.19-.14m.9,0a1.42,1.42,0,0,0,0,.58c0,.16-.07.31.13.31s.16.06.15-.12a2.1,2.1,0,0,1-.06-.24,2.51,2.51,0,0,1,0-.39c0-.19,0-.15-.19-.14m.9,0a1.42,1.42,0,0,0,0,.58c0,.16-.07.31.13.31s.17.06.15-.12,0-.16-.06-.24a2.51,2.51,0,0,1,0-.39c0-.19,0-.15-.19-.14m.9,0a1.62,1.62,0,0,0,0,.58c0,.16-.07.31.13.31s.17.06.15-.12S213,1,213,.89a2.51,2.51,0,0,1,0-.39c0-.19,0-.15-.19-.14m.9,0a1.62,1.62,0,0,0,0,.58c0,.16-.07.31.13.31s.17.06.15-.12-.05-.16-.06-.24,0-.25,0-.39,0-.15-.19-.14m.9,0a1.62,1.62,0,0,0,0,.58c0,.16-.07.31.13.31s.17.06.15-.12-.05-.16-.06-.24,0-.25,0-.39,0-.15-.19-.14m.9,0a1.62,1.62,0,0,0,0,.58c.05.16-.07.31.13.31s.17.06.15-.12,0-.16-.06-.24,0-.25,0-.39,0-.15-.19-.14m.91,0a1.26,1.26,0,0,0,0,.58c0,.16-.08.31.13.31s.16.06.14-.12,0-.16,0-.24a2.51,2.51,0,0,1,0-.39c0-.19,0-.15-.19-.14m.9,0a1.42,1.42,0,0,0,0,.58c0,.16-.07.31.13.31s.16.06.15-.12a2.1,2.1,0,0,1-.06-.24,2.51,2.51,0,0,1,0-.39c0-.19,0-.15-.19-.14m.9,0a1.42,1.42,0,0,0,0,.58c0,.16-.07.31.13.31s.17.06.15-.12-.05-.16-.06-.24a2.51,2.51,0,0,1,0-.39c0-.19,0-.15-.19-.14m.9,0a1.62,1.62,0,0,0,0,.58c0,.16-.07.31.13.31s.17.06.15-.12-.05-.16-.06-.24a2.51,2.51,0,0,1,0-.39c0-.19,0-.15-.19-.14m.9,0a1.62,1.62,0,0,0,0,.58c0,.16-.07.31.13.31s.17.06.15-.12-.05-.16-.06-.24,0-.25,0-.39,0-.15-.19-.14m.9,0a1.62,1.62,0,0,0,0,.58c.05.16-.07.31.13.31s.17.06.15-.12,0-.16-.06-.24,0-.25,0-.39,0-.15-.19-.14m.9,0a1.62,1.62,0,0,0,0,.58c.05.16-.07.31.13.31s.17.06.15-.12S222,1,222,.89s0-.25,0-.39,0-.15-.19-.14m.91,0a1.26,1.26,0,0,0,0,.58c0,.16-.08.31.13.31s.16.06.14-.12-.05-.16-.05-.24a2.51,2.51,0,0,1,0-.39c0-.19,0-.15-.19-.14m.9,0a1.42,1.42,0,0,0,0,.58c0,.16-.07.31.13.31s.16.06.15-.12,0-.16-.06-.24a2.51,2.51,0,0,1,0-.39c0-.19,0-.15-.19-.14m.9,0a1.42,1.42,0,0,0,0,.58c0,.16-.07.31.13.31s.17.06.15-.12-.05-.16-.06-.24a2.51,2.51,0,0,1,0-.39c0-.19,0-.15-.19-.14m.9,0a1.62,1.62,0,0,0,0,.58c0,.16-.07.31.13.31s.17.06.15-.12-.05-.16-.06-.24a2.51,2.51,0,0,1,0-.39c0-.19,0-.15-.19-.14m.9,0a1.62,1.62,0,0,0,0,.58c0,.16-.07.31.13.31s.17.06.15-.12-.05-.16-.06-.24,0-.25,0-.39,0-.15-.19-.14m.9,0a1.62,1.62,0,0,0,0,.58c.05.16-.07.31.13.31s.17.06.15-.12,0-.16-.06-.24,0-.25,0-.39,0-.15-.19-.14m.9,0a1.62,1.62,0,0,0,0,.58c.05.16-.07.31.13.31s.17.06.15-.12,0-.16-.06-.24,0-.25,0-.39,0-.15-.19-.14m.91,0a1.26,1.26,0,0,0,0,.58c0,.16-.08.31.13.31s.16.06.14-.12-.05-.16-.05-.24a2.51,2.51,0,0,1,0-.39c0-.19,0-.15-.19-.14m.9,0a1.42,1.42,0,0,0,0,.58c0,.16-.07.31.13.31s.16.06.15-.12-.05-.16-.06-.24a2.51,2.51,0,0,1,0-.39c0-.19,0-.15-.19-.14m.9,0a1.42,1.42,0,0,0,0,.58c0,.16-.07.31.13.31s.17.06.15-.12S231,1,231,.89a2.51,2.51,0,0,1,0-.39c0-.19,0-.15-.19-.14m.9,0a1.62,1.62,0,0,0,0,.58c0,.16-.07.31.13.31s.17.06.15-.12-.05-.16-.06-.24a2.51,2.51,0,0,1,0-.39c0-.19,0-.15-.19-.14m.9,0a1.62,1.62,0,0,0,0,.58c0,.16-.07.31.13.31s.17.06.15-.12,0-.16-.06-.24,0-.25,0-.39,0-.15-.19-.14m.9,0a1.62,1.62,0,0,0,0,.58c.05.16-.07.31.13.31s.17.06.15-.12,0-.16-.06-.24,0-.25,0-.39,0-.15-.19-.14m.9,0a1.62,1.62,0,0,0,0,.58c.05.16-.07.31.13.31s.17.06.15-.12-.05-.16-.06-.24,0-.25,0-.39,0-.15-.19-.14m.91,0a1.26,1.26,0,0,0,0,.58c0,.16-.08.31.13.31s.16.06.14-.12-.05-.16-.05-.24a2.51,2.51,0,0,1,0-.39c0-.19,0-.15-.19-.14m.9,0a1.42,1.42,0,0,0,0,.58c0,.16-.07.31.13.31s.16.06.15-.12-.05-.16-.06-.24a2.51,2.51,0,0,1,0-.39c0-.19,0-.15-.19-.14m.9,0a1.42,1.42,0,0,0,0,.58c0,.16-.07.31.13.31s.17.06.15-.12-.05-.16-.06-.24a2.51,2.51,0,0,1,0-.39c0-.19,0-.15-.19-.14m.9,0a1.62,1.62,0,0,0,0,.58c0,.16-.07.31.13.31s.17.06.15-.12-.05-.16-.06-.24a2.51,2.51,0,0,1,0-.39c0-.19,0-.15-.19-.14m.9,0a1.62,1.62,0,0,0,0,.58c0,.16-.07.31.13.31s.17.06.15-.12,0-.16-.06-.24,0-.25,0-.39,0-.15-.19-.14m.9,0a1.62,1.62,0,0,0,0,.58c.05.16-.07.31.13.31s.17.06.15-.12,0-.16-.06-.24,0-.25,0-.39,0-.15-.19-.14m.91,0a1.42,1.42,0,0,0,0,.58c.05.16-.07.31.13.31s.17.06.15-.12S241,1,240.94.89s0-.25,0-.39,0-.15-.18-.14m.9,0a1.26,1.26,0,0,0,0,.58c0,.16-.08.31.13.31s.16.06.14-.12-.05-.16-.05-.24a2.51,2.51,0,0,1,0-.39c0-.19,0-.15-.19-.14m.9,0a1.42,1.42,0,0,0,0,.58c0,.16-.07.31.13.31s.16.06.15-.12a2.1,2.1,0,0,1-.06-.24,2.51,2.51,0,0,1,0-.39c0-.19,0-.15-.19-.14m.9,0a1.42,1.42,0,0,0,0,.58c0,.16-.07.31.13.31s.17.06.15-.12-.05-.16-.06-.24a2.51,2.51,0,0,1,0-.39c0-.19,0-.15-.19-.14m.9,0a1.62,1.62,0,0,0,0,.58c0,.16-.07.31.13.31s.17.06.15-.12-.05-.16-.06-.24a2.51,2.51,0,0,1,0-.39c0-.19,0-.15-.19-.14m.9,0a1.62,1.62,0,0,0,0,.58c.05.16-.07.31.13.31s.17.06.15-.12,0-.16-.06-.24,0-.25,0-.39,0-.15-.19-.14m.9,0a1.62,1.62,0,0,0,0,.58c.05.16-.07.31.13.31s.17.06.15-.12,0-.16-.06-.24,0-.25,0-.39,0-.15-.19-.14m.91,0a1.42,1.42,0,0,0,0,.58c.05.16-.07.31.13.31s.17.06.15-.12-.05-.16-.06-.24,0-.25,0-.39,0-.15-.18-.14m.9,0a1.26,1.26,0,0,0,0,.58c0,.16-.08.31.13.31s.16.06.14-.12-.05-.16-.05-.24a2.48,2.48,0,0,1,0-.39c0-.19,0-.15-.18-.14m.9,0a1.42,1.42,0,0,0,0,.58c0,.16-.07.31.13.31s.16.06.15-.12-.05-.16-.06-.24a2.51,2.51,0,0,1,0-.39c0-.19,0-.15-.19-.14m.9,0a1.42,1.42,0,0,0,0,.58c0,.16-.07.31.13.31s.17.06.15-.12S250,1,250,.89a2.51,2.51,0,0,1,0-.39c0-.19,0-.15-.19-.14m.9,0a1.62,1.62,0,0,0,0,.58c0,.16-.07.31.13.31s.17.06.15-.12,0-.16-.06-.24a2.51,2.51,0,0,1,0-.39c0-.19,0-.15-.19-.14m.9,0a1.62,1.62,0,0,0,0,.58c.05.16-.07.31.13.31s.17.06.15-.12,0-.16-.06-.24,0-.25,0-.39,0-.15-.19-.14m.9,0a1.62,1.62,0,0,0,0,.58c.05.16-.07.31.13.31s.17.06.15-.12-.05-.16-.06-.24,0-.25,0-.39,0-.15-.19-.14m.91,0a1.26,1.26,0,0,0,0,.58c0,.16-.08.31.12.31s.17.06.15-.12-.05-.16-.06-.24,0-.25,0-.39,0-.15-.18-.14m.9,0a1.26,1.26,0,0,0,0,.58c0,.16-.08.31.13.31s.16.06.14-.12-.05-.16-.05-.24a2.51,2.51,0,0,1,0-.39c0-.19,0-.15-.19-.14m.9,0a1.42,1.42,0,0,0,0,.58c0,.16-.07.31.13.31s.16.06.15-.12-.05-.16-.06-.24a2.51,2.51,0,0,1,0-.39c0-.19,0-.15-.19-.14m.9,0a1.42,1.42,0,0,0,0,.58c0,.16-.07.31.13.31s.17.06.15-.12-.05-.16-.06-.24a2.51,2.51,0,0,1,0-.39c0-.19,0-.15-.19-.14m.9,0a1.62,1.62,0,0,0,0,.58c0,.16-.07.31.13.31s.17.06.15-.12-.05-.16-.06-.24a2.51,2.51,0,0,1,0-.39c0-.19,0-.15-.19-.14m.9,0a1.62,1.62,0,0,0,0,.58c0,.16-.07.31.13.31s.17.06.15-.12-.05-.16-.06-.24,0-.25,0-.39,0-.15-.19-.14m.9,0a1.62,1.62,0,0,0,0,.58c.05.16-.07.31.13.31s.17.06.15-.12S259,1,259,.89s0-.25,0-.39,0-.15-.19-.14m.91,0a1.26,1.26,0,0,0,0,.58c0,.16-.08.31.12.31s.17.06.15-.12-.05-.16-.06-.24,0-.25,0-.39,0-.15-.18-.14m.9,0a1.26,1.26,0,0,0,0,.58c0,.16-.08.31.13.31s.16.06.14-.12-.05-.16-.05-.24a2.51,2.51,0,0,1,0-.39c0-.19,0-.15-.19-.14m.9,0a1.42,1.42,0,0,0,0,.58c0,.16-.07.31.13.31s.16.06.15-.12-.05-.16-.06-.24a2.51,2.51,0,0,1,0-.39c0-.19,0-.15-.19-.14m.9,0a1.42,1.42,0,0,0,0,.58c0,.16-.07.31.13.31s.17.06.15-.12-.05-.16-.06-.24a2.51,2.51,0,0,1,0-.39c0-.19,0-.15-.19-.14m.9,0a1.62,1.62,0,0,0,0,.58c0,.16-.07.31.13.31s.17.06.15-.12-.05-.16-.06-.24a2.51,2.51,0,0,1,0-.39c0-.19,0-.15-.19-.14m.9,0a1.62,1.62,0,0,0,0,.58c0,.16-.07.31.13.31s.17.06.15-.12-.05-.16-.06-.24,0-.25,0-.39,0-.15-.19-.14m.9,0a1.62,1.62,0,0,0,0,.58c.05.16-.07.31.13.31s.17.06.15-.12,0-.16-.06-.24,0-.25,0-.39,0-.15-.19-.14m.91,0a1.26,1.26,0,0,0,0,.58c0,.16-.08.31.12.31s.17.06.15-.12-.05-.16-.06-.24,0-.25,0-.39,0-.15-.18-.14m.9,0a1.26,1.26,0,0,0,0,.58c0,.16-.08.31.13.31s.16.06.14-.12-.05-.16-.05-.24a2.51,2.51,0,0,1,0-.39c0-.19,0-.15-.19-.14m.9,0a1.42,1.42,0,0,0,0,.58c0,.16-.07.31.13.31s.17.06.15-.12S268,1,268,.89a2.51,2.51,0,0,1,0-.39c0-.19,0-.15-.19-.14m.9,0a1.42,1.42,0,0,0,0,.58c0,.16-.07.31.13.31s.17.06.15-.12-.05-.16-.06-.24a2.51,2.51,0,0,1,0-.39c0-.19,0-.15-.19-.14m.9,0a1.62,1.62,0,0,0,0,.58c0,.16-.07.31.13.31s.17.06.15-.12-.05-.16-.06-.24,0-.25,0-.39,0-.15-.19-.14m.9,0a1.62,1.62,0,0,0,0,.58c0,.16-.07.31.13.31s.17.06.15-.12-.05-.16-.06-.24,0-.25,0-.39,0-.15-.19-.14m.9,0a1.62,1.62,0,0,0,0,.58c.05.16-.07.31.13.31s.17.06.15-.12,0-.16-.06-.24,0-.25,0-.39,0-.15-.19-.14m.91,0a1.26,1.26,0,0,0,0,.58c0,.16-.08.31.12.31s.17.06.15-.12-.05-.16-.06-.24,0-.25,0-.39,0-.15-.18-.14m.9,0a1.26,1.26,0,0,0,0,.58c0,.16-.08.31.13.31s.16.06.14-.12S273.4,1,273.4.89a2.51,2.51,0,0,1,0-.39c0-.19,0-.15-.19-.14m.9,0a1.42,1.42,0,0,0,0,.58c0,.16-.07.31.13.31s.17.06.15-.12-.05-.16-.06-.24a2.51,2.51,0,0,1,0-.39c0-.19,0-.15-.19-.14m.9,0a1.42,1.42,0,0,0,0,.58c0,.16-.07.31.13.31s.17.06.15-.12-.05-.16-.06-.24a2.51,2.51,0,0,1,0-.39c0-.19,0-.15-.19-.14m.9,0a1.62,1.62,0,0,0,0,.58c0,.16-.07.31.13.31s.17.06.15-.12-.05-.16-.06-.24a2.51,2.51,0,0,1,0-.39c0-.19,0-.15-.19-.14m.9,0a1.62,1.62,0,0,0,0,.58c.05.16-.07.31.13.31s.17.06.15-.12S277,1,277,.89s0-.25,0-.39,0-.15-.19-.14m.9,0a1.62,1.62,0,0,0,0,.58c.05.16-.07.31.13.31s.17.06.15-.12,0-.16-.06-.24,0-.25,0-.39,0-.15-.19-.14m.91,0a1.26,1.26,0,0,0,0,.58c0,.16-.08.31.12.31s.17.06.15-.12-.05-.16-.06-.24,0-.25,0-.39,0-.15-.18-.14m.9,0a1.42,1.42,0,0,0,0,.58c0,.16-.07.31.13.31s.16.06.15-.12a2.1,2.1,0,0,1-.06-.24,2.51,2.51,0,0,1,0-.39c0-.19,0-.15-.19-.14m.9,0a1.42,1.42,0,0,0,0,.58c0,.16-.07.31.13.31s.17.06.15-.12-.05-.16-.06-.24a2.51,2.51,0,0,1,0-.39c0-.19,0-.15-.19-.14m.9,0a1.42,1.42,0,0,0,0,.58c0,.16-.07.31.13.31s.17.06.15-.12-.05-.16-.06-.24a2.51,2.51,0,0,1,0-.39c0-.19,0-.15-.19-.14m.9,0a1.62,1.62,0,0,0,0,.58c0,.16-.07.31.13.31s.17.06.15-.12-.05-.16-.06-.24,0-.25,0-.39,0-.15-.19-.14m.9,0a1.62,1.62,0,0,0,0,.58c.05.16-.07.31.13.31s.17.06.15-.12-.05-.16-.06-.24,0-.25,0-.39,0-.15-.19-.14m.9,0a1.62,1.62,0,0,0,0,.58c.05.16-.07.31.13.31s.17.06.15-.12,0-.16-.06-.24,0-.25,0-.39,0-.15-.19-.14m.91,0a1.26,1.26,0,0,0,0,.58c0,.16-.08.31.12.31s.17.06.15-.12-.05-.16-.06-.24,0-.25,0-.39,0-.15-.18-.14m.9,0a1.42,1.42,0,0,0,0,.58c0,.16-.07.31.13.31s.16.06.15-.12A2.1,2.1,0,0,1,286,.89a2.51,2.51,0,0,1,0-.39c0-.19,0-.15-.19-.14m.9,0a1.42,1.42,0,0,0,0,.58c0,.16-.07.31.13.31s.17.06.15-.12-.05-.16-.06-.24a2.51,2.51,0,0,1,0-.39c0-.19,0-.15-.19-.14m.9,0a1.42,1.42,0,0,0,0,.58c0,.16-.07.31.13.31s.17.06.15-.12-.05-.16-.06-.24a2.51,2.51,0,0,1,0-.39c0-.19,0-.15-.19-.14m.9,0a1.62,1.62,0,0,0,0,.58c0,.16-.07.31.13.31s.17.06.15-.12,0-.16-.06-.24,0-.25,0-.39,0-.15-.19-.14m.9,0a1.62,1.62,0,0,0,0,.58c.05.16-.07.31.13.31s.17.06.15-.12-.05-.16-.06-.24,0-.25,0-.39,0-.15-.19-.14m.9,0a1.62,1.62,0,0,0,0,.58c.05.16-.07.31.13.31s.17.06.15-.12-.05-.16-.06-.24,0-.25,0-.39,0-.15-.19-.14m.91,0a1.26,1.26,0,0,0,0,.58c0,.16-.08.31.12.31s.17.06.15-.12-.05-.16-.06-.24,0-.25,0-.39,0-.15-.18-.14m.9,0a1.42,1.42,0,0,0,0,.58c0,.16-.07.31.13.31s.16.06.15-.12a2.1,2.1,0,0,1-.06-.24,2.51,2.51,0,0,1,0-.39c0-.19,0-.15-.19-.14m.9,0a1.42,1.42,0,0,0,0,.58c0,.16-.07.31.13.31s.17.06.15-.12-.05-.16-.06-.24a2.51,2.51,0,0,1,0-.39c0-.19,0-.15-.19-.14m.9,0a1.62,1.62,0,0,0,0,.58c0,.16-.07.31.13.31s.17.06.15-.12-.05-.16-.06-.24a2.51,2.51,0,0,1,0-.39c0-.19,0-.15-.19-.14m.9,0a1.62,1.62,0,0,0,0,.58c0,.16-.07.31.13.31s.17.06.15-.12S295,1,295,.89s0-.25,0-.39,0-.15-.19-.14m.9,0a1.62,1.62,0,0,0,0,.58c.05.16-.07.31.13.31s.17.06.15-.12-.05-.16-.06-.24,0-.25,0-.39,0-.15-.19-.14m.9,0a1.62,1.62,0,0,0,0,.58c.05.16-.07.31.13.31s.17.06.15-.12-.05-.16-.06-.24,0-.25,0-.39,0-.15-.19-.14m.91,0a1.26,1.26,0,0,0,0,.58c0,.16-.08.31.12.31s.17.06.15-.12-.05-.16-.06-.24,0-.25,0-.39,0-.15-.18-.14m.9,0a1.42,1.42,0,0,0,0,.58c0,.16-.07.31.13.31s.16.06.15-.12a2.1,2.1,0,0,1-.06-.24,2.51,2.51,0,0,1,0-.39c0-.19,0-.15-.19-.14m.9,0a1.42,1.42,0,0,0,0,.58c0,.16-.07.31.13.31s.17.06.15-.12-.05-.16-.06-.24a2.51,2.51,0,0,1,0-.39c0-.19,0-.15-.19-.14m.9,0a1.62,1.62,0,0,0,0,.58c0,.16-.07.31.13.31s.17.06.15-.12-.05-.16-.06-.24a2.51,2.51,0,0,1,0-.39c0-.19,0-.15-.19-.14m.9,0a1.62,1.62,0,0,0,0,.58c0,.16-.07.31.13.31s.17.06.15-.12,0-.16-.06-.24,0-.25,0-.39,0-.15-.19-.14m.9,0a1.62,1.62,0,0,0,0,.58c.05.16-.07.31.13.31s.17.06.15-.12-.05-.16-.06-.24,0-.25,0-.39,0-.15-.19-.14m.9,0a1.62,1.62,0,0,0,0,.58c.05.16-.07.31.13.31s.17.06.15-.12-.05-.16-.06-.24,0-.25,0-.39,0-.15-.19-.14m.91,0a1.26,1.26,0,0,0,0,.58c0,.16-.08.31.12.31s.17.06.15-.12S304.05,1,304,.89s0-.25,0-.39,0-.15-.18-.14m.9,0a1.42,1.42,0,0,0,0,.58c0,.16-.07.31.13.31s.16.06.15-.12A2.1,2.1,0,0,1,305,.89a2.51,2.51,0,0,1,0-.39c0-.19,0-.15-.19-.14m.9,0a1.42,1.42,0,0,0,0,.58c0,.16-.07.31.13.31s.17.06.15-.12-.05-.16-.06-.24a2.51,2.51,0,0,1,0-.39c0-.19,0-.15-.19-.14m.9,0a1.62,1.62,0,0,0,0,.58c0,.16-.07.31.13.31s.17.06.15-.12-.05-.16-.06-.24a2.51,2.51,0,0,1,0-.39c0-.19,0-.15-.19-.14m.9,0a1.62,1.62,0,0,0,0,.58c0,.16-.07.31.13.31s.17.06.15-.12,0-.16-.06-.24,0-.25,0-.39,0-.15-.19-.14m.9,0a1.62,1.62,0,0,0,0,.58c.05.16-.07.31.13.31s.17.06.15-.12-.05-.16-.06-.24,0-.25,0-.39,0-.15-.19-.14m.9,0a1.62,1.62,0,0,0,0,.58c0,.16-.07.31.13.31s.17.06.15-.12-.05-.16-.06-.24,0-.25,0-.39,0-.15-.19-.14m.91,0a1.26,1.26,0,0,0,0,.58c0,.16-.08.31.12.31s.17.06.15-.12a2.1,2.1,0,0,0-.06-.24c0-.13,0-.25,0-.39s0-.15-.19-.14m.9,0a1.42,1.42,0,0,0,0,.58c0,.16-.07.31.13.31s.16.06.15-.12-.05-.16-.06-.24a2.51,2.51,0,0,1,0-.39c0-.19,0-.15-.19-.14m.9,0a1.42,1.42,0,0,0,0,.58c0,.16-.07.31.13.31s.17.06.15-.12-.05-.16-.06-.24a2.51,2.51,0,0,1,0-.39c0-.19,0-.15-.19-.14m.9,0a1.62,1.62,0,0,0,0,.58c0,.16-.07.31.13.31s.17.06.15-.12-.05-.16-.06-.24a2.51,2.51,0,0,1,0-.39c0-.19,0-.15-.19-.14m.9,0a1.62,1.62,0,0,0,0,.58c0,.16-.07.31.13.31s.17.06.15-.12S314,1,314,.89s0-.25,0-.39,0-.15-.19-.14m.9,0a1.62,1.62,0,0,0,0,.58c.05.16-.07.31.13.31s.17.06.15-.12-.05-.16-.06-.24,0-.25,0-.39,0-.15-.19-.14m.9,0a1.62,1.62,0,0,0,0,.58c0,.16-.07.31.13.31s.17.06.15-.12-.05-.16-.06-.24,0-.25,0-.39,0-.15-.19-.14m.91,0a1.26,1.26,0,0,0,0,.58c0,.16-.08.31.12.31s.17.06.15-.12a2.1,2.1,0,0,0-.06-.24c0-.13,0-.25,0-.39s0-.15-.19-.14m.9,0a1.42,1.42,0,0,0,0,.58c0,.16-.07.31.13.31s.16.06.15-.12-.05-.16-.06-.24a2.51,2.51,0,0,1,0-.39c0-.19,0-.15-.19-.14m.9,0a1.42,1.42,0,0,0,0,.58c0,.16-.07.31.13.31s.17.06.15-.12,0-.16-.06-.24a2.51,2.51,0,0,1,0-.39c0-.19,0-.15-.19-.14m.9,0a1.62,1.62,0,0,0,0,.58c0,.16-.07.31.13.31s.17.06.15-.12-.05-.16-.06-.24a2.51,2.51,0,0,1,0-.39c0-.19,0-.15-.19-.14m.9,0a1.62,1.62,0,0,0,0,.58c0,.16-.07.31.13.31s.17.06.15-.12-.05-.16-.06-.24,0-.25,0-.39,0-.15-.19-.14m.9,0a1.62,1.62,0,0,0,0,.58c.05.16-.07.31.13.31s.17.06.15-.12-.05-.16-.06-.24,0-.25,0-.39,0-.15-.19-.14m.9,0a1.62,1.62,0,0,0,0,.58c0,.16-.07.31.13.31s.17.06.15-.12-.05-.16-.06-.24,0-.25,0-.39,0-.15-.19-.14m.91,0a1.26,1.26,0,0,0,0,.58c0,.16-.08.31.13.31s.16.06.14-.12,0-.16,0-.24a2.51,2.51,0,0,1,0-.39c0-.19,0-.15-.19-.14m.9,0a1.42,1.42,0,0,0,0,.58c0,.16-.07.31.13.31s.16.06.15-.12a2.1,2.1,0,0,1-.06-.24,2.51,2.51,0,0,1,0-.39c0-.19,0-.15-.19-.14m.9,0a1.42,1.42,0,0,0,0,.58c0,.16-.07.31.13.31s.17.06.15-.12,0-.16-.06-.24a2.51,2.51,0,0,1,0-.39c0-.19,0-.15-.19-.14m.9,0a1.62,1.62,0,0,0,0,.58c0,.16-.07.31.13.31s.17.06.15-.12-.05-.16-.06-.24a2.51,2.51,0,0,1,0-.39c0-.19,0-.15-.19-.14m.9,0a1.62,1.62,0,0,0,0,.58c0,.16-.07.31.13.31s.17.06.15-.12-.05-.16-.06-.24,0-.25,0-.39,0-.15-.19-.14m.9,0a1.62,1.62,0,0,0,0,.58c.05.16-.07.31.13.31s.17.06.15-.12-.05-.16-.06-.24,0-.25,0-.39,0-.15-.19-.14m.9,0a1.62,1.62,0,0,0,0,.58c0,.16-.07.31.13.31s.17.06.15-.12-.05-.16-.06-.24,0-.25,0-.39,0-.15-.19-.14m.91,0a1.26,1.26,0,0,0,0,.58c0,.16-.08.31.13.31s.16.06.14-.12,0-.16,0-.24a2.51,2.51,0,0,1,0-.39c0-.19,0-.15-.19-.14m.9,0a1.42,1.42,0,0,0,0,.58c0,.16-.07.31.13.31s.16.06.15-.12a2.1,2.1,0,0,1-.06-.24,2.51,2.51,0,0,1,0-.39c0-.19,0-.15-.19-.14m.9,0a1.42,1.42,0,0,0,0,.58c0,.16-.07.31.13.31s.17.06.15-.12,0-.16-.06-.24a2.51,2.51,0,0,1,0-.39c0-.19,0-.15-.19-.14m.9,0a1.62,1.62,0,0,0,0,.58c0,.16-.07.31.13.31s.17.06.15-.12S332,1,332,.89a2.51,2.51,0,0,1,0-.39c0-.19,0-.15-.19-.14m.9,0a1.62,1.62,0,0,0,0,.58c0,.16-.07.31.13.31s.17.06.15-.12-.05-.16-.06-.24,0-.25,0-.39,0-.15-.19-.14m.9,0a1.62,1.62,0,0,0,0,.58c.05.16-.07.31.13.31s.17.06.15-.12-.05-.16-.06-.24,0-.25,0-.39,0-.15-.19-.14m.9,0a1.62,1.62,0,0,0,0,.58c0,.16-.07.31.13.31s.17.06.15-.12-.05-.16-.06-.24,0-.25,0-.39,0-.15-.19-.14m.91,0a1.26,1.26,0,0,0,0,.58c0,.16-.08.31.13.31s.16.06.14-.12,0-.16,0-.24a2.51,2.51,0,0,1,0-.39c0-.19,0-.15-.19-.14m.9,0a1.42,1.42,0,0,0,0,.58c0,.16-.07.31.13.31s.16.06.15-.12-.05-.16-.06-.24a2.51,2.51,0,0,1,0-.39c0-.19,0-.15-.19-.14m.9,0a1.42,1.42,0,0,0,0,.58c0,.16-.07.31.13.31s.17.06.15-.12,0-.16-.06-.24a2.51,2.51,0,0,1,0-.39c0-.19,0-.15-.19-.14m.9,0a1.62,1.62,0,0,0,0,.58c0,.16-.07.31.13.31s.17.06.15-.12-.05-.16-.06-.24a2.51,2.51,0,0,1,0-.39c0-.19,0-.15-.19-.14m.9,0a1.62,1.62,0,0,0,0,.58c0,.16-.07.31.13.31s.17.06.15-.12-.05-.16-.06-.24,0-.25,0-.39,0-.15-.19-.14m.9,0a1.62,1.62,0,0,0,0,.58c.05.16-.07.31.13.31s.17.06.15-.12-.05-.16-.06-.24,0-.25,0-.39,0-.15-.19-.14m.9,0a1.62,1.62,0,0,0,0,.58c.05.16-.07.31.13.31s.17.06.15-.12S341,1,341,.89s0-.25,0-.39,0-.15-.19-.14m.91,0a1.26,1.26,0,0,0,0,.58c0,.16-.08.31.13.31s.16.06.14-.12,0-.16,0-.24a2.51,2.51,0,0,1,0-.39c0-.19,0-.15-.19-.14m.9,0a1.42,1.42,0,0,0,0,.58c0,.16-.07.31.13.31s.16.06.15-.12-.05-.16-.06-.24a2.51,2.51,0,0,1,0-.39c0-.19,0-.15-.19-.14m.9,0a1.42,1.42,0,0,0,0,.58c0,.16-.07.31.13.31s.17.06.15-.12,0-.16-.06-.24a2.51,2.51,0,0,1,0-.39c0-.19,0-.15-.19-.14m.9,0a1.62,1.62,0,0,0,0,.58c0,.16-.07.31.13.31s.17.06.15-.12-.05-.16-.06-.24a2.51,2.51,0,0,1,0-.39c0-.19,0-.15-.19-.14m.9,0a1.62,1.62,0,0,0,0,.58c0,.16-.07.31.13.31s.17.06.15-.12-.05-.16-.06-.24,0-.25,0-.39,0-.15-.19-.14m.9,0a1.62,1.62,0,0,0,0,.58c.05.16-.07.31.13.31s.17.06.15-.12-.05-.16-.06-.24,0-.25,0-.39,0-.15-.19-.14m.91,0a1.26,1.26,0,0,0,0,.58c0,.16-.08.31.12.31s.17.06.15-.12-.05-.16-.06-.24,0-.25,0-.39,0-.15-.18-.14m.9,0a1.26,1.26,0,0,0,0,.58c0,.16-.08.31.13.31s.16.06.14-.12,0-.16,0-.24a2.51,2.51,0,0,1,0-.39c0-.19,0-.15-.19-.14m.9,0a1.42,1.42,0,0,0,0,.58c0,.16-.07.31.13.31s.16.06.15-.12-.05-.16-.06-.24a2.51,2.51,0,0,1,0-.39c0-.19,0-.15-.19-.14m.9,0a1.42,1.42,0,0,0,0,.58c0,.16-.07.31.13.31s.17.06.15-.12S350,1,350,.89a2.51,2.51,0,0,1,0-.39c0-.19,0-.15-.19-.14m.9,0a1.62,1.62,0,0,0,0,.58c0,.16-.07.31.13.31s.17.06.15-.12-.05-.16-.06-.24a2.51,2.51,0,0,1,0-.39c0-.19,0-.15-.19-.14m.9,0a1.62,1.62,0,0,0,0,.58c0,.16-.07.31.13.31s.17.06.15-.12-.05-.16-.06-.24,0-.25,0-.39,0-.15-.19-.14m.9,0a1.62,1.62,0,0,0,0,.58c.05.16-.07.31.13.31s.17.06.15-.12,0-.16-.06-.24,0-.25,0-.39,0-.15-.19-.14m.91,0a1.26,1.26,0,0,0,0,.58c0,.16-.08.31.12.31s.17.06.15-.12-.05-.16-.06-.24,0-.25,0-.39,0-.15-.18-.14m.9,0a1.26,1.26,0,0,0,0,.58c0,.16-.08.31.13.31s.16.06.14-.12-.05-.16-.05-.24a2.51,2.51,0,0,1,0-.39c0-.19,0-.15-.19-.14m.9,0a1.42,1.42,0,0,0,0,.58c0,.16-.07.31.13.31s.17.06.15-.12-.05-.16-.06-.24a2.51,2.51,0,0,1,0-.39c0-.19,0-.15-.19-.14m.9,0a1.42,1.42,0,0,0,0,.58c0,.16-.07.31.13.31s.17.06.15-.12-.05-.16-.06-.24a2.51,2.51,0,0,1,0-.39c0-.19,0-.15-.19-.14m.9,0a1.62,1.62,0,0,0,0,.58c0,.16-.07.31.13.31s.17.06.15-.12-.05-.16-.06-.24a2.51,2.51,0,0,1,0-.39c0-.19,0-.15-.19-.14m.9,0a1.62,1.62,0,0,0,0,.58c0,.16-.07.31.13.31s.17.06.15-.12-.05-.16-.06-.24,0-.25,0-.39,0-.15-.19-.14m.9,0a1.62,1.62,0,0,0,0,.58c.05.16-.07.31.13.31s.17.06.15-.12S359,1,359,.89s0-.25,0-.39,0-.15-.19-.14m.91,0a1.26,1.26,0,0,0,0,.58c0,.16-.08.31.12.31s.17.06.15-.12-.05-.16-.06-.24,0-.25,0-.39,0-.15-.18-.14m.9,0a1.26,1.26,0,0,0,0,.58c0,.16-.08.31.13.31s.16.06.14-.12-.05-.16-.05-.24a2.48,2.48,0,0,1,0-.39c0-.19,0-.15-.18-.14m.9,0a1.42,1.42,0,0,0,0,.58c0,.16-.07.31.13.31s.17.06.15-.12-.05-.16-.06-.24a2.51,2.51,0,0,1,0-.39c0-.19,0-.15-.19-.14m.9,0a1.42,1.42,0,0,0,0,.58c0,.16-.07.31.13.31s.17.06.15-.12-.05-.16-.06-.24a2.51,2.51,0,0,1,0-.39c0-.19,0-.15-.19-.14m.9,0a1.62,1.62,0,0,0,0,.58c0,.16-.07.31.13.31s.17.06.15-.12-.05-.16-.06-.24,0-.25,0-.39,0-.15-.19-.14m.9,0a1.62,1.62,0,0,0,0,.58c0,.16-.07.31.13.31s.17.06.15-.12-.05-.16-.06-.24,0-.25,0-.39,0-.15-.19-.14m.9,0a1.62,1.62,0,0,0,0,.58c.05.16-.07.31.13.31s.17.06.15-.12,0-.16-.06-.24,0-.25,0-.39,0-.15-.19-.14m.91,0a1.26,1.26,0,0,0,0,.58c0,.16-.08.31.12.31s.17.06.15-.12-.05-.16-.06-.24,0-.25,0-.39,0-.15-.18-.14m.9,0a1.26,1.26,0,0,0,0,.58c0,.16-.08.31.13.31s.16.06.14-.12-.05-.16-.05-.24a2.51,2.51,0,0,1,0-.39c0-.19,0-.15-.19-.14m.9,0a1.42,1.42,0,0,0,0,.58c0,.16-.07.31.13.31s.17.06.15-.12-.05-.16-.06-.24a2.51,2.51,0,0,1,0-.39c0-.19,0-.15-.19-.14m.9,0a1.42,1.42,0,0,0,0,.58c0,.16-.07.31.13.31s.17.06.15-.12S369,1,369,.89a2.51,2.51,0,0,1,0-.39c0-.19,0-.15-.19-.14m.9,0a1.62,1.62,0,0,0,0,.58c0,.16-.07.31.13.31s.17.06.15-.12-.05-.16-.06-.24,0-.25,0-.39,0-.15-.19-.14m.9,0a1.62,1.62,0,0,0,0,.58c.05.16-.07.31.13.31s.17.06.15-.12-.05-.16-.06-.24,0-.25,0-.39,0-.15-.19-.14m.9,0a1.62,1.62,0,0,0,0,.58c.05.16-.07.31.13.31s.17.06.15-.12,0-.16-.06-.24,0-.25,0-.39,0-.15-.19-.14m.91,0a1.26,1.26,0,0,0,0,.58c0,.16-.08.31.12.31s.17.06.15-.12-.05-.16-.06-.24,0-.25,0-.39,0-.15-.18-.14m.9,0a1.26,1.26,0,0,0,0,.58c0,.16-.08.31.13.31s.16.06.14-.12-.05-.16-.05-.24a2.51,2.51,0,0,1,0-.39c0-.19,0-.15-.19-.14m.9,0a1.42,1.42,0,0,0,0,.58c0,.16-.07.31.13.31s.17.06.15-.12-.05-.16-.06-.24a2.51,2.51,0,0,1,0-.39c0-.19,0-.15-.19-.14m.9,0a1.42,1.42,0,0,0,0,.58c0,.16-.07.31.13.31s.17.06.15-.12-.05-.16-.06-.24a2.51,2.51,0,0,1,0-.39c0-.19,0-.15-.19-.14m.9,0a1.62,1.62,0,0,0,0,.58c0,.16-.07.31.13.31s.17.06.15-.12-.05-.16-.06-.24,0-.25,0-.39,0-.15-.19-.14m.9,0a1.62,1.62,0,0,0,0,.58c.05.16-.07.31.13.31s.17.06.15-.12-.05-.16-.06-.24,0-.25,0-.39,0-.15-.19-.14m.9,0a1.62,1.62,0,0,0,0,.58c.05.16-.07.31.13.31s.17.06.15-.12S378,1,378,.89s0-.25,0-.39,0-.15-.19-.14m.91,0a1.26,1.26,0,0,0,0,.58c0,.16-.08.31.12.31s.17.06.15-.12-.05-.16-.06-.24,0-.25,0-.39,0-.15-.18-.14m.9,0a1.26,1.26,0,0,0,0,.58c0,.16-.08.31.13.31s.16.06.14-.12-.05-.16-.05-.24a2.51,2.51,0,0,1,0-.39c0-.19,0-.15-.19-.14m.9,0a1.42,1.42,0,0,0,0,.58c0,.16-.07.31.13.31s.17.06.15-.12-.05-.16-.06-.24a2.51,2.51,0,0,1,0-.39c0-.19,0-.15-.19-.14m.9,0a1.42,1.42,0,0,0,0,.58c0,.16-.07.31.13.31s.17.06.15-.12-.05-.16-.06-.24a2.51,2.51,0,0,1,0-.39c0-.19,0-.15-.19-.14m.9,0a1.62,1.62,0,0,0,0,.58c0,.16-.07.31.13.31s.17.06.15-.12,0-.16-.06-.24,0-.25,0-.39,0-.15-.19-.14m.9,0a1.62,1.62,0,0,0,0,.58c.05.16-.07.31.13.31s.17.06.15-.12-.05-.16-.06-.24,0-.25,0-.39,0-.15-.19-.14m.9,0a1.62,1.62,0,0,0,0,.58c.05.16-.07.31.13.31s.17.06.15-.12-.05-.16-.06-.24,0-.25,0-.39,0-.15-.19-.14m.91,0a1.26,1.26,0,0,0,0,.58c0,.16-.08.31.12.31s.17.06.15-.12-.05-.16-.06-.24,0-.25,0-.39,0-.15-.18-.14m.9,0a1.42,1.42,0,0,0,0,.58c0,.16-.07.31.13.31s.16.06.15-.12a2.1,2.1,0,0,1-.06-.24,2.51,2.51,0,0,1,0-.39c0-.19,0-.15-.19-.14m.9,0a1.42,1.42,0,0,0,0,.58c0,.16-.07.31.13.31s.17.06.15-.12S387,1,387,.89a2.51,2.51,0,0,1,0-.39c0-.19,0-.15-.19-.14m.9,0a1.42,1.42,0,0,0,0,.58c0,.16-.07.31.13.31s.17.06.15-.12-.05-.16-.06-.24a2.51,2.51,0,0,1,0-.39c0-.19,0-.15-.19-.14m.9,0a1.62,1.62,0,0,0,0,.58c0,.16-.07.31.13.31s.17.06.15-.12,0-.16-.06-.24,0-.25,0-.39,0-.15-.19-.14m.9,0a1.62,1.62,0,0,0,0,.58c.05.16-.07.31.13.31s.17.06.15-.12-.05-.16-.06-.24,0-.25,0-.39,0-.15-.19-.14m.9,0a1.62,1.62,0,0,0,0,.58c.05.16-.07.31.13.31s.17.06.15-.12-.05-.16-.06-.24,0-.25,0-.39,0-.15-.19-.14m.91,0a1.26,1.26,0,0,0,0,.58c0,.16-.08.31.12.31s.17.06.15-.12-.05-.16-.06-.24,0-.25,0-.39,0-.15-.18-.14m.9,0a1.42,1.42,0,0,0,0,.58c0,.16-.07.31.13.31s.16.06.15-.12-.05-.16-.06-.24a2.51,2.51,0,0,1,0-.39c0-.19,0-.15-.19-.14m.9,0a1.42,1.42,0,0,0,0,.58c0,.16-.07.31.13.31s.17.06.15-.12-.05-.16-.06-.24a2.51,2.51,0,0,1,0-.39c0-.19,0-.15-.19-.14m.9,0a1.42,1.42,0,0,0,0,.58c0,.16-.07.31.13.31s.17.06.15-.12-.05-.16-.06-.24a2.51,2.51,0,0,1,0-.39c0-.19,0-.15-.19-.14m.9,0a1.62,1.62,0,0,0,0,.58c0,.16-.07.31.13.31s.17.06.15-.12,0-.16-.06-.24,0-.25,0-.39,0-.15-.19-.14m.9,0a1.62,1.62,0,0,0,0,.58c.05.16-.07.31.13.31s.17.06.15-.12S396,1,396,.89s0-.25,0-.39,0-.15-.19-.14m.9,0a1.62,1.62,0,0,0,0,.58c.05.16-.07.31.13.31s.17.06.15-.12-.05-.16-.06-.24,0-.25,0-.39,0-.15-.19-.14m.91,0a1.26,1.26,0,0,0,0,.58c0,.16-.08.31.12.31s.17.06.15-.12-.05-.16-.06-.24,0-.25,0-.39,0-.15-.18-.14m.9,0a1.42,1.42,0,0,0,0,.58c0,.16-.07.31.13.31s.16.06.15-.12-.05-.16-.06-.24a2.51,2.51,0,0,1,0-.39c0-.19,0-.15-.19-.14m.9,0a1.42,1.42,0,0,0,0,.58c0,.16-.07.31.13.31s.17.06.15-.12-.05-.16-.06-.24a2.51,2.51,0,0,1,0-.39c0-.19,0-.15-.19-.14m.9,0a1.62,1.62,0,0,0,0,.58c0,.16-.07.31.13.31s.17.06.15-.12-.05-.16-.06-.24a2.51,2.51,0,0,1,0-.39c0-.19,0-.15-.19-.14m.9,0a1.62,1.62,0,0,0,0,.58c0,.16-.07.31.13.31s.17.06.15-.12,0-.16-.06-.24,0-.25,0-.39,0-.15-.19-.14m.9,0a1.62,1.62,0,0,0,0,.58c.05.16-.07.31.13.31s.17.06.15-.12-.05-.16-.06-.24,0-.25,0-.39,0-.15-.19-.14m.9,0a1.62,1.62,0,0,0,0,.58c0,.16-.07.31.13.31s.17.06.15-.12-.05-.16-.06-.24,0-.25,0-.39,0-.15-.19-.14m.91,0a1.26,1.26,0,0,0,0,.58c0,.16-.08.31.12.31s.17.06.15-.12-.05-.16-.06-.24,0-.25,0-.39,0-.15-.18-.14m.9,0a1.42,1.42,0,0,0,0,.58c0,.16-.07.31.13.31s.16.06.15-.12S405,1,405,.89a2.51,2.51,0,0,1,0-.39c0-.19,0-.15-.19-.14m.9,0a1.42,1.42,0,0,0,0,.58c0,.16-.07.31.13.31s.17.06.15-.12-.05-.16-.06-.24a2.51,2.51,0,0,1,0-.39c0-.19,0-.15-.19-.14M.25.52v0C.25.37.25.35.18.35h0v0h0v0h0ZM406.61.36a1.62,1.62,0,0,0,0,.58,1.7,1.7,0,0,1,0,.21,4.48,4.48,0,0,1,.2-.62v0c0-.19,0-.15-.19-.14"/></g></g></svg>