<svg xmlns="http://www.w3.org/2000/svg" viewBox="0 0 5.18 173.96"><defs><style>.cls-1{fill:#7c6742;fill-rule:evenodd;}</style></defs><title>Asset 16</title><g id="Layer_2" data-name="Layer 2"><g id="Layer_1-2" data-name="Layer 1"><path class="cls-1" d="M5.18,174v-9.24a13.93,13.93,0,0,0-.09,2.68c0,.21,0,.08,0,.19-.08.82.07,1.73,0,2.51L5,170l0,0a2.48,2.48,0,0,0-.17-.81s0,.1,0,.1a10.71,10.71,0,0,0,0,1.4,8.31,8.31,0,0,0,0,1.12,11.32,11.32,0,0,1,0,2H4.58c0-.32,0-.64,0-.92,0,0,0-.42.06-.29,0-1.24,0-1.89,0-3.06,0,.07,0,.22-.06.2,0-1.21-.06-2.41,0-3.62a13.12,13.12,0,0,0,0-1.49c0-.28-.05-.67-.05-1.29,0-.21,0-.13,0-.28.05-1.08,0-2.71,0-3.54-.06-.52-.12-2.12.11-2l0,1.2v0c0,1.56,0,3.14,0,4.52.14,0,0-1.27.09-1.4-.08-.37,0-1.42-.07-1.94.07-.34.15-.67.22-1.05H5c0,.05,0,.33.06.35-.06.33,0,1.1,0,1.68a26.54,26.54,0,0,1,0,2.87c0,.15.06.26.1.28V0H3.89V174Z"/><polygon class="cls-1" points="0 168.62 0 168.64 0 168.64 0 168.62"/><path class="cls-1" d="M0,168.1v.39a1.27,1.27,0,0,0,0-.39"/><path class="cls-1" d="M0,165.66v.8c0-.24,0-.53,0-.8"/><path class="cls-1" d="M0,164.66v.92c.11,0,.16-.65.1-1,0,.32-.06.22-.1.12"/><path class="cls-1" d="M0,161.88V162a.22.22,0,0,0,0-.08"/><path class="cls-1" d="M2.59,174V0H0V.23H.07C.08.46.08.72.08,1A3.38,3.38,0,0,0,0,1.34v8.73c.15-.41.08-4.65.29-4.8C.27,5.76.4,9,.42,9.64a34.85,34.85,0,0,0,.07,3.65c0,.23-.11.11-.07.59.15.14.23-.08.28-.41a46.79,46.79,0,0,1,0-4.69c0-.95.06-5-.05-5.57.08,0,0-.65.14-.58.12.62.25,1.16.38,1.71-.09.85,0,5.4-.13,6,.19.21-.08,2.26.16,2.29.11-2.85,0-9,.1-12.21.39-.24.29,2.35.19,3.21.15,1.36,0,6.84.06,8.6,0,.25.06.12.07.46,0,1-.06,1.66-.09,2.11a21.73,21.73,0,0,0,.05,2.43c.06,2,0,3.94,0,5.91-.07,0-.07-.22-.11-.32.09,1.91.06,3,0,5,.13-.22,0,.51.1.47,0,1.29-.09-2.84,0-2,0,.24-.11.12-.07.6a37.43,37.43,0,0,1,0,5.6c.11.13,0,1,.16,1.08,0-.18.07-.35.11-.51V47a1.55,1.55,0,0,0-.07-.23,4,4,0,0,0-.16-1.39c-.1-.12,0,.71-.07.59l-.06-.08,0,.07a3.31,3.31,0,0,1-.06-1.07,4.55,4.55,0,0,0,0-.91c0-.35,0-.51,0-.9.12,0,.18-.24.18-.74-.12.05-.19-.09-.28-.19a8.68,8.68,0,0,1,.09-1.81c-.06,0-.06-.06-.07-.31-.05-1.72.14-4.69,0-6.06-.24-.29-.14,1-.35.86a14.85,14.85,0,0,1-.12-2.89,25.84,25.84,0,0,1,0-3c-.12.22,0-.52-.1-.47,0-1.46,0,2.95.07,1.7,0-.4-.09-.54-.1-.92a4.63,4.63,0,0,0,.22-1,7.11,7.11,0,0,1,.27,1.55c0,.57-.09-4.63,0-4.26v.15l0,.15C1,26.65.86,30,1.27,29.43a25.55,25.55,0,0,0-.07-3.65l0-.15,0-.15c.05-.51,0,4.51.12,4.28a17.25,17.25,0,0,1,0-3.33,14.37,14.37,0,0,0-.05-1.82,15.45,15.45,0,0,0-.06-2.28s0-.13-.07-.16a4.2,4.2,0,0,0-.29,1.32L.81,23.4l0,.23c-.13-1.27.13-2.75,0-4.09,0-.18-.05,0-.06-.32,0-1.46.16-3.55-.18-4.41-.05,0-.05.18-.11.13a3.77,3.77,0,0,1-.22,1.79A7.27,7.27,0,0,1,.09,16,58.3,58.3,0,0,0,0,7.73V23.34l0,.18a20,20,0,0,0,.13-3,6.55,6.55,0,0,1,.08-1.65c.2.67.07,2.64.22,3.51,0,.4-.13.1-.11.59a9.63,9.63,0,0,1,0,2.27C.16,25.5.15,25,0,24.89v12.6a3,3,0,0,0,.16.87c0,.3,0,.6,0,.9.24.16.26,1.79.19,2.76-.12.07-.18-.07-.21-.34a4.55,4.55,0,0,0-.13.63v4.34A2.58,2.58,0,0,0,.12,47c0-1.07.11-1.72,0-2.12.13.16,0-.74.18-.43.07,1.32.09,2.7.1,4.14l-.24.1A2.2,2.2,0,0,0,.08,48c0,.28,0,.32-.08.35V157.5H.1l.09.37a7,7,0,0,0,0,.81l-.17,0a.66.66,0,0,0,0-.15v1.19c.06-.25.11-.5.16-.78.06-.05,0,.33.08.35-.06.33,0,1.1,0,1.68.14.83,0,1.67,0,2.87,0,.21.07.34.16.26,0-.3,0-.22,0-.37a19.67,19.67,0,0,0,0-2.23c0-.38.09-.65.08-.94.11.08.09.79.15,1.11v.54a16.38,16.38,0,0,0,0,3.16c0,.21,0,.3-.06.47a2.21,2.21,0,0,1-.13-1.09s0-.09-.07-.09a12.58,12.58,0,0,0-.1,2.71c0,.21,0,.08,0,.19-.08.82.08,1.73,0,2.51l0-.14,0,0a2.66,2.66,0,0,0-.13-.72v4.5a4.19,4.19,0,0,1,.16-.91,3.5,3.5,0,0,0,.12.64,1.69,1.69,0,0,1,0,.35H0V174Z"/><path class="cls-1" d="M5.05,170.47l0,.05,0-.14a7.32,7.32,0,0,0,0,1.68c.2.1.09-1.06.09-1.59"/><path class="cls-1" d="M4.85,168.64H4.79c0-.28,0-.61.06-.57a3.43,3.43,0,0,1,0,.56"/><path class="cls-1" d="M4.78,164.57c0-.07.15.47.16,0,.07.39,0,1.07-.09,1,0,.4,0,.83,0,1.11l-.11,0a11.77,11.77,0,0,1,0-2.14"/><path class="cls-1" d="M4.85,173.87v0a4.39,4.39,0,0,1,.16-1,3.5,3.5,0,0,0,.12.64,1.69,1.69,0,0,1,0,.35Z"/><path class="cls-1" d="M.2,170.47l0,.05,0-.14a7.32,7.32,0,0,0,0,1.68c.2.1.09-1.06.09-1.59"/><path class="cls-1" d="M.61,173.87c0-.23,0-.46-.06-.67v-1.3l-.12,0c0,.65,0,1.3,0,2Z"/><path class="cls-1" d="M.63,170.9c-.07.1-.09.33-.18.18a6.49,6.49,0,0,1,0-1.39c0-.3-.07-.12-.06-.36.08-.54,0-1.74.13-2.16a4.29,4.29,0,0,1,.05,1A11.63,11.63,0,0,0,.63,170Z"/><path class="cls-1" d="M.76,24.23l.07.09,0-.23a12.28,12.28,0,0,1,.05,2.74c-.35.16-.16-1.72-.16-2.6"/><path class="cls-1" d="M.4,34.3c-.08,0-.12.11-.11.44-.06-.3-.2-.26-.28-.49l0-.17V33.8a2.82,2.82,0,0,0,0-1.22c.06-1.82-.07-4,.11-5,0-1.75-.17,2.51,0,1.09,0-.7,0-1.41,0-2.12l.21,0c0,4.41.13,2.79,0,7.7"/><path class="cls-1" d="M1.2,30.32a6.07,6.07,0,0,0-.06,2.42,8.72,8.72,0,0,0,.06-2.42"/><path class="cls-1" d="M1.1,21.25h.1c0-.45,0-1-.09-.92a4.41,4.41,0,0,0,0,.91"/><path class="cls-1" d="M1.22,14.6c-.09-.1-.25.78-.28,0-.11.64,0,1.75.16,1.69,0,.66,0,1.36,0,1.82l.18,0a18.1,18.1,0,0,0-.08-3.5"/><path class="cls-1" d="M1.12.23H.17c0,.14,0,.26,0,.33.15,0,.08,1,.13,1.38A2.94,2.94,0,0,0,.5.61C.63.51.67.81.78.8c0,.38,0,.82,0,1.37l.28,0c0-.41.09-.52.11-.9s0-.73-.07-1.08"/><path class="cls-1" d="M.73,37.08l.21,0c0,1.39.09,2.65.14,4-.18,1,0,2.65-.13,3.91L.77,45c0-1.81,0-3.65-.17-5a19.56,19.56,0,0,0,.13-2.85"/></g></g></svg>