<svg xmlns="http://www.w3.org/2000/svg" viewBox="0 0 5.18 174.55"><defs><style>.cls-1{fill:#7c6742;fill-rule:evenodd;}</style></defs><title>Asset 15</title><g id="Layer_2" data-name="Layer 2"><g id="Layer_1-2" data-name="Layer 1"><path class="cls-1" d="M5.18,0V9.24a13.9,13.9,0,0,1-.09-2.68c0-.21,0-.08,0-.19-.08-.82.07-1.72,0-2.5L5,4,5,4a2.42,2.42,0,0,1-.17.81s0-.1,0-.1a10.67,10.67,0,0,1,0-1.4,8.14,8.14,0,0,1,0-1.11,11.35,11.35,0,0,0,0-2v0H4.58c0,.32,0,.64,0,.92,0,0,0,.42.06.29,0,1.24,0,1.89,0,3.06,0-.06,0-.21-.06-.2,0,1.21-.06,2.41,0,3.62a13.19,13.19,0,0,1,0,1.49c0,.28-.05.68-.05,1.3,0,.2,0,.13,0,.28.05,1.08,0,2.7,0,3.53-.06.53-.12,2.12.11,2l0-1.2v0c0-1.56,0-3.14,0-4.52.14,0,0,1.28.09,1.41-.08.37,0,1.41-.07,1.94.07.33.15.66.22,1.05H5s0-.33.06-.35c-.06-.32,0-1.1,0-1.67a26.7,26.7,0,0,0,0-2.88c0-.14.06-.25.1-.27V174.55H3.89V0ZM0,5.34v0H0Zm0,.52V5.47a1.27,1.27,0,0,1,0,.39M0,8.31v-.8c0,.23,0,.52,0,.8m0,1V8.38c.11,0,.16.65.1,1C.08,9.1,0,9.2,0,9.3m0,2.79V12a0,0,0,0,1,0,0,.28.28,0,0,1,0,.08M2.59,0V174.55H0v-.23H.07c0-.23,0-.49,0-.78a2.66,2.66,0,0,1-.08-.33v-9.32c.15.41.08,1.82.29,2,0-.49.11-.92.13-1.54a34.65,34.65,0,0,1,.07-3.64c0-.24-.11-.12-.07-.6.15-.14.23.08.28.41a47,47,0,0,0,0,4.7c0,.95.06,2.79-.05,3.31.08.05,0,3.49.14,3.42.12-.62.25-4.58.38-5.13-.09-.85,0-2.56-.13-3.17.19-.21-.08-2.26.16-2.29.11,2.85,0,9.63.1,12.79.39.25.29-5.76.19-6.62.15-1.35,0-4,.06-5.77,0-.25.06-.12.07-.46,0-1-.06-1.65-.09-2.11a21.8,21.8,0,0,1,.05-2.43c.06-2,0-3.94,0-5.9-.07,0-.07.21-.11.32.09-1.92.06-3,0-5,.13.21,0-.52.1-.47,0-1.3-.09,2.83,0,2,0-.24-.11-.11-.07-.59a37.55,37.55,0,0,0,0-5.61c.11-.13,0-1,.16-1.08,0,.18.07.35.11.52V127a2,2,0,0,1-.07.23,4,4,0,0,1-.16,1.38c-.1.13,0-.71-.07-.59l-.06.08,0-.07a3.34,3.34,0,0,0-.06,1.07,4.56,4.56,0,0,1,0,.91c0,.35,0,.51,0,.91.12,0,.18.23.18.73-.12,0-.19.09-.28.19a8.68,8.68,0,0,0,.09,1.81c-.06,0-.06.06-.07.31-.05,1.72.14,4.69,0,6.06-.24.29-.14-1-.35-.86A14.92,14.92,0,0,0,.73,142a25.85,25.85,0,0,0,0,3c-.12-.22,0,.51-.1.46,0,1.47,0-2.95.07-1.7,0,.41-.09.54-.1.92a4.77,4.77,0,0,1,.22,1,7.11,7.11,0,0,0,.27-1.55c0-.57-.09,4.63,0,4.26v-.15l0-.15c-.12-.88-.27-4.22.14-3.65a25.44,25.44,0,0,1-.07,3.64l0,.15,0,.16c.05.5,0-4.51.12-4.29a17.23,17.23,0,0,0,0,3.33,14.37,14.37,0,0,1-.05,1.82,15.45,15.45,0,0,1-.06,2.28s0,.13-.07.17a4.28,4.28,0,0,1-.29-1.33l-.06.09,0-.22c-.13,1.27.13,2.74,0,4.09,0,.18-.05,0-.06.31,0,1.46.16,3.55-.18,4.42-.05,0-.05-.19-.11-.14a3.69,3.69,0,0,0-.22-1.78,6.64,6.64,0,0,0-.1.77A24.74,24.74,0,0,1,0,163.4V150.62l0-.18a20.1,20.1,0,0,1,.13,3,6.66,6.66,0,0,0,.08,1.66c.2-.68.07-2.65.22-3.52,0-.4-.13-.1-.11-.59a9.63,9.63,0,0,0,0-2.27c-.17-.27-.18.2-.33.34v-12.6a3.07,3.07,0,0,1,.16-.87c0-.3,0-.6,0-.9.24-.15.26-1.78.19-2.76-.12-.06-.18.08-.21.34a4.36,4.36,0,0,1-.13-.62v-4.34A2.14,2.14,0,0,1,.12,127c0,1.06.11,1.71,0,2.12.13-.17,0,.73.18.42.07-1.31.09-2.7.1-4.13l-.24-.11a2.15,2.15,0,0,1-.1.64c0-.28,0-.32-.08-.34V16.46H.1l.09-.37a7,7,0,0,1,0-.81l-.17,0a.61.61,0,0,1,0,.14V14.22c.06.24.11.5.16.78.06,0,0-.33.08-.36-.06-.32,0-1.1,0-1.67.14-.83,0-1.67,0-2.88,0-.2.07-.34.16-.25,0,.29,0,.22,0,.36a19.67,19.67,0,0,1,0,2.23c0,.39.09.65.08,1,.11-.08.09-.79.15-1.12v-.54a16.28,16.28,0,0,1,0-3.15c0-.21,0-.31-.06-.48a2.26,2.26,0,0,0-.13,1.1s0,.08-.07.08a12.58,12.58,0,0,1-.1-2.71c0-.21,0-.08,0-.19-.08-.82.08-1.72,0-2.5L.17,4l0,0A2.66,2.66,0,0,1,0,4.67V.17a4.08,4.08,0,0,0,.16.91A3.21,3.21,0,0,1,.28.45a1.79,1.79,0,0,0,0-.36H0V0ZM5.05,3.5l0,0,0,.13A7.25,7.25,0,0,1,5,1.91c.2-.1.09,1.05.09,1.59m-.2,1.82H4.79c0,.28,0,.61.06.57a3.43,3.43,0,0,0,0-.56M4.78,9.4c0,.06.15-.48.16,0C5,9,5,8.35,4.85,8.38c0-.4,0-.83,0-1.11l-.11,0a11.88,11.88,0,0,0,0,2.15M4.85.09v0a4.28,4.28,0,0,0,.16,1A3.21,3.21,0,0,1,5.13.45a1.79,1.79,0,0,0,0-.36ZM.2,3.5l0,0,0,.13a7.25,7.25,0,0,1,0-1.67C.31,1.81.2,3,.2,3.5M.61.09A6.67,6.67,0,0,1,.55.76v1.3L.42,2c0-.65,0-1.3,0-1.95Zm0,3C.56,3,.54,2.73.45,2.88a6.49,6.49,0,0,0,0,1.39c0,.31-.07.12-.06.37.08.53,0,1.74.13,2.15a4.25,4.25,0,0,0,.05-1A11.63,11.63,0,0,1,.63,3.94ZM.76,149.73l.07-.08,0,.22a12.28,12.28,0,0,0,.05-2.74c-.35-.16-.16,1.72-.16,2.6M.4,139.66c-.08,0-.12-.11-.11-.44-.06.31-.2.26-.28.5l0,.16v.28a2.82,2.82,0,0,1,0,1.22c.06,1.82-.07,4,.11,5,0,1.75-.17-2.5,0-1.09,0,.71,0,1.41,0,2.12l.21,0c0-4.41.13-2.79,0-7.7m.8,4a6.07,6.07,0,0,1-.06-2.42,8.72,8.72,0,0,1,.06,2.42m-.1,9.07h.1c0,.46,0,1-.09.92a4.37,4.37,0,0,1,0-.91m.12,6.65c-.09.1-.25-.78-.28,0-.11-.63,0-1.75.16-1.69,0-.66,0-1.36,0-1.82l.18,0a18,18,0,0,1-.08,3.49m-.1,15H.17c0-.14,0-.26,0-.33.15,0,.08-1,.13-1.38a2.94,2.94,0,0,1,.22,1.33c.13.1.17-.21.28-.19,0-.38,0-.82,0-1.37l.28,0c0,.41.09.52.11.9s0,.73-.07,1.08M.73,136.89l.21,0c0-1.38.09-2.65.14-4-.18-1,0-2.66-.13-3.92l-.18,0c0,1.8,0,3.65-.17,5a19.63,19.63,0,0,1,.13,2.86"/></g></g></svg>