<svg xmlns="http://www.w3.org/2000/svg" viewBox="0 0 27.06 26.93"><defs><style>.cls-1{fill:#7c6742;fill-rule:evenodd;}</style></defs><title>Asset 7</title><g id="Layer_2" data-name="Layer 2"><g id="Layer_1-2" data-name="Layer 1"><path class="cls-1" d="M9,13.18c0-.07.07-.07.09-.12s.07,0,.11.07-.06.13-.17.12,0,0,0-.07m1.4-.59v.06h.06v-.07h-.07m2.19-2.08,0,0c-.11,0-.11.2-.24.23a.43.43,0,0,1-.19.28c0,.08,0,.15-.13.14A.66.66,0,0,0,12,11h.12c0-.11,0-.22,0-.34s-.11-.17-.27-.15l0,0h0c.07.12.16.3,0,.43s.07,0,.05.09-.09.25-.24.27a.77.77,0,0,0,0,.37.88.88,0,0,0,.23,0A.92.92,0,0,1,12,11.4c.07-.08.18-.16.24-.23s0-.11.06-.14l.13-.14c0-.06,0-.17.13-.19s.07-.11.06-.2Zm.12-.29c.22,0,.17-.17.31-.21s-.06-.14-.06-.25.09-.11.18-.12,0-.41.19-.48c0-.11,0-.16,0-.27h-.14a.39.39,0,0,1-.14.34c0-.12-.07-.09-.08-.18-.22-.05-.14.18-.24.26s-.1-.08-.09-.18c-.17,0-.2-.18-.41-.14,0-.05,0,0-.05-.07S12,8.91,12,9l0,0V9s0,0,.07,0-.06,0-.09,0A.15.15,0,0,0,12,9h0V9c-.25.07-.36-.14-.57-.18s-.22.07-.34,0c.07.16.27.18.31.37h.34c.05,0,0-.1.08-.09s-.12.35,0,.47.21.12.37.13c0,.09.07,0,.05.13-.21-.09-.35,0-.59,0,0-.1-.17-.05-.27-.06s-.34-.15-.44-.3c-.07,0-.07,0-.14,0a.34.34,0,0,0-.32-.16c0,.08.08.08.08.17a1.68,1.68,0,0,1,.6.52c.08,0,.09,0,.16,0s.19.16.21.31c.12,0,.1.08.19.08l0,0h0c.06-.15,0-.26-.12-.34.33,0,.72.09,1,0,0,0,0,.07,0,.13m-.09-.6c.07,0,.09.09.05.13s0-.09-.05-.13M13,10.69c0,.08-.07,0,0,.11s0,.1.12.09,0,0,.07,0,0-.14-.08-.2,0,0-.06,0m.4,0h.09c0-.07,0-.06,0-.09s0-.08-.09,0-.05.07,0,.13M13,10.55s0-.08-.07-.06-.09,0-.08.11.15,0,.15,0m.13-.14c0,.05,0,.13.12.13s0,0,.07,0,0-.12,0-.21l0,0v0c-.1,0-.1.13-.18.16m.22-.28a.11.11,0,0,0,0,.12l0,0,0,0s0-.17,0-.14m-.35.26c.19,0,.17-.26.32-.32s0-.21-.07-.2c-.09.16-.29.23-.25.52M7.2,9.75a.43.43,0,0,0-.08.18s0,.09.11.09.06-.27,0-.27m6.17-.39s-.06.06-.06.07a.44.44,0,0,0,0,.28c.07,0,.08,0,.18,0,0-.31.2-.49.11-.8-.17.06-.13.3-.19.46M10.82,8.12s.06.08.14.07-.08-.17-.15-.25a1.09,1.09,0,0,1,.5.1H11c0,.07,0,.1,0,.18.17,0,.28.14.45,0s-.05-.12-.05-.2A.21.21,0,0,0,11.67,8a.16.16,0,0,1,.05.14c-.1,0-.12.09-.12.18a.33.33,0,0,0,.31.08c0,.12.21.08.35.08a.58.58,0,0,0,.23.26.64.64,0,0,0,0,.2c.09.05.13.15.29.13-.08-.23.07-.33,0-.5a.25.25,0,0,0,.29-.07.21.21,0,0,0,.22.05c0-.11-.07-.09,0-.2H13a.32.32,0,0,0-.13-.24c-.11.2-.63.14-.83.07.07-.11.26,0,.41-.06s.19-.14.26-.23-.2-.06-.19-.2-.11,0-.09,0c-.41-.09-.68.19-1,0-.09,0-.07,0-.13,0s-.32,0-.48,0-.11-.06-.16-.06-.3,0-.33.1.1.08.12.15-.05,0-.09,0,0-.11-.1-.09h-.09c0,.07,0,0,0,.09.18.11.46.3.73.17m2.46.59h.07V8.64h-.07v.07m.1-.41s-.05.07,0,.14h.09s0-.15,0-.13m.11-1.85s-.08,0-.07,0,0-.45-.09-.53h0l0,0c-.07.12,0,.28,0,.42s-.2,0-.27,0,0,.07,0,.14.21.22.31.33a3.85,3.85,0,0,1-.06.92c-.12,0-.11.21-.31.17,0,.2.14.21.15.38s.18,0,.27-.05,0,.07.12,0,0-.35,0-.45.11-.1.13-.19-.05-.21,0-.29c-.11-.15.07-.38-.09-.52,0-.06.09,0,.06-.09s0-.14,0-.22M7.21,8.19c-.07,0,0,.07-.09.05s-.3-.14-.36-.06v.14c.2,0,.44.12.54-.07,0,0,0-.07-.09-.06m-.79-.67a.4.4,0,0,0-.2,0c0,.36.28.39.36.66h.14v0h0c0-.07,0-.13,0-.2a1.11,1.11,0,0,1-.33-.46m6.14.09s0,.13,0,.07,0-.12,0-.07m-1.39-1c.19,0,.48,0,.49-.17-.23,0-.51,0-.65.09a1.28,1.28,0,0,0-.54.08s-.16,0-.15.08.21,0,.27.1-.19,0-.22.14.15.1.28.08.08.09.09.16.19,0,.22-.08h0c0-.18.27-.06.29-.19s.1,0,.16.06-.35,0-.38.13v0h0c.12.14.36,0,.54,0s.12.1.2.06a.21.21,0,0,0,.21.15c0,.3.4.15.69.15,0-.1.11,0,.08-.16h0v0c-.06,0-.08,0-.12-.06s.07,0,.11-.05a.28.28,0,0,0,0,.09h0v0c.18,0,.21-.26.18-.5-.2-.08-.28,0-.47,0V6.64c-.3.05-.61,0-.92,0-.07,0-.16.07-.18.07s-.09,0-.13,0-.24.17-.34,0a1.89,1.89,0,0,1,.33-.15m1.11.55c-.07,0-.08-.15,0-.11a.45.45,0,0,0,0,.11M14,7.4s0,0,.07,0,0-.24-.08-.24-.07.22,0,.27m-.21-.29h0c-.08,0,0,.21,0,.3s0,0,.06,0,.15-.28,0-.3m0-.06h0c.05-.1.11-.57-.09-.56,0,.15,0,.5.06.54m-6.15.42c0-.08.11-.06.07-.18s-.17.17-.07.18M14,7c0-.07-.06-.1-.07,0s0,.06.07,0m-2.1-.6s0,0,0-.05-.07.05-.11.07,0,0,.07,0v0s.06,0,.06,0m.6-.27a.27.27,0,0,0-.28.19l0,0v0c.17.09.19-.09.38-.06,0-.09,0-.12-.05-.17h0ZM12,6.39c0,.09.2.08.25,0l0,0v0a.51.51,0,0,0-.22,0m.73-.3V6h-.16V6.1l0,0v0s.14,0,.13-.07m-8,.13c0-.12-.1-.13-.21-.12s.09.13.21.12m8.77-.84V5.32h-.07v.07h.07M13.3,5h.14a.49.49,0,0,0,0-.12H13.3V5M3.05,5a.17.17,0,0,0-.11-.11c0,.08,0,.16.11.11m10.27-.83h-.11v.18c.15,0,.15-.1.11-.19M9.38,3.78c-.1,0-.15.06-.13.18a.13.13,0,0,0,.13-.18m3.14-.46c-.07,0,0,.08-.09.05s0,.15.07.16l0,0h0V3.37h-.05Zm-.13-.4,0,0,0,0c0,.14.17.2.21.35h0v0h.13c0-.2-.17-.29-.24-.44h-.07m-.52-.18c0,.12.11.3.25.24-.06-.11-.06-.28-.25-.24M5,3c0,.06-.08.08-.11.14a.47.47,0,0,0,.28.05C5.2,3,5.07,3.05,5,3m5.13-.51a.12.12,0,0,0-.11,0,.15.15,0,0,0,0,.16c.07,0,.09-.06.11-.12m3.63,6.6c-.15.07-.15.3-.19.48h0l0,0c.07-.14.2-.29.12-.5M13.86,9s.05,0,0,0v0h0c-.06-.11,0-.33,0-.45h0c-.05.12,0,.29-.13.38s.09.11.15.16m-.64-4.29v0h0c-.07-.1,0-.31-.19-.31l0,0h0v.09c.12,0,.1.21.21.24M9.9,8.81c-.08,0-.1,0-.18,0v0l0,0c0,.09.07.09.07.18h.3C10,9,9.89,9,9.9,8.81m-2,.89v0h0a.32.32,0,0,0,0,.18H8s0-.06,0-.07-.08-.09-.11-.13m1-.26h0v0c-.11-.06-.22-.12-.2-.31a.34.34,0,0,0-.22,0,.89.89,0,0,0,.31.58.41.41,0,0,0,0,.11c.11,0,.1.2.21.24l0,0H9a.65.65,0,0,0-.16-.52v0m.34,3.71c.07.07.16,0,.2-.05l0,0v0a.14.14,0,0,0-.17.12m1.91-.77c-.07,0,0,.08-.06.14h0v0h0s0-.08.06-.09,0-.06-.07-.09m1.09-1a1.15,1.15,0,0,1-.41.38v.13l0,0v0c.21-.13.32-.34.5-.49a.66.66,0,0,0,0-.14c-.08,0,0,.06-.11,0M4.48,10c0,.14-.09.18-.08.32h0l0,0c.17,0,.21-.27.19-.41s-.09.08-.18.07m1-1.62A.59.59,0,0,0,5,8.61l0,0v0a.45.45,0,0,0,.46-.24l0,0ZM9.55,3.48c.06,0,.12-.06.1-.17l0,0,0,0c-.1,0-.1.16,0,.19M4.66,14.37c.08,0,.11,0,.18,0a.45.45,0,0,1,0-.11c-.12,0-.2,0-.19.13m-.15.31c.09,0,.23,0,.28-.1,0-.24-.39-.12-.61-.16a.28.28,0,0,0,0,.18c.13,0,.29,0,.33.08m-.85.46v0h.07v0H3.66m5.62.66h.05v0H9.28v0m2,1.16c-.09,0-.13,0-.12.13h.11s0-.09,0-.13m-4.6.51c.2.07.29-.15.52-.12v-.11c-.23,0-.3.12-.52.11v.12m-3.44.77C3.3,18,3,17.91,3,17.7c-.15-.06-.2-.2-.38-.22v.09a1.47,1.47,0,0,0,.56.67m.28-.35c.09,0,.14,0,.14-.1H3.5a.37.37,0,0,1,0,.11m.27.17v0h.06v-.05H3.76m0,1.06c-.07-.25.14-.22.17-.38a.31.31,0,0,0,.32-.12c.23,0,.36-.09.37-.32a.35.35,0,0,0-.29-.08c0,.06-.07.06-.09.11s-.09-.09-.11-.14a.91.91,0,0,0-.39.07c0,.07.07.14.18.15s0,.13.06.16,0,.05-.07.08-.12-.14-.29-.12v0l0,0c0,.07.07,0,.06.09s-.11.22-.08.43h.18m1-.48c0,.16-.17.16-.17.33.13-.07.32-.09.3-.33H4.78m1.52.87a1.15,1.15,0,0,1-.36.66.93.93,0,0,0,.16.46h.14a1.06,1.06,0,0,1,.1-.33c.1,0,0,.13.06.14a.63.63,0,0,0,.15-.4.88.88,0,0,0,.09-.45c-.06,0,0-.1-.07-.07V19.2c.06,0,.06-.11.16-.08v0l0,0s0,0,0,0,0-.19-.08-.25H6.6c0,.09,0,.22-.14.2a.71.71,0,0,1-.16.54M7,19.33a.25.25,0,0,0,.07-.22c-.1,0-.13-.08-.27-.06v0l0,0a.85.85,0,0,0,.1.34h0c.07,0,.06-.08.08-.13m-3.42.82a.28.28,0,0,0,.2.06,1.2,1.2,0,0,0,0-.84c0-.07.08,0,0-.11s-.09-.06-.18-.05c0,.18-.06.43,0,.52a.85.85,0,0,0-.08.42m6.29-.4s.06,0,.09,0a.14.14,0,0,1,0-.07h0s0,0,0,0m.38,0c-.09,0,0,.12-.05.18l0,0v0c.11,0,.09-.18,0-.2m-.12.31c.07,0,.08,0,.09-.09h0v0c-.06,0-.07.05-.07.11m-4.44-.28c0,.09.06.05,0,.12s0-.06.09-.07a.18.18,0,0,0,0-.13c-.08,0-.07.07-.12.08M8.36,20a.18.18,0,0,0,.13,0c0-.11,0-.12,0-.2a.2.2,0,0,0-.1.17m-4,.17c0,.1.15.1.13.23a2.37,2.37,0,0,0,.49,0c.05.08.06.19.18.19s.1-.14.14-.22.12-.07.14-.13-.18.08-.31,0,0-.09,0-.13c-.17,0-.2.08-.3.12s-.27-.27-.45-.13m-.15.49c0-.08-.12-.18-.22-.12s.09.13.22.12m.11.1h.09q0-.11-.09-.09v.09m.27.05c0,.07.06.11.15.1s0-.05,0-.09H4.54m1.54.49c.15,0,.12.1.27.08,0-.16.09-.2.08-.36s-.16,0-.14-.05c-.1.08-.23.12-.21.33m.31.75A.15.15,0,0,1,6.33,22c-.08,0-.1-.05-.18,0s.1.16.24.16m.6.84c0,.1,0,.15.06.18s.08-.06.14-.06-.08-.13-.2-.12m0,2.57c0-.08,0-.09,0-.16s-.1,0-.12,0,0,.12.13.12m.37-10.55a.43.43,0,0,0,0,.05h0v0h0m3-1s0,.07-.09,0v-.07s.08,0,.09,0m-.82,5.72s.07,0,.14,0-.06.12-.14.13v-.12m-.12-.27c.05,0,.1,0,.11,0s-.07.05-.12.06a.41.41,0,0,1,0-.11m-.08-.3v-.11h.09c0,.08-.07.06-.09.11m.7-.18v0h0v.05h0M8.8,26.57h.07c0,.05,0,.06,0,.13l0,0,0,0h0c0,.06-.07.1-.07,0s0,0,0,0v-.07c-.06,0-.05-.06-.08-.09l0,0h0c-.05,0-.07.09-.14.11s-.12-.16-.2-.08c0-.1,0-.11,0-.18s.3,0,.33.1H8.8M3.88,13.66l-.17-.09c-.37,0-.47.31-.73.44a.47.47,0,0,1-.28.35c0,.11-.08.24,0,.28a.94.94,0,0,0,.25.55c0,.28.26.4.39.6,0,.13-.19.18-.26.26s0,.05,0,.07-.06.11-.14.15a.81.81,0,0,1-.08.38c0,.05,0,.08,0,.18s-.06,0-.07.06a1.69,1.69,0,0,0,0,.23c.09,0,0,.09.11.07s.07-.24.21-.24,0-.26.15-.29,0-.1,0-.15.13-.1.14-.2.14-.08.19-.15a.28.28,0,0,0,.3-.15c.17,0,.22-.05.32-.1s.16-.28,0-.41-.06.08-.16,0,0-.1-.06-.11-.09.07-.18.06-.07.12-.1.18-.14-.05-.2-.08,0-.12-.09-.18l-.06,0s0-.1,0-.13-.09,0-.11-.08a.75.75,0,0,1-.08-.32C3,14.77,3,14.58,3,14.4c.19-.14.25-.42.49-.5,0-.1.08-.07.07-.16s.13,0,.12-.08h.23m1.48.56-.27-.07a.1.1,0,0,1,0,.08.63.63,0,0,0,.24,0M10.1,26.93l0,0c-.22,0-.28-.09-.38-.17a2.44,2.44,0,0,0,0-.27s-.11,0-.13,0a2.53,2.53,0,0,1,0-.28c-.05,0-.07,0-.07-.07H9.06a2.05,2.05,0,0,1-.39-.44v0h0c0,.07,0,.1,0,.16s-.07-.1-.08-.19h.07v0h0a1.91,1.91,0,0,1-.06-.7c-.09,0,0-.11-.11-.07s.08,0,.11,0-.05-.34.08-.43a.68.68,0,0,1,.11-.4,1.93,1.93,0,0,0,.35-.35c.17,0,.28-.11.46-.12a3.67,3.67,0,0,0,0-1.15c-.21,0-.15-.26-.33-.3s0,.09-.07.13,0-.1-.09-.12-.25-.08-.28-.21-.06.08-.16,0c.11-.19.26.08.47,0,0-.18-.15-.15-.24-.21s0-.2-.06-.23.08,0,.12,0v0l0,0c0-.07.09-.11.07-.23s.13,0,.12-.08a.38.38,0,0,1-.31-.26c.07-.11.21-.14.33-.19s-.23-.18-.29-.31-.07,0-.15,0,0-.1,0-.14c-.18,0-.24-.05-.27-.17H8.24v0h0v0c.1,0,.15.08.08.14.16.09.19.29.31.42a.11.11,0,0,0-.12,0c0,.06-.06.07-.07.11s.15.3.16.46-.07.14-.12.2-.11,0-.2,0a.6.6,0,0,1-.3.13c0,.06-.08,0-.11.06s0,0,0,.05-.13,0-.15,0,0,.05,0,.05a.57.57,0,0,0-.18,0s0,0,0,0-.17,0-.15,0,.18-.12.16-.29v0l0,0c-.09,0-.06-.17-.08-.25H7.5c0,.15.1.11.06.25v.07c.14.11.24-.11.34,0L8,21.44c0,.08.15.14.2.06a.35.35,0,0,1,0-.16c.07,0,0,.08.11.05s.07-.43-.08-.46c0,.12-.18.11-.18.25,0,0-.11,0-.11-.1s.08,0,.11,0,.05-.11.07-.17c-.09-.22,0-.57-.22-.71a.31.31,0,0,0-.06-.28c.1,0,0-.15,0-.22s0,0,.07,0,.16.11.2.21-.09,0-.08.11,0,.09.11.09v0h0c.08-.07.1-.22.14-.33s0-.08-.08-.05,0-.23,0-.23H8.2a.15.15,0,0,1-.09,0s0-.09,0-.09.09,0,.09,0h0A.43.43,0,0,0,8.08,19a.94.94,0,0,0,.12-.22c0-.07-.07-.1-.11-.14s.14,0,.19,0c0-.21-.07-.36.08-.47s0-.12,0-.18c.15,0,.11.15.22.19s-.08.07-.16.06c-.06.22.26.09.26.26s0-.07-.11,0,.06.2.1.3-.08-.08-.18,0c0,.29.31.32.24.68.1,0,.12.16.22.19s0-.07,0-.11,0,.4.21.39a.48.48,0,0,1,.08.46c-.05,0-.13,0-.14.1s.38.35.42.09a.25.25,0,0,0,.19-.09c0-.06-.08,0,0-.11s-.21,0-.2-.08.11,0,.2,0-.09-.1-.06-.23h.11v0l0,0c0-.07-.07,0-.09-.07s0-.18.14-.18,0-.18,0-.2,0,.15.13.12,0-.09.05-.13.07.17.15.21,0-.23.13-.29a.52.52,0,0,1-.06-.37c0-.06-.16-.07-.13-.2s.27.06.34.12c0,.27-.06.59.06.75-.13.11-.15.35-.18.58s-.38.26-.49.48c-.11,0-.2.07-.21.19a1,1,0,0,0-.41.19c0,.09.1.07.15.07l.25,0s0-.05,0-.05.19,0,.21-.06.07-.12.1-.15c.21-.1.49-.13.62-.32.29,0,.24-.29.33-.46-.09-.16,0-.54,0-.82,0,0,0,0,0,0s0-.11,0-.16a.4.4,0,0,1,0-.3c.06,0,.19,0,.18-.15.12,0,.11-.07.21-.06.18-.5.62-.72.88-1.14-.08-.25-.09-.56-.32-.67,0-.15,0-.23-.12-.27s-.12-.18-.15-.3a.36.36,0,0,1-.25,0,.59.59,0,0,0,.15-.27h.18a.2.2,0,0,1,.14-.2c0-.24.05-.43.22-.49,0-.07,0-.1,0-.16a.45.45,0,0,0,.2-.55h-.09a1,1,0,0,0-.52-.51.37.37,0,0,0-.31-.22c-.07,0-.07.07-.12.09s-.07-.17-.22-.14v.13c-.11,0,0-.1,0-.19l-.19-.09a7.06,7.06,0,0,1-2.57.83c.05.13.08.29.32.24,0-.33.34-.38.62-.32a.4.4,0,0,0,.06.26c-.07.05-.07.17-.08.29S9,15,8.9,15a.12.12,0,0,1,0,.11H8.61c0,.08-.1,0-.08.11A1,1,0,0,0,8,15.3c0-.15-.11-.17-.26-.17-.06-.22-.09-.47-.15-.68H7.21c0,.08,0,.11,0,.16s0,.12,0,.18-.1.11-.14.2,0,.2-.1.24-.17,0-.25-.05-.27.05-.43.05-.1-.16-.24-.17c0-.16-.09-.25,0-.45a.46.46,0,0,1,.32-.19c.14.1.07.29.24.32a.39.39,0,0,0,.18,0,.49.49,0,0,0,.08-.26A7.31,7.31,0,0,1,5.7,14.3a2.25,2.25,0,0,1-.45,0c0,.06-.12.06-.12.15s-.12.08-.23.06v.18a.57.57,0,0,1-.41.08c-.18.12-.47,0-.68,0,0,.12.07.14.18.15s.18.07.31.08,0,.07.09,0,.33,0,.41-.09,0,.1,0,.18h0c0,.06.1.05.09.14s.18,0,.22,0c0,.39-.39.49-.57.75a.15.15,0,0,0,.07.18c-.08.15-.4.13-.35.33.11-.05.26,0,.38-.06s0,0,0,0,.13,0,.16,0,0,0,0,0,0,0,0-.07l.16.12a1.48,1.48,0,0,0,.3-.26c.06,0,0,.12,0,.2a2.86,2.86,0,0,0-.49.6.36.36,0,0,0,.19.23c0,.05-.06.07-.07.13a.24.24,0,0,0,.13.19c0,.08,0,.17,0,.2.2-.08.25-.33.54-.32a2.18,2.18,0,0,1-.65.95.55.55,0,0,0,0,.31.17.17,0,0,0,.27-.1c.07,0,0,.08.14.05s.1-.24.26-.26a.46.46,0,0,0,.21.28,1.65,1.65,0,0,0-.43.57c0,.05-.1,0-.07.07s.12,0,.16,0a.5.5,0,0,1,.08.41h0v0c.08-.06.19,0,.25,0a.36.36,0,0,0,0-.18c0-.06.1,0,.14,0,.16-.17.16-.52.3-.71,0,0,0-.12,0-.1s0-.11.1-.13,0,.11,0,.18.14-.06.14-.17.23-.1.28-.22h0l0,0c-.19,0-.16-.25-.33-.29V17.8c-.16-.18-.07-.46-.11-.68s-.14-.25-.17-.37a.24.24,0,0,0,0-.2c-.09-.07,0-.32-.1-.39a2.62,2.62,0,0,0,.07-.72c.25,0,.59.05.69-.13,0,0,.09,0,.15,0a.55.55,0,0,1,.17-.13,1.18,1.18,0,0,1,.19.73.39.39,0,0,0-.21.24c0,.05-.13,0-.14.1l0,0,0,0a.39.39,0,0,0,.23-.06c.16.05.08.22.08.39.11,0,.1-.12.21-.13s0,.26.1.3.1-.05.14-.09c.06.15.24.18.42.22s0,.06,0,.12-.28.12-.38,0c-.12.16-.24-.07-.43,0a1.15,1.15,0,0,0,0,.27c.2,0,.26.19.24.41.11.05.13.18.31.15a.21.21,0,0,1,.08.12c-.13.17-.55,0-.79.08a.2.2,0,0,0,0,.21.75.75,0,0,0,.14.52.55.55,0,0,1,.31.12c0,.12-.19.07-.23.15,0-.07-.29-.11-.36,0s.12,0,.18.05.11.15.26.15,0,.35.05.45c-.14.08-.4,0-.54.11a.23.23,0,0,0,.08.21c-.08.21-.06.53-.16.72s-.35.09-.37.3a.36.36,0,0,0-.18,0c0,.25-.17.37-.09.61.09,0,.12,0,.18,0a1.19,1.19,0,0,0,.08.2.16.16,0,0,0,.16-.06.24.24,0,0,0,.27.12.28.28,0,0,1-.27.42.48.48,0,0,0-.24-.1c-.06,0-.06-.11-.15-.11a1.27,1.27,0,0,0,0,.2,1.87,1.87,0,0,1-.67-.12v-.11c.1,0,0,.09.13.07s.16-.14.21-.24-.23-.18-.37-.26,0-.26-.15-.27a.74.74,0,0,1,.23-.67.8.8,0,0,1-.13-.28c-.17,0-.21.08-.32.12s-.06.39,0,.48c0,.29-.15.45-.11.79-.18.15-.27.38-.47.5a6.17,6.17,0,0,0,.06,1.29.86.86,0,0,1,.13.14h.14a.83.83,0,0,1,.34.47c.15.07.17.25.26.37l0,0,0,0A.54.54,0,0,0,5.6,24c0-.15-.08-.19-.06-.34a3.77,3.77,0,0,1,1-.06c.25,0,.5,0,.74,0,0,.05,0,.12.08.16s0-.16.08-.2,0,0,.11,0,0,.08,0,.11a2.23,2.23,0,0,1,.27,0v.09s-.1,0-.14,0c-.09.25-.29.68-.13,1,0,.07-.08,0-.09.09s0-.23-.15-.21a3.53,3.53,0,0,0,0,.92s0,0-.09,0,0-.34-.12-.36,0,.18-.1.18,0,0,0,.07a2,2,0,0,1-.32.1l-.06-.14a1.18,1.18,0,0,0-.39.1c0-.07-.14,0-.2-.08S6,25.47,6,25.41H6l0,0c-.32.19-.11.95-.77.78-.18.13,0,.48-.12.7a.25.25,0,0,1-.2,0l-.09,0H9.19v0h0c0-.07-.15-.05-.13-.16.19,0,.27-.07.38-.12s.09,0,.07.11-.19-.05-.25,0a.09.09,0,0,0,0,.11c-.07,0,0,.08-.09.05v0Zm-3.73-.51c.24.12.57-.07.88,0,.07,0,.07-.07.16-.06s.19,0,.26.05.1.12.18.1v0l0,0c.08,0,0-.08.1,0s0,.11.08.13h0c.08,0,0-.09.05-.13h.06a.61.61,0,0,0,.06.25s-.07.05-.13,0,0-.07,0-.07H8v0c-.08,0-.08.09-.12.13a1.4,1.4,0,0,1-.36,0,.19.19,0,0,1-.12.11c-.11,0-.15-.08-.22-.12s-.3.05-.5.05-.41-.1-.52,0a1,1,0,0,0-.42-.08c-.13,0-.29.07-.36,0s.06.05.11,0a.4.4,0,0,1,.15-.24c.09,0,0,.09.13.07s.1-.09.1-.2.12,0,.17.05.18,0,.28,0m2.11-2.23v0H8.41v0h.07M7,26s.06,0,.09,0S7,26.07,7,26M5.91,26c0-.06,0-.11.07-.11s0,.05,0,.11H5.91m2-.13s-.06-.08,0-.07,0,0,0,.07H8v0c.07,0,.07,0,.11.07s0,.07-.09,0,0-.06,0-.12l0,0v0m-.31-.08c0-.08,0-.17.07-.18s.1.1.09.21-.06,0-.1,0,0,0-.06-.07m.21-.17c0-.06,0-.1.07-.09s0,.05,0,.09H7.82m-.37-.31c0-.05,0-.11.14-.11s.07,0,0,.14-.07-.07-.18,0m.38.11c-.07,0-.07-.32,0-.34a.65.65,0,0,1,0,.34m0-1.25c.16,0,.13-.17.28-.17s-.07.1-.05.21l0,0v0c.13,0,.09-.23.21-.26s0,.13,0,.2-.09.11-.14.16a3,3,0,0,0-.06.83c-.17,0-.08-.28-.09-.43a1.51,1.51,0,0,1,.06-.41H8l0,0c-.08,0-.07.18-.18.11,0-.05,0-.17,0-.28m.24-.3v-.07h.07c0,.05,0,.07-.07.07M9,22.63v.07H8.89v-.06H9m-.27,0c0,.05,0,.16,0,.14s0-.12,0-.14m-3.56.46a.17.17,0,0,1,0-.07H5.2v.07H5.13m0-.34v-.07h.07v.07H5.1m.47-.46c0,.08,0,.18,0,.21s.09,0,.18,0c.14.19.56,0,.83.12a1.4,1.4,0,0,1,.65,0c0,.08-.06.26,0,.27v0h0c0-.11.08-.08,0-.18.18.07.29,0,.39,0s.09.17.15.25-.16,0-.18,0a.27.27,0,0,0,0,.25c.08,0,.1,0,.14-.06s0,.27.1.27v0h0c.08-.05,0-.22.14-.26v.2c.18.11.23-.08.21-.26V23c-.1,0-.09-.08-.2,0a2.14,2.14,0,0,0-.06-.27.85.85,0,0,0,.32,0c0,.09,0,.22,0,.29v0l0,0c0,.05,0,.15.07.16a.24.24,0,0,0-.06.2c.09,0,0,.06.11.05s0-.07.1,0-.16,0-.21.1c-.06-.11-.33,0-.4-.1H8a6.49,6.49,0,0,0-.66.11s-.06-.05-.11-.07a5.15,5.15,0,0,0-1.12,0c-.07,0,0-.07-.14,0s-.35,0-.52,0a.57.57,0,0,1,0-.54l-.13-.14c0-.17.13-.18.17-.31s-.09-.07-.07-.16a.15.15,0,0,0,.1,0v0l0,0a.45.45,0,0,1,0-.11h.08c0,.05,0,.11-.07.11v0l0,0m5-7.65a.17.17,0,0,1,.18.08c-.06,0-.09.06-.18,0v-.12m1-.5s0,.06,0,.06-.06,0,0-.07h.07m-1.3,1.62c-.12,0-.11.22-.22.26a.43.43,0,0,0-.38-.12c0-.26-.48-.17-.29.1-.07,0,0,.13-.12.13h0l0,0h0v.07c-.08,0-.08-.1-.11-.14H9v0H8.93c0-.12,0-.16-.06-.23s.16-.07.19,0H9c0,.11,0,.2,0,.25h0v0s0,.09.09.07l0,0h0c.05-.13,0-.25,0-.41H9.15c0-.07,0-.15,0-.27s-.12-.07-.09-.19c.33.09.58.48.94.26,0-.07,0-.08,0-.11s.11,0,.14,0-.11,0-.08.15.1.15.25.12v0h0c.13-.07,0-.25.08-.38a3.82,3.82,0,0,0-.74-.18c-.06-.09-.27-.05-.28-.19s.1.07.2.07.52.07.76,0c0,0,.07-.06.08-.07a.37.37,0,0,0,.11,0s0-.12.09-.13.33.09.39,0,.15,0,.15,0a.41.41,0,0,0,0-.11c-.09,0-.05-.08-.16-.05s.08-.06.08-.14l0,0,0,0c-.05,0-.05-.12-.16-.08s0,0,0,0-.09,0-.12,0,0,.07-.09.09a.56.56,0,0,1-.41,0c0-.15.15-.09.17-.2l0,0,0,0s-.14.14-.25-.12c.1,0,.21,0,.3,0s0,0,0,0,.12,0,.14,0,0-.11.09-.06h0s0,.07,0,.14c-.36.09-.33.12-.33.12v0c.12.06.23,0,.38,0,0-.17.11-.11.28-.11,0,.06,0,.16,0,.21v.06c.06.09.25,0,.31.13h.09s.06-.08.13-.06a.82.82,0,0,1-.15.56c0,.22-.18.3-.22.51a.55.55,0,0,0-.26.26.71.71,0,0,1-.67-.2v0h0m-1.71-.33c0,.11,0,.1,0,.22-.13,0-.11-.18,0-.22m-.24.35c0,.07.08,0,0,.11s0,0-.11,0,.05-.07.07-.11m.2.05a.06.06,0,0,0,0,0H8.6v0Zm-.69,1.8c0-.06,0-.14.07-.13s0,.1-.07.13M7.7,15.86c0-.23,0-.41.11-.56.21.1,0,.59.13.79L8,16c.07-.13,0-.33.06-.42.1.15,0,.45.16.59.17,0,.16.15.32.08,0,.11.16.09.29.1s0-.16,0-.13.19.16.13.25c0-.07-.11-.06-.11,0s.12.21.19.3a2.44,2.44,0,0,1,0,.27c.12,0,.08.17.24.15,0,.11.11.14.2.16.08.32.36.44.73.48v0l0,0s0,0,0-.06a.51.51,0,0,1,.32.07c.11,0,.23-.1.23-.28s-.1,0,0-.07.06,0,.09,0v0l0,0c0-.08-.08,0,0-.13s.19,0,.2,0S11,17,11,17s.08-.12.15-.15a.21.21,0,0,1-.13-.25c-.16-.08-.18-.3-.49-.25,0-.07-.14-.07-.15-.16.31-.17.46.13.64.27a.44.44,0,0,0,.15.34c0,.24.17.35.25.53s-.12.17-.1.34c-.19.08-.23.33-.4.43s-.24.29-.31.49a.68.68,0,0,1-.39.05c0-.08-.1-.09-.15-.14v0h0l0,0c-.09,0-.21,0-.25.08a2,2,0,0,1,0,.25c-.19,0-.23-.19-.49-.15a.64.64,0,0,1,0-.32C9.05,18.19,9,18,8.77,18c0-.18-.14-.2-.23-.28s0-.23,0-.38H8.6c0,.28.22.4.45.49a1.36,1.36,0,0,0,.7.54c.11,0,.26,0,.3.06h.06c.07-.06,0-.15-.06-.21-.3-.08-.35-.4-.63-.52,0-.07-.09-.1-.11-.18a.16.16,0,0,0-.11,0,1.83,1.83,0,0,0-.3-.32.66.66,0,0,0-.22-.37.48.48,0,0,0-.14-.39c-.06-.05-.22,0-.25-.08,0,.09-.1,0-.16,0s-.24-.06-.38-.08-.15-.17-.17-.28,0-.07.07-.06l0,0Zm1.67.51c0,.13.12.17.15.28-.15,0-.11-.18-.26-.17v-.12h.11m.49.26c-.1,0-.12-.06-.13-.13a.16.16,0,0,1,.13,0v.11m0,.14c0,.3.4.27.52.49,0,0,0,0,0,.07-.24,0-.23-.27-.41-.33H9.71c0-.14-.11-.22-.05-.29s.08.09.2.07m.64.29c-.11,0-.18,0-.18-.11s.19,0,.18.11M5.68,19.35c0-.17.1-.28.16-.27s-.06,0,0,.12,0,.16-.14.15M5.14,16a.28.28,0,0,1,0-.09h.11c0,.08,0,.08-.12.08M3.87,13.46l.15,0H4a.32.32,0,0,0-.14,0m.8,1.79c0-.07.1-.05.1-.13h0l0,0c0-.13-.12,0-.14,0s-.2,0-.2.06v0l0,0s0,0,.07,0,.14,0,.2,0m2.39,1.08v0a6.25,6.25,0,0,1-.72.07c.07.19.68.19.74,0ZM9.82,20l0,0c0,.07,0,.08,0,.16.14,0,.15-.12.12-.22H9.81Zm1.07-2.62c0,.1.15.09.14,0s0-.09-.11-.07v0ZM7.27,23.2s.05,0,.09,0,0-.18,0-.2h0c-.12,0-.06.18,0,.2M12.81,5c-.06,0,0,.1-.09.1s0-.08-.05-.09c-.27,0-.43-.13-.68,0,.1.16.46,0,.49.3a1.23,1.23,0,0,0-.49.22c-.17,0-.29.1-.4.15s-.13,0-.18,0,0,0,0,0a1.9,1.9,0,0,1-.49.18c-.08.07-.25.06-.34.12s0,.13-.1.14-.07-.05-.14,0c-.2.17-.55.19-.69.41h.18c.12-.16.45-.12.58-.27a6.38,6.38,0,0,1,1,0c0,.25.31.13.39,0,.06.1.16,0,.22,0h0v0a1,1,0,0,1,0-.52H12c-.09.1,0,.24.16.2l0,0h0s0-.12,0-.12.07.07.16,0,.28-.12.37-.22v0s0,0,.05-.14c0,.05,0,.12,0,.13l0,0v0c0,.09.07.15.18.13s0-.3.2-.28c0-.11-.07-.12-.08-.2s-.09.07-.11,0,.14-.25,0-.27,0,.1,0,.09-.1,0-.18,0m-.63.86c0,.09-.09.08-.13.14s0,.13,0,.16h0v0a.6.6,0,0,0,.2,0c0-.08-.09,0-.07-.11s.23-.1.33-.17-.1,0-.27-.06l0,0ZM1.35,9s0,0-.07,0,.05.15.12.18A.45.45,0,0,0,1.46,9c-.05,0,0-.09-.11-.08m.59,1.4H1.87v.07h.07v-.07M4,12.53l0,0c0-.12-.2-.12-.23-.24a.42.42,0,0,1-.28-.2c-.08,0-.15,0-.14-.13h.13s0,.07,0,.11h.33c0-.12.18-.11.15-.28l0,0v0c-.12.06-.3.15-.43,0s0,.08-.09,0-.25-.09-.28-.24a.73.73,0,0,0-.36,0,2,2,0,0,0,0,.22,1.06,1.06,0,0,1,.26.17,2.71,2.71,0,0,0,.23.24c.05,0,.11,0,.14.07l.14.13s.17,0,.18.12.12.07.21.06Zm.28.13c0,.21.18.17.22.3s.14-.05.24-.05.12.08.12.18.41,0,.48.18c.12,0,.16,0,.28,0a.57.57,0,0,1,0-.13A.42.42,0,0,1,5.29,13c.12,0,.09-.07.17-.07,0-.23-.18-.15-.25-.24s.08-.1.17-.1c0-.17.19-.19.15-.41,0,0,0,0,.06,0s0-.14,0-.15l0,0h0c0,.05,0,.05,0,.07s0-.05,0-.09H5.5v0l0,0c-.08-.25.14-.36.18-.57s-.07-.21,0-.33c-.16.06-.18.26-.38.3,0,.12,0,.19,0,.34s.1,0,.1.09-.35-.12-.48,0-.12.2-.12.36c-.09,0,0,.08-.13.05.08-.2,0-.34,0-.58.09,0,0-.17.06-.28s.15-.33.29-.44c0-.06,0-.06,0-.13a.34.34,0,0,0,.17-.32c-.09,0-.09.07-.18.07a1.53,1.53,0,0,1-.52.61c0,.07,0,.08,0,.16s-.16.18-.31.21c0,.11-.09.09-.08.18l0,0v0c.14.06.25-.06.33-.12,0,.32-.08.72,0,1,0,0-.07.05-.14.05m.61-.09c0,.07-.1.08-.13,0s.08,0,.13,0m-1.07.35c-.08,0,0-.06-.12,0s-.09,0-.08.11,0,0,0,.07.15,0,.2-.07,0,0,0-.07m0,.41v.09c.07,0,.05,0,.09,0s.07,0,0-.09-.07,0-.14,0M4,12.94s.08,0,.06-.07,0-.1-.12-.09,0,.15.06.16m.14.13s-.14,0-.14.12,0,0,0,.06.11,0,.2,0l0,0h0c0-.1-.13-.09-.16-.17m.27.21s0,0-.11,0v0l0,0s.17,0,.13,0m-.26-.35c0,.2.27.17.33.33.09,0,.21,0,.2-.08-.17-.09-.24-.29-.53-.25m.65-5.76a.49.49,0,0,0-.18-.08s-.1,0-.09.12.27,0,.27,0m.38,6.18a.46.46,0,0,0-.07-.07.47.47,0,0,0-.27,0c0,.06,0,.08,0,.18.31,0,.49.19.79.1,0-.17-.3-.12-.46-.18M6.4,10.8s-.08,0-.06.13.17-.07.24-.14a1.11,1.11,0,0,1-.09.5c0-.09,0-.18,0-.27s-.1,0-.18,0c0,.17-.14.28,0,.46.11,0,.11-.05.2-.05s0,.17.07.22-.07,0-.13,0-.09-.12-.18-.13a.36.36,0,0,0-.08.32c-.12,0-.08.2-.08.34a.55.55,0,0,0-.26.24c-.08,0-.12,0-.21,0s-.14.14-.12.3c.23-.08.33.06.49,0A.25.25,0,0,0,6,13c-.06,0-.08.12-.06.23s.1-.07.2-.05V13a.31.31,0,0,0,.24-.12c-.2-.11-.14-.64-.08-.83.12.07.06.26.06.4s.15.19.24.26.06-.19.2-.18,0-.12,0-.1c.09-.41-.19-.68,0-1,0-.1,0-.07,0-.14s0-.31,0-.47.05-.11.06-.16,0-.31-.1-.34-.08.11-.16.12,0-.05,0-.09.11,0,.08-.09v-.09c-.07,0-.06,0-.09,0-.11.18-.31.46-.18.73m-.58,2.45v.07h.07a.17.17,0,0,1,0-.07H5.82m.41.1s-.08,0-.14,0v.09s.16,0,.14-.05m1.85.12s0-.08,0-.07.45,0,.54-.09v0l0,0c-.12-.06-.28,0-.43,0s0-.21,0-.27-.06,0-.13,0-.22.2-.33.3a4.58,4.58,0,0,1-.93,0c0-.13-.2-.11-.17-.31-.19,0-.2.14-.38.15s0,.17.06.27-.08,0,0,.11.35.05.45,0,.1.11.18.13.21-.05.3,0,.38.07.51-.09c.06,0,0,.09.1.07s.14,0,.22,0M6.34,7.19c0-.08-.07,0,0-.09s.14-.3,0-.37l0,0h-.1c0,.19-.12.44.06.54,0,0,.07,0,.07-.09M7,6.39a.6.6,0,0,0,0-.2c-.37,0-.39.29-.66.37v.13h0l0,0h.21A1.07,1.07,0,0,1,7,6.39m-.09,6.15s-.13,0-.07,0,.11,0,.07,0m1-1.39c0,.19,0,.47.17.49,0-.23,0-.52-.09-.65a1.07,1.07,0,0,0-.09-.54s0-.16-.07-.16,0,.22-.1.28-.05-.2-.15-.22-.09.14-.08.27-.08.08-.15.1a.22.22,0,0,0,.07.22h0c.18,0,0,.26.19.28s0,.11-.07.16,0-.34-.12-.38l0,0v0c-.14.13,0,.37,0,.54s-.1.13-.06.21a.19.19,0,0,0-.15.21c-.3,0-.15.4-.16.68.11,0,.06.11.16.09v0h0c0-.05,0-.07.06-.11s0,.07,0,.11H7.26v0l0,0c0,.19.25.21.5.19.08-.21,0-.29,0-.47h.18c0-.3,0-.62,0-.93a1.1,1.1,0,0,0-.07-.17c0-.06,0-.1,0-.14s-.16-.23,0-.34a2.52,2.52,0,0,1,.15.34m-.55,1.1c0-.07.14-.07.11,0H7.36M7.13,14s0,0,0,.07.25,0,.25-.08-.23-.06-.27,0m.28-.21h0c0-.08-.21,0-.29-.06s0,0,0,.07.28.15.29,0m.07,0h0c.1.06.56.12.56-.09-.15,0-.5,0-.54.07M7.05,7.59c.09,0,.07.1.19.06s-.17-.17-.19-.06M7.49,14c.06,0,.1-.07,0-.07s0,0,0,.07m.6-2.1a0,0,0,0,1,.05,0c0-.05-.06-.07-.08-.11s0,.05,0,.07h.05s0,.06,0,.07m.27.6a.28.28,0,0,0-.19-.29l0,0H8.1c-.08.16.1.19.06.38.1,0,.13,0,.18-.05v-.05ZM8.14,12c-.09,0-.08.21,0,.25l0,0h0a.75.75,0,0,0,0-.23m.3.74H8.5v-.15H8.43l0,0h0s0,.15.08.14m-.14-8c.13,0,.14-.09.13-.21s-.13.1-.13.21m.84,8.77h.07v-.07H9.14v.06m.36-.21v.13h.11v-.14H9.5M9.53,3a.19.19,0,0,0,.11-.12c-.09,0-.16,0-.11.12m.82,10.26v-.11h-.18c0,.14.1.15.18.1m.4-3.94a.14.14,0,0,0-.18-.13.12.12,0,0,0,.18.13m.45,3.14c0-.07-.07,0,0-.08s-.16,0-.16.07l0,0v.05h.13v0Zm.41-.12,0,0,0,0c-.15,0-.2.17-.35.22v0h0a.66.66,0,0,0,0,.14c.19,0,.29-.17.44-.25v-.06m.18-.53c-.12,0-.3.12-.24.26.11-.06.28-.06.24-.26M11.54,5c-.07,0-.08-.08-.14-.11a.43.43,0,0,0-.06.27c.16,0,.13-.11.2-.16m.5,5.13s.05-.06,0-.12a.12.12,0,0,0-.15,0c0,.06.06.08.11.11m1.11.11a3,3,0,0,0-.25.51s0,0,0,0a.5.5,0,0,0,.22-.55m1.24-5.59c-.11,0-.14.06-.12.18h.11c0-.08,0-.1,0-.18m.32-.15c-.09,0-.08-.2-.08-.34a.41.41,0,0,0-.19,0c.05.21-.07.6.16.6.08,0,.06-.19.11-.27m.46-.85V3.7h.05V3.64h-.05m.66,5.62h-.05v0h.05v0m1.15,2h.14s0-.08,0-.12-.14,0-.13.12m.51-4.6h-.11c0,.21-.15.28-.12.52h.12c0-.23.19-.32.11-.53m.78-3.44a1.56,1.56,0,0,0-.68-.56H17.5c0,.18.17.23.22.37.22,0,.31.27.55.18m-.35.29h-.11v.14a.11.11,0,0,0,.11-.14m.17.26V3.8h0V3.73h0m.58,1v.14c.23,0,.25-.17.33-.31-.17,0-.18.16-.33.17m.86,1.53a.73.73,0,0,1-.53.15c0,.13-.12.12-.2.14v.07c.06.05.18.05.25.08s0,0,0,0l0,0h0c0-.1.07-.1.09-.16h.31c0,.08.08,0,.07.06a.85.85,0,0,0,.45-.08.64.64,0,0,0,.4-.15c0-.07-.16,0-.14-.06a1.69,1.69,0,0,1,.34-.11.57.57,0,0,0,0-.13.9.9,0,0,0-.45-.17,1.16,1.16,0,0,1-.67.37M19.35,7c.06,0,.14,0,.14-.07v0a1.2,1.2,0,0,0-.35-.1l0,0h0c0,.13.05.16.05.27s.19,0,.22-.08m.83-3.42a.89.89,0,0,0-.43.09c-.08-.11-.34,0-.52,0,0,.09.08.07.05.18s0-.07.11,0a1.26,1.26,0,0,0,.84,0,.25.25,0,0,0-.05-.2m-.4,6.29a0,0,0,0,1-.05,0v0l.07,0s0-.08,0-.09m0,.39s.23.07.2,0h0v0s-.19,0-.18.06m.31-.13c-.05,0-.11,0-.11.07h0v0c.05,0,.1,0,.08-.09m-.27-4.43s-.1,0-.09.11.08,0,.14,0,0-.06.06-.09,0-.08-.11,0m.21,2.67a.22.22,0,0,0-.18.1c.09,0,.09.07.21,0s0-.11,0-.14m.17-4c-.14.18.1.29.13.44s-.16.14-.13.3c0,0,.13,0,.14,0s-.17.24,0,.32.07-.11.13-.14.19-.06.22-.15-.11-.13-.19-.17a3.49,3.49,0,0,0,0-.5c-.13,0-.14-.1-.23-.12m.49-.16c0-.12,0-.2-.12-.22s0,.2.12.22m.09.11h-.09c0,.07,0,.1.1.08s0-.06,0-.09m.06.27v.14a.09.09,0,0,1,.09,0c0-.1,0-.14-.09-.16m.48,1.54c-.21,0-.25.12-.33.22.08,0,0,.08.05.13.17,0,.21-.09.36-.08,0-.15-.11-.11-.08-.27m.76.31c0-.14-.05-.22-.17-.24s0,.11,0,.18a.2.2,0,0,1,.14.06m.83.6c0,.12,0,.19.12.2s.06-.08.07-.13A.17.17,0,0,0,22.94,7m2.58,0c0-.09-.07-.11-.12-.13a.1.1,0,0,0,0,.11c.07,0,.08,0,.16,0M19.63,9.59c0-.07,0-.08,0-.14h.11c0,.08,0,.14-.13.14m-.21-.15c-.08,0-.06-.06-.05-.11h.12c0,.06,0,.08-.07.12M19,9.34a.28.28,0,0,0,0-.09h.12s0,.1-.11.09m-.11.66v0h0v0h0m-4.9.18c0,.07,0,.06,0,.09s0,0,0-.09H14m-4.73.26v.07H9.19v-.07h0m.1.25c0,.12.11.16.08.33-.08-.06-.12-.18-.21-.24s.06-.09.13-.09M2.91,9.09v0H3v0h0m.66,1.42v-.06h.07v.07H3.57M1.83,9.67v.07H1.78V9.68h.05m9.59,3.24v-.06h.09c0,.08,0,.08-.09.07m-.57.36c0,.11-.07.1-.16.1s.06-.1.16-.1M7.07,14.36c0-.07.1-.07.07,0H7.07m-.67,0v-.07h.07v.06H6.4m-3-1.38s0-.07-.09,0a.08.08,0,0,0,0-.06h.11c0,.09-.06,0,0,.12M3,12.61s0,0,0,0,.18,0,.31,0,0,0,0,.12-.14.09-.27.07,0-.12-.09-.13m-.4-.39c-.07,0-.06,0-.09,0s.11,0,.09,0M2.25,12a.28.28,0,0,0,0-.09c.09,0,.19,0,.21.15s-.08-.1-.2-.06m-.71-1.53c.05,0,.11.05.12.13s-.08-.08-.12-.13m0,.66c0-.09-.06-.17,0-.21s.1.21,0,.21m-.24-.4c0-.13-.09-.13-.08-.25s.16.12.17.25H1.32M19.11,5.82c0-.07.1-.2.26-.17s-.14.06-.15.14,0,0-.11,0M16,5.23V5.12H16c0,.06,0,.12-.09.11m-1,2h0v0h0Zm-1.48.3c0-.18,0-.23,0-.41.22,0,.41.1.33.33-.13,0-.15.11-.32.08m-.28-.4c0,.32,0,.64-.32.62a1.77,1.77,0,0,1,0,.23c-.2,0-.28.2-.39.33h-.18c-.05,0,0,0-.05,0a1.34,1.34,0,0,1-.2,0c-.16-.06-.49,0-.66-.14.05-.24.38.12.49-.11.11,0,.15.08.23,0,0,.07.07.06.09.1a.57.57,0,0,1,.25-.07,1,1,0,0,0,0-.34c-.09,0-.15.11-.26.1s-.12-.1-.19-.11a.24.24,0,0,1,.27-.16s0,.1.09.13,0-.14.08-.18-.1-.14-.14-.23a.51.51,0,0,1,.09-.18s0,0,.06,0,0-.09,0-.13.05,0,0-.09l-.05-.14c0-.07-.14-.13-.17-.22s-.25,0-.32-.12-.36,0-.43.06-.18,0-.2,0,.08-.08.07-.14A1.72,1.72,0,0,0,12,6.14c.08,0,.17,0,.19,0a.29.29,0,0,1,.22,0c.06-.06,0-.19,0-.3s.14-.12.12-.27.11-.19.19-.26a.69.69,0,0,1,.15.43c.08,0,.08.2.08.33s.08,0,.05.11a1.27,1.27,0,0,0-.54-.11c0,.17.21.16.37.19a.26.26,0,0,0,.14.13v.09c.15.08.15.31.15.56,0,0,0,.07-.06.09s0,0,.07,0M10.62,5s.05,0,0,0a.57.57,0,0,0,.47,0c.1,0,.17-.17.31-.14s0,0,.05,0,.34-.06.42,0,.37,0,.51.11,0,.1.09.11c-.08.18-.48.07-.65,0s-.18.2-.36.21a.42.42,0,0,1-.08.26c-.24,0-.29.19-.56.17-.09.07-.14.17-.33.15a.34.34,0,0,1-.24.06c0-.07-.08-.07-.1-.11a.63.63,0,0,1-.22.07A.23.23,0,0,0,10,6c-.1,0-.24.07-.28.17.15.32.63-.08.84.11l0,0h.09s-.06.1-.07,0h0c-.1.11-.37.07-.47.18-.24,0-.4.14-.67.13,0-.07,0-.17-.08-.18.16-.05.09-.29.06-.36S9.42,6,9.48,6a2.4,2.4,0,0,1,.44-.29s.11-.09.11-.18a.35.35,0,0,0,.26-.17c.21,0,.35-.11.33-.35m-.54-1a1,1,0,0,1,0,.38.6.6,0,0,1,.15.47c-.28,0-.31.22-.3.48a.25.25,0,0,0-.24.1.86.86,0,0,0-.36,0,.49.49,0,0,1-.1-.34c-.2,0-.28.14-.45.06a.13.13,0,0,1,0-.06c.16-.14.14-.43.37-.49a1.25,1.25,0,0,1,.39-.49c.13.06.29,0,.45,0s.08,0,.08-.11M9.17,6.79h.07v.06H9.17V6.79m1.05-.85c0,.08-.09,0-.13,0V5.92s.13,0,.13,0m.56.57c0-.07,0-.07,0-.12h.14V6.5a.15.15,0,0,1-.16,0m.72-.91c0-.06,0-.08.08-.07v.06H11.5m.32-1c0-.28.17-.38.27-.55.18,0,.25.19.33.33l.07.13s0,.15.12.2a.42.42,0,0,1-.25,0s0-.05,0-.05-.18,0-.16-.06a1.19,1.19,0,0,1-.38,0m.76,4.78c0-.07,0-.07,0-.14s-.12-.15-.1-.31a.5.5,0,0,1-.15-.29c.21.05.44,0,.47-.19,0,.09.15,0,.22,0a2.2,2.2,0,0,1-.31,1.27c-.09,0,0-.12-.05-.17a.62.62,0,0,0-.1-.16M10.5,11.12c.06,0,0,0,.07-.07L11,11c0-.08,0-.18.11-.23a.66.66,0,0,0-.38-.57c0-.14-.09-.15-.13-.24.16,0,.23.15.39.16.08.2.28.25.45.35a1.64,1.64,0,0,0,.19.4c0,.07,0,.16,0,.2s-.1.33-.19.46-.18,0-.24,0-.4.09-.35.33c-.1,0-.17-.1-.27,0s.07.08.05.18-.11.06-.18.08-.15,0-.21-.06,0,0,0-.05a.18.18,0,0,1-.14-.2,1.28,1.28,0,0,0,.4-.15,2.62,2.62,0,0,0,0-.56M9.12,8.66c.05-.26-.14-.27-.28-.35,0-.11.14,0,.23,0s0-.14,0-.13.36-.11.67,0c0,.08.09,0,.07.11.33,0,.53.1.82,0,.07.05.09.15.23.13s0-.2.15-.19c-.07-.15-.31-.11-.44-.19s-.21,0-.22-.06a.75.75,0,0,1-.48-.11c-.14,0-.23,0-.34,0s-.15-.06-.23-.08,0-.09,0-.16-.25,0-.3-.15h.18v0l0,0s-.07,0-.07-.05,0-.09.08-.11V7.1a.39.39,0,0,0,.3-.33c.3.05.82.2,1.06,0s.75.14.9-.1a.54.54,0,0,0,.21.15c.06,0,0,.07,0,.13s.1.1.08.23c-.3,0-.49,0-.79,0-.1,0-.08.17-.1.26a.26.26,0,0,0,.16.1c0,.15.16.48,0,.61a.22.22,0,0,1,0,.25,1.14,1.14,0,0,0,.22-.12c.08,0,0,.09.12.06s-.08,0,0,.11.47.08.68.14.28.29.29.57c.11.07.07.31.09.48-.27,0-.2-.29-.42-.31s-.16.11-.27.13V9.22c0-.07-.11,0-.09-.09l-.31,0a2.23,2.23,0,0,1-.63-.39,1.36,1.36,0,0,0-.29,0c-.06-.14-.31-.09-.44-.16-.08.16.17.32.38.32,0,.11.16.11.16.24.25,0,.31.12.53.12,0,.07,0,.08,0,.13a.5.5,0,0,0,.21,0c.15.11.23.31.53.27,0,.08.09.06.09.13h.18a.52.52,0,0,1,.11.33c-.34.08-.44-.19-.71-.11,0-.06-.11,0-.12-.11s.14-.1.27-.1c-.07-.16-.25-.19-.41-.25v0l0,0s0,0,0,.11h-.2c0-.12-.08-.14-.21-.12v0l0,0c0,.05-.14,0-.18,0s0-.06.09-.07v0l0,0c0-.15-.27-.1-.35-.21s0-.1.07-.14-.11-.08-.17-.11-.12.07-.15.15c-.06-.07-.21-.06-.34-.06-.11-.3-.4-.41-.7-.52M8.61,8.1s0-.07,0-.07a.13.13,0,0,1,.25,0c-.09,0-.13,0-.2,0m.07-1.63s.14.15,0,.13,0-.09,0-.13M8.28,7.9c0-.12.11-.12.06-.27s.08,0,.12.07-.09.16-.18.2M8,8.25c0,.06,0,.12-.13.12S8,8.29,8,8.25M6,7.33C5.84,7.18,6,7,5.94,6.84c.22,0,.24-.22.26-.42.08,0,.07.08.18,0s.08-.08.06-.18c.14-.18.48-.16.67-.3s.08,0,.11,0,.3,0,.45,0,.18.09.26.13,0,0,0,0,.14.18.26.22,0,0,0,.09.06.08.12.08a1,1,0,0,1,0,.25s0,.08.12.09c0,.22.07.53-.09.61a.86.86,0,0,0-.16-.45c0,.06-.1,0-.13.1s.05.07.05.13S8,7.53,8,7.69a1.29,1.29,0,0,0-.62.16c-.06,0-.08-.08-.14-.11s-.19,0-.38,0c0-.16-.16-.19-.18-.35H6.53c-.07,0-.07.16-.13.21s-.11-.2-.17-.31H6.12a.73.73,0,0,0,0,.31c-.17,0-.1-.18-.07-.29M8.18,5.2s.06,0,.05-.07,0,0,0,.07H8.18M8,5.55c0-.09,0-.08,0-.14s.09,0,.08.13H8M8,2.61V2.5c.07,0,.12.14,0,.11m-.29.08a5.14,5.14,0,0,0,.18.56c-.11.11-.14.3-.25.41s0,.07.07.11a.37.37,0,0,0,0,.39c0,.07-.09.1-.06.23-.23,0-.07.46-.18.61-.24,0-.2.23-.16.41a.36.36,0,0,0-.23,0s0,0,0,0c.11-.07,0-.17,0-.25S6.77,5,6.69,5a4.52,4.52,0,0,1-.13-1c0-.07-.07,0,0-.09.23-.2,0-.74.22-.95a.37.37,0,0,1,0-.3h0l0,0h0a1.79,1.79,0,0,1-.15-.23.22.22,0,0,1,.15.23h0s0,0,.14-.06a.49.49,0,0,1,0-.12s0,0,.07,0,0-.13,0-.23A.29.29,0,0,0,7,1.88.34.34,0,0,0,6.35,2c-.07,0-.06,0-.13,0,0-.31,0-.59.31-.64,0,0,.1,0,.09-.12s.2,0,.22-.07.12,0,.14,0a.21.21,0,0,1,.18-.08s.07,0,0,.09.09,0,.15,0,.09.17.19.2a.38.38,0,0,1,0,.27c-.43-.06-.58.34-.34.58,0,.32.07.68.4.57,0,0,0-.13.08-.14M7.73.79h0s0,0,0,0h.05v0M6,3.41a1.81,1.81,0,0,0,.16.8c0,.51.32.67.27,1.23-.11,0-.07.2-.08.23s-.08-.14-.18-.15l0,0h0c0,.11.1.13.12.24-.21.07-.3-.16-.59-.09,0,0-.08,0-.09-.07a.2.2,0,0,0-.13.12.64.64,0,0,0-.32,0c-.11-.09-.19-.21-.35-.24A2.4,2.4,0,0,0,4.3,5c0-.35-.36-.24-.36-.55.1,0,.08-.08.2,0l0,0,0,0c0-.15-.12-.14-.15-.24s.42,0,.4-.24a.36.36,0,0,1,.25,0c.09.05.1.11.21.18s.14.07.16.15,0,0,0,0,.06.23.15.29c0,.24.13.28.26.35s0-.14,0-.23.13-.17.1-.34a1.2,1.2,0,0,1-.28-.51.66.66,0,0,0,.27.08.46.46,0,0,0-.2-.47,1.17,1.17,0,0,0,0-.38S5.26,3,5.26,2.87s.08.07.16.06a.32.32,0,0,0-.13-.42s0-.16,0-.14.07-.06,0-.16-.2-.23-.35-.3.1-.13.17-.19a.79.79,0,0,1,.3.2c.08,0,0-.1.13-.1V1.57a.46.46,0,0,1,.36-.08c0,.06,0,.14-.06.12,0,.15,0,.19,0,.36-.18,0-.22-.09-.4-.06,0,.14.12.13.05.25a.91.91,0,0,1,.3.19c.09.33,0,.83.22,1.06m-.83.73c0-.18-.15-.22-.08-.34a.41.41,0,0,1,.14.31s0,0,0,0-.07,0-.11,0M5.09,2.76s0,.05-.11.05,0-.07.09-.07v0h0V2.67c.07,0,0,0,.12,0v.11c-.07,0-.06,0-.09,0v0h0M4,2.3c0-.09.08,0,.06-.13.24,0,.32-.26.58-.29a.61.61,0,0,1-.23.52c-.09-.08-.31,0-.41-.1M4.56,3c.05,0,.07.11.14.11,0,.22.23.21.22.45-.1,0-.16-.16-.21-.22s0,0-.07,0,0-.12-.07-.15A.44.44,0,0,0,4.11,3a1.14,1.14,0,0,0-.45.67A.54.54,0,0,0,3,3.81v0H3c0,.06.07.08,0,.18S3,3.91,3,3.83l0,0H3c.06-.1,0-.28.12-.34S3,3.36,3,3.27,3.3,3,3.29,2.8c.16,0,.21-.12.26-.23a1.58,1.58,0,0,1,.56-.06c.21,0,.32.25.47.32a.34.34,0,0,0,0,.15m1.68-.42a.25.25,0,0,0,0-.13.14.14,0,0,1,.11,0v.14H6.24m0-1.44H6.14c0-.08.11-.08.11,0M6.18.92c-.07,0,0-.08-.12,0s.22-.13.27,0,.29-.11.34,0c-.18,0-.39,0-.49.09m.37.14c0-.07.18-.11.24-.05s-.17,0-.24.05M3.43,6.5V6.43c.06,0,.12,0,.12.07H3.43m0-.64a.49.49,0,0,0-.19-.07s.15,0,.16,0v0h0A1.53,1.53,0,0,0,3.92,6c0,.09-.13.08-.17.15s.11,0,.14.08a.2.2,0,0,1-.2.1s0-.08,0-.11-.18,0-.22,0,.09,0,.08-.14-.08-.08-.07-.17h0M2.32,7.65s0-.05,0-.07h.07v.07H2.32M1,7V7h.05V7H1m.05-.34c-.15-.14,0-.42.05-.57.13.06,0,.18,0,.3s0,0-.07,0a1.77,1.77,0,0,1,0,.23M1,10.34c-.09,0-.13-.1-.12-.22s.06.1.16.08l0,0A3.55,3.55,0,0,1,.9,9.66c.18.1.21.37.27.6-.12,0-.14.05-.2.08M.67,9.06C.66,9,.72,9,.78,9s0,.15,0,.13c.06.11.18.15.15.34-.14,0-.14-.21-.17-.36s0,0,0,0m-.13,0A.19.19,0,0,1,.4,8.85c.06.05.14.09.14.22M.3,7c0-.16.08.12,0,.1s0-.12,0-.1m0,.91c.33,0,.11-.54.22-.76.08.05.08.09,0,.16s.11,0,.18,0a.61.61,0,0,1,0,.25c-.09,0-.07,0-.13,0a.25.25,0,0,0,0,.38,6.47,6.47,0,0,0,0,.88c0-.07-.15-.07-.27-.06a3,3,0,0,1-.1-.85M.46,7c0-.09.06,0,0-.12S.55,7,.46,7m.26-.61h0s0,0,0,0v0h0c0-.06,0-.08.07-.07a.15.15,0,0,1-.05.07v0h0v.18c-.06,0,0,0-.07-.06H.69a.65.65,0,0,0-.15.3c-.09,0,0-.27,0-.3a.53.53,0,0,1,.11-.48c0,.15-.09.19,0,.28-.09,0,0,.16,0,.15Zm0-.87A.23.23,0,0,1,.85,5.2a.33.33,0,0,1,0,.24s-.07,0-.14,0M1,4.69s0-.15.11-.14,0,.12-.09.14v0l0,0s0,0,0,0A1,1,0,0,0,.86,5V4.86c.07,0,.06-.08.11-.1l0,0v0H1V4.69M1.48,4c-.13,0-.15.2-.26.28l0,0s0,0,0,0c0-.26.14-.35.26-.48Zm0,.84c.05,0,0,.13.08.13-.09.14-.07.38-.23.46,0,.15,0,.31-.1.34v0a.18.18,0,0,0,0,.12s0,0-.07,0v0s0,0,0,0h0l0,0v0c0-.39.24-.58.28-.93m.06-.28c.15,0,.08-.17.22-.16,0,.17-.12.24-.19.36s0-.14,0-.2m.17.9a1.31,1.31,0,0,1,.24.28c.07,0,.09,0,.18,0,0,.15.05.18.08.27-.27,0-.47.13-.72.07,0-.14-.09-.19-.08-.34s.16-.25.21-.41c.06,0,.11,0,.09.11m.41-1.73c.06,0,0,.09,0,.07s0,0,0-.07m.17-1s0,.21-.13.21,0-.07,0-.14.12,0,.11-.07m.09.65a.35.35,0,0,1,.22-.21.76.76,0,0,1-.08.2H2.34m.15.47c.19.19.32.44.5.63H3v0a.49.49,0,0,0,.25.06c0,.06-.07,0,0,.11A4.11,4.11,0,0,0,4,5.13v.09c.16,0,.21.22.41.23a.28.28,0,0,0,.26.22c0,.09.09.14.21.12s0,.09,0,.16a1.44,1.44,0,0,1,.49.3c.19,0,.22.12.39.12,0,.13.05.18.16.18a.36.36,0,0,0-.08.22c-.28,0-.41-.12-.72-.06-.08-.13-.28-.12-.37-.23s-.24,0-.3,0c-.11-.09-.34-.07-.39-.23s0,.06.12,0,0,0,0-.07-.14,0-.1-.18l.3.1c.07,0,0-.07.11,0,0-.12,0-.21.06-.26s-.07,0-.07-.11c-.32.1-.48-.09-.75-.1,0-.06-.06-.08-.07-.14H3.5c-.12,0-.19-.12-.34-.12s-.24-.14-.32-.24c-.31,0-.33-.24-.64-.2,0-.09-.2,0-.28-.1V4.82c.17-.1.48.06.58-.09s.38,0,.57,0c0-.06-.08-.06,0-.16H3v0s-.21.09-.25,0a2.62,2.62,0,0,1-.79.07c0-.13.09-.18.1-.29s-.11-.1-.2-.11,0-.11-.07-.13.09-.06.1-.12S2,4.1,2,4.18c.2,0,.26-.13.26-.32.1,0,.13,0,.24,0M5.37.56A.53.53,0,0,1,5.78.41c0,.1-.19.09-.27.15a.36.36,0,0,1-.08.32l0,0v0h0s0,.1,0,.16c.16,0,.18-.27.31-.13S5.75,1,5.71,1s0,.06,0,.12c.17,0,.2-.07.34-.06,0,.09-.15.06-.24.07s-.24.1-.31.2c-.27,0-.53,0-.58.22-.05,0-.15,0-.16,0l0,0h0c-.16,0-.18.16-.26.24s-.09,0-.07,0a1.23,1.23,0,0,0-.29,0,1,1,0,0,1-.48.29s0,.06-.07,0,0,.13,0,.2c-.17,0-.3.07-.33.22s-.26.05-.31.15,0-.08,0-.12c.19,0,.18-.22.3-.3l0,0v0c-.17,0-.19.14-.29.22a.45.45,0,0,1,.31-.33v.11h0v0c.16,0,.21-.12.35-.15a.45.45,0,0,0,0-.2c-.08,0,0,.08-.09,0a.1.1,0,0,1-.1-.11c-.05,0-.13,0-.13-.06s-.17.2-.33.21a.93.93,0,0,1,.34-.37v0l0,0c0-.15,0-.15,0,0V1.7h0v.11A.65.65,0,0,1,3.58,2c.08,0,.09-.1.08-.2A.36.36,0,0,1,4,1.67c0,.09-.07.05,0,.14a.47.47,0,0,0,.44-.26l.34,0h.07s.11-.06.08-.16h0v0a.28.28,0,0,1-.14,0v0h0c-.12,0-.11.16-.29.13,0,0,0-.12.06-.12s-.06,0,0-.06c-.24,0-.43,0-.49.19s-.19,0-.2.15-.15,0-.2,0,.06-.12.08-.2c.21,0,.27-.16.49-.16S4.34,1,4.3.8c.09,0,.07.1.07.18h.09c.08,0,0-.12,0-.18s.26.16.37,0,0,.1.09.07c-.07.13-.24.17-.4.21s0,.13.1.16l0,0a3,3,0,0,1,.36-.14c0,.11-.13.09-.15.18l0,0v0a.85.85,0,0,0,.51-.25.2.2,0,0,0-.14,0c0-.06.11-.07.13-.14l0,0v0H5.12c0-.18.26-.1.3-.24s0-.11,0-.09M6,.38c0-.07.14-.07.11,0H6M7.1.3a.24.24,0,0,1,.23,0c0,.12-.17,0-.23,0m.48,0c0,.17.19.06.21.17-.14,0-.21.06-.38.08,0,.1.09.11.14.15s-.14,0-.2.08,0,0,0,.07.08,0,.07.11A.16.16,0,0,1,7.56.93c0,.09.07,0,.05.14C7.42,1.12,7.36,1,7.15,1c0-.06.1-.11,0-.16s-.15,0-.25,0,0,0,0,0,.42,0,.49-.13c-.22-.21-.66,0-1-.08C6.28.65,6.1.64,6,.72c-.11-.1-.2,0-.34,0,0-.25.37-.12.46-.26a.53.53,0,0,0,.52,0l.65,0c.08,0,.11-.1.25-.07m.21,1.34c.07,0,0-.06.08-.07s.09.2.19.24,0,.28-.05.3,0,.24-.06.25C7.91,2.24,8,2,7.8,2a2.44,2.44,0,0,1,0-.27m.48.37a1.14,1.14,0,0,0-.11-.56s-.07,0-.11,0c.09-.17.37,0,.52,0l0,0,0,0c0-.09-.12,0-.1-.11s.07-.07.11-.09,0,.09.05.13h.12s.05-.07.06-.12,0,.17,0,.25H8.79l0,0,0,0c.11,0,.26,0,.24.19-.22,0-.4.16-.33.38.09,0,.11,0,.2,0,0,.22-.36.19-.46.35-.12,0,0-.29-.15-.33M9,2c-.07-.08.07-.16.17-.17S9.09,2,9,2M8.91,1H8.84V1s0,0,.07,0V1M8.41.86H8.34V.79h.07V.86m-.24.25c0-.06.15-.07.11,0H8.17m0-.74c0-.07.1-.07.07,0H8.21m1,.46s.07,0,.06,0H9.25v0H9.2l0,0c-.06,0-.17.05,0,0L8.52.7S8.44.65,8.4.63a.61.61,0,0,1-.24,0C8.09.63,8,.57,7.93.58V.51c.17,0,.35,0,.41.08a1.36,1.36,0,0,1,.85.22l-.06,0h.13M9.18,1c.2.12.48.13.62.3-.15,0-.27,0-.29-.13-.19,0-.25-.1-.39-.12s0,0,.06-.05m.22.31c.06,0,.12,0,.11.06H9.4V1.34m.71-.21c0,.08.16,0,.16.11h-.13c0-.06,0-.05,0-.12m.19.92c0,.12.09.16.08.29L10,2.6c-.09,0-.06-.18-.23-.12a.32.32,0,0,0,0,.22s0,.07,0,0-.05,0-.06.09a.9.9,0,0,1-.06.25s0,0,0,0,0,.1,0,.14,0,0-.05,0,0,.07-.06.07v.14a.43.43,0,0,0-.15.25c-.05,0,0,0-.11,0s0,.07,0,.13c-.19.08-.18.33-.37.4,0,.08,0,.11,0,.2a.94.94,0,0,0-.25.42c-.17,0-.22.11-.34.15s0-.13,0-.18-.09.06-.11.12,0-.07-.05-.12c-.22-.09-.09-.34,0-.51s-.07,0,0-.09.07-.15.17-.17-.06-.17-.14-.19a.86.86,0,0,1,0-.41h.11c0-.14.29-.1.31-.26h.14a.52.52,0,0,1,.05.27c-.05,0-.11.19,0,.25s.12-.15.21-.19c0-.36.3-.47.31-.83h.23a.17.17,0,0,0-.07-.16c0-.22.15-.28.16-.48.09,0,.13,0,.2,0A.53.53,0,0,1,9.85,2a.49.49,0,0,0,.45.09m.59-.18c0,.08-.07,0-.12,0s-.07,0-.07-.13l.19.08m0-.22s.09,0,.07,0,0,0-.07,0m0,.94a.41.41,0,0,0,.26.2,3.19,3.19,0,0,0,.31.33c0,.15.1.17.14.26s-.15.09-.15.21.18.32.15.47-.07-.15-.07-.2-.06-.14-.08-.18-.18-.13-.3-.24h-.25s0-.16-.12-.17c0-.23-.13-.24-.21-.34s-.29.1-.5.09a1.11,1.11,0,0,1,.46-.45,2.07,2.07,0,0,1,.36,0m4.34,4.29c0,.1-.17.06-.25.1s-.13.11-.2.14h-.18c-.05,0-.08.07-.18,0a1.58,1.58,0,0,0-.61-.11c0-.1-.1-.1-.18-.13a.48.48,0,0,0-.22-.4.32.32,0,0,0-.1-.26,1.24,1.24,0,0,0-.14-.77c0-.39-.25-.59-.33-.93-.06,0,0-.13-.12-.11,0-.3-.24-.36-.29-.62s-.19-.31-.31-.44.06-.05.07-.09a.49.49,0,0,1,0-.12c-.16-.19-.27-.45-.54-.52a.23.23,0,0,0-.28-.19l0,0s0,0,0,.06-.12-.06-.14-.13a.3.3,0,0,1,.14.06l0,0s0,0-.06-.24c.27,0,.26.41.56.3,0-.13-.12-.19-.15-.31s-.23,0-.21-.15c.21,0,.33.32.51.23a0,0,0,0,0,0,0h0s0,0,0,0,.34.09.35.28c.06,0,.06.1.14.08.07.23.28.3.36.51.07,0,.1.12.19.15s.18.18.17.37.16.22.26.31,0,.16,0,.25,0,0,.05,0,.09.36.21.44a.36.36,0,0,0,.15.31c0,.12,0,.23.08.27s0,.26.08.31c0,.4.12.66.13,1,0,0,0,.07.07.09a.64.64,0,0,0,.47-.07.53.53,0,0,0,0-.18c0-.17-.23-.1-.33-.24a.58.58,0,0,1,.19-.32c.2,0,.29,0,.46,0,0,.14.13.14.16.25a.84.84,0,0,1,0,.43c0,.07,0,.24.06.24m-1.1,4.67v-.07c.05,0,0,0,.07,0s0,0-.07,0m.62-1c0,.1,0,.13,0,.18a.16.16,0,0,1-.07-.18h.11m.51-1.53c.12,0,.13,0,.18.08s.21,0,.27,0a.45.45,0,0,1,0,.11c.16,0,.27,0,.4,0v0l0,0c0-.07-.06,0-.07-.09h0V9a.38.38,0,0,0-.25,0V9c-.05,0,0-.17,0-.18s.11.08.23.06V9h0V9c.05,0,.14,0,.14.11h-.07l0,0,0,0v0c0,.08-.11,0-.13.12-.26-.19-.35.26-.1.3a.47.47,0,0,0,.13.38c0,.1-.22.09-.26.21v0h0a.75.75,0,0,1,.21.67.62.62,0,0,0-.27.26c-.21,0-.28.2-.51.22a.79.79,0,0,1-.56.16c0-.08,0-.1.07-.14v-.09c-.08,0,0-.25-.12-.31h-.07c0,.05-.15,0-.2,0s-.07-.26.1-.28c0-.14,0-.26,0-.38h0s0,0-.13.34c-.07,0-.08,0-.14,0v-.05c-.05-.06,0-.05.07-.09s0-.1,0-.13,0,0,0,0,0-.2,0-.29c.25.1.12.24.12.24h0l0,0c.11,0,0-.19.2-.16a.65.65,0,0,1,0,.4c0,.06-.08.07-.09.1s0,.08,0,.11l0,0c0,.11.05.11.07.16h0l0,0c.08,0,0-.1.13-.07s.07.06.05.15h.12c.06,0,0-.1,0-.16s.1-.35,0-.38.1-.06.13-.1,0-.08,0-.11l.06-.07c0-.24-.08-.59,0-.77S15,9.44,15,9.33s.1.22.19.29a3.46,3.46,0,0,0,.19.74c.12-.07.31,0,.38-.09v0h0c0-.15-.06-.18-.12-.24s-.07.08-.16.07a.17.17,0,0,1,0-.13.09.09,0,0,0,.11,0c.21-.37-.17-.62-.26-.94m.63-.7c-.09,0,0-.06-.11,0s0-.09.1-.07a.14.14,0,0,1,0,.11m-.11.16h0v.07h0V8.51m-.36,0c0-.08.25-.09.23,0-.12-.06-.12,0-.23,0m2.08-.67c0-.08.06-.07.13-.07s0,.09-.13.07m.16.63c.08.09.09.25.28.24,0,.23.23.27.31.46a.57.57,0,0,1,.31.06c0,.25.13.3.16.49h-.25c-.08,0-.07.15-.08.25l0,0v0h.05c.05.05.05.15.14.16a.64.64,0,0,1-.05.38c-.2.07-.27.26-.49.31s-.35.21-.44.4c-.16,0-.19.1-.33.11s-.29-.24-.53-.26a.43.43,0,0,0-.34-.14c-.14-.19-.44-.34-.28-.65.1,0,.09.13.17.16-.06.3.16.32.24.48a.21.21,0,0,1,.25.13c0-.06.15-.05.16-.14s.08,0,.16,0,0-.13,0-.2,0,.07.14,0l0,0h0s0-.09,0-.09,0,0,.07,0,.22-.13.28-.24a.57.57,0,0,1-.08-.31s0,0,.07,0l0,0h0c0-.37-.17-.65-.48-.72,0-.1-.06-.2-.17-.2,0-.16-.12-.13-.14-.24h-.27c-.09-.08-.14-.19-.3-.2s0,.15,0,.12c-.09.05-.2-.08-.26-.13s.09,0,.14-.05,0-.28-.11-.29c.07-.16-.09-.15-.07-.31-.14-.12-.44-.06-.6-.16.09-.12.29,0,.43-.06a.28.28,0,0,1,.09-.1c-.2-.11-.69.08-.8-.13.15-.1.34-.06.56-.11v0h0c0-.06,0-.08.07-.07s.19.12.28.17,0,.3.08.38,0,.17,0,.16c.08,0,0,.18.07.24a.53.53,0,0,0,.39.15.65.65,0,0,0,.37.21,1.34,1.34,0,0,0,.33.3.14.14,0,0,0,0,.12c.07,0,.1.08.18.1.11.28.43.33.52.64.05,0,.14.12.21.06v0l0,0c-.08,0-.05-.19-.06-.29A1.41,1.41,0,0,0,17.8,9a.57.57,0,0,0-.49-.45V8.5c.15,0,.24,0,.39,0m-1,1c-.1,0-.15-.13-.28-.14V9.23h.11c0,.15.17.12.17.26m-.12.35s0-.08,0-.14.15,0,.14.13h-.11m.25,0a.23.23,0,0,0-.08-.2c.08-.05.16.1.3.06v.22c.07.19.33.17.34.42,0,0,0,0-.07,0-.22-.11-.2-.49-.49-.52m.29.64c-.1,0-.13-.06-.12-.17s.13.06.12.17M22.8,8.62c0,.08-.09,0-.13.05s.08-.12.13-.05m-.14.32V8.87h.07v.07h-.06m.12-3.87v.07h-.07V5.08h.06m.35.1h-.07V5.11h.06Zm.34,2.07a.23.23,0,0,0,.08.11,6.45,6.45,0,0,0-.12.66h0c.09.07,0,.35.11.4-.06.05,0,.19-.11.21s0-.06,0-.09-.08,0-.05-.11a.24.24,0,0,0-.2.05c0-.07-.1,0-.16-.06h0c-.07.07-.21,0-.3,0a.58.58,0,0,0,0-.32,2.8,2.8,0,0,0,.28.06c0,.11,0,.11,0,.2h0c.19,0,.38,0,.26-.21h-.2c0-.09.22-.06.27-.15l0,0h0c0-.13-.22,0-.28-.1s.08-.06.07-.14a.28.28,0,0,0-.25-.06c-.06,0-.05.11,0,.18a.66.66,0,0,0-.26-.15c0-.09.1-.2,0-.38.11,0,.08-.08.18-.05v0h0c0-.09-.19,0-.27,0,0-.17-.06-.52,0-.66-.1-.26.06-.68-.12-.83,0-.08,0-.11,0-.18s-.12,0-.2,0l0,0h0c0,.06-.05.06-.11.07V5.55h.11l0,0h0s0,0,0-.09.07.08.16.06.13-.18.31-.17a.86.86,0,0,0,.14.13.57.57,0,0,1,.54,0c-.05.17.07.4-.05.53s.05.06.05.13a5.93,5.93,0,0,0,0,1.13m.39.77c0,.05,0,.08-.06.07V8h.06m.36.44a.2.2,0,0,0,0-.07h.05v.07h0M24.76,8c.16,0,.43-.08.44.1-.27-.08-.52.05-.84.05,0,0-.12.08-.15.14a.64.64,0,0,0-.2,0c0-.12.23-.09.26-.22h0l0,0c-.11,0-.08.08-.2.05s.18-.12.17-.27c.11,0,.22.06.27,0,.08.11-.08.1-.11.18l0,0V8a1.84,1.84,0,0,1,.4-.06m.55-.56c0,.12,0,.08,0,.18s-.08,0-.14,0,.06-.11.11-.14m-.24.39c0-.08.31-.07.34,0s-.25,0-.34,0m.46.05c0-.06,0-.07.08-.07a.28.28,0,0,1,0,.09c-.05,0-.06,0-.09,0m.26-.28s0,.09.07.07-.07,0,0,.09-.1-.1-.21-.08.1-.07.18-.08m0,.3s.06,0,.07,0l0,0v0A.1.1,0,0,1,26,8c0,.07-.07,0,0,.09s-.08,0-.07-.11h0v0c-.05,0-.05,0-.07,0m.2-2V6c-.06,0-.06,0-.11,0s.05-.06.11-.07M26,7c.08,0,.07.13,0,.09S26,7,26,7m.61,1.76c-.11,0-.1-.19-.1-.34s.08,0,.18,0c-.08.09,0,.16.07.21s-.08.08-.11.13l0,0h0s.09,0,.1.09l0,0,0,0s.05,0,.05,0,0,.1,0,.07v0h0l0,0c-.07,0-.09,0-.14,0V8.73m.19-1.52c.05.07.12.11.12.22a.17.17,0,0,1-.11.11,1.52,1.52,0,0,1,0,.37c-.05,0-.14,0-.14.11h0v0s0,0,.07,0,0,.11,0,.14a.51.51,0,0,0-.25-.06V8.1c.05,0,.16,0,.14,0h0c0-.06-.1,0-.14-.09s.07,0,0-.09v0h0c0-.09-.07-.11-.09-.18s0-.3-.06-.27.06-.09.07-.16c-.11-.3.09-.64,0-.88s0-.24,0-.27-.07-.08-.05-.18.11-.09.2-.1-.1,0-.08-.13a.4.4,0,0,1,.25-.15s-.11-.06,0-.11,0,.24,0,.36a1.09,1.09,0,0,0,.09.43c-.12.11,0,.35,0,.52s-.06.34-.05.5M27,9s.06,0,.11.06V4.58a.75.75,0,0,0-.13.25.27.27,0,0,1,0,.21c-.22.09-.57-.07-.69.11.17.67-.6.45-.79.78l0,0V6l.16.09s0,.18.07.2a1.39,1.39,0,0,0-.1.39l.14.06a1.19,1.19,0,0,1-.1.32s0-.06-.07,0-.19,0-.18.09.3,0,.37.12a.11.11,0,0,1,0,.1,3.21,3.21,0,0,0-.93,0c0,.15.14.11.21.15s0,.1-.09.1c-.29-.17-.72,0-1,.12,0,0,0,.12,0,.14h-.09a1,1,0,0,1,0-.27s-.11,0-.11,0,0,0,0-.12.2,0,.2-.07a.83.83,0,0,0-.16-.09c0-.23,0-.48,0-.74a3.82,3.82,0,0,1,.05-1c.15,0,.19.08.35.06a.5.5,0,0,0,.52.25v0l0,0c-.12-.09-.3-.11-.37-.25a.81.81,0,0,1-.46-.35s0-.09,0-.13l-.14-.13a5.5,5.5,0,0,0-1.29-.07c-.11.2-.35.3-.5.47a3.55,3.55,0,0,0-.78.12c-.1-.12-.3-.08-.48,0s-.15.14-.12.32a.61.61,0,0,1,.27.12.72.72,0,0,1,.67-.22c0,.13.16.12.28.14s.11.32.26.38.12-.18.24-.21-.1,0-.07-.14h.11a2.11,2.11,0,0,1,.12.67h-.21c0,.09.09.09.12.15a.44.44,0,0,0,.1.25c0,.2-.2.4-.42.26a.24.24,0,0,0-.12-.26.21.21,0,0,0,.06-.16l-.21-.09s.07-.08,0-.18c-.24-.07-.36.11-.6.09a.47.47,0,0,0,0,.18c-.2,0-.21.23-.3.37a6.76,6.76,0,0,1-.71.16.24.24,0,0,0-.21-.08c-.08.14,0,.4-.12.55-.1-.07-.31,0-.45,0,0-.15-.1-.18-.14-.27s0-.2-.06-.18a.3.3,0,0,0,0,.36c-.08,0,0,.22-.15.23a.49.49,0,0,1-.12-.31.78.78,0,0,0-.53-.14.21.21,0,0,0-.2,0c-.06.24.08.67-.09.8A.19.19,0,0,1,18,8c0-.18-.11-.2-.15-.31-.23,0-.38,0-.41-.23a.64.64,0,0,0-.28,0c0,.18.21.31,0,.42.1.1,0,.28,0,.39s-.11,0-.11,0-.08-.35-.22-.42c0,0,.12,0,.09-.14s-.2-.06-.3-.1.13-.09.13-.21c-.18,0-.34.08-.39-.07a.56.56,0,0,0,.06-.23h0l0,0c-.08,0,0,.11-.11.14S16,7.31,16,7.4a1.22,1.22,0,0,1-.73-.2s.07-.12.13-.16,0-.13,0-.16c.19-.1.12-.43.14-.68a3.75,3.75,0,0,0,.72-.07c.07.09.31,0,.38.1a.33.33,0,0,0,.21-.06,3,3,0,0,0,.36.17c.23,0,.51,0,.68.11h.23c0,.17.26.14.28.33h0v0c.11,0,.1-.22.21-.28s.22,0,.18-.14-.16,0-.18,0,.11,0,.13-.09.05,0,.09,0c.2-.14.55-.13.71-.3s-.07-.11,0-.13a.34.34,0,0,0,.18,0c0-.05,0-.17,0-.25h0v0a.48.48,0,0,1-.41-.08s.07-.16,0-.15,0,.08-.06.07c-.27.07-.39.28-.58.42a.48.48,0,0,0-.27-.21c0-.15.25-.1.26-.26s-.05-.07-.05-.13a.19.19,0,0,0,.1-.28.69.69,0,0,0-.32,0,2.15,2.15,0,0,1-.94.65c0-.29.23-.33.32-.53s-.13,0-.21,0a.21.21,0,0,0-.18-.13c-.06,0-.08.06-.14.07A.37.37,0,0,0,17,4.79a3.18,3.18,0,0,0-.59.5c-.09,0-.16.06-.2,0s.2-.17.26-.3a1.58,1.58,0,0,1-.12-.15c.05,0,.05,0,.06,0s0,0,.05,0,0-.13,0-.15,0,0,0,0,0-.27.05-.38c-.2,0-.18.28-.32.35A.16.16,0,0,0,16,4.51c-.27.18-.36.51-.75.57,0,0,0-.15,0-.23s-.08-.07-.14-.08h0c-.07,0-.14,0-.18,0,.11-.08,0-.3.1-.41s-.08,0,0-.09S15,4,14.91,4s0-.19-.14-.17c0,.21.15.5,0,.67a.63.63,0,0,1-.08.41h-.18c0,.1-.11.09-.06.23-.09,0-.09.08-.15.11a1.88,1.88,0,0,1,0,.48c-.13,0-.15-.11-.17-.22s.12-.21.1-.39c-.08,0-.07-.07-.18,0-.13-.13-.07-.25-.11-.44s-.21-.47-.34-.69l.07-.07c0-.08,0-.15,0-.23s0-.1.09-.11.06-.09.15-.08c.09-.24.36-.3.5-.49.19,0,.38,0,.46.16a1,1,0,0,1,.32.08s0,.1.07.11.1,0,.14,0,0,.06,0,.07.14,0,.19.08,0,.16.07.2-.06.12-.18.1,0,.12-.06.18.1,0,.12.07-.07.07,0,.15.22,0,.4,0,.14-.15.1-.32a.26.26,0,0,0,.15-.3c.07,0,.08-.14.15-.18a.32.32,0,0,0,.2-.15.35.35,0,0,1,.16,0c0-.11.17-.11.29-.14s.16-.14.24-.21-.1,0-.07-.11-.17,0-.23,0-.05.07-.07.07-.13,0-.17.06a1.17,1.17,0,0,1-.38.08c0,.08-.12.1-.16.14s0,0-.06,0-.14.23-.26.26c-.2-.13-.33-.34-.61-.38a.88.88,0,0,0-.55-.25c0-.12-.16,0-.27,0A.5.5,0,0,1,14,3c-.13.27-.45.37-.45.77-.07,0,0,.09-.11.07s0-.13,0-.23c-.19-.18-.29-.46-.47-.66,0-.07,0-.06,0-.13a1,1,0,0,1-.28-.33A1,1,0,0,1,12.24,2c-.08,0-.16-.1-.18-.2s-.16-.13-.24-.2-.08,0-.11,0,0-.09-.07-.11-.07,0-.09,0a.73.73,0,0,1-.14-.18c-.36-.12-.58-.38-1-.46A.87.87,0,0,0,10,.64c-.09-.15-.3-.18-.42-.3A3.1,3.1,0,0,1,8.84.16c-.12,0-.24,0-.34,0A3.77,3.77,0,0,1,7.79,0c-.09.12-.33,0-.38,0A11.65,11.65,0,0,0,6.1.06s0,.06-.06.05a4.77,4.77,0,0,0-.81.12c-.08.14-.32.13-.52.15A7.33,7.33,0,0,0,3.61,1H3.5a2.79,2.79,0,0,1-.66.46.61.61,0,0,1-.33.28c-.08.23-.28.34-.46.47a.87.87,0,0,1-.39.37c-.06.21-.26.29-.28.53a1.37,1.37,0,0,0-.51.79.35.35,0,0,0-.12.32c-.07,0-.06.09-.14.09,0,.21-.17.27-.11.53-.08,0,0,.07-.07.07h0a3,3,0,0,1-.1.43c0,.15-.09.3-.14.44l0,.28L0,7.18a1,1,0,0,1,0,.18l.09,1L.38,9.49l.37,1c.12.06.16.19.26.27a.47.47,0,0,0,.2.53c0,.07,0,.07,0,.14a1.42,1.42,0,0,1,.43.64c.14,0,.16.14.21.19s.25.14.28.29c.25.09.34.37.6.45.13.24.44.27.58.5.38.08.59.35,1,.44,0,.1.09,0,.07.13.63,0,.87.44,1.57.37,0,.09.15.06.25.06s.23,0,.34,0,0,0,.07.05c.48,0,1-.05,1.53-.06.1-.08.32-.06.47-.08s.36-.08.45-.13.17-.05.2-.08.16,0,.25,0c.32-.18.72-.3,1-.49s.57-.42.95-.53a2.67,2.67,0,0,1,.24-.32.75.75,0,0,0,.42-.36h-.05l0,0a.2.2,0,0,1-.26-.1c-.21,0-.21.12-.28.19s-.15,0-.22.1-.11.12-.22.14,0-.09,0-.11-.08,0-.05-.11-.17,0-.16.14-.18.07-.31.08.1,0,.06-.14h0v0a.71.71,0,0,0-.4.22l0,0v0c.09,0,.15-.06.2,0s-.09.09-.13.14.05.07.07.11a.38.38,0,0,1,.22-.07,1.15,1.15,0,0,1,.22-.22c.07,0,0,.1,0,.14a.22.22,0,0,0-.18.14.38.38,0,0,0-.26.17h-.14c-.16.15-.45.18-.6.34a1.49,1.49,0,0,0-.49.16c-.12,0-.24,0-.29.07-.21,0-.35,0-.37.2s.15.07.21.13l0,0s0,0,.1,0,0,.08-.07,0l0,0h0a.19.19,0,0,0-.14.07l-.2-.06c0-.08.13,0,.08-.16s-.19,0-.21-.11.38-.07.47-.19h.16s.05-.07.09-.09c-.13-.17-.38.05-.59,0,0-.1.21,0,.2-.14l0,0v0a2.72,2.72,0,0,0-.42,0c-.08,0,0,.12,0,.2a1.62,1.62,0,0,0-.47.13s.06,0,.07.09a.53.53,0,0,1,.34,0c0,.11-.15.07-.22.08H7.59s0,0-.07-.05c-.19,0-.41.05-.59,0A.14.14,0,0,1,7,14c0-.09-.1,0-.11-.09s.07-.09.1-.14-.35-.12-.43,0l0,0,0,0c0,.06.19,0,.21,0s-.28,0-.43,0-.13-.11-.2,0v0h0c.08.12.32.07.39.19s.23,0,.28,0c-.1.15-.37-.1-.48.06H6.09v0h0s0,0,0,.11H5.92a.16.16,0,0,1,0-.14h0v0H5.73c0-.09-.07-.12-.14-.15v0h0v0c-.42.07-.49-.23-.87-.2,0,0,0-.06,0-.13s.13.08.27,0l0,0,0,0a.52.52,0,0,0-.42-.19.58.58,0,0,1-.1.27v0h0c0,.07-.08,0,0,.11H4.16c0-.07,0-.07,0-.14-.22,0-.27-.11-.46-.12,0-.11-.07-.17-.1-.26s.15,0,.16-.08a.53.53,0,0,1-.18-.51c.1,0,.12.09.23,0a.15.15,0,0,0-.15-.18c0-.12-.12-.1-.14-.19s-.14-.08-.27-.06,0,.12,0,.11-.09-.11-.23-.06c0-.17-.22-.22-.28-.37H2.54c0-.2-.15-.19-.17-.35h.09v0h0v-.13c-.15,0-.14-.24-.32-.24s0,.15,0,.23-.1-.1-.2-.09c0,.17.16.3.26.4-.17.06-.27-.2-.35-.28s-.16-.08-.14-.22.09,0,.16,0S1.85,11,1.9,11H2a.21.21,0,0,0,0-.14,1.62,1.62,0,0,1-.31-.51s-.07,0-.11,0,0-.27-.15-.31l0,0h0c0,.11.09.1.07.22a.87.87,0,0,1-.29-.58c.1,0,.05.17.19.13a.44.44,0,0,0-.06-.36,1.52,1.52,0,0,0-.23-.69.7.7,0,0,0,.06-.23l0,0v0C1,8.44.94,8.35.89,8.26l0,0h0c-.15,0-.1-.3-.08-.38s0,.11.07.18l0,0,0,0s0,0,0,0c0-.19-.06-.52,0-.68.09.07,0,.28.06.41s0,.06,0,.16.08.29.08.47l0,0v0c.07.09.28,0,.39.06s0,0,0,0,.32,0,.47,0,0,0,.05.06S2,8.72,2,8.74c0,.23-.28.24-.21.55a.34.34,0,0,1-.24.06l0,0h0c.06.08,0,.25.15.27,0,.25.08.45.26.53A.83.83,0,0,1,1.93,10a1.17,1.17,0,0,1,.48.12s0,0,0-.07a2,2,0,0,1,.21.1c-.08.2-.24.32-.32.51-.07,0-.1,0-.18,0s0,.11.07.16l0,0s.14,0,.14,0-.09,0-.13.05v0h0c0,.19.2.29.27.44s0-.07.13-.05.08.1.07.2A.36.36,0,0,0,3,11.37a.25.25,0,0,0-.26-.15c.07-.11.06-.34-.08-.36,0-.23.1-.32.1-.52.05,0,.12-.1.06-.14a.91.91,0,0,1,.55.16c0,.12-.25.05-.27.17s.08,0,.1.06.06.1,0,.18.13.14.21.2,0,.25,0,.38.31.15.55.09c0-.14.14-.22.21-.34s.19-.14.33-.17v-.11c.17,0,.15-.15.24-.22s-.1-.07-.21-.06,0-.08,0-.16c-.23,0-.46.24-.28.4,0,.08-.07.15-.17.16s.08-.1,0-.18a1,1,0,0,0-.35.15c-.06,0-.07.14-.15.14.13-.11-.07-.47.18-.5,0,.1-.08.14-.06.27h.09s.05-.06,0-.12c.17,0,.12-.13.29-.1l.09-.16c0-.09-.1-.1-.21-.08s-.06-.09-.07-.16-.16.07-.25.1a.24.24,0,0,1,.11-.16c0-.06-.08,0,0-.13s-.08,0-.16,0A.68.68,0,0,0,4,9.55c.16,0,.3,0,.26-.23s.12-.14.13-.26l0,0V9h0a.52.52,0,0,1-.45.22c0,.08-.13.07-.24.07v0h0c-.08.1-.12.23-.23.3h0l0,0h0c-.06.11-.2-.05-.28-.06a.71.71,0,0,1-.33.12c0-.12.16-.09.2-.18.38,0,.45-.21.75-.24h.05c0-.11.18-.16.14-.36.12-.11.36-.09.4-.27a.71.71,0,0,0,.31-.19c-.34-.07-.5.22-.85.21-.13.12-.31.31-.53.27.07-.08.19-.09.33-.15s0-.12,0-.2H3.34s0,0,0,.07-.19,0-.22.08c-.33-.05-.34.19-.63.18A.19.19,0,0,1,2.27,9c0-.08.1,0,.09-.12a.45.45,0,0,0-.21-.15A1.16,1.16,0,0,1,3,8.62c.16-.23.67-.06.8-.35a.27.27,0,0,0,.36-.08c.14,0,.39,0,.43-.08l0,0V8H4.47s.11,0,.09-.14-.11,0-.12-.06c-.2.13-.64,0-.76.23a2.58,2.58,0,0,0-.89.15s0-.05,0-.05v0h0c-.33.12-.9.21-1.15,0a.55.55,0,0,0-.13-.33c0-.19,0-.35-.15-.38,0-.24-.09-.33-.09-.56.06,0,.19-.15.07-.18.11-.15.33-.21.29-.51.27,0,.34.17.62.14,0,.09.12.06.09.17s0-.07-.15,0-.29.11-.4.19,0,.14,0,.16.19.13.21.28.08,0,.12.05a1.18,1.18,0,0,1-.33.48.53.53,0,0,0,0,.23C1.81,8,2,8,2,8.11c.22,0,.44.06.68.07v0h0c.08,0,.13-.1.2-.14S2.78,8,2.71,8,2.44,8,2.33,8s0-.07,0-.11.23-.08.36-.1.16-.12.17-.23c-.16,0-.26-.08-.43-.08a1.62,1.62,0,0,0,0-.22c.13,0,.19,0,.2-.15h.25c.34-.21.67.07,1.08.05a.94.94,0,0,0,.52,0c0-.24-.38-.15-.5-.3-.16,0-.22.09-.39.09,0-.06,0-.13,0-.16a.61.61,0,0,1-.48-.16c.07-.08.13,0,.18.06a1.15,1.15,0,0,1,.32,0s0,0,0,0,.16,0,.21,0,0,0,0,0,.16,0,.22,0,0,0,0,.05.23,0,.22.06.19-.09.22-.19,0,.07.09,0a1.41,1.41,0,0,1,0,.2c.43-.08.54.18.87.2.06.07.11.17.23.19v.25c-.14,0-.29,0-.41,0s0,0,0,0-.35.09-.4.15v0h0c0,.18.33.06.37.23S5.43,8,5.56,8s0-.07,0-.13a.58.58,0,0,1,.34.05C5.89,8,6,8,6,8.19s-.12.13-.2.19,0,.1,0,.16a.3.3,0,0,0,.25-.08c0,.06,0,.09,0,.11s.11-.08.17-.12.23,0,.32.06c-.07.15-.29,0-.43.08s-.1.17-.21.21a.31.31,0,0,0,0,.25c0,.1-.08.14-.06.27H6l0,0h.07a3.75,3.75,0,0,1,.45-.65c.07,0,.07,0,.13,0,0,.14-.09.15-.12.23s0,.26.08.31c-.09.13,0,.4-.1.55s.09.08.12.13c.11-.11.26-.19.33-.33-.1-.12,0-.32,0-.5S6.85,9,6.83,8.93s.25-.11.38-.11,0-.09.13-.07a.18.18,0,0,0,.1.27c0,.2.07.28.13.42s0,.05,0,.07a.57.57,0,0,1,.06.36c.09.06.08.24.19.29s0,0,.09,0,0-.39,0-.58a1.33,1.33,0,0,1-.15-.81c.06,0,.07,0,.14,0s0,0,0,0a5.55,5.55,0,0,1,.24.56s0,.05,0,0v.05l0,0v0c.16.23.3.49.48.7h.16c0-.15,0-.24-.15-.27C8.6,9.5,8.3,9.38,8.23,9c-.07,0,0-.08-.07-.13s-.11-.08-.07-.18.08-.11.17-.12.11.12.17.18.14,0,.15,0a.17.17,0,0,1,.12.11c.31,0,.38.35.63.47,0,.1.08.1.09.18.24,0,.25.25.47.27,0,.1.08.14.09.22s.06,0,.12,0c0,.29.13.34.18.53.08,0,.09.07.2,0s0,.17.08.2-.11-.12-.23,0,0-.06,0-.07-.12-.12-.17-.19a1.23,1.23,0,0,1-.5-.32.42.42,0,0,0-.25.12c-.1-.07-.25-.08-.32-.17s-.09.08-.06.18-.13-.1-.28-.06c0,0,.05,0,.05,0a.64.64,0,0,0,.25.49c0,.17.13.36.26.35l0,0h0s.07,0,.07,0h0v0a1.18,1.18,0,0,1,.33.48c-.05,0-.05,0-.11,0-.05-.18-.24-.21-.25-.44h0v0s0,0,0-.05l0,0h0s0,.11-.05.09c.09.08.09.24.2.29s-.08.05,0,.13.13.33.41.26c0,.1,0,.13,0,.23.18.06.35.13.37.37-.16.17-.43.23-.59.4.37.06.6-.19.82-.34.17,0,.28,0,.24-.22-.08,0-.09.08-.2.06s.16-.09.17-.19.09,0,.16,0,.12.05.16.08.07-.12,0-.13a.32.32,0,0,1,.2-.1c0-.11,0-.16.13-.14s0-.1,0-.18.07.06.15,0a1.67,1.67,0,0,0,.5-.56c0-.07-.08,0-.05-.11s.13,0,.21,0a.74.74,0,0,0,0-.18c-.14,0-.14.08-.27.05a.71.71,0,0,1-.08-.31c-.06-.11-.22-.11-.22-.29a1.21,1.21,0,0,0,.7-.16.21.21,0,0,1,.14.07c0,.06,0,.09-.07.09s-.06.15-.06.14,0,.16-.06.18.07,0,.05.09a.93.93,0,0,0,.51-.77c.06,0,.08,0,.13-.07s0-.2.09-.23c0-.19.16-.18.12-.38.09,0,.05-.19.12-.24s0-.14,0-.2.11-.2.12-.25,0-.26.1-.37a.44.44,0,0,1-.07-.17,2.51,2.51,0,0,0,.34-.49c.07,0,.08,0,.16,0s0-.05,0-.07.17-.1.27-.14a2.5,2.5,0,0,0,1,.3c0,.16,0,.28.17.26a1,1,0,0,0-.07.55c-.09,0,0,.08-.11.07v.27a.18.18,0,0,1-.11,0c0,.08-.15,0-.16.12s-.24,0-.29.07A.33.33,0,0,0,14.35,9c-.06-.29,0-.64.32-.63.06-.3-.2-.27-.33-.37h-.07c-.09,0-.14.1-.22.14a.4.4,0,0,1-.15.27,3.67,3.67,0,0,0,0,.52S14,9,14,9a.53.53,0,0,1,0,.13s0,0-.05,0,0,.14,0,.18,0,0,0,0,0,.18,0,.27-.11.28-.24.35,0,.27-.12.3a.52.52,0,0,1,0,.18c-.08,0-.07-.07-.14-.06s-.14.17-.17.3l0,0,0,0c.08,0,0-.11.13-.09a.33.33,0,0,1-.17.23v-.07h0l0,0c-.18,0-.16.27-.35.31,0-.07,0-.07,0-.14h0l0,0c-.07,0-.15.09-.15.21s.08.07.16.06a.49.49,0,0,1-.13.28s.06.09.12.1-.11.17-.17.26-.11-.11-.25-.06v0l0,0s0,.06-.07.09,0-.11,0-.09l0,0h0v-.16c-.17,0-.16.16-.31.17a.11.11,0,0,0,0,.12l0,0v0c.05,0,.14,0,.12,0s0,.07.09,0c-.1.1-.16.24-.26.34a.6.6,0,0,0,.19.16v0h0l0,0s0-.06,0-.07,0,.07.09,0,.15-.11.15-.25c.2,0,.2-.28.37-.35,0-.07,0-.07,0-.14s.1-.16.19-.21.07,0,.14,0a.29.29,0,0,1,0-.23.35.35,0,0,0,0-.12s.11-.05.14-.07,0-.1.06-.14.2-.1.22-.18.24-.1.25,0h-.14c0,.14.08.16.15.22s-.1,0-.09.11a.38.38,0,0,0,.21.31,1,1,0,0,0,.52.52v.09a.47.47,0,0,0,.56-.2.35.35,0,0,1,.16,0c.06-.16.24-.22.48-.22a.24.24,0,0,1,.2-.14v-.18c.12,0,.18-.09.26-.14a.33.33,0,0,1,.06.24c.11,0,.14.16.3.15s.12.14.27.12c.11.23.42.24.67.32.42-.25.64-.7,1.14-.88,0-.1.09-.08.06-.2s.1-.13.15-.19a.43.43,0,0,1,.29,0c.06,0,.11,0,.16,0s0,0,.05,0c.28,0,.66-.06.81,0,.18-.08.51,0,.46-.33.2-.13.22-.41.32-.62a.5.5,0,0,0,.16-.1,1.85,1.85,0,0,1,.06-.2h0c0-.06.06-.25.06-.25s0-.15-.07-.16a1.11,1.11,0,0,0-.19.41c-.13,0-.17.11-.2.21-.22.11-.32.33-.48.5a.91.91,0,0,0-.58.17c-.15-.12-.48-.06-.74-.06-.07-.07-.2-.19-.13-.33s.15.07.21.13a.51.51,0,0,1,.36.05c.07-.11.25,0,.29-.12s-.22,0-.21-.15.16,0,.14-.05-.13,0-.12-.14.14,0,.2,0,.08-.13.18-.15,0,.11.07.09l0,0h0V9.64c.12,0,.15,0,.23.06s-.07-.16,0-.2.07.11.07.2.05.06.12,0,.07-.11.08-.18c.27-.05.07-.41-.08-.43s-.07.1-.11.14a.46.46,0,0,1-.45-.07c0-.27-.32-.09-.39-.21s.13,0,.11-.05-.15-.12-.19-.22c-.36.06-.39-.24-.69-.25,0,.11.1.12,0,.18s-.17-.16-.3-.1.11.07,0,.11,0-.32-.26-.26c0,.08,0,.15-.06.16S18,8.5,18,8.34h.18c.12-.14.26-.09.48-.08,0,0,0-.15,0-.18s.07.09.14.11.17-.07.22-.13a.44.44,0,0,0,.39.19v0s0,0,0-.09.06,0,.09,0a.13.13,0,0,1,0,.1l0,0v0c0,.1.15,0,.22,0s0,.05,0,.09a.88.88,0,0,0,.34-.15l0,0h0c0-.08-.08-.07-.1-.11s-.07.05-.11.07-.1-.18-.21-.2.06,0,0-.07.19.1.23,0a.29.29,0,0,0,.27.05c.14.18.49.13.71.23s.08-.09.18-.08,0-.11,0-.11.06.07.09.11c-.14,0-.12.16-.24.19s.32.11.45.07-.06,0-.05-.11.09,0,.16,0,0-.19-.05-.2a.86.86,0,0,1,.13-.14c-.13-.1.09-.2,0-.34l0,0h0c-.14,0-.11-.11-.25-.06V7.41c.08,0,.22,0,.25.08h.07c.17,0,.26,0,.28-.17s.07.09.05.16,0,0,0,0,0,.16,0,.18h0s0,.13,0,.16,0,0,0,0,0,.15-.07.11a.56.56,0,0,1-.12.3c0,.1,0,.12,0,.21s-.15.06-.2.12-.28-.22-.45-.17,0,.07-.11.08-.05,0,0,.11c-.13-.12-.34-.14-.42-.3-.06.06-.13,0-.14-.09h0v0h0V8.4c.11,0,.19.09.17.26,0,0,.13,0,.13,0s0,.12,0,.16.15.33.3.28.08-.26.19-.32a.34.34,0,0,1,.26.3c.09,0,0-.09.09-.11s.15-.05.22-.08v0h0s0-.12,0-.11.15,0,.23.06,0,.26.21.24c.07-.21-.2-.36,0-.48,0,.1-.06.07,0,.16s.19.14.21.29.13,0,.12.08-.15,0-.14.08.3.12.31.32a3.38,3.38,0,0,0,1.15,0c0-.18.1-.29.12-.46a1.93,1.93,0,0,0,.35-.35.68.68,0,0,1,.4-.1c.08-.13.29,0,.43-.08s0-.12,0-.12.09,0,.08.11a1.72,1.72,0,0,1,.7.07v0h0V8.53c.08,0,.22,0,.18.09s-.08,0-.16,0v0l0,0c.15.13.34.21.45.39v.43c.05,0,.07,0,.07.06h.27a.28.28,0,0,0,0,.14h.27c.08.1.2.16.18.37s.09.13.14.18V9.26h0v0s0,0-.06,0l0,0h0c0,.07-.07,0,0,.09s0-.06-.12,0,0,.17,0,.25-.08,0-.12-.06.15-.19.12-.39c.12,0,.1.11.17.13v0h0V9M15.28,4.65c0-.06-.06-.21,0-.21s0,0,0-.06H15.2c-.07,0,0,.13-.06.21s-.15.12,0,.13h0v0c.09,0,.06-.09.14-.09m1.1,2.42c.18-.07.18-.67,0-.75a6.15,6.15,0,0,1-.06.73h0ZM20,9.78v.11c.11,0,.24,0,.22-.12-.08,0-.09,0-.16,0l0,0Zm-14.53,4c-.08-.15-.3-.14-.48-.18v0l0,0c.14.07.29.2.5.12m.07.09s0,.05.05,0h0v0c.11-.05.33,0,.45,0v0c-.12-.05-.3,0-.39-.12s-.1.09-.15.14m4.29-.63h0l0,0c.1-.06.31,0,.3-.19l0,0v0h-.09c0,.11-.21.09-.24.21M12.91,11a.57.57,0,0,0,0-.13.12.12,0,0,0-.13.09l0,0v0c.06,0,0,0,.11,0M5.71,9.87c0-.07,0-.09,0-.18l-.05,0,0,0c-.09,0-.09.08-.18.08s0,.19,0,.29.11-.17.26-.17m-.88-2h0v0a.36.36,0,0,0-.18,0v.09s.06,0,.07,0,.08-.08.13-.12m.26,1v0h0a.28.28,0,0,1,.31-.19.31.31,0,0,0,0-.23.87.87,0,0,0-.57.32H4.75c0,.11-.2.11-.24.21l0,0V9A.58.58,0,0,0,5,8.84h0m-3.71.34c-.07.07,0,.17.05.2l0,0h0c0-.12-.05-.15-.12-.18m.77,1.92C2.15,11,2.07,11,2,11v0H2v0s.07,0,.09.07,0-.06.09-.07m1,1.09a1.19,1.19,0,0,1-.38-.42h-.2c.12.21.34.33.49.5h.14c0-.09-.07,0,0-.11M4.55,4.45c-.15,0-.18-.09-.32-.08v0l0,0c0,.17.27.21.41.19s-.08-.09-.07-.18m1.61,1A.53.53,0,0,0,5.92,5l0,0H5.85a.48.48,0,0,0,.25.47l0,0Zm4.89,4.07c0,.06.06.13.16.11v0l0,0c0-.11-.15-.1-.18,0m6.32,1.38h0c0,.08.05.08.07.11s.1-.15,0-.13Zm5.86-3.65s-.24-.1-.21,0h0c0,.06.12,0,.21,0s0,0,0-.09M1.07,3.84c0,.05,0,.1,0,.15h0a.39.39,0,0,0,0-.15m8.47,8.94s-.09,0-.09-.09.08,0,.09,0c0-.27.12-.44,0-.68-.16.1-.05.46-.3.48,0-.21-.15-.32-.22-.49s-.1-.28-.15-.4,0-.12,0-.18,0,0,0,0a1.31,1.31,0,0,1-.18-.49c-.08-.07-.06-.24-.13-.33s-.12,0-.13-.11,0-.06,0-.14c-.17-.19-.19-.55-.41-.68v.18c.17.11.12.45.27.58a5.37,5.37,0,0,1,0,1c-.25,0-.14.31,0,.38-.1.06,0,.17.06.23v0h0a1.14,1.14,0,0,1,.52,0V12c-.09-.09-.23,0-.19.17l0,0v0s.12,0,.12,0-.07.07,0,.16.11.28.21.38l0,0s0,0,.13.05c0,0-.12,0-.12,0H9a.15.15,0,0,0-.12.19c.1.05.3,0,.27.19.12,0,.13-.06.2-.07s-.07-.1,0-.12.25.14.27,0-.11,0-.09,0,0-.1,0-.18m-.85-.62c-.09,0-.09-.1-.14-.13s-.13,0-.16,0v0h0c0,.09,0,.13,0,.21s0-.09.11-.08a1.35,1.35,0,0,1,.17.34c.16-.06,0-.1.06-.28l0,0Z"/></g></g></svg>