<?xml version="1.0" encoding="utf-8"?>
<!-- Generator: Adobe Illustrator 19.2.0, SVG Export Plug-In . SVG Version: 6.00 Build 0)  -->
<svg version="1.1"
	 id="svg2" xmlns:cc="http://creativecommons.org/ns#" xmlns:dc="http://purl.org/dc/elements/1.1/" xmlns:rdf="http://www.w3.org/1999/02/22-rdf-syntax-ns#" xmlns:svg="http://www.w3.org/2000/svg"
	 xmlns="http://www.w3.org/2000/svg" xmlns:xlink="http://www.w3.org/1999/xlink" x="0px" y="0px" viewBox="0 0 103.8 46.3"
	 style="enable-background:new 0 0 103.8 46.3;" xml:space="preserve">
<style type="text/css">
	.st0{clip-path:url(#SVGID_2_);fill:#FFFFFF;}
	.st1{clip-path:url(#SVGID_2_);fill:#8BC34A;}
</style>
<g>
	<defs>
		<path id="SVGID_1_" d="M14.1,3.4c-0.3,1.2-0.8,2.5-1.4,4.1c-0.6,1.6-1.3,3.3-2,5c-0.8,1.7-1.2,2.6-1.2,2.8l-5,14.1
			c-0.1,0.2-0.1,0.4-0.2,0.5c0,0.1-0.1,0.2-0.1,0.3c0,0.1,0,0.2,0.1,0.3c0.1,0.1,0.1,0.1,0.2,0.1c0.2,0,1-0.5,2.3-1.5
			c1.3-1,3.1-2.3,5.3-4.1v1.8c-0.5,0.4-1.1,0.9-1.9,1.5C6.2,31.4,3.8,33,3.1,33c-0.4,0-0.7-0.1-0.9-0.3c-0.2-0.2-0.3-0.5-0.3-0.9
			c0-0.3,0.1-0.6,0.2-1c0.1-0.4,0.3-1.1,0.6-1.9l1.5-4.2c-0.6,0.5-1.1,1-1.6,1.4c-0.6,0.4-1.1,0.8-1.7,1.2v-1.8
			C2,24.5,3,23.6,3.9,22.7c0.9-0.9,1.4-1.5,1.5-1.8L12,2.7c0.4-1.1,0.7-1.8,0.9-2.1C13.2,0.2,13.5,0,13.8,0c0.2,0,0.4,0.1,0.6,0.3
			c0.2,0.2,0.2,0.4,0.2,0.7C14.6,1.5,14.5,2.3,14.1,3.4z M23.1,30.5c0.2,0,1-0.5,2.4-1.5c1.4-1,3.1-2.4,5.3-4.1v1.8l-0.5,0.4
			c-5.1,4-8.1,6-9.2,6c-0.2,0-0.4-0.1-0.6-0.3c-0.2-0.2-0.3-0.4-0.3-0.7c0-0.1,0-0.4,0.2-0.7c0.1-0.3,0.2-0.7,0.4-1.1l1.4-3.3
			c-1.4,2.2-2.7,3.7-3.8,4.6c-1.1,0.9-2.1,1.4-3.2,1.4c-1.1,0-2-0.5-2.7-1.4c-0.7-0.9-1-2.2-1-3.7c0-1.1,0.2-2.2,0.6-3.2
			c0.4-1,1.1-2,1.9-3c1.4-1.6,3.2-2.9,5.1-3.8c2-1,3.9-1.4,5.7-1.4c0.8,0,1.4,0.1,2,0.2c0.6,0.2,1.2,0.4,1.7,0.8l-0.1,1.7
			c-0.6-0.4-1.2-0.7-1.8-0.9C26.3,18.1,25.6,18,25,18c-1.6,0-3.3,0.4-5.1,1.3c-1.8,0.9-3.2,1.9-4.3,3.2c-0.7,0.8-1.3,1.7-1.6,2.6
			c-0.4,0.9-0.6,1.8-0.6,2.7c0,1,0.2,1.8,0.6,2.4c0.4,0.6,1,0.9,1.7,0.9c0.9,0,2-0.7,3.4-2.2c1.4-1.5,3.5-4.4,6.5-8.9l1.7,0.2
			l-4.2,9.1c-0.1,0.1-0.1,0.3-0.2,0.4c0,0.1-0.1,0.2-0.1,0.3c0,0.1,0,0.2,0.1,0.3C23,30.4,23.1,30.5,23.1,30.5z M41.4,7.7
			c-1.6,4.1-3,7.9-4.3,11.6l-6.9,19.8l-0.1,0.3c-0.6,1.7-0.9,2.8-0.9,3.4c0,0.3,0.1,0.5,0.2,0.7c0.1,0.2,0.3,0.3,0.5,0.3
			c1,0,2.2-1.5,3.5-4.4c1.4-3,2.1-6.2,2.2-9.7c1.2-0.7,2.4-1.5,3.5-2.3c1.1-0.8,2.2-1.7,3.3-2.7v1.8c-0.9,0.8-1.7,1.6-2.6,2.2
			c-0.9,0.7-1.8,1.3-2.6,1.9c-0.2,4.1-1.2,7.7-2.8,10.7c-1.6,3-3.3,4.5-4.9,4.5c-0.6,0-1.1-0.2-1.5-0.7c-0.3-0.5-0.5-1.1-0.5-2
			c0-0.5,0.1-1.1,0.2-1.8c0.2-0.7,0.4-1.4,0.6-2.2l5.3-15c-0.4,0.4-0.9,0.9-1.4,1.4c-0.5,0.5-1.2,1-2,1.7v-1.8c1.3-1.2,2.3-2.2,3-3
			c0.7-0.8,1.3-1.5,1.6-2.1l4.6-12.8c0.2-0.7,0.6-1.6,1-2.8c1-3.1,1.9-4.7,2.5-4.7c0.2,0,0.5,0.1,0.7,0.3c0.2,0.2,0.3,0.5,0.3,0.7
			C43.8,1.5,43,3.7,41.4,7.7z M51.8,13c-0.4,0.5-0.8,0.7-1.3,0.7c-0.3,0-0.6-0.1-0.7-0.3c-0.2-0.2-0.3-0.4-0.3-0.7
			c0-0.6,0.2-1.2,0.6-1.7c0.4-0.5,0.8-0.8,1.3-0.8c0.3,0,0.6,0.1,0.7,0.3c0.2,0.2,0.3,0.5,0.3,0.8C52.3,11.9,52.1,12.5,51.8,13z
			 M44.2,29.3c-0.1,0.2-0.1,0.3-0.2,0.4c0,0.1-0.1,0.2-0.1,0.3c0,0.1,0,0.2,0.1,0.3c0.1,0.1,0.1,0.1,0.2,0.1c0.2,0,1-0.5,2.4-1.5
			c1.4-1,3.1-2.4,5.3-4.1v1.8l-1,0.8c-4.8,3.7-7.7,5.6-8.7,5.6c-0.3,0-0.5-0.1-0.6-0.4c-0.2-0.2-0.3-0.6-0.3-0.9
			c0-0.2,0-0.4,0.1-0.7c0.1-0.3,0.2-0.6,0.4-0.9l2.7-5.4c-0.6,0.5-1.1,1-1.6,1.4c-0.5,0.4-1,0.7-1.4,1v-1.8c1.1-0.9,2.1-1.7,3-2.6
			c0.9-0.9,1.4-1.5,1.6-1.9l2-4h1.9C50.1,16.8,44.2,29.3,44.2,29.3z M67.4,25v1.8c-1.5,1.4-3.7,3.6-6.7,6.6l-0.9,0.9
			c-1.2,3.5-2.7,6.3-4.3,8.4c-1.6,2.1-3.1,3.1-4.5,3.1c-0.5,0-0.9-0.2-1.2-0.5c-0.3-0.3-0.5-0.8-0.5-1.3c0-1.1,0.8-2.5,2.4-4.4
			c1.6-1.9,3.9-4,6.7-6.3c0.3-0.7,0.5-1.4,0.7-2c0.2-0.7,0.2-1.4,0.2-2.1c0-0.4-0.1-0.8-0.2-1.1c-0.1-0.3-0.3-0.6-0.6-0.9
			c-0.5,0.3-1,0.6-1.4,0.8c-0.4,0.2-0.8,0.3-1.2,0.3c-0.3,0-0.6-0.1-0.8-0.3c-0.2-0.2-0.3-0.4-0.3-0.7c0-0.5,0.3-0.9,0.8-1.3
			c0.5-0.4,1.2-0.6,1.9-0.6c0.1,0,0.3,0,0.4,0.1c0.2,0,0.4,0.1,0.8,0.2c1.5-1,2.6-2,3.4-3c0.8-1,1.1-1.9,1.1-2.9
			c0-0.5-0.2-0.8-0.5-1.1c-0.3-0.3-0.7-0.5-1.2-0.5c-0.8,0-2.3,1.1-4.5,3.4c-2.2,2.3-4.2,4.1-5.9,5.5v-1.8c1.3-1.2,2.9-2.7,4.9-4.7
			c2.7-2.8,4.7-4.2,5.9-4.2c0.9,0,1.7,0.3,2.3,0.9c0.6,0.6,0.9,1.3,0.9,2.2c0,1.2-0.5,2.3-1.4,3.5c-0.9,1.2-2.2,2.3-3.9,3.2
			c0.4,0.3,0.7,0.7,0.9,1.1c0.2,0.4,0.3,0.9,0.3,1.4c0,0.4,0,0.9-0.1,1.3c-0.1,0.4-0.2,0.8-0.3,1.3c1-1.1,2.1-2.2,3.2-3.3
			C65,27.2,66.2,26.1,67.4,25z M53.1,40.3c-1.4,1.6-2,2.7-2,3.2c0,0.2,0.1,0.3,0.2,0.5c0.1,0.1,0.3,0.2,0.5,0.2c0.7,0,1.7-0.8,3-2.5
			c1.3-1.7,2.4-3.7,3.3-6.2C56.1,37.1,54.4,38.7,53.1,40.3z M83.1,25v1.8c-1.5,1.4-3.7,3.6-6.7,6.6l-0.9,0.9
			c-1.2,3.5-2.7,6.3-4.3,8.4c-1.6,2.1-3.1,3.1-4.5,3.1c-0.5,0-0.9-0.2-1.2-0.5C65.2,45,65,44.6,65,44c0-1.1,0.8-2.5,2.4-4.4
			c1.6-1.9,3.9-4,6.7-6.3c0.3-0.7,0.5-1.4,0.7-2c0.2-0.7,0.2-1.4,0.2-2.1c0-0.4-0.1-0.8-0.2-1.1c-0.1-0.3-0.3-0.6-0.6-0.9
			c-0.5,0.3-1,0.6-1.4,0.8c-0.4,0.2-0.8,0.3-1.2,0.3c-0.3,0-0.6-0.1-0.8-0.3c-0.2-0.2-0.3-0.4-0.3-0.7c0-0.5,0.3-0.9,0.8-1.3
			c0.5-0.4,1.2-0.6,1.9-0.6c0.1,0,0.3,0,0.4,0.1c0.2,0,0.4,0.1,0.8,0.2c1.5-1,2.6-2,3.4-3c0.8-1,1.1-1.9,1.1-2.9
			c0-0.5-0.2-0.8-0.5-1.1c-0.3-0.3-0.7-0.5-1.2-0.5c-0.8,0-2.3,1.1-4.5,3.4c-2.2,2.3-4.2,4.1-5.9,5.5v-1.8c1.3-1.2,2.9-2.7,4.9-4.7
			c2.7-2.8,4.7-4.2,5.9-4.2c0.9,0,1.7,0.3,2.3,0.9c0.6,0.6,0.9,1.3,0.9,2.2c0,1.2-0.5,2.3-1.4,3.5c-0.9,1.2-2.2,2.3-3.9,3.2
			c0.4,0.3,0.7,0.7,0.9,1.1c0.2,0.4,0.3,0.9,0.3,1.4c0,0.4,0,0.9-0.1,1.3c-0.1,0.4-0.2,0.8-0.3,1.3c1-1.1,2.1-2.2,3.2-3.3
			C80.7,27.2,81.8,26.1,83.1,25L83.1,25z M68.7,40.3c-1.4,1.6-2,2.7-2,3.2c0,0.2,0.1,0.3,0.2,0.5c0.1,0.1,0.3,0.2,0.5,0.2
			c0.7,0,1.7-0.8,3-2.5c1.3-1.7,2.4-3.7,3.3-6.2C71.7,37.1,70.1,38.7,68.7,40.3z M102.9,24.9v1.8c-2.8,2.2-5.2,4.1-7.1,5.7
			c-1.9,1.6-3.2,2.9-4.1,3.9c-1.1,3.2-2,5.6-2.9,7.2c-0.9,1.6-1.6,2.3-2.3,2.3c-0.3,0-0.5-0.1-0.6-0.3c-0.2-0.2-0.2-0.5-0.2-0.9
			c0-1.2,0.5-2.7,1.4-4.5c0.9-1.8,2.1-3.5,3.7-5.1l5.8-13.1c-3.5,3.8-6.2,6.7-8.3,8.5c-2.1,1.8-3.6,2.7-4.5,2.7
			c-0.3,0-0.6-0.1-0.7-0.2c-0.2-0.1-0.2-0.3-0.2-0.7c0-0.2,0.1-0.5,0.2-0.8c0.1-0.4,0.3-0.8,0.5-1.4l2.1-5.1c-0.6,0.5-1.1,1-1.6,1.4
			c-0.5,0.4-1,0.7-1.4,1v-1.8c1.2-0.9,2.2-1.8,3.1-2.6c0.9-0.9,1.4-1.5,1.5-1.9l1.8-4h1.9l-4.7,11.3c0,0.1-0.1,0.2-0.2,0.4
			c-0.3,0.5-0.4,0.9-0.4,1.1c0,0.1,0,0.1,0.1,0.2c0,0,0.1,0,0.1,0c0.6,0,2.2-1.3,4.8-3.9c2.6-2.6,5.4-5.6,8.2-9.2h1.8l-6.9,15.6
			l0.5-0.4C98.2,28.5,101.1,26.2,102.9,24.9z"/>
	</defs>
	<clipPath id="SVGID_2_">
		<use xlink:href="#SVGID_1_"  style="overflow:visible;"/>
	</clipPath>
	<polygon class="st0" points="25,47.7 -1.4,47.7 -1.4,-2.4 39,-2.4 	"/>
	<polygon class="st1" points="19.8,55.7 106.5,55.7 106.5,-3.8 40.8,-3.8 	"/>
</g>
</svg>
