<?xml version="1.0" encoding="utf-8"?>
<!-- Generator: Adobe Illustrator 19.2.0, SVG Export Plug-In . SVG Version: 6.00 Build 0)  -->
<svg version="1.1"
	 id="svg2" xmlns:cc="http://creativecommons.org/ns#" xmlns:dc="http://purl.org/dc/elements/1.1/" xmlns:rdf="http://www.w3.org/1999/02/22-rdf-syntax-ns#" xmlns:svg="http://www.w3.org/2000/svg"
	 xmlns="http://www.w3.org/2000/svg" xmlns:xlink="http://www.w3.org/1999/xlink" x="0px" y="0px" viewBox="0 0 27.5 31.3"
	 style="enable-background:new 0 0 27.5 31.3;" xml:space="preserve">
<style type="text/css">
	.st0{clip-path:url(#SVGID_2_);fill:#FFCC00;}
</style>
<g id="g20">
	<defs>
		<path id="SVGID_1_" d="M21.3,31.3c-3.5,0-6.3-2.8-6.3-6.3c0-3.5,2.8-6.2,6.3-6.2c3.5,0,6.2,2.8,6.2,6.2
			C27.5,28.5,24.7,31.3,21.3,31.3z M23.8,22.5l-3.1,4.2L18.8,25l-1.3,1l3.2,2.7l4.3-4.6L23.8,22.5z M13.8,25c0,1.9,0.7,3.6,1.9,4.9
			c-1,0-2,0.1-3.1,0.1C7.9,30,4,30.4,1.8,28.9c-1.1-0.7-1.7-1.6-1.8-2.7c0-4.8,3-9.2,7.8-10.7c1.4-0.4,2.1,3.2,4.7,3.2
			c2.6,0.1,2.6-3.7,3.8-3.5c2.1,0.4,3.7,1.2,5,2.2C17.1,17.5,13.8,20.9,13.8,25z M12.5,16.2c-2.4,0-6.3-6.5-6.3-10
			C6.2,2.8,9,0,12.5,0c3.5,0,6.2,2.8,6.2,6.3C18.8,9.7,14.9,16.2,12.5,16.2z"/>
	</defs>
	<clipPath id="SVGID_2_">
		<use xlink:href="#SVGID_1_"  style="overflow:visible;"/>
	</clipPath>
	<rect x="-2.7" y="-3.9" class="st0" width="33.5" height="38"/>
</g>
</svg>
