<?xml version="1.0" encoding="utf-8"?>
<!-- Generator: Adobe Illustrator 19.2.0, SVG Export Plug-In . SVG Version: 6.00 Build 0)  -->
<svg version="1.1"
	 id="svg2" xmlns:cc="http://creativecommons.org/ns#" xmlns:dc="http://purl.org/dc/elements/1.1/" xmlns:rdf="http://www.w3.org/1999/02/22-rdf-syntax-ns#" xmlns:svg="http://www.w3.org/2000/svg"
	 xmlns="http://www.w3.org/2000/svg" xmlns:xlink="http://www.w3.org/1999/xlink" x="0px" y="0px" viewBox="0 0 323.8 88.8"
	 style="enable-background:new 0 0 323.8 88.8;" xml:space="preserve">
<style type="text/css">
	.st0{clip-path:url(#SVGID_2_);fill:#FFCC00;}
	.st1{clip-path:url(#SVGID_4_);fill:#FFCC00;enable-background:new    ;}
	.st2{clip-path:url(#SVGID_6_);fill:#FFFFFF;}
	.st3{clip-path:url(#SVGID_8_);fill:#FFCC00;enable-background:new    ;}
	.st4{clip-path:url(#SVGID_10_);fill:#FFFFFF;}
</style>
<g>
	<defs>
		<path id="SVGID_1_" d="M41.4,65c0,0,3.8-0.7-2,7.8c-0.1-0.1-0.2-0.1-0.4-0.2c-0.8-1.3-1.6-2.6-2.3-3.9c0.4-0.4,0.8-0.7,1.3-1.1
			c0.1,0,0.1,0,0.2,0c0.4,0.6,0.7,1.1,1.1,1.7c0.2-0.1,0.4-0.2,0.5-0.3C40.6,67,41.4,65,41.4,65z M37.6,65c0.4,0.4,0.8,0.8,1.3,1.2
			c-0.8,1-3.9,3.5-4.9,2.9c-0.3-0.1-0.6-0.3-0.9-0.4C34.6,67.4,36.1,66.2,37.6,65z M43.6,67.3c3.1,1.1,6.2,4.5,7.8,6.9
			c-0.1,0-0.2,0-0.4,0c-0.6,0.1-1.2,0.1-1.8,0.2c-1.1-2.3-4-4.4-6.3-5.7C43.1,68.2,43.3,67.7,43.6,67.3z M3.2,67.4
			c0.5,0.1,1,0.1,1.4,0.2c0.7,0.3,0.7,0.5,1.1,1.1c-0.1,0.3-0.1,0.5-0.2,0.8c-0.6,0.6-1,0.8-2.3,0.8c0.2,0.3,0.5,0.7,0.7,1.1
			C8,71.3,17,67.7,14.5,75.4c-0.9,0.6-1.3,1-2.9,1.1c-1.1-0.6-1.4-1.1-2.2-1.8c-0.2,0.1-0.5,0.2-0.7,0.3c0,0.5,0,0.9,0,1.4
			c1.8,2.9,6.3,2.3,8.3,0c1.1-1.5,2.2-3,3.2-4.5c7-7.6,14.6-2.3,18.6,3.6c-0.4,0.4-0.7,0.8-1.1,1.2c-0.1,0-0.2-0.1-0.4-0.1
			c-1-1.2-1.9-2.4-2.9-3.6c-8.6-10.4-14.3,5-19.7,6.8c-5.7,1.9-9.7-2.9-6.9-6.3c1.3-0.3,2-0.4,3.4-0.1c0.1,0.5,0.1,1.1,0.2,1.7
			c0.1,0.1,0.2,0.1,0.4,0.1c0.4-0.2,0.7-0.4,1.1-0.6c0-0.4,0-0.8,0-1.2c-2.8-3.3-13.9,3.1-11.5-4.7C2.1,68.1,2.6,67.8,3.2,67.4z
			 M74.1,67.4c1.8,0,2.2,0.4,3.1,1.1c2.3,7.5-6.3,2.5-9.4,3.2c-0.7,0.5-1.4,1-2.2,1.5c0.1,0.4,0.1,0.7,0.2,1.1
			c0.2,0.3,0.5,0.5,0.7,0.8c0.2,0,0.4-0.1,0.5-0.1c0.1-0.5,0.2-1.3,0.5-1.7c1.5-0.7,2.8,0.1,3.8,0.8c1.4,3.7-2.4,7.4-7.6,5.7
			c-4.7-1.6-5.4-6.7-9.4-8.9c-2-1.1-6.1-0.5-7.4-2c0,0,0-0.1,0-0.1c10.9-2.5,10.7,5.6,16.1,8.9c2.1,1.3,5.6,1,6.7-0.9
			c0.3-0.5,0.3-0.9,0.2-1.5c-0.2-0.2-0.4-0.4-0.5-0.6c-0.1,0-0.2,0.1-0.4,0.2c-0.4,1.1-1.1,1.7-2.7,1.8c-3.8-1.1-2.8-5.2,0.4-6.2
			c3.3-1,5.2,1.2,7.9,0.9c0.5-0.3,0.7-0.4,0.9-1.1c-1.2,0-1.7-0.1-2.2-0.8c0-0.4,0-0.8,0-1.2C73.6,67.9,73.8,67.7,74.1,67.4z
			 M43.9,70.3c0.5,0.3,1.1,0.6,1.6,0.9c-0.2,0.2-0.5,0.4-0.7,0.6c-1.4,2.7-4.4,6-7.2,7.7c-0.3-0.4-0.6-0.8-0.9-1.2
			C39,75.7,42.2,73.3,43.9,70.3z M30.4,70.6c0.6,0.3,1.2,0.5,1.8,0.8c-0.4,0.3-0.7,0.6-1.1,0.9c-1.2,2-4.4,4.1-3.2,7.5
			c-0.7-0.4-1.3-0.8-2-1.2C26,74.7,28.6,73,30.4,70.6z M24.8,74.8c0.5,0.1,1,0.1,1.4,0.1c-0.2,0.5-0.5,1-0.7,1.5
			c-0.5,0-1,0.1-1.4,0.1c0,0.2,0,0.4,0,0.6c1.4,1.5,3,4.2,6.9,3.6c1.3-0.2,2.5-1,3.6-0.9c0.1,0.5,0.2,0.9,0.4,1.4
			C26.8,83.5,24,81,21.4,75.5c0,0,0-0.1,0-0.1C22.5,75.2,23.7,75,24.8,74.8z M50.1,74.8c2.9,0,5,0.3,7.2,0.6c0,0,0,0.1,0,0.1
			c-1,2.2-2,4.3-4.1,5.6c0.2-1.9,0.8-3.1,1.6-4.4c-0.1-0.1-0.1-0.2-0.2-0.3c-4.6-0.2-8.2,0.3-10.3,2.6c-0.2-0.1-0.4-0.3-0.5-0.4
			c-0.3-0.2-0.6-0.3-0.9-0.5C44.7,76,47,75.9,50.1,74.8z M29.5,75.1c8.1,0.5,9.3,7.3,7.9,13.7c-0.1,0-0.1,0-0.2,0
			c-4.1-1.5-8.1-3-10.1-6.2c0.1,0,0.1-0.1,0.2-0.1c3.5,1,5.1,3.3,8.7,4.1c0.1,0,0.1-0.1,0.2-0.1c0.4-4.6-0.7-7.5-4.3-9.2
			c-1-0.3-1.9-0.6-2.9-0.9C29.1,75.9,29.3,75.5,29.5,75.1z M50.8,76.9c0.6,0,1.2,0,1.8,0c0,0.1,0,0.2,0,0.3
			c2.9,5.7-7,10.2-11.2,11.6c-0.1-0.1-0.1-0.1-0.2-0.1c-0.6-2.7-1.2-5.7,0-8.3c0.2,0.1,0.4,0.3,0.5,0.4c0.3,0.1,0.6,0.2,0.9,0.3
			c-0.2,1.7-0.6,3.8,0,5.4c0.1,0,0.1,0,0.2,0C47.6,85.3,51.3,82.2,50.8,76.9z M40.9,77.5c2.5,1,4.8,4.1,9,3.2
			c-0.3,0.6-0.6,1.1-0.9,1.7c-4.6,0-6.6-2.1-9.2-3.8C40.1,78.2,40.5,77.8,40.9,77.5z"/>
	</defs>
	<clipPath id="SVGID_2_">
		<use xlink:href="#SVGID_1_"  style="overflow:visible;"/>
	</clipPath>
	<rect x="-8.3" y="63.7" class="st0" width="92" height="35.9"/>
</g>
<g id="g44">
	<defs>
		<path id="SVGID_3_" d="M37.4,0c0.7,0.8,0.8,2.7,0.9,3.8c-1.7,0-2.6,0.2-3.6,0.7C34.6,3,34,2.2,33.3,1.3C34.6,0.9,36,0.4,37.4,0z
			 M40.1,3.8c0.2-1.2,0.4-2.4,0.5-3.7c0.2,0,0.5,0,0.7,0c1.2,0.4,2.4,0.8,3.6,1.2c-0.7,1-1.2,1.7-1.4,3.2C42.6,4,41.8,3.8,40.1,3.8z
			 M32.5,1.7c0,0,0.5,4,0.7,4.5c-3.9-0.3-4.2,2.4-7,3.7c0-0.2,0-0.4,0-0.7C27.7,5.4,29.6,4,32.5,1.7z M45.6,1.7
			c5.5,2.5,8,8.3,6,15.3c-0.1,0.1-0.2,0.1-0.4,0.2c-0.5-0.1-1-0.2-1.4-0.3C50.8,10,51.9,8.3,45,6C45.9,4.7,45.9,3.4,45.6,1.7z
			 M33.3,2.7c0.7,0.6,0.8,1.5,0.5,2.7c-0.2-0.1-0.4-0.2-0.5-0.3c0-0.1,0-0.2,0-0.3C33.3,4,33.3,3.3,33.3,2.7z M44.8,2.7
			c0.2,0.3,0.4,0.7,0.5,1C45.2,4.1,45,4.5,44.8,5c-0.1,0.1-0.1,0.2-0.2,0.3c-0.1,0-0.1,0-0.2,0C44.3,4.2,44.4,3.5,44.8,2.7z
			 M36.7,4.3c0.2,0,0.4,0,0.5,0c-0.3,0.4-0.6,0.8-0.9,1.2c-0.6,0.1-1.2,0.2-1.8,0.3c0.1-0.2,0.1-0.3,0.2-0.5C35.4,5,36,4.6,36.7,4.3
			z M38.1,4.3c3.4,6.1-4.7,12.3-7.6,14.3c-0.1-0.1-0.2-0.1-0.4-0.2c-0.2-0.5-0.4-1-0.5-1.5c4.3-1.2,8.3-6.8,4.5-10.5
			C36.2,6.3,37.4,5.6,38.1,4.3z M40,4.5c0.4,0.2,4,2.3,4,2.3c-1.8,0.9-1.2,3.1-2,4.5c-0.2,0.2-0.5,0.3-0.7,0.5
			C39.8,10.4,39.9,7.2,40,4.5z M41.2,4.5c1.4,0,1.9,0.4,2.5,1.2c0,0.1,0,0.1,0,0.2C42.4,5.7,41.7,5.4,41.2,4.5z M20.4,8.6
			c0.2,0,0.5,0,0.7,0c0.1,0.2,0.1,0.4,0.2,0.7c-0.1,1-0.1,2.1-0.2,3.2c-1.2-0.2-2.1,0-3.3,0.2c0-1.1-0.3-1.8-0.7-2.8
			C18.3,9.4,19.3,9,20.4,8.6z M57.1,8.6c1.4,0.2,3.1,0.6,4,1.3c-0.4,0.8-0.7,1.3-0.7,2.7c-1.1-0.2-2.1-0.4-3.3-0.2
			C57.1,11.2,57.1,9.9,57.1,8.6z M29.3,9.5c2.3,0,4.5,0.6,5.6,1.7c-0.3,0.4-0.6,0.9-0.9,1.3c-5-2.8-10,0.2-10.5,5.1
			c0.1,0,0.2,0,0.4,0c1,0.2,1.9,0.3,2.9,0.5c0.2,0.4,0.4,0.9,0.5,1.3c-2.2,0.1-4.1,0.1-6-0.5c0-0.1,0-0.1,0-0.2
			C22.4,13,24.2,11.5,29.3,9.5z M47.5,9.5c0.7,0.1,1.3,0.1,2,0.2c0.1,0.6,0.2,1.1,0.4,1.7c-4.9-0.1-6.6,1.8-9,3.8
			c-0.2-0.2-0.5-0.3-0.7-0.5c-0.4-1.3,0.1-1.2,1.1-2.3C43.2,11.5,45.2,10.5,47.5,9.5z M16.1,10.3c0.2,0.2,0.2,2.9,0.4,3.8
			c-1.9-0.5-2.5,0.8-3.4,1.7c-0.5-0.1-1.1-0.1-1.6-0.2C12,12.9,14.2,11.8,16.1,10.3z M61.8,10.3c4.9,1.5,6.7,7.5,4.2,12.1
			c-0.2-0.1-0.4-0.1-0.5-0.2c-0.3-0.3-0.6-0.6-0.9-0.8c1-2.8,1.9-7.4-2.7-7.5C62.4,12.8,62.4,11.5,61.8,10.3z M16.8,11.1
			c0.6,0.5,0.6,1.2,0.4,2c-0.1,0.1-0.2,0.1-0.4,0.2c0-0.1,0-0.2,0-0.3C16.8,12.3,16.8,11.7,16.8,11.1z M53,11.1c2.1,1.1,4.6,5,3.8,8
			c-6.4,0.7-11.5-0.5-14.1-4.6c0.2-0.2,0.4-0.4,0.5-0.7c0.2-0.1,0.5-0.2,0.7-0.3c0.2,0.1,0.4,0.2,0.5,0.3c1.2,2.4,6,5,10.3,3.8
			C54.5,14.9,53,14.3,53,11.1z M61.3,11.1c0.1,0.1,0.2,0.1,0.4,0.2c-0.1,0.7-0.1,1.3-0.2,2c-0.1,0-0.1,0-0.2,0
			c-0.1-0.1-0.1-0.1-0.2-0.2C61,12.2,61,11.9,61.3,11.1z M27.5,12.4c0.3,1.2,0.6,2.4,0.9,3.7c0.9,2.3,2.4,4,3.8,5.8
			c-0.4,0.3-0.7,0.7-1.1,1c-0.2,0-0.4,0-0.5,0c-1.5-2-5.9-6.8-4-10C26.9,12.8,27.2,12.6,27.5,12.4z M18.8,12.9c0.4,0,0.8,0,1.3,0
			c-0.2,0.2-0.4,0.4-0.5,0.7c-0.5,0.1-1.1,0.1-1.6,0.2c0-0.1,0-0.1,0-0.2c0.1-0.1,0.2-0.1,0.4-0.2C18.4,13.3,18.6,13.1,18.8,12.9z
			 M37.4,12.9c3.7,1.6,5.1,6.3,7.8,9c-0.4,0.4-0.8,0.8-1.3,1.2c-2.4-2.9-4.8-5.9-7.2-8.8C36.9,13.8,37.2,13.4,37.4,12.9z M58.4,12.9
			c1.2,0,1.5,0.3,2.2,0.7c-0.1,0.1-0.1,0.2-0.2,0.3c-0.1,0-0.1,0-0.2,0C59.3,13.8,58.8,13.6,58.4,12.9z M20.8,13.1
			c1.8,2-3.6,9-4.9,9.8c-0.7-0.3-0.8-0.7-1.3-1.2c1.7-2,4.5-4.1,2.9-7.1C19,14.1,20,14.3,20.8,13.1z M57.1,13.1
			c1.1,0.5,2.2,0.9,3.6,1.5c-0.9,1.9-0.2,3.4-1.3,4.8c-0.1-0.1-0.2-0.1-0.4-0.2C58.4,17.3,57.5,15.6,57.1,13.1z M11.2,16.1
			c2.6,0.3,4,1.1,5.6,2.2c0,0.1,0,0.1,0,0.2c-0.4,0.4-0.7,0.8-1.1,1.2c-4.2-2.4-7.2-2.6-8.3,2.3c-1.1-0.5-2.4-0.6-3.6-0.2
			C5,18.1,7.5,17.5,11.2,16.1z M37.4,16.1c0.4,0.4,0.8,0.9,1.3,1.3c-2.1,3.6-4.7,6.9-8.9,8.6c-0.4-0.2-0.7-0.3-1.1-0.5
			c-0.1-0.1-0.1-0.2-0.2-0.3c0.1-0.2,0.1-0.4,0.2-0.7C33,23.4,35.5,19.4,37.4,16.1z M68,16.3c3.1,0.9,5.8,2.5,6.5,5.5
			c-1.3-0.5-2.6-0.2-3.8,0.2c0.5-2.5-1.3-3-2.7-4.1C68,17.3,68,16.8,68,16.3z M64.2,16.6c0.2,0,0.4,0,0.5,0c0.1,0.5,0.1,1,0.2,1.5
			c-1.6,1.5-3.7,3.2-5.4,4.5c-2.4-0.9-0.8-2.1,0.9-3.2C61.2,18.1,62.9,17.5,64.2,16.6z M11,18.6c0.6,0,1.2,0,1.8,0
			c0.8,3.2,3.5,4.7,1.8,6.8c-0.2-0.2-0.5-0.3-0.7-0.5C12.9,22.8,11.7,21.4,11,18.6z M48.1,19.4c0.6,0.1,1.2,0.2,1.8,0.3
			c-0.6,2.3-9.1,11-10.1,7.5C42.8,25.4,46.3,22.4,48.1,19.4z M19,20.6c1.5,0.6,6.4,4.7,7,6.1c-0.4,0-0.8,0-1.3,0
			c-2.7-1-5.3-2.8-6.7-5C18.4,21.4,18.7,21,19,20.6z M62.2,20.8c4.1,1.3,2.4,3,8.1,2.3c0.1,1.6,0.7,1.9,1.4,2.8
			c-4.2,0.1-10-1.8-10.3-4.5C61.7,21.2,61.9,21,62.2,20.8z M26.8,20.9c0.2,0,0.4,0,0.5,0c-0.1,6.2,4.2,7.7,8.3,9.8
			c0,0.2,0,0.4,0,0.7c-0.2,0.4-0.5,0.8-0.7,1.2c-0.4-0.3-0.7-0.7-1.1-1c-4.2-1.6-7.3-3.8-8.3-8.5c-2.3,0.2-2.2,0.2-3.6-0.8
			c0-0.1,0-0.1,0-0.2C23.5,21.7,25.1,21.3,26.8,20.9z M51.2,20.9c4.3,0.7,7.1,2,10.3,3.3c-0.2,0.2-0.4,0.3-0.5,0.5
			c-0.2,0.3-0.5,0.6-0.7,0.8c-2.2-1-4.3-2.3-7.4-2.5c-0.2,0.5-0.4,1-0.5,1.5c-0.5-0.1-1.1-0.2-1.6-0.3c0-0.1,0-0.1,0-0.2
			C50.8,23,51,22,51.2,20.9z M5.4,21.9c0.5,0.1,1,0.2,1.4,0.3c-0.1,0.1-0.1,0.2-0.2,0.3c-1.1,0-1.5,0-2-0.5C4.9,22,5.2,22,5.4,21.9z
			 M72.5,21.9c0.4,0.1,0.8,0.1,1.3,0.2c-0.1,0.1-0.1,0.2-0.2,0.3c-0.1,0-0.2,0-0.4,0c-0.5,0.1-1.1,0.1-1.6,0.2c0-0.1,0-0.2,0-0.3
			C71.9,22.1,72.2,22,72.5,21.9z M3.4,22.4c0.9,0.3,1.8,0.7,2.7,1C5.8,24,5.7,25,5.4,25.9c-0.9-0.2-1.8-0.3-2.7-0.5
			c0-0.3,0-0.6,0-0.8C3,23.8,3.2,23.1,3.4,22.4z M72.7,25.7c0-1.2-0.2-1.8-0.5-2.5c1.2-0.1,1.8-0.4,2.5-0.8c0.7,0.7,1,2.2,0.9,3
			C74.6,25.5,73.6,25.6,72.7,25.7z M8.1,22.9c1.3,0.7,2.8,0.4,4.2,0.5c0.2,0.4,0.5,0.9,0.7,1.3c-2.1,0.5-3.7,1.1-6.5,1.2
			c0.4-0.3,0.7-0.7,1.1-1C7.8,24.2,8,23.6,8.1,22.9z M7.1,23.2c0.1,0,0.2,0,0.4,0c-0.2,1-0.4,1.4-1.1,1.8c0-0.3,0-0.6,0-0.8
			C6.6,23.9,6.8,23.6,7.1,23.2z M71,23.2c0.7,0.5,0.9,0.9,1.1,1.8c-0.1,0-0.1,0-0.2,0c-0.2-0.1-0.4-0.2-0.5-0.3
			C71.3,24.2,71.2,23.7,71,23.2z M18.3,23.4c0.9,0.2,1.2,0.6,1.6,1.2c0,0.1,0,0.1,0,0.2c-1.8,0.6-3.5,1.9-4.5,3.3
			c-0.7-0.1-1.3-0.1-2-0.2C14.1,25.7,16.6,24.7,18.3,23.4z M47.5,23.9c1.7,0.3,3.2,1.7,5.6,1.2c0.9-0.2,1.5-0.9,2.4-0.8
			c0.5,0.2,1,0.3,1.4,0.5c-0.2,0.2-0.4,0.4-0.5,0.7c-3.4,1.5-6.7,1.5-9.9-0.3C46.8,24.7,47.2,24.3,47.5,23.9z M62.7,23.9
			c0.5,0.3,1,0.7,1.4,1c-0.1,0.1-0.2,0.2-0.4,0.3c-0.9,0.9-1.8,1.8-2.7,2.7c0.1,0.2,0.2,0.3,0.4,0.5c1.5,0.2,1.7,0.8,2.2,1.8
			c-2.6,0.1-4.7-0.6-6-1.8c0-0.1,0-0.1,0-0.2C59.5,27.4,61.5,25.4,62.7,23.9z M34.2,24.1c2.9,1.1,5.9,4.4,7.6,6.8
			c-0.4,0.5-0.7,1-1.1,1.5c-0.1-0.1-0.2-0.1-0.4-0.2c-1.5-3.3-5.6-4.4-7.2-7.3C33.4,24.6,33.8,24.3,34.2,24.1z M17.9,26.4
			c0.9,0.7,1.8,1.3,2.7,2c-0.1,0.1-0.1,0.2-0.2,0.3c-1.5,0.5-2.8,1.4-4.7,1.7c-5.1,0.8-11-3.6-13.7,1.5c-0.9,1.7-0.2,2.9,0.7,4.1
			c0.8,0.2,1.1,0.3,2,0.2c0-0.1,0-0.1,0-0.2c-0.5-0.8-0.9-1.1-0.9-2.5c0.6-1.2,1.4-1.9,3.3-2c9.2,3.5-2.6,6.4,1.6,10.3
			c0.5-0.1,1.1-0.1,1.6-0.2c0.4-0.3,0.7-0.6,1.1-0.8c-0.6-0.5-1.1-0.6-1.4-1.3c0-0.4,0-0.8,0-1.2c0.3-0.3,0.6-0.6,0.9-0.8
			c0.5,0.1,1,0.1,1.4,0.2c3.2,4-2.9,8.3-6,4.6c-3.7-4.4,5.5-6.1,1.3-8.7c-0.4-0.3-0.8-0.4-1.4-0.2c-0.5,0.3-0.4,0.2-0.5,0.8
			c0.7,0.4,1.2,0.6,1.4,1.5c-0.5,0.9-0.9,1.6-2,2c-6.7,1.8-6-7.3-2.5-9.3c4.3-2.5,11.6,1.5,14.6-0.5c-0.3-0.7-0.3-0.5,0-1.2
			C17.4,26.7,17.7,26.6,17.9,26.4z M63.6,26.4c1.1,0.5,1.4,1.5,2,2.5c3.1,5.9-1,10.2-6.9,11.2c-9.4,1.6-9.2-8.3-3.6-5.9
			c0.7,0.6,1.3,1.1,2,1.7c0.3-0.2,0.6-0.4,0.9-0.7c0.3-3.6-4.1-5.3-7.2-3.2c-4.1,2.8-1.9,9.1-6.3,11.5c-0.1,0-0.1,0-0.2,0
			c-0.1-2.3,0.8-3,1.3-5c1.2-5.4,1.4-8,7-9.2c5.8-1.2,10.3,6,5.4,8c-0.7,0.4-1.8,0.6-2.7,0.3c0-1.1-0.3-1.5-0.9-2
			c-1.2,0.2-1.1,0.5-1.6,1.2c1,5.7,18.9-0.7,9.8-9.3C62.9,27.2,63.3,26.8,63.6,26.4z M49,26.9c0.7,0.2,1.3,0.3,2,0.5
			c-0.5,0.5-1,1-1.4,1.5c-4.5,1.7-6.8,4.4-8.9,8.3c-0.1-0.1-0.2-0.1-0.4-0.2c-0.2-0.4-0.5-0.8-0.7-1.2C40.9,30.4,45.7,30.3,49,26.9z
			 M69.1,27.6c4.8-0.2,8,0.8,9.2,3.8c1.5,3.6-0.8,6.7-4.7,6.6c-1.3-0.6-2.2-1.2-2.3-2.8c0.5-0.3,1-0.7,1.4-1c0-0.2,0-0.3,0-0.5
			c-0.1-0.1-0.2-0.2-0.4-0.3c-0.4,0-0.8,0-1.3,0c-0.5,0.3-0.6,0.4-0.9,0.8c-2.2,2.7,2.2,2.4,2.7,4.4c1.5,5.3-4.5,5.5-7.2,3.8
			c-0.7-1.9-0.8-3.1,0.4-4.6c0.1-0.1,0.2-0.1,0.4-0.2c0.4,0.1,0.7,0.1,1.1,0.2c0.4,0.3,0.7,0.6,1.1,0.8c-0.1,0.3-0.1,0.7-0.2,1
			c-0.4,0.7-0.7,0.8-1.4,1.2c0.1,0.2,0.1,0.3,0.2,0.5c0.6,0.4,1.2,0.9,2,0.7c1-0.2,1.4-0.5,1.8-1.3c0.6-2.9-2.5-1.4-3.1-3.7
			c-0.9-3.4,3-6.9,5.6-4.6c0.4,0.3,0.7,0.7,1.1,1c0,1.7-0.8,2.4-0.5,3.2c0.1,0,0.1,0,0.2,0c3.1-0.3,3.3-4.1,1.4-5.8
			c-2-1.8-5.8-1.2-8.9-0.8c-0.2-0.5-0.4-1-0.5-1.5c0.1,0,0.2,0,0.4,0C67.4,28,68.2,27.8,69.1,27.6z M23.1,29.4
			c7.8-0.1,8.4,2.8,9.6,8.8c0.4,2.2,1.4,3,1.3,5.3c-0.1,0-0.1,0-0.2,0c-4.3-2.5-2.2-8.7-6.3-11.5c-2.4-1.6-6-1-7,1.3
			c0,0.6,0,1.1,0,1.7c0.3,0.6,0.3,0.6,1.1,0.8c0.5-1.3,1.3-1.6,2.7-2c6.2,1.9,1.8,7.3-4.7,6.2c-5.6-1-8.5-3.1-7.6-9.5
			c0.6,0.1,1.2,0.2,1.8,0.3c-0.7,4.2,1.1,5.9,4.2,7c3.4,1.3,7.4,2.3,7.6-1c-0.3-0.5-0.3-0.7-0.9-1c-0.3-0.1-0.6-0.1-0.9-0.2
			c-0.3,0.7-0.6,1.4-0.9,2.2c-1-0.2-1.9-0.3-2.9-0.5C16.7,33.6,19.4,31,23.1,29.4z M37.4,29.7c0.4,0.4,0.8,0.8,1.3,1.2
			c-0.7,1.3-1.3,2.5-2,3.8c-0.8,2.3-0.4,1.7-1.1,3.9c-0.1-0.1-0.2-0.1-0.4-0.2C34,34,35.3,32.7,37.4,29.7z M37.6,34
			c1.3,0.8,3.1,1.5,3.3,3.2c-0.2,0.4-0.5,0.9-0.7,1.3c-0.1-0.1-0.2-0.1-0.4-0.2C38.7,35.7,37,37.4,37.6,34z M43,34.2
			c2.9,2.5-1.7,7.1-2.4,8.8c-0.1-0.1-0.2-0.1-0.4-0.2c-0.2-0.5-0.5-1-0.7-1.5C40.3,38.5,42,37,43,34.2z M37.6,38.5
			c0.5-0.7,1.1-0.8,1.1-0.8l-2.5,5.6H35C35,43.4,35.1,40.1,37.6,38.5z"/>
	</defs>
	<clipPath id="SVGID_4_">
		<use xlink:href="#SVGID_3_"  style="overflow:visible;"/>
	</clipPath>
	<rect x="-10.7" y="-9.4" class="st1" width="91" height="54.5"/>
</g>
<g>
	<defs>
		<path id="SVGID_5_" d="M21.4,51.2c0-0.7-0.2-1.3-0.7-1.8c-0.5-0.5-1.2-0.7-2.1-0.7c-0.9,0-1.5,0.2-2,0.6c-0.5,0.4-0.7,0.9-0.7,1.5
			c0,0.5,0.3,1,0.8,1.3c0.5,0.3,1.4,0.7,2.6,1.1c1.8,0.5,3.1,1.1,4,1.9c0.9,0.8,1.4,1.9,1.4,3.2c0,1.4-0.5,2.4-1.6,3.2
			c-1.1,0.8-2.5,1.2-4.3,1.2c-1.7,0-3.3-0.4-4.6-1.3c-1.3-0.9-1.9-2.2-1.9-3.8l0-0.1h3.1c0,1,0.3,1.6,0.9,2.1
			c0.6,0.4,1.4,0.7,2.4,0.7c0.9,0,1.5-0.2,2-0.5s0.7-0.8,0.7-1.4c0-0.6-0.2-1.1-0.7-1.5c-0.4-0.4-1.2-0.7-2.3-1.1
			c-1.9-0.5-3.3-1.2-4.3-2c-1-0.8-1.5-1.8-1.5-3.1c0-1.3,0.6-2.4,1.7-3.2c1.1-0.8,2.5-1.2,4.3-1.2c1.8,0,3.2,0.5,4.3,1.4
			c1.1,0.9,1.6,2.1,1.6,3.5l0,0.1C24.5,51.2,21.4,51.2,21.4,51.2z M36.7,62.5v-6.6h-6.5v6.6H27v-16h3.2v6.9h6.5v-6.9h3.2v16H36.7z
			 M53.9,60.8c-1.2,1.3-2.9,1.9-4.8,1.9c-2,0-3.6-0.6-4.8-1.9c-1.2-1.3-1.8-2.9-1.8-4.9v-2.9c0-2,0.6-3.6,1.8-4.9
			c1.2-1.3,2.8-1.9,4.8-1.9c2,0,3.6,0.6,4.8,1.9c1.2,1.3,1.9,2.9,1.9,4.9v2.9C55.8,57.9,55.2,59.5,53.9,60.8z M52.6,53
			c0-1.2-0.3-2.3-0.9-3.1c-0.6-0.8-1.5-1.2-2.6-1.2c-1.1,0-1.9,0.4-2.5,1.2c-0.6,0.8-0.9,1.8-0.9,3.1V56c0,1.3,0.3,2.3,0.9,3.1
			c0.6,0.8,1.5,1.2,2.5,1.2c1.1,0,2-0.4,2.6-1.2c0.6-0.8,0.9-1.8,0.9-3.1C52.6,56,52.6,53,52.6,53z M69,55.3
			c-1.1,0.9-2.5,1.4-4.3,1.4h-3.2v5.8h-3.2v-16h6.4c1.8,0,3.3,0.5,4.3,1.4c1.1,0.9,1.6,2.2,1.6,3.7C70.6,53.1,70.1,54.4,69,55.3z
			 M66.7,49.7c-0.5-0.5-1.1-0.8-2-0.8h-3.2v5.3h3.2c0.9,0,1.6-0.2,2-0.7c0.5-0.5,0.7-1.1,0.7-1.9C67.4,50.9,67.2,50.2,66.7,49.7z"/>
	</defs>
	<clipPath id="SVGID_6_">
		<use xlink:href="#SVGID_5_"  style="overflow:visible;"/>
	</clipPath>
	<rect x="6.7" y="44.7" class="st2" width="65" height="19.1"/>
</g>
<g>
	<defs>
		<path id="SVGID_7_" d="M137.3,73.4v-8.9l-5.7,8.9h-1.5V61.9h1.5v8.9l5.7-8.9h1.5v11.6C138.8,73.4,137.3,73.4,137.3,73.4z
			 M149,73.4v-5.3h-5.8v5.3h-1.5V61.9h1.5v5h5.8v-5h1.5v11.6C150.5,73.4,149,73.4,149,73.4z M157.3,63.1v10.3h-1.5V63.1H152v-1.2
			h8.9v1.2H157.3z M170,72.2v1.2h-7.3V61.9h7.3v1.2h-5.7v3.7h5v1.2h-5v4.1C164.2,72.2,170,72.2,170,72.2z M180,66.9
			c-0.2,0.4-0.4,0.8-0.8,1.1c-0.3,0.3-0.8,0.5-1.3,0.7c-0.5,0.2-1.1,0.2-1.7,0.2h-2.7v4.5h-1.5V61.9h4.3c0.7,0,1.2,0.1,1.7,0.3
			c0.5,0.2,0.9,0.4,1.3,0.7c0.3,0.3,0.6,0.7,0.8,1.1c0.2,0.4,0.3,0.9,0.3,1.4C180.2,66,180.1,66.4,180,66.9L180,66.9z M178.6,64.5
			c-0.1-0.3-0.2-0.5-0.4-0.7c-0.2-0.2-0.5-0.4-0.8-0.5c-0.3-0.1-0.7-0.2-1.1-0.2h-2.7v4.5h2.7c0.4,0,0.8-0.1,1.1-0.2
			c0.3-0.1,0.6-0.3,0.8-0.5c0.2-0.2,0.4-0.4,0.4-0.7c0.1-0.3,0.1-0.6,0.1-0.9C178.7,65.1,178.6,64.8,178.6,64.5z M189.5,73.4v-5.3
			h-5.8v5.3h-1.5V61.9h1.5v5h5.8v-5h1.5v11.6C191,73.4,189.5,73.4,189.5,73.4z M201.1,72.2v1.2h-7.3V61.9h7.3v1.2h-5.7v3.7h5v1.2h-5
			v4.1C195.3,72.2,201.1,72.2,201.1,72.2z M207.4,63.1v10.3h-1.5V63.1h-3.7v-1.2h8.9v1.2H207.4L207.4,63.1z M215.5,69.1v-1.2h3.9
			v1.2H215.5z M235,73.4v-4.5l0.1-4.9l-3.8,9.4h-1.2l-3.8-9.3l0.1,4.8v4.5h-1.5V61.9h2l3.8,9.4l3.8-9.4h2v11.6H235L235,73.4z
			 M246.9,73.4l-1.1-3h-4.8l-1.1,3h-1.6l4.4-11.6h1.3l4.4,11.6H246.9L246.9,73.4z M243.3,63.7l-2,5.4h3.9L243.3,63.7z M251.6,63.1
			v10.3H250V61.9h7.1v1.2H251.6z M265,73.4l-1.1-3H259l-1.1,3h-1.6l4.4-11.6h1.3l4.4,11.6H265z M261.4,63.7l-2,5.4h3.9L261.4,63.7z
			 M273.7,67.5c0.7,0.2,1.2,0.6,1.5,1c0.3,0.5,0.5,1,0.5,1.7c0,0.5-0.1,1-0.3,1.4c-0.2,0.4-0.5,0.8-0.9,1.1
			c-0.4,0.3-0.8,0.5-1.3,0.7c-0.5,0.2-1.1,0.2-1.7,0.2c-0.5,0-1-0.1-1.5-0.2c-0.5-0.1-0.9-0.3-1.3-0.6c-0.4-0.3-0.7-0.6-0.9-1
			c-0.2-0.4-0.4-0.9-0.4-1.5h1.5c0,0.3,0.1,0.6,0.2,0.8c0.1,0.3,0.3,0.5,0.5,0.7c0.2,0.2,0.5,0.3,0.8,0.5c0.3,0.1,0.7,0.2,1,0.2
			c0.4,0,0.8-0.1,1.2-0.2c0.3-0.1,0.6-0.3,0.9-0.4c0.2-0.2,0.4-0.4,0.5-0.7c0.1-0.3,0.2-0.5,0.2-0.8c0-0.7-0.2-1.2-0.7-1.6
			c-0.4-0.3-1.1-0.5-2-0.5h-1.3v-1.2h1.3c0.4,0,0.8,0,1.1-0.1c0.3-0.1,0.6-0.2,0.8-0.4c0.2-0.2,0.3-0.4,0.4-0.6
			c0.1-0.2,0.1-0.5,0.1-0.8c0-0.3-0.1-0.5-0.2-0.8c-0.1-0.2-0.3-0.5-0.5-0.6c-0.2-0.2-0.5-0.3-0.8-0.4c-0.3-0.1-0.7-0.2-1.1-0.2
			c-0.3,0-0.6,0-0.9,0.1c-0.3,0.1-0.5,0.2-0.8,0.4c-0.2,0.2-0.4,0.4-0.5,0.6c-0.1,0.2-0.2,0.5-0.2,0.8h-1.5c0-0.5,0.1-0.9,0.3-1.3
			c0.2-0.4,0.5-0.7,0.8-1c0.4-0.3,0.8-0.5,1.2-0.6c0.5-0.1,1-0.2,1.5-0.2c0.6,0,1.2,0.1,1.7,0.2c0.5,0.1,0.9,0.3,1.3,0.6
			c0.4,0.3,0.6,0.6,0.8,1c0.2,0.4,0.3,0.9,0.3,1.4c0,0.5-0.2,1-0.5,1.5C274.7,66.9,274.3,67.2,273.7,67.5z M285,73.4v-8.9l-5.7,8.9
			h-1.5V61.9h1.5v8.9l5.7-8.9h1.5v11.6C286.5,73.4,285,73.4,285,73.4z M296.7,73.4v-5.3h-5.8v5.3h-1.5V61.9h1.5v5h5.8v-5h1.5v11.6
			C298.2,73.4,296.7,73.4,296.7,73.4z"/>
	</defs>
	<clipPath id="SVGID_8_">
		<use xlink:href="#SVGID_7_"  style="overflow:visible;"/>
	</clipPath>
	<rect x="119.3" y="55.1" class="st3" width="189" height="25.2"/>
</g>
<g>
	<defs>
		<path id="SVGID_9_" d="M127.1,25.5c-0.3,0.6-0.5,1.1-0.6,1.4c-0.4,1-0.6,2-0.6,2.8c0,1-0.3,1.5-0.9,1.5c-0.3,0-0.5-0.1-0.6-0.3
			c-0.1-0.2-0.2-0.4-0.3-0.6c-0.1-0.2-0.2-0.8-0.5-1.8c-0.3-1.1-0.6-1.9-1-2.5c-0.4-0.5-0.8-0.9-1.2-1c-0.4-0.1-1-0.2-1.8-0.2h-1.4
			v20h2.7v1.4h-10.4v-1.4h2.7v-20h-1.4H111c-0.6,0-1.1,0.1-1.5,0.3c-0.4,0.2-0.7,0.6-1,1.3c-0.3,0.7-0.7,1.7-1,3.2
			c-0.2,0.7-0.3,1.1-0.4,1.3c-0.1,0.2-0.3,0.3-0.7,0.3c-0.4,0-0.6-0.1-0.7-0.4c-0.1-0.3-0.2-0.6-0.2-1.1c0-0.9-0.2-1.8-0.6-2.8
			c-0.1-0.2-0.3-0.7-0.6-1.3c-0.3-0.6-0.4-1.1-0.4-1.3c0-0.3,0.1-0.6,0.4-0.9c0.2-0.3,0.6-0.4,1.1-0.4c0.1,0,0.4,0,0.9,0.1
			c0.4,0.1,0.9,0.2,1.4,0.2c0.5,0.1,1.2,0.1,2,0.1c0.2,0,0.4,0,0.6,0c0.2,0,0.4,0,0.6,0h9.6c0.1,0,0.3,0,0.6,0c0.2,0,0.4,0,0.6,0
			c0.9,0,1.5,0,2-0.1c0.5-0.1,1-0.1,1.4-0.2c0.4-0.1,0.7-0.1,0.9-0.1c0.5,0,0.8,0.1,1.1,0.4c0.2,0.3,0.4,0.5,0.4,0.9
			C127.5,24.5,127.3,25,127.1,25.5L127.1,25.5z M143.1,46.2h-3.3c-0.2,0-0.3-0.2-0.4-0.5c-0.1-0.3-0.2-0.9-0.4-1.7
			c-0.1-0.3-0.2-0.7-0.4-1.2c-0.1-0.4-0.3-0.9-0.4-1.5c-1.1,3.5-2.8,5.3-5.1,5.3c-0.9,0-1.5-0.2-2.1-0.7c-0.5-0.5-0.9-1-1.1-1.6
			c-0.2-0.6-0.3-1.3-0.3-1.9c0-0.6,0.1-1.2,0.4-1.8c0.3-0.6,0.6-1.3,1.1-1.9s0.8-1.1,1.1-1.5c0.3-0.4,0.8-0.9,1.4-1.6
			c0.3-0.3,0.6-0.7,1-1.1c0.4-0.4,0.6-0.7,0.8-0.8c0.1-0.2,0.2-0.3,0.2-0.5c0-0.3-0.1-0.6-0.2-1.1c-0.1-0.2-0.1-0.4-0.1-0.7
			c0-0.1,0.2-0.2,0.6-0.2h3.3c0.2,0,0.3,0.1,0.4,0.2c0,0.1,0,0.2,0,0.4c0,0.1,0,0.3,0.1,0.5c0,0.2,0.1,0.4,0.1,0.7
			c0.1,0.3,0.2,0.6,0.3,0.9c0.1,0.3,0.2,0.6,0.2,1c0.1,0.2,0.1,0.5,0.3,1c0.7,2.7,1.2,4.7,1.6,6c0.4,1.3,0.8,2.3,1.1,3
			c0.3,0.7,0.4,1.1,0.4,1.2C143.7,46.2,143.5,46.2,143.1,46.2z M137.1,37.5c-0.2-0.7-0.4-1.1-0.4-1.4c-0.1-0.6-0.3-1.1-0.5-1.7
			c-1.3,1.4-2.1,2.6-2.6,3.6c-0.5,1-0.7,1.8-0.7,2.4c0,0.6,0.2,1.1,0.5,1.5c0.3,0.5,0.8,0.7,1.4,0.7c0.6,0,1.1-0.1,1.5-0.4
			c0.4-0.3,0.7-0.6,1-1.1c0.2-0.4,0.3-0.8,0.3-1.1C137.6,39.5,137.4,38.7,137.1,37.5L137.1,37.5z M164.2,33.4
			c-0.5,0.7-0.8,1.3-1.1,1.8c-0.3,0.5-0.5,1.2-0.8,2l-1.7-0.3c0.3-0.7,0.4-1.4,0.4-1.9c0-1.2-0.4-2-1.2-2.4
			c-0.8-0.4-1.7-0.5-2.7-0.5h-0.6c0,0.6,0,1.1,0,1.8c0,0.6,0,1,0,1.3c0,1-0.1,1.7-0.1,2.2c0,1.1,0,2.6,0.1,4.5s0.1,3.1,0.2,3.5
			c0,0.3-0.1,0.6-0.2,0.7c-0.1,0.1-0.5,0.2-1.1,0.2h-1.9c-0.3,0-0.5-0.1-0.7-0.3c-0.1-0.2-0.2-0.5-0.2-0.9c0-0.4,0-1.3,0-2.5
			c0-0.4,0-0.8,0-1.1c0-0.4,0-0.7,0-0.9v-1.4c0-1.2,0-2.4,0.1-3.7c0-0.1,0-0.4,0-1.1c0-0.6,0-1.4,0.1-2.3h-0.6c-2.6,0-3.8,1-3.8,2.9
			c0,0.3,0.1,0.9,0.4,1.9l-1.7,0.3c-0.4-1.4-1.1-2.7-1.9-3.9c-0.4-0.6-0.5-1-0.5-1.5c0-0.3,0.1-0.6,0.3-0.8c0.2-0.2,0.4-0.3,0.6-0.3
			c0.2,0,0.8,0.1,1.9,0.2c0.9,0.1,2.3,0.2,4.2,0.2h6c1.9,0,3.3-0.1,4.2-0.2c1.1-0.2,1.7-0.2,1.9-0.2c0.2,0,0.5,0.1,0.7,0.3
			c0.2,0.2,0.3,0.5,0.3,0.8C164.8,32.3,164.6,32.8,164.2,33.4L164.2,33.4z M181.4,31.9c-0.1,0.1-0.1,0.3-0.3,0.6
			c-0.1,0.2-0.2,0.4-0.2,0.5c-0.1,0.3-0.2,0.8-0.2,1.5c0,0.6,0,1-0.1,1.3l-0.7,0c-0.2-0.6-0.6-0.8-1.2-0.8c-0.5,0-1.1,0.3-1.6,0.9
			c-0.5,0.6-1,1.7-1.3,3.4c-0.4,1.7-0.6,4.1-0.6,7.2c0,2,0,3.3,0.1,3.9c0.1,0.6,0.2,1.2,0.3,1.9c0.1,0.7,0.2,1.4,0.2,2.3
			c0,0.5-0.9,0.7-2.8,0.7c-0.3,0-0.4-0.1-0.5-0.2c-0.1-0.1-0.1-0.3-0.1-0.6c0-1,0-1.8,0.1-2.6c0.1-0.7,0.1-1.4,0.2-2.1
			c0.1-0.6,0.2-1.2,0.3-1.8c0.1-0.8,0.2-1.3,0.2-1.6h-1.9c-0.8,0-1.4,0-1.9,0c-0.5,0-0.7,0-0.8,0c-0.1,0-0.2,0-0.3-0.1
			c0-0.1-0.1-0.3-0.1-0.5v-0.7c-0.1-1.6-0.3-3.7-0.8-6c-0.4-2.4-1-4.4-1.6-6c-0.2-0.7-0.4-1.1-0.4-1.4c0-0.2,0.1-0.3,0.2-0.3
			c0.2,0,0.5-0.1,0.9-0.1c0.3,0,0.8,0,1.4,0h0.8c0.4,0,0.7,0.1,0.9,0.2c0.1,0.1,0.2,0.5,0.3,1.1c0,0.1,0.1,0.4,0.2,1.1
			c0.1,0.3,0.1,0.7,0.2,1.3c0.1,0.6,0.2,1.1,0.3,1.7c0.2,0.9,0.4,2.3,0.7,4.2c0.3,1.9,0.5,3.2,0.5,3.9c0,0.1,0,0.3,0.1,0.6h1.3
			c0.3-3.1,0.7-5.8,1.3-8.1c0.2-1,0.5-2,0.9-2.8c0.3-0.9,0.8-1.6,1.5-2.4c0.7-0.7,1.6-1.1,2.7-1.1c1,0,1.5,0.2,1.5,0.7
			C181.4,31.6,181.4,31.7,181.4,31.9L181.4,31.9z M196.8,33c-0.3,1.5-0.4,3-0.4,4.5c0,2.6,0.2,5.3,0.5,7.8c0,0.3-0.1,0.6-0.2,0.7
			c-0.1,0.1-0.5,0.2-1.1,0.2h-1.9c-0.3,0-0.5-0.1-0.7-0.3c-0.2-0.2-0.3-0.7-0.4-1.5c-0.1-0.8-0.2-1.9-0.2-3.4c0-1.8,0.1-3.7,0.2-5.6
			l-5.5,3.3c0.1,2.3,0.2,4.4,0.5,6.5c0,0.3-0.1,0.6-0.2,0.7c-0.1,0.1-0.5,0.2-1.1,0.2h-1.9c-0.3,0-0.5-0.1-0.7-0.2
			c-0.1-0.2-0.2-0.5-0.3-1c0-0.9-0.1-1.6-0.1-2c-0.1-1.6-0.2-3.3-0.2-5.3c0-1.4,0-2.6,0.1-3.6c0.1-0.9,0.1-1.6,0.2-2
			c0.1-0.4,0.2-0.6,0.3-0.8c0.1-0.1,0.3-0.2,0.5-0.2h2.9c0.3,0,0.4,0.2,0.4,0.5c0,0.1-0.1,0.5-0.2,1.3c-0.3,1.7-0.4,3.2-0.4,4.5
			l5.5-3.3c0.1-1.2,0.1-1.9,0.2-2.2c0-0.3,0.1-0.5,0.2-0.6c0.1-0.1,0.4-0.2,0.7-0.2h2.8c0.3,0,0.4,0.2,0.4,0.5
			C196.9,31.8,196.9,32.2,196.8,33L196.8,33z M211.6,43.6c-0.4,1-0.9,1.8-1.6,2.3c-0.7,0.6-1.5,0.8-2.3,0.8c-0.8,0-1.6-0.3-2.4-0.8
			c-0.8-0.6-1.4-1.2-1.9-2c0,0.1,0.1,0.5,0.1,1.1c0.2,1.5,0.3,3.2,0.3,5.2c0,1.6-0.2,2.8-0.5,3.4c-0.4,0.6-0.9,1-1.5,1
			c-0.4,0-0.7-0.1-0.7-0.3v-0.2c0-0.4,0-1.3,0-2.7c0-1.5-0.1-2.9-0.2-4.3c-0.1-0.9-0.2-1.9-0.3-3.1c-0.1-1.2-0.2-2.1-0.2-2.6
			c0-0.6-0.1-1.2-0.1-2c0-1.8,0.4-3.4,1.1-4.8c0.7-1.4,1.6-2.5,2.6-3.3c1-0.8,1.8-1.2,2.4-1.2c0.5,0,1.1,0.3,1.8,0.8
			c0.7,0.5,1.3,1.3,1.9,2.2c0.6,0.9,1.1,2,1.5,3.3c0.4,1.2,0.6,2.5,0.6,3.8C212.2,41.4,212,42.6,211.6,43.6z M208.7,41
			c-0.1-0.8-0.3-1.8-0.7-2.9c-0.4-1.1-0.9-2.1-1.6-3.1c-0.7-0.9-1.4-1.6-2.2-2c-0.5,0.8-0.9,1.5-1.1,2.3c-0.2,0.8-0.3,1.7-0.3,2.8
			c0,1.3,0.2,2.4,0.7,3.4c0.4,1,1,1.8,1.6,2.4c0.6,0.6,1.2,0.8,1.8,0.8c0.4,0,0.8-0.2,1.1-0.5c0.4-0.4,0.6-1,0.6-2L208.7,41
			L208.7,41z M226.5,40.9c-0.4,1.1-0.9,2.2-1.5,3.2c-0.6,1-1.3,1.8-2,2.4c-0.7,0.6-1.3,0.9-1.8,0.9c-0.7,0-1.5-0.4-2.5-1.2
			c-1-0.8-1.8-1.8-2.5-3c-0.7-1.2-1-2.4-1-3.5c0-1.7,0.4-3.3,1.1-4.8c0.7-1.5,1.5-2.7,2.5-3.6c1-0.9,1.7-1.3,2.3-1.3
			c0.4,0,0.9,0.2,1.6,0.5c0.7,0.3,1.4,0.8,2,1.4c0.7,0.6,1.2,1.5,1.7,2.4c0.5,1,0.7,2.1,0.7,3.4C227,38.7,226.9,39.8,226.5,40.9z
			 M223.7,37.6c-0.5-1.1-1.2-2-2.1-2.7c-0.9-0.7-1.9-1.1-3.1-1.3c-0.7,0.8-1,1.7-1,2.6c0,0.9,0.2,1.9,0.7,3c0.5,1.1,1.2,2.1,2.1,2.9
			c1,0.8,2.1,1.2,3.5,1.2c0.4-0.7,0.6-1.5,0.6-2.4C224.4,39.8,224.1,38.7,223.7,37.6z M241.6,40c1.6,1,2.4,2.3,2.4,4
			c0,0.6-0.1,1.1-0.4,1.4c-0.3,0.3-0.6,0.5-1,0.6c-0.4,0.1-0.9,0.1-1.6,0.1h-10c-0.3,0-0.5-0.1-0.6-0.2c-0.1-0.1-0.3-0.5-0.3-1
			c-0.1-0.5-0.1-1.3-0.1-2.3c0-0.8,0-1.5,0-2c0.1-2.8,0.1-4.7,0.2-5.7c0-1,0.1-1.8,0.2-2.4c0.1-0.6,0.2-1,0.3-1.1
			c0.1-0.2,0.4-0.3,0.7-0.3h7.8c1.1,0,1.9,0.1,2.4,0.3s0.7,0.7,0.7,1.5c0,1.2-0.5,2.2-1.5,2.9c-1,0.7-2.4,1.3-4.3,1.9v0.2
			C238.4,38.4,240.1,39.1,241.6,40L241.6,40z M237.6,35.1c0.3-0.6,0.5-1.1,0.5-1.6c0-0.5-0.2-0.9-0.5-1c-0.3-0.2-0.9-0.3-1.6-0.3
			c-0.3,0-0.9,0-1.7,0.1c-0.2,1.5-0.2,3.1-0.2,4.8c0.8,0,1.5-0.2,2.1-0.6C236.8,36.2,237.3,35.7,237.6,35.1z M234.1,38.4
			c0,0,0,0.4,0,1.1c0,0.7,0,1.2,0,1.6c0,0.8,0,2.1,0.1,4c0,0,0.3,0,0.8,0c0.5,0,0.9,0,1.2,0c0.8,0,1.4,0,1.8-0.1
			c0.4-0.1,0.7-0.2,0.9-0.5c0.2-0.3,0.3-0.7,0.3-1.3c0-0.6-0.2-1.3-0.6-2.1c-0.4-0.8-1-1.4-1.8-1.9
			C236.1,38.7,235.2,38.4,234.1,38.4z M259.3,32.9c-0.1,0.4-0.2,0.9-0.3,1.7c0,0.1,0,0.3,0,0.4c0,0.1,0,0.2,0,0.3l-0.8,0
			c-0.3-0.7-0.8-1-1.5-1c-0.5,0-1.2,0.3-1.9,0.9c-0.7,0.6-1.3,1.3-1.8,2.2c-0.3,0.4-0.5,0.7-0.7,1c1.5,0.4,2.8,1,3.8,1.7
			c1,0.7,1.8,1.4,2.4,2.2c0.6,0.8,1,1.5,1.2,2.1c0.2,0.6,0.3,1.2,0.3,1.6c0,0.3-0.4,0.4-1.2,0.4c-0.2,0-0.4,0-0.6-0.1
			c-0.3,0-0.4,0-0.6,0c-0.5,0-0.8,0-1.1,0.1c-0.3,0-0.5,0.1-0.6,0.1c-0.2,0-0.4-0.1-0.4-0.3c-0.1-0.2-0.2-0.6-0.3-1.1
			c-0.1-0.9-0.4-1.8-0.8-2.5c-0.4-0.8-0.9-1.5-1.5-2c-0.6-0.6-1.3-1-2-1.2c0,2.5,0.1,4.5,0.3,6.1v0.4c0,0.4-0.5,0.6-1.5,0.6h-1.5
			c-0.3,0-0.6-0.1-0.7-0.2c-0.1-0.1-0.3-0.5-0.3-1c-0.1-0.5-0.1-1.4-0.1-2.5c0-1.1,0-2.8,0-4.9c0-2,0-3.4,0.1-4.4
			c0.1-0.9,0.2-1.5,0.4-1.8c0.2-0.3,0.4-0.4,0.8-0.4c0.1,0,0.2,0,0.4,0s0.3,0,0.4,0c0.5,0,1.1,0,1.6-0.1h0.4
			c0.3,0.1,0.4,0.2,0.4,0.5c0,0.2-0.1,0.7-0.2,1.5c-0.2,1.5-0.3,3.1-0.3,5h0.3c2.7-4.9,5.1-7.3,7.3-7.3c0.4,0,0.7,0.1,1,0.2
			c0.3,0.1,0.4,0.2,0.4,0.4c0,0.2-0.1,0.4-0.3,0.7C259.6,32.3,259.5,32.6,259.3,32.9L259.3,32.9z M275.6,46.2h-3.3
			c-0.2,0-0.3-0.2-0.4-0.5c-0.1-0.3-0.2-0.9-0.4-1.7c-0.1-0.3-0.2-0.7-0.4-1.2c-0.1-0.4-0.3-0.9-0.4-1.5c-1.1,3.5-2.8,5.3-5.1,5.3
			c-0.9,0-1.5-0.2-2.1-0.7c-0.5-0.5-0.9-1-1.1-1.6c-0.2-0.6-0.3-1.3-0.3-1.9c0-0.6,0.1-1.2,0.4-1.8c0.3-0.6,0.6-1.3,1.1-1.9
			c0.4-0.6,0.8-1.1,1.1-1.5c0.3-0.4,0.8-0.9,1.4-1.6c0.3-0.3,0.6-0.7,1-1.1c0.4-0.4,0.6-0.7,0.8-0.8c0.1-0.2,0.2-0.3,0.2-0.5
			c0-0.3-0.1-0.6-0.2-1.1c-0.1-0.2-0.1-0.4-0.1-0.7c0-0.1,0.2-0.2,0.7-0.2h3.3c0.2,0,0.3,0.1,0.4,0.2c0,0.1,0,0.2,0,0.4
			c0,0.1,0,0.3,0.1,0.5c0,0.2,0.1,0.4,0.1,0.7c0.1,0.3,0.2,0.6,0.3,0.9c0.1,0.3,0.2,0.6,0.2,1c0.1,0.2,0.1,0.5,0.3,1
			c0.7,2.7,1.2,4.7,1.6,6c0.4,1.3,0.8,2.3,1.1,3c0.3,0.7,0.4,1.1,0.4,1.2C276.2,46.2,276,46.2,275.6,46.2L275.6,46.2z M269.6,37.5
			c-0.2-0.7-0.4-1.1-0.4-1.4c-0.1-0.6-0.3-1.1-0.5-1.7c-1.3,1.4-2.1,2.6-2.6,3.6c-0.5,1-0.7,1.8-0.7,2.4c0,0.6,0.2,1.1,0.5,1.5
			c0.3,0.5,0.8,0.7,1.4,0.7c0.6,0,1.1-0.1,1.5-0.4c0.4-0.3,0.7-0.6,1-1.1c0.2-0.4,0.3-0.8,0.3-1.1C270.1,39.5,269.9,38.7,269.6,37.5
			z M283,44.2c0,0.1,0,0.4,0,0.7c0,0.3,0,0.6,0,0.8c0,0.3-0.1,0.4-0.4,0.5h-0.3c-0.6,0-1.1-0.1-1.4-0.1c-0.5,0-0.8,0-1.1,0
			c-0.4,0-0.6-0.1-0.6-0.2c-0.1-0.2-0.2-0.8-0.2-1.8c0-0.6,0-1.1,0.1-1.4c0.1-0.3,0.1-0.4,0.2-0.5c0.1-0.1,0.3-0.1,0.5-0.1
			c0.3,0,0.7,0,1.1,0c0.3,0,0.8,0,1.4-0.1h0.3c0.3,0,0.4,0.2,0.4,0.5c0,0.2,0,0.5,0,0.8C283,43.8,283,44.1,283,44.2z M298.1,43.6
			c-0.4,1-0.9,1.8-1.6,2.3c-0.7,0.6-1.5,0.8-2.3,0.8c-0.8,0-1.6-0.3-2.4-0.8c-0.8-0.6-1.4-1.2-1.9-2c0,0.1,0.1,0.5,0.1,1.1
			c0.2,1.5,0.3,3.2,0.3,5.2c0,1.6-0.2,2.8-0.5,3.4c-0.4,0.6-0.9,1-1.5,1c-0.4,0-0.7-0.1-0.7-0.3v-0.2c0-0.4,0-1.3,0-2.7
			c0-1.5-0.1-2.9-0.2-4.3c-0.1-0.9-0.2-1.9-0.3-3.1c-0.1-1.2-0.2-2.1-0.2-2.6c0-0.6-0.1-1.2-0.1-2c0-1.8,0.4-3.4,1.1-4.8
			c0.7-1.4,1.6-2.5,2.6-3.3c1-0.8,1.8-1.2,2.4-1.2c0.5,0,1.1,0.3,1.8,0.8c0.7,0.5,1.3,1.3,1.9,2.2c0.6,0.9,1.1,2,1.5,3.3
			c0.4,1.2,0.6,2.5,0.6,3.8C298.6,41.4,298.4,42.6,298.1,43.6L298.1,43.6z M295.2,41c-0.1-0.8-0.3-1.8-0.7-2.9
			c-0.4-1.1-0.9-2.1-1.6-3.1c-0.7-0.9-1.4-1.6-2.2-2c-0.5,0.8-0.9,1.5-1.1,2.3c-0.2,0.8-0.3,1.7-0.3,2.8c0,1.3,0.2,2.4,0.7,3.4
			c0.4,1,1,1.8,1.6,2.4c0.6,0.6,1.2,0.8,1.8,0.8c0.4,0,0.8-0.2,1.1-0.5c0.4-0.4,0.6-1,0.6-2V41z M322.6,43.7c-0.4,0.8-1,1.5-1.9,2.1
			c-0.8,0.6-1.9,0.8-3.2,0.8c-1.5,0-2.8-0.4-3.8-1.1v9.1H311v-9.1c-1,0.7-2.3,1.1-3.8,1.1c-1.5,0-2.8-0.5-4-1.4
			c-1.1-1-1.7-2.2-1.7-3.8c0-0.8,0.1-1.5,0.4-2.1c0.2-0.6,0.6-1.2,1.1-1.8c0.5-0.6,1.1-1.2,1.7-1.7c0.7-0.6,1.6-1.3,2.8-2.2
			c1-0.8,1.8-1.4,2.3-1.9c0.5-0.5,0.8-1,0.9-1.4c0.1-0.4,0.2-0.9,0.2-1.5l-0.1-2.5c0-0.3,0-0.5,0-0.7c0-0.2,0-0.4,0-0.5
			c0-0.1,0-0.3,0-0.4c0-0.1,0-0.2,0-0.3c0-0.3,0.4-0.6,1.1-0.8c0.8-0.2,1.4-0.3,1.9-0.3c0.2,0,0.4,0.1,0.4,0.3
			c0.1,0.2,0.1,0.5,0.1,1l-0.2,4.1c0,0.8,0.1,1.4,0.4,2c0.3,0.5,0.6,1,1,1.4c0.4,0.4,1,0.9,1.9,1.5c1.4,1,2.4,1.9,3.2,2.6
			c0.8,0.7,1.4,1.5,2,2.4c0.5,0.9,0.8,1.8,0.8,2.9C323.1,42.1,322.9,42.9,322.6,43.7z M310.8,32.6c-0.4,0.4-0.8,0.8-1.3,1.2
			c-1,0.9-1.7,1.5-2.2,2c-0.4,0.5-0.8,1-1.2,1.7c-0.3,0.7-0.5,1.4-0.5,2.3c0,1.1,0.2,2,0.6,2.8c0.4,0.7,0.9,1.3,1.5,1.6
			c0.6,0.3,1.3,0.5,1.9,0.5c0.5,0,0.9-0.1,1.3-0.3L310.8,32.6L310.8,32.6z M318.7,37.5c-0.3-0.6-0.6-1.1-1-1.5
			c-0.4-0.4-0.9-0.9-1.6-1.4c-0.4-0.3-0.8-0.7-1.3-1.2c-0.2-0.3-0.5-0.5-0.8-0.8l-0.2,11.8c0.4,0.2,0.9,0.3,1.3,0.3
			c0.6,0,1.3-0.2,1.9-0.5c0.6-0.4,1.1-0.9,1.5-1.6c0.4-0.7,0.6-1.7,0.6-2.8C319.1,38.9,318.9,38.1,318.7,37.5L318.7,37.5z"/>
	</defs>
	<clipPath id="SVGID_10_">
		<use xlink:href="#SVGID_9_"  style="overflow:visible;"/>
	</clipPath>
	<rect x="95.7" y="13.9" class="st4" width="231.3" height="44"/>
</g>
</svg>
