<?xml version="1.0" encoding="utf-8"?>
<!-- Generator: Adobe Illustrator 19.2.0, SVG Export Plug-In . SVG Version: 6.00 Build 0)  -->
<svg version="1.1"
	 id="svg2" xmlns:cc="http://creativecommons.org/ns#" xmlns:dc="http://purl.org/dc/elements/1.1/" xmlns:rdf="http://www.w3.org/1999/02/22-rdf-syntax-ns#" xmlns:svg="http://www.w3.org/2000/svg"
	 xmlns="http://www.w3.org/2000/svg" xmlns:xlink="http://www.w3.org/1999/xlink" x="0px" y="0px" viewBox="0 0 201.3 58.8"
	 style="enable-background:new 0 0 201.3 58.8;" xml:space="preserve">
<style type="text/css">
	.st0{clip-path:url(#SVGID_2_);fill:#FFFFFF;}
	.st1{clip-path:url(#SVGID_4_);fill:#FFCC00;enable-background:new    ;}
	.st2{clip-path:url(#SVGID_6_);fill:#FFCC00;}
	.st3{clip-path:url(#SVGID_8_);fill:#FFCC00;}
	.st4{clip-path:url(#SVGID_10_);fill:#FFFFFF;}
</style>
<g id="g20">
	<defs>
		<path id="SVGID_1_" d="M79.4,13.4c-0.2,0.4-0.3,0.6-0.4,0.8c-0.2,0.6-0.4,1.2-0.4,1.7c0,0.6-0.2,0.9-0.6,0.9
			c-0.2,0-0.3-0.1-0.4-0.2c-0.1-0.1-0.1-0.2-0.2-0.4c0-0.1-0.1-0.5-0.3-1.1c-0.2-0.7-0.4-1.2-0.6-1.5c-0.2-0.3-0.5-0.5-0.7-0.6
			c-0.3-0.1-0.7-0.1-1.1-0.1h-0.9v12.3h1.7v0.8h-6.5v-0.8h1.7V13h-0.9h-0.5c-0.4,0-0.7,0.1-0.9,0.2c-0.2,0.1-0.4,0.4-0.6,0.8
			c-0.2,0.4-0.4,1.1-0.6,2c-0.1,0.4-0.2,0.7-0.3,0.8c-0.1,0.1-0.2,0.2-0.4,0.2c-0.2,0-0.4-0.1-0.5-0.3C66,16.5,66,16.3,66,16
			c0-0.5-0.1-1.1-0.4-1.7c-0.1-0.2-0.2-0.4-0.3-0.8c-0.2-0.4-0.3-0.7-0.3-0.8c0-0.2,0.1-0.4,0.2-0.5c0.2-0.2,0.4-0.2,0.7-0.2
			c0.1,0,0.3,0,0.6,0.1c0.3,0.1,0.6,0.1,0.9,0.2c0.3,0,0.7,0.1,1.3,0.1c0.1,0,0.2,0,0.4,0c0.1,0,0.3,0,0.3,0h6c0.1,0,0.2,0,0.4,0
			c0.1,0,0.3,0,0.4,0c0.5,0,1,0,1.3-0.1c0.3,0,0.6-0.1,0.9-0.2c0.3-0.1,0.5-0.1,0.6-0.1c0.3,0,0.5,0.1,0.7,0.2
			c0.1,0.2,0.2,0.3,0.2,0.5C79.7,12.8,79.6,13.1,79.4,13.4z M89.4,26.2h-2.1c-0.1,0-0.2-0.1-0.2-0.3c0-0.2-0.1-0.6-0.3-1
			c-0.1-0.2-0.1-0.4-0.2-0.8c-0.1-0.3-0.2-0.6-0.3-0.9c-0.7,2.2-1.7,3.2-3.2,3.2c-0.5,0-1-0.1-1.3-0.4c-0.3-0.3-0.6-0.6-0.7-1
			c-0.1-0.4-0.2-0.8-0.2-1.2c0-0.4,0.1-0.7,0.3-1.1c0.2-0.4,0.4-0.8,0.7-1.2c0.3-0.4,0.5-0.7,0.7-0.9c0.2-0.2,0.5-0.6,0.9-1
			c0.2-0.2,0.4-0.4,0.6-0.7c0.2-0.2,0.4-0.4,0.5-0.5c0.1-0.1,0.1-0.2,0.1-0.3c0-0.2,0-0.4-0.1-0.7c0-0.1-0.1-0.3-0.1-0.4
			c0-0.1,0.1-0.1,0.4-0.1H87c0.1,0,0.2,0,0.2,0.1c0,0.1,0,0.1,0,0.2c0,0.1,0,0.2,0,0.3c0,0.1,0,0.3,0.1,0.4c0.1,0.2,0.1,0.4,0.2,0.5
			c0.1,0.2,0.1,0.4,0.2,0.6c0,0.1,0.1,0.3,0.2,0.6c0.4,1.6,0.8,2.9,1,3.7c0.3,0.8,0.5,1.4,0.7,1.8c0.2,0.4,0.3,0.7,0.3,0.8
			C89.8,26.1,89.7,26.2,89.4,26.2L89.4,26.2z M85.7,20.8c-0.1-0.4-0.2-0.7-0.3-0.9c-0.1-0.3-0.2-0.7-0.3-1.1
			c-0.8,0.8-1.3,1.6-1.6,2.2c-0.3,0.6-0.4,1.1-0.4,1.5c0,0.3,0.1,0.7,0.3,0.9c0.2,0.3,0.5,0.4,0.9,0.4c0.4,0,0.7-0.1,0.9-0.3
			c0.3-0.2,0.5-0.4,0.6-0.6c0.1-0.3,0.2-0.5,0.2-0.7C86,22,85.9,21.5,85.7,20.8z M102.5,18.2c-0.3,0.4-0.5,0.8-0.7,1.1
			c-0.2,0.3-0.3,0.7-0.5,1.2l-1.1-0.2c0.2-0.5,0.3-0.8,0.3-1.1c0-0.8-0.2-1.2-0.7-1.5c-0.5-0.2-1-0.3-1.7-0.3h-0.4
			c0,0.3,0,0.7,0,1.1c0,0.4,0,0.6,0,0.8c0,0.6,0,1,0,1.4c0,0.7,0,1.6,0,2.7c0,1.2,0.1,1.9,0.1,2.2c0,0.2,0,0.4-0.1,0.4
			c-0.1,0.1-0.3,0.1-0.7,0.1h-1.2c-0.2,0-0.3-0.1-0.4-0.2c-0.1-0.1-0.1-0.3-0.1-0.6c0-0.3,0-0.8,0-1.5c0-0.2,0-0.5,0-0.7
			c0-0.2,0-0.4,0-0.5v-0.9c0-0.7,0-1.5,0-2.3c0-0.1,0-0.3,0-0.7c0-0.4,0-0.8,0-1.4h-0.4c-1.6,0-2.4,0.6-2.4,1.8
			c0,0.2,0.1,0.6,0.3,1.1l-1.1,0.2c-0.3-0.8-0.7-1.6-1.2-2.4c-0.2-0.3-0.3-0.6-0.3-0.9c0-0.2,0.1-0.4,0.2-0.5
			c0.1-0.1,0.3-0.2,0.4-0.2c0.1,0,0.5,0,1.2,0.1c0.6,0.1,1.4,0.1,2.6,0.1h3.8c1.2,0,2.1,0,2.6-0.1c0.7-0.1,1.1-0.1,1.2-0.1
			c0.2,0,0.3,0.1,0.4,0.2c0.1,0.1,0.2,0.3,0.2,0.5C102.9,17.6,102.8,17.9,102.5,18.2L102.5,18.2z M113.2,17.3c0,0.1-0.1,0.2-0.2,0.4
			c-0.1,0.1-0.1,0.2-0.1,0.3c-0.1,0.2-0.1,0.5-0.1,0.9c0,0.3,0,0.6,0,0.8l-0.5,0c-0.1-0.3-0.4-0.5-0.8-0.5c-0.3,0-0.7,0.2-1,0.5
			c-0.3,0.4-0.6,1.1-0.8,2.1c-0.2,1-0.3,2.5-0.3,4.4c0,1.2,0,2,0.1,2.4c0,0.4,0.1,0.8,0.2,1.2c0.1,0.4,0.1,0.9,0.1,1.4
			c0,0.3-0.6,0.5-1.7,0.5c-0.2,0-0.3,0-0.3-0.1c0-0.1-0.1-0.2-0.1-0.3c0-0.6,0-1.1,0.1-1.6c0-0.5,0.1-0.9,0.1-1.3
			c0.1-0.4,0.1-0.8,0.2-1.1c0.1-0.5,0.1-0.8,0.1-1H107c-0.5,0-0.9,0-1.2,0c-0.3,0-0.5,0-0.5,0c-0.1,0-0.1,0-0.2-0.1
			c0-0.1,0-0.2,0-0.3v-0.4c0-1-0.2-2.3-0.5-3.7c-0.3-1.5-0.6-2.7-1-3.7c-0.1-0.4-0.2-0.7-0.2-0.9c0-0.1,0-0.2,0.1-0.2
			c0.1,0,0.3,0,0.6,0c0.2,0,0.5,0,0.9,0h0.5c0.3,0,0.5,0,0.5,0.1c0.1,0.1,0.1,0.3,0.2,0.7c0,0,0.1,0.3,0.1,0.7
			c0,0.2,0.1,0.4,0.2,0.8c0.1,0.4,0.1,0.7,0.2,1c0.1,0.5,0.3,1.4,0.4,2.6c0.2,1.2,0.3,2,0.3,2.4c0,0.1,0,0.2,0,0.3h0.8
			c0.2-1.9,0.4-3.6,0.8-5c0.2-0.6,0.3-1.2,0.5-1.7c0.2-0.5,0.5-1,1-1.5c0.4-0.4,1-0.7,1.7-0.7c0.6,0,1,0.1,1,0.4
			C113.3,17.1,113.3,17.2,113.2,17.3z M122.8,18c-0.2,0.9-0.2,1.8-0.2,2.8c0,1.6,0.1,3.2,0.3,4.8c0,0.2,0,0.4-0.1,0.5
			c-0.1,0.1-0.3,0.1-0.7,0.1h-1.2c-0.2,0-0.3-0.1-0.4-0.2c-0.1-0.1-0.2-0.4-0.3-0.9c-0.1-0.5-0.1-1.2-0.1-2.1c0-1.1,0-2.3,0.1-3.4
			l-3.4,2c0,1.4,0.1,2.7,0.3,4c0,0.2,0,0.4-0.1,0.5c-0.1,0.1-0.3,0.1-0.7,0.1h-1.2c-0.2,0-0.3-0.1-0.4-0.2c-0.1-0.1-0.1-0.3-0.2-0.6
			c0-0.5-0.1-1-0.1-1.3c-0.1-1-0.1-2.1-0.1-3.3c0-0.9,0-1.6,0.1-2.2c0-0.6,0.1-1,0.1-1.2c0.1-0.2,0.1-0.4,0.2-0.5
			c0.1-0.1,0.2-0.1,0.3-0.1h1.8c0.2,0,0.3,0.1,0.3,0.3c0,0.1,0,0.3-0.1,0.8c-0.2,1-0.2,1.9-0.2,2.8l3.4-2c0-0.7,0.1-1.2,0.1-1.4
			c0-0.2,0.1-0.3,0.1-0.4c0.1-0.1,0.2-0.1,0.4-0.1h1.8c0.2,0,0.3,0.1,0.3,0.3C122.9,17.3,122.9,17.5,122.8,18L122.8,18z M132.1,24.5
			c-0.2,0.6-0.6,1.1-1,1.4c-0.4,0.3-0.9,0.5-1.4,0.5c-0.5,0-1-0.2-1.5-0.5c-0.5-0.3-0.9-0.8-1.2-1.2c0,0.1,0,0.3,0.1,0.7
			c0.1,0.9,0.2,2,0.2,3.2c0,1-0.1,1.7-0.3,2.1c-0.2,0.4-0.5,0.6-0.9,0.6c-0.3,0-0.4-0.1-0.5-0.2V31c0-0.3,0-0.8,0-1.6
			c0-0.9,0-1.8-0.1-2.7c0-0.5-0.1-1.2-0.2-1.9c-0.1-0.7-0.1-1.3-0.1-1.6c0-0.4,0-0.8,0-1.2c0-1.1,0.2-2.1,0.7-3
			c0.5-0.9,1-1.6,1.6-2.1c0.6-0.5,1.1-0.7,1.5-0.7c0.3,0,0.7,0.2,1.1,0.5c0.4,0.3,0.8,0.8,1.2,1.4c0.4,0.6,0.7,1.3,0.9,2
			c0.3,0.8,0.4,1.5,0.4,2.3C132.4,23.2,132.3,23.9,132.1,24.5z M130.3,23c0-0.5-0.2-1.1-0.4-1.8c-0.3-0.7-0.6-1.3-1-1.9
			c-0.4-0.6-0.9-1-1.4-1.2c-0.3,0.5-0.5,0.9-0.7,1.4c-0.1,0.5-0.2,1-0.2,1.7c0,0.8,0.1,1.5,0.4,2.1c0.3,0.6,0.6,1.1,1,1.5
			c0.4,0.3,0.8,0.5,1.1,0.5c0.2,0,0.5-0.1,0.7-0.3c0.2-0.2,0.4-0.6,0.4-1.2L130.3,23L130.3,23z M141.3,22.9
			c-0.2,0.7-0.6,1.3-0.9,1.9c-0.4,0.6-0.8,1.1-1.2,1.5c-0.4,0.4-0.8,0.6-1.1,0.6c-0.4,0-1-0.2-1.6-0.7c-0.6-0.5-1.1-1.1-1.5-1.9
			c-0.4-0.7-0.6-1.5-0.6-2.1c0-1,0.2-2,0.7-2.9c0.4-0.9,1-1.6,1.6-2.2c0.6-0.5,1.1-0.8,1.4-0.8c0.3,0,0.6,0.1,1,0.3
			c0.4,0.2,0.8,0.5,1.3,0.9c0.4,0.4,0.8,0.9,1.1,1.5c0.3,0.6,0.4,1.3,0.4,2.1C141.6,21.5,141.5,22.2,141.3,22.9L141.3,22.9z
			 M139.5,20.8c-0.3-0.7-0.7-1.2-1.3-1.7c-0.6-0.4-1.2-0.7-1.9-0.8c-0.4,0.5-0.6,1.1-0.6,1.6c0,0.5,0.1,1.2,0.4,1.8
			c0.3,0.7,0.7,1.3,1.3,1.8c0.6,0.5,1.3,0.7,2.2,0.7c0.2-0.4,0.3-0.9,0.3-1.5C140,22.2,139.8,21.5,139.5,20.8z M150.7,22.4
			c1,0.6,1.5,1.4,1.5,2.5c0,0.4-0.1,0.7-0.2,0.9c-0.2,0.2-0.4,0.3-0.6,0.4c-0.2,0.1-0.6,0.1-1,0.1h-6.2c-0.2,0-0.3,0-0.4-0.1
			c-0.1-0.1-0.2-0.3-0.2-0.6c0-0.3-0.1-0.8-0.1-1.4c0-0.5,0-0.9,0-1.2c0-1.7,0.1-2.9,0.1-3.5c0-0.6,0.1-1.1,0.1-1.5
			c0-0.4,0.1-0.6,0.2-0.7c0.1-0.1,0.2-0.2,0.4-0.2h4.9c0.7,0,1.2,0.1,1.5,0.2c0.3,0.1,0.4,0.5,0.4,0.9c0,0.7-0.3,1.3-0.9,1.8
			c-0.6,0.4-1.5,0.8-2.7,1.2V21C148.7,21.3,149.7,21.7,150.7,22.4L150.7,22.4z M148.2,19.3c0.2-0.3,0.3-0.7,0.3-1
			c0-0.3-0.1-0.5-0.3-0.6c-0.2-0.1-0.5-0.2-1-0.2c-0.2,0-0.5,0-1.1,0c-0.1,0.9-0.1,1.9-0.1,3c0.5,0,1-0.1,1.3-0.4
			C147.7,20,148,19.7,148.2,19.3z M146,21.3c0,0,0,0.2,0,0.7c0,0.4,0,0.8,0,1c0,0.5,0,1.3,0.1,2.5c0,0,0.2,0,0.5,0
			c0.3,0,0.6,0,0.8,0c0.5,0,0.9,0,1.1-0.1c0.3,0,0.5-0.1,0.6-0.3c0.1-0.2,0.2-0.4,0.2-0.8c0-0.4-0.1-0.8-0.4-1.3
			c-0.3-0.5-0.6-0.9-1.1-1.2C147.3,21.5,146.7,21.3,146,21.3L146,21.3z M161.8,18c-0.1,0.2-0.1,0.6-0.2,1.1c0,0.1,0,0.2,0,0.2
			c0,0.1,0,0.1,0,0.2l-0.5,0c-0.2-0.4-0.5-0.6-0.9-0.6c-0.3,0-0.7,0.2-1.2,0.6c-0.4,0.4-0.8,0.8-1.1,1.3c-0.2,0.2-0.3,0.4-0.4,0.6
			c0.9,0.3,1.7,0.6,2.4,1c0.6,0.4,1.1,0.9,1.5,1.3c0.4,0.5,0.6,0.9,0.8,1.3c0.1,0.4,0.2,0.7,0.2,1c0,0.2-0.2,0.3-0.7,0.3
			c-0.1,0-0.2,0-0.4,0c-0.2,0-0.3,0-0.3,0c-0.3,0-0.5,0-0.7,0c-0.2,0-0.3,0-0.4,0c-0.1,0-0.2-0.1-0.3-0.2c-0.1-0.1-0.1-0.3-0.2-0.7
			c-0.1-0.6-0.3-1.1-0.5-1.6c-0.2-0.5-0.5-0.9-0.9-1.2c-0.4-0.3-0.8-0.6-1.3-0.7c0,1.5,0.1,2.8,0.2,3.8v0.2c0,0.2-0.3,0.4-0.9,0.4
			h-0.9c-0.2,0-0.4,0-0.4-0.1c-0.1-0.1-0.2-0.3-0.2-0.6c0-0.3-0.1-0.8-0.1-1.5c0-0.7,0-1.7,0-3c0-1.2,0-2.1,0.1-2.7
			c0-0.6,0.1-0.9,0.2-1.1c0.1-0.2,0.3-0.2,0.5-0.2c0.1,0,0.1,0,0.3,0c0.1,0,0.2,0,0.3,0c0.3,0,0.7,0,1-0.1h0.2
			c0.2,0,0.2,0.1,0.2,0.3c0,0.1,0,0.4-0.1,0.9c-0.1,0.9-0.2,1.9-0.2,3.1h0.2c1.7-3,3.2-4.5,4.5-4.5c0.2,0,0.4,0,0.6,0.1
			c0.2,0.1,0.3,0.1,0.3,0.2c0,0.1-0.1,0.3-0.2,0.4C161.9,17.6,161.8,17.7,161.8,18L161.8,18z M171.8,26.2h-2.1
			c-0.1,0-0.2-0.1-0.2-0.3c0-0.2-0.1-0.6-0.3-1c-0.1-0.2-0.1-0.4-0.2-0.8c-0.1-0.3-0.2-0.6-0.3-0.9c-0.7,2.2-1.7,3.2-3.2,3.2
			c-0.5,0-1-0.1-1.3-0.4c-0.3-0.3-0.6-0.6-0.7-1c-0.1-0.4-0.2-0.8-0.2-1.2c0-0.4,0.1-0.7,0.3-1.1c0.2-0.4,0.4-0.8,0.7-1.2
			c0.3-0.4,0.5-0.7,0.7-0.9c0.2-0.2,0.5-0.6,0.9-1c0.2-0.2,0.4-0.4,0.6-0.7c0.2-0.2,0.4-0.4,0.5-0.5c0.1-0.1,0.1-0.2,0.1-0.3
			c0-0.2,0-0.4-0.1-0.7c0-0.1-0.1-0.3-0.1-0.4c0-0.1,0.1-0.1,0.4-0.1h2.1c0.1,0,0.2,0,0.2,0.1c0,0.1,0,0.1,0,0.2c0,0.1,0,0.2,0,0.3
			c0,0.1,0,0.3,0.1,0.4c0.1,0.2,0.1,0.4,0.2,0.5s0.1,0.4,0.1,0.6c0,0.1,0.1,0.3,0.2,0.6c0.4,1.6,0.8,2.9,1,3.7
			c0.3,0.8,0.5,1.4,0.7,1.8c0.2,0.4,0.3,0.7,0.3,0.8C172.3,26.1,172.1,26.2,171.8,26.2z M168.1,20.8c-0.1-0.4-0.2-0.7-0.3-0.9
			c-0.1-0.3-0.2-0.7-0.3-1.1c-0.8,0.8-1.3,1.6-1.6,2.2c-0.3,0.6-0.4,1.1-0.4,1.5c0,0.3,0.1,0.7,0.3,0.9c0.2,0.3,0.5,0.4,0.9,0.4
			c0.4,0,0.7-0.1,0.9-0.3c0.3-0.2,0.5-0.4,0.6-0.6c0.1-0.3,0.2-0.5,0.2-0.7C168.4,22,168.3,21.5,168.1,20.8L168.1,20.8z M176.4,24.9
			c0,0.1,0,0.2,0,0.4c0,0.2,0,0.4,0,0.5c0,0.2-0.1,0.3-0.3,0.3H176c-0.4,0-0.7,0-0.8,0c-0.3,0-0.5,0-0.7,0c-0.2,0-0.4,0-0.4-0.1
			c-0.1-0.1-0.1-0.5-0.1-1.1c0-0.4,0-0.7,0-0.8s0.1-0.3,0.1-0.3c0.1,0,0.2-0.1,0.3-0.1c0.2,0,0.4,0,0.7,0c0.2,0,0.5,0,0.8,0h0.2
			c0.2,0,0.3,0.1,0.3,0.3c0,0.1,0,0.3,0,0.5C176.4,24.7,176.4,24.8,176.4,24.9L176.4,24.9z M185.8,24.5c-0.2,0.6-0.6,1.1-1,1.4
			c-0.4,0.3-0.9,0.5-1.4,0.5c-0.5,0-1-0.2-1.5-0.5c-0.5-0.3-0.9-0.8-1.2-1.2c0,0.1,0,0.3,0.1,0.7c0.1,0.9,0.2,2,0.2,3.2
			c0,1-0.1,1.7-0.3,2.1c-0.2,0.4-0.5,0.6-0.9,0.6c-0.3,0-0.4-0.1-0.5-0.2V31c0-0.3,0-0.8,0-1.6c0-0.9,0-1.8-0.1-2.7
			c-0.1-0.5-0.1-1.2-0.2-1.9c-0.1-0.7-0.1-1.3-0.1-1.6c0-0.4,0-0.8,0-1.2c0-1.1,0.2-2.1,0.7-3c0.5-0.9,1-1.6,1.6-2.1
			c0.6-0.5,1.1-0.7,1.5-0.7c0.3,0,0.7,0.2,1.1,0.5c0.4,0.3,0.8,0.8,1.2,1.4c0.4,0.6,0.7,1.3,0.9,2c0.2,0.8,0.4,1.5,0.4,2.3
			C186.2,23.2,186.1,23.9,185.8,24.5L185.8,24.5z M184,23c0-0.5-0.2-1.1-0.4-1.8c-0.3-0.7-0.6-1.3-1-1.9c-0.4-0.6-0.9-1-1.4-1.2
			c-0.3,0.5-0.5,0.9-0.7,1.4c-0.1,0.5-0.2,1-0.2,1.7c0,0.8,0.1,1.5,0.4,2.1c0.3,0.6,0.6,1.1,1,1.5c0.4,0.3,0.8,0.5,1.1,0.5
			c0.2,0,0.5-0.1,0.7-0.3c0.2-0.2,0.4-0.6,0.4-1.2C184,23.7,184,23,184,23z M201.1,24.6c-0.2,0.5-0.6,0.9-1.2,1.3
			c-0.5,0.3-1.2,0.5-2,0.5c-0.9,0-1.7-0.2-2.4-0.7v5.6h-1.7v-5.6c-0.6,0.5-1.4,0.7-2.4,0.7c-1,0-1.8-0.3-2.5-0.9
			c-0.7-0.6-1-1.4-1-2.4c0-0.5,0.1-0.9,0.2-1.3c0.1-0.4,0.4-0.8,0.7-1.1c0.3-0.4,0.7-0.7,1.1-1.1c0.4-0.4,1-0.8,1.7-1.3
			c0.6-0.5,1.1-0.9,1.4-1.2c0.3-0.3,0.5-0.6,0.5-0.8c0.1-0.2,0.1-0.6,0.1-0.9l-0.1-1.6c0-0.2,0-0.3,0-0.4c0-0.1,0-0.2,0-0.3
			c0-0.1,0-0.2,0-0.2c0-0.1,0-0.1,0-0.2c0-0.2,0.2-0.3,0.7-0.5c0.5-0.1,0.9-0.2,1.2-0.2c0.1,0,0.2,0.1,0.3,0.2
			c0,0.1,0.1,0.3,0.1,0.6l-0.1,2.5c0,0.5,0.1,0.9,0.2,1.2c0.2,0.3,0.4,0.6,0.6,0.8c0.3,0.2,0.6,0.5,1.2,0.9c0.8,0.6,1.5,1.1,2,1.6
			c0.5,0.4,0.9,0.9,1.2,1.5c0.3,0.5,0.5,1.1,0.5,1.8C201.5,23.6,201.3,24.1,201.1,24.6L201.1,24.6z M193.8,17.7
			c-0.2,0.2-0.5,0.5-0.8,0.7c-0.6,0.5-1.1,0.9-1.4,1.2c-0.3,0.3-0.5,0.6-0.7,1c-0.2,0.4-0.3,0.9-0.3,1.4c0,0.7,0.1,1.2,0.4,1.7
			c0.2,0.5,0.5,0.8,0.9,1c0.4,0.2,0.8,0.3,1.2,0.3c0.3,0,0.6-0.1,0.8-0.2L193.8,17.7L193.8,17.7z M198.7,20.8
			c-0.2-0.4-0.4-0.7-0.6-1c-0.2-0.3-0.6-0.5-1-0.9c-0.2-0.2-0.5-0.4-0.8-0.7c-0.1-0.2-0.3-0.3-0.5-0.5l-0.1,7.3
			c0.3,0.1,0.5,0.2,0.8,0.2c0.4,0,0.8-0.1,1.2-0.3c0.4-0.2,0.7-0.6,0.9-1c0.3-0.5,0.4-1,0.4-1.7C198.9,21.6,198.8,21.2,198.7,20.8
			L198.7,20.8z"/>
	</defs>
	<clipPath id="SVGID_2_">
		<use xlink:href="#SVGID_1_"  style="overflow:visible;"/>
	</clipPath>
	<rect x="62" y="4.9" class="st0" width="142" height="29.7"/>
</g>
<g>
	<defs>
		<path id="SVGID_3_" d="M73.9,47.4v-6.8l-4.4,6.8h-1.2v-8.9h1.2v6.8l4.4-6.8h1.2v8.9C75.1,47.4,73.9,47.4,73.9,47.4z M83,47.4v-4.1
			h-4.5v4.1h-1.2v-8.9h1.2v3.8H83v-3.8h1.2v8.9C84.2,47.4,83,47.4,83,47.4z M89.4,39.5v7.9h-1.2v-7.9h-2.9v-1h6.9v1H89.4z
			 M99.4,46.5v1h-5.7v-8.9h5.6v1h-4.5v2.9h3.9v1h-3.9v3.1C94.8,46.5,99.4,46.5,99.4,46.5z M107.1,42.4c-0.1,0.3-0.3,0.6-0.6,0.8
			c-0.3,0.2-0.6,0.4-1,0.5c-0.4,0.1-0.8,0.2-1.4,0.2H102v3.5h-1.2v-8.9h3.3c0.5,0,1,0.1,1.4,0.2c0.4,0.1,0.7,0.3,1,0.6
			c0.3,0.2,0.5,0.5,0.6,0.9c0.1,0.3,0.2,0.7,0.2,1.1C107.3,41.7,107.2,42,107.1,42.4z M106,40.6c-0.1-0.2-0.2-0.4-0.3-0.6
			c-0.2-0.2-0.4-0.3-0.6-0.4c-0.2-0.1-0.5-0.1-0.9-0.1H102V43h2.1c0.3,0,0.6,0,0.9-0.1c0.2-0.1,0.5-0.2,0.6-0.4
			c0.2-0.2,0.3-0.3,0.3-0.5c0.1-0.2,0.1-0.4,0.1-0.7C106.1,41,106.1,40.8,106,40.6z M114.5,47.4v-4.1H110v4.1h-1.2v-8.9h1.2v3.8h4.5
			v-3.8h1.2v8.9H114.5z M123.5,46.5v1h-5.7v-8.9h5.6v1H119v2.9h3.9v1H119v3.1C119,46.5,123.5,46.5,123.5,46.5z M128.5,39.5v7.9h-1.2
			v-7.9h-2.9v-1h6.9v1H128.5z M134.7,44.1v-0.9h3v0.9H134.7z M149.9,47.4V44l0.1-3.7l-3,7.2h-0.9l-2.9-7.2l0.1,3.7v3.5h-1.2v-8.9
			h1.5l2.9,7.3l2.9-7.3h1.5v8.9H149.9L149.9,47.4z M159.1,47.4l-0.9-2.3h-3.8l-0.8,2.3h-1.2l3.4-8.9h1l3.4,8.9H159.1z M156.4,40
			l-1.5,4.2h3.1L156.4,40z M162.8,39.5v7.9h-1.2v-8.9h5.5v1H162.8z M173.2,47.4l-0.9-2.3h-3.8l-0.8,2.3h-1.2l3.4-8.9h1l3.4,8.9
			H173.2z M170.5,40l-1.5,4.2h3.1L170.5,40z M180,42.9c0.5,0.2,0.9,0.4,1.2,0.8c0.3,0.3,0.4,0.8,0.4,1.3c0,0.4-0.1,0.8-0.2,1.1
			c-0.2,0.3-0.4,0.6-0.7,0.8c-0.3,0.2-0.6,0.4-1,0.5c-0.4,0.1-0.9,0.2-1.3,0.2c-0.4,0-0.8-0.1-1.1-0.2c-0.4-0.1-0.7-0.3-1-0.5
			c-0.3-0.2-0.5-0.5-0.7-0.8c-0.2-0.3-0.3-0.7-0.3-1.2h1.2c0,0.2,0,0.4,0.1,0.6c0.1,0.2,0.2,0.4,0.4,0.5c0.2,0.1,0.4,0.3,0.6,0.4
			c0.2,0.1,0.5,0.1,0.8,0.1c0.3,0,0.6,0,0.9-0.1c0.3-0.1,0.5-0.2,0.7-0.3c0.2-0.1,0.3-0.3,0.4-0.5c0.1-0.2,0.1-0.4,0.1-0.6
			c0-0.5-0.2-0.9-0.5-1.2c-0.3-0.3-0.9-0.4-1.5-0.4h-1v-1h1c0.3,0,0.6,0,0.9-0.1c0.2-0.1,0.4-0.2,0.6-0.3c0.2-0.1,0.3-0.3,0.3-0.5
			c0.1-0.2,0.1-0.4,0.1-0.6c0-0.2,0-0.4-0.1-0.6c-0.1-0.2-0.2-0.4-0.4-0.5c-0.2-0.1-0.4-0.3-0.6-0.3c-0.3-0.1-0.5-0.1-0.9-0.1
			c-0.3,0-0.5,0-0.7,0.1c-0.2,0.1-0.4,0.2-0.6,0.3c-0.2,0.1-0.3,0.3-0.4,0.5c-0.1,0.2-0.1,0.4-0.1,0.6h-1.2c0-0.4,0.1-0.7,0.2-1
			c0.2-0.3,0.4-0.6,0.7-0.8c0.3-0.2,0.6-0.4,1-0.5c0.4-0.1,0.8-0.2,1.2-0.2c0.5,0,0.9,0.1,1.3,0.2c0.4,0.1,0.7,0.3,1,0.5
			c0.3,0.2,0.5,0.5,0.6,0.8c0.2,0.3,0.2,0.7,0.2,1.1c0,0.4-0.1,0.8-0.4,1.1C180.8,42.4,180.4,42.7,180,42.9z M188.8,47.4v-6.8
			l-4.4,6.8h-1.2v-8.9h1.2v6.8l4.4-6.8h1.2v8.9H188.8z M197.9,47.4v-4.1h-4.5v4.1h-1.2v-8.9h1.2v3.8h4.5v-3.8h1.2v8.9H197.9z"/>
	</defs>
	<clipPath id="SVGID_4_">
		<use xlink:href="#SVGID_3_"  style="overflow:visible;"/>
	</clipPath>
	<rect x="63.7" y="34.6" class="st1" width="137.6" height="19"/>
</g>
<g>
	<defs>
		<path id="SVGID_5_" d="M25.5,0c0.4,0.5,0.5,1.8,0.6,2.5c-1.2,0-1.8,0.1-2.5,0.4c-0.1-1-0.5-1.5-1-2.1C23.7,0.6,24.6,0.3,25.5,0z
			 M27.4,2.5c0.1-0.8,0.2-1.6,0.4-2.4c0.2,0,0.3,0,0.5,0c0.8,0.3,1.6,0.5,2.5,0.8c-0.5,0.6-0.8,1.1-1,2.1
			C29.1,2.7,28.5,2.5,27.4,2.5z M22.2,1.1c0,0,0.4,2.6,0.5,3c-2.7-0.2-2.9,1.6-4.8,2.4c0-0.1,0-0.3,0-0.4
			C18.9,3.6,20.2,2.6,22.2,1.1z M31.1,1.1c3.7,1.6,5.5,5.5,4.1,10.1c-0.1,0-0.2,0.1-0.2,0.1c-0.3-0.1-0.7-0.1-1-0.2
			c0.7-4.5,1.5-5.6-3.2-7.1C31.3,3.1,31.3,2.3,31.1,1.1z M22.7,1.8c0.5,0.4,0.6,1,0.4,1.8c-0.1-0.1-0.2-0.1-0.4-0.2
			c0-0.1,0-0.1,0-0.2C22.7,2.6,22.7,2.2,22.7,1.8z M30.6,1.8C30.7,2,30.8,2.2,31,2.4c-0.1,0.3-0.2,0.6-0.4,0.9
			c0,0.1-0.1,0.1-0.1,0.2c0,0-0.1,0-0.1,0C30.2,2.8,30.3,2.3,30.6,1.8z M25,2.9c0.1,0,0.2,0,0.4,0c-0.2,0.3-0.4,0.5-0.6,0.8
			c-0.4,0.1-0.8,0.1-1.2,0.2c0-0.1,0.1-0.2,0.1-0.3C24.1,3.3,24.6,3.1,25,2.9z M26,2.9c2.3,4-3.2,8.1-5.2,9.5
			c-0.1,0-0.2-0.1-0.2-0.1c-0.1-0.3-0.2-0.7-0.4-1c2.9-0.8,5.6-4.5,3.1-6.9C24.7,4.2,25.5,3.7,26,2.9z M27.3,3
			C27.6,3.1,30,4.5,30,4.5c-1.3,0.6-0.8,2-1.4,3c-0.2,0.1-0.3,0.2-0.5,0.3C27.1,6.9,27.2,4.8,27.3,3z M28.1,3c1,0,1.3,0.3,1.7,0.8
			c0,0,0,0.1,0,0.1C29,3.8,28.4,3.6,28.1,3z M14,5.7c0.2,0,0.3,0,0.5,0c0,0.1,0.1,0.3,0.1,0.4c0,0.7-0.1,1.4-0.1,2.1
			c-0.8-0.1-1.5,0-2.2,0.1c0-0.7-0.2-1.2-0.5-1.9C12.5,6.2,13.2,6,14,5.7z M39,5.7c0.9,0.1,2.1,0.4,2.7,0.9
			c-0.3,0.5-0.5,0.9-0.5,1.8c-0.7-0.1-1.4-0.3-2.2-0.1C39,7.4,39,6.6,39,5.7z M20,6.3c1.5,0,3.1,0.4,3.8,1.1
			c-0.2,0.3-0.4,0.6-0.6,0.9c-3.4-1.9-6.8,0.1-7.1,3.4c0.1,0,0.2,0,0.2,0c0.7,0.1,1.3,0.2,2,0.3c0.1,0.3,0.2,0.6,0.4,0.9
			c-1.5,0.1-2.8,0-4.1-0.3c0,0,0-0.1,0-0.1C15.3,8.6,16.5,7.6,20,6.3z M32.4,6.3c0.5,0,0.9,0.1,1.4,0.1C33.9,6.7,34,7.1,34,7.5
			c-3.4-0.1-4.5,1.2-6.2,2.5c-0.2-0.1-0.3-0.2-0.5-0.3c-0.3-0.9,0.1-0.8,0.7-1.5C29.5,7.6,30.9,6.9,32.4,6.3z M11,6.8
			c0.1,0.1,0.1,1.9,0.2,2.5C9.9,9,9.6,9.8,8.9,10.4c-0.4,0-0.7-0.1-1.1-0.1C8.2,8.6,9.7,7.8,11,6.8z M42.2,6.8c3.3,1,4.6,4.9,2.8,8
			c-0.1,0-0.2-0.1-0.4-0.1c-0.2-0.2-0.4-0.4-0.6-0.6c0.7-1.9,1.3-4.9-1.8-4.9C42.6,8.5,42.6,7.6,42.2,6.8z M11.5,7.4
			c0.4,0.3,0.4,0.8,0.2,1.3c-0.1,0-0.2,0.1-0.2,0.1c0-0.1,0-0.1,0-0.2C11.5,8.2,11.5,7.8,11.5,7.4z M36.1,7.4
			c1.4,0.7,3.1,3.3,2.6,5.3c-4.4,0.5-7.9-0.3-9.6-3.1c0.1-0.1,0.2-0.3,0.4-0.4C29.6,9,29.8,9,30,8.9C30.1,9,30.2,9,30.3,9.1
			c0.8,1.6,4.1,3.3,7,2.5C37.2,9.8,36.2,9.4,36.1,7.4z M41.8,7.4c0.1,0,0.2,0.1,0.2,0.1c0,0.4-0.1,0.9-0.1,1.3c0,0-0.1,0-0.1,0
			c0,0-0.1-0.1-0.1-0.1C41.6,8.1,41.6,7.9,41.8,7.4z M18.8,8.2c0.2,0.8,0.4,1.6,0.6,2.4c0.6,1.5,1.6,2.7,2.6,3.8
			c-0.2,0.2-0.5,0.4-0.7,0.7c-0.1,0-0.2,0-0.4,0c-1-1.3-4-4.5-2.7-6.6C18.4,8.5,18.6,8.4,18.8,8.2z M12.9,8.6c0.3,0,0.6,0,0.9,0
			c-0.1,0.1-0.2,0.3-0.4,0.4c-0.4,0-0.7,0.1-1.1,0.1c0,0,0-0.1,0-0.1c0.1,0,0.2-0.1,0.2-0.1C12.6,8.8,12.7,8.7,12.9,8.6z M25.5,8.6
			c2.5,1.1,3.5,4.2,5.3,5.9c-0.3,0.3-0.6,0.5-0.9,0.8c-1.6-1.9-3.3-3.9-4.9-5.8C25.2,9.2,25.4,8.9,25.5,8.6z M39.8,8.6
			c0.8,0,1,0.2,1.5,0.4c0,0.1-0.1,0.1-0.1,0.2c0,0-0.1,0-0.1,0C40.5,9.1,40.1,9,39.8,8.6z M14.2,8.7c1.3,1.3-2.5,5.9-3.3,6.5
			c-0.5-0.2-0.5-0.5-0.9-0.8c1.2-1.3,3.1-2.7,2-4.7C13,9.3,13.7,9.5,14.2,8.7z M39,8.7c0.8,0.3,1.5,0.6,2.5,1
			c-0.6,1.2-0.1,2.3-0.9,3.2c-0.1,0-0.2-0.1-0.2-0.1C39.9,11.4,39.2,10.3,39,8.7z M7.7,10.7c1.8,0.2,2.7,0.7,3.8,1.4
			c0,0,0,0.1,0,0.1c-0.2,0.3-0.5,0.5-0.7,0.8c-2.9-1.6-4.9-1.7-5.7,1.5c-0.7-0.3-1.6-0.4-2.5-0.1C3.5,12,5.2,11.6,7.7,10.7z
			 M25.5,10.7c0.3,0.3,0.6,0.6,0.9,0.9c-1.4,2.4-3.2,4.5-6,5.7c-0.2-0.1-0.5-0.2-0.7-0.3c0-0.1-0.1-0.1-0.1-0.2
			c0-0.1,0.1-0.3,0.1-0.4C22.5,15.5,24.3,12.8,25.5,10.7z M46.4,10.8c2.1,0.6,4,1.6,4.4,3.6c-0.9-0.3-1.8-0.1-2.6,0.1
			c0.4-1.7-0.9-2-1.8-2.7C46.4,11.4,46.4,11.1,46.4,10.8z M43.8,11c0.1,0,0.2,0,0.4,0c0,0.3,0.1,0.7,0.1,1c-1.1,1-2.5,2.1-3.7,3
			c-1.7-0.6-0.5-1.4,0.6-2.1C41.8,12,42.9,11.6,43.8,11z M7.6,12.3c0.4,0,0.8,0,1.2,0c0.6,2.1,2.4,3.1,1.2,4.5
			c-0.2-0.1-0.3-0.2-0.5-0.3C8.8,15.1,8,14.2,7.6,12.3z M32.8,12.9c0.4,0.1,0.8,0.1,1.2,0.2c-0.4,1.5-6.2,7.3-6.9,4.9
			C29.2,16.8,31.6,14.8,32.8,12.9z M13,13.6c1,0.4,4.3,3.1,4.8,4.1c-0.3,0-0.6,0-0.9,0c-1.8-0.6-3.6-1.9-4.6-3.3
			C12.6,14.1,12.8,13.9,13,13.6z M42.4,13.7c2.8,0.8,1.6,2,5.5,1.5c0,1.1,0.5,1.3,1,1.9c-2.8,0.1-6.8-1.2-7-3
			C42.1,14,42.3,13.9,42.4,13.7z M18.3,13.8c0.1,0,0.2,0,0.4,0c-0.1,4.1,2.8,5.1,5.7,6.5c0,0.1,0,0.3,0,0.4
			c-0.2,0.3-0.3,0.5-0.5,0.8c-0.2-0.2-0.5-0.4-0.7-0.7c-2.8-1.1-5-2.5-5.7-5.6c-1.6,0.1-1.5,0.1-2.5-0.5c0,0,0-0.1,0-0.1
			C16.1,14.4,17.2,14.1,18.3,13.8z M34.9,13.8c2.9,0.5,4.8,1.4,7,2.2c-0.1,0.1-0.2,0.2-0.4,0.3c-0.2,0.2-0.3,0.4-0.5,0.6
			c-1.5-0.7-2.9-1.5-5.1-1.6c-0.1,0.3-0.2,0.7-0.4,1c-0.4-0.1-0.7-0.1-1.1-0.2c0,0,0-0.1,0-0.1C34.7,15.2,34.8,14.5,34.9,13.8z
			 M3.7,14.5c0.3,0.1,0.7,0.1,1,0.2c0,0.1-0.1,0.1-0.1,0.2c-0.7,0-1,0-1.4-0.3C3.4,14.6,3.6,14.5,3.7,14.5z M49.4,14.5
			c0.3,0,0.6,0.1,0.9,0.1c0,0.1-0.1,0.1-0.1,0.2c-0.1,0-0.2,0-0.2,0c-0.4,0-0.7,0.1-1.1,0.1c0-0.1,0-0.1,0-0.2
			C49,14.7,49.2,14.6,49.4,14.5z M2.4,14.8c0.6,0.2,1.2,0.4,1.8,0.7c-0.2,0.4-0.3,1.1-0.5,1.6c-0.6-0.1-1.2-0.2-1.8-0.3
			c0-0.2,0-0.4,0-0.5C2.1,15.8,2.2,15.3,2.4,14.8z M49.6,17c0-0.8-0.1-1.2-0.4-1.6c0.9,0,1.2-0.3,1.7-0.5c0.4,0.4,0.7,1.4,0.6,2
			C50.9,16.9,50.2,17,49.6,17z M5.6,15.2c0.9,0.5,1.9,0.2,2.8,0.3c0.2,0.3,0.3,0.6,0.5,0.9c-1.4,0.3-2.5,0.8-4.4,0.8
			c0.2-0.2,0.5-0.4,0.7-0.7C5.3,16,5.5,15.6,5.6,15.2z M4.8,15.4c0.1,0,0.2,0,0.2,0C5,16,4.8,16.3,4.4,16.6c0-0.2,0-0.4,0-0.6
			C4.5,15.8,4.7,15.6,4.8,15.4z M48.5,15.4c0.5,0.3,0.6,0.6,0.7,1.2c0,0-0.1,0-0.1,0c-0.1-0.1-0.2-0.1-0.4-0.2
			C48.6,16,48.5,15.7,48.5,15.4z M12.5,15.5c0.6,0.1,0.8,0.4,1.1,0.8c0,0,0,0.1,0,0.1c-1.2,0.4-2.4,1.3-3.1,2.2
			c-0.5,0-0.9-0.1-1.4-0.1C9.6,17,11.3,16.4,12.5,15.5z M32.4,15.8c1.1,0.2,2.2,1.1,3.8,0.8c0.6-0.1,1-0.6,1.6-0.6
			c0.3,0.1,0.7,0.2,1,0.3c-0.1,0.1-0.2,0.3-0.4,0.4c-2.3,1-4.6,1-6.8-0.2C31.9,16.3,32.2,16.1,32.4,15.8z M42.8,15.8
			c0.3,0.2,0.7,0.4,1,0.7c-0.1,0.1-0.2,0.1-0.2,0.2c-0.6,0.6-1.2,1.2-1.8,1.8c0.1,0.1,0.2,0.2,0.2,0.3c1,0.1,1.1,0.5,1.5,1.2
			c-1.8,0.1-3.2-0.4-4.1-1.2c0,0,0-0.1,0-0.1C40.6,18.2,42,16.8,42.8,15.8z M23.3,15.9c2,0.7,4,2.9,5.2,4.5c-0.2,0.3-0.5,0.7-0.7,1
			c-0.1,0-0.2-0.1-0.2-0.1c-1-2.2-3.8-2.9-4.9-4.8C22.8,16.3,23.1,16.1,23.3,15.9z M12.2,17.5c0.6,0.4,1.2,0.9,1.8,1.3
			c0,0.1-0.1,0.1-0.1,0.2c-1,0.3-1.9,0.9-3.2,1.1c-3.5,0.5-7.5-2.4-9.4,1c-0.6,1.1-0.2,1.9,0.5,2.7C2.4,24,2.6,24,3.2,24
			c0,0,0-0.1,0-0.1c-0.4-0.5-0.6-0.7-0.6-1.6c0.4-0.8,0.9-1.3,2.2-1.3c6.2,2.3-1.8,4.2,1.1,6.8c0.4,0,0.7-0.1,1.1-0.1
			c0.2-0.2,0.5-0.4,0.7-0.6c-0.4-0.3-0.7-0.4-1-0.9c0-0.3,0-0.5,0-0.8C7,25.2,7.2,25,7.4,24.9c0.3,0,0.7,0.1,1,0.1
			c2.2,2.6-2,5.5-4.1,3.1c-2.5-2.9,3.8-4,0.9-5.7c-0.3-0.2-0.6-0.3-1-0.1c-0.3,0.2-0.2,0.1-0.4,0.5c0.5,0.3,0.8,0.4,1,1
			c-0.3,0.6-0.6,1-1.4,1.3c-4.6,1.2-4.1-4.8-1.7-6.2c2.9-1.7,7.9,1,10-0.3c-0.2-0.4-0.2-0.3,0-0.8C11.9,17.7,12.1,17.6,12.2,17.5z
			 M43.4,17.5c0.8,0.3,1,1,1.4,1.6c2.1,3.9-0.7,6.7-4.7,7.4c-6.4,1-6.3-5.5-2.5-3.9c0.5,0.4,0.9,0.7,1.4,1.1
			c0.2-0.1,0.4-0.3,0.6-0.4c0.2-2.4-2.8-3.5-4.9-2.1c-2.8,1.9-1.3,6-4.3,7.6c0,0-0.1,0-0.1,0c-0.1-1.5,0.6-2,0.9-3.3
			c0.8-3.6,1-5.3,4.8-6.1c3.9-0.8,7,4,3.7,5.3c-0.5,0.3-1.2,0.4-1.8,0.2c0-0.7-0.2-1-0.6-1.3c-0.8,0.1-0.7,0.3-1.1,0.8
			c0.7,3.8,12.9-0.5,6.7-6.2C42.9,18,43.2,17.7,43.4,17.5L43.4,17.5z M33.4,17.8c0.5,0.1,0.9,0.2,1.4,0.3c-0.3,0.3-0.7,0.7-1,1
			c-3.1,1.1-4.6,2.9-6,5.5c-0.1,0-0.2-0.1-0.2-0.1c-0.2-0.3-0.3-0.5-0.5-0.8C27.9,20.1,31.2,20,33.4,17.8z M47.1,18.2
			c3.3-0.1,5.4,0.6,6.3,2.5c1.1,2.4-0.5,4.5-3.2,4.4c-0.9-0.4-1.5-0.8-1.6-1.9c0.3-0.2,0.7-0.4,1-0.7c0-0.1,0-0.2,0-0.3
			c-0.1-0.1-0.2-0.1-0.2-0.2c-0.3,0-0.6,0-0.9,0c-0.3,0.2-0.4,0.2-0.6,0.6c-1.5,1.8,1.5,1.6,1.8,2.9c1,3.5-3.1,3.6-4.9,2.5
			C44.3,26.8,44.2,26,45,25c0.1,0,0.2-0.1,0.2-0.1c0.2,0,0.5,0.1,0.7,0.1c0.2,0.2,0.5,0.4,0.7,0.5c0,0.2-0.1,0.4-0.1,0.7
			c-0.2,0.5-0.5,0.5-1,0.8c0,0.1,0.1,0.2,0.1,0.3c0.4,0.3,0.8,0.6,1.4,0.4c0.7-0.1,1-0.4,1.2-0.9c0.4-1.9-1.7-0.9-2.1-2.4
			c-0.6-2.3,2-4.6,3.8-3.1c0.2,0.2,0.5,0.4,0.7,0.7c0,1.1-0.5,1.6-0.4,2.1c0,0,0.1,0,0.1,0c2.1-0.2,2.3-2.7,1-3.8
			c-1.4-1.2-4-0.8-6-0.5c-0.1-0.3-0.2-0.7-0.4-1c0.1,0,0.2,0,0.2,0C46,18.5,46.5,18.4,47.1,18.2z M15.8,19.5
			c5.3-0.1,5.7,1.8,6.5,5.9c0.3,1.4,0.9,2,0.9,3.5c0,0-0.1,0-0.1,0c-3-1.7-1.5-5.7-4.3-7.6c-1.6-1.1-4.1-0.7-4.8,0.9
			c0,0.4,0,0.7,0,1.1c0.2,0.4,0.2,0.4,0.7,0.5c0.3-0.8,0.9-1,1.8-1.3c4.2,1.2,1.2,4.8-3.2,4.1c-3.8-0.6-5.8-2.1-5.2-6.3
			c0.4,0.1,0.8,0.1,1.2,0.2c-0.5,2.8,0.7,3.9,2.8,4.6c2.3,0.8,5,1.5,5.2-0.7c-0.2-0.4-0.2-0.5-0.6-0.7c-0.2,0-0.4-0.1-0.6-0.1
			c-0.2,0.5-0.4,1-0.6,1.4c-0.7-0.1-1.3-0.2-2-0.3C11.4,22.3,13.3,20.6,15.8,19.5z M25.5,19.7c0.3,0.3,0.6,0.5,0.9,0.8
			C26,21.3,25.5,22.1,25,23c-0.5,1.6-0.3,1.1-0.7,2.6c-0.1,0-0.2-0.1-0.2-0.1C23.2,22.5,24.1,21.6,25.5,19.7z M25.7,22.5
			c0.9,0.6,2.1,1,2.2,2.1c-0.2,0.3-0.3,0.6-0.5,0.9c-0.1,0-0.2-0.1-0.2-0.1C26.4,23.6,25.3,24.7,25.7,22.5z M29.4,22.6
			c1.9,1.6-1.1,4.7-1.6,5.9c-0.1,0-0.2-0.1-0.2-0.1c-0.2-0.3-0.3-0.7-0.5-1C27.5,25.5,28.7,24.5,29.4,22.6z M25.7,25.5
			c0.3-0.4,0.7-0.5,0.7-0.5l-1.7,3.7h-0.9C23.9,28.7,24,26.6,25.7,25.5z"/>
	</defs>
	<clipPath id="SVGID_6_">
		<use xlink:href="#SVGID_5_"  style="overflow:visible;"/>
	</clipPath>
	<rect x="-5.3" y="-10.1" class="st2" width="62" height="39.4"/>
</g>
<g>
	<defs>
		<path id="SVGID_7_" d="M28.3,43c0,0,2.6-0.5-1.4,5.2c-0.1,0-0.2-0.1-0.2-0.1c-0.5-0.9-1.1-1.7-1.6-2.6c0.3-0.2,0.6-0.5,0.9-0.7
			c0,0,0.1,0,0.1,0c0.2,0.4,0.5,0.7,0.7,1.1c0.1-0.1,0.2-0.1,0.4-0.2C27.7,44.4,28.3,43,28.3,43z M25.7,43c0.3,0.3,0.6,0.5,0.9,0.8
			c-0.6,0.6-2.7,2.3-3.3,1.9c-0.2-0.1-0.4-0.2-0.6-0.3C23.6,44.6,24.7,43.8,25.7,43z M29.7,44.5c2.1,0.7,4.2,3,5.3,4.6
			c-0.1,0-0.2,0-0.2,0c-0.4,0-0.8,0.1-1.2,0.1c-0.7-1.5-2.8-2.9-4.3-3.8C29.4,45.1,29.6,44.8,29.7,44.5z M2.2,44.6
			c0.3,0,0.7,0.1,1,0.1c0.5,0.2,0.5,0.3,0.7,0.7c0,0.2-0.1,0.3-0.1,0.5c-0.4,0.4-0.7,0.5-1.6,0.5c0.2,0.2,0.3,0.5,0.5,0.7
			c2.8,0.1,8.9-2.3,7.3,2.8c-0.6,0.4-0.9,0.6-2,0.7c-0.7-0.4-0.9-0.7-1.5-1.2c-0.2,0.1-0.3,0.1-0.5,0.2c0,0.3,0,0.6,0,0.9
			c1.2,1.9,4.3,1.5,5.7,0c0.7-1,1.5-2,2.2-3c4.8-5,10-1.5,12.7,2.4c-0.2,0.3-0.5,0.5-0.7,0.8c-0.1,0-0.2-0.1-0.2-0.1
			c-0.7-0.8-1.3-1.6-2-2.4c-5.9-6.9-9.8,3.3-13.4,4.5c-3.9,1.2-6.6-1.9-4.7-4.2c0.9-0.2,1.4-0.3,2.3-0.1c0,0.4,0.1,0.7,0.1,1.1
			c0.1,0,0.2,0.1,0.2,0.1c0.2-0.1,0.5-0.3,0.7-0.4c0-0.3,0-0.5,0-0.8c-1.9-2.2-9.4,2.1-7.9-3.1C1.5,45.1,1.8,44.9,2.2,44.6z
			 M50.5,44.6c1.2,0,1.5,0.3,2.1,0.7c1.6,5-4.3,1.7-6.4,2.1c-0.5,0.3-1,0.7-1.5,1c0,0.2,0.1,0.5,0.1,0.7c0.2,0.2,0.3,0.3,0.5,0.5
			c0.1,0,0.2-0.1,0.4-0.1c0.1-0.3,0.1-0.9,0.4-1.1c1-0.5,1.9,0.1,2.6,0.5c1,2.5-1.7,4.9-5.2,3.8c-3.2-1-3.7-4.4-6.4-5.9
			c-1.3-0.7-4.1-0.3-5-1.3c0,0,0-0.1,0-0.1c7.4-1.7,7.3,3.7,10.9,5.9c1.4,0.9,3.8,0.7,4.5-0.6c0.2-0.3,0.2-0.6,0.1-1
			c-0.1-0.1-0.2-0.3-0.4-0.4c-0.1,0-0.2,0.1-0.2,0.1c-0.2,0.8-0.7,1.1-1.8,1.2c-2.6-0.7-1.9-3.5,0.2-4.1c2.2-0.6,3.5,0.8,5.4,0.6
			c0.4-0.2,0.5-0.3,0.6-0.7c-0.9,0-1.2-0.1-1.5-0.5c0-0.3,0-0.5,0-0.8C50.2,45,50.3,44.8,50.5,44.6z M30,46.5
			c0.4,0.2,0.7,0.4,1.1,0.6c-0.2,0.1-0.3,0.3-0.5,0.4c-1,1.8-3,4-4.9,5.1c-0.2-0.3-0.4-0.5-0.6-0.8C26.6,50.1,28.8,48.5,30,46.5z
			 M20.8,46.7c0.4,0.2,0.8,0.3,1.2,0.5c-0.2,0.2-0.5,0.4-0.7,0.6c-0.8,1.4-3,2.7-2.2,5c-0.5-0.3-0.9-0.5-1.4-0.8
			C17.7,49.4,19.6,48.3,20.8,46.7z M17,49.5c0.3,0,0.7,0.1,1,0.1c-0.2,0.3-0.3,0.7-0.5,1c-0.3,0-0.7,0.1-1,0.1c0,0.1,0,0.3,0,0.4
			c1,1,2,2.8,4.7,2.4c0.9-0.1,1.7-0.6,2.5-0.6c0.1,0.3,0.2,0.6,0.2,0.9c-5.6,1.5-7.5-0.1-9.2-3.8c0,0,0-0.1,0-0.1
			C15.4,49.8,16.2,49.6,17,49.5z M34.2,49.5c2,0,3.4,0.2,4.9,0.4c0,0,0,0.1,0,0.1c-0.7,1.5-1.4,2.8-2.8,3.7c0.1-1.2,0.6-2,1.1-2.9
			c0-0.1-0.1-0.1-0.1-0.2c-3.1-0.1-5.6,0.2-7,1.7c-0.1-0.1-0.2-0.2-0.4-0.3c-0.2-0.1-0.4-0.2-0.6-0.3C30.5,50.3,32.1,50.3,34.2,49.5
			z M20.1,49.7c5.5,0.3,6.4,4.8,5.4,9.1c0,0-0.1,0-0.1,0c-2.8-1-5.5-2-6.9-4.1c0,0,0.1-0.1,0.1-0.1c2.4,0.7,3.5,2.2,5.9,2.7
			c0,0,0.1-0.1,0.1-0.1c0.3-3.1-0.5-5-3-6.1c-0.7-0.2-1.3-0.4-2-0.6C19.9,50.2,20,50,20.1,49.7z M34.7,50.9c0.4,0,0.8,0,1.2,0
			c0,0.1,0,0.1,0,0.2c2,3.8-4.8,6.7-7.6,7.7c0,0-0.1-0.1-0.1-0.1c-0.4-1.8-0.8-3.7,0-5.5c0.1,0.1,0.2,0.2,0.4,0.3
			c0.2,0.1,0.4,0.1,0.6,0.2c-0.1,1.1-0.4,2.5,0,3.6c0,0,0.1,0,0.1,0C32.5,56.5,35,54.4,34.7,50.9z M27.9,51.3
			c1.7,0.7,3.2,2.7,6.1,2.1c-0.2,0.4-0.4,0.7-0.6,1.1c-3.2,0-4.5-1.4-6.3-2.5C27.4,51.8,27.6,51.5,27.9,51.3z"/>
	</defs>
	<clipPath id="SVGID_8_">
		<use xlink:href="#SVGID_7_"  style="overflow:visible;"/>
	</clipPath>
	<rect x="-5.3" y="42" class="st3" width="62" height="25.6"/>
</g>
<g>
	<defs>
		<path id="SVGID_9_" d="M14.6,33.9c0-0.5-0.2-0.9-0.5-1.2c-0.3-0.3-0.8-0.5-1.4-0.5c-0.6,0-1,0.1-1.4,0.4c-0.3,0.3-0.5,0.6-0.5,1
			c0,0.4,0.2,0.7,0.5,0.9c0.3,0.2,0.9,0.5,1.8,0.7c1.2,0.3,2.1,0.8,2.7,1.3c0.6,0.5,0.9,1.2,0.9,2.1c0,0.9-0.4,1.6-1.1,2.1
			c-0.7,0.5-1.7,0.8-2.9,0.8c-1.2,0-2.2-0.3-3.1-0.9c-0.9-0.6-1.3-1.4-1.3-2.5l0,0h2.1c0,0.6,0.2,1.1,0.6,1.4
			c0.4,0.3,0.9,0.4,1.7,0.4c0.6,0,1-0.1,1.4-0.4c0.3-0.2,0.5-0.6,0.5-1c0-0.4-0.1-0.7-0.4-1c-0.3-0.2-0.8-0.5-1.6-0.7
			c-1.3-0.4-2.3-0.8-2.9-1.3c-0.7-0.5-1-1.2-1-2.1c0-0.9,0.4-1.6,1.1-2.1c0.8-0.5,1.7-0.8,2.9-0.8c1.2,0,2.2,0.3,2.9,0.9
			c0.8,0.6,1.1,1.4,1.1,2.3l0,0C16.7,33.9,14.6,33.9,14.6,33.9z M25.1,41.4V37h-4.4v4.4h-2.2V30.8h2.2v4.6h4.4v-4.6h2.2v10.6H25.1z
			 M36.8,40.3c-0.8,0.8-1.9,1.3-3.3,1.3c-1.3,0-2.4-0.4-3.3-1.3C29.4,39.4,29,38.3,29,37v-1.9c0-1.3,0.4-2.4,1.3-3.2
			c0.8-0.9,1.9-1.3,3.3-1.3c1.4,0,2.5,0.4,3.3,1.3c0.8,0.9,1.3,1.9,1.3,3.2V37C38.1,38.3,37.7,39.4,36.8,40.3z M35.9,35.1
			c0-0.8-0.2-1.5-0.6-2c-0.4-0.5-1-0.8-1.8-0.8c-0.7,0-1.3,0.3-1.7,0.8c-0.4,0.5-0.6,1.2-0.6,2V37c0,0.8,0.2,1.5,0.6,2.1
			c0.4,0.5,1,0.8,1.7,0.8c0.7,0,1.3-0.3,1.8-0.8c0.4-0.5,0.6-1.2,0.6-2.1V35.1z M47.1,36.6c-0.7,0.6-1.7,0.9-3,0.9H42v3.8h-2.2V30.8
			h4.3c1.3,0,2.2,0.3,3,0.9c0.7,0.6,1.1,1.4,1.1,2.4C48.2,35.2,47.8,36,47.1,36.6z M45.5,32.9c-0.3-0.3-0.8-0.5-1.4-0.5H42v3.5h2.2
			c0.6,0,1.1-0.2,1.4-0.5c0.3-0.3,0.5-0.7,0.5-1.2C46,33.7,45.8,33.3,45.5,32.9z"/>
	</defs>
	<clipPath id="SVGID_10_">
		<use xlink:href="#SVGID_9_"  style="overflow:visible;"/>
	</clipPath>
	<rect x="5.1" y="29.9" class="st4" width="44.8" height="12.5"/>
</g>
</svg>
