<?xml version="1.0" encoding="utf-8"?>
<!-- Generator: Adobe Illustrator 19.2.0, SVG Export Plug-In . SVG Version: 6.00 Build 0)  -->
<svg version="1.1"
	 id="svg2" xmlns:cc="http://creativecommons.org/ns#" xmlns:dc="http://purl.org/dc/elements/1.1/" xmlns:rdf="http://www.w3.org/1999/02/22-rdf-syntax-ns#" xmlns:svg="http://www.w3.org/2000/svg"
	 xmlns="http://www.w3.org/2000/svg" xmlns:xlink="http://www.w3.org/1999/xlink" x="0px" y="0px" viewBox="0 0 285 70"
	 style="enable-background:new 0 0 285 70;" xml:space="preserve">
<style type="text/css">
	.st0{clip-path:url(#SVGID_2_);fill:#FFFFFF;}
	.st1{clip-path:url(#SVGID_4_);fill:#FFCC00;enable-background:new    ;}
	.st2{clip-path:url(#SVGID_6_);fill:#FFCC00;}
</style>
<g>
	<defs>
		<path id="SVGID_1_" d="M103.7,17.1c-0.2,0.6-0.4,1-0.5,1.3c-0.3,0.9-0.5,1.8-0.6,2.6c0,0.9-0.3,1.4-0.8,1.4
			c-0.2,0-0.4-0.1-0.5-0.2c-0.1-0.2-0.2-0.3-0.3-0.6c-0.1-0.2-0.2-0.8-0.4-1.7c-0.3-1-0.6-1.8-0.9-2.3c-0.3-0.5-0.7-0.8-1.1-0.9
			c-0.4-0.1-1-0.2-1.7-0.2h-1.3V35H98v1.3h-9.6V35h2.5V16.5h-1.3h-0.7c-0.6,0-1,0.1-1.4,0.3c-0.3,0.2-0.7,0.6-1,1.2
			c-0.3,0.6-0.6,1.6-1,2.9c-0.2,0.6-0.3,1-0.4,1.2c-0.1,0.2-0.3,0.3-0.6,0.3c-0.4,0-0.6-0.1-0.7-0.4c-0.1-0.2-0.2-0.6-0.2-1
			c0-0.8-0.2-1.7-0.5-2.6c-0.1-0.2-0.2-0.6-0.5-1.2s-0.4-1-0.4-1.2c0-0.3,0.1-0.6,0.3-0.8c0.2-0.2,0.6-0.4,1-0.4
			c0.1,0,0.4,0,0.8,0.1c0.4,0.1,0.8,0.2,1.3,0.2c0.5,0.1,1.1,0.1,1.9,0.1c0.2,0,0.4,0,0.6,0c0.2,0,0.4,0,0.5,0h8.9
			c0.1,0,0.3,0,0.5,0c0.2,0,0.4,0,0.6,0c0.8,0,1.4,0,1.9-0.1c0.5-0.1,0.9-0.1,1.3-0.2c0.4-0.1,0.7-0.1,0.8-0.1c0.4,0,0.8,0.1,1,0.3
			c0.2,0.2,0.3,0.5,0.3,0.8C104.1,16.2,104,16.6,103.7,17.1z M118.5,36.2h-3.1c-0.2,0-0.3-0.2-0.3-0.5c0-0.3-0.2-0.8-0.4-1.6
			c-0.1-0.2-0.2-0.6-0.4-1.1c-0.1-0.4-0.2-0.9-0.4-1.3c-1,3.2-2.6,4.9-4.7,4.9c-0.8,0-1.4-0.2-1.9-0.6c-0.5-0.4-0.8-0.9-1-1.5
			c-0.2-0.6-0.3-1.2-0.3-1.7c0-0.5,0.1-1.1,0.4-1.7c0.3-0.6,0.6-1.2,1-1.8c0.4-0.6,0.8-1,1-1.4c0.3-0.3,0.7-0.8,1.3-1.5
			c0.3-0.3,0.6-0.6,0.9-1c0.3-0.4,0.6-0.6,0.7-0.8c0.1-0.2,0.2-0.3,0.2-0.5c0-0.2-0.1-0.6-0.2-1c-0.1-0.2-0.1-0.4-0.1-0.6
			c0-0.1,0.2-0.2,0.6-0.2h3.1c0.2,0,0.3,0.1,0.4,0.2c0,0.1,0,0.2,0,0.3c0,0.1,0,0.3,0.1,0.4c0,0.2,0.1,0.4,0.1,0.6
			c0.1,0.3,0.2,0.5,0.2,0.8c0.1,0.3,0.1,0.6,0.2,0.9c0.1,0.2,0.1,0.5,0.2,0.9c0.6,2.5,1.1,4.3,1.5,5.6c0.4,1.2,0.7,2.2,1,2.8
			c0.3,0.6,0.4,1,0.4,1.1C119.1,36.2,118.9,36.2,118.5,36.2L118.5,36.2z M113,28.2c-0.2-0.6-0.3-1.1-0.4-1.3
			c-0.1-0.5-0.3-1.1-0.5-1.6c-1.2,1.3-1.9,2.4-2.4,3.3c-0.4,0.9-0.6,1.7-0.6,2.2c0,0.5,0.1,1,0.4,1.4c0.3,0.4,0.7,0.6,1.3,0.6
			c0.5,0,1-0.1,1.4-0.4s0.7-0.6,0.9-1c0.2-0.4,0.3-0.7,0.3-1.1C113.5,30,113.3,29.3,113,28.2z M138,24.4c-0.4,0.7-0.8,1.2-1,1.7
			c-0.2,0.5-0.5,1.1-0.7,1.9l-1.6-0.3c0.3-0.7,0.4-1.3,0.4-1.7c0-1.1-0.4-1.9-1.1-2.2c-0.7-0.3-1.5-0.5-2.5-0.5H131
			c0,0.5,0,1.1,0,1.6c0,0.6,0,1,0,1.2c0,0.9-0.1,1.6-0.1,2c0,1,0,2.4,0.1,4.1c0,1.7,0.1,2.8,0.1,3.2c0,0.3-0.1,0.5-0.2,0.7
			c-0.1,0.1-0.5,0.2-1,0.2h-1.8c-0.3,0-0.5-0.1-0.6-0.2c-0.1-0.2-0.2-0.4-0.2-0.9c0-0.4,0-1.2,0-2.3c0-0.4,0-0.7,0-1
			c0-0.3,0-0.6,0-0.8v-1.3c0-1.1,0-2.3,0.1-3.4c0-0.1,0-0.4,0-1c0-0.6,0-1.3,0.1-2.1H127c-2.4,0-3.5,0.9-3.5,2.7
			c0,0.3,0.1,0.9,0.4,1.7l-1.6,0.3c-0.4-1.3-1-2.5-1.7-3.6c-0.3-0.5-0.5-1-0.5-1.3c0-0.3,0.1-0.5,0.3-0.8c0.2-0.2,0.4-0.3,0.6-0.3
			c0.2,0,0.8,0.1,1.7,0.2c0.8,0.1,2.1,0.1,3.9,0.1h5.6c1.8,0,3.1,0,3.9-0.1c1-0.1,1.6-0.2,1.7-0.2c0.2,0,0.4,0.1,0.6,0.3
			c0.2,0.2,0.3,0.5,0.3,0.8C138.5,23.4,138.4,23.9,138,24.4z M153.9,23c0,0.1-0.1,0.3-0.2,0.5c-0.1,0.2-0.2,0.4-0.2,0.4
			c-0.1,0.3-0.2,0.8-0.2,1.3c0,0.5,0,0.9-0.1,1.2l-0.7,0c-0.2-0.5-0.5-0.8-1.1-0.8c-0.5,0-1,0.3-1.5,0.8c-0.5,0.5-0.9,1.6-1.2,3.2
			c-0.3,1.6-0.5,3.8-0.5,6.6c0,1.8,0,3,0.1,3.6c0.1,0.6,0.2,1.1,0.3,1.7c0.1,0.6,0.2,1.3,0.2,2.1c0,0.5-0.9,0.7-2.6,0.7
			c-0.2,0-0.4-0.1-0.5-0.2c-0.1-0.1-0.1-0.3-0.1-0.5c0-0.9,0-1.7,0.1-2.4c0.1-0.7,0.1-1.3,0.2-1.9c0.1-0.6,0.2-1.1,0.3-1.7
			c0.1-0.7,0.2-1.2,0.2-1.5h-1.7c-0.7,0-1.3,0-1.8,0c-0.4,0-0.7,0-0.7,0c-0.1,0-0.2,0-0.2-0.1c0-0.1-0.1-0.3-0.1-0.5V35
			c-0.1-1.5-0.3-3.4-0.7-5.6c-0.4-2.2-0.9-4-1.5-5.6c-0.2-0.6-0.3-1.1-0.3-1.3c0-0.1,0.1-0.2,0.2-0.3c0.1,0,0.4-0.1,0.9-0.1
			c0.3,0,0.7,0,1.3,0h0.7c0.4,0,0.7,0.1,0.8,0.2s0.2,0.5,0.3,1c0,0.1,0.1,0.4,0.2,1c0,0.2,0.1,0.6,0.2,1.2s0.2,1.1,0.3,1.5
			c0.2,0.8,0.4,2.1,0.7,3.9c0.3,1.8,0.4,3,0.5,3.6c0,0.1,0,0.3,0.1,0.5h1.2c0.3-2.9,0.6-5.4,1.2-7.5c0.2-0.9,0.5-1.8,0.8-2.6
			c0.3-0.8,0.8-1.5,1.4-2.2c0.6-0.7,1.5-1,2.5-1c0.9,0,1.4,0.2,1.4,0.6C153.9,22.7,153.9,22.8,153.9,23L153.9,23z M168.1,24
			c-0.2,1.4-0.4,2.8-0.4,4.1c0,2.4,0.2,4.8,0.5,7.2c0,0.3-0.1,0.5-0.2,0.7c-0.1,0.1-0.5,0.2-1,0.2h-1.8c-0.3,0-0.5-0.1-0.7-0.3
			c-0.2-0.2-0.3-0.7-0.4-1.4c-0.1-0.7-0.2-1.7-0.2-3.1c0-1.7,0.1-3.4,0.2-5.1l-5,3c0.1,2.1,0.2,4.1,0.5,6c0,0.3-0.1,0.5-0.2,0.7
			c-0.1,0.1-0.5,0.2-1,0.2h-1.8c-0.3,0-0.5-0.1-0.6-0.2c-0.1-0.2-0.2-0.5-0.2-0.9c0-0.8-0.1-1.4-0.1-1.9c-0.1-1.4-0.1-3.1-0.1-4.9
			c0-1.3,0-2.4,0.1-3.3c0.1-0.9,0.1-1.5,0.2-1.8c0.1-0.4,0.2-0.6,0.3-0.7c0.1-0.1,0.3-0.1,0.5-0.1h2.7c0.3,0,0.4,0.2,0.4,0.5
			c0,0.1,0,0.5-0.1,1.2c-0.2,1.5-0.4,2.9-0.4,4.1l5.1-3c0.1-1.1,0.1-1.8,0.1-2.1c0-0.3,0.1-0.5,0.2-0.6c0.1-0.1,0.3-0.2,0.6-0.2h2.6
			c0.3,0,0.4,0.2,0.4,0.5C168.2,22.9,168.2,23.3,168.1,24L168.1,24z M181.8,33.8c-0.4,0.9-0.9,1.6-1.5,2.2c-0.6,0.5-1.4,0.8-2.1,0.8
			c-0.7,0-1.5-0.3-2.2-0.8c-0.8-0.5-1.3-1.1-1.7-1.8c0,0.1,0.1,0.4,0.1,1c0.2,1.4,0.3,3,0.3,4.8c0,1.5-0.2,2.6-0.5,3.1
			c-0.3,0.6-0.8,0.9-1.4,0.9c-0.4,0-0.6-0.1-0.7-0.3v-0.2c0-0.4,0-1.2,0-2.5c0-1.4,0-2.7-0.1-4c-0.1-0.8-0.2-1.7-0.3-2.8
			c-0.1-1.1-0.2-1.9-0.2-2.4c0-0.5-0.1-1.1-0.1-1.8c0-1.6,0.3-3.1,1-4.4c0.7-1.3,1.5-2.3,2.4-3.1c0.9-0.7,1.6-1.1,2.2-1.1
			c0.5,0,1,0.3,1.6,0.8c0.6,0.5,1.2,1.2,1.8,2.1c0.6,0.9,1,1.9,1.4,3c0.4,1.1,0.6,2.3,0.6,3.5C182.3,31.8,182.2,32.8,181.8,33.8
			L181.8,33.8z M179.1,31.4c-0.1-0.8-0.3-1.6-0.6-2.7c-0.4-1-0.9-2-1.5-2.8c-0.6-0.9-1.3-1.5-2-1.8c-0.5,0.7-0.8,1.4-1,2.1
			c-0.2,0.7-0.3,1.5-0.3,2.5c0,1.2,0.2,2.2,0.6,3.2c0.4,0.9,0.9,1.7,1.5,2.2c0.6,0.5,1.1,0.8,1.6,0.8c0.4,0,0.7-0.2,1-0.5
			c0.3-0.3,0.5-0.9,0.6-1.8V31.4z M195.5,31.3c-0.4,1-0.8,2-1.4,2.9c-0.6,0.9-1.2,1.7-1.8,2.2c-0.6,0.6-1.2,0.8-1.7,0.8
			c-0.7,0-1.4-0.4-2.3-1.1c-0.9-0.7-1.6-1.7-2.3-2.8c-0.6-1.1-0.9-2.2-0.9-3.2c0-1.6,0.3-3,1-4.4s1.4-2.5,2.3-3.3
			c0.9-0.8,1.6-1.2,2.1-1.2c0.4,0,0.9,0.1,1.5,0.4c0.6,0.3,1.3,0.7,1.9,1.3c0.6,0.6,1.1,1.3,1.6,2.3c0.4,0.9,0.6,2,0.6,3.1
			C196,29.3,195.8,30.3,195.5,31.3L195.5,31.3z M192.9,28.3c-0.4-1-1.1-1.8-1.9-2.5c-0.8-0.7-1.8-1-2.9-1.2
			c-0.6,0.8-0.9,1.6-0.9,2.4c0,0.8,0.2,1.7,0.6,2.8c0.4,1,1.1,1.9,2,2.7c0.9,0.7,2,1.1,3.3,1.1c0.3-0.6,0.5-1.4,0.5-2.2
			C193.6,30.3,193.3,29.2,192.9,28.3z M209.5,30.5c1.5,0.9,2.2,2.1,2.2,3.7c0,0.6-0.1,1-0.3,1.3c-0.2,0.3-0.5,0.5-0.9,0.6
			c-0.4,0.1-0.8,0.1-1.5,0.1h-9.2c-0.3,0-0.5-0.1-0.6-0.2c-0.1-0.1-0.2-0.4-0.3-0.9c-0.1-0.5-0.1-1.2-0.1-2.2c0-0.8,0-1.4,0-1.9
			c0.1-2.6,0.1-4.3,0.1-5.3c0-0.9,0.1-1.7,0.2-2.2c0.1-0.5,0.2-0.9,0.3-1c0.1-0.2,0.3-0.2,0.6-0.2h7.2c1,0,1.8,0.1,2.2,0.3
			c0.4,0.2,0.7,0.7,0.7,1.4c0,1.1-0.5,2-1.4,2.6c-0.9,0.6-2.3,1.2-4,1.7v0.2C206.5,29,208,29.6,209.5,30.5L209.5,30.5z M205.8,26
			c0.3-0.5,0.4-1,0.4-1.5c0-0.5-0.2-0.8-0.5-1c-0.3-0.2-0.8-0.3-1.4-0.3c-0.3,0-0.8,0-1.6,0.1c-0.1,1.4-0.2,2.9-0.2,4.5
			c0.8,0,1.4-0.2,2-0.5C205.1,26.9,205.5,26.5,205.8,26z M202.5,29c0,0,0,0.3,0,1c0,0.6,0,1.1,0,1.5c0,0.7,0,1.9,0.1,3.7
			c0,0,0.3,0,0.7,0c0.5,0,0.9,0,1.1,0c0.7,0,1.3,0,1.7-0.1c0.4-0.1,0.7-0.2,0.9-0.5c0.2-0.3,0.3-0.7,0.3-1.2c0-0.6-0.2-1.2-0.6-1.9
			c-0.4-0.7-0.9-1.3-1.6-1.8C204.4,29.2,203.5,29,202.5,29z M225.8,23.9c-0.1,0.3-0.2,0.9-0.2,1.6c0,0.1,0,0.2,0,0.4
			c0,0.1,0,0.2,0,0.3l-0.8,0c-0.3-0.6-0.7-0.9-1.4-0.9c-0.5,0-1.1,0.3-1.7,0.8c-0.7,0.6-1.2,1.2-1.7,2c-0.2,0.4-0.5,0.7-0.6,0.9
			c1.4,0.4,2.6,0.9,3.5,1.6c1,0.6,1.7,1.3,2.2,2c0.5,0.7,0.9,1.3,1.1,1.9c0.2,0.6,0.3,1.1,0.3,1.5c0,0.3-0.4,0.4-1.1,0.4
			c-0.1,0-0.3,0-0.6-0.1c-0.2,0-0.4,0-0.5,0c-0.4,0-0.7,0-1,0.1c-0.3,0-0.5,0.1-0.5,0.1c-0.2,0-0.3-0.1-0.4-0.2
			c-0.1-0.2-0.2-0.5-0.2-1c-0.1-0.8-0.4-1.6-0.7-2.3c-0.4-0.7-0.8-1.4-1.4-1.9c-0.6-0.5-1.2-0.9-1.9-1.1c0,2.3,0.1,4.2,0.3,5.6v0.3
			c0,0.4-0.5,0.5-1.4,0.5h-1.4c-0.3,0-0.5-0.1-0.7-0.2c-0.1-0.1-0.2-0.5-0.3-0.9c-0.1-0.5-0.1-1.3-0.1-2.3c0-1,0-2.5,0-4.5
			c0-1.8,0-3.2,0.1-4c0.1-0.9,0.2-1.4,0.3-1.7c0.2-0.2,0.4-0.4,0.7-0.4c0.1,0,0.2,0,0.4,0c0.2,0,0.3,0,0.4,0c0.5,0,1,0,1.5-0.1h0.3
			c0.2,0.1,0.4,0.2,0.4,0.5c0,0.2-0.1,0.7-0.2,1.4c-0.2,1.4-0.3,2.9-0.3,4.6h0.2c2.5-4.5,4.7-6.7,6.7-6.7c0.3,0,0.6,0,0.9,0.1
			c0.3,0.1,0.4,0.2,0.4,0.3c0,0.2-0.1,0.4-0.2,0.6C226.1,23.3,226,23.6,225.8,23.9L225.8,23.9z M240.8,36.2h-3.1
			c-0.2,0-0.3-0.2-0.3-0.5c0-0.3-0.2-0.8-0.4-1.6c-0.1-0.2-0.2-0.6-0.4-1.1c-0.1-0.4-0.2-0.9-0.4-1.3c-1,3.2-2.6,4.9-4.7,4.9
			c-0.8,0-1.4-0.2-1.9-0.6c-0.5-0.4-0.8-0.9-1-1.5c-0.2-0.6-0.3-1.2-0.3-1.7c0-0.5,0.1-1.1,0.4-1.7c0.3-0.6,0.6-1.2,1-1.8
			c0.4-0.6,0.8-1,1-1.4c0.3-0.3,0.7-0.8,1.3-1.5c0.3-0.3,0.6-0.6,0.9-1s0.6-0.6,0.7-0.8c0.1-0.2,0.2-0.3,0.2-0.5
			c0-0.2-0.1-0.6-0.2-1c-0.1-0.2-0.1-0.4-0.1-0.6c0-0.1,0.2-0.2,0.6-0.2h3.1c0.2,0,0.3,0.1,0.4,0.2c0,0.1,0,0.2,0,0.3
			c0,0.1,0,0.3,0.1,0.4c0,0.2,0.1,0.4,0.1,0.6c0.1,0.3,0.2,0.5,0.2,0.8c0.1,0.3,0.1,0.6,0.2,0.9c0.1,0.2,0.1,0.5,0.2,0.9
			c0.6,2.5,1.1,4.3,1.5,5.6c0.4,1.2,0.7,2.2,1,2.8c0.3,0.6,0.4,1,0.4,1.1C241.4,36.2,241.2,36.2,240.8,36.2L240.8,36.2z M235.3,28.2
			c-0.2-0.6-0.3-1.1-0.4-1.3c-0.1-0.5-0.3-1.1-0.5-1.6c-1.2,1.3-1.9,2.4-2.4,3.3c-0.4,0.9-0.6,1.7-0.6,2.2c0,0.5,0.1,1,0.4,1.4
			c0.3,0.4,0.7,0.6,1.3,0.6c0.5,0,1-0.1,1.4-0.4c0.4-0.3,0.7-0.6,0.9-1c0.2-0.4,0.3-0.7,0.3-1.1C235.7,30,235.6,29.3,235.3,28.2z
			 M247.6,34.4c0,0.1,0,0.4,0,0.7c0,0.3,0,0.6,0,0.7c0,0.3-0.1,0.4-0.4,0.4H247c-0.6,0-1-0.1-1.3-0.1c-0.4,0-0.8,0-1,0
			c-0.4,0-0.5-0.1-0.6-0.2c-0.1-0.2-0.2-0.7-0.2-1.7c0-0.6,0-1,0.1-1.3c0-0.3,0.1-0.4,0.2-0.5c0.1-0.1,0.2-0.1,0.4-0.1
			c0.3,0,0.6,0,1,0c0.3,0,0.7,0,1.3-0.1h0.3c0.3,0,0.4,0.2,0.4,0.4c0,0.2,0,0.4,0,0.7C247.6,34,247.6,34.2,247.6,34.4z M261.6,33.8
			c-0.4,0.9-0.9,1.6-1.5,2.2c-0.6,0.5-1.4,0.8-2.1,0.8c-0.7,0-1.5-0.3-2.2-0.8c-0.8-0.5-1.3-1.1-1.7-1.8c0,0.1,0.1,0.4,0.1,1
			c0.2,1.4,0.3,3,0.3,4.8c0,1.5-0.2,2.6-0.5,3.1c-0.3,0.6-0.8,0.9-1.4,0.9c-0.4,0-0.6-0.1-0.7-0.3v-0.2c0-0.4,0-1.2,0-2.5
			c0-1.4-0.1-2.7-0.1-4c-0.1-0.8-0.2-1.7-0.3-2.8c-0.1-1.1-0.2-1.9-0.2-2.4c0-0.5-0.1-1.1-0.1-1.8c0-1.6,0.3-3.1,1-4.4
			c0.7-1.3,1.5-2.3,2.4-3.1c0.9-0.7,1.6-1.1,2.2-1.1c0.5,0,1,0.3,1.6,0.8c0.6,0.5,1.2,1.2,1.8,2.1s1,1.9,1.4,3
			c0.4,1.1,0.6,2.3,0.6,3.5C262.1,31.8,261.9,32.8,261.6,33.8L261.6,33.8z M258.9,31.4c-0.1-0.8-0.3-1.6-0.6-2.7
			c-0.4-1-0.9-2-1.5-2.8c-0.6-0.9-1.3-1.5-2-1.8c-0.5,0.7-0.8,1.4-1,2.1c-0.2,0.7-0.3,1.5-0.3,2.5c0,1.2,0.2,2.2,0.6,3.2
			c0.4,0.9,0.9,1.7,1.5,2.2c0.6,0.5,1.1,0.8,1.6,0.8c0.4,0,0.7-0.2,1-0.5c0.3-0.3,0.5-0.9,0.6-1.8V31.4z M284.2,33.9
			c-0.4,0.8-0.9,1.4-1.7,1.9c-0.8,0.5-1.8,0.8-2.9,0.8c-1.4,0-2.6-0.3-3.5-1V44h-2.5v-8.4c-1,0.7-2.1,1-3.5,1
			c-1.4,0-2.6-0.4-3.7-1.3c-1-0.9-1.5-2.1-1.5-3.5c0-0.7,0.1-1.4,0.3-2c0.2-0.6,0.6-1.2,1-1.7c0.4-0.5,1-1.1,1.6-1.6
			c0.6-0.5,1.5-1.2,2.5-2c1-0.7,1.6-1.3,2.1-1.8c0.4-0.5,0.7-0.9,0.8-1.3c0.1-0.4,0.1-0.8,0.1-1.4l-0.1-2.3c0-0.2,0-0.4,0-0.6
			c0-0.2,0-0.3,0-0.5c0-0.1,0-0.2,0-0.3c0-0.1,0-0.2,0-0.2c0-0.3,0.4-0.5,1.1-0.7c0.7-0.2,1.3-0.3,1.8-0.3c0.2,0,0.3,0.1,0.4,0.3
			c0.1,0.2,0.1,0.5,0.1,0.9l-0.2,3.8c0,0.7,0.1,1.3,0.3,1.8c0.2,0.5,0.5,0.9,0.9,1.3c0.4,0.3,1,0.8,1.7,1.4c1.3,0.9,2.2,1.7,3,2.4
			c0.7,0.6,1.3,1.4,1.8,2.2c0.5,0.8,0.7,1.7,0.7,2.7C284.7,32.4,284.5,33.1,284.2,33.9L284.2,33.9z M273.3,23.6
			c-0.4,0.4-0.8,0.7-1.2,1.1c-0.9,0.8-1.6,1.4-2,1.8c-0.4,0.4-0.8,0.9-1.1,1.5c-0.3,0.6-0.5,1.3-0.5,2.1c0,1,0.2,1.9,0.5,2.6
			c0.4,0.7,0.8,1.2,1.4,1.5c0.6,0.3,1.2,0.5,1.8,0.5c0.4,0,0.8-0.1,1.2-0.3L273.3,23.6L273.3,23.6z M280.6,28.2
			c-0.3-0.6-0.6-1-0.9-1.4c-0.4-0.4-0.8-0.8-1.4-1.3c-0.3-0.3-0.7-0.7-1.2-1.1c-0.2-0.2-0.5-0.5-0.8-0.7l-0.2,10.9
			c0.4,0.2,0.8,0.3,1.2,0.3c0.6,0,1.2-0.2,1.7-0.5c0.6-0.3,1-0.8,1.4-1.5c0.4-0.7,0.6-1.5,0.6-2.5C281,29.4,280.9,28.8,280.6,28.2
			L280.6,28.2z"/>
	</defs>
	<clipPath id="SVGID_2_">
		<use xlink:href="#SVGID_1_"  style="overflow:visible;"/>
	</clipPath>
	<rect x="77.7" y="7.6" class="st0" width="211.7" height="39.3"/>
</g>
<g>
	<defs>
		<path id="SVGID_3_" d="M97.9,61.1H96l-4.2-5.2h-1.4v5.2h-1.5V49.6h1.5v5.1h1.2l4-5.1h1.9l-4.4,5.6L97.9,61.1z M106.8,61.1l-1.1-3
			h-4.8l-1.1,3h-1.6l4.4-11.6h1.3l4.4,11.6C108.3,61.1,106.8,61.1,106.8,61.1z M103.2,51.5l-2,5.4h3.9
			C105.2,56.9,103.2,51.5,103.2,51.5z M113.1,50.8v10.3h-1.5V50.8h-3.7v-1.2h8.9v1.2H113.1z M125.4,61.1l-1.1-3h-4.8l-1.1,3h-1.6
			l4.4-11.6h1.3l4.4,11.6H125.4z M121.9,51.5l-2,5.4h3.9L121.9,51.5z M135.9,61.1V50.8h-4.1l-0.1,4.2c0,1.1-0.1,2-0.2,2.7
			c-0.1,0.8-0.3,1.4-0.6,1.9c-0.3,0.5-0.6,0.9-1.1,1.1c-0.4,0.2-1,0.4-1.6,0.4h-0.4v-1.2h0.3c0.4,0,0.7-0.1,0.9-0.3
			c0.3-0.2,0.5-0.5,0.6-0.9c0.2-0.4,0.3-0.9,0.4-1.5c0.1-0.6,0.1-1.4,0.2-2.3l0.2-5.4h7.1v11.6L135.9,61.1L135.9,61.1z M148.7,58.1
			c-0.2,0.7-0.5,1.3-0.9,1.7c-0.4,0.5-0.9,0.8-1.5,1.1c-0.6,0.3-1.2,0.4-1.9,0.4c-0.7,0-1.3-0.1-1.9-0.4c-0.6-0.3-1.1-0.6-1.5-1.1
			c-0.4-0.5-0.7-1.1-1-1.7c-0.2-0.7-0.3-1.5-0.3-2.3V55c0-0.9,0.1-1.6,0.3-2.3c0.2-0.7,0.5-1.3,1-1.8c0.4-0.5,0.9-0.9,1.5-1.1
			c0.6-0.3,1.2-0.4,1.9-0.4c0.7,0,1.3,0.1,1.9,0.4c0.6,0.3,1.1,0.6,1.5,1.1c0.4,0.5,0.7,1.1,0.9,1.8c0.2,0.7,0.3,1.5,0.3,2.3v0.7
			C149.1,56.6,148.9,57.4,148.7,58.1z M147.5,55c0-0.7-0.1-1.3-0.2-1.8c-0.1-0.5-0.3-1-0.6-1.3c-0.3-0.4-0.6-0.6-1-0.8
			c-0.4-0.2-0.8-0.3-1.3-0.3c-0.5,0-0.9,0.1-1.3,0.3c-0.4,0.2-0.7,0.5-1,0.8c-0.3,0.4-0.5,0.8-0.6,1.3c-0.1,0.5-0.2,1.1-0.2,1.8v0.7
			c0,0.7,0.1,1.3,0.2,1.8c0.1,0.5,0.4,1,0.6,1.3c0.3,0.4,0.6,0.6,1,0.8c0.4,0.2,0.8,0.3,1.3,0.3c0.5,0,0.9-0.1,1.3-0.3
			c0.4-0.2,0.7-0.5,1-0.8c0.3-0.4,0.5-0.8,0.6-1.3c0.1-0.5,0.2-1.1,0.2-1.8L147.5,55L147.5,55z M152.9,50.8v10.3h-1.5V49.6h7.1v1.2
			H152.9z M168.4,50.8v10.3h-1.5V50.8h-3.7v-1.2h8.9v1.2H168.4L168.4,50.8z M180.6,61.1l-1.1-3h-4.8l-1.1,3H172l4.4-11.6h1.3
			l4.4,11.6H180.6z M177.1,51.5l-2,5.4h3.9L177.1,51.5L177.1,51.5z M187,50.8v10.3h-1.5V50.8h-3.7v-1.2h8.9v1.2H187L187,50.8z
			 M196.7,59.2c-0.1,0.3-0.3,0.5-0.4,0.8c-0.1,0.3-0.3,0.5-0.5,0.7c-0.2,0.2-0.5,0.4-0.8,0.5c-0.3,0.1-0.7,0.2-1.1,0.2
			c-0.1,0-0.1,0-0.2,0c-0.1,0-0.2,0-0.2,0c-0.1,0-0.1,0-0.2,0s-0.1,0-0.1,0l0-1.2c0,0,0.1,0,0.1,0c0.1,0,0.1,0,0.2,0
			c0.1,0,0.1,0,0.2,0c0.1,0,0.1,0,0.2,0c0.2,0,0.4,0,0.6-0.1c0.1-0.1,0.3-0.2,0.4-0.3c0.1-0.1,0.2-0.2,0.3-0.4
			c0.1-0.1,0.1-0.3,0.2-0.4l0.3-0.7l-3.9-8.6h1.7l3,6.7l2.7-6.7h1.8L196.7,59.2L196.7,59.2z M200.6,56.8v-1.2h3.9v1.2H200.6z
			 M212.9,52.2c-0.1-0.3-0.3-0.6-0.5-0.8c-0.2-0.2-0.5-0.4-0.8-0.5c-0.3-0.1-0.7-0.2-1.1-0.2c-0.5,0-1,0.1-1.4,0.3
			c-0.4,0.2-0.7,0.5-1,0.8c-0.3,0.4-0.5,0.8-0.6,1.3c-0.1,0.5-0.2,1.1-0.2,1.7v1.2c0,0.6,0.1,1.1,0.2,1.6c0.1,0.5,0.3,0.9,0.5,1.3
			c0.2,0.4,0.6,0.7,0.9,0.9c0.4,0.2,0.8,0.3,1.3,0.3c0.5,0,0.9-0.1,1.2-0.2c0.3-0.1,0.6-0.3,0.8-0.5c0.2-0.2,0.4-0.5,0.5-0.8
			c0.1-0.3,0.2-0.7,0.3-1.1h1.5c-0.1,0.5-0.2,1.1-0.4,1.5c-0.2,0.5-0.5,0.9-0.8,1.2c-0.4,0.3-0.8,0.6-1.3,0.8
			c-0.5,0.2-1.1,0.3-1.8,0.3c-0.7,0-1.3-0.1-1.9-0.4c-0.6-0.3-1-0.6-1.4-1.1c-0.4-0.5-0.7-1-0.9-1.7c-0.2-0.7-0.3-1.4-0.3-2.2v-1.2
			c0-0.8,0.1-1.5,0.3-2.2c0.2-0.7,0.5-1.2,0.9-1.7c0.4-0.5,0.9-0.8,1.5-1.1c0.6-0.3,1.2-0.4,1.9-0.4c0.6,0,1.2,0.1,1.7,0.3
			c0.5,0.2,0.9,0.5,1.3,0.8c0.4,0.3,0.6,0.7,0.8,1.2c0.2,0.5,0.3,1,0.4,1.6h-1.5C213.1,52.9,213,52.5,212.9,52.2L212.9,52.2z
			 M224.2,61.1l-1.1-3h-4.8l-1.1,3h-1.6l4.4-11.6h1.3l4.4,11.6H224.2L224.2,61.1z M220.7,51.5l-2,5.4h3.9L220.7,51.5z M234.7,61.1
			V50.8h-4.1l-0.1,4.2c0,1.1-0.1,2-0.2,2.7c-0.1,0.8-0.3,1.4-0.6,1.9c-0.3,0.5-0.6,0.9-1.1,1.1c-0.4,0.2-1,0.4-1.6,0.4h-0.4v-1.2
			h0.3c0.4,0,0.7-0.1,0.9-0.3c0.3-0.2,0.5-0.5,0.6-0.9c0.2-0.4,0.3-0.9,0.4-1.5c0.1-0.6,0.1-1.4,0.2-2.3l0.2-5.4h7.1v11.6
			L234.7,61.1L234.7,61.1z M247.5,58.1c-0.2,0.7-0.5,1.3-0.9,1.7c-0.4,0.5-0.9,0.8-1.5,1.1c-0.6,0.3-1.2,0.4-1.9,0.4
			c-0.7,0-1.3-0.1-1.9-0.4c-0.6-0.3-1.1-0.6-1.5-1.1c-0.4-0.5-0.7-1.1-1-1.7c-0.2-0.7-0.3-1.5-0.3-2.3V55c0-0.9,0.1-1.6,0.3-2.3
			c0.2-0.7,0.5-1.3,1-1.8c0.4-0.5,0.9-0.9,1.5-1.1c0.6-0.3,1.2-0.4,1.9-0.4c0.7,0,1.3,0.1,1.9,0.4c0.6,0.3,1.1,0.6,1.5,1.1
			c0.4,0.5,0.7,1.1,0.9,1.8c0.2,0.7,0.3,1.5,0.3,2.3v0.7C247.9,56.6,247.8,57.4,247.5,58.1L247.5,58.1z M246.4,55
			c0-0.7-0.1-1.3-0.2-1.8c-0.1-0.5-0.3-1-0.6-1.3c-0.3-0.4-0.6-0.6-1-0.8c-0.4-0.2-0.8-0.3-1.3-0.3c-0.5,0-0.9,0.1-1.3,0.3
			c-0.4,0.2-0.7,0.5-1,0.8c-0.3,0.4-0.5,0.8-0.6,1.3c-0.1,0.5-0.2,1.1-0.2,1.8v0.7c0,0.7,0.1,1.3,0.2,1.8c0.1,0.5,0.4,1,0.6,1.3
			c0.3,0.4,0.6,0.6,1,0.8c0.4,0.2,0.8,0.3,1.3,0.3c0.5,0,0.9-0.1,1.3-0.3c0.4-0.2,0.7-0.5,1-0.8c0.3-0.4,0.5-0.8,0.6-1.3
			c0.1-0.5,0.2-1.1,0.2-1.8L246.4,55L246.4,55z M257.5,61.1v-5.3h-5.8v5.3h-1.5V49.6h1.5v5h5.8v-5h1.5v11.6
			C259,61.1,257.5,61.1,257.5,61.1z M270.3,58.1c-0.2,0.7-0.5,1.3-0.9,1.7c-0.4,0.5-0.9,0.8-1.5,1.1c-0.6,0.3-1.2,0.4-1.9,0.4
			c-0.7,0-1.3-0.1-1.9-0.4c-0.6-0.3-1.1-0.6-1.5-1.1c-0.4-0.5-0.7-1.1-1-1.7c-0.2-0.7-0.3-1.5-0.3-2.3V55c0-0.9,0.1-1.6,0.3-2.3
			c0.2-0.7,0.5-1.3,1-1.8c0.4-0.5,0.9-0.9,1.5-1.1c0.6-0.3,1.2-0.4,1.9-0.4c0.7,0,1.3,0.1,1.9,0.4c0.6,0.3,1.1,0.6,1.5,1.1
			c0.4,0.5,0.7,1.1,0.9,1.8c0.2,0.7,0.3,1.5,0.3,2.3v0.7C270.6,56.6,270.5,57.4,270.3,58.1L270.3,58.1z M269.1,55
			c0-0.7-0.1-1.3-0.2-1.8c-0.1-0.5-0.3-1-0.6-1.3c-0.3-0.4-0.6-0.6-1-0.8c-0.4-0.2-0.8-0.3-1.3-0.3c-0.5,0-0.9,0.1-1.3,0.3
			c-0.4,0.2-0.7,0.5-1,0.8c-0.3,0.4-0.5,0.8-0.6,1.3c-0.1,0.5-0.2,1.1-0.2,1.8v0.7c0,0.7,0.1,1.3,0.2,1.8c0.1,0.5,0.4,1,0.6,1.3
			c0.3,0.4,0.6,0.6,1,0.8c0.4,0.2,0.8,0.3,1.3,0.3c0.5,0,0.9-0.1,1.3-0.3c0.4-0.2,0.7-0.5,1-0.8c0.3-0.4,0.5-0.8,0.6-1.3
			c0.1-0.5,0.2-1.1,0.2-1.8L269.1,55L269.1,55z M280.2,56.1c0.2,0.2,0.3,0.5,0.4,0.8c0.1,0.3,0.1,0.6,0.1,0.9c0,0.5-0.1,1-0.3,1.4
			c-0.2,0.4-0.4,0.8-0.8,1c-0.3,0.3-0.7,0.5-1.2,0.6c-0.5,0.1-1,0.2-1.6,0.2h-4V49.6h3.8c0.6,0,1.1,0.1,1.6,0.2
			c0.5,0.1,0.9,0.3,1.2,0.6c0.3,0.3,0.6,0.6,0.7,1c0.2,0.4,0.3,0.8,0.3,1.4c0,0.5-0.2,1-0.5,1.4c-0.3,0.4-0.7,0.7-1.2,1
			c0.3,0.1,0.6,0.2,0.9,0.4C279.9,55.6,280.1,55.8,280.2,56.1L280.2,56.1z M278.8,53.4c0.1-0.2,0.2-0.5,0.2-0.8
			c0-0.6-0.2-1.1-0.6-1.4c-0.4-0.3-0.9-0.4-1.7-0.4h-2.3v3.7h2.3c0.3,0,0.6,0,0.9-0.1c0.3-0.1,0.5-0.2,0.7-0.4
			C278.5,53.8,278.7,53.6,278.8,53.4z M279.1,57c-0.1-0.3-0.2-0.5-0.4-0.7c-0.2-0.2-0.4-0.3-0.7-0.4c-0.3-0.1-0.6-0.1-1-0.1h-2.6
			v4.2h2.5c0.4,0,0.7,0,1-0.1c0.3-0.1,0.5-0.2,0.7-0.4c0.2-0.2,0.3-0.4,0.4-0.6c0.1-0.3,0.2-0.5,0.2-0.9
			C279.2,57.5,279.2,57.2,279.1,57L279.1,57z"/>
	</defs>
	<clipPath id="SVGID_4_">
		<use xlink:href="#SVGID_3_"  style="overflow:visible;"/>
	</clipPath>
	<rect x="79" y="46.9" class="st1" width="209.7" height="20"/>
</g>
<g id="g44">
	<defs>
		<path id="SVGID_5_" d="M30.3,0c0.5,0.7,0.6,2.4,0.7,3.4c-1.4,0-2.1,0.2-2.9,0.6c-0.1-1.3-0.6-2-1.2-2.8C28,0.8,29.2,0.4,30.3,0z
			 M32.5,3.4c0.1-1.1,0.3-2.2,0.4-3.2c0.2,0,0.4,0,0.6,0c1,0.3,2,0.7,2.9,1c-0.6,0.8-1,1.5-1.2,2.8C34.5,3.6,33.9,3.4,32.5,3.4z
			 M26.3,1.5c0,0,0.4,3.5,0.6,4c-3.1-0.3-3.4,2.2-5.7,3.2c0-0.2,0-0.4,0-0.6C22.5,4.8,24,3.5,26.3,1.5z M36.9,1.5
			c4.4,2.2,6.5,7.4,4.8,13.6c-0.1,0-0.2,0.1-0.3,0.1c-0.4-0.1-0.8-0.2-1.2-0.3c0.9-6,1.8-7.5-3.8-9.6C37.2,4.2,37.2,3,36.9,1.5z
			 M26.9,2.4c0.6,0.6,0.7,1.4,0.4,2.4c-0.1-0.1-0.3-0.2-0.4-0.3c0-0.1,0-0.2,0-0.3C26.9,3.5,26.9,3,26.9,2.4z M36.3,2.4
			c0.1,0.3,0.3,0.6,0.4,0.9c-0.1,0.4-0.3,0.8-0.4,1.2c0,0.1-0.1,0.2-0.1,0.3c0,0-0.1,0-0.1,0C35.9,3.7,35.9,3.1,36.3,2.4z M29.7,3.8
			c0.1,0,0.3,0,0.4,0c-0.2,0.3-0.5,0.7-0.7,1c-0.5,0.1-1,0.2-1.5,0.3C28,5,28,4.9,28.1,4.7C28.6,4.4,29.2,4.1,29.7,3.8z M30.9,3.8
			c2.8,5.4-3.8,10.9-6.1,12.7c-0.1-0.1-0.2-0.1-0.3-0.1c-0.1-0.4-0.3-0.9-0.4-1.3c3.5-1,6.7-6,3.7-9.3C29.3,5.6,30.2,5,30.9,3.8z
			 M32.3,4c0.4,0.2,3.2,2.1,3.2,2.1c-1.5,0.8-0.9,2.7-1.6,4c-0.2,0.1-0.4,0.3-0.6,0.4C32.2,9.2,32.3,6.4,32.3,4z M33.4,4
			c1.2,0,1.6,0.4,2,1c0,0,0,0.1,0,0.1C34.4,5.1,33.7,4.8,33.4,4z M16.5,7.7c0.2,0,0.4,0,0.6,0c0,0.2,0.1,0.4,0.1,0.6
			c0,0.9-0.1,1.9-0.1,2.8c-1-0.1-1.7,0-2.6,0.1c0-1-0.2-1.6-0.6-2.5C14.8,8.4,15.7,8,16.5,7.7z M46.2,7.7c1.1,0.1,2.5,0.5,3.2,1.2
			c-0.4,0.7-0.6,1.2-0.6,2.4c-0.9-0.2-1.7-0.3-2.6-0.1C46.2,9.9,46.2,8.8,46.2,7.7z M23.7,8.4c1.8,0,3.6,0.5,4.5,1.5
			c-0.2,0.4-0.5,0.8-0.7,1.2c-4.1-2.5-8.1,0.2-8.5,4.6c0.1,0,0.2,0,0.3,0c0.8,0.1,1.6,0.3,2.3,0.4c0.1,0.4,0.3,0.8,0.4,1.2
			c-1.8,0.1-3.3,0.1-4.8-0.4c0,0,0-0.1,0-0.1C18.1,11.6,19.6,10.2,23.7,8.4z M38.5,8.4c0.5,0.1,1.1,0.1,1.6,0.1
			c0.1,0.5,0.2,1,0.3,1.5c-4-0.1-5.3,1.6-7.3,3.4c-0.2-0.1-0.4-0.3-0.6-0.4c-0.4-1.2,0.1-1.1,0.9-2.1C35,10.2,36.6,9.3,38.5,8.4z
			 M13,9.2c0.1,0.2,0.1,2.6,0.3,3.4c-1.6-0.4-2,0.7-2.8,1.5c-0.4,0-0.9-0.1-1.3-0.1C9.7,11.5,11.5,10.5,13,9.2z M50,9.2
			c4,1.3,5.5,6.6,3.4,10.8c-0.1,0-0.3-0.1-0.4-0.1c-0.2-0.2-0.5-0.5-0.7-0.7c0.8-2.5,1.6-6.6-2.2-6.6C50.5,11.4,50.5,10.2,50,9.2z
			 M13.6,9.9c0.5,0.4,0.5,1,0.3,1.8c-0.1,0-0.2,0.1-0.3,0.1c0-0.1,0-0.2,0-0.3C13.6,11,13.6,10.4,13.6,9.9z M42.9,9.9
			c1.7,1,3.7,4.5,3.1,7.1c-5.2,0.7-9.3-0.4-11.4-4.1c0.1-0.2,0.3-0.4,0.4-0.6c0.2-0.1,0.4-0.2,0.6-0.3c0.1,0.1,0.3,0.2,0.4,0.3
			c1,2.1,4.8,4.4,8.3,3.4C44.1,13.2,42.9,12.7,42.9,9.9z M49.6,9.9c0.1,0.1,0.2,0.1,0.3,0.1c0,0.6-0.1,1.2-0.1,1.8c0,0-0.1,0-0.1,0
			c0,0-0.1-0.1-0.1-0.1C49.4,10.9,49.4,10.6,49.6,9.9z M22.2,11.1c0.2,1.1,0.5,2.2,0.7,3.2c0.7,2,1.9,3.6,3.1,5.2
			c-0.3,0.3-0.6,0.6-0.9,0.9c-0.1,0-0.3,0-0.4,0c-1.2-1.8-4.8-6.1-3.2-8.9C21.8,11.4,22,11.2,22.2,11.1z M15.2,11.5c0.3,0,0.7,0,1,0
			c-0.1,0.2-0.3,0.4-0.4,0.6c-0.4,0-0.9,0.1-1.3,0.1c0-0.1,0-0.1,0-0.1c0.1,0,0.2-0.1,0.3-0.1C14.9,11.8,15.1,11.7,15.2,11.5z
			 M30.3,11.5c3,1.5,4.1,5.6,6.3,8c-0.3,0.3-0.7,0.7-1,1c-2-2.6-3.9-5.2-5.9-7.8C29.9,12.3,30.1,11.9,30.3,11.5z M47.3,11.5
			c1,0,1.2,0.2,1.8,0.6c0,0.1-0.1,0.2-0.1,0.3c0,0-0.1,0-0.1,0C48,12.2,47.6,12.1,47.3,11.5z M16.8,11.7c1.5,1.8-2.9,8-3.9,8.7
			c-0.6-0.3-0.7-0.6-1-1c1.4-1.7,3.6-3.6,2.3-6.3C15.4,12.5,16.2,12.7,16.8,11.7z M46.2,11.7c0.9,0.4,1.8,0.8,2.9,1.3
			c-0.7,1.6-0.1,3-1,4.3c-0.1,0-0.2-0.1-0.3-0.1C47.3,15.4,46.6,13.9,46.2,11.7z M9.1,14.3c2.1,0.2,3.2,1,4.5,1.9c0,0,0,0.1,0,0.1
			c-0.3,0.3-0.6,0.7-0.9,1c-3.4-2.1-5.8-2.3-6.7,2.1c-0.9-0.4-1.9-0.5-2.9-0.1C4.1,16.1,6.1,15.6,9.1,14.3z M30.3,14.3
			c0.3,0.4,0.7,0.8,1,1.2c-1.7,3.2-3.8,6.1-7.2,7.7c-0.3-0.1-0.6-0.3-0.9-0.4c0-0.1-0.1-0.2-0.1-0.3c0-0.2,0.1-0.4,0.1-0.6
			C26.7,20.8,28.8,17.2,30.3,14.3z M55,14.5c2.5,0.8,4.7,2.2,5.3,4.9c-1.1-0.4-2.1-0.2-3.1,0.1c0.4-2.2-1.1-2.6-2.2-3.7
			C55,15.3,55,14.9,55,14.5z M51.9,14.8c0.1,0,0.3,0,0.4,0c0,0.4,0.1,0.9,0.1,1.3c-1.3,1.3-3,2.9-4.4,4c-2-0.8-0.6-1.9,0.7-2.8
			C49.6,16.1,50.9,15.6,51.9,14.8z M8.9,16.5c0.5,0,1,0,1.5,0c0.7,2.9,2.8,4.2,1.5,6.1c-0.2-0.1-0.4-0.3-0.6-0.4
			C10.5,20.2,9.4,19.1,8.9,16.5z M38.9,17.3c0.5,0.1,1,0.2,1.5,0.3c-0.5,2.1-7.3,9.7-8.2,6.6C34.7,22.6,37.5,19.9,38.9,17.3z
			 M15.4,18.3c1.2,0.6,5.2,4.2,5.7,5.5c-0.3,0-0.7,0-1,0c-2.2-0.9-4.3-2.5-5.4-4.4C14.9,19,15.1,18.6,15.4,18.3z M50.3,18.4
			c3.3,1.1,1.9,2.7,6.6,2.1c0,1.4,0.6,1.7,1.2,2.5c-3.4,0.1-8.1-1.6-8.3-4C49.9,18.8,50.1,18.6,50.3,18.4z M21.7,18.6
			c0.1,0,0.3,0,0.4,0c-0.1,5.5,3.4,6.8,6.7,8.7c0,0.2,0,0.4,0,0.6c-0.2,0.3-0.4,0.7-0.6,1c-0.3-0.3-0.6-0.6-0.9-0.9
			c-3.4-1.4-5.9-3.4-6.7-7.5c-1.8,0.1-1.8,0.2-2.9-0.7c0,0,0-0.1,0-0.1C19,19.3,20.3,18.9,21.7,18.6z M41.4,18.6
			c3.5,0.6,5.7,1.8,8.3,3c-0.1,0.1-0.3,0.3-0.4,0.4c-0.2,0.2-0.4,0.5-0.6,0.7c-1.8-0.9-3.5-2.1-6-2.2c-0.1,0.4-0.3,0.9-0.4,1.3
			c-0.4-0.1-0.9-0.2-1.3-0.3c0,0,0-0.1,0-0.1C41.1,20.5,41.3,19.5,41.4,18.6z M4.4,19.5c0.4,0.1,0.8,0.2,1.2,0.3
			c0,0.1-0.1,0.2-0.1,0.3c-0.9,0-1.2,0-1.6-0.4C4,19.6,4.2,19.5,4.4,19.5z M58.7,19.5c0.3,0.1,0.7,0.1,1,0.1c0,0.1-0.1,0.2-0.1,0.3
			c-0.1,0-0.2,0-0.3,0c-0.4,0.1-0.9,0.1-1.3,0.1c0-0.1,0-0.2,0-0.3C58.2,19.7,58.4,19.6,58.7,19.5z M2.8,19.9
			c0.7,0.3,1.5,0.6,2.2,0.9c-0.3,0.6-0.4,1.5-0.6,2.2c-0.7-0.1-1.5-0.3-2.2-0.4c0-0.2,0-0.5,0-0.7C2.4,21.2,2.6,20.6,2.8,19.9z
			 M58.8,22.9c0-1-0.1-1.6-0.4-2.2c1-0.1,1.4-0.3,2-0.7c0.5,0.6,0.8,1.9,0.7,2.7C60.4,22.7,59.6,22.8,58.8,22.9z M6.6,20.4
			c1,0.6,2.3,0.3,3.4,0.4c0.2,0.4,0.4,0.8,0.6,1.2c-1.7,0.5-3,1-5.3,1c0.3-0.3,0.6-0.6,0.9-0.9C6.3,21.5,6.4,21,6.6,20.4z M5.7,20.7
			c0.1,0,0.2,0,0.3,0c-0.1,0.9-0.3,1.2-0.9,1.6c0-0.2,0-0.5,0-0.7C5.3,21.3,5.5,21,5.7,20.7z M57.5,20.7c0.5,0.4,0.7,0.8,0.9,1.6
			c0,0-0.1,0-0.1,0c-0.1-0.1-0.3-0.2-0.4-0.3C57.7,21.5,57.6,21.1,57.5,20.7z M14.8,20.8c0.7,0.2,0.9,0.5,1.3,1c0,0,0,0.1,0,0.1
			c-1.5,0.6-2.9,1.7-3.7,3c-0.5,0-1.1-0.1-1.6-0.1C11.4,22.9,13.4,22,14.8,20.8z M38.5,21.3c1.3,0.3,2.6,1.5,4.5,1
			c0.7-0.2,1.2-0.8,1.9-0.7c0.4,0.1,0.8,0.3,1.2,0.4c-0.1,0.2-0.3,0.4-0.4,0.6c-2.7,1.3-5.5,1.3-8-0.3
			C37.9,21.9,38.2,21.6,38.5,21.3z M50.8,21.3c0.4,0.3,0.8,0.6,1.2,0.9c-0.1,0.1-0.2,0.2-0.3,0.3c-0.7,0.8-1.5,1.6-2.2,2.4
			c0.1,0.1,0.2,0.3,0.3,0.4c1.2,0.2,1.3,0.7,1.8,1.6c-2.1,0.1-3.8-0.6-4.8-1.6c0,0,0-0.1,0-0.1C48.2,24.4,49.8,22.6,50.8,21.3z
			 M27.7,21.4c2.4,1,4.8,3.9,6.1,6.1c-0.3,0.4-0.6,0.9-0.9,1.3c-0.1-0.1-0.2-0.1-0.3-0.1c-1.2-2.9-4.6-3.9-5.9-6.5
			C27.1,21.9,27.4,21.6,27.7,21.4z M14.5,23.5c0.7,0.6,1.5,1.2,2.2,1.8c0,0.1-0.1,0.2-0.1,0.3c-1.2,0.5-2.3,1.2-3.8,1.5
			c-4.2,0.7-8.9-3.2-11.1,1.3c-0.7,1.5-0.2,2.6,0.6,3.7c0.6,0.2,0.9,0.3,1.6,0.1c0,0,0-0.1,0-0.1c-0.4-0.7-0.7-1-0.7-2.2
			c0.5-1.1,1.1-1.7,2.6-1.8c7.4,3.1-2.1,5.7,1.3,9.2c0.4,0,0.9-0.1,1.3-0.1c0.3-0.2,0.6-0.5,0.9-0.7c-0.4-0.5-0.9-0.6-1.2-1.2
			c0-0.3,0-0.7,0-1c0.2-0.2,0.5-0.5,0.7-0.7c0.4,0,0.8,0.1,1.2,0.1c2.6,3.5-2.3,7.4-4.8,4.1c-3-3.9,4.5-5.4,1-7.7
			c-0.3-0.3-0.7-0.4-1.2-0.1c-0.4,0.3-0.3,0.2-0.4,0.7c0.6,0.4,1,0.5,1.2,1.3c-0.4,0.8-0.7,1.4-1.6,1.8c-5.4,1.6-4.8-6.5-2-8.3
			c3.5-2.2,9.4,1.4,11.9-0.4c-0.2-0.6-0.3-0.4,0-1C14.1,23.8,14.3,23.6,14.5,23.5z M51.5,23.5c0.9,0.4,1.2,1.3,1.6,2.2
			c2.5,5.2-0.8,9.1-5.6,9.9c-7.6,1.4-7.5-7.3-2.9-5.2c0.5,0.5,1.1,1,1.6,1.5c0.2-0.2,0.5-0.4,0.7-0.6c0.2-3.2-3.3-4.8-5.9-2.8
			c-3.3,2.5-1.6,8.1-5.1,10.2c0,0-0.1,0-0.1,0c-0.1-2,0.7-2.6,1-4.4c1-4.8,1.1-7.2,5.7-8.2c4.7-1,8.3,5.3,4.4,7.1
			c-0.6,0.4-1.4,0.5-2.2,0.3c0-0.9-0.2-1.3-0.7-1.8c-1,0.2-0.9,0.4-1.3,1c0.8,5,15.3-0.6,7.9-8.3C50.9,24.2,51.2,23.8,51.5,23.5z
			 M39.7,23.9c0.5,0.1,1.1,0.3,1.6,0.4c-0.4,0.4-0.8,0.9-1.2,1.3c-3.7,1.5-5.5,3.9-7.2,7.4c-0.1-0.1-0.2-0.1-0.3-0.1
			c-0.2-0.3-0.4-0.7-0.6-1C33.1,27,37,26.9,39.7,23.9z M55.9,24.5c3.9-0.2,6.4,0.8,7.5,3.4c1.3,3.2-0.6,6-3.8,5.9
			c-1.1-0.5-1.8-1.1-1.9-2.5c0.4-0.3,0.8-0.6,1.2-0.9c0-0.1,0-0.3,0-0.4c-0.1-0.1-0.2-0.2-0.3-0.3c-0.3,0-0.7,0-1,0
			c-0.4,0.3-0.5,0.3-0.7,0.7c-1.8,2.4,1.8,2.1,2.2,3.9c1.2,4.7-3.7,4.9-5.9,3.4c-0.6-1.7-0.7-2.8,0.3-4.1c0.1,0,0.2-0.1,0.3-0.1
			c0.3,0,0.6,0.1,0.9,0.1c0.3,0.2,0.6,0.5,0.9,0.7c0,0.3-0.1,0.6-0.1,0.9c-0.3,0.6-0.6,0.7-1.2,1c0,0.1,0.1,0.3,0.1,0.4
			c0.5,0.4,1,0.8,1.6,0.6c0.8-0.2,1.2-0.5,1.5-1.2c0.5-2.5-2-1.2-2.5-3.3c-0.7-3,2.4-6.1,4.5-4.1c0.3,0.3,0.6,0.6,0.9,0.9
			c0,1.5-0.6,2.1-0.4,2.8c0,0,0.1,0,0.1,0c2.5-0.3,2.7-3.7,1.2-5.2c-1.6-1.6-4.7-1.1-7.2-0.7c-0.1-0.4-0.3-0.9-0.4-1.3
			c0.1,0,0.2,0,0.3,0C54.5,24.9,55.2,24.7,55.9,24.5z M18.7,26.1c6.4-0.1,6.8,2.4,7.8,7.9c0.4,1.9,1.1,2.7,1,4.7c0,0-0.1,0-0.1,0
			c-3.5-2.2-1.8-7.7-5.1-10.2c-1.9-1.4-4.8-0.9-5.7,1.2c0,0.5,0,1,0,1.5c0.3,0.6,0.2,0.6,0.9,0.7c0.4-1.1,1-1.4,2.2-1.8
			c5,1.7,1.4,6.5-3.8,5.5c-4.6-0.9-6.8-2.8-6.1-8.4c0.5,0.1,1,0.2,1.5,0.3c-0.6,3.7,0.9,5.2,3.4,6.2c2.8,1.1,6,2,6.1-0.9
			c-0.2-0.5-0.3-0.6-0.7-0.9c-0.2,0-0.5-0.1-0.7-0.1c-0.2,0.6-0.5,1.3-0.7,1.9c-0.8-0.1-1.6-0.3-2.3-0.4
			C13.5,29.9,15.7,27.6,18.7,26.1z M30.3,26.4c0.3,0.3,0.7,0.7,1,1c-0.5,1.1-1.1,2.3-1.6,3.4c-0.6,2.1-0.3,1.5-0.9,3.4
			c-0.1,0-0.2-0.1-0.3-0.1C27.5,30.2,28.6,29.1,30.3,26.4z M30.4,30.3c1,0.7,2.5,1.3,2.6,2.8c-0.2,0.4-0.4,0.8-0.6,1.2
			c-0.1,0-0.2-0.1-0.3-0.1C31.3,31.7,30,33.2,30.4,30.3z M34.8,30.4c2.3,2.2-1.3,6.3-1.9,7.9c-0.1-0.1-0.2-0.1-0.3-0.1
			c-0.2-0.4-0.4-0.9-0.6-1.3C32.6,34.2,34,32.9,34.8,30.4z M30.4,34.2c0.3,0.4,0.6-1.1,0.9-0.7c-0.5,1-1,2.1-1.5,3.1
			c-0.8,2.2,0,4-1.3,5.5c0-0.1,0-0.2,0-0.3C26.7,38.4,29.3,36.3,30.4,34.2z M30.9,35.8c0.8,1.5,1.6,3,2.3,4.4
			c-0.1,0.8-0.3,1.6-0.7,2.1c0-0.1,0-0.2,0-0.3c-0.9-1.1-2.2-3.5-2.2-4.9C30.5,36.6,30.7,36.2,30.9,35.8z M34.5,35.9
			c2.6,2-0.7,8.6-1.5,9.9c-0.2-0.2-0.5-0.4-0.7-0.6C32.2,44.7,34,37.5,34.5,35.9z M30.4,39.6c0.3,0.4,0.6,0.9,0.9,1.3
			c-0.3,1.7-1.6,6-2.9,6.9c0-0.1,0-0.2,0-0.3C27.1,45.1,29.6,41.2,30.4,39.6z M30.7,43.7c0.8,1.1,1.7,2.2,2.5,3.2
			c-0.2,0.4-0.4,0.9-0.6,1.3c-0.5-0.5-1.1-1-1.6-1.5c-0.3-0.4-0.6-0.9-0.9-1.3C30.3,44.9,30.5,44.3,30.7,43.7z M34.7,43.9
			c2.2,2.6-2,8.7-2.9,10.5c-0.1,0-0.2-0.1-0.3-0.1c-0.6-1.3-1.3-2.6-1.9-3.8c0.3-0.3,0.7-0.7,1-1c0,0,0.1,0,0.1,0
			c0.3,0.5,0.6,1.1,0.9,1.6c0.1-0.1,0.3-0.2,0.4-0.3C32.7,48.6,33.9,46.1,34.7,43.9z M30.3,46.7c0.3,0.4,0.7,0.8,1,1.2
			c-0.7,1-3.2,3.5-4,2.8c-0.2-0.1-0.5-0.3-0.7-0.4C27.9,49,29.1,47.9,30.3,46.7z M35.1,48.9c2.5,1.1,5,4.4,6.3,6.8
			c-0.1,0-0.2,0-0.3,0c-0.5,0-1,0.1-1.5,0.1c-0.9-2.2-3.3-4.3-5.1-5.6C34.7,49.8,34.9,49.3,35.1,48.9z M2.3,49
			c0.4,0,0.8,0.1,1.2,0.1c0.6,0.3,0.6,0.5,0.9,1c0,0.2-0.1,0.5-0.1,0.7c-0.5,0.6-0.8,0.8-1.9,0.7c0.2,0.3,0.4,0.7,0.6,1
			c3.3,0.1,10.6-3.4,8.6,4.1c-0.7,0.6-1,1-2.3,1c-0.9-0.6-1.1-1-1.8-1.8c-0.2,0.1-0.4,0.2-0.6,0.3c0,0.4,0,0.9,0,1.3
			c1.5,2.8,5.1,2.2,6.7,0c0.9-1.5,1.8-3,2.6-4.4c5.7-7.4,11.8-2.2,15.1,3.5c-0.3,0.4-0.6,0.8-0.9,1.2c-0.1,0-0.2-0.1-0.3-0.1
			c-0.8-1.2-1.6-2.4-2.3-3.5c-7-10.2-11.6,4.9-15.9,6.6c-4.6,1.8-7.9-2.8-5.6-6.2c1-0.3,1.6-0.4,2.8-0.1c0,0.5,0.1,1.1,0.1,1.6
			c0.1,0,0.2,0.1,0.3,0.1c0.3-0.2,0.6-0.4,0.9-0.6c0-0.4,0-0.8,0-1.2C8.1,51.4-0.9,57.7,1,50.1C1.5,49.7,1.9,49.4,2.3,49z M59.9,49
			c1.4,0,1.8,0.4,2.5,1c1.9,7.3-5.1,2.5-7.6,3.1c-0.6,0.5-1.2,1-1.8,1.5c0,0.3,0.1,0.7,0.1,1c0.2,0.2,0.4,0.5,0.6,0.7
			c0.1,0,0.3-0.1,0.4-0.1c0.1-0.5,0.1-1.3,0.4-1.6c1.2-0.7,2.3,0.1,3.1,0.7c1.2,3.7-2,7.3-6.1,5.6c-3.8-1.5-4.4-6.5-7.6-8.7
			c-1.6-1.1-4.9-0.5-6-1.9c0,0,0-0.1,0-0.1c8.8-2.5,8.7,5.5,13,8.7c1.7,1.3,4.5,1,5.4-0.9c0.3-0.5,0.3-0.9,0.1-1.5
			c-0.1-0.2-0.3-0.4-0.4-0.6c-0.1,0-0.2,0.1-0.3,0.1c-0.3,1.1-0.9,1.7-2.2,1.8c-3-1-2.3-5.1,0.3-6.1c2.7-1,4.2,1.1,6.4,0.9
			c0.4-0.3,0.5-0.4,0.7-1c-1,0-1.4-0.1-1.8-0.7c0-0.4,0-0.8,0-1.2C59.5,49.5,59.7,49.3,59.9,49z M35.4,51.8c0.4,0.3,0.9,0.6,1.3,0.9
			c-0.2,0.2-0.4,0.4-0.6,0.6c-1.2,2.7-3.5,5.9-5.9,7.5c-0.2-0.4-0.5-0.8-0.7-1.2C31.4,57.2,34,54.8,35.4,51.8z M24.4,52.1
			c0.5,0.2,1,0.5,1.5,0.7c-0.3,0.3-0.6,0.6-0.9,0.9c-1,2-3.5,4-2.6,7.4c-0.5-0.4-1.1-0.8-1.6-1.2C20.8,56.1,23,54.5,24.4,52.1z
			 M19.9,56.3c0.4,0,0.8,0.1,1.2,0.1c-0.2,0.5-0.4,1-0.6,1.5c-0.4,0.1-0.8,0.1-1.2,0.1c0,0.2,0,0.4,0,0.6c1.2,1.5,2.4,4.2,5.6,3.5
			c1.1-0.2,2-1,2.9-0.9c0.1,0.4,0.2,0.9,0.3,1.3c-6.6,2.2-8.9-0.2-11-5.6c0,0,0-0.1,0-0.1C18.1,56.7,19,56.5,19.9,56.3z M40.4,56.3
			c2.3,0,4.1,0.3,5.9,0.6c0,0,0,0.1,0,0.1c-0.8,2.2-1.7,4.2-3.4,5.5c0.1-1.8,0.7-3,1.3-4.3c0-0.1-0.1-0.2-0.1-0.3
			c-3.7-0.2-6.7,0.3-8.3,2.5c-0.1-0.1-0.3-0.3-0.4-0.4c-0.2-0.1-0.5-0.3-0.7-0.4C36.1,57.5,37.9,57.4,40.4,56.3z M23.7,56.6
			c6.6,0.5,7.6,7.1,6.4,13.4c0,0-0.1,0-0.1,0c-3.3-1.4-6.6-3-8.2-6.1c0,0,0.1-0.1,0.1-0.1c2.9,1,4.1,3.2,7,4c0,0,0.1-0.1,0.1-0.1
			c0.4-4.6-0.6-7.4-3.5-9c-0.8-0.3-1.6-0.6-2.3-0.9C23.4,57.4,23.6,57,23.7,56.6z M41,58.3c0.5,0,1,0,1.5,0c0,0.1,0,0.2,0,0.3
			c2.4,5.6-5.7,10-9.1,11.4c0-0.1-0.1-0.1-0.1-0.1c-0.5-2.7-1-5.6,0-8.1c0.1,0.1,0.3,0.3,0.4,0.4c0.2,0.1,0.5,0.2,0.7,0.3
			c-0.1,1.7-0.5,3.7,0,5.3c0,0,0.1,0,0.1,0C38.4,66.6,41.4,63.6,41,58.3z M32.9,58.9c2.1,1,3.9,4,7.3,3.1c-0.2,0.5-0.5,1.1-0.7,1.6
			c-3.8,0-5.4-2-7.5-3.7C32.3,59.6,32.6,59.3,32.9,58.9z"/>
	</defs>
	<clipPath id="SVGID_6_">
		<use xlink:href="#SVGID_5_"  style="overflow:visible;"/>
	</clipPath>
	<rect x="-8.3" y="-8.7" class="st2" width="77.7" height="85.7"/>
</g>
</svg>
