<?xml version="1.0" encoding="utf-8"?>
<!-- Generator: Adobe Illustrator 19.2.0, SVG Export Plug-In . SVG Version: 6.00 Build 0)  -->
<svg version="1.1" id="sticker_new" xmlns="http://www.w3.org/2000/svg" xmlns:xlink="http://www.w3.org/1999/xlink" x="0px"
	 y="0px" viewBox="0 0 49 20" style="enable-background:new 0 0 49 20;" xml:space="preserve">
<style type="text/css">
	.st0{fill:#FF5400;}
	.st1{enable-background:new    ;}
	.st2{fill:#FFFFFF;}
</style>
<path id="Rectangle_16_copy" class="st0" d="M39,0H0v20h39l10-9.9L39,0z"/>
<g class="st1">
	<path class="st2" d="M9.9,13.1c0.1-0.5,0-0.9-0.2-1.2S8.9,11.3,8.1,11c-1-0.3-1.6-0.7-2-1.2c-0.4-0.5-0.5-1.2-0.3-2
		c0.2-0.8,0.5-1.4,1.1-1.8c0.6-0.4,1.4-0.6,2.2-0.6c1,0,1.7,0.3,2.3,0.8c0.5,0.5,0.7,1.3,0.5,2.2l0,0h-1.3c0.1-0.6,0-1.1-0.3-1.5
		S9.5,6.3,8.9,6.3c-0.5,0-0.9,0.1-1.2,0.4C7.4,7,7.1,7.3,7.1,7.7C7,8.3,7,8.7,7.2,9S8,9.5,8.8,9.8c1,0.4,1.7,0.8,2.1,1.2
		c0.4,0.5,0.5,1.1,0.3,2c-0.2,0.8-0.6,1.4-1.2,1.8s-1.4,0.6-2.3,0.6c-1,0-1.8-0.2-2.5-0.7c-0.7-0.5-0.9-1.3-0.6-2.3l0,0h1.3
		c-0.2,0.8,0,1.3,0.4,1.6c0.4,0.3,1,0.4,1.6,0.4c0.5,0,0.9-0.1,1.3-0.4C9.6,13.8,9.8,13.5,9.9,13.1z"/>
	<path class="st2" d="M18,12.8h-3.8l-1.4,2.6h-1.3l5.6-10h1.1l1.5,10h-1.3L18,12.8z M14.8,11.7h3l-0.6-4.4l0,0L14.8,11.7z"/>
	<path class="st2" d="M22.6,14.3H27l-0.2,1.1h-5.7l2-10h1.3L22.6,14.3z"/>
	<path class="st2" d="M34.7,10.8h-4.2l-0.7,3.6h4.9l-0.2,1.1h-6.2l2-10h6.1l-0.2,1.1h-4.8l-0.6,3.2h4.2L34.7,10.8z"/>
</g>
</svg>
