<?xml version="1.0" encoding="utf-8"?>
<!-- Generator: Adobe Illustrator 19.2.0, SVG Export Plug-In . SVG Version: 6.00 Build 0)  -->
<svg version="1.1"
	 id="svg2" xmlns:cc="http://creativecommons.org/ns#" xmlns:dc="http://purl.org/dc/elements/1.1/" xmlns:rdf="http://www.w3.org/1999/02/22-rdf-syntax-ns#" xmlns:svg="http://www.w3.org/2000/svg"
	 xmlns="http://www.w3.org/2000/svg" xmlns:xlink="http://www.w3.org/1999/xlink" x="0px" y="0px" viewBox="0 0 61.3 31.3"
	 style="enable-background:new 0 0 61.3 31.3;" xml:space="preserve">
<style type="text/css">
	.st0{clip-path:url(#SVGID_2_);fill:#735500;}
	.st1{clip-path:url(#SVGID_4_);fill:#FFCD00;}
	.st2{clip-path:url(#SVGID_6_);}
</style>
<g id="g20">
	<defs>
		<polygon id="SVGID_1_" points="6.3,31.2 6.3,25 0,25 		"/>
	</defs>
	<clipPath id="SVGID_2_">
		<use xlink:href="#SVGID_1_"  style="overflow:visible;"/>
	</clipPath>
	<rect x="-5.8" y="-5.9" class="st0" width="15.8" height="41.5"/>
</g>
<g id="g38">
	<defs>
		<polygon id="SVGID_3_" points="48.8,0 0,0 0,25 48.8,25 61.3,12.6 		"/>
	</defs>
	<clipPath id="SVGID_4_">
		<use xlink:href="#SVGID_3_"  style="overflow:visible;"/>
	</clipPath>
	<rect x="-4" y="-3.7" class="st1" width="70" height="30"/>
</g>
<g>
	<defs>
		<path id="SVGID_5_" d="M21.9,19.2h-1.6l1.1-5.5h-5.5l-1.1,5.5h-1.6l2.5-12.4h1.6l-1.1,5.6h5.5l1.1-5.6h1.6
			C24.3,6.8,21.9,19.2,21.9,19.2z M35,12l-0.4,2.2c-0.3,1.6-1,2.9-2,3.8c-1,0.9-2.2,1.4-3.6,1.4c-1.3,0-2.3-0.5-3.1-1.6
			c-0.8-1-1-2.3-0.7-3.8l0.4-2.2c0.3-1.6,1-2.9,1.9-3.8c0.9-0.9,2.1-1.4,3.5-1.4c1.3,0,2.4,0.5,3.2,1.6C35.1,9.2,35.3,10.5,35,12z
			 M33,9.1C32.5,8.4,31.8,8,30.8,8c-0.8,0-1.5,0.4-2.2,1.1c-0.6,0.7-1.1,1.6-1.3,2.8L26.9,14c-0.2,1.2-0.1,2.2,0.3,2.9
			c0.5,0.7,1.1,1.1,2.1,1.1c0.9,0,1.6-0.4,2.3-1.1c0.7-0.7,1.1-1.6,1.3-2.8l0.4-2.2C33.6,10.8,33.5,9.8,33,9.1z M45.8,8.1h-3.7
			l-2.2,11.1h-1.6l2.2-11.1h-3.7l0.3-1.3h9L45.8,8.1z"/>
	</defs>
	<clipPath id="SVGID_6_">
		<use xlink:href="#SVGID_5_"  style="overflow:visible;"/>
	</clipPath>
	<rect x="11" y="3.6" class="st2" width="36.8" height="18.3"/>
</g>
</svg>
