<?xml version="1.0" encoding="utf-8"?>
<!-- Generator: Adobe Illustrator 19.2.0, SVG Export Plug-In . SVG Version: 6.00 Build 0)  -->
<svg version="1.1"
	 id="svg2" xmlns:cc="http://creativecommons.org/ns#" xmlns:dc="http://purl.org/dc/elements/1.1/" xmlns:rdf="http://www.w3.org/1999/02/22-rdf-syntax-ns#" xmlns:svg="http://www.w3.org/2000/svg"
	 xmlns="http://www.w3.org/2000/svg" xmlns:xlink="http://www.w3.org/1999/xlink" x="0px" y="0px" viewBox="0 0 61.3 31.3"
	 style="enable-background:new 0 0 61.3 31.3;" xml:space="preserve">
<style type="text/css">
	.st0{clip-path:url(#SVGID_2_);fill:#993200;}
	.st1{clip-path:url(#SVGID_4_);fill:#FF5400;}
	.st2{clip-path:url(#SVGID_6_);fill:#FFFFFF;}
</style>
<g id="g20">
	<defs>
		<polygon id="SVGID_1_" points="6.3,31.2 6.3,25 0,25 		"/>
	</defs>
	<clipPath id="SVGID_2_">
		<use xlink:href="#SVGID_1_"  style="overflow:visible;"/>
	</clipPath>
	<rect x="-5.7" y="-5.2" class="st0" width="14.2" height="39"/>
</g>
<g id="g38">
	<defs>
		<polygon id="SVGID_3_" points="48.8,0 0,0 0,25 48.8,25 61.3,12.6 		"/>
	</defs>
	<clipPath id="SVGID_4_">
		<use xlink:href="#SVGID_3_"  style="overflow:visible;"/>
	</clipPath>
	<rect x="-5.7" y="-5.1" class="st1" width="70" height="32.5"/>
</g>
<g>
	<defs>
		<path id="SVGID_5_" d="M14.9,10.4L14.9,10.4l-1.6,0c0.2-0.8,0-1.4-0.4-1.8c-0.4-0.5-1-0.7-1.8-0.7c-0.6,0-1.1,0.2-1.5,0.5
			C9.2,8.8,8.9,9.2,8.8,9.6c-0.1,0.7-0.1,1.2,0.2,1.6c0.3,0.3,1,0.7,2,1.1c1.2,0.4,2.1,0.9,2.6,1.5c0.5,0.6,0.6,1.4,0.4,2.5
			c-0.2,1-0.7,1.8-1.5,2.3c-0.8,0.5-1.7,0.7-2.9,0.7c-1.2,0-2.2-0.3-3.1-0.9c-0.8-0.6-1.1-1.6-0.8-2.9l0-0.1h1.6
			c-0.2,0.9,0,1.6,0.5,2c0.5,0.4,1.2,0.6,2,0.6c0.6,0,1.1-0.2,1.6-0.5c0.5-0.3,0.8-0.7,0.9-1.2c0.1-0.7,0-1.2-0.3-1.6
			c-0.3-0.4-1-0.7-1.9-1.1c-1.2-0.4-2-0.9-2.6-1.5C7.1,11.6,7,10.8,7.2,9.7c0.2-1,0.7-1.7,1.4-2.3c0.8-0.5,1.7-0.8,2.8-0.8
			c1.2,0,2.2,0.3,2.8,1C14.9,8.3,15.1,9.2,14.9,10.4z M23,19.2L22.5,16h-4.8L16,19.2h-1.7l7-12.4h1.4l1.9,12.4H23z M21.6,9.1
			L21.6,9.1l-3.1,5.5h3.8L21.6,9.1z M33.8,17.9l-0.3,1.3h-7.1l2.5-12.4h1.6l-2.2,11.1C28.3,17.9,33.8,17.9,33.8,17.9z M45.2,8.1h-6
			l-0.8,4h5.3l-0.3,1.3h-5.3l-0.9,4.4h6.1L43,19.2h-7.7l2.5-12.4h7.6C45.4,6.8,45.2,8.1,45.2,8.1z"/>
	</defs>
	<clipPath id="SVGID_6_">
		<use xlink:href="#SVGID_5_"  style="overflow:visible;"/>
	</clipPath>
	<rect x="4.3" y="4.1" class="st2" width="42.2" height="17.2"/>
</g>
</svg>
