<?xml version="1.0" encoding="utf-8"?>
<!-- Generator: Adobe Illustrator 19.2.0, SVG Export Plug-In . SVG Version: 6.00 Build 0)  -->
<svg version="1.1"
	 id="svg2" xmlns:cc="http://creativecommons.org/ns#" xmlns:dc="http://purl.org/dc/elements/1.1/" xmlns:rdf="http://www.w3.org/1999/02/22-rdf-syntax-ns#" xmlns:svg="http://www.w3.org/2000/svg"
	 xmlns="http://www.w3.org/2000/svg" xmlns:xlink="http://www.w3.org/1999/xlink" x="0px" y="0px" viewBox="0 0 61.3 31.3"
	 style="enable-background:new 0 0 61.3 31.3;" xml:space="preserve">
<style type="text/css">
	.st0{clip-path:url(#SVGID_2_);fill:#640019;}
	.st1{fill:none;}
	.st2{clip-path:url(#SVGID_4_);fill:#B6002D;}
	.st3{clip-path:url(#SVGID_6_);fill:#FFFFFF;}
</style>
<g id="g20">
	<defs>
		<polygon id="SVGID_1_" points="6.3,31.2 6.3,25 0,25 		"/>
	</defs>
	<clipPath id="SVGID_2_">
		<use xlink:href="#SVGID_1_"  style="overflow:visible;"/>
	</clipPath>
	<rect x="-3.8" y="-4.1" class="st0" width="13.2" height="38.7"/>
</g>
<rect y="0" class="st1" width="61.3" height="31.3"/>
<g id="g38">
	<defs>
		<polygon id="SVGID_3_" points="48.8,0 0,0 0,25 48.8,25 61.3,12.6 		"/>
	</defs>
	<clipPath id="SVGID_4_">
		<use xlink:href="#SVGID_3_"  style="overflow:visible;"/>
	</clipPath>
	<rect x="-2.7" y="-3.1" class="st2" width="65" height="30.5"/>
</g>
<g>
	<defs>
		<path id="SVGID_5_" d="M18.1,19.2h-1.7l-3.5-9.5l-0.1,0L11,19.2H9.3l2.5-12.4h1.6l3.5,9.5l0.1,0l1.9-9.5h1.7
			C20.6,6.8,18.1,19.2,18.1,19.2z M30.9,8.1h-6l-0.8,4h5.3l-0.3,1.3h-5.3l-0.9,4.4H29l-0.3,1.3H21l2.5-12.4h7.6
			C31.1,6.8,30.9,8.1,30.9,8.1z M40.4,19.2h-1.5l-0.9-8.6l0-1l0,0l-0.4,1L34,19.2h-1.5L31.8,6.8h1.6l0.4,8.1l0,1.4l0,0l0.5-1.4
			l3.4-8.1h1.5l0.8,8.1l0.1,1.5l0.1,0l0.5-1.5l3-8.1h1.6C45.2,6.8,40.4,19.2,40.4,19.2z"/>
	</defs>
	<clipPath id="SVGID_6_">
		<use xlink:href="#SVGID_5_"  style="overflow:visible;"/>
	</clipPath>
	<rect x="7.8" y="5.1" class="st3" width="38" height="16.2"/>
</g>
</svg>
