<?xml version="1.0" encoding="utf-8"?>
<!-- Generator: Adobe Illustrator 19.2.0, SVG Export Plug-In . SVG Version: 6.00 Build 0)  -->
<svg version="1.1"
	 id="svg2" xmlns:cc="http://creativecommons.org/ns#" xmlns:dc="http://purl.org/dc/elements/1.1/" xmlns:rdf="http://www.w3.org/1999/02/22-rdf-syntax-ns#" xmlns:svg="http://www.w3.org/2000/svg"
	 xmlns="http://www.w3.org/2000/svg" xmlns:xlink="http://www.w3.org/1999/xlink" x="0px" y="0px" viewBox="0 0 31.3 31.3"
	 style="enable-background:new 0 0 31.3 31.3;" xml:space="preserve">
<style type="text/css">
	.st0{clip-path:url(#SVGID_2_);fill:#1B2127;}
</style>
<g id="g20">
	<defs>
		<path id="SVGID_1_" d="M25,31.2H6.2C2.8,31.2,0,28.4,0,25V6.2C0,2.8,2.8,0,6.2,0H25c3.5,0,6.3,2.8,6.3,6.3V25
			C31.2,28.4,28.5,31.2,25,31.2z M21.9,17.1c-0.5-0.7-1.3-1.2-2.3-1.5c0.7-0.3,1.2-0.8,1.7-1.4c0.4-0.6,0.6-1.3,0.6-2.1
			c0-0.7-0.2-1.3-0.5-1.9c-0.3-0.6-0.7-1-1.2-1.3c-0.5-0.3-1.1-0.6-1.7-0.7c-0.6-0.1-1.6-0.2-2.9-0.2H9.2v16.1h5.5
			c2.1,0,3.4,0,3.9-0.1c0.9-0.1,1.6-0.3,2.2-0.8c0.6-0.4,1.1-1,1.4-1.7c0.3-0.7,0.5-1.4,0.5-2.1C22.7,18.6,22.4,17.8,21.9,17.1z
			 M17.7,21.4c-0.3,0.1-1.1,0.1-2.2,0.1h-3v-4.3H15c1.5,0,2.4,0.1,2.9,0.2c0.4,0.2,0.8,0.4,1,0.7c0.2,0.3,0.4,0.7,0.4,1.2
			c0,0.6-0.2,1-0.5,1.4C18.5,21.1,18.1,21.3,17.7,21.4z M16.9,14.5c-0.3,0-1.1,0.1-2.4,0.1h-2.1v-3.7h1.9c1.5,0,2.5,0,2.8,0.1
			c0.5,0.1,1,0.3,1.2,0.6c0.3,0.3,0.4,0.7,0.4,1.2c0,0.5-0.2,0.9-0.5,1.3C17.9,14.2,17.5,14.4,16.9,14.5z"/>
	</defs>
	<clipPath id="SVGID_2_">
		<use xlink:href="#SVGID_1_"  style="overflow:visible;"/>
	</clipPath>
	<rect x="-3.6" y="-3.3" class="st0" width="38.1" height="38.1"/>
</g>
</svg>
